<svg xmlns="http://www.w3.org/2000/svg" xmlns:xlink="http://www.w3.org/1999/xlink" viewBox="0 0 740 160"><defs><style>.cls-1,.cls-31,.cls-62,.cls-63{fill:none;}.cls-2{fill:#c6c6c5;}.cls-10,.cls-11,.cls-12,.cls-13,.cls-14,.cls-15,.cls-16,.cls-17,.cls-18,.cls-19,.cls-2,.cls-23,.cls-24,.cls-25,.cls-27,.cls-28,.cls-31,.cls-5,.cls-6,.cls-7,.cls-8,.cls-9{stroke:#000;}.cls-10,.cls-11,.cls-12,.cls-13,.cls-14,.cls-15,.cls-16,.cls-17,.cls-18,.cls-19,.cls-2,.cls-21,.cls-23,.cls-24,.cls-25,.cls-27,.cls-28,.cls-3,.cls-31,.cls-5,.cls-6,.cls-62,.cls-63,.cls-7,.cls-8,.cls-9{stroke-miterlimit:10;}.cls-10,.cls-11,.cls-12,.cls-13,.cls-14,.cls-15,.cls-16,.cls-19,.cls-2,.cls-21,.cls-23,.cls-24,.cls-25,.cls-27,.cls-28,.cls-3,.cls-5,.cls-6,.cls-7,.cls-8,.cls-9{stroke-width:0.25px;}.cls-3{fill:#79c8d4;}.cls-21,.cls-3{stroke:#3c3c3b;}.cls-18,.cls-21,.cls-24,.cls-26,.cls-4,.cls-5{fill:#3c3c3b;}.cls-17,.cls-21,.cls-26,.cls-5{fill-rule:evenodd;}.cls-6{fill:#6f6f6e;}.cls-7{fill:url(#Cast_Iron);}.cls-8{fill:url(#Cast_Iron-2);}.cls-9{fill:#60615f;}.cls-10{fill:url(#Cast_Iron-3);}.cls-11{fill:url(#Cast_Iron-4);}.cls-12{fill:url(#Cast_Iron-5);}.cls-13{fill:url(#Cast_Iron-6);}.cls-14{fill:url(#Cast_Iron-7);}.cls-15{fill:url(#Cast_Iron-8);}.cls-16{fill:#b1b1b1;}.cls-17{fill:#f3e20a;}.cls-17,.cls-18{stroke-width:0.15px;}.cls-19{fill:#ececec;}.cls-20{fill:#9c9b9b;}.cls-22{fill:#54acd3;}.cls-23{fill:#e2e1e1;}.cls-25{fill:url(#radial-gradient);}.cls-27{fill:#faca9e;}.cls-28{fill:#d9d9d9;}.cls-29{fill:#adacac;}.cls-30{clip-path:url(#clip-path);}.cls-31,.cls-63{stroke-width:0.75px;}.cls-32{fill:#8b8b8b;}.cls-33{fill:#fff;}.cls-34{clip-path:url(#clip-path-3);}.cls-35{clip-path:url(#clip-path-5);}.cls-36{clip-path:url(#clip-path-7);}.cls-37{clip-path:url(#clip-path-9);}.cls-38{clip-path:url(#clip-path-11);}.cls-39{clip-path:url(#clip-path-13);}.cls-40{clip-path:url(#clip-path-15);}.cls-41{clip-path:url(#clip-path-17);}.cls-42{clip-path:url(#clip-path-19);}.cls-43{clip-path:url(#clip-path-21);}.cls-44{clip-path:url(#clip-path-23);}.cls-45{clip-path:url(#clip-path-25);}.cls-46{clip-path:url(#clip-path-27);}.cls-47{clip-path:url(#clip-path-29);}.cls-48{clip-path:url(#clip-path-31);}.cls-49{clip-path:url(#clip-path-33);}.cls-50{clip-path:url(#clip-path-35);}.cls-51{clip-path:url(#clip-path-37);}.cls-52{clip-path:url(#clip-path-39);}.cls-53{clip-path:url(#clip-path-41);}.cls-54{clip-path:url(#clip-path-43);}.cls-55{fill:#ffd500;}.cls-56{fill:#251a5f;}.cls-57{fill:#ffd421;}.cls-58{fill:#221e20;}.cls-59{fill:#29295d;}.cls-60{fill:#009c3d;}.cls-61{fill:#575756;}.cls-62,.cls-63{stroke:#575756;stroke-linecap:round;}</style><linearGradient id="Cast_Iron" x1="-695" y1="-1246.36" x2="-691.32" y2="-1246.36" gradientTransform="translate(1258.32 -637.82) rotate(-90)" gradientUnits="userSpaceOnUse"><stop offset="0.01" stop-color="#909094"/><stop offset="0.53" stop-color="#a3a2a2"/><stop offset="1" stop-color="#5f5e60"/></linearGradient><linearGradient id="Cast_Iron-2" x1="-695.79" y1="-1242.73" x2="-690.59" y2="-1242.73" xlink:href="#Cast_Iron"/><linearGradient id="Cast_Iron-3" x1="-744.65" y1="-1246.39" x2="-740.97" y2="-1246.39" xlink:href="#Cast_Iron"/><linearGradient id="Cast_Iron-4" x1="-745.44" y1="-1242.76" x2="-740.24" y2="-1242.76" xlink:href="#Cast_Iron"/><linearGradient id="Cast_Iron-5" x1="-694.75" y1="111.92" x2="-691.07" y2="111.92" gradientTransform="matrix(0, -1, -1, 0, 835.57, -637.82)" xlink:href="#Cast_Iron"/><linearGradient id="Cast_Iron-6" x1="-695.54" y1="115.55" x2="-690.34" y2="115.55" gradientTransform="matrix(0, -1, -1, 0, 835.57, -637.82)" xlink:href="#Cast_Iron"/><linearGradient id="Cast_Iron-7" x1="-744.41" y1="111.89" x2="-740.73" y2="111.89" gradientTransform="matrix(0, -1, -1, 0, 835.57, -637.82)" xlink:href="#Cast_Iron"/><linearGradient id="Cast_Iron-8" x1="-745.2" y1="115.52" x2="-740" y2="115.52" gradientTransform="matrix(0, -1, -1, 0, 835.57, -637.82)" xlink:href="#Cast_Iron"/><radialGradient id="radial-gradient" cx="-411.05" cy="-334.75" r="5.28" gradientTransform="matrix(0.77, -0.64, 0.64, 0.77, 649.2, 101.03)" gradientUnits="userSpaceOnUse"><stop offset="0" stop-color="#575757"/><stop offset="0.51" stop-color="#999ba4"/><stop offset="0.93" stop-color="#fff"/></radialGradient><clipPath id="clip-path"><rect class="cls-1" x="445.96" y="41.97" width="25.85" height="29.86"/></clipPath><clipPath id="clip-path-3"><rect class="cls-1" x="626.48" y="41.75" width="25.85" height="29.86"/></clipPath><clipPath id="clip-path-5"><rect class="cls-1" x="626.45" y="88.69" width="25.85" height="29.86"/></clipPath><clipPath id="clip-path-7"><rect class="cls-1" x="445.99" y="88.47" width="25.85" height="29.86"/></clipPath><clipPath id="clip-path-9"><rect class="cls-1" x="159.72" y="41.78" width="25.85" height="29.86"/></clipPath><clipPath id="clip-path-11"><rect class="cls-1" x="338.39" y="88.5" width="25.85" height="29.86"/></clipPath><clipPath id="clip-path-13"><rect class="cls-1" x="482.8" y="41.97" width="25.85" height="29.86"/></clipPath><clipPath id="clip-path-15"><rect class="cls-1" x="589.61" y="88.69" width="25.85" height="29.86"/></clipPath><clipPath id="clip-path-17"><rect class="cls-1" x="519.3" y="41.97" width="25.85" height="29.86"/></clipPath><clipPath id="clip-path-19"><rect class="cls-1" x="553.11" y="88.69" width="25.85" height="29.86"/></clipPath><clipPath id="clip-path-21"><rect class="cls-1" x="554.96" y="42.13" width="25.85" height="29.86"/></clipPath><clipPath id="clip-path-23"><rect class="cls-1" x="517.45" y="88.86" width="25.85" height="29.86"/></clipPath><clipPath id="clip-path-25"><rect class="cls-1" x="193.7" y="41.94" width="25.84" height="29.86"/></clipPath><clipPath id="clip-path-27"><rect class="cls-1" x="304.37" y="88.67" width="25.84" height="29.86"/></clipPath><clipPath id="clip-path-29"><rect class="cls-1" x="228.87" y="41.94" width="25.84" height="29.86"/></clipPath><clipPath id="clip-path-31"><rect class="cls-1" x="269.2" y="88.67" width="25.84" height="29.86"/></clipPath><clipPath id="clip-path-33"><rect class="cls-1" x="265.7" y="42.11" width="25.85" height="29.86"/></clipPath><clipPath id="clip-path-35"><rect class="cls-1" x="232.37" y="88.84" width="25.85" height="29.86"/></clipPath><clipPath id="clip-path-37"><rect class="cls-1" x="300.87" y="42.28" width="25.85" height="29.86"/></clipPath><clipPath id="clip-path-39"><rect class="cls-1" x="197.2" y="89" width="25.85" height="29.86"/></clipPath><clipPath id="clip-path-41"><rect class="cls-1" x="338.37" y="42.28" width="25.85" height="29.86"/></clipPath><clipPath id="clip-path-43"><rect class="cls-1" x="159.7" y="89" width="25.85" height="29.86"/></clipPath></defs><title>Type5_A5</title><g id="Type_5_A5-1" data-name="Type 5_A5-1"><g id="Vognkasse-5" data-name="Vognkasse"><rect id="GULVFARGE" class="cls-2" x="27.39" y="36.19" width="680.6" height="87.92"/><rect class="cls-3" x="55.28" y="36.16" width="624.57" height="3.12"/><rect class="cls-4" x="54.82" y="36.16" width="110.11" height="3.12"/><rect class="cls-4" x="188.93" y="36.19" width="13.77" height="3.12"/><rect class="cls-4" x="238.12" y="36.16" width="13.77" height="3.12"/><rect class="cls-4" x="287.09" y="36.17" width="13.77" height="3.12"/><rect class="cls-4" x="336.4" y="36.11" width="62.71" height="3.12"/><rect class="cls-4" x="434.34" y="36.17" width="13.77" height="3.12"/><rect class="cls-4" x="483.52" y="36.11" width="13.77" height="3.12"/><rect class="cls-4" x="532.65" y="36.17" width="13.77" height="3.12"/><rect class="cls-4" x="581.84" y="36.11" width="13.77" height="3.12"/><rect class="cls-4" x="631.02" y="36.11" width="49.2" height="3.12"/><rect class="cls-3" x="55.56" y="121" width="623.86" height="3.12"/><rect class="cls-4" x="54.87" y="121" width="110.11" height="3.12"/><rect class="cls-4" x="188.97" y="121.02" width="13.77" height="3.12"/><rect class="cls-4" x="238.16" y="120.99" width="13.77" height="3.12"/><rect class="cls-4" x="287.13" y="121.01" width="13.77" height="3.12"/><rect class="cls-4" x="336.44" y="120.95" width="62.71" height="3.12"/><rect class="cls-4" x="434.38" y="121.01" width="13.77" height="3.12"/><rect class="cls-4" x="483.57" y="120.95" width="13.77" height="3.12"/><rect class="cls-4" x="532.69" y="121.01" width="13.77" height="3.12"/><rect class="cls-4" x="581.88" y="120.95" width="13.77" height="3.12"/><rect class="cls-4" x="631.07" y="120.95" width="49.14" height="3.12"/><path class="cls-5" d="M18.71,37.74h0c-1.39.26-2.51.75-2.7,2.78V63.15h11.2v-27Z"/><path class="cls-5" d="M18.77,122.55h0c-1.38-.26-2.51-.75-2.7-2.78V97.14h11.2v27Z"/><path class="cls-5" d="M716.73,37.74h0c1.39.26,2.51.75,2.7,2.78V63.15H708.23v-27Z"/><path class="cls-5" d="M716.67,122.55h0c1.39-.26,2.51-.75,2.7-2.78V97.14h-11.2v27Z"/><polygon class="cls-6" points="17.47 63.18 17.47 63.21 15.5 65.17 12.05 65.17 8.39 68.84 8.39 80.38 8.39 80.4 8.39 91.94 12.05 95.61 15.5 95.61 17.47 97.58 17.47 97.6 27.19 97.6 27.19 80.4 27.19 80.38 27.19 63.18 17.47 63.18"/><rect class="cls-7" x="8.71" y="53.49" width="6.51" height="3.68"/><rect class="cls-8" x="15.11" y="52.76" width="0.95" height="5.2"/><path class="cls-9" d="M8.67,58.94V51.6h-1l-.06.14c-.65,1.25-.53,6.08,0,7.18l0,.12h1l0-.1h0"/><rect class="cls-10" x="8.67" y="103.15" width="6.51" height="3.68"/><rect class="cls-11" x="15.08" y="102.42" width="0.95" height="5.2"/><path class="cls-9" d="M8.64,108.6v-7.34h-1l-.06.14c-.65,1.24-.53,6.07,0,7.18l0,.11h1l0-.09h0"/><polygon class="cls-6" points="717.88 62.93 717.88 62.96 719.84 64.93 723.3 64.93 726.96 68.59 726.96 80.14 726.96 80.15 726.96 91.7 723.3 95.36 719.84 95.36 717.88 97.33 717.88 97.36 708.15 97.36 708.15 80.15 708.15 80.14 708.15 62.93 717.88 62.93"/><rect class="cls-12" x="720.39" y="53.25" width="6.51" height="3.68"/><rect class="cls-13" x="719.54" y="52.52" width="0.95" height="5.2"/><path class="cls-9" d="M726.94,58.69V51.36h1l.06.13c.65,1.25.53,6.08,0,7.19l0,.11h-1v-.1h0"/><rect class="cls-14" x="720.42" y="102.91" width="6.51" height="3.68"/><rect class="cls-15" x="719.58" y="102.18" width="0.95" height="5.2"/><path class="cls-9" d="M727,108.35V101h1l.06.14c.65,1.25.53,6.08,0,7.19l0,.11h-1l0-.1h0"/><rect class="cls-16" x="680.18" y="105.62" width="24.21" height="18.45"/><rect class="cls-16" x="680.18" y="111.29" width="24.21" height="6.52"/><rect class="cls-16" x="680.15" y="36.2" width="24.21" height="18.45"/><rect class="cls-16" x="680.15" y="41.87" width="24.21" height="6.52"/><rect class="cls-16" x="30.59" y="105.62" width="24.21" height="18.45"/><rect class="cls-16" x="30.59" y="111.28" width="24.21" height="6.52"/><rect class="cls-16" x="30.56" y="36.2" width="24.21" height="18.45"/><rect class="cls-16" x="30.56" y="41.86" width="24.21" height="6.52"/><polygon class="cls-17" points="705.2 105.75 704.54 105.75 704.54 103.02 704.13 103.02 704.13 103.1 702.72 103.1 702.72 103.52 704.13 103.52 704.13 108.84 704.54 108.84 704.54 106.08 705.2 106.08 705.2 105.75"/><rect class="cls-18" x="650.71" y="34.01" width="29.92" height="1.21"/><rect class="cls-18" x="650.79" y="125.09" width="29.91" height="1.21"/><rect class="cls-18" x="54.72" y="34.06" width="29.92" height="1.21"/><rect class="cls-18" x="54.81" y="125.14" width="29.92" height="1.21"/></g><g id="INNREDNING-5" data-name="INNREDNING"><path class="cls-6" d="M61.24,99.41h-.05a5.69,5.69,0,0,0-5.69,5.69c0,.07,0,.14,0,.21h0v15.52H76.27V99.41Z"/><path class="cls-6" d="M662.29,99.41h0a5.69,5.69,0,0,0-5.69,5.69c0,.07,0,.14,0,.21h0v15.52h20.79V99.41Z"/><rect class="cls-19" x="654.34" y="39.41" width="22.69" height="22.81"/><rect class="cls-19" x="135.13" y="97.58" width="22.69" height="22.81"/><rect class="cls-19" x="134.93" y="39.83" width="20.01" height="19.09"/><polygon class="cls-6" points="132.08 39.36 55.92 39.36 55.92 48.14 105.61 48.14 132.08 58.84 132.08 39.36"/><rect class="cls-6" x="368.56" y="39.62" width="28.35" height="28.35"/><rect class="cls-20" x="369.3" y="49.5" width="13.57" height="18.3"/><rect class="cls-20" x="383.39" y="49.5" width="12.69" height="18.3"/><rect class="cls-6" x="368.45" y="92.72" width="28.35" height="28.35"/><rect class="cls-20" x="369.19" y="92.89" width="13.57" height="18.3"/><rect class="cls-20" x="383.28" y="92.89" width="12.69" height="18.3"/><rect class="cls-4" x="132.85" y="71.72" width="1.06" height="13.48"/><rect class="cls-4" x="132.91" y="58.03" width="1.06" height="13.48"/><rect class="cls-4" x="679.31" y="80.02" width="1.06" height="13.48"/><rect class="cls-4" x="679.38" y="66.33" width="1.06" height="13.48"/><rect class="cls-4" x="677.91" y="39.41" width="1.19" height="27.38"/><rect class="cls-4" x="677.93" y="93.51" width="1.19" height="27.38"/><rect class="cls-4" x="705.18" y="80.26" width="1.06" height="12.59"/><rect class="cls-4" x="705.18" y="67.55" width="1.06" height="12.47"/><polygon class="cls-21" points="705.26 36.16 705.26 55.07 706.38 55.07 706.38 67.38 707.81 67.38 707.81 36.16 705.26 36.16"/><polygon class="cls-21" points="705.31 124.13 705.31 105.21 706.42 105.21 706.42 92.91 707.85 92.91 707.85 124.13 705.31 124.13"/><rect class="cls-4" x="29.06" y="80.3" width="1.06" height="12.59"/><rect class="cls-4" x="29.06" y="67.6" width="1.06" height="12.47"/><polygon class="cls-21" points="30.03 36.2 30.03 55.12 28.91 55.12 28.91 67.43 27.48 67.43 27.48 36.2 30.03 36.2"/><polygon class="cls-21" points="29.99 124.17 29.99 105.26 28.87 105.26 28.87 92.95 27.44 92.95 27.44 124.17 29.99 124.17"/><path class="cls-22" d="M115.7,81.3c-.41-.37-.83-.72-1.26-1.06l-.63-.52,0,0a22.79,22.79,0,0,0-34.69,26.6l.68-.69h0l0,0a1.44,1.44,0,0,1,2,0h0l2,2,.72.72,5.89,5.89h19.64A16.67,16.67,0,0,1,126.12,102c.46,0,.93,0,1.38.07l2-9.21Z"/><line class="cls-23" x1="121.22" y1="89.42" x2="116" y2="85.04"/><path class="cls-23" d="M114.67,83.35s0,0,0,0L111.1,87.6l0,0c-2.52,3-2.69,7.08-.37,9s6.31,1.08,8.87-2l0,0,1.58-1.88h0l3.27-3.91L116,81.79Z"/><path class="cls-23" d="M116,85.05a7.88,7.88,0,0,0-4.64,2.8c-2.43,2.89-2.62,6.72-.43,8.56s5.93,1,8.35-1.91a7.88,7.88,0,0,0,1.95-5.06Z"/><path class="cls-24" d="M131,85l-21-8.57a23.49,23.49,0,0,0-9.73-2.09A23.23,23.23,0,0,0,80.06,86h-2.8a1.34,1.34,0,0,0-1.34,1.11v1.12h4.32a21.84,21.84,0,0,1,20.09-12.95A22.27,22.27,0,0,1,110,77.48l21.2,8.77V85Z"/><path class="cls-6" d="M132.35,97.59V84.84h-.18l-21.93-9.19c-.41-.19-.84-.37-1.27-.55L108.4,77a22.29,22.29,0,0,1,5.45,2.91l0,0,.62.52c.43.33.85.68,1.25,1l13.63,11.43L127.43,102c-.45,0-.91-.07-1.37-.07A16.5,16.5,0,0,0,110.17,114H90.73l-5.84-5.84-.7-.7-2-2h0a1.44,1.44,0,0,0-2,0l0,0h0l-.67.68a22.56,22.56,0,0,1,4.79-23.72l-1.75-1.58a24.92,24.92,0,0,0-3.63,4.95H76a1.44,1.44,0,0,0-1.4,1.19V99.3H60.87A5.69,5.69,0,0,0,55.18,105a1.48,1.48,0,0,0,0,.21h0v15.52H75.94v0h56.43V97.59Z"/><path class="cls-25" d="M123.86,104.89c1.51,1.8.63,5-2,7.2s-5.93,2.49-7.44.69-.62-5,2-7.2S122.35,103.09,123.86,104.89Z"/><polygon class="cls-26" points="134.08 97.98 132.65 97.98 132.65 84.53 131.61 84.53 131.61 121.11 134.93 121.11 134.93 84.53 134.08 84.53 134.08 97.98"/><polygon class="cls-26" points="131.62 39.37 131.62 59.02 132.66 59.02 132.66 45.57 134.09 45.57 134.09 59.02 134.94 59.02 134.94 39.37 131.62 39.37"/><rect class="cls-6" x="397.14" y="39.63" width="13.33" height="28.35"/><polygon class="cls-27" points="427.55 93.7 427.55 118.39 426.06 118.39 426.06 93.7 422.24 93.7 422.24 119.77 431.68 119.77 431.68 93.7 427.55 93.7"/><rect class="cls-27" x="426.14" y="93.89" width="1.29" height="24.46"/><polygon class="cls-27" points="415.94 67.03 415.94 42.34 414.45 42.34 414.45 67.03 410.63 67.03 410.63 40.97 420.07 40.97 420.07 67.03 415.94 67.03"/><rect class="cls-27" x="414.53" y="42.38" width="1.29" height="24.46"/><rect class="cls-3" x="443.02" y="39.45" width="1.05" height="32.67"/><rect class="cls-3" x="443.03" y="88.17" width="1.05" height="32.67"/><path class="cls-28" d="M398.45,98.11h-1.53v8.3h1.53a.56.56,0,0,0,.57-.56V98.68A.56.56,0,0,0,398.45,98.11Z"/><path class="cls-28" d="M398.42,107h-1.53v8.3h1.53a.56.56,0,0,0,.57-.56v-7.17A.56.56,0,0,0,398.42,107Z"/><path class="cls-28" d="M412.08,49.28h-1.53v8.3h1.53a.57.57,0,0,0,.57-.57V49.84A.57.57,0,0,0,412.08,49.28Z"/><path class="cls-28" d="M412.05,58.19h-1.54v8.3h1.54a.56.56,0,0,0,.56-.57V58.75A.56.56,0,0,0,412.05,58.19Z"/></g><g id="SETER-4" data-name="SETER"><rect class="cls-27" x="223.25" y="42.04" width="6.8" height="29.76" rx="1.42" ry="1.42"/><path class="cls-27" d="M230,43.41h-3.59a.57.57,0,0,0-.57.56V56.16a.58.58,0,0,0,.57.57H230Z"/><path class="cls-27" d="M230,57.31H226.4a.56.56,0,0,0-.57.56V70.06a.56.56,0,0,0,.57.57H230Z"/><rect class="cls-27" x="293.91" y="89.02" width="6.8" height="29.76" rx="1.42" ry="1.42"/><path class="cls-27" d="M294,90.39h3.59a.57.57,0,0,1,.57.57v12.18a.57.57,0,0,1-.57.57H294Z"/><path class="cls-27" d="M294,104.29h3.59a.57.57,0,0,1,.57.57v12.19a.57.57,0,0,1-.57.57H294Z"/><rect class="cls-27" x="259.66" y="42.14" width="6.8" height="29.76" rx="1.42" ry="1.42"/><path class="cls-27" d="M266.41,43.51h-3.59a.57.57,0,0,0-.57.57V56.27a.57.57,0,0,0,.57.56h3.59Z"/><path class="cls-27" d="M266.4,57.41h-3.59a.57.57,0,0,0-.57.57V70.17a.56.56,0,0,0,.57.56h3.59Z"/><rect class="cls-27" x="257.51" y="89.13" width="6.8" height="29.76" rx="1.42" ry="1.42"/><path class="cls-27" d="M257.56,90.49h3.59a.58.58,0,0,1,.57.57v12.19a.58.58,0,0,1-.57.57h-3.59Z"/><path class="cls-27" d="M257.57,104.4h3.59a.56.56,0,0,1,.57.56v12.19a.56.56,0,0,1-.57.57h-3.59Z"/><rect class="cls-27" x="295.01" y="42.13" width="6.8" height="29.76" rx="1.42" ry="1.42"/><path class="cls-27" d="M301.76,43.5h-3.59a.57.57,0,0,0-.57.56V56.25a.57.57,0,0,0,.57.57h3.59Z"/><path class="cls-27" d="M301.75,57.4h-3.59a.56.56,0,0,0-.57.57V70.15a.56.56,0,0,0,.57.57h3.59Z"/><rect class="cls-27" x="222.15" y="89.12" width="6.8" height="29.76" rx="1.42" ry="1.42"/><path class="cls-27" d="M222.21,90.48h3.59a.57.57,0,0,1,.57.57v12.19a.57.57,0,0,1-.57.56h-3.59Z"/><path class="cls-27" d="M222.22,104.38h3.59a.58.58,0,0,1,.57.57v12.19a.58.58,0,0,1-.57.57h-3.59Z"/><rect class="cls-27" x="331.14" y="42.28" width="6.8" height="29.76" rx="1.42" ry="1.42"/><path class="cls-27" d="M337.88,43.64h-3.59a.56.56,0,0,0-.56.57V56.4a.56.56,0,0,0,.56.56h3.59Z"/><path class="cls-27" d="M337.87,57.54h-3.59a.57.57,0,0,0-.56.57V70.3a.57.57,0,0,0,.56.57h3.59Z"/><rect class="cls-27" x="186.03" y="89.26" width="6.8" height="29.76" rx="1.42" ry="1.42"/><path class="cls-27" d="M186.09,90.63h3.59a.56.56,0,0,1,.56.56v12.19a.57.57,0,0,1-.56.57h-3.59Z"/><path class="cls-27" d="M186.1,104.53h3.59a.56.56,0,0,1,.56.56v12.19a.56.56,0,0,1-.56.57H186.1Z"/><rect class="cls-27" x="580.43" y="41.75" width="6.8" height="29.76" rx="1.42" ry="1.42"/><path class="cls-27" d="M580.49,43.11h3.59a.57.57,0,0,1,.56.57V55.87a.57.57,0,0,1-.56.57h-3.59Z"/><path class="cls-27" d="M580.5,57h3.59a.56.56,0,0,1,.56.56V69.77a.57.57,0,0,1-.56.57H580.5Z"/><rect class="cls-27" x="511.02" y="88.73" width="6.8" height="29.76" rx="1.42" ry="1.42"/><path class="cls-27" d="M517.76,90.1h-3.59a.56.56,0,0,0-.56.56v12.19a.56.56,0,0,0,.56.57h3.59Z"/><path class="cls-27" d="M517.75,104h-3.59a.56.56,0,0,0-.56.57v12.19a.56.56,0,0,0,.56.56h3.59Z"/><rect class="cls-27" x="544.75" y="41.95" width="6.8" height="29.76" rx="1.42" ry="1.42"/><path class="cls-27" d="M544.81,43.31h3.59a.57.57,0,0,1,.56.57V56.07a.57.57,0,0,1-.56.57h-3.59Z"/><path class="cls-27" d="M544.82,57.22h3.59a.56.56,0,0,1,.56.56V70a.56.56,0,0,1-.56.57h-3.59Z"/><rect class="cls-27" x="546.7" y="88.93" width="6.8" height="29.76" rx="1.42" ry="1.42"/><path class="cls-27" d="M553.44,90.3h-3.59a.56.56,0,0,0-.56.57v12.18a.56.56,0,0,0,.56.57h3.59Z"/><path class="cls-27" d="M553.43,104.2h-3.59a.57.57,0,0,0-.56.57V117a.56.56,0,0,0,.56.56h3.59Z"/><rect class="cls-27" x="508.33" y="41.95" width="6.8" height="29.76" rx="1.42" ry="1.42"/><path class="cls-27" d="M508.39,43.31H512a.58.58,0,0,1,.57.57V56.07a.58.58,0,0,1-.57.57h-3.59Z"/><path class="cls-27" d="M508.4,57.22H512a.57.57,0,0,1,.57.56V70a.57.57,0,0,1-.57.57H508.4Z"/><rect class="cls-27" x="583.11" y="88.93" width="6.8" height="29.76" rx="1.42" ry="1.42"/><path class="cls-27" d="M589.86,90.3h-3.59a.57.57,0,0,0-.57.56v12.19a.57.57,0,0,0,.57.57h3.59Z"/><path class="cls-27" d="M589.85,104.2h-3.59a.57.57,0,0,0-.57.57V117a.57.57,0,0,0,.57.56h3.59Z"/><rect class="cls-27" x="471.46" y="42.19" width="6.8" height="29.76" rx="1.42" ry="1.42"/><path class="cls-27" d="M471.51,43.56h3.59a.57.57,0,0,1,.57.57V56.32a.57.57,0,0,1-.57.56h-3.59Z"/><path class="cls-27" d="M471.52,57.46h3.59a.57.57,0,0,1,.57.57V70.22a.57.57,0,0,1-.57.57h-3.59Z"/><rect class="cls-27" x="619.99" y="89.18" width="6.8" height="29.76" rx="1.42" ry="1.42"/><path class="cls-27" d="M626.74,90.54h-3.59a.57.57,0,0,0-.57.57V103.3a.57.57,0,0,0,.57.57h3.59Z"/><path class="cls-27" d="M626.73,104.45h-3.59a.56.56,0,0,0-.57.56V117.2a.56.56,0,0,0,.57.57h3.59Z"/><polygon class="cls-29" points="466.13 58.13 466.13 71.45 448.8 71.45 446.34 68.98 446.34 60.57 448.78 58.13 466.13 58.13"/><g class="cls-30"><polygon class="cls-31" points="446.34 68.98 446.34 60.57 448.78 58.13 466.13 58.13 466.13 71.45 448.8 71.45 446.34 68.98"/></g><polygon class="cls-32" points="452.86 58.56 450.59 60.89 450.58 60.89 450.58 68.71 450.59 68.71 452.86 71.04 451.18 71.04 448.92 68.73 448.89 68.73 448.89 60.89 448.9 60.89 451.18 58.56 452.86 58.56"/><rect class="cls-33" x="446.74" y="61.55" width="1.98" height="6.51"/><polygon class="cls-29" points="466.14 42.34 466.14 55.66 448.81 55.66 446.34 53.2 446.34 44.78 448.79 42.34 466.14 42.34"/><g class="cls-30"><polygon class="cls-31" points="446.35 53.2 446.35 44.78 448.79 42.34 466.14 42.34 466.14 55.66 448.81 55.66 446.35 53.2"/></g><polygon class="cls-32" points="452.87 42.78 450.6 45.11 450.59 45.11 450.59 52.92 450.6 52.92 452.87 55.25 451.18 55.25 448.93 52.95 448.9 52.95 448.9 45.11 448.91 45.11 451.18 42.78 452.87 42.78"/><rect class="cls-33" x="446.75" y="45.76" width="1.98" height="6.51"/><polygon class="cls-29" points="632.15 57.91 632.15 71.23 649.49 71.23 651.95 68.77 651.95 60.35 649.5 57.91 632.15 57.91"/><g class="cls-34"><polygon class="cls-31" points="651.95 68.77 651.95 60.35 649.5 57.91 632.15 57.91 632.15 71.23 649.49 71.23 651.95 68.77"/></g><polygon class="cls-32" points="645.42 58.34 647.69 60.67 647.7 60.67 647.7 68.49 647.69 68.49 645.42 70.82 647.11 70.82 649.36 68.51 649.39 68.51 649.39 60.67 649.38 60.67 647.11 58.34 645.42 58.34"/><rect class="cls-33" x="649.56" y="61.33" width="1.98" height="6.51"/><polygon class="cls-29" points="632.14 42.12 632.14 55.45 649.48 55.45 651.94 52.98 651.94 44.57 649.5 42.12 632.14 42.12"/><g class="cls-34"><polygon class="cls-31" points="651.94 52.98 651.94 44.57 649.5 42.12 632.14 42.12 632.14 55.45 649.48 55.45 651.94 52.98"/></g><polygon class="cls-32" points="645.41 42.56 647.68 44.89 647.69 44.89 647.69 52.7 647.68 52.7 645.41 55.03 647.1 55.03 649.35 52.73 649.38 52.73 649.38 44.89 649.37 44.89 647.1 42.56 645.41 42.56"/><rect class="cls-33" x="649.55" y="45.54" width="1.98" height="6.51"/><polygon class="cls-29" points="632.12 104.85 632.12 118.18 649.46 118.18 651.92 115.71 651.92 107.3 649.48 104.85 632.12 104.85"/><g class="cls-35"><polygon class="cls-31" points="651.92 115.71 651.92 107.3 649.48 104.85 632.12 104.85 632.12 118.18 649.46 118.18 651.92 115.71"/></g><polygon class="cls-32" points="645.39 105.29 647.66 107.62 647.67 107.62 647.67 115.44 647.66 115.44 645.39 117.76 647.08 117.76 649.33 115.46 649.36 115.46 649.36 107.62 649.36 107.62 647.08 105.29 645.39 105.29"/><rect class="cls-33" x="649.53" y="108.27" width="1.98" height="6.51"/><polygon class="cls-29" points="632.12 89.07 632.12 102.39 649.45 102.39 651.91 99.93 651.91 91.51 649.47 89.07 632.12 89.07"/><g class="cls-35"><polygon class="cls-31" points="651.91 99.93 651.91 91.51 649.47 89.07 632.12 89.07 632.12 102.39 649.45 102.39 651.91 99.93"/></g><polygon class="cls-32" points="645.38 89.51 647.66 91.84 647.66 91.84 647.66 99.65 647.66 99.65 645.38 101.98 647.07 101.98 649.33 99.67 649.35 99.67 649.35 91.84 649.35 91.84 647.07 89.51 645.38 89.51"/><rect class="cls-33" x="649.52" y="92.49" width="1.98" height="6.51"/><polygon class="cls-29" points="466.16 104.64 466.16 117.96 448.82 117.96 446.36 115.49 446.36 107.08 448.81 104.64 466.16 104.64"/><g class="cls-36"><polygon class="cls-31" points="446.36 115.49 446.36 107.08 448.81 104.64 466.16 104.64 466.16 117.96 448.82 117.96 446.36 115.49"/></g><polygon class="cls-32" points="452.89 105.07 450.62 107.4 450.61 107.4 450.61 115.22 450.62 115.22 452.89 117.55 451.2 117.55 448.95 115.24 448.92 115.24 448.92 107.4 448.93 107.4 451.2 105.07 452.89 105.07"/><rect class="cls-33" x="446.77" y="108.05" width="1.98" height="6.51"/><polygon class="cls-29" points="466.17 88.85 466.17 102.17 448.83 102.17 446.37 99.71 446.37 91.3 448.81 88.85 466.17 88.85"/><g class="cls-36"><polygon class="cls-31" points="446.37 99.71 446.37 91.3 448.81 88.85 466.17 88.85 466.17 102.17 448.83 102.17 446.37 99.71"/></g><polygon class="cls-32" points="452.9 89.29 450.62 91.62 450.62 91.62 450.62 99.43 450.62 99.43 452.9 101.76 451.21 101.76 448.96 99.45 448.93 99.45 448.93 91.62 448.93 91.62 451.21 89.29 452.9 89.29"/><rect class="cls-33" x="446.78" y="92.27" width="1.98" height="6.51"/><polygon class="cls-29" points="179.89 57.93 179.89 71.26 162.56 71.26 160.1 68.79 160.1 60.38 162.54 57.93 179.89 57.93"/><g class="cls-37"><polygon class="cls-31" points="160.1 68.79 160.1 60.38 162.54 57.93 179.89 57.93 179.89 71.26 162.56 71.26 160.1 68.79"/></g><polygon class="cls-32" points="166.63 58.37 164.35 60.7 164.35 60.7 164.35 68.52 164.35 68.52 166.63 70.85 164.94 70.85 162.68 68.54 162.66 68.54 162.66 60.7 162.66 60.7 164.94 58.37 166.63 58.37"/><rect class="cls-33" x="160.5" y="61.36" width="1.98" height="6.51"/><polygon class="cls-29" points="179.9 42.15 179.9 55.47 162.57 55.47 160.1 53.01 160.1 44.59 162.55 42.15 179.9 42.15"/><g class="cls-37"><polygon class="cls-31" points="160.11 53.01 160.11 44.59 162.55 42.15 179.9 42.15 179.9 55.47 162.57 55.47 160.11 53.01"/></g><polygon class="cls-32" points="166.63 42.59 164.36 44.92 164.35 44.92 164.35 52.73 164.36 52.73 166.63 55.06 164.95 55.06 162.69 52.76 162.66 52.76 162.66 44.92 162.67 44.92 164.95 42.59 166.63 42.59"/><rect class="cls-33" x="160.51" y="45.57" width="1.98" height="6.51"/><polygon class="cls-29" points="344.07 104.66 344.07 117.98 361.4 117.98 363.86 115.52 363.86 107.11 361.42 104.66 344.07 104.66"/><g class="cls-38"><polygon class="cls-31" points="363.86 115.52 363.86 107.11 361.42 104.66 344.07 104.66 344.07 117.98 361.4 117.98 363.86 115.52"/></g><polygon class="cls-32" points="357.34 105.1 359.61 107.43 359.62 107.43 359.62 115.25 359.61 115.25 357.34 117.57 359.02 117.57 361.28 115.27 361.31 115.27 361.31 107.43 361.3 107.43 359.02 105.1 357.34 105.1"/><rect class="cls-33" x="361.48" y="108.08" width="1.98" height="6.51"/><polygon class="cls-29" points="344.06 88.88 344.06 102.2 361.39 102.2 363.86 99.74 363.86 91.32 361.41 88.88 344.06 88.88"/><g class="cls-38"><polygon class="cls-31" points="363.86 99.74 363.86 91.32 361.42 88.88 344.06 88.88 344.06 102.2 361.39 102.2 363.86 99.74"/></g><polygon class="cls-32" points="357.33 89.32 359.6 91.64 359.61 91.64 359.61 99.46 359.6 99.46 357.33 101.79 359.02 101.79 361.27 99.48 361.3 99.48 361.3 91.64 361.29 91.64 359.02 89.32 357.33 89.32"/><rect class="cls-33" x="361.47" y="92.3" width="1.98" height="6.51"/><polygon class="cls-29" points="612.07 57.95 612.07 71.27 594.74 71.27 592.28 68.81 592.28 60.39 594.72 57.95 612.07 57.95"/><polygon class="cls-31" points="592.28 68.81 592.28 60.39 594.72 57.95 612.07 57.95 612.07 71.27 594.74 71.27 592.28 68.81"/><polyline class="cls-1" points="617.75 71.64 591.9 71.64 591.9 41.79 617.75 41.79"/><polygon class="cls-32" points="598.8 58.39 596.53 60.71 596.52 60.71 596.52 68.53 596.53 68.53 598.8 70.86 597.12 70.86 594.86 68.55 594.84 68.55 594.84 60.71 594.84 60.71 597.12 58.39 598.8 58.39"/><rect class="cls-33" x="592.68" y="61.37" width="1.98" height="6.51"/><polygon class="cls-29" points="612.08 42.16 612.08 55.49 594.75 55.49 592.28 53.02 592.28 44.61 594.73 42.16 612.08 42.16"/><polygon class="cls-31" points="592.28 53.02 592.28 44.61 594.73 42.16 612.08 42.16 612.08 55.49 594.75 55.49 592.28 53.02"/><polyline class="cls-1" points="617.75 71.64 591.9 71.64 591.9 41.79 617.75 41.79"/><polygon class="cls-32" points="598.81 42.6 596.54 44.93 596.53 44.93 596.53 52.75 596.54 52.75 598.81 55.07 597.12 55.07 594.87 52.77 594.84 52.77 594.84 44.93 594.85 44.93 597.12 42.6 598.81 42.6"/><rect class="cls-33" x="592.69" y="45.59" width="1.98" height="6.51"/><polyline class="cls-1" points="617.75 71.64 591.9 71.64 591.9 41.79 617.75 41.79"/><polygon class="cls-29" points="486.18 104.68 486.18 118 503.52 118 505.98 115.53 505.98 107.12 503.54 104.68 486.18 104.68"/><polygon class="cls-31" points="505.98 115.53 505.98 107.12 503.54 104.68 486.18 104.68 486.18 118 503.52 118 505.98 115.53"/><polyline class="cls-1" points="480.51 118.37 506.35 118.37 506.35 88.52 480.51 88.52"/><polygon class="cls-32" points="499.45 105.11 501.73 107.44 501.73 107.44 501.73 115.26 501.73 115.26 499.45 117.59 501.14 117.59 503.39 115.28 503.42 115.28 503.42 107.44 503.42 107.44 501.14 105.11 499.45 105.11"/><rect class="cls-33" x="503.59" y="108.1" width="1.98" height="6.51"/><polygon class="cls-29" points="486.18 88.89 486.18 102.21 503.51 102.21 505.97 99.75 505.97 91.34 503.53 88.89 486.18 88.89"/><polygon class="cls-31" points="505.97 99.75 505.97 91.34 503.53 88.89 486.18 88.89 486.18 102.21 503.51 102.21 505.97 99.75"/><polyline class="cls-1" points="480.51 118.37 506.35 118.37 506.35 88.52 480.51 88.52"/><polygon class="cls-32" points="499.44 89.33 501.72 91.66 501.72 91.66 501.72 99.47 501.72 99.47 499.44 101.8 501.13 101.8 503.39 99.5 503.41 99.5 503.41 91.66 503.41 91.66 501.13 89.33 499.44 89.33"/><rect class="cls-33" x="503.58" y="92.31" width="1.98" height="6.51"/><polyline class="cls-1" points="480.51 118.37 506.35 118.37 506.35 88.52 480.51 88.52"/><polygon class="cls-29" points="502.97 58.13 502.97 71.45 485.63 71.45 483.17 68.98 483.17 60.57 485.62 58.13 502.97 58.13"/><g class="cls-39"><polygon class="cls-31" points="483.17 68.98 483.17 60.57 485.62 58.13 502.97 58.13 502.97 71.45 485.63 71.45 483.17 68.98"/></g><polygon class="cls-32" points="489.7 58.56 487.43 60.89 487.42 60.89 487.42 68.71 487.43 68.71 489.7 71.04 488.01 71.04 485.76 68.73 485.73 68.73 485.73 60.89 485.74 60.89 488.01 58.56 489.7 58.56"/><rect class="cls-33" x="483.58" y="61.55" width="1.98" height="6.51"/><polygon class="cls-29" points="502.98 42.34 502.98 55.66 485.64 55.66 483.18 53.2 483.18 44.78 485.62 42.34 502.98 42.34"/><g class="cls-39"><polygon class="cls-31" points="483.18 53.2 483.18 44.78 485.62 42.34 502.98 42.34 502.98 55.66 485.64 55.66 483.18 53.2"/></g><polygon class="cls-32" points="489.71 42.78 487.43 45.11 487.43 45.11 487.43 52.92 487.43 52.92 489.71 55.25 488.02 55.25 485.77 52.95 485.74 52.95 485.74 45.11 485.75 45.11 488.02 42.78 489.71 42.78"/><rect class="cls-33" x="483.59" y="45.76" width="1.98" height="6.51"/><polygon class="cls-29" points="595.29 104.85 595.29 118.18 612.62 118.18 615.08 115.71 615.08 107.3 612.64 104.85 595.29 104.85"/><g class="cls-40"><polygon class="cls-31" points="615.08 115.71 615.08 107.3 612.64 104.85 595.29 104.85 595.29 118.18 612.62 118.18 615.08 115.71"/></g><polygon class="cls-32" points="608.56 105.29 610.83 107.62 610.84 107.62 610.84 115.44 610.83 115.44 608.56 117.76 610.24 117.76 612.5 115.46 612.52 115.46 612.52 107.62 612.52 107.62 610.24 105.29 608.56 105.29"/><rect class="cls-33" x="612.69" y="108.27" width="1.98" height="6.51"/><polygon class="cls-29" points="595.28 89.07 595.28 102.39 612.61 102.39 615.08 99.93 615.08 91.51 612.63 89.07 595.28 89.07"/><g class="cls-40"><polygon class="cls-31" points="615.08 99.93 615.08 91.51 612.63 89.07 595.28 89.07 595.28 102.39 612.61 102.39 615.08 99.93"/></g><polygon class="cls-32" points="608.55 89.51 610.82 91.84 610.83 91.84 610.83 99.65 610.82 99.65 608.55 101.98 610.24 101.98 612.49 99.67 612.52 99.67 612.52 91.84 612.51 91.84 610.24 89.51 608.55 89.51"/><rect class="cls-33" x="612.69" y="92.49" width="1.98" height="6.51"/><polygon class="cls-29" points="539.47 58.13 539.47 71.45 522.13 71.45 519.67 68.98 519.67 60.57 522.12 58.13 539.47 58.13"/><g class="cls-41"><polygon class="cls-31" points="519.67 68.98 519.67 60.57 522.11 58.13 539.47 58.13 539.47 71.45 522.13 71.45 519.67 68.98"/></g><polygon class="cls-32" points="526.2 58.56 523.93 60.89 523.92 60.89 523.92 68.71 523.93 68.71 526.2 71.04 524.51 71.04 522.26 68.73 522.23 68.73 522.23 60.89 522.24 60.89 524.51 58.56 526.2 58.56"/><rect class="cls-33" x="520.08" y="61.55" width="1.98" height="6.51"/><polygon class="cls-29" points="539.48 42.34 539.48 55.66 522.14 55.66 519.68 53.2 519.68 44.78 522.12 42.34 539.48 42.34"/><g class="cls-41"><polygon class="cls-31" points="519.68 53.2 519.68 44.78 522.12 42.34 539.48 42.34 539.48 55.66 522.14 55.66 519.68 53.2"/></g><polygon class="cls-32" points="526.21 42.78 523.93 45.11 523.93 45.11 523.93 52.92 523.93 52.92 526.21 55.25 524.52 55.25 522.27 52.95 522.24 52.95 522.24 45.11 522.25 45.11 524.52 42.78 526.21 42.78"/><rect class="cls-33" x="520.09" y="45.76" width="1.98" height="6.51"/><polygon class="cls-29" points="558.79 104.85 558.79 118.18 576.12 118.18 578.59 115.71 578.59 107.3 576.14 104.85 558.79 104.85"/><g class="cls-42"><polygon class="cls-31" points="578.59 115.71 578.59 107.3 576.14 104.85 558.79 104.85 558.79 118.18 576.12 118.18 578.59 115.71"/></g><polygon class="cls-32" points="572.06 105.29 574.33 107.62 574.34 107.62 574.34 115.44 574.33 115.44 572.06 117.76 573.75 117.76 576 115.46 576.03 115.46 576.03 107.62 576.02 107.62 573.75 105.29 572.06 105.29"/><rect class="cls-33" x="576.19" y="108.27" width="1.98" height="6.51"/><polygon class="cls-29" points="558.78 89.07 558.78 102.39 576.11 102.39 578.58 99.93 578.58 91.51 576.13 89.07 558.78 89.07"/><g class="cls-42"><polygon class="cls-31" points="578.58 99.93 578.58 91.51 576.13 89.07 558.78 89.07 558.78 102.39 576.12 102.39 578.58 99.93"/></g><polygon class="cls-32" points="572.05 89.51 574.32 91.84 574.33 91.84 574.33 99.65 574.32 99.65 572.05 101.98 573.74 101.98 575.99 99.67 576.02 99.67 576.02 91.84 576.01 91.84 573.74 89.51 572.05 89.51"/><rect class="cls-33" x="576.19" y="92.49" width="1.98" height="6.51"/><polygon class="cls-29" points="575.13 58.29 575.13 71.61 557.8 71.61 555.34 69.15 555.34 60.74 557.78 58.29 575.13 58.29"/><g class="cls-43"><polygon class="cls-31" points="555.34 69.15 555.34 60.74 557.78 58.29 575.13 58.29 575.13 71.61 557.8 71.61 555.34 69.15"/></g><polygon class="cls-32" points="561.86 58.73 559.59 61.06 559.59 61.06 559.59 68.88 559.59 68.88 561.86 71.2 560.18 71.2 557.92 68.9 557.9 68.9 557.9 61.06 557.9 61.06 560.18 58.73 561.86 58.73"/><rect class="cls-33" x="555.74" y="61.71" width="1.98" height="6.51"/><polygon class="cls-29" points="575.14 42.51 575.14 55.83 557.81 55.83 555.35 53.37 555.35 44.95 557.79 42.51 575.14 42.51"/><g class="cls-43"><polygon class="cls-31" points="555.35 53.37 555.35 44.95 557.79 42.51 575.14 42.51 575.14 55.83 557.81 55.83 555.35 53.37"/></g><polygon class="cls-32" points="561.87 42.95 559.6 45.27 559.6 45.27 559.6 53.09 559.6 53.09 561.87 55.42 560.19 55.42 557.93 53.11 557.9 53.11 557.9 45.27 557.91 45.27 560.19 42.95 561.87 42.95"/><rect class="cls-33" x="555.75" y="45.93" width="1.98" height="6.51"/><polygon class="cls-29" points="523.12 105.02 523.12 118.34 540.46 118.34 542.92 115.88 542.92 107.47 540.48 105.02 523.12 105.02"/><g class="cls-44"><polygon class="cls-31" points="542.92 115.88 542.92 107.47 540.48 105.02 523.12 105.02 523.12 118.34 540.46 118.34 542.92 115.88"/></g><polygon class="cls-32" points="536.39 105.46 538.66 107.79 538.67 107.79 538.67 115.6 538.66 115.6 536.39 117.93 538.08 117.93 540.33 115.63 540.36 115.63 540.36 107.79 540.35 107.79 538.08 105.46 536.39 105.46"/><rect class="cls-33" x="540.53" y="108.44" width="1.98" height="6.51"/><polygon class="cls-29" points="523.12 89.24 523.12 102.56 540.45 102.56 542.91 100.1 542.91 91.68 540.47 89.24 523.12 89.24"/><g class="cls-44"><polygon class="cls-31" points="542.91 100.1 542.91 91.68 540.47 89.24 523.12 89.24 523.12 102.56 540.45 102.56 542.91 100.1"/></g><polygon class="cls-32" points="536.38 89.67 538.66 92 538.66 92 538.66 99.82 538.66 99.82 536.38 102.15 538.07 102.15 540.33 99.84 540.35 99.84 540.35 92 540.35 92 538.07 89.67 536.38 89.67"/><rect class="cls-33" x="540.52" y="92.66" width="1.98" height="6.51"/><polygon class="cls-29" points="199.37 58.1 199.37 71.42 216.71 71.42 219.17 68.96 219.17 60.55 216.73 58.1 199.37 58.1"/><g class="cls-45"><polygon class="cls-31" points="219.17 68.96 219.17 60.55 216.73 58.1 199.37 58.1 199.37 71.42 216.71 71.42 219.17 68.96"/></g><polygon class="cls-32" points="212.64 58.54 214.92 60.87 214.92 60.87 214.92 68.68 214.92 68.68 212.64 71.01 214.33 71.01 216.58 68.71 216.61 68.71 216.61 60.87 216.6 60.87 214.33 58.54 212.64 58.54"/><rect class="cls-33" x="216.78" y="61.52" width="1.98" height="6.51"/><polygon class="cls-29" points="199.37 42.32 199.37 55.64 216.7 55.64 219.16 53.18 219.16 44.76 216.72 42.32 199.37 42.32"/><g class="cls-45"><polygon class="cls-31" points="219.16 53.18 219.16 44.76 216.72 42.32 199.37 42.32 199.37 55.64 216.7 55.64 219.16 53.18"/></g><polygon class="cls-32" points="212.63 42.76 214.91 45.08 214.91 45.08 214.91 52.9 214.91 52.9 212.63 55.23 214.32 55.23 216.58 52.92 216.6 52.92 216.6 45.08 216.6 45.08 214.32 42.76 212.63 42.76"/><rect class="cls-33" x="216.77" y="45.74" width="1.98" height="6.51"/><polygon class="cls-29" points="324.54 104.83 324.54 118.15 307.2 118.15 304.74 115.69 304.74 107.27 307.19 104.83 324.54 104.83"/><g class="cls-46"><polygon class="cls-31" points="304.74 115.69 304.74 107.27 307.18 104.83 324.54 104.83 324.54 118.15 307.2 118.15 304.74 115.69"/></g><polygon class="cls-32" points="311.27 105.27 309 107.6 308.99 107.6 308.99 115.41 309 115.41 311.27 117.74 309.58 117.74 307.33 115.44 307.3 115.44 307.3 107.6 307.31 107.6 309.58 105.27 311.27 105.27"/><rect class="cls-33" x="305.15" y="108.25" width="1.98" height="6.51"/><polygon class="cls-29" points="324.55 89.05 324.55 102.37 307.21 102.37 304.75 99.91 304.75 91.49 307.19 89.05 324.55 89.05"/><g class="cls-46"><polygon class="cls-31" points="304.75 99.91 304.75 91.49 307.19 89.05 324.55 89.05 324.55 102.37 307.21 102.37 304.75 99.91"/></g><polygon class="cls-32" points="311.28 89.48 309 91.81 309 91.81 309 99.63 309 99.63 311.28 101.96 309.59 101.96 307.34 99.65 307.31 99.65 307.31 91.81 307.31 91.81 309.59 89.48 311.28 89.48"/><rect class="cls-33" x="305.16" y="92.47" width="1.98" height="6.51"/><polygon class="cls-29" points="234.54 58.1 234.54 71.42 251.88 71.42 254.34 68.96 254.34 60.55 251.89 58.1 234.54 58.1"/><g class="cls-47"><polygon class="cls-31" points="254.34 68.96 254.34 60.55 251.89 58.1 234.54 58.1 234.54 71.42 251.88 71.42 254.34 68.96"/></g><polygon class="cls-32" points="247.81 58.54 250.08 60.87 250.09 60.87 250.09 68.68 250.08 68.68 247.81 71.01 249.5 71.01 251.75 68.71 251.78 68.71 251.78 60.87 251.77 60.87 249.5 58.54 247.81 58.54"/><rect class="cls-33" x="251.95" y="61.52" width="1.98" height="6.51"/><polygon class="cls-29" points="234.53 42.32 234.53 55.64 251.87 55.64 254.33 53.18 254.33 44.76 251.89 42.32 234.53 42.32"/><g class="cls-47"><polygon class="cls-31" points="254.33 53.18 254.33 44.76 251.89 42.32 234.53 42.32 234.53 55.64 251.87 55.64 254.33 53.18"/></g><polygon class="cls-32" points="247.8 42.76 250.08 45.08 250.08 45.08 250.08 52.9 250.08 52.9 247.8 55.23 249.49 55.23 251.74 52.92 251.77 52.92 251.77 45.08 251.76 45.08 249.49 42.76 247.8 42.76"/><rect class="cls-33" x="251.94" y="45.74" width="1.98" height="6.51"/><polygon class="cls-29" points="289.37 104.83 289.37 118.15 272.04 118.15 269.57 115.69 269.57 107.27 272.02 104.83 289.37 104.83"/><g class="cls-48"><polygon class="cls-31" points="269.57 115.69 269.57 107.27 272.01 104.83 289.37 104.83 289.37 118.15 272.04 118.15 269.57 115.69"/></g><polygon class="cls-32" points="276.1 105.27 273.83 107.6 273.82 107.6 273.82 115.41 273.83 115.41 276.1 117.74 274.41 117.74 272.16 115.44 272.13 115.44 272.13 107.6 272.14 107.6 274.41 105.27 276.1 105.27"/><rect class="cls-33" x="269.98" y="108.25" width="1.98" height="6.51"/><polygon class="cls-29" points="289.38 89.05 289.38 102.37 272.04 102.37 269.58 99.91 269.58 91.49 272.02 89.05 289.38 89.05"/><g class="cls-48"><polygon class="cls-31" points="269.58 99.91 269.58 91.49 272.02 89.05 289.38 89.05 289.38 102.37 272.04 102.37 269.58 99.91"/></g><polygon class="cls-32" points="276.11 89.48 273.84 91.81 273.83 91.81 273.83 99.63 273.84 99.63 276.11 101.96 274.42 101.96 272.17 99.65 272.14 99.65 272.14 91.81 272.15 91.81 274.42 89.48 276.11 89.48"/><rect class="cls-33" x="269.99" y="92.47" width="1.98" height="6.51"/><polygon class="cls-29" points="271.38 58.27 271.38 71.59 288.71 71.59 291.17 69.13 291.17 60.71 288.73 58.27 271.38 58.27"/><g class="cls-49"><polygon class="cls-31" points="291.17 69.13 291.17 60.71 288.73 58.27 271.38 58.27 271.38 71.59 288.71 71.59 291.17 69.13"/></g><polygon class="cls-32" points="284.64 58.71 286.92 61.03 286.92 61.03 286.92 68.85 286.92 68.85 284.64 71.18 286.33 71.18 288.59 68.87 288.61 68.87 288.61 61.03 288.61 61.03 286.33 58.71 284.64 58.71"/><rect class="cls-33" x="288.78" y="61.69" width="1.98" height="6.51"/><polygon class="cls-29" points="271.37 42.48 271.37 55.81 288.7 55.81 291.17 53.34 291.17 44.93 288.72 42.48 271.37 42.48"/><g class="cls-49"><polygon class="cls-31" points="291.16 53.34 291.16 44.93 288.72 42.48 271.37 42.48 271.37 55.81 288.7 55.81 291.16 53.34"/></g><polygon class="cls-32" points="284.64 42.92 286.91 45.25 286.92 45.25 286.92 53.07 286.91 53.07 284.64 55.4 286.32 55.4 288.58 53.09 288.61 53.09 288.61 45.25 288.6 45.25 286.32 42.92 284.64 42.92"/><rect class="cls-33" x="288.77" y="45.91" width="1.98" height="6.51"/><polygon class="cls-29" points="252.53 105 252.53 118.32 235.2 118.32 232.74 115.86 232.74 107.44 235.18 105 252.53 105"/><g class="cls-50"><polygon class="cls-31" points="232.74 115.86 232.74 107.44 235.18 105 252.53 105 252.53 118.32 235.2 118.32 232.74 115.86"/></g><polygon class="cls-32" points="239.26 105.43 236.99 107.76 236.99 107.76 236.99 115.58 236.99 115.58 239.26 117.91 237.58 117.91 235.33 115.6 235.3 115.6 235.3 107.76 235.3 107.76 237.58 105.43 239.26 105.43"/><rect class="cls-33" x="233.15" y="108.42" width="1.98" height="6.51"/><polygon class="cls-29" points="252.54 89.21 252.54 102.53 235.21 102.53 232.75 100.07 232.75 91.66 235.19 89.21 252.54 89.21"/><g class="cls-50"><polygon class="cls-31" points="232.75 100.07 232.75 91.66 235.19 89.21 252.54 89.21 252.54 102.53 235.21 102.53 232.75 100.07"/></g><polygon class="cls-32" points="239.28 89.65 237 91.98 237 91.98 237 99.8 237 99.8 239.28 102.12 237.59 102.12 235.33 99.82 235.31 99.82 235.31 91.98 235.31 91.98 237.59 89.65 239.28 89.65"/><rect class="cls-33" x="233.15" y="92.63" width="1.98" height="6.51"/><polygon class="cls-29" points="306.54 58.44 306.54 71.76 323.88 71.76 326.34 69.3 326.34 60.88 323.89 58.44 306.54 58.44"/><g class="cls-51"><polygon class="cls-31" points="326.34 69.3 326.34 60.88 323.89 58.44 306.54 58.44 306.54 71.76 323.88 71.76 326.34 69.3"/></g><polygon class="cls-32" points="319.81 58.87 322.08 61.2 322.09 61.2 322.09 69.02 322.08 69.02 319.81 71.35 321.5 71.35 323.75 69.04 323.78 69.04 323.78 61.2 323.77 61.2 321.5 58.87 319.81 58.87"/><rect class="cls-33" x="323.95" y="61.86" width="1.98" height="6.51"/><polygon class="cls-29" points="306.54 42.65 306.54 55.97 323.87 55.97 326.33 53.51 326.33 45.09 323.89 42.65 306.54 42.65"/><g class="cls-51"><polygon class="cls-31" points="326.33 53.51 326.33 45.09 323.89 42.65 306.54 42.65 306.54 55.97 323.87 55.97 326.33 53.51"/></g><polygon class="cls-32" points="319.8 43.09 322.08 45.42 322.08 45.42 322.08 53.23 322.08 53.23 319.8 55.56 321.49 55.56 323.75 53.26 323.77 53.26 323.77 45.42 323.77 45.42 321.49 43.09 319.8 43.09"/><rect class="cls-33" x="323.94" y="46.07" width="1.98" height="6.51"/><polygon class="cls-29" points="217.37 105.16 217.37 118.48 200.03 118.48 197.57 116.02 197.57 107.61 200.02 105.16 217.37 105.16"/><g class="cls-52"><polygon class="cls-31" points="197.57 116.02 197.57 107.61 200.01 105.16 217.37 105.16 217.37 118.48 200.03 118.48 197.57 116.02"/></g><polygon class="cls-32" points="204.1 105.6 201.83 107.93 201.82 107.93 201.82 115.75 201.83 115.75 204.1 118.07 202.41 118.07 200.16 115.77 200.13 115.77 200.13 107.93 200.14 107.93 202.41 105.6 204.1 105.6"/><rect class="cls-33" x="197.98" y="108.58" width="1.98" height="6.51"/><polygon class="cls-29" points="217.38 89.38 217.38 102.7 200.04 102.7 197.58 100.24 197.58 91.82 200.03 89.38 217.38 89.38"/><g class="cls-52"><polygon class="cls-31" points="197.58 100.24 197.58 91.82 200.02 89.38 217.38 89.38 217.38 102.7 200.04 102.7 197.58 100.24"/></g><polygon class="cls-32" points="204.11 89.82 201.84 92.14 201.83 92.14 201.83 99.96 201.84 99.96 204.11 102.29 202.42 102.29 200.17 99.98 200.14 99.98 200.14 92.14 200.15 92.14 202.42 89.82 204.11 89.82"/><rect class="cls-33" x="197.99" y="92.8" width="1.98" height="6.51"/><polygon class="cls-29" points="344.04 58.43 344.04 71.76 361.38 71.76 363.84 69.29 363.84 60.88 361.39 58.43 344.04 58.43"/><g class="cls-53"><polygon class="cls-31" points="363.84 69.29 363.84 60.88 361.39 58.43 344.04 58.43 344.04 71.76 361.38 71.76 363.84 69.29"/></g><polygon class="cls-32" points="357.31 58.87 359.58 61.2 359.59 61.2 359.59 69.02 359.58 69.02 357.31 71.35 359 71.35 361.25 69.04 361.28 69.04 361.28 61.2 361.27 61.2 359 58.87 357.31 58.87"/><rect class="cls-33" x="361.45" y="61.86" width="1.98" height="6.51"/><polygon class="cls-29" points="344.04 42.65 344.04 55.97 361.37 55.97 363.83 53.51 363.83 45.09 361.39 42.65 344.04 42.65"/><g class="cls-53"><polygon class="cls-31" points="363.83 53.51 363.83 45.09 361.39 42.65 344.04 42.65 344.04 55.97 361.37 55.97 363.83 53.51"/></g><polygon class="cls-32" points="357.3 43.09 359.58 45.42 359.58 45.42 359.58 53.23 359.58 53.23 357.3 55.56 358.99 55.56 361.25 53.26 361.27 53.26 361.27 45.42 361.27 45.42 358.99 43.09 357.3 43.09"/><rect class="cls-33" x="361.44" y="46.07" width="1.98" height="6.51"/><polygon class="cls-29" points="179.87 105.16 179.87 118.48 162.53 118.48 160.07 116.02 160.07 107.61 162.52 105.16 179.87 105.16"/><g class="cls-54"><polygon class="cls-31" points="160.07 116.02 160.07 107.61 162.51 105.16 179.87 105.16 179.87 118.48 162.53 118.48 160.07 116.02"/></g><polygon class="cls-32" points="166.6 105.6 164.33 107.93 164.32 107.93 164.32 115.75 164.33 115.75 166.6 118.07 164.91 118.07 162.66 115.77 162.63 115.77 162.63 107.93 162.64 107.93 164.91 105.6 166.6 105.6"/><rect class="cls-33" x="160.48" y="108.58" width="1.98" height="6.51"/><polygon class="cls-29" points="179.88 89.38 179.88 102.7 162.54 102.7 160.08 100.24 160.08 91.82 162.52 89.38 179.88 89.38"/><g class="cls-54"><polygon class="cls-31" points="160.08 100.24 160.08 91.82 162.52 89.38 179.88 89.38 179.88 102.7 162.54 102.7 160.08 100.24"/></g><polygon class="cls-32" points="166.61 89.82 164.34 92.14 164.33 92.14 164.33 99.96 164.34 99.96 166.61 102.29 164.92 102.29 162.67 99.98 162.64 99.98 162.64 92.14 162.65 92.14 164.92 89.82 166.61 89.82"/><rect class="cls-33" x="160.49" y="92.8" width="1.98" height="6.51"/><rect class="cls-27" x="184.66" y="42.22" width="8.5" height="29.76" rx="1.42" ry="1.42"/><path class="cls-27" d="M184.7,43.56h3.59a.57.57,0,0,1,.57.56V56.31a.58.58,0,0,1-.57.57H184.7Z"/><path class="cls-27" d="M184.71,57.46h3.59a.57.57,0,0,1,.57.57V70.22a.57.57,0,0,1-.57.56h-3.59Z"/><path class="cls-27" d="M193.16,43.56h-3.59a.57.57,0,0,0-.57.56V56.31a.58.58,0,0,0,.57.57h3.59Z"/><path class="cls-27" d="M193.15,57.46h-3.59A.56.56,0,0,0,189,58V70.22a.56.56,0,0,0,.57.56h3.59Z"/><rect class="cls-27" x="330.77" y="88.62" width="8.5" height="29.76" rx="1.42" ry="1.42"/><path class="cls-27" d="M339.24,90h-3.59a.57.57,0,0,0-.57.56v12.19a.57.57,0,0,0,.57.57h3.59Z"/><path class="cls-27" d="M339.23,103.86h-3.59a.57.57,0,0,0-.57.57v12.19a.57.57,0,0,0,.57.56h3.59Z"/><path class="cls-27" d="M330.78,90h3.59a.56.56,0,0,1,.56.56v12.19a.56.56,0,0,1-.56.57h-3.59Z"/><path class="cls-27" d="M330.79,103.86h3.59a.57.57,0,0,1,.57.57v12.19a.57.57,0,0,1-.57.56h-3.59Z"/><rect class="cls-27" x="617.53" y="41.93" width="8.5" height="29.76" rx="1.42" ry="1.42"/><path class="cls-27" d="M617.57,43.26h3.59a.57.57,0,0,1,.56.57V56a.57.57,0,0,1-.56.57h-3.59Z"/><path class="cls-27" d="M617.58,57.17h3.59a.57.57,0,0,1,.57.56V69.92a.57.57,0,0,1-.57.57h-3.59Z"/><path class="cls-27" d="M626,43.26h-3.59a.58.58,0,0,0-.57.57V56a.58.58,0,0,0,.57.57H626Z"/><path class="cls-27" d="M626,57.17h-3.59a.56.56,0,0,0-.57.56V69.92a.56.56,0,0,0,.57.57H626Z"/><rect class="cls-27" x="472.25" y="88.33" width="8.5" height="29.76" rx="1.42" ry="1.42"/><path class="cls-27" d="M480.72,89.66h-3.59a.57.57,0,0,0-.57.57v12.19a.57.57,0,0,0,.57.57h3.59Z"/><path class="cls-27" d="M480.7,103.57h-3.58a.56.56,0,0,0-.57.56v12.19a.56.56,0,0,0,.57.57h3.58Z"/><path class="cls-27" d="M472.26,89.66h3.58a.57.57,0,0,1,.57.57v12.19a.57.57,0,0,1-.57.57h-3.58Z"/><path class="cls-27" d="M472.27,103.57h3.59a.56.56,0,0,1,.56.56v12.19a.56.56,0,0,1-.56.57h-3.59Z"/></g><g id="SETENUMMER-4" data-name="SETENUMMER"><path class="cls-55" d="M638.89,52.52v-1.6H636v-.77l2.57-3.91H640V50h.82v.9H640v1.6Zm0-2.5V48.31c0-.35,0-.71,0-1.09h0c-.19.4-.35.72-.55,1.06L637.18,50v0Z"/><path class="cls-55" d="M645.45,47.22H643l-.19,1.26a3,3,0,0,1,.45,0,2.8,2.8,0,0,1,1.53.4,1.81,1.81,0,0,1,.82,1.6,2.29,2.29,0,0,1-2.53,2.17,3.57,3.57,0,0,1-1.68-.37l.25-.89a3.25,3.25,0,0,0,1.38.32,1.22,1.22,0,0,0,1.36-1.14c0-.72-.53-1.19-1.78-1.19-.36,0-.62,0-.86,0l.41-3.16h3.25Z"/><path class="cls-55" d="M638.89,67.92v-1.6H636v-.77l2.57-3.91H640v3.78h.82v.9H640v1.6Zm0-2.5V63.71c0-.35,0-.71,0-1.09h0c-.19.4-.35.72-.55,1.06l-1.16,1.72v0Z"/><path class="cls-55" d="M645.27,62.49a3.24,3.24,0,0,0-.6,0,2.21,2.21,0,0,0-2.11,1.82h0a1.81,1.81,0,0,1,1.41-.61,1.9,1.9,0,0,1,1.93,2.05A2.18,2.18,0,0,1,643.71,68c-1.52,0-2.36-1.16-2.36-2.71a3.75,3.75,0,0,1,1.09-2.8,3.52,3.52,0,0,1,2.23-.93,2.66,2.66,0,0,1,.6,0Zm-.55,3.36c0-.74-.4-1.25-1.09-1.25a1.16,1.16,0,0,0-1,.65,1,1,0,0,0-.07.38c0,.83.4,1.5,1.18,1.5C644.32,67.13,644.72,66.6,644.72,65.85Z"/><path class="cls-55" d="M638.87,99.25v-1.6H636v-.77L638.59,93H640v3.78h.81v.9H640v1.6Zm0-2.5V95c0-.35,0-.71,0-1.09h0c-.2.4-.36.72-.55,1.07l-1.16,1.71v0Z"/><path class="cls-55" d="M645.75,93v.76l-2.66,5.52h-1.25L644.49,94v0h-3V93Z"/><path class="cls-55" d="M638.87,114.65v-1.6H636v-.77l2.57-3.91H640v3.78h.81v.9H640v1.6Zm0-2.5v-1.71c0-.35,0-.71,0-1.09h0c-.2.4-.36.72-.55,1.07l-1.16,1.71v0Z"/><path class="cls-55" d="M642.52,111.37a1.53,1.53,0,0,1-1-1.39,1.87,1.87,0,0,1,2.1-1.72c1.36,0,2,.81,2,1.59a1.57,1.57,0,0,1-1,1.42v0a1.7,1.7,0,0,1,1.2,1.59c0,1.12-1,1.87-2.29,1.87s-2.23-.85-2.23-1.73a1.73,1.73,0,0,1,1.18-1.62Zm2.13,1.61c0-.64-.46-1-1.16-1.18a1.14,1.14,0,0,0-.93,1.09,1,1,0,0,0,1.05,1A.94.94,0,0,0,644.65,113Zm-2-3c0,.51.43.82,1,1a1,1,0,0,0,.78-1,.84.84,0,0,0-.9-.89A.84.84,0,0,0,642.69,109.93Z"/><path class="cls-55" d="M601.73,52.37v-1.6h-2.85V50l2.57-3.91h1.4v3.79h.81v.89h-.81v1.6Zm0-2.49V48.17c0-.36,0-.72,0-1.09h0c-.2.39-.36.71-.55,1.06L600,49.86v0Z"/><path class="cls-55" d="M606.15,47.16h0l-1.15.58-.2-.9,1.54-.75h1v6.28h-1.15Z"/><path class="cls-55" d="M601.73,67.77V66.18h-2.85V65.4l2.57-3.91h1.4v3.79h.81v.9h-.81v1.59Zm0-2.49V63.57c0-.36,0-.72,0-1.09h0c-.2.39-.36.71-.55,1.06L600,65.26v0Z"/><path class="cls-55" d="M604.29,67.77V67l.74-.68c1.48-1.37,2.17-2.13,2.18-3a1,1,0,0,0-1.12-1,2.26,2.26,0,0,0-1.34.52L604.4,62a3.11,3.11,0,0,1,1.94-.65,1.86,1.86,0,0,1,2.06,1.91c0,1.1-.79,2-1.89,3l-.54.47v0h2.57v1Z"/><path class="cls-55" d="M601.7,99.1V97.51h-2.85v-.78l2.57-3.91h1.4v3.79h.81v.9h-.81V99.1Zm0-2.49V94.9c0-.36,0-.72,0-1.09h0c-.19.39-.36.71-.55,1.06L600,96.59v0Z"/><path class="cls-55" d="M604.5,97.87a3,3,0,0,0,1.43.39c.91,0,1.27-.51,1.27-1,0-.74-.71-1.06-1.43-1.06h-.54v-.87h.54c.54,0,1.23-.25,1.23-.87,0-.43-.3-.79-1-.79a2.45,2.45,0,0,0-1.28.4l-.28-.86a3.55,3.55,0,0,1,1.81-.49c1.31,0,2,.72,2,1.54a1.52,1.52,0,0,1-1.16,1.47v0a1.59,1.59,0,0,1,1.38,1.56c0,1.06-.88,1.91-2.44,1.91a3.47,3.47,0,0,1-1.76-.44Z"/><path class="cls-55" d="M601.7,114.5v-1.59h-2.85v-.78l2.57-3.91h1.4V112h.81v.9h-.81v1.59Zm0-2.49V110.3c0-.36,0-.72,0-1.09h0c-.19.39-.36.71-.55,1.06L600,112v0Z"/><path class="cls-55" d="M606.88,114.5v-1.59H604v-.78l2.57-3.91H608V112h.81v.9H608v1.59Zm0-2.49V110.3c0-.36,0-.72,0-1.09h0c-.19.39-.36.71-.55,1.06L605.17,112v0Z"/><path class="cls-55" d="M562.16,51.12a3,3,0,0,0,1.43.39c.91,0,1.27-.51,1.27-1,0-.75-.71-1.07-1.43-1.07h-.54v-.87h.54c.54,0,1.23-.25,1.23-.86,0-.44-.3-.8-1-.8a2.55,2.55,0,0,0-1.28.4l-.28-.86a3.56,3.56,0,0,1,1.81-.48c1.31,0,2,.71,2,1.53A1.52,1.52,0,0,1,564.71,49v0a1.59,1.59,0,0,1,1.38,1.56c0,1.07-.88,1.91-2.44,1.91a3.47,3.47,0,0,1-1.76-.44Z"/><path class="cls-55" d="M571.42,46.07v.77l-2.66,5.51h-1.25l2.65-5.27v0h-3v-1Z"/><path class="cls-55" d="M562.16,66.52a3,3,0,0,0,1.43.39c.91,0,1.27-.51,1.27-1,0-.75-.71-1.07-1.43-1.07h-.54V64h.54c.54,0,1.23-.26,1.23-.87,0-.44-.3-.8-1-.8a2.55,2.55,0,0,0-1.28.4l-.28-.86a3.56,3.56,0,0,1,1.81-.48c1.31,0,2,.71,2,1.53a1.52,1.52,0,0,1-1.16,1.47v0A1.59,1.59,0,0,1,566.09,66c0,1.07-.88,1.91-2.44,1.91a3.47,3.47,0,0,1-1.76-.44Z"/><path class="cls-55" d="M568.19,64.48a1.52,1.52,0,0,1-1-1.39,1.86,1.86,0,0,1,2.09-1.72c1.36,0,2,.81,2,1.58a1.58,1.58,0,0,1-1,1.42v0A1.68,1.68,0,0,1,571.53,66c0,1.12-.94,1.88-2.29,1.88S567,67,567,66.13a1.73,1.73,0,0,1,1.18-1.62Zm2.14,1.6c0-.64-.47-1-1.17-1.18a1.14,1.14,0,0,0-.93,1.09,1,1,0,0,0,1,1A1,1,0,0,0,570.33,66.08Zm-2-3c0,.51.42.82,1,1a1,1,0,0,0,.78-.94.84.84,0,0,0-.9-.89A.82.82,0,0,0,568.37,63Z"/><path class="cls-55" d="M562.14,97.85a3,3,0,0,0,1.43.39c.9,0,1.26-.51,1.26-1,0-.74-.7-1.06-1.43-1.06h-.54V95.3h.54c.54,0,1.24-.25,1.24-.87,0-.43-.31-.79-1-.79a2.45,2.45,0,0,0-1.28.4l-.27-.86a3.52,3.52,0,0,1,1.81-.49c1.3,0,2,.72,2,1.54a1.54,1.54,0,0,1-1.16,1.47v0a1.59,1.59,0,0,1,1.38,1.56c0,1.07-.89,1.91-2.45,1.91a3.4,3.4,0,0,1-1.75-.44Z"/><path class="cls-55" d="M567.55,98.23a3,3,0,0,0,.65,0,2.35,2.35,0,0,0,1.28-.48,2.33,2.33,0,0,0,.81-1.4h0a1.8,1.8,0,0,1-1.37.55,1.84,1.84,0,0,1-1.9-1.94,2.22,2.22,0,0,1,2.26-2.25c1.46,0,2.24,1.14,2.24,2.68a3.92,3.92,0,0,1-1.09,2.93,3.53,3.53,0,0,1-2.15.86,4.46,4.46,0,0,1-.71,0Zm.62-3.36a1,1,0,0,0,1,1.15,1.16,1.16,0,0,0,1-.52.8.8,0,0,0,.07-.35c0-.85-.32-1.58-1.09-1.58C568.6,93.57,568.17,94.1,568.17,94.87Z"/><path class="cls-55" d="M564.51,114.48v-1.59h-2.85v-.78l2.57-3.91h1.4V112h.81v.9h-.81v1.59Zm0-2.49v-1.71c0-.36,0-.72,0-1.09h0c-.19.39-.35.71-.55,1.06L562.8,112v0Z"/><path class="cls-55" d="M571.51,111.29c0,2-.8,3.3-2.3,3.3s-2.21-1.32-2.22-3.23.83-3.26,2.3-3.26S571.51,109.45,571.51,111.29Zm-3.33.06c0,1.54.42,2.33,1.07,2.33s1.06-.85,1.06-2.36-.34-2.32-1-2.32S568.18,109.79,568.18,111.35Z"/><path class="cls-55" d="M526.27,51.15a3,3,0,0,0,1.43.39c.9,0,1.26-.51,1.26-1,0-.74-.7-1.06-1.43-1.06H527V48.6h.54c.54,0,1.24-.25,1.24-.87,0-.43-.31-.79-1-.79a2.45,2.45,0,0,0-1.28.4l-.27-.86A3.51,3.51,0,0,1,528,46c1.31,0,2,.72,2,1.54A1.53,1.53,0,0,1,528.82,49v0a1.59,1.59,0,0,1,1.38,1.56c0,1.06-.89,1.9-2.45,1.9a3.41,3.41,0,0,1-1.75-.43Z"/><path class="cls-55" d="M531.44,51.15a3.07,3.07,0,0,0,1.43.39c.91,0,1.27-.51,1.27-1,0-.74-.71-1.06-1.43-1.06h-.54V48.6h.54c.54,0,1.24-.25,1.24-.87,0-.43-.31-.79-1-.79a2.45,2.45,0,0,0-1.28.4l-.27-.86a3.48,3.48,0,0,1,1.8-.49c1.31,0,2,.72,2,1.54A1.52,1.52,0,0,1,534,49v0a1.59,1.59,0,0,1,1.39,1.56c0,1.06-.89,1.9-2.45,1.9a3.48,3.48,0,0,1-1.76-.43Z"/><path class="cls-55" d="M526.27,66.55a3,3,0,0,0,1.43.39c.9,0,1.26-.51,1.26-1,0-.74-.7-1.06-1.43-1.06H527V64h.54c.54,0,1.24-.25,1.24-.87,0-.43-.31-.79-1-.79a2.45,2.45,0,0,0-1.28.4l-.27-.86a3.51,3.51,0,0,1,1.8-.49c1.31,0,2,.72,2,1.54a1.53,1.53,0,0,1-1.15,1.47v0A1.59,1.59,0,0,1,530.2,66c0,1.06-.89,1.91-2.45,1.91a3.4,3.4,0,0,1-1.75-.44Z"/><path class="cls-55" d="M533.82,67.78v-1.6H531v-.77l2.57-3.91h1.4v3.79h.81v.89h-.81v1.6Zm0-2.49V63.58c0-.36,0-.72,0-1.09h0c-.19.39-.36.71-.55,1.06l-1.16,1.72v0Z"/><path class="cls-55" d="M526.24,97.88a3.15,3.15,0,0,0,1.43.39c.91,0,1.26-.52,1.26-1,0-.74-.7-1.06-1.43-1.06H527v-.87h.54c.55,0,1.24-.25,1.24-.87,0-.43-.31-.79-1-.79a2.56,2.56,0,0,0-1.29.39l-.27-.85a3.43,3.43,0,0,1,1.81-.49c1.3,0,2,.72,2,1.54a1.54,1.54,0,0,1-1.16,1.47v0a1.59,1.59,0,0,1,1.38,1.56c0,1.06-.89,1.9-2.44,1.9a3.45,3.45,0,0,1-1.76-.43Z"/><path class="cls-55" d="M535.18,93.81h-2.42l-.18,1.26a2.76,2.76,0,0,1,.44,0,2.81,2.81,0,0,1,1.53.41,1.81,1.81,0,0,1,.82,1.59,2.29,2.29,0,0,1-2.53,2.17,3.63,3.63,0,0,1-1.67-.36l.24-.9a3.24,3.24,0,0,0,1.38.33,1.23,1.23,0,0,0,1.36-1.14c0-.73-.53-1.2-1.78-1.2a6.67,6.67,0,0,0-.86.06l.41-3.17h3.26Z"/><path class="cls-55" d="M526.24,113.28a3,3,0,0,0,1.43.39c.91,0,1.26-.52,1.26-1,0-.74-.7-1.06-1.43-1.06H527v-.87h.54c.55,0,1.24-.25,1.24-.87,0-.43-.31-.79-1-.79a2.46,2.46,0,0,0-1.29.4l-.27-.86a3.43,3.43,0,0,1,1.81-.49c1.3,0,2,.72,2,1.54a1.54,1.54,0,0,1-1.16,1.47v0a1.59,1.59,0,0,1,1.38,1.56c0,1.06-.89,1.9-2.44,1.9a3.45,3.45,0,0,1-1.76-.43Z"/><path class="cls-55" d="M535,109.08a3.24,3.24,0,0,0-.6,0,2.19,2.19,0,0,0-2.1,1.82h0a1.83,1.83,0,0,1,1.41-.61,1.9,1.9,0,0,1,1.92,2.05,2.18,2.18,0,0,1-2.21,2.24c-1.53,0-2.37-1.16-2.37-2.71a3.77,3.77,0,0,1,1.09-2.8,3.52,3.52,0,0,1,2.23-.93,2.68,2.68,0,0,1,.6,0Zm-.55,3.36c0-.73-.39-1.25-1.09-1.25a1.15,1.15,0,0,0-1,.65.8.8,0,0,0-.08.38c0,.83.4,1.51,1.19,1.51C534.05,113.73,534.44,113.19,534.44,112.44Z"/><path class="cls-55" d="M489.52,52.41v-.73l.75-.68c1.47-1.38,2.17-2.13,2.18-3a1,1,0,0,0-1.12-1,2.26,2.26,0,0,0-1.34.52l-.35-.84a3.08,3.08,0,0,1,1.93-.65,1.86,1.86,0,0,1,2.07,1.9c0,1.1-.79,2-1.9,3l-.54.47v0h2.57v1Z"/><path class="cls-55" d="M495.17,51.56a3.84,3.84,0,0,0,.66,0,2.39,2.39,0,0,0,1.28-.49,2.3,2.3,0,0,0,.81-1.4h0a1.77,1.77,0,0,1-1.37.55,1.85,1.85,0,0,1-1.91-1.94A2.22,2.22,0,0,1,496.88,46c1.47,0,2.24,1.14,2.24,2.68A3.85,3.85,0,0,1,498,51.62a3.37,3.37,0,0,1-2.14.86,4.55,4.55,0,0,1-.72,0Zm.63-3.37a1,1,0,0,0,1,1.15,1.16,1.16,0,0,0,1-.52.72.72,0,0,0,.07-.34c0-.86-.32-1.58-1.09-1.58C496.23,46.9,495.8,47.43,495.8,48.19Z"/><path class="cls-55" d="M489.76,66.58a3.23,3.23,0,0,0,1.43.39c.91,0,1.27-.52,1.27-1,0-.74-.71-1.06-1.43-1.06h-.54V64H491c.54,0,1.24-.25,1.24-.87,0-.43-.31-.79-1-.79a2.55,2.55,0,0,0-1.28.39l-.27-.86a3.49,3.49,0,0,1,1.8-.48c1.31,0,2,.72,2,1.54a1.54,1.54,0,0,1-1.16,1.47h0A1.61,1.61,0,0,1,493.7,66c0,1.06-.89,1.9-2.45,1.9a3.48,3.48,0,0,1-1.76-.43Z"/><path class="cls-55" d="M499.13,64.62c0,2-.79,3.29-2.29,3.29s-2.22-1.31-2.23-3.22.84-3.27,2.3-3.27S499.13,62.77,499.13,64.62Zm-3.32.06c0,1.53.42,2.32,1.06,2.32s1.07-.85,1.07-2.35-.34-2.32-1.06-2.32S495.81,63.11,495.81,64.68Z"/><path class="cls-55" d="M489.74,97.91a3.17,3.17,0,0,0,1.43.38c.91,0,1.26-.51,1.26-1,0-.74-.7-1.06-1.43-1.06h-.54v-.87H491c.54,0,1.24-.25,1.24-.87,0-.44-.31-.79-1-.79a2.56,2.56,0,0,0-1.29.39l-.27-.86a3.53,3.53,0,0,1,1.81-.48c1.3,0,2,.71,2,1.54a1.53,1.53,0,0,1-1.16,1.46v0a1.61,1.61,0,0,1,1.38,1.57c0,1.06-.89,1.9-2.44,1.9a3.45,3.45,0,0,1-1.76-.43Z"/><path class="cls-55" d="M496.54,93.93h0l-1.15.58-.2-.9,1.53-.75h1v6.27h-1.15Z"/><path class="cls-55" d="M489.74,113.31a3.17,3.17,0,0,0,1.43.38c.91,0,1.26-.51,1.26-1,0-.74-.7-1.06-1.43-1.06h-.54v-.87H491c.54,0,1.24-.25,1.24-.87,0-.44-.31-.79-1-.79a2.56,2.56,0,0,0-1.29.39l-.27-.86a3.53,3.53,0,0,1,1.81-.48c1.3,0,2,.71,2,1.54a1.53,1.53,0,0,1-1.16,1.46v0a1.61,1.61,0,0,1,1.38,1.57c0,1.06-.89,1.9-2.44,1.9a3.45,3.45,0,0,1-1.76-.43Z"/><path class="cls-55" d="M494.68,114.53v-.72l.74-.69c1.48-1.37,2.17-2.12,2.18-3a1,1,0,0,0-1.12-1,2.26,2.26,0,0,0-1.34.52l-.35-.84a3.08,3.08,0,0,1,1.93-.65,1.86,1.86,0,0,1,2.07,1.9c0,1.1-.79,2-1.89,3l-.54.47v0h2.56v1Z"/><path class="cls-55" d="M452.31,52.63v-.72l.74-.69c1.48-1.37,2.17-2.12,2.18-2.95a1,1,0,0,0-1.12-1.05,2.26,2.26,0,0,0-1.34.52l-.35-.84a3.1,3.1,0,0,1,1.93-.65,1.86,1.86,0,0,1,2.07,1.9c0,1.1-.79,2-1.89,3l-.54.47v0h2.57v1Z"/><path class="cls-55" d="M461.48,47.34h-2.41l-.18,1.26a2.76,2.76,0,0,1,.44,0,2.8,2.8,0,0,1,1.53.4,1.81,1.81,0,0,1,.82,1.6,2.29,2.29,0,0,1-2.53,2.17,3.57,3.57,0,0,1-1.68-.37l.25-.89a3.25,3.25,0,0,0,1.38.32,1.22,1.22,0,0,0,1.36-1.14c0-.72-.53-1.19-1.78-1.19-.35,0-.62,0-.86.05l.41-3.16h3.25Z"/><path class="cls-55" d="M452.31,68v-.72l.74-.69c1.48-1.37,2.17-2.12,2.18-3a1,1,0,0,0-1.12-1.05,2.26,2.26,0,0,0-1.34.52l-.35-.84a3.1,3.1,0,0,1,1.93-.65,1.86,1.86,0,0,1,2.07,1.9c0,1.1-.79,2-1.89,3L454,67v0h2.57v1Z"/><path class="cls-55" d="M461.3,62.61a3.24,3.24,0,0,0-.6,0,2.19,2.19,0,0,0-2.1,1.82h0a1.81,1.81,0,0,1,1.41-.61A1.9,1.9,0,0,1,462,65.9a2.18,2.18,0,0,1-2.22,2.24c-1.52,0-2.36-1.16-2.36-2.71a3.75,3.75,0,0,1,1.09-2.8,3.46,3.46,0,0,1,2.23-.93,2.66,2.66,0,0,1,.6,0ZM460.75,66c0-.74-.4-1.25-1.09-1.25a1.16,1.16,0,0,0-1,.65,1,1,0,0,0-.07.38c0,.83.4,1.5,1.18,1.5C460.35,67.25,460.75,66.72,460.75,66Z"/><path class="cls-55" d="M452.28,99.36v-.72L453,98c1.48-1.37,2.18-2.12,2.19-3a1,1,0,0,0-1.12-1,2.3,2.3,0,0,0-1.35.52l-.34-.84a3.08,3.08,0,0,1,1.93-.65,1.86,1.86,0,0,1,2.06,1.9c0,1.1-.79,2-1.89,3l-.54.47v0h2.57v1Z"/><path class="cls-55" d="M461.78,93.09v.76l-2.66,5.51h-1.25l2.65-5.27v0h-3v-1Z"/><path class="cls-55" d="M452.28,114.77V114l.74-.69c1.48-1.37,2.18-2.12,2.19-2.95a1,1,0,0,0-1.12-1.05,2.3,2.3,0,0,0-1.35.52l-.34-.84a3.08,3.08,0,0,1,1.93-.65,1.86,1.86,0,0,1,2.06,1.9c0,1.1-.79,2-1.89,3l-.54.47v0h2.57v1Z"/><path class="cls-55" d="M458.55,111.49a1.53,1.53,0,0,1-1-1.39,1.87,1.87,0,0,1,2.1-1.72c1.36,0,2,.81,2,1.58a1.55,1.55,0,0,1-1,1.42v0a1.69,1.69,0,0,1,1.2,1.59c0,1.12-.94,1.87-2.29,1.87s-2.23-.85-2.23-1.73a1.74,1.74,0,0,1,1.18-1.62Zm2.13,1.6c0-.63-.46-1-1.16-1.17a1.14,1.14,0,0,0-.93,1.09,1,1,0,0,0,1.05,1A.94.94,0,0,0,460.68,113.09Zm-2-3c0,.51.43.82,1,1a1,1,0,0,0,.78-1,.84.84,0,0,0-.9-.89A.84.84,0,0,0,458.72,110.05Z"/><path class="cls-55" d="M347.35,52.63v-.72l.75-.69c1.48-1.37,2.17-2.12,2.18-2.95a1,1,0,0,0-1.12-1.05,2.26,2.26,0,0,0-1.34.52l-.35-.84a3.08,3.08,0,0,1,1.93-.65,1.86,1.86,0,0,1,2.07,1.9c0,1.1-.79,2-1.89,3l-.55.47v0h2.57v1Z"/><path class="cls-55" d="M354.4,47.43h0l-1.15.58-.21-.9,1.54-.75h1v6.27H354.4Z"/><path class="cls-55" d="M347.35,68v-.72l.75-.69c1.48-1.37,2.17-2.12,2.18-3a1,1,0,0,0-1.12-1.05,2.26,2.26,0,0,0-1.34.52l-.35-.84a3.08,3.08,0,0,1,1.93-.65,1.86,1.86,0,0,1,2.07,1.9c0,1.1-.79,2-1.89,3L349,67v0h2.57v1Z"/><path class="cls-55" d="M352.53,68v-.72l.75-.69c1.47-1.37,2.17-2.12,2.18-3a1,1,0,0,0-1.12-1.05,2.24,2.24,0,0,0-1.34.52l-.35-.84a3.08,3.08,0,0,1,1.93-.65,1.86,1.86,0,0,1,2.07,1.9c0,1.1-.8,2-1.9,3l-.54.47v0h2.57v1Z"/><path class="cls-55" d="M347.33,99.36v-.72l.74-.69c1.48-1.37,2.17-2.12,2.18-3a1,1,0,0,0-1.12-1,2.26,2.26,0,0,0-1.34.52l-.35-.84a3.1,3.1,0,0,1,1.93-.65,1.86,1.86,0,0,1,2.07,1.9c0,1.1-.79,2-1.89,3l-.54.47v0h2.57v1Z"/><path class="cls-55" d="M352.75,98.14a3.17,3.17,0,0,0,1.43.38c.9,0,1.26-.51,1.26-1,0-.74-.7-1.06-1.43-1.06h-.54v-.87H354c.54,0,1.24-.25,1.24-.87,0-.44-.31-.79-1-.79a2.55,2.55,0,0,0-1.28.39l-.27-.86A3.53,3.53,0,0,1,354.5,93c1.3,0,2,.71,2,1.54A1.53,1.53,0,0,1,355.3,96v0a1.61,1.61,0,0,1,1.38,1.57c0,1.06-.89,1.9-2.45,1.9a3.41,3.41,0,0,1-1.75-.43Z"/><path class="cls-55" d="M347.33,114.77V114l.74-.69c1.48-1.37,2.17-2.12,2.18-2.95a1,1,0,0,0-1.12-1.05,2.26,2.26,0,0,0-1.34.52l-.35-.84a3.1,3.1,0,0,1,1.93-.65,1.86,1.86,0,0,1,2.07,1.9c0,1.1-.79,2-1.89,3l-.54.47v0h2.57v1Z"/><path class="cls-55" d="M355.12,114.77v-1.6h-2.85v-.77l2.57-3.91h1.4v3.78h.82v.9h-.82v1.6Zm0-2.5v-1.71c0-.35,0-.71,0-1.09h0c-.19.4-.35.72-.55,1.06l-1.16,1.72v0Z"/><path class="cls-55" d="M311.93,47.43h0l-1.15.58-.2-.9,1.53-.75h1v6.27h-1.15Z"/><path class="cls-55" d="M319.56,46.36v.76l-2.66,5.51h-1.24l2.64-5.27v0h-3v-1Z"/><path class="cls-55" d="M311.93,62.83h0l-1.15.58-.2-.9,1.53-.75h1V68h-1.15Z"/><path class="cls-55" d="M316.33,64.76a1.54,1.54,0,0,1-.95-1.39,1.87,1.87,0,0,1,2.09-1.72c1.37,0,2,.81,2,1.58a1.56,1.56,0,0,1-1,1.42v0a1.7,1.7,0,0,1,1.2,1.59c0,1.12-.95,1.87-2.29,1.87s-2.23-.85-2.23-1.73a1.73,1.73,0,0,1,1.17-1.62Zm2.14,1.6c0-.63-.46-1-1.17-1.18a1.15,1.15,0,0,0-.93,1.1,1,1,0,0,0,1.06,1A1,1,0,0,0,318.47,66.36Zm-2-3c0,.51.42.82,1,1a1,1,0,0,0,.78-1,.9.9,0,0,0-1.8,0Z"/><path class="cls-55" d="M312.9,94.16h0l-1.15.58-.2-.9,1.54-.75h1v6.27H312.9Z"/><path class="cls-55" d="M316.69,98.52a5.28,5.28,0,0,0,.66,0,2.36,2.36,0,0,0,1.27-.49,2.23,2.23,0,0,0,.81-1.4h0a1.77,1.77,0,0,1-1.37.55,1.84,1.84,0,0,1-1.9-1.94A2.22,2.22,0,0,1,318.4,93c1.47,0,2.24,1.14,2.24,2.68a3.86,3.86,0,0,1-1.09,2.92,3.51,3.51,0,0,1-2.15.86,4.46,4.46,0,0,1-.71,0Zm.63-3.37a1,1,0,0,0,1,1.15,1.19,1.19,0,0,0,1-.52,1,1,0,0,0,.06-.35c0-.85-.32-1.57-1.09-1.57C317.74,93.86,317.32,94.39,317.32,95.15Z"/><path class="cls-55" d="M311,114.77V114l.74-.69c1.48-1.37,2.18-2.12,2.18-2.95a1,1,0,0,0-1.12-1.05,2.26,2.26,0,0,0-1.34.52l-.35-.84a3.11,3.11,0,0,1,1.94-.65,1.86,1.86,0,0,1,2.06,1.9c0,1.1-.79,2-1.89,3l-.54.47v0h2.57v1Z"/><path class="cls-55" d="M320.65,111.58c0,2-.79,3.29-2.3,3.29s-2.21-1.31-2.22-3.23.83-3.26,2.3-3.26S320.65,109.73,320.65,111.58Zm-3.32.06c0,1.53.41,2.32,1.06,2.32s1.06-.85,1.06-2.35-.34-2.32-1.05-2.32S317.33,110.07,317.33,111.64Z"/><path class="cls-55" d="M277,47.69h0l-1.15.58-.2-.9,1.53-.76h1v6.28H277Z"/><path class="cls-55" d="M280.56,51.67a3.17,3.17,0,0,0,1.43.38c.91,0,1.27-.51,1.27-1,0-.75-.71-1.07-1.43-1.07h-.54v-.86h.54c.54,0,1.23-.26,1.23-.87,0-.44-.3-.8-1-.8a2.55,2.55,0,0,0-1.28.4L280.5,47a3.56,3.56,0,0,1,1.81-.48c1.31,0,2,.71,2,1.53a1.52,1.52,0,0,1-1.16,1.47v0a1.6,1.6,0,0,1,1.38,1.57c0,1.06-.88,1.9-2.44,1.9a3.37,3.37,0,0,1-1.76-.44Z"/><path class="cls-55" d="M277,63.09h0l-1.15.58-.2-.9,1.53-.76h1v6.28H277Z"/><path class="cls-55" d="M282.94,68.29V66.7h-2.85v-.77L282.66,62h1.4V65.8h.81v.9h-.81v1.59Zm0-2.49V64.09c0-.36,0-.71,0-1.09h0c-.19.39-.36.71-.55,1.06l-1.16,1.72v0Z"/><path class="cls-55" d="M278,94.41h0l-1.15.58-.2-.89,1.54-.76h1v6.28H278Z"/><path class="cls-55" d="M285.29,94.33h-2.41l-.18,1.25a2.76,2.76,0,0,1,.44,0,2.81,2.81,0,0,1,1.53.41,1.81,1.81,0,0,1,.82,1.59A2.3,2.3,0,0,1,283,99.73a3.61,3.61,0,0,1-1.67-.37l.24-.9a3.1,3.1,0,0,0,1.38.33,1.23,1.23,0,0,0,1.36-1.14c0-.72-.53-1.2-1.78-1.2a6.54,6.54,0,0,0-.86.06l.41-3.17h3.25Z"/><path class="cls-55" d="M278,109.81h0l-1.15.58-.2-.89,1.54-.76h1V115H278Z"/><path class="cls-55" d="M285.11,109.59a3.24,3.24,0,0,0-.6,0,2.21,2.21,0,0,0-2.1,1.83h0a1.82,1.82,0,0,1,1.42-.61,1.89,1.89,0,0,1,1.92,2,2.19,2.19,0,0,1-2.21,2.24c-1.53,0-2.37-1.16-2.37-2.72a3.78,3.78,0,0,1,1.09-2.8,3.52,3.52,0,0,1,2.23-.93,3.27,3.27,0,0,1,.6,0Zm-.55,3.36a1.09,1.09,0,0,0-1.09-1.24,1.17,1.17,0,0,0-1,.64,1,1,0,0,0-.07.38c0,.83.4,1.51,1.19,1.51C284.16,114.24,284.56,113.71,284.56,113Z"/><path class="cls-55" d="M243.52,51.78a3.73,3.73,0,0,0,.66,0,2.36,2.36,0,0,0,1.27-.49,2.23,2.23,0,0,0,.81-1.4h0a1.75,1.75,0,0,1-1.37.55,1.84,1.84,0,0,1-1.9-1.94,2.22,2.22,0,0,1,2.26-2.24c1.47,0,2.24,1.14,2.24,2.68a3.86,3.86,0,0,1-1.09,2.92,3.48,3.48,0,0,1-2.14.86,4.58,4.58,0,0,1-.72,0Zm.63-3.36a1,1,0,0,0,1,1.15,1.19,1.19,0,0,0,1-.52,1,1,0,0,0,.06-.35c0-.85-.31-1.57-1.09-1.57C244.57,47.13,244.15,47.66,244.15,48.42Z"/><path class="cls-55" d="M240.91,62.83h0l-1.15.58-.2-.9,1.54-.75h1V68h-1.15Z"/><path class="cls-55" d="M248.66,64.85c0,2-.79,3.29-2.3,3.29s-2.21-1.31-2.22-3.23.83-3.26,2.3-3.26S248.66,63,248.66,64.85Zm-3.32.05c0,1.54.41,2.33,1.06,2.33s1.06-.85,1.06-2.35-.34-2.32-1.05-2.32S245.34,63.34,245.34,64.9Z"/><path class="cls-55" d="M241.89,94.16h0l-1.15.58-.21-.9,1.54-.75h1v6.27h-1.15Z"/><path class="cls-55" d="M247.06,94.16h0l-1.15.58-.21-.9,1.54-.75h1v6.27h-1.15Z"/><path class="cls-55" d="M241.89,109.56h0l-1.15.58-.21-.9,1.54-.75h1v6.28h-1.15Z"/><path class="cls-55" d="M245.2,114.77V114l.74-.69c1.48-1.37,2.18-2.12,2.19-2.95a1,1,0,0,0-1.12-1.05,2.3,2.3,0,0,0-1.35.52l-.34-.84a3.08,3.08,0,0,1,1.93-.65,1.86,1.86,0,0,1,2.06,1.9c0,1.1-.79,2-1.89,3l-.54.47v0h2.57v1Z"/><path class="cls-55" d="M171.59,47.4h0l-1.15.58-.21-.9,1.54-.75h1v6.28h-1.15Z"/><path class="cls-55" d="M169.73,68v-.73l.74-.68c1.48-1.37,2.18-2.13,2.19-3a1,1,0,0,0-1.12-1,2.3,2.3,0,0,0-1.35.52l-.34-.84a3.08,3.08,0,0,1,1.93-.65,1.86,1.86,0,0,1,2.06,1.91c0,1.1-.79,2-1.89,3l-.54.47v0H174v1Z"/><path class="cls-55" d="M171,98.11a3,3,0,0,0,1.42.39c.91,0,1.27-.52,1.27-1,0-.74-.71-1.06-1.43-1.06h-.54v-.87h.54c.54,0,1.24-.25,1.24-.87,0-.43-.31-.79-1-.79a2.45,2.45,0,0,0-1.28.4l-.27-.86a3.39,3.39,0,0,1,1.8-.49c1.31,0,2,.72,2,1.54A1.53,1.53,0,0,1,173.49,96v0a1.59,1.59,0,0,1,1.39,1.56c0,1.06-.89,1.9-2.45,1.9a3.48,3.48,0,0,1-1.76-.43Z"/><path class="cls-55" d="M173.41,114.53v-1.6h-2.85v-.77l2.57-3.91h1.4V112h.81v.9h-.81v1.6Zm0-2.5v-1.7c0-.36,0-.72,0-1.1h0c-.19.4-.36.72-.55,1.07L171.7,112h1.71Z"/><path class="cls-55" d="M210.72,47.32h-2.41l-.19,1.25a2.9,2.9,0,0,1,.45,0,2.75,2.75,0,0,1,1.52.41,1.78,1.78,0,0,1,.82,1.59,2.29,2.29,0,0,1-2.53,2.18,3.68,3.68,0,0,1-1.67-.37l.24-.9a3.1,3.1,0,0,0,1.38.33,1.23,1.23,0,0,0,1.37-1.14c0-.72-.53-1.2-1.78-1.2a6.41,6.41,0,0,0-.86.06l.41-3.17h3.25Z"/><path class="cls-55" d="M210.54,62.58a3.21,3.21,0,0,0-.6,0,2.23,2.23,0,0,0-2.11,1.83h0a1.8,1.8,0,0,1,1.41-.61,1.89,1.89,0,0,1,1.92,2A2.19,2.19,0,0,1,209,68.12c-1.52,0-2.36-1.16-2.36-2.72a3.77,3.77,0,0,1,1.09-2.8,3.52,3.52,0,0,1,2.23-.93,4.83,4.83,0,0,1,.6,0ZM210,65.94a1.1,1.1,0,0,0-1.1-1.24,1.15,1.15,0,0,0-1,.64.82.82,0,0,0-.08.38c0,.83.41,1.51,1.19,1.51C209.59,67.23,210,66.7,210,65.94Z"/><path class="cls-55" d="M212,93.06v.76l-2.65,5.52h-1.25l2.65-5.27v0h-3v-1Z"/><path class="cls-55" d="M208.88,111.26a1.53,1.53,0,0,1-1-1.4,1.87,1.87,0,0,1,2.1-1.72c1.36,0,2,.82,2,1.59a1.57,1.57,0,0,1-1,1.42v0a1.68,1.68,0,0,1,1.2,1.58c0,1.12-.95,1.88-2.29,1.88s-2.23-.85-2.23-1.73a1.73,1.73,0,0,1,1.18-1.63Zm2.13,1.6c0-.64-.46-1-1.17-1.18a1.14,1.14,0,0,0-.93,1.09,1,1,0,0,0,1.06,1A1,1,0,0,0,211,112.86Zm-2-3c0,.51.42.82,1,1a1,1,0,0,0,.79-1,.91.91,0,0,0-1.81,0Z"/></g><g id="SYMBOLER-5" data-name="SYMBOLER"><rect class="cls-56" x="89.24" y="130.55" width="25.51" height="25.51"/><path class="cls-33" d="M96,147.22l-1.9-7.79h1.51l.74,3.53c.21.95.38,1.94.51,2.72h0c.13-.82.34-1.75.57-2.73l.84-3.52h1.49l.78,3.58c.19.92.35,1.79.47,2.63h0c.14-.85.31-1.75.53-2.69l.81-3.52h1.45l-2.09,7.79h-1.53l-.81-3.67c-.18-.89-.33-1.63-.43-2.47h0c-.14.83-.3,1.58-.52,2.47l-.9,3.67Z"/><path class="cls-33" d="M109.68,146.86a4.89,4.89,0,0,1-2,.36,3.68,3.68,0,0,1-4-3.93,3.92,3.92,0,0,1,4.16-4.12,4.46,4.46,0,0,1,1.89.35l-.31,1.13a3.83,3.83,0,0,0-1.53-.3,2.59,2.59,0,0,0-2.72,2.87A2.55,2.55,0,0,0,107.9,146a4,4,0,0,0,1.55-.29Z"/><rect class="cls-57" x="23.19" y="124.82" width="31.11" height="31.15"/><path class="cls-58" d="M39.48,133.1a1.8,1.8,0,1,0-1.78-1.8,1.8,1.8,0,0,0,1.78,1.8"/><path class="cls-58" d="M37.7,142.08v-2.82l-2.52,1.3a1,1,0,1,1-1-1.78l3.53-2.09v-1.28a1.79,1.79,0,1,1,3.58,0v6.27c0,1.11-.56,1.24-1,1.58v8.58a1,1,0,1,1-2,0v-7.53l-3,1.64,0,3.78a1,1,0,1,1-2,0v-4.31c0-.56,1.06-1.25,1.06-1.25l3.53-2.08"/><path class="cls-58" d="M40.49,138.79l1.71,3.6a1,1,0,1,0,1.88-.81l-2.94-6.82"/><path class="cls-58" d="M47.09,139.68a1.51,1.51,0,1,0-1.49-1.51,1.51,1.51,0,0,0,1.49,1.51"/><path class="cls-58" d="M47.43,146.2l-2,6.16a.72.72,0,0,1-.9.47.73.73,0,0,1-.47-.91L46,146.11"/><path class="cls-58" d="M46.37,146.2l2,6.16a.72.72,0,0,0,.9.47.75.75,0,0,0,.48-.91l-1.92-5.81"/><path class="cls-58" d="M45.77,141.33A1.25,1.25,0,0,1,47,140.07h.07a1.25,1.25,0,0,1,1.26,1.26v4.32a1.26,1.26,0,0,1-1.26,1.26H47a1.26,1.26,0,0,1-1.25-1.26Z"/><path class="cls-58" d="M45.68,143.42l-1.57-.81a.64.64,0,0,0-.87.23.65.65,0,0,0,.24.88l2.2,1.29"/><rect class="cls-58" x="37.32" y="153.45" width="16.98" height="2.51"/><rect class="cls-58" x="23.12" y="153.69" width="12.74" height="2.32"/><rect class="cls-58" x="23.12" y="150.36" width="9.34" height="3.94"/><rect class="cls-58" x="23.12" y="147.43" width="6.17" height="3.63"/><polygon class="cls-58" points="35.85 124.83 35.85 124.82 23.19 124.82 23.19 125.97 34.23 125.97 34.23 128.72 35.86 128.72 35.86 124.83 35.85 124.83"/><rect class="cls-57" x="23.16" y="4.04" width="31.11" height="31.15"/><path class="cls-58" d="M39.45,12.32a1.8,1.8,0,1,0-1.78-1.8,1.8,1.8,0,0,0,1.78,1.8"/><path class="cls-58" d="M37.67,21.3V18.47l-2.52,1.3a1,1,0,1,1-1-1.77l3.53-2.09V14.63a1.79,1.79,0,1,1,3.58,0v6.26c0,1.12-.56,1.25-1,1.59v8.58a1,1,0,1,1-2,0V23.53l-3,1.64,0,3.78a1,1,0,1,1-2,0V24.64c0-.57,1.06-1.25,1.06-1.25l3.53-2.09"/><path class="cls-58" d="M40.46,18l1.71,3.59a1,1,0,0,0,1.88-.8L41.11,14"/><path class="cls-58" d="M47.06,18.9a1.51,1.51,0,1,0-1.49-1.51,1.51,1.51,0,0,0,1.49,1.51"/><path class="cls-58" d="M47.4,25.42l-2,6.16a.72.72,0,0,1-.9.47.73.73,0,0,1-.47-.91L46,25.32"/><path class="cls-58" d="M46.34,25.42l2,6.16a.72.72,0,0,0,.9.47.75.75,0,0,0,.48-.91l-1.92-5.82"/><path class="cls-58" d="M45.74,20.55A1.25,1.25,0,0,1,47,19.29h.07a1.25,1.25,0,0,1,1.26,1.26v4.32a1.26,1.26,0,0,1-1.26,1.26H47a1.26,1.26,0,0,1-1.25-1.26Z"/><path class="cls-58" d="M45.65,22.64l-1.57-.81a.62.62,0,0,0-.86.23.64.64,0,0,0,.23.88l2.2,1.29"/><rect class="cls-58" x="37.29" y="32.67" width="16.98" height="2.51"/><rect class="cls-58" x="23.09" y="32.9" width="12.74" height="2.32"/><rect class="cls-58" x="23.09" y="29.58" width="9.34" height="3.94"/><rect class="cls-58" x="23.09" y="26.64" width="6.17" height="3.63"/><polygon class="cls-58" points="35.82 4.04 35.82 4.04 23.16 4.04 23.16 5.19 34.2 5.19 34.2 7.94 35.83 7.94 35.83 4.04 35.82 4.04"/><rect class="cls-57" x="681.09" y="3.87" width="31.11" height="31.15"/><path class="cls-58" d="M697.39,12.15a1.8,1.8,0,1,0-1.79-1.8,1.79,1.79,0,0,0,1.79,1.8"/><path class="cls-58" d="M695.6,21.13V18.3l-2.52,1.3a1,1,0,0,1-1.39-.37,1,1,0,0,1,.37-1.4l3.53-2.09V14.46a1.79,1.79,0,1,1,3.58,0v6.26c0,1.12-.55,1.25-1,1.59v8.58a1,1,0,0,1-2,0V23.36l-3,1.64,0,3.78a1,1,0,1,1-2,0V24.47c0-.57,1.06-1.25,1.06-1.25l3.53-2.09"/><path class="cls-58" d="M698.39,17.84l1.72,3.59a1,1,0,0,0,1.34.54,1,1,0,0,0,.54-1.34l-3-6.82"/><path class="cls-58" d="M705,18.72a1.51,1.51,0,1,0-1.5-1.5,1.5,1.5,0,0,0,1.5,1.5"/><path class="cls-58" d="M705.34,25.25l-2,6.16a.71.71,0,0,1-.89.47A.73.73,0,0,1,702,31l1.91-5.82"/><path class="cls-58" d="M704.27,25.25l2,6.16a.72.72,0,0,0,.9.47.73.73,0,0,0,.48-.91l-1.92-5.82"/><rect class="cls-58" x="703.67" y="19.12" width="2.58" height="6.84" rx="1.25" ry="1.25"/><path class="cls-58" d="M703.58,22.47,702,21.66a.64.64,0,0,0-.64,1.1l2.2,1.3"/><rect class="cls-58" x="695.23" y="32.5" width="16.98" height="2.51"/><rect class="cls-58" x="681.03" y="32.73" width="12.73" height="2.32"/><rect class="cls-58" x="681.03" y="29.41" width="9.34" height="3.94"/><rect class="cls-58" x="681.03" y="26.47" width="6.17" height="3.63"/><polygon class="cls-58" points="693.75 3.88 693.75 3.87 681.09 3.87 681.09 5.02 692.14 5.02 692.14 7.77 693.76 7.77 693.76 3.88 693.75 3.88"/><rect class="cls-57" x="681.24" y="124.91" width="31.11" height="31.15"/><path class="cls-58" d="M697.53,133.19a1.8,1.8,0,1,0-1.78-1.79,1.79,1.79,0,0,0,1.78,1.79"/><path class="cls-58" d="M695.75,142.17v-2.82l-2.52,1.3a1,1,0,0,1-1-1.78l3.54-2.08v-1.28a1.79,1.79,0,1,1,3.58,0v6.26c0,1.11-.56,1.24-1,1.58v8.58a1,1,0,1,1-2,0V144.4l-3,1.64,0,3.79a1,1,0,1,1-2,0v-4.31c0-.57,1.05-1.26,1.05-1.26l3.54-2.08"/><path class="cls-58" d="M698.54,138.88l1.71,3.6a1,1,0,1,0,1.88-.81l-2.94-6.82"/><path class="cls-58" d="M705.14,139.77a1.51,1.51,0,1,0-1.5-1.51,1.5,1.5,0,0,0,1.5,1.51"/><path class="cls-58" d="M705.48,146.3l-2,6.15a.72.72,0,0,1-.9.47.72.72,0,0,1-.47-.9L704,146.2"/><path class="cls-58" d="M704.42,146.3l2,6.15a.72.72,0,0,0,.9.47.72.72,0,0,0,.47-.9l-1.91-5.82"/><rect class="cls-58" x="703.82" y="140.16" width="2.58" height="6.84" rx="1.25" ry="1.25"/><path class="cls-58" d="M703.73,143.51l-1.57-.81a.64.64,0,1,0-.63,1.11l2.2,1.3"/><rect class="cls-58" x="695.37" y="153.55" width="16.98" height="2.51"/><rect class="cls-58" x="681.17" y="153.78" width="12.73" height="2.32"/><rect class="cls-58" x="681.17" y="150.46" width="9.34" height="3.94"/><rect class="cls-58" x="681.17" y="147.52" width="6.17" height="3.63"/><polygon class="cls-58" points="693.9 124.92 693.9 124.91 681.24 124.91 681.24 126.06 692.28 126.06 692.28 128.81 693.91 128.81 693.91 124.92 693.9 124.92"/><rect class="cls-59" x="163.57" y="130.57" width="25.51" height="25.51"/><path class="cls-33" d="M169.92,149.36a1.71,1.71,0,0,1-1.71-1.71v-7.41a1.71,1.71,0,0,1,1.71-1.71h1.14v10.83Z"/><path class="cls-33" d="M182.45,149.36a1.7,1.7,0,0,0,1.7-1.71v-7.41a1.7,1.7,0,0,0-1.7-1.71h-1.14v10.83Z"/><path class="cls-33" d="M174.76,137.25h2.85v1.28h-2.85v-1.28Zm0-.86h0a.86.86,0,0,0-.85.86v1.28h-2.28v10.82h9.11V138.53h-2.28v-1.28a.86.86,0,0,0-.85-.86Z"/><rect class="cls-59" x="133.9" y="130.58" width="25.51" height="25.51"/><path class="cls-33" d="M139.06,135.27c2.23,1.12,4.06,3.28,4.1,5.67v11.34h-1.71l0-10.77a6.31,6.31,0,0,0-2.79-5.58Z"/><path class="cls-33" d="M147.82,135.27c-2.23,1.12-4.06,3.28-4.1,5.67v11.34h1.71l0-10.77a6.33,6.33,0,0,1,2.78-5.58Z"/><path class="cls-33" d="M150.22,141.47c0-.71-.73-1.3-1.69-1.44l-.43-.8-.42.8c-1,.14-1.7.73-1.7,1.44s.73,1.3,1.7,1.44v9.37h.85v-9.37C149.49,142.77,150.22,142.18,150.22,141.47Zm-.75-.39h-.94v-.46A1.61,1.61,0,0,1,149.47,141.08Zm-1.79-.46v.46h-1A1.61,1.61,0,0,1,147.68,140.62Zm-1,1.25h1v.45A1.55,1.55,0,0,1,146.73,141.87Zm1.8.45v-.45h.94A1.6,1.6,0,0,1,148.53,142.32Z"/><path class="cls-33" d="M154.89,141.47c0-.71-.72-1.3-1.69-1.44l-.42-.8-.43.8c-1,.14-1.69.73-1.69,1.44s.73,1.3,1.69,1.44v9.37h.85v-9.37C154.17,142.77,154.89,142.18,154.89,141.47Zm-.75-.39h-.94v-.46A1.58,1.58,0,0,1,154.14,141.08Zm-1.79-.46v.46h-.95A1.64,1.64,0,0,1,152.35,140.62Zm-.95,1.25h.95v.45A1.57,1.57,0,0,1,151.4,141.87Zm1.8.45v-.45h.94A1.57,1.57,0,0,1,153.2,142.32Z"/><rect class="cls-59" x="651.65" y="130.81" width="25.51" height="25.51"/><path class="cls-33" d="M658,149.6a1.72,1.72,0,0,1-1.72-1.71v-7.41a1.71,1.71,0,0,1,1.72-1.71h1.13V149.6Z"/><path class="cls-33" d="M670.53,149.6a1.72,1.72,0,0,0,1.71-1.71v-7.41a1.71,1.71,0,0,0-1.71-1.71h-1.14V149.6Z"/><path class="cls-33" d="M662.84,137.49h2.85v1.28h-2.85v-1.28Zm0-.86h0a.85.85,0,0,0-.85.86v1.28h-2.28v10.82h9.11V138.77h-2.28v-1.28a.85.85,0,0,0-.85-.86Z"/><rect class="cls-59" x="621.98" y="130.71" width="25.51" height="25.51"/><path class="cls-33" d="M627.14,135.41c2.23,1.12,4.06,3.28,4.1,5.67v11.34h-1.71l0-10.77a6.33,6.33,0,0,0-2.78-5.58Z"/><path class="cls-33" d="M635.9,135.41c-2.23,1.12-4,3.28-4.1,5.67v11.34h1.71l0-10.77a6.33,6.33,0,0,1,2.78-5.58Z"/><path class="cls-33" d="M638.3,141.61c0-.71-.73-1.3-1.69-1.44l-.42-.8-.43.8c-1,.14-1.69.73-1.69,1.44s.72,1.3,1.69,1.44v9.37h.85v-9.37C637.57,142.91,638.3,142.32,638.3,141.61Zm-.75-.39h-.94v-.46A1.61,1.61,0,0,1,637.55,141.22Zm-1.79-.46v.46h-1A1.61,1.61,0,0,1,635.76,140.76Zm-1,1.25h1v.45A1.66,1.66,0,0,1,634.81,142Zm1.8.45V142h.94A1.66,1.66,0,0,1,636.61,142.46Z"/><path class="cls-33" d="M643,141.61c0-.71-.73-1.3-1.7-1.44l-.42-.8-.43.8c-1,.14-1.69.73-1.69,1.44s.73,1.3,1.69,1.44v9.37h.85v-9.37C642.25,142.91,643,142.32,643,141.61Zm-.75-.39h-1v-.46A1.61,1.61,0,0,1,642.23,141.22Zm-1.8-.46v.46h-.94A1.61,1.61,0,0,1,640.43,140.76Zm-.94,1.25h.94v.45A1.66,1.66,0,0,1,639.49,142Zm1.79.45V142h1A1.66,1.66,0,0,1,641.28,142.46Z"/><rect class="cls-56" x="397.92" y="130.8" width="25.51" height="25.51"/><path class="cls-33" d="M415.59,145.53a1.17,1.17,0,0,1-1.16,1.17h-7.56a1.17,1.17,0,0,1-1.17-1.17v-7.27h9.89v.87A3.18,3.18,0,0,1,418.8,142a2.92,2.92,0,0,1-2.91,2.91h-.3v.58m0-5.24v3.5h.3a1.75,1.75,0,0,0,0-3.5Z"/><path class="cls-33" d="M417.64,149a1.74,1.74,0,0,0,1.74-1.74H401.92a1.74,1.74,0,0,0,1.75,1.74Z"/><rect class="cls-56" x="426.13" y="130.79" width="25.51" height="25.51"/><rect class="cls-33" x="427.15" y="142.48" width="13.09" height="8.87" transform="translate(-23.25 117.27) rotate(-15)"/><path class="cls-20" d="M428.31,153.26l-2.45-9.15,13.22-3.54,2.45,9.15Zm-1.72-8.72,2.14,8,12.07-3.23-2.14-8Z"/><rect class="cls-33" x="428.48" y="141.85" width="14.97" height="11.22"/><path class="cls-20" d="M443.75,153.38H428.18V141.55h15.57Zm-15-.6h14.37V142.15H428.78Z"/><path class="cls-20" d="M441.56,148.86h-5v-5h5Zm-4.43-.6H441v-3.82h-3.83Z"/><rect class="cls-20" x="430.67" y="150.55" width="10.83" height="0.6"/><rect class="cls-20" x="430.68" y="148.35" width="4.76" height="0.45"/><rect class="cls-20" x="430.68" y="145.99" width="4.76" height="0.6"/><rect class="cls-20" x="430.68" y="143.83" width="4.76" height="0.6"/><path class="cls-33" d="M438.65,135.47a4.56,4.56,0,0,1,6.69,5.1l-1.08-.29.72,1.24.39.67.12.21,2.13-1.23-1.26-.33a5.61,5.61,0,0,0-8.23-6.28,5.35,5.35,0,0,0-1.13.86l.55.94A4.82,4.82,0,0,1,438.65,135.47Z"/><path class="cls-60" d="M445.49,142.55h0a.16.16,0,0,1-.09-.07l-1.23-2.13a.17.17,0,0,1,0-.17.18.18,0,0,1,.16-.05l.93.25a4.31,4.31,0,0,0-.48-3.16,4.42,4.42,0,0,0-3.82-2.21,4.38,4.38,0,0,0-3.27,1.46.15.15,0,0,1-.13,0,.14.14,0,0,1-.11-.07l-.55-.95a.15.15,0,0,1,0-.18,5.48,5.48,0,0,1,1.15-.88,5.83,5.83,0,0,1,2.88-.77,5.77,5.77,0,0,1,5,2.88,5.69,5.69,0,0,1,.62,4.19l1.12.3a.17.17,0,0,1,.11.12.16.16,0,0,1-.08.15l-2.13,1.23A.08.08,0,0,1,445.49,142.55Zm-.92-2,1,1.69,1.69-1-.91-.25a.14.14,0,0,1-.1-.18,5.42,5.42,0,0,0-.56-4.11,5.46,5.46,0,0,0-7.46-2,5.63,5.63,0,0,0-1,.75l.39.68a4.21,4.21,0,0,1,1-.78,4.71,4.71,0,0,1,6.91,5.26.18.18,0,0,1-.07.1.14.14,0,0,1-.11,0Z"/><path class="cls-33" d="M444.87,143.43l-.55-1a4.44,4.44,0,0,1-1.11.89,4.56,4.56,0,0,1-6.69-5.08l1.1.3-.73-1.27-.4-.69-.1-.17-2.13,1.23,1.24.33a5.62,5.62,0,0,0,9.37,5.41Z"/><path class="cls-60" d="M440.94,145.18h0a5.75,5.75,0,0,1-5.62-7.05l-1.1-.3a.14.14,0,0,1-.11-.12.16.16,0,0,1,.08-.15l2.12-1.23a.16.16,0,0,1,.21,0l1.21,2.11a.12.12,0,0,1,0,.1.15.15,0,0,1-.15.14h0l-.95-.25a4.35,4.35,0,0,0,.49,3.15,4.42,4.42,0,0,0,7.09.75.12.12,0,0,1,.12,0,.15.15,0,0,1,.12.07l.55.95a.15.15,0,0,1,0,.18,5.3,5.3,0,0,1-1.16.88A5.66,5.66,0,0,1,440.94,145.18Zm-6.29-7.54.89.24a.15.15,0,0,1,.11.18,5.46,5.46,0,0,0,8,6.09,5.36,5.36,0,0,0,1-.75l-.39-.67a4.68,4.68,0,0,1-1,.77,4.71,4.71,0,0,1-6.92-5.25.2.2,0,0,1,.07-.09.17.17,0,0,1,.12,0l.74.2-1-1.69Z"/><path class="cls-61" d="M384.06,11.6h1.4v4.14l4-4.14h1.85l-4.43,4.56,4.71,5.25h-1.8l-4.37-4.9v4.9h-1.4Z"/><path class="cls-61" d="M395.1,14.69a3.34,3.34,0,0,1,3.4,3.43,3.41,3.41,0,1,1-6.81,0A3.34,3.34,0,0,1,395.1,14.69Zm0,5.6a2.08,2.08,0,0,0,2.07-2.17,2.08,2.08,0,1,0-4.15,0A2.08,2.08,0,0,0,395.1,20.29Z"/><path class="cls-61" d="M401.61,14.83v.63a2.81,2.81,0,0,1,1.93-.77,3,3,0,0,1,2.32,1.09,3.32,3.32,0,0,1,2.51-1.09,3,3,0,0,1,2.34,1.1,3.34,3.34,0,0,1,.6,2.26v3.36H410V17.84a1.87,1.87,0,0,0-.38-1.32,1.6,1.6,0,0,0-1.23-.57,2.69,2.69,0,0,0-2,.94,5.43,5.43,0,0,1,.11,1.16v3.36h-1.33V17.84a1.87,1.87,0,0,0-.38-1.32A1.67,1.67,0,0,0,403.5,16a2.49,2.49,0,0,0-1.85.94v4.52h-1.33V14.83Z"/><path class="cls-61" d="M417.26,12.64a2,2,0,0,0-.49-.06,1.28,1.28,0,0,0-1,.47,1.86,1.86,0,0,0-.25,1.17v.61h2V16h-2v5.39h-1.33V16h-1.54V14.83h1.54v-.56a3,3,0,0,1,.42-1.85,2.56,2.56,0,0,1,2.15-1.1,3.39,3.39,0,0,1,.79.1Z"/><path class="cls-61" d="M421.71,14.69a3.33,3.33,0,0,1,3.4,3.43,3.4,3.4,0,1,1-6.8,0A3.33,3.33,0,0,1,421.71,14.69Zm0,5.6a2.07,2.07,0,0,0,2.07-2.17,2.07,2.07,0,1,0-4.14,0A2.07,2.07,0,0,0,421.71,20.29Z"/><path class="cls-61" d="M430.56,16A2,2,0,0,0,430,16a2.2,2.2,0,0,0-1.78,1.1v4.36h-1.33V14.83h1.29v.75a2.4,2.4,0,0,1,2-.89,3.12,3.12,0,0,1,.52,0Z"/><path class="cls-61" d="M436.8,21.41a3.77,3.77,0,0,1-1,.14,2.37,2.37,0,0,1-1.87-.77,2.53,2.53,0,0,1-.53-1.75V16h-1.68V14.83h1.68V13h1.33v1.83h2.1V16h-2.1V19.1a1.27,1.27,0,0,0,.2.84,1.24,1.24,0,0,0,.91.35,3.1,3.1,0,0,0,.73-.09Z"/><line class="cls-62" x1="143.03" y1="15.35" x2="361.98" y2="15.35"/><polygon class="cls-61" points="145.01 18.26 134.17 15.35 145.01 12.45 145.01 18.26"/><line class="cls-63" x1="134.1" y1="9.57" x2="134.1" y2="21.28"/><line class="cls-62" x1="646.21" y1="15.57" x2="457.98" y2="15.57"/><polygon class="cls-61" points="644.23 12.67 655.07 15.57 644.23 18.48 644.23 12.67"/><line class="cls-63" x1="655.13" y1="17.35" x2="655.13" y2="5.65"/><rect class="cls-1" x="6.25" y="3.63" width="636.72" height="152.47"/></g></g></svg>