<svg xmlns="http://www.w3.org/2000/svg" xmlns:xlink="http://www.w3.org/1999/xlink" viewBox="0 0 740 160"><defs><style>.cls-1,.cls-31,.cls-35,.cls-75,.cls-76,.cls-77,.cls-78,.cls-79,.cls-80{fill:none;}.cls-2{fill:#c6c6c5;}.cls-10,.cls-11,.cls-12,.cls-13,.cls-14,.cls-15,.cls-16,.cls-17,.cls-18,.cls-19,.cls-2,.cls-20,.cls-25,.cls-26,.cls-27,.cls-31,.cls-35,.cls-5,.cls-6,.cls-69,.cls-7,.cls-8,.cls-9{stroke:#000;}.cls-10,.cls-11,.cls-12,.cls-13,.cls-14,.cls-15,.cls-16,.cls-17,.cls-18,.cls-19,.cls-2,.cls-20,.cls-23,.cls-25,.cls-26,.cls-27,.cls-3,.cls-31,.cls-35,.cls-5,.cls-6,.cls-69,.cls-7,.cls-75,.cls-76,.cls-77,.cls-78,.cls-79,.cls-8,.cls-80,.cls-9{stroke-miterlimit:10;}.cls-10,.cls-11,.cls-12,.cls-13,.cls-14,.cls-15,.cls-16,.cls-19,.cls-2,.cls-20,.cls-23,.cls-25,.cls-26,.cls-27,.cls-3,.cls-35,.cls-5,.cls-6,.cls-69,.cls-7,.cls-8,.cls-9{stroke-width:0.25px;}.cls-3{fill:#79c8d4;}.cls-23,.cls-3{stroke:#3c3c3b;}.cls-18,.cls-23,.cls-26,.cls-28,.cls-4,.cls-5{fill:#3c3c3b;}.cls-17,.cls-23,.cls-28,.cls-5{fill-rule:evenodd;}.cls-6{fill:#6f6f6e;}.cls-7{fill:url(#Cast_Iron);}.cls-8{fill:url(#Cast_Iron-2);}.cls-9{fill:#60615f;}.cls-10{fill:url(#Cast_Iron-3);}.cls-11{fill:url(#Cast_Iron-4);}.cls-12{fill:url(#Cast_Iron-5);}.cls-13{fill:url(#Cast_Iron-6);}.cls-14{fill:url(#Cast_Iron-7);}.cls-15{fill:url(#Cast_Iron-8);}.cls-16{fill:#b1b1b1;}.cls-17{fill:#f3e20a;}.cls-17,.cls-18{stroke-width:0.15px;}.cls-19{fill:#ececec;}.cls-20{fill:#faca9e;}.cls-21{fill:#c09e7e;}.cls-22{fill:#9c9b9b;}.cls-24{fill:#54acd3;}.cls-25{fill:#e2e1e1;}.cls-27{fill:url(#radial-gradient);}.cls-29{fill:#adacac;}.cls-30{clip-path:url(#clip-path);}.cls-31{stroke-width:0.75px;}.cls-32{fill:#8b8b8b;}.cls-33{fill:#fff;}.cls-34,.cls-69{fill:#ffdb3e;}.cls-36{clip-path:url(#clip-path-4);}.cls-37{clip-path:url(#clip-path-7);}.cls-38{clip-path:url(#clip-path-10);}.cls-39{clip-path:url(#clip-path-13);}.cls-40{clip-path:url(#clip-path-16);}.cls-41{clip-path:url(#clip-path-19);}.cls-42{clip-path:url(#clip-path-22);}.cls-43{clip-path:url(#clip-path-25);}.cls-44{clip-path:url(#clip-path-27);}.cls-45{clip-path:url(#clip-path-29);}.cls-46{clip-path:url(#clip-path-32);}.cls-47{clip-path:url(#clip-path-35);}.cls-48{clip-path:url(#clip-path-38);}.cls-49{clip-path:url(#clip-path-41);}.cls-50{clip-path:url(#clip-path-44);}.cls-51{clip-path:url(#clip-path-47);}.cls-52{clip-path:url(#clip-path-50);}.cls-53{clip-path:url(#clip-path-53);}.cls-54{clip-path:url(#clip-path-55);}.cls-55{clip-path:url(#clip-path-57);}.cls-56{clip-path:url(#clip-path-59);}.cls-57{clip-path:url(#clip-path-61);}.cls-58{clip-path:url(#clip-path-64);}.cls-59{clip-path:url(#clip-path-67);}.cls-60{clip-path:url(#clip-path-70);}.cls-61{clip-path:url(#clip-path-72);}.cls-62{clip-path:url(#clip-path-74);}.cls-63{clip-path:url(#clip-path-76);}.cls-64{clip-path:url(#clip-path-79);}.cls-65{clip-path:url(#clip-path-82);}.cls-66{clip-path:url(#clip-path-85);}.cls-67{clip-path:url(#clip-path-88);}.cls-68{clip-path:url(#clip-path-90);}.cls-70{font-size:9.66px;fill:#ffd500;font-family:MyriadPro-Semibold, Myriad Pro;font-weight:700;}.cls-71{fill:#251a5f;}.cls-72{fill:#ffd421;}.cls-73{fill:#221e20;}.cls-74{fill:#29295d;}.cls-75,.cls-76,.cls-77,.cls-78,.cls-79,.cls-80{stroke:#e53212;}.cls-76{stroke-dasharray:8.84 8.84;}.cls-77{stroke-dasharray:8.84 8.84 8.84 8.84;}.cls-78{stroke-dasharray:4.76 4.76;}.cls-79{stroke-dasharray:4.76 4.76 4.76 4.76;}.cls-80{stroke-dasharray:8 8 8 8;}</style><linearGradient id="Cast_Iron" x1="-2342.29" y1="400.92" x2="-2338.61" y2="400.92" gradientTransform="translate(-388.96 -2285.11) rotate(-90)" gradientUnits="userSpaceOnUse"><stop offset="0.01" stop-color="#909094"/><stop offset="0.53" stop-color="#a3a2a2"/><stop offset="1" stop-color="#5f5e60"/></linearGradient><linearGradient id="Cast_Iron-2" x1="-2343.08" y1="404.54" x2="-2337.88" y2="404.54" xlink:href="#Cast_Iron"/><linearGradient id="Cast_Iron-3" x1="-2391.95" y1="400.89" x2="-2388.27" y2="400.89" xlink:href="#Cast_Iron"/><linearGradient id="Cast_Iron-4" x1="-2392.74" y1="404.51" x2="-2387.54" y2="404.51" xlink:href="#Cast_Iron"/><linearGradient id="Cast_Iron-5" x1="-2342.04" y1="-1535.36" x2="-2338.36" y2="-1535.36" gradientTransform="matrix(0, -1, -1, 0, -811.71, -2285.11)" xlink:href="#Cast_Iron"/><linearGradient id="Cast_Iron-6" x1="-2342.83" y1="-1531.73" x2="-2337.63" y2="-1531.73" gradientTransform="matrix(0, -1, -1, 0, -811.71, -2285.11)" xlink:href="#Cast_Iron"/><linearGradient id="Cast_Iron-7" x1="-2391.7" y1="-1535.39" x2="-2388.02" y2="-1535.39" gradientTransform="matrix(0, -1, -1, 0, -811.71, -2285.11)" xlink:href="#Cast_Iron"/><linearGradient id="Cast_Iron-8" x1="-2392.49" y1="-1531.76" x2="-2387.29" y2="-1531.76" gradientTransform="matrix(0, -1, -1, 0, -811.71, -2285.11)" xlink:href="#Cast_Iron"/><radialGradient id="radial-gradient" cx="-795.73" cy="724.79" r="5.28" gradientTransform="matrix(0.77, -0.64, 0.64, 0.77, 263.74, -957.84)" gradientUnits="userSpaceOnUse"><stop offset="0" stop-color="#575757"/><stop offset="0.51" stop-color="#999ba4"/><stop offset="0.93" stop-color="#fff"/></radialGradient><clipPath id="clip-path"><rect class="cls-1" x="628.34" y="42.06" width="25.85" height="29.86"/></clipPath><clipPath id="clip-path-4"><rect class="cls-1" x="602.34" y="42" width="25.85" height="29.86"/></clipPath><clipPath id="clip-path-7"><rect class="cls-1" x="575.9" y="41.92" width="25.85" height="29.86"/></clipPath><clipPath id="clip-path-10"><rect class="cls-1" x="549.44" y="41.84" width="25.85" height="29.86"/></clipPath><clipPath id="clip-path-13"><rect class="cls-1" x="522.86" y="41.76" width="25.85" height="29.86"/></clipPath><clipPath id="clip-path-16"><rect class="cls-1" x="496.73" y="41.68" width="25.85" height="29.86"/></clipPath><clipPath id="clip-path-19"><rect class="cls-1" x="470.31" y="41.84" width="25.85" height="29.86"/></clipPath><clipPath id="clip-path-22"><rect class="cls-1" x="443.85" y="41.84" width="25.85" height="29.86"/></clipPath><clipPath id="clip-path-25"><rect class="cls-1" x="417.4" y="41.76" width="25.85" height="29.86"/></clipPath><clipPath id="clip-path-27"><rect class="cls-1" x="384.51" y="41.79" width="25.85" height="29.86"/></clipPath><clipPath id="clip-path-29"><rect class="cls-1" x="628.31" y="88.79" width="25.85" height="29.86"/></clipPath><clipPath id="clip-path-32"><rect class="cls-1" x="602.31" y="88.73" width="25.85" height="29.86"/></clipPath><clipPath id="clip-path-35"><rect class="cls-1" x="575.88" y="88.65" width="25.85" height="29.86"/></clipPath><clipPath id="clip-path-38"><rect class="cls-1" x="549.42" y="88.57" width="25.85" height="29.86"/></clipPath><clipPath id="clip-path-41"><rect class="cls-1" x="522.83" y="88.49" width="25.85" height="29.86"/></clipPath><clipPath id="clip-path-44"><rect class="cls-1" x="496.7" y="88.41" width="25.85" height="29.86"/></clipPath><clipPath id="clip-path-47"><rect class="cls-1" x="470.29" y="88.57" width="25.85" height="29.86"/></clipPath><clipPath id="clip-path-50"><rect class="cls-1" x="443.82" y="88.57" width="25.85" height="29.86"/></clipPath><clipPath id="clip-path-53"><rect class="cls-1" x="417.38" y="88.49" width="25.85" height="29.86"/></clipPath><clipPath id="clip-path-55"><rect class="cls-1" x="384.48" y="88.52" width="25.85" height="29.86"/></clipPath><clipPath id="clip-path-57"><rect class="cls-1" x="160.29" y="41.92" width="25.85" height="29.86"/></clipPath><clipPath id="clip-path-59"><rect class="cls-1" x="186.88" y="41.84" width="25.85" height="29.86"/></clipPath><clipPath id="clip-path-61"><rect class="cls-1" x="213.01" y="41.76" width="25.85" height="29.86"/></clipPath><clipPath id="clip-path-64"><rect class="cls-1" x="239.42" y="41.92" width="25.85" height="29.86"/></clipPath><clipPath id="clip-path-67"><rect class="cls-1" x="265.89" y="41.92" width="25.85" height="29.86"/></clipPath><clipPath id="clip-path-70"><rect class="cls-1" x="292.34" y="41.84" width="25.85" height="29.86"/></clipPath><clipPath id="clip-path-72"><rect class="cls-1" x="327.23" y="41.87" width="25.85" height="29.86"/></clipPath><clipPath id="clip-path-74"><rect class="cls-1" x="160.32" y="88.65" width="25.85" height="29.86"/></clipPath><clipPath id="clip-path-76"><rect class="cls-1" x="186.9" y="88.57" width="25.85" height="29.86"/></clipPath><clipPath id="clip-path-79"><rect class="cls-1" x="213.03" y="88.49" width="25.85" height="29.86"/></clipPath><clipPath id="clip-path-82"><rect class="cls-1" x="239.45" y="88.65" width="25.85" height="29.86"/></clipPath><clipPath id="clip-path-85"><rect class="cls-1" x="265.91" y="88.65" width="25.85" height="29.86"/></clipPath><clipPath id="clip-path-88"><rect class="cls-1" x="292.36" y="88.57" width="25.85" height="29.86"/></clipPath><clipPath id="clip-path-90"><rect class="cls-1" x="327.25" y="88.6" width="25.85" height="29.86"/></clipPath></defs><title>Type5_B5-5</title><g id="vogn_3" data-name="vogn 3"><g id="VOGNKASSE-3" data-name="VOGNKASSE"><rect id="GULVFARGE" class="cls-2" x="27.38" y="36.2" width="680.6" height="87.92"/><rect class="cls-3" x="55.27" y="36.17" width="624.57" height="3.12"/><rect class="cls-4" x="54.81" y="36.18" width="110.11" height="3.12"/><rect class="cls-4" x="188.92" y="36.2" width="13.77" height="3.12"/><rect class="cls-4" x="238.11" y="36.17" width="13.77" height="3.12"/><rect class="cls-4" x="287.08" y="36.18" width="13.77" height="3.12"/><rect class="cls-4" x="336.39" y="36.12" width="62.71" height="3.12"/><rect class="cls-4" x="434.33" y="36.18" width="13.77" height="3.12"/><rect class="cls-4" x="483.52" y="36.12" width="13.77" height="3.12"/><rect class="cls-4" x="532.65" y="36.18" width="13.77" height="3.12"/><rect class="cls-4" x="581.83" y="36.12" width="13.77" height="3.12"/><rect class="cls-4" x="631.02" y="36.12" width="49.2" height="3.12"/><rect class="cls-3" x="55.55" y="121.01" width="623.86" height="3.12"/><rect class="cls-4" x="54.86" y="121.02" width="110.11" height="3.12"/><rect class="cls-4" x="188.97" y="121.04" width="13.77" height="3.12"/><rect class="cls-4" x="238.15" y="121.01" width="13.77" height="3.12"/><rect class="cls-4" x="287.12" y="121.02" width="13.77" height="3.12"/><rect class="cls-4" x="336.44" y="120.96" width="62.71" height="3.12"/><rect class="cls-4" x="434.38" y="121.02" width="13.77" height="3.12"/><rect class="cls-4" x="483.57" y="120.96" width="13.77" height="3.12"/><rect class="cls-4" x="532.69" y="121.02" width="13.77" height="3.12"/><rect class="cls-4" x="581.88" y="120.96" width="13.77" height="3.12"/><rect class="cls-4" x="631.07" y="120.96" width="49.14" height="3.12"/><path class="cls-5" d="M18.7,37.75h0c-1.38.26-2.51.75-2.7,2.78V63.16H27.2v-27Z"/><path class="cls-5" d="M18.77,122.57h0c-1.39-.27-2.52-.76-2.7-2.79V97.15H27.27v27Z"/><path class="cls-5" d="M716.73,37.75h0c1.39.26,2.51.75,2.7,2.78V63.16h-11.2v-27Z"/><path class="cls-5" d="M716.67,122.57h0c1.38-.27,2.51-.76,2.7-2.79V97.15h-11.2v27Z"/><polygon class="cls-6" points="17.46 63.19 17.46 63.22 15.5 65.18 12.04 65.18 8.38 68.85 8.38 80.4 8.38 80.41 8.38 91.96 12.04 95.62 15.5 95.62 17.46 97.59 17.46 97.61 27.18 97.61 27.18 80.41 27.18 80.4 27.18 63.19 17.46 63.19"/><rect class="cls-7" x="8.7" y="53.51" width="6.51" height="3.68"/><rect class="cls-8" x="15.11" y="52.78" width="0.95" height="5.2"/><path class="cls-9" d="M8.66,59V51.61h-1l0,.14c-.66,1.25-.54,6.08,0,7.19l0,.11h1V59h0"/><rect class="cls-10" x="8.67" y="103.16" width="6.51" height="3.68"/><rect class="cls-11" x="15.08" y="102.43" width="0.95" height="5.2"/><path class="cls-9" d="M8.63,108.61v-7.34h-1l0,.14c-.66,1.25-.54,6.08,0,7.18l0,.12h1v-.1h0"/><polygon class="cls-6" points="717.88 62.95 717.88 62.97 719.84 64.94 723.29 64.94 726.96 68.6 726.96 80.15 726.96 80.16 726.96 91.71 723.29 95.38 719.84 95.38 717.88 97.34 717.88 97.37 708.15 97.37 708.15 80.16 708.15 80.15 708.15 62.95 717.88 62.95"/><rect class="cls-12" x="720.39" y="53.26" width="6.51" height="3.68"/><rect class="cls-13" x="719.54" y="52.53" width="0.95" height="5.2"/><path class="cls-9" d="M726.94,58.7V51.37h1l.05.13c.66,1.25.54,6.08,0,7.19l0,.11h-1v-.1h0"/><rect class="cls-14" x="720.42" y="102.92" width="6.51" height="3.68"/><rect class="cls-15" x="719.57" y="102.19" width="0.95" height="5.2"/><path class="cls-9" d="M727,108.36V101h1l.06.14c.65,1.25.53,6.08,0,7.19l0,.11h-1v-.1h0"/><rect class="cls-16" x="680.18" y="105.63" width="24.21" height="18.45"/><rect class="cls-16" x="680.18" y="111.3" width="24.21" height="6.52"/><rect class="cls-16" x="680.15" y="36.21" width="24.21" height="18.45"/><rect class="cls-16" x="680.15" y="41.88" width="24.21" height="6.52"/><rect class="cls-16" x="30.58" y="105.63" width="24.21" height="18.45"/><rect class="cls-16" x="30.58" y="111.3" width="24.21" height="6.52"/><rect class="cls-16" x="30.55" y="36.21" width="24.21" height="18.45"/><rect class="cls-16" x="30.55" y="41.87" width="24.21" height="6.52"/><polygon class="cls-17" points="705.2 105.76 704.54 105.76 704.54 103.03 704.13 103.03 704.13 103.11 702.72 103.11 702.72 103.53 704.13 103.53 704.13 108.85 704.54 108.85 704.54 106.09 705.2 106.09 705.2 105.76"/><rect class="cls-18" x="650.71" y="34.02" width="29.91" height="1.21"/><rect class="cls-18" x="650.79" y="125.11" width="29.91" height="1.21"/><rect class="cls-18" x="54.72" y="34.07" width="29.91" height="1.21"/><rect class="cls-18" x="54.8" y="125.15" width="29.92" height="1.21"/></g><g id="INNREDNING-3" data-name="INNREDNING"><path class="cls-6" d="M62.19,99.42h0a5.69,5.69,0,0,0-5.69,5.69,1.48,1.48,0,0,0,0,.21h0v15.52H77.21V99.42Z"/><path class="cls-6" d="M663.24,99.42h0a5.69,5.69,0,0,0-5.69,5.69c0,.07,0,.14,0,.21h0v15.52h20.78V99.42Z"/><rect class="cls-19" x="655.29" y="39.42" width="22.69" height="22.81"/><rect class="cls-19" x="136.08" y="97.59" width="22.69" height="22.82"/><rect class="cls-19" x="135.88" y="39.84" width="20.01" height="19.09"/><polygon class="cls-6" points="133.03 39.37 56.87 39.37 56.87 48.15 106.55 48.15 133.03 58.84 133.03 39.37"/><path class="cls-20" d="M321,120.81h-4.38A50,50,0,0,1,319,105h0a1.12,1.12,0,0,1,.93-.73h0a14,14,0,0,1,2-.25h0q.42,0,.87,0a15.11,15.11,0,0,1,2.65.22v0a1.12,1.12,0,0,1,.95.78h0a50,50,0,0,1,2.38,15.83Z"/><path class="cls-21" d="M322.09,119.3a1.06,1.06,0,0,0-2.11,0,1.06,1.06,0,1,0,2.11,0Z"/><path class="cls-21" d="M325.51,119.32a1.06,1.06,0,1,0-1.06,1.06A1.05,1.05,0,0,0,325.51,119.32Z"/><path class="cls-21" d="M322.44,106.69a1.06,1.06,0,1,0-1.05,1A1.05,1.05,0,0,0,322.44,106.69Z"/><path class="cls-21" d="M325.27,106.66a1.06,1.06,0,1,0-1,1A1.06,1.06,0,0,0,325.27,106.66Z"/><path class="cls-20" d="M320.93,39.55h-4.39a50.31,50.31,0,0,0,2.39,15.83h0a1.13,1.13,0,0,0,.93.73h0a14,14,0,0,0,2,.25h0c.28,0,.57,0,.87,0a14.2,14.2,0,0,0,2.65-.22h0a1.13,1.13,0,0,0,.95-.78h0a49.78,49.78,0,0,0,2.39-15.83Z"/><path class="cls-21" d="M322,41.06A1.06,1.06,0,1,1,321,40,1,1,0,0,1,322,41.06Z"/><path class="cls-21" d="M325.43,41a1.06,1.06,0,1,1-2.11,0,1.06,1.06,0,0,1,2.11,0Z"/><path class="cls-21" d="M322.36,53.67a1.06,1.06,0,1,1-2.11,0,1.06,1.06,0,0,1,2.11,0Z"/><path class="cls-21" d="M325.19,53.7a1.06,1.06,0,0,1-2.11,0,1.06,1.06,0,1,1,2.11,0Z"/><path class="cls-20" d="M411.93,39.55h-4.38a50,50,0,0,0,2.38,15.83h0a1.14,1.14,0,0,0,.93.73h0a14,14,0,0,0,2,.25h0c.28,0,.57,0,.87,0a14.2,14.2,0,0,0,2.65-.22h0a1.12,1.12,0,0,0,.95-.78h0a49.78,49.78,0,0,0,2.39-15.83Z"/><path class="cls-21" d="M413,41.06a1.06,1.06,0,0,1-2.11,0,1.06,1.06,0,1,1,2.11,0Z"/><path class="cls-21" d="M416.43,41A1.06,1.06,0,1,1,415.37,40,1.05,1.05,0,0,1,416.43,41Z"/><path class="cls-21" d="M413.36,53.67a1.06,1.06,0,1,1-1.05-1.05A1.06,1.06,0,0,1,413.36,53.67Z"/><path class="cls-21" d="M416.19,53.7a1.06,1.06,0,0,1-2.11,0,1.06,1.06,0,1,1,2.11,0Z"/><path class="cls-20" d="M412,120.81h-4.39A50,50,0,0,1,410,105h0a1.1,1.1,0,0,1,.92-.73h0a14,14,0,0,1,2-.25h0c.28,0,.56,0,.86,0a15.11,15.11,0,0,1,2.65.22v0a1.12,1.12,0,0,1,.95.78h0a50,50,0,0,1,2.38,15.83Z"/><path class="cls-21" d="M413.1,119.3a1.06,1.06,0,1,0-1.06,1.06A1.06,1.06,0,0,0,413.1,119.3Z"/><path class="cls-21" d="M416.51,119.32a1.06,1.06,0,1,0-1.05,1.06A1,1,0,0,0,416.51,119.32Z"/><path class="cls-21" d="M413.44,106.69a1.06,1.06,0,1,0-1.05,1A1.05,1.05,0,0,0,413.44,106.69Z"/><path class="cls-21" d="M416.28,106.66a1.06,1.06,0,1,0-2.11,0,1.06,1.06,0,0,0,2.11,0Z"/><rect class="cls-6" x="354.51" y="39.63" width="28.35" height="28.35"/><rect class="cls-22" x="355.24" y="49.51" width="13.57" height="18.3"/><rect class="cls-22" x="369.34" y="49.51" width="12.69" height="18.3"/><rect class="cls-6" x="354.4" y="92.73" width="28.35" height="28.35"/><rect class="cls-22" x="355.13" y="92.9" width="13.57" height="18.3"/><rect class="cls-22" x="369.23" y="92.9" width="12.69" height="18.3"/><rect class="cls-4" x="133.79" y="71.73" width="1.06" height="13.48"/><rect class="cls-4" x="133.86" y="58.04" width="1.06" height="13.48"/><rect class="cls-4" x="680.26" y="80.03" width="1.06" height="13.48"/><rect class="cls-4" x="680.33" y="66.34" width="1.06" height="13.48"/><rect class="cls-4" x="678.86" y="39.42" width="1.19" height="27.38"/><rect class="cls-4" x="678.88" y="93.52" width="1.19" height="27.38"/><rect class="cls-4" x="706.13" y="80.27" width="1.06" height="12.59"/><rect class="cls-4" x="706.13" y="67.56" width="1.06" height="12.47"/><polygon class="cls-23" points="706.21 36.16 706.21 55.08 707.33 55.08 707.33 67.39 708.76 67.39 708.76 36.16 706.21 36.16"/><polygon class="cls-23" points="706.26 124.14 706.26 105.22 707.37 105.22 707.37 92.91 708.8 92.91 708.8 124.14 706.26 124.14"/><rect class="cls-4" x="30.01" y="80.32" width="1.06" height="12.59"/><rect class="cls-4" x="30.01" y="67.61" width="1.06" height="12.47"/><polygon class="cls-23" points="30.98 36.21 30.98 55.13 29.86 55.13 29.86 67.44 28.43 67.44 28.43 36.21 30.98 36.21"/><polygon class="cls-23" points="30.93 124.19 30.93 105.27 29.82 105.27 29.82 92.96 28.39 92.96 28.39 124.19 30.93 124.19"/><path class="cls-24" d="M116.64,81.31c-.4-.37-.83-.72-1.26-1l-.63-.53,0,0A22.79,22.79,0,0,0,80,106.36l.68-.69h0l0,0a1.44,1.44,0,0,1,2,0h0l2,2,.71.71,5.9,5.9H111a16.65,16.65,0,0,1,16-12.21c.47,0,.93,0,1.39.07l2-9.22Z"/><line class="cls-25" x1="122.17" y1="89.43" x2="116.94" y2="85.05"/><path class="cls-25" d="M115.62,83.36l0,0L112,87.61s0,0,0,0c-2.53,3-2.7,7.08-.37,9s6.31,1.08,8.87-2c0,0,0,0,0,0l1.58-1.88h0l3.28-3.9-8.47-7.11Z"/><path class="cls-25" d="M117,85.06a7.93,7.93,0,0,0-4.65,2.8c-2.42,2.89-2.62,6.72-.43,8.56s5.93,1,8.36-1.91a7.92,7.92,0,0,0,1.94-5.06Z"/><path class="cls-26" d="M132,85.05l-21-8.56A23.48,23.48,0,0,0,81,86H78.2a1.35,1.35,0,0,0-1.34,1.11v1.12h4.32a21.86,21.86,0,0,1,20.09-13,22.23,22.23,0,0,1,9.66,2.19l21.21,8.77V85.05Z"/><path class="cls-6" d="M133.29,97.6V84.85h-.18l-21.92-9.19c-.42-.19-.84-.37-1.27-.54L109.34,77a22.11,22.11,0,0,1,5.45,2.91l0,0,.62.52c.43.33.85.68,1.25,1l13.63,11.43L128.38,102c-.46,0-.91-.07-1.38-.07A16.49,16.49,0,0,0,111.12,114H91.67l-5.83-5.83-.71-.71-1.95-1.95h0a1.43,1.43,0,0,0-2,0,.08.08,0,0,1,0,0h0l-.68.67a22.55,22.55,0,0,1,4.8-23.72l-1.75-1.58a24.58,24.58,0,0,0-3.64,5H76.92a1.42,1.42,0,0,0-1.4,1.19V99.31H61.81A5.69,5.69,0,0,0,56.12,105c0,.07,0,.14,0,.21h0v15.52H76.89v0h56.43V97.6Z"/><path class="cls-27" d="M124.81,104.9c1.51,1.8.63,5-2,7.2s-5.93,2.49-7.44.7-.63-5,2-7.21S123.3,103.1,124.81,104.9Z"/><polygon class="cls-28" points="135.03 97.99 133.6 97.99 133.6 84.54 132.56 84.54 132.56 121.12 135.88 121.12 135.88 84.54 135.03 84.54 135.03 97.99"/><polygon class="cls-28" points="132.57 39.38 132.57 59.03 133.61 59.03 133.61 45.58 135.04 45.58 135.04 59.03 135.89 59.03 135.89 39.38 132.57 39.38"/></g><g id="SETER-2" data-name="SETER"><polygon class="cls-29" points="634.01 58.22 634.01 71.54 651.35 71.54 653.81 69.08 653.81 60.66 651.36 58.22 634.01 58.22"/><g class="cls-30"><polygon class="cls-31" points="653.81 69.08 653.81 60.66 651.36 58.22 634.01 58.22 634.01 71.54 651.35 71.54 653.81 69.08"/></g><polygon class="cls-32" points="647.28 58.66 649.55 60.99 649.56 60.99 649.56 68.8 649.55 68.8 647.28 71.13 648.97 71.13 651.22 68.83 651.25 68.83 651.25 60.99 651.24 60.99 648.97 58.66 647.28 58.66"/><rect class="cls-33" x="651.42" y="61.64" width="1.98" height="6.51"/><polygon class="cls-29" points="634 42.44 634 55.76 651.34 55.76 653.8 53.3 653.8 44.88 651.36 42.44 634 42.44"/><g class="cls-30"><polygon class="cls-31" points="653.8 53.3 653.8 44.88 651.36 42.44 634 42.44 634 55.76 651.34 55.76 653.8 53.3"/></g><polygon class="cls-32" points="647.27 42.87 649.54 45.2 649.55 45.2 649.55 53.02 649.54 53.02 647.27 55.35 648.96 55.35 651.21 53.04 651.24 53.04 651.24 45.2 651.23 45.2 648.96 42.87 647.27 42.87"/><rect class="cls-33" x="651.41" y="45.86" width="1.98" height="6.51"/><g class="cls-30"><path class="cls-34" d="M633.06,61.7a7.06,7.06,0,0,1-1.38-6.24l1.38.64V49.77L628.56,54l1.43.67a8.88,8.88,0,0,0,3.07,9.49Z"/><path class="cls-35" d="M633.06,61.7a7.06,7.06,0,0,1-1.38-6.24l1.38.64V49.77L628.56,54l1.43.67a8.88,8.88,0,0,0,3.07,9.49Z"/></g><polygon class="cls-29" points="608.01 58.16 608.01 71.48 625.35 71.48 627.81 69.02 627.81 60.61 625.36 58.16 608.01 58.16"/><g class="cls-36"><polygon class="cls-31" points="627.81 69.02 627.81 60.61 625.36 58.16 608.01 58.16 608.01 71.48 625.35 71.48 627.81 69.02"/></g><polygon class="cls-32" points="621.28 58.6 623.55 60.93 623.56 60.93 623.56 68.75 623.55 68.75 621.28 71.07 622.97 71.07 625.22 68.77 625.25 68.77 625.25 60.93 625.24 60.93 622.97 58.6 621.28 58.6"/><rect class="cls-33" x="625.42" y="61.58" width="1.98" height="6.51"/><polygon class="cls-29" points="608 42.38 608 55.7 625.34 55.7 627.8 53.24 627.8 44.82 625.36 42.38 608 42.38"/><g class="cls-36"><polygon class="cls-31" points="627.8 53.24 627.8 44.82 625.36 42.38 608 42.38 608 55.7 625.34 55.7 627.8 53.24"/></g><polygon class="cls-32" points="621.27 42.82 623.54 45.15 623.55 45.15 623.55 52.96 623.54 52.96 621.27 55.29 622.96 55.29 625.21 52.98 625.24 52.98 625.24 45.15 625.23 45.15 622.96 42.82 621.27 42.82"/><rect class="cls-33" x="625.41" y="45.8" width="1.98" height="6.51"/><g class="cls-36"><path class="cls-34" d="M607.06,61.64a7.06,7.06,0,0,1-1.38-6.24l1.38.64V49.71l-4.5,4.23,1.43.67a8.89,8.89,0,0,0,3.07,9.5Z"/><path class="cls-35" d="M607.06,61.64a7.06,7.06,0,0,1-1.38-6.24l1.38.64V49.71l-4.5,4.23,1.43.67a8.89,8.89,0,0,0,3.07,9.5Z"/></g><polygon class="cls-29" points="581.58 58.08 581.58 71.4 598.91 71.4 601.37 68.94 601.37 60.53 598.93 58.08 581.58 58.08"/><g class="cls-37"><polygon class="cls-31" points="601.37 68.94 601.37 60.53 598.93 58.08 581.58 58.08 581.58 71.4 598.91 71.4 601.37 68.94"/></g><polygon class="cls-32" points="594.85 58.52 597.12 60.85 597.13 60.85 597.13 68.67 597.12 68.67 594.85 70.99 596.53 70.99 598.79 68.69 598.82 68.69 598.82 60.85 598.81 60.85 596.53 58.52 594.85 58.52"/><rect class="cls-33" x="598.98" y="61.5" width="1.98" height="6.51"/><polygon class="cls-29" points="581.57 42.3 581.57 55.62 598.9 55.62 601.37 53.16 601.37 44.74 598.92 42.3 581.57 42.3"/><g class="cls-37"><polygon class="cls-31" points="601.37 53.16 601.37 44.74 598.92 42.3 581.57 42.3 581.57 55.62 598.9 55.62 601.37 53.16"/></g><polygon class="cls-32" points="594.84 42.74 597.11 45.06 597.12 45.06 597.12 52.88 597.11 52.88 594.84 55.21 596.52 55.21 598.78 52.9 598.81 52.9 598.81 45.06 598.8 45.06 596.52 42.74 594.84 42.74"/><rect class="cls-33" x="598.98" y="45.72" width="1.98" height="6.51"/><g class="cls-37"><path class="cls-34" d="M580.63,61.56a7.06,7.06,0,0,1-1.38-6.24l1.38.64V49.63l-4.51,4.23,1.44.67A8.88,8.88,0,0,0,580.63,64Z"/><path class="cls-35" d="M580.63,61.56a7.06,7.06,0,0,1-1.38-6.24l1.38.64V49.63l-4.51,4.23,1.44.67A8.88,8.88,0,0,0,580.63,64Z"/></g><polygon class="cls-29" points="555.12 58 555.12 71.32 572.45 71.32 574.91 68.86 574.91 60.45 572.47 58 555.12 58"/><g class="cls-38"><polygon class="cls-31" points="574.91 68.86 574.91 60.45 572.47 58 555.12 58 555.12 71.32 572.45 71.32 574.91 68.86"/></g><polygon class="cls-32" points="568.39 58.44 570.66 60.77 570.67 60.77 570.67 68.58 570.66 68.58 568.39 70.91 570.07 70.91 572.33 68.61 572.36 68.61 572.36 60.77 572.35 60.77 570.07 58.44 568.39 58.44"/><rect class="cls-33" x="572.53" y="61.42" width="1.98" height="6.51"/><polygon class="cls-29" points="555.11 42.22 555.11 55.54 572.45 55.54 574.91 53.08 574.91 44.66 572.46 42.22 555.11 42.22"/><g class="cls-38"><polygon class="cls-31" points="574.91 53.08 574.91 44.66 572.47 42.22 555.11 42.22 555.11 55.54 572.45 55.54 574.91 53.08"/></g><polygon class="cls-32" points="568.38 42.66 570.65 44.98 570.66 44.98 570.66 52.8 570.65 52.8 568.38 55.13 570.07 55.13 572.32 52.82 572.35 52.82 572.35 44.98 572.34 44.98 570.07 42.66 568.38 42.66"/><rect class="cls-33" x="572.52" y="45.64" width="1.98" height="6.51"/><g class="cls-38"><path class="cls-34" d="M554.17,61.48a7.06,7.06,0,0,1-1.38-6.24l1.38.64V49.55l-4.51,4.23,1.44.67a8.88,8.88,0,0,0,3.07,9.49Z"/><path class="cls-35" d="M554.17,61.48a7.06,7.06,0,0,1-1.38-6.24l1.38.64V49.55l-4.51,4.23,1.44.67a8.88,8.88,0,0,0,3.07,9.49Z"/></g><polygon class="cls-29" points="528.53 57.92 528.53 71.24 545.87 71.24 548.33 68.78 548.33 60.37 545.88 57.92 528.53 57.92"/><g class="cls-39"><polygon class="cls-31" points="548.33 68.78 548.33 60.37 545.88 57.92 528.53 57.92 528.53 71.24 545.87 71.24 548.33 68.78"/></g><polygon class="cls-32" points="541.8 58.36 544.07 60.69 544.08 60.69 544.08 68.5 544.07 68.5 541.8 70.83 543.49 70.83 545.74 68.53 545.77 68.53 545.77 60.69 545.76 60.69 543.49 58.36 541.8 58.36"/><rect class="cls-33" x="545.94" y="61.34" width="1.98" height="6.51"/><polygon class="cls-29" points="528.52 42.14 528.52 55.46 545.86 55.46 548.32 53 548.32 44.58 545.88 42.14 528.52 42.14"/><g class="cls-39"><polygon class="cls-31" points="548.32 53 548.32 44.58 545.88 42.14 528.52 42.14 528.52 55.46 545.86 55.46 548.32 53"/></g><polygon class="cls-32" points="541.79 42.58 544.07 44.9 544.07 44.9 544.07 52.72 544.07 52.72 541.79 55.05 543.48 55.05 545.73 52.74 545.76 52.74 545.76 44.9 545.76 44.9 543.48 42.58 541.79 42.58"/><rect class="cls-33" x="545.93" y="45.56" width="1.98" height="6.51"/><g class="cls-39"><path class="cls-34" d="M527.58,61.4a7.05,7.05,0,0,1-1.37-6.24l1.37.64V49.47l-4.5,4.23,1.43.67a8.89,8.89,0,0,0,3.07,9.49Z"/><path class="cls-35" d="M527.58,61.4a7.05,7.05,0,0,1-1.37-6.24l1.37.64V49.47l-4.5,4.23,1.43.67a8.89,8.89,0,0,0,3.07,9.49Z"/></g><polygon class="cls-29" points="502.4 57.84 502.4 71.17 519.74 71.17 522.2 68.7 522.2 60.29 519.76 57.84 502.4 57.84"/><g class="cls-40"><polygon class="cls-31" points="522.2 68.7 522.2 60.29 519.76 57.84 502.4 57.84 502.4 71.17 519.74 71.17 522.2 68.7"/></g><polygon class="cls-32" points="515.67 58.28 517.95 60.61 517.95 60.61 517.95 68.43 517.95 68.43 515.67 70.75 517.36 70.75 519.61 68.45 519.64 68.45 519.64 60.61 519.63 60.61 517.36 58.28 515.67 58.28"/><rect class="cls-33" x="519.81" y="61.26" width="1.98" height="6.51"/><polygon class="cls-29" points="502.4 42.06 502.4 55.38 519.73 55.38 522.19 52.92 522.19 44.5 519.75 42.06 502.4 42.06"/><g class="cls-40"><polygon class="cls-31" points="522.19 52.92 522.19 44.5 519.75 42.06 502.4 42.06 502.4 55.38 519.73 55.38 522.19 52.92"/></g><polygon class="cls-32" points="515.66 42.5 517.94 44.83 517.94 44.83 517.94 52.64 517.94 52.64 515.66 54.97 517.35 54.97 519.61 52.66 519.63 52.66 519.63 44.83 519.63 44.83 517.35 42.5 515.66 42.5"/><rect class="cls-33" x="519.8" y="45.48" width="1.98" height="6.51"/><g class="cls-40"><path class="cls-34" d="M501.45,61.32a7.05,7.05,0,0,1-1.37-6.24l1.37.64V49.39L497,53.62l1.43.67a8.91,8.91,0,0,0,3.07,9.5Z"/><path class="cls-35" d="M501.45,61.32a7.05,7.05,0,0,1-1.37-6.24l1.37.64V49.39L497,53.62l1.43.67a8.91,8.91,0,0,0,3.07,9.5Z"/></g><polygon class="cls-29" points="475.99 58 475.99 71.32 493.32 71.32 495.78 68.86 495.78 60.45 493.34 58 475.99 58"/><g class="cls-41"><polygon class="cls-31" points="495.78 68.86 495.78 60.45 493.34 58 475.99 58 475.99 71.32 493.32 71.32 495.78 68.86"/></g><polygon class="cls-32" points="489.26 58.44 491.53 60.77 491.54 60.77 491.54 68.58 491.53 68.58 489.26 70.91 490.94 70.91 493.2 68.61 493.23 68.61 493.23 60.77 493.22 60.77 490.94 58.44 489.26 58.44"/><rect class="cls-33" x="493.39" y="61.42" width="1.98" height="6.51"/><polygon class="cls-29" points="475.98 42.22 475.98 55.54 493.31 55.54 495.78 53.08 495.78 44.66 493.33 42.22 475.98 42.22"/><g class="cls-41"><polygon class="cls-31" points="495.77 53.08 495.77 44.66 493.33 42.22 475.98 42.22 475.98 55.54 493.31 55.54 495.77 53.08"/></g><polygon class="cls-32" points="489.25 42.66 491.52 44.98 491.53 44.98 491.53 52.8 491.52 52.8 489.25 55.13 490.94 55.13 493.19 52.82 493.22 52.82 493.22 44.98 493.21 44.98 490.94 42.66 489.25 42.66"/><rect class="cls-33" x="493.39" y="45.64" width="1.98" height="6.51"/><g class="cls-41"><path class="cls-34" d="M475,61.48a7.06,7.06,0,0,1-1.38-6.24l1.38.64V49.55l-4.51,4.23,1.44.67A8.88,8.88,0,0,0,475,63.94Z"/><path class="cls-35" d="M475,61.48a7.06,7.06,0,0,1-1.38-6.24l1.38.64V49.55l-4.51,4.23,1.44.67A8.88,8.88,0,0,0,475,63.94Z"/></g><polygon class="cls-29" points="449.52 58 449.52 71.32 466.86 71.32 469.32 68.86 469.32 60.45 466.88 58 449.52 58"/><g class="cls-42"><polygon class="cls-31" points="469.32 68.86 469.32 60.45 466.88 58 449.52 58 449.52 71.32 466.86 71.32 469.32 68.86"/></g><polygon class="cls-32" points="462.79 58.44 465.06 60.77 465.07 60.77 465.07 68.58 465.06 68.58 462.79 70.91 464.48 70.91 466.73 68.61 466.76 68.61 466.76 60.77 466.75 60.77 464.48 58.44 462.79 58.44"/><rect class="cls-33" x="466.93" y="61.42" width="1.98" height="6.51"/><polygon class="cls-29" points="449.52 42.22 449.52 55.54 466.85 55.54 469.31 53.08 469.31 44.66 466.87 42.22 449.52 42.22"/><g class="cls-42"><polygon class="cls-31" points="469.31 53.08 469.31 44.66 466.87 42.22 449.52 42.22 449.52 55.54 466.85 55.54 469.31 53.08"/></g><polygon class="cls-32" points="462.78 42.66 465.06 44.98 465.06 44.98 465.06 52.8 465.06 52.8 462.78 55.13 464.47 55.13 466.73 52.82 466.75 52.82 466.75 44.98 466.75 44.98 464.47 42.66 462.78 42.66"/><rect class="cls-33" x="466.92" y="45.64" width="1.98" height="6.51"/><g class="cls-42"><path class="cls-34" d="M448.57,61.48a7.05,7.05,0,0,1-1.37-6.24l1.37.64V49.55l-4.5,4.23,1.43.67a8.89,8.89,0,0,0,3.07,9.49Z"/><path class="cls-35" d="M448.57,61.48a7.05,7.05,0,0,1-1.37-6.24l1.37.64V49.55l-4.5,4.23,1.43.67a8.89,8.89,0,0,0,3.07,9.49Z"/></g><polygon class="cls-29" points="423.08 57.92 423.08 71.24 440.41 71.24 442.87 68.78 442.87 60.37 440.43 57.92 423.08 57.92"/><g class="cls-43"><polygon class="cls-31" points="442.87 68.78 442.87 60.37 440.43 57.92 423.08 57.92 423.08 71.24 440.41 71.24 442.87 68.78"/></g><polygon class="cls-32" points="436.35 58.36 438.62 60.69 438.62 60.69 438.62 68.5 438.62 68.5 436.35 70.83 438.03 70.83 440.29 68.53 440.31 68.53 440.31 60.69 440.31 60.69 438.03 58.36 436.35 58.36"/><rect class="cls-33" x="440.48" y="61.34" width="1.98" height="6.51"/><polygon class="cls-29" points="423.07 42.14 423.07 55.46 440.4 55.46 442.87 53 442.87 44.58 440.42 42.14 423.07 42.14"/><g class="cls-43"><polygon class="cls-31" points="442.86 53 442.86 44.58 440.42 42.14 423.07 42.14 423.07 55.46 440.4 55.46 442.86 53"/></g><polygon class="cls-32" points="436.34 42.58 438.61 44.9 438.62 44.9 438.62 52.72 438.61 52.72 436.34 55.05 438.02 55.05 440.28 52.74 440.31 52.74 440.31 44.9 440.3 44.9 438.02 42.58 436.34 42.58"/><rect class="cls-33" x="440.47" y="45.56" width="1.98" height="6.51"/><polygon class="cls-29" points="404.68 57.95 404.68 71.28 387.35 71.28 384.89 68.81 384.89 60.4 387.33 57.95 404.68 57.95"/><g class="cls-44"><polygon class="cls-31" points="384.89 68.81 384.89 60.4 387.33 57.95 404.68 57.95 404.68 71.28 387.35 71.28 384.89 68.81"/></g><polygon class="cls-32" points="391.41 58.39 389.14 60.72 389.13 60.72 389.13 68.54 389.14 68.54 391.41 70.86 389.73 70.86 387.47 68.56 387.44 68.56 387.44 60.72 387.45 60.72 389.73 58.39 391.41 58.39"/><rect class="cls-33" x="385.29" y="61.37" width="1.98" height="6.51"/><polygon class="cls-29" points="404.69 42.17 404.69 55.49 387.36 55.49 384.89 53.03 384.89 44.61 387.34 42.17 404.69 42.17"/><g class="cls-44"><polygon class="cls-31" points="384.89 53.03 384.89 44.61 387.34 42.17 404.69 42.17 404.69 55.49 387.36 55.49 384.89 53.03"/></g><polygon class="cls-32" points="391.42 42.61 389.15 44.94 389.14 44.94 389.14 52.75 389.15 52.75 391.42 55.08 389.73 55.08 387.48 52.77 387.45 52.77 387.45 44.94 387.46 44.94 389.73 42.61 391.42 42.61"/><rect class="cls-33" x="385.3" y="45.59" width="1.98" height="6.51"/><polygon class="cls-29" points="633.98 104.95 633.98 118.27 651.32 118.27 653.78 115.81 653.78 107.39 651.34 104.95 633.98 104.95"/><g class="cls-45"><polygon class="cls-31" points="653.78 115.81 653.78 107.39 651.34 104.95 633.98 104.95 633.98 118.27 651.32 118.27 653.78 115.81"/></g><polygon class="cls-32" points="647.25 105.39 649.52 107.72 649.53 107.72 649.53 115.53 649.52 115.53 647.25 117.86 648.94 117.86 651.19 115.56 651.22 115.56 651.22 107.72 651.22 107.72 648.94 105.39 647.25 105.39"/><rect class="cls-33" x="651.39" y="108.37" width="1.98" height="6.51"/><polygon class="cls-29" points="633.98 89.16 633.98 102.49 651.31 102.49 653.77 100.02 653.77 91.61 651.33 89.16 633.98 89.16"/><g class="cls-45"><polygon class="cls-31" points="653.77 100.02 653.77 91.61 651.33 89.16 633.98 89.16 633.98 102.49 651.31 102.49 653.77 100.02"/></g><polygon class="cls-32" points="647.24 89.6 649.52 91.93 649.52 91.93 649.52 99.75 649.52 99.75 647.24 102.08 648.93 102.08 651.19 99.77 651.21 99.77 651.21 91.93 651.21 91.93 648.93 89.6 647.24 89.6"/><rect class="cls-33" x="651.38" y="92.59" width="1.98" height="6.51"/><g class="cls-45"><path class="cls-34" d="M633,108.43a7.08,7.08,0,0,1-1.37-6.24l1.37.64V96.5l-4.5,4.23,1.43.67a8.9,8.9,0,0,0,3.07,9.49Z"/><path class="cls-35" d="M633,108.43a7.08,7.08,0,0,1-1.37-6.24l1.37.64V96.5l-4.5,4.23,1.43.67a8.9,8.9,0,0,0,3.07,9.49Z"/></g><polygon class="cls-29" points="607.98 104.89 607.98 118.22 625.32 118.22 627.78 115.75 627.78 107.34 625.34 104.89 607.98 104.89"/><g class="cls-46"><polygon class="cls-31" points="627.78 115.75 627.78 107.34 625.34 104.89 607.98 104.89 607.98 118.22 625.32 118.22 627.78 115.75"/></g><polygon class="cls-32" points="621.25 105.33 623.52 107.66 623.53 107.66 623.53 115.48 623.52 115.48 621.25 117.81 622.94 117.81 625.19 115.5 625.22 115.5 625.22 107.66 625.22 107.66 622.94 105.33 621.25 105.33"/><rect class="cls-33" x="625.39" y="108.31" width="1.98" height="6.51"/><polygon class="cls-29" points="607.98 89.11 607.98 102.43 625.31 102.43 627.77 99.97 627.77 91.55 625.33 89.11 607.98 89.11"/><g class="cls-46"><polygon class="cls-31" points="627.77 99.97 627.77 91.55 625.33 89.11 607.98 89.11 607.98 102.43 625.31 102.43 627.77 99.97"/></g><polygon class="cls-32" points="621.24 89.55 623.52 91.87 623.52 91.87 623.52 99.69 623.52 99.69 621.24 102.02 622.93 102.02 625.19 99.71 625.21 99.71 625.21 91.87 625.21 91.87 622.93 89.55 621.24 89.55"/><rect class="cls-33" x="625.38" y="92.53" width="1.98" height="6.51"/><g class="cls-46"><path class="cls-34" d="M607,108.37a7.08,7.08,0,0,1-1.37-6.24l1.37.64V96.44l-4.5,4.23,1.43.67a8.91,8.91,0,0,0,3.07,9.5Z"/><path class="cls-35" d="M607,108.37a7.08,7.08,0,0,1-1.37-6.24l1.37.64V96.44l-4.5,4.23,1.43.67a8.91,8.91,0,0,0,3.07,9.5Z"/></g><polygon class="cls-29" points="581.55 104.81 581.55 118.14 598.89 118.14 601.35 115.67 601.35 107.26 598.9 104.81 581.55 104.81"/><g class="cls-47"><polygon class="cls-31" points="601.35 115.67 601.35 107.26 598.9 104.81 581.55 104.81 581.55 118.14 598.89 118.14 601.35 115.67"/></g><polygon class="cls-32" points="594.82 105.25 597.09 107.58 597.1 107.58 597.1 115.4 597.09 115.4 594.82 117.72 596.51 117.72 598.76 115.42 598.79 115.42 598.79 107.58 598.78 107.58 596.51 105.25 594.82 105.25"/><rect class="cls-33" x="598.96" y="108.23" width="1.98" height="6.51"/><polygon class="cls-29" points="581.54 89.03 581.54 102.35 598.88 102.35 601.34 99.89 601.34 91.47 598.9 89.03 581.54 89.03"/><g class="cls-47"><polygon class="cls-31" points="601.34 99.89 601.34 91.47 598.9 89.03 581.54 89.03 581.54 102.35 598.88 102.35 601.34 99.89"/></g><polygon class="cls-32" points="594.81 89.47 597.09 91.79 597.09 91.79 597.09 99.61 597.09 99.61 594.81 101.94 596.5 101.94 598.75 99.63 598.78 99.63 598.78 91.79 598.77 91.79 596.5 89.47 594.81 89.47"/><rect class="cls-33" x="598.95" y="92.45" width="1.98" height="6.51"/><g class="cls-47"><path class="cls-34" d="M580.6,108.29a7.06,7.06,0,0,1-1.38-6.24l1.38.64V96.36l-4.5,4.23,1.43.67a8.89,8.89,0,0,0,3.07,9.49Z"/><path class="cls-35" d="M580.6,108.29a7.06,7.06,0,0,1-1.38-6.24l1.38.64V96.36l-4.5,4.23,1.43.67a8.89,8.89,0,0,0,3.07,9.49Z"/></g><polygon class="cls-29" points="555.09 104.73 555.09 118.05 572.43 118.05 574.89 115.59 574.89 107.17 572.45 104.73 555.09 104.73"/><g class="cls-48"><polygon class="cls-31" points="574.89 115.59 574.89 107.17 572.45 104.73 555.09 104.73 555.09 118.05 572.43 118.05 574.89 115.59"/></g><polygon class="cls-32" points="568.36 105.17 570.63 107.5 570.64 107.5 570.64 115.31 570.63 115.31 568.36 117.64 570.05 117.64 572.3 115.34 572.33 115.34 572.33 107.5 572.32 107.5 570.05 105.17 568.36 105.17"/><rect class="cls-33" x="572.5" y="108.15" width="1.98" height="6.51"/><polygon class="cls-29" points="555.09 88.94 555.09 102.27 572.42 102.27 574.88 99.81 574.88 91.39 572.44 88.94 555.09 88.94"/><g class="cls-48"><polygon class="cls-31" points="574.88 99.81 574.88 91.39 572.44 88.94 555.09 88.94 555.09 102.27 572.42 102.27 574.88 99.81"/></g><polygon class="cls-32" points="568.35 89.38 570.63 91.71 570.63 91.71 570.63 99.53 570.63 99.53 568.35 101.86 570.04 101.86 572.29 99.55 572.32 99.55 572.32 91.71 572.32 91.71 570.04 89.38 568.35 89.38"/><rect class="cls-33" x="572.49" y="92.37" width="1.98" height="6.51"/><g class="cls-48"><path class="cls-34" d="M554.14,108.21a7.05,7.05,0,0,1-1.37-6.24l1.37.64V96.28l-4.5,4.23,1.43.67a8.89,8.89,0,0,0,3.07,9.49Z"/><path class="cls-35" d="M554.14,108.21a7.05,7.05,0,0,1-1.37-6.24l1.37.64V96.28l-4.5,4.23,1.43.67a8.89,8.89,0,0,0,3.07,9.49Z"/></g><polygon class="cls-29" points="528.51 104.65 528.51 117.97 545.84 117.97 548.3 115.51 548.3 107.1 545.86 104.65 528.51 104.65"/><g class="cls-49"><polygon class="cls-31" points="548.3 115.51 548.3 107.1 545.86 104.65 528.51 104.65 528.51 117.97 545.84 117.97 548.3 115.51"/></g><polygon class="cls-32" points="541.77 105.09 544.05 107.42 544.05 107.42 544.05 115.23 544.05 115.23 541.77 117.56 543.46 117.56 545.72 115.26 545.74 115.26 545.74 107.42 545.74 107.42 543.46 105.09 541.77 105.09"/><rect class="cls-33" x="545.91" y="108.07" width="1.98" height="6.51"/><polygon class="cls-29" points="528.5 88.87 528.5 102.19 545.83 102.19 548.29 99.73 548.29 91.31 545.85 88.87 528.5 88.87"/><g class="cls-49"><polygon class="cls-31" points="548.29 99.73 548.29 91.31 545.85 88.87 528.5 88.87 528.5 102.19 545.83 102.19 548.29 99.73"/></g><polygon class="cls-32" points="541.77 89.31 544.04 91.63 544.04 91.63 544.04 99.45 544.04 99.45 541.77 101.78 543.45 101.78 545.71 99.47 545.73 99.47 545.73 91.63 545.73 91.63 543.45 89.31 541.77 89.31"/><rect class="cls-33" x="545.9" y="92.29" width="1.98" height="6.51"/><g class="cls-49"><path class="cls-34" d="M527.55,108.13a7.08,7.08,0,0,1-1.37-6.24l1.37.64V96.2l-4.5,4.23,1.43.67a8.91,8.91,0,0,0,3.07,9.49Z"/><path class="cls-35" d="M527.55,108.13a7.08,7.08,0,0,1-1.37-6.24l1.37.64V96.2l-4.5,4.23,1.43.67a8.91,8.91,0,0,0,3.07,9.49Z"/></g><polygon class="cls-29" points="502.38 104.57 502.38 117.9 519.71 117.9 522.17 115.43 522.17 107.02 519.73 104.57 502.38 104.57"/><g class="cls-50"><polygon class="cls-31" points="522.17 115.43 522.17 107.02 519.73 104.57 502.38 104.57 502.38 117.9 519.71 117.9 522.17 115.43"/></g><polygon class="cls-32" points="515.65 105.01 517.92 107.34 517.92 107.34 517.92 115.16 517.92 115.16 515.65 117.48 517.33 117.48 519.59 115.18 519.61 115.18 519.61 107.34 519.61 107.34 517.33 105.01 515.65 105.01"/><rect class="cls-33" x="519.78" y="107.99" width="1.98" height="6.51"/><polygon class="cls-29" points="502.37 88.79 502.37 102.11 519.7 102.11 522.17 99.65 522.17 91.23 519.72 88.79 502.37 88.79"/><g class="cls-50"><polygon class="cls-31" points="522.16 99.65 522.16 91.23 519.72 88.79 502.37 88.79 502.37 102.11 519.7 102.11 522.16 99.65"/></g><polygon class="cls-32" points="515.64 89.23 517.91 91.56 517.92 91.56 517.92 99.37 517.91 99.37 515.64 101.7 517.32 101.7 519.58 99.39 519.61 99.39 519.61 91.56 519.6 91.56 517.32 89.23 515.64 89.23"/><rect class="cls-33" x="519.78" y="92.21" width="1.98" height="6.51"/><g class="cls-50"><path class="cls-34" d="M501.43,108.05a7.06,7.06,0,0,1-1.38-6.24l1.38.64V96.12l-4.51,4.23,1.44.67a8.89,8.89,0,0,0,3.07,9.5Z"/><path class="cls-35" d="M501.43,108.05a7.06,7.06,0,0,1-1.38-6.24l1.38.64V96.12l-4.51,4.23,1.44.67a8.89,8.89,0,0,0,3.07,9.5Z"/></g><polygon class="cls-29" points="475.96 104.73 475.96 118.05 493.3 118.05 495.76 115.59 495.76 107.17 493.31 104.73 475.96 104.73"/><g class="cls-51"><polygon class="cls-31" points="495.76 115.59 495.76 107.17 493.31 104.73 475.96 104.73 475.96 118.05 493.3 118.05 495.76 115.59"/></g><polygon class="cls-32" points="489.23 105.17 491.5 107.5 491.51 107.5 491.51 115.31 491.5 115.31 489.23 117.64 490.92 117.64 493.17 115.34 493.2 115.34 493.2 107.5 493.19 107.5 490.92 105.17 489.23 105.17"/><rect class="cls-33" x="493.37" y="108.15" width="1.98" height="6.51"/><polygon class="cls-29" points="475.95 88.94 475.95 102.27 493.29 102.27 495.75 99.81 495.75 91.39 493.31 88.94 475.95 88.94"/><g class="cls-51"><polygon class="cls-31" points="495.75 99.81 495.75 91.39 493.31 88.94 475.95 88.94 475.95 102.27 493.29 102.27 495.75 99.81"/></g><polygon class="cls-32" points="489.22 89.38 491.5 91.71 491.5 91.71 491.5 99.53 491.5 99.53 489.22 101.86 490.91 101.86 493.16 99.55 493.19 99.55 493.19 91.71 493.19 91.71 490.91 89.38 489.22 89.38"/><rect class="cls-33" x="493.36" y="92.37" width="1.98" height="6.51"/><g class="cls-51"><path class="cls-34" d="M475,108.21a7.06,7.06,0,0,1-1.38-6.24l1.38.64V96.28l-4.5,4.23,1.43.67a8.89,8.89,0,0,0,3.07,9.49Z"/><path class="cls-35" d="M475,108.21a7.06,7.06,0,0,1-1.38-6.24l1.38.64V96.28l-4.5,4.23,1.43.67a8.89,8.89,0,0,0,3.07,9.49Z"/></g><polygon class="cls-29" points="449.5 104.73 449.5 118.05 466.83 118.05 469.29 115.59 469.29 107.17 466.85 104.73 449.5 104.73"/><g class="cls-52"><polygon class="cls-31" points="469.29 115.59 469.29 107.17 466.85 104.73 449.5 104.73 449.5 118.05 466.83 118.05 469.29 115.59"/></g><polygon class="cls-32" points="462.77 105.17 465.04 107.5 465.04 107.5 465.04 115.31 465.04 115.31 462.77 117.64 464.45 117.64 466.7 115.34 466.73 115.34 466.73 107.5 466.73 107.5 464.45 105.17 462.77 105.17"/><rect class="cls-33" x="466.9" y="108.15" width="1.98" height="6.51"/><polygon class="cls-29" points="449.49 88.94 449.49 102.27 466.82 102.27 469.29 99.81 469.29 91.39 466.84 88.94 449.49 88.94"/><g class="cls-52"><polygon class="cls-31" points="469.28 99.81 469.28 91.39 466.84 88.94 449.49 88.94 449.49 102.27 466.82 102.27 469.28 99.81"/></g><polygon class="cls-32" points="462.76 89.38 465.03 91.71 465.04 91.71 465.04 99.53 465.03 99.53 462.76 101.86 464.44 101.86 466.7 99.55 466.73 99.55 466.73 91.71 466.72 91.71 464.44 89.38 462.76 89.38"/><rect class="cls-33" x="466.89" y="92.37" width="1.98" height="6.51"/><g class="cls-52"><path class="cls-34" d="M448.54,108.21a7.08,7.08,0,0,1-1.37-6.24l1.37.64V96.28l-4.5,4.23,1.43.67a8.91,8.91,0,0,0,3.07,9.49Z"/><path class="cls-35" d="M448.54,108.21a7.08,7.08,0,0,1-1.37-6.24l1.37.64V96.28l-4.5,4.23,1.43.67a8.91,8.91,0,0,0,3.07,9.49Z"/></g><polygon class="cls-29" points="423.05 104.65 423.05 117.97 440.38 117.97 442.85 115.51 442.85 107.1 440.4 104.65 423.05 104.65"/><g class="cls-53"><polygon class="cls-31" points="442.85 115.51 442.85 107.1 440.4 104.65 423.05 104.65 423.05 117.97 440.38 117.97 442.85 115.51"/></g><polygon class="cls-32" points="436.32 105.09 438.59 107.42 438.6 107.42 438.6 115.23 438.59 115.23 436.32 117.56 438.01 117.56 440.26 115.26 440.29 115.26 440.29 107.42 440.28 107.42 438.01 105.09 436.32 105.09"/><rect class="cls-33" x="440.46" y="108.07" width="1.98" height="6.51"/><polygon class="cls-29" points="423.04 88.87 423.04 102.19 440.38 102.19 442.84 99.73 442.84 91.31 440.39 88.87 423.04 88.87"/><g class="cls-53"><polygon class="cls-31" points="442.84 99.73 442.84 91.31 440.39 88.87 423.04 88.87 423.04 102.19 440.38 102.19 442.84 99.73"/></g><polygon class="cls-32" points="436.31 89.31 438.58 91.63 438.59 91.63 438.59 99.45 438.58 99.45 436.31 101.78 438 101.78 440.25 99.47 440.28 99.47 440.28 91.63 440.27 91.63 438 89.31 436.31 89.31"/><rect class="cls-33" x="440.45" y="92.29" width="1.98" height="6.51"/><polygon class="cls-29" points="404.65 104.68 404.65 118 387.32 118 384.86 115.54 384.86 107.13 387.3 104.68 404.65 104.68"/><g class="cls-54"><polygon class="cls-31" points="384.86 115.54 384.86 107.13 387.3 104.68 404.65 104.68 404.65 118 387.32 118 384.86 115.54"/></g><polygon class="cls-32" points="391.39 105.12 389.11 107.45 389.11 107.45 389.11 115.27 389.11 115.27 391.39 117.59 389.7 117.59 387.44 115.29 387.42 115.29 387.42 107.45 387.42 107.45 389.7 105.12 391.39 105.12"/><rect class="cls-33" x="385.27" y="108.1" width="1.98" height="6.51"/><polygon class="cls-29" points="404.66 88.9 404.66 102.22 387.33 102.22 384.87 99.76 384.87 91.34 387.31 88.9 404.66 88.9"/><g class="cls-54"><polygon class="cls-31" points="384.87 99.76 384.87 91.34 387.31 88.9 404.66 88.9 404.66 102.22 387.33 102.22 384.87 99.76"/></g><polygon class="cls-32" points="391.39 89.34 389.12 91.66 389.12 91.66 389.12 99.48 389.12 99.48 391.39 101.81 389.71 101.81 387.45 99.5 387.43 99.5 387.43 91.66 387.43 91.66 389.71 89.34 391.39 89.34"/><rect class="cls-33" x="385.27" y="92.32" width="1.98" height="6.51"/><polygon class="cls-29" points="180.46 58.08 180.46 71.4 163.13 71.4 160.67 68.94 160.67 60.52 163.11 58.08 180.46 58.08"/><g class="cls-55"><polygon class="cls-31" points="160.67 68.94 160.67 60.52 163.11 58.08 180.46 58.08 180.46 71.4 163.13 71.4 160.67 68.94"/></g><polygon class="cls-32" points="167.19 58.52 164.92 60.84 164.91 60.84 164.91 68.66 164.92 68.66 167.19 70.99 165.51 70.99 163.25 68.68 163.22 68.68 163.22 60.84 163.23 60.84 165.51 58.52 167.19 58.52"/><rect class="cls-33" x="161.07" y="61.5" width="1.98" height="6.51"/><polygon class="cls-29" points="180.47 42.29 180.47 55.61 163.14 55.61 160.67 53.15 160.67 44.74 163.12 42.29 180.47 42.29"/><g class="cls-55"><polygon class="cls-31" points="160.67 53.15 160.67 44.74 163.12 42.29 180.47 42.29 180.47 55.61 163.13 55.61 160.67 53.15"/></g><polygon class="cls-32" points="167.2 42.73 164.93 45.06 164.92 45.06 164.92 52.88 164.93 52.88 167.2 55.2 165.51 55.2 163.26 52.9 163.23 52.9 163.23 45.06 163.24 45.06 165.51 42.73 167.2 42.73"/><rect class="cls-33" x="161.08" y="45.71" width="1.98" height="6.51"/><polygon class="cls-29" points="207.05 58 207.05 71.32 189.71 71.32 187.25 68.86 187.25 60.44 189.7 58 207.05 58"/><g class="cls-56"><polygon class="cls-31" points="187.25 68.86 187.25 60.44 189.7 58 207.05 58 207.05 71.32 189.71 71.32 187.25 68.86"/></g><polygon class="cls-32" points="193.78 58.44 191.51 60.76 191.5 60.76 191.5 68.58 191.51 68.58 193.78 70.91 192.09 70.91 189.84 68.6 189.81 68.6 189.81 60.76 189.82 60.76 192.09 58.44 193.78 58.44"/><rect class="cls-33" x="187.66" y="61.42" width="1.98" height="6.51"/><polygon class="cls-29" points="207.06 42.21 207.06 55.54 189.72 55.54 187.26 53.07 187.26 44.66 189.71 42.21 207.06 42.21"/><g class="cls-56"><polygon class="cls-31" points="187.26 53.07 187.26 44.66 189.7 42.21 207.06 42.21 207.06 55.54 189.72 55.54 187.26 53.07"/></g><polygon class="cls-32" points="193.79 42.65 191.51 44.98 191.51 44.98 191.51 52.8 191.51 52.8 193.79 55.13 192.1 55.13 189.85 52.82 189.82 52.82 189.82 44.98 189.83 44.98 192.1 42.65 193.79 42.65"/><rect class="cls-33" x="187.67" y="45.64" width="1.98" height="6.51"/><polygon class="cls-29" points="233.18 57.92 233.18 71.24 215.84 71.24 213.38 68.78 213.38 60.36 215.83 57.92 233.18 57.92"/><g class="cls-57"><polygon class="cls-31" points="213.38 68.78 213.38 60.36 215.82 57.92 233.18 57.92 233.18 71.24 215.84 71.24 213.38 68.78"/></g><polygon class="cls-32" points="219.91 58.36 217.64 60.69 217.63 60.69 217.63 68.5 217.64 68.5 219.91 70.83 218.22 70.83 215.97 68.53 215.94 68.53 215.94 60.69 215.95 60.69 218.22 58.36 219.91 58.36"/><rect class="cls-33" x="213.79" y="61.34" width="1.98" height="6.51"/><polygon class="cls-29" points="233.19 42.13 233.19 55.46 215.85 55.46 213.39 52.99 213.39 44.58 215.83 42.13 233.19 42.13"/><g class="cls-57"><polygon class="cls-31" points="213.39 52.99 213.39 44.58 215.83 42.13 233.19 42.13 233.19 55.46 215.85 55.46 213.39 52.99"/></g><polygon class="cls-32" points="219.92 42.57 217.64 44.9 217.64 44.9 217.64 52.72 217.64 52.72 219.92 55.05 218.23 55.05 215.98 52.74 215.95 52.74 215.95 44.9 215.96 44.9 218.23 42.57 219.92 42.57"/><rect class="cls-33" x="213.8" y="45.56" width="1.98" height="6.51"/><g class="cls-57"><path class="cls-34" d="M234.13,61.4a7.06,7.06,0,0,0,1.38-6.24l-1.38.64V49.47l4.5,4.23-1.43.67a8.9,8.9,0,0,1-3.07,9.49Z"/><path class="cls-35" d="M234.13,61.4a7.06,7.06,0,0,0,1.38-6.24l-1.38.64V49.47l4.5,4.23-1.43.67a8.9,8.9,0,0,1-3.07,9.49Z"/></g><polygon class="cls-29" points="259.59 58.08 259.59 71.4 242.26 71.4 239.8 68.94 239.8 60.52 242.24 58.08 259.59 58.08"/><g class="cls-58"><polygon class="cls-31" points="239.8 68.94 239.8 60.52 242.24 58.08 259.59 58.08 259.59 71.4 242.26 71.4 239.8 68.94"/></g><polygon class="cls-32" points="246.32 58.52 244.05 60.84 244.04 60.84 244.04 68.66 244.05 68.66 246.32 70.99 244.64 70.99 242.38 68.68 242.36 68.68 242.36 60.84 242.36 60.84 244.64 58.52 246.32 58.52"/><rect class="cls-33" x="240.2" y="61.5" width="1.98" height="6.51"/><polygon class="cls-29" points="259.6 42.29 259.6 55.61 242.27 55.61 239.8 53.15 239.8 44.74 242.25 42.29 259.6 42.29"/><g class="cls-58"><polygon class="cls-31" points="239.81 53.15 239.81 44.74 242.25 42.29 259.6 42.29 259.6 55.61 242.27 55.61 239.81 53.15"/></g><polygon class="cls-32" points="246.33 42.73 244.06 45.06 244.05 45.06 244.05 52.88 244.06 52.88 246.33 55.2 244.65 55.2 242.39 52.9 242.36 52.9 242.36 45.06 242.37 45.06 244.65 42.73 246.33 42.73"/><rect class="cls-33" x="240.21" y="45.71" width="1.98" height="6.51"/><g class="cls-58"><path class="cls-34" d="M260.54,61.56a7.08,7.08,0,0,0,1.38-6.25l-1.38.65V49.63l4.51,4.23-1.44.66a8.89,8.89,0,0,1-3.07,9.5Z"/><path class="cls-35" d="M260.54,61.56a7.08,7.08,0,0,0,1.38-6.25l-1.38.65V49.63l4.51,4.23-1.44.66a8.89,8.89,0,0,1-3.07,9.5Z"/></g><polygon class="cls-29" points="286.06 58.08 286.06 71.4 268.72 71.4 266.26 68.94 266.26 60.52 268.71 58.08 286.06 58.08"/><g class="cls-59"><polygon class="cls-31" points="266.26 68.94 266.26 60.52 268.71 58.08 286.06 58.08 286.06 71.4 268.72 71.4 266.26 68.94"/></g><polygon class="cls-32" points="272.79 58.52 270.52 60.84 270.51 60.84 270.51 68.66 270.52 68.66 272.79 70.99 271.1 70.99 268.85 68.68 268.82 68.68 268.82 60.84 268.83 60.84 271.1 58.52 272.79 58.52"/><rect class="cls-33" x="266.67" y="61.5" width="1.98" height="6.51"/><polygon class="cls-29" points="286.07 42.29 286.07 55.61 268.73 55.61 266.27 53.15 266.27 44.74 268.71 42.29 286.07 42.29"/><g class="cls-59"><polygon class="cls-31" points="266.27 53.15 266.27 44.74 268.71 42.29 286.07 42.29 286.07 55.61 268.73 55.61 266.27 53.15"/></g><polygon class="cls-32" points="272.8 42.73 270.52 45.06 270.52 45.06 270.52 52.88 270.52 52.88 272.8 55.2 271.11 55.2 268.86 52.9 268.83 52.9 268.83 45.06 268.83 45.06 271.11 42.73 272.8 42.73"/><rect class="cls-33" x="266.68" y="45.71" width="1.98" height="6.51"/><g class="cls-59"><path class="cls-34" d="M287,61.56a7.08,7.08,0,0,0,1.38-6.25L287,56V49.63l4.5,4.23-1.43.66A8.91,8.91,0,0,1,287,64Z"/><path class="cls-35" d="M287,61.56a7.08,7.08,0,0,0,1.38-6.25L287,56V49.63l4.5,4.23-1.43.66A8.91,8.91,0,0,1,287,64Z"/></g><polygon class="cls-29" points="312.51 58 312.51 71.32 295.17 71.32 292.71 68.86 292.71 60.44 295.15 58 312.51 58"/><g class="cls-60"><polygon class="cls-31" points="292.71 68.86 292.71 60.44 295.15 58 312.51 58 312.51 71.32 295.17 71.32 292.71 68.86"/></g><polygon class="cls-32" points="299.24 58.44 296.96 60.76 296.96 60.76 296.96 68.58 296.96 68.58 299.24 70.91 297.55 70.91 295.3 68.6 295.27 68.6 295.27 60.76 295.27 60.76 297.55 58.44 299.24 58.44"/><rect class="cls-33" x="293.12" y="61.42" width="1.98" height="6.51"/><polygon class="cls-29" points="312.51 42.21 312.51 55.54 295.18 55.54 292.72 53.07 292.72 44.66 295.16 42.21 312.51 42.21"/><g class="cls-60"><polygon class="cls-31" points="292.72 53.07 292.72 44.66 295.16 42.21 312.51 42.21 312.51 55.54 295.18 55.54 292.72 53.07"/></g><polygon class="cls-32" points="299.25 42.65 296.97 44.98 296.97 44.98 296.97 52.8 296.97 52.8 299.25 55.13 297.56 55.13 295.3 52.82 295.28 52.82 295.28 44.98 295.28 44.98 297.56 42.65 299.25 42.65"/><rect class="cls-33" x="293.12" y="45.64" width="1.98" height="6.51"/><polygon class="cls-29" points="332.9 58.03 332.9 71.35 350.24 71.35 352.7 68.89 352.7 60.47 350.25 58.03 332.9 58.03"/><g class="cls-61"><polygon class="cls-31" points="352.7 68.89 352.7 60.47 350.25 58.03 332.9 58.03 332.9 71.35 350.24 71.35 352.7 68.89"/></g><polygon class="cls-32" points="346.17 58.47 348.44 60.8 348.45 60.8 348.45 68.61 348.44 68.61 346.17 70.94 347.86 70.94 350.11 68.63 350.14 68.63 350.14 60.8 350.13 60.8 347.86 58.47 346.17 58.47"/><rect class="cls-33" x="350.31" y="61.45" width="1.98" height="6.51"/><polygon class="cls-29" points="332.89 42.24 332.89 55.57 350.23 55.57 352.69 53.1 352.69 44.69 350.25 42.24 332.89 42.24"/><g class="cls-61"><polygon class="cls-31" points="352.69 53.1 352.69 44.69 350.25 42.24 332.89 42.24 332.89 55.57 350.23 55.57 352.69 53.1"/></g><polygon class="cls-32" points="346.16 42.68 348.44 45.01 348.44 45.01 348.44 52.83 348.44 52.83 346.16 55.16 347.85 55.16 350.1 52.85 350.13 52.85 350.13 45.01 350.13 45.01 347.85 42.68 346.16 42.68"/><rect class="cls-33" x="350.3" y="45.67" width="1.98" height="6.51"/><polygon class="cls-29" points="180.49 104.81 180.49 118.13 163.15 118.13 160.69 115.67 160.69 107.25 163.14 104.81 180.49 104.81"/><g class="cls-62"><polygon class="cls-31" points="160.69 115.67 160.69 107.25 163.13 104.81 180.49 104.81 180.49 118.13 163.15 118.13 160.69 115.67"/></g><polygon class="cls-32" points="167.22 105.24 164.95 107.57 164.94 107.57 164.94 115.39 164.95 115.39 167.22 117.72 165.53 117.72 163.28 115.41 163.25 115.41 163.25 107.57 163.26 107.57 165.53 105.24 167.22 105.24"/><rect class="cls-33" x="161.1" y="108.23" width="1.98" height="6.51"/><polygon class="cls-29" points="180.5 89.02 180.5 102.34 163.16 102.34 160.7 99.88 160.7 91.47 163.14 89.02 180.5 89.02"/><g class="cls-62"><polygon class="cls-31" points="160.7 99.88 160.7 91.47 163.14 89.02 180.5 89.02 180.5 102.34 163.16 102.34 160.7 99.88"/></g><polygon class="cls-32" points="167.23 89.46 164.96 91.79 164.95 91.79 164.95 99.61 164.96 99.61 167.23 101.93 165.54 101.93 163.29 99.63 163.26 99.63 163.26 91.79 163.26 91.79 165.54 89.46 167.23 89.46"/><rect class="cls-33" x="161.11" y="92.44" width="1.98" height="6.51"/><polygon class="cls-29" points="207.07 104.73 207.07 118.05 189.74 118.05 187.28 115.59 187.28 107.17 189.72 104.73 207.07 104.73"/><g class="cls-63"><polygon class="cls-31" points="187.28 115.59 187.28 107.17 189.72 104.73 207.07 104.73 207.07 118.05 189.74 118.05 187.28 115.59"/></g><polygon class="cls-32" points="193.81 105.17 191.53 107.49 191.53 107.49 191.53 115.31 191.53 115.31 193.81 117.64 192.12 117.64 189.87 115.33 189.84 115.33 189.84 107.49 189.84 107.49 192.12 105.17 193.81 105.17"/><rect class="cls-33" x="187.69" y="108.15" width="1.98" height="6.51"/><polygon class="cls-29" points="207.08 88.94 207.08 102.27 189.75 102.27 187.29 99.8 187.29 91.39 189.73 88.94 207.08 88.94"/><g class="cls-63"><polygon class="cls-31" points="187.29 99.8 187.29 91.39 189.73 88.94 207.08 88.94 207.08 102.27 189.75 102.27 187.29 99.8"/></g><polygon class="cls-32" points="193.81 89.38 191.54 91.71 191.54 91.71 191.54 99.53 191.54 99.53 193.81 101.85 192.13 101.85 189.87 99.55 189.85 99.55 189.85 91.71 189.85 91.71 192.13 89.38 193.81 89.38"/><rect class="cls-33" x="187.69" y="92.36" width="1.98" height="6.51"/><g class="cls-63"><path class="cls-34" d="M208,108.21A7.11,7.11,0,0,0,209.4,102l-1.37.65V96.28l4.5,4.23-1.43.66a8.91,8.91,0,0,1-3.07,9.5Z"/><path class="cls-35" d="M208,108.21A7.11,7.11,0,0,0,209.4,102l-1.37.65V96.28l4.5,4.23-1.43.66a8.91,8.91,0,0,1-3.07,9.5Z"/></g><polygon class="cls-29" points="233.2 104.65 233.2 117.97 215.87 117.97 213.41 115.51 213.41 107.09 215.85 104.65 233.2 104.65"/><g class="cls-64"><polygon class="cls-31" points="213.41 115.51 213.41 107.09 215.85 104.65 233.2 104.65 233.2 117.97 215.87 117.97 213.41 115.51"/></g><polygon class="cls-32" points="219.94 105.09 217.66 107.42 217.66 107.42 217.66 115.23 217.66 115.23 219.94 117.56 218.25 117.56 216 115.25 215.97 115.25 215.97 107.42 215.97 107.42 218.25 105.09 219.94 105.09"/><rect class="cls-33" x="213.81" y="108.07" width="1.98" height="6.51"/><polygon class="cls-29" points="233.21 88.86 233.21 102.19 215.88 102.19 213.41 99.72 213.41 91.31 215.86 88.86 233.21 88.86"/><g class="cls-64"><polygon class="cls-31" points="213.42 99.72 213.42 91.31 215.86 88.86 233.21 88.86 233.21 102.19 215.88 102.19 213.42 99.72"/></g><polygon class="cls-32" points="219.94 89.3 217.67 91.63 217.66 91.63 217.66 99.45 217.67 99.45 219.94 101.78 218.26 101.78 216 99.47 215.97 99.47 215.97 91.63 215.98 91.63 218.26 89.3 219.94 89.3"/><rect class="cls-33" x="213.82" y="92.29" width="1.98" height="6.51"/><g class="cls-64"><path class="cls-34" d="M234.15,108.13a7.06,7.06,0,0,0,1.38-6.24l-1.38.64V96.2l4.51,4.23-1.43.67a8.9,8.9,0,0,1-3.08,9.49Z"/><path class="cls-35" d="M234.15,108.13a7.06,7.06,0,0,0,1.38-6.24l-1.38.64V96.2l4.51,4.23-1.43.67a8.9,8.9,0,0,1-3.08,9.49Z"/></g><polygon class="cls-29" points="259.62 104.81 259.62 118.13 242.28 118.13 239.82 115.67 239.82 107.25 242.27 104.81 259.62 104.81"/><g class="cls-65"><polygon class="cls-31" points="239.82 115.67 239.82 107.25 242.27 104.81 259.62 104.81 259.62 118.13 242.28 118.13 239.82 115.67"/></g><polygon class="cls-32" points="246.35 105.24 244.08 107.57 244.07 107.57 244.07 115.39 244.08 115.39 246.35 117.72 244.66 117.72 242.41 115.41 242.38 115.41 242.38 107.57 242.39 107.57 244.66 105.24 246.35 105.24"/><rect class="cls-33" x="240.23" y="108.23" width="1.98" height="6.51"/><polygon class="cls-29" points="259.63 89.02 259.63 102.34 242.29 102.34 239.83 99.88 239.83 91.47 242.28 89.02 259.63 89.02"/><g class="cls-65"><polygon class="cls-31" points="239.83 99.88 239.83 91.47 242.27 89.02 259.63 89.02 259.63 102.34 242.29 102.34 239.83 99.88"/></g><polygon class="cls-32" points="246.36 89.46 244.09 91.79 244.08 91.79 244.08 99.61 244.09 99.61 246.36 101.93 244.67 101.93 242.42 99.63 242.39 99.63 242.39 91.79 242.4 91.79 244.67 89.46 246.36 89.46"/><rect class="cls-33" x="240.24" y="92.44" width="1.98" height="6.51"/><g class="cls-65"><path class="cls-34" d="M260.57,108.29A7.08,7.08,0,0,0,262,102l-1.38.65V96.36l4.5,4.23-1.43.66a8.91,8.91,0,0,1-3.07,9.5Z"/><path class="cls-35" d="M260.57,108.29A7.08,7.08,0,0,0,262,102l-1.38.65V96.36l4.5,4.23-1.43.66a8.91,8.91,0,0,1-3.07,9.5Z"/></g><polygon class="cls-29" points="286.08 104.81 286.08 118.13 268.75 118.13 266.29 115.67 266.29 107.25 268.73 104.81 286.08 104.81"/><g class="cls-66"><polygon class="cls-31" points="266.29 115.67 266.29 107.25 268.73 104.81 286.08 104.81 286.08 118.13 268.75 118.13 266.29 115.67"/></g><polygon class="cls-32" points="272.82 105.24 270.54 107.57 270.54 107.57 270.54 115.39 270.54 115.39 272.82 117.72 271.13 117.72 268.88 115.41 268.85 115.41 268.85 107.57 268.85 107.57 271.13 105.24 272.82 105.24"/><rect class="cls-33" x="266.7" y="108.23" width="1.98" height="6.51"/><polygon class="cls-29" points="286.09 89.02 286.09 102.34 268.76 102.34 266.3 99.88 266.3 91.47 268.74 89.02 286.09 89.02"/><g class="cls-66"><polygon class="cls-31" points="266.3 99.88 266.3 91.47 268.74 89.02 286.09 89.02 286.09 102.34 268.76 102.34 266.3 99.88"/></g><polygon class="cls-32" points="272.82 89.46 270.55 91.79 270.55 91.79 270.55 99.61 270.55 99.61 272.82 101.93 271.14 101.93 268.88 99.63 268.86 99.63 268.86 91.79 268.86 91.79 271.14 89.46 272.82 89.46"/><rect class="cls-33" x="266.7" y="92.44" width="1.98" height="6.51"/><g class="cls-66"><path class="cls-34" d="M287,108.29a7.11,7.11,0,0,0,1.37-6.25l-1.37.65V96.36l4.5,4.23-1.43.66a8.91,8.91,0,0,1-3.07,9.5Z"/><path class="cls-35" d="M287,108.29a7.11,7.11,0,0,0,1.37-6.25l-1.37.65V96.36l4.5,4.23-1.43.66a8.91,8.91,0,0,1-3.07,9.5Z"/></g><polygon class="cls-29" points="312.53 104.73 312.53 118.05 295.2 118.05 292.74 115.59 292.74 107.17 295.18 104.73 312.53 104.73"/><g class="cls-67"><polygon class="cls-31" points="292.74 115.59 292.74 107.17 295.18 104.73 312.53 104.73 312.53 118.05 295.2 118.05 292.74 115.59"/></g><polygon class="cls-32" points="299.26 105.17 296.99 107.49 296.99 107.49 296.99 115.31 296.99 115.31 299.26 117.64 297.58 117.64 295.32 115.33 295.3 115.33 295.3 107.49 295.3 107.49 297.58 105.17 299.26 105.17"/><rect class="cls-33" x="293.14" y="108.15" width="1.98" height="6.51"/><polygon class="cls-29" points="312.54 88.94 312.54 102.27 295.21 102.27 292.74 99.8 292.74 91.39 295.19 88.94 312.54 88.94"/><g class="cls-67"><polygon class="cls-31" points="292.74 99.8 292.74 91.39 295.19 88.94 312.54 88.94 312.54 102.27 295.2 102.27 292.74 99.8"/></g><polygon class="cls-32" points="299.27 89.38 297 91.71 296.99 91.71 296.99 99.53 297 99.53 299.27 101.85 297.58 101.85 295.33 99.55 295.3 99.55 295.3 91.71 295.31 91.71 297.58 89.38 299.27 89.38"/><rect class="cls-33" x="293.15" y="92.36" width="1.98" height="6.51"/><polygon class="cls-29" points="332.93 104.76 332.93 118.08 350.26 118.08 352.72 115.62 352.72 107.2 350.28 104.76 332.93 104.76"/><g class="cls-68"><polygon class="cls-31" points="352.72 115.62 352.72 107.2 350.28 104.76 332.93 104.76 332.93 118.08 350.26 118.08 352.72 115.62"/></g><polygon class="cls-32" points="346.2 105.2 348.47 107.53 348.48 107.53 348.48 115.34 348.47 115.34 346.2 117.67 347.88 117.67 350.14 115.36 350.17 115.36 350.17 107.53 350.16 107.53 347.88 105.2 346.2 105.2"/><rect class="cls-33" x="350.33" y="108.18" width="1.98" height="6.51"/><polygon class="cls-29" points="332.92 88.97 332.92 102.3 350.25 102.3 352.72 99.83 352.72 91.42 350.27 88.97 332.92 88.97"/><g class="cls-68"><polygon class="cls-31" points="352.72 99.83 352.72 91.42 350.27 88.97 332.92 88.97 332.92 102.3 350.25 102.3 352.72 99.83"/></g><polygon class="cls-32" points="346.19 89.41 348.46 91.74 348.47 91.74 348.47 99.56 348.46 99.56 346.19 101.89 347.88 101.89 350.13 99.58 350.16 99.58 350.16 91.74 350.15 91.74 347.88 89.41 346.19 89.41"/><rect class="cls-33" x="350.33" y="92.39" width="1.98" height="6.51"/><path class="cls-69" d="M422.19,107.91a7.08,7.08,0,0,1-1.37-6.24l1.37.64V96l-4.5,4.23,1.43.67a8.9,8.9,0,0,0,3.07,9.49Z"/><path class="cls-69" d="M422.32,61.48A7.08,7.08,0,0,1,421,55.24l1.37.64V49.55l-4.5,4.23,1.43.67a8.89,8.89,0,0,0,3.07,9.49Z"/><path class="cls-69" d="M208,61.38a7.08,7.08,0,0,0,1.38-6.25l-1.38.65V49.45l4.51,4.22-1.44.67a8.89,8.89,0,0,1-3.07,9.5Z"/><path class="cls-69" d="M313.43,61.39a7.08,7.08,0,0,0,1.38-6.25l-1.38.64V49.45l4.5,4.23-1.43.67a8.91,8.91,0,0,1-3.07,9.5Z"/><path class="cls-69" d="M313.43,108.12a7.06,7.06,0,0,0,1.38-6.24l-1.38.64V96.19l4.5,4.23-1.43.67a8.89,8.89,0,0,1-3.07,9.49Z"/><text class="cls-70" transform="translate(193.11 114.11)"><tspan xml:space="preserve">  8</tspan></text></g><g id="SETENUMMER-2" data-name="SETENUMMER"><text class="cls-70" transform="translate(637.53 52.45)">65</text><text class="cls-70" transform="translate(637.53 67.85)">66</text><text class="cls-70" transform="translate(637.5 99.18)">67</text><text class="cls-70" transform="translate(637.5 114.58)">68</text><text class="cls-70" transform="translate(611.34 52.4)">61</text><text class="cls-70" transform="translate(611.34 67.8)">62</text><text class="cls-70" transform="translate(611.31 99.13)">63</text><text class="cls-70" transform="translate(611.31 114.53)">64</text><text class="cls-70" transform="translate(584.98 52.34)">57</text><text class="cls-70" transform="translate(584.98 67.75)">58</text><text class="cls-70" transform="translate(584.96 99.07)">59</text><text class="cls-70" transform="translate(584.96 114.47)">60</text><text class="cls-70" transform="translate(558.39 52.29)">53</text><text class="cls-70" transform="translate(558.39 67.69)">54</text><text class="cls-70" transform="translate(558.37 99.02)">55</text><text class="cls-70" transform="translate(558.37 114.42)">56</text><text class="cls-70" transform="translate(532.17 52.01)">49</text><text class="cls-70" transform="translate(532.17 67.41)">50</text><text class="cls-70" transform="translate(532.14 98.73)">51</text><text class="cls-70" transform="translate(532.14 114.13)">52</text><text class="cls-70" transform="translate(505.62 52.15)">45</text><text class="cls-70" transform="translate(505.62 67.55)">46</text><text class="cls-70" transform="translate(505.59 98.88)">47</text><text class="cls-70" transform="translate(505.59 114.28)">48</text><text class="cls-70" transform="translate(479.45 52.01)">41</text><text class="cls-70" transform="translate(479.45 67.41)">42</text><text class="cls-70" transform="translate(479.43 98.73)">43</text><text class="cls-70" transform="translate(479.43 114.13)">44</text><text class="cls-70" transform="translate(453.27 51.99)">37</text><text class="cls-70" transform="translate(453.27 67.39)">38</text><text class="cls-70" transform="translate(453.24 98.72)">39</text><text class="cls-70" transform="translate(453.24 114.12)">40</text><text class="cls-70" transform="translate(426.37 52.01)">33</text><text class="cls-70" transform="translate(426.37 67.41)">34</text><text class="cls-70" transform="translate(426.34 98.74)">35</text><text class="cls-70" transform="translate(426.34 114.14)">36</text><text class="cls-70" transform="translate(391.87 52.04)">29</text><text class="cls-70" transform="translate(391.87 67.44)">30</text><text class="cls-70" transform="translate(391.84 98.77)">31</text><text class="cls-70" transform="translate(391.84 114.17)">32</text><text class="cls-70" transform="translate(335.65 52.27)">25</text><text class="cls-70" transform="translate(335.65 67.67)">26</text><text class="cls-70" transform="translate(335.62 99)">27</text><text class="cls-70" transform="translate(335.62 114.4)">28</text><text class="cls-70" transform="translate(298.7 52.27)">21</text><text class="cls-70" transform="translate(298.7 67.67)">22</text><text class="cls-70" transform="translate(298.67 99)">23</text><text class="cls-70" transform="translate(298.67 114.4)">24</text><text class="cls-70" transform="translate(272.41 52.27)">17</text><text class="cls-70" transform="translate(272.41 67.67)">18</text><text class="cls-70" transform="translate(272.39 99)">19</text><text class="cls-70" transform="translate(272.39 114.4)">20</text><text class="cls-70" transform="translate(245.49 52.53)">13</text><text class="cls-70" transform="translate(245.49 67.93)">14</text><text class="cls-70" transform="translate(245.46 99.26)">15</text><text class="cls-70" transform="translate(245.46 114.66)">16</text><text class="cls-70" transform="translate(218.4 52.27)"><tspan xml:space="preserve">  9</tspan></text><text class="cls-70" transform="translate(218.4 67.67)">10</text><text class="cls-70" transform="translate(218.37 99)">11</text><text class="cls-70" transform="translate(218.37 114.4)">12</text><text class="cls-70" transform="translate(192.73 52.01)"><tspan xml:space="preserve">  5</tspan></text><text class="cls-70" transform="translate(192.73 67.41)"><tspan xml:space="preserve">  6</tspan></text><text class="cls-70" transform="translate(192.71 98.74)"><tspan xml:space="preserve">  7</tspan></text><text class="cls-70" transform="translate(166.08 52.24)"><tspan xml:space="preserve">  1</tspan></text><text class="cls-70" transform="translate(166.08 67.64)"><tspan xml:space="preserve">  2</tspan></text><text class="cls-70" transform="translate(166.05 98.97)"><tspan xml:space="preserve">  3</tspan></text><text class="cls-70" transform="translate(166.14 114.16)"><tspan xml:space="preserve">  4</tspan></text></g><g id="SYMBOLER-3" data-name="SYMBOLER"><rect class="cls-71" x="89.34" y="130.72" width="25.51" height="25.51"/><path class="cls-33" d="M96.11,147.39l-1.9-7.79h1.51l.74,3.53c.21,1,.38,2,.51,2.72h0c.13-.82.34-1.74.57-2.73l.84-3.52h1.49l.78,3.58c.19.93.36,1.79.47,2.64h0q.21-1.29.54-2.7l.8-3.52H104l-2.09,7.79h-1.53l-.81-3.66c-.18-.89-.33-1.64-.42-2.48h0c-.14.83-.3,1.59-.52,2.48l-.9,3.66Z"/><path class="cls-33" d="M109.78,147a4.89,4.89,0,0,1-2,.36,3.68,3.68,0,0,1-4-3.93,3.92,3.92,0,0,1,4.16-4.12,4.46,4.46,0,0,1,1.89.35l-.31,1.14a3.65,3.65,0,0,0-1.53-.31,2.59,2.59,0,0,0-2.72,2.87A2.55,2.55,0,0,0,108,146.2a4,4,0,0,0,1.55-.29Z"/><rect class="cls-72" x="23.29" y="124.99" width="31.11" height="31.15"/><path class="cls-73" d="M39.58,133.27a1.8,1.8,0,1,0-1.78-1.8,1.79,1.79,0,0,0,1.78,1.8"/><path class="cls-73" d="M37.8,142.25v-2.82l-2.52,1.3a1,1,0,1,1-1-1.78l3.53-2.09v-1.28a1.79,1.79,0,1,1,3.58,0v6.27c0,1.11-.56,1.24-1,1.58V152a1,1,0,1,1-2.05,0v-7.53l-3,1.64,0,3.79a1,1,0,0,1-2,0v-4.32c0-.56,1.06-1.25,1.06-1.25l3.53-2.08"/><path class="cls-73" d="M40.59,139l1.71,3.6a1,1,0,1,0,1.88-.81l-2.94-6.82"/><path class="cls-73" d="M47.2,139.85a1.51,1.51,0,1,0-1.5-1.51,1.51,1.51,0,0,0,1.5,1.51"/><path class="cls-73" d="M47.54,146.38l-2,6.15a.71.71,0,0,1-.89.47.73.73,0,0,1-.48-.91l1.91-5.81"/><path class="cls-73" d="M46.47,146.38l2,6.15a.72.72,0,0,0,.9.47.74.74,0,0,0,.48-.91l-1.92-5.81"/><rect class="cls-73" x="45.87" y="140.24" width="2.58" height="6.84" rx="1.25" ry="1.25"/><path class="cls-73" d="M45.78,143.59l-1.57-.81a.62.62,0,0,0-.86.24.63.63,0,0,0,.23.87l2.2,1.3"/><rect class="cls-73" x="37.42" y="153.63" width="16.98" height="2.51"/><rect class="cls-73" x="23.22" y="153.86" width="12.74" height="2.32"/><rect class="cls-73" x="23.22" y="150.54" width="9.34" height="3.94"/><rect class="cls-73" x="23.22" y="147.6" width="6.17" height="3.63"/><polygon class="cls-73" points="35.95 125 35.95 124.99 23.29 124.99 23.29 126.14 34.34 126.14 34.34 128.89 35.96 128.89 35.96 125 35.95 125"/><rect class="cls-72" x="23.26" y="4.21" width="31.11" height="31.15"/><path class="cls-73" d="M39.55,12.49a1.8,1.8,0,1,0-1.78-1.8,1.8,1.8,0,0,0,1.78,1.8"/><path class="cls-73" d="M37.77,21.47V18.65L35.25,20a1,1,0,0,1-1-1.78l3.53-2.09V14.8a1.79,1.79,0,1,1,3.58,0v6.27c0,1.11-.56,1.24-1,1.58v8.58a1,1,0,1,1-2,0V23.7l-3,1.64,0,3.78a1,1,0,1,1-2,0V24.81c0-.56,1.06-1.25,1.06-1.25l3.53-2.08"/><path class="cls-73" d="M40.56,18.18l1.71,3.6A1,1,0,1,0,44.15,21l-2.94-6.82"/><path class="cls-73" d="M47.17,19.07a1.51,1.51,0,1,0-1.5-1.51,1.51,1.51,0,0,0,1.5,1.51"/><path class="cls-73" d="M47.51,25.59l-2,6.16a.71.71,0,0,1-.89.47.73.73,0,0,1-.48-.91l1.91-5.81"/><path class="cls-73" d="M46.44,25.59l2,6.16a.72.72,0,0,0,.9.47.74.74,0,0,0,.48-.91L47.89,25.5"/><rect class="cls-73" x="45.84" y="19.46" width="2.58" height="6.84" rx="1.25" ry="1.25"/><path class="cls-73" d="M45.75,22.81,44.18,22a.62.62,0,0,0-.86.24.63.63,0,0,0,.23.87l2.2,1.29"/><rect class="cls-73" x="37.4" y="32.84" width="16.98" height="2.51"/><rect class="cls-73" x="23.19" y="33.08" width="12.74" height="2.32"/><rect class="cls-73" x="23.19" y="29.75" width="9.34" height="3.94"/><rect class="cls-73" x="23.19" y="26.82" width="6.17" height="3.63"/><polygon class="cls-73" points="35.92 4.22 35.92 4.21 23.26 4.21 23.26 5.36 34.31 5.36 34.31 8.11 35.93 8.11 35.93 4.22 35.92 4.22"/><rect class="cls-72" x="681.19" y="4.04" width="31.11" height="31.15"/><path class="cls-73" d="M697.49,12.32a1.8,1.8,0,1,0-1.79-1.8,1.79,1.79,0,0,0,1.79,1.8"/><path class="cls-73" d="M695.7,21.3V18.48l-2.52,1.3a1,1,0,0,1-1-1.78l3.53-2.09V14.63a1.79,1.79,0,1,1,3.58,0V20.9c0,1.11-.55,1.24-1,1.58v8.58a1,1,0,1,1-2,0V23.53l-3,1.64,0,3.78a1,1,0,1,1-2,0V24.64c0-.56,1.06-1.25,1.06-1.25l3.53-2.08"/><path class="cls-73" d="M698.49,18l1.72,3.6a1,1,0,0,0,1.34.54,1,1,0,0,0,.54-1.35L699.15,14"/><path class="cls-73" d="M705.1,18.9a1.51,1.51,0,1,0-1.5-1.51,1.51,1.51,0,0,0,1.5,1.51"/><path class="cls-73" d="M705.44,25.42l-2,6.16a.7.7,0,0,1-.89.47.73.73,0,0,1-.48-.91L704,25.33"/><path class="cls-73" d="M704.37,25.42l2,6.16a.72.72,0,0,0,.9.47.73.73,0,0,0,.48-.91l-1.91-5.81"/><path class="cls-73" d="M703.77,20.55A1.26,1.26,0,0,1,705,19.29h.07a1.25,1.25,0,0,1,1.25,1.26v4.32a1.26,1.26,0,0,1-1.25,1.26H705a1.27,1.27,0,0,1-1.26-1.26Z"/><path class="cls-73" d="M703.68,22.64l-1.56-.81a.63.63,0,0,0-.87.23.65.65,0,0,0,.23.88l2.2,1.29"/><rect class="cls-73" x="695.33" y="32.67" width="16.98" height="2.51"/><rect class="cls-73" x="681.13" y="32.9" width="12.73" height="2.32"/><rect class="cls-73" x="681.13" y="29.58" width="9.34" height="3.94"/><rect class="cls-73" x="681.13" y="26.65" width="6.17" height="3.63"/><polygon class="cls-73" points="693.85 4.05 693.85 4.04 681.19 4.04 681.19 5.19 692.24 5.19 692.24 7.94 693.86 7.94 693.86 4.05 693.85 4.05"/><rect class="cls-72" x="681.34" y="125.09" width="31.11" height="31.15"/><path class="cls-73" d="M697.63,133.37a1.8,1.8,0,1,0-1.78-1.8,1.8,1.8,0,0,0,1.78,1.8"/><path class="cls-73" d="M695.85,142.34v-2.82l-2.52,1.3a1,1,0,0,1-1.4-.38,1,1,0,0,1,.38-1.4l3.53-2.08v-1.28a1.79,1.79,0,1,1,3.58,0v6.26c0,1.11-.56,1.24-1,1.58v8.59a1,1,0,0,1-2,0v-7.54l-3,1.64,0,3.79a1,1,0,1,1-2,0v-4.31c0-.57,1.06-1.25,1.06-1.25l3.53-2.09"/><path class="cls-73" d="M698.64,139.05l1.71,3.6a1,1,0,1,0,1.88-.81L699.29,135"/><path class="cls-73" d="M705.25,139.94a1.51,1.51,0,1,0-1.5-1.51,1.5,1.5,0,0,0,1.5,1.51"/><path class="cls-73" d="M705.59,146.47l-2,6.15a.72.72,0,0,1-.9.47.72.72,0,0,1-.47-.9l1.91-5.82"/><path class="cls-73" d="M704.52,146.47l2,6.15a.72.72,0,0,0,.9.47.74.74,0,0,0,.48-.9L706,146.37"/><rect class="cls-73" x="703.92" y="140.33" width="2.58" height="6.84" rx="1.25" ry="1.25"/><path class="cls-73" d="M703.83,143.69l-1.57-.81a.62.62,0,0,0-.86.23.63.63,0,0,0,.23.87l2.2,1.3"/><rect class="cls-73" x="695.47" y="153.72" width="16.98" height="2.51"/><rect class="cls-73" x="681.27" y="153.95" width="12.73" height="2.32"/><rect class="cls-73" x="681.27" y="150.63" width="9.34" height="3.94"/><rect class="cls-73" x="681.27" y="147.69" width="6.17" height="3.63"/><polygon class="cls-73" points="694 125.09 694 125.09 681.34 125.09 681.34 126.23 692.39 126.23 692.39 128.99 694.01 128.99 694.01 125.09 694 125.09"/><rect class="cls-74" x="163.67" y="130.84" width="25.51" height="25.51"/><path class="cls-33" d="M170,149.63a1.71,1.71,0,0,1-1.71-1.71v-7.41A1.72,1.72,0,0,1,170,138.8h1.14v10.83Z"/><path class="cls-33" d="M182.55,149.63a1.7,1.7,0,0,0,1.7-1.71v-7.41a1.71,1.71,0,0,0-1.7-1.71h-1.14v10.83Z"/><path class="cls-33" d="M174.86,137.52h2.85v1.28h-2.85v-1.28Zm0-.86h0a.86.86,0,0,0-.85.86v1.28h-2.28v10.83h9.11V138.8h-2.28v-1.28a.86.86,0,0,0-.85-.86Z"/><rect class="cls-74" x="134" y="130.75" width="25.51" height="25.51"/><path class="cls-33" d="M139.16,135.44c2.23,1.13,4.06,3.29,4.1,5.67v11.34h-1.71l0-10.77a6.31,6.31,0,0,0-2.78-5.57Z"/><path class="cls-33" d="M147.92,135.44c-2.23,1.13-4.06,3.29-4.1,5.67v11.34h1.71l0-10.77a6.31,6.31,0,0,1,2.78-5.57Z"/><path class="cls-33" d="M150.32,141.64c0-.71-.73-1.3-1.69-1.44l-.43-.79-.42.79c-1,.14-1.69.73-1.69,1.44s.72,1.3,1.69,1.44v9.37h.85v-9.37C149.59,142.94,150.32,142.35,150.32,141.64Zm-.75-.39h-.94v-.45A1.55,1.55,0,0,1,149.57,141.25Zm-1.79-.46v.46h-.95A1.61,1.61,0,0,1,147.78,140.79Zm-.95,1.25h.95v.45A1.55,1.55,0,0,1,146.83,142Zm1.8.45V142h.94A1.6,1.6,0,0,1,148.63,142.49Z"/><path class="cls-33" d="M155,141.64c0-.71-.73-1.3-1.7-1.44l-.42-.79-.43.79c-1,.14-1.69.73-1.69,1.44s.73,1.3,1.69,1.44v9.37h.85v-9.37C154.27,142.94,155,142.35,155,141.64Zm-.76-.39h-.94v-.45A1.52,1.52,0,0,1,154.24,141.25Zm-1.79-.46v.46h-.95A1.64,1.64,0,0,1,152.45,140.79ZM151.5,142h.95v.45A1.57,1.57,0,0,1,151.5,142Zm1.8.45V142h.94A1.57,1.57,0,0,1,153.3,142.49Z"/><rect class="cls-74" x="651.75" y="130.98" width="25.51" height="25.51"/><path class="cls-33" d="M658.11,149.77a1.7,1.7,0,0,1-1.71-1.71v-7.41a1.71,1.71,0,0,1,1.71-1.71h1.13v10.83Z"/><path class="cls-33" d="M670.63,149.77a1.7,1.7,0,0,0,1.71-1.71v-7.41a1.71,1.71,0,0,0-1.71-1.71h-1.14v10.83Z"/><path class="cls-33" d="M662.94,137.66h2.85v1.28h-2.85v-1.28Zm0-.86h0a.86.86,0,0,0-.85.86v1.28h-2.28v10.82h9.11V138.94h-2.28v-1.28a.86.86,0,0,0-.85-.86Z"/><rect class="cls-74" x="622.08" y="130.89" width="25.51" height="25.51"/><path class="cls-33" d="M627.25,135.58c2.22,1.12,4,3.29,4.09,5.67v11.34h-1.71l0-10.77a6.3,6.3,0,0,0-2.78-5.57Z"/><path class="cls-33" d="M636,135.58c-2.23,1.12-4,3.29-4.1,5.67v11.34h1.71l0-10.77a6.3,6.3,0,0,1,2.78-5.57Z"/><path class="cls-33" d="M638.4,141.78c0-.71-.73-1.3-1.69-1.44l-.42-.8-.43.8c-1,.14-1.69.73-1.69,1.44s.73,1.3,1.69,1.44v9.37h.85v-9.37C637.67,143.08,638.4,142.49,638.4,141.78Zm-.75-.39h-.94v-.45A1.55,1.55,0,0,1,637.65,141.39Zm-1.79-.46v.46h-1A1.61,1.61,0,0,1,635.86,140.93Zm-1,1.25h1v.45A1.55,1.55,0,0,1,634.91,142.18Zm1.8.45v-.45h.94A1.6,1.6,0,0,1,636.71,142.63Z"/><path class="cls-33" d="M643.08,141.78c0-.71-.73-1.3-1.7-1.44l-.42-.8-.43.8c-1,.14-1.69.73-1.69,1.44s.73,1.3,1.69,1.44v9.37h.85v-9.37C642.35,143.08,643.08,142.49,643.08,141.78Zm-.75-.39h-1v-.45A1.55,1.55,0,0,1,642.33,141.39Zm-1.8-.46v.46h-.94A1.61,1.61,0,0,1,640.53,140.93Zm-.94,1.25h.94v.45A1.55,1.55,0,0,1,639.59,142.18Zm1.79.45v-.45h1A1.6,1.6,0,0,1,641.38,142.63Z"/><rect class="cls-71" x="355.78" y="130.93" width="25.51" height="25.51"/><path class="cls-33" d="M374.24,140.06,373.08,138l-.51,1.81-1.63-2.91h0a2.64,2.64,0,0,0-2.23-1.47,2.61,2.61,0,0,0-2.21,1.38l-1.82,3.07,2.07,1.23,1.95-3.29,1.78,3.17-1.8-.5,1.16,2.06,3.44,1Z"/><path class="cls-33" d="M366.45,148.1l-3.82,0,1.85-3.13.46,1.81,1.2-2-.88-3.47-3.46.89-1.21,2,1.82-.46-1.7,2.87h0a2.66,2.66,0,0,0-.15,2.67,2.58,2.58,0,0,0,2.29,1.22l3.58,0Z"/><path class="cls-33" d="M372.19,151.89l-1.32-1.34,3.34,0h0a2.65,2.65,0,0,0,2.39-1.21,2.54,2.54,0,0,0-.09-2.59l-1.75-3.12-2.1,1.18,1.88,3.33-3.64,0,1.34-1.31-2.36,0-2.56,2.5,2.49,2.55Z"/><polyline class="cls-75" points="602.81 70.04 602.81 74.04 598.81 74.04"/><line class="cls-76" x1="589.97" y1="74.04" x2="576.72" y2="74.04"/><line class="cls-77" x1="572.3" y1="74.04" x2="506.04" y2="74.04"/><polyline class="cls-75" points="501.62 74.04 497.62 74.04 497.62 70.04"/><line class="cls-78" x1="497.62" y1="65.28" x2="497.62" y2="58.15"/><line class="cls-79" x1="497.62" y1="55.77" x2="497.62" y2="39.12"/><polyline class="cls-75" points="497.62 36.74 497.62 32.74 501.62 32.74"/><line class="cls-76" x1="510.46" y1="32.74" x2="523.71" y2="32.74"/><line class="cls-77" x1="528.13" y1="32.74" x2="594.39" y2="32.74"/><polyline class="cls-75" points="598.81 32.74 602.81 32.74 602.81 36.74"/><line class="cls-78" x1="602.81" y1="41.49" x2="602.81" y2="48.63"/><line class="cls-79" x1="602.81" y1="51.01" x2="602.81" y2="67.66"/><rect class="cls-71" x="537.3" y="130.9" width="25.51" height="25.51"/><path class="cls-33" d="M555.59,140.56l-.59.88h-1.34v-.88h-.19l-5,7.77a2.17,2.17,0,0,0-.32,1,3,3,0,0,0,2.84,2.85,2.4,2.4,0,0,0,2.06-1.1.37.37,0,0,0,0-.52c-.27-.26-.49,0-.57.11a1.63,1.63,0,0,1-1.49.71,2.19,2.19,0,0,1-1-.33,2,2,0,0,1-.79-.92c0-.08-.08-.26,0-.31a.16.16,0,0,1,.23.08,2.17,2.17,0,0,0,.69.85,1.82,1.82,0,0,0,.88.3,1.75,1.75,0,0,0,1.33-.71.67.67,0,0,1,.55-.22c.25,0,.61.35.61.65a.65.65,0,0,1-.12.43H554c.37,0,.5-.21.5-.51v-6.6a1.26,1.26,0,0,0,1.33-1.24v-2.3Z"/><path class="cls-33" d="M551.83,142.34v-3.83l1.16.09a1.16,1.16,0,0,0,1.2-.89L551.36,136a2.37,2.37,0,0,0-1.61-.41,1.46,1.46,0,0,0-1.46,1.47v1.88s-4.29,6.5-4.61,6.95a3.08,3.08,0,0,0-.6,1.85,2.15,2.15,0,0,0,2,2.13h2.6a2.72,2.72,0,0,1,0-.52,2.37,2.37,0,0,1,.27-1.05C548.06,148,551.83,142.34,551.83,142.34Zm-1.17-3.83a.78.78,0,1,1-1.56,0V137.1a.16.16,0,0,1,.17-.16.16.16,0,0,1,.16.16v1.44a.45.45,0,0,0,.89,0V137.1a.16.16,0,0,1,.16-.16.17.17,0,0,1,.18.16Z"/><line class="cls-80" x1="550.24" y1="74.6" x2="550.22" y2="131.35"/></g></g></svg>