<?xml version="1.0" encoding="utf-8"?>
<!-- Generator: Adobe Illustrator 22.0.1, SVG Export Plug-In . SVG Version: 6.00 Build 0)  -->
<svg version="1.1" id="Layer_1" xmlns="http://www.w3.org/2000/svg" xmlns:xlink="http://www.w3.org/1999/xlink" x="0px" y="0px"
	 viewBox="0 0 760 160" style="enable-background:new 0 0 760 160;" xml:space="preserve">
<style type="text/css">
	.st0{fill:#C6C6C5;stroke:#000000;stroke-width:0.25;stroke-miterlimit:10;}
	.st1{fill:#C6C6C5;}
	.st2{fill:#3D3D3C;stroke:#000000;stroke-width:0.5;stroke-miterlimit:10;}
	.st3{fill:#6DC6D9;stroke:#000000;stroke-width:0.5;stroke-miterlimit:10;}
	.st4{fill:none;stroke:#191919;stroke-width:0.75;stroke-miterlimit:10;}
	.st5{fill:none;stroke:#191919;stroke-width:1.5;stroke-miterlimit:10;}
	.st6{fill:none;stroke:#000000;stroke-width:0.5;stroke-miterlimit:10;}
	.st7{fill:none;stroke:#000000;stroke-width:0.25;stroke-linecap:round;stroke-miterlimit:10;}
	.st8{fill:#6F6F6E;stroke:#1D1D1B;stroke-width:0.5;stroke-miterlimit:10;}
	.st9{fill:#6F6F6E;stroke:#1D1D1B;stroke-width:0.5;stroke-linecap:round;stroke-miterlimit:10;}
	.st10{fill:#6F6F6E;stroke:#1D1D1B;stroke-width:0.25;stroke-linecap:round;stroke-miterlimit:10;}
	.st11{fill:#3C3C3B;stroke:#1D1D1B;stroke-width:0.25;stroke-linecap:round;stroke-miterlimit:10;}
	.st12{fill:#6F6F6E;stroke:#000000;stroke-width:0.25;stroke-miterlimit:10;}
	.st13{fill:#B1B1B1;stroke:#1D1D1B;stroke-width:0.25;stroke-miterlimit:10;}
	.st14{fill:#9D9B9B;stroke:#000000;stroke-width:0.75;stroke-miterlimit:10;}
	.st15{fill:#7B7B7A;}
	.st16{fill:#FFFFFF;}
	.st17{fill:#9D9B9B;}
	.st18{fill:none;stroke:#000000;stroke-width:0.5;stroke-miterlimit:10;stroke-dasharray:1.97,0.99;}
	.st19{fill:#9D9B9B;stroke:#000000;stroke-width:0.5;stroke-miterlimit:10;}
	.st20{fill:#3C3C3B;stroke:#000000;stroke-width:0.25;stroke-miterlimit:10;}
	.st21{fill:#ECECEC;stroke:#000000;stroke-width:0.25;stroke-miterlimit:10;}
	.st22{fill:#54ACD3;}
	.st23{fill:none;stroke:#000000;stroke-width:0.25;stroke-miterlimit:10;}
	.st24{fill:#E2E1E1;stroke:#000000;stroke-width:0.25;stroke-miterlimit:10;}
	.st25{fill:url(#SVGID_1_);stroke:#000000;stroke-width:0.25;stroke-miterlimit:10;}
	.st26{fill:#3C3C3B;stroke:#1D1D1B;stroke-width:0.25;stroke-miterlimit:10;}
	.st27{fill:#FFD421;}
	.st28{fill:#221E20;}
	.st29{fill:#29295D;}
	.st30{fill:#251A5F;}
	.st31{fill:none;stroke:#E53212;stroke-miterlimit:10;}
	.st32{fill:none;stroke:#E53212;stroke-miterlimit:10;stroke-dasharray:4.53,4.53;}
	.st33{fill:none;stroke:#E53212;stroke-miterlimit:10;stroke-dasharray:8.89,8.89;}
	.st34{fill:none;stroke:#E53212;stroke-miterlimit:10;stroke-dasharray:8.89,8.89,8.89,8.89;}
	.st35{fill:#1D1D1B;}
	.st36{fill:none;stroke:#E53212;stroke-miterlimit:10;stroke-dasharray:4.84,4.84;}
	.st37{fill:none;stroke:#E53212;stroke-miterlimit:10;stroke-dasharray:7.73,7.73;}
	.st38{fill:none;stroke:#E53212;stroke-miterlimit:10;stroke-dasharray:7.73,7.73,7.73,7.73;}
</style>
<title>Type69CII_B69C-II_vogn2_vogn69837-40 og 69842-49</title>
<metadata><?xpacket begin="﻿" id="W5M0MpCehiHzreSzNTczkc9d"?>
<x:xmpmeta xmlns:x="adobe:ns:meta/" x:xmptk="Adobe XMP Core 5.6-c143 79.161210, 2017/08/11-10:28:36        ">
   <rdf:RDF xmlns:rdf="http://www.w3.org/1999/02/22-rdf-syntax-ns#">
      <rdf:Description rdf:about=""
            xmlns:dc="http://purl.org/dc/elements/1.1/">
         <dc:title>
            <rdf:Alt>
               <rdf:li xml:lang="x-default">Type69CII_B69C-II_vogn2_vogn69837-40 og 69842-49</rdf:li>
            </rdf:Alt>
         </dc:title>
      </rdf:Description>
   </rdf:RDF>
</x:xmpmeta>
                                                                                                    
                                                                                                    
                                                                                                    
                                                                                                    
                                                                                                    
                                                                                                    
                                                                                                    
                                                                                                    
                                                                                                    
                                                                                                    
                                                                                                    
                                                                                                    
                                                                                                    
                                                                                                    
                                                                                                    
                                                                                                    
                                                                                                    
                                                                                                    
                                                                                                    
                                                                                                    
                           
<?xpacket end="w"?></metadata>
<g id="Type69CII_B69C-II_vogn2_vogn_69837-40_og_69842-49">
	<rect x="15.5" y="36.2" class="st0" width="736.1" height="87.2"/>
	<path class="st1" d="M-1.1,42.2h-0.1H-1.1z"/>
	<rect x="16.2" y="120.2" class="st2" width="2.6" height="3.5"/>
	<rect x="225.5" y="120.2" class="st3" width="312.8" height="3.6"/>
	<rect x="300.5" y="120.1" class="st2" width="18.8" height="3.5"/>
	<g id="Layer_1_1_">
		<polyline class="st0" points="15.8,92 0.7,92 0.7,67.8 15.8,67.8 		"/>
		<circle class="st4" cx="4" cy="63.2" r="3.5"/>
		<circle class="st4" cx="4" cy="96.7" r="3.6"/>
		<line class="st5" x1="7.5" y1="63.2" x2="16" y2="63.2"/>
		<line class="st5" x1="7.5" y1="96.7" x2="16" y2="96.7"/>
		<line class="st6" x1="15.6" y1="70.1" x2="15.6" y2="90"/>
	</g>
	<rect x="405.5" y="120.2" class="st2" width="18.5" height="3.5"/>
	<rect x="353.4" y="120.2" class="st2" width="17.6" height="3.5"/>
	<rect x="458.3" y="120.2" class="st2" width="18.3" height="3.5"/>
	<rect x="225.5" y="120.2" class="st2" width="40.9" height="3.5"/>
	<rect x="16.6" y="120.2" class="st3" width="167.5" height="3.6"/>
	<rect x="521.2" y="120.2" class="st3" width="230.4" height="3.6"/>
	<rect x="571.1" y="120.2" class="st2" width="23.3" height="3.5"/>
	<rect x="509.4" y="120.2" class="st2" width="33.6" height="3.5"/>
	<rect x="732" y="120.2" class="st2" width="19.6" height="3.5"/>
	<rect x="160.4" y="120.1" class="st2" width="23.6" height="3.5"/>
	<rect x="102.2" y="120.2" class="st2" width="24.2" height="3.5"/>
	<rect x="15.3" y="120.2" class="st2" width="55.8" height="3.5"/>
	<rect x="225.9" y="36.2" class="st3" width="307.1" height="3.6"/>
	<rect x="300.5" y="36.2" class="st2" width="18.8" height="3.5"/>
	<rect x="405.5" y="36.2" class="st2" width="18.5" height="3.5"/>
	<rect x="353.4" y="36.2" class="st2" width="17.6" height="3.5"/>
	<rect x="457.9" y="36.2" class="st2" width="18.6" height="3.5"/>
	<rect x="225.9" y="36.2" class="st2" width="40.6" height="3.5"/>
	<polyline class="st3" points="16.6,36.2 183.8,36.2 183.8,39.8 16.6,39.8 	"/>
	<rect x="521.5" y="36.2" class="st3" width="230" height="3.6"/>
	<rect x="571.4" y="36.2" class="st2" width="23.1" height="3.5"/>
	<rect x="732" y="36.2" class="st2" width="19.6" height="3.5"/>
	<rect x="160.4" y="36.2" class="st2" width="23.4" height="3.5"/>
	<rect x="102.3" y="36.2" class="st2" width="24.2" height="3.5"/>
	<rect x="15.3" y="36.2" class="st2" width="55.8" height="3.5"/>
	<line class="st7" x1="16.4" y1="69.7" x2="21.2" y2="88.8"/>
	<path class="st7" d="M21.2,88.8c-1.6,0.5-3.2,0.8-4.8,0.7"/>
	<rect x="742.6" y="40" class="st8" width="6.8" height="28.8"/>
	<rect x="742.6" y="93.1" class="st8" width="6.8" height="27.1"/>
	<rect x="521.4" y="39.8" class="st9" width="10.4" height="5.5"/>
	<polyline class="st10" points="183.1,39.8 183.1,53.7 173.4,53.7 173.4,39.8 	"/>
	<polyline class="st9" points="173.7,120.1 173.7,113.9 184.2,113.9 184.2,120.1 	"/>
	<rect x="226.9" y="39.8" class="st9" width="26" height="7.6"/>
	<rect x="749.4" y="39.8" class="st11" width="2.2" height="30.5"/>
	<rect x="749.4" y="90.1" class="st11" width="2.2" height="30.1"/>
	<rect x="569.1" y="34.4" class="st12" width="16.4" height="1.1"/>
	<rect x="518.2" y="34.4" class="st12" width="16.4" height="1.1"/>
	<rect x="569.1" y="125.4" class="st12" width="16.4" height="1.1"/>
	<rect x="518.2" y="125.4" class="st12" width="16.4" height="1.1"/>
	<rect x="171.9" y="34.5" class="st12" width="16.4" height="1.1"/>
	<rect x="171.9" y="125.5" class="st12" width="16.4" height="1.1"/>
	<rect x="221.6" y="125.5" class="st12" width="16.4" height="1.1"/>
	<rect x="220.1" y="34.5" class="st12" width="16.4" height="1.1"/>
	<line class="st7" x1="749.4" y1="90.1" x2="742.6" y2="70.9"/>
	<path class="st7" d="M742.6,71c2.2-0.6,4.5-0.8,6.8-0.7"/>
	<path class="st12" d="M569.1,121.7v-6.3h-3.9c-0.6,0-1.1,0.5-1.1,1.1l0,0v5.2H569.1z"/>
	<path class="st12" d="M568.8,38v6.3H565c-0.6,0-1.1-0.5-1.1-1.1c0,0,0,0,0,0V38H568.8z"/>
	<rect x="530.9" y="36.3" class="st13" width="40.7" height="8"/>
	<rect x="530.9" y="44.3" class="st13" width="40.6" height="10.3"/>
	<rect x="531" y="115.4" class="st13" width="40.3" height="8"/>
	<rect x="531" y="105.3" class="st13" width="40.2" height="10.1"/>
	<rect x="184.2" y="36.2" class="st13" width="41.8" height="8"/>
	<rect x="184.2" y="44.2" class="st13" width="41.8" height="10.3"/>
	<rect x="184.3" y="115.3" class="st13" width="41.1" height="8"/>
	<rect x="184.2" y="105.3" class="st13" width="41.2" height="10.1"/>
	<rect x="15.4" y="39.6" class="st11" width="1.6" height="30.5"/>
	<rect x="15.4" y="89.9" class="st11" width="1.6" height="30.1"/>
	<polyline class="st9" points="33.6,39.8 33.6,67.4 17,67.4 17,39.8 	"/>
	<polyline class="st9" points="33.6,120 33.6,92.4 17,92.4 17,120 	"/>
	<rect x="521.2" y="114.4" class="st9" width="10.4" height="5.6"/>
	<polygon class="st14" points="606,64.3 606,56.3 608.3,54 624.5,54 624.5,66.6 608.3,66.6 	"/>
	<polygon class="st15" points="608.4,56.6 608.4,56.6 610.5,54.4 612.1,54.4 609.9,56.6 609.9,56.6 609.9,64 609.9,64 612.1,66.2 
		610.5,66.2 608.4,64 608.4,64 	"/>
	<rect x="606.4" y="57.2" class="st16" width="1.8" height="6.2"/>
	<polygon class="st14" points="606,51.2 606,43.2 608.3,40.8 624.5,40.8 624.5,53.5 608.3,53.5 	"/>
	<polygon class="st15" points="608.4,43.5 608.4,43.5 610.5,41.3 612.1,41.3 610,43.5 610,43.5 610,50.9 610,50.9 612.1,53.1 
		610.5,53.1 608.4,50.9 608.4,50.9 	"/>
	<rect x="606.4" y="44.1" class="st16" width="1.9" height="6.2"/>
	<polygon class="st14" points="606.2,103.2 606.2,95.2 608.4,92.9 624.6,92.9 624.6,105.6 608.4,105.6 	"/>
	<polygon class="st15" points="608.5,95.5 608.5,95.5 610.7,93.3 612.2,93.3 610.1,95.5 610.1,95.5 610.1,103 610.1,103 
		612.2,105.2 610.7,105.2 608.6,103 608.5,103 	"/>
	<rect x="606.5" y="96.2" class="st16" width="1.8" height="6.2"/>
	<polygon class="st14" points="606.2,90.1 606.2,82.1 608.4,79.8 624.6,79.8 624.6,92.5 608.4,92.5 	"/>
	<polygon class="st15" points="608.5,82.4 608.5,82.4 610.7,80.2 612.2,80.2 610.1,82.4 610.1,82.4 610.1,89.9 610.1,89.9 
		612.2,92.1 610.7,92.1 608.6,89.9 608.5,89.9 	"/>
	<rect x="606.5" y="83.1" class="st16" width="1.8" height="6.2"/>
	<polygon class="st14" points="606.2,116.5 606.2,108.5 608.4,106.1 624.6,106.1 624.6,118.8 608.4,118.8 	"/>
	<polygon class="st15" points="608.5,108.8 608.5,108.8 610.7,106.6 612.2,106.6 610.1,108.8 610.1,108.8 610.1,116.2 610.1,116.2 
		612.2,118.4 610.7,118.4 608.6,116.2 608.5,116.2 	"/>
	<rect x="606.5" y="109.4" class="st16" width="1.8" height="6.2"/>
	<polygon class="st14" points="582.5,64.3 582.5,56.3 584.8,54 601,54 601,66.6 584.8,66.6 	"/>
	<polygon class="st15" points="584.9,56.6 584.9,56.6 587,54.4 588.6,54.4 586.5,56.6 586.5,56.6 586.5,64 586.5,64 588.6,66.2 
		587,66.2 584.9,64 584.9,64 	"/>
	<rect x="582.9" y="57.2" class="st16" width="1.8" height="6.2"/>
	<polygon class="st14" points="582.5,51.2 582.5,43.2 584.8,40.8 601,40.8 601,53.5 584.8,53.5 	"/>
	<polygon class="st15" points="584.9,43.5 584.9,43.5 587,41.3 588.6,41.3 586.5,43.5 586.5,43.5 586.5,50.9 586.5,50.9 588.6,53.1 
		587,53.1 584.9,50.9 584.9,50.9 	"/>
	<rect x="582.9" y="44.1" class="st16" width="1.9" height="6.2"/>
	<polygon class="st14" points="582.7,103.2 582.7,95.2 585,92.9 601.2,92.9 601.2,105.6 585,105.6 	"/>
	<polygon class="st15" points="585.1,95.5 585.1,95.5 587.2,93.3 588.8,93.3 586.7,95.5 586.7,95.5 586.7,103 586.7,103 
		588.8,105.2 587.2,105.2 585.1,103 585.1,103 	"/>
	<rect x="583.1" y="96.2" class="st16" width="1.8" height="6.2"/>
	<polygon class="st14" points="582.7,90.1 582.7,82.1 585,79.8 601.2,79.8 601.2,92.5 585,92.5 	"/>
	<polygon class="st15" points="585.1,82.4 585.1,82.4 587.2,80.2 588.8,80.2 586.7,82.4 586.7,82.4 586.7,89.9 586.7,89.9 
		588.8,92.1 587.2,92.1 585.1,89.9 585.1,89.9 	"/>
	<rect x="583.1" y="83.1" class="st16" width="1.8" height="6.2"/>
	<polygon class="st14" points="582.7,116.5 582.7,108.5 585,106.1 601.2,106.1 601.2,118.8 585,118.8 	"/>
	<polygon class="st15" points="585.1,108.8 585.1,108.8 587.2,106.6 588.8,106.6 586.7,108.8 586.7,108.8 586.7,116.2 586.7,116.2 
		588.8,118.4 587.2,118.4 585.1,116.2 585.1,116.2 	"/>
	<rect x="583.1" y="109.4" class="st16" width="1.8" height="6.2"/>
	<polygon class="st14" points="628,64.3 628,56.3 630.3,54 646.5,54 646.5,66.6 630.3,66.6 	"/>
	<polygon class="st15" points="630.4,56.6 630.4,56.6 632.5,54.4 634.1,54.4 632,56.6 632,56.6 632,64 632,64 634.1,66.2 
		632.5,66.2 630.4,64 630.4,64 	"/>
	<rect x="628.4" y="57.2" class="st16" width="1.8" height="6.2"/>
	<polygon class="st14" points="628,51.2 628,43.2 630.3,40.8 646.5,40.8 646.5,53.5 630.3,53.5 	"/>
	<polygon class="st15" points="630.4,43.5 630.4,43.5 632.6,41.3 634.1,41.3 632,43.5 632,43.5 632,50.9 632,50.9 634.1,53.1 
		632.6,53.1 630.4,50.9 630.4,50.9 	"/>
	<rect x="628.4" y="44.1" class="st16" width="1.8" height="6.2"/>
	<polygon class="st14" points="628.2,103.2 628.2,95.2 630.5,92.9 646.7,92.9 646.7,105.6 630.5,105.6 	"/>
	<polygon class="st15" points="630.6,95.5 630.6,95.5 632.7,93.3 634.3,93.3 632.2,95.5 632.2,95.5 632.2,103 632.2,103 
		634.3,105.2 632.7,105.2 630.6,103 630.6,103 	"/>
	<rect x="628.6" y="96.2" class="st16" width="1.8" height="6.2"/>
	<polygon class="st14" points="628.2,90.1 628.2,82.1 630.5,79.8 646.7,79.8 646.7,92.5 630.5,92.5 	"/>
	<polygon class="st15" points="630.6,82.4 630.6,82.4 632.7,80.2 634.3,80.2 632.2,82.4 632.2,82.4 632.2,89.9 632.2,89.9 
		634.3,92.1 632.7,92.1 630.6,89.9 630.6,89.9 	"/>
	<rect x="628.6" y="83.1" class="st16" width="1.8" height="6.2"/>
	<polygon class="st14" points="628.2,116.5 628.2,108.5 630.5,106.1 646.7,106.1 646.7,118.8 630.5,118.8 	"/>
	<polygon class="st15" points="630.6,108.8 630.6,108.8 632.7,106.6 634.3,106.6 632.2,108.8 632.2,108.8 632.2,116.2 632.2,116.2 
		634.3,118.4 632.7,118.4 630.6,116.2 630.6,116.2 	"/>
	<rect x="628.6" y="109.4" class="st16" width="1.8" height="6.2"/>
	<polygon class="st14" points="649.2,64.1 649.2,56.1 651.5,53.8 667.7,53.8 667.7,66.4 651.5,66.4 	"/>
	<polygon class="st15" points="651.6,56.4 651.6,56.4 653.7,54.2 655.3,54.2 653.2,56.4 653.2,56.4 653.2,63.8 653.2,63.8 
		655.3,66.1 653.7,66.1 651.6,63.9 651.6,63.9 	"/>
	<rect x="649.6" y="57" class="st16" width="1.8" height="6.2"/>
	<polygon class="st14" points="649.2,51 649.2,43 651.5,40.7 667.7,40.7 667.7,53.3 651.5,53.3 	"/>
	<polygon class="st15" points="651.6,43.3 651.6,43.3 653.7,41.1 655.3,41.1 653.2,43.3 653.2,43.3 653.2,50.7 653.2,50.7 655.3,53 
		653.7,53 651.6,50.8 651.6,50.8 	"/>
	<rect x="649.6" y="43.9" class="st16" width="1.8" height="6.2"/>
	<polygon class="st14" points="649.4,103.1 649.4,95.1 651.6,92.7 667.8,92.7 667.8,105.4 651.7,105.4 	"/>
	<polygon class="st15" points="651.8,95.4 651.8,95.4 653.9,93.2 655.5,93.2 653.3,95.4 653.3,95.4 653.3,102.8 653.3,102.8 
		655.5,105 653.9,105 651.8,102.8 651.8,102.8 	"/>
	<rect x="649.7" y="96" class="st16" width="1.8" height="6.2"/>
	<polygon class="st14" points="649.4,90 649.4,82 651.6,79.6 667.8,79.6 667.8,92.3 651.7,92.3 	"/>
	<polygon class="st15" points="651.8,82.3 651.8,82.3 653.9,80.1 655.5,80.1 653.3,82.3 653.3,82.3 653.3,89.7 653.3,89.7 
		655.5,91.9 653.9,91.9 651.8,89.7 651.8,89.7 	"/>
	<rect x="649.7" y="82.9" class="st16" width="1.8" height="6.2"/>
	<polygon class="st14" points="649.4,116.3 649.4,108.3 651.6,106 667.8,106 667.8,118.6 651.7,118.6 	"/>
	<polygon class="st15" points="651.8,108.6 651.8,108.6 653.9,106.4 655.5,106.4 653.3,108.6 653.3,108.6 653.3,116 653.3,116 
		655.5,118.2 653.9,118.2 651.8,116 651.8,116 	"/>
	<rect x="649.7" y="109.2" class="st16" width="1.8" height="6.2"/>
	<polygon class="st14" points="672.3,64.1 672.3,56.1 674.6,53.8 690.8,53.8 690.8,66.4 674.6,66.4 	"/>
	<polygon class="st15" points="674.7,56.4 674.7,56.4 676.8,54.2 678.4,54.2 676.3,56.4 676.3,56.4 676.3,63.8 676.3,63.8 
		678.4,66.1 676.8,66.1 674.7,63.9 674.7,63.9 	"/>
	<rect x="672.7" y="57" class="st16" width="1.8" height="6.2"/>
	<polygon class="st14" points="672.3,51 672.3,43 674.6,40.7 690.8,40.7 690.8,53.3 674.6,53.3 	"/>
	<polygon class="st15" points="674.7,43.3 674.7,43.3 676.8,41.1 678.4,41.1 676.3,43.3 676.3,43.3 676.3,50.7 676.3,50.7 678.4,53 
		676.8,53 674.7,50.8 674.7,50.8 	"/>
	<rect x="672.7" y="43.9" class="st16" width="1.8" height="6.2"/>
	<polygon class="st14" points="672.5,103.1 672.5,95.1 674.7,92.7 690.9,92.7 690.9,105.4 674.8,105.4 	"/>
	<polygon class="st15" points="674.8,95.4 674.8,95.4 677,93.2 678.5,93.2 676.4,95.4 676.4,95.4 676.4,102.8 676.4,102.8 
		678.5,105 677,105 674.9,102.8 674.8,102.8 	"/>
	<rect x="672.8" y="96" class="st16" width="1.8" height="6.2"/>
	<polygon class="st14" points="672.5,90 672.5,82 674.7,79.6 690.9,79.6 690.9,92.3 674.8,92.3 	"/>
	<polygon class="st15" points="674.8,82.3 674.8,82.3 677,80.1 678.5,80.1 676.4,82.3 676.4,82.3 676.4,89.7 676.4,89.7 678.5,91.9 
		677,91.9 674.9,89.7 674.8,89.7 	"/>
	<rect x="672.8" y="82.9" class="st16" width="1.8" height="6.2"/>
	<polygon class="st14" points="672.5,116.3 672.5,108.3 674.7,106 690.9,106 690.9,118.6 674.8,118.6 	"/>
	<polygon class="st15" points="674.8,108.6 674.8,108.6 677,106.4 678.5,106.4 676.4,108.6 676.4,108.6 676.4,116 676.4,116 
		678.5,118.2 677,118.2 674.9,116 674.8,116 	"/>
	<rect x="672.8" y="109.2" class="st16" width="1.8" height="6.2"/>
	<polygon class="st14" points="696.5,64.1 696.5,56.1 698.7,53.8 714.9,53.8 714.9,66.4 698.8,66.4 	"/>
	<polygon class="st15" points="698.8,56.4 698.8,56.4 701,54.2 702.5,54.2 700.4,56.4 700.4,56.4 700.4,63.8 700.4,63.8 702.5,66.1 
		701,66.1 698.9,63.9 698.8,63.9 	"/>
	<rect x="696.8" y="57" class="st16" width="1.8" height="6.2"/>
	<polygon class="st14" points="696.5,51 696.5,43 698.7,40.7 714.9,40.7 714.9,53.3 698.8,53.3 	"/>
	<polygon class="st15" points="698.8,43.3 698.9,43.3 701,41.1 702.6,41.1 700.4,43.3 700.4,43.3 700.4,50.7 700.4,50.7 702.6,53 
		701,53 698.9,50.8 698.8,50.8 	"/>
	<rect x="696.8" y="43.9" class="st16" width="1.8" height="6.2"/>
	<polygon class="st14" points="170.6,64.1 170.6,56.1 168.4,53.8 152.2,53.8 152.2,66.4 168.3,66.4 	"/>
	<polygon class="st15" points="168.3,56.4 168.3,56.4 166.1,54.2 164.6,54.2 166.7,56.4 166.7,56.4 166.7,63.8 166.7,63.8 
		164.6,66.1 166.1,66.1 168.2,63.9 168.3,63.9 	"/>
	<rect x="168.4" y="57" class="st16" width="1.9" height="6.2"/>
	<polygon class="st14" points="170.6,51 170.6,43 168.4,40.7 152.2,40.7 152.2,53.3 168.3,53.3 	"/>
	<polygon class="st15" points="168.2,43.3 168.2,43.3 166.1,41.1 164.5,41.1 166.7,43.3 166.7,43.3 166.7,50.7 166.7,50.7 164.5,53 
		166.1,53 168.2,50.8 168.2,50.8 	"/>
	<rect x="168.4" y="43.9" class="st16" width="1.9" height="6.2"/>
	<polygon class="st14" points="170.5,103.1 170.5,95.1 168.2,92.7 152,92.7 152,105.4 168.2,105.4 	"/>
	<polygon class="st15" points="168.1,95.4 168.1,95.4 166,93.2 164.4,93.2 166.5,95.4 166.5,95.4 166.5,102.8 166.5,102.8 
		164.4,105 166,105 168.1,102.8 168.1,102.8 	"/>
	<rect x="168.2" y="96" class="st16" width="1.9" height="6.2"/>
	<polygon class="st14" points="170.5,90 170.5,82 168.2,79.6 152,79.6 152,92.3 168.2,92.3 	"/>
	<polygon class="st15" points="168.1,82.3 168.1,82.3 166,80.1 164.4,80.1 166.5,82.3 166.5,82.3 166.5,89.7 166.5,89.7 164.4,91.9 
		166,91.9 168.1,89.7 168.1,89.7 	"/>
	<rect x="168.2" y="82.9" class="st16" width="1.9" height="6.2"/>
	<polygon class="st14" points="170.5,116.3 170.5,108.3 168.2,106 152,106 152,118.6 168.2,118.6 	"/>
	<polygon class="st15" points="168.1,108.6 168.1,108.6 166,106.4 164.4,106.4 166.5,108.6 166.5,108.6 166.5,116 166.5,116 
		164.4,118.2 166,118.2 168.1,116 168.1,116 	"/>
	<rect x="168.2" y="109.2" class="st16" width="1.9" height="6.2"/>
	<polygon class="st14" points="126.9,64.1 126.9,56.1 124.6,53.8 108.4,53.8 108.4,66.4 124.6,66.4 	"/>
	<polygon class="st15" points="124.5,56.4 124.5,56.4 122.4,54.2 120.8,54.2 122.9,56.4 122.9,56.4 122.9,63.8 122.9,63.8 
		120.8,66.1 122.4,66.1 124.5,63.9 124.5,63.9 	"/>
	<rect x="124.6" y="57" class="st16" width="1.9" height="6.2"/>
	<polygon class="st14" points="126.9,51 126.9,43 124.6,40.7 108.4,40.7 108.4,53.3 124.6,53.3 	"/>
	<polygon class="st15" points="124.5,43.3 124.5,43.3 122.4,41.1 120.8,41.1 122.9,43.3 122.9,43.3 122.9,50.7 122.9,50.7 120.8,53 
		122.4,53 124.5,50.8 124.5,50.8 	"/>
	<rect x="124.6" y="43.9" class="st16" width="1.9" height="6.2"/>
	<polygon class="st14" points="126.7,103.1 126.7,95.1 124.4,92.7 108.2,92.7 108.2,105.4 124.4,105.4 	"/>
	<polygon class="st15" points="124.3,95.4 124.3,95.4 122.2,93.2 120.6,93.2 122.7,95.4 122.7,95.4 122.7,102.8 122.7,102.8 
		120.6,105 122.2,105 124.3,102.8 124.3,102.8 	"/>
	<rect x="124.5" y="96" class="st16" width="1.9" height="6.2"/>
	<polygon class="st14" points="126.7,90 126.7,82 124.4,79.6 108.2,79.6 108.2,92.3 124.4,92.3 	"/>
	<polygon class="st15" points="124.3,82.3 124.3,82.3 122.2,80.1 120.6,80.1 122.7,82.3 122.7,82.3 122.7,89.7 122.7,89.7 
		120.6,91.9 122.2,91.9 124.3,89.7 124.3,89.7 	"/>
	<rect x="124.5" y="82.9" class="st16" width="1.9" height="6.2"/>
	<polygon class="st14" points="126.7,116.3 126.7,108.3 124.4,106 108.2,106 108.2,118.6 124.4,118.6 	"/>
	<polygon class="st15" points="124.3,108.6 124.3,108.6 122.2,106.4 120.6,106.4 122.7,108.6 122.7,108.6 122.7,116 122.7,116 
		120.6,118.2 122.2,118.2 124.3,116 124.3,116 	"/>
	<rect x="124.5" y="109.2" class="st16" width="1.9" height="6.2"/>
	<polygon class="st14" points="148.4,64.1 148.4,56.1 146.1,53.8 129.9,53.8 129.9,66.4 146.1,66.4 	"/>
	<polygon class="st15" points="146,56.4 146,56.4 143.9,54.2 142.3,54.2 144.4,56.4 144.4,56.4 144.4,63.8 144.4,63.8 142.3,66.1 
		143.9,66.1 146,63.9 146,63.9 	"/>
	<rect x="146.2" y="57" class="st16" width="1.9" height="6.2"/>
	<polygon class="st14" points="148.4,51 148.4,43 146.1,40.7 129.9,40.7 129.9,53.3 146.1,53.3 	"/>
	<polygon class="st15" points="146,43.3 146,43.3 143.9,41.1 142.3,41.1 144.4,43.3 144.4,43.3 144.4,50.7 144.4,50.7 142.3,53 
		143.9,53 146,50.8 146,50.8 	"/>
	<rect x="146.2" y="43.9" class="st16" width="1.9" height="6.2"/>
	<polygon class="st14" points="148.2,103.1 148.2,95.1 146,92.7 129.8,92.7 129.8,105.4 145.9,105.4 	"/>
	<polygon class="st15" points="145.8,95.4 145.8,95.4 143.7,93.2 142.1,93.2 144.3,95.4 144.3,95.4 144.3,102.8 144.3,102.8 
		142.1,105 143.7,105 145.8,102.8 145.8,102.8 	"/>
	<rect x="146" y="96" class="st16" width="1.9" height="6.2"/>
	<polygon class="st14" points="148.2,90 148.2,82 146,79.6 129.8,79.6 129.8,92.3 145.9,92.3 	"/>
	<polygon class="st15" points="145.9,82.3 145.8,82.3 143.7,80.1 142.1,80.1 144.3,82.3 144.3,82.3 144.3,89.7 144.3,89.7 
		142.1,91.9 143.7,91.9 145.8,89.7 145.9,89.7 	"/>
	<rect x="146" y="82.9" class="st16" width="1.9" height="6.2"/>
	<polygon class="st14" points="148.2,116.3 148.2,108.3 146,106 129.8,106 129.8,118.6 145.9,118.6 	"/>
	<polygon class="st15" points="145.8,108.6 145.8,108.6 143.7,106.4 142.1,106.4 144.3,108.6 144.3,108.6 144.3,116 144.3,116 
		142.1,118.2 143.7,118.2 145.8,116 145.8,116 	"/>
	<rect x="146" y="109.2" class="st16" width="1.9" height="6.2"/>
	<polygon class="st14" points="103.8,64.1 103.8,56.1 101.5,53.8 85.3,53.8 85.3,66.4 101.5,66.4 	"/>
	<polygon class="st15" points="101.4,56.4 101.4,56.4 99.3,54.2 97.7,54.2 99.9,56.4 99.9,56.4 99.9,63.8 99.9,63.8 97.7,66.1 
		99.3,66.1 101.4,63.9 101.4,63.9 	"/>
	<rect x="101.6" y="57" class="st16" width="1.8" height="6.2"/>
	<polygon class="st14" points="103.8,51 103.8,43 101.5,40.7 85.3,40.7 85.3,53.3 101.5,53.3 	"/>
	<polygon class="st15" points="101.4,43.3 101.4,43.3 99.3,41.1 97.7,41.1 99.8,43.3 99.9,43.3 99.9,50.7 99.8,50.7 97.7,53 
		99.3,53 101.4,50.8 101.4,50.8 	"/>
	<rect x="101.6" y="43.9" class="st16" width="1.8" height="6.2"/>
	<polygon class="st14" points="103.7,103.1 103.7,95.1 101.4,92.7 85.2,92.7 85.2,105.4 101.4,105.4 	"/>
	<polygon class="st15" points="101.3,95.4 101.3,95.4 99.1,93.2 97.6,93.2 99.7,95.4 99.7,95.4 99.7,102.8 99.7,102.8 97.6,105 
		99.1,105 101.2,102.8 101.3,102.8 	"/>
	<rect x="101.4" y="96" class="st16" width="1.8" height="6.2"/>
	<polygon class="st14" points="103.7,90 103.7,82 101.4,79.6 85.2,79.6 85.2,92.3 101.4,92.3 	"/>
	<polygon class="st15" points="101.3,82.3 101.3,82.3 99.1,80.1 97.6,80.1 99.7,82.3 99.7,82.3 99.7,89.7 99.7,89.7 97.6,91.9 
		99.1,91.9 101.2,89.7 101.3,89.7 	"/>
	<rect x="101.4" y="82.9" class="st16" width="1.8" height="6.2"/>
	<polygon class="st14" points="103.7,116.3 103.7,108.3 101.4,106 85.2,106 85.2,118.6 101.4,118.6 	"/>
	<polygon class="st15" points="101.3,108.6 101.3,108.6 99.1,106.4 97.6,106.4 99.7,108.6 99.7,108.6 99.7,116 99.7,116 97.6,118.2 
		99.1,118.2 101.2,116 101.3,116 	"/>
	<rect x="101.4" y="109.2" class="st16" width="1.8" height="6.2"/>
	<polygon class="st14" points="82.2,64.1 82.2,56.1 79.9,53.8 63.7,53.8 63.7,66.4 79.9,66.4 	"/>
	<polygon class="st15" points="79.8,56.4 79.8,56.4 77.7,54.2 76.1,54.2 78.2,56.4 78.2,56.4 78.2,63.8 78.2,63.8 76.1,66.1 
		77.7,66.1 79.8,63.9 79.8,63.9 	"/>
	<rect x="80" y="57" class="st16" width="1.8" height="6.2"/>
	<polygon class="st14" points="82.2,51 82.2,43 79.9,40.7 63.7,40.7 63.7,53.3 79.9,53.3 	"/>
	<polygon class="st15" points="79.8,43.3 79.8,43.3 77.7,41.1 76.1,41.1 78.2,43.3 78.2,43.3 78.2,50.7 78.2,50.7 76.1,53 77.7,53 
		79.8,50.8 79.8,50.8 	"/>
	<rect x="80" y="43.9" class="st16" width="1.8" height="6.2"/>
	<polygon class="st14" points="82,103.1 82,95.1 79.7,92.7 63.6,92.7 63.6,105.4 79.7,105.4 	"/>
	<polygon class="st15" points="79.6,95.4 79.6,95.4 77.5,93.2 75.9,93.2 78.1,95.4 78.1,95.4 78.1,102.8 78.1,102.8 75.9,105 
		77.5,105 79.6,102.8 79.6,102.8 	"/>
	<rect x="79.8" y="96" class="st16" width="1.8" height="6.2"/>
	<polygon class="st14" points="82,90 82,82 79.8,79.6 63.6,79.6 63.6,92.3 79.7,92.3 	"/>
	<polygon class="st15" points="79.6,82.3 79.6,82.3 77.5,80.1 75.9,80.1 78.1,82.3 78.1,82.3 78.1,89.7 78.1,89.7 75.9,91.9 
		77.5,91.9 79.6,89.7 79.6,89.7 	"/>
	<rect x="79.8" y="82.9" class="st16" width="1.8" height="6.2"/>
	<polygon class="st14" points="82,116.3 82,108.3 79.8,106 63.6,106 63.6,118.6 79.7,118.6 	"/>
	<polygon class="st15" points="79.6,108.6 79.6,108.6 77.5,106.4 75.9,106.4 78.1,108.6 78.1,108.6 78.1,116 78.1,116 75.9,118.2 
		77.5,118.2 79.6,116 79.6,116 	"/>
	<rect x="79.8" y="109.2" class="st16" width="1.8" height="6.2"/>
	<polygon class="st14" points="517.8,64.6 517.8,56.6 515.5,54.3 499.3,54.3 499.3,67 515.5,67 	"/>
	<polygon class="st15" points="515.4,56.9 515.4,56.9 513.3,54.7 511.7,54.7 513.8,56.9 513.8,56.9 513.8,64.4 513.8,64.4 
		511.7,66.6 513.3,66.6 515.4,64.4 515.4,64.4 	"/>
	<rect x="515.6" y="57.5" class="st16" width="1.8" height="6.2"/>
	<polygon class="st14" points="517.8,51.5 517.8,43.5 515.5,41.2 499.3,41.2 499.3,53.9 515.5,53.9 	"/>
	<polygon class="st15" points="515.4,43.8 515.4,43.8 513.3,41.6 511.7,41.6 513.8,43.8 513.8,43.8 513.8,51.3 513.8,51.3 
		511.7,53.5 513.3,53.5 515.4,51.3 515.4,51.3 	"/>
	<rect x="515.6" y="44.5" class="st16" width="1.8" height="6.2"/>
	<polygon class="st14" points="517.6,103.6 517.6,95.6 515.3,93.3 499.1,93.3 499.1,105.9 515.3,105.9 	"/>
	<polygon class="st15" points="515.2,95.9 515.2,95.9 513.1,93.7 511.5,93.7 513.7,95.9 513.7,95.9 513.7,103.3 513.7,103.3 
		511.5,105.5 513.1,105.5 515.2,103.3 515.2,103.3 	"/>
	<rect x="515.4" y="96.5" class="st16" width="1.8" height="6.2"/>
	<polygon class="st14" points="517.6,90.5 517.6,82.5 515.3,80.2 499.1,80.2 499.1,92.8 515.3,92.8 	"/>
	<polygon class="st15" points="515.2,82.8 515.2,82.8 513.1,80.6 511.5,80.6 513.7,82.8 513.7,82.8 513.7,90.2 513.7,90.2 
		511.5,92.4 513.1,92.4 515.2,90.2 515.2,90.2 	"/>
	<rect x="515.4" y="83.4" class="st16" width="1.8" height="6.2"/>
	<polygon class="st14" points="517.6,116.8 517.6,108.8 515.3,106.5 499.1,106.5 499.1,119.2 515.3,119.2 	"/>
	<polygon class="st15" points="515.2,109.1 515.2,109.1 513.1,106.9 511.5,106.9 513.7,109.1 513.7,109.1 513.7,116.6 513.7,116.6 
		511.5,118.8 513.1,118.8 515.2,116.6 515.2,116.6 	"/>
	<rect x="515.4" y="109.7" class="st16" width="1.8" height="6.2"/>
	<polygon class="st14" points="420.6,64.6 420.6,56.6 418.3,54.3 402.1,54.3 402.1,67 418.3,67 	"/>
	<polygon class="st15" points="418.2,56.9 418.2,56.9 416.1,54.7 414.5,54.7 416.6,56.9 416.6,56.9 416.6,64.4 416.6,64.4 
		414.5,66.6 416.1,66.6 418.2,64.4 418.2,64.4 	"/>
	<rect x="418.4" y="57.5" class="st16" width="1.9" height="6.2"/>
	<polygon class="st14" points="420.6,51.5 420.6,43.5 418.3,41.2 402.1,41.2 402.1,53.9 418.3,53.9 	"/>
	<polygon class="st15" points="418.2,43.8 418.2,43.8 416.1,41.6 414.5,41.6 416.6,43.8 416.6,43.8 416.6,51.3 416.6,51.3 
		414.5,53.5 416.1,53.5 418.2,51.3 418.2,51.3 	"/>
	<rect x="418.4" y="44.5" class="st16" width="1.9" height="6.2"/>
	<polygon class="st14" points="396.4,64.6 396.4,56.6 394.1,54.3 377.9,54.3 377.9,67 394.1,67 	"/>
	<polygon class="st15" points="394,56.9 394,56.9 391.9,54.7 390.3,54.7 392.4,56.9 392.5,56.9 392.5,64.4 392.4,64.4 390.3,66.6 
		391.9,66.6 394,64.4 394,64.4 	"/>
	<rect x="394.2" y="57.5" class="st16" width="1.9" height="6.2"/>
	<polygon class="st14" points="396.4,51.5 396.4,43.5 394.1,41.2 377.9,41.2 377.9,53.9 394.1,53.9 	"/>
	<polygon class="st15" points="394,43.8 394,43.8 391.9,41.6 390.3,41.6 392.4,43.8 392.4,43.8 392.4,51.3 392.4,51.3 390.3,53.5 
		391.9,53.5 394,51.3 394,51.3 	"/>
	<rect x="394.2" y="44.5" class="st16" width="1.9" height="6.2"/>
	<polygon class="st14" points="373,64.6 373,56.6 370.7,54.3 354.5,54.3 354.5,67 370.7,67 	"/>
	<polygon class="st15" points="370.6,56.9 370.6,56.9 368.4,54.7 366.9,54.7 369,56.9 369,56.9 369,64.4 369,64.4 366.9,66.6 
		368.4,66.6 370.5,64.4 370.6,64.4 	"/>
	<rect x="370.7" y="57.5" class="st16" width="1.9" height="6.2"/>
	<polygon class="st14" points="372.9,51.5 372.9,43.5 370.7,41.2 354.5,41.2 354.5,53.9 370.6,53.9 	"/>
	<polygon class="st15" points="370.6,43.8 370.5,43.8 368.4,41.6 366.8,41.6 369,43.8 369,43.8 369,51.3 369,51.3 366.8,53.5 
		368.4,53.5 370.5,51.3 370.6,51.3 	"/>
	<rect x="370.7" y="44.5" class="st16" width="1.9" height="6.2"/>
	<polygon class="st14" points="354.5,103 354.5,95 356.7,92.7 372.9,92.7 372.9,105.4 356.8,105.4 	"/>
	<polygon class="st15" points="356.9,95.3 356.9,95.3 359,93.1 360.6,93.1 358.4,95.3 358.4,95.3 358.4,102.8 358.4,102.8 
		360.6,105 359,105 356.9,102.8 356.9,102.8 	"/>
	<rect x="354.8" y="95.9" class="st16" width="1.9" height="6.2"/>
	<polygon class="st14" points="354.5,89.9 354.5,81.9 356.7,79.6 372.9,79.6 372.9,92.3 356.8,92.3 	"/>
	<polygon class="st15" points="356.8,82.2 356.9,82.2 359,80 360.6,80 358.4,82.2 358.4,82.2 358.4,89.7 358.4,89.7 360.6,91.9 
		359,91.9 356.9,89.7 356.8,89.7 	"/>
	<rect x="354.8" y="82.8" class="st16" width="1.9" height="6.2"/>
	<polygon class="st14" points="354.5,116.2 354.5,108.2 356.7,105.9 372.9,105.9 372.9,118.6 356.8,118.6 	"/>
	<polygon class="st15" points="356.9,108.6 356.9,108.6 359,106.3 360.6,106.3 358.4,108.6 358.4,108.6 358.4,116 358.4,116 
		360.6,118.2 359,118.2 356.9,116 356.9,116 	"/>
	<rect x="354.8" y="109.2" class="st16" width="1.9" height="6.2"/>
	<polygon class="st14" points="330.7,103.1 330.7,95.1 332.9,92.7 349.1,92.7 349.1,105.4 333,105.4 	"/>
	<polygon class="st15" points="333.1,95.4 333.1,95.4 335.2,93.2 336.8,93.2 334.6,95.4 334.6,95.4 334.6,102.8 334.6,102.8 
		336.8,105 335.2,105 333.1,102.8 333.1,102.8 	"/>
	<rect x="331" y="96" class="st16" width="1.9" height="6.2"/>
	<polygon class="st14" points="330.7,90 330.7,82 332.9,79.6 349.1,79.6 349.1,92.3 333,92.3 	"/>
	<polygon class="st15" points="333.1,82.3 333.1,82.3 335.2,80.1 336.8,80.1 334.6,82.3 334.6,82.3 334.6,89.7 334.6,89.7 
		336.8,91.9 335.2,91.9 333.1,89.7 333.1,89.7 	"/>
	<rect x="331" y="82.9" class="st16" width="1.9" height="6.2"/>
	<polygon class="st14" points="330.7,116.3 330.7,108.3 332.9,106 349.1,106 349.1,118.6 333,118.6 	"/>
	<polygon class="st15" points="333.1,108.6 333.1,108.6 335.2,106.4 336.8,106.4 334.6,108.6 334.6,108.6 334.6,116 334.6,116 
		336.8,118.2 335.2,118.2 333.1,116 333.1,116 	"/>
	<rect x="331" y="109.2" class="st16" width="1.9" height="6.2"/>
	<polygon class="st14" points="377.9,103.1 377.9,95.1 380.2,92.8 396.4,92.8 396.4,105.4 380.2,105.4 	"/>
	<polygon class="st15" points="380.3,95.4 380.3,95.4 382.5,93.2 384,93.2 381.9,95.4 381.9,95.4 381.9,102.8 381.9,102.8 384,105 
		382.5,105 380.3,102.8 380.3,102.8 	"/>
	<rect x="378.3" y="96" class="st16" width="1.9" height="6.2"/>
	<polygon class="st14" points="377.9,90 377.9,82 380.2,79.7 396.4,79.7 396.4,92.3 380.2,92.3 	"/>
	<polygon class="st15" points="380.3,82.3 380.3,82.3 382.4,80.1 384,80.1 381.9,82.3 381.9,82.3 381.9,89.7 381.9,89.7 384,91.9 
		382.4,91.9 380.3,89.7 380.3,89.7 	"/>
	<rect x="378.3" y="82.9" class="st16" width="1.9" height="6.2"/>
	<polygon class="st14" points="377.9,116.3 377.9,108.3 380.2,106 396.4,106 396.4,118.6 380.2,118.6 	"/>
	<polygon class="st15" points="380.3,108.6 380.3,108.6 382.5,106.4 384,106.4 381.9,108.6 381.9,108.6 381.9,116 381.9,116 
		384,118.2 382.5,118.2 380.3,116.1 380.3,116.1 	"/>
	<rect x="378.3" y="109.2" class="st16" width="1.9" height="6.2"/>
	<polygon class="st14" points="444.7,64.7 444.7,56.7 442.4,54.4 426.2,54.4 426.2,67 442.4,67 	"/>
	<polygon class="st15" points="442.3,57 442.3,57 440.2,54.8 438.6,54.8 440.7,57 440.7,57 440.7,64.4 440.7,64.4 438.6,66.6 
		440.2,66.6 442.3,64.4 442.3,64.4 	"/>
	<rect x="442.5" y="57" class="st16" width="1.9" height="6.2"/>
	<polygon class="st14" points="444.7,51.6 444.7,43.6 442.4,41.3 426.2,41.3 426.2,53.9 442.4,53.9 	"/>
	<polygon class="st15" points="442.3,43.9 442.3,43.9 440.2,41.7 438.6,41.7 440.7,43.9 440.7,43.9 440.7,51.3 440.7,51.3 
		438.6,53.5 440.2,53.5 442.3,51.3 442.3,51.3 	"/>
	<rect x="442.4" y="43.9" class="st16" width="1.9" height="6.2"/>
	<polygon class="st14" points="470.2,64.7 470.2,56.7 467.9,54.4 451.7,54.4 451.7,67 467.9,67 	"/>
	<polygon class="st15" points="467.8,57 467.8,57 465.7,54.8 464.1,54.8 466.3,57 466.3,57 466.3,64.4 466.3,64.4 464.1,66.6 
		465.7,66.6 467.8,64.4 467.8,64.4 	"/>
	<rect x="468" y="57.6" class="st16" width="1.9" height="6.2"/>
	<polygon class="st14" points="470.2,51.6 470.2,43.6 467.9,41.3 451.7,41.3 451.7,53.9 467.9,53.9 	"/>
	<polygon class="st15" points="467.8,43.9 467.8,43.9 465.7,41.7 464.1,41.7 466.2,43.9 466.3,43.9 466.3,51.3 466.2,51.3 
		464.1,53.5 465.7,53.5 467.8,51.3 467.8,51.3 	"/>
	<rect x="468" y="44.5" class="st16" width="1.9" height="6.2"/>
	<polygon class="st14" points="493.2,64.9 493.2,56.9 490.9,54.6 474.7,54.6 474.7,67.2 490.9,67.2 	"/>
	<polygon class="st15" points="490.8,57.2 490.8,57.2 488.6,55 487.1,55 489.2,57.2 489.2,57.2 489.2,64.7 489.2,64.7 487.1,66.9 
		488.6,66.9 490.8,64.7 490.8,64.7 	"/>
	<rect x="490.9" y="57.8" class="st16" width="1.8" height="6.2"/>
	<polygon class="st14" points="493.2,51.8 493.2,43.8 490.9,41.5 474.7,41.5 474.7,54.2 490.9,54.2 	"/>
	<polygon class="st15" points="490.8,44.1 490.8,44.1 488.6,41.9 487.1,41.9 489.2,44.1 489.2,44.1 489.2,51.5 489.2,51.5 
		487.1,53.8 488.6,53.8 490.7,51.6 490.8,51.6 	"/>
	<rect x="490.9" y="44.7" class="st16" width="1.8" height="6.2"/>
	<polygon class="st14" points="402.1,103.1 402.1,95.1 404.4,92.7 420.6,92.7 420.6,105.4 404.4,105.4 	"/>
	<polygon class="st15" points="404.5,95.4 404.5,95.4 406.6,93.2 408.2,93.2 406.1,95.4 406.1,95.4 406.1,102.8 406.1,102.8 
		408.2,105 406.6,105 404.5,102.8 404.5,102.8 	"/>
	<rect x="402.5" y="96" class="st16" width="1.9" height="6.2"/>
	<polygon class="st14" points="402.1,90 402.1,82 404.4,79.6 420.6,79.6 420.6,92.3 404.4,92.3 	"/>
	<polygon class="st15" points="404.5,82.3 404.5,82.3 406.6,80.1 408.2,80.1 406.1,82.3 406.1,82.3 406.1,89.7 406.1,89.7 
		408.2,91.9 406.6,91.9 404.5,89.7 404.5,89.7 	"/>
	<rect x="402.5" y="82.9" class="st16" width="1.9" height="6.2"/>
	<polygon class="st14" points="402.1,116.3 402.1,108.3 404.4,106 420.6,106 420.6,118.6 404.4,118.6 	"/>
	<polygon class="st15" points="404.5,108.6 404.5,108.6 406.6,106.4 408.2,106.4 406.1,108.6 406.1,108.6 406.1,116 406.1,116 
		408.2,118.2 406.6,118.2 404.5,116 404.5,116 	"/>
	<rect x="402.5" y="109.2" class="st16" width="1.9" height="6.2"/>
	<polygon class="st14" points="426.2,103.6 426.2,95.6 428.5,93.3 444.7,93.3 444.7,105.9 428.5,105.9 	"/>
	<polygon class="st15" points="428.6,95.9 428.6,95.9 430.7,93.7 432.3,93.7 430.2,95.9 430.2,95.9 430.2,103.3 430.2,103.3 
		432.3,105.5 430.7,105.5 428.6,103.3 428.6,103.3 	"/>
	<rect x="426.6" y="96.5" class="st16" width="1.9" height="6.2"/>
	<polygon class="st14" points="426.2,90.5 426.2,82.5 428.5,80.2 444.7,80.2 444.7,92.8 428.5,92.8 	"/>
	<polygon class="st15" points="428.6,82.8 428.6,82.8 430.7,80.6 432.3,80.6 430.2,82.8 430.2,82.8 430.2,90.2 430.2,90.2 
		432.3,92.4 430.7,92.4 428.6,90.2 428.6,90.2 	"/>
	<rect x="426.6" y="83.4" class="st16" width="1.9" height="6.2"/>
	<polygon class="st14" points="426.2,116.8 426.2,108.8 428.5,106.5 444.7,106.5 444.7,119.2 428.5,119.2 	"/>
	<polygon class="st15" points="428.6,109.1 428.6,109.1 430.7,106.9 432.3,106.9 430.2,109.1 430.2,109.1 430.2,116.5 430.2,116.5 
		432.3,118.8 430.7,118.8 428.6,116.6 428.6,116.6 	"/>
	<rect x="426.6" y="109.7" class="st16" width="1.9" height="6.2"/>
	<polygon class="st14" points="451.3,103.6 451.3,95.6 453.5,93.3 469.7,93.3 469.7,105.9 453.6,105.9 	"/>
	<polygon class="st15" points="453.7,95.9 453.7,95.9 455.8,93.7 457.4,93.7 455.2,95.9 455.2,95.9 455.2,103.3 455.2,103.3 
		457.4,105.5 455.8,105.5 453.7,103.3 453.7,103.3 	"/>
	<rect x="451.6" y="96.5" class="st16" width="1.9" height="6.2"/>
	<polygon class="st14" points="451.3,90.5 451.3,82.5 453.5,80.2 469.7,80.2 469.7,92.8 453.6,92.8 	"/>
	<polygon class="st15" points="453.6,82.8 453.7,82.8 455.8,80.6 457.4,80.6 455.2,82.8 455.2,82.8 455.2,90.2 455.2,90.2 
		457.4,92.4 455.8,92.4 453.7,90.2 453.6,90.2 	"/>
	<rect x="451.6" y="83.4" class="st16" width="1.9" height="6.2"/>
	<polygon class="st14" points="451.3,116.8 451.3,108.8 453.5,106.5 469.7,106.5 469.7,119.2 453.6,119.2 	"/>
	<polygon class="st15" points="453.7,109.1 453.7,109.1 455.8,106.9 457.4,106.9 455.2,109.1 455.2,109.1 455.2,116.5 455.2,116.5 
		457.4,118.8 455.8,118.8 453.7,116.6 453.7,116.6 	"/>
	<rect x="451.6" y="109.7" class="st16" width="1.9" height="6.2"/>
	<polygon class="st14" points="474.3,103.6 474.3,95.6 476.6,93.3 492.7,93.3 492.7,105.9 476.6,105.9 	"/>
	<polygon class="st15" points="476.7,95.9 476.7,95.9 478.8,93.7 480.4,93.7 478.2,95.9 478.2,95.9 478.2,103.3 478.2,103.3 
		480.4,105.5 478.8,105.5 476.7,103.3 476.7,103.3 	"/>
	<rect x="474.6" y="96.5" class="st16" width="1.9" height="6.2"/>
	<polygon class="st14" points="474.3,90.5 474.3,82.5 476.6,80.2 492.7,80.2 492.7,92.8 476.6,92.8 	"/>
	<polygon class="st15" points="476.7,82.8 476.7,82.8 478.8,80.6 480.4,80.6 478.2,82.8 478.2,82.8 478.2,90.2 478.2,90.2 
		480.4,92.4 478.8,92.4 476.7,90.2 476.7,90.2 	"/>
	<rect x="474.6" y="83.4" class="st16" width="1.9" height="6.2"/>
	<polygon class="st14" points="474.3,116.8 474.3,108.8 476.6,106.5 492.7,106.5 492.7,119.2 476.6,119.2 	"/>
	<polygon class="st15" points="476.7,109.1 476.7,109.1 478.8,106.9 480.4,106.9 478.2,109.1 478.2,109.1 478.2,116.5 478.2,116.5 
		480.4,118.8 478.8,118.8 476.7,116.6 476.7,116.6 	"/>
	<rect x="474.6" y="109.7" class="st16" width="1.9" height="6.2"/>
	<polygon class="st14" points="474.7,103.5 474.7,95.5 477,93.2 493.2,93.2 493.2,105.9 477,105.9 	"/>
	<polygon class="st15" points="477.1,95.8 477.1,95.8 479.2,93.6 480.8,93.6 478.7,95.8 478.7,95.8 478.7,103.3 478.7,103.3 
		480.8,105.5 479.2,105.5 477.1,103.3 477.1,103.3 	"/>
	<rect x="475.1" y="96.5" class="st16" width="1.9" height="6.2"/>
	<polygon class="st14" points="474.7,90.4 474.7,82.4 477,80.1 493.2,80.1 493.2,92.8 477,92.8 	"/>
	<polygon class="st15" points="477.1,82.7 477.1,82.7 479.2,80.5 480.8,80.5 478.7,82.7 478.7,82.7 478.7,90.2 478.7,90.2 
		480.8,92.4 479.2,92.4 477.1,90.2 477.1,90.2 	"/>
	<rect x="475.1" y="83.4" class="st16" width="1.9" height="6.2"/>
	<polygon class="st14" points="474.7,116.8 474.7,108.8 477,106.4 493.2,106.4 493.2,119.1 477,119.1 	"/>
	<polygon class="st15" points="477.1,109.1 477.1,109.1 479.2,106.9 480.8,106.9 478.7,109.1 478.7,109.1 478.7,116.5 478.7,116.5 
		480.8,118.7 479.2,118.7 477.1,116.5 477.1,116.5 	"/>
	<rect x="475.1" y="109.7" class="st16" width="1.9" height="6.2"/>
	<path class="st17" d="M258.8,42.4c0-0.5,0.4-0.9,0.9-0.9h10c0.5,0,0.9,0.4,0.9,0.9v10.7c0,0.5-0.4,0.9-0.9,1h-10.1
		c-0.5,0-0.9-0.4-0.9-1L258.8,42.4z"/>
	<path class="st18" d="M258.8,42.4c0-0.5,0.4-0.9,0.9-0.9h10c0.5,0,0.9,0.4,0.9,0.9v10.7c0,0.5-0.4,0.9-0.9,1h-10.1
		c-0.5,0-0.9-0.4-0.9-1L258.8,42.4z"/>
	<path class="st19" d="M258.6,40.2v1.7c0,0.2,0.4,0.4,0.8,0.4H270c0.5,0,0.8-0.2,0.8-0.4v-1.7H258.6z"/>
	<path class="st17" d="M272.1,42.4c0-0.5,0.4-0.9,0.9-0.9h10c0.5,0,0.9,0.4,0.9,0.9v10.7c0,0.5-0.4,0.9-0.9,1h-10
		c-0.5,0-0.9-0.4-0.9-1V42.4z"/>
	<path class="st18" d="M272.1,42.4c0-0.5,0.4-0.9,0.9-0.9h10c0.5,0,0.9,0.4,0.9,0.9v10.7c0,0.5-0.4,0.9-0.9,1h-10
		c-0.5,0-0.9-0.4-0.9-1V42.4z"/>
	<path class="st19" d="M271.8,40.2v1.7c0,0.2,0.4,0.4,0.8,0.4h10.7c0.4,0,0.8-0.2,0.8-0.4v-1.7H271.8z"/>
	<polygon class="st14" points="34,64.1 34,56.1 36.3,53.8 52.5,53.8 52.5,66.4 36.3,66.4 	"/>
	<polygon class="st15" points="36.4,56.4 36.4,56.4 38.5,54.2 40.1,54.2 38,56.4 38,56.4 38,63.8 38,63.8 40.1,66.1 38.5,66.1 
		36.4,63.9 36.4,63.9 	"/>
	<rect x="34.4" y="57" class="st16" width="1.8" height="6.2"/>
	<polygon class="st14" points="34,51 34,43 36.3,40.7 52.5,40.7 52.5,53.3 36.3,53.3 	"/>
	<polygon class="st15" points="36.4,43.3 36.4,43.3 38.5,41.1 40.1,41.1 38,43.3 38,43.3 38,50.7 38,50.7 40.1,53 38.5,53 
		36.4,50.8 36.4,50.8 	"/>
	<rect x="34.4" y="43.9" class="st16" width="1.8" height="6.2"/>
	<polygon class="st14" points="34.2,103.1 34.2,95.1 36.5,92.7 52.7,92.7 52.7,105.4 36.5,105.4 	"/>
	<polygon class="st15" points="36.6,95.4 36.6,95.4 38.7,93.2 40.3,93.2 38.2,95.4 38.2,95.4 38.2,102.8 38.2,102.8 40.3,105 
		38.7,105 36.6,102.8 36.6,102.8 	"/>
	<rect x="34.6" y="96" class="st16" width="1.8" height="6.2"/>
	<polygon class="st14" points="34.2,90 34.2,82 36.5,79.6 52.7,79.6 52.7,92.3 36.5,92.3 	"/>
	<polygon class="st15" points="36.6,82.3 36.6,82.3 38.7,80.1 40.3,80.1 38.2,82.3 38.1,82.3 38.1,89.7 38.2,89.7 40.3,91.9 
		38.7,91.9 36.6,89.7 36.6,89.7 	"/>
	<rect x="34.6" y="82.9" class="st16" width="1.8" height="6.2"/>
	<polygon class="st14" points="34.2,116.3 34.2,108.3 36.5,106 52.7,106 52.7,118.6 36.5,118.6 	"/>
	<polygon class="st15" points="36.6,108.6 36.6,108.6 38.7,106.4 40.3,106.4 38.2,108.6 38.2,108.6 38.2,116 38.2,116 40.3,118.2 
		38.7,118.2 36.6,116.1 36.6,116.1 	"/>
	<rect x="34.6" y="109.2" class="st16" width="1.8" height="6.2"/>
	<path class="st17" d="M285.4,42.4c0-0.5,0.4-0.9,0.9-0.9c0,0,0,0,0,0h10c0.5,0,0.9,0.4,0.9,0.9v10.7c0,0.5-0.4,0.9-0.9,1h-10.1
		c-0.5,0-0.9-0.4-0.9-0.9c0,0,0,0,0,0L285.4,42.4z"/>
	<path class="st18" d="M285.4,42.4c0-0.5,0.4-0.9,0.9-0.9c0,0,0,0,0,0h10c0.5,0,0.9,0.4,0.9,0.9v10.7c0,0.5-0.4,0.9-0.9,1h-10.1
		c-0.5,0-0.9-0.4-0.9-0.9c0,0,0,0,0,0L285.4,42.4z"/>
	<path class="st19" d="M285.1,40.2v1.7c0,0.2,0.4,0.4,0.8,0.4h10.6c0.4,0,0.8-0.2,0.8-0.4v-1.7H285.1z"/>
	<path class="st17" d="M298.4,42.4c0-0.5,0.4-0.9,0.9-0.9c0,0,0,0,0,0h10.1c0.5,0,0.9,0.4,0.9,0.9c0,0,0,0,0,0v10.7
		c0,0.5-0.4,0.9-0.9,1h-10.1c-0.5,0-0.9-0.4-0.9-1L298.4,42.4z"/>
	<path class="st18" d="M298.4,42.4c0-0.5,0.4-0.9,0.9-0.9h10.1c0.5,0,0.9,0.4,0.9,0.9c0,0,0,0,0,0v10.7c0,0.5-0.4,0.9-0.9,1h-10.1
		c-0.5,0-0.9-0.4-0.9-1L298.4,42.4z"/>
	<path class="st19" d="M298.2,40.2v1.7c0,0.2,0.4,0.4,0.8,0.4h10.6c0.4,0,0.8-0.2,0.8-0.4v-1.7H298.2z"/>
	<polygon class="st14" points="696.5,103.1 696.5,95.1 698.7,92.7 714.9,92.7 714.9,105.4 698.8,105.4 	"/>
	<polygon class="st15" points="698.8,95.4 698.9,95.4 701,93.2 702.6,93.2 700.4,95.4 700.4,95.4 700.4,102.8 700.4,102.8 
		702.6,105 701,105 698.9,102.8 698.8,102.8 	"/>
	<rect x="696.8" y="96" class="st16" width="1.8" height="6.2"/>
	<polygon class="st14" points="696.5,90 696.5,82 698.7,79.6 714.9,79.6 714.9,92.3 698.8,92.3 	"/>
	<polygon class="st15" points="698.8,82.3 698.9,82.3 701,80.1 702.6,80.1 700.4,82.3 700.4,82.3 700.4,89.7 700.4,89.7 702.6,91.9 
		701,91.9 698.9,89.7 698.8,89.7 	"/>
	<rect x="696.8" y="82.9" class="st16" width="1.8" height="6.2"/>
	<polygon class="st14" points="696.5,116.3 696.5,108.3 698.7,106 714.9,106 714.9,118.6 698.8,118.6 	"/>
	<polygon class="st15" points="698.8,108.6 698.9,108.6 701,106.4 702.6,106.4 700.4,108.6 700.4,108.6 700.4,116 700.4,116 
		702.6,118.2 701,118.2 698.9,116 698.8,116 	"/>
	<rect x="696.8" y="109.2" class="st16" width="1.8" height="6.2"/>
	<path class="st20" d="M251.3,75c3.3,0,6.6,0.7,9.7,2.2l21.2,8.8v-1.2H282l-21-8.6c-3.1-1.4-6.4-2.1-9.7-2.1
		c-8.3,0-16.1,4.4-20.2,11.6h-2.8c-0.7,0-1.2,0.5-1.3,1.1V88h4.3"/>
	<rect x="184.3" y="42.5" class="st8" width="13.1" height="18.9"/>
	<rect x="184.3" y="98.4" class="st8" width="13.1" height="18.9"/>
	<rect x="313.7" y="92.4" class="st21" width="16.5" height="27.7"/>
	<path class="st22" d="M267,81c-0.4-0.4-0.8-0.7-1.3-1l-0.6-0.5l0,0c-10.2-7.4-24.4-5.2-31.8,5c-4.5,6.2-5.6,14.3-2.9,21.5l0.7-0.7
		l0,0l0,0c0.6-0.5,1.4-0.5,2,0l0,0l2,2l0.7,0.7l5.9,5.9h19.6c2-7.2,8.5-12.2,16-12.2c0.5,0,0.9,0,1.4,0.1l2-9.2L267,81z"/>
	<line class="st23" x1="272.6" y1="89.1" x2="267.3" y2="84.7"/>
	<path class="st24" d="M266,83L266,83l-3.5,4.2l0,0c-2.5,3-2.7,7.1-0.4,9s6.3,1.1,8.9-2l0,0l1.6-1.9l0,0l3.3-3.9l-8.5-7.1L266,83z"
		/>
	<path class="st24" d="M267.4,84.7c-1.8,0.4-3.5,1.3-4.6,2.8c-2.4,2.9-2.6,6.7-0.4,8.6s5.9,1,8.4-1.9c1.2-1.4,1.9-3.2,2-5.1
		L267.4,84.7z"/>
	<path class="st12" d="M313.5,120.1V85.6c0-0.6-0.5-1.1-1.1-1.1h-28.9l-21.9-9.2c-0.4-0.2-0.8-0.4-1.3-0.5l-0.6,1.9
		c1.9,0.7,3.8,1.7,5.4,2.9l0,0l0.6,0.5c0.4,0.3,0.9,0.7,1.2,1l13.6,11.4l-1.9,9.1c-0.5,0-0.9-0.1-1.4-0.1c-7.4,0-13.9,4.9-15.9,12.1
		h-19.4l-5.8-5.8l-0.7-0.7l-2-1.9l0,0c-0.6-0.5-1.4-0.5-2,0l0,0l0,0l-0.7,0.7c-3.2-8.2-1.3-17.4,4.8-23.7l-1.8-1.6
		c-1.4,1.5-2.6,3.1-3.6,4.9h-2.9c-0.7,0-1.3,0.5-1.4,1.2v33.4L313.5,120.1z"/>
	
		<radialGradient id="SVGID_1_" cx="-526.4576" cy="156.7025" r="5.28" gradientTransform="matrix(0.77 -0.64 -0.64 -0.77 772.43 -108.07)" gradientUnits="userSpaceOnUse">
		<stop  offset="0" style="stop-color:#575757"/>
		<stop  offset="0.51" style="stop-color:#999BA4"/>
		<stop  offset="0.93" style="stop-color:#FFFFFF"/>
	</radialGradient>
	<path class="st25" d="M274.7,105.1c1.5,1.8,0.6,5-2,7.2s-5.9,2.5-7.4,0.7s-0.6-5,2-7.2S273.2,103.2,274.7,105.1z"/>
	<rect x="519.2" y="40" class="st26" width="0.8" height="25.6"/>
	<rect x="519.2" y="84.2" class="st26" width="0.8" height="35.9"/>
	<rect x="520.6" y="83.3" class="st26" width="0.6" height="19.4"/>
	<rect x="581" y="39.7" class="st26" width="0.8" height="25.7"/>
	<rect x="581.4" y="84" class="st26" width="0.8" height="36"/>
	<rect x="580.4" y="83.1" class="st26" width="0.6" height="19.4"/>
	<rect x="226.1" y="40.2" class="st26" width="0.8" height="14.4"/>
	<rect x="183.1" y="39.8" class="st26" width="0.8" height="14.4"/>
	<rect x="225.4" y="105.3" class="st26" width="0.5" height="14.8"/>
	<rect x="172.5" y="39.8" class="st26" width="0.8" height="14.4"/>
	<rect x="183.2" y="105.8" class="st26" width="0.8" height="14.4"/>
	<rect x="172.6" y="85.4" class="st26" width="0.8" height="34.8"/>
	<rect x="329.8" y="92.4" class="st26" width="0.8" height="27.7"/>
	<rect x="190.3" y="125.1" class="st27" width="28.3" height="28.3"/>
	<path class="st28" d="M205.2,132.6c0.9,0,1.6-0.7,1.6-1.6c0-0.9-0.7-1.6-1.6-1.6c-0.9,0-1.6,0.7-1.6,1.6
		C203.5,131.8,204.3,132.6,205.2,132.6C205.2,132.6,205.2,132.6,205.2,132.6"/>
	<path class="st28" d="M203.5,140.8v-2.6l-2.3,1.2c-0.4,0.3-1,0.1-1.2-0.3c0,0,0,0,0,0c-0.3-0.4-0.1-1,0.3-1.3c0,0,0,0,0,0l3.2-1.9
		v-1.2c-0.1-0.9,0.6-1.7,1.5-1.8c0.9-0.1,1.7,0.6,1.8,1.5c0,0.1,0,0.2,0,0.3v5.7c0,1-0.5,1.1-0.9,1.4v7.8c-0.1,0.5-0.5,0.9-1,0.8
		c-0.4,0-0.8-0.4-0.8-0.8v-6.9l-2.8,1.5v3.4c0,0.5-0.4,0.9-0.9,0.9c-0.5,0-0.9-0.4-0.9-0.9l0,0v-3.9c0-0.5,1-1.1,1-1.1L203.5,140.8"
		/>
	<path class="st28" d="M206,137.8l1.6,3.3c0.2,0.5,0.7,0.7,1.2,0.5c0.5-0.2,0.7-0.8,0.5-1.2l-2.7-6.2"/>
	<path class="st28" d="M212,138.6c0.8,0,1.4-0.6,1.4-1.4c0-0.8-0.6-1.4-1.4-1.4c-0.8,0-1.4,0.6-1.4,1.4c0,0,0,0,0,0
		C210.7,137.9,211.3,138.6,212,138.6C212,138.6,212,138.6,212,138.6"/>
	<path class="st28" d="M212.4,144.5l-1.8,5.6c-0.1,0.3-0.5,0.5-0.8,0.4c-0.3-0.1-0.5-0.5-0.4-0.8l1.7-5.3"/>
	<path class="st28" d="M211.4,144.5l1.8,5.6c0.1,0.3,0.5,0.5,0.8,0.4c0.3-0.1,0.5-0.5,0.4-0.8c0,0,0,0,0,0l-1.7-5.3"/>
	<path class="st28" d="M210.8,140.1c0-0.6,0.5-1.1,1.1-1.1h0.1c0.6,0,1.1,0.5,1.1,1.1v3.9c0,0.6-0.5,1.1-1.1,1.1H212
		c-0.6,0-1.1-0.5-1.1-1.1V140.1z"/>
	<path class="st28" d="M210.8,142l-1.4-0.7c-0.3-0.1-0.6,0-0.8,0.3c-0.1,0.3,0,0.6,0.2,0.7l2,1.2"/>
	<rect x="203.2" y="151.1" class="st28" width="15.4" height="2.3"/>
	<rect x="190.2" y="151.3" class="st28" width="11.6" height="2.1"/>
	<rect x="190.2" y="148.3" class="st28" width="8.5" height="3.6"/>
	<rect x="190.2" y="145.6" class="st28" width="5.6" height="3.3"/>
	<polygon class="st28" points="201.8,125.1 201.8,125.1 190.3,125.1 190.3,126.1 200.4,126.1 200.4,128.6 201.8,128.6 201.8,125.1 	
		"/>
	<rect x="190.3" y="6.5" class="st27" width="28.3" height="28.3"/>
	<path class="st28" d="M205.2,14c0.9,0,1.6-0.7,1.6-1.6c0-0.9-0.7-1.6-1.6-1.6s-1.6,0.7-1.6,1.6C203.5,13.3,204.3,14,205.2,14
		L205.2,14"/>
	<path class="st28" d="M203.5,22.2v-2.6l-2.3,1.2c-0.4,0.3-1,0.1-1.3-0.3c0,0,0,0,0,0c-0.3-0.4-0.1-1,0.3-1.3l3.2-1.9v-1.2
		c-0.1-0.9,0.6-1.7,1.5-1.8c0.9-0.1,1.7,0.6,1.8,1.5c0,0.1,0,0.2,0,0.3v5.7c0,1-0.5,1.1-0.9,1.4v7.8c0,0.5-0.4,0.9-0.9,0.9
		c-0.5,0-0.9-0.4-0.9-0.9v-6.9l-2.8,1.5v3.4c0,0.5-0.4,0.9-0.9,0.9c-0.5,0-0.9-0.4-0.9-0.9v-3.9c0-0.5,1-1.1,1-1.1L203.5,22.2"/>
	<path class="st28" d="M206,19.2l1.6,3.3c0.2,0.5,0.7,0.7,1.2,0.5c0,0,0,0,0,0c0.5-0.2,0.7-0.8,0.5-1.2l-2.7-6.2"/>
	<path class="st28" d="M212,20c0.8,0,1.4-0.6,1.4-1.4c0-0.8-0.6-1.4-1.4-1.4c-0.8,0-1.4,0.6-1.4,1.4c0,0,0,0,0,0
		C210.7,19.4,211.3,20,212,20C212,20,212,20,212,20"/>
	<path class="st28" d="M212.3,25.9l-1.8,5.6c-0.1,0.3-0.5,0.5-0.8,0.4c-0.3-0.1-0.5-0.5-0.4-0.8l1.7-5.3"/>
	<path class="st28" d="M211.4,25.9l1.8,5.6c0.1,0.3,0.5,0.5,0.8,0.4c0.3-0.1,0.5-0.5,0.4-0.8l-1.7-5.3"/>
	<path class="st28" d="M210.8,21.5c0-0.6,0.5-1.1,1.1-1.1h0.1c0.6,0,1.1,0.5,1.1,1.1v3.9c0,0.6-0.5,1.1-1.1,1.1H212
		c-0.6,0-1.1-0.5-1.1-1.1L210.8,21.5z"/>
	<path class="st28" d="M210.8,23.4l-1.4-0.7c-0.3-0.2-0.6-0.1-0.8,0.1c-0.2,0.3-0.1,0.6,0.1,0.8c0,0,0.1,0,0.1,0l2,1.2"/>
	<rect x="203.2" y="32.5" class="st28" width="15.4" height="2.3"/>
	<rect x="190.2" y="32.7" class="st28" width="11.6" height="2.1"/>
	<rect x="190.2" y="29.7" class="st28" width="8.5" height="3.6"/>
	<rect x="190.2" y="27" class="st28" width="5.6" height="3.3"/>
	<polygon class="st28" points="201.8,6.5 201.8,6.5 190.3,6.5 190.3,7.5 200.4,7.5 200.4,10 201.8,10 201.8,6.5 	"/>
	<rect x="254.2" y="127.9" class="st29" width="25.5" height="25.5"/>
	<path class="st16" d="M260.6,145l-2.1-8.5h1.6l0.8,3.8c0.2,1,0.4,2.1,0.6,2.9l0,0c0.1-0.9,0.4-1.9,0.6-3l0.9-3.8h1.6l0.8,3.9
		c0.2,1,0.4,2,0.5,2.9l0,0c0.1-0.9,0.3-1.9,0.6-2.9l0.9-3.8h1.7l-2.3,8.5h-1.7l-0.9-4c-0.2-1-0.4-1.8-0.5-2.7l0,0
		c-0.1,0.9-0.3,1.7-0.6,2.7l-1,4H260.6z"/>
	<path class="st16" d="M275.5,144.6c-0.7,0.3-1.4,0.4-2.2,0.4c-2.2,0.2-4.1-1.5-4.3-3.7c0-0.2,0-0.4,0-0.6c-0.1-2.3,1.7-4.3,4-4.5
		c0.2,0,0.3,0,0.5,0c0.7,0,1.4,0.1,2.1,0.4l-0.3,1.2c-0.5-0.2-1.1-0.3-1.7-0.3c-1.6-0.1-2.9,1.1-3,2.6c0,0.2,0,0.3,0,0.5
		c-0.2,1.5,1,2.9,2.5,3.1c0.2,0,0.3,0,0.5,0c0.6,0,1.2-0.1,1.7-0.3L275.5,144.6z"/>
	<rect x="310.8" y="127.9" class="st30" width="25.5" height="25.5"/>
	<path class="st16" d="M327.6,145.4l-0.2,0.7c-0.7,2.6-3.3,4.2-5.9,3.5c-2.6-0.7-4.2-3.3-3.5-5.9c0.3-1.1,0.9-2.1,1.8-2.7v-1.5
		l-0.1,0.1c-3,1.6-4.1,5.4-2.5,8.4c1.6,3,5.4,4.1,8.4,2.5c1.2-0.6,2.1-1.6,2.7-2.9l0.1-0.4L327.6,145.4z"/>
	<path class="st16" d="M324,139.4h2.4c0.5,0,0.8-0.4,0.9-0.8c0-0.5-0.4-0.8-0.8-0.8c0,0,0,0,0,0H324V136c0-1-0.8-1.8-1.8-1.8
		c0,0,0,0,0,0c-1,0-1.8,0.8-1.8,1.8c0,0,0,0,0,0c0,0,0,5.5,0,5.6c0,0.9,0.7,1.7,1.6,1.7c0,0,0.1,0,0.1,0h5.1l2.4,5
		c0.2,0.3,0.5,0.5,0.9,0.4c0.5,0,0.9-0.4,0.9-1c0,0,0,0,0,0c0-0.1,0-0.2,0-0.4l-2.7-5.6c-0.2-0.3-0.4-0.4-0.8-0.5H324L324,139.4z"/>
	<path class="st16" d="M322.2,133.9c1,0,1.8-0.8,1.8-1.8s-0.8-1.8-1.8-1.8c-1,0-1.8,0.8-1.8,1.8c0,0,0,0,0,0
		C320.5,133,321.2,133.8,322.2,133.9z"/>
	<polyline class="st31" points="171.9,135.1 171.9,139.1 167.9,139.1 	"/>
	<line class="st32" x1="163.4" y1="139.1" x2="156.6" y2="139.1"/>
	<polyline class="st31" points="154.3,139.1 150.3,139.1 150.3,135.1 	"/>
	<line class="st33" x1="150.3" y1="126.2" x2="150.3" y2="112.8"/>
	<line class="st34" x1="150.3" y1="108.4" x2="150.3" y2="41.7"/>
	<polyline class="st31" points="150.3,37.3 150.3,33.3 154.3,33.3 	"/>
	<line class="st32" x1="158.8" y1="33.3" x2="165.6" y2="33.3"/>
	<polyline class="st31" points="167.9,33.3 171.9,33.3 171.9,37.3 	"/>
	<line class="st33" x1="171.9" y1="46.2" x2="171.9" y2="59.5"/>
	<line class="st34" x1="171.9" y1="64" x2="171.9" y2="130.6"/>
	<rect x="157.2" y="127.9" class="st30" width="25.4" height="25.4"/>
	<path class="st16" d="M171.4,129.3c1.1,0,1.9,0.9,1.9,2c0,1.1-0.9,1.9-2,1.9c-1,0-1.9-0.9-1.9-1.9
		C169.4,130.2,170.3,129.3,171.4,129.3C171.4,129.3,171.4,129.3,171.4,129.3z"/>
	<path class="st16" d="M162.1,136.1l1.5,7.6c0.2,1.7,1.5,3,3.2,3.1h4.8c1.1,0,1.1-1.1,0-1.2h-4.3c-1.5-0.1-2.3-0.7-2.6-2.4l-1.5-7.3
		C163,135.2,161.9,135.2,162.1,136.1z"/>
	<path class="st16" d="M167.8,135.3c0.2-1.2,1-1.8,3.2-1.3l6.9,1.4c0.5,0.2,0.8,0.7,0.7,1.2c-0.2,0.5-0.7,0.8-1.2,0.7l-5.9-1.2
		l-1.8,5.9h3.5c1.1,0,1.6,0.5,1.7,1.3l1.2,7.8c0,0.6-0.4,1.2-1.1,1.2c-0.6,0-1.1-0.4-1.2-0.9l-1-6.6l-5.8,0.1
		c-1.1-0.1-1.8-1.4-1.4-2.8L167.8,135.3z"/>
	<path class="st16" d="M176.4,139.7c-0.1,0.5-0.6,0.4-0.6-0.1c0.1-2.3,3.2-2.3,3,0.2v11.8c0,0.2-0.2,0.3-0.4,0.3
		c-0.1,0-0.2-0.1-0.3-0.3v-12.3C178.1,138.1,176.3,138.4,176.4,139.7z"/>
	<rect x="130.3" y="127.9" class="st30" width="25.4" height="25.4"/>
	<path class="st16" d="M139.1,129.3c1.1,0,1.9,0.9,1.9,2c0,1.1-0.9,1.9-2,1.9c-1,0-1.9-0.9-1.9-1.9
		C137.1,130.1,138,129.3,139.1,129.3C139.1,129.3,139.1,129.3,139.1,129.3z"/>
	<path class="st16" d="M135.7,136l1.5,7.6c0.2,1.7,1.5,3,3.2,3.1h4.8c1.1,0,1.1-1.1,0-1.2h-4.3c-1.5-0.1-2.3-0.7-2.6-2.4l-1.5-7.4
		C136.6,135.1,135.6,135.1,135.7,136z"/>
	<path class="st16" d="M137.6,135.7l1.4,7.2c0.1,1.1,1.1,2,2.3,1.9c0.1,0,0.2,0,0.2,0h5.2l1.1,6.6c0.2,1.2,2.4,0.9,2.2-0.3l-1.2-7.7
		c-0.2-0.9-0.8-1.4-2-1.4l-1.1,0.1c0.8-2.8-0.9-5.1-4.2-4.8l-0.4-2.2C140.7,133.3,137.3,133.6,137.6,135.7z"/>
	<rect x="282.4" y="127.8" class="st30" width="25.5" height="25.5"/>
	<path class="st16" d="M294.9,137c1.4,0,2.5-1.1,2.5-2.5c0-1.4-1.1-2.5-2.5-2.5c-1.4,0-2.5,1.1-2.5,2.5c0,0,0,0,0,0
		C292.4,135.9,293.5,137,294.9,137L294.9,137z"/>
	<path class="st16" d="M292.8,146.6c-0.1-0.1-0.1-0.2,0-0.2c0,0,0,0,0,0l1.3-1.4l-2-2l-1.5,1.5c-0.6,0.5-0.6,1.4,0,2c0,0,0,0,0,0
		l2.6,2.6c0.3,0.3,0.8,0.3,1.1,0c0,0,0,0,0,0c0.3-0.2,0.3-0.6,0.2-0.9L292.8,146.6z"/>
	<path class="st16" d="M296.9,146.6c0.1-0.1,0.1-0.2,0-0.2l-1.3-1.4l2-2l1.5,1.5c0.6,0.5,0.6,1.4,0,2c0,0,0,0,0,0l-2.6,2.6
		c-0.3,0.3-0.8,0.3-1.1,0c-0.2-0.2-0.3-0.6-0.1-0.9L296.9,146.6z"/>
	<path class="st16" d="M298.3,139c-0.6-0.6-1.2-1.4-2-1.5h-2.9c-0.8,0.1-1.4,1-2,1.5l-2.2,2.2c-0.3,0.3-0.3,0.8,0,1.1
		c0.3,0.3,0.8,0.3,1.1,0l0,0l2-2v1.9h5.2v-1.9l2,2c0.3,0.3,0.8,0.3,1.1,0c0,0,0,0,0,0c0.3-0.3,0.3-0.8,0-1.1c0,0,0,0,0,0L298.3,139z
		"/>
	<rect x="338.7" y="127.9" class="st30" width="25.5" height="25.5"/>
	<path class="st16" d="M348.2,145.7c0-0.7,0.6-1.3,1.3-1.3c0.7,0,1.3,0.6,1.3,1.3c0,0.7-0.6,1.3-1.3,1.3l0,0
		C348.8,147.1,348.2,146.5,348.2,145.7z M349.5,148L349.5,148c1.2,0,2.2-1,2.2-2.2s-1-2.2-2.2-2.2s-2.2,1-2.2,2.2
		C347.3,147,348.2,148,349.5,148C349.5,148,349.5,148,349.5,148L349.5,148z"/>
	<path class="st16" d="M353,145.7c0-0.7,0.6-1.3,1.3-1.3c0.7,0,1.3,0.6,1.3,1.3c0,0.7-0.6,1.3-1.3,1.3l0,0
		C353.6,147.1,353,146.5,353,145.7z M354.3,148L354.3,148c1.2,0,2.2-1,2.2-2.2c0-1.2-1-2.2-2.2-2.2c-1.2,0-2.2,1-2.2,2.2
		c0,0,0,0,0,0C352.1,147,353.1,148,354.3,148C354.3,148,354.3,148,354.3,148L354.3,148z"/>
	<path class="st16" d="M347.2,138.7v-1.4c0-0.8-0.6-1.4-1.4-1.4c0,0,0,0,0,0h-1.2c0,0-0.2,0-0.2,0.2s0.2,0.2,0.2,0.2h1.2
		c0.5,0,1,0.5,1,1v1.4H347.2z"/>
	<path class="st16" d="M357,138.7h-4.6V134h0.9c2.1,0.1,3.7,1.7,3.8,3.8V138.7z"/>
	<path class="st16" d="M357,139.1h-10.2v2c0,1.1,0.8,2,1.8,2c0.1,0,0.1,0,0.2,0h6.1c1.1,0,2-0.8,2-1.8c0-0.1,0-0.1,0-0.2L357,139.1z
		"/>
	<rect x="538.6" y="125.1" class="st27" width="28.3" height="28.3"/>
	<path class="st28" d="M553.5,132.6c0.9,0,1.6-0.7,1.6-1.6c0-0.9-0.7-1.6-1.6-1.6s-1.6,0.7-1.6,1.6c0,0,0,0,0,0
		C551.8,131.8,552.6,132.6,553.5,132.6"/>
	<path class="st28" d="M551.8,140.8v-2.6l-2.3,1.2c-0.5,0.2-1,0.1-1.3-0.4c-0.2-0.4-0.1-1,0.3-1.2l3.2-1.9v-1.2
		c0-0.9,0.7-1.6,1.6-1.6s1.6,0.7,1.6,1.6v5.7c0,1-0.5,1.1-0.9,1.4v7.8c0,0.5-0.4,0.9-0.9,0.9c-0.5,0-0.9-0.4-0.9-0.9c0,0,0,0,0,0
		v-6.9l-2.8,1.5v3.4c0,0.5-0.4,0.9-0.9,0.9c-0.5,0-0.9-0.4-0.9-0.9c0,0,0,0,0,0v-3.9c0-0.5,1-1.1,1-1.1L551.8,140.8"/>
	<path class="st28" d="M554.4,137.8l1.6,3.3c0.2,0.5,0.7,0.7,1.2,0.5c0,0,0,0,0,0c0.5-0.2,0.7-0.8,0.5-1.2l-2.7-6.2"/>
	<path class="st28" d="M560.4,138.6c0.8,0,1.4-0.6,1.4-1.4c0-0.8-0.6-1.4-1.4-1.4c-0.8,0-1.4,0.6-1.4,1.4c0,0,0,0,0,0
		C559,137.9,559.6,138.6,560.4,138.6"/>
	<path class="st28" d="M560.7,144.5l-1.8,5.6c-0.1,0.3-0.5,0.5-0.8,0.4c-0.3-0.1-0.5-0.5-0.4-0.8l1.7-5.3"/>
	<path class="st28" d="M559.7,144.5l1.8,5.6c0.1,0.4,0.4,0.6,0.8,0.5s0.6-0.4,0.5-0.8c0,0,0-0.1,0-0.1l-1.7-5.3"/>
	<path class="st28" d="M559.2,140.1c0-0.6,0.5-1.1,1.1-1.1l0,0h0.1c0.6,0,1.1,0.5,1.1,1.1v0v3.9c0,0.6-0.5,1.1-1.1,1.1h-0.1
		c-0.6,0-1.1-0.5-1.1-1.1V140.1z"/>
	<path class="st28" d="M559.1,142l-1.4-0.7c-0.3-0.2-0.6-0.1-0.8,0.2c-0.2,0.3-0.1,0.6,0.2,0.8l2,1.2"/>
	<rect x="551.5" y="151.1" class="st28" width="15.4" height="2.3"/>
	<rect x="538.6" y="151.3" class="st28" width="11.6" height="2.1"/>
	<rect x="538.6" y="148.3" class="st28" width="8.5" height="3.6"/>
	<rect x="538.6" y="145.6" class="st28" width="5.6" height="3.3"/>
	<polygon class="st28" points="550.2,125.1 550.2,125.1 538.6,125.1 538.6,126.1 548.7,126.1 548.7,128.6 550.2,128.6 550.2,125.1 	
		"/>
	<rect x="538.4" y="6.5" class="st27" width="28.3" height="28.3"/>
	<path class="st28" d="M553.2,14c0.9,0,1.6-0.7,1.6-1.6c0-0.9-0.7-1.6-1.6-1.6s-1.6,0.7-1.6,1.6c0,0,0,0,0,0
		C551.6,13.3,552.3,14,553.2,14"/>
	<path class="st28" d="M551.6,22.2v-2.6l-2.3,1.2c-0.4,0.3-1,0.1-1.3-0.3c0,0,0,0,0,0c-0.3-0.4-0.1-1,0.3-1.3l3.2-1.9v-1.2
		c-0.1-0.9,0.6-1.7,1.5-1.8c0.9-0.1,1.7,0.6,1.8,1.5c0,0.1,0,0.2,0,0.3v5.7c0,1-0.5,1.1-0.9,1.4v7.8c0,0.5-0.4,0.9-0.9,0.9
		c-0.5,0-0.9-0.4-0.9-0.9v-6.9l-2.8,1.5v3.4c0,0.5-0.4,0.9-0.9,0.9c-0.5,0-0.9-0.4-0.9-0.9c0,0,0,0,0,0v-3.9c0-0.5,1-1.1,1-1.1
		L551.6,22.2"/>
	<path class="st28" d="M554.2,19.2l1.6,3.3c0.2,0.5,0.7,0.7,1.2,0.5c0.5-0.2,0.7-0.8,0.5-1.2l-2.7-6.2"/>
	<path class="st28" d="M560.2,20c0.8,0,1.4-0.6,1.4-1.4s-0.6-1.4-1.4-1.4c-0.8,0-1.4,0.6-1.4,1.4c0,0,0,0,0,0
		C558.8,19.4,559.4,20,560.2,20C560.2,20,560.2,20,560.2,20"/>
	<path class="st28" d="M560.4,25.9l-1.8,5.6c-0.1,0.3-0.5,0.5-0.8,0.4c0,0,0,0,0,0c-0.3-0.1-0.5-0.5-0.4-0.8c0,0,0,0,0,0l1.8-5.3"/>
	<path class="st28" d="M559.5,25.9l1.8,5.6c0.1,0.3,0.5,0.5,0.8,0.4c0,0,0,0,0,0c0.3-0.1,0.5-0.5,0.4-0.8l-1.8-5.3"/>
	<path class="st28" d="M558.9,21.5c0-0.6,0.5-1.1,1.1-1.1l0,0h0.1c0.6,0,1.1,0.5,1.1,1.1v3.9c0,0.6-0.5,1.1-1.1,1.1h-0.1
		c-0.6,0-1.1-0.5-1.1-1.1L558.9,21.5z"/>
	<path class="st28" d="M558.9,23.4l-1.4-0.7c-0.3-0.2-0.6-0.1-0.8,0.1c-0.2,0.3-0.1,0.6,0.1,0.8c0,0,0.1,0,0.1,0l2,1.2"/>
	<rect x="551.3" y="32.5" class="st28" width="15.4" height="2.3"/>
	<rect x="538.3" y="32.7" class="st28" width="11.6" height="2.1"/>
	<rect x="538.3" y="29.7" class="st28" width="8.5" height="3.6"/>
	<rect x="538.3" y="27" class="st28" width="5.6" height="3.3"/>
	<polygon class="st28" points="549.9,6.5 549.9,6.5 538.4,6.5 538.4,7.5 548.4,7.5 548.4,10 549.9,10 549.9,6.5 	"/>
	<rect x="223.1" y="125.1" class="st27" width="28.3" height="28.4"/>
	<rect x="236" y="151.3" class="st28" width="15.5" height="2.1"/>
	<rect x="223.1" y="151.3" class="st28" width="11.6" height="2.1"/>
	<rect x="223.1" y="148.3" class="st28" width="8.5" height="3.6"/>
	<rect x="223.1" y="145.6" class="st28" width="5.6" height="3.3"/>
	<polygon class="st28" points="234.6,125.1 234.6,125.1 223.1,125.1 223.1,126.1 233.1,126.1 233.1,128.6 234.6,128.6 234.6,125.1 	
		"/>
	<rect x="229.7" y="145.6" class="st28" width="15.5" height="1"/>
	<path class="st35" d="M236.4,141.4l0.1,0.5c0.5,2,2.6,3.3,4.6,2.8s3.3-2.6,2.8-4.6c-0.2-0.9-0.7-1.6-1.5-2.2v-1.2h0.1
		c2.3,1.3,3.2,4.2,1.9,6.6s-4.2,3.2-6.6,1.9c-0.9-0.5-1.6-1.3-2.1-2.2l-0.1-0.3L236.4,141.4z"/>
	<path class="st35" d="M239.2,136.7h-1.9c-0.4,0-0.7-0.2-0.7-0.6c0-0.4,0.2-0.7,0.6-0.7c0.1,0,0.1,0,0.2,0h1.9V134
		c0-0.8,0.6-1.4,1.4-1.4c0,0,0,0,0,0c0.8,0,1.4,0.6,1.4,1.4c0,0,0,0,0,0c0,0,0,4.3,0,4.4c0,0.7-0.6,1.3-1.3,1.4c0,0-0.1,0-0.1,0h-4
		l-1.9,3.9c-0.2,0.2-0.4,0.3-0.7,0.4c-0.4,0-0.7-0.3-0.7-0.8c0,0,0,0,0-0.1c0-0.1,0-0.2,0-0.3l2.1-4.4c0.1-0.2,0.4-0.3,0.6-0.4h3.2
		V136.7z"/>
	<path class="st35" d="M240.6,132.4c-0.8,0-1.4-0.6-1.4-1.4s0.6-1.4,1.4-1.4c0.8,0,1.4,0.6,1.4,1.4
		C242,131.7,241.3,132.4,240.6,132.4z"/>
	<rect x="222.7" y="6.6" class="st27" width="28.3" height="28.4"/>
	<rect x="235.6" y="32.8" class="st28" width="15.5" height="2.1"/>
	<rect x="222.7" y="32.8" class="st28" width="11.6" height="2.1"/>
	<rect x="222.7" y="29.8" class="st28" width="8.5" height="3.6"/>
	<rect x="222.7" y="27.1" class="st28" width="5.6" height="3.3"/>
	<polygon class="st28" points="234.2,6.6 234.2,6.6 222.7,6.6 222.7,7.6 232.8,7.6 232.8,10.1 234.2,10.1 234.2,6.6 	"/>
	<rect x="229.3" y="27.1" class="st28" width="15.5" height="1"/>
	<path class="st35" d="M236,22.9l0.1,0.5c0.5,2,2.6,3.3,4.6,2.8s3.3-2.6,2.8-4.6c-0.2-0.9-0.7-1.6-1.5-2.2v-1.2h0.1
		c2.3,1.3,3.2,4.2,1.9,6.6s-4.2,3.2-6.6,1.9c-0.9-0.5-1.6-1.3-2.1-2.2l-0.1-0.3L236,22.9z"/>
	<path class="st35" d="M238.8,18.2h-1.9c-0.4,0-0.7-0.3-0.7-0.6c0,0,0,0,0,0c0-0.4,0.3-0.6,0.7-0.6c0,0,0,0,0,0h1.9v-1.4
		c0-0.8,0.6-1.4,1.3-1.4c0.8,0,1.4,0.6,1.4,1.4c0,0,0,0,0,0c0,0,0,4.3,0,4.3c0,0.7-0.5,1.3-1.3,1.4c0,0-0.1,0-0.1,0h-4l-1.9,4
		c-0.2,0.2-0.4,0.4-0.7,0.4c-0.4,0-0.7-0.3-0.7-0.8c0,0,0,0,0,0c0-0.1,0-0.2,0-0.3l2.3-4.4c0.1-0.2,0.3-0.4,0.6-0.4h3.1L238.8,18.2z
		"/>
	<path class="st35" d="M240.2,13.9c-0.8,0-1.4-0.6-1.4-1.4c0-0.8,0.6-1.4,1.4-1.4c0.8,0,1.4,0.6,1.4,1.4
		C241.6,13.3,241,13.9,240.2,13.9C240.2,13.9,240.2,13.9,240.2,13.9z"/>
	<polyline class="st31" points="519.8,122.1 519.8,126.1 515.8,126.1 	"/>
	<line class="st36" x1="511" y1="126.1" x2="503.7" y2="126.1"/>
	<polyline class="st31" points="501.3,126.1 497.3,126.1 497.3,122.1 	"/>
	<line class="st37" x1="497.3" y1="114.3" x2="497.3" y2="102.8"/>
	<line class="st38" x1="497.3" y1="98.9" x2="497.3" y2="41"/>
	<polyline class="st31" points="497.3,37.1 497.3,33.1 501.3,33.1 	"/>
	<line class="st36" x1="506.1" y1="33.1" x2="513.4" y2="33.1"/>
	<polyline class="st31" points="515.8,33.1 519.8,33.1 519.8,37.1 	"/>
	<line class="st37" x1="519.8" y1="44.8" x2="519.8" y2="56.4"/>
	<line class="st38" x1="519.8" y1="60.3" x2="519.8" y2="118.2"/>
	<rect x="507.2" y="127.9" class="st30" width="25.5" height="25.4"/>
	<path class="st16" d="M521.4,129.3c1.1,0,1.9,0.9,1.9,2c0,1.1-0.9,1.9-2,1.9c-1,0-1.9-0.9-1.9-1.9
		C519.4,130.2,520.3,129.3,521.4,129.3C521.4,129.3,521.4,129.3,521.4,129.3z"/>
	<path class="st16" d="M512.1,136.1l1.5,7.6c0.2,1.7,1.5,3,3.2,3.1h4.8c1.1,0,1.1-1.1,0-1.2h-4.3c-1.5-0.1-2.3-0.7-2.6-2.4l-1.5-7.3
		C513,135.2,511.9,135.2,512.1,136.1z"/>
	<path class="st16" d="M517.8,135.3c0.2-1.2,1-1.8,3.2-1.3l6.9,1.4c0.5,0.2,0.8,0.7,0.7,1.2c-0.2,0.5-0.7,0.8-1.2,0.7l-5.9-1.2
		l-1.8,5.9h3.5c0.8-0.1,1.6,0.4,1.7,1.2c0,0,0,0,0,0.1l1.2,7.8c0.1,0.6-0.4,1.2-1,1.2c-0.6,0.1-1.2-0.4-1.2-1l-1-6.6l-5.8,0.1
		c-1.1-0.1-1.8-1.4-1.4-2.8L517.8,135.3z"/>
	<path class="st16" d="M526.4,139.7c-0.1,0.5-0.6,0.4-0.6-0.1c0.1-2.3,3.2-2.3,3,0.2v11.8c0,0.2-0.2,0.3-0.4,0.3
		c-0.1,0-0.2-0.1-0.3-0.3v-12.3C528,138.1,526.3,138.4,526.4,139.7z"/>
	<rect x="480.3" y="127.9" class="st30" width="25.4" height="25.4"/>
	<path class="st16" d="M489.1,129.3c1.1,0,1.9,0.9,1.9,2c0,1.1-0.9,1.9-2,1.9c-1,0-1.9-0.9-1.9-1.9
		C487.1,130.1,488,129.3,489.1,129.3C489,129.3,489.1,129.3,489.1,129.3z"/>
	<path class="st16" d="M485.7,136l1.5,7.6c0.2,1.7,1.5,3,3.2,3.1h4.8c1.1,0,1.1-1.1,0-1.2h-4.3c-1.5-0.1-2.3-0.7-2.6-2.4l-1.5-7.4
		C486.6,135.1,485.5,135.1,485.7,136z"/>
	<path class="st16" d="M487.6,135.7l1.4,7.2c0.1,1.1,1.1,2,2.3,1.9c0.1,0,0.2,0,0.2,0h5.2l1.1,6.6c0.2,1.2,2.4,0.9,2.2-0.3l-1.2-7.7
		c-0.2-0.9-0.8-1.4-2-1.4l-1.1,0.1c0.8-2.8-0.9-5.1-4.2-4.8l-0.4-2.2C490.7,133.2,487.2,133.6,487.6,135.7z"/>
	<rect x="509.4" y="35.9" class="st2" width="21.8" height="3.5"/>
	<rect x="627" y="36.2" class="st2" width="18.7" height="3.5"/>
	<rect x="676.8" y="36.2" class="st2" width="18.7" height="3.5"/>
	<rect x="676.8" y="120.2" class="st2" width="18.7" height="3.5"/>
	<rect x="627" y="120.2" class="st2" width="18.7" height="3.5"/>
</g>
</svg>
