<svg xmlns="http://www.w3.org/2000/svg" xmlns:xlink="http://www.w3.org/1999/xlink" viewBox="0 0 740 160"><defs><style>.cls-1,.cls-37,.cls-41,.cls-61,.cls-63,.cls-64,.cls-65,.cls-76,.cls-77{fill:none;}.cls-2{fill:#c6c6c5;}.cls-10,.cls-11,.cls-12,.cls-13,.cls-14,.cls-15,.cls-16,.cls-17,.cls-18,.cls-19,.cls-2,.cls-20,.cls-25,.cls-26,.cls-27,.cls-30,.cls-31,.cls-33,.cls-34,.cls-37,.cls-41,.cls-5,.cls-57,.cls-6,.cls-61,.cls-62,.cls-63,.cls-64,.cls-65,.cls-7,.cls-8,.cls-9{stroke:#000;}.cls-10,.cls-11,.cls-12,.cls-13,.cls-14,.cls-15,.cls-16,.cls-17,.cls-18,.cls-19,.cls-2,.cls-20,.cls-23,.cls-25,.cls-26,.cls-27,.cls-29,.cls-3,.cls-30,.cls-31,.cls-33,.cls-34,.cls-37,.cls-41,.cls-5,.cls-57,.cls-6,.cls-61,.cls-62,.cls-63,.cls-64,.cls-65,.cls-7,.cls-76,.cls-77,.cls-8,.cls-9{stroke-miterlimit:10;}.cls-10,.cls-11,.cls-12,.cls-13,.cls-14,.cls-15,.cls-16,.cls-19,.cls-2,.cls-20,.cls-23,.cls-25,.cls-26,.cls-27,.cls-3,.cls-30,.cls-31,.cls-33,.cls-34,.cls-41,.cls-5,.cls-57,.cls-6,.cls-7,.cls-8,.cls-9{stroke-width:0.25px;}.cls-3,.cls-31{fill:#79c8d4;}.cls-23,.cls-3{stroke:#3c3c3b;}.cls-18,.cls-23,.cls-26,.cls-28,.cls-4,.cls-5{fill:#3c3c3b;}.cls-17,.cls-23,.cls-28,.cls-5,.cls-73,.cls-74{fill-rule:evenodd;}.cls-29,.cls-6{fill:#6f6f6e;}.cls-7{fill:url(#Cast_Iron);}.cls-8{fill:url(#Cast_Iron-2);}.cls-9{fill:#60615f;}.cls-10{fill:url(#Cast_Iron-3);}.cls-11{fill:url(#Cast_Iron-4);}.cls-12{fill:url(#Cast_Iron-5);}.cls-13{fill:url(#Cast_Iron-6);}.cls-14{fill:url(#Cast_Iron-7);}.cls-15{fill:url(#Cast_Iron-8);}.cls-16{fill:#b1b1b1;}.cls-17{fill:#f3e20a;}.cls-17,.cls-18{stroke-width:0.15px;}.cls-19{fill:#ececec;}.cls-20{fill:#faca9e;}.cls-21{fill:#c09e7e;}.cls-22{fill:#9c9b9b;}.cls-24{fill:#54acd3;}.cls-25{fill:#e2e1e1;}.cls-27{fill:url(#radial-gradient);}.cls-29{stroke:#000100;stroke-width:0.24px;}.cls-30{fill:#ec6b10;}.cls-32{fill:#a24c06;}.cls-33{fill:#e31d1a;}.cls-34{fill:url(#linear-gradient);}.cls-35{fill:#adacac;}.cls-36{clip-path:url(#clip-path);}.cls-37,.cls-77{stroke-width:0.75px;}.cls-38{fill:#8b8b8b;}.cls-39,.cls-73{fill:#fff;}.cls-40,.cls-57{fill:#ffdb3e;}.cls-42{clip-path:url(#clip-path-4);}.cls-43{clip-path:url(#clip-path-7);}.cls-44{clip-path:url(#clip-path-9);}.cls-45{clip-path:url(#clip-path-12);}.cls-46{clip-path:url(#clip-path-15);}.cls-47{clip-path:url(#clip-path-17);}.cls-48{clip-path:url(#clip-path-20);}.cls-49{clip-path:url(#clip-path-23);}.cls-50{clip-path:url(#clip-path-26);}.cls-51{clip-path:url(#clip-path-28);}.cls-52{clip-path:url(#clip-path-30);}.cls-53{clip-path:url(#clip-path-33);}.cls-54{clip-path:url(#clip-path-36);}.cls-55{clip-path:url(#clip-path-39);}.cls-56{clip-path:url(#clip-path-41);}.cls-58{clip-path:url(#clip-path-43);}.cls-59{clip-path:url(#clip-path-45);}.cls-60,.cls-62{fill:#9d9b9b;}.cls-61,.cls-62,.cls-63,.cls-64,.cls-65{stroke-width:0.5px;}.cls-61{stroke-dasharray:1.95 0.97;}.cls-63{stroke-dasharray:1.95 0.97;}.cls-64{stroke-dasharray:1.95 0.97;}.cls-65{stroke-dasharray:1.95 0.97;}.cls-66,.cls-67{fill:#ffd500;}.cls-67{font-size:9.66px;font-family:MyriadPro-Semibold, Myriad Pro;font-weight:700;}.cls-68{fill:#ffd421;}.cls-69{fill:#221e20;}.cls-70{fill:#29295d;}.cls-71{fill:#251a5f;}.cls-72{fill:#1d1d1b;}.cls-74{fill:#009c3d;}.cls-75{fill:#575756;}.cls-76,.cls-77{stroke:#575756;stroke-linecap:round;}</style><linearGradient id="Cast_Iron" x1="-3184.77" y1="1243.31" x2="-3181.09" y2="1243.31" gradientTransform="translate(-1231.42 -3127.57) rotate(-90)" gradientUnits="userSpaceOnUse"><stop offset="0.01" stop-color="#909094"/><stop offset="0.53" stop-color="#a3a2a2"/><stop offset="1" stop-color="#5f5e60"/></linearGradient><linearGradient id="Cast_Iron-2" x1="-3185.56" y1="1246.93" x2="-3180.36" y2="1246.93" xlink:href="#Cast_Iron"/><linearGradient id="Cast_Iron-3" x1="-3234.43" y1="1243.28" x2="-3230.75" y2="1243.28" xlink:href="#Cast_Iron"/><linearGradient id="Cast_Iron-4" x1="-3235.22" y1="1246.9" x2="-3230.02" y2="1246.9" xlink:href="#Cast_Iron"/><linearGradient id="Cast_Iron-5" x1="-3184.53" y1="-2377.74" x2="-3180.85" y2="-2377.74" gradientTransform="matrix(0, -1, -1, 0, -1654.17, -3127.57)" xlink:href="#Cast_Iron"/><linearGradient id="Cast_Iron-6" x1="-3185.32" y1="-2374.12" x2="-3180.12" y2="-2374.12" gradientTransform="matrix(0, -1, -1, 0, -1654.17, -3127.57)" xlink:href="#Cast_Iron"/><linearGradient id="Cast_Iron-7" x1="-3234.18" y1="-2377.78" x2="-3230.5" y2="-2377.78" gradientTransform="matrix(0, -1, -1, 0, -1654.17, -3127.57)" xlink:href="#Cast_Iron"/><linearGradient id="Cast_Iron-8" x1="-3234.97" y1="-2374.15" x2="-3229.77" y2="-2374.15" gradientTransform="matrix(0, -1, -1, 0, -1654.17, -3127.57)" xlink:href="#Cast_Iron"/><radialGradient id="radial-gradient" cx="-988.51" cy="1270.13" r="5.28" gradientTransform="matrix(0.77, -0.64, 0.64, 0.77, 66.6, -1499.37)" gradientUnits="userSpaceOnUse"><stop offset="0" stop-color="#575757"/><stop offset="0.51" stop-color="#999ba4"/><stop offset="0.93" stop-color="#fff"/></radialGradient><linearGradient id="linear-gradient" x1="605.55" y1="66.78" x2="605.55" y2="53.26" gradientUnits="userSpaceOnUse"><stop offset="0.03" stop-color="#b55408"/><stop offset="0.13" stop-color="#c45a0a"/><stop offset="0.3" stop-color="#eb6910"/><stop offset="0.3" stop-color="#eb6910"/><stop offset="0.38" stop-color="#ee780c"/><stop offset="0.52" stop-color="#f59f02"/><stop offset="0.55" stop-color="#f6a600"/><stop offset="1" stop-color="#b55408"/></linearGradient><clipPath id="clip-path"><rect class="cls-1" x="477.57" y="42.22" width="25.85" height="29.86"/></clipPath><clipPath id="clip-path-4"><rect class="cls-1" x="443.1" y="42.22" width="25.85" height="29.86"/></clipPath><clipPath id="clip-path-7"><rect class="cls-1" x="416.66" y="42.14" width="25.85" height="29.86"/></clipPath><clipPath id="clip-path-9"><rect class="cls-1" x="477.54" y="88.95" width="25.85" height="29.86"/></clipPath><clipPath id="clip-path-12"><rect class="cls-1" x="443.08" y="88.95" width="25.85" height="29.86"/></clipPath><clipPath id="clip-path-15"><rect class="cls-1" x="416.63" y="88.87" width="25.85" height="29.86"/></clipPath><clipPath id="clip-path-17"><rect class="cls-1" x="206.27" y="42.14" width="25.85" height="29.86"/></clipPath><clipPath id="clip-path-20"><rect class="cls-1" x="238.68" y="42.3" width="25.85" height="29.86"/></clipPath><clipPath id="clip-path-23"><rect class="cls-1" x="265.15" y="42.3" width="25.85" height="29.86"/></clipPath><clipPath id="clip-path-26"><rect class="cls-1" x="291.59" y="42.22" width="25.85" height="29.86"/></clipPath><clipPath id="clip-path-28"><rect class="cls-1" x="326.48" y="42.25" width="25.85" height="29.86"/></clipPath><clipPath id="clip-path-30"><rect class="cls-1" x="206.29" y="88.87" width="25.85" height="29.86"/></clipPath><clipPath id="clip-path-33"><rect class="cls-1" x="238.71" y="89.03" width="25.85" height="29.86"/></clipPath><clipPath id="clip-path-36"><rect class="cls-1" x="265.17" y="89.03" width="25.85" height="29.86"/></clipPath><clipPath id="clip-path-39"><rect class="cls-1" x="291.62" y="88.95" width="25.84" height="29.86"/></clipPath><clipPath id="clip-path-41"><rect class="cls-1" x="326.51" y="88.98" width="25.85" height="29.86"/></clipPath><clipPath id="clip-path-43"><rect class="cls-1" x="382.33" y="42.1" width="25.85" height="29.86"/></clipPath><clipPath id="clip-path-45"><rect class="cls-1" x="382.36" y="88.82" width="25.85" height="29.86"/></clipPath></defs><title>Type5_BC5-3</title><g id="Type_5_BC5-3_vogn4"><g id="VOGNKASSE-2" data-name="VOGNKASSE"><rect id="GULVFARGE" class="cls-2" x="27.31" y="36.23" width="680.6" height="87.92"/><rect class="cls-3" x="55.2" y="36.19" width="624.56" height="3.12"/><rect class="cls-4" x="54.74" y="36.2" width="110.11" height="3.12"/><rect class="cls-4" x="188.85" y="36.22" width="13.77" height="3.12"/><rect class="cls-4" x="238.04" y="36.19" width="13.77" height="3.12"/><rect class="cls-4" x="287.01" y="36.2" width="13.77" height="3.12"/><rect class="cls-4" x="336.32" y="36.14" width="62.71" height="3.12"/><rect class="cls-4" x="434.26" y="36.2" width="13.77" height="3.12"/><rect class="cls-4" x="483.44" y="36.14" width="13.77" height="3.12"/><rect class="cls-4" x="532.57" y="36.2" width="13.77" height="3.12"/><rect class="cls-4" x="581.76" y="36.14" width="13.77" height="3.12"/><rect class="cls-4" x="630.94" y="36.14" width="49.2" height="3.12"/><rect class="cls-3" x="55.48" y="121.03" width="623.86" height="3.12"/><rect class="cls-4" x="54.79" y="121.04" width="110.11" height="3.12"/><rect class="cls-4" x="188.9" y="121.06" width="13.77" height="3.12"/><rect class="cls-4" x="238.08" y="121.03" width="13.77" height="3.12"/><rect class="cls-4" x="287.05" y="121.04" width="13.77" height="3.12"/><rect class="cls-4" x="336.36" y="120.98" width="62.71" height="3.12"/><rect class="cls-4" x="434.3" y="121.04" width="13.77" height="3.12"/><rect class="cls-4" x="483.49" y="120.98" width="13.77" height="3.12"/><rect class="cls-4" x="532.61" y="121.04" width="13.77" height="3.12"/><rect class="cls-4" x="581.8" y="120.98" width="13.77" height="3.12"/><rect class="cls-4" x="630.99" y="120.98" width="49.14" height="3.12"/><path class="cls-5" d="M18.63,37.77h0c-1.38.26-2.51.75-2.7,2.78V63.19h11.2v-27Z"/><path class="cls-5" d="M18.69,122.59h0c-1.38-.27-2.51-.76-2.69-2.79V97.17H27.2v27Z"/><path class="cls-5" d="M716.65,37.77h0c1.39.26,2.51.75,2.7,2.78V63.19H708.15v-27Z"/><path class="cls-5" d="M716.59,122.59h0c1.39-.27,2.51-.76,2.7-2.79V97.17h-11.2v27Z"/><polygon class="cls-6" points="17.39 63.21 17.39 63.24 15.43 65.21 11.97 65.21 8.31 68.87 8.31 80.42 8.31 80.43 8.31 91.98 11.97 95.64 15.43 95.64 17.39 97.61 17.39 97.64 27.11 97.64 27.11 80.43 27.11 80.42 27.11 63.21 17.39 63.21"/><rect class="cls-7" x="8.63" y="53.53" width="6.51" height="3.68"/><rect class="cls-8" x="15.04" y="52.8" width="0.95" height="5.2"/><path class="cls-9" d="M8.59,59V51.64h-1l0,.13C6.89,53,7,57.85,7.55,59l0,.11h1V59h0"/><rect class="cls-10" x="8.6" y="103.18" width="6.51" height="3.68"/><rect class="cls-11" x="15" y="102.45" width="0.95" height="5.2"/><path class="cls-9" d="M8.56,108.63v-7.34h-1l-.06.14c-.65,1.25-.53,6.07,0,7.18l0,.12h1v-.1h0"/><polygon class="cls-6" points="717.8 62.97 717.8 62.99 719.76 64.96 723.22 64.96 726.88 68.62 726.88 80.17 726.88 80.18 726.88 91.73 723.22 95.39 719.76 95.39 717.8 97.36 717.8 97.39 708.08 97.39 708.08 80.18 708.08 80.17 708.08 62.97 717.8 62.97"/><rect class="cls-12" x="720.31" y="53.28" width="6.51" height="3.68"/><rect class="cls-13" x="719.47" y="52.55" width="0.95" height="5.2"/><path class="cls-9" d="M726.86,58.73V51.39h1l.06.14c.65,1.24.53,6.07,0,7.18l0,.11h-1l0-.09h0"/><rect class="cls-14" x="720.34" y="102.94" width="6.51" height="3.68"/><rect class="cls-15" x="719.5" y="102.21" width="0.95" height="5.2"/><path class="cls-9" d="M726.89,108.38v-7.33h1l.06.13c.65,1.25.53,6.08,0,7.19l0,.11h-1l0-.1h0"/><rect class="cls-16" x="680.1" y="105.66" width="24.21" height="18.45"/><rect class="cls-16" x="680.1" y="111.32" width="24.21" height="6.52"/><rect class="cls-16" x="680.07" y="36.24" width="24.21" height="18.45"/><rect class="cls-16" x="680.07" y="41.9" width="24.21" height="6.52"/><rect class="cls-16" x="30.51" y="105.65" width="24.21" height="18.45"/><rect class="cls-16" x="30.51" y="111.32" width="24.21" height="6.52"/><rect class="cls-16" x="30.48" y="36.23" width="24.21" height="18.45"/><rect class="cls-16" x="30.48" y="41.9" width="24.21" height="6.52"/><polygon class="cls-17" points="705.13 105.78 704.46 105.78 704.46 103.05 704.05 103.05 704.05 103.13 702.64 103.13 702.64 103.55 704.05 103.55 704.05 108.87 704.46 108.87 704.46 106.11 705.13 106.11 705.13 105.78"/><rect class="cls-18" x="650.63" y="34.04" width="29.91" height="1.21"/><rect class="cls-18" x="650.71" y="125.13" width="29.92" height="1.21"/><rect class="cls-18" x="54.65" y="34.09" width="29.92" height="1.21"/><rect class="cls-18" x="54.73" y="125.17" width="29.92" height="1.21"/></g><g id="INNREDNING-2" data-name="INNREDNING"><path class="cls-6" d="M67.93,99.54h-.05a5.7,5.7,0,0,0-5.7,5.69,1.49,1.49,0,0,0,0,.21h0V121H83V99.54Z"/><path class="cls-6" d="M662,99.54h-.05a5.69,5.69,0,0,0-5.69,5.69,1.48,1.48,0,0,0,0,.21h0V121H677V99.54Z"/><rect class="cls-19" x="141.82" y="97.71" width="22.69" height="22.81"/><rect class="cls-19" x="141.62" y="39.96" width="20.01" height="19.09"/><polygon class="cls-6" points="138.77 39.49 62.6 39.49 62.6 48.27 112.29 48.27 138.77 58.96 138.77 39.49"/><path class="cls-20" d="M319.75,120.93h-4.39a50,50,0,0,1,2.39-15.82h0a1.11,1.11,0,0,1,.93-.73h0a15.56,15.56,0,0,1,2-.24v0l.87,0a15.11,15.11,0,0,1,2.65.22v0a1.1,1.1,0,0,1,.95.78h0a50,50,0,0,1,2.39,15.83Z"/><circle class="cls-21" cx="319.78" cy="119.42" r="1.05"/><path class="cls-21" d="M324.24,119.44a1.05,1.05,0,1,0-1.05,1.06A1,1,0,0,0,324.24,119.44Z"/><path class="cls-21" d="M321.18,106.81a1.06,1.06,0,1,0-1.06,1A1.05,1.05,0,0,0,321.18,106.81Z"/><path class="cls-21" d="M324,106.78a1.06,1.06,0,1,0-1.05,1A1.05,1.05,0,0,0,324,106.78Z"/><path class="cls-20" d="M319.67,39.66h-4.39a50,50,0,0,0,2.38,15.83h0a1.11,1.11,0,0,0,.92.73h0a14,14,0,0,0,2,.25h0c.28,0,.56,0,.86,0a14.2,14.2,0,0,0,2.65-.22h0a1.11,1.11,0,0,0,.95-.78h0a50.11,50.11,0,0,0,2.38-15.84Z"/><path class="cls-21" d="M320.75,41.18a1.06,1.06,0,1,1-1.06-1.06A1.05,1.05,0,0,1,320.75,41.18Z"/><path class="cls-21" d="M324.16,41.15a1.06,1.06,0,1,1-1.05-1A1.05,1.05,0,0,1,324.16,41.15Z"/><path class="cls-21" d="M321.1,53.79a1.06,1.06,0,1,1-1.06-1A1.07,1.07,0,0,1,321.1,53.79Z"/><path class="cls-21" d="M323.93,53.82a1.06,1.06,0,1,1-1.06-1.06A1.05,1.05,0,0,1,323.93,53.82Z"/><path class="cls-20" d="M410.67,39.66h-4.39a50,50,0,0,0,2.38,15.83h0a1.11,1.11,0,0,0,.92.73h0a14,14,0,0,0,2,.25h0c.28,0,.56,0,.86,0a14.2,14.2,0,0,0,2.65-.22h0a1.11,1.11,0,0,0,.95-.78h0a50.11,50.11,0,0,0,2.38-15.84Z"/><path class="cls-21" d="M411.75,41.18a1.06,1.06,0,1,1-1.06-1.06A1.05,1.05,0,0,1,411.75,41.18Z"/><path class="cls-21" d="M415.16,41.15a1.06,1.06,0,1,1-1.05-1A1.05,1.05,0,0,1,415.16,41.15Z"/><path class="cls-21" d="M412.1,53.79a1.06,1.06,0,1,1-1.06-1A1.07,1.07,0,0,1,412.1,53.79Z"/><path class="cls-21" d="M414.93,53.82a1.06,1.06,0,1,1-1.06-1.06A1.05,1.05,0,0,1,414.93,53.82Z"/><path class="cls-20" d="M410.75,120.93h-4.39a50,50,0,0,1,2.39-15.82h0a1.11,1.11,0,0,1,.93-.73h0a15.56,15.56,0,0,1,2-.24v0l.87,0a15.11,15.11,0,0,1,2.65.22v0a1.1,1.1,0,0,1,.95.78h0a50,50,0,0,1,2.39,15.83Z"/><circle class="cls-21" cx="410.78" cy="119.42" r="1.05"/><path class="cls-21" d="M415.24,119.44a1.05,1.05,0,1,0-1.05,1.06A1,1,0,0,0,415.24,119.44Z"/><path class="cls-21" d="M412.18,106.81a1.06,1.06,0,1,0-1.06,1A1.05,1.05,0,0,0,412.18,106.81Z"/><path class="cls-21" d="M415,106.78a1.06,1.06,0,1,0-1.05,1A1.05,1.05,0,0,0,415,106.78Z"/><rect class="cls-6" x="353.24" y="39.75" width="28.35" height="28.35"/><rect class="cls-22" x="353.98" y="49.62" width="13.57" height="18.3"/><rect class="cls-22" x="368.07" y="49.62" width="12.69" height="18.3"/><rect class="cls-6" x="353.13" y="92.85" width="28.35" height="28.35"/><rect class="cls-22" x="353.87" y="93.02" width="13.57" height="18.3"/><rect class="cls-22" x="367.96" y="93.02" width="12.69" height="18.3"/><rect class="cls-4" x="139.53" y="71.84" width="1.06" height="13.48"/><rect class="cls-4" x="139.6" y="58.16" width="1.06" height="13.48"/><rect class="cls-4" x="679" y="80.15" width="1.06" height="13.48"/><rect class="cls-4" x="679.06" y="66.46" width="1.06" height="13.48"/><rect class="cls-4" x="677.6" y="39.54" width="1.19" height="27.38"/><rect class="cls-4" x="677.62" y="93.64" width="1.19" height="27.38"/><rect class="cls-4" x="704.86" y="80.39" width="1.06" height="12.59"/><rect class="cls-4" x="704.86" y="67.68" width="1.06" height="12.47"/><polygon class="cls-23" points="704.95 36.28 704.95 55.2 706.06 55.2 706.06 67.51 707.5 67.51 707.5 36.28 704.95 36.28"/><polygon class="cls-23" points="704.99 124.26 704.99 105.34 706.11 105.34 706.11 93.03 707.54 93.03 707.54 124.26 704.99 124.26"/><rect class="cls-4" x="28.75" y="80.43" width="1.06" height="12.59"/><rect class="cls-4" x="28.75" y="67.73" width="1.06" height="12.47"/><polygon class="cls-23" points="29.72 36.33 29.72 55.25 28.6 55.25 28.6 67.56 27.17 67.56 27.17 36.33 29.72 36.33"/><polygon class="cls-23" points="29.67 124.3 29.67 105.39 28.56 105.39 28.56 93.08 27.12 93.08 27.12 124.3 29.67 124.3"/><path class="cls-24" d="M122.38,81.43c-.4-.37-.83-.72-1.26-1.06l-.63-.52,0,0a22.8,22.8,0,0,0-34.7,26.59l.69-.68h0a.08.08,0,0,1,0,0,1.44,1.44,0,0,1,2,0h0l2,2,.71.72,5.9,5.89h19.64a16.66,16.66,0,0,1,16-12.21c.47,0,.93,0,1.39.07l2-9.22Z"/><line class="cls-25" x1="127.91" y1="89.55" x2="122.68" y2="85.17"/><path class="cls-25" d="M121.36,83.48s0,0,0,0l-3.56,4.23s0,0,0,0c-2.53,3-2.7,7.08-.37,9s6.31,1.08,8.86-2l0,0,1.58-1.88h0l3.28-3.9-8.47-7.1Z"/><path class="cls-25" d="M122.7,85.18a7.93,7.93,0,0,0-4.65,2.8c-2.42,2.89-2.62,6.72-.43,8.56s5.93,1,8.36-1.91a7.92,7.92,0,0,0,1.94-5.06Z"/><path class="cls-26" d="M137.7,85.17l-21-8.57A23.52,23.52,0,0,0,107,74.51,23.22,23.22,0,0,0,86.75,86.14H83.94a1.35,1.35,0,0,0-1.34,1.11v1.12h4.32a21.83,21.83,0,0,1,20.09-13,22.23,22.23,0,0,1,9.66,2.19l21.21,8.77V85.17Z"/><path class="cls-6" d="M139,97.72V85h-.18l-21.92-9.19c-.42-.2-.84-.37-1.27-.55l-.58,1.89A22.29,22.29,0,0,1,120.53,80l0,0,.62.52c.43.33.84.68,1.25,1L136.06,93l-1.94,9.13c-.46,0-.91-.07-1.38-.07a16.49,16.49,0,0,0-15.88,12.09H97.41l-5.83-5.84-.71-.71-2-1.94h0a1.41,1.41,0,0,0-2,0l0,0h0l-.68.68A22.55,22.55,0,0,1,91,82.64l-1.75-1.58a24.3,24.3,0,0,0-3.64,5H82.66a1.41,1.41,0,0,0-1.4,1.19V99.43H67.55a5.69,5.69,0,0,0-5.69,5.69c0,.07,0,.14,0,.21h0v15.52H82.63v0h56.43V97.72Z"/><path class="cls-27" d="M130.55,105c1.51,1.8.62,5-2,7.2s-5.93,2.49-7.44.69-.63-5,2-7.2S129,103.22,130.55,105Z"/><polygon class="cls-28" points="140.77 98.11 139.34 98.11 139.34 84.66 138.3 84.66 138.3 121.24 141.62 121.24 141.62 84.66 140.77 84.66 140.77 98.11"/><polygon class="cls-28" points="138.31 39.5 138.31 59.15 139.35 59.15 139.35 45.7 140.78 45.7 140.78 59.15 141.63 59.15 141.63 39.5 138.31 39.5"/><rect class="cls-29" x="53.22" y="39.45" width="9.16" height="18.63"/><rect class="cls-29" x="52.64" y="102.28" width="9.16" height="18.63"/><polygon class="cls-30" points="539.27 39.47 539.27 66.63 566.1 93.46 626.37 93.46 654.25 65.58 654.25 39.47 539.27 39.47"/><rect class="cls-19" x="654.32" y="39.42" width="22.69" height="26.22"/><polygon class="cls-31" points="540.23 66.42 540.23 39.59 539.49 39.59 539.49 66.57 539.49 66.71 539.47 66.72 539.49 66.73 539.49 66.75 539.5 66.75 566.32 93.56 567.37 93.56 567.37 93.56 597.64 93.56 597.64 92.81 566.62 92.81 540.23 66.42"/><polygon class="cls-31" points="626.28 92.81 615.83 92.81 615.83 93.56 626.55 93.56 626.57 93.58 654.46 65.69 654.46 64.63 626.28 92.81"/><rect class="cls-4" x="539.47" y="39.52" width="0.81" height="10.92"/><rect class="cls-4" x="539.44" y="64.49" width="0.81" height="2.26"/><rect class="cls-4" x="540.14" y="66.11" width="0.81" height="2.26" transform="translate(110.2 401.17) rotate(-44.9)"/><rect class="cls-4" x="565.38" y="91.36" width="0.81" height="2.26" transform="translate(99.73 426.34) rotate(-44.9)"/><rect class="cls-4" x="566.3" y="92.75" width="13.23" height="0.81"/><rect class="cls-4" x="592.16" y="92.78" width="5.48" height="0.81"/><rect class="cls-4" x="615.8" y="92.81" width="10.71" height="0.81"/><rect class="cls-4" x="622.69" y="84.4" width="23.99" height="0.81" transform="translate(125.93 473.63) rotate(-45)"/><polygon class="cls-4" points="654.48 64.53 648.48 70.53 649.05 71.1 654.48 65.68 654.48 64.53"/><rect class="cls-32" x="573.75" y="39.74" width="1.54" height="52.86"/><polygon class="cls-32" points="637.5 81.29 637.5 39.49 635.96 39.49 635.96 82.83 637.5 81.29"/><polygon class="cls-6" points="636.01 74.33 617.74 92.61 617.81 92.68 626.16 92.68 636.01 82.83 636.01 74.33"/><polygon class="cls-30" points="635.94 39.79 575.36 39.79 575.36 52.96 578.26 52.96 578.26 74.93 592.58 74.93 592.58 52.96 635.94 52.96 635.94 39.79"/><path class="cls-33" d="M603.72,84.69A.57.57,0,0,1,603,85l-11-3.94a.55.55,0,0,1-.34-.72l4-10.83a.57.57,0,0,1,.74-.34l10.94,3.94a.56.56,0,0,1,.34.73Z"/><path class="cls-33" d="M627.16,78.74a.56.56,0,0,1-.27.75l-10.56,4.87a.57.57,0,0,1-.76-.27l-4.92-10.44a.56.56,0,0,1,.27-.75L621.48,68a.57.57,0,0,1,.76.27Z"/><rect class="cls-34" x="575.14" y="53.26" width="60.81" height="13.52"/><path class="cls-20" d="M197.89,120.8H193.5A50.09,50.09,0,0,1,195.88,105h0a1.09,1.09,0,0,1,.92-.72h0a12.76,12.76,0,0,1,2-.24v0l.86,0a14.2,14.2,0,0,1,2.65.22v0a1.1,1.1,0,0,1,1,.77h0a50.16,50.16,0,0,1,2.38,15.84Z"/><circle class="cls-21" cx="197.91" cy="119.29" r="1.05"/><path class="cls-21" d="M202.38,119.31a1.06,1.06,0,1,0-1,1A1.06,1.06,0,0,0,202.38,119.31Z"/><path class="cls-21" d="M199.31,106.67a1.06,1.06,0,0,0-2.11,0,1.06,1.06,0,1,0,2.11,0Z"/><path class="cls-21" d="M202.15,106.65a1.06,1.06,0,1,0-2.11,0,1.06,1.06,0,0,0,2.11,0Z"/><path class="cls-20" d="M197.8,39.53h-4.38a50.09,50.09,0,0,0,2.38,15.83h0a1.13,1.13,0,0,0,.93.73h0a14,14,0,0,0,2,.25h0l.87,0a14.2,14.2,0,0,0,2.65-.22h0a1.12,1.12,0,0,0,.95-.78h0a49.8,49.8,0,0,0,2.39-15.84Z"/><path class="cls-21" d="M198.88,41a1.06,1.06,0,1,1-1-1A1.05,1.05,0,0,1,198.88,41Z"/><path class="cls-21" d="M202.3,41A1.06,1.06,0,1,1,201.24,40,1.05,1.05,0,0,1,202.3,41Z"/><path class="cls-21" d="M199.23,53.66a1.06,1.06,0,0,1-2.11,0,1.06,1.06,0,1,1,2.11,0Z"/><path class="cls-21" d="M202.06,53.69a1.06,1.06,0,0,1-2.11,0,1.06,1.06,0,1,1,2.11,0Z"/><rect class="cls-3" x="538.78" y="101.03" width="1.05" height="19.79"/></g><g id="SETER"><polygon class="cls-35" points="483.25 58.38 483.25 71.7 500.58 71.7 503.04 69.24 503.04 60.83 500.6 58.38 483.25 58.38"/><g class="cls-36"><polygon class="cls-37" points="503.04 69.24 503.04 60.83 500.6 58.38 483.25 58.38 483.25 71.7 500.58 71.7 503.04 69.24"/></g><polygon class="cls-38" points="496.51 58.82 498.79 61.15 498.79 61.15 498.79 68.97 498.79 68.97 496.51 71.29 498.2 71.29 500.45 68.99 500.48 68.99 500.48 61.15 500.48 61.15 498.2 58.82 496.51 58.82"/><rect class="cls-39" x="500.65" y="61.8" width="1.98" height="6.51"/><polygon class="cls-35" points="483.24 42.6 483.24 55.92 500.57 55.92 503.03 53.46 503.03 45.04 500.59 42.6 483.24 42.6"/><g class="cls-36"><polygon class="cls-37" points="503.03 53.46 503.03 45.04 500.59 42.6 483.24 42.6 483.24 55.92 500.57 55.92 503.03 53.46"/></g><polygon class="cls-38" points="496.5 43.03 498.78 45.36 498.78 45.36 498.78 53.18 498.78 53.18 496.5 55.51 498.19 55.51 500.45 53.2 500.47 53.2 500.47 45.36 500.47 45.36 498.19 43.03 496.5 43.03"/><rect class="cls-39" x="500.64" y="46.02" width="1.98" height="6.51"/><g class="cls-36"><path class="cls-40" d="M482.29,61.86a7.08,7.08,0,0,1-1.37-6.24l1.37.64V49.93l-4.5,4.23,1.43.67a8.9,8.9,0,0,0,3.07,9.49Z"/><path class="cls-41" d="M482.29,61.86a7.08,7.08,0,0,1-1.37-6.24l1.37.64V49.93l-4.5,4.23,1.43.67a8.9,8.9,0,0,0,3.07,9.49Z"/></g><polygon class="cls-35" points="448.78 58.38 448.78 71.7 466.11 71.7 468.57 69.24 468.57 60.83 466.13 58.38 448.78 58.38"/><g class="cls-42"><polygon class="cls-37" points="468.57 69.24 468.57 60.83 466.13 58.38 448.78 58.38 448.78 71.7 466.11 71.7 468.57 69.24"/></g><polygon class="cls-38" points="462.05 58.82 464.32 61.15 464.33 61.15 464.33 68.97 464.32 68.97 462.05 71.29 463.73 71.29 465.99 68.99 466.01 68.99 466.01 61.15 466.01 61.15 463.73 58.82 462.05 58.82"/><rect class="cls-39" x="466.18" y="61.8" width="1.98" height="6.51"/><polygon class="cls-35" points="448.77 42.6 448.77 55.92 466.1 55.92 468.57 53.46 468.57 45.04 466.12 42.6 448.77 42.6"/><g class="cls-42"><polygon class="cls-37" points="468.57 53.46 468.57 45.04 466.12 42.6 448.77 42.6 448.77 55.92 466.11 55.92 468.57 53.46"/></g><polygon class="cls-38" points="462.04 43.03 464.31 45.36 464.32 45.36 464.32 53.18 464.31 53.18 462.04 55.51 463.73 55.51 465.98 53.2 466.01 53.2 466.01 45.36 466 45.36 463.73 43.03 462.04 43.03"/><rect class="cls-39" x="466.18" y="46.02" width="1.98" height="6.51"/><g class="cls-42"><path class="cls-40" d="M447.83,61.86a7.06,7.06,0,0,1-1.38-6.24l1.38.64V49.93l-4.51,4.23,1.44.67a8.88,8.88,0,0,0,3.07,9.49Z"/><path class="cls-41" d="M447.83,61.86a7.06,7.06,0,0,1-1.38-6.24l1.38.64V49.93l-4.51,4.23,1.44.67a8.88,8.88,0,0,0,3.07,9.49Z"/></g><polygon class="cls-35" points="422.33 58.3 422.33 71.63 439.67 71.63 442.13 69.16 442.13 60.75 439.68 58.3 422.33 58.3"/><g class="cls-43"><polygon class="cls-37" points="442.13 69.16 442.13 60.75 439.69 58.3 422.33 58.3 422.33 71.63 439.67 71.63 442.13 69.16"/></g><polygon class="cls-38" points="435.6 58.74 437.87 61.07 437.88 61.07 437.88 68.89 437.87 68.89 435.6 71.21 437.29 71.21 439.54 68.91 439.57 68.91 439.57 61.07 439.56 61.07 437.29 58.74 435.6 58.74"/><rect class="cls-39" x="439.74" y="61.72" width="1.98" height="6.51"/><polygon class="cls-35" points="422.32 42.52 422.32 55.84 439.66 55.84 442.12 53.38 442.12 44.96 439.68 42.52 422.32 42.52"/><g class="cls-43"><polygon class="cls-37" points="442.12 53.38 442.12 44.96 439.68 42.52 422.32 42.52 422.32 55.84 439.66 55.84 442.12 53.38"/></g><polygon class="cls-38" points="435.59 42.96 437.87 45.28 437.87 45.28 437.87 53.1 437.87 53.1 435.59 55.43 437.28 55.43 439.53 53.12 439.56 53.12 439.56 45.28 439.56 45.28 437.28 42.96 435.59 42.96"/><rect class="cls-39" x="439.73" y="45.94" width="1.98" height="6.51"/><polygon class="cls-35" points="483.22 105.11 483.22 118.43 500.55 118.43 503.01 115.97 503.01 107.55 500.57 105.11 483.22 105.11"/><g class="cls-44"><polygon class="cls-37" points="503.01 115.97 503.01 107.55 500.57 105.11 483.22 105.11 483.22 118.43 500.55 118.43 503.01 115.97"/></g><polygon class="cls-38" points="496.49 105.55 498.76 107.88 498.76 107.88 498.76 115.69 498.76 115.69 496.49 118.02 498.17 118.02 500.43 115.72 500.45 115.72 500.45 107.88 500.45 107.88 498.17 105.55 496.49 105.55"/><rect class="cls-39" x="500.62" y="108.53" width="1.98" height="6.51"/><polygon class="cls-35" points="483.21 89.32 483.21 102.65 500.54 102.65 503.01 100.18 503.01 91.77 500.56 89.32 483.21 89.32"/><g class="cls-44"><polygon class="cls-37" points="503 100.18 503 91.77 500.56 89.32 483.21 89.32 483.21 102.65 500.54 102.65 503 100.18"/></g><polygon class="cls-38" points="496.48 89.76 498.75 92.09 498.76 92.09 498.76 99.91 498.75 99.91 496.48 102.24 498.17 102.24 500.42 99.93 500.45 99.93 500.45 92.09 500.44 92.09 498.17 89.76 496.48 89.76"/><rect class="cls-39" x="500.62" y="92.75" width="1.98" height="6.51"/><g class="cls-44"><path class="cls-40" d="M482.27,108.59a7.06,7.06,0,0,1-1.38-6.24l1.38.64V96.66l-4.51,4.23,1.44.67a8.88,8.88,0,0,0,3.07,9.49Z"/><path class="cls-41" d="M482.27,108.59a7.06,7.06,0,0,1-1.38-6.24l1.38.64V96.66l-4.51,4.23,1.44.67a8.88,8.88,0,0,0,3.07,9.49Z"/></g><polygon class="cls-35" points="448.75 105.11 448.75 118.43 466.09 118.43 468.55 115.97 468.55 107.55 466.1 105.11 448.75 105.11"/><g class="cls-45"><polygon class="cls-37" points="468.55 115.97 468.55 107.55 466.11 105.11 448.75 105.11 448.75 118.43 466.09 118.43 468.55 115.97"/></g><polygon class="cls-38" points="462.02 105.55 464.29 107.88 464.3 107.88 464.3 115.69 464.29 115.69 462.02 118.02 463.71 118.02 465.96 115.72 465.99 115.72 465.99 107.88 465.98 107.88 463.71 105.55 462.02 105.55"/><rect class="cls-39" x="466.16" y="108.53" width="1.98" height="6.51"/><polygon class="cls-35" points="448.75 89.32 448.75 102.65 466.08 102.65 468.54 100.18 468.54 91.77 466.1 89.32 448.75 89.32"/><g class="cls-45"><polygon class="cls-37" points="468.54 100.18 468.54 91.77 466.1 89.32 448.75 89.32 448.75 102.65 466.08 102.65 468.54 100.18"/></g><polygon class="cls-38" points="462.01 89.76 464.29 92.09 464.29 92.09 464.29 99.91 464.29 99.91 462.01 102.24 463.7 102.24 465.95 99.93 465.98 99.93 465.98 92.09 465.98 92.09 463.7 89.76 462.01 89.76"/><rect class="cls-39" x="466.15" y="92.75" width="1.98" height="6.51"/><g class="cls-45"><path class="cls-40" d="M447.8,108.59a7.06,7.06,0,0,1-1.38-6.24l1.38.64V96.66l-4.5,4.23,1.43.67a8.9,8.9,0,0,0,3.07,9.49Z"/><path class="cls-41" d="M447.8,108.59a7.06,7.06,0,0,1-1.38-6.24l1.38.64V96.66l-4.5,4.23,1.43.67a8.9,8.9,0,0,0,3.07,9.49Z"/></g><polygon class="cls-35" points="422.31 105.03 422.31 118.35 439.64 118.35 442.1 115.89 442.1 107.47 439.66 105.03 422.31 105.03"/><g class="cls-46"><polygon class="cls-37" points="442.1 115.89 442.1 107.47 439.66 105.03 422.31 105.03 422.31 118.35 439.64 118.35 442.1 115.89"/></g><polygon class="cls-38" points="435.57 105.47 437.85 107.8 437.85 107.8 437.85 115.61 437.85 115.61 435.57 117.94 437.26 117.94 439.51 115.64 439.54 115.64 439.54 107.8 439.54 107.8 437.26 105.47 435.57 105.47"/><rect class="cls-39" x="439.71" y="108.45" width="1.98" height="6.51"/><polygon class="cls-35" points="422.3 89.25 422.3 102.57 439.63 102.57 442.1 100.11 442.1 91.69 439.65 89.25 422.3 89.25"/><g class="cls-46"><polygon class="cls-37" points="442.09 100.11 442.09 91.69 439.65 89.25 422.3 89.25 422.3 102.57 439.63 102.57 442.09 100.11"/></g><polygon class="cls-38" points="435.57 89.68 437.84 92.01 437.85 92.01 437.85 99.83 437.84 99.83 435.57 102.16 437.25 102.16 439.51 99.85 439.54 99.85 439.54 92.01 439.53 92.01 437.25 89.68 435.57 89.68"/><rect class="cls-39" x="439.7" y="92.67" width="1.98" height="6.51"/><polygon class="cls-35" points="226.44 58.3 226.44 71.62 209.1 71.62 206.64 69.16 206.64 60.74 209.09 58.3 226.44 58.3"/><g class="cls-47"><polygon class="cls-37" points="206.64 69.16 206.64 60.74 209.09 58.3 226.44 58.3 226.44 71.62 209.1 71.62 206.64 69.16"/></g><polygon class="cls-38" points="213.17 58.74 210.9 61.06 210.89 61.06 210.89 68.88 210.9 68.88 213.17 71.21 211.48 71.21 209.23 68.9 209.2 68.9 209.2 61.06 209.21 61.06 211.48 58.74 213.17 58.74"/><rect class="cls-39" x="207.05" y="61.72" width="1.98" height="6.51"/><polygon class="cls-35" points="226.44 42.52 226.44 55.84 209.11 55.84 206.65 53.37 206.65 44.96 209.09 42.52 226.44 42.52"/><g class="cls-47"><polygon class="cls-37" points="206.65 53.37 206.65 44.96 209.09 42.52 226.44 42.52 226.44 55.84 209.11 55.84 206.65 53.37"/></g><polygon class="cls-38" points="213.18 42.95 210.9 45.28 210.9 45.28 210.9 53.1 210.9 53.1 213.18 55.43 211.49 55.43 209.24 53.12 209.21 53.12 209.21 45.28 209.22 45.28 211.49 42.95 213.18 42.95"/><rect class="cls-39" x="207.06" y="45.94" width="1.98" height="6.51"/><g class="cls-47"><path class="cls-40" d="M227.39,61.78a7.06,7.06,0,0,0,1.38-6.24l-1.38.64V49.85l4.5,4.23-1.43.67a8.9,8.9,0,0,1-3.07,9.49Z"/><path class="cls-41" d="M227.39,61.78a7.06,7.06,0,0,0,1.38-6.24l-1.38.64V49.85l4.5,4.23-1.43.67a8.9,8.9,0,0,1-3.07,9.49Z"/></g><polygon class="cls-35" points="258.85 58.46 258.85 71.78 241.52 71.78 239.06 69.32 239.06 60.9 241.5 58.46 258.85 58.46"/><g class="cls-48"><polygon class="cls-37" points="239.06 69.32 239.06 60.9 241.5 58.46 258.85 58.46 258.85 71.78 241.52 71.78 239.06 69.32"/></g><polygon class="cls-38" points="245.58 58.89 243.31 61.22 243.31 61.22 243.31 69.04 243.31 69.04 245.58 71.37 243.9 71.37 241.64 69.06 241.62 69.06 241.62 61.22 241.62 61.22 243.9 58.89 245.58 58.89"/><rect class="cls-39" x="239.46" y="61.88" width="1.98" height="6.51"/><polygon class="cls-35" points="258.86 42.67 258.86 55.99 241.53 55.99 239.06 53.53 239.06 45.12 241.51 42.67 258.86 42.67"/><g class="cls-48"><polygon class="cls-37" points="239.06 53.53 239.06 45.12 241.51 42.67 258.86 42.67 258.86 55.99 241.53 55.99 239.06 53.53"/></g><polygon class="cls-38" points="245.59 43.11 243.32 45.44 243.31 45.44 243.31 53.26 243.32 53.26 245.59 55.58 243.91 55.58 241.65 53.28 241.62 53.28 241.62 45.44 241.63 45.44 243.91 43.11 245.59 43.11"/><rect class="cls-39" x="239.47" y="46.09" width="1.98" height="6.51"/><g class="cls-48"><path class="cls-40" d="M259.8,61.94a7.08,7.08,0,0,0,1.38-6.25l-1.38.65V50l4.51,4.23-1.44.66a8.89,8.89,0,0,1-3.07,9.5Z"/><path class="cls-41" d="M259.8,61.94a7.08,7.08,0,0,0,1.38-6.25l-1.38.65V50l4.51,4.23-1.44.66a8.89,8.89,0,0,1-3.07,9.5Z"/></g><polygon class="cls-35" points="285.32 58.46 285.32 71.78 267.98 71.78 265.52 69.32 265.52 60.9 267.97 58.46 285.32 58.46"/><g class="cls-49"><polygon class="cls-37" points="265.52 69.32 265.52 60.9 267.97 58.46 285.32 58.46 285.32 71.78 267.98 71.78 265.52 69.32"/></g><polygon class="cls-38" points="272.05 58.89 269.78 61.22 269.77 61.22 269.77 69.04 269.78 69.04 272.05 71.37 270.36 71.37 268.11 69.06 268.08 69.06 268.08 61.22 268.09 61.22 270.36 58.89 272.05 58.89"/><rect class="cls-39" x="265.93" y="61.88" width="1.98" height="6.51"/><polygon class="cls-35" points="285.33 42.67 285.33 55.99 267.99 55.99 265.53 53.53 265.53 45.12 267.98 42.67 285.33 42.67"/><g class="cls-49"><polygon class="cls-37" points="265.53 53.53 265.53 45.12 267.97 42.67 285.33 42.67 285.33 55.99 267.99 55.99 265.53 53.53"/></g><polygon class="cls-38" points="272.06 43.11 269.79 45.44 269.78 45.44 269.78 53.26 269.79 53.26 272.06 55.58 270.37 55.58 268.12 53.28 268.09 53.28 268.09 45.44 268.1 45.44 270.37 43.11 272.06 43.11"/><rect class="cls-39" x="265.94" y="46.09" width="1.98" height="6.51"/><g class="cls-49"><path class="cls-40" d="M286.27,61.94a7.08,7.08,0,0,0,1.38-6.25l-1.38.65V50l4.5,4.23-1.43.66a8.91,8.91,0,0,1-3.07,9.5Z"/><path class="cls-41" d="M286.27,61.94a7.08,7.08,0,0,0,1.38-6.25l-1.38.65V50l4.5,4.23-1.43.66a8.91,8.91,0,0,1-3.07,9.5Z"/></g><polygon class="cls-35" points="311.76 58.38 311.76 71.7 294.43 71.7 291.97 69.24 291.97 60.82 294.41 58.38 311.76 58.38"/><g class="cls-50"><polygon class="cls-37" points="291.97 69.24 291.97 60.82 294.41 58.38 311.76 58.38 311.76 71.7 294.43 71.7 291.97 69.24"/></g><polygon class="cls-38" points="298.5 58.81 296.22 61.14 296.22 61.14 296.22 68.96 296.22 68.96 298.5 71.29 296.81 71.29 294.56 68.98 294.53 68.98 294.53 61.14 294.53 61.14 296.81 58.81 298.5 58.81"/><rect class="cls-39" x="292.38" y="61.8" width="1.98" height="6.51"/><polygon class="cls-35" points="311.77 42.59 311.77 55.91 294.44 55.91 291.98 53.45 291.98 45.04 294.42 42.59 311.77 42.59"/><g class="cls-50"><polygon class="cls-37" points="291.98 53.45 291.98 45.04 294.42 42.59 311.77 42.59 311.77 55.91 294.44 55.91 291.98 53.45"/></g><polygon class="cls-38" points="298.5 43.03 296.23 45.36 296.23 45.36 296.23 53.18 296.23 53.18 298.5 55.51 296.82 55.51 294.56 53.2 294.54 53.2 294.54 45.36 294.54 45.36 296.82 43.03 298.5 43.03"/><rect class="cls-39" x="292.38" y="46.01" width="1.98" height="6.51"/><polygon class="cls-35" points="332.16 58.41 332.16 71.73 349.49 71.73 351.95 69.27 351.95 60.85 349.51 58.41 332.16 58.41"/><g class="cls-51"><polygon class="cls-37" points="351.95 69.27 351.95 60.85 349.51 58.41 332.16 58.41 332.16 71.73 349.49 71.73 351.95 69.27"/></g><polygon class="cls-38" points="345.43 58.85 347.7 61.17 347.71 61.17 347.71 68.99 347.7 68.99 345.43 71.32 347.11 71.32 349.37 69.01 349.39 69.01 349.39 61.17 349.39 61.17 347.11 58.85 345.43 58.85"/><rect class="cls-39" x="349.56" y="61.83" width="1.98" height="6.51"/><polygon class="cls-35" points="332.15 42.62 332.15 55.95 349.48 55.95 351.95 53.48 351.95 45.07 349.5 42.62 332.15 42.62"/><g class="cls-51"><polygon class="cls-37" points="351.95 53.48 351.95 45.07 349.5 42.62 332.15 42.62 332.15 55.95 349.49 55.95 351.95 53.48"/></g><polygon class="cls-38" points="345.42 43.06 347.69 45.39 347.7 45.39 347.7 53.21 347.69 53.21 345.42 55.53 347.11 55.53 349.36 53.23 349.39 53.23 349.39 45.39 349.38 45.39 347.11 43.06 345.42 43.06"/><rect class="cls-39" x="349.56" y="46.05" width="1.98" height="6.51"/><polygon class="cls-35" points="226.46 105.03 226.46 118.35 209.13 118.35 206.67 115.89 206.67 107.47 209.11 105.03 226.46 105.03"/><g class="cls-52"><polygon class="cls-37" points="206.67 115.89 206.67 107.47 209.11 105.03 226.46 105.03 226.46 118.35 209.13 118.35 206.67 115.89"/></g><polygon class="cls-38" points="213.19 105.47 210.92 107.79 210.92 107.79 210.92 115.61 210.92 115.61 213.19 117.94 211.51 117.94 209.25 115.63 209.23 115.63 209.23 107.79 209.23 107.79 211.51 105.47 213.19 105.47"/><rect class="cls-39" x="207.08" y="108.45" width="1.98" height="6.51"/><polygon class="cls-35" points="226.47 89.24 226.47 102.56 209.14 102.56 206.68 100.1 206.68 91.69 209.12 89.24 226.47 89.24"/><g class="cls-52"><polygon class="cls-37" points="206.68 100.1 206.68 91.69 209.12 89.24 226.47 89.24 226.47 102.56 209.14 102.56 206.68 100.1"/></g><polygon class="cls-38" points="213.2 89.68 210.93 92.01 210.93 92.01 210.93 99.83 210.93 99.83 213.2 102.15 211.52 102.15 209.26 99.85 209.24 99.85 209.24 92.01 209.24 92.01 211.52 89.68 213.2 89.68"/><rect class="cls-39" x="207.08" y="92.66" width="1.98" height="6.51"/><g class="cls-52"><path class="cls-40" d="M227.42,108.51a7.09,7.09,0,0,0,1.37-6.24l-1.37.64V96.58l4.5,4.23-1.43.66a8.93,8.93,0,0,1-3.07,9.5Z"/><path class="cls-41" d="M227.42,108.51a7.09,7.09,0,0,0,1.37-6.24l-1.37.64V96.58l4.5,4.23-1.43.66a8.93,8.93,0,0,1-3.07,9.5Z"/></g><polygon class="cls-35" points="258.88 105.18 258.88 118.51 241.54 118.51 239.08 116.04 239.08 107.63 241.53 105.18 258.88 105.18"/><g class="cls-53"><polygon class="cls-37" points="239.08 116.04 239.08 107.63 241.53 105.18 258.88 105.18 258.88 118.51 241.54 118.51 239.08 116.04"/></g><polygon class="cls-38" points="245.61 105.62 243.34 107.95 243.33 107.95 243.33 115.77 243.34 115.77 245.61 118.1 243.92 118.1 241.67 115.79 241.64 115.79 241.64 107.95 241.65 107.95 243.92 105.62 245.61 105.62"/><rect class="cls-39" x="239.49" y="108.61" width="1.98" height="6.51"/><polygon class="cls-35" points="258.89 89.4 258.89 102.72 241.55 102.72 239.09 100.26 239.09 91.84 241.53 89.4 258.89 89.4"/><g class="cls-53"><polygon class="cls-37" points="239.09 100.26 239.09 91.84 241.53 89.4 258.89 89.4 258.89 102.72 241.55 102.72 239.09 100.26"/></g><polygon class="cls-38" points="245.62 89.84 243.35 92.17 243.34 92.17 243.34 99.98 243.35 99.98 245.62 102.31 243.93 102.31 241.68 100.01 241.65 100.01 241.65 92.17 241.66 92.17 243.93 89.84 245.62 89.84"/><rect class="cls-39" x="239.5" y="92.82" width="1.98" height="6.51"/><g class="cls-53"><path class="cls-40" d="M259.83,108.66a7.06,7.06,0,0,0,1.38-6.24l-1.38.64V96.73l4.5,4.23-1.43.67a8.91,8.91,0,0,1-3.07,9.5Z"/><path class="cls-41" d="M259.83,108.66a7.06,7.06,0,0,0,1.38-6.24l-1.38.64V96.73l4.5,4.23-1.43.67a8.91,8.91,0,0,1-3.07,9.5Z"/></g><polygon class="cls-35" points="285.34 105.18 285.34 118.51 268.01 118.51 265.55 116.04 265.55 107.63 267.99 105.18 285.34 105.18"/><g class="cls-54"><polygon class="cls-37" points="265.55 116.04 265.55 107.63 267.99 105.18 285.34 105.18 285.34 118.51 268.01 118.51 265.55 116.04"/></g><polygon class="cls-38" points="272.08 105.62 269.8 107.95 269.8 107.95 269.8 115.77 269.8 115.77 272.08 118.1 270.39 118.1 268.14 115.79 268.11 115.79 268.11 107.95 268.11 107.95 270.39 105.62 272.08 105.62"/><rect class="cls-39" x="265.96" y="108.61" width="1.98" height="6.51"/><polygon class="cls-35" points="285.35 89.4 285.35 102.72 268.02 102.72 265.56 100.26 265.56 91.84 268 89.4 285.35 89.4"/><g class="cls-54"><polygon class="cls-37" points="265.56 100.26 265.56 91.84 268 89.4 285.35 89.4 285.35 102.72 268.02 102.72 265.56 100.26"/></g><polygon class="cls-38" points="272.08 89.84 269.81 92.17 269.81 92.17 269.81 99.98 269.81 99.98 272.08 102.31 270.4 102.31 268.14 100.01 268.12 100.01 268.12 92.17 268.12 92.17 270.4 89.84 272.08 89.84"/><rect class="cls-39" x="265.96" y="92.82" width="1.98" height="6.51"/><g class="cls-54"><path class="cls-40" d="M286.3,108.66a7.08,7.08,0,0,0,1.37-6.24l-1.37.64V96.73l4.5,4.23-1.43.67a8.93,8.93,0,0,1-3.07,9.5Z"/><path class="cls-41" d="M286.3,108.66a7.08,7.08,0,0,0,1.37-6.24l-1.37.64V96.73l4.5,4.23-1.43.67a8.93,8.93,0,0,1-3.07,9.5Z"/></g><polygon class="cls-35" points="311.79 105.11 311.79 118.43 294.46 118.43 292 115.97 292 107.55 294.44 105.11 311.79 105.11"/><g class="cls-55"><polygon class="cls-37" points="292 115.97 292 107.55 294.44 105.11 311.79 105.11 311.79 118.43 294.46 118.43 292 115.97"/></g><polygon class="cls-38" points="298.52 105.55 296.25 107.87 296.25 107.87 296.25 115.69 296.25 115.69 298.52 118.02 296.84 118.02 294.58 115.71 294.56 115.71 294.56 107.87 294.56 107.87 296.84 105.55 298.52 105.55"/><rect class="cls-39" x="292.4" y="108.53" width="1.98" height="6.51"/><polygon class="cls-35" points="311.8 89.32 311.8 102.64 294.46 102.64 292 100.18 292 91.77 294.45 89.32 311.8 89.32"/><g class="cls-55"><polygon class="cls-37" points="292 100.18 292 91.77 294.45 89.32 311.8 89.32 311.8 102.64 294.46 102.64 292 100.18"/></g><polygon class="cls-38" points="298.53 89.76 296.26 92.09 296.25 92.09 296.25 99.9 296.26 99.9 298.53 102.23 296.84 102.23 294.59 99.93 294.56 99.93 294.56 92.09 294.57 92.09 296.84 89.76 298.53 89.76"/><rect class="cls-39" x="292.41" y="92.74" width="1.98" height="6.51"/><polygon class="cls-35" points="332.19 105.14 332.19 118.46 349.52 118.46 351.98 116 351.98 107.58 349.54 105.14 332.19 105.14"/><g class="cls-56"><polygon class="cls-37" points="351.98 116 351.98 107.58 349.54 105.14 332.19 105.14 332.19 118.46 349.52 118.46 351.98 116"/></g><polygon class="cls-38" points="345.45 105.57 347.73 107.9 347.73 107.9 347.73 115.72 347.73 115.72 345.45 118.05 347.14 118.05 349.39 115.74 349.42 115.74 349.42 107.9 349.42 107.9 347.14 105.57 345.45 105.57"/><rect class="cls-39" x="349.59" y="108.56" width="1.98" height="6.51"/><polygon class="cls-35" points="332.18 89.35 332.18 102.67 349.51 102.67 351.97 100.21 351.97 91.8 349.53 89.35 332.18 89.35"/><g class="cls-56"><polygon class="cls-37" points="351.97 100.21 351.97 91.8 349.53 89.35 332.18 89.35 332.18 102.67 349.51 102.67 351.97 100.21"/></g><polygon class="cls-38" points="345.44 89.79 347.72 92.12 347.72 92.12 347.72 99.94 347.72 99.94 345.44 102.26 347.13 102.26 349.39 99.96 349.41 99.96 349.41 92.12 349.41 92.12 347.13 89.79 345.44 89.79"/><rect class="cls-39" x="349.58" y="92.77" width="1.98" height="6.51"/><path class="cls-57" d="M421.45,108.29a7.08,7.08,0,0,1-1.38-6.25l1.38.65V96.36l-4.5,4.23,1.43.66a8.89,8.89,0,0,0,3.07,9.5Z"/><path class="cls-57" d="M421.58,61.86a7.06,7.06,0,0,1-1.38-6.24l1.38.64V49.93l-4.51,4.23,1.44.67a8.88,8.88,0,0,0,3.07,9.49Z"/><path class="cls-57" d="M312.69,61.76a7.08,7.08,0,0,0,1.37-6.24l-1.37.64V49.83l4.5,4.23-1.43.67a8.91,8.91,0,0,1-3.07,9.5Z"/><path class="cls-57" d="M312.69,108.5a7.08,7.08,0,0,0,1.37-6.24l-1.37.64V96.57l4.5,4.23-1.43.67a8.9,8.9,0,0,1-3.07,9.49Z"/><polygon class="cls-35" points="402.5 58.26 402.5 71.58 385.17 71.58 382.7 69.11 382.7 60.7 385.15 58.26 402.5 58.26"/><g class="cls-58"><polygon class="cls-37" points="382.7 69.11 382.7 60.7 385.15 58.26 402.5 58.26 402.5 71.58 385.17 71.58 382.7 69.11"/></g><polygon class="cls-38" points="389.23 58.69 386.96 61.02 386.95 61.02 386.95 68.84 386.96 68.84 389.23 71.17 387.54 71.17 385.29 68.86 385.26 68.86 385.26 61.02 385.27 61.02 387.54 58.69 389.23 58.69"/><rect class="cls-39" x="383.11" y="61.68" width="1.98" height="6.51"/><polygon class="cls-35" points="402.51 42.47 402.51 55.79 385.17 55.79 382.71 53.33 382.71 44.92 385.15 42.47 402.51 42.47"/><g class="cls-58"><polygon class="cls-37" points="382.71 53.33 382.71 44.92 385.15 42.47 402.51 42.47 402.51 55.79 385.17 55.79 382.71 53.33"/></g><polygon class="cls-38" points="389.24 42.91 386.96 45.24 386.96 45.24 386.96 53.05 386.96 53.05 389.24 55.38 387.55 55.38 385.3 53.08 385.27 53.08 385.27 45.24 385.28 45.24 387.55 42.91 389.24 42.91"/><rect class="cls-39" x="383.12" y="45.89" width="1.98" height="6.51"/><polygon class="cls-35" points="402.53 104.98 402.53 118.31 385.19 118.31 382.73 115.84 382.73 107.43 385.17 104.98 402.53 104.98"/><g class="cls-59"><polygon class="cls-37" points="382.73 115.84 382.73 107.43 385.17 104.98 402.53 104.98 402.53 118.31 385.19 118.31 382.73 115.84"/></g><polygon class="cls-38" points="389.26 105.42 386.99 107.75 386.98 107.75 386.98 115.57 386.99 115.57 389.26 117.89 387.57 117.89 385.32 115.59 385.29 115.59 385.29 107.75 385.29 107.75 387.57 105.42 389.26 105.42"/><rect class="cls-39" x="383.14" y="108.4" width="1.98" height="6.51"/><polygon class="cls-35" points="402.53 89.2 402.53 102.52 385.2 102.52 382.74 100.06 382.74 91.64 385.18 89.2 402.53 89.2"/><g class="cls-59"><polygon class="cls-37" points="382.74 100.06 382.74 91.64 385.18 89.2 402.53 89.2 402.53 102.52 385.2 102.52 382.74 100.06"/></g><polygon class="cls-38" points="389.27 89.64 386.99 91.97 386.99 91.97 386.99 99.78 386.99 99.78 389.27 102.11 387.58 102.11 385.32 99.81 385.3 99.81 385.3 91.97 385.3 91.97 387.58 89.64 389.27 89.64"/><rect class="cls-39" x="383.14" y="92.62" width="1.98" height="6.51"/><rect class="cls-60" x="569.19" y="107.33" width="11.34" height="11.34" rx="0.85" ry="0.85"/><rect class="cls-61" x="569.19" y="107.33" width="11.34" height="11.34" rx="0.85" ry="0.85"/><path class="cls-62" d="M568.25,121.09v-3.7a.85.85,0,0,1,.85-.85h11.34a.85.85,0,0,1,.85.85v3.7Z"/><rect class="cls-60" x="554.42" y="107.43" width="11.34" height="11.34" rx="0.85" ry="0.85"/><rect class="cls-63" x="554.42" y="107.43" width="11.34" height="11.34" rx="0.85" ry="0.85"/><path class="cls-62" d="M553.47,121.19V117.5a.85.85,0,0,1,.85-.85h11.34a.85.85,0,0,1,.85.85v3.69Z"/><rect class="cls-60" x="637.94" y="107.12" width="11.34" height="11.34" rx="0.85" ry="0.85"/><rect class="cls-64" x="637.94" y="107.12" width="11.34" height="11.34" rx="0.85" ry="0.85"/><path class="cls-62" d="M637,120.88v-3.69a.85.85,0,0,1,.85-.86h11.34a.85.85,0,0,1,.85.86v3.69Z"/><rect class="cls-60" x="623.16" y="107.22" width="11.34" height="11.34" rx="0.85" ry="0.85"/><rect class="cls-65" x="623.16" y="107.22" width="11.34" height="11.34" rx="0.85" ry="0.85"/><path class="cls-62" d="M622.22,121v-3.69a.85.85,0,0,1,.84-.85H634.4a.85.85,0,0,1,.85.85V121Z"/></g><g id="SETENUMMER"><path class="cls-66" d="M487.3,51.23a3.07,3.07,0,0,0,1.43.39c.91,0,1.27-.51,1.27-1,0-.74-.71-1.06-1.43-1.06H488v-.87h.54c.54,0,1.23-.25,1.23-.87,0-.43-.3-.79-1-.79a2.45,2.45,0,0,0-1.28.4l-.27-.86a3.48,3.48,0,0,1,1.8-.49c1.31,0,2,.72,2,1.54a1.52,1.52,0,0,1-1.16,1.47v0a1.59,1.59,0,0,1,1.38,1.56c0,1.06-.88,1.91-2.44,1.91a3.47,3.47,0,0,1-1.76-.44Z"/><path class="cls-66" d="M496.56,46.18v.76l-2.66,5.52h-1.24l2.64-5.28h-3v-1Z"/><path class="cls-66" d="M487.3,66.63a3.07,3.07,0,0,0,1.43.39c.91,0,1.27-.51,1.27-1,0-.75-.71-1.07-1.43-1.07H488v-.87h.54c.54,0,1.23-.25,1.23-.87,0-.43-.3-.79-1-.79a2.45,2.45,0,0,0-1.28.4l-.27-.86a3.48,3.48,0,0,1,1.8-.49c1.31,0,2,.72,2,1.54a1.52,1.52,0,0,1-1.16,1.47v0a1.59,1.59,0,0,1,1.38,1.56c0,1.06-.88,1.91-2.44,1.91a3.47,3.47,0,0,1-1.76-.44Z"/><path class="cls-66" d="M493.33,64.59a1.52,1.52,0,0,1-.95-1.4,1.87,1.87,0,0,1,2.09-1.72c1.36,0,2,.82,2,1.59a1.58,1.58,0,0,1-1,1.42v0a1.68,1.68,0,0,1,1.19,1.58c0,1.12-.94,1.88-2.29,1.88s-2.23-.86-2.23-1.73a1.74,1.74,0,0,1,1.18-1.63Zm2.14,1.6c0-.64-.47-1-1.17-1.18a1.14,1.14,0,0,0-.93,1.09,1,1,0,0,0,1.05,1A1,1,0,0,0,495.47,66.19Zm-2-3c0,.51.42.82,1,1a1,1,0,0,0,.78-.95.84.84,0,0,0-.9-.88A.82.82,0,0,0,493.51,63.15Z"/><path class="cls-66" d="M487.28,98a3,3,0,0,0,1.43.39c.9,0,1.26-.51,1.26-1,0-.74-.7-1.06-1.43-1.06H488v-.87h.54c.54,0,1.24-.25,1.24-.87,0-.43-.31-.79-1-.79a2.45,2.45,0,0,0-1.28.4l-.27-.86A3.52,3.52,0,0,1,489,92.8c1.3,0,2,.72,2,1.54a1.54,1.54,0,0,1-1.16,1.47v0a1.59,1.59,0,0,1,1.38,1.56c0,1.06-.89,1.9-2.45,1.9a3.41,3.41,0,0,1-1.75-.43Z"/><path class="cls-66" d="M492.69,98.34a3,3,0,0,0,.65,0,2.21,2.21,0,0,0,2.09-1.89h0A1.77,1.77,0,0,1,494,97a1.85,1.85,0,0,1-1.9-1.95,2.22,2.22,0,0,1,2.26-2.24c1.46,0,2.24,1.14,2.24,2.68a3.92,3.92,0,0,1-1.09,2.93,3.51,3.51,0,0,1-2.15.86,5.8,5.8,0,0,1-.71,0Zm.62-3.36a1,1,0,0,0,1,1.15,1.16,1.16,0,0,0,1-.53.72.72,0,0,0,.07-.34c0-.85-.32-1.58-1.09-1.58C493.74,93.68,493.31,94.21,493.31,95Z"/><path class="cls-66" d="M489.65,114.59V113H486.8v-.77l2.57-3.91h1.4v3.79h.82V113h-.82v1.6Zm0-2.49v-1.71c0-.36,0-.72,0-1.09h0c-.19.39-.35.71-.55,1.06l-1.16,1.72v0Z"/><path class="cls-66" d="M496.65,111.4c0,2-.8,3.29-2.3,3.29s-2.21-1.31-2.22-3.22.83-3.27,2.29-3.27S496.65,109.56,496.65,111.4Zm-3.33.06c0,1.53.42,2.33,1.07,2.33s1.06-.85,1.06-2.36-.34-2.32-1.05-2.32S493.32,109.89,493.32,111.46Z"/><path class="cls-66" d="M452.41,51.26a3.15,3.15,0,0,0,1.43.39c.9,0,1.26-.52,1.26-1,0-.74-.7-1.06-1.43-1.06h-.54v-.87h.54c.54,0,1.24-.25,1.24-.87,0-.43-.31-.79-1-.79a2.55,2.55,0,0,0-1.28.39l-.27-.85a3.43,3.43,0,0,1,1.81-.49c1.3,0,2,.72,2,1.54A1.52,1.52,0,0,1,455,49.1v0a1.61,1.61,0,0,1,1.38,1.57c0,1.06-.89,1.9-2.45,1.9a3.41,3.41,0,0,1-1.75-.43Z"/><path class="cls-66" d="M457.59,51.26a3.14,3.14,0,0,0,1.42.39c.91,0,1.27-.52,1.27-1,0-.74-.71-1.06-1.43-1.06h-.54v-.87h.54c.54,0,1.24-.25,1.24-.87,0-.43-.31-.79-1-.79a2.55,2.55,0,0,0-1.28.39l-.27-.85a3.39,3.39,0,0,1,1.8-.49c1.31,0,2,.72,2,1.54a1.51,1.51,0,0,1-1.16,1.46v0a1.61,1.61,0,0,1,1.39,1.57c0,1.06-.89,1.9-2.45,1.9a3.48,3.48,0,0,1-1.76-.43Z"/><path class="cls-66" d="M452.41,66.66a3.15,3.15,0,0,0,1.43.39c.9,0,1.26-.52,1.26-1,0-.74-.7-1.06-1.43-1.06h-.54v-.87h.54c.54,0,1.24-.25,1.24-.87,0-.43-.31-.79-1-.79a2.45,2.45,0,0,0-1.28.4l-.27-.86a3.43,3.43,0,0,1,1.81-.49c1.3,0,2,.72,2,1.54A1.54,1.54,0,0,1,455,64.51h0a1.61,1.61,0,0,1,1.38,1.57c0,1.06-.89,1.9-2.45,1.9a3.41,3.41,0,0,1-1.75-.43Z"/><path class="cls-66" d="M460,67.89v-1.6h-2.85v-.77l2.57-3.91h1.4v3.78h.81v.9h-.81v1.6Zm0-2.5V63.68c0-.35,0-.71,0-1.09h0c-.19.4-.36.72-.55,1.07l-1.16,1.71v0Z"/><path class="cls-66" d="M452.38,98a3.15,3.15,0,0,0,1.43.39c.91,0,1.27-.52,1.27-1,0-.74-.71-1.06-1.43-1.06h-.55v-.87h.55c.54,0,1.23-.25,1.23-.87,0-.43-.31-.79-1-.79a2.59,2.59,0,0,0-1.29.39l-.27-.86a3.53,3.53,0,0,1,1.81-.48c1.3,0,2,.72,2,1.54a1.53,1.53,0,0,1-1.16,1.46v0a1.61,1.61,0,0,1,1.38,1.57c0,1.06-.89,1.9-2.44,1.9a3.45,3.45,0,0,1-1.76-.43Z"/><path class="cls-66" d="M461.32,93.92H458.9l-.18,1.26a2.76,2.76,0,0,1,.44,0,2.8,2.8,0,0,1,1.53.4,1.82,1.82,0,0,1,.82,1.6A2.29,2.29,0,0,1,459,99.32a3.52,3.52,0,0,1-1.67-.37l.24-.89a3.25,3.25,0,0,0,1.38.32,1.22,1.22,0,0,0,1.36-1.14c0-.72-.53-1.19-1.78-1.19-.35,0-.61,0-.85,0l.4-3.16h3.26Z"/><path class="cls-66" d="M452.38,113.39a3.15,3.15,0,0,0,1.43.39c.91,0,1.27-.52,1.27-1,0-.74-.71-1.06-1.43-1.06h-.55v-.87h.55c.54,0,1.23-.25,1.23-.87,0-.43-.31-.79-1-.79a2.59,2.59,0,0,0-1.29.39l-.27-.86a3.53,3.53,0,0,1,1.81-.48c1.3,0,2,.72,2,1.54a1.53,1.53,0,0,1-1.16,1.46v0a1.61,1.61,0,0,1,1.38,1.57c0,1.06-.89,1.9-2.44,1.9a3.45,3.45,0,0,1-1.76-.43Z"/><path class="cls-66" d="M461.13,109.19a3.24,3.24,0,0,0-.6,0,2.19,2.19,0,0,0-2.1,1.82h0a1.8,1.8,0,0,1,1.41-.61,1.9,1.9,0,0,1,1.92,2,2.18,2.18,0,0,1-2.21,2.24c-1.53,0-2.37-1.16-2.37-2.71a3.79,3.79,0,0,1,1.09-2.8,3.52,3.52,0,0,1,2.23-.93,2.68,2.68,0,0,1,.6,0Zm-.55,3.36c0-.74-.39-1.25-1.09-1.25a1.15,1.15,0,0,0-1,.65.8.8,0,0,0-.08.38c0,.83.41,1.5,1.19,1.5C460.19,113.83,460.58,113.3,460.58,112.55Z"/><path class="cls-66" d="M425.66,52.51v-.72l.75-.69c1.48-1.37,2.17-2.12,2.18-3a1,1,0,0,0-1.12-1,2.2,2.2,0,0,0-1.34.52l-.35-.84a3.08,3.08,0,0,1,1.93-.65,1.86,1.86,0,0,1,2.07,1.9c0,1.1-.79,2-1.89,3l-.54.47v0h2.56v1Z"/><path class="cls-66" d="M431.32,51.66a3,3,0,0,0,.65,0,2.35,2.35,0,0,0,1.28-.48,2.33,2.33,0,0,0,.81-1.4h0a1.77,1.77,0,0,1-1.37.55,1.84,1.84,0,0,1-1.9-1.94A2.21,2.21,0,0,1,433,46.13c1.46,0,2.24,1.14,2.24,2.67a3.87,3.87,0,0,1-1.1,2.93,3.48,3.48,0,0,1-2.14.86,4.46,4.46,0,0,1-.71,0Zm.62-3.36a1,1,0,0,0,1,1.15,1.16,1.16,0,0,0,1-.52.77.77,0,0,0,.07-.35c0-.85-.32-1.57-1.09-1.57C432.37,47,431.94,47.54,431.94,48.3Z"/><path class="cls-66" d="M425.91,66.69a3.17,3.17,0,0,0,1.43.38c.9,0,1.26-.51,1.26-1,0-.74-.7-1.06-1.43-1.06h-.54v-.87h.54c.54,0,1.24-.25,1.24-.87,0-.44-.31-.79-1-.79a2.55,2.55,0,0,0-1.28.39l-.27-.86a3.52,3.52,0,0,1,1.8-.48c1.31,0,2,.71,2,1.54a1.53,1.53,0,0,1-1.16,1.46v0a1.61,1.61,0,0,1,1.38,1.57c0,1.06-.89,1.9-2.45,1.9a3.48,3.48,0,0,1-1.76-.43Z"/><path class="cls-66" d="M435.28,64.73c0,2-.8,3.29-2.3,3.29s-2.21-1.31-2.22-3.23.83-3.26,2.29-3.26S435.28,62.88,435.28,64.73Zm-3.33,0c0,1.54.42,2.33,1.07,2.33s1.06-.85,1.06-2.35-.34-2.32-1.05-2.32S432,63.22,432,64.78Z"/><path class="cls-66" d="M425.88,98a3.17,3.17,0,0,0,1.43.38c.91,0,1.26-.51,1.26-1,0-.75-.7-1.06-1.43-1.06h-.54v-.87h.54c.55,0,1.24-.25,1.24-.87,0-.44-.31-.79-1-.79a2.59,2.59,0,0,0-1.29.39l-.27-.86a3.53,3.53,0,0,1,1.81-.48c1.3,0,2,.71,2,1.53a1.54,1.54,0,0,1-1.16,1.47v0a1.61,1.61,0,0,1,1.38,1.57c0,1.06-.89,1.9-2.44,1.9a3.34,3.34,0,0,1-1.76-.44Z"/><path class="cls-66" d="M432.68,94h0l-1.15.58-.2-.9,1.53-.76h1v6.28h-1.15Z"/><path class="cls-66" d="M425.88,113.42a3.17,3.17,0,0,0,1.43.38c.91,0,1.26-.51,1.26-1,0-.75-.7-1.06-1.43-1.06h-.54v-.87h.54c.55,0,1.24-.25,1.24-.87,0-.44-.31-.79-1-.79a2.59,2.59,0,0,0-1.29.39l-.27-.86a3.53,3.53,0,0,1,1.81-.48c1.3,0,2,.71,2,1.53a1.54,1.54,0,0,1-1.16,1.47v0a1.61,1.61,0,0,1,1.38,1.57c0,1.06-.89,1.9-2.44,1.9a3.34,3.34,0,0,1-1.76-.44Z"/><path class="cls-66" d="M430.82,114.64v-.72l.74-.69c1.48-1.37,2.17-2.12,2.18-3a1,1,0,0,0-1.12-1.06,2.21,2.21,0,0,0-1.34.53l-.35-.84a3.1,3.1,0,0,1,1.93-.65,1.86,1.86,0,0,1,2.07,1.9c0,1.1-.79,2-1.89,3l-.54.47v0h2.57v1Z"/><path class="cls-66" d="M388.45,52.74V52l.74-.69c1.48-1.37,2.18-2.12,2.18-2.95a1,1,0,0,0-1.12-1.06,2.21,2.21,0,0,0-1.34.53l-.35-.84a3.11,3.11,0,0,1,1.94-.65,1.86,1.86,0,0,1,2.06,1.9c0,1.1-.79,2-1.89,3l-.54.47v0h2.57v1Z"/><path class="cls-66" d="M397.63,47.45h-2.42L395,48.71a2.76,2.76,0,0,1,.44,0,2.8,2.8,0,0,1,1.53.4,1.81,1.81,0,0,1,.82,1.6,2.3,2.3,0,0,1-2.53,2.17,3.49,3.49,0,0,1-1.67-.37l.24-.9a3.1,3.1,0,0,0,1.38.33,1.22,1.22,0,0,0,1.36-1.14c0-.72-.53-1.19-1.78-1.19a6.87,6.87,0,0,0-.86.05l.41-3.17h3.26Z"/><path class="cls-66" d="M388.45,68.14v-.72l.74-.69c1.48-1.37,2.18-2.12,2.18-3a1,1,0,0,0-1.12-1.06,2.27,2.27,0,0,0-1.34.53l-.35-.84a3.11,3.11,0,0,1,1.94-.65,1.86,1.86,0,0,1,2.06,1.9c0,1.1-.79,2-1.89,3l-.54.47v0h2.57v1Z"/><path class="cls-66" d="M397.44,62.71a4.44,4.44,0,0,0-.6,0,2.21,2.21,0,0,0-2.1,1.83h0a1.78,1.78,0,0,1,1.41-.61A1.89,1.89,0,0,1,398.1,66a2.18,2.18,0,0,1-2.21,2.24c-1.53,0-2.37-1.16-2.37-2.71a3.79,3.79,0,0,1,1.09-2.81,3.46,3.46,0,0,1,2.23-.92,2.68,2.68,0,0,1,.6,0Zm-.55,3.37c0-.74-.4-1.25-1.09-1.25a1.13,1.13,0,0,0-1,.65.75.75,0,0,0-.08.37c0,.83.4,1.51,1.19,1.51C396.49,67.36,396.89,66.83,396.89,66.08Z"/><path class="cls-66" d="M388.42,99.47v-.72l.75-.69c1.47-1.37,2.17-2.12,2.18-3a1,1,0,0,0-1.12-1.06,2.3,2.3,0,0,0-1.35.52l-.34-.84a3.14,3.14,0,0,1,1.93-.64,1.86,1.86,0,0,1,2.07,1.9c0,1.1-.8,2-1.9,3l-.54.48v0h2.57v1Z"/><path class="cls-66" d="M397.92,93.19V94l-2.66,5.51H394l2.65-5.27v0h-3v-1Z"/><path class="cls-66" d="M388.42,114.87v-.72l.75-.69c1.47-1.37,2.17-2.12,2.18-2.95a1,1,0,0,0-1.12-1.06,2.24,2.24,0,0,0-1.35.53l-.34-.84a3.08,3.08,0,0,1,1.93-.65,1.86,1.86,0,0,1,2.07,1.9c0,1.1-.8,2-1.9,3l-.54.48v0h2.57v1Z"/><path class="cls-66" d="M394.69,111.6a1.53,1.53,0,0,1-1-1.39,1.87,1.87,0,0,1,2.1-1.72c1.36,0,2,.81,2,1.58a1.58,1.58,0,0,1-1,1.42v0A1.68,1.68,0,0,1,398,113.1c0,1.13-.94,1.88-2.29,1.88s-2.23-.85-2.23-1.73a1.74,1.74,0,0,1,1.18-1.62Zm2.14,1.6c0-.64-.47-1-1.17-1.18a1.14,1.14,0,0,0-.93,1.09,1,1,0,0,0,1,1A1,1,0,0,0,396.83,113.2Zm-2-3c0,.51.42.82,1,1a1,1,0,0,0,.78-.94.84.84,0,0,0-.9-.89A.83.83,0,0,0,394.87,110.16Z"/><path class="cls-66" d="M336.5,52.74V52l.74-.69c1.48-1.37,2.18-2.12,2.18-2.95a1,1,0,0,0-1.12-1.06,2.21,2.21,0,0,0-1.34.53l-.35-.84a3.11,3.11,0,0,1,1.94-.65,1.86,1.86,0,0,1,2.06,1.9c0,1.1-.79,2-1.89,3l-.54.47v0h2.57v1Z"/><path class="cls-66" d="M343.54,47.54h0l-1.15.58-.2-.9,1.53-.76h1v6.28h-1.15Z"/><path class="cls-66" d="M336.5,68.14v-.72l.74-.69c1.48-1.37,2.18-2.12,2.18-3a1,1,0,0,0-1.12-1.06,2.27,2.27,0,0,0-1.34.53l-.35-.84a3.11,3.11,0,0,1,1.94-.65,1.86,1.86,0,0,1,2.06,1.9c0,1.1-.79,2-1.89,3l-.54.47v0h2.57v1Z"/><path class="cls-66" d="M341.68,68.14v-.72l.74-.69c1.48-1.37,2.17-2.12,2.18-3a1,1,0,0,0-1.12-1.06,2.27,2.27,0,0,0-1.34.53l-.35-.84a3.1,3.1,0,0,1,1.93-.65,1.86,1.86,0,0,1,2.07,1.9c0,1.1-.79,2-1.89,3l-.54.47v0h2.57v1Z"/><path class="cls-66" d="M336.47,99.47v-.72l.74-.69c1.48-1.37,2.18-2.12,2.19-3a1,1,0,0,0-1.12-1.06,2.3,2.3,0,0,0-1.35.52l-.34-.84a3.14,3.14,0,0,1,1.93-.64,1.86,1.86,0,0,1,2.07,1.9c0,1.1-.8,2-1.9,3l-.54.48v0h2.57v1Z"/><path class="cls-66" d="M341.89,98.25a3.17,3.17,0,0,0,1.43.38c.91,0,1.27-.51,1.27-1,0-.75-.71-1.07-1.43-1.07h-.54V95.7h.54c.54,0,1.23-.26,1.23-.87,0-.44-.31-.8-1-.8a2.59,2.59,0,0,0-1.29.4l-.27-.86a3.56,3.56,0,0,1,1.81-.48c1.3,0,2,.71,2,1.53a1.54,1.54,0,0,1-1.16,1.47v0a1.61,1.61,0,0,1,1.38,1.57c0,1.06-.89,1.9-2.44,1.9a3.37,3.37,0,0,1-1.76-.44Z"/><path class="cls-66" d="M336.47,114.87v-.72l.74-.69c1.48-1.37,2.18-2.12,2.19-2.95a1,1,0,0,0-1.12-1.06,2.24,2.24,0,0,0-1.35.53l-.34-.84a3.08,3.08,0,0,1,1.93-.65,1.86,1.86,0,0,1,2.07,1.9c0,1.1-.8,2-1.9,3l-.54.48v0h2.57v1Z"/><path class="cls-66" d="M344.27,114.87v-1.59h-2.85v-.77l2.57-3.92h1.4v3.79h.81v.9h-.81v1.59Zm0-2.49v-1.71c0-.36,0-.71,0-1.09h0c-.2.4-.36.71-.55,1.06l-1.16,1.72v0Z"/><path class="cls-66" d="M300.07,47.54h0l-1.15.58-.2-.9,1.54-.76h1v6.28h-1.15Z"/><path class="cls-66" d="M307.7,46.46v.77l-2.65,5.51H303.8l2.65-5.27v0h-3v-1Z"/><path class="cls-66" d="M300.07,62.94h0l-1.15.58-.2-.9,1.54-.76h1v6.28h-1.15Z"/><path class="cls-66" d="M304.48,64.87a1.53,1.53,0,0,1-1-1.39,1.87,1.87,0,0,1,2.1-1.72c1.36,0,2,.81,2,1.58a1.56,1.56,0,0,1-1,1.42v0a1.68,1.68,0,0,1,1.2,1.59c0,1.12-.95,1.87-2.29,1.87s-2.23-.85-2.23-1.73a1.73,1.73,0,0,1,1.18-1.62Zm2.13,1.6c0-.63-.46-1-1.17-1.18a1.14,1.14,0,0,0-.92,1.1,1,1,0,0,0,1.05,1A1,1,0,0,0,306.61,66.47Zm-2-3c0,.51.43.82,1,1a1,1,0,0,0,.78-1,.91.91,0,0,0-1.81,0Z"/><path class="cls-66" d="M300.05,94.27h0l-1.15.58-.21-.9,1.54-.76h1v6.28h-1.15Z"/><path class="cls-66" d="M303.83,98.62a3,3,0,0,0,.66,0,2.38,2.38,0,0,0,1.28-.48,2.33,2.33,0,0,0,.81-1.4h0a1.77,1.77,0,0,1-1.37.55,1.85,1.85,0,0,1-1.91-1.94,2.22,2.22,0,0,1,2.26-2.24c1.47,0,2.24,1.14,2.24,2.67a3.87,3.87,0,0,1-1.09,2.93,3.48,3.48,0,0,1-2.14.86,4.55,4.55,0,0,1-.72,0Zm.63-3.36a1,1,0,0,0,1,1.15,1.16,1.16,0,0,0,1-.52.77.77,0,0,0,.07-.35c0-.85-.32-1.57-1.09-1.57C304.89,94,304.46,94.5,304.46,95.26Z"/><path class="cls-66" d="M298.18,114.87v-.72l.75-.69c1.47-1.37,2.17-2.12,2.18-2.95a1,1,0,0,0-1.12-1.06,2.18,2.18,0,0,0-1.34.53l-.35-.84a3.08,3.08,0,0,1,1.93-.65,1.86,1.86,0,0,1,2.07,1.9c0,1.1-.79,2-1.9,3l-.54.48v0h2.57v1Z"/><path class="cls-66" d="M307.79,111.68c0,2-.79,3.3-2.29,3.3s-2.22-1.31-2.23-3.23.83-3.26,2.3-3.26S307.79,109.84,307.79,111.68Zm-3.32.06c0,1.54.42,2.33,1.06,2.33s1.07-.85,1.07-2.36-.34-2.31-1.06-2.31S304.47,110.18,304.47,111.74Z"/><path class="cls-66" d="M273.15,47.79h0l-1.15.58-.2-.89,1.54-.76h1V53h-1.15Z"/><path class="cls-66" d="M276.71,51.77a3,3,0,0,0,1.43.39c.91,0,1.26-.51,1.26-1,0-.75-.7-1.07-1.43-1.07h-.54v-.87H278c.54,0,1.24-.25,1.24-.87,0-.43-.31-.79-1-.79a2.45,2.45,0,0,0-1.28.4l-.27-.86a3.52,3.52,0,0,1,1.81-.49c1.3,0,2,.72,2,1.54a1.54,1.54,0,0,1-1.16,1.47v0a1.59,1.59,0,0,1,1.38,1.56c0,1.07-.89,1.91-2.45,1.91a3.42,3.42,0,0,1-1.75-.44Z"/><path class="cls-66" d="M273.15,63.19h0l-1.15.58-.2-.89,1.54-.76h1V68.4h-1.15Z"/><path class="cls-66" d="M279.08,68.4V66.81h-2.85V66l2.57-3.91h1.4v3.79H281v.9h-.82V68.4Zm0-2.49V64.2c0-.36,0-.72,0-1.09h0c-.19.39-.35.71-.55,1.06l-1.16,1.72v0Z"/><path class="cls-66" d="M273.13,94.52h0L272,95.1l-.21-.9,1.54-.75h1v6.28h-1.14Z"/><path class="cls-66" d="M280.44,94.44H278l-.18,1.25a2.76,2.76,0,0,1,.44,0,2.81,2.81,0,0,1,1.53.41,1.81,1.81,0,0,1,.82,1.59,2.29,2.29,0,0,1-2.53,2.18,3.68,3.68,0,0,1-1.67-.37l.24-.9a3.24,3.24,0,0,0,1.38.33,1.22,1.22,0,0,0,1.36-1.14c0-.73-.53-1.2-1.77-1.2a6.41,6.41,0,0,0-.86.06l.4-3.17h3.26Z"/><path class="cls-66" d="M273.13,109.92h0l-1.15.58-.21-.9,1.54-.75h1v6.28h-1.14Z"/><path class="cls-66" d="M280.25,109.7a3.14,3.14,0,0,0-.59,0,2.21,2.21,0,0,0-2.11,1.83h0A1.8,1.8,0,0,1,279,111a1.89,1.89,0,0,1,1.92,2,2.19,2.19,0,0,1-2.21,2.24c-1.53,0-2.37-1.16-2.37-2.72a3.8,3.8,0,0,1,1.09-2.8,3.54,3.54,0,0,1,2.24-.93,3.17,3.17,0,0,1,.59,0Zm-.55,3.36a1.09,1.09,0,0,0-1.09-1.24,1.15,1.15,0,0,0-1,.64.82.82,0,0,0-.08.38c0,.83.41,1.51,1.19,1.51C279.31,114.35,279.7,113.82,279.7,113.06Z"/><path class="cls-66" d="M250.67,51.89a3,3,0,0,0,.65,0,2.28,2.28,0,0,0,1.28-.48,2.33,2.33,0,0,0,.81-1.4h0a1.77,1.77,0,0,1-1.37.55,1.84,1.84,0,0,1-1.9-1.94,2.21,2.21,0,0,1,2.26-2.24c1.46,0,2.24,1.14,2.24,2.67A3.91,3.91,0,0,1,253.53,52a3.53,3.53,0,0,1-2.15.86,4.46,4.46,0,0,1-.71,0Zm.62-3.36a1,1,0,0,0,1,1.15,1.16,1.16,0,0,0,1-.52.77.77,0,0,0,.07-.35c0-.85-.32-1.57-1.09-1.57C251.72,47.24,251.29,47.77,251.29,48.53Z"/><path class="cls-66" d="M248.06,62.94h0l-1.15.58-.2-.9,1.53-.76h1v6.28h-1.15Z"/><path class="cls-66" d="M255.8,65c0,2-.79,3.29-2.29,3.29s-2.21-1.31-2.22-3.23.83-3.26,2.29-3.26S255.8,63.11,255.8,65Zm-3.32.05c0,1.54.42,2.33,1.07,2.33s1.06-.85,1.06-2.35-.34-2.32-1.06-2.32S252.48,63.45,252.48,65Z"/><path class="cls-66" d="M248,94.27h0l-1.15.58-.2-.9,1.54-.76h1v6.28H248Z"/><path class="cls-66" d="M253.21,94.27h0l-1.15.58-.2-.9,1.53-.76h1v6.28h-1.15Z"/><path class="cls-66" d="M248,109.67h0l-1.15.58-.2-.9,1.54-.76h1v6.28H248Z"/><path class="cls-66" d="M251.35,114.87v-.72l.74-.69c1.48-1.37,2.17-2.12,2.18-2.95a1,1,0,0,0-1.12-1.06,2.21,2.21,0,0,0-1.34.53l-.35-.84a3.1,3.1,0,0,1,1.93-.65,1.86,1.86,0,0,1,2.07,1.9c0,1.1-.79,2-1.89,3l-.54.48v0h2.57v1Z"/><text class="cls-67" transform="translate(214.11 52.49)"><tspan xml:space="preserve">  </tspan></text><text class="cls-67" transform="translate(214.11 67.89)"><tspan xml:space="preserve">  </tspan></text><text class="cls-67" transform="translate(214.09 99.22)"><tspan xml:space="preserve">  </tspan></text><path class="cls-66" d="M220.88,47.42h-2.42l-.18,1.26a2.76,2.76,0,0,1,.44,0,2.8,2.8,0,0,1,1.53.4,1.82,1.82,0,0,1,.82,1.6,2.29,2.29,0,0,1-2.53,2.17,3.52,3.52,0,0,1-1.67-.37l.24-.89a3.25,3.25,0,0,0,1.38.32,1.22,1.22,0,0,0,1.36-1.13c0-.73-.53-1.2-1.77-1.2-.36,0-.62,0-.86.05l.4-3.16h3.26Z"/><path class="cls-66" d="M220.69,62.69a3.28,3.28,0,0,0-.6,0,2.19,2.19,0,0,0-2.1,1.82h0a1.8,1.8,0,0,1,1.41-.61A1.9,1.9,0,0,1,221.35,66a2.18,2.18,0,0,1-2.21,2.24c-1.53,0-2.37-1.16-2.37-2.71a3.8,3.8,0,0,1,1.09-2.8,3.54,3.54,0,0,1,2.23-.93,2.7,2.7,0,0,1,.6,0Zm-.55,3.36c0-.73-.39-1.25-1.09-1.25a1.15,1.15,0,0,0-1,.65.8.8,0,0,0-.08.38c0,.83.41,1.5,1.19,1.5C219.75,67.33,220.14,66.8,220.14,66.05Z"/><path class="cls-66" d="M221.17,93.17v.76l-2.66,5.51h-1.24l2.64-5.27v0h-3v-1Z"/><path class="cls-66" d="M218,111.36a1.54,1.54,0,0,1-.95-1.39,1.87,1.87,0,0,1,2.09-1.72c1.36,0,2,.81,2,1.58a1.56,1.56,0,0,1-1,1.42v0a1.7,1.7,0,0,1,1.19,1.59c0,1.12-.94,1.87-2.29,1.87s-2.23-.85-2.23-1.73a1.74,1.74,0,0,1,1.18-1.62Zm2.14,1.6c0-.63-.47-1-1.17-1.17a1.14,1.14,0,0,0-.93,1.09,1,1,0,0,0,1.05,1A1,1,0,0,0,220.17,113Zm-2-3c0,.51.42.82,1,1a1,1,0,0,0,.78-1,.84.84,0,0,0-.9-.89A.83.83,0,0,0,218.21,109.92Z"/></g><g id="SYMBOLER-2" data-name="SYMBOLER"><rect class="cls-68" x="58.25" y="125.25" width="31.11" height="31.14"/><path class="cls-69" d="M74.54,133.53a1.8,1.8,0,1,0-1.79-1.8,1.8,1.8,0,0,0,1.79,1.8"/><path class="cls-69" d="M72.75,142.5v-2.82L70.23,141a1,1,0,0,1-1.39-.38,1,1,0,0,1,.37-1.4l3.54-2.08v-1.28a1.79,1.79,0,1,1,3.58,0v6.26c0,1.11-.56,1.24-1,1.58v8.58a1,1,0,1,1-2,0v-7.53l-3,1.64,0,3.79a1,1,0,1,1-2,0v-4.31c0-.57,1-1.25,1-1.25l3.54-2.09"/><path class="cls-69" d="M75.55,139.21l1.71,3.6a1,1,0,0,0,1.34.54,1,1,0,0,0,.54-1.35l-2.94-6.81"/><path class="cls-69" d="M82.15,140.1a1.51,1.51,0,1,0-1.5-1.51,1.5,1.5,0,0,0,1.5,1.51"/><path class="cls-69" d="M82.49,146.63l-2,6.15a.72.72,0,0,1-.9.47.71.71,0,0,1-.47-.9L81,146.53"/><path class="cls-69" d="M81.43,146.63l2,6.15a.72.72,0,0,0,.9.47.72.72,0,0,0,.47-.9l-1.91-5.82"/><rect class="cls-69" x="80.83" y="140.49" width="2.58" height="6.84" rx="1.25" ry="1.25"/><path class="cls-69" d="M80.74,143.84,79.17,143a.64.64,0,0,0-.64,1.11l2.21,1.3"/><rect class="cls-69" x="72.38" y="153.88" width="16.98" height="2.51"/><rect class="cls-69" x="58.18" y="154.11" width="12.74" height="2.32"/><rect class="cls-69" x="58.18" y="150.79" width="9.34" height="3.94"/><rect class="cls-69" x="58.18" y="147.85" width="6.17" height="3.63"/><polygon class="cls-69" points="70.91 125.25 70.91 125.25 58.25 125.25 58.25 126.39 69.29 126.39 69.29 129.14 70.91 129.14 70.91 125.25 70.91 125.25"/><rect class="cls-68" x="58.53" y="3.97" width="31.11" height="31.15"/><path class="cls-69" d="M74.82,12.25A1.8,1.8,0,1,0,73,10.45a1.8,1.8,0,0,0,1.78,1.8"/><path class="cls-69" d="M73,21.22V18.4l-2.52,1.3a1,1,0,0,1-1.4-.38,1,1,0,0,1,.38-1.4L73,15.84V14.56a1.79,1.79,0,1,1,3.58,0v6.26c0,1.11-.56,1.24-1,1.58V31a1,1,0,1,1-2,0V23.45l-3,1.64,0,3.79a1,1,0,1,1-2,0V24.57c0-.57,1.06-1.25,1.06-1.25L73,21.23"/><path class="cls-69" d="M75.83,17.93l1.71,3.6a1,1,0,1,0,1.88-.81l-2.94-6.81"/><path class="cls-69" d="M82.43,18.82a1.51,1.51,0,1,0-1.49-1.51,1.5,1.5,0,0,0,1.49,1.51"/><path class="cls-69" d="M82.77,25.35l-2,6.15a.72.72,0,0,1-.9.47.72.72,0,0,1-.47-.9l1.91-5.82"/><path class="cls-69" d="M81.71,25.35l2,6.15a.72.72,0,0,0,.9.47.74.74,0,0,0,.48-.9l-1.92-5.82"/><rect class="cls-69" x="81.11" y="19.21" width="2.58" height="6.84" rx="1.25" ry="1.25"/><path class="cls-69" d="M81,22.56l-1.57-.8a.62.62,0,0,0-.86.23.63.63,0,0,0,.23.87l2.2,1.3"/><rect class="cls-69" x="72.66" y="32.6" width="16.98" height="2.51"/><rect class="cls-69" x="58.46" y="32.83" width="12.74" height="2.32"/><rect class="cls-69" x="58.46" y="29.51" width="9.34" height="3.94"/><rect class="cls-69" x="58.46" y="26.57" width="6.17" height="3.63"/><polygon class="cls-69" points="71.19 3.97 71.19 3.97 58.53 3.97 58.53 5.11 69.58 5.11 69.58 7.87 71.2 7.87 71.2 3.97 71.19 3.97"/><rect class="cls-68" x="681.22" y="4.16" width="31.11" height="31.15"/><path class="cls-69" d="M697.51,12.44a1.8,1.8,0,1,0-1.79-1.8,1.8,1.8,0,0,0,1.79,1.8"/><path class="cls-69" d="M695.72,21.42V18.59l-2.52,1.3a1,1,0,0,1-1.39-.37,1,1,0,0,1,.37-1.4L695.71,16V14.75a1.8,1.8,0,1,1,3.59,0V21c0,1.11-.56,1.25-1,1.59v8.58a1,1,0,1,1-2,0V23.64l-3,1.65,0,3.78a1,1,0,1,1-2,0V24.76c0-.57,1.06-1.25,1.06-1.25l3.53-2.09"/><path class="cls-69" d="M698.51,18.13l1.72,3.59a1,1,0,0,0,1.34.54,1,1,0,0,0,.54-1.34l-2.94-6.82"/><path class="cls-69" d="M705.12,19a1.51,1.51,0,1,0-1.5-1.5,1.5,1.5,0,0,0,1.5,1.5"/><path class="cls-69" d="M705.46,25.54l-2,6.16a.72.72,0,0,1-1.38-.44L704,25.44"/><path class="cls-69" d="M704.39,25.54l2,6.16a.7.7,0,0,0,.89.46.72.72,0,0,0,.48-.9l-1.91-5.82"/><rect class="cls-69" x="703.79" y="19.41" width="2.58" height="6.84" rx="1.25" ry="1.25"/><path class="cls-69" d="M703.7,22.76,702.14,22a.64.64,0,0,0-.64,1.1l2.2,1.3"/><rect class="cls-69" x="695.35" y="32.79" width="16.98" height="2.51"/><rect class="cls-69" x="681.15" y="33.02" width="12.73" height="2.32"/><rect class="cls-69" x="681.15" y="29.7" width="9.34" height="3.94"/><rect class="cls-69" x="681.15" y="26.76" width="6.17" height="3.63"/><polygon class="cls-69" points="693.87 4.16 693.87 4.16 681.22 4.16 681.22 5.31 692.26 5.31 692.26 8.06 693.88 8.06 693.88 4.16 693.87 4.16"/><rect class="cls-68" x="681.36" y="125.2" width="31.11" height="31.14"/><path class="cls-69" d="M697.65,133.48a1.8,1.8,0,1,0-1.78-1.8,1.8,1.8,0,0,0,1.78,1.8"/><path class="cls-69" d="M695.87,142.46v-2.82l-2.52,1.29a1,1,0,0,1-1.39-.37,1,1,0,0,1,.37-1.4l3.53-2.09v-1.28a1.79,1.79,0,1,1,3.58,0v6.26c0,1.12-.56,1.25-1,1.59v8.58a1,1,0,0,1-2,0v-7.53l-3,1.64,0,3.78a1,1,0,1,1-2,0V145.8c0-.57,1.06-1.25,1.06-1.25l3.53-2.08"/><path class="cls-69" d="M698.66,139.17l1.71,3.59a1,1,0,1,0,1.88-.8l-2.94-6.82"/><path class="cls-69" d="M705.27,140.06a1.51,1.51,0,1,0-1.5-1.51,1.51,1.51,0,0,0,1.5,1.51"/><path class="cls-69" d="M705.61,146.58l-2,6.16a.71.71,0,0,1-.89.47.73.73,0,0,1-.48-.91l1.91-5.81"/><path class="cls-69" d="M704.54,146.58l2,6.16a.72.72,0,0,0,.9.47.74.74,0,0,0,.48-.91L706,146.49"/><path class="cls-69" d="M703.94,141.71a1.25,1.25,0,0,1,1.25-1.26h.08a1.25,1.25,0,0,1,1.25,1.26V146a1.26,1.26,0,0,1-1.25,1.26h-.08a1.26,1.26,0,0,1-1.25-1.26Z"/><path class="cls-69" d="M703.85,143.8l-1.57-.81a.63.63,0,0,0-.63,1.1l2.2,1.3"/><rect class="cls-69" x="695.49" y="153.83" width="16.98" height="2.51"/><rect class="cls-69" x="681.29" y="154.06" width="12.73" height="2.32"/><rect class="cls-69" x="681.29" y="150.74" width="9.34" height="3.94"/><rect class="cls-69" x="681.29" y="147.81" width="6.17" height="3.63"/><polygon class="cls-69" points="694.02 125.21 694.02 125.2 681.36 125.2 681.36 126.35 692.41 126.35 692.41 129.1 694.03 129.1 694.03 125.21 694.02 125.21"/><rect class="cls-70" x="183.18" y="130.89" width="25.51" height="25.51"/><path class="cls-39" d="M189.53,149.68a1.71,1.71,0,0,1-1.71-1.71v-7.41a1.72,1.72,0,0,1,1.71-1.71h1.14v10.83Z"/><path class="cls-39" d="M202.05,149.68a1.7,1.7,0,0,0,1.71-1.71v-7.41a1.71,1.71,0,0,0-1.71-1.71h-1.13v10.83Z"/><path class="cls-39" d="M194.37,137.57h2.85v1.28h-2.85v-1.28Zm0-.86h0a.86.86,0,0,0-.85.86v1.28h-2.28v10.82h9.11V138.85h-2.28v-1.28a.86.86,0,0,0-.85-.86Z"/><rect class="cls-70" x="156.51" y="130.86" width="25.51" height="25.51"/><path class="cls-39" d="M161.67,135.55c2.23,1.13,4.06,3.29,4.1,5.68v11.33h-1.71l0-10.76a6.31,6.31,0,0,0-2.79-5.58Z"/><path class="cls-39" d="M170.43,135.55c-2.23,1.13-4.06,3.29-4.1,5.68v11.33H168l0-10.76a6.33,6.33,0,0,1,2.78-5.58Z"/><path class="cls-39" d="M172.83,141.76c0-.71-.73-1.3-1.69-1.44l-.43-.8-.42.8c-1,.14-1.7.73-1.7,1.44s.73,1.3,1.7,1.43v9.37h.85v-9.37C172.1,143.06,172.83,142.47,172.83,141.76Zm-.75-.4h-.94v-.45A1.6,1.6,0,0,1,172.08,141.36Zm-1.79-.45v.45h-.95A1.6,1.6,0,0,1,170.29,140.91Zm-.95,1.24h.95v.46A1.61,1.61,0,0,1,169.34,142.15Zm1.8.46v-.46h.94A1.61,1.61,0,0,1,171.14,142.61Z"/><path class="cls-39" d="M177.5,141.76c0-.71-.72-1.3-1.69-1.44l-.42-.8-.43.8c-1,.14-1.69.73-1.69,1.44s.73,1.3,1.69,1.43v9.37h.85v-9.37C176.78,143.06,177.5,142.47,177.5,141.76Zm-.75-.4h-.94v-.45A1.57,1.57,0,0,1,176.75,141.36Zm-1.79-.45v.45h-1A1.63,1.63,0,0,1,175,140.91Zm-1,1.24h1v.46A1.64,1.64,0,0,1,174,142.15Zm1.8.46v-.46h.94A1.58,1.58,0,0,1,175.81,142.61Z"/><rect class="cls-70" x="651.77" y="131.09" width="25.51" height="25.51"/><path class="cls-39" d="M658.13,149.88a1.7,1.7,0,0,1-1.71-1.7v-7.42a1.71,1.71,0,0,1,1.71-1.71h1.13v10.83Z"/><path class="cls-39" d="M670.65,149.88a1.7,1.7,0,0,0,1.71-1.7v-7.42a1.71,1.71,0,0,0-1.71-1.71h-1.14v10.83Z"/><path class="cls-39" d="M663,137.77h2.84v1.28H663v-1.28Zm0-.85h0a.85.85,0,0,0-.86.85v1.28h-2.28v10.83H669V139.05h-2.29v-1.28a.85.85,0,0,0-.85-.85Z"/><rect class="cls-71" x="355.8" y="131.05" width="25.51" height="25.51"/><path class="cls-39" d="M374.26,140.17l-1.16-2-.51,1.8L371,137h0a2.63,2.63,0,0,0-2.23-1.46,2.58,2.58,0,0,0-2.21,1.37L364.69,140l2.07,1.22,1.95-3.29,1.78,3.18-1.8-.51,1.16,2.06,3.44,1Z"/><path class="cls-39" d="M366.47,148.21l-3.82,0L364.5,145l.46,1.82,1.21-2-.89-3.46-3.46.89-1.21,2,1.82-.46-1.7,2.87h0a2.63,2.63,0,0,0-.16,2.67,2.56,2.56,0,0,0,2.29,1.22l3.58,0Z"/><path class="cls-39" d="M372.21,152l-1.32-1.34,3.34,0h0a2.66,2.66,0,0,0,2.39-1.2,2.56,2.56,0,0,0-.09-2.6s-1.75-3.11-1.75-3.11L372.7,145l1.87,3.33-3.64,0,1.34-1.3-2.36,0-2.56,2.5,2.49,2.56Z"/><rect class="cls-68" x="23.18" y="125.25" width="31.16" height="31.18"/><rect class="cls-69" x="37.36" y="154.09" width="17.01" height="2.29"/><rect class="cls-69" x="23.2" y="154.1" width="12.76" height="2.32"/><rect class="cls-69" x="23.2" y="150.78" width="9.35" height="3.95"/><rect class="cls-69" x="23.2" y="147.84" width="6.18" height="3.63"/><polygon class="cls-69" points="35.86 125.27 35.86 125.26 23.18 125.26 23.18 126.41 34.24 126.41 34.24 129.17 35.87 129.17 35.87 125.27 35.86 125.27"/><rect class="cls-69" x="30.43" y="147.8" width="17.01" height="1.06"/><path class="cls-72" d="M37.84,143.23l.14.56a4.19,4.19,0,1,0,6.52-4.43V138l.08,0A5.32,5.32,0,1,1,37.2,145l-.1-.34Z"/><path class="cls-72" d="M40.89,138h-2a.71.71,0,0,1-.73-.7.7.7,0,0,1,.73-.69h2.06V135.1a1.52,1.52,0,1,1,3,0s0,4.7,0,4.79a1.45,1.45,0,0,1-1.52,1.49H38.06L36,145.72a.89.89,0,0,1-.74.39.81.81,0,0,1-.79-.89.92.92,0,0,1,0-.29l2.33-4.8a.88.88,0,0,1,.65-.42h3.4Z"/><path class="cls-72" d="M42.43,133.29A1.53,1.53,0,1,1,44,131.77,1.53,1.53,0,0,1,42.43,133.29Z"/><rect class="cls-68" x="23.14" y="4" width="31.16" height="31.18"/><rect class="cls-69" x="37.31" y="32.84" width="17.01" height="2.29"/><rect class="cls-69" x="23.16" y="32.85" width="12.76" height="2.32"/><rect class="cls-69" x="23.16" y="29.53" width="9.35" height="3.94"/><rect class="cls-69" x="23.16" y="26.59" width="6.18" height="3.64"/><polygon class="cls-69" points="35.81 4.02 35.81 4.02 23.13 4.02 23.13 5.17 34.2 5.17 34.2 7.92 35.82 7.92 35.82 4.02 35.81 4.02"/><rect class="cls-69" x="30.39" y="26.56" width="17.01" height="1.06"/><path class="cls-72" d="M37.79,22l.14.57a4.2,4.2,0,1,0,6.53-4.44V16.78l.08,0a5.32,5.32,0,1,1-7.39,6.91l-.1-.33Z"/><path class="cls-72" d="M40.84,16.78h-2a.7.7,0,1,1,0-1.4h2.06V13.86a1.52,1.52,0,1,1,3,0s0,4.69,0,4.78a1.45,1.45,0,0,1-1.52,1.49H38L36,24.48a.91.91,0,0,1-.74.38.8.8,0,0,1-.79-.88,1,1,0,0,1,0-.3l2.33-4.8a.94.94,0,0,1,.66-.42h3.39Z"/><path class="cls-72" d="M42.39,12.05a1.53,1.53,0,1,1,1.53-1.53A1.54,1.54,0,0,1,42.39,12.05Z"/><rect class="cls-71" x="209.92" y="130.85" width="25.51" height="25.51"/><path class="cls-39" d="M226.68,148.3l-.16.66a4.87,4.87,0,1,1-7.58-5.16v-1.55l-.09.05a6.18,6.18,0,1,0,8.57,8l.13-.39Z"/><path class="cls-39" d="M223.14,142.25h2.37a.81.81,0,1,0,0-1.62h-2.39v-1.77a1.79,1.79,0,0,0-1.78-1.81,1.77,1.77,0,0,0-1.75,1.81s0,5.46,0,5.55a1.69,1.69,0,0,0,1.76,1.74h5.1l2.39,5a1,1,0,0,0,.86.45.94.94,0,0,0,.92-1,1.34,1.34,0,0,0,0-.35l-2.71-5.57a1,1,0,0,0-.76-.49h-3.94Z"/><path class="cls-39" d="M221.35,136.75a1.78,1.78,0,1,0-1.78-1.77A1.77,1.77,0,0,0,221.35,136.75Z"/><rect class="cls-71" x="594.91" y="131.11" width="25.51" height="25.51"/><path class="cls-39" d="M601.16,143.21a9.94,9.94,0,0,0-.24,3.27,4.58,4.58,0,0,0,1.47,2.66,8.19,8.19,0,0,0,2.78,1.57,7.71,7.71,0,0,0,7.43-1.47,4.65,4.65,0,0,0,1.62-2.93,9,9,0,0,0-.24-3.1s1.94-.64,2-2.32a2.32,2.32,0,0,0-.86-2.06,2.46,2.46,0,0,0-2.53-.59A2.59,2.59,0,0,0,611,140a6,6,0,0,0-2-.81,7.16,7.16,0,0,0-2.31,0,5,5,0,0,0-2.36.84,2.58,2.58,0,0,0-1.52-1.75h0a2.87,2.87,0,0,0-2.49.49,2.63,2.63,0,0,0-.86,2.61A2.59,2.59,0,0,0,601.16,143.21Z"/><path class="cls-71" d="M607.63,145.57a2.58,2.58,0,0,0-1.65.6,2.08,2.08,0,0,0-.78,1.52,1.45,1.45,0,0,0,.75,1.41,3.06,3.06,0,0,0,1.73.43c.88,0,1.7.46,2,.22.53-.42.45-1.41.44-2.08a2,2,0,0,0-.75-1.48A2.43,2.43,0,0,0,607.63,145.57Z"/><path class="cls-39" d="M607.67,146.12a1.76,1.76,0,0,0-1.22.56.82.82,0,0,0,.08,1,1.43,1.43,0,0,0,1.13.37,1.41,1.41,0,0,0,1.19-.43.78.78,0,0,0,0-1A1.63,1.63,0,0,0,607.67,146.12Z"/><path class="cls-71" d="M606.19,144.11a1,1,0,1,1-1-1A1,1,0,0,1,606.19,144.11Z"/><path class="cls-71" d="M611.12,144.07a1,1,0,1,1-1-1A1,1,0,0,1,611.12,144.07Z"/><rect class="cls-71" x="508.23" y="131.14" width="25.51" height="25.51"/><path class="cls-39" d="M517,150.19a1.69,1.69,0,1,1,1.69,1.69,1.69,1.69,0,0,1-1.69-1.69Zm1.69,2.8h0a2.8,2.8,0,1,0-2.8-2.8A2.8,2.8,0,0,0,518.66,153Z"/><path class="cls-39" d="M523.14,150.19a1.69,1.69,0,0,1,3.37,0,1.69,1.69,0,1,1-3.37,0Zm1.68,2.8h0a2.8,2.8,0,1,0-2.8-2.8A2.8,2.8,0,0,0,524.82,153Z"/><path class="cls-39" d="M515.85,141.24v-1.83a1.81,1.81,0,0,0-1.84-1.82h-1.54s-.26.06-.26.28.26.28.26.28h1.59a1.33,1.33,0,0,1,1.21,1.26v1.83Z"/><path class="cls-39" d="M528.17,141.24H522.3v-5.89h1.11a4.91,4.91,0,0,1,4.76,4.76Z"/><path class="cls-39" d="M528.16,141.79H515.29v2.5a2.43,2.43,0,0,0,2.56,2.53h7.76a2.43,2.43,0,0,0,2.55-2.53Z"/><rect class="cls-70" x="125.78" y="130.87" width="25.51" height="25.51"/><path class="cls-39" d="M132.17,148l-2.07-8.47h1.64l.81,3.85c.22,1,.41,2.11.55,3h0c.14-.89.37-1.9.62-3l.92-3.83h1.62l.84,3.9c.21,1,.39,1.94.51,2.86h0c.15-.93.34-1.91.58-2.93l.87-3.83h1.57L138.41,148h-1.66l-.88-4c-.2-1-.36-1.78-.46-2.69h0c-.15.9-.32,1.72-.56,2.69l-1,4Z"/><path class="cls-39" d="M147,147.58a5.31,5.31,0,0,1-2.19.39,4,4,0,0,1-4.32-4.27,4.27,4.27,0,0,1,4.52-4.48,4.88,4.88,0,0,1,2.06.38l-.34,1.23a4.19,4.19,0,0,0-1.65-.32,2.82,2.82,0,0,0-3,3.11,2.77,2.77,0,0,0,3,3,4.36,4.36,0,0,0,1.69-.31Z"/><rect class="cls-71" x="98.72" y="130.85" width="25.51" height="25.51"/><path class="cls-39" d="M111.2,140.1a2.45,2.45,0,1,0-2.45-2.45A2.45,2.45,0,0,0,111.2,140.1Z"/><path class="cls-39" d="M109.16,149.65a.17.17,0,0,1,0-.23l1.35-1.35-2-1.95L107,147.65a1.4,1.4,0,0,0,0,2l2.57,2.57a.78.78,0,0,0,1.23-.93Z"/><path class="cls-39" d="M113.24,149.65a.17.17,0,0,0,0-.23l-1.35-1.35,1.95-1.95,1.54,1.53a1.4,1.4,0,0,1,0,2l-2.57,2.57a.76.76,0,0,1-1.08,0,.79.79,0,0,1-.16-.93Z"/><path class="cls-39" d="M114.65,142.09c-.61-.55-1.23-1.38-2-1.53h-2.92c-.76.15-1.38,1-2,1.53l-2.22,2.19a.76.76,0,0,0,1.08,1.08l2-2v1.92h5.21v-1.92l2,2a.76.76,0,0,0,1.08-1.08Z"/><rect class="cls-71" x="236.67" y="130.91" width="25.51" height="25.51"/><path class="cls-73" d="M239.27,148.78a2.46,2.46,0,0,1,2.44-.43c.51.32.5.74,0,.89a2.74,2.74,0,0,1-2.4-.46Zm0-3a2.46,2.46,0,0,1,2.44-.43c.52.32.51.74,0,.89a2.76,2.76,0,0,1-2.41-.46Zm0-2.82a2.44,2.44,0,0,1,2.44-.43c.51.32.5.73,0,.89a2.78,2.78,0,0,1-2.4-.46Zm.19-8.89v5.64c-1.42.38-1.8,1.58-1.21,3.28a2.84,2.84,0,0,0,0,2.77,2.62,2.62,0,0,0,.05,2.88c-.72,1.65-.29,3,1.16,3.23l0,2.78.69.36v-3.73c-1.58-.06-1.83-.84-1.38-2,4.82,2.88,5.75-3.58.06-1.22a2,2,0,0,1-.05-1.57c5.29,2.44,5.4-3.72.05-1.28a2,2,0,0,1-.09-1.45c6.42,2,4.31-4,0-1.37-.34-1.43.29-1.94,1.36-2v-6.79Z"/><path class="cls-74" d="M243.87,144.93l.82-.63.08.15a2.75,2.75,0,0,1,.07,2.91l-.07.12-.91-.44.08-.15a1.66,1.66,0,0,0,0-1.84Z"/><path class="cls-73" d="M244.07,145l.57-.44a2.58,2.58,0,0,1,.07,2.75l-.64-.31A1.82,1.82,0,0,0,244.07,145Z"/><path class="cls-74" d="M245.62,143.61l.84-.53.09.12a4.37,4.37,0,0,1,0,5.42l-.08.11-.87-.53.11-.13a3.34,3.34,0,0,0,0-4.32Z"/><path class="cls-73" d="M245.85,143.65l.57-.36a4.2,4.2,0,0,1,.06,5.23l-.6-.36A3.49,3.49,0,0,0,245.85,143.65Z"/><path class="cls-74" d="M247.44,142.32l.86-.53.08.11a7,7,0,0,1,1.33,3.82,5.71,5.71,0,0,1-1.33,4.16l-.09.1-.81-.53.12-.13a5.1,5.1,0,0,0,1.11-3.66,5.75,5.75,0,0,0-1.16-3.2Z"/><path class="cls-73" d="M247.67,142.36l.59-.37c1.43,1.83,2,5.53,0,7.79l-.55-.36A5.87,5.87,0,0,0,247.67,142.36Z"/><path class="cls-74" d="M254.26,149.17a8.79,8.79,0,0,1,.8-1.79,12.6,12.6,0,0,1,.75-1.15,4.52,4.52,0,0,1,.59-.72,7.25,7.25,0,0,0,1.5-3.24,4.94,4.94,0,0,0-1-4.26,4.71,4.71,0,0,0-8.06,2l0,0L247,141.16l0-.32c.42-4.42,3.19-6.39,7.53-5.9h0a5.71,5.71,0,0,1,3.42,2,7,7,0,0,1,1.56,4.47,7.18,7.18,0,0,1-1.65,4.64,13.64,13.64,0,0,0-2.32,4.26,3.51,3.51,0,0,1-3.87,1.92,2.91,2.91,0,0,1-1.29-.73l-.12-.11,1.16-1.08.1.06C252.91,151.09,253.71,150.43,254.26,149.17Z"/><path class="cls-73" d="M247.22,140.86l1.42-.89a4.87,4.87,0,0,1,8.33-2.06c2.34,2.69.7,6.43-.47,7.72a11.48,11.48,0,0,0-2.09,3.59c-.68,1.55-1.64,2-2.89,1.24l-1,.89c1.37,1.31,3.75,1,4.91-1.14a13.05,13.05,0,0,1,2.35-4.3c3.09-3.65,1.61-10-3.24-10.81C250.29,134.61,247.63,136.55,247.22,140.86Z"/><path class="cls-73" d="M253,139.33a2.79,2.79,0,1,1-2.8,2.79,2.79,2.79,0,0,1,2.8-2.79Zm.44,1.89h1v-.79h-2.85v.79h.93v3h1Z"/></g><path class="cls-75" d="M499.92,15.46V16.8H496.7v4.62h-1.4V11.61h5.6v1.33h-4.2v2.52Z"/><path class="cls-75" d="M506.89,20.81a3,3,0,0,1-2,.75,3.33,3.33,0,0,1-1.65-.44,3.42,3.42,0,0,1-1.68-3,3.5,3.5,0,0,1,1.69-3,3.21,3.21,0,0,1,1.61-.42,3.07,3.07,0,0,1,2.06.75v-.61h1.29v6.59h-1.29Zm0-3.92A2.37,2.37,0,0,0,505,16a2.11,2.11,0,0,0-2.11,2.18,2.15,2.15,0,0,0,2.19,2.17,2.29,2.29,0,0,0,1.8-.94Z"/><path class="cls-75" d="M511.85,14.83v.63a2.85,2.85,0,0,1,1.93-.77,3,3,0,0,1,2.33,1.1,3.25,3.25,0,0,1,2.5-1.1A3,3,0,0,1,521,15.8a3.34,3.34,0,0,1,.6,2.26v3.36h-1.33V17.85a1.91,1.91,0,0,0-.37-1.32,1.65,1.65,0,0,0-1.24-.58,2.7,2.7,0,0,0-2,.94,5.54,5.54,0,0,1,.11,1.17v3.36h-1.33V17.85a1.86,1.86,0,0,0-.38-1.32,1.68,1.68,0,0,0-1.27-.58,2.51,2.51,0,0,0-1.85.94v4.53h-1.33V14.83Z"/><path class="cls-75" d="M524.45,11.61a.88.88,0,1,1,0,1.75.88.88,0,0,1,0-1.75Zm-.66,3.22h1.33v6.59h-1.33Z"/><path class="cls-75" d="M527.5,11.47h1.33v10H527.5Z"/><path class="cls-75" d="M531.87,11.61a.88.88,0,1,1,0,1.75.88.88,0,0,1,0-1.75Zm-.66,3.22h1.33v6.59h-1.33Z"/><path class="cls-75" d="M535.65,18.41a2.12,2.12,0,0,0,2.13,2,2.37,2.37,0,0,0,1.89-.89l.87.82a3.43,3.43,0,0,1-2.78,1.24,3.34,3.34,0,0,1-3.4-3.43,3.19,3.19,0,1,1,6.37,0c0,.05,0,.15,0,.28Zm.11-1.12h3.59a1.84,1.84,0,0,0-1.74-1.43A1.9,1.9,0,0,0,535.76,17.29Z"/><line class="cls-76" x1="390.95" y1="16.36" x2="479.24" y2="16.36"/><polygon class="cls-75" points="392.93 19.27 382.09 16.36 392.93 13.46 392.93 19.27"/><line class="cls-77" x1="382.02" y1="10.58" x2="382.02" y2="22.28"/><line class="cls-76" x1="645.1" y1="16.58" x2="553.99" y2="16.58"/><polygon class="cls-75" points="643.12 13.68 653.96 16.58 643.12 19.49 643.12 13.68"/><line class="cls-77" x1="654.02" y1="22.36" x2="654.02" y2="10.66"/></g></svg>