<svg xmlns="http://www.w3.org/2000/svg" xmlns:xlink="http://www.w3.org/1999/xlink" viewBox="0 0 700 160"><defs><style>.cls-1{fill:#b1b1b0;}.cls-1,.cls-10,.cls-11,.cls-14,.cls-18,.cls-19,.cls-2,.cls-20,.cls-21,.cls-22,.cls-23,.cls-3,.cls-4,.cls-5,.cls-7,.cls-8,.cls-9{stroke:#000;}.cls-1,.cls-10,.cls-11,.cls-14,.cls-18,.cls-19,.cls-2,.cls-20,.cls-21,.cls-22,.cls-23,.cls-25,.cls-26,.cls-27,.cls-28,.cls-3,.cls-31,.cls-32,.cls-33,.cls-34,.cls-35,.cls-36,.cls-37,.cls-38,.cls-39,.cls-4,.cls-5,.cls-7,.cls-8,.cls-9{stroke-miterlimit:10;}.cls-1,.cls-10,.cls-11,.cls-2,.cls-4,.cls-7,.cls-8,.cls-9{stroke-width:0.25px;}.cls-2{fill:#c7c5c4;}.cls-3,.cls-4{fill:#3d3d3c;}.cls-18,.cls-19,.cls-20,.cls-21,.cls-22,.cls-23,.cls-3,.cls-5{stroke-width:0.5px;}.cls-12,.cls-5{fill:#6dc6d9;}.cls-6{fill:#55accf;}.cls-14,.cls-17,.cls-19,.cls-7{fill:#9d9b9b;}.cls-8{fill:url(#radial-gradient);}.cls-9{fill:#e1e0e0;}.cls-10{fill:#fab724;}.cls-11{fill:#70706f;}.cls-13{fill:#000100;}.cls-14{stroke-width:0.75px;}.cls-15{fill:#7b7b7a;}.cls-16,.cls-40{fill:#fff;}.cls-18,.cls-20,.cls-21,.cls-22,.cls-23,.cls-25,.cls-26,.cls-27,.cls-28,.cls-31,.cls-32,.cls-33,.cls-34,.cls-35,.cls-36,.cls-37,.cls-38,.cls-39{fill:none;}.cls-18{stroke-dasharray:2.04 1.02;}.cls-20{stroke-dasharray:2.04 1.02;}.cls-21{stroke-dasharray:2.04 1.02;}.cls-22{stroke-dasharray:2.04 1.02;}.cls-23{stroke-dasharray:2.04 1.02;}.cls-24{fill:#29295d;}.cls-25,.cls-26,.cls-27,.cls-28,.cls-31,.cls-32,.cls-33,.cls-34,.cls-35,.cls-36,.cls-37,.cls-38,.cls-39{stroke:#e53212;}.cls-26{stroke-dasharray:5.71 5.71;}.cls-27{stroke-dasharray:7.78 7.78;}.cls-28{stroke-dasharray:7.78 7.78 7.78 7.78;}.cls-29{fill:#251a5f;}.cls-30{fill:#ffd421;}.cls-31{stroke-dasharray:5.71 5.71;}.cls-32{stroke-dasharray:6.7 6.7;}.cls-33{stroke-dasharray:6.7 6.7 6.7 6.7;}.cls-34{stroke-dasharray:1 1;}.cls-35{stroke-dasharray:7.49 7.49;}.cls-36{stroke-dasharray:7.49 7.49 7.49 7.49;}.cls-37{stroke-dasharray:5.44 5.44;}.cls-38{stroke-dasharray:6.67 6.67;}.cls-39{stroke-dasharray:6.67 6.67 6.67 6.67;}.cls-40{fill-rule:evenodd;}.cls-41{fill:#3c3c3b;}</style><radialGradient id="radial-gradient" cx="387.45" cy="51.58" r="3.71" gradientTransform="translate(0 15.87) scale(1 0.69)" gradientUnits="userSpaceOnUse"><stop offset="0" stop-color="#585757"/><stop offset="0.57" stop-color="#9b9a9b"/><stop offset="0.97" stop-color="#d9d9d8"/></radialGradient></defs><title>Type72_vogn3_BC72</title><g id="Type72_vogn3_BC72"><g id="VOGNKASSE-2" data-name="VOGNKASSE"><rect class="cls-1" x="29.8" y="36.51" width="548.08" height="87.75"/><path class="cls-2" d="M456,36.51V67.22a23.5,23.5,0,0,0,0,26.05v31H577.82V36.51Z"/><polygon class="cls-3" points="574.8 69.52 572.21 69.52 572.21 39.9 577.71 39.9 577.71 56.68 574.8 56.68 574.8 69.52"/><polygon class="cls-3" points="574.8 92.24 574.8 105.09 577.71 105.09 577.71 120.81 572.21 120.81 572.21 92.24 574.8 92.24"/><path class="cls-2" d="M152.36,36.51V67.22a23.45,23.45,0,0,1,0,26.05v31H30V36.51Z"/><polygon class="cls-3" points="32.99 69.39 35.58 69.39 35.58 39.77 30.08 39.77 30.08 56.55 32.99 56.55 32.99 69.39"/><polygon class="cls-3" points="32.99 92.11 32.99 104.95 30.08 104.95 30.08 120.68 35.58 120.68 35.58 92.11 32.99 92.11"/><rect class="cls-4" x="152.97" y="106.29" width="7.39" height="17.82" rx="0.57" ry="0.57"/><rect class="cls-4" x="200.1" y="106.28" width="7.39" height="17.82" rx="0.57" ry="0.57"/><rect class="cls-4" x="152.97" y="36.87" width="7.39" height="17.82" rx="0.57" ry="0.57"/><rect class="cls-4" x="200.1" y="36.86" width="7.39" height="17.82" rx="0.57" ry="0.57"/><rect class="cls-4" x="399.68" y="106.23" width="7.39" height="17.82" rx="0.57" ry="0.57"/><rect class="cls-4" x="446.81" y="106.21" width="7.39" height="17.82" rx="0.57" ry="0.57"/><rect class="cls-4" x="399.68" y="36.81" width="7.39" height="17.82" rx="0.57" ry="0.57"/><rect class="cls-4" x="446.81" y="36.79" width="7.39" height="17.82" rx="0.57" ry="0.57"/><path class="cls-2" d="M140.75,69.67l11.34-2.25v-.23a23,23,0,0,1,0,26.27v-.19l-11.34-2.42a.57.57,0,0,1-.57-.57v-20A.57.57,0,0,1,140.75,69.67Z"/><path class="cls-2" d="M467.6,69.67l-11.34-2.26v-.22a23,23,0,0,0,0,26.27v-.19l11.34-2.42a.57.57,0,0,0,.56-.57v-20A.56.56,0,0,0,467.6,69.67Z"/><rect class="cls-5" x="207.48" y="36.65" width="191.42" height="3.56"/><rect class="cls-3" x="259.67" y="36.66" width="3.86" height="3.54"/><rect class="cls-3" x="301.54" y="36.66" width="3.86" height="3.54"/><rect class="cls-3" x="343.67" y="36.66" width="3.86" height="3.54"/><rect class="cls-5" x="29.34" y="36.65" width="123.43" height="3.56"/><rect class="cls-3" x="71.26" y="36.66" width="3.86" height="3.54"/><rect class="cls-3" x="104.03" y="36.66" width="3.86" height="3.54"/><rect class="cls-3" x="29.45" y="36.66" width="11.87" height="3.54"/><polygon class="cls-3" points="154.25 38.91 152.83 38.91 152.83 40.2 137.67 40.2 137.67 36.66 152.83 36.66 152.83 36.66 154.25 36.66 154.25 38.91"/><polygon class="cls-3" points="399.18 38.91 399.18 40.2 385.67 40.2 385.67 36.66 398.97 36.66 398.97 36.66 400.43 36.66 400.43 38.91 399.18 38.91"/><rect class="cls-5" x="454.82" y="36.65" width="123.43" height="3.56"/><rect class="cls-3" x="532.47" y="36.66" width="3.87" height="3.54"/><rect class="cls-3" x="499.7" y="36.66" width="3.86" height="3.54"/><rect class="cls-3" x="566.27" y="36.66" width="11.87" height="3.54"/><polygon class="cls-3" points="453.34 38.91 454.76 38.91 454.76 40.2 469.92 40.2 469.92 36.66 454.76 36.66 454.76 36.66 453.34 36.66 453.34 38.91"/><polygon class="cls-3" points="221.32 40.2 207.59 40.2 207.59 38.91 206.18 38.91 206.18 36.66 207.64 36.66 207.64 36.66 221.32 36.66 221.32 40.2"/><rect class="cls-5" x="207.46" y="120.58" width="191.43" height="3.56"/><rect class="cls-3" x="259.65" y="120.59" width="3.86" height="3.54"/><rect class="cls-3" x="301.52" y="120.59" width="3.86" height="3.54"/><rect class="cls-3" x="343.65" y="120.59" width="3.86" height="3.54"/><rect class="cls-5" x="29.32" y="120.58" width="123.43" height="3.56"/><rect class="cls-3" x="71.23" y="120.59" width="3.86" height="3.54"/><rect class="cls-3" x="104.01" y="120.59" width="3.86" height="3.54"/><rect class="cls-3" x="29.43" y="120.59" width="11.87" height="3.54"/><polygon class="cls-3" points="154.23 121.88 152.81 121.88 152.81 120.59 137.65 120.59 137.65 124.13 152.81 124.13 152.81 124.13 154.23 124.13 154.23 121.88"/><polygon class="cls-3" points="399.17 121.89 399.17 120.59 385.65 120.59 385.65 124.13 398.96 124.13 398.96 124.14 400.41 124.14 400.41 121.89 399.17 121.89"/><rect class="cls-5" x="454.81" y="120.58" width="123.43" height="3.56"/><rect class="cls-3" x="532.45" y="120.59" width="3.86" height="3.54"/><rect class="cls-3" x="499.68" y="120.59" width="3.86" height="3.54"/><rect class="cls-3" x="566.25" y="120.59" width="11.87" height="3.54"/><polygon class="cls-3" points="453.32 121.88 454.74 121.88 454.74 120.59 469.9 120.59 469.9 124.13 454.74 124.13 454.74 124.13 453.32 124.13 453.32 121.88"/><polygon class="cls-3" points="221.3 120.59 207.57 120.59 207.57 121.89 206.16 121.89 206.16 124.14 207.61 124.14 207.61 124.13 221.3 124.13 221.3 120.59"/><path class="cls-6" d="M389.48,41.1H342.89a.57.57,0,0,0-.57.57V78.29a.54.54,0,0,0,.05.22.57.57,0,0,0,.13.21l2.66,2.66s0,0,0,0l1,1a.57.57,0,0,0,.44.15l.1,0h46.63a.58.58,0,0,0,.41-.18.18.18,0,0,0,.08,0l1-1,.05,0,2.66-2.66a.55.55,0,0,0,.14-.53V49.32Z"/><polygon class="cls-7" points="377.5 41.28 397.56 61.34 397.56 49.5 389.34 41.28 377.5 41.28"/><polygon class="cls-2" points="388.72 57.86 393.94 57.86 381.43 45.35 381.43 50.58 388.72 57.86"/><path class="cls-8" d="M384.22,47.87a5.08,5.08,0,0,0-.49,2.17A5.26,5.26,0,0,0,389,55.3a5.11,5.11,0,0,0,2.17-.49Z"/><rect class="cls-4" x="360.72" y="82.83" width="26.45" height="2.28"/><path class="cls-9" d="M344.49,46.65h5.6c4,0,7.16,2.49,7.16,5.53s-3.23,5.53-7.2,5.53h-7.6V46.65Z"/><path class="cls-9" d="M344.93,48.75A7.87,7.87,0,0,1,350.06,47c3.77,0,6.83,2.32,6.83,5.17s-3.06,5.18-6.83,5.18a7.88,7.88,0,0,1-5.13-1.77Z"/><path class="cls-10" d="M361.78,60.18H342.41v1.08h19.37a.54.54,0,0,0,.54-.54A.54.54,0,0,0,361.78,60.18Z"/><path class="cls-10" d="M361.29,41.34v2.21a.54.54,0,1,0,1.07,0V41.34Z"/><path class="cls-10" d="M361.82,43.05H342.45v1.08h19.37a.54.54,0,1,0,0-1.08Z"/><path class="cls-11" d="M399.5,40.52H326V74.65h0v.86H339.8v3.67h0a1.06,1.06,0,0,0,.06.19,1.09,1.09,0,0,0,.19.33h0l0,0,.05,0,5.13,5.13v0l.12.12h0l.11.1h0a.68.68,0,0,0,.42.14h14.31V82.69H346.72l-.1,0a.52.52,0,0,1-.44-.15l-1-1s0,0-.05,0l-2.67-2.66a.57.57,0,0,1-.13-.21.54.54,0,0,1,0-.22V41.76a.57.57,0,0,1,.56-.57h46.59l8.22,8.22V78.28a.56.56,0,0,1-.14.52l-2.66,2.66-.05,0-1,1a.2.2,0,0,1-.09,0,.54.54,0,0,1-.4.18h-5.86v2.59h13.58a6.18,6.18,0,0,0,6.19-6h0V75.49H399.5Z"/><rect class="cls-4" x="454.64" y="40.43" width="1.13" height="26.01"/><circle class="cls-4" cx="455.18" cy="67.05" r="0.86"/><rect class="cls-12" x="455" y="57.44" width="0.8" height="8.49"/><rect class="cls-4" x="454.57" y="94.39" width="1.13" height="26.01"/><path class="cls-4" d="M456,93.78a.86.86,0,0,1-1.72,0,.86.86,0,0,1,1.72,0Z"/><rect class="cls-12" x="454.73" y="94.86" width="0.8" height="8.49"/><rect class="cls-4" x="151.39" y="40.43" width="1.13" height="26.01"/><circle class="cls-4" cx="151.93" cy="67.05" r="0.86"/><rect class="cls-12" x="151.75" y="57.44" width="0.8" height="8.49"/><rect class="cls-4" x="151.32" y="94.39" width="1.13" height="26.01"/><path class="cls-4" d="M152.72,93.78a.86.86,0,0,1-1.72,0,.86.86,0,0,1,1.72,0Z"/><rect class="cls-12" x="151.48" y="94.86" width="0.8" height="8.49"/><rect class="cls-4" x="208.04" y="40.1" width="1.13" height="38.08"/><rect class="cls-12" x="208.21" y="69.11" width="0.8" height="8.38"/><rect class="cls-4" x="207.97" y="94.66" width="1.13" height="26.01"/><circle class="cls-4" cx="208.51" cy="94.05" r="0.86"/><rect class="cls-12" x="208.12" y="95.13" width="0.8" height="8.49"/><path class="cls-4" d="M209.48,78.66a.86.86,0,1,1-.86-.86A.86.86,0,0,1,209.48,78.66Z"/><polygon class="cls-4" points="567.54 90.51 548.17 90.51 548.17 120.37 571.04 120.37 571.04 94.26 567.54 90.51"/><rect class="cls-4" x="303.01" y="94.47" width="1.13" height="26.01"/><circle class="cls-4" cx="303.55" cy="93.86" r="0.86"/><rect class="cls-11" x="200.14" y="54.9" width="7.69" height="18.51"/><rect class="cls-11" x="399.58" y="55.21" width="7.69" height="18.51"/><path class="cls-13" d="M578,50.9a.1.1,0,0,1-.07,0,.13.13,0,0,1,0-.17l2-2.78a.12.12,0,0,1,.17,0,.13.13,0,0,1,0,.17l-1.95,2.78A.16.16,0,0,1,578,50.9Z"/><path class="cls-13" d="M581.88,50.89a.11.11,0,0,1-.1-.06l-1.95-2.77a.13.13,0,0,1,0-.18.13.13,0,0,1,.17,0l2,2.78a.12.12,0,0,1,0,.17A.09.09,0,0,1,581.88,50.89Z"/><path class="cls-13" d="M581.9,50.89a.13.13,0,0,1-.08,0,.13.13,0,0,1,0-.17l2-2.78a.13.13,0,0,1,.21.15l-2,2.77A.12.12,0,0,1,581.9,50.89Z"/><path class="cls-13" d="M585.8,50.87a.12.12,0,0,1-.1,0l-2-2.78a.13.13,0,0,1,0-.17.13.13,0,0,1,.18,0l1.94,2.77a.13.13,0,0,1,0,.18Z"/><path class="cls-13" d="M585.77,50.85a.08.08,0,0,1-.07,0,.13.13,0,0,1,0-.17l2-2.78a.13.13,0,0,1,.18,0,.14.14,0,0,1,0,.18l-2,2.77A.1.1,0,0,1,585.77,50.85Z"/><path class="cls-13" d="M578,58.27a.12.12,0,0,1-.12-.12v-7.4a.12.12,0,0,1,.12-.12.12.12,0,0,1,.13.12v7.4A.13.13,0,0,1,578,58.27Z"/><path class="cls-13" d="M581.92,58.22a.12.12,0,0,1-.12-.13V50.7a.12.12,0,0,1,.12-.13.13.13,0,0,1,.13.13v7.39A.13.13,0,0,1,581.92,58.22Z"/><path class="cls-13" d="M585.82,58.27a.12.12,0,0,1-.13-.12v-7.4a.12.12,0,0,1,.13-.12.12.12,0,0,1,.12.12v7.4A.12.12,0,0,1,585.82,58.27Z"/><path class="cls-13" d="M587.77,58.3a.13.13,0,0,1-.13-.13V48a.13.13,0,0,1,.13-.13.12.12,0,0,1,.12.13V58.17A.12.12,0,0,1,587.77,58.3Z"/><path class="cls-13" d="M579.94,58.3a.13.13,0,0,1-.13-.13V48a.13.13,0,0,1,.13-.13.12.12,0,0,1,.12.13v10.2A.12.12,0,0,1,579.94,58.3Z"/><path class="cls-13" d="M583.83,58.27a.13.13,0,0,1-.12-.13V48a.13.13,0,0,1,.12-.12A.13.13,0,0,1,584,48V58.14A.13.13,0,0,1,583.83,58.27Z"/><path class="cls-13" d="M587.8,58.3H578a.13.13,0,0,1-.13-.13.12.12,0,0,1,.13-.12h9.77a.12.12,0,0,1,.12.12A.12.12,0,0,1,587.8,58.3Z"/><path class="cls-13" d="M579.92,114.25a.11.11,0,0,1-.1-.06l-2-2.77a.14.14,0,0,1,0-.18.14.14,0,0,1,.18,0l1.95,2.77a.14.14,0,0,1,0,.18Z"/><path class="cls-13" d="M579.93,114.26a.1.1,0,0,1-.07,0,.12.12,0,0,1,0-.17l1.95-2.78a.12.12,0,0,1,.17,0,.13.13,0,0,1,0,.18l-2,2.77A.1.1,0,0,1,579.93,114.26Z"/><path class="cls-13" d="M583.84,114.26a.12.12,0,0,1-.1-.05l-2-2.77a.14.14,0,0,1,0-.18.13.13,0,0,1,.18,0l2,2.78a.13.13,0,0,1,0,.17A.12.12,0,0,1,583.84,114.26Z"/><path class="cls-13" d="M583.85,114.28l-.07,0a.14.14,0,0,1,0-.18l2-2.77a.12.12,0,0,1,.17,0,.12.12,0,0,1,0,.17L584,114.23A.16.16,0,0,1,583.85,114.28Z"/><path class="cls-13" d="M587.72,114.3a.14.14,0,0,1-.11-.06l-2-2.77a.14.14,0,0,1,0-.18.13.13,0,0,1,.17,0l2,2.78a.13.13,0,0,1,0,.17A.11.11,0,0,1,587.72,114.3Z"/><path class="cls-13" d="M578,111.5a.12.12,0,0,1-.12-.13V104a.12.12,0,0,1,.12-.13.13.13,0,0,1,.13.13v7.39A.13.13,0,0,1,578,111.5Z"/><path class="cls-13" d="M581.92,111.55a.12.12,0,0,1-.12-.12V104a.12.12,0,0,1,.12-.12.12.12,0,0,1,.13.12v7.4A.13.13,0,0,1,581.92,111.55Z"/><path class="cls-13" d="M585.82,111.5a.13.13,0,0,1-.13-.13V104a.13.13,0,0,1,.13-.13.12.12,0,0,1,.12.13v7.39A.12.12,0,0,1,585.82,111.5Z"/><path class="cls-13" d="M587.77,114.27a.12.12,0,0,1-.13-.12V104a.12.12,0,0,1,.13-.12.12.12,0,0,1,.12.12v10.2A.12.12,0,0,1,587.77,114.27Z"/><path class="cls-13" d="M579.94,114.28a.12.12,0,0,1-.13-.12V104a.12.12,0,0,1,.13-.12.12.12,0,0,1,.12.12v10.21A.12.12,0,0,1,579.94,114.28Z"/><path class="cls-13" d="M583.83,114.29a.13.13,0,0,1-.12-.13V104a.12.12,0,0,1,.12-.12.12.12,0,0,1,.13.12v10.18A.13.13,0,0,1,583.83,114.29Z"/><path class="cls-13" d="M587.8,104.08H578a.13.13,0,0,1-.13-.13.12.12,0,0,1,.13-.12h9.77a.12.12,0,0,1,.12.12A.12.12,0,0,1,587.8,104.08Z"/><rect class="cls-1" x="577.8" y="58.04" width="10.02" height="45.91"/><path class="cls-13" d="M29.72,50.7a.08.08,0,0,0,.07,0,.12.12,0,0,0,0-.17l-1.94-2.78a.13.13,0,0,0-.21.14l1.95,2.78A.12.12,0,0,0,29.72,50.7Z"/><path class="cls-13" d="M25.82,50.69a.14.14,0,0,0,.1-.06l1.95-2.77a.14.14,0,0,0,0-.18.15.15,0,0,0-.18,0l-1.95,2.78a.14.14,0,0,0,0,.18Z"/><path class="cls-13" d="M25.8,50.69l.07,0a.13.13,0,0,0,0-.18L24,47.71a.14.14,0,0,0-.17,0,.13.13,0,0,0,0,.18l1.95,2.77A.11.11,0,0,0,25.8,50.69Z"/><path class="cls-13" d="M21.89,50.67a.16.16,0,0,0,.11-.05l1.94-2.78a.12.12,0,0,0-.2-.14l-1.95,2.77a.14.14,0,0,0,0,.18Z"/><path class="cls-13" d="M21.93,50.66a.11.11,0,0,0,.07,0,.12.12,0,0,0,0-.17l-2-2.78a.12.12,0,0,0-.17,0,.13.13,0,0,0,0,.18l1.95,2.77A.11.11,0,0,0,21.93,50.66Z"/><path class="cls-13" d="M29.72,58.07a.13.13,0,0,0,.13-.12v-7.4a.12.12,0,0,0-.13-.12.12.12,0,0,0-.12.12V58A.12.12,0,0,0,29.72,58.07Z"/><path class="cls-13" d="M25.78,58a.13.13,0,0,0,.12-.13V50.5a.12.12,0,0,0-.12-.12.12.12,0,0,0-.13.12v7.39A.13.13,0,0,0,25.78,58Z"/><path class="cls-13" d="M21.88,58.07A.12.12,0,0,0,22,58v-7.4a.12.12,0,0,0-.12-.12.13.13,0,0,0-.13.12V58A.12.12,0,0,0,21.88,58.07Z"/><path class="cls-13" d="M19.93,58.1a.12.12,0,0,0,.12-.13V47.78a.12.12,0,0,0-.12-.13.13.13,0,0,0-.13.13V58A.13.13,0,0,0,19.93,58.1Z"/><path class="cls-13" d="M27.76,58.1a.12.12,0,0,0,.12-.13V47.77a.12.12,0,0,0-.12-.13.13.13,0,0,0-.13.13V58A.13.13,0,0,0,27.76,58.1Z"/><path class="cls-13" d="M23.86,58.07A.13.13,0,0,0,24,58V47.77a.13.13,0,0,0-.13-.13.12.12,0,0,0-.12.13V58A.12.12,0,0,0,23.86,58.07Z"/><path class="cls-13" d="M19.9,58.1h9.77a.12.12,0,0,0,.12-.13.12.12,0,0,0-.12-.12H19.9a.12.12,0,0,0-.13.12A.13.13,0,0,0,19.9,58.1Z"/><path class="cls-13" d="M27.77,114.05a.16.16,0,0,0,.11,0l1.94-2.78a.12.12,0,0,0,0-.17.12.12,0,0,0-.17,0l-1.95,2.77a.14.14,0,0,0,0,.18Z"/><path class="cls-13" d="M27.76,114.07a.13.13,0,0,0,.08,0,.13.13,0,0,0,0-.17l-1.95-2.78a.13.13,0,1,0-.21.15L27.66,114A.12.12,0,0,0,27.76,114.07Z"/><path class="cls-13" d="M23.85,114.07A.11.11,0,0,0,24,114l1.95-2.77a.13.13,0,1,0-.2-.15l-1.95,2.78a.12.12,0,0,0,0,.17A.11.11,0,0,0,23.85,114.07Z"/><path class="cls-13" d="M23.84,114.08l.07,0a.13.13,0,0,0,0-.18L22,111.11a.13.13,0,0,0-.21.14L23.74,114A.12.12,0,0,0,23.84,114.08Z"/><path class="cls-13" d="M20,114.1a.11.11,0,0,0,.1-.06l2-2.77a.13.13,0,0,0,0-.18.13.13,0,0,0-.17,0l-1.95,2.78a.13.13,0,0,0,0,.18Z"/><path class="cls-13" d="M29.72,111.3a.13.13,0,0,0,.13-.13v-7.39a.12.12,0,0,0-.13-.12.12.12,0,0,0-.12.12v7.39A.12.12,0,0,0,29.72,111.3Z"/><path class="cls-13" d="M25.78,111.35a.13.13,0,0,0,.12-.12v-7.4a.12.12,0,0,0-.12-.12.12.12,0,0,0-.13.12v7.4A.13.13,0,0,0,25.78,111.35Z"/><path class="cls-13" d="M21.88,111.3a.12.12,0,0,0,.12-.13v-7.39a.12.12,0,0,0-.12-.13.13.13,0,0,0-.13.13v7.39A.13.13,0,0,0,21.88,111.3Z"/><path class="cls-13" d="M19.93,114.07a.12.12,0,0,0,.12-.12v-10.2a.12.12,0,0,0-.12-.12.13.13,0,0,0-.13.12V114A.12.12,0,0,0,19.93,114.07Z"/><path class="cls-13" d="M27.76,114.08a.12.12,0,0,0,.12-.12V103.75a.12.12,0,0,0-.12-.12.13.13,0,0,0-.13.12V114A.12.12,0,0,0,27.76,114.08Z"/><path class="cls-13" d="M23.86,114.09A.13.13,0,0,0,24,114V103.78a.12.12,0,0,0-.13-.12.12.12,0,0,0-.12.12V114A.12.12,0,0,0,23.86,114.09Z"/><path class="cls-13" d="M19.9,103.88h9.77a.12.12,0,0,0,.12-.13.12.12,0,0,0-.12-.12H19.9a.13.13,0,0,0-.13.12A.13.13,0,0,0,19.9,103.88Z"/><rect class="cls-1" x="19.87" y="57.84" width="10.02" height="45.91"/><rect class="cls-13" x="132.15" y="35.18" width="28.35" height="0.72"/><rect class="cls-13" x="199.89" y="35.16" width="28.35" height="0.72"/><rect class="cls-13" x="378.72" y="35.18" width="28.35" height="0.72"/><rect class="cls-13" x="446.46" y="35.16" width="28.35" height="0.72"/><rect class="cls-13" x="132.32" y="125.04" width="28.35" height="0.72"/><rect class="cls-13" x="200.06" y="125.02" width="28.35" height="0.72"/><rect class="cls-13" x="378.88" y="125.04" width="28.35" height="0.72"/><rect class="cls-13" x="446.62" y="125.02" width="28.35" height="0.72"/></g><g id="SETER_72-2" data-name="SETER 72"><polygon class="cls-14" points="105.75 103.83 105.75 95.91 108.05 93.61 124.38 93.61 124.38 106.14 108.07 106.14 105.75 103.83"/><polygon class="cls-15" points="108.16 96.21 108.17 96.21 110.31 94.02 111.9 94.02 109.76 96.21 109.75 96.21 109.75 103.57 109.76 103.57 111.9 105.76 110.31 105.76 108.19 103.59 108.16 103.59 108.16 96.21"/><rect class="cls-16" x="106.14" y="96.83" width="1.87" height="6.13"/><polygon class="cls-14" points="105.75 90.86 105.75 82.94 108.05 80.64 124.38 80.64 124.38 93.17 108.07 93.17 105.75 90.86"/><polygon class="cls-15" points="108.16 83.24 108.16 83.24 110.31 81.05 111.89 81.05 109.75 83.24 109.75 83.24 109.75 90.6 109.75 90.6 111.89 92.79 110.31 92.79 108.19 90.62 108.16 90.62 108.16 83.24"/><rect class="cls-16" x="106.13" y="83.86" width="1.87" height="6.13"/><polygon class="cls-14" points="105.75 116.92 105.75 109 108.05 106.7 124.38 106.7 124.38 119.24 108.07 119.24 105.75 116.92"/><polygon class="cls-15" points="108.16 109.31 108.17 109.31 110.31 107.11 111.9 107.11 109.76 109.31 109.75 109.31 109.75 116.66 109.76 116.66 111.9 118.85 110.31 118.85 108.19 116.68 108.16 116.68 108.16 109.31"/><rect class="cls-16" x="106.14" y="109.92" width="1.87" height="6.13"/><polygon class="cls-14" points="127.38 65.26 127.38 57.34 125.08 55.04 108.76 55.04 108.76 67.58 125.07 67.58 127.38 65.26"/><polygon class="cls-15" points="124.98 57.64 124.97 57.64 122.83 55.45 121.24 55.45 123.38 57.64 123.39 57.64 123.39 65 123.38 65 121.24 67.19 122.83 67.19 124.95 65.02 124.98 65.02 124.98 57.64"/><rect class="cls-16" x="125.13" y="58.26" width="1.87" height="6.13"/><polygon class="cls-14" points="127.37 52.28 127.37 44.36 125.08 42.06 108.75 42.06 108.75 54.6 125.06 54.6 127.37 52.28"/><polygon class="cls-15" points="124.97 44.67 124.96 44.67 122.82 42.48 121.23 42.48 123.37 44.67 123.38 44.67 123.38 52.02 123.37 52.02 121.23 54.22 122.82 54.22 124.94 52.05 124.97 52.05 124.97 44.67"/><rect class="cls-16" x="125.13" y="45.28" width="1.87" height="6.13"/><polygon class="cls-14" points="82.97 103.86 82.97 95.94 85.27 93.64 101.6 93.64 101.6 106.17 85.28 106.17 82.97 103.86"/><polygon class="cls-15" points="85.38 96.24 85.38 96.24 87.52 94.05 89.11 94.05 86.97 96.24 86.97 96.24 86.97 103.6 86.97 103.6 89.11 105.79 87.52 105.79 85.4 103.62 85.38 103.62 85.38 96.24"/><rect class="cls-16" x="83.35" y="96.86" width="1.87" height="6.13"/><polygon class="cls-14" points="82.97 90.89 82.97 82.97 85.27 80.67 101.6 80.67 101.6 93.2 85.28 93.2 82.97 90.89"/><polygon class="cls-15" points="85.38 83.27 85.38 83.27 87.52 81.08 89.11 81.08 86.97 83.27 86.96 83.27 86.96 90.63 86.97 90.63 89.11 92.81 87.52 92.81 85.4 90.65 85.38 90.65 85.38 83.27"/><rect class="cls-16" x="83.35" y="83.89" width="1.87" height="6.13"/><polygon class="cls-14" points="82.97 116.95 82.97 109.03 85.27 106.73 101.6 106.73 101.6 119.27 85.28 119.27 82.97 116.95"/><polygon class="cls-15" points="85.38 109.33 85.38 109.33 87.52 107.14 89.11 107.14 86.97 109.33 86.97 109.33 86.97 116.69 86.97 116.69 89.11 118.88 87.52 118.88 85.4 116.71 85.38 116.71 85.38 109.33"/><rect class="cls-16" x="83.35" y="109.95" width="1.87" height="6.13"/><polygon class="cls-14" points="82.97 65.29 82.97 57.37 85.27 55.06 101.6 55.06 101.6 67.6 85.29 67.6 82.97 65.29"/><polygon class="cls-15" points="85.38 57.67 85.38 57.67 87.53 55.48 89.11 55.48 86.97 57.67 86.97 57.67 86.97 65.03 86.97 65.03 89.11 67.22 87.53 67.22 85.4 65.05 85.38 65.05 85.38 57.67"/><rect class="cls-16" x="83.35" y="58.29" width="1.87" height="6.13"/><polygon class="cls-14" points="82.98 52.31 82.98 44.39 85.28 42.09 101.61 42.09 101.61 54.63 85.3 54.63 82.98 52.31"/><polygon class="cls-15" points="85.39 44.7 85.39 44.7 87.53 42.51 89.12 42.51 86.98 44.7 86.97 44.7 86.97 52.05 86.98 52.05 89.12 54.24 87.53 54.24 85.41 52.07 85.39 52.07 85.39 44.7"/><rect class="cls-16" x="83.36" y="45.31" width="1.87" height="6.13"/><polygon class="cls-14" points="59.99 103.83 59.99 95.91 62.29 93.61 78.62 93.61 78.62 106.14 62.3 106.14 59.99 103.83"/><polygon class="cls-15" points="62.39 96.21 62.4 96.21 64.54 94.02 66.13 94.02 63.99 96.21 63.98 96.21 63.98 103.57 63.99 103.57 66.13 105.76 64.54 105.76 62.42 103.59 62.39 103.59 62.39 96.21"/><rect class="cls-16" x="60.37" y="96.83" width="1.87" height="6.13"/><polygon class="cls-14" points="59.99 90.86 59.99 82.94 62.29 80.64 78.61 80.64 78.61 93.17 62.3 93.17 59.99 90.86"/><polygon class="cls-15" points="62.39 83.24 62.4 83.24 64.54 81.05 66.13 81.05 63.99 83.24 63.98 83.24 63.98 90.6 63.99 90.6 66.13 92.79 64.54 92.79 62.42 90.62 62.39 90.62 62.39 83.24"/><rect class="cls-16" x="60.37" y="83.86" width="1.87" height="6.13"/><polygon class="cls-14" points="59.99 116.92 59.99 109 62.29 106.7 78.61 106.7 78.61 119.24 62.3 119.24 59.99 116.92"/><polygon class="cls-15" points="62.39 109.31 62.4 109.31 64.54 107.11 66.13 107.11 63.99 109.31 63.98 109.31 63.98 116.66 63.99 116.66 66.13 118.85 64.54 118.85 62.42 116.68 62.39 116.68 62.39 109.31"/><rect class="cls-16" x="60.37" y="109.92" width="1.87" height="6.13"/><polygon class="cls-14" points="59.99 65.26 59.99 57.34 62.29 55.04 78.61 55.04 78.61 67.58 62.31 67.58 59.99 65.26"/><polygon class="cls-15" points="62.4 57.64 62.4 57.64 64.54 55.45 66.13 55.45 63.99 57.64 63.99 57.64 63.99 65 63.99 65 66.13 67.19 64.54 67.19 62.42 65.02 62.4 65.02 62.4 57.64"/><rect class="cls-16" x="60.37" y="58.26" width="1.87" height="6.13"/><polygon class="cls-14" points="60 52.28 60 44.36 62.3 42.06 78.63 42.06 78.63 54.6 62.31 54.6 60 52.28"/><polygon class="cls-15" points="62.4 44.67 62.41 44.67 64.55 42.48 66.14 42.48 64 44.67 63.99 44.67 63.99 52.02 64 52.02 66.14 54.22 64.55 54.22 62.43 52.05 62.4 52.05 62.4 44.67"/><rect class="cls-16" x="60.38" y="45.28" width="1.87" height="6.13"/><polygon class="cls-14" points="36.66 103.77 36.66 95.85 38.96 93.55 55.29 93.55 55.29 106.09 38.97 106.09 36.66 103.77"/><polygon class="cls-15" points="39.06 96.16 39.07 96.16 41.21 93.97 42.8 93.97 40.66 96.16 40.66 96.16 40.66 103.51 40.66 103.51 42.8 105.7 41.21 105.7 39.09 103.53 39.06 103.53 39.06 96.16"/><rect class="cls-16" x="37.04" y="96.77" width="1.87" height="6.13"/><polygon class="cls-14" points="36.66 116.86 36.66 108.94 38.96 106.64 55.28 106.64 55.28 119.18 38.97 119.18 36.66 116.86"/><polygon class="cls-15" points="39.06 109.25 39.07 109.25 41.21 107.06 42.8 107.06 40.66 109.25 40.66 109.25 40.66 116.6 40.66 116.6 42.8 118.79 41.21 118.79 39.09 116.62 39.06 116.62 39.06 109.25"/><rect class="cls-16" x="37.04" y="109.86" width="1.87" height="6.13"/><polygon class="cls-14" points="36.66 65.2 36.66 57.28 38.96 54.98 55.28 54.98 55.28 67.52 38.98 67.52 36.66 65.2"/><polygon class="cls-15" points="39.07 57.58 39.07 57.58 41.21 55.39 42.8 55.39 40.66 57.58 40.66 57.58 40.66 64.94 40.66 64.94 42.8 67.13 41.21 67.13 39.09 64.96 39.07 64.96 39.07 57.58"/><rect class="cls-16" x="37.04" y="58.2" width="1.87" height="6.13"/><polygon class="cls-14" points="36.67 52.23 36.67 44.31 38.97 42.01 55.3 42.01 55.3 54.55 38.98 54.55 36.67 52.23"/><polygon class="cls-15" points="39.07 44.61 39.08 44.61 41.22 42.42 42.81 42.42 40.67 44.61 40.66 44.61 40.66 51.97 40.67 51.97 42.81 54.16 41.22 54.16 39.1 51.99 39.07 51.99 39.07 44.61"/><rect class="cls-16" x="37.05" y="45.23" width="1.87" height="6.13"/><polygon class="cls-14" points="210.41 57.47 210.41 65.39 212.71 67.69 229.04 67.69 229.04 55.15 212.73 55.15 210.41 57.47"/><polygon class="cls-15" points="212.82 65.09 212.82 65.09 214.97 67.28 216.55 67.28 214.41 65.09 214.41 65.09 214.41 57.73 214.41 57.73 216.55 55.54 214.97 55.54 212.84 57.71 212.82 57.71 212.82 65.09"/><rect class="cls-16" x="210.79" y="58.34" width="1.87" height="6.13"/><polygon class="cls-14" points="210.41 70.44 210.41 78.36 212.71 80.66 229.04 80.66 229.04 68.13 212.73 68.13 210.41 70.44"/><polygon class="cls-15" points="212.82 78.06 212.82 78.06 214.96 80.25 216.55 80.25 214.41 78.06 214.41 78.06 214.41 70.7 214.41 70.7 216.55 68.51 214.96 68.51 212.84 70.68 212.82 70.68 212.82 78.06"/><rect class="cls-16" x="210.79" y="71.31" width="1.87" height="6.13"/><polygon class="cls-14" points="210.41 44.38 210.41 52.3 212.71 54.6 229.04 54.6 229.04 42.06 212.73 42.06 210.41 44.38"/><polygon class="cls-15" points="212.82 51.99 212.82 51.99 214.97 54.19 216.55 54.19 214.41 51.99 214.41 51.99 214.41 44.64 214.41 44.64 216.55 42.45 214.97 42.45 212.84 44.62 212.82 44.62 212.82 51.99"/><rect class="cls-16" x="210.79" y="45.25" width="1.87" height="6.13"/><polygon class="cls-14" points="210.41 96.04 210.41 103.96 212.71 106.26 229.04 106.26 229.04 93.72 212.73 93.72 210.41 96.04"/><polygon class="cls-15" points="212.82 103.66 212.82 103.66 214.97 105.85 216.56 105.85 214.42 103.66 214.41 103.66 214.41 96.3 214.42 96.3 216.56 94.11 214.97 94.11 212.85 96.28 212.82 96.28 212.82 103.66"/><rect class="cls-16" x="210.79" y="96.91" width="1.87" height="6.13"/><polygon class="cls-14" points="210.42 109.02 210.42 116.94 212.72 119.24 229.05 119.24 229.05 106.7 212.74 106.7 210.42 109.02"/><polygon class="cls-15" points="212.83 116.63 212.83 116.63 214.97 118.82 216.56 118.82 214.42 116.63 214.42 116.63 214.42 109.28 214.42 109.28 216.56 107.08 214.97 107.08 212.85 109.25 212.83 109.25 212.83 116.63"/><rect class="cls-16" x="210.8" y="109.89" width="1.87" height="6.13"/><polygon class="cls-14" points="233.77 57.47 233.77 65.39 236.07 67.69 252.4 67.69 252.4 55.15 236.09 55.15 233.77 57.47"/><polygon class="cls-15" points="236.18 65.09 236.18 65.09 238.32 67.28 239.91 67.28 237.77 65.09 237.77 65.09 237.77 57.73 237.77 57.73 239.91 55.54 238.32 55.54 236.2 57.71 236.18 57.71 236.18 65.09"/><rect class="cls-16" x="234.15" y="58.34" width="1.87" height="6.13"/><polygon class="cls-14" points="233.77 70.44 233.77 78.36 236.07 80.66 252.4 80.66 252.4 68.13 236.09 68.13 233.77 70.44"/><polygon class="cls-15" points="236.18 78.06 236.18 78.06 238.32 80.25 239.91 80.25 237.77 78.06 237.76 78.06 237.76 70.7 237.77 70.7 239.91 68.51 238.32 68.51 236.2 70.68 236.18 70.68 236.18 78.06"/><rect class="cls-16" x="234.15" y="71.31" width="1.87" height="6.13"/><polygon class="cls-14" points="233.77 44.38 233.77 52.3 236.07 54.6 252.4 54.6 252.4 42.06 236.09 42.06 233.77 44.38"/><polygon class="cls-15" points="236.18 51.99 236.18 51.99 238.32 54.19 239.91 54.19 237.77 51.99 237.77 51.99 237.77 44.64 237.77 44.64 239.91 42.45 238.32 42.45 236.2 44.62 236.18 44.62 236.18 51.99"/><rect class="cls-16" x="234.15" y="45.25" width="1.87" height="6.13"/><polygon class="cls-14" points="233.77 96.04 233.77 103.96 236.07 106.26 252.4 106.26 252.4 93.72 236.09 93.72 233.77 96.04"/><polygon class="cls-15" points="236.18 103.66 236.18 103.66 238.33 105.85 239.91 105.85 237.78 103.66 237.77 103.66 237.77 96.3 237.78 96.3 239.91 94.11 238.33 94.11 236.21 96.28 236.18 96.28 236.18 103.66"/><rect class="cls-16" x="234.15" y="96.91" width="1.87" height="6.13"/><polygon class="cls-14" points="233.78 109.02 233.78 116.94 236.08 119.24 252.41 119.24 252.41 106.7 236.1 106.7 233.78 109.02"/><polygon class="cls-15" points="236.19 116.63 236.19 116.63 238.33 118.82 239.92 118.82 237.78 116.63 237.78 116.63 237.78 109.28 237.78 109.28 239.92 107.08 238.33 107.08 236.21 109.25 236.19 109.25 236.19 116.63"/><rect class="cls-16" x="234.16" y="109.89" width="1.87" height="6.13"/><polygon class="cls-14" points="257.38 57.47 257.38 65.39 259.68 67.69 276.01 67.69 276.01 55.15 259.69 55.15 257.38 57.47"/><polygon class="cls-15" points="259.79 65.09 259.79 65.09 261.93 67.28 263.52 67.28 261.38 65.09 261.38 65.09 261.38 57.73 261.38 57.73 263.52 55.54 261.93 55.54 259.81 57.71 259.79 57.71 259.79 65.09"/><rect class="cls-16" x="257.76" y="58.34" width="1.87" height="6.13"/><polygon class="cls-14" points="257.38 70.44 257.38 78.36 259.68 80.66 276.01 80.66 276.01 68.13 259.69 68.13 257.38 70.44"/><polygon class="cls-15" points="259.79 78.06 259.79 78.06 261.93 80.25 263.52 80.25 261.38 78.06 261.38 78.06 261.38 70.7 261.38 70.7 263.52 68.51 261.93 68.51 259.81 70.68 259.79 70.68 259.79 78.06"/><rect class="cls-16" x="257.76" y="71.31" width="1.87" height="6.13"/><polygon class="cls-14" points="257.38 44.38 257.38 52.3 259.68 54.6 276.01 54.6 276.01 42.06 259.69 42.06 257.38 44.38"/><polygon class="cls-15" points="259.79 51.99 259.79 51.99 261.93 54.19 263.52 54.19 261.38 51.99 261.38 51.99 261.38 44.64 261.38 44.64 263.52 42.45 261.93 42.45 259.81 44.62 259.79 44.62 259.79 51.99"/><rect class="cls-16" x="257.76" y="45.25" width="1.87" height="6.13"/><polygon class="cls-14" points="257.38 96.04 257.38 103.96 259.68 106.26 276.01 106.26 276.01 93.72 259.7 93.72 257.38 96.04"/><polygon class="cls-15" points="259.79 103.66 259.79 103.66 261.94 105.85 263.52 105.85 261.38 103.66 261.38 103.66 261.38 96.3 261.38 96.3 263.52 94.11 261.94 94.11 259.81 96.28 259.79 96.28 259.79 103.66"/><rect class="cls-16" x="257.76" y="96.91" width="1.87" height="6.13"/><polygon class="cls-14" points="257.39 109.02 257.39 116.94 259.69 119.24 276.01 119.24 276.01 106.7 259.7 106.7 257.39 109.02"/><polygon class="cls-15" points="259.8 116.63 259.8 116.63 261.94 118.82 263.53 118.82 261.39 116.63 261.38 116.63 261.38 109.28 261.39 109.28 263.53 107.08 261.94 107.08 259.82 109.25 259.8 109.25 259.8 116.63"/><rect class="cls-16" x="257.77" y="109.89" width="1.87" height="6.13"/><polygon class="cls-14" points="280.39 57.47 280.39 65.39 282.69 67.69 299.02 67.69 299.02 55.15 282.71 55.15 280.39 57.47"/><polygon class="cls-15" points="282.8 65.09 282.81 65.09 284.95 67.28 286.54 67.28 284.4 65.09 284.39 65.09 284.39 57.73 284.4 57.73 286.54 55.54 284.95 55.54 282.83 57.71 282.8 57.71 282.8 65.09"/><rect class="cls-16" x="280.78" y="58.34" width="1.87" height="6.13"/><polygon class="cls-14" points="280.39 70.44 280.39 78.36 282.69 80.66 299.02 80.66 299.02 68.13 282.71 68.13 280.39 70.44"/><polygon class="cls-15" points="282.8 78.06 282.8 78.06 284.94 80.25 286.53 80.25 284.39 78.06 284.39 78.06 284.39 70.7 284.39 70.7 286.53 68.51 284.94 68.51 282.82 70.68 282.8 70.68 282.8 78.06"/><rect class="cls-16" x="280.78" y="71.31" width="1.87" height="6.13"/><polygon class="cls-14" points="280.39 44.38 280.39 52.3 282.69 54.6 299.02 54.6 299.02 42.06 282.71 42.06 280.39 44.38"/><polygon class="cls-15" points="282.8 51.99 282.81 51.99 284.95 54.19 286.54 54.19 284.4 51.99 284.39 51.99 284.39 44.64 284.4 44.64 286.54 42.45 284.95 42.45 282.83 44.62 282.8 44.62 282.8 51.99"/><rect class="cls-16" x="280.78" y="45.25" width="1.87" height="6.13"/><polygon class="cls-14" points="280.39 96.04 280.39 103.96 282.69 106.26 299.02 106.26 299.02 93.72 282.71 93.72 280.39 96.04"/><polygon class="cls-15" points="282.8 103.66 282.81 103.66 284.95 105.85 286.54 105.85 284.4 103.66 284.39 103.66 284.39 96.3 284.4 96.3 286.54 94.11 284.95 94.11 282.83 96.28 282.8 96.28 282.8 103.66"/><rect class="cls-16" x="280.78" y="96.91" width="1.87" height="6.13"/><polygon class="cls-14" points="280.4 109.02 280.4 116.94 282.7 119.24 299.03 119.24 299.03 106.7 282.72 106.7 280.4 109.02"/><polygon class="cls-15" points="282.81 116.63 282.82 116.63 284.96 118.82 286.55 118.82 284.41 116.63 284.4 116.63 284.4 109.28 284.41 109.28 286.55 107.08 284.96 107.08 282.84 109.25 282.81 109.25 282.81 116.63"/><rect class="cls-16" x="280.78" y="109.89" width="1.87" height="6.13"/><polygon class="cls-14" points="324.47 57.47 324.47 65.39 322.17 67.69 305.84 67.69 305.84 55.15 322.15 55.15 324.47 57.47"/><polygon class="cls-15" points="322.06 65.09 322.06 65.09 319.92 67.28 318.33 67.28 320.47 65.09 320.47 65.09 320.47 57.73 320.47 57.73 318.33 55.54 319.92 55.54 322.04 57.71 322.06 57.71 322.06 65.09"/><rect class="cls-16" x="322.22" y="58.34" width="1.87" height="6.13"/><polygon class="cls-14" points="324.47 70.44 324.47 78.36 322.17 80.66 305.84 80.66 305.84 68.13 322.16 68.13 324.47 70.44"/><polygon class="cls-15" points="322.06 78.06 322.06 78.06 319.92 80.25 318.33 80.25 320.47 78.06 320.48 78.06 320.48 70.7 320.47 70.7 318.33 68.51 319.92 68.51 322.04 70.68 322.06 70.68 322.06 78.06"/><rect class="cls-16" x="322.22" y="71.31" width="1.87" height="6.13"/><polygon class="cls-14" points="324.47 44.38 324.47 52.3 322.17 54.6 305.84 54.6 305.84 42.06 322.15 42.06 324.47 44.38"/><polygon class="cls-15" points="322.06 51.99 322.06 51.99 319.92 54.19 318.33 54.19 320.47 51.99 320.47 51.99 320.47 44.64 320.47 44.64 318.33 42.45 319.92 42.45 322.04 44.62 322.06 44.62 322.06 51.99"/><rect class="cls-16" x="322.22" y="45.25" width="1.87" height="6.13"/><polygon class="cls-14" points="571.15 57.47 571.15 65.39 568.85 67.69 552.52 67.69 552.52 55.15 568.83 55.15 571.15 57.47"/><polygon class="cls-15" points="568.74 65.09 568.74 65.09 566.6 67.28 565.01 67.28 567.15 65.09 567.15 65.09 567.15 57.73 567.15 57.73 565.01 55.54 566.6 55.54 568.72 57.71 568.74 57.71 568.74 65.09"/><rect class="cls-16" x="568.9" y="58.34" width="1.87" height="6.13"/><polygon class="cls-14" points="571.15 44.38 571.15 52.3 568.85 54.6 552.52 54.6 552.52 42.06 568.83 42.06 571.15 44.38"/><polygon class="cls-15" points="568.74 51.99 568.74 51.99 566.6 54.19 565.01 54.19 567.15 51.99 567.15 51.99 567.15 44.64 567.15 44.64 565.01 42.45 566.6 42.45 568.72 44.62 568.74 44.62 568.74 51.99"/><rect class="cls-16" x="568.9" y="45.25" width="1.87" height="6.13"/><polygon class="cls-14" points="457.47 103.83 457.47 95.91 459.77 93.61 476.1 93.61 476.1 106.14 459.79 106.14 457.47 103.83"/><polygon class="cls-15" points="459.88 96.21 459.88 96.21 462.02 94.02 463.62 94.02 461.47 96.21 461.47 96.21 461.47 103.57 461.47 103.57 463.62 105.76 462.02 105.76 459.9 103.59 459.88 103.59 459.88 96.21"/><rect class="cls-16" x="457.86" y="96.83" width="1.87" height="6.13"/><polygon class="cls-14" points="457.47 116.92 457.47 109 459.77 106.7 476.1 106.7 476.1 119.24 459.79 119.24 457.47 116.92"/><polygon class="cls-15" points="459.88 109.31 459.88 109.31 462.02 107.11 463.62 107.11 461.47 109.31 461.47 109.31 461.47 116.66 461.47 116.66 463.62 118.85 462.02 118.85 459.9 116.68 459.88 116.68 459.88 109.31"/><rect class="cls-16" x="457.86" y="109.92" width="1.87" height="6.13"/><polygon class="cls-14" points="457.47 65.26 457.47 57.34 459.77 55.04 476.1 55.04 476.1 67.58 459.79 67.58 457.47 65.26"/><polygon class="cls-15" points="459.88 57.64 459.89 57.64 462.03 55.45 463.62 55.45 461.48 57.64 461.47 57.64 461.47 65 461.48 65 463.62 67.19 462.03 67.19 459.91 65.02 459.88 65.02 459.88 57.64"/><rect class="cls-16" x="457.86" y="58.26" width="1.87" height="6.13"/><polygon class="cls-14" points="457.48 52.28 457.48 44.36 459.78 42.06 476.11 42.06 476.11 54.6 459.8 54.6 457.48 52.28"/><polygon class="cls-15" points="459.89 44.67 459.89 44.67 462.04 42.48 463.62 42.48 461.48 44.67 461.48 44.67 461.48 52.02 461.48 52.02 463.62 54.22 462.04 54.22 459.91 52.05 459.89 52.05 459.89 44.67"/><rect class="cls-16" x="457.86" y="45.28" width="1.87" height="6.13"/><polygon class="cls-14" points="500.91 103.83 500.91 95.91 498.61 93.61 482.28 93.61 482.28 106.14 498.59 106.14 500.91 103.83"/><polygon class="cls-15" points="498.5 96.21 498.5 96.21 496.36 94.02 494.76 94.02 496.91 96.21 496.91 96.21 496.91 103.57 496.91 103.57 494.76 105.76 496.36 105.76 498.48 103.59 498.5 103.59 498.5 96.21"/><rect class="cls-16" x="498.66" y="96.83" width="1.87" height="6.13"/><polygon class="cls-14" points="500.91 90.86 500.91 82.94 498.61 80.64 482.28 80.64 482.28 93.17 498.59 93.17 500.91 90.86"/><polygon class="cls-15" points="498.5 83.24 498.5 83.24 496.36 81.05 494.77 81.05 496.91 83.24 496.91 83.24 496.91 90.6 496.91 90.6 494.77 92.79 496.36 92.79 498.48 90.62 498.5 90.62 498.5 83.24"/><rect class="cls-16" x="498.66" y="83.86" width="1.87" height="6.13"/><polygon class="cls-14" points="500.91 116.92 500.91 109 498.61 106.7 482.28 106.7 482.28 119.24 498.59 119.24 500.91 116.92"/><polygon class="cls-15" points="498.5 109.31 498.5 109.31 496.36 107.11 494.76 107.11 496.91 109.31 496.91 109.31 496.91 116.66 496.91 116.66 494.76 118.85 496.36 118.85 498.48 116.68 498.5 116.68 498.5 109.31"/><rect class="cls-16" x="498.66" y="109.92" width="1.87" height="6.13"/><polygon class="cls-14" points="480.27 65.26 480.27 57.34 482.57 55.04 498.9 55.04 498.9 67.58 482.59 67.58 480.27 65.26"/><polygon class="cls-15" points="482.68 57.64 482.69 57.64 484.83 55.45 486.41 55.45 484.27 57.64 484.27 57.64 484.27 65 484.27 65 486.41 67.19 484.83 67.19 482.7 65.02 482.68 65.02 482.68 57.64"/><rect class="cls-16" x="480.65" y="58.26" width="1.87" height="6.13"/><polygon class="cls-14" points="480.28 52.28 480.28 44.36 482.58 42.06 498.91 42.06 498.91 54.6 482.6 54.6 480.28 52.28"/><polygon class="cls-15" points="482.69 44.67 482.69 44.67 484.83 42.48 486.42 42.48 484.28 44.67 484.28 44.67 484.28 52.02 484.28 52.02 486.42 54.22 484.83 54.22 482.71 52.05 482.69 52.05 482.69 44.67"/><rect class="cls-16" x="480.66" y="45.28" width="1.87" height="6.13"/><polygon class="cls-14" points="523.71 103.83 523.71 95.91 521.41 93.61 505.08 93.61 505.08 106.14 521.39 106.14 523.71 103.83"/><polygon class="cls-15" points="521.3 96.21 521.3 96.21 519.16 94.02 517.57 94.02 519.71 96.21 519.71 96.21 519.71 103.57 519.71 103.57 517.57 105.76 519.16 105.76 521.28 103.59 521.3 103.59 521.3 96.21"/><rect class="cls-16" x="521.46" y="96.83" width="1.87" height="6.13"/><polygon class="cls-14" points="523.71 90.86 523.71 82.94 521.41 80.64 505.08 80.64 505.08 93.17 521.39 93.17 523.71 90.86"/><polygon class="cls-15" points="521.3 83.24 521.3 83.24 519.16 81.05 517.57 81.05 519.71 83.24 519.72 83.24 519.72 90.6 519.71 90.6 517.57 92.79 519.16 92.79 521.28 90.62 521.3 90.62 521.3 83.24"/><rect class="cls-16" x="521.46" y="83.86" width="1.87" height="6.13"/><polygon class="cls-14" points="523.71 116.92 523.71 109 521.41 106.7 505.08 106.7 505.08 119.24 521.39 119.24 523.71 116.92"/><polygon class="cls-15" points="521.3 109.31 521.3 109.31 519.16 107.11 517.57 107.11 519.71 109.31 519.71 109.31 519.71 116.66 519.71 116.66 517.57 118.85 519.16 118.85 521.28 116.68 521.3 116.68 521.3 109.31"/><rect class="cls-16" x="521.46" y="109.92" width="1.87" height="6.13"/><polygon class="cls-14" points="523.71 65.26 523.71 57.34 521.41 55.04 505.08 55.04 505.08 67.58 521.39 67.58 523.71 65.26"/><polygon class="cls-15" points="521.3 57.64 521.29 57.64 519.15 55.45 517.57 55.45 519.71 57.64 519.71 57.64 519.71 65 519.71 65 517.57 67.19 519.15 67.19 521.27 65.02 521.3 65.02 521.3 57.64"/><rect class="cls-16" x="521.46" y="58.26" width="1.87" height="6.13"/><polygon class="cls-14" points="523.7 52.28 523.7 44.36 521.4 42.06 505.07 42.06 505.07 54.6 521.38 54.6 523.7 52.28"/><polygon class="cls-15" points="521.29 44.67 521.29 44.67 519.15 42.48 517.56 42.48 519.7 44.67 519.7 44.67 519.7 52.02 519.7 52.02 517.56 54.22 519.15 54.22 521.27 52.05 521.29 52.05 521.29 44.67"/><rect class="cls-16" x="521.45" y="45.28" width="1.87" height="6.13"/><polygon class="cls-14" points="547.09 103.83 547.09 95.91 544.79 93.61 528.47 93.61 528.47 106.14 544.78 106.14 547.09 103.83"/><polygon class="cls-15" points="544.69 96.21 544.68 96.21 542.54 94.02 540.95 94.02 543.09 96.21 543.1 96.21 543.1 103.57 543.09 103.57 540.95 105.76 542.54 105.76 544.66 103.59 544.69 103.59 544.69 96.21"/><rect class="cls-16" x="544.85" y="96.83" width="1.87" height="6.13"/><polygon class="cls-14" points="547.09 90.86 547.09 82.94 544.79 80.64 528.47 80.64 528.47 93.17 544.78 93.17 547.09 90.86"/><polygon class="cls-15" points="544.69 83.24 544.68 83.24 542.54 81.05 540.96 81.05 543.09 83.24 543.1 83.24 543.1 90.6 543.09 90.6 540.96 92.79 542.54 92.79 544.66 90.62 544.69 90.62 544.69 83.24"/><rect class="cls-16" x="544.85" y="83.86" width="1.87" height="6.13"/><polygon class="cls-14" points="547.09 116.92 547.09 109 544.79 106.7 528.47 106.7 528.47 119.24 544.78 119.24 547.09 116.92"/><polygon class="cls-15" points="544.69 109.31 544.68 109.31 542.54 107.11 540.95 107.11 543.09 109.31 543.1 109.31 543.1 116.66 543.09 116.66 540.95 118.85 542.54 118.85 544.66 116.68 544.69 116.68 544.69 109.31"/><rect class="cls-16" x="544.85" y="109.92" width="1.87" height="6.13"/><polygon class="cls-14" points="547.09 65.26 547.09 57.34 544.79 55.04 528.47 55.04 528.47 67.58 544.77 67.58 547.09 65.26"/><polygon class="cls-15" points="544.68 57.64 544.68 57.64 542.54 55.45 540.95 55.45 543.09 57.64 543.1 57.64 543.1 65 543.09 65 540.95 67.19 542.54 67.19 544.66 65.02 544.68 65.02 544.68 57.64"/><rect class="cls-16" x="544.84" y="58.26" width="1.87" height="6.13"/><polygon class="cls-14" points="547.08 52.28 547.08 44.36 544.78 42.06 528.46 42.06 528.46 54.6 544.77 54.6 547.08 52.28"/><polygon class="cls-15" points="544.68 44.67 544.67 44.67 542.53 42.48 540.94 42.48 543.08 44.67 543.09 44.67 543.09 52.02 543.08 52.02 540.94 54.22 542.53 54.22 544.65 52.05 544.68 52.05 544.68 44.67"/><rect class="cls-16" x="544.84" y="45.28" width="1.87" height="6.13"/><polygon class="cls-14" points="150.29 103.77 150.29 95.85 148 93.55 131.67 93.55 131.67 106.08 147.98 106.08 150.29 103.77"/><polygon class="cls-15" points="147.89 96.15 147.88 96.15 145.74 93.96 144.15 93.96 146.29 96.15 146.3 96.15 146.3 103.51 146.29 103.51 144.15 105.7 145.74 105.7 147.86 103.53 147.89 103.53 147.89 96.15"/><rect class="cls-16" x="148.05" y="96.77" width="1.87" height="6.13"/><polygon class="cls-14" points="150.29 116.86 150.29 108.94 148 106.64 131.67 106.64 131.67 119.18 147.98 119.18 150.29 116.86"/><polygon class="cls-15" points="147.89 109.24 147.88 109.24 145.74 107.05 144.15 107.05 146.29 109.24 146.3 109.24 146.3 116.6 146.29 116.6 144.15 118.79 145.74 118.79 147.86 116.62 147.89 116.62 147.89 109.24"/><rect class="cls-16" x="148.05" y="109.86" width="1.87" height="6.13"/><polygon class="cls-14" points="150.29 65.2 150.29 57.28 148 54.98 131.67 54.98 131.67 67.52 147.98 67.52 150.29 65.2"/><polygon class="cls-15" points="147.89 57.58 147.88 57.58 145.74 55.39 144.15 55.39 146.29 57.58 146.3 57.58 146.3 64.94 146.29 64.94 144.15 67.13 145.74 67.13 147.86 64.96 147.89 64.96 147.89 57.58"/><rect class="cls-16" x="148.04" y="58.2" width="1.87" height="6.13"/><polygon class="cls-14" points="150.28 52.22 150.28 44.3 147.99 42 131.66 42 131.66 54.54 147.97 54.54 150.28 52.22"/><polygon class="cls-15" points="147.88 44.61 147.87 44.61 145.73 42.42 144.14 42.42 146.28 44.61 146.29 44.61 146.29 51.96 146.28 51.96 144.14 54.16 145.73 54.16 147.85 51.98 147.88 51.98 147.88 44.61"/><rect class="cls-16" x="148.04" y="45.22" width="1.87" height="6.13"/><path class="cls-17" d="M337.88,118.21a.9.9,0,0,0,.8,1h9.12a.9.9,0,0,0,.81-1V107.12a.91.91,0,0,0-.81-1h-9.12a.91.91,0,0,0-.8,1Z"/><path class="cls-18" d="M337.88,118.21a.9.9,0,0,0,.8,1h9.12a.9.9,0,0,0,.81-1V107.12a.91.91,0,0,0-.81-1h-9.12a.91.91,0,0,0-.8,1Z"/><path class="cls-19" d="M337.65,120.48v-1.8c0-.23.33-.42.73-.42H348c.4,0,.72.19.72.42v1.8Z"/><path class="cls-17" d="M349.94,118.21a.9.9,0,0,0,.8,1h9.12a.9.9,0,0,0,.81-1V107.12a.91.91,0,0,0-.81-1h-9.12a.91.91,0,0,0-.8,1Z"/><path class="cls-20" d="M349.94,118.21a.9.9,0,0,0,.8,1h9.12a.9.9,0,0,0,.81-1V107.12a.91.91,0,0,0-.81-1h-9.12a.91.91,0,0,0-.8,1Z"/><path class="cls-19" d="M349.71,120.48v-1.8c0-.23.32-.42.72-.42h9.66c.4,0,.72.19.72.42v1.8Z"/><path class="cls-17" d="M362.14,118.21a.9.9,0,0,0,.81,1h9.12a.9.9,0,0,0,.8-1V107.12a.91.91,0,0,0-.8-1H363a.91.91,0,0,0-.81,1Z"/><path class="cls-21" d="M362.14,118.21a.9.9,0,0,0,.81,1h9.12a.9.9,0,0,0,.8-1V107.12a.91.91,0,0,0-.8-1H363a.91.91,0,0,0-.81,1Z"/><path class="cls-19" d="M361.91,120.48v-1.8c0-.23.33-.42.73-.42h9.65c.4,0,.73.19.73.42v1.8Z"/><path class="cls-17" d="M374.24,118.21a.9.9,0,0,0,.8,1h9.12a.9.9,0,0,0,.81-1V107.12a.91.91,0,0,0-.81-1H375a.91.91,0,0,0-.8,1Z"/><path class="cls-22" d="M374.24,118.21a.9.9,0,0,0,.8,1h9.12a.9.9,0,0,0,.81-1V107.12a.91.91,0,0,0-.81-1H375a.91.91,0,0,0-.8,1Z"/><path class="cls-19" d="M374,120.48v-1.8c0-.23.32-.42.73-.42h9.65c.4,0,.72.19.72.42v1.8Z"/><path class="cls-17" d="M386.27,118.21a.91.91,0,0,0,.81,1h9.12a.9.9,0,0,0,.8-1V107.12a.91.91,0,0,0-.8-1h-9.12a.91.91,0,0,0-.81,1Z"/><path class="cls-23" d="M386.27,118.21a.91.91,0,0,0,.81,1h9.12a.9.9,0,0,0,.8-1V107.12a.91.91,0,0,0-.8-1h-9.12a.91.91,0,0,0-.81,1Z"/><path class="cls-19" d="M386.05,120.48v-1.8c0-.23.32-.42.72-.42h9.66c.4,0,.72.19.72.42v1.8Z"/><polygon class="cls-14" points="305.22 96.06 305.22 103.98 307.51 106.28 323.84 106.28 323.84 93.74 307.54 93.74 305.22 96.06"/><polygon class="cls-15" points="307.63 103.68 307.63 103.68 309.77 105.87 311.36 105.87 309.22 103.68 309.21 103.68 309.21 96.32 309.22 96.32 311.36 94.13 309.77 94.13 307.65 96.3 307.63 96.3 307.63 103.68"/><rect class="cls-16" x="305.6" y="96.93" width="1.87" height="6.13"/><polygon class="cls-14" points="305.23 109.03 305.23 116.95 307.52 119.26 323.85 119.26 323.85 106.72 307.54 106.72 305.23 109.03"/><polygon class="cls-15" points="307.63 116.65 307.64 116.65 309.78 118.84 311.37 118.84 309.23 116.65 309.22 116.65 309.22 109.3 309.23 109.3 311.37 107.1 309.78 107.1 307.66 109.27 307.63 109.27 307.63 116.65"/><rect class="cls-16" x="305.61" y="109.91" width="1.87" height="6.13"/></g><g id="Symboler-2" data-name="Symboler"><rect class="cls-24" x="382.31" y="131.61" width="25.51" height="25.51"/><path class="cls-16" d="M388.7,148.71l-2.07-8.46h1.64l.8,3.84c.23,1,.42,2.11.56,2.95h0c.14-.89.37-1.89.62-3l.92-3.83h1.62l.84,3.89c.21,1,.39,2,.51,2.86h0c.15-.93.34-1.91.58-2.92l.88-3.83h1.57l-2.28,8.46h-1.65l-.89-4a27,27,0,0,1-.46-2.69h0c-.15.91-.32,1.73-.56,2.69l-1,4Z"/><path class="cls-16" d="M403.56,148.32a5.31,5.31,0,0,1-2.19.39,4,4,0,0,1-4.32-4.27,4.26,4.26,0,0,1,4.52-4.47,4.72,4.72,0,0,1,2.06.38l-.33,1.23a4.09,4.09,0,0,0-1.66-.33,2.83,2.83,0,0,0-3,3.12,2.78,2.78,0,0,0,3,3,4.54,4.54,0,0,0,1.68-.31Z"/><rect class="cls-24" x="298.31" y="131.62" width="25.51" height="25.51"/><path class="cls-16" d="M315.07,149.06l-.17.66a4.87,4.87,0,1,1-7.57-5.16V143l-.09,0a6.18,6.18,0,1,0,8.57,8l.12-.38Z"/><path class="cls-16" d="M311.53,143h2.37a.83.83,0,0,0,.85-.82.82.82,0,0,0-.85-.8h-2.39v-1.78a1.79,1.79,0,0,0-1.78-1.8,1.76,1.76,0,0,0-1.75,1.8s0,5.46,0,5.56a1.68,1.68,0,0,0,1.76,1.73h5.1L317.2,152a1,1,0,0,0,.87.46,1,1,0,0,0,.92-1,.93.93,0,0,0-.06-.34l-2.7-5.58a1.05,1.05,0,0,0-.76-.49h-3.94Z"/><path class="cls-16" d="M309.73,137.52a1.78,1.78,0,1,0-1.77-1.78A1.78,1.78,0,0,0,309.73,137.52Z"/><polyline class="cls-25" points="231.71 123.33 231.71 127.33 227.71 127.33"/><line class="cls-26" x1="221.99" y1="127.33" x2="213.42" y2="127.33"/><polyline class="cls-25" points="210.57 127.33 206.57 127.33 206.57 123.33"/><line class="cls-27" x1="206.57" y1="115.55" x2="206.57" y2="103.88"/><line class="cls-28" x1="206.57" y1="99.99" x2="206.57" y2="41.63"/><polyline class="cls-25" points="206.57 37.74 206.57 33.74 210.57 33.74"/><line class="cls-26" x1="216.28" y1="33.74" x2="224.85" y2="33.74"/><polyline class="cls-25" points="227.71 33.74 231.71 33.74 231.71 37.74"/><line class="cls-27" x1="231.71" y1="45.52" x2="231.71" y2="57.19"/><line class="cls-28" x1="231.71" y1="61.08" x2="231.71" y2="119.44"/><rect class="cls-29" x="354.24" y="131.69" width="25.35" height="25.35"/><path class="cls-16" d="M366.64,140.89a2.44,2.44,0,1,0-2.44-2.44A2.44,2.44,0,0,0,366.64,140.89Z"/><path class="cls-16" d="M364.61,150.38a.17.17,0,0,1,0-.23l1.34-1.34L364,146.87l-1.53,1.52a1.4,1.4,0,0,0,0,2L365,152.9a.75.75,0,0,0,1.07,0,.77.77,0,0,0,.16-.92Z"/><path class="cls-16" d="M368.67,150.38a.17.17,0,0,0,0-.23l-1.34-1.34,1.94-1.94,1.53,1.52a1.4,1.4,0,0,1,0,2l-2.56,2.55a.76.76,0,0,1-1.08,0,.78.78,0,0,1-.15-.92Z"/><path class="cls-16" d="M370.07,142.87c-.61-.55-1.23-1.37-2-1.52h-2.9c-.75.15-1.38,1-2,1.52L361,145.05a.75.75,0,0,0,0,1.07.76.76,0,0,0,1.08,0l2-2v1.91h5.18v-1.91l2,2a.76.76,0,0,0,1.08,0,.75.75,0,0,0,0-1.07Z"/><rect class="cls-29" x="326.34" y="131.7" width="25.35" height="25.35"/><path class="cls-16" d="M335.69,149.37A1.33,1.33,0,1,1,337,150.7a1.33,1.33,0,0,1-1.33-1.33Zm1.33,2.21h0a2.2,2.2,0,1,0-2.2-2.21A2.2,2.2,0,0,0,337,151.58Z"/><path class="cls-16" d="M340.54,149.37a1.32,1.32,0,1,1,1.32,1.33,1.33,1.33,0,0,1-1.32-1.33Zm1.32,2.21h0a2.2,2.2,0,1,0-2.2-2.21A2.21,2.21,0,0,0,341.86,151.58Z"/><path class="cls-16" d="M334.81,142.34v-1.43a1.42,1.42,0,0,0-1.45-1.43h-1.21s-.2,0-.2.21.2.23.2.23h1.25a1,1,0,0,1,1,1v1.43Z"/><path class="cls-16" d="M344.49,142.34h-4.62v-4.63h.88a3.86,3.86,0,0,1,3.74,3.75Z"/><path class="cls-16" d="M344.48,142.78H334.37v2a1.91,1.91,0,0,0,2,2h6.1a1.91,1.91,0,0,0,2-2Z"/><rect class="cls-30" x="411.68" y="3.54" width="31.11" height="31.15"/><rect class="cls-13" x="425.81" y="32.18" width="16.98" height="2.51"/><rect class="cls-13" x="411.61" y="32.41" width="12.73" height="2.32"/><polygon class="cls-13" points="424.34 3.55 424.34 3.54 411.68 3.54 411.68 4.69 422.73 4.69 422.73 7.44 424.35 7.44 424.35 3.55 424.34 3.55"/><path class="cls-13" d="M427,12.14a1.79,1.79,0,1,0-1.77-1.78A1.78,1.78,0,0,0,427,12.14"/><path class="cls-13" d="M430.75,20.5a.7.7,0,0,1,.62-.35l-2.73-6.33a1.84,1.84,0,0,1,.11.62v5l.93,1.94a1,1,0,0,0,1.33.54.86.86,0,0,0,.33-.23l-.34-.19a.72.72,0,0,1-.25-1"/><path class="cls-13" d="M434.54,18.67a1.5,1.5,0,1,0-1.5-1.49,1.49,1.49,0,0,0,1.5,1.49"/><path class="cls-13" d="M433.38,25.19l-1.85,5.64a.72.72,0,0,0,.47.9.7.7,0,0,0,.89-.46l1.45-4.48-.33-1a1.21,1.21,0,0,1-.63-.57"/><path class="cls-13" d="M437.16,30.83,435.4,25.5a1.26,1.26,0,0,1-.75.33l-.31,1,1.45,4.48a.71.71,0,0,0,.89.46.72.72,0,0,0,.48-.9"/><path class="cls-13" d="M434.54,25.85h-.08a1.13,1.13,0,0,1-.45-.09l.33,1,.31-1-.11,0"/><path class="cls-13" d="M434.54,25.85h-.08a1.13,1.13,0,0,1-.45-.09l.33,1,.31-1-.11,0"/><path class="cls-13" d="M434.34,25.12l.92-.06.14.44a1.28,1.28,0,0,0,.38-.9V20.31a1.25,1.25,0,0,0-1.24-1.25h-.08a1.25,1.25,0,0,0-1.24,1.25V21l.25.12v1.78l-.25-.14V24.6a1.19,1.19,0,0,0,.17.59l0-.13Z"/><path class="cls-13" d="M434,25.76l-.2-.61.53,0-.91-.06-.05.13a1.21,1.21,0,0,0,.63.57"/><path class="cls-13" d="M434,25.76l-.2-.61.53,0-.91-.06-.05.13a1.21,1.21,0,0,0,.63.57"/><path class="cls-13" d="M434.34,25.12l.53,0-.22.68a1.26,1.26,0,0,0,.75-.33l-.14-.44Z"/><path class="cls-13" d="M434.34,25.12l.53,0-.22.68a1.26,1.26,0,0,0,.75-.33l-.14-.44Z"/><path class="cls-13" d="M434.34,25.12l-.53,0,.2.61a1.13,1.13,0,0,0,.45.09h.08l.11,0,.22-.68Z"/><path class="cls-13" d="M434.34,25.12l-.53,0,.2.61a1.13,1.13,0,0,0,.45.09h.08l.11,0,.22-.68Z"/><path class="cls-13" d="M434.34,25.12l-.53,0,.2.61a1.13,1.13,0,0,0,.45.09h.08l.11,0,.22-.68Z"/><path class="cls-13" d="M431.72,20.24a.86.86,0,0,0-.35-.09l.17.41a1,1,0,0,1-.2,1.11l1.88,1.11V21Z"/><path class="cls-13" d="M431.54,20.56l-.17-.4a.67.67,0,0,0-.62.34.72.72,0,0,0,.26,1l.33.19a1,1,0,0,0,.2-1.11"/><path class="cls-13" d="M431.54,20.56l-.17-.4a.67.67,0,0,0-.62.34.72.72,0,0,0,.26,1l.33.19a1,1,0,0,0,.2-1.11"/><polygon class="cls-13" points="433.22 22.78 433.47 22.93 433.47 21.14 433.22 21.02 433.22 22.78"/><polygon class="cls-13" points="433.22 22.78 433.47 22.93 433.47 21.14 433.22 21.02 433.22 22.78"/><path class="cls-13" d="M425.16,22.13v-.37l-4,7.54a1.07,1.07,0,0,0,.45,1.43,1.05,1.05,0,0,0,1.41-.45l3.24-6.11-.28-2Z"/><path class="cls-13" d="M427.3,22.13l-1.08,2,1,6.85a1,1,0,0,0,1.17.9,1.07,1.07,0,0,0,.92-1.18L428,22.05l-.13.08Z"/><polygon class="cls-13" points="425.94 22.14 426.22 24.17 427.3 22.14 425.94 22.14"/><polygon class="cls-13" points="425.94 22.14 426.22 24.17 427.3 22.14 425.94 22.14"/><path class="cls-13" d="M428.62,13.79l0,0a1.78,1.78,0,0,0-3.45.62v1.27l-3.51,2.07a1,1,0,0,0,1,1.77l2.5-1.3v2.81h0v.68l.18-.33,1.31.32,1.34.15,0,.15a1.37,1.37,0,0,0,.74-1.39V19.42L428,17.79Z"/><path class="cls-13" d="M428.64,13.82l0,0-.65,4,.78,1.63v-5a1.84,1.84,0,0,0-.11-.62"/><path class="cls-13" d="M428.64,13.82l0,0-.65,4,.78,1.63v-5a1.84,1.84,0,0,0-.11-.62"/><polygon class="cls-13" points="425.16 21.76 425.16 22.14 425.94 22.14 425.87 21.66 426.64 21.75 425.34 21.43 425.16 21.76"/><polygon class="cls-13" points="425.16 21.76 425.16 22.14 425.94 22.14 425.87 21.66 426.64 21.75 425.34 21.43 425.16 21.76"/><path class="cls-13" d="M426.65,21.75l.75.19-.1.19h.58l.13-.08,0-.15Z"/><path class="cls-13" d="M426.65,21.75l.75.19-.1.19h.58l.13-.08,0-.15Z"/><polygon class="cls-13" points="425.94 22.14 427.3 22.14 427.4 21.94 426.64 21.75 425.87 21.66 425.94 22.14"/><polygon class="cls-13" points="425.94 22.14 427.3 22.14 427.4 21.94 426.64 21.75 425.87 21.66 425.94 22.14"/><polygon class="cls-13" points="425.94 22.14 427.3 22.14 427.4 21.94 426.64 21.75 425.87 21.66 425.94 22.14"/><rect class="cls-30" x="410.68" y="125.83" width="31.11" height="31.15"/><rect class="cls-13" x="424.81" y="154.47" width="16.98" height="2.51"/><rect class="cls-13" x="410.61" y="154.7" width="12.73" height="2.32"/><polygon class="cls-13" points="423.34 125.84 423.34 125.83 410.68 125.83 410.68 126.98 421.73 126.98 421.73 129.73 423.35 129.73 423.35 125.84 423.34 125.84"/><path class="cls-13" d="M426,134.43a1.79,1.79,0,1,0-1.77-1.78,1.78,1.78,0,0,0,1.77,1.78"/><path class="cls-13" d="M429.75,142.79a.7.7,0,0,1,.62-.35l-2.73-6.33a1.8,1.8,0,0,1,.11.62v5l.93,1.94a1,1,0,0,0,1.33.54,1,1,0,0,0,.33-.23l-.34-.2a.71.71,0,0,1-.25-1"/><path class="cls-13" d="M433.54,141a1.5,1.5,0,1,0-1.5-1.5,1.5,1.5,0,0,0,1.5,1.5"/><path class="cls-13" d="M432.38,147.48l-1.85,5.64a.72.72,0,0,0,.47.9.7.7,0,0,0,.89-.46l1.45-4.48-.33-1a1.25,1.25,0,0,1-.63-.57"/><path class="cls-13" d="M436.16,153.12l-1.76-5.33a1.26,1.26,0,0,1-.75.33l-.31,1,1.45,4.48a.71.71,0,0,0,.89.46.72.72,0,0,0,.48-.9"/><path class="cls-13" d="M433.54,148.14h-.08a1.13,1.13,0,0,1-.45-.09l.33,1,.31-1-.11,0"/><path class="cls-13" d="M433.54,148.14h-.08a1.13,1.13,0,0,1-.45-.09l.33,1,.31-1-.11,0"/><path class="cls-13" d="M433.34,147.41l.92-.06.14.44a1.28,1.28,0,0,0,.38-.9V142.6a1.25,1.25,0,0,0-1.24-1.25h-.08a1.25,1.25,0,0,0-1.24,1.25v.7l.25.13v1.78l-.25-.14v1.82a1.19,1.19,0,0,0,.17.59l0-.13Z"/><path class="cls-13" d="M433,148.05l-.2-.61.53,0-.91-.06-.05.13a1.25,1.25,0,0,0,.63.57"/><path class="cls-13" d="M433,148.05l-.2-.61.53,0-.91-.06-.05.13a1.25,1.25,0,0,0,.63.57"/><path class="cls-13" d="M433.34,147.41l.53,0-.22.68a1.26,1.26,0,0,0,.75-.33l-.14-.44Z"/><path class="cls-13" d="M433.34,147.41l.53,0-.22.68a1.26,1.26,0,0,0,.75-.33l-.14-.44Z"/><path class="cls-13" d="M433.34,147.41l-.53,0,.2.61a1.13,1.13,0,0,0,.45.09h.08l.11,0,.22-.68Z"/><path class="cls-13" d="M433.34,147.41l-.53,0,.2.61a1.13,1.13,0,0,0,.45.09h.08l.11,0,.22-.68Z"/><path class="cls-13" d="M433.34,147.41l-.53,0,.2.61a1.13,1.13,0,0,0,.45.09h.08l.11,0,.22-.68Z"/><path class="cls-13" d="M430.72,142.53a.63.63,0,0,0-.35-.09l.17.41a1,1,0,0,1-.2,1.11l1.88,1.11v-1.76Z"/><path class="cls-13" d="M430.54,142.85l-.17-.41a.71.71,0,0,0-.36,1.32l.33.2a1,1,0,0,0,.2-1.11"/><path class="cls-13" d="M430.54,142.85l-.17-.41a.71.71,0,0,0-.36,1.32l.33.2a1,1,0,0,0,.2-1.11"/><polygon class="cls-13" points="432.22 145.07 432.47 145.21 432.47 143.43 432.22 143.31 432.22 145.07"/><polygon class="cls-13" points="432.22 145.07 432.47 145.21 432.47 143.43 432.22 143.31 432.22 145.07"/><path class="cls-13" d="M424.16,144.42v-.37l-4,7.54a1.07,1.07,0,0,0,.45,1.43,1.05,1.05,0,0,0,1.41-.45l3.24-6.11-.28-2Z"/><path class="cls-13" d="M426.3,144.42l-1.08,2,1,6.85a1,1,0,0,0,1.17.9,1.07,1.07,0,0,0,.92-1.18L427,144.34l-.13.08Z"/><polygon class="cls-13" points="424.94 144.42 425.22 146.46 426.3 144.42 424.94 144.42"/><polygon class="cls-13" points="424.94 144.42 425.22 146.46 426.3 144.42 424.94 144.42"/><path class="cls-13" d="M427.62,136.08l0,0a1.78,1.78,0,0,0-3.45.62V138l-3.51,2.07a1,1,0,0,0-.37,1.39,1,1,0,0,0,1.39.37l2.5-1.29v2.81h0v.68l.18-.33,1.31.32,1.34.15,0,.15a1.37,1.37,0,0,0,.74-1.39v-1.24l-.78-1.63Z"/><path class="cls-13" d="M427.64,136.11l0,0-.65,4,.78,1.63v-5a1.8,1.8,0,0,0-.11-.62"/><path class="cls-13" d="M427.64,136.11l0,0-.65,4,.78,1.63v-5a1.8,1.8,0,0,0-.11-.62"/><polygon class="cls-13" points="424.16 144.05 424.16 144.42 424.94 144.42 424.87 143.95 425.64 144.04 424.34 143.72 424.16 144.05"/><polygon class="cls-13" points="424.16 144.05 424.16 144.42 424.94 144.42 424.87 143.95 425.64 144.04 424.34 143.72 424.16 144.05"/><path class="cls-13" d="M425.65,144l.75.19-.1.19h.58l.13-.08,0-.15Z"/><path class="cls-13" d="M425.65,144l.75.19-.1.19h.58l.13-.08,0-.15Z"/><polygon class="cls-13" points="424.94 144.42 426.3 144.42 426.4 144.22 425.64 144.04 424.87 143.95 424.94 144.42"/><polygon class="cls-13" points="424.94 144.42 426.3 144.42 426.4 144.22 425.64 144.04 424.87 143.95 424.94 144.42"/><polygon class="cls-13" points="424.94 144.42 426.3 144.42 426.4 144.22 425.64 144.04 424.87 143.95 424.94 144.42"/><rect class="cls-30" x="164.93" y="125.95" width="31.11" height="31.15"/><rect class="cls-13" x="179.07" y="154.59" width="16.98" height="2.51"/><rect class="cls-13" x="164.87" y="154.82" width="12.73" height="2.32"/><polygon class="cls-13" points="177.59 125.96 177.59 125.95 164.93 125.95 164.93 127.1 175.98 127.1 175.98 129.85 177.6 129.85 177.6 125.96 177.59 125.96"/><path class="cls-13" d="M180.23,134.55a1.79,1.79,0,1,0-1.78-1.78,1.78,1.78,0,0,0,1.78,1.78"/><path class="cls-13" d="M184,142.91a.71.71,0,0,1,.62-.35l-2.73-6.33a1.8,1.8,0,0,1,.12.62v5l.92,1.94a1,1,0,0,0,1.33.54.86.86,0,0,0,.33-.23l-.33-.2a.7.7,0,0,1-.26-1"/><path class="cls-13" d="M187.79,141.08a1.5,1.5,0,1,0-1.49-1.49,1.49,1.49,0,0,0,1.49,1.49"/><path class="cls-13" d="M186.64,147.6l-1.86,5.64a.72.72,0,0,0,1.37.44l1.45-4.48-.34-1a1.23,1.23,0,0,1-.62-.57"/><path class="cls-13" d="M190.41,153.24l-1.75-5.33a1.26,1.26,0,0,1-.75.33l-.31,1,1.45,4.48a.7.7,0,0,0,.89.46.72.72,0,0,0,.47-.9"/><path class="cls-13" d="M187.79,148.26h-.07a1.22,1.22,0,0,1-.46-.09l.34,1,.31-1-.12,0"/><path class="cls-13" d="M187.79,148.26h-.07a1.22,1.22,0,0,1-.46-.09l.34,1,.31-1-.12,0"/><path class="cls-13" d="M187.6,147.53l.91-.06.15.44a1.27,1.27,0,0,0,.37-.9v-4.29a1.24,1.24,0,0,0-1.24-1.25h-.07a1.25,1.25,0,0,0-1.25,1.25v.71l.25.12v1.78l-.25-.14V147a1.19,1.19,0,0,0,.17.59l0-.13Z"/><path class="cls-13" d="M187.26,148.17l-.19-.61.53,0-.92-.06,0,.13a1.23,1.23,0,0,0,.62.57"/><path class="cls-13" d="M187.26,148.17l-.19-.61.53,0-.92-.06,0,.13a1.23,1.23,0,0,0,.62.57"/><path class="cls-13" d="M187.6,147.53l.53,0-.22.68a1.26,1.26,0,0,0,.75-.33l-.15-.44Z"/><path class="cls-13" d="M187.6,147.53l.53,0-.22.68a1.26,1.26,0,0,0,.75-.33l-.15-.44Z"/><path class="cls-13" d="M187.6,147.53l-.53,0,.19.61a1.22,1.22,0,0,0,.46.09h.07l.12,0,.22-.68Z"/><path class="cls-13" d="M187.6,147.53l-.53,0,.19.61a1.22,1.22,0,0,0,.46.09h.07l.12,0,.22-.68Z"/><path class="cls-13" d="M187.6,147.53l-.53,0,.19.61a1.22,1.22,0,0,0,.46.09h.07l.12,0,.22-.68Z"/><path class="cls-13" d="M185,142.65a.86.86,0,0,0-.35-.09l.18.41a1,1,0,0,1-.21,1.11l1.88,1.11v-1.76Z"/><path class="cls-13" d="M184.8,143l-.18-.41a.71.71,0,0,0-.36,1.33l.33.19a1,1,0,0,0,.21-1.11"/><path class="cls-13" d="M184.8,143l-.18-.41a.71.71,0,0,0-.36,1.33l.33.19a1,1,0,0,0,.21-1.11"/><polygon class="cls-13" points="186.47 145.19 186.72 145.33 186.72 143.56 186.47 143.43 186.47 145.19"/><polygon class="cls-13" points="186.47 145.19 186.72 145.33 186.72 143.56 186.47 143.43 186.47 145.19"/><path class="cls-13" d="M178.42,144.54v-.37l-4,7.54a1.07,1.07,0,0,0,.46,1.43,1.06,1.06,0,0,0,1.41-.45l3.24-6.11-.29-2Z"/><path class="cls-13" d="M180.55,144.54l-1.07,2,1,6.85a1,1,0,0,0,1.17.9,1.06,1.06,0,0,0,.92-1.18l-1.26-8.69a.57.57,0,0,1-.13.08Z"/><polygon class="cls-13" points="179.19 144.54 179.48 146.58 180.56 144.54 179.19 144.54"/><polygon class="cls-13" points="179.19 144.54 179.48 146.58 180.56 144.54 179.19 144.54"/><path class="cls-13" d="M181.88,136.2v0a1.77,1.77,0,0,0-3.44.62v1.27l-3.51,2.07a1,1,0,0,0,1,1.77l2.5-1.3v2.81h0v.68l.17-.33,1.31.32,1.34.15,0,.15a1.38,1.38,0,0,0,.75-1.39v-1.24l-.78-1.63Z"/><path class="cls-13" d="M181.89,136.23v0l-.65,4,.78,1.63v-5a1.85,1.85,0,0,0-.12-.62"/><path class="cls-13" d="M181.89,136.23v0l-.65,4,.78,1.63v-5a1.85,1.85,0,0,0-.12-.62"/><polygon class="cls-13" points="178.42 144.17 178.42 144.54 179.19 144.54 179.13 144.07 179.9 144.16 178.59 143.84 178.42 144.17"/><polygon class="cls-13" points="178.42 144.17 178.42 144.54 179.19 144.54 179.13 144.07 179.9 144.16 178.59 143.84 178.42 144.17"/><path class="cls-13" d="M179.9,144.16l.76.19-.11.19h.58a.57.57,0,0,0,.13-.08l0-.15Z"/><path class="cls-13" d="M179.9,144.16l.76.19-.11.19h.58a.57.57,0,0,0,.13-.08l0-.15Z"/><polygon class="cls-13" points="179.19 144.54 180.56 144.54 180.66 144.35 179.9 144.16 179.13 144.07 179.19 144.54"/><polygon class="cls-13" points="179.19 144.54 180.56 144.54 180.66 144.35 179.9 144.16 179.13 144.07 179.19 144.54"/><polygon class="cls-13" points="179.19 144.54 180.56 144.54 180.66 144.35 179.9 144.16 179.13 144.07 179.19 144.54"/><rect class="cls-30" x="164.65" y="3.87" width="31.11" height="31.15"/><rect class="cls-13" x="178.78" y="32.5" width="16.98" height="2.51"/><rect class="cls-13" x="164.58" y="32.73" width="12.73" height="2.32"/><polygon class="cls-13" points="177.3 3.88 177.3 3.87 164.65 3.87 164.65 5.02 175.69 5.02 175.69 7.77 177.31 7.77 177.31 3.88 177.3 3.88"/><path class="cls-13" d="M179.94,12.47a1.79,1.79,0,1,0-1.78-1.79,1.79,1.79,0,0,0,1.78,1.79"/><path class="cls-13" d="M183.71,20.83a.71.71,0,0,1,.62-.35l-2.73-6.33a1.79,1.79,0,0,1,.12.61v5l.92,1.94a1,1,0,0,0,1.33.54,1.14,1.14,0,0,0,.33-.23l-.33-.2a.71.71,0,0,1-.26-1"/><path class="cls-13" d="M187.5,19A1.5,1.5,0,1,0,186,17.5,1.49,1.49,0,0,0,187.5,19"/><path class="cls-13" d="M186.35,25.52l-1.86,5.64a.72.72,0,0,0,.48.9.71.71,0,0,0,.89-.47l1.45-4.47-.33-1a1.25,1.25,0,0,1-.63-.57"/><path class="cls-13" d="M190.12,31.16l-1.75-5.34a1.21,1.21,0,0,1-.75.34l-.31,1,1.45,4.47a.7.7,0,0,0,.89.47.72.72,0,0,0,.47-.9"/><path class="cls-13" d="M187.5,26.18h-.07a1.13,1.13,0,0,1-.45-.09l.33,1,.31-1-.12,0"/><path class="cls-13" d="M187.5,26.18h-.07a1.13,1.13,0,0,1-.45-.09l.33,1,.31-1-.12,0"/><path class="cls-13" d="M187.31,25.45l.91-.07.15.44a1.23,1.23,0,0,0,.37-.89V20.64a1.24,1.24,0,0,0-1.24-1.25h-.07a1.24,1.24,0,0,0-1.24,1.25v.7l.24.13v1.78l-.24-.14v1.82a1.18,1.18,0,0,0,.16.59l0-.14Z"/><path class="cls-13" d="M187,26.09l-.2-.61.53,0-.92-.07,0,.14a1.25,1.25,0,0,0,.63.57"/><path class="cls-13" d="M187,26.09l-.2-.61.53,0-.92-.07,0,.14a1.25,1.25,0,0,0,.63.57"/><path class="cls-13" d="M187.31,25.45l.53,0-.22.68a1.21,1.21,0,0,0,.75-.34l-.15-.44Z"/><path class="cls-13" d="M187.31,25.45l.53,0-.22.68a1.21,1.21,0,0,0,.75-.34l-.15-.44Z"/><path class="cls-13" d="M187.31,25.45l-.53,0,.2.61a1.13,1.13,0,0,0,.45.09h.07l.12,0,.22-.68Z"/><path class="cls-13" d="M187.31,25.45l-.53,0,.2.61a1.13,1.13,0,0,0,.45.09h.07l.12,0,.22-.68Z"/><path class="cls-13" d="M187.31,25.45l-.53,0,.2.61a1.13,1.13,0,0,0,.45.09h.07l.12,0,.22-.68Z"/><path class="cls-13" d="M184.68,20.57a.63.63,0,0,0-.35-.09l.18.41A1,1,0,0,1,184.3,22l1.89,1.11V21.34Z"/><path class="cls-13" d="M184.51,20.89l-.18-.41A.71.71,0,0,0,184,21.8l.33.2a1,1,0,0,0,.21-1.11"/><path class="cls-13" d="M184.51,20.89l-.18-.41A.71.71,0,0,0,184,21.8l.33.2a1,1,0,0,0,.21-1.11"/><polygon class="cls-13" points="186.19 23.11 186.43 23.25 186.43 21.47 186.19 21.34 186.19 23.11"/><polygon class="cls-13" points="186.19 23.11 186.43 23.25 186.43 21.47 186.19 21.34 186.19 23.11"/><path class="cls-13" d="M178.13,22.46v-.38l-4,7.55a1.06,1.06,0,0,0,.46,1.42,1,1,0,0,0,1.41-.44l3.24-6.12-.29-2Z"/><path class="cls-13" d="M180.27,22.46l-1.08,2,.95,6.86a1,1,0,0,0,1.18.9,1.07,1.07,0,0,0,.91-1.18L181,22.38l-.13.08Z"/><polygon class="cls-13" points="178.9 22.46 179.19 24.49 180.27 22.46 178.9 22.46"/><polygon class="cls-13" points="178.9 22.46 179.19 24.49 180.27 22.46 178.9 22.46"/><path class="cls-13" d="M181.59,14.12v0a1.77,1.77,0,0,0-3.44.61V16l-3.51,2.07a1,1,0,0,0,1,1.76l2.5-1.29v2.8h0l0,0v.67l.18-.32,1.3.32,1.34.14,0,.16a1.39,1.39,0,0,0,.75-1.4V19.75l-.78-1.63Z"/><path class="cls-13" d="M181.6,14.15v0l-.65,4,.78,1.63v-5a1.79,1.79,0,0,0-.12-.61"/><path class="cls-13" d="M181.6,14.15v0l-.65,4,.78,1.63v-5a1.79,1.79,0,0,0-.12-.61"/><polygon class="cls-13" points="178.13 22.08 178.13 22.46 178.9 22.46 178.84 21.99 179.61 22.08 178.31 21.76 178.13 22.08"/><polygon class="cls-13" points="178.13 22.08 178.13 22.46 178.9 22.46 178.84 21.99 179.61 22.08 178.31 21.76 178.13 22.08"/><path class="cls-13" d="M179.61,22.08l.76.18-.1.2h.57l.13-.08,0-.16Z"/><path class="cls-13" d="M179.61,22.08l.76.18-.1.2h.57l.13-.08,0-.16Z"/><polygon class="cls-13" points="178.9 22.46 180.27 22.46 180.37 22.26 179.61 22.08 178.84 21.99 178.9 22.46"/><polygon class="cls-13" points="178.9 22.46 180.27 22.46 180.37 22.26 179.61 22.08 178.84 21.99 178.9 22.46"/><polygon class="cls-13" points="178.9 22.46 180.27 22.46 180.37 22.26 179.61 22.08 178.84 21.99 178.9 22.46"/><polyline class="cls-25" points="327.71 84.66 327.71 88.66 323.71 88.66"/><line class="cls-31" x1="317.99" y1="88.66" x2="309.42" y2="88.66"/><polyline class="cls-25" points="306.57 88.66 302.57 88.66 302.57 84.66"/><line class="cls-32" x1="302.57" y1="77.96" x2="302.57" y2="67.9"/><line class="cls-33" x1="302.57" y1="64.55" x2="302.57" y2="41.09"/><polyline class="cls-25" points="302.57 37.74 302.57 33.74 306.57 33.74"/><line class="cls-31" x1="312.28" y1="33.74" x2="320.85" y2="33.74"/><polyline class="cls-25" points="323.71 33.74 327.71 33.74 327.71 37.74"/><line class="cls-32" x1="327.71" y1="44.44" x2="327.71" y2="54.5"/><line class="cls-33" x1="327.71" y1="57.85" x2="327.71" y2="81.31"/><line class="cls-25" x1="219.01" y1="127.99" x2="219.01" y2="131.99"/><line class="cls-34" x1="219.01" y1="132.99" x2="219.01" y2="134.5"/><line class="cls-25" x1="219.01" y1="135" x2="219.01" y2="139"/><line class="cls-25" x1="218.56" y1="138.82" x2="222.56" y2="138.82"/><line class="cls-35" x1="230.05" y1="138.82" x2="241.28" y2="138.82"/><line class="cls-36" x1="245.02" y1="138.82" x2="271.22" y2="138.82"/><line class="cls-25" x1="274.96" y1="138.82" x2="278.96" y2="138.82"/><line class="cls-25" x1="278.33" y1="85.03" x2="282.33" y2="85.03"/><line class="cls-37" x1="287.78" y1="85.03" x2="295.94" y2="85.03"/><line class="cls-25" x1="298.66" y1="85.03" x2="302.66" y2="85.03"/><line class="cls-25" x1="278.44" y1="84.48" x2="278.44" y2="88.48"/><line class="cls-38" x1="278.44" y1="95.15" x2="278.44" y2="105.15"/><line class="cls-39" x1="278.44" y1="108.49" x2="278.44" y2="131.83"/><line class="cls-25" x1="278.44" y1="135.16" x2="278.44" y2="139.16"/><rect class="cls-29" x="249.75" y="131.67" width="25.45" height="25.45"/><path class="cls-40" d="M264,133a1.93,1.93,0,1,1-2,1.93A2,2,0,0,1,264,133Z"/><path class="cls-40" d="M254.63,139.77l1.48,7.61a3.47,3.47,0,0,0,3.21,3.09l4.76,0c1.12,0,1.12-1.15,0-1.21l-4.33,0c-1.53-.08-2.27-.69-2.56-2.4l-1.49-7.37A.55.55,0,1,0,254.63,139.77Z"/><path class="cls-40" d="M260.31,139c.23-1.16,1.05-1.8,3.16-1.31l6.88,1.38a1,1,0,0,1-.52,1.94L264,139.8l-1.75,5.87h3.49a1.5,1.5,0,0,1,1.75,1.31l1.19,7.75a1.12,1.12,0,0,1-2.23.25l-1-6.55-5.8.07c-1.11-.05-1.76-1.4-1.37-2.76Z"/><path class="cls-40" d="M268.93,143.39c-.08.49-.63.42-.59-.09.06-2.32,3.2-2.31,3,.25v11.83a.32.32,0,0,1-.63,0l0-12.3C270.6,141.8,268.85,142.15,268.93,143.39Z"/><rect class="cls-29" x="222.81" y="131.61" width="25.45" height="25.45"/><path class="cls-40" d="M231.62,133a1.93,1.93,0,1,1-2,1.93A1.95,1.95,0,0,1,231.62,133Z"/><path class="cls-40" d="M228.27,139.71l1.48,7.62a3.48,3.48,0,0,0,3.22,3.08l4.76,0c1.11,0,1.11-1.15,0-1.22l-4.33,0c-1.54-.08-2.28-.68-2.57-2.4l-1.48-7.37C229.19,138.82,228.1,138.87,228.27,139.71Z"/><path class="cls-40" d="M230.14,139.44l1.41,7.25a2.07,2.07,0,0,0,2.5,1.81h5.24l1.11,6.59c.18,1.23,2.44.94,2.23-.33l-1.19-7.68c-.17-.89-.84-1.35-2-1.38l-1.08.07c.83-2.82-.88-5.13-4.24-4.84l-.41-2.25C233.25,137,229.79,137.27,230.14,139.44Z"/><rect class="cls-41" x="162.39" y="124.38" width="1.23" height="1.56"/></g></g></svg>