<svg xmlns="http://www.w3.org/2000/svg" xmlns:xlink="http://www.w3.org/1999/xlink" viewBox="0 0 680 160"><defs><style>.cls-1,.cls-32{fill:#c6c6c5;}.cls-2{fill:#b1b1b1;}.cls-10,.cls-12,.cls-16,.cls-17,.cls-18,.cls-19,.cls-2,.cls-20,.cls-21,.cls-22,.cls-23,.cls-24,.cls-25,.cls-26,.cls-27,.cls-28,.cls-29,.cls-3,.cls-30,.cls-32,.cls-33,.cls-34,.cls-35,.cls-36,.cls-37,.cls-4,.cls-5,.cls-6,.cls-9{stroke:#000;}.cls-10,.cls-12,.cls-16,.cls-17,.cls-18,.cls-19,.cls-2,.cls-20,.cls-21,.cls-22,.cls-23,.cls-24,.cls-25,.cls-26,.cls-27,.cls-28,.cls-29,.cls-3,.cls-30,.cls-32,.cls-33,.cls-34,.cls-35,.cls-36,.cls-37,.cls-4,.cls-48,.cls-49,.cls-5,.cls-50,.cls-51,.cls-6,.cls-9{stroke-miterlimit:10;}.cls-10,.cls-12,.cls-2,.cls-30,.cls-32,.cls-33,.cls-34,.cls-35,.cls-36,.cls-5{stroke-width:0.25px;}.cls-12,.cls-3,.cls-8{fill:#6dc6d9;}.cls-16,.cls-17,.cls-18,.cls-19,.cls-20,.cls-21,.cls-22,.cls-23,.cls-24,.cls-25,.cls-26,.cls-27,.cls-28,.cls-29,.cls-3,.cls-4,.cls-6,.cls-9{stroke-width:0.5px;}.cls-4,.cls-5{fill:#3d3d3c;}.cls-10,.cls-6,.cls-7{fill:#3c3c3b;}.cls-36,.cls-9{fill:#6f6f6e;}.cls-11,.cls-41{fill:#ffd421;}.cls-11,.cls-47{fill-rule:evenodd;}.cls-13,.cls-14,.cls-16,.cls-18,.cls-19,.cls-20,.cls-21,.cls-22,.cls-23,.cls-24,.cls-25,.cls-26,.cls-27,.cls-28,.cls-29,.cls-48,.cls-49,.cls-50,.cls-51{fill:none;}.cls-13,.cls-14{stroke:#000100;stroke-miterlimit:2;stroke-width:0.71px;}.cls-13{stroke-linecap:round;}.cls-15,.cls-17,.cls-37{fill:#9d9b9b;}.cls-16{stroke-dasharray:2.04 1.02;}.cls-18{stroke-dasharray:2.04 1.02;}.cls-19{stroke-dasharray:2.04 1.02;}.cls-20{stroke-dasharray:2.04 1.02;}.cls-21{stroke-dasharray:2.04 1.02;}.cls-22{stroke-dasharray:2.04 1.02;}.cls-23{stroke-dasharray:2.04 1.02;}.cls-24{stroke-dasharray:2.04 1.02;}.cls-25{stroke-dasharray:2.04 1.02;}.cls-26{stroke-dasharray:2.04 1.02;}.cls-27{stroke-dasharray:2.04 1.02;}.cls-28{stroke-dasharray:2.04 1.02;}.cls-29{stroke-dasharray:2.04 1.02;}.cls-30{fill:#faca9e;}.cls-31{fill:#55acce;}.cls-33{fill:url(#radial-gradient);}.cls-34{fill:#e2e1e1;}.cls-35{fill:#9c9b9b;}.cls-37{stroke-width:0.75px;}.cls-38{fill:#7b7b7a;}.cls-39,.cls-47{fill:#fff;}.cls-40{fill:#ffd500;}.cls-42{fill:#000100;}.cls-43{fill:#221e20;}.cls-44{fill:#1d1d1b;}.cls-45{fill:#29295d;}.cls-46{fill:#251a5f;}.cls-48,.cls-49,.cls-50,.cls-51{stroke:#e20613;}.cls-49{stroke-dasharray:5.22 5.22;}.cls-50{stroke-dasharray:7.15 7.15;}.cls-51{stroke-dasharray:7.15 7.15 7.15 7.15;}</style><radialGradient id="radial-gradient" cx="380.02" cy="48.27" r="4.06" gradientUnits="userSpaceOnUse"><stop offset="0.1" stop-color="#575756"/><stop offset="0.42" stop-color="#868686"/><stop offset="1" stop-color="#fff"/></radialGradient></defs><title>Type75_vogn3_BCMU</title><g id="Type75_vogn3_BCMU"><g id="VOGNKASSE-3" data-name="VOGNKASSE"><rect class="cls-1" x="19.15" y="69.89" width="16.83" height="20.5"/><rect class="cls-1" x="32.86" y="34.91" width="589.61" height="90.71"/><path class="cls-2" d="M462.93,77.59h0l-11.67-2.06V68.93l0,0V34.74H107.9v40.7l-6.58,2.5v0a1.17,1.17,0,0,0-.65,1.05V94.36a1.15,1.15,0,0,0,.79,1.11l6.43,2.44v27.54H451.22V97.15L463,95.08v0a.58.58,0,0,0,.39-.54V78.14A.57.57,0,0,0,462.93,77.59Z"/><rect class="cls-3" x="31.91" y="34.7" width="73.75" height="3.56"/><rect class="cls-3" x="173.66" y="34.7" width="214.33" height="3.56"/><rect class="cls-3" x="452.41" y="34.7" width="169.69" height="3.56"/><rect class="cls-4" x="219.52" y="34.71" width="10.52" height="3.54"/><rect class="cls-4" x="273.94" y="34.71" width="10.52" height="3.54"/><rect class="cls-4" x="328.25" y="34.71" width="10.51" height="3.54"/><polygon class="cls-4" points="396.67 34.71 387.86 34.71 387.86 34.72 382.3 34.72 382.3 38.26 388.81 38.26 388.81 36.21 396.67 36.21 396.67 34.71"/><polygon class="cls-4" points="161.41 34.71 170.22 34.71 170.22 34.72 175.78 34.72 175.78 38.26 169.26 38.26 169.26 36.21 161.41 36.21 161.41 34.71"/><polygon class="cls-4" points="106.34 34.71 106.34 34.71 96.67 34.71 96.67 38.26 100.78 38.26 100.78 38.26 107.3 38.26 107.3 36.21 115.15 36.21 115.15 34.71 106.34 34.71"/><rect class="cls-3" x="31.9" y="121.95" width="82.91" height="3.56"/><rect class="cls-3" x="173.64" y="121.95" width="214.33" height="3.56"/><rect class="cls-3" x="452.38" y="121.95" width="169.68" height="3.56"/><rect class="cls-4" x="219.64" y="121.95" width="10.52" height="3.54"/><rect class="cls-4" x="273.92" y="121.96" width="10.52" height="3.54"/><rect class="cls-4" x="328.23" y="121.96" width="10.51" height="3.54"/><polygon class="cls-4" points="396.66 125.51 387.84 125.51 387.84 125.5 382.29 125.5 382.29 121.96 388.8 121.96 388.8 124.01 396.66 124.01 396.66 125.51"/><polygon class="cls-4" points="161.39 125.51 170.2 125.51 170.2 125.5 175.76 125.5 175.76 121.96 169.25 121.96 169.25 124.01 161.39 124.01 161.39 125.51"/><polygon class="cls-5" points="106.95 124.01 106.95 121.96 100.43 121.96 100.43 121.96 95.65 121.96 95.65 125.51 105.99 125.51 105.99 125.51 114.8 125.51 114.8 124.01 106.95 124.01"/><path class="cls-6" d="M157.37,36.46V46.9a.56.56,0,0,0,.57.56h11.6v-11Z"/><path class="cls-6" d="M119.89,36.46V46.9a.57.57,0,0,1-.57.56h-11.6v-11Z"/><path class="cls-6" d="M157.37,123.76V113.32a.56.56,0,0,1,.57-.57h11.6v11Z"/><path class="cls-6" d="M119.89,123.76V113.32a.58.58,0,0,0-.57-.57h-11.6v11Z"/><path class="cls-7" d="M108.76,74.8a.95.95,0,1,1-1-.94A.94.94,0,0,1,108.76,74.8Z"/><path class="cls-7" d="M108.77,98.14a1,1,0,0,0-1.9,0,.94.94,0,0,0,.23.59v24.84h1.28V98.89A1,1,0,0,0,108.77,98.14Z"/><rect class="cls-8" x="107.41" y="47.72" width="0.85" height="25.9"/><rect class="cls-8" x="107.36" y="99.21" width="0.85" height="13.22"/><path class="cls-6" d="M438.2,36.46V46.9a.56.56,0,0,0,.56.56h11.61v-11Z"/><path class="cls-6" d="M438.2,123.76V113.32a.56.56,0,0,1,.56-.57h11.61v11Z"/><path class="cls-6" d="M400.71,123.76V113.32a.57.57,0,0,0-.56-.57h-11.6v11Z"/><rect class="cls-5" x="98.03" y="32.97" width="21.94" height="1.23"/><rect class="cls-5" x="156.74" y="32.97" width="21.94" height="1.23"/><rect class="cls-5" x="98.15" y="126.09" width="21.94" height="1.23"/><rect class="cls-5" x="156.87" y="126.09" width="21.94" height="1.23"/><rect class="cls-5" x="379.05" y="32.97" width="21.94" height="1.23"/><rect class="cls-5" x="437.76" y="32.97" width="21.94" height="1.23"/><rect class="cls-5" x="379.17" y="126.09" width="21.94" height="1.23"/><rect class="cls-5" x="437.89" y="126.09" width="21.94" height="1.23"/><polygon class="cls-4" points="621.98 55.44 621.98 38.26 622.13 38.26 622.13 34.71 600.25 34.71 600.25 34.72 505.4 34.72 505.4 38.23 600.25 38.23 600.25 38.26 611.38 38.26 611.38 55.44 611.38 56.08 611.38 56.09 622.15 56.09 622.15 55.44 621.98 55.44"/><polygon class="cls-4" points="622.16 104.77 622.16 104.12 611.39 104.12 611.39 104.13 611.39 104.77 611.39 121.95 600.25 121.95 600.25 121.97 505.42 121.97 505.42 125.48 600.25 125.48 600.25 125.5 622.14 125.5 622.14 121.95 621.98 121.95 621.98 104.77 622.16 104.77"/><polygon class="cls-4" points="460.96 34.73 456.45 34.73 456.45 34.72 450.89 34.72 450.89 34.71 442.08 34.71 442.08 36.21 449.93 36.21 449.93 38.26 456.45 38.26 456.45 38.25 460.96 38.25 460.96 34.73"/><polygon class="cls-4" points="460.96 121.97 456.26 121.97 456.26 121.96 449.74 121.96 449.74 124.01 441.89 124.01 441.89 125.51 450.7 125.51 450.7 125.5 456.26 125.5 456.26 125.49 460.96 125.49 460.96 121.97"/><path class="cls-9" d="M450.33,57.3h-4V37a.56.56,0,0,0-.57-.57H431.27a.57.57,0,0,0-.57.57V61.09a.58.58,0,0,0,.57.57h14.51a.57.57,0,0,0,.57-.57v-2.7h4Z"/><path class="cls-9" d="M450.33,103.16h-4v20.35a.56.56,0,0,1-.56.56H431.27a.57.57,0,0,1-.57-.56V99.37a.58.58,0,0,1,.57-.57h14.52a.57.57,0,0,1,.56.57v2.7h4Z"/><rect class="cls-7" x="450.33" y="98.61" width="1.28" height="23.06"/><rect class="cls-7" x="450.33" y="38.41" width="1.28" height="35.78"/><rect class="cls-7" x="287.43" y="38.37" width="1.28" height="28.37"/><path class="cls-7" d="M289,66.78a.95.95,0,1,1-.95-1A.95.95,0,0,1,289,66.78Z"/><rect class="cls-8" x="287.64" y="39.7" width="0.85" height="25.9"/><rect class="cls-7" x="287.32" y="93.6" width="1.28" height="28.37"/><path class="cls-7" d="M288.91,93.56a.95.95,0,1,0-1,.94A.94.94,0,0,0,288.91,93.56Z"/><rect class="cls-8" x="287.53" y="94.74" width="0.85" height="25.9"/><rect class="cls-7" x="169.79" y="97.89" width="1.28" height="23.84"/><path class="cls-7" d="M171.39,98.16a.95.95,0,1,0-.95,1A.95.95,0,0,0,171.39,98.16Z"/><rect class="cls-8" x="170" y="99.34" width="0.85" height="12.99"/><rect class="cls-7" x="169.78" y="38.53" width="1.28" height="37.03"/><path class="cls-7" d="M171.37,75.29a.95.95,0,1,1-.94-1A.95.95,0,0,1,171.37,75.29Z"/><rect class="cls-8" x="169.99" y="48.28" width="0.85" height="25.84"/><path class="cls-10" d="M53.51,34.7H32v3.55h.39V56.38H31V70.47a.57.57,0,0,0,.57.57h9V58.42h1.83V71a.56.56,0,0,0,.48-.55v-14h0V38.26h4.18v0h6.46Z"/><path class="cls-10" d="M53.42,122H42.85V103.71h0v-14a.55.55,0,0,0-.49-.55v12.6H40.53V89.18h-9a.57.57,0,0,0-.57.57v14.07a0,0,0,0,0,0,0h1.35V122h-.39v3.55H53.42Z"/><rect class="cls-9" x="516.2" y="35.79" width="104.5" height="31.5"/><rect class="cls-9" x="516.23" y="92.91" width="104.5" height="31.5"/><polygon class="cls-11" points="569.36 42.98 567.3 51.22 569.99 49.51 569.25 53.58 567.97 53.29 568.8 58.65 572.27 53.82 570.53 53.7 572.76 46.73 569.83 48.12 571.79 42.98 569.36 42.98"/><polygon class="cls-11" points="569.36 99.19 567.3 107.44 569.99 105.73 569.25 109.8 567.97 109.51 568.8 114.87 572.27 110.04 570.53 109.92 572.76 102.95 569.83 104.33 571.79 99.19 569.36 99.19"/><rect class="cls-12" x="40.97" y="80.26" width="1" height="9.58"/><rect class="cls-12" x="40.97" y="70.25" width="1" height="9.58"/><line class="cls-13" x1="29.84" y1="53.88" x2="29.84" y2="70.58"/><line class="cls-13" x1="27.71" y1="53.88" x2="27.71" y2="70.58"/><line class="cls-13" x1="25.56" y1="53.88" x2="25.56" y2="70.58"/><line class="cls-13" x1="23.43" y1="53.88" x2="23.43" y2="70.58"/><line class="cls-13" x1="21.29" y1="53.88" x2="21.29" y2="70.58"/><line class="cls-13" x1="19.14" y1="53.88" x2="19.14" y2="70.58"/><path class="cls-14" d="M23.43,70.58a1.08,1.08,0,0,0-2.15,0"/><path class="cls-14" d="M27.71,70.58a1.08,1.08,0,0,0-2.15,0"/><path class="cls-14" d="M29.84,70.58a1.08,1.08,0,0,0-2.15,0"/><path class="cls-14" d="M30.87,69.51a1.08,1.08,0,0,0-1,1.07"/><path class="cls-14" d="M25.57,70.58a1.07,1.07,0,0,0-2.14,0"/><path class="cls-14" d="M19.14,70.58a1.07,1.07,0,0,0-1-1.07"/><path class="cls-14" d="M21.29,70.58a1.08,1.08,0,0,0-2.15,0"/><line class="cls-13" x1="29.84" y1="40.2" x2="29.84" y2="41.11"/><line class="cls-13" x1="27.71" y1="40.2" x2="27.71" y2="41.11"/><line class="cls-13" x1="25.56" y1="40.2" x2="25.56" y2="41.11"/><line class="cls-13" x1="23.43" y1="40.2" x2="23.43" y2="41.11"/><line class="cls-13" x1="21.29" y1="40.2" x2="21.29" y2="41.11"/><line class="cls-13" x1="19.14" y1="40.2" x2="19.14" y2="41.11"/><line class="cls-13" x1="17.41" y1="43.36" x2="16.71" y2="43.36"/><line class="cls-13" x1="17.41" y1="39.77" x2="16.71" y2="39.77"/><line class="cls-13" x1="17.41" y1="43.36" x2="17.41" y2="39.77"/><line class="cls-13" x1="31.59" y1="43.36" x2="32.28" y2="43.36"/><line class="cls-13" x1="31.59" y1="43.36" x2="31.59" y2="39.77"/><path class="cls-13" d="M30.92,39.13a1.07,1.07,0,0,0-1.08,1.07"/><path class="cls-13" d="M29.84,40.2a1.08,1.08,0,0,0-2.15,0"/><path class="cls-13" d="M27.71,40.2a1.08,1.08,0,0,0-2.15,0"/><path class="cls-13" d="M25.57,40.2a1.07,1.07,0,0,0-2.14,0"/><path class="cls-13" d="M23.43,40.2a1.08,1.08,0,0,0-2.15,0"/><path class="cls-13" d="M21.29,40.2a1.08,1.08,0,0,0-2.15,0,1.07,1.07,0,0,0-2.05-.43"/><polyline class="cls-13" points="17.41 54.71 17.41 51.12 16.71 51.12"/><path class="cls-13" d="M23.43,51.55a1.08,1.08,0,0,0-2.15,0"/><path class="cls-13" d="M23.43,53.88a1.08,1.08,0,1,0-2.15,0"/><path class="cls-13" d="M27.71,51.55a1.08,1.08,0,0,0-2.15,0"/><path class="cls-13" d="M29.84,51.55a1.08,1.08,0,0,0-2.15,0"/><path class="cls-13" d="M31.9,51.12a1.08,1.08,0,0,0-2.06.43"/><path class="cls-13" d="M25.57,51.55a1.07,1.07,0,0,0-2.14,0"/><path class="cls-13" d="M27.71,53.88a1.08,1.08,0,1,0-2.15,0"/><path class="cls-13" d="M29.84,53.88a1.08,1.08,0,1,0-2.15,0"/><path class="cls-13" d="M31.59,53a1.1,1.1,0,0,0-.67-.24,1.08,1.08,0,0,0-1.08,1.08"/><path class="cls-13" d="M25.57,53.88a1.07,1.07,0,1,0-2.14,0"/><line class="cls-13" x1="31.59" y1="51.12" x2="32.28" y2="51.12"/><path class="cls-13" d="M19.14,53.88a1.07,1.07,0,0,0-1.07-1.08,1.1,1.1,0,0,0-.68.24"/><path class="cls-13" d="M19.14,51.55a1.07,1.07,0,0,0-2.05-.43"/><path class="cls-13" d="M21.29,51.56a1.08,1.08,0,1,0-2.15,0"/><path class="cls-13" d="M21.29,53.88a1.08,1.08,0,1,0-2.15,0"/><line class="cls-13" x1="31.59" y1="54.71" x2="31.59" y2="51.12"/><path class="cls-13" d="M31.59,39.65a.91.91,0,0,0-.84-.57"/><line class="cls-13" x1="29.84" y1="106.29" x2="29.84" y2="89.58"/><line class="cls-13" x1="27.71" y1="106.29" x2="27.71" y2="89.58"/><line class="cls-13" x1="25.56" y1="106.29" x2="25.56" y2="89.58"/><line class="cls-13" x1="23.43" y1="106.29" x2="23.43" y2="89.58"/><line class="cls-13" x1="21.29" y1="106.29" x2="21.29" y2="89.58"/><line class="cls-13" x1="19.14" y1="106.29" x2="19.14" y2="89.58"/><path class="cls-14" d="M23.43,89.58a1.08,1.08,0,0,1-2.15,0"/><path class="cls-14" d="M27.71,89.58a1.08,1.08,0,0,1-2.15,0"/><path class="cls-14" d="M29.84,89.58a1.07,1.07,0,0,1-2.14,0"/><path class="cls-14" d="M30.87,90.65a1.08,1.08,0,0,1-1-1.07"/><path class="cls-14" d="M25.57,89.58a1.07,1.07,0,1,1-2.14,0"/><path class="cls-14" d="M19.14,89.58a1.07,1.07,0,0,1-1,1.07"/><path class="cls-14" d="M21.29,89.58a1.08,1.08,0,0,1-2.15,0"/><line class="cls-13" x1="29.84" y1="119.96" x2="29.84" y2="119.05"/><line class="cls-13" x1="27.71" y1="119.96" x2="27.71" y2="119.05"/><line class="cls-13" x1="25.56" y1="119.96" x2="25.56" y2="119.05"/><line class="cls-13" x1="23.43" y1="119.96" x2="23.43" y2="119.05"/><line class="cls-13" x1="21.29" y1="119.96" x2="21.29" y2="119.05"/><line class="cls-13" x1="19.14" y1="119.96" x2="19.14" y2="119.05"/><line class="cls-13" x1="17.41" y1="116.8" x2="16.71" y2="116.8"/><line class="cls-13" x1="17.41" y1="120.4" x2="16.71" y2="120.4"/><line class="cls-13" x1="17.41" y1="116.8" x2="17.41" y2="120.4"/><line class="cls-13" x1="31.59" y1="116.8" x2="32.28" y2="116.8"/><line class="cls-13" x1="31.59" y1="116.8" x2="31.59" y2="120.4"/><path class="cls-13" d="M30.92,121A1.07,1.07,0,0,1,29.84,120"/><path class="cls-13" d="M29.84,120a1.07,1.07,0,1,1-2.14,0"/><path class="cls-13" d="M27.71,120a1.08,1.08,0,0,1-2.15,0"/><path class="cls-13" d="M25.57,120a1.07,1.07,0,1,1-2.14,0"/><path class="cls-13" d="M23.43,120a1.08,1.08,0,0,1-2.15,0"/><path class="cls-13" d="M21.29,120a1.08,1.08,0,0,1-2.15,0,1.07,1.07,0,0,1-2.05.44"/><polyline class="cls-13" points="17.41 105.45 17.41 109.05 16.71 109.05"/><path class="cls-13" d="M23.43,108.61a1.08,1.08,0,0,1-2.15,0"/><path class="cls-13" d="M23.43,106.29a1.08,1.08,0,0,1-2.15,0"/><path class="cls-13" d="M27.71,108.61a1.08,1.08,0,0,1-2.15,0"/><path class="cls-13" d="M29.84,108.61a1.07,1.07,0,1,1-2.14,0"/><path class="cls-13" d="M31.9,109.05a1.08,1.08,0,0,1-2.06-.44"/><path class="cls-13" d="M25.57,108.61a1.07,1.07,0,1,1-2.14,0"/><path class="cls-13" d="M27.71,106.29a1.08,1.08,0,0,1-2.15,0"/><path class="cls-13" d="M29.84,106.29a1.07,1.07,0,0,1-2.14,0"/><path class="cls-13" d="M31.59,107.12a1,1,0,0,1-.67.24,1.07,1.07,0,0,1-1.08-1.07"/><path class="cls-13" d="M25.57,106.29a1.07,1.07,0,0,1-2.14,0"/><line class="cls-13" x1="31.59" y1="109.05" x2="32.28" y2="109.05"/><path class="cls-13" d="M19.14,106.29a1.07,1.07,0,0,1-1.07,1.07,1,1,0,0,1-.68-.24"/><path class="cls-13" d="M19.14,108.61a1.07,1.07,0,0,1-2.05.44"/><path class="cls-13" d="M21.29,108.61a1.08,1.08,0,0,1-2.15,0"/><path class="cls-13" d="M21.29,106.29a1.08,1.08,0,0,1-2.15,0"/><line class="cls-13" x1="31.59" y1="105.45" x2="31.59" y2="109.05"/><path class="cls-13" d="M31.59,120.52a.9.9,0,0,1-.84.56"/></g><g id="INNREDNING-3" data-name="INNREDNING"><path class="cls-15" d="M290.93,63.71a.84.84,0,0,1-.86-.8V53.79a.84.84,0,0,1,.86-.81h9.74a.83.83,0,0,1,.85.81v9.12a.83.83,0,0,1-.85.8Z"/><path class="cls-16" d="M290.93,63.71a.84.84,0,0,1-.86-.8V53.79a.84.84,0,0,1,.86-.81h9.74a.83.83,0,0,1,.85.81v9.12a.83.83,0,0,1-.85.8Z"/><path class="cls-17" d="M288.93,63.94h1.58c.2,0,.37-.32.37-.73V53.56c0-.4-.17-.72-.37-.72h-1.58Z"/><path class="cls-15" d="M290.93,51.68a.84.84,0,0,1-.86-.81V41.75a.84.84,0,0,1,.86-.8h9.74a.83.83,0,0,1,.85.8v9.12a.83.83,0,0,1-.85.81Z"/><path class="cls-18" d="M290.93,51.68a.84.84,0,0,1-.86-.81V41.75a.84.84,0,0,1,.86-.8h9.74a.83.83,0,0,1,.85.8v9.12a.83.83,0,0,1-.85.81Z"/><path class="cls-17" d="M288.93,51.9h1.58c.2,0,.37-.32.37-.72V41.52c0-.39-.17-.72-.37-.72h-1.58Z"/><path class="cls-15" d="M290.8,119.37a.84.84,0,0,1-.86-.8v-9.12a.84.84,0,0,1,.86-.81h9.74a.84.84,0,0,1,.86.81v9.12a.84.84,0,0,1-.86.8Z"/><path class="cls-19" d="M290.8,119.37a.84.84,0,0,1-.86-.8v-9.12a.84.84,0,0,1,.86-.81h9.74a.84.84,0,0,1,.86.81v9.12a.84.84,0,0,1-.86.8Z"/><path class="cls-17" d="M288.81,119.6h1.57c.21,0,.37-.32.37-.73v-9.65c0-.4-.16-.72-.37-.72h-1.57Z"/><path class="cls-15" d="M290.8,107.33a.84.84,0,0,1-.86-.8V97.41a.83.83,0,0,1,.86-.8h9.74a.83.83,0,0,1,.86.8v9.12a.84.84,0,0,1-.86.8Z"/><path class="cls-19" d="M290.8,107.33a.84.84,0,0,1-.86-.8V97.41a.83.83,0,0,1,.86-.8h9.74a.83.83,0,0,1,.86.8v9.12a.84.84,0,0,1-.86.8Z"/><path class="cls-17" d="M288.81,107.56h1.57c.21,0,.37-.32.37-.72V97.18c0-.4-.16-.72-.37-.72h-1.57Z"/><path class="cls-15" d="M333.75,63.68a.83.83,0,0,0,.85-.81V53.75a.83.83,0,0,0-.85-.8H324a.83.83,0,0,0-.86.8v9.12a.83.83,0,0,0,.86.81Z"/><path class="cls-20" d="M333.75,63.68a.83.83,0,0,0,.85-.81V53.75a.83.83,0,0,0-.85-.8H324a.83.83,0,0,0-.86.8v9.12a.83.83,0,0,0,.86.81Z"/><path class="cls-17" d="M335.74,63.9h-1.58c-.2,0-.36-.32-.36-.72V53.52c0-.4.16-.72.36-.72h1.58Z"/><path class="cls-15" d="M333.75,51.64a.83.83,0,0,0,.85-.81V41.72a.83.83,0,0,0-.85-.81H324a.83.83,0,0,0-.86.81v9.11a.83.83,0,0,0,.86.81Z"/><path class="cls-21" d="M333.75,51.64a.83.83,0,0,0,.85-.81V41.72a.83.83,0,0,0-.85-.81H324a.83.83,0,0,0-.86.81v9.11a.83.83,0,0,0,.86.81Z"/><path class="cls-17" d="M335.74,51.87h-1.58c-.2,0-.36-.33-.36-.73V41.49c0-.4.16-.73.36-.73h1.58Z"/><path class="cls-15" d="M167.68,72.57a.84.84,0,0,0,.86-.81V62.64a.84.84,0,0,0-.86-.8h-9.74a.83.83,0,0,0-.85.8v9.12a.83.83,0,0,0,.85.81Z"/><path class="cls-22" d="M167.68,72.57a.84.84,0,0,0,.86-.81V62.64a.84.84,0,0,0-.86-.8h-9.74a.83.83,0,0,0-.85.8v9.12a.83.83,0,0,0,.85.81Z"/><path class="cls-17" d="M169.68,72.8H168.1c-.2,0-.37-.33-.37-.73V62.42c0-.4.17-.73.37-.73h1.58Z"/><path class="cls-15" d="M167.68,60.53a.84.84,0,0,0,.86-.8V50.61a.84.84,0,0,0-.86-.81h-9.74a.83.83,0,0,0-.85.81v9.12a.83.83,0,0,0,.85.8Z"/><path class="cls-19" d="M167.68,60.53a.84.84,0,0,0,.86-.8V50.61a.84.84,0,0,0-.86-.81h-9.74a.83.83,0,0,0-.85.81v9.12a.83.83,0,0,0,.85.8Z"/><path class="cls-17" d="M169.68,60.76H168.1c-.2,0-.37-.32-.37-.73V50.38c0-.4.17-.72.37-.72h1.58Z"/><path class="cls-15" d="M110.49,72.53a.83.83,0,0,1-.85-.81V62.6a.83.83,0,0,1,.85-.8h9.74a.84.84,0,0,1,.86.8v9.12a.84.84,0,0,1-.86.81Z"/><path class="cls-23" d="M110.49,72.53a.83.83,0,0,1-.85-.81V62.6a.83.83,0,0,1,.85-.8h9.74a.84.84,0,0,1,.86.8v9.12a.84.84,0,0,1-.86.81Z"/><path class="cls-17" d="M108.5,72.75h1.58c.2,0,.36-.32.36-.72V62.37c0-.39-.16-.72-.36-.72H108.5Z"/><path class="cls-15" d="M110.49,60.49a.83.83,0,0,1-.85-.8V50.57a.83.83,0,0,1,.85-.81h9.74a.84.84,0,0,1,.86.81v9.12a.84.84,0,0,1-.86.8Z"/><path class="cls-24" d="M110.49,60.49a.83.83,0,0,1-.85-.8V50.57a.83.83,0,0,1,.85-.81h9.74a.84.84,0,0,1,.86.81v9.12a.84.84,0,0,1-.86.8Z"/><path class="cls-17" d="M108.5,60.72h1.58c.2,0,.36-.33.36-.73V50.34c0-.4-.16-.72-.36-.72H108.5Z"/><path class="cls-15" d="M110.48,111.12a.83.83,0,0,1-.85-.81v-9.12a.84.84,0,0,1,.85-.81h9.74a.84.84,0,0,1,.86.81v9.12a.84.84,0,0,1-.86.81Z"/><path class="cls-25" d="M110.48,111.12a.83.83,0,0,1-.85-.81v-9.12a.84.84,0,0,1,.85-.81h9.74a.84.84,0,0,1,.86.81v9.12a.84.84,0,0,1-.86.81Z"/><path class="cls-17" d="M108.49,111.34h1.58c.2,0,.36-.32.36-.72V101c0-.4-.16-.72-.36-.72h-1.58Z"/><path class="cls-15" d="M383.36,119.71a.84.84,0,0,1-.81.86h-9.11a.84.84,0,0,1-.81-.86V110a.83.83,0,0,1,.81-.85h9.11a.83.83,0,0,1,.81.85Z"/><path class="cls-26" d="M383.36,119.71a.84.84,0,0,1-.81.86h-9.11a.84.84,0,0,1-.81-.86V110a.83.83,0,0,1,.81-.85h9.11a.83.83,0,0,1,.81.85Z"/><path class="cls-17" d="M383.59,121.71v-1.58c0-.2-.33-.37-.73-.37h-9.65c-.4,0-.72.17-.72.37v1.58Z"/><path class="cls-15" d="M370.33,119.71a.84.84,0,0,1-.81.86H360.4a.84.84,0,0,1-.8-.86V110a.83.83,0,0,1,.8-.85h9.12a.83.83,0,0,1,.81.85Z"/><path class="cls-27" d="M370.33,119.71a.84.84,0,0,1-.81.86H360.4a.84.84,0,0,1-.8-.86V110a.83.83,0,0,1,.8-.85h9.12a.83.83,0,0,1,.81.85Z"/><path class="cls-17" d="M370.55,121.71v-1.58c0-.2-.32-.37-.72-.37h-9.66c-.4,0-.72.17-.72.37v1.58Z"/><path class="cls-15" d="M357.23,119.63a.83.83,0,0,1-.8.86h-9.12a.83.83,0,0,1-.81-.86V109.9a.83.83,0,0,1,.81-.86h9.12a.83.83,0,0,1,.8.86Z"/><path class="cls-28" d="M357.23,119.63a.83.83,0,0,1-.81.86h-9.11a.83.83,0,0,1-.81-.86V109.9a.83.83,0,0,1,.81-.86h9.11a.83.83,0,0,1,.81.86Z"/><path class="cls-17" d="M357.46,121.63v-1.58c0-.2-.33-.36-.73-.36h-9.65c-.4,0-.73.16-.73.36v1.58Z"/><path class="cls-15" d="M344.19,119.63a.83.83,0,0,1-.8.86h-9.12a.82.82,0,0,1-.8-.86V109.9a.82.82,0,0,1,.8-.86h9.12a.83.83,0,0,1,.8.86Z"/><path class="cls-29" d="M344.19,119.63a.83.83,0,0,1-.8.86h-9.12a.82.82,0,0,1-.8-.86V109.9a.82.82,0,0,1,.8-.86h9.12a.83.83,0,0,1,.8.86Z"/><path class="cls-17" d="M344.42,121.63v-1.58c0-.2-.32-.36-.73-.36H334c-.4,0-.72.16-.72.36v1.58Z"/><path class="cls-30" d="M245.44,38.73V50.2a1.14,1.14,0,0,0,1.14,1.13h9a1.14,1.14,0,0,0,1.13-1.13V38.73Z"/><path class="cls-30" d="M245.46,121.83V110.37a1.14,1.14,0,0,1,1.14-1.14h9a1.14,1.14,0,0,1,1.14,1.14v11.46Z"/><path class="cls-31" d="M397.53,57a.57.57,0,0,1-.42-.19l-9.39-9.39v0h0a.73.73,0,0,1-.05-.09s0-.05-.06-.08a.51.51,0,0,1,0-.27V43.23H354.36v.06l-.35-.07h0l-4.64,21.82h-.08v16.2h12.79A22.93,22.93,0,0,0,398,57Z"/><path class="cls-32" d="M366.4,43.26a.56.56,0,0,0,.28.63l6.86,3.49h0l1.07.55h.05a.49.49,0,0,0,.25.06h.33a1.66,1.66,0,0,0,0,.22,4.67,4.67,0,0,0,9.34,0c0-.08,0-.14,0-.22H385a.51.51,0,0,0,.17,0l0,0,.05,0,2.22-1.28V43.26Z"/><path class="cls-33" d="M384.08,48.27A4.06,4.06,0,1,1,380,44.21,4.06,4.06,0,0,1,384.08,48.27Z"/><path class="cls-7" d="M398.39,59.08h-1.08a22.74,22.74,0,0,1,.31,3.71A21.94,21.94,0,0,1,387,81.59l.66.93a23,23,0,0,0,11-19.65A22.63,22.63,0,0,0,398.39,59.08Z"/><path class="cls-34" d="M355.5,47.12h0l5.41,1.15h0c3.87.84,6.49,3.92,5.86,6.89s-4.31,4.74-8.2,3.91h0l-2.41-.51h0l-5-1.06,2.3-10.81Z"/><path class="cls-34" d="M355.5,49.27a7.94,7.94,0,0,1,5.38-.66c3.69.79,6.21,3.69,5.61,6.48s-4.07,4.43-7.76,3.64a7.84,7.84,0,0,1-4.65-2.79Z"/><path class="cls-34" d="M369.17,65.49l-18.94-4L350,62.68l18.94,4a.57.57,0,0,0,.68-.44l0-.11A.56.56,0,0,0,369.17,65.49Z"/><polygon class="cls-35" points="374.42 46.4 373.22 43.12 387.75 43.12 387.75 46.4 374.42 46.4"/><path class="cls-30" d="M304.62,38.5l.89,3.32h0a1.19,1.19,0,0,0,1.14.85h7.28a1.17,1.17,0,0,0,1.14-.94h0L316,38.5Z"/><path class="cls-30" d="M304.7,121.76l.89-3.32h0a1.18,1.18,0,0,1,1.13-.85H314a1.19,1.19,0,0,1,1.15.94h0l.87,3.24Z"/><rect class="cls-36" x="160.19" y="98.93" width="8.95" height="13.27"/><path class="cls-9" d="M400.56,38.5h-3.88V36.67h-7.76V38.5H336.19v43a1.71,1.71,0,0,0,1.7,1.73h23.74a25.47,25.47,0,0,0,27.59.16L388.1,82.3a22.92,22.92,0,0,1-26.05-1.07H349.27V65h.08L354,43.21h0l.36.07v-.06h33.18V47a.52.52,0,0,0,.05.27.35.35,0,0,0,.05.08.47.47,0,0,0,.06.09h0v0l9.4,9.39a.57.57,0,0,0,.41.19h.5a24.77,24.77,0,0,1,.55,2.75H401a25.63,25.63,0,0,0-.4-2.92Z"/></g><g id="SETER-3" data-name="SETER"><polygon class="cls-37" points="198.3 96.42 198.3 104.84 200.75 107.28 218.1 107.28 218.1 93.96 200.77 93.96 198.3 96.42"/><polygon class="cls-38" points="200.86 104.52 200.87 104.52 203.14 106.85 204.83 106.85 202.56 104.52 202.55 104.52 202.55 96.7 202.56 96.7 204.83 94.37 203.14 94.37 200.89 96.68 200.86 96.68 200.86 104.52"/><rect class="cls-39" x="198.71" y="97.35" width="1.98" height="6.52"/><polygon class="cls-37" points="198.31 110.21 198.31 118.63 200.76 121.07 218.11 121.07 218.11 107.75 200.78 107.75 198.31 110.21"/><polygon class="cls-38" points="200.87 118.3 200.88 118.3 203.15 120.63 204.84 120.63 202.57 118.3 202.56 118.3 202.56 110.49 202.57 110.49 204.84 108.16 203.15 108.16 200.9 110.46 200.87 110.46 200.87 118.3"/><rect class="cls-39" x="198.72" y="111.14" width="1.98" height="6.51"/><polygon class="cls-37" points="198.49 55.44 198.49 63.86 200.93 66.3 218.28 66.3 218.28 52.98 200.95 52.98 198.49 55.44"/><polygon class="cls-38" points="201.04 63.53 201.05 63.53 203.33 65.86 205.01 65.86 202.74 63.53 202.74 63.53 202.74 55.72 202.74 55.72 205.01 53.39 203.33 53.39 201.07 55.7 201.04 55.7 201.04 63.53"/><rect class="cls-39" x="198.89" y="56.37" width="1.98" height="6.51"/><polygon class="cls-37" points="198.49 69.22 198.49 77.64 200.93 80.08 218.28 80.08 218.28 66.76 200.95 66.76 198.49 69.22"/><polygon class="cls-38" points="201.04 77.32 201.05 77.32 203.32 79.64 205.01 79.64 202.74 77.32 202.73 77.32 202.73 69.5 202.74 69.5 205.01 67.17 203.32 67.17 201.07 69.48 201.04 69.48 201.04 77.32"/><rect class="cls-39" x="198.89" y="70.15" width="1.98" height="6.51"/><polygon class="cls-37" points="198.49 41.53 198.49 49.95 200.93 52.39 218.28 52.39 218.28 39.07 200.95 39.07 198.49 41.53"/><polygon class="cls-38" points="201.04 49.62 201.05 49.62 203.32 51.95 205.01 51.95 202.74 49.62 202.73 49.62 202.73 41.81 202.74 41.81 205.01 39.48 203.32 39.48 201.07 41.78 201.04 41.78 201.04 49.62"/><rect class="cls-39" x="198.89" y="42.45" width="1.98" height="6.51"/><polygon class="cls-37" points="223.3 96.42 223.3 104.84 225.75 107.28 243.1 107.28 243.1 93.96 225.77 93.96 223.3 96.42"/><polygon class="cls-38" points="225.86 104.52 225.87 104.52 228.14 106.85 229.83 106.85 227.56 104.52 227.55 104.52 227.55 96.7 227.56 96.7 229.83 94.37 228.14 94.37 225.89 96.68 225.86 96.68 225.86 104.52"/><rect class="cls-39" x="223.71" y="97.35" width="1.98" height="6.52"/><polygon class="cls-37" points="223.31 110.21 223.31 118.63 225.76 121.07 243.11 121.07 243.11 107.75 225.78 107.75 223.31 110.21"/><polygon class="cls-38" points="225.87 118.3 225.88 118.3 228.15 120.63 229.84 120.63 227.57 118.3 227.56 118.3 227.56 110.49 227.57 110.49 229.84 108.16 228.15 108.16 225.9 110.46 225.87 110.46 225.87 118.3"/><rect class="cls-39" x="223.72" y="111.14" width="1.98" height="6.51"/><polygon class="cls-37" points="223.49 55.44 223.49 63.86 225.93 66.3 243.28 66.3 243.28 52.98 225.95 52.98 223.49 55.44"/><polygon class="cls-38" points="226.04 63.53 226.05 63.53 228.33 65.86 230.01 65.86 227.74 63.53 227.74 63.53 227.74 55.72 227.74 55.72 230.01 53.39 228.33 53.39 226.07 55.7 226.04 55.7 226.04 63.53"/><rect class="cls-39" x="223.89" y="56.37" width="1.98" height="6.51"/><polygon class="cls-37" points="223.49 69.22 223.49 77.64 225.93 80.08 243.28 80.08 243.28 66.76 225.95 66.76 223.49 69.22"/><polygon class="cls-38" points="226.04 77.32 226.05 77.32 228.32 79.64 230.01 79.64 227.74 77.32 227.73 77.32 227.73 69.5 227.74 69.5 230.01 67.17 228.32 67.17 226.07 69.48 226.04 69.48 226.04 77.32"/><rect class="cls-39" x="223.89" y="70.15" width="1.98" height="6.51"/><polygon class="cls-37" points="223.49 41.53 223.49 49.95 225.93 52.39 243.28 52.39 243.28 39.07 225.95 39.07 223.49 41.53"/><polygon class="cls-38" points="226.04 49.62 226.05 49.62 228.32 51.95 230.01 51.95 227.74 49.62 227.73 49.62 227.73 41.81 227.74 41.81 230.01 39.48 228.32 39.48 226.07 41.78 226.04 41.78 226.04 49.62"/><rect class="cls-39" x="223.89" y="42.46" width="1.98" height="6.51"/><polygon class="cls-37" points="172.66 96.43 172.66 104.84 175.11 107.29 192.46 107.29 192.46 93.97 175.13 93.97 172.66 96.43"/><polygon class="cls-38" points="175.22 104.52 175.23 104.52 177.5 106.85 179.19 106.85 176.92 104.52 176.91 104.52 176.91 96.7 176.92 96.7 179.19 94.38 177.5 94.38 175.25 96.68 175.22 96.68 175.22 104.52"/><rect class="cls-39" x="173.07" y="97.35" width="1.98" height="6.52"/><polygon class="cls-37" points="172.68 110.21 172.68 118.63 175.12 121.08 192.47 121.08 192.47 107.75 175.14 107.75 172.68 110.21"/><polygon class="cls-38" points="175.23 118.31 175.24 118.31 177.51 120.64 179.2 120.64 176.93 118.31 176.92 118.31 176.92 110.49 176.93 110.49 179.2 108.16 177.51 108.16 175.26 110.47 175.23 110.47 175.23 118.31"/><rect class="cls-39" x="173.08" y="111.14" width="1.98" height="6.51"/><polygon class="cls-37" points="172.84 55.44 172.84 63.86 175.29 66.3 192.64 66.3 192.64 52.98 175.31 52.98 172.84 55.44"/><polygon class="cls-38" points="175.4 63.54 175.41 63.54 177.69 65.86 179.37 65.86 177.1 63.54 177.09 63.54 177.09 55.72 177.1 55.72 179.37 53.39 177.69 53.39 175.43 55.7 175.4 55.7 175.4 63.54"/><rect class="cls-39" x="173.25" y="56.37" width="1.98" height="6.51"/><polygon class="cls-37" points="172.84 69.23 172.84 77.64 175.29 80.09 192.64 80.09 192.64 66.77 175.31 66.77 172.84 69.23"/><polygon class="cls-38" points="175.4 77.32 175.41 77.32 177.68 79.65 179.37 79.65 177.1 77.32 177.09 77.32 177.09 69.5 177.1 69.5 179.37 67.18 177.68 67.18 175.43 69.48 175.4 69.48 175.4 77.32"/><rect class="cls-39" x="173.25" y="70.15" width="1.98" height="6.51"/><polygon class="cls-37" points="172.84 41.53 172.84 49.95 175.29 52.39 192.64 52.39 192.64 39.07 175.31 39.07 172.84 41.53"/><polygon class="cls-38" points="175.4 49.63 175.41 49.63 177.69 51.95 179.37 51.95 177.1 49.63 177.09 49.63 177.09 41.81 177.1 41.81 179.37 39.48 177.69 39.48 175.43 41.79 175.4 41.79 175.4 49.63"/><rect class="cls-39" x="173.25" y="42.46" width="1.98" height="6.51"/><polygon class="cls-37" points="460.66 96.43 460.66 104.84 463.11 107.29 480.46 107.29 480.46 93.97 463.13 93.97 460.66 96.43"/><polygon class="cls-38" points="463.22 104.52 463.23 104.52 465.5 106.85 467.19 106.85 464.92 104.52 464.91 104.52 464.91 96.7 464.92 96.7 467.19 94.38 465.5 94.38 463.25 96.68 463.22 96.68 463.22 104.52"/><rect class="cls-39" x="461.07" y="97.35" width="1.98" height="6.52"/><polygon class="cls-37" points="460.67 110.21 460.67 118.63 463.12 121.08 480.47 121.08 480.47 107.75 463.13 107.75 460.67 110.21"/><polygon class="cls-38" points="463.23 118.31 463.24 118.31 465.51 120.64 467.2 120.64 464.93 118.31 464.92 118.31 464.92 110.49 464.93 110.49 467.2 108.16 465.51 108.16 463.26 110.47 463.23 110.47 463.23 118.31"/><rect class="cls-39" x="461.08" y="111.14" width="1.98" height="6.51"/><polygon class="cls-37" points="453.85 55.44 453.85 63.86 456.29 66.3 473.64 66.3 473.64 52.98 456.31 52.98 453.85 55.44"/><polygon class="cls-38" points="456.41 63.54 456.41 63.54 458.69 65.86 460.37 65.86 458.1 63.54 458.1 63.54 458.1 55.72 458.1 55.72 460.37 53.39 458.69 53.39 456.43 55.7 456.41 55.7 456.41 63.54"/><rect class="cls-39" x="454.25" y="56.37" width="1.98" height="6.51"/><polygon class="cls-37" points="453.85 69.23 453.85 77.64 456.29 80.09 473.64 80.09 473.64 66.77 456.31 66.77 453.85 69.23"/><polygon class="cls-38" points="456.4 77.32 456.41 77.32 458.68 79.65 460.37 79.65 458.1 77.32 458.09 77.32 458.09 69.5 458.1 69.5 460.37 67.18 458.68 67.18 456.43 69.48 456.4 69.48 456.4 77.32"/><rect class="cls-39" x="454.25" y="70.15" width="1.98" height="6.51"/><polygon class="cls-37" points="453.85 41.53 453.85 49.95 456.29 52.39 473.64 52.39 473.64 39.07 456.31 39.07 453.85 41.53"/><polygon class="cls-38" points="456.4 49.63 456.41 49.63 458.69 51.95 460.37 51.95 458.1 49.63 458.09 49.63 458.09 41.81 458.1 41.81 460.37 39.48 458.69 39.48 456.43 41.79 456.4 41.79 456.4 49.63"/><rect class="cls-39" x="454.25" y="42.46" width="1.98" height="6.51"/><polygon class="cls-37" points="514.47 96.43 514.47 104.84 512.03 107.29 494.67 107.29 494.67 93.97 512.01 93.97 514.47 96.43"/><polygon class="cls-38" points="511.91 104.52 511.91 104.52 509.63 106.85 507.94 106.85 510.22 104.52 510.22 104.52 510.22 96.7 510.22 96.7 507.94 94.38 509.63 94.38 511.88 96.68 511.91 96.68 511.91 104.52"/><rect class="cls-39" x="512.08" y="97.35" width="1.98" height="6.52"/><polygon class="cls-37" points="514.46 110.21 514.46 118.63 512.02 121.08 494.66 121.08 494.66 107.75 512 107.75 514.46 110.21"/><polygon class="cls-38" points="511.9 118.31 511.9 118.31 509.62 120.64 507.94 120.64 510.21 118.31 510.21 118.31 510.21 110.49 510.21 110.49 507.94 108.16 509.62 108.16 511.88 110.47 511.9 110.47 511.9 118.31"/><rect class="cls-39" x="512.07" y="111.14" width="1.98" height="6.51"/><polygon class="cls-37" points="507.74 41.48 507.74 49.9 505.3 52.34 487.94 52.34 487.94 39.02 505.28 39.02 507.74 41.48"/><polygon class="cls-38" points="505.18 49.58 505.18 49.58 502.9 51.9 501.21 51.9 503.49 49.58 503.49 49.58 503.49 41.76 503.49 41.76 501.21 39.43 502.9 39.43 505.16 41.74 505.18 41.74 505.18 49.58"/><rect class="cls-39" x="505.35" y="42.41" width="1.98" height="6.52"/><polygon class="cls-37" points="507.73 55.27 507.73 63.68 505.29 66.13 487.94 66.13 487.94 52.8 505.27 52.8 507.73 55.27"/><polygon class="cls-38" points="505.18 63.36 505.17 63.36 502.89 65.69 501.21 65.69 503.48 63.36 503.49 63.36 503.49 55.55 503.48 55.55 501.21 53.22 502.89 53.22 505.15 55.52 505.18 55.52 505.18 63.36"/><rect class="cls-39" x="505.34" y="56.19" width="1.98" height="6.51"/><polygon class="cls-37" points="105.64 55.44 105.64 63.86 103.2 66.3 85.84 66.3 85.84 52.98 103.18 52.98 105.64 55.44"/><polygon class="cls-38" points="103.08 63.54 103.08 63.54 100.8 65.86 99.11 65.86 101.39 63.54 101.39 63.54 101.39 55.72 101.39 55.72 99.11 53.39 100.8 53.39 103.05 55.7 103.08 55.7 103.08 63.54"/><rect class="cls-39" x="103.25" y="56.37" width="1.98" height="6.51"/><polygon class="cls-37" points="105.64 69.23 105.64 77.64 103.2 80.08 85.84 80.08 85.84 66.76 103.18 66.76 105.64 69.23"/><polygon class="cls-38" points="103.08 77.32 103.08 77.32 100.8 79.65 99.11 79.65 101.39 77.32 101.39 77.32 101.39 69.5 101.39 69.5 99.11 67.18 100.8 67.18 103.06 69.48 103.08 69.48 103.08 77.32"/><rect class="cls-39" x="103.25" y="70.15" width="1.98" height="6.51"/><polygon class="cls-37" points="105.64 41.53 105.64 49.95 103.2 52.39 85.84 52.39 85.84 39.07 103.18 39.07 105.64 41.53"/><polygon class="cls-38" points="103.08 49.63 103.08 49.63 100.8 51.95 99.11 51.95 101.39 49.63 101.39 49.63 101.39 41.81 101.39 41.81 99.11 39.48 100.8 39.48 103.05 41.79 103.08 41.79 103.08 49.63"/><rect class="cls-39" x="103.25" y="42.46" width="1.98" height="6.51"/><polygon class="cls-37" points="44.66 96.43 44.66 104.84 47.11 107.29 64.46 107.29 64.46 93.97 47.13 93.97 44.66 96.43"/><polygon class="cls-38" points="47.22 104.52 47.23 104.52 49.51 106.85 51.19 106.85 48.92 104.52 48.91 104.52 48.91 96.7 48.92 96.7 51.19 94.38 49.51 94.38 47.25 96.68 47.22 96.68 47.22 104.52"/><rect class="cls-39" x="45.07" y="97.35" width="1.98" height="6.52"/><polygon class="cls-37" points="44.67 110.21 44.67 118.63 47.12 121.08 64.47 121.08 64.47 107.75 47.14 107.75 44.67 110.21"/><polygon class="cls-38" points="47.23 118.31 47.24 118.31 49.51 120.64 51.2 120.64 48.93 118.31 48.92 118.31 48.92 110.49 48.93 110.49 51.2 108.16 49.51 108.16 47.26 110.47 47.23 110.47 47.23 118.31"/><rect class="cls-39" x="45.08" y="111.14" width="1.98" height="6.51"/><polygon class="cls-37" points="96.84 96.43 96.84 104.84 94.4 107.29 77.05 107.29 77.05 93.97 94.38 93.97 96.84 96.43"/><polygon class="cls-38" points="94.28 104.52 94.28 104.52 92 106.85 90.31 106.85 92.59 104.52 92.59 104.52 92.59 96.7 92.59 96.7 90.31 94.38 92 94.38 94.26 96.68 94.28 96.68 94.28 104.52"/><rect class="cls-39" x="94.45" y="97.35" width="1.98" height="6.52"/><polygon class="cls-37" points="96.83 110.21 96.83 118.63 94.39 121.08 77.04 121.08 77.04 107.75 94.37 107.75 96.83 110.21"/><polygon class="cls-38" points="94.28 118.31 94.27 118.31 91.99 120.64 90.31 120.64 92.58 118.31 92.59 118.31 92.59 110.49 92.58 110.49 90.31 108.16 91.99 108.16 94.25 110.47 94.28 110.47 94.28 118.31"/><rect class="cls-39" x="94.44" y="111.14" width="1.98" height="6.51"/><polygon class="cls-37" points="51.47 41.48 51.47 49.9 53.91 52.34 71.27 52.34 71.27 39.02 53.93 39.02 51.47 41.48"/><polygon class="cls-38" points="54.03 49.58 54.03 49.58 56.31 51.9 57.99 51.9 55.72 49.58 55.72 49.58 55.72 41.76 55.72 41.76 57.99 39.43 56.31 39.43 54.05 41.74 54.03 41.74 54.03 49.58"/><rect class="cls-39" x="51.87" y="42.41" width="1.98" height="6.52"/><polygon class="cls-37" points="51.48 55.27 51.48 63.68 53.92 66.13 71.28 66.13 71.28 52.8 53.94 52.8 51.48 55.27"/><polygon class="cls-38" points="54.03 63.36 54.04 63.36 56.32 65.69 58 65.69 55.73 63.36 55.72 63.36 55.72 55.55 55.73 55.55 58 53.22 56.32 53.22 54.06 55.52 54.03 55.52 54.03 63.36"/><rect class="cls-39" x="51.88" y="56.19" width="1.98" height="6.51"/></g><g id="SETENUMMER-3" data-name="SETENUMMER"><path class="cls-40" d="M57.88,43.84h0l-1.07.54-.19-.83,1.43-.7H59V48.7H57.88Z"/><path class="cls-40" d="M63.41,48.7V47.21H60.76v-.72l2.39-3.64h1.31v3.52h.75v.84h-.75V48.7Zm0-2.33V44.78c0-.33,0-.67,0-1h0c-.18.37-.33.67-.51,1l-1.08,1.61h1.59Z"/><path class="cls-40" d="M66,47.55a2.87,2.87,0,0,0,1.33.36c.85,0,1.18-.47,1.18-.93,0-.7-.65-1-1.33-1h-.5v-.81h.5c.5,0,1.15-.24,1.15-.81,0-.41-.29-.74-.93-.74a2.37,2.37,0,0,0-1.2.37L66,43.2a3.21,3.21,0,0,1,1.68-.45c1.22,0,1.83.66,1.83,1.43a1.44,1.44,0,0,1-1.08,1.37h0A1.49,1.49,0,0,1,69.68,47c0,1-.82,1.78-2.27,1.78a3.16,3.16,0,0,1-1.64-.41Z"/><path class="cls-40" d="M57.88,57.58h0l-1.07.54-.19-.83,1.43-.7H59v5.85H57.88Z"/><path class="cls-40" d="M63.41,62.44V61H60.76v-.72l2.39-3.64h1.31v3.52h.75V61h-.75v1.49Zm0-2.33V58.52c0-.33,0-.67,0-1h0c-.18.37-.33.67-.51,1L61.82,60.1h1.59Z"/><path class="cls-40" d="M65.8,62.44v-.68l.69-.64c1.38-1.28,2-2,2-2.75a.92.92,0,0,0-1-1,2.12,2.12,0,0,0-1.25.48l-.33-.78a2.94,2.94,0,0,1,1.8-.6,1.74,1.74,0,0,1,1.93,1.77c0,1-.74,1.85-1.76,2.8l-.51.44v0h2.4v.92Z"/><path class="cls-40" d="M50.43,98.8h0l-1.07.54-.19-.83,1.43-.7h.92v5.85H50.43Z"/><path class="cls-40" d="M56,103.66v-1.49H53.3v-.72l2.4-3.64H57v3.52h.76v.84H57v1.49Zm0-2.33V99.74c0-.33,0-.67,0-1h0c-.18.37-.33.67-.52,1l-1.08,1.61H56Z"/><path class="cls-40" d="M60.08,98.8h0L59,99.34l-.19-.83,1.43-.7h.92v5.85H60.08Z"/><path class="cls-40" d="M50.43,112.54h0l-1.07.54-.19-.83,1.43-.7h.92v5.85H50.43Z"/><path class="cls-40" d="M56,117.4v-1.49H53.3v-.72l2.4-3.64H57v3.52h.76v.84H57v1.49Zm0-2.33v-1.59c0-.33,0-.67,0-1h0c-.18.37-.33.67-.52,1l-1.08,1.61H56Z"/><path class="cls-40" d="M62.47,114.43c0,1.89-.73,3.07-2.14,3.07s-2.06-1.23-2.07-3,.78-3,2.14-3S62.47,112.71,62.47,114.43Zm-3.09,0c0,1.43.38,2.17,1,2.17s1-.79,1-2.2-.32-2.16-1-2.16S59.38,113,59.38,114.48Z"/><path class="cls-40" d="M88.47,43.84h0l-1.07.54-.19-.83,1.43-.71h.92V48.7H88.47Z"/><path class="cls-40" d="M91.78,47.55a2.87,2.87,0,0,0,1.33.36c.85,0,1.18-.47,1.18-.93,0-.7-.65-1-1.33-1h-.5v-.81H93c.51,0,1.15-.24,1.15-.81,0-.41-.28-.74-.93-.74A2.27,2.27,0,0,0,92,44l-.25-.8a3.21,3.21,0,0,1,1.68-.45c1.22,0,1.83.66,1.83,1.43a1.44,1.44,0,0,1-1.08,1.37h0A1.5,1.5,0,0,1,95.45,47c0,1-.83,1.78-2.28,1.78a3.16,3.16,0,0,1-1.64-.41Z"/><path class="cls-40" d="M96.82,47.9a3.18,3.18,0,0,0,.61,0,2.19,2.19,0,0,0,1.19-.45,2.15,2.15,0,0,0,.76-1.31h0a1.68,1.68,0,0,1-1.28.51,1.72,1.72,0,0,1-1.77-1.81,2.06,2.06,0,0,1,2.11-2.08c1.36,0,2.09,1.06,2.09,2.49a3.64,3.64,0,0,1-1,2.73,3.34,3.34,0,0,1-2,.8,4,4,0,0,1-.67,0Zm.59-3.13a1,1,0,0,0,1,1.07,1.09,1.09,0,0,0,.95-.48.93.93,0,0,0,.06-.33c0-.79-.3-1.47-1-1.47C97.8,43.56,97.41,44.06,97.41,44.77Z"/><path class="cls-40" d="M88.47,57.58h0l-1.07.54-.19-.83,1.43-.71h.92v5.86H88.47Z"/><path class="cls-40" d="M91.78,61.29a2.87,2.87,0,0,0,1.33.36c.85,0,1.18-.47,1.18-.93,0-.7-.65-1-1.33-1h-.5v-.81H93c.51,0,1.15-.24,1.15-.81,0-.41-.28-.74-.93-.74a2.27,2.27,0,0,0-1.2.37l-.25-.8a3.21,3.21,0,0,1,1.68-.45c1.22,0,1.83.66,1.83,1.43a1.44,1.44,0,0,1-1.08,1.37h0a1.5,1.5,0,0,1,1.29,1.46c0,1-.83,1.78-2.28,1.78a3.16,3.16,0,0,1-1.64-.41Z"/><path class="cls-40" d="M97.4,59.38a1.42,1.42,0,0,1-.89-1.29,1.73,1.73,0,0,1,1.95-1.6c1.27,0,1.84.75,1.84,1.47a1.47,1.47,0,0,1-.9,1.33v0a1.58,1.58,0,0,1,1.11,1.48c0,1-.88,1.75-2.13,1.75s-2.08-.8-2.08-1.62a1.61,1.61,0,0,1,1.1-1.51Zm2,1.5c0-.6-.43-.92-1.09-1.1a1.06,1.06,0,0,0-.87,1,.93.93,0,0,0,1,1A.89.89,0,0,0,99.39,60.88ZM97.56,58c0,.48.4.77,1,.92a.94.94,0,0,0,.73-.88.84.84,0,0,0-1.68,0Z"/><path class="cls-40" d="M81,98.8h0l-1.07.54-.19-.83,1.43-.71h.92v5.86H81Z"/><path class="cls-40" d="M84.33,102.51a2.8,2.8,0,0,0,1.33.36c.85,0,1.18-.47,1.18-.93,0-.7-.66-1-1.33-1H85v-.81h.51c.5,0,1.15-.24,1.15-.81,0-.41-.29-.74-.94-.74a2.27,2.27,0,0,0-1.19.37l-.25-.8A3.21,3.21,0,0,1,86,97.71c1.21,0,1.83.66,1.83,1.43a1.44,1.44,0,0,1-1.08,1.37h0A1.5,1.5,0,0,1,88,102c0,1-.82,1.78-2.27,1.78a3.13,3.13,0,0,1-1.64-.41Z"/><path class="cls-40" d="M93,97.8v.72l-2.47,5.14H89.32l2.46-4.92v0H89V97.8Z"/><path class="cls-40" d="M81,112.54h0l-1.07.54-.19-.83,1.43-.71h.92v5.86H81Z"/><path class="cls-40" d="M84.33,116.25a2.8,2.8,0,0,0,1.33.36c.85,0,1.18-.47,1.18-.93,0-.7-.66-1-1.33-1H85v-.81h.51c.5,0,1.15-.24,1.15-.81,0-.41-.29-.74-.94-.74a2.27,2.27,0,0,0-1.19.37l-.25-.8a3.21,3.21,0,0,1,1.68-.45c1.21,0,1.83.66,1.83,1.43a1.44,1.44,0,0,1-1.08,1.37h0A1.5,1.5,0,0,1,88,115.72c0,1-.82,1.78-2.27,1.78a3.13,3.13,0,0,1-1.64-.41Z"/><path class="cls-40" d="M92.48,112.34a3.57,3.57,0,0,0-.55,0,2.08,2.08,0,0,0-2,1.7h0a1.69,1.69,0,0,1,1.31-.56,1.77,1.77,0,0,1,1.8,1.91A2,2,0,0,1,91,117.5,2.24,2.24,0,0,1,88.83,115a3.52,3.52,0,0,1,1-2.62,3.26,3.26,0,0,1,2.08-.86,2.26,2.26,0,0,1,.55,0ZM92,115.47a1,1,0,0,0-1-1.16,1.07,1.07,0,0,0-1,.6.7.7,0,0,0-.07.35c0,.78.38,1.41,1.11,1.41C91.6,116.67,92,116.17,92,115.47Z"/><path class="cls-40" d="M178.72,44h0l-1.07.54-.19-.84,1.43-.7h.92v5.85h-1.07Z"/><path class="cls-40" d="M182,47.75a2.92,2.92,0,0,0,1.33.36c.85,0,1.18-.48,1.18-.94,0-.69-.66-1-1.33-1h-.51v-.81h.51c.5,0,1.15-.23,1.15-.81,0-.41-.29-.74-.94-.74a2.36,2.36,0,0,0-1.19.37l-.26-.8a3.25,3.25,0,0,1,1.69-.45c1.21,0,1.83.66,1.83,1.43a1.43,1.43,0,0,1-1.08,1.37v0a1.48,1.48,0,0,1,1.28,1.46c0,1-.83,1.77-2.27,1.77a3.13,3.13,0,0,1-1.64-.41Z"/><path class="cls-40" d="M190.35,44H188.1l-.17,1.17a2.87,2.87,0,0,1,1.84.35,1.67,1.67,0,0,1,.76,1.48,2.13,2.13,0,0,1-2.35,2,3.37,3.37,0,0,1-1.56-.34l.22-.84a3.1,3.1,0,0,0,1.29.3,1.13,1.13,0,0,0,1.27-1.06c0-.67-.49-1.11-1.66-1.11a5.88,5.88,0,0,0-.8.05l.38-3h3Z"/><path class="cls-40" d="M178.72,57.78h0l-1.07.54-.19-.84,1.43-.7h.92v5.85h-1.07Z"/><path class="cls-40" d="M182,61.49a2.92,2.92,0,0,0,1.33.36c.85,0,1.18-.48,1.18-.94,0-.69-.66-1-1.33-1h-.51v-.81h.51c.5,0,1.15-.23,1.15-.81,0-.41-.29-.74-.94-.74a2.36,2.36,0,0,0-1.19.37l-.26-.8a3.25,3.25,0,0,1,1.69-.45c1.21,0,1.83.67,1.83,1.43a1.43,1.43,0,0,1-1.08,1.37v0A1.48,1.48,0,0,1,185.69,61c0,1-.83,1.77-2.27,1.77a3.13,3.13,0,0,1-1.64-.41Z"/><path class="cls-40" d="M189.07,62.63V61.14h-2.66v-.72l2.4-3.64h1.3v3.53h.76v.83h-.76v1.49Zm0-2.32v-1.6c0-.33,0-.66,0-1h0c-.18.36-.34.66-.52,1l-1.08,1.6v0Z"/><path class="cls-40" d="M178.72,71.52h0l-1.07.54-.19-.84,1.43-.7h.92v5.85h-1.07Z"/><path class="cls-40" d="M182,75.23a2.92,2.92,0,0,0,1.33.36c.85,0,1.18-.48,1.18-.94,0-.69-.66-1-1.33-1h-.51v-.81h.51c.5,0,1.15-.23,1.15-.81,0-.41-.29-.74-.94-.74a2.36,2.36,0,0,0-1.19.37l-.26-.8a3.25,3.25,0,0,1,1.69-.45c1.21,0,1.83.66,1.83,1.43a1.43,1.43,0,0,1-1.08,1.37v0a1.48,1.48,0,0,1,1.28,1.45c0,1-.83,1.78-2.27,1.78a3.13,3.13,0,0,1-1.64-.41Z"/><path class="cls-40" d="M186.85,75.23a3,3,0,0,0,1.33.36c.85,0,1.18-.48,1.18-.94,0-.69-.65-1-1.33-1h-.5v-.81h.5c.51,0,1.15-.23,1.15-.81,0-.41-.28-.74-.93-.74a2.37,2.37,0,0,0-1.2.37l-.25-.8a3.21,3.21,0,0,1,1.68-.45c1.22,0,1.83.66,1.83,1.43a1.43,1.43,0,0,1-1.08,1.37v0a1.49,1.49,0,0,1,1.29,1.45c0,1-.83,1.78-2.28,1.78a3.18,3.18,0,0,1-1.64-.41Z"/><path class="cls-40" d="M178.72,99h0l-1.07.54-.19-.84,1.43-.7h.92v5.85h-1.07Z"/><path class="cls-40" d="M182,102.71a2.92,2.92,0,0,0,1.33.36c.85,0,1.18-.48,1.18-.94,0-.69-.66-1-1.33-1h-.51v-.81h.51c.5,0,1.15-.23,1.15-.81,0-.41-.29-.74-.94-.74a2.36,2.36,0,0,0-1.19.37l-.26-.8a3.25,3.25,0,0,1,1.69-.45c1.21,0,1.83.66,1.83,1.43a1.43,1.43,0,0,1-1.08,1.37v0a1.48,1.48,0,0,1,1.28,1.46c0,1-.83,1.77-2.27,1.77a3.13,3.13,0,0,1-1.64-.41Z"/><path class="cls-40" d="M186.63,103.85v-.68l.69-.64c1.38-1.27,2-2,2-2.75a.92.92,0,0,0-1.05-1,2.15,2.15,0,0,0-1.25.48l-.32-.78a2.9,2.9,0,0,1,1.8-.6,1.73,1.73,0,0,1,1.92,1.77c0,1-.74,1.86-1.76,2.8l-.51.44v0h2.4v.92Z"/><path class="cls-40" d="M178.72,112.74h0l-1.07.54-.19-.84,1.43-.7h.92v5.85h-1.07Z"/><path class="cls-40" d="M182,116.45a2.92,2.92,0,0,0,1.33.36c.85,0,1.18-.48,1.18-.94,0-.69-.66-1-1.33-1h-.51v-.81h.51c.5,0,1.15-.23,1.15-.81,0-.41-.29-.74-.94-.74a2.36,2.36,0,0,0-1.19.37l-.26-.8a3.25,3.25,0,0,1,1.69-.45c1.21,0,1.83.67,1.83,1.43a1.43,1.43,0,0,1-1.08,1.37v0a1.48,1.48,0,0,1,1.28,1.46c0,1-.83,1.77-2.27,1.77a3.13,3.13,0,0,1-1.64-.41Z"/><path class="cls-40" d="M188.37,112.74h0l-1.07.54-.19-.84,1.43-.7h.92v5.85h-1.07Z"/><path class="cls-40" d="M203.68,43.84h0l-1.08.54-.18-.83,1.43-.7h.92V48.7h-1.08Z"/><path class="cls-40" d="M207,47.55a2.8,2.8,0,0,0,1.33.36c.84,0,1.18-.47,1.18-.93,0-.7-.66-1-1.34-1h-.5v-.81h.5c.51,0,1.16-.24,1.16-.81,0-.41-.29-.74-.94-.74a2.4,2.4,0,0,0-1.2.37l-.25-.8a3.21,3.21,0,0,1,1.68-.45c1.22,0,1.83.66,1.83,1.43a1.44,1.44,0,0,1-1.08,1.37h0A1.5,1.5,0,0,1,210.66,47c0,1-.83,1.78-2.28,1.78a3.18,3.18,0,0,1-1.64-.41Z"/><path class="cls-40" d="M215.73,45.73c0,1.89-.74,3.07-2.15,3.07s-2.06-1.23-2.07-3,.78-3,2.15-3S215.73,44,215.73,45.73Zm-3.1.05c0,1.43.39,2.17,1,2.17s1-.79,1-2.2-.31-2.16-1-2.16S212.63,44.32,212.63,45.78Z"/><path class="cls-40" d="M203.68,57.58h0l-1.08.54-.18-.83,1.43-.7h.92v5.85h-1.08Z"/><path class="cls-40" d="M206.77,62.44v-.68l.69-.64c1.38-1.28,2-2,2-2.75a.92.92,0,0,0-1.05-1,2.15,2.15,0,0,0-1.25.48l-.32-.78a2.9,2.9,0,0,1,1.8-.6,1.74,1.74,0,0,1,1.93,1.77c0,1-.74,1.85-1.77,2.8l-.5.44v0h2.39v.92Z"/><path class="cls-40" d="M212,61.64a3.18,3.18,0,0,0,.61,0,2.25,2.25,0,0,0,1.19-.45,2.18,2.18,0,0,0,.75-1.31h0a1.65,1.65,0,0,1-1.27.51,1.73,1.73,0,0,1-1.78-1.81,2.07,2.07,0,0,1,2.11-2.08c1.37,0,2.09,1.06,2.09,2.49a3.64,3.64,0,0,1-1,2.73,3.25,3.25,0,0,1-2,.8,3.84,3.84,0,0,1-.66,0Zm.58-3.13a1,1,0,0,0,1,1.07,1.09,1.09,0,0,0,.95-.48.69.69,0,0,0,.06-.33c0-.79-.29-1.46-1-1.46C213,57.31,212.62,57.8,212.62,58.51Z"/><path class="cls-40" d="M203.68,71.32h0l-1.08.54-.18-.83,1.43-.71h.92v5.86h-1.08Z"/><path class="cls-40" d="M206.77,76.18V75.5l.69-.64c1.38-1.28,2-2,2-2.75a.92.92,0,0,0-1.05-1,2.15,2.15,0,0,0-1.25.48l-.32-.78a2.9,2.9,0,0,1,1.8-.6A1.74,1.74,0,0,1,210.61,72c0,1-.74,1.85-1.77,2.8l-.5.44v0h2.39v.92Z"/><path class="cls-40" d="M212.61,73.12a1.42,1.42,0,0,1-.89-1.29,1.74,1.74,0,0,1,1.95-1.6c1.27,0,1.84.75,1.84,1.47a1.47,1.47,0,0,1-.9,1.33v0a1.59,1.59,0,0,1,1.12,1.48c0,1-.89,1.75-2.14,1.75s-2.08-.8-2.08-1.62a1.62,1.62,0,0,1,1.1-1.51Zm2,1.5c0-.6-.43-.92-1.09-1.1a1.05,1.05,0,0,0-.86,1,.92.92,0,0,0,1,.95A.89.89,0,0,0,214.6,74.62Zm-1.83-2.84c0,.48.4.77,1,.92a1,1,0,0,0,.73-.88.79.79,0,0,0-.84-.83A.78.78,0,0,0,212.77,71.78Z"/><path class="cls-40" d="M203.68,98.8h0l-1.08.54-.18-.83,1.43-.7h.92v5.85h-1.08Z"/><path class="cls-40" d="M206.77,103.66V103l.69-.64c1.38-1.28,2-2,2-2.75a.92.92,0,0,0-1.05-1,2.15,2.15,0,0,0-1.25.48l-.32-.78a2.9,2.9,0,0,1,1.8-.6,1.74,1.74,0,0,1,1.93,1.77c0,1-.74,1.85-1.77,2.8l-.5.44v0h2.39v.92Z"/><path class="cls-40" d="M215.62,97.81v.71l-2.48,5.14H212l2.47-4.92v0h-2.77v-.91Z"/><path class="cls-40" d="M203.68,112.54h0l-1.08.54-.18-.83,1.43-.7h.92v5.85h-1.08Z"/><path class="cls-40" d="M206.77,117.4v-.68l.69-.64c1.38-1.28,2-2,2-2.75a.92.92,0,0,0-1.05-1,2.15,2.15,0,0,0-1.25.48l-.32-.78a2.9,2.9,0,0,1,1.8-.6,1.74,1.74,0,0,1,1.93,1.77c0,1-.74,1.85-1.77,2.8l-.5.44v0h2.39v.92Z"/><path class="cls-40" d="M215.15,112.34a3.74,3.74,0,0,0-.56,0,2.07,2.07,0,0,0-2,1.71h0a1.65,1.65,0,0,1,1.31-.57,1.76,1.76,0,0,1,1.79,1.91,2,2,0,0,1-2.06,2.09,2.23,2.23,0,0,1-2.2-2.53,3.55,3.55,0,0,1,1-2.62,3.28,3.28,0,0,1,2.08-.86,2.35,2.35,0,0,1,.56,0Zm-.51,3.13a1,1,0,0,0-1-1.16,1.07,1.07,0,0,0-1,.6.7.7,0,0,0-.08.35c0,.78.38,1.41,1.11,1.41C214.27,116.67,214.64,116.17,214.64,115.47Z"/><path class="cls-40" d="M229.27,43.84h0l-1.07.54-.19-.83,1.43-.7h.92V48.7h-1.07Z"/><path class="cls-40" d="M232.35,48.7V48l.7-.64c1.37-1.28,2-2,2-2.75a.92.92,0,0,0-1-1,2.09,2.09,0,0,0-1.25.48l-.33-.78a2.9,2.9,0,0,1,1.8-.6,1.73,1.73,0,0,1,1.93,1.77c0,1-.74,1.85-1.77,2.8l-.5.44v0h2.39v.92Z"/><path class="cls-40" d="M240.9,43.76h-2.25l-.17,1.17.42,0a2.6,2.6,0,0,1,1.42.37,1.69,1.69,0,0,1,.76,1.49,2.13,2.13,0,0,1-2.35,2,3.35,3.35,0,0,1-1.56-.35l.22-.83a3.1,3.1,0,0,0,1.29.3A1.14,1.14,0,0,0,240,46.86c0-.68-.49-1.12-1.66-1.12a5.7,5.7,0,0,0-.8.06l.38-2.95h3Z"/><path class="cls-40" d="M229.27,57.58h0l-1.07.54-.19-.83,1.43-.7h.92v5.85h-1.07Z"/><path class="cls-40" d="M232.35,62.44v-.68l.7-.64c1.37-1.28,2-2,2-2.75a.92.92,0,0,0-1-1,2.09,2.09,0,0,0-1.25.48l-.33-.78a2.9,2.9,0,0,1,1.8-.6,1.74,1.74,0,0,1,1.93,1.77c0,1-.74,1.85-1.77,2.8l-.5.44v0h2.39v.92Z"/><path class="cls-40" d="M239.62,62.44V61H237v-.72l2.4-3.64h1.3v3.52h.76V61h-.76v1.49Zm0-2.33V58.52q0-.5,0-1h0c-.18.37-.34.67-.52,1L238,60.1h1.6Z"/><path class="cls-40" d="M229.27,71.32h0l-1.07.54L228,71l1.43-.71h.92v5.86h-1.07Z"/><path class="cls-40" d="M232.35,76.18V75.5l.7-.64c1.37-1.28,2-2,2-2.75a.92.92,0,0,0-1-1,2.09,2.09,0,0,0-1.25.48l-.33-.78a2.9,2.9,0,0,1,1.8-.6A1.74,1.74,0,0,1,236.19,72c0,1-.74,1.85-1.77,2.8l-.5.44v0h2.39v.92Z"/><path class="cls-40" d="M237.4,75a2.87,2.87,0,0,0,1.33.36c.85,0,1.18-.47,1.18-.93,0-.7-.65-1-1.33-1h-.5v-.81h.5c.51,0,1.15-.24,1.15-.81,0-.41-.28-.74-.93-.74a2.27,2.27,0,0,0-1.2.37l-.25-.8a3.21,3.21,0,0,1,1.68-.45c1.22,0,1.83.66,1.83,1.43A1.44,1.44,0,0,1,239.78,73h0a1.5,1.5,0,0,1,1.29,1.46c0,1-.83,1.78-2.28,1.78a3.16,3.16,0,0,1-1.64-.41Z"/><path class="cls-40" d="M229.27,98.8h0l-1.07.54-.19-.83,1.43-.7h.92v5.85h-1.07Z"/><path class="cls-40" d="M232.35,103.66V103l.7-.64c1.37-1.28,2-2,2-2.75a.92.92,0,0,0-1-1,2.09,2.09,0,0,0-1.25.48l-.33-.78a2.9,2.9,0,0,1,1.8-.6,1.73,1.73,0,0,1,1.93,1.77c0,1-.74,1.85-1.77,2.8l-.5.44v0h2.39v.92Z"/><path class="cls-40" d="M237.18,103.66V103l.69-.64c1.38-1.28,2-2,2-2.75a.92.92,0,0,0-1-1,2.15,2.15,0,0,0-1.25.48l-.32-.78a2.9,2.9,0,0,1,1.8-.6A1.73,1.73,0,0,1,241,99.48c0,1-.74,1.85-1.76,2.8l-.51.44v0h2.4v.92Z"/><path class="cls-40" d="M229.27,112.54h0l-1.07.54-.19-.83,1.43-.7h.92v5.85h-1.07Z"/><path class="cls-40" d="M232.35,117.4v-.68l.7-.64c1.37-1.28,2-2,2-2.75a.92.92,0,0,0-1-1,2.09,2.09,0,0,0-1.25.48l-.33-.78a2.9,2.9,0,0,1,1.8-.6,1.74,1.74,0,0,1,1.93,1.77c0,1-.74,1.85-1.77,2.8l-.5.44v0h2.39v.92Z"/><path class="cls-40" d="M238.92,112.54h0l-1.07.54-.19-.83,1.43-.7H240v5.85h-1.07Z"/><path class="cls-40" d="M268.23,43.84h0l-1.07.54-.19-.83,1.43-.71h.92V48.7h-1.07Z"/><path class="cls-40" d="M271.31,48.7V48l.7-.64c1.37-1.28,2-2,2-2.75a.92.92,0,0,0-1-1,2.15,2.15,0,0,0-1.26.48l-.32-.78a2.9,2.9,0,0,1,1.8-.6,1.73,1.73,0,0,1,1.93,1.77c0,1-.74,1.85-1.77,2.8l-.5.44v0h2.39v.92Z"/><path class="cls-40" d="M280.27,45.73c0,1.89-.74,3.07-2.14,3.07s-2.07-1.23-2.08-3,.78-3,2.15-3S280.27,44,280.27,45.73Zm-3.1.05c0,1.43.39,2.17,1,2.17s1-.79,1-2.2-.31-2.16-1-2.16S277.17,44.32,277.17,45.78Z"/><path class="cls-40" d="M270.09,112.54h0l-1.07.54-.19-.83,1.43-.71h.92v5.86h-1.07Z"/><path class="cls-40" d="M274.91,112.54h0l-1.07.54-.19-.83,1.44-.71H276v5.86h-1.07Z"/><path class="cls-40" d="M278.44,116.6a3.18,3.18,0,0,0,.61,0,2.22,2.22,0,0,0,1.19-.45,2.15,2.15,0,0,0,.76-1.31h0a1.68,1.68,0,0,1-1.28.51,1.72,1.72,0,0,1-1.77-1.81,2.06,2.06,0,0,1,2.1-2.08c1.37,0,2.09,1.06,2.09,2.49a3.64,3.64,0,0,1-1,2.73,3.28,3.28,0,0,1-2,.8,4,4,0,0,1-.67,0Zm.59-3.13a1,1,0,0,0,1,1.07,1.07,1.07,0,0,0,.94-.48.68.68,0,0,0,.07-.33c0-.79-.3-1.46-1-1.46C279.42,112.27,279,112.76,279,113.47Z"/><path class="cls-40" d="M292.32,43.84h0l-1.07.54-.19-.83,1.43-.71h.92V48.7h-1.07Z"/><path class="cls-40" d="M297.14,43.84h0l-1.08.54-.18-.83,1.43-.71h.91V48.7h-1.07Z"/><path class="cls-40" d="M301.25,45.64a1.4,1.4,0,0,1-.89-1.29,1.73,1.73,0,0,1,1.95-1.6c1.27,0,1.84.75,1.84,1.47a1.49,1.49,0,0,1-.9,1.33v0a1.58,1.58,0,0,1,1.11,1.48c0,1-.88,1.75-2.13,1.75s-2.08-.8-2.08-1.62a1.61,1.61,0,0,1,1.1-1.51Zm2,1.5c0-.6-.44-.92-1.09-1.1a1.06,1.06,0,0,0-.87,1,.93.93,0,0,0,1,.95A.89.89,0,0,0,303.24,47.14Zm-1.83-2.84c0,.48.4.77.95.92a.94.94,0,0,0,.73-.88.84.84,0,0,0-1.68,0Z"/><path class="cls-40" d="M292.32,57.58h0l-1.07.54-.19-.83,1.43-.71h.92v5.86h-1.07Z"/><path class="cls-40" d="M297.14,57.58h0l-1.08.54-.18-.83,1.43-.71h.91v5.86h-1.07Z"/><path class="cls-40" d="M304.25,56.58v.72l-2.47,5.14h-1.16l2.46-4.92v0h-2.76v-.92Z"/><path class="cls-40" d="M292.32,98.8h0l-1.07.54-.19-.83,1.43-.71h.92v5.86h-1.07Z"/><path class="cls-40" d="M297.14,98.8h0l-1.08.54-.18-.83,1.43-.71h.91v5.86h-1.07Z"/><path class="cls-40" d="M303.79,98.6a3.66,3.66,0,0,0-.56,0,2.06,2.06,0,0,0-2,1.7h0a1.7,1.7,0,0,1,1.32-.56,1.76,1.76,0,0,1,1.79,1.91,2,2,0,0,1-2.06,2.09,2.24,2.24,0,0,1-2.21-2.53,3.56,3.56,0,0,1,1-2.62,3.26,3.26,0,0,1,2.08-.86,2.32,2.32,0,0,1,.56,0Zm-.52,3.13a1,1,0,0,0-1-1.16,1.08,1.08,0,0,0-1,.6.83.83,0,0,0-.07.35c0,.78.38,1.41,1.11,1.41C302.9,102.93,303.27,102.43,303.27,101.73Z"/><path class="cls-40" d="M292.32,112.54h0l-1.07.54-.19-.83,1.43-.71h.92v5.86h-1.07Z"/><path class="cls-40" d="M297.14,112.54h0l-1.08.54-.18-.83,1.43-.71h.91v5.86h-1.07Z"/><path class="cls-40" d="M304,112.46h-2.25l-.17,1.17a2.49,2.49,0,0,1,.41,0,2.6,2.6,0,0,1,1.42.37,1.7,1.7,0,0,1,.77,1.49,2.14,2.14,0,0,1-2.36,2,3.39,3.39,0,0,1-1.56-.35l.23-.83a3,3,0,0,0,1.28.3,1.14,1.14,0,0,0,1.27-1.06c0-.68-.49-1.12-1.65-1.12a5.46,5.46,0,0,0-.8.06l.37-3h3Z"/><path class="cls-40" d="M322.46,43.84h0l-1.07.54-.19-.83,1.43-.71h.92V48.7h-1.07Z"/><path class="cls-40" d="M327.28,43.84h0l-1.07.54-.19-.83,1.43-.71h.92V48.7h-1.07Z"/><path class="cls-40" d="M330.37,48.7V48l.69-.64c1.38-1.28,2-2,2-2.75a.92.92,0,0,0-1.05-1,2.15,2.15,0,0,0-1.25.48l-.32-.78a2.9,2.9,0,0,1,1.8-.6,1.73,1.73,0,0,1,1.92,1.77c0,1-.73,1.85-1.76,2.8l-.51.44v0h2.4v.92Z"/><path class="cls-40" d="M322.46,57.58h0l-1.07.54-.19-.83,1.43-.71h.92v5.86h-1.07Z"/><path class="cls-40" d="M327.28,57.58h0l-1.07.54-.19-.83,1.43-.71h.92v5.86h-1.07Z"/><path class="cls-40" d="M332.11,57.58h0l-1.07.54-.19-.83,1.43-.71h.92v5.86h-1.07Z"/><path class="cls-40" d="M459.84,43.84h0l-1.07.54-.19-.83,1.43-.71h.92V48.7h-1.08Z"/><path class="cls-40" d="M464.67,43.84h0l-1.07.54-.19-.83,1.43-.71h.92V48.7h-1.07Z"/><path class="cls-40" d="M471.89,45.73c0,1.89-.74,3.07-2.14,3.07s-2.07-1.23-2.08-3,.78-3,2.15-3S471.89,44,471.89,45.73Zm-3.1.05c0,1.43.39,2.17,1,2.17s1-.79,1-2.2-.31-2.16-1-2.16S468.79,44.32,468.79,45.78Z"/><path class="cls-40" d="M459.84,57.58h0l-1.07.54-.19-.83,1.43-.71h.92v5.86h-1.08Z"/><path class="cls-40" d="M467.06,59.47c0,1.89-.73,3.07-2.14,3.07s-2.06-1.23-2.07-3,.77-3,2.14-3S467.06,57.75,467.06,59.47Zm-3.09.05c0,1.43.38,2.17,1,2.17s1-.79,1-2.2-.32-2.16-1-2.16S464,58.06,464,59.52Z"/><path class="cls-40" d="M468.2,61.64a3.18,3.18,0,0,0,.61,0,2.25,2.25,0,0,0,1.19-.45,2.13,2.13,0,0,0,.75-1.31h0a1.69,1.69,0,0,1-1.28.51,1.73,1.73,0,0,1-1.78-1.81,2.07,2.07,0,0,1,2.11-2.08c1.37,0,2.09,1.06,2.09,2.49a3.64,3.64,0,0,1-1,2.73,3.23,3.23,0,0,1-2,.8,3.84,3.84,0,0,1-.66,0Zm.58-3.13a1,1,0,0,0,1,1.07,1.07,1.07,0,0,0,.94-.48.69.69,0,0,0,.06-.33c0-.79-.29-1.46-1-1.46C469.18,57.31,468.78,57.8,468.78,58.51Z"/><path class="cls-40" d="M467.3,98.8h0l-1.07.54-.19-.83,1.43-.71h.92v5.86H467.3Z"/><path class="cls-40" d="M474.52,100.68c0,1.9-.74,3.08-2.15,3.08s-2.06-1.23-2.07-3,.78-3,2.15-3S474.52,99,474.52,100.68Zm-3.1.06c0,1.43.39,2.17,1,2.17s1-.79,1-2.2-.31-2.16-1-2.16S471.42,99.28,471.42,100.74Z"/><path class="cls-40" d="M476.23,100.6a1.41,1.41,0,0,1-.9-1.29c0-1,.85-1.6,2-1.6,1.27,0,1.84.75,1.84,1.47a1.48,1.48,0,0,1-.91,1.33v0a1.58,1.58,0,0,1,1.12,1.48c0,1-.88,1.75-2.13,1.75s-2.08-.8-2.08-1.62a1.61,1.61,0,0,1,1.1-1.51Zm2,1.5c0-.6-.43-.92-1.08-1.1a1.06,1.06,0,0,0-.87,1,.92.92,0,0,0,1,1A.88.88,0,0,0,478.21,102.1Zm-1.82-2.84c0,.48.39.77.95.92a.94.94,0,0,0,.73-.88.84.84,0,0,0-1.68,0Z"/><path class="cls-40" d="M467.3,112.54h0l-1.07.54-.19-.83,1.43-.71h.92v5.86H467.3Z"/><path class="cls-40" d="M474.52,114.43c0,1.89-.74,3.07-2.15,3.07s-2.06-1.23-2.07-3,.78-3,2.15-3S474.52,112.71,474.52,114.43Zm-3.1,0c0,1.43.39,2.17,1,2.17s1-.79,1-2.2-.31-2.16-1-2.16S471.42,113,471.42,114.48Z"/><path class="cls-40" d="M479.23,111.54v.72l-2.47,5.14H475.6l2.46-4.92v0H475.3v-.92Z"/><path class="cls-40" d="M490.7,43.84h0l-1.07.54-.19-.83,1.43-.71h.92V48.7H490.7Z"/><path class="cls-40" d="M497.92,45.73c0,1.89-.74,3.07-2.14,3.07s-2.06-1.23-2.07-3,.77-3,2.14-3S497.92,44,497.92,45.73Zm-3.1.05c0,1.43.39,2.17,1,2.17s1-.79,1-2.2-.31-2.16-1-2.16S494.82,44.32,494.82,45.78Z"/><path class="cls-40" d="M502.17,43.64a3.74,3.74,0,0,0-.56,0,2.07,2.07,0,0,0-2,1.7h0A1.7,1.7,0,0,1,501,44.8a1.76,1.76,0,0,1,1.79,1.91,2,2,0,0,1-2.06,2.09,2.24,2.24,0,0,1-2.21-2.53,3.56,3.56,0,0,1,1-2.62,3.26,3.26,0,0,1,2.08-.86,2.32,2.32,0,0,1,.56,0Zm-.52,3.13c0-.68-.36-1.16-1-1.16a1.08,1.08,0,0,0-1,.6.83.83,0,0,0-.07.35c0,.78.38,1.41,1.11,1.41C501.29,48,501.65,47.47,501.65,46.77Z"/><path class="cls-40" d="M490.7,57.58h0l-1.07.54-.19-.83,1.43-.71h.92v5.86H490.7Z"/><path class="cls-40" d="M497.92,59.47c0,1.89-.74,3.07-2.14,3.07s-2.06-1.23-2.07-3,.77-3,2.14-3S497.92,57.75,497.92,59.47Zm-3.1.05c0,1.43.39,2.17,1,2.17s1-.79,1-2.2-.31-2.16-1-2.16S494.82,58.06,494.82,59.52Z"/><path class="cls-40" d="M502.34,57.5h-2.25l-.17,1.17a2.49,2.49,0,0,1,.41,0,2.58,2.58,0,0,1,1.42.37,1.7,1.7,0,0,1,.77,1.49,2.14,2.14,0,0,1-2.36,2,3.42,3.42,0,0,1-1.56-.35l.23-.83a3,3,0,0,0,1.29.3,1.14,1.14,0,0,0,1.26-1.06c0-.68-.49-1.12-1.65-1.12a5.46,5.46,0,0,0-.8.06l.37-3h3Z"/><path class="cls-40" d="M498.15,98.8h0l-1.08.54-.18-.83,1.43-.71h.92v5.86h-1.08Z"/><path class="cls-40" d="M505.37,100.68c0,1.9-.74,3.08-2.14,3.08s-2.06-1.23-2.07-3,.77-3,2.14-3S505.37,99,505.37,100.68Zm-3.09.06c0,1.43.38,2.17,1,2.17s1-.79,1-2.2-.32-2.16-1-2.16S502.28,99.28,502.28,100.74Z"/><path class="cls-40" d="M508.51,103.66v-1.49h-2.66v-.72l2.39-3.65h1.31v3.53h.75v.84h-.75v1.49Zm0-2.33V99.74q0-.49,0-1h0c-.19.37-.34.67-.52,1l-1.08,1.6v0Z"/><path class="cls-40" d="M498.15,112.54h0l-1.08.54-.18-.83,1.43-.71h.92v5.86h-1.08Z"/><path class="cls-40" d="M505.37,114.43c0,1.89-.74,3.07-2.14,3.07s-2.06-1.23-2.07-3,.77-3,2.14-3S505.37,112.71,505.37,114.43Zm-3.09,0c0,1.43.38,2.17,1,2.17s1-.79,1-2.2-.32-2.16-1-2.16S502.28,113,502.28,114.48Z"/><path class="cls-40" d="M506.29,116.25a2.8,2.8,0,0,0,1.33.36c.85,0,1.18-.47,1.18-.93,0-.7-.66-1-1.33-1H507v-.81h.51c.5,0,1.15-.24,1.15-.81,0-.41-.29-.74-.93-.74a2.27,2.27,0,0,0-1.2.37l-.25-.8a3.21,3.21,0,0,1,1.68-.45c1.21,0,1.83.66,1.83,1.43a1.44,1.44,0,0,1-1.08,1.37h0a1.49,1.49,0,0,1,1.28,1.46c0,1-.82,1.78-2.27,1.78a3.13,3.13,0,0,1-1.64-.41Z"/><path class="cls-40" d="M307,50.26h0l-1.07.54-.19-.84,1.43-.7H308v5.85H307Z"/><path class="cls-40" d="M311.79,50.26h0l-1.07.54-.19-.84,1.43-.7h.92v5.85h-1.07Z"/><path class="cls-40" d="M317.31,55.11V53.63h-2.65v-.72l2.39-3.65h1.31v3.53h.75v.84h-.75v1.48Zm0-2.32V51.2c0-.34,0-.67,0-1h0c-.18.37-.33.67-.51,1l-1.08,1.6v0Z"/><path class="cls-40" d="M307,105.22h0l-1.07.54-.19-.84,1.43-.7H308v5.85H307Z"/><path class="cls-40" d="M311.79,105.22h0l-1.07.54-.19-.84,1.43-.7h.92v5.85h-1.07Z"/><path class="cls-40" d="M315.1,108.93a2.92,2.92,0,0,0,1.33.36c.85,0,1.18-.48,1.18-.94,0-.69-.66-1-1.33-1h-.51v-.81h.51c.5,0,1.15-.23,1.15-.81,0-.4-.29-.73-.94-.73a2.33,2.33,0,0,0-1.19.36l-.26-.8a3.35,3.35,0,0,1,1.69-.45c1.21,0,1.82.67,1.82,1.43a1.42,1.42,0,0,1-1.08,1.37v0a1.5,1.5,0,0,1,1.29,1.46c0,1-.83,1.77-2.28,1.77a3.3,3.3,0,0,1-1.64-.4Z"/></g><g id="SYMBOLER-3" data-name="SYMBOLER"><rect class="cls-41" x="403.81" y="2.6" width="31.11" height="31.15"/><rect class="cls-42" x="417.95" y="31.23" width="16.98" height="2.51"/><rect class="cls-42" x="403.74" y="31.47" width="12.73" height="2.32"/><polygon class="cls-42" points="416.47 2.61 416.47 2.6 403.81 2.6 403.81 3.75 414.86 3.75 414.86 6.5 416.48 6.5 416.48 2.61 416.47 2.61"/><path class="cls-42" d="M419.11,11.2a1.79,1.79,0,1,0-1.78-1.79,1.78,1.78,0,0,0,1.78,1.79"/><path class="cls-42" d="M422.88,19.56a.7.7,0,0,1,.62-.35l-2.73-6.33a1.78,1.78,0,0,1,.11.61v5l.93,1.94a1,1,0,0,0,1.33.54,1.14,1.14,0,0,0,.33-.23l-.33-.2a.7.7,0,0,1-.26-1"/><path class="cls-42" d="M426.67,17.73a1.5,1.5,0,1,0-1.49-1.5,1.5,1.5,0,0,0,1.49,1.5"/><path class="cls-42" d="M425.52,24.25l-1.86,5.64a.72.72,0,0,0,.47.9.7.7,0,0,0,.89-.47l1.45-4.47-.33-1a1.23,1.23,0,0,1-.62-.57"/><path class="cls-42" d="M429.29,29.89l-1.76-5.33a1.23,1.23,0,0,1-.75.33l-.31,1,1.45,4.47a.71.71,0,0,0,.89.47.72.72,0,0,0,.48-.9"/><path class="cls-42" d="M426.67,24.91h-.08a1.13,1.13,0,0,1-.45-.09l.33,1,.31-1-.11,0"/><path class="cls-42" d="M426.67,24.91h-.08a1.13,1.13,0,0,1-.45-.09l.33,1,.31-1-.11,0"/><path class="cls-42" d="M426.47,24.18l.92-.06.14.43a1.24,1.24,0,0,0,.38-.89V19.37a1.25,1.25,0,0,0-1.24-1.25h-.08a1.25,1.25,0,0,0-1.24,1.25v.7l.25.13V22l-.25-.14v1.82a1.19,1.19,0,0,0,.17.59l0-.13Z"/><path class="cls-42" d="M426.14,24.82l-.2-.61.53,0-.91-.07,0,.14a1.27,1.27,0,0,0,.62.57"/><path class="cls-42" d="M426.14,24.82l-.2-.61.53,0-.91-.07,0,.14a1.27,1.27,0,0,0,.62.57"/><path class="cls-42" d="M426.47,24.18l.53,0-.22.68a1.19,1.19,0,0,0,.75-.34l-.14-.43Z"/><path class="cls-42" d="M426.47,24.18l.53,0-.22.68a1.19,1.19,0,0,0,.75-.34l-.14-.43Z"/><path class="cls-42" d="M426.47,24.18l-.53,0,.2.61a1.13,1.13,0,0,0,.45.09h.08l.11,0,.22-.68Z"/><path class="cls-42" d="M426.47,24.18l-.53,0,.2.61a1.13,1.13,0,0,0,.45.09h.08l.11,0,.22-.68Z"/><path class="cls-42" d="M426.47,24.18l-.53,0,.2.61a1.13,1.13,0,0,0,.45.09h.08l.11,0,.22-.68Z"/><path class="cls-42" d="M423.85,19.3a.63.63,0,0,0-.35-.09l.18.41a1,1,0,0,1-.21,1.11l1.88,1.11V20.07Z"/><path class="cls-42" d="M423.68,19.62l-.18-.41a.71.71,0,0,0-.36,1.32l.33.2a1,1,0,0,0,.21-1.11"/><path class="cls-42" d="M423.68,19.62l-.18-.41a.71.71,0,0,0-.36,1.32l.33.2a1,1,0,0,0,.21-1.11"/><polygon class="cls-42" points="425.35 21.84 425.6 21.98 425.6 20.2 425.35 20.07 425.35 21.84"/><polygon class="cls-42" points="425.35 21.84 425.6 21.98 425.6 20.2 425.35 20.07 425.35 21.84"/><path class="cls-42" d="M417.3,21.19v-.37l-4.05,7.54a1.05,1.05,0,0,0,.45,1.42,1,1,0,0,0,1.41-.44l3.24-6.11-.28-2Z"/><path class="cls-42" d="M419.43,21.19l-1.08,2,1,6.85a1,1,0,0,0,1.17.9,1.07,1.07,0,0,0,.92-1.18l-1.26-8.69-.13.08Z"/><polygon class="cls-42" points="418.07 21.19 418.35 23.23 419.43 21.19 418.07 21.19"/><polygon class="cls-42" points="418.07 21.19 418.35 23.23 419.43 21.19 418.07 21.19"/><path class="cls-42" d="M420.75,12.85l0,0a1.78,1.78,0,0,0-3.45.61v1.28l-3.51,2.07a1,1,0,0,0-.36,1.39,1,1,0,0,0,1.38.37l2.5-1.29v2.81h0l0,0v.68l.17-.33,1.31.32,1.34.14,0,.16a1.38,1.38,0,0,0,.74-1.4V18.48l-.78-1.63Z"/><path class="cls-42" d="M420.77,12.88l0,0-.65,4,.78,1.63v-5a1.78,1.78,0,0,0-.11-.61"/><path class="cls-42" d="M420.77,12.88l0,0-.65,4,.78,1.63v-5a1.78,1.78,0,0,0-.11-.61"/><polygon class="cls-42" points="417.3 20.82 417.3 21.19 418.07 21.19 418 20.72 418.78 20.81 417.47 20.49 417.3 20.82"/><polygon class="cls-42" points="417.3 20.82 417.3 21.19 418.07 21.19 418 20.72 418.78 20.81 417.47 20.49 417.3 20.82"/><path class="cls-42" d="M418.78,20.81l.76.18-.11.2H420l.13-.08,0-.16Z"/><path class="cls-42" d="M418.78,20.81l.76.18-.11.2H420l.13-.08,0-.16Z"/><polygon class="cls-42" points="418.07 21.19 419.43 21.19 419.54 20.99 418.78 20.81 418 20.72 418.07 21.19"/><polygon class="cls-42" points="418.07 21.19 419.43 21.19 419.54 20.99 418.78 20.81 418 20.72 418.07 21.19"/><polygon class="cls-42" points="418.07 21.19 419.43 21.19 419.54 20.99 418.78 20.81 418 20.72 418.07 21.19"/><rect class="cls-41" x="404.41" y="126.5" width="31.11" height="31.15"/><rect class="cls-42" x="418.55" y="155.13" width="16.98" height="2.51"/><rect class="cls-42" x="404.35" y="155.36" width="12.73" height="2.32"/><polygon class="cls-42" points="417.07 126.51 417.07 126.5 404.41 126.5 404.41 127.65 415.46 127.65 415.46 130.4 417.08 130.4 417.08 126.51 417.07 126.51"/><path class="cls-42" d="M419.71,135.1a1.79,1.79,0,1,0-1.78-1.79,1.79,1.79,0,0,0,1.78,1.79"/><path class="cls-42" d="M423.48,143.46a.71.71,0,0,1,.62-.35l-2.73-6.33a1.79,1.79,0,0,1,.12.61v5l.92,1.94a1,1,0,0,0,1.33.54,1.14,1.14,0,0,0,.33-.23l-.33-.2a.71.71,0,0,1-.26-1"/><path class="cls-42" d="M427.27,141.63a1.5,1.5,0,1,0-1.49-1.5,1.49,1.49,0,0,0,1.49,1.5"/><path class="cls-42" d="M426.12,148.15l-1.86,5.64a.72.72,0,0,0,.48.9.71.71,0,0,0,.89-.47l1.45-4.47-.33-1a1.25,1.25,0,0,1-.63-.57"/><path class="cls-42" d="M429.89,153.79l-1.75-5.34a1.21,1.21,0,0,1-.75.34l-.31,1,1.45,4.47a.7.7,0,0,0,.89.47.72.72,0,0,0,.47-.9"/><path class="cls-42" d="M427.27,148.81h-.07a1.45,1.45,0,0,1-.46-.09l.34,1,.31-1-.12,0"/><path class="cls-42" d="M427.27,148.81h-.07a1.45,1.45,0,0,1-.46-.09l.34,1,.31-1-.12,0"/><path class="cls-42" d="M427.08,148.08,428,148l.15.44a1.23,1.23,0,0,0,.37-.89v-4.29a1.24,1.24,0,0,0-1.24-1.25h-.07a1.25,1.25,0,0,0-1.25,1.25v.7l.25.13v1.78l-.25-.14v1.82a1.19,1.19,0,0,0,.17.59l0-.14Z"/><path class="cls-42" d="M426.74,148.72l-.19-.61.53,0-.92-.07,0,.14a1.27,1.27,0,0,0,.62.57"/><path class="cls-42" d="M426.74,148.72l-.19-.61.53,0-.92-.07,0,.14a1.27,1.27,0,0,0,.62.57"/><path class="cls-42" d="M427.08,148.08l.53,0-.22.68a1.21,1.21,0,0,0,.75-.34L428,148Z"/><path class="cls-42" d="M427.08,148.08l.53,0-.22.68a1.21,1.21,0,0,0,.75-.34L428,148Z"/><path class="cls-42" d="M427.08,148.08l-.53,0,.19.61a1.45,1.45,0,0,0,.46.09h.07l.12,0,.22-.68Z"/><path class="cls-42" d="M427.08,148.08l-.53,0,.19.61a1.45,1.45,0,0,0,.46.09h.07l.12,0,.22-.68Z"/><path class="cls-42" d="M427.08,148.08l-.53,0,.19.61a1.45,1.45,0,0,0,.46.09h.07l.12,0,.22-.68Z"/><path class="cls-42" d="M424.45,143.2a.63.63,0,0,0-.35-.09l.18.41a1,1,0,0,1-.21,1.11l1.88,1.11V144Z"/><path class="cls-42" d="M424.28,143.52l-.18-.41a.71.71,0,0,0-.36,1.32l.33.2a1,1,0,0,0,.21-1.11"/><path class="cls-42" d="M424.28,143.52l-.18-.41a.71.71,0,0,0-.36,1.32l.33.2a1,1,0,0,0,.21-1.11"/><polygon class="cls-42" points="425.95 145.74 426.2 145.88 426.2 144.1 425.95 143.97 425.95 145.74"/><polygon class="cls-42" points="425.95 145.74 426.2 145.88 426.2 144.1 425.95 143.97 425.95 145.74"/><path class="cls-42" d="M417.9,145.09v-.38l-4,7.55a1.06,1.06,0,0,0,.46,1.42,1,1,0,0,0,1.41-.44l3.24-6.12-.29-2Z"/><path class="cls-42" d="M420,145.09l-1.08,2,1,6.86a1,1,0,0,0,1.17.9,1.07,1.07,0,0,0,.92-1.18L420.74,145l-.13.08Z"/><polygon class="cls-42" points="418.67 145.09 418.96 147.12 420.04 145.09 418.67 145.09"/><polygon class="cls-42" points="418.67 145.09 418.96 147.12 420.04 145.09 418.67 145.09"/><path class="cls-42" d="M421.36,136.75v0a1.77,1.77,0,0,0-3.44.61v1.28l-3.51,2.07a1,1,0,0,0,1,1.76l2.5-1.29V144h0l0,0v.67l.17-.32,1.31.32,1.34.14,0,.16a1.39,1.39,0,0,0,.75-1.4v-1.23l-.78-1.63Z"/><path class="cls-42" d="M421.37,136.78v0l-.65,4,.78,1.63v-5a1.79,1.79,0,0,0-.12-.61"/><path class="cls-42" d="M421.37,136.78v0l-.65,4,.78,1.63v-5a1.79,1.79,0,0,0-.12-.61"/><polygon class="cls-42" points="417.9 144.71 417.9 145.09 418.67 145.09 418.61 144.62 419.38 144.71 418.07 144.39 417.9 144.71"/><polygon class="cls-42" points="417.9 144.71 417.9 145.09 418.67 145.09 418.61 144.62 419.38 144.71 418.07 144.39 417.9 144.71"/><path class="cls-42" d="M419.38,144.71l.76.18-.1.2h.57l.13-.08,0-.16Z"/><path class="cls-42" d="M419.38,144.71l.76.18-.1.2h.57l.13-.08,0-.16Z"/><polygon class="cls-42" points="418.67 145.09 420.04 145.09 420.14 144.89 419.38 144.71 418.61 144.62 418.67 145.09"/><polygon class="cls-42" points="418.67 145.09 420.04 145.09 420.14 144.89 419.38 144.71 418.61 144.62 418.67 145.09"/><polygon class="cls-42" points="418.67 145.09 420.04 145.09 420.14 144.89 419.38 144.71 418.61 144.62 418.67 145.09"/><rect class="cls-41" x="123.62" y="126.65" width="31.11" height="31.15"/><rect class="cls-42" x="137.76" y="155.28" width="16.98" height="2.51"/><rect class="cls-42" x="123.55" y="155.52" width="12.73" height="2.32"/><polygon class="cls-42" points="136.28 126.66 136.28 126.65 123.62 126.65 123.62 127.8 134.67 127.8 134.67 130.55 136.29 130.55 136.29 126.66 136.28 126.66"/><path class="cls-42" d="M138.92,135.25a1.79,1.79,0,1,0-1.78-1.79,1.78,1.78,0,0,0,1.78,1.79"/><path class="cls-42" d="M142.69,143.61a.7.7,0,0,1,.62-.35l-2.73-6.33a1.78,1.78,0,0,1,.11.61v5l.93,1.94A1,1,0,0,0,143,145a1.14,1.14,0,0,0,.33-.23l-.33-.2a.7.7,0,0,1-.26-1"/><path class="cls-42" d="M146.48,141.78a1.5,1.5,0,1,0-1.49-1.5,1.5,1.5,0,0,0,1.49,1.5"/><path class="cls-42" d="M145.33,148.3l-1.86,5.64a.72.72,0,0,0,.47.9.72.72,0,0,0,.9-.47l1.45-4.47-.34-1a1.27,1.27,0,0,1-.62-.57"/><path class="cls-42" d="M149.1,153.94l-1.76-5.33a1.23,1.23,0,0,1-.74.33l-.31,1,1.44,4.47a.72.72,0,0,0,.9.47.72.72,0,0,0,.47-.9"/><path class="cls-42" d="M146.48,149h-.07a1.18,1.18,0,0,1-.46-.09l.34,1,.31-1-.12,0"/><path class="cls-42" d="M146.48,149h-.07a1.18,1.18,0,0,1-.46-.09l.34,1,.31-1-.12,0"/><path class="cls-42" d="M146.29,148.23l.91-.06.14.43a1.2,1.2,0,0,0,.38-.89v-4.29a1.25,1.25,0,0,0-1.24-1.25h-.07a1.25,1.25,0,0,0-1.25,1.25v.7l.25.13V146l-.25-.14v1.82a1.19,1.19,0,0,0,.17.59l0-.13Z"/><path class="cls-42" d="M146,148.87l-.19-.61.53,0-.92-.07,0,.14a1.27,1.27,0,0,0,.62.57"/><path class="cls-42" d="M146,148.87l-.19-.61.53,0-.92-.07,0,.14a1.27,1.27,0,0,0,.62.57"/><path class="cls-42" d="M146.29,148.23l.53,0-.22.68a1.19,1.19,0,0,0,.74-.34l-.14-.43Z"/><path class="cls-42" d="M146.29,148.23l.53,0-.22.68a1.19,1.19,0,0,0,.74-.34l-.14-.43Z"/><path class="cls-42" d="M146.29,148.23l-.53,0,.19.61a1.18,1.18,0,0,0,.46.09h.07l.12,0,.22-.68Z"/><path class="cls-42" d="M146.29,148.23l-.53,0,.19.61a1.18,1.18,0,0,0,.46.09h.07l.12,0,.22-.68Z"/><path class="cls-42" d="M146.29,148.23l-.53,0,.19.61a1.18,1.18,0,0,0,.46.09h.07l.12,0,.22-.68Z"/><path class="cls-42" d="M143.66,143.35a.63.63,0,0,0-.35-.09l.18.41a1,1,0,0,1-.21,1.11l1.88,1.11v-1.77Z"/><path class="cls-42" d="M143.49,143.67l-.18-.41a.71.71,0,0,0-.36,1.32l.33.2a1,1,0,0,0,.21-1.11"/><path class="cls-42" d="M143.49,143.67l-.18-.41a.71.71,0,0,0-.36,1.32l.33.2a1,1,0,0,0,.21-1.11"/><polygon class="cls-42" points="145.16 145.89 145.41 146.03 145.41 144.25 145.16 144.12 145.16 145.89"/><polygon class="cls-42" points="145.16 145.89 145.41 146.03 145.41 144.25 145.16 144.12 145.16 145.89"/><path class="cls-42" d="M137.11,145.24v-.37l-4.05,7.54a1,1,0,0,0,.46,1.42,1,1,0,0,0,1.4-.44l3.25-6.12-.29-2Z"/><path class="cls-42" d="M139.24,145.24l-1.07,2,1,6.86a1,1,0,0,0,1.17.9,1.08,1.08,0,0,0,.92-1.18L140,145.16l-.13.08Z"/><polygon class="cls-42" points="137.88 145.24 138.16 147.28 139.24 145.24 137.88 145.24"/><polygon class="cls-42" points="137.88 145.24 138.16 147.28 139.24 145.24 137.88 145.24"/><path class="cls-42" d="M140.57,136.9v0a1.77,1.77,0,0,0-3.44.61v1.28l-3.51,2.07a1,1,0,0,0,1,1.76l2.5-1.29v2.81h0l0,0v.67l.17-.32,1.31.32,1.34.14,0,.16a1.38,1.38,0,0,0,.74-1.4v-1.23l-.77-1.63Z"/><path class="cls-42" d="M140.58,136.93v0l-.65,4,.77,1.63v-5a1.78,1.78,0,0,0-.11-.61"/><path class="cls-42" d="M140.58,136.93v0l-.65,4,.77,1.63v-5a1.78,1.78,0,0,0-.11-.61"/><polygon class="cls-42" points="137.11 144.87 137.11 145.24 137.88 145.24 137.81 144.77 138.59 144.86 137.28 144.54 137.11 144.87"/><polygon class="cls-42" points="137.11 144.87 137.11 145.24 137.88 145.24 137.81 144.77 138.59 144.86 137.28 144.54 137.11 144.87"/><path class="cls-42" d="M138.59,144.86l.76.18-.11.2h.58l.13-.08,0-.16Z"/><path class="cls-42" d="M138.59,144.86l.76.18-.11.2h.58l.13-.08,0-.16Z"/><polygon class="cls-42" points="137.88 145.24 139.24 145.24 139.35 145.04 138.59 144.86 137.81 144.77 137.88 145.24"/><polygon class="cls-42" points="137.88 145.24 139.24 145.24 139.35 145.04 138.59 144.86 137.81 144.77 137.88 145.24"/><polygon class="cls-42" points="137.88 145.24 139.24 145.24 139.35 145.04 138.59 144.86 137.81 144.77 137.88 145.24"/><rect class="cls-41" x="123.62" y="2.77" width="31.11" height="31.15"/><rect class="cls-42" x="137.76" y="31.41" width="16.98" height="2.51"/><rect class="cls-42" x="123.55" y="31.64" width="12.73" height="2.32"/><polygon class="cls-42" points="136.28 2.78 136.28 2.77 123.62 2.77 123.62 3.92 134.67 3.92 134.67 6.67 136.29 6.67 136.29 2.78 136.28 2.78"/><path class="cls-42" d="M138.92,11.37a1.79,1.79,0,1,0-1.78-1.78,1.78,1.78,0,0,0,1.78,1.78"/><path class="cls-42" d="M142.69,19.73a.7.7,0,0,1,.62-.35l-2.73-6.33a1.8,1.8,0,0,1,.11.62v5l.93,1.94a1,1,0,0,0,1.33.54,1,1,0,0,0,.33-.23l-.33-.2a.7.7,0,0,1-.26-1"/><path class="cls-42" d="M146.48,17.9A1.5,1.5,0,1,0,145,16.4a1.5,1.5,0,0,0,1.49,1.5"/><path class="cls-42" d="M145.33,24.42l-1.86,5.64a.72.72,0,0,0,.47.9.7.7,0,0,0,.89-.46L146.28,26,146,25a1.23,1.23,0,0,1-.62-.57"/><path class="cls-42" d="M149.1,30.06l-1.76-5.33a1.23,1.23,0,0,1-.74.33l-.32,1,1.45,4.48a.71.71,0,0,0,.89.46.72.72,0,0,0,.48-.9"/><path class="cls-42" d="M146.48,25.08h-.08A1.13,1.13,0,0,1,146,25l.33,1,.32-1-.12,0"/><path class="cls-42" d="M146.48,25.08h-.08A1.13,1.13,0,0,1,146,25l.33,1,.32-1-.12,0"/><path class="cls-42" d="M146.28,24.35l.92-.06.14.44a1.24,1.24,0,0,0,.38-.9V19.54a1.25,1.25,0,0,0-1.24-1.25h-.08a1.25,1.25,0,0,0-1.24,1.25v.7l.25.13v1.78l-.25-.14v1.82a1.19,1.19,0,0,0,.17.59l0-.13Z"/><path class="cls-42" d="M146,25l-.19-.61.52,0-.91-.06,0,.13A1.23,1.23,0,0,0,146,25"/><path class="cls-42" d="M146,25l-.19-.61.52,0-.91-.06,0,.13A1.23,1.23,0,0,0,146,25"/><path class="cls-42" d="M146.28,24.35l.53,0-.21.68a1.23,1.23,0,0,0,.74-.33l-.14-.44Z"/><path class="cls-42" d="M146.28,24.35l.53,0-.21.68a1.23,1.23,0,0,0,.74-.33l-.14-.44Z"/><path class="cls-42" d="M146.28,24.35l-.52,0L146,25a1.13,1.13,0,0,0,.45.09h.08l.12,0,.21-.68Z"/><path class="cls-42" d="M146.28,24.35l-.52,0L146,25a1.13,1.13,0,0,0,.45.09h.08l.12,0,.21-.68Z"/><path class="cls-42" d="M146.28,24.35l-.52,0L146,25a1.13,1.13,0,0,0,.45.09h.08l.12,0,.21-.68Z"/><path class="cls-42" d="M143.66,19.47a.63.63,0,0,0-.35-.09l.18.41a1,1,0,0,1-.21,1.11L145.16,22V20.25Z"/><path class="cls-42" d="M143.49,19.79l-.18-.41A.71.71,0,0,0,143,20.7l.33.2a1,1,0,0,0,.21-1.11"/><path class="cls-42" d="M143.49,19.79l-.18-.41A.71.71,0,0,0,143,20.7l.33.2a1,1,0,0,0,.21-1.11"/><polygon class="cls-42" points="145.16 22.01 145.41 22.15 145.41 20.37 145.16 20.25 145.16 22.01"/><polygon class="cls-42" points="145.16 22.01 145.41 22.15 145.41 20.37 145.16 20.25 145.16 22.01"/><path class="cls-42" d="M137.11,21.36V21l-4.05,7.54a1.07,1.07,0,0,0,.45,1.43,1.05,1.05,0,0,0,1.41-.45l3.24-6.11-.28-2Z"/><path class="cls-42" d="M139.24,21.36l-1.08,2,1,6.85a1,1,0,0,0,1.17.9,1.07,1.07,0,0,0,.92-1.18L140,21.28l-.13.08Z"/><polygon class="cls-42" points="137.88 21.36 138.16 23.4 139.24 21.36 137.88 21.36"/><polygon class="cls-42" points="137.88 21.36 138.16 23.4 139.24 21.36 137.88 21.36"/><path class="cls-42" d="M140.56,13l0,0a1.77,1.77,0,0,0-3.44.62v1.27L133.63,17a1,1,0,0,0-.37,1.39,1,1,0,0,0,1.38.37l2.5-1.29v2.81h0V21l.17-.33,1.31.32,1.34.15,0,.15a1.37,1.37,0,0,0,.74-1.39V18.65L139.91,17Z"/><path class="cls-42" d="M140.58,13.05l0,0-.64,4,.77,1.63v-5a1.8,1.8,0,0,0-.11-.62"/><path class="cls-42" d="M140.58,13.05l0,0-.64,4,.77,1.63v-5a1.8,1.8,0,0,0-.11-.62"/><polygon class="cls-42" points="137.11 20.99 137.11 21.36 137.88 21.36 137.81 20.89 138.59 20.98 137.28 20.66 137.11 20.99"/><polygon class="cls-42" points="137.11 20.99 137.11 21.36 137.88 21.36 137.81 20.89 138.59 20.98 137.28 20.66 137.11 20.99"/><path class="cls-42" d="M138.59,21l.76.19-.11.19h.58l.13-.08,0-.15Z"/><path class="cls-42" d="M138.59,21l.76.19-.11.19h.58l.13-.08,0-.15Z"/><polygon class="cls-42" points="137.88 21.36 139.24 21.36 139.35 21.16 138.59 20.98 137.81 20.89 137.88 21.36"/><polygon class="cls-42" points="137.88 21.36 139.24 21.36 139.35 21.16 138.59 20.98 137.81 20.89 137.88 21.36"/><polygon class="cls-42" points="137.88 21.36 139.24 21.36 139.35 21.16 138.59 20.98 137.81 20.89 137.88 21.36"/><rect class="cls-41" x="437.42" y="2.61" width="31.16" height="31.18"/><rect class="cls-43" x="451.59" y="31.45" width="17.01" height="2.29"/><rect class="cls-43" x="437.44" y="31.46" width="12.76" height="2.32"/><rect class="cls-43" x="437.44" y="28.14" width="9.35" height="3.94"/><rect class="cls-43" x="437.44" y="25.2" width="6.18" height="3.64"/><polygon class="cls-43" points="450.1 2.63 450.1 2.62 437.42 2.62 437.42 3.77 448.48 3.77 448.48 6.53 450.11 6.53 450.11 2.63 450.1 2.63"/><rect class="cls-43" x="444.67" y="25.17" width="17.01" height="1.06"/><path class="cls-44" d="M452.07,20.59l.15.57a4.19,4.19,0,1,0,6.52-4.44V15.39l.08,0a5.32,5.32,0,1,1-7.38,6.91l-.11-.34Z"/><path class="cls-44" d="M455.12,15.38h-2a.7.7,0,1,1,0-1.39h2.06V12.46a1.52,1.52,0,1,1,3,0s0,4.7,0,4.79a1.45,1.45,0,0,1-1.52,1.49h-4.39l-2.05,4.35a.91.91,0,0,1-.75.38.81.81,0,0,1-.79-.89.93.93,0,0,1,.05-.29l2.33-4.8a.86.86,0,0,1,.65-.42h3.39Z"/><path class="cls-44" d="M456.67,10.66a1.54,1.54,0,1,1,1.53-1.53A1.53,1.53,0,0,1,456.67,10.66Z"/><rect class="cls-41" x="438.25" y="126.42" width="31.16" height="31.18"/><rect class="cls-43" x="452.43" y="155.26" width="17.01" height="2.29"/><rect class="cls-43" x="438.27" y="155.27" width="12.76" height="2.32"/><rect class="cls-43" x="438.27" y="151.95" width="9.35" height="3.94"/><rect class="cls-43" x="438.27" y="149.01" width="6.18" height="3.64"/><polygon class="cls-43" points="450.93 126.44 450.93 126.44 438.25 126.44 438.25 127.58 449.31 127.58 449.31 130.34 450.94 130.34 450.94 126.44 450.93 126.44"/><rect class="cls-43" x="445.5" y="148.98" width="17.01" height="1.06"/><path class="cls-44" d="M452.91,144.4l.14.57a4.19,4.19,0,1,0,6.52-4.44V139.2l.08,0a5.32,5.32,0,1,1-7.38,6.91l-.11-.33Z"/><path class="cls-44" d="M456,139.19h-2a.7.7,0,1,1,0-1.39H456v-1.53a1.55,1.55,0,0,1,1.54-1.55,1.53,1.53,0,0,1,1.51,1.55s0,4.7,0,4.79a1.45,1.45,0,0,1-1.52,1.49h-4.38l-2.06,4.35a.91.91,0,0,1-.74.38.8.8,0,0,1-.79-.88,1,1,0,0,1,0-.3l2.33-4.8a.91.91,0,0,1,.65-.42H456Z"/><path class="cls-44" d="M457.5,134.47a1.53,1.53,0,1,1,1.53-1.53A1.54,1.54,0,0,1,457.5,134.47Z"/><rect class="cls-45" x="372.88" y="132.29" width="25.35" height="25.35"/><path class="cls-39" d="M379.23,149.28l-2.06-8.41h1.63l.8,3.82c.23,1,.42,2.09.55,2.93h0c.14-.89.36-1.89.61-3l.91-3.8h1.61l.84,3.86c.21,1,.38,1.94.51,2.85h0c.15-.92.34-1.9.58-2.91l.87-3.8h1.56l-2.26,8.41h-1.64l-.88-4c-.2-1-.36-1.76-.46-2.67h0c-.14.9-.32,1.71-.56,2.67l-1,4Z"/><path class="cls-39" d="M394,148.89a5.2,5.2,0,0,1-2.17.39,4,4,0,0,1-4.29-4.25,4.23,4.23,0,0,1,4.49-4.44,4.7,4.7,0,0,1,2.05.38l-.34,1.22a4,4,0,0,0-1.65-.33,2.8,2.8,0,0,0-2.94,3.1,2.75,2.75,0,0,0,2.93,3,4.31,4.31,0,0,0,1.68-.31Z"/><rect class="cls-46" x="343.75" y="132.26" width="25.35" height="25.35"/><circle class="cls-39" cx="356.15" cy="139.02" r="2.44"/><path class="cls-39" d="M354.13,150.94a.16.16,0,0,1,0-.22l1.34-1.34-1.94-1.94L352,149a1.39,1.39,0,0,0,0,2l2.55,2.55a.76.76,0,0,0,1.08,0,.78.78,0,0,0,.15-.92Z"/><path class="cls-39" d="M358.18,150.94a.16.16,0,0,0,0-.22l-1.35-1.34,1.94-1.94,1.54,1.52a1.4,1.4,0,0,1,0,2l-2.56,2.55a.75.75,0,0,1-1.07,0,.77.77,0,0,1-.16-.92Z"/><path class="cls-39" d="M359.58,143.44c-.6-.56-1.22-1.37-2-1.52h-2.89c-.76.15-1.38,1-2,1.52l-2.21,2.17a.76.76,0,0,0,0,1.08.75.75,0,0,0,1.07,0l2-2v1.9h5.18v-1.9l2,2a.76.76,0,1,0,1.08-1.08Z"/><rect class="cls-45" x="261.25" y="132.18" width="25.51" height="25.51"/><path class="cls-39" d="M278,149.63l-.17.66a4.87,4.87,0,1,1-7.58-5.16v-1.54l-.09,0a6.18,6.18,0,1,0,8.57,8l.13-.38Z"/><path class="cls-39" d="M274.47,143.59h2.37a.83.83,0,0,0,.84-.82.82.82,0,0,0-.84-.8h-2.4v-1.78a1.77,1.77,0,1,0-3.53,0s0,5.46,0,5.55a1.69,1.69,0,0,0,1.77,1.74h5.09l2.39,5.05a1,1,0,0,0,.86.45.94.94,0,0,0,.92-1,1.34,1.34,0,0,0-.05-.35L279.16,146a1.05,1.05,0,0,0-.76-.49h-3.93Z"/><path class="cls-39" d="M272.67,138.09a1.78,1.78,0,1,0-1.78-1.78A1.78,1.78,0,0,0,272.67,138.09Z"/><rect class="cls-46" x="184.54" y="132.24" width="25.45" height="25.45"/><path class="cls-47" d="M198.77,133.59a1.93,1.93,0,1,1-2,1.93A1.95,1.95,0,0,1,198.77,133.59Z"/><path class="cls-47" d="M189.42,140.34,190.9,148a3.49,3.49,0,0,0,3.21,3.09l4.76,0c1.12,0,1.12-1.15,0-1.22l-4.33,0c-1.53-.09-2.27-.69-2.56-2.4l-1.49-7.37A.55.55,0,1,0,189.42,140.34Z"/><path class="cls-47" d="M195.1,139.57c.23-1.16,1.05-1.8,3.16-1.31l6.88,1.38a1,1,0,0,1-.52,1.93l-5.87-1.2L197,146.23h3.49a1.51,1.51,0,0,1,1.75,1.31l1.19,7.75a1.12,1.12,0,0,1-2.23.26l-1-6.55-5.8.07c-1.11,0-1.76-1.41-1.38-2.77Z"/><path class="cls-47" d="M203.72,144c-.08.49-.63.42-.59-.09.06-2.32,3.2-2.31,3,.25V156a.32.32,0,0,1-.63,0l0-12.3C205.39,142.37,203.64,142.72,203.72,144Z"/><rect class="cls-46" x="157.6" y="132.18" width="25.45" height="25.45"/><path class="cls-47" d="M166.41,133.58a1.93,1.93,0,1,1-2,1.93A1.95,1.95,0,0,1,166.41,133.58Z"/><path class="cls-47" d="M163.07,140.28l1.47,7.62a3.48,3.48,0,0,0,3.22,3.08l4.76,0c1.11,0,1.11-1.15,0-1.22l-4.33,0c-1.54-.08-2.28-.69-2.56-2.4L164.14,140C164,139.39,162.89,139.43,163.07,140.28Z"/><path class="cls-47" d="M164.93,140l1.42,7.24a2.07,2.07,0,0,0,2.49,1.82h5.24l1.11,6.59c.18,1.23,2.45.93,2.23-.33l-1.19-7.68c-.17-.9-.84-1.35-2-1.38l-1.07.07c.83-2.82-.88-5.13-4.24-4.84l-.41-2.25C168,137.55,164.59,137.84,164.93,140Z"/><polyline class="cls-48" points="195.47 119.85 195.47 123.85 191.47 123.85"/><line class="cls-49" x1="186.24" y1="123.85" x2="178.41" y2="123.85"/><polyline class="cls-48" points="175.8 123.85 171.8 123.85 171.8 119.85"/><line class="cls-50" x1="171.8" y1="112.7" x2="171.8" y2="101.97"/><line class="cls-51" x1="171.8" y1="98.39" x2="171.8" y2="44.74"/><polyline class="cls-48" points="171.8 41.16 171.8 37.16 175.8 37.16"/><line class="cls-49" x1="181.02" y1="37.16" x2="188.85" y2="37.16"/><polyline class="cls-48" points="191.47 37.16 195.47 37.16 195.47 41.16"/><line class="cls-50" x1="195.47" y1="48.31" x2="195.47" y2="59.04"/><line class="cls-51" x1="195.47" y1="62.62" x2="195.47" y2="116.27"/><line class="cls-48" x1="183.94" y1="123.88" x2="183.85" y2="132.24"/><rect class="cls-46" x="290.35" y="132.18" width="25.51" height="25.51"/><path class="cls-39" d="M299.87,150.38a1.5,1.5,0,1,1,1.5,1.49,1.5,1.5,0,0,1-1.5-1.49Zm1.5,2.48h0a2.49,2.49,0,1,0-2.49-2.48A2.48,2.48,0,0,0,301.37,152.86Z"/><path class="cls-39" d="M305.35,150.38a1.5,1.5,0,1,1,1.49,1.49,1.5,1.5,0,0,1-1.49-1.49Zm1.49,2.48h0a2.49,2.49,0,1,0-2.49-2.48A2.48,2.48,0,0,0,306.84,152.86Z"/><path class="cls-39" d="M298.87,142.42V140.8a1.61,1.61,0,0,0-1.63-1.62h-1.37s-.23,0-.23.25.23.25.23.25h1.41a1.19,1.19,0,0,1,1.08,1.12v1.62Z"/><path class="cls-39" d="M309.82,142.42H304.6v-5.23h1a4.37,4.37,0,0,1,4.23,4.23Z"/><path class="cls-39" d="M309.81,142.91H298.38v2.22a2.16,2.16,0,0,0,2.27,2.25h6.89a2.16,2.16,0,0,0,2.27-2.25Z"/></g></g></svg>