<svg xmlns="http://www.w3.org/2000/svg" xmlns:xlink="http://www.w3.org/1999/xlink" viewBox="0 0 820 160"><defs><style>.cls-1{fill:#c7c5c4;}.cls-1,.cls-10,.cls-11,.cls-12,.cls-14,.cls-15,.cls-16,.cls-17,.cls-19,.cls-2,.cls-20,.cls-21,.cls-22,.cls-23,.cls-24,.cls-25,.cls-27,.cls-28,.cls-29,.cls-30,.cls-31,.cls-32,.cls-33,.cls-34,.cls-35,.cls-36,.cls-47,.cls-49,.cls-5,.cls-8{stroke:#000;}.cls-1,.cls-10,.cls-11,.cls-12,.cls-14,.cls-15,.cls-16,.cls-17,.cls-19,.cls-2,.cls-20,.cls-22,.cls-23,.cls-24,.cls-25,.cls-27,.cls-28,.cls-29,.cls-30,.cls-31,.cls-32,.cls-33,.cls-34,.cls-35,.cls-36,.cls-40,.cls-41,.cls-42,.cls-43,.cls-47,.cls-49,.cls-5,.cls-52,.cls-53,.cls-8{stroke-miterlimit:10;}.cls-1,.cls-10,.cls-11,.cls-12,.cls-19,.cls-2,.cls-20,.cls-23,.cls-24,.cls-29,.cls-30,.cls-31,.cls-32,.cls-33,.cls-34,.cls-35,.cls-36{stroke-width:0.25px;}.cls-2{fill:#ececec;}.cls-3{fill:#b1b1b0;}.cls-20,.cls-4{fill:#e2e1e1;}.cls-5{fill:#9c9b9b;}.cls-25,.cls-47,.cls-49,.cls-5,.cls-53{stroke-width:0.75px;}.cls-6{fill:#575756;}.cls-45,.cls-7{fill:#fff;}.cls-8{fill:#7cc9d5;}.cls-14,.cls-15,.cls-16,.cls-17,.cls-21,.cls-22,.cls-28,.cls-8{stroke-width:0.5px;}.cls-23,.cls-9{fill:#3d3d3c;}.cls-10,.cls-14,.cls-16,.cls-17,.cls-21,.cls-22,.cls-27,.cls-28,.cls-29,.cls-30,.cls-31,.cls-32,.cls-33,.cls-34,.cls-35,.cls-40,.cls-41,.cls-42,.cls-43,.cls-52,.cls-53{fill:none;}.cls-11{fill:#faca9e;}.cls-12,.cls-24{fill:#70706f;}.cls-13,.cls-15,.cls-25{fill:#9d9b9b;}.cls-14{stroke-dasharray:1.95 0.97;}.cls-16{stroke-dasharray:1.95 0.97;}.cls-17{stroke-dasharray:1.95 0.97;}.cls-18{fill:#55accf;}.cls-19{fill:url(#radial-gradient);}.cls-21,.cls-22,.cls-24,.cls-52,.cls-53{stroke-linecap:round;}.cls-21{stroke-linejoin:round;}.cls-26{fill:#7b7b7a;}.cls-28{stroke-dasharray:1.95 0.97;}.cls-29{stroke-dasharray:4.84 4.84;}.cls-30{stroke-dasharray:3.74 3.74;}.cls-31{stroke-dasharray:3.74 3.74 3.74 3.74;}.cls-32{stroke-dasharray:4.75 4.75;}.cls-33{stroke-dasharray:3.74 3.74;}.cls-34{stroke-dasharray:3.74 3.74 3.74 3.74;}.cls-35{stroke-dasharray:4.75 4.75;}.cls-36{fill:#3c3c3b;}.cls-37{fill:#ffd421;}.cls-38{fill:#221e20;}.cls-39{fill:#29295d;}.cls-40,.cls-41,.cls-42,.cls-43{stroke:#e53212;}.cls-41{stroke-dasharray:6.05 6.05;}.cls-42{stroke-dasharray:8.66 8.66;}.cls-43{stroke-dasharray:8.66 8.66 8.66 8.66;}.cls-44{fill:#251a5f;}.cls-45,.cls-46{fill-rule:evenodd;}.cls-46{fill:#009c3d;}.cls-47{fill:#41358a;}.cls-48{fill:#2a2559;}.cls-49{fill:#cc1626;}.cls-50{fill:#901918;}.cls-51{font-size:9px;fill:#ffd500;font-family:MyriadPro-Semibold, Myriad Pro;font-weight:700;}.cls-52,.cls-53{stroke:#575756;}</style><radialGradient id="radial-gradient" cx="147.82" cy="111.39" r="5.28" gradientUnits="userSpaceOnUse"><stop offset="0" stop-color="#575757"/><stop offset="0.51" stop-color="#999ba4"/><stop offset="0.93" stop-color="#fff"/></radialGradient></defs><title>Type73B_vogn4_BFM73B</title><g id="Type73B_vogn4_BFM73B"><g id="Vognkasse"><rect id="GULV" class="cls-1" x="33.2" y="39.26" width="648.97" height="79.37"/><rect class="cls-2" x="588.52" y="38.47" width="92.58" height="80.92"/><path class="cls-3" d="M805.63,79.16c0-4.8-.08-9.38-.21-13.6a15.65,15.65,0,0,0,.1-1.69,15.06,15.06,0,0,0-11.4-14.59h0c-8.42-2.61-9.84-3.26-14.93-4.47a282.05,282.05,0,0,0-48.11-7.33h-49v83.06h49a281.06,281.06,0,0,0,48.1-7.34c5.1-1.2,6.52-1.85,14.94-4.46v0a15,15,0,0,0,11.4-14.58c0-.49,0-1-.08-1.44C805.55,88.48,805.63,83.94,805.63,79.16ZM753.92,89.69a20.37,20.37,0,0,1-17.51,10h-.23v0h-17v20.8H701.9V107.05h0V88.56h0v-.12h-19.7V68.64h15.95v-.07h3.77V49.89h0V37.67h17.3V58.85h16.63c.2,0,.39,0,.58,0a20.39,20.39,0,0,1,17.51,9.95Z"/><path class="cls-4" d="M736.41,58.82c-.19,0-.38,0-.58,0H719.2V37.67H701.9V49.89h0V68.57h-3.77v.07H682.22v19.8h19.7v.12h0v18.49h0v13.42h17.3V99.67h17v0h.23a20.37,20.37,0,0,0,17.51-10V68.77A20.39,20.39,0,0,0,736.41,58.82Z"/><polygon class="cls-5" points="720.46 75.32 720.46 83.74 722.91 86.18 740.26 86.18 740.26 72.86 722.93 72.86 720.46 75.32"/><polygon class="cls-6" points="723.02 83.42 723.03 83.42 725.3 85.75 726.99 85.75 724.72 83.42 724.71 83.42 724.71 75.6 724.72 75.6 726.99 73.27 725.3 73.27 723.05 75.58 723.02 75.58 723.02 83.42"/><rect class="cls-7" x="720.85" y="76.32" width="1.98" height="6.51"/><text></text><rect class="cls-8" x="30.92" y="36.96" width="180.7" height="2.84"/><rect class="cls-8" x="252.82" y="36.96" width="438.95" height="2.84"/><rect class="cls-9" x="30.94" y="36.98" width="26.93" height="2.83"/><rect class="cls-9" x="76.58" y="36.96" width="14.03" height="2.83"/><rect class="cls-9" x="127.56" y="36.95" width="14.03" height="2.83"/><rect class="cls-9" x="178.55" y="36.96" width="33.07" height="2.83"/><rect class="cls-9" x="252.82" y="36.95" width="46.17" height="2.83"/><rect class="cls-9" x="335.77" y="36.91" width="14.35" height="2.83"/><rect class="cls-9" x="386.81" y="36.95" width="17.13" height="2.83"/><rect class="cls-9" x="440.72" y="36.96" width="14.27" height="2.83"/><rect class="cls-9" x="491.68" y="36.95" width="46.22" height="2.83"/><rect class="cls-9" x="579.14" y="36.98" width="33.03" height="2.83"/><rect class="cls-9" x="611.64" y="36.92" width="44.69" height="2.83"/><rect class="cls-9" x="677.37" y="36.92" width="14.36" height="2.83"/><rect class="cls-8" x="30.82" y="117.84" width="180.69" height="2.83"/><rect class="cls-8" x="252.71" y="117.84" width="438.94" height="2.83"/><rect class="cls-9" x="30.84" y="117.85" width="26.93" height="2.83"/><rect class="cls-9" x="76.48" y="117.83" width="14.03" height="2.83"/><rect class="cls-9" x="127.45" y="117.83" width="51.44" height="2.83"/><rect class="cls-9" x="178.44" y="117.84" width="33.07" height="2.83"/><rect class="cls-9" x="252.71" y="117.83" width="46.16" height="2.83"/><rect class="cls-9" x="335.66" y="117.79" width="14.35" height="2.83"/><rect class="cls-9" x="386.7" y="117.83" width="17.12" height="2.83"/><rect class="cls-9" x="440.61" y="117.84" width="14.27" height="2.83"/><rect class="cls-9" x="491.57" y="117.82" width="46.22" height="2.83"/><rect class="cls-9" x="579.03" y="117.85" width="33.03" height="2.83"/><rect class="cls-9" x="611.15" y="117.79" width="46.04" height="2.83"/><rect class="cls-9" x="677.42" y="117.79" width="14.2" height="2.83"/><rect class="cls-10" x="30.74" y="36.95" width="2.83" height="83.23"/><rect class="cls-9" x="30.75" y="37.02" width="2.83" height="30.33"/><rect class="cls-9" x="30.75" y="89.9" width="2.83" height="30.35"/><rect class="cls-3" x="217.3" y="95.16" width="34.18" height="23.42"/><rect class="cls-3" x="217.3" y="39.47" width="34.18" height="22.75"/><path class="cls-11" d="M76,46.66,76,46l0-.72,0-.75,0-.75L75.85,43l0-.73-.06-.7,0-.66a1,1,0,0,0-.57-.79.69.69,0,0,0-.28,0H67a.66.66,0,0,0-.28,0,1,1,0,0,0-.57.79h0l0,.66-.06.7,0,.73,0,.74,0,.75,0,.75,0,.72,0,.68,0,.65V50l0,.48,0,.47,0,.47,0,.46,0,.46,0,.45,0,.44,0,.42,0,.4,0,.38,0,.36,0,.34,0,.32,0,.31,0,.29,0,.29,0,.28,0,.27,0,.28.05.27,0,.28,0,.28,0,.28,0,.28,0,.29,0,.29.06.29.05.29.06.3.06.31.06.31.07.31.07.32.08.32.08.33.09.34.1.34.1.34.1.34.12.34.11.34.12.33.13.33.13.33.14.31.14.31.15.3.15.29.16.28.17.26.17.25.19.23.2.21.21.19.23.15.25.13.27.08.3,0,.31,0,.27-.08.25-.13.23-.15.21-.19.2-.21.19-.23.17-.25.17-.26.16-.28.15-.29.15-.3.14-.31.14-.31.13-.33.13-.33L74,64l.11-.34.12-.34.1-.34.1-.34.1-.34.09-.34.08-.33.08-.32.07-.32.07-.31.06-.31.06-.31.06-.3,0-.29.06-.29,0-.29,0-.29.05-.28,0-.28,0-.28,0-.28,0-.27,0-.28,0-.27,0-.28,0-.29,0-.29,0-.31,0-.32,0-.34,0-.36,0-.38,0-.4,0-.42,0-.44,0-.45,0-.46,0-.46L76,51l0-.47L76,50v-2.7Z"/><path class="cls-11" d="M76,109.07v-.51l0-.49,0-.48,0-.47v-.47l0-.47,0-.46,0-.45,0-.43,0-.42,0-.41,0-.38,0-.36,0-.34,0-.32,0-.3,0-.3,0-.28,0-.28,0-.28,0-.27,0-.28,0-.28-.05-.27,0-.28,0-.29,0-.28,0-.29-.05-.29-.06-.3,0-.3-.06-.3-.07-.31-.07-.31-.07-.32-.08-.33-.08-.33-.09-.33-.09-.34-.1-.34-.11-.34-.11-.34L74,94.11l-.12-.34-.13-.33-.13-.32-.13-.32-.14-.31-.15-.3L73,91.91l-.16-.28-.17-.26-.17-.25-.19-.23-.19-.21-.22-.19-.23-.15-.25-.13-.27-.09-.3-.05-.3.05-.28.09-.25.13-.23.15-.21.19-.2.21-.18.23-.18.25-.16.26-.17.28-.15.28-.15.3-.14.31-.14.32-.13.32-.12.33-.12.34-.12.34-.11.34-.11.34-.1.34-.09.34-.09.33-.09.33L67,96.8l-.08.32-.07.31-.06.31-.06.3-.06.3,0,.3,0,.29-.06.29,0,.28,0,.29,0,.28,0,.27,0,.28,0,.28,0,.27,0,.28,0,.28,0,.28,0,.3,0,.3,0,.32,0,.34,0,.36,0,.38,0,.41,0,.42,0,.43,0,.45,0,.46,0,.47,0,.47,0,.47v.48l0,.49v2.85l0,.69,0,.72,0,.74,0,.75.05.75,0,.73.06.7.06.65h0a1,1,0,0,0,.57.79.72.72,0,0,0,.29.06H74.8a.75.75,0,0,0,.29-.06,1,1,0,0,0,.56-.79l.06-.65.05-.7.06-.73.05-.75,0-.75,0-.74,0-.72,0-.69v-2.34Z"/><path class="cls-11" d="M330.57,47.44l0-.64,0-.69,0-.72,0-.74,0-.75-.05-.75-.05-.72-.05-.7-.06-.66a1,1,0,0,0-.57-.79.71.71,0,0,0-.28-.06h-7.89a.71.71,0,0,0-.28.06,1,1,0,0,0-.57.79h0l-.06.66-.06.7-.05.72-.05.75,0,.75,0,.74,0,.72,0,.69v2.85l0,.5v.47l0,.48,0,.47,0,.46,0,.46,0,.45,0,.44,0,.42,0,.4,0,.38,0,.36,0,.34,0,.32,0,.31,0,.29,0,.29,0,.28,0,.27,0,.28,0,.27,0,.28.05.28,0,.28.05.28,0,.29.05.28.06.3.05.29.06.3.06.3.06.31.07.32.07.32.08.32.09.33.08.34.1.34.1.34.11.34.11.34.11.34.12.33.13.33.13.33.14.31.14.31.15.3.15.29.16.28.17.26.18.25.18.23.2.21.21.18.23.16.25.12.28.09.3,0,.3,0L326,68l.25-.12.23-.16.22-.18.19-.21.19-.23.17-.25.17-.26.16-.28.15-.29.15-.3.15-.31.13-.31.13-.33.13-.33.12-.33.12-.34.11-.34.1-.34.1-.34.1-.34.09-.34.08-.33.08-.32.07-.32.07-.32.06-.31.06-.3.06-.3.06-.29.05-.3,0-.28.05-.29.05-.28.05-.28,0-.28,0-.28,0-.27,0-.28,0-.27,0-.28,0-.29,0-.29,0-.31,0-.32,0-.34,0-.36,0-.38,0-.4,0-.42,0-.44,0-.45V52l0-.46,0-.47,0-.48,0-.47v-.5l0-.51v-1.7Z"/><rect class="cls-12" x="251.57" y="39.45" width="23.12" height="15.2"/><rect class="cls-12" x="251.48" y="103.38" width="23.12" height="15.2"/><rect class="cls-12" x="202.84" y="39.47" width="14.46" height="15.2"/><rect class="cls-12" x="185.66" y="103.35" width="31.7" height="15.19"/><polygon class="cls-9" points="33.35 39.4 33.35 54.39 33.36 54.39 33.36 67.22 35.32 67.22 35.32 54.39 37.24 54.39 37.24 39.4 33.35 39.4"/><polygon class="cls-9" points="35.31 90.67 33.36 90.67 33.36 103.49 33.34 103.49 33.34 118.49 37.23 118.49 37.23 103.49 35.31 103.49 35.31 90.67"/><rect class="cls-2" x="252.8" y="54.81" width="20.61" height="11.99"/><rect class="cls-2" x="252.88" y="91.21" width="20.61" height="11.98"/><rect class="cls-2" x="274.66" y="39.54" width="17.86" height="14.97"/><rect class="cls-13" x="104.53" y="104.7" width="11.34" height="11.34" rx="0.85" ry="0.85"/><rect class="cls-14" x="104.53" y="104.7" width="11.34" height="11.34" rx="0.85" ry="0.85"/><path class="cls-15" d="M103.58,118.46v-3.69a.85.85,0,0,1,.85-.85h11.34a.85.85,0,0,1,.85.85v3.69Z"/><rect class="cls-13" x="118.46" y="104.69" width="11.34" height="11.34" rx="0.85" ry="0.85"/><rect class="cls-16" x="118.46" y="104.69" width="11.34" height="11.34" rx="0.85" ry="0.85"/><path class="cls-15" d="M130.74,118.46v-3.7a.85.85,0,0,0-.85-.85H118.55a.85.85,0,0,0-.85.85v3.7Z"/><rect class="cls-13" x="704.88" y="91.47" width="11.34" height="11.34" rx="0.85" ry="0.85"/><rect class="cls-17" x="704.88" y="91.47" width="11.34" height="11.34" rx="0.85" ry="0.85"/><path class="cls-15" d="M702.45,90.53h3.7a.85.85,0,0,1,.85.85v11.33a.85.85,0,0,1-.85.85h-3.7Z"/><rect class="cls-18" x="133.64" y="66.87" width="52.4" height="51.55"/><path class="cls-4" d="M178.19,91.92v19.75H155.14c-.11-2.94-3.4-5.3-7.44-5.3s-7.34,2.36-7.45,5.3h-6.69v6.75h44.63v.07H186V91.92Z"/><path class="cls-19" d="M154,111.39c0,2.34-2.75,4.25-6.14,4.25s-6.14-1.91-6.14-4.25,2.75-4.26,6.14-4.26S154,109,154,111.39Z"/><path class="cls-20" d="M176.13,96h-5.6c-3.95,0-7.16,2.48-7.16,5.52s3.23,5.53,7.21,5.53h7.59V96Z"/><path class="cls-20" d="M175.69,98.14a7.88,7.88,0,0,0-5.13-1.77c-3.77,0-6.83,2.32-6.83,5.18s3.06,5.17,6.83,5.17a7.93,7.93,0,0,0,5.13-1.76Z"/><line class="cls-21" x1="133.69" y1="67.02" x2="133.69" y2="118.42"/><line class="cls-22" x1="134.98" y1="66.87" x2="185.87" y2="66.87"/><line class="cls-22" x1="185.87" y1="66.77" x2="185.87" y2="70.26"/><line class="cls-22" x1="186" y1="90.65" x2="186" y2="118.34"/><line class="cls-21" x1="185.99" y1="118.48" x2="133.69" y2="118.42"/><line class="cls-22" x1="134.93" y1="118.4" x2="134.93" y2="67.02"/><rect class="cls-9" x="273.58" y="79.29" width="0.85" height="11.76"/><rect class="cls-9" x="273.58" y="67.21" width="0.85" height="11.46"/><rect class="cls-9" x="133.97" y="42.58" width="0.71" height="24.83"/><rect class="cls-9" x="133.97" y="39.37" width="0.71" height="2.74"/><rect class="cls-9" x="35.55" y="79.11" width="0.71" height="11.76"/><rect class="cls-9" x="35.55" y="67.03" width="0.71" height="11.76"/><rect class="cls-23" x="587.93" y="85.88" width="0.85" height="32.7"/><rect class="cls-23" x="587.93" y="39.54" width="0.85" height="32.07"/><polygon class="cls-23" points="573.52 71.73 573.52 72.58 587.79 72.58 587.79 71.73 573.52 71.73"/><path class="cls-10" d="M587.87,71.85H573.59A14.33,14.33,0,0,0,587.87,86Z"/><path class="cls-10" d="M680.79,71.18H666.52a14.33,14.33,0,0,0,14.27,14.19Z"/><rect class="cls-23" x="680.94" y="85.38" width="0.85" height="32.7"/><rect class="cls-23" x="680.94" y="39.04" width="0.85" height="32.07"/><polygon class="cls-23" points="666.53 71.23 666.53 72.08 680.8 72.08 680.8 71.23 666.53 71.23"/><polygon class="cls-24" points="540.27 109.45 534.39 103.57 516.36 103.57 516.36 118.31 540.27 118.31 540.27 109.45"/><polygon class="cls-12" points="582.56 103.52 587.95 103.52 587.95 118.26 576.68 118.26 576.68 109.41 582.56 103.52"/><polygon class="cls-24" points="540.17 48.47 534.28 54.35 516.26 54.35 516.26 39.61 540.17 39.61 540.17 48.47"/><polygon class="cls-12" points="582.46 54.4 587.84 54.4 587.84 39.66 576.57 39.66 576.57 48.52 582.46 54.4"/><rect class="cls-12" x="681.71" y="39.48" width="20.22" height="29.44"/><polygon class="cls-12" points="675.84 45.82 675.84 68.9 681.59 68.9 681.59 39.51 679.4 39.51 675.84 45.82"/><rect class="cls-12" x="681.7" y="89.41" width="20.22" height="29.44"/><polygon class="cls-12" points="675.83 112.51 679.38 118.82 681.58 118.82 681.58 89.43 675.83 89.43 675.83 112.51"/><polygon class="cls-12" points="633.91 111.79 633.91 117.7 654.93 117.7 654.93 113.35 653.35 111.79 633.91 111.79"/><polygon class="cls-12" points="633.91 40.03 633.91 45.95 653.35 45.95 654.93 44.39 654.93 40.03 633.91 40.03"/><polygon class="cls-25" points="99.27 67.38 99.27 58.97 96.83 56.52 79.48 56.52 79.48 69.85 96.81 69.85 99.27 67.38"/><polygon class="cls-26" points="96.71 59.29 96.71 59.29 94.43 56.96 92.74 56.96 95.02 59.29 95.02 59.29 95.02 67.11 95.02 67.11 92.74 69.44 94.43 69.44 96.69 67.13 96.71 67.13 96.71 59.29"/><rect class="cls-7" x="96.88" y="59.94" width="1.98" height="6.52"/><polygon class="cls-25" points="99.26 51.6 99.26 43.18 96.82 40.74 79.47 40.74 79.47 54.06 96.8 54.06 99.26 51.6"/><polygon class="cls-26" points="96.7 43.51 96.7 43.51 94.42 41.18 92.74 41.18 95.01 43.51 95.02 43.51 95.02 51.32 95.01 51.32 92.74 53.65 94.42 53.65 96.68 51.34 96.7 51.34 96.7 43.51"/><rect class="cls-7" x="96.87" y="44.16" width="1.98" height="6.51"/><polygon class="cls-25" points="42.22 67.51 42.22 59.09 44.66 56.65 62.01 56.65 62.01 69.97 44.68 69.97 42.22 67.51"/><polygon class="cls-26" points="44.78 59.41 44.78 59.41 47.06 57.09 48.74 57.09 46.47 59.41 46.47 59.41 46.47 67.23 46.47 67.23 48.74 69.56 47.06 69.56 44.8 67.25 44.78 67.25 44.78 59.41"/><rect class="cls-7" x="42.62" y="60.07" width="1.98" height="6.52"/><polygon class="cls-25" points="42.23 51.72 42.23 43.31 44.67 40.86 62.02 40.86 62.02 54.19 44.69 54.19 42.23 51.72"/><polygon class="cls-26" points="44.78 43.63 44.79 43.63 47.06 41.3 48.75 41.3 46.48 43.63 46.47 43.63 46.47 51.45 46.48 51.45 48.75 53.78 47.06 53.78 44.81 51.47 44.78 51.47 44.78 43.63"/><rect class="cls-7" x="42.63" y="44.28" width="1.98" height="6.51"/><polygon class="cls-25" points="99.27 114.88 99.27 106.47 96.83 104.03 79.48 104.03 79.48 117.35 96.81 117.35 99.27 114.88"/><polygon class="cls-26" points="96.71 106.79 96.71 106.79 94.43 104.46 92.74 104.46 95.02 106.79 95.02 106.79 95.02 114.61 95.02 114.61 92.74 116.94 94.43 116.94 96.69 114.63 96.71 114.63 96.71 106.79"/><rect class="cls-7" x="96.88" y="107.44" width="1.98" height="6.51"/><polygon class="cls-25" points="99.26 99.1 99.26 90.69 96.82 88.24 79.47 88.24 79.47 101.56 96.8 101.56 99.26 99.1"/><polygon class="cls-26" points="96.7 91.01 96.7 91.01 94.42 88.68 92.74 88.68 95.01 91.01 95.02 91.01 95.02 98.82 95.01 98.82 92.74 101.15 94.42 101.15 96.68 98.85 96.7 98.85 96.7 91.01"/><rect class="cls-7" x="96.87" y="91.66" width="1.98" height="6.51"/><polygon class="cls-25" points="42.22 115.01 42.22 106.59 44.66 104.15 62.01 104.15 62.01 117.47 44.68 117.47 42.22 115.01"/><polygon class="cls-26" points="44.78 106.92 44.78 106.92 47.06 104.59 48.74 104.59 46.47 106.92 46.47 106.92 46.47 114.73 46.47 114.73 48.74 117.06 47.06 117.06 44.8 114.75 44.78 114.75 44.78 106.92"/><rect class="cls-7" x="42.62" y="107.57" width="1.98" height="6.51"/><polygon class="cls-25" points="42.23 99.22 42.23 90.81 44.67 88.37 62.02 88.37 62.02 101.69 44.69 101.69 42.23 99.22"/><polygon class="cls-26" points="44.78 91.13 44.79 91.13 47.06 88.8 48.75 88.8 46.48 91.13 46.47 91.13 46.47 98.95 46.48 98.95 48.75 101.28 47.06 101.28 44.81 98.97 44.78 98.97 44.78 91.13"/><rect class="cls-7" x="42.63" y="91.79" width="1.98" height="6.51"/><polygon class="cls-25" points="571.88 67.69 571.88 59.27 569.43 56.83 552.08 56.83 552.08 70.15 569.41 70.15 571.88 67.69"/><polygon class="cls-26" points="569.32 59.59 569.31 59.59 567.03 57.27 565.35 57.27 567.62 59.59 567.63 59.59 567.63 67.41 567.62 67.41 565.35 69.74 567.03 69.74 569.29 67.43 569.32 67.43 569.32 59.59"/><rect class="cls-7" x="569.48" y="60.25" width="1.98" height="6.51"/><polygon class="cls-25" points="571.87 51.9 571.87 43.48 569.42 41.04 552.07 41.04 552.07 54.37 569.4 54.37 571.87 51.9"/><polygon class="cls-26" points="569.31 43.81 569.3 43.81 567.03 41.48 565.34 41.48 567.61 43.81 567.62 43.81 567.62 51.62 567.61 51.62 565.34 53.95 567.03 53.95 569.28 51.65 569.31 51.65 569.31 43.81"/><rect class="cls-7" x="569.48" y="44.46" width="1.98" height="6.51"/><polygon class="cls-25" points="572.15 114.58 572.15 106.17 569.71 103.72 552.36 103.72 552.36 117.05 569.69 117.05 572.15 114.58"/><polygon class="cls-26" points="569.59 106.49 569.59 106.49 567.31 104.16 565.62 104.16 567.9 106.49 567.9 106.49 567.9 114.31 567.9 114.31 565.62 116.64 567.31 116.64 569.56 114.33 569.59 114.33 569.59 106.49"/><rect class="cls-7" x="569.76" y="107.15" width="1.98" height="6.51"/><polygon class="cls-25" points="572.14 98.8 572.14 90.39 569.7 87.94 552.35 87.94 552.35 101.26 569.68 101.26 572.14 98.8"/><polygon class="cls-26" points="569.58 90.71 569.58 90.71 567.3 88.38 565.62 88.38 567.89 90.71 567.89 90.71 567.89 98.53 567.89 98.53 565.62 100.85 567.3 100.85 569.56 98.55 569.58 98.55 569.58 90.71"/><rect class="cls-7" x="569.75" y="91.36" width="1.98" height="6.51"/><polygon class="cls-25" points="538.71 59.49 538.71 67.91 536.26 70.35 518.91 70.35 518.91 57.03 536.25 57.03 538.71 59.49"/><polygon class="cls-26" points="536.15 67.58 536.14 67.58 533.87 69.91 532.18 69.91 534.46 67.58 534.46 67.58 534.46 59.77 534.46 59.77 532.18 57.44 533.87 57.44 536.12 59.74 536.15 59.74 536.15 67.58"/><rect class="cls-7" x="536.32" y="60.41" width="1.98" height="6.52"/><polygon class="cls-25" points="538.51 90.67 538.51 99.08 536.06 101.53 518.71 101.53 518.71 88.2 536.04 88.2 538.51 90.67"/><polygon class="cls-26" points="535.95 98.76 535.94 98.76 533.67 101.09 531.98 101.09 534.25 98.76 534.26 98.76 534.26 90.94 534.25 90.94 531.98 88.62 533.67 88.62 535.92 90.92 535.95 90.92 535.95 98.76"/><rect class="cls-7" x="536.12" y="91.59" width="1.98" height="6.51"/><polygon class="cls-25" points="511.63 67.97 511.63 59.55 509.18 57.11 491.83 57.11 491.83 70.43 509.16 70.43 511.63 67.97"/><polygon class="cls-26" points="509.07 59.87 509.06 59.87 506.79 57.54 505.1 57.54 507.37 59.87 507.38 59.87 507.38 67.69 507.37 67.69 505.1 70.02 506.79 70.02 509.04 67.71 509.07 67.71 509.07 59.87"/><rect class="cls-7" x="509.23" y="60.53" width="1.98" height="6.52"/><polygon class="cls-25" points="511.62 52.18 511.62 43.77 509.17 41.32 491.82 41.32 491.82 54.64 509.15 54.64 511.62 52.18"/><polygon class="cls-26" points="509.06 44.09 509.05 44.09 506.78 41.76 505.09 41.76 507.36 44.09 507.37 44.09 507.37 51.9 507.36 51.9 505.09 54.23 506.78 54.23 509.03 51.93 509.06 51.93 509.06 44.09"/><rect class="cls-7" x="509.23" y="44.74" width="1.98" height="6.51"/><polygon class="cls-25" points="511.45 114.66 511.45 106.24 509.01 103.8 491.66 103.8 491.66 117.12 508.99 117.12 511.45 114.66"/><polygon class="cls-26" points="508.89 106.56 508.89 106.56 506.61 104.24 504.93 104.24 507.2 106.56 507.2 106.56 507.2 114.38 507.2 114.38 504.93 116.71 506.61 116.71 508.87 114.4 508.89 114.4 508.89 106.56"/><rect class="cls-7" x="509.06" y="107.22" width="1.98" height="6.51"/><polygon class="cls-25" points="511.44 98.87 511.44 90.46 509 88.01 491.65 88.01 491.65 101.33 508.98 101.33 511.44 98.87"/><polygon class="cls-26" points="508.89 90.78 508.88 90.78 506.61 88.45 504.92 88.45 507.19 90.78 507.2 90.78 507.2 98.6 507.19 98.6 504.92 100.92 506.61 100.92 508.86 98.62 508.89 98.62 508.89 90.78"/><rect class="cls-7" x="509.05" y="91.43" width="1.98" height="6.51"/><polygon class="cls-25" points="484.8 67.97 484.8 59.55 482.35 57.11 465 57.11 465 70.43 482.33 70.43 484.8 67.97"/><polygon class="cls-26" points="482.24 59.88 482.23 59.88 479.95 57.55 478.27 57.55 480.54 59.88 480.55 59.88 480.55 67.69 480.54 67.69 478.27 70.02 479.95 70.02 482.21 67.72 482.24 67.72 482.24 59.88"/><rect class="cls-7" x="482.4" y="60.53" width="1.98" height="6.51"/><polygon class="cls-25" points="484.79 52.18 484.79 43.77 482.34 41.32 464.99 41.32 464.99 54.65 482.32 54.65 484.79 52.18"/><polygon class="cls-26" points="482.23 44.09 482.22 44.09 479.95 41.76 478.26 41.76 480.53 44.09 480.54 44.09 480.54 51.91 480.53 51.91 478.26 54.24 479.95 54.24 482.2 51.93 482.23 51.93 482.23 44.09"/><rect class="cls-7" x="482.4" y="44.75" width="1.98" height="6.51"/><polygon class="cls-25" points="484.62 114.66 484.62 106.24 482.18 103.8 464.83 103.8 464.83 117.12 482.16 117.12 484.62 114.66"/><polygon class="cls-26" points="482.06 106.57 482.06 106.57 479.78 104.24 478.1 104.24 480.37 106.57 480.38 106.57 480.38 114.38 480.37 114.38 478.1 116.71 479.78 116.71 482.04 114.41 482.06 114.41 482.06 106.57"/><rect class="cls-7" x="482.23" y="107.22" width="1.98" height="6.51"/><polygon class="cls-25" points="484.61 98.88 484.61 90.46 482.17 88.02 464.82 88.02 464.82 101.34 482.15 101.34 484.61 98.88"/><polygon class="cls-26" points="482.06 90.78 482.05 90.78 479.77 88.45 478.09 88.45 480.36 90.78 480.37 90.78 480.37 98.6 480.36 98.6 478.09 100.93 479.77 100.93 482.03 98.62 482.06 98.62 482.06 90.78"/><rect class="cls-7" x="482.22" y="91.44" width="1.98" height="6.51"/><polygon class="cls-25" points="457.72 67.55 457.72 59.14 455.28 56.7 437.93 56.7 437.93 70.02 455.26 70.02 457.72 67.55"/><polygon class="cls-26" points="455.17 59.46 455.16 59.46 452.88 57.13 451.2 57.13 453.47 59.46 453.48 59.46 453.48 67.28 453.47 67.28 451.2 69.61 452.88 69.61 455.14 67.3 455.17 67.3 455.17 59.46"/><rect class="cls-7" x="455.33" y="60.11" width="1.98" height="6.52"/><polygon class="cls-25" points="457.71 51.77 457.71 43.35 455.27 40.91 437.92 40.91 437.92 54.23 455.25 54.23 457.71 51.77"/><polygon class="cls-26" points="455.16 43.67 455.15 43.67 452.88 41.35 451.19 41.35 453.46 43.67 453.47 43.67 453.47 51.49 453.46 51.49 451.19 53.82 452.88 53.82 455.13 51.52 455.16 51.52 455.16 43.67"/><rect class="cls-7" x="455.33" y="44.33" width="1.98" height="6.51"/><polygon class="cls-25" points="457.55 114.25 457.55 105.83 455.11 103.38 437.76 103.38 437.76 116.71 455.09 116.71 457.55 114.25"/><polygon class="cls-26" points="454.99 106.15 454.99 106.15 452.71 103.82 451.02 103.82 453.3 106.15 453.3 106.15 453.3 113.97 453.3 113.97 451.02 116.3 452.71 116.3 454.97 113.99 454.99 113.99 454.99 106.15"/><rect class="cls-7" x="455.16" y="106.81" width="1.98" height="6.51"/><polygon class="cls-25" points="457.54 98.46 457.54 90.05 455.1 87.6 437.75 87.6 437.75 100.92 455.08 100.92 457.54 98.46"/><polygon class="cls-26" points="454.99 90.37 454.98 90.37 452.7 88.04 451.02 88.04 453.29 90.37 453.3 90.37 453.3 98.19 453.29 98.19 451.02 100.51 452.7 100.51 454.96 98.21 454.99 98.21 454.99 90.37"/><rect class="cls-7" x="455.15" y="91.02" width="1.98" height="6.51"/><polygon class="cls-25" points="431.03 67.62 431.03 59.21 428.59 56.77 411.23 56.77 411.23 70.09 428.57 70.09 431.03 67.62"/><polygon class="cls-26" points="428.47 59.53 428.46 59.53 426.19 57.2 424.5 57.2 426.77 59.53 426.78 59.53 426.78 67.35 426.77 67.35 424.5 69.68 426.19 69.68 428.44 67.37 428.47 67.37 428.47 59.53"/><rect class="cls-7" x="428.64" y="60.18" width="1.98" height="6.52"/><polygon class="cls-25" points="431.02 51.84 431.02 43.42 428.58 40.98 411.22 40.98 411.22 54.3 428.56 54.3 431.02 51.84"/><polygon class="cls-26" points="428.46 43.75 428.46 43.75 426.18 41.42 424.49 41.42 426.77 43.75 426.77 43.75 426.77 51.56 426.77 51.56 424.49 53.89 426.18 53.89 428.44 51.59 428.46 51.59 428.46 43.75"/><rect class="cls-7" x="428.63" y="44.4" width="1.98" height="6.51"/><polygon class="cls-25" points="430.86 114.32 430.86 105.9 428.41 103.45 411.06 103.45 411.06 116.78 428.39 116.78 430.86 114.32"/><polygon class="cls-26" points="428.3 106.22 428.29 106.22 426.02 103.89 424.33 103.89 426.6 106.22 426.61 106.22 426.61 114.04 426.6 114.04 424.33 116.37 426.02 116.37 428.27 114.06 428.3 114.06 428.3 106.22"/><rect class="cls-7" x="428.47" y="106.88" width="1.98" height="6.51"/><polygon class="cls-25" points="430.85 98.53 430.85 90.12 428.4 87.67 411.05 87.67 411.05 100.99 428.39 100.99 430.85 98.53"/><polygon class="cls-26" points="428.29 90.44 428.29 90.44 426.01 88.11 424.32 88.11 426.6 90.44 426.6 90.44 426.6 98.25 426.6 98.25 424.32 100.58 426.01 100.58 428.26 98.28 428.29 98.28 428.29 90.44"/><rect class="cls-7" x="428.46" y="91.09" width="1.98" height="6.51"/><polygon class="cls-25" points="406.38 67.8 406.38 59.39 403.93 56.94 386.58 56.94 386.58 70.27 403.91 70.27 406.38 67.8"/><polygon class="cls-26" points="403.82 59.71 403.81 59.71 401.54 57.38 399.85 57.38 402.12 59.71 402.13 59.71 402.13 67.53 402.12 67.53 399.85 69.85 401.54 69.85 403.79 67.55 403.82 67.55 403.82 59.71"/><rect class="cls-7" x="403.99" y="60.36" width="1.98" height="6.51"/><polygon class="cls-25" points="406.37 52.02 406.37 43.6 403.92 41.16 386.57 41.16 386.57 54.48 403.9 54.48 406.37 52.02"/><polygon class="cls-26" points="403.81 43.92 403.8 43.92 401.53 41.59 399.84 41.59 402.11 43.92 402.12 43.92 402.12 51.74 402.11 51.74 399.84 54.07 401.53 54.07 403.78 51.76 403.81 51.76 403.81 43.92"/><rect class="cls-7" x="403.98" y="44.58" width="1.98" height="6.51"/><polygon class="cls-25" points="406.2 114.49 406.2 106.08 403.76 103.63 386.41 103.63 386.41 116.95 403.74 116.95 406.2 114.49"/><polygon class="cls-26" points="403.64 106.4 403.64 106.4 401.36 104.07 399.68 104.07 401.95 106.4 401.95 106.4 401.95 114.21 401.95 114.21 399.68 116.54 401.36 116.54 403.62 114.24 403.64 114.24 403.64 106.4"/><rect class="cls-7" x="403.81" y="107.05" width="1.98" height="6.51"/><polygon class="cls-25" points="406.19 98.71 406.19 90.29 403.75 87.85 386.4 87.85 386.4 101.17 403.73 101.17 406.19 98.71"/><polygon class="cls-26" points="403.64 90.61 403.63 90.61 401.36 88.29 399.67 88.29 401.94 90.61 401.95 90.61 401.95 98.43 401.94 98.43 399.67 100.76 401.36 100.76 403.61 98.45 403.64 98.45 403.64 90.61"/><rect class="cls-7" x="403.81" y="91.27" width="1.98" height="6.51"/><polygon class="cls-25" points="379.75 67.68 379.75 59.26 377.3 56.82 359.95 56.82 359.95 70.14 377.29 70.14 379.75 67.68"/><polygon class="cls-26" points="377.19 59.58 377.18 59.58 374.91 57.26 373.22 57.26 375.49 59.58 375.5 59.58 375.5 67.4 375.49 67.4 373.22 69.73 374.91 69.73 377.16 67.42 377.19 67.42 377.19 59.58"/><rect class="cls-7" x="377.36" y="60.24" width="1.98" height="6.52"/><polygon class="cls-25" points="379.74 51.89 379.74 43.48 377.3 41.03 359.94 41.03 359.94 54.35 377.28 54.35 379.74 51.89"/><polygon class="cls-26" points="377.18 43.8 377.18 43.8 374.9 41.47 373.21 41.47 375.49 43.8 375.49 43.8 375.49 51.62 375.49 51.62 373.21 53.95 374.9 53.95 377.15 51.64 377.18 51.64 377.18 43.8"/><rect class="cls-7" x="377.35" y="44.45" width="1.98" height="6.51"/><polygon class="cls-25" points="379.58 114.37 379.58 105.95 377.13 103.51 359.78 103.51 359.78 116.83 377.11 116.83 379.58 114.37"/><polygon class="cls-26" points="377.02 106.28 377.01 106.28 374.74 103.95 373.05 103.95 375.32 106.28 375.33 106.28 375.33 114.09 375.32 114.09 373.05 116.42 374.74 116.42 376.99 114.11 377.02 114.11 377.02 106.28"/><rect class="cls-7" x="377.19" y="106.93" width="1.98" height="6.51"/><polygon class="cls-25" points="379.57 98.58 379.57 90.17 377.12 87.72 359.77 87.72 359.77 101.05 377.11 101.05 379.57 98.58"/><polygon class="cls-26" points="377.01 90.49 377 90.49 374.73 88.16 373.04 88.16 375.31 90.49 375.32 90.49 375.32 98.31 375.31 98.31 373.04 100.63 374.73 100.63 376.98 98.33 377.01 98.33 377.01 90.49"/><rect class="cls-7" x="377.18" y="91.15" width="1.98" height="6.51"/><polygon class="cls-25" points="353.75 67.8 353.75 59.39 351.31 56.94 333.96 56.94 333.96 70.27 351.29 70.27 353.75 67.8"/><polygon class="cls-26" points="351.19 59.71 351.19 59.71 348.91 57.38 347.23 57.38 349.5 59.71 349.51 59.71 349.51 67.53 349.5 67.53 347.23 69.85 348.91 69.85 351.17 67.55 351.19 67.55 351.19 59.71"/><rect class="cls-7" x="351.37" y="60.36" width="1.98" height="6.51"/><polygon class="cls-25" points="353.75 52.02 353.75 43.6 351.3 41.16 333.95 41.16 333.95 54.48 351.28 54.48 353.75 52.02"/><polygon class="cls-26" points="351.19 43.92 351.18 43.92 348.91 41.59 347.22 41.59 349.49 43.92 349.5 43.92 349.5 51.74 349.49 51.74 347.22 54.07 348.91 54.07 351.16 51.76 351.19 51.76 351.19 43.92"/><rect class="cls-7" x="351.36" y="44.58" width="1.98" height="6.51"/><polygon class="cls-25" points="353.58 114.49 353.58 106.08 351.14 103.63 333.79 103.63 333.79 116.95 351.12 116.95 353.58 114.49"/><polygon class="cls-26" points="351.02 106.4 351.02 106.4 348.74 104.07 347.05 104.07 349.33 106.4 349.33 106.4 349.33 114.21 349.33 114.21 347.05 116.54 348.74 116.54 351 114.24 351.02 114.24 351.02 106.4"/><rect class="cls-7" x="351.19" y="107.05" width="1.98" height="6.51"/><polygon class="cls-25" points="353.57 98.71 353.57 90.29 351.13 87.85 333.78 87.85 333.78 101.17 351.11 101.17 353.57 98.71"/><polygon class="cls-26" points="351.01 90.61 351.01 90.61 348.73 88.29 347.05 88.29 349.32 90.61 349.33 90.61 349.33 98.43 349.32 98.43 347.05 100.76 348.73 100.76 350.99 98.45 351.01 98.45 351.01 90.61"/><rect class="cls-7" x="351.19" y="91.27" width="1.98" height="6.51"/><polygon class="cls-25" points="296.94 43.67 296.94 52.09 299.39 54.53 316.74 54.53 316.74 41.21 299.4 41.21 296.94 43.67"/><polygon class="cls-26" points="299.5 51.77 299.51 51.77 301.78 54.09 303.47 54.09 301.2 51.77 301.19 51.77 301.19 43.95 301.2 43.95 303.47 41.62 301.78 41.62 299.53 43.92 299.5 43.92 299.5 51.77"/><rect class="cls-7" x="297.35" y="44.6" width="1.98" height="6.51"/><polygon class="cls-25" points="296.95 59.46 296.95 67.87 299.39 70.32 316.75 70.32 316.75 57 299.41 57 296.95 59.46"/><polygon class="cls-26" points="299.51 67.55 299.51 67.55 301.79 69.88 303.48 69.88 301.2 67.55 301.2 67.55 301.2 59.73 301.2 59.73 303.48 57.41 301.79 57.41 299.54 59.71 299.51 59.71 299.51 67.55"/><rect class="cls-7" x="297.36" y="60.38" width="1.98" height="6.52"/><path class="cls-27" d="M805.21,79.16c0-4.81-.07-9.39-.21-13.6a15.84,15.84,0,0,0,.1-1.7,15,15,0,0,0-11.4-14.58h0c-8.42-2.61-9.84-3.26-14.93-4.47a280.91,280.91,0,0,0-48.11-7.33h-49v83.05h49a281.06,281.06,0,0,0,48.11-7.33c5.09-1.2,6.51-1.86,14.93-4.46v0a15,15,0,0,0,11.4-14.58c0-.49,0-1-.08-1.45C805.14,88.48,805.21,83.94,805.21,79.16Z"/><rect class="cls-13" x="304.53" y="103.7" width="11.34" height="11.34" rx="0.85" ry="0.85"/><rect class="cls-28" x="304.53" y="103.7" width="11.34" height="11.34" rx="0.85" ry="0.85"/><path class="cls-15" d="M303.58,117.46v-3.69a.86.86,0,0,1,.85-.85h11.34a.85.85,0,0,1,.85.85v3.69Z"/><rect class="cls-7" x="656.34" y="36.26" width="21.08" height="3.49"/><rect class="cls-7" x="657.17" y="117.63" width="20.43" height="3.49"/></g><g id="Layer_2" data-name="Layer 2"><polyline class="cls-10" points="677.63 123.23 677.63 120.23 674.63 120.23"/><line class="cls-29" x1="669.79" y1="120.23" x2="662.52" y2="120.23"/><path class="cls-10" d="M660.1,120.23h-3v.16a19.09,19.09,0,0,0,.2,2.84"/><path class="cls-30" d="M658.16,126.86a20,20,0,0,0,2.52,5"/><path class="cls-31" d="M661.82,133.34a20.09,20.09,0,0,0,11,6.69"/><path class="cls-10" d="M674.63,140.35a20.12,20.12,0,0,0,2.59.17c.14,0,.27,0,.41,0v-3"/><line class="cls-32" x1="677.63" y1="132.74" x2="677.63" y2="125.61"/><polyline class="cls-10" points="677.42 34.62 677.42 37.62 674.42 37.62"/><line class="cls-29" x1="669.58" y1="37.62" x2="662.32" y2="37.62"/><path class="cls-10" d="M659.9,37.62h-3s0-.1,0-.15a20.31,20.31,0,0,1,.2-2.84"/><path class="cls-33" d="M658,31a20.17,20.17,0,0,1,2.52-5"/><path class="cls-34" d="M661.61,24.52a20.09,20.09,0,0,1,11-6.69"/><path class="cls-10" d="M674.42,17.5a22.27,22.27,0,0,1,2.6-.16l.4,0v3"/><line class="cls-35" x1="677.42" y1="25.11" x2="677.42" y2="32.24"/><rect class="cls-36" x="176.98" y="35.28" width="40.42" height="0.85"/><rect class="cls-36" x="176.96" y="121.53" width="40.42" height="0.85"/></g><g id="Symboler"><rect class="cls-37" x="218.51" y="119.58" width="31.11" height="31.14"/><path class="cls-38" d="M234.81,127.86a1.8,1.8,0,1,0-1.79-1.8,1.79,1.79,0,0,0,1.79,1.8"/><path class="cls-38" d="M233,136.84V134l-2.52,1.3a1,1,0,0,1-1-1.78l3.53-2.09v-1.28a1.79,1.79,0,1,1,3.58,0v6.26c0,1.12-.56,1.25-1,1.59v8.58a1,1,0,1,1-2,0v-7.53l-3,1.64,0,3.78a1,1,0,1,1-2,0v-4.31c0-.56,1.06-1.25,1.06-1.25l3.53-2.08"/><path class="cls-38" d="M235.81,133.55l1.72,3.6a1,1,0,0,0,1.34.54,1,1,0,0,0,.54-1.35l-2.95-6.82"/><path class="cls-38" d="M242.42,134.44a1.51,1.51,0,1,0-1.5-1.51,1.51,1.51,0,0,0,1.5,1.51"/><path class="cls-38" d="M242.76,141l-2,6.16a.7.7,0,0,1-.89.47.73.73,0,0,1-.48-.91l1.91-5.82"/><path class="cls-38" d="M241.69,141l2,6.16a.72.72,0,0,0,.9.47.73.73,0,0,0,.48-.91l-1.92-5.82"/><rect class="cls-38" x="241.09" y="134.83" width="2.58" height="6.84" rx="1.25" ry="1.25"/><path class="cls-38" d="M241,138.18l-1.56-.81a.63.63,0,0,0-.87.23.65.65,0,0,0,.23.88l2.2,1.29"/><rect class="cls-38" x="232.65" y="148.21" width="16.98" height="2.51"/><rect class="cls-38" x="218.44" y="148.44" width="12.73" height="2.32"/><rect class="cls-38" x="218.44" y="145.12" width="9.34" height="3.94"/><rect class="cls-38" x="218.44" y="142.18" width="6.17" height="3.63"/><polygon class="cls-38" points="231.17 119.59 231.17 119.58 218.51 119.58 218.51 120.73 229.56 120.73 229.56 123.48 231.18 123.48 231.18 119.59 231.17 119.59"/><rect class="cls-37" x="219.11" y="6.99" width="31.11" height="31.14"/><path class="cls-38" d="M235.4,15.27a1.8,1.8,0,1,0-1.79-1.79,1.79,1.79,0,0,0,1.79,1.79"/><path class="cls-38" d="M233.61,24.25V21.43l-2.52,1.3a1,1,0,0,1-1-1.78l3.54-2.08V17.59a1.79,1.79,0,1,1,3.58,0v6.26c0,1.11-.56,1.24-1,1.58V34a1,1,0,1,1-2,0V26.48l-3,1.64,0,3.79a1,1,0,0,1-2.05,0V27.6c0-.57,1.06-1.26,1.06-1.26l3.54-2.08"/><path class="cls-38" d="M236.4,21l1.72,3.6a1,1,0,0,0,1.34.54,1,1,0,0,0,.54-1.35l-2.94-6.81"/><path class="cls-38" d="M243,21.85a1.51,1.51,0,1,0-1.5-1.51,1.5,1.5,0,0,0,1.5,1.51"/><path class="cls-38" d="M243.35,28.38l-2,6.15A.72.72,0,0,1,240,34.1l1.92-5.82"/><path class="cls-38" d="M242.28,28.38l2,6.15a.71.71,0,0,0,.89.47.72.72,0,0,0,.48-.9l-1.91-5.82"/><rect class="cls-38" x="241.69" y="22.24" width="2.58" height="6.84" rx="1.25" ry="1.25"/><path class="cls-38" d="M241.6,25.59,240,24.78a.64.64,0,0,0-.64,1.11l2.2,1.3"/><rect class="cls-38" x="233.24" y="35.63" width="16.98" height="2.51"/><rect class="cls-38" x="219.04" y="35.86" width="12.73" height="2.32"/><rect class="cls-38" x="219.04" y="32.54" width="9.34" height="3.94"/><rect class="cls-38" x="219.04" y="29.6" width="6.17" height="3.63"/><polygon class="cls-38" points="231.76 7 231.76 7 219.1 7 219.1 8.14 230.15 8.14 230.15 10.89 231.77 10.89 231.77 7 231.76 7"/><rect class="cls-39" x="161.08" y="124.93" width="25.35" height="25.35"/><path class="cls-7" d="M167.43,141.92l-2.06-8.41H167l.8,3.82c.23,1,.41,2.09.55,2.93h0c.13-.89.36-1.89.61-2.95l.91-3.8h1.61l.83,3.87c.22,1,.39,1.93.52,2.84h0c.15-.92.34-1.9.58-2.91l.87-3.8h1.56l-2.26,8.41H172l-.87-4c-.2-1-.36-1.76-.46-2.67h0c-.15.9-.32,1.71-.56,2.67l-1,4Z"/><path class="cls-7" d="M182.19,141.53a5.2,5.2,0,0,1-2.17.39,4,4,0,0,1-4.29-4.24,4.23,4.23,0,0,1,4.49-4.45,4.74,4.74,0,0,1,2.05.38l-.34,1.22a4,4,0,0,0-1.65-.32,2.79,2.79,0,0,0-2.94,3.09,2.75,2.75,0,0,0,2.93,3,4.25,4.25,0,0,0,1.67-.31Z"/><rect class="cls-39" x="281.46" y="125.08" width="25.51" height="25.51"/><path class="cls-7" d="M298.21,142.52l-.17.66a4.87,4.87,0,1,1-7.57-5.16v-1.54l-.09.05a6.18,6.18,0,1,0,8.57,8l.12-.39Z"/><path class="cls-7" d="M294.67,136.48H297a.83.83,0,0,0,.85-.82.82.82,0,0,0-.85-.8h-2.39v-1.78a1.79,1.79,0,0,0-1.78-1.8,1.77,1.77,0,0,0-1.75,1.8s0,5.46,0,5.56a1.69,1.69,0,0,0,1.76,1.74H298l2.39,5.05a1,1,0,0,0,.86.45,1,1,0,0,0,.92-1,1.27,1.27,0,0,0-.05-.34l-2.71-5.58a1.08,1.08,0,0,0-.76-.49h-3.94Z"/><path class="cls-7" d="M292.87,131a1.78,1.78,0,1,0-1.77-1.78A1.78,1.78,0,0,0,292.87,131Z"/><rect class="cls-39" x="619.46" y="124.82" width="25.41" height="25.41"/><path class="cls-7" d="M625.79,143.53a1.7,1.7,0,0,1-1.7-1.7v-7.38a1.7,1.7,0,0,1,1.7-1.7h1.13v10.78Z"/><path class="cls-7" d="M638.26,143.53a1.71,1.71,0,0,0,1.71-1.7v-7.38a1.71,1.71,0,0,0-1.71-1.7h-1.13v10.78Z"/><path class="cls-7" d="M630.61,131.48h2.84v1.27h-2.84v-1.27Zm0-.86h0a.85.85,0,0,0-.85.86v1.27h-2.27v10.78h9.08V132.75h-2.28v-1.27a.84.84,0,0,0-.84-.86Z"/><rect class="cls-39" x="648.98" y="124.78" width="25.41" height="25.41"/><path class="cls-7" d="M668,135.7a3.62,3.62,0,0,0-1.58.35l-1.35-2.37a1.91,1.91,0,0,1-.15-.58c0-.5.49-1.08.49-1.28a.43.43,0,0,0-.43-.43h-1.44a.43.43,0,1,0,0,.86h.6a.13.13,0,0,1,.13.14c0,.2-.18.28-.18.69a1.06,1.06,0,0,0,.1.47.23.23,0,0,1,0,.27l-4.83.91a.22.22,0,0,1-.22-.07s-1.1-1.46-1-1.65,1-.18,1-.18c.16-.07.28-.13.28-.29a.29.29,0,0,0-.28-.29h-2.74a.44.44,0,0,0-.43.43.43.43,0,0,0,.43.43,3,3,0,0,1,.72-.05,1.47,1.47,0,0,1,.42.78,20.53,20.53,0,0,1-.94,2.06,3.68,3.68,0,0,0-1.2-.2,3.74,3.74,0,1,0,3.69,4.31h.68a1.58,1.58,0,0,0,3.1-.43,1.75,1.75,0,0,0-.05-.4l2.39-3.17a.19.19,0,0,1,.16,0,.17.17,0,0,1,.11.08l.26.44a3.73,3.73,0,1,0,2.31-.8Zm-12.65,6.61h0a2.88,2.88,0,0,1,0-5.75,3.09,3.09,0,0,1,.86.13l-1.15,2.46a.6.6,0,0,0,.58.86h2.53a2.88,2.88,0,0,1-2.82,2.3Zm.88-3.17h0c-.08,0-.18-.06-.15-.14l.88-1.95a2.93,2.93,0,0,1,1.25,2.09Zm3.49,0h-.64a3.74,3.74,0,0,0-1.75-2.87h0l.59-1.38c0-.07,0-.13.1-.13s.07.06.11.13l2,3.55a1.59,1.59,0,0,0-.43.7Zm1.52,1.16h0a.72.72,0,1,1,.72-.72.72.72,0,0,1-.72.72Zm1.08-1.87h0a1.49,1.49,0,0,0-1.08-.43,1.84,1.84,0,0,0-.33,0s-1.4-2.38-1.43-2.45,0-.13.14-.13l4.84-.9a.43.43,0,0,1,.43.43,43,43,0,0,1-2.57,3.45Zm5.68,3.88h0a2.87,2.87,0,0,1-1.87-5.06l1.49,2.59a.43.43,0,1,0,.77-.39l-1.53-2.65a2.71,2.71,0,0,1,1.14-.24,2.88,2.88,0,0,1,0,5.75Z"/><rect class="cls-39" x="589.48" y="124.67" width="25.51" height="25.51"/><path class="cls-7" d="M594.64,129.36c2.23,1.12,4.06,3.29,4.1,5.67v11.33H597l0-10.76a6.34,6.34,0,0,0-2.78-5.58Z"/><path class="cls-7" d="M603.4,129.36c-2.23,1.12-4.06,3.29-4.1,5.67v11.33H601l0-10.76a6.34,6.34,0,0,1,2.78-5.58Z"/><path class="cls-7" d="M605.8,135.56c0-.71-.73-1.3-1.69-1.44l-.43-.8-.42.8c-1,.14-1.69.73-1.69,1.44s.72,1.3,1.69,1.44v9.36h.85V137C605.07,136.86,605.8,136.27,605.8,135.56Zm-.75-.39h-.94v-.45A1.55,1.55,0,0,1,605.05,135.17Zm-1.79-.46v.46h-1A1.61,1.61,0,0,1,603.26,134.71Zm-1,1.25h1v.45A1.55,1.55,0,0,1,602.31,136Zm1.8.45V136h.94A1.6,1.6,0,0,1,604.11,136.41Z"/><path class="cls-7" d="M610.48,135.56c0-.71-.73-1.3-1.7-1.44l-.42-.8-.43.8c-1,.14-1.69.73-1.69,1.44s.73,1.3,1.69,1.44v9.36h.85V137C609.75,136.86,610.48,136.27,610.48,135.56Zm-.76-.39h-.94v-.45A1.49,1.49,0,0,1,609.72,135.17Zm-1.79-.46v.46H607A1.58,1.58,0,0,1,607.93,134.71ZM607,136h.94v.45A1.52,1.52,0,0,1,607,136Zm1.79.45V136h.94A1.54,1.54,0,0,1,608.78,136.41Z"/><polyline class="cls-40" points="382.99 131.55 382.99 135.55 378.99 135.55"/><line class="cls-41" x1="372.94" y1="135.55" x2="363.87" y2="135.55"/><polyline class="cls-40" points="360.85 135.55 356.85 135.55 356.85 131.55"/><line class="cls-42" x1="356.85" y1="122.89" x2="356.85" y2="109.9"/><line class="cls-43" x1="356.85" y1="105.57" x2="356.85" y2="40.63"/><polyline class="cls-40" points="356.85 36.3 356.85 32.3 360.85 32.3"/><line class="cls-41" x1="366.89" y1="32.3" x2="375.97" y2="32.3"/><polyline class="cls-40" points="378.99 32.3 382.99 32.3 382.99 36.3"/><line class="cls-42" x1="382.99" y1="44.96" x2="382.99" y2="57.95"/><line class="cls-43" x1="382.99" y1="62.28" x2="382.99" y2="127.22"/><rect class="cls-44" x="370.54" y="124.76" width="25.45" height="25.45"/><path class="cls-45" d="M384.76,126.11a1.93,1.93,0,1,1-2,1.93A2,2,0,0,1,384.76,126.11Z"/><path class="cls-45" d="M375.42,132.86l1.47,7.61a3.49,3.49,0,0,0,3.21,3.09l4.77,0c1.11,0,1.11-1.15,0-1.21l-4.34,0c-1.53-.08-2.27-.69-2.55-2.4l-1.49-7.37C376.33,132,375.24,132,375.42,132.86Z"/><path class="cls-45" d="M381.1,132.09c.22-1.16,1-1.8,3.16-1.31l6.87,1.38a1,1,0,0,1-.52,1.94l-5.87-1.21L383,138.75h3.5a1.5,1.5,0,0,1,1.74,1.31l1.19,7.76a1.12,1.12,0,0,1-2.23.25l-1-6.55-5.8.07c-1.11-.05-1.76-1.41-1.37-2.76Z"/><path class="cls-45" d="M389.72,136.48c-.09.49-.64.42-.6-.09.06-2.32,3.21-2.31,3,.25v11.83a.32.32,0,0,1-.63,0l0-12.3C391.38,134.89,389.64,135.24,389.72,136.48Z"/><rect class="cls-44" x="343.59" y="124.7" width="25.45" height="25.45"/><path class="cls-45" d="M352.4,126.1a1.93,1.93,0,1,1-2,1.93A1.95,1.95,0,0,1,352.4,126.1Z"/><path class="cls-45" d="M349.06,132.8l1.47,7.62a3.48,3.48,0,0,0,3.22,3.08l4.76,0c1.12,0,1.12-1.15,0-1.22l-4.33,0c-1.54-.08-2.28-.68-2.56-2.4l-1.49-7.37C350,131.91,348.88,132,349.06,132.8Z"/><path class="cls-45" d="M350.93,132.53l1.41,7.24a2.07,2.07,0,0,0,2.49,1.82h5.24l1.12,6.59c.17,1.23,2.44.94,2.23-.33l-1.19-7.68q-.27-1.33-2-1.38l-1.08.07c.83-2.82-.88-5.13-4.24-4.84l-.4-2.25C354,130.07,350.58,130.36,350.93,132.53Z"/><rect class="cls-44" x="252.21" y="125.08" width="25.51" height="25.51"/><path class="cls-7" d="M270.49,140a1.26,1.26,0,0,1-1.26,1.27H261a1.26,1.26,0,0,1-1.26-1.27v-7.9h10.74v1a3.46,3.46,0,0,1,3.49,3.16,3.17,3.17,0,0,1-3.17,3.16h-.32V140m0-5.69v3.8h.32a1.9,1.9,0,1,0,0-3.8Z"/><path class="cls-7" d="M272.72,143.79a1.89,1.89,0,0,0,1.89-1.89h-19a1.9,1.9,0,0,0,1.91,1.89Z"/><rect class="cls-44" x="131.95" y="124.9" width="25.35" height="25.35"/><path class="cls-7" d="M144.35,134.1a2.44,2.44,0,1,0-2.44-2.44A2.44,2.44,0,0,0,144.35,134.1Z"/><path class="cls-7" d="M142.32,143.59a.17.17,0,0,1,0-.23l1.34-1.34-1.94-1.94-1.53,1.52a1.4,1.4,0,0,0,0,2l2.56,2.55a.75.75,0,0,0,1.07,0,.77.77,0,0,0,.16-.92Z"/><path class="cls-7" d="M146.38,143.59a.17.17,0,0,0,0-.23L145,142l1.94-1.94,1.53,1.52a1.4,1.4,0,0,1,0,2L146,146.11a.76.76,0,0,1-1.08,0,.78.78,0,0,1-.15-.92Z"/><path class="cls-7" d="M147.78,136.08c-.61-.56-1.23-1.37-2-1.52h-2.9c-.75.15-1.38,1-2,1.52l-2.21,2.18a.75.75,0,0,0,0,1.07.76.76,0,0,0,1.08,0l2-2v1.9h5.18v-1.9l2,2a.76.76,0,0,0,1.08-1.07Z"/><rect class="cls-44" x="103.26" y="125.07" width="25.35" height="25.35"/><path class="cls-7" d="M112.61,142.75a1.33,1.33,0,1,1,1.32,1.32,1.33,1.33,0,0,1-1.32-1.32Zm1.32,2.2h0a2.2,2.2,0,1,0-2.2-2.2A2.2,2.2,0,0,0,113.93,145Z"/><path class="cls-7" d="M117.45,142.75a1.33,1.33,0,1,1,2.65,0,1.33,1.33,0,0,1-2.65,0Zm1.33,2.2h0a2.2,2.2,0,1,0-2.2-2.2A2.21,2.21,0,0,0,118.78,145Z"/><path class="cls-7" d="M111.73,135.71v-1.43a1.43,1.43,0,0,0-1.45-1.43h-1.21s-.2,0-.2.22.2.22.2.22h1.25a1.05,1.05,0,0,1,1,1v1.43Z"/><path class="cls-7" d="M121.41,135.71h-4.62v-4.62h.88a3.85,3.85,0,0,1,3.74,3.74Z"/><path class="cls-7" d="M121.4,136.15H111.29v2a1.92,1.92,0,0,0,2,2h6.1a1.91,1.91,0,0,0,2-2Z"/><rect class="cls-44" x="310.79" y="125.08" width="25.51" height="25.51"/><path class="cls-45" d="M313.39,143a2.45,2.45,0,0,1,2.43-.43c.52.32.51.74,0,.89a2.77,2.77,0,0,1-2.4-.46Zm0-3a2.46,2.46,0,0,1,2.44-.43c.52.32.51.74,0,.89a2.76,2.76,0,0,1-2.41-.46Zm0-2.83a2.44,2.44,0,0,1,2.44-.42c.51.31.5.73,0,.88a2.74,2.74,0,0,1-2.4-.46Zm.19-8.88v5.64c-1.41.38-1.79,1.57-1.2,3.27a2.86,2.86,0,0,0,0,2.78,2.62,2.62,0,0,0,0,2.87c-.71,1.65-.28,3.06,1.16,3.24l0,2.78.69.36v-3.73c-1.58-.06-1.83-.85-1.39-2.05,4.83,2.89,5.76-3.57.07-1.21a1.94,1.94,0,0,1-.05-1.57c5.29,2.44,5.4-3.72.05-1.28a2.07,2.07,0,0,1-.1-1.46c6.43,2,4.32-4,0-1.36-.33-1.43.3-1.95,1.37-2.05v-6.79Z"/><path class="cls-46" d="M318,139.1l.81-.63.09.15a2.75,2.75,0,0,1,.07,2.91l-.08.12-.91-.44.09-.15a1.66,1.66,0,0,0,0-1.84Z"/><path class="cls-45" d="M318.19,139.14l.57-.44a2.58,2.58,0,0,1,.06,2.75l-.63-.31A1.82,1.82,0,0,0,318.19,139.14Z"/><path class="cls-46" d="M319.74,137.78l.84-.54.09.12a4.37,4.37,0,0,1,.05,5.42l-.08.12-.87-.53.11-.14a3.33,3.33,0,0,0,0-4.31Z"/><path class="cls-45" d="M320,137.82l.57-.37a4.2,4.2,0,0,1,0,5.24l-.59-.36A3.49,3.49,0,0,0,320,137.82Z"/><path class="cls-46" d="M321.55,136.48l.87-.52.08.11a7,7,0,0,1,1.33,3.81,5.72,5.72,0,0,1-1.33,4.17l-.09.1-.81-.53.11-.14a5,5,0,0,0,1.12-3.66,5.78,5.78,0,0,0-1.16-3.2Z"/><path class="cls-45" d="M321.79,136.52l.59-.36c1.43,1.83,2,5.52,0,7.78l-.55-.36C323.68,141.42,323.06,138.05,321.79,136.52Z"/><path class="cls-46" d="M328.38,143.34a8.58,8.58,0,0,1,.8-1.8c.23-.39.48-.78.75-1.15a5.62,5.62,0,0,1,.58-.71,7.15,7.15,0,0,0,1.51-3.25,4.91,4.91,0,0,0-1-4.25,4.71,4.71,0,0,0-8.06,2l0,.06-1.73,1.08,0-.31c.42-4.42,3.19-6.39,7.53-5.9h0a5.73,5.73,0,0,1,3.42,2,7,7,0,0,1,1.56,4.47,7.15,7.15,0,0,1-1.65,4.63,13.8,13.8,0,0,0-2.32,4.27,3.5,3.5,0,0,1-3.87,1.91,2.89,2.89,0,0,1-1.3-.72l-.11-.11,1.16-1.08.1.06C327,145.26,327.83,144.59,328.38,143.34Z"/><path class="cls-45" d="M321.34,135l1.42-.88a4.86,4.86,0,0,1,8.32-2.07c2.35,2.7.71,6.44-.46,7.72a11.8,11.8,0,0,0-2.1,3.59c-.67,1.56-1.63,2-2.88,1.25l-1,.89c1.37,1.31,3.75,1,4.91-1.14a13.05,13.05,0,0,1,2.35-4.3c3.08-3.65,1.61-10-3.24-10.81C324.41,128.78,321.75,130.72,321.34,135Z"/><path class="cls-45" d="M327.15,133.5a2.79,2.79,0,1,1-2.79,2.79,2.79,2.79,0,0,1,2.79-2.79Zm.45,1.88h1v-.78h-2.85v.78h.93v3h1Z"/></g><g id="STOLFARGER"><polygon class="cls-47" points="42.16 51.87 42.16 43.45 44.61 41.01 61.96 41.01 61.96 54.33 44.63 54.33 42.16 51.87"/><polygon class="cls-48" points="44.72 43.78 44.73 43.78 47 41.45 48.69 41.45 46.42 43.78 46.41 43.78 46.41 51.59 46.42 51.59 48.69 53.92 47 53.92 44.75 51.62 44.72 51.62 44.72 43.78"/><rect class="cls-7" x="42.55" y="44.36" width="1.98" height="6.51"/><polygon class="cls-47" points="42.15 67.65 42.15 59.23 44.59 56.79 61.94 56.79 61.94 70.11 44.61 70.11 42.15 67.65"/><polygon class="cls-48" points="44.71 59.55 44.71 59.55 46.99 57.22 48.67 57.22 46.4 59.55 46.4 59.55 46.4 67.37 46.4 67.37 48.67 69.7 46.99 69.7 44.73 67.39 44.71 67.39 44.71 59.55"/><rect class="cls-7" x="42.53" y="60.14" width="1.98" height="6.51"/><polygon class="cls-47" points="41.99 98.57 41.99 90.16 44.43 87.71 61.78 87.71 61.78 101.04 44.45 101.04 41.99 98.57"/><polygon class="cls-48" points="44.54 90.48 44.55 90.48 46.83 88.15 48.51 88.15 46.24 90.48 46.23 90.48 46.23 98.3 46.24 98.3 48.51 100.63 46.83 100.63 44.57 98.32 44.54 98.32 44.54 90.48"/><rect class="cls-7" x="42.37" y="91.07" width="1.98" height="6.51"/><polygon class="cls-47" points="41.97 114.35 41.97 105.94 44.41 103.49 61.77 103.49 61.77 116.81 44.43 116.81 41.97 114.35"/><polygon class="cls-48" points="44.53 106.26 44.53 106.26 46.81 103.93 48.5 103.93 46.22 106.26 46.22 106.26 46.22 114.07 46.22 114.07 48.5 116.4 46.81 116.4 44.56 114.09 44.53 114.09 44.53 106.26"/><rect class="cls-7" x="42.35" y="106.84" width="1.98" height="6.51"/><polygon class="cls-47" points="296.76 52.16 296.76 43.75 299.2 41.3 316.55 41.3 316.55 54.63 299.22 54.63 296.76 52.16"/><polygon class="cls-48" points="299.31 44.07 299.32 44.07 301.6 41.74 303.28 41.74 301.01 44.07 301 44.07 301 51.89 301.01 51.89 303.28 54.22 301.6 54.22 299.34 51.91 299.31 51.91 299.31 44.07"/><rect class="cls-7" x="297.14" y="44.66" width="1.98" height="6.51"/><polygon class="cls-47" points="296.74 67.94 296.74 59.52 299.18 57.08 316.54 57.08 316.54 70.4 299.2 70.4 296.74 67.94"/><polygon class="cls-48" points="299.3 59.85 299.3 59.85 301.58 57.52 303.27 57.52 300.99 59.85 300.99 59.85 300.99 67.66 300.99 67.66 303.27 69.99 301.58 69.99 299.33 67.69 299.3 67.69 299.3 59.85"/><rect class="cls-7" x="297.12" y="60.43" width="1.98" height="6.51"/><polygon class="cls-49" points="99.49 51.62 99.49 43.2 97.05 40.76 79.7 40.76 79.7 54.08 97.03 54.08 99.49 51.62"/><polygon class="cls-50" points="96.93 43.53 96.93 43.53 94.65 41.2 92.96 41.2 95.24 43.53 95.24 43.53 95.24 51.34 95.24 51.34 92.96 53.67 94.65 53.67 96.91 51.37 96.93 51.37 96.93 43.53"/><rect class="cls-7" x="97.12" y="44.11" width="1.98" height="6.51"/><polygon class="cls-49" points="99.48 67.37 99.48 58.95 97.03 56.51 79.68 56.51 79.68 69.83 97.02 69.83 99.48 67.37"/><polygon class="cls-50" points="96.92 59.28 96.91 59.28 94.64 56.95 92.95 56.95 95.22 59.28 95.23 59.28 95.23 67.09 95.22 67.09 92.95 69.42 94.64 69.42 96.89 67.11 96.92 67.11 96.92 59.28"/><rect class="cls-7" x="97.11" y="59.86" width="1.98" height="6.51"/><polygon class="cls-49" points="99.58 98.2 99.58 89.79 97.13 87.34 79.78 87.34 79.78 100.67 97.11 100.67 99.58 98.2"/><polygon class="cls-50" points="97.02 90.11 97.01 90.11 94.73 87.78 93.05 87.78 95.32 90.11 95.33 90.11 95.33 97.93 95.32 97.93 93.05 100.25 94.73 100.25 96.99 97.95 97.02 97.95 97.02 90.11"/><rect class="cls-7" x="97.21" y="90.7" width="1.98" height="6.51"/><polygon class="cls-49" points="99.56 113.95 99.56 105.54 97.12 103.09 79.77 103.09 79.77 116.42 97.1 116.42 99.56 113.95"/><polygon class="cls-50" points="97 105.86 97 105.86 94.72 103.53 93.03 103.53 95.31 105.86 95.31 105.86 95.31 113.68 95.31 113.68 93.03 116 94.72 116 96.98 113.7 97 113.7 97 105.86"/><rect class="cls-7" x="97.19" y="106.45" width="1.98" height="6.51"/><polygon class="cls-49" points="353.91 52.09 353.91 43.67 351.47 41.23 334.12 41.23 334.12 54.55 351.45 54.55 353.91 52.09"/><polygon class="cls-50" points="351.36 43.99 351.35 43.99 349.07 41.66 347.39 41.66 349.66 43.99 349.67 43.99 349.67 51.81 349.66 51.81 347.39 54.14 349.07 54.14 351.33 51.83 351.36 51.83 351.36 43.99"/><rect class="cls-7" x="351.55" y="44.58" width="1.98" height="6.51"/><polygon class="cls-49" points="353.9 67.83 353.9 59.42 351.46 56.98 334.11 56.98 334.11 70.3 351.44 70.3 353.9 67.83"/><polygon class="cls-50" points="351.34 59.74 351.34 59.74 349.06 57.41 347.37 57.41 349.65 59.74 349.65 59.74 349.65 67.56 349.65 67.56 347.37 69.89 349.06 69.89 351.31 67.58 351.34 67.58 351.34 59.74"/><rect class="cls-7" x="351.53" y="60.33" width="1.98" height="6.51"/><polygon class="cls-49" points="354 98.67 354 90.25 351.55 87.81 334.2 87.81 334.2 101.13 351.54 101.13 354 98.67"/><polygon class="cls-50" points="351.44 90.58 351.43 90.58 349.16 88.25 347.47 88.25 349.74 90.58 349.75 90.58 349.75 98.39 349.74 98.39 347.47 100.72 349.16 100.72 351.41 98.42 351.44 98.42 351.44 90.58"/><rect class="cls-7" x="351.63" y="91.16" width="1.98" height="6.51"/><polygon class="cls-49" points="353.98 114.42 353.98 106 351.54 103.56 334.19 103.56 334.19 116.88 351.52 116.88 353.98 114.42"/><polygon class="cls-50" points="351.43 106.33 351.42 106.33 349.14 104 347.46 104 349.73 106.33 349.74 106.33 349.74 114.14 349.73 114.14 347.46 116.47 349.14 116.47 351.4 114.17 351.43 114.17 351.43 106.33"/><rect class="cls-7" x="351.62" y="106.91" width="1.98" height="6.51"/><polygon class="cls-49" points="379.73 51.93 379.73 43.52 377.29 41.07 359.94 41.07 359.94 54.39 377.27 54.39 379.73 51.93"/><polygon class="cls-50" points="377.18 43.84 377.17 43.84 374.89 41.51 373.21 41.51 375.48 43.84 375.49 43.84 375.49 51.65 375.48 51.65 373.21 53.98 374.89 53.98 377.15 51.67 377.18 51.67 377.18 43.84"/><rect class="cls-7" x="377.37" y="44.42" width="1.98" height="6.51"/><polygon class="cls-49" points="379.72 67.68 379.72 59.27 377.28 56.82 359.93 56.82 359.93 70.14 377.26 70.14 379.72 67.68"/><polygon class="cls-50" points="377.16 59.59 377.16 59.59 374.88 57.26 373.19 57.26 375.47 59.59 375.47 59.59 375.47 67.4 375.47 67.4 373.19 69.73 374.88 69.73 377.13 67.42 377.16 67.42 377.16 59.59"/><rect class="cls-7" x="377.35" y="60.17" width="1.98" height="6.51"/><polygon class="cls-49" points="379.82 98.51 379.82 90.1 377.38 87.65 360.02 87.65 360.02 100.98 377.36 100.98 379.82 98.51"/><polygon class="cls-50" points="377.26 90.42 377.25 90.42 374.98 88.09 373.29 88.09 375.56 90.42 375.57 90.42 375.57 98.24 375.56 98.24 373.29 100.57 374.98 100.57 377.23 98.26 377.26 98.26 377.26 90.42"/><rect class="cls-7" x="377.45" y="91.01" width="1.98" height="6.51"/><polygon class="cls-49" points="379.8 114.26 379.8 105.85 377.36 103.4 360.01 103.4 360.01 116.73 377.34 116.73 379.8 114.26"/><polygon class="cls-50" points="377.25 106.17 377.24 106.17 374.96 103.84 373.28 103.84 375.55 106.17 375.56 106.17 375.56 113.99 375.55 113.99 373.28 116.32 374.96 116.32 377.22 114.01 377.25 114.01 377.25 106.17"/><rect class="cls-7" x="377.44" y="106.76" width="1.98" height="6.51"/><polygon class="cls-49" points="406.38 51.98 406.38 43.57 403.94 41.12 386.59 41.12 386.59 54.44 403.92 54.44 406.38 51.98"/><polygon class="cls-50" points="403.83 43.89 403.82 43.89 401.55 41.56 399.86 41.56 402.13 43.89 402.14 43.89 402.14 51.7 402.13 51.7 399.86 54.03 401.55 54.03 403.8 51.73 403.83 51.73 403.83 43.89"/><rect class="cls-7" x="404.02" y="44.47" width="1.98" height="6.51"/><polygon class="cls-49" points="406.37 67.73 406.37 59.32 403.93 56.87 386.58 56.87 386.58 70.19 403.91 70.19 406.37 67.73"/><polygon class="cls-50" points="403.81 59.64 403.81 59.64 401.53 57.31 399.84 57.31 402.12 59.64 402.12 59.64 402.12 67.45 402.12 67.45 399.84 69.78 401.53 69.78 403.79 67.48 403.81 67.48 403.81 59.64"/><rect class="cls-7" x="404" y="60.22" width="1.98" height="6.51"/><polygon class="cls-49" points="406.47 98.56 406.47 90.15 404.02 87.7 386.67 87.7 386.67 101.03 404.01 101.03 406.47 98.56"/><polygon class="cls-50" points="403.91 90.47 403.9 90.47 401.63 88.14 399.94 88.14 402.21 90.47 402.22 90.47 402.22 98.29 402.21 98.29 399.94 100.62 401.63 100.62 403.88 98.31 403.91 98.31 403.91 90.47"/><rect class="cls-7" x="404.1" y="91.06" width="1.98" height="6.51"/><polygon class="cls-49" points="406.45 114.31 406.45 105.9 404.01 103.45 386.66 103.45 386.66 116.78 403.99 116.78 406.45 114.31"/><polygon class="cls-50" points="403.9 106.22 403.89 106.22 401.62 103.89 399.93 103.89 402.2 106.22 402.21 106.22 402.21 114.04 402.2 114.04 399.93 116.37 401.62 116.37 403.87 114.06 403.9 114.06 403.9 106.22"/><rect class="cls-7" x="404.09" y="106.81" width="1.98" height="6.51"/><polygon class="cls-49" points="431.02 51.93 431.02 43.52 428.58 41.07 411.23 41.07 411.23 54.39 428.56 54.39 431.02 51.93"/><polygon class="cls-50" points="428.46 43.84 428.46 43.84 426.18 41.51 424.5 41.51 426.77 43.84 426.77 43.84 426.77 51.65 426.77 51.65 424.5 53.98 426.18 53.98 428.44 51.67 428.46 51.67 428.46 43.84"/><rect class="cls-7" x="428.66" y="44.42" width="1.98" height="6.51"/><polygon class="cls-49" points="431.01 67.68 431.01 59.27 428.57 56.82 411.21 56.82 411.21 70.14 428.55 70.14 431.01 67.68"/><polygon class="cls-50" points="428.45 59.59 428.44 59.59 426.17 57.26 424.48 57.26 426.76 59.59 426.76 59.59 426.76 67.4 426.76 67.4 424.48 69.73 426.17 69.73 428.42 67.42 428.45 67.42 428.45 59.59"/><rect class="cls-7" x="428.64" y="60.17" width="1.98" height="6.51"/><polygon class="cls-49" points="431.11 98.51 431.11 90.1 428.66 87.65 411.31 87.65 411.31 100.98 428.64 100.98 431.11 98.51"/><polygon class="cls-50" points="428.55 90.42 428.54 90.42 426.26 88.09 424.58 88.09 426.85 90.42 426.86 90.42 426.86 98.24 426.85 98.24 424.58 100.57 426.26 100.57 428.52 98.26 428.55 98.26 428.55 90.42"/><rect class="cls-7" x="428.74" y="91.01" width="1.98" height="6.51"/><polygon class="cls-49" points="431.09 114.26 431.09 105.85 428.65 103.4 411.3 103.4 411.3 116.73 428.63 116.73 431.09 114.26"/><polygon class="cls-50" points="428.54 106.17 428.53 106.17 426.25 103.84 424.57 103.84 426.84 106.17 426.85 106.17 426.85 113.99 426.84 113.99 424.57 116.32 426.25 116.32 428.51 114.01 428.54 114.01 428.54 106.17"/><rect class="cls-7" x="428.73" y="106.76" width="1.98" height="6.51"/><polygon class="cls-49" points="457.89 51.77 457.89 43.36 455.45 40.91 438.1 40.91 438.1 54.24 455.43 54.24 457.89 51.77"/><polygon class="cls-50" points="455.33 43.68 455.33 43.68 453.05 41.35 451.36 41.35 453.64 43.68 453.64 43.68 453.64 51.5 453.64 51.5 451.36 53.83 453.05 53.83 455.3 51.52 455.33 51.52 455.33 43.68"/><rect class="cls-7" x="455.52" y="44.27" width="1.98" height="6.51"/><polygon class="cls-49" points="457.88 67.53 457.88 59.11 455.43 56.66 438.08 56.66 438.08 69.99 455.42 69.99 457.88 67.53"/><polygon class="cls-50" points="455.32 59.43 455.31 59.43 453.04 57.1 451.35 57.1 453.62 59.43 453.63 59.43 453.63 67.25 453.62 67.25 451.35 69.58 453.04 69.58 455.29 67.27 455.32 67.27 455.32 59.43"/><rect class="cls-7" x="455.51" y="60.02" width="1.98" height="6.51"/><polygon class="cls-49" points="457.97 98.36 457.97 89.94 455.53 87.5 438.18 87.5 438.18 100.82 455.51 100.82 457.97 98.36"/><polygon class="cls-50" points="455.41 90.27 455.41 90.27 453.13 87.94 451.44 87.94 453.72 90.27 453.73 90.27 453.73 98.08 453.72 98.08 451.44 100.41 453.13 100.41 455.39 98.11 455.41 98.11 455.41 90.27"/><rect class="cls-7" x="455.61" y="90.85" width="1.98" height="6.51"/><polygon class="cls-49" points="457.96 114.11 457.96 105.69 455.52 103.25 438.17 103.25 438.17 116.57 455.5 116.57 457.96 114.11"/><polygon class="cls-50" points="455.4 106.02 455.4 106.02 453.12 103.69 451.43 103.69 453.71 106.02 453.71 106.02 453.71 113.83 453.71 113.83 451.43 116.16 453.12 116.16 455.38 113.86 455.4 113.86 455.4 106.02"/><rect class="cls-7" x="455.59" y="106.6" width="1.98" height="6.51"/><polygon class="cls-49" points="484.76 52.32 484.76 43.91 482.32 41.46 464.97 41.46 464.97 54.78 482.3 54.78 484.76 52.32"/><polygon class="cls-50" points="482.2 44.23 482.2 44.23 479.92 41.9 478.23 41.9 480.51 44.23 480.51 44.23 480.51 52.04 480.51 52.04 478.23 54.37 479.92 54.37 482.18 52.07 482.2 52.07 482.2 44.23"/><rect class="cls-7" x="482.39" y="44.82" width="1.98" height="6.51"/><polygon class="cls-49" points="484.75 68.07 484.75 59.66 482.3 57.21 464.95 57.21 464.95 70.53 482.29 70.53 484.75 68.07"/><polygon class="cls-50" points="482.19 59.98 482.19 59.98 479.91 57.65 478.22 57.65 480.5 59.98 480.5 59.98 480.5 67.79 480.5 67.79 478.22 70.12 479.91 70.12 482.16 67.82 482.19 67.82 482.19 59.98"/><rect class="cls-7" x="482.38" y="60.57" width="1.98" height="6.51"/><polygon class="cls-49" points="484.85 98.9 484.85 90.49 482.4 88.04 465.05 88.04 465.05 101.37 482.38 101.37 484.85 98.9"/><polygon class="cls-50" points="482.29 90.81 482.28 90.81 480.01 88.48 478.32 88.48 480.59 90.81 480.6 90.81 480.6 98.63 480.59 98.63 478.32 100.96 480.01 100.96 482.26 98.65 482.29 98.65 482.29 90.81"/><rect class="cls-7" x="482.48" y="91.4" width="1.98" height="6.51"/><polygon class="cls-49" points="484.83 114.65 484.83 106.24 482.39 103.79 465.04 103.79 465.04 117.12 482.37 117.12 484.83 114.65"/><polygon class="cls-50" points="482.27 106.56 482.27 106.56 479.99 104.23 478.3 104.23 480.58 106.56 480.58 106.56 480.58 114.38 480.58 114.38 478.3 116.71 479.99 116.71 482.25 114.4 482.27 114.4 482.27 106.56"/><rect class="cls-7" x="482.46" y="107.15" width="1.98" height="6.51"/><polygon class="cls-49" points="511.33 52.25 511.33 43.84 508.89 41.39 491.54 41.39 491.54 54.71 508.87 54.71 511.33 52.25"/><polygon class="cls-50" points="508.77 44.16 508.77 44.16 506.49 41.83 504.81 41.83 507.08 44.16 507.09 44.16 507.09 51.98 507.08 51.98 504.81 54.3 506.49 54.3 508.75 52 508.77 52 508.77 44.16"/><rect class="cls-7" x="508.97" y="44.75" width="1.98" height="6.51"/><polygon class="cls-49" points="511.32 68 511.32 59.59 508.88 57.14 491.52 57.14 491.52 70.46 508.86 70.46 511.32 68"/><polygon class="cls-50" points="508.76 59.91 508.76 59.91 506.48 57.58 504.79 57.58 507.07 59.91 507.07 59.91 507.07 67.73 507.07 67.73 504.79 70.05 506.48 70.05 508.73 67.75 508.76 67.75 508.76 59.91"/><rect class="cls-7" x="508.95" y="60.5" width="1.98" height="6.51"/><polygon class="cls-49" points="511.42 98.83 511.42 90.42 508.97 87.98 491.62 87.98 491.62 101.3 508.95 101.3 511.42 98.83"/><polygon class="cls-50" points="508.86 90.74 508.85 90.74 506.58 88.42 504.89 88.42 507.16 90.74 507.17 90.74 507.17 98.56 507.16 98.56 504.89 100.89 506.58 100.89 508.83 98.58 508.86 98.58 508.86 90.74"/><rect class="cls-7" x="509.05" y="91.33" width="1.98" height="6.51"/><polygon class="cls-49" points="511.4 114.58 511.4 106.17 508.96 103.73 491.61 103.73 491.61 117.05 508.94 117.05 511.4 114.58"/><polygon class="cls-50" points="508.85 106.49 508.84 106.49 506.56 104.17 504.88 104.17 507.15 106.49 507.16 106.49 507.16 114.31 507.15 114.31 504.88 116.64 506.56 116.64 508.82 114.33 508.85 114.33 508.85 106.49"/><rect class="cls-7" x="509.04" y="107.08" width="1.98" height="6.51"/><polygon class="cls-49" points="571.99 52.17 571.99 43.76 569.55 41.32 552.2 41.32 552.2 54.64 569.53 54.64 571.99 52.17"/><polygon class="cls-50" points="569.43 44.08 569.43 44.08 567.15 41.75 565.46 41.75 567.74 44.08 567.74 44.08 567.74 51.9 567.74 51.9 565.46 54.23 567.15 54.23 569.4 51.92 569.43 51.92 569.43 44.08"/><rect class="cls-7" x="569.62" y="44.67" width="1.98" height="6.51"/><polygon class="cls-49" points="571.98 67.92 571.98 59.51 569.53 57.07 552.18 57.07 552.18 70.39 569.51 70.39 571.98 67.92"/><polygon class="cls-50" points="569.42 59.83 569.41 59.83 567.14 57.5 565.45 57.5 567.72 59.83 567.73 59.83 567.73 67.65 567.72 67.65 565.45 69.98 567.14 69.98 569.39 67.67 569.42 67.67 569.42 59.83"/><rect class="cls-7" x="569.61" y="60.42" width="1.98" height="6.51"/><polygon class="cls-49" points="572.07 98.76 572.07 90.34 569.63 87.9 552.28 87.9 552.28 101.22 569.61 101.22 572.07 98.76"/><polygon class="cls-50" points="569.51 90.67 569.51 90.67 567.23 88.34 565.54 88.34 567.82 90.67 567.83 90.67 567.83 98.48 567.82 98.48 565.54 100.81 567.23 100.81 569.49 98.5 569.51 98.5 569.51 90.67"/><rect class="cls-7" x="569.71" y="91.25" width="1.98" height="6.51"/><polygon class="cls-49" points="572.06 114.51 572.06 106.09 569.62 103.65 552.26 103.65 552.26 116.97 569.6 116.97 572.06 114.51"/><polygon class="cls-50" points="569.5 106.42 569.5 106.42 567.22 104.09 565.53 104.09 567.81 106.42 567.81 106.42 567.81 114.23 567.81 114.23 565.53 116.56 567.22 116.56 569.47 114.25 569.5 114.25 569.5 106.42"/><rect class="cls-7" x="569.69" y="107" width="1.98" height="6.51"/><polygon class="cls-49" points="538.64 68.26 538.64 59.84 536.2 57.4 518.85 57.4 518.85 70.72 536.18 70.72 538.64 68.26"/><polygon class="cls-50" points="536.08 60.16 536.08 60.16 533.8 57.84 532.12 57.84 534.39 60.16 534.39 60.16 534.39 67.98 534.39 67.98 532.12 70.31 533.8 70.31 536.06 68 536.08 68 536.08 60.16"/><rect class="cls-7" x="536.28" y="60.75" width="1.98" height="6.51"/><polygon class="cls-49" points="538.74 99.09 538.74 90.68 536.3 88.23 518.95 88.23 518.95 101.55 536.28 101.55 538.74 99.09"/><polygon class="cls-50" points="536.18 91 536.18 91 533.9 88.67 532.21 88.67 534.49 91 534.49 91 534.49 98.82 534.49 98.82 532.21 101.14 533.9 101.14 536.15 98.84 536.18 98.84 536.18 91"/><rect class="cls-7" x="536.37" y="91.59" width="1.98" height="6.51"/></g><g id="SETENUMMER"><text class="cls-51" transform="translate(80.25 50.71)">207<tspan x="0" y="15.7">208</tspan><tspan x="0" y="47.1">209</tspan><tspan x="0" y="62.8">210</tspan></text><text class="cls-51" transform="translate(46.72 50.18)">203<tspan x="0" y="15.7">204</tspan><tspan x="0" y="47.1">205</tspan><tspan x="0" y="62.8">206</tspan></text><text class="cls-51" transform="translate(552.85 50.62)">245<tspan x="0" y="15.7">246</tspan><tspan x="0" y="47.1">247</tspan><tspan x="0" y="62.8">248</tspan></text><text class="cls-51" transform="translate(520.01 66.5)">243<tspan x="0" y="31.4">244</tspan></text><text class="cls-51" transform="translate(492.53 50.23)">239<tspan x="0" y="15.7">240</tspan><tspan x="0" y="47.1">241</tspan><tspan x="0" y="62.8">242</tspan></text><text class="cls-51" transform="translate(465.83 50.5)">235<tspan x="0" y="15.7">236</tspan><tspan x="0" y="47.1">237</tspan><tspan x="0" y="62.8">238</tspan></text><text class="cls-51" transform="translate(438.2 50.26)">231<tspan x="0" y="15.7">232</tspan><tspan x="0" y="47.1">233</tspan><tspan x="0" y="62.8">234</tspan></text><text class="cls-51" transform="translate(411.96 50.27)">227<tspan x="0" y="15.7">228</tspan><tspan x="0" y="47.1">229</tspan><tspan x="0" y="62.8">230</tspan></text><text class="cls-51" transform="translate(387.29 50.29)">223<tspan x="0" y="15.7">224</tspan><tspan x="0" y="47.1">225</tspan><tspan x="0" y="62.8">226</tspan></text><text class="cls-51" transform="translate(360.77 50.56)">219<tspan x="0" y="15.7">220</tspan><tspan x="0" y="47.1">221</tspan><tspan x="0" y="62.8">222</tspan></text><text class="cls-51" transform="translate(334.66 50.58)">215<tspan x="0" y="15.7">216</tspan><tspan x="0" y="47.1">217</tspan><tspan x="0" y="62.8">218</tspan></text><text class="cls-51" transform="translate(301.36 50.36)">211<tspan x="0" y="15.7">212</tspan></text></g><line class="cls-52" x1="284.58" y1="20.25" x2="383.42" y2="20.25"/><polygon class="cls-6" points="286.56 23.15 275.72 20.25 286.56 17.34 286.56 23.15"/><path class="cls-6" d="M416.23,22.85a3.14,3.14,0,0,0,2.4,1.26,1.58,1.58,0,0,0,1.71-1.47c0-1.5-2.08-1.67-3.38-2.52A2.51,2.51,0,0,1,415.71,18a2.77,2.77,0,0,1,3-2.6,4,4,0,0,1,2.64,1l-.83,1a2.67,2.67,0,0,0-1.75-.67A1.46,1.46,0,0,0,417.11,18c0,1.25,2.09,1.52,3.35,2.36a2.58,2.58,0,0,1,1.28,2.24,2.83,2.83,0,0,1-3,2.84,4.38,4.38,0,0,1-3.43-1.64Z"/><path class="cls-6" d="M427.27,25.3a3.49,3.49,0,0,1-1,.14,2.35,2.35,0,0,1-1.86-.77,2.53,2.53,0,0,1-.54-1.75v-3h-1.68V18.72h1.68V16.9h1.34v1.82h2.1v1.19h-2.1V23a1.27,1.27,0,0,0,.19.84,1.2,1.2,0,0,0,.91.35,3.63,3.63,0,0,0,.73-.08Z"/><path class="cls-6" d="M429.74,15.5a.88.88,0,1,1,0,1.75.88.88,0,0,1,0-1.75Zm-.66,3.22h1.34V25.3h-1.34Z"/><path class="cls-6" d="M432.79,15.36h1.34V25.3h-1.34Z"/><path class="cls-6" d="M436.5,15.36h1.34V25.3H436.5Z"/><path class="cls-6" d="M440.94,22.29a2.12,2.12,0,0,0,2.13,2,2.38,2.38,0,0,0,1.89-.9l.87.83a3.45,3.45,0,0,1-2.77,1.23A3.35,3.35,0,0,1,439.65,22,3.2,3.2,0,1,1,446,22a1.69,1.69,0,0,1,0,.28Zm.12-1.12h3.58a1.84,1.84,0,0,0-1.74-1.43A1.9,1.9,0,0,0,441.06,21.17Z"/><line class="cls-52" x1="576.07" y1="19.52" x2="476.75" y2="19.53"/><polygon class="cls-6" points="574.09 16.62 584.93 19.52 574.09 22.43 574.09 16.62"/><line class="cls-53" x1="586.14" y1="13.78" x2="586.14" y2="25.48"/><line class="cls-53" x1="275.13" y1="14.47" x2="275.13" y2="26.17"/><path class="cls-6" d="M64.7,19.1v1.34H61.48v4.62h-1.4V15.25h5.61v1.33H61.48V19.1Z"/><path class="cls-6" d="M71.68,24.46a3,3,0,0,1-2,.74A3.36,3.36,0,0,1,68,24.76a3.51,3.51,0,0,1,0-6,3.21,3.21,0,0,1,3.67.32v-.6H73v6.58H71.68Zm0-3.93a2.38,2.38,0,0,0-1.88-.93,2.11,2.11,0,0,0-2.12,2.17,2.15,2.15,0,0,0,2.19,2.17A2.3,2.3,0,0,0,71.64,23Z"/><path class="cls-6" d="M76.63,18.48v.62a2.9,2.9,0,0,1,1.93-.77,3,3,0,0,1,2.33,1.1,3.28,3.28,0,0,1,2.51-1.1,3,3,0,0,1,2.34,1.11,3.4,3.4,0,0,1,.6,2.26v3.36H85V21.49a1.86,1.86,0,0,0-.38-1.32,1.6,1.6,0,0,0-1.23-.57,2.74,2.74,0,0,0-2,.93,5.47,5.47,0,0,1,.12,1.17v3.36H80.18V21.49a1.9,1.9,0,0,0-.38-1.32,1.69,1.69,0,0,0-1.28-.57,2.54,2.54,0,0,0-1.85.93v4.53H75.34V18.48Z"/><path class="cls-6" d="M89.23,15.25a.88.88,0,0,1,.88.89.88.88,0,0,1-1.75,0A.87.87,0,0,1,89.23,15.25Zm-.66,3.23H89.9v6.58H88.57Z"/><path class="cls-6" d="M92.28,15.11h1.33v10H92.28Z"/><path class="cls-6" d="M96.65,15.25a.88.88,0,0,1,.88.89.88.88,0,0,1-1.75,0A.87.87,0,0,1,96.65,15.25ZM96,18.48h1.33v6.58H96Z"/><path class="cls-6" d="M100.43,22.05a2.13,2.13,0,0,0,2.13,2,2.38,2.38,0,0,0,1.89-.9l.87.83a3.45,3.45,0,0,1-2.77,1.23,3.35,3.35,0,0,1-3.41-3.43,3.2,3.2,0,1,1,6.38,0,1.76,1.76,0,0,1,0,.28Zm.11-1.12h3.59a1.84,1.84,0,0,0-1.74-1.43A1.92,1.92,0,0,0,100.54,20.93Z"/><line class="cls-52" x1="40.3" y1="20" x2="44.19" y2="20"/><polygon class="cls-6" points="42.28 22.91 31.44 20 42.28 17.1 42.28 22.91"/><line class="cls-53" x1="31.37" y1="14.22" x2="31.37" y2="25.93"/><line class="cls-52" x1="124.43" y1="20.22" x2="120.54" y2="20.22"/><polygon class="cls-6" points="122.45 17.32 133.29 20.22 122.45 23.13 122.45 17.32"/><line class="cls-53" x1="133.36" y1="26" x2="133.36" y2="14.3"/></g></svg>