<svg xmlns="http://www.w3.org/2000/svg" xmlns:xlink="http://www.w3.org/1999/xlink" viewBox="0 0 820 160"><defs><style>.cls-1{fill:#b1b1b0;}.cls-2,.cls-23{fill:#e2e1e1;}.cls-3,.cls-44{fill:#9c9b9b;}.cls-10,.cls-11,.cls-12,.cls-14,.cls-15,.cls-16,.cls-17,.cls-18,.cls-19,.cls-21,.cls-22,.cls-23,.cls-24,.cls-25,.cls-26,.cls-27,.cls-28,.cls-29,.cls-3,.cls-30,.cls-31,.cls-32,.cls-33,.cls-34,.cls-46,.cls-48,.cls-6,.cls-7,.cls-9{stroke:#000;}.cls-10,.cls-11,.cls-12,.cls-14,.cls-15,.cls-17,.cls-18,.cls-19,.cls-21,.cls-22,.cls-23,.cls-24,.cls-25,.cls-26,.cls-27,.cls-28,.cls-29,.cls-3,.cls-30,.cls-31,.cls-32,.cls-33,.cls-34,.cls-39,.cls-40,.cls-41,.cls-42,.cls-46,.cls-48,.cls-51,.cls-52,.cls-6,.cls-7,.cls-9{stroke-miterlimit:10;}.cls-19,.cls-3,.cls-46,.cls-48,.cls-52{stroke-width:0.75px;}.cls-4{fill:#575756;}.cls-43,.cls-5{fill:#fff;}.cls-14,.cls-16,.cls-28,.cls-29,.cls-30,.cls-31,.cls-32,.cls-39,.cls-40,.cls-41,.cls-42,.cls-51,.cls-6,.cls-9{fill:none;}.cls-7{fill:#7cc9d5;}.cls-14,.cls-15,.cls-16,.cls-28,.cls-29,.cls-30,.cls-31,.cls-32,.cls-7{stroke-width:0.5px;}.cls-17,.cls-8{fill:#3d3d3c;}.cls-10,.cls-11,.cls-12,.cls-17,.cls-18,.cls-21,.cls-22,.cls-23,.cls-24,.cls-25,.cls-26,.cls-27,.cls-33,.cls-34,.cls-9{stroke-width:0.25px;}.cls-10{fill:#c7c5c4;}.cls-11,.cls-18{fill:#70706f;}.cls-12{fill:#ececec;}.cls-13,.cls-15,.cls-19{fill:#9d9b9b;}.cls-14{stroke-dasharray:1.95 0.97;}.cls-16,.cls-18,.cls-51,.cls-52{stroke-linecap:round;}.cls-16{stroke-linejoin:round;}.cls-20{fill:#7b7b7a;}.cls-21{fill:#6f6f6e;}.cls-22{fill:#55accf;}.cls-24{fill:url(#radial-gradient);}.cls-25{fill:url(#radial-gradient-2);}.cls-26{fill:#faca9e;}.cls-27{fill:#b1b1b1;}.cls-28{stroke-dasharray:1.95 0.97;}.cls-29{stroke-dasharray:1.95 0.97;}.cls-30{stroke-dasharray:1.95 0.97;}.cls-31{stroke-dasharray:1.95 0.97;}.cls-32{stroke-dasharray:1.95 0.97;}.cls-33{fill:#3c3c3b;}.cls-34{fill:#deb48e;}.cls-35{fill:#ffd421;}.cls-36{fill:#221e20;}.cls-37{fill:#29295d;}.cls-38,.cls-52{fill:#251a5f;}.cls-39,.cls-40,.cls-41,.cls-42{stroke:#e53212;}.cls-40{stroke-dasharray:6.05 6.05;}.cls-41{stroke-dasharray:8.66 8.66;}.cls-42{stroke-dasharray:8.66 8.66 8.66 8.66;}.cls-43{fill-rule:evenodd;}.cls-45{fill:#009c3d;}.cls-46{fill:#41358a;}.cls-47{fill:#2a2559;}.cls-48{fill:#cc1626;}.cls-49{fill:#901918;}.cls-50{fill:#ffd500;}.cls-51,.cls-52{stroke:#575756;}</style><radialGradient id="radial-gradient" cx="904.17" cy="-743.91" r="4.39" gradientTransform="translate(1675.92 -699.41) rotate(180) scale(0.98 1)" gradientUnits="userSpaceOnUse"><stop offset="0" stop-color="#575757"/><stop offset="0.51" stop-color="#999ba4"/><stop offset="0.93" stop-color="#fff"/></radialGradient><radialGradient id="radial-gradient-2" cx="-62.16" cy="305.86" r="4.39" gradientTransform="translate(833.57 -193.32) scale(0.98 1)" xlink:href="#radial-gradient"/></defs><title>Type73B_vogn1_BM73B</title><g id="Type73B_vogn1_BM73B"><g id="Vognkasse-4" data-name="Vognkasse"><path class="cls-1" d="M31.14,78.47c0,4.8.08,9.38.22,13.6a15.84,15.84,0,0,0-.1,1.7,15,15,0,0,0,11.4,14.58h0c8.41,2.61,9.83,3.26,14.93,4.47a281,281,0,0,0,48.1,7.33h49V37.12h-49a281,281,0,0,0-48.1,7.33c-5.09,1.2-6.52,1.86-14.93,4.46v0a15,15,0,0,0-11.4,14.58A13.94,13.94,0,0,0,31.36,65C31.22,69.15,31.14,73.69,31.14,78.47ZM82.86,67.94A20.38,20.38,0,0,1,100.36,58h.23v0h17V37.16h17.31V50.58h0V69.07h0v.12h19.71V89H138.61v.08h-3.78v18.67h0V120H117.57V98.78H100.94c-.2,0-.38,0-.58,0a20.38,20.38,0,0,1-17.5-10Z"/><path class="cls-2" d="M100.36,98.81c.2,0,.38,0,.58,0h16.63V120h17.31V107.74h0V89.07h3.78V89h15.95V69.19H134.85v-.12h0V50.58h0V37.16H117.57V58h-17v0h-.23a20.38,20.38,0,0,0-17.5,9.95V88.86A20.38,20.38,0,0,0,100.36,98.81Z"/><polygon class="cls-3" points="116.31 82.31 116.31 73.89 113.87 71.45 96.51 71.45 96.51 84.77 113.85 84.77 116.31 82.31"/><polygon class="cls-4" points="113.75 74.22 113.75 74.22 111.47 71.89 109.78 71.89 112.06 74.22 112.06 74.22 112.06 82.03 112.06 82.03 109.78 84.36 111.47 84.36 113.72 82.06 113.75 82.06 113.75 74.22"/><rect class="cls-5" x="113.94" y="74.8" width="1.98" height="6.51"/><path class="cls-6" d="M31.08,78.6c0,4.81.08,9.39.21,13.6a16,16,0,0,0-.1,1.7,15,15,0,0,0,11.4,14.58v0c8.42,2.6,9.84,3.26,14.93,4.46a281.16,281.16,0,0,0,48.11,7.34h49V37.25h-49a282,282,0,0,0-48.1,7.33c-5.1,1.21-6.52,1.86-14.94,4.47h0a15,15,0,0,0-11.4,14.58c0,.49,0,1,.08,1.45C31.16,69.28,31.08,73.83,31.08,78.6Z"/><rect class="cls-7" x="625.16" y="117.84" width="180.7" height="2.84"/><rect class="cls-7" x="145" y="117.84" width="438.95" height="2.84"/><rect class="cls-8" x="778.91" y="117.82" width="26.93" height="2.83"/><rect class="cls-8" x="746.17" y="117.84" width="35.27" height="2.83"/><rect class="cls-8" x="695.19" y="117.85" width="14.03" height="2.83"/><rect class="cls-8" x="625.15" y="117.83" width="33.07" height="2.83"/><rect class="cls-8" x="537.79" y="117.85" width="46.17" height="2.83"/><rect class="cls-8" x="486.66" y="117.89" width="14.35" height="2.83"/><rect class="cls-8" x="432.84" y="117.85" width="17.13" height="2.83"/><rect class="cls-8" x="381.78" y="117.83" width="14.27" height="2.83"/><rect class="cls-8" x="298.87" y="117.85" width="46.22" height="2.83"/><rect class="cls-8" x="224.6" y="117.82" width="33.03" height="2.83"/><rect class="cls-8" x="157.35" y="117.88" width="31.25" height="2.83"/><rect class="cls-8" x="145.04" y="117.88" width="11.66" height="2.83"/><rect class="cls-7" x="625.26" y="36.96" width="180.69" height="2.83"/><rect class="cls-7" x="145.12" y="36.96" width="438.94" height="2.83"/><rect class="cls-8" x="779.01" y="36.95" width="26.93" height="2.83"/><rect class="cls-8" x="746.43" y="36.97" width="35.27" height="2.83"/><rect class="cls-8" x="657.88" y="36.97" width="51.44" height="2.83"/><rect class="cls-8" x="625.26" y="36.96" width="33.07" height="2.83"/><rect class="cls-8" x="537.9" y="36.97" width="46.16" height="2.83"/><rect class="cls-8" x="486.77" y="37.01" width="14.35" height="2.83"/><rect class="cls-8" x="432.95" y="36.98" width="17.13" height="2.83"/><rect class="cls-8" x="381.9" y="36.96" width="14.27" height="2.83"/><rect class="cls-8" x="298.99" y="36.98" width="46.22" height="2.83"/><rect class="cls-8" x="224.72" y="36.95" width="33.03" height="2.83"/><rect class="cls-8" x="157.56" y="37.01" width="31.25" height="2.83"/><rect class="cls-8" x="145.16" y="37.01" width="11.65" height="2.83"/><rect class="cls-9" x="803.2" y="37.45" width="2.84" height="83.23"/><rect class="cls-8" x="803.19" y="90.28" width="2.83" height="30.33"/><rect class="cls-8" x="803.19" y="37.39" width="2.83" height="30.35"/><rect id="GULV" class="cls-10" x="154.6" y="39.01" width="648.97" height="79.37"/><rect class="cls-1" x="585.3" y="39.06" width="34.18" height="23.42"/><rect class="cls-1" x="585.3" y="95.41" width="34.18" height="22.75"/><rect class="cls-11" x="619.55" y="103.16" width="23.12" height="15.2"/><rect class="cls-11" x="561.75" y="39.35" width="23.12" height="15.2"/><rect class="cls-12" x="620.83" y="91" width="20.61" height="11.99"/><rect class="cls-12" x="620.75" y="54.61" width="20.61" height="11.98"/><rect class="cls-13" x="120.56" y="54.83" width="11.34" height="11.34" rx="0.85" ry="0.85"/><rect class="cls-14" x="120.56" y="54.83" width="11.34" height="11.34" rx="0.85" ry="0.85"/><path class="cls-15" d="M134.32,67.11h-3.7a.85.85,0,0,1-.84-.85V54.92a.85.85,0,0,1,.84-.85h3.7Z"/><line class="cls-16" x1="650.78" y1="39.16" x2="703.08" y2="39.21"/><rect class="cls-8" x="800.52" y="66.76" width="0.71" height="11.76"/><rect class="cls-8" x="800.52" y="78.84" width="0.71" height="11.76"/><path class="cls-9" d="M156,86.45h14.28A14.33,14.33,0,0,0,156,72.26Z"/><rect class="cls-17" x="154.98" y="39.56" width="0.85" height="32.7"/><rect class="cls-17" x="154.98" y="86.52" width="0.85" height="32.07"/><polygon class="cls-17" points="170.24 86.4 170.24 85.55 155.97 85.55 155.97 86.4 170.24 86.4"/><polygon class="cls-18" points="296.5 48.18 302.38 54.06 320.41 54.06 320.41 39.33 296.5 39.33 296.5 48.18"/><polygon class="cls-11" points="254.21 54.11 248.83 54.11 248.83 39.37 260.1 39.37 260.1 48.23 254.21 54.11"/><polygon class="cls-18" points="296.6 109.17 302.49 103.28 320.52 103.28 320.52 118.02 296.6 118.02 296.6 109.17"/><polygon class="cls-11" points="254.32 103.23 248.93 103.23 248.93 117.97 260.2 117.97 260.2 109.12 254.32 103.23"/><rect class="cls-11" x="134.84" y="88.71" width="20.22" height="29.44"/><rect class="cls-11" x="134.86" y="38.78" width="20.22" height="29.44"/><polygon class="cls-19" points="318.23 98.64 318.23 90.23 315.79 87.78 298.43 87.78 298.43 101.11 315.77 101.11 318.23 98.64"/><polygon class="cls-20" points="315.67 90.55 315.67 90.55 313.39 88.22 311.7 88.22 313.98 90.55 313.98 90.55 313.98 98.37 313.98 98.37 311.7 100.7 313.39 100.7 315.64 98.39 315.67 98.39 315.67 90.55"/><rect class="cls-5" x="315.84" y="91.2" width="1.98" height="6.52"/><polygon class="cls-19" points="318.03 67.47 318.03 59.05 315.58 56.61 298.23 56.61 298.23 69.93 315.56 69.93 318.03 67.47"/><polygon class="cls-20" points="315.47 59.37 315.46 59.37 313.19 57.05 311.5 57.05 313.77 59.37 313.78 59.37 313.78 67.19 313.77 67.19 311.5 69.52 313.19 69.52 315.44 67.21 315.47 67.21 315.47 59.37"/><rect class="cls-5" x="315.64" y="60.03" width="1.98" height="6.51"/><polygon class="cls-19" points="161.14 89.67 161.14 98.08 163.58 100.53 180.93 100.53 180.93 87.2 163.6 87.2 161.14 89.67"/><polygon class="cls-20" points="163.7 97.76 163.7 97.76 165.98 100.09 167.67 100.09 165.39 97.76 165.39 97.76 165.39 89.94 165.39 89.94 167.67 87.61 165.98 87.61 163.73 89.92 163.7 89.92 163.7 97.76"/><rect class="cls-5" x="161.55" y="90.59" width="1.98" height="6.52"/><polygon class="cls-19" points="161.15 105.45 161.15 113.87 163.59 116.31 180.94 116.31 180.94 102.99 163.61 102.99 161.15 105.45"/><polygon class="cls-20" points="163.71 113.55 163.71 113.55 165.99 115.87 167.68 115.87 165.4 113.55 165.4 113.55 165.4 105.73 165.4 105.73 167.68 103.4 165.99 103.4 163.73 105.71 163.71 105.71 163.71 113.55"/><rect class="cls-5" x="161.55" y="106.38" width="1.98" height="6.51"/><polygon class="cls-19" points="161.31 42.98 161.31 51.39 163.75 53.84 181.11 53.84 181.11 40.52 163.78 40.52 161.31 42.98"/><polygon class="cls-20" points="163.87 51.07 163.88 51.07 166.15 53.4 167.84 53.4 165.57 51.07 165.56 51.07 165.56 43.25 165.57 43.25 167.84 40.92 166.15 40.92 163.9 43.23 163.87 43.23 163.87 51.07"/><rect class="cls-5" x="161.72" y="43.9" width="1.98" height="6.51"/><polygon class="cls-19" points="161.32 58.76 161.32 67.17 163.76 69.62 181.12 69.62 181.12 56.3 163.78 56.3 161.32 58.76"/><polygon class="cls-20" points="163.88 66.85 163.88 66.85 166.16 69.18 167.85 69.18 165.57 66.85 165.57 66.85 165.57 59.04 165.57 59.04 167.85 56.71 166.16 56.71 163.91 59.02 163.88 59.02 163.88 66.85"/><rect class="cls-5" x="161.73" y="59.68" width="1.98" height="6.51"/><polygon class="cls-19" points="325.43 90.09 325.43 98.5 327.88 100.95 345.23 100.95 345.23 87.62 327.9 87.62 325.43 90.09"/><polygon class="cls-20" points="327.99 98.18 328 98.18 330.27 100.51 331.96 100.51 329.69 98.18 329.68 98.18 329.68 90.36 329.69 90.36 331.96 88.04 330.27 88.04 328.02 90.34 327.99 90.34 327.99 98.18"/><rect class="cls-5" x="325.84" y="91.01" width="1.98" height="6.51"/><polygon class="cls-19" points="325.44 105.87 325.44 114.29 327.89 116.73 345.24 116.73 345.24 103.41 327.9 103.41 325.44 105.87"/><polygon class="cls-20" points="328 113.97 328.01 113.97 330.28 116.3 331.97 116.3 329.7 113.97 329.69 113.97 329.69 106.15 329.7 106.15 331.97 103.82 330.28 103.82 328.03 106.13 328 106.13 328 113.97"/><rect class="cls-5" x="325.85" y="106.8" width="1.98" height="6.51"/><polygon class="cls-19" points="325.61 43.4 325.61 51.81 328.05 54.26 345.4 54.26 345.4 40.93 328.07 40.93 325.61 43.4"/><polygon class="cls-20" points="328.16 51.49 328.17 51.49 330.45 53.82 332.13 53.82 329.86 51.49 329.85 51.49 329.85 43.67 329.86 43.67 332.13 41.35 330.45 41.35 328.19 43.65 328.16 43.65 328.16 51.49"/><rect class="cls-5" x="326.01" y="44.32" width="1.98" height="6.51"/><polygon class="cls-19" points="325.62 59.18 325.62 67.6 328.06 70.04 345.41 70.04 345.41 56.72 328.08 56.72 325.62 59.18"/><polygon class="cls-20" points="328.17 67.27 328.18 67.27 330.45 69.6 332.14 69.6 329.87 67.27 329.86 67.27 329.86 59.46 329.87 59.46 332.14 57.13 330.45 57.13 328.2 59.43 328.17 59.43 328.17 67.27"/><rect class="cls-5" x="326.02" y="60.11" width="1.98" height="6.51"/><polygon class="cls-19" points="385.18 89.51 385.18 97.93 382.74 100.37 365.38 100.37 365.38 87.05 382.71 87.05 385.18 89.51"/><polygon class="cls-20" points="382.62 97.61 382.61 97.61 380.34 99.94 378.65 99.94 380.92 97.61 380.93 97.61 380.93 89.79 380.92 89.79 378.65 87.46 380.34 87.46 382.59 89.77 382.62 89.77 382.62 97.61"/><rect class="cls-5" x="382.79" y="90.44" width="1.98" height="6.52"/><polygon class="cls-19" points="385.17 105.3 385.17 113.72 382.73 116.16 365.37 116.16 365.37 102.84 382.71 102.84 385.17 105.3"/><polygon class="cls-20" points="382.61 113.39 382.61 113.39 380.33 115.72 378.64 115.72 380.92 113.39 380.92 113.39 380.92 105.58 380.92 105.58 378.64 103.25 380.33 103.25 382.58 105.55 382.61 105.55 382.61 113.39"/><rect class="cls-5" x="382.78" y="106.22" width="1.98" height="6.51"/><polygon class="cls-19" points="385.01 42.82 385.01 51.24 382.56 53.68 365.21 53.68 365.21 40.36 382.54 40.36 385.01 42.82"/><polygon class="cls-20" points="382.45 50.92 382.44 50.92 380.17 53.24 378.48 53.24 380.75 50.92 380.76 50.92 380.76 43.1 380.75 43.1 378.48 40.77 380.17 40.77 382.42 43.08 382.45 43.08 382.45 50.92"/><rect class="cls-5" x="382.62" y="43.75" width="1.98" height="6.51"/><polygon class="cls-19" points="385 58.61 385 67.02 382.55 69.47 365.2 69.47 365.2 56.14 382.54 56.14 385 58.61"/><polygon class="cls-20" points="382.44 66.7 382.43 66.7 380.16 69.03 378.47 69.03 380.74 66.7 380.75 66.7 380.75 58.88 380.74 58.88 378.47 56.56 380.16 56.56 382.41 58.86 382.44 58.86 382.44 66.7"/><rect class="cls-5" x="382.61" y="59.53" width="1.98" height="6.51"/><polygon class="cls-19" points="435.82 90.01 435.82 98.42 433.38 100.87 416.03 100.87 416.03 87.55 433.36 87.55 435.82 90.01"/><polygon class="cls-20" points="433.26 98.1 433.26 98.1 430.98 100.43 429.3 100.43 431.57 98.1 431.57 98.1 431.57 90.28 431.57 90.28 429.3 87.96 430.98 87.96 433.24 90.26 433.26 90.26 433.26 98.1"/><rect class="cls-5" x="433.43" y="90.93" width="1.98" height="6.52"/><polygon class="cls-19" points="435.81 105.79 435.81 114.21 433.37 116.66 416.02 116.66 416.02 103.33 433.35 103.33 435.81 105.79"/><polygon class="cls-20" points="433.26 113.89 433.25 113.89 430.98 116.22 429.29 116.22 431.56 113.89 431.57 113.89 431.57 106.07 431.56 106.07 429.29 103.74 430.98 103.74 433.23 106.05 433.26 106.05 433.26 113.89"/><rect class="cls-5" x="433.42" y="106.72" width="1.98" height="6.51"/><polygon class="cls-19" points="435.65 43.32 435.65 51.73 433.21 54.18 415.86 54.18 415.86 40.86 433.19 40.86 435.65 43.32"/><polygon class="cls-20" points="433.09 51.41 433.09 51.41 430.81 53.74 429.12 53.74 431.4 51.41 431.4 51.41 431.4 43.59 431.4 43.59 429.12 41.27 430.81 41.27 433.06 43.57 433.09 43.57 433.09 51.41"/><rect class="cls-5" x="433.26" y="44.24" width="1.98" height="6.51"/><polygon class="cls-19" points="435.64 59.1 435.64 67.52 433.2 69.96 415.85 69.96 415.85 56.64 433.18 56.64 435.64 59.1"/><polygon class="cls-20" points="433.08 67.19 433.08 67.19 430.8 69.52 429.12 69.52 431.39 67.19 431.39 67.19 431.39 59.38 431.39 59.38 429.12 57.05 430.8 57.05 433.06 59.36 433.08 59.36 433.08 67.19"/><rect class="cls-5" x="433.25" y="60.03" width="1.98" height="6.51"/><polygon class="cls-19" points="411.17 89.83 411.17 98.25 408.73 100.69 391.37 100.69 391.37 87.37 408.71 87.37 411.17 89.83"/><polygon class="cls-20" points="408.61 97.92 408.6 97.92 406.33 100.25 404.64 100.25 406.91 97.92 406.92 97.92 406.92 90.11 406.91 90.11 404.64 87.78 406.33 87.78 408.58 90.08 408.61 90.08 408.61 97.92"/><rect class="cls-5" x="408.78" y="90.76" width="1.98" height="6.51"/><polygon class="cls-19" points="411.16 105.62 411.16 114.03 408.72 116.48 391.36 116.48 391.36 103.15 408.7 103.15 411.16 105.62"/><polygon class="cls-20" points="408.6 113.71 408.6 113.71 406.32 116.04 404.63 116.04 406.91 113.71 406.91 113.71 406.91 105.89 406.91 105.89 404.63 103.56 406.32 103.56 408.57 105.87 408.6 105.87 408.6 113.71"/><rect class="cls-5" x="408.77" y="106.54" width="1.98" height="6.51"/><polygon class="cls-19" points="411 43.14 411 51.56 408.55 54 391.2 54 391.2 40.68 408.54 40.68 411 43.14"/><polygon class="cls-20" points="408.44 51.23 408.43 51.23 406.16 53.56 404.47 53.56 406.74 51.23 406.75 51.23 406.75 43.42 406.74 43.42 404.47 41.09 406.16 41.09 408.41 43.4 408.44 43.4 408.44 51.23"/><rect class="cls-5" x="408.61" y="44.07" width="1.98" height="6.51"/><polygon class="cls-19" points="410.99 58.92 410.99 67.34 408.55 69.78 391.19 69.78 391.19 56.46 408.53 56.46 410.99 58.92"/><polygon class="cls-20" points="408.43 67.02 408.42 67.02 406.15 69.35 404.46 69.35 406.74 67.02 406.74 67.02 406.74 59.2 406.74 59.2 404.46 56.87 406.15 56.87 408.4 59.18 408.43 59.18 408.43 67.02"/><rect class="cls-5" x="408.6" y="59.85" width="1.98" height="6.51"/><polygon class="cls-19" points="647.11 89.85 647.11 98.26 649.56 100.71 666.91 100.71 666.91 87.38 649.58 87.38 647.11 89.85"/><polygon class="cls-20" points="649.67 97.94 649.68 97.94 651.95 100.27 653.64 100.27 651.37 97.94 651.36 97.94 651.36 90.12 651.37 90.12 653.64 87.79 651.95 87.79 649.7 90.1 649.67 90.1 649.67 97.94"/><rect class="cls-5" x="647.52" y="90.77" width="1.98" height="6.52"/><polygon class="cls-19" points="647.12 105.63 647.12 114.05 649.57 116.49 666.92 116.49 666.92 103.17 649.58 103.17 647.12 105.63"/><polygon class="cls-20" points="649.68 113.73 649.69 113.73 651.96 116.05 653.65 116.05 651.38 113.73 651.37 113.73 651.37 105.91 651.38 105.91 653.65 103.58 651.96 103.58 649.71 105.89 649.68 105.89 649.68 113.73"/><rect class="cls-5" x="647.53" y="106.56" width="1.98" height="6.51"/><polygon class="cls-19" points="647.2 43.03 647.2 51.44 649.64 53.89 666.99 53.89 666.99 40.56 649.66 40.56 647.2 43.03"/><polygon class="cls-20" points="649.76 51.12 649.76 51.12 652.04 53.45 653.73 53.45 651.45 51.12 651.45 51.12 651.45 43.3 651.45 43.3 653.73 40.98 652.04 40.98 649.78 43.28 649.76 43.28 649.76 51.12"/><rect class="cls-5" x="647.61" y="43.95" width="1.98" height="6.51"/><polygon class="cls-19" points="647.21 58.81 647.21 67.22 649.65 69.67 667 69.67 667 56.35 649.67 56.35 647.21 58.81"/><polygon class="cls-20" points="649.77 66.9 649.77 66.9 652.05 69.23 653.74 69.23 651.46 66.9 651.46 66.9 651.46 59.09 651.46 59.09 653.74 56.76 652.05 56.76 649.79 59.06 649.77 59.06 649.77 66.9"/><rect class="cls-5" x="647.61" y="59.74" width="1.98" height="6.51"/><rect class="cls-8" x="759.78" y="78.88" width="0.77" height="11.06"/><rect class="cls-8" x="759.78" y="66.82" width="0.77" height="11.1"/><polygon class="cls-8" points="760.63 67.55 760.63 53.75 759.85 53.75 759.85 38.82 761.6 38.82 761.6 67.55 760.63 67.55"/><polygon class="cls-8" points="760.63 89.07 761.6 89.07 761.6 118.7 759.85 118.7 759.85 101.2 760.63 101.2 760.63 89.07"/><rect class="cls-21" x="761.67" y="39.08" width="41.48" height="28.22"/><rect class="cls-22" x="772.14" y="39.47" width="27.34" height="27.06"/><path class="cls-23" d="M799.46,39.49H772.19V44.6h14.29c.08,2.22,2.51,4,5.5,4s5.43-1.79,5.51-4h2Z"/><ellipse class="cls-24" cx="792" cy="44.5" rx="4.99" ry="3.53"/><path class="cls-23" d="M774.35,62.06H780c3.95,0,7.16-2.48,7.16-5.52S783.88,51,779.9,51h-7.59V62.06Z"/><path class="cls-23" d="M774.79,60a7.88,7.88,0,0,0,5.13,1.77c3.77,0,6.83-2.32,6.83-5.18s-3.06-5.17-6.83-5.17a7.93,7.93,0,0,0-5.13,1.76Z"/><rect class="cls-21" x="761.66" y="89.74" width="41.48" height="28.22"/><rect class="cls-22" x="765.33" y="90.5" width="27.34" height="27.06"/><path class="cls-23" d="M765.36,117.55h27.26v-5.11H778.33c-.08-2.22-2.51-4-5.5-4s-5.43,1.79-5.51,4h-2Z"/><path class="cls-25" d="M777.8,112.54c0,1.95-2.23,3.53-5,3.53s-5-1.58-5-3.53,2.24-3.54,5-3.54S777.8,110.59,777.8,112.54Z"/><path class="cls-23" d="M790.47,95h-5.61c-4,0-7.15,2.49-7.15,5.53s3.22,5.53,7.2,5.53h7.59V95Z"/><path class="cls-23" d="M790,97.07a7.93,7.93,0,0,0-5.13-1.76c-3.77,0-6.83,2.32-6.83,5.17s3.06,5.18,6.83,5.18a7.88,7.88,0,0,0,5.13-1.77Z"/><rect class="cls-8" x="644.16" y="78.55" width="0.77" height="11.06"/><rect class="cls-8" x="644.16" y="66.49" width="0.77" height="11.1"/><polygon class="cls-8" points="644.08 67.22 644.08 53.42 644.86 53.42 644.86 38.48 643.11 38.48 643.11 67.22 644.08 67.22"/><polygon class="cls-8" points="644.08 88.73 643.11 88.73 643.11 118.36 644.86 118.36 644.86 100.86 644.08 100.86 644.08 88.73"/><rect class="cls-11" x="619.55" y="39.16" width="23.12" height="15.2"/><polygon class="cls-19" points="188.14 90 188.14 98.42 190.58 100.86 207.93 100.86 207.93 87.54 190.6 87.54 188.14 90"/><polygon class="cls-20" points="190.7 98.09 190.7 98.09 192.98 100.42 194.67 100.42 192.39 98.09 192.39 98.09 192.39 90.28 192.39 90.28 194.67 87.95 192.98 87.95 190.72 90.25 190.7 90.25 190.7 98.09"/><rect class="cls-5" x="188.55" y="90.92" width="1.98" height="6.52"/><polygon class="cls-19" points="188.15 105.78 188.15 114.2 190.59 116.65 207.94 116.65 207.94 103.32 190.61 103.32 188.15 105.78"/><polygon class="cls-20" points="190.71 113.88 190.71 113.88 192.99 116.21 194.68 116.21 192.4 113.88 192.4 113.88 192.4 106.06 192.4 106.06 194.68 103.73 192.99 103.73 190.73 106.04 190.71 106.04 190.71 113.88"/><rect class="cls-5" x="188.55" y="106.71" width="1.98" height="6.51"/><polygon class="cls-19" points="188.31 43.31 188.31 51.72 190.75 54.17 208.11 54.17 208.11 40.85 190.77 40.85 188.31 43.31"/><polygon class="cls-20" points="190.87 51.4 190.88 51.4 193.15 53.73 194.84 53.73 192.56 51.4 192.56 51.4 192.56 43.59 192.56 43.59 194.84 41.26 193.15 41.26 190.9 43.56 190.87 43.56 190.87 51.4"/><rect class="cls-5" x="188.72" y="44.23" width="1.98" height="6.51"/><polygon class="cls-19" points="188.32 59.09 188.32 67.51 190.76 69.95 208.12 69.95 208.12 56.63 190.78 56.63 188.32 59.09"/><polygon class="cls-20" points="190.88 67.19 190.88 67.19 193.16 69.51 194.85 69.51 192.57 67.19 192.57 67.19 192.57 59.37 192.57 59.37 194.85 57.04 193.16 57.04 190.91 59.35 190.88 59.35 190.88 67.19"/><rect class="cls-5" x="188.73" y="60.02" width="1.98" height="6.51"/><polygon class="cls-19" points="243.78 89.67 243.78 98.08 241.34 100.53 223.99 100.53 223.99 87.2 241.32 87.2 243.78 89.67"/><polygon class="cls-20" points="241.22 97.76 241.22 97.76 238.94 100.09 237.25 100.09 239.53 97.76 239.53 97.76 239.53 89.94 239.53 89.94 237.25 87.61 238.94 87.61 241.2 89.92 241.22 89.92 241.22 97.76"/><rect class="cls-5" x="241.39" y="90.59" width="1.98" height="6.52"/><polygon class="cls-19" points="243.77 105.45 243.77 113.87 241.33 116.31 223.98 116.31 223.98 102.99 241.31 102.99 243.77 105.45"/><polygon class="cls-20" points="241.22 113.55 241.21 113.55 238.94 115.87 237.25 115.87 239.52 113.55 239.53 113.55 239.53 105.73 239.52 105.73 237.25 103.4 238.94 103.4 241.19 105.71 241.22 105.71 241.22 113.55"/><rect class="cls-5" x="241.38" y="106.38" width="1.98" height="6.51"/><polygon class="cls-19" points="243.61 42.98 243.61 51.39 241.17 53.84 223.82 53.84 223.82 40.52 241.15 40.52 243.61 42.98"/><polygon class="cls-20" points="241.05 51.07 241.05 51.07 238.77 53.4 237.08 53.4 239.36 51.07 239.36 51.07 239.36 43.25 239.36 43.25 237.08 40.92 238.77 40.92 241.03 43.23 241.05 43.23 241.05 51.07"/><rect class="cls-5" x="241.22" y="43.9" width="1.98" height="6.51"/><polygon class="cls-19" points="243.6 58.76 243.6 67.17 241.16 69.62 223.81 69.62 223.81 56.3 241.14 56.3 243.6 58.76"/><polygon class="cls-20" points="241.04 66.85 241.04 66.85 238.76 69.18 237.07 69.18 239.35 66.85 239.35 66.85 239.35 59.04 239.35 59.04 237.07 56.71 238.76 56.71 241.02 59.02 241.04 59.02 241.04 66.85"/><rect class="cls-5" x="241.21" y="59.68" width="1.98" height="6.51"/><polygon class="cls-19" points="704.25 89.96 704.25 98.37 701.81 100.81 684.46 100.81 684.46 87.49 701.79 87.49 704.25 89.96"/><polygon class="cls-20" points="701.7 98.05 701.69 98.05 699.41 100.38 697.73 100.38 700 98.05 700.01 98.05 700.01 90.23 700 90.23 697.73 87.9 699.41 87.9 701.67 90.21 701.7 90.21 701.7 98.05"/><rect class="cls-5" x="701.86" y="90.88" width="1.98" height="6.52"/><polygon class="cls-19" points="704.24 105.74 704.24 114.16 701.8 116.6 684.45 116.6 684.45 103.28 701.78 103.28 704.24 105.74"/><polygon class="cls-20" points="701.69 113.83 701.68 113.83 699.41 116.16 697.72 116.16 699.99 113.83 700 113.83 700 106.02 699.99 106.02 697.72 103.69 699.41 103.69 701.66 106 701.69 106 701.69 113.83"/><rect class="cls-5" x="701.86" y="106.67" width="1.98" height="6.51"/><polygon class="cls-19" points="704.08 43.27 704.08 51.68 701.64 54.13 684.29 54.13 684.29 40.8 701.62 40.8 704.08 43.27"/><polygon class="cls-20" points="701.52 51.36 701.52 51.36 699.24 53.69 697.55 53.69 699.83 51.36 699.83 51.36 699.83 43.54 699.83 43.54 697.55 41.21 699.24 41.21 701.5 43.52 701.52 43.52 701.52 51.36"/><rect class="cls-5" x="701.69" y="44.19" width="1.98" height="6.51"/><polygon class="cls-19" points="704.07 59.05 704.07 67.46 701.63 69.91 684.28 69.91 684.28 56.59 701.61 56.59 704.07 59.05"/><polygon class="cls-20" points="701.52 67.14 701.51 67.14 699.24 69.47 697.55 69.47 699.82 67.14 699.83 67.14 699.83 59.33 699.82 59.33 697.55 57 699.24 57 701.49 59.3 701.52 59.3 701.52 67.14"/><rect class="cls-5" x="701.68" y="59.97" width="1.98" height="6.51"/><polygon class="cls-19" points="730 89.71 730 98.12 727.56 100.56 710.21 100.56 710.21 87.24 727.54 87.24 730 89.71"/><polygon class="cls-20" points="727.45 97.8 727.44 97.8 725.16 100.13 723.48 100.13 725.75 97.8 725.76 97.8 725.76 89.98 725.75 89.98 723.48 87.65 725.16 87.65 727.42 89.96 727.45 89.96 727.45 97.8"/><rect class="cls-5" x="727.61" y="90.63" width="1.98" height="6.52"/><polygon class="cls-19" points="729.99 105.49 729.99 113.91 727.55 116.35 710.2 116.35 710.2 103.03 727.53 103.03 729.99 105.49"/><polygon class="cls-20" points="727.44 113.58 727.43 113.58 725.16 115.91 723.47 115.91 725.74 113.58 725.75 113.58 725.75 105.77 725.74 105.77 723.47 103.44 725.16 103.44 727.41 105.75 727.44 105.75 727.44 113.58"/><rect class="cls-5" x="727.61" y="106.42" width="1.98" height="6.51"/><polygon class="cls-19" points="729.83 43.02 729.83 51.43 727.39 53.88 710.04 53.88 710.04 40.55 727.37 40.55 729.83 43.02"/><polygon class="cls-20" points="727.27 51.11 727.27 51.11 724.99 53.44 723.3 53.44 725.58 51.11 725.58 51.11 725.58 43.29 725.58 43.29 723.3 40.96 724.99 40.96 727.25 43.27 727.27 43.27 727.27 51.11"/><rect class="cls-5" x="727.44" y="43.94" width="1.98" height="6.51"/><polygon class="cls-19" points="729.82 58.8 729.82 67.21 727.38 69.66 710.03 69.66 710.03 56.34 727.36 56.34 729.82 58.8"/><polygon class="cls-20" points="727.27 66.89 727.26 66.89 724.99 69.22 723.3 69.22 725.57 66.89 725.58 66.89 725.58 59.08 725.57 59.08 723.3 56.75 724.99 56.75 727.24 59.05 727.27 59.05 727.27 66.89"/><rect class="cls-5" x="727.43" y="59.72" width="1.98" height="6.51"/><polygon class="cls-19" points="755.5 89.71 755.5 98.12 753.06 100.56 735.71 100.56 735.71 87.24 753.04 87.24 755.5 89.71"/><polygon class="cls-20" points="752.95 97.8 752.94 97.8 750.66 100.13 748.98 100.13 751.25 97.8 751.26 97.8 751.26 89.98 751.25 89.98 748.98 87.65 750.66 87.65 752.92 89.96 752.95 89.96 752.95 97.8"/><rect class="cls-5" x="753.11" y="90.63" width="1.98" height="6.52"/><polygon class="cls-19" points="755.49 105.49 755.49 113.91 753.05 116.35 735.7 116.35 735.7 103.03 753.03 103.03 755.49 105.49"/><polygon class="cls-20" points="752.94 113.58 752.93 113.58 750.66 115.91 748.97 115.91 751.24 113.58 751.25 113.58 751.25 105.77 751.24 105.77 748.97 103.44 750.66 103.44 752.91 105.75 752.94 105.75 752.94 113.58"/><rect class="cls-5" x="753.11" y="106.42" width="1.98" height="6.51"/><polygon class="cls-19" points="755.33 43.02 755.33 51.43 752.89 53.88 735.54 53.88 735.54 40.55 752.87 40.55 755.33 43.02"/><polygon class="cls-20" points="752.77 51.11 752.77 51.11 750.49 53.44 748.8 53.44 751.08 51.11 751.08 51.11 751.08 43.29 751.08 43.29 748.8 40.96 750.49 40.96 752.75 43.27 752.77 43.27 752.77 51.11"/><rect class="cls-5" x="752.94" y="43.94" width="1.98" height="6.51"/><polygon class="cls-19" points="755.32 58.8 755.32 67.21 752.88 69.66 735.53 69.66 735.53 56.34 752.86 56.34 755.32 58.8"/><polygon class="cls-20" points="752.77 66.89 752.76 66.89 750.49 69.22 748.8 69.22 751.07 66.89 751.08 66.89 751.08 59.08 751.07 59.08 748.8 56.75 750.49 56.75 752.74 59.05 752.77 59.05 752.77 66.89"/><rect class="cls-5" x="752.93" y="59.72" width="1.98" height="6.51"/><polygon class="cls-26" points="488.71 39.18 488.73 39.39 488.75 39.7 488.77 40 488.79 40.31 488.81 40.61 488.83 40.9 488.85 41.18 488.87 41.46 488.9 41.72 488.92 41.97 488.95 42.2 488.98 42.42 489 42.63 489.04 42.83 489.07 43.02 489.1 43.21 489.14 43.39 489.18 43.57 489.22 43.75 489.27 43.93 489.31 44.11 489.36 44.29 489.41 44.47 489.46 44.66 489.52 44.84 489.57 45.03 489.63 45.22 489.69 45.41 489.75 45.61 489.81 45.81 489.88 46.01 489.95 46.22 490.03 46.42 490.12 46.63 490.2 46.85 490.3 47.07 490.4 47.29 490.51 47.51 490.63 47.73 490.74 47.95 490.87 48.18 491 48.39 491.13 48.61 491.27 48.82 491.42 49.03 491.57 49.23 491.73 49.42 491.89 49.61 492.07 49.79 492.24 49.96 492.43 50.13 492.63 50.28 492.84 50.41 493.07 50.53 493.32 50.63 493.58 50.72 493.88 50.77 494.2 50.81 494.52 50.77 494.81 50.72 495.08 50.63 495.33 50.53 495.56 50.41 495.77 50.28 495.96 50.13 496.15 49.96 496.33 49.79 496.5 49.61 496.67 49.42 496.83 49.23 496.98 49.03 497.13 48.82 497.27 48.61 497.4 48.39 497.53 48.18 497.65 47.95 497.77 47.73 497.89 47.51 497.99 47.29 498.09 47.07 498.19 46.85 498.28 46.63 498.37 46.42 498.44 46.22 498.52 46.01 498.58 45.81 498.65 45.61 498.71 45.41 498.77 45.22 498.82 45.03 498.88 44.84 498.93 44.66 498.99 44.47 499.04 44.29 499.08 44.11 499.13 43.93 499.18 43.75 499.22 43.57 499.26 43.39 499.29 43.21 499.33 43.02 499.36 42.83 499.39 42.63 499.42 42.42 499.45 42.2 499.48 41.97 499.5 41.72 499.52 41.46 499.55 41.18 499.57 40.9 499.59 40.61 499.61 40.31 499.63 40 499.65 39.7 499.67 39.39 499.68 39.18 488.71 39.18"/><polygon class="cls-8" points="441.11 67.64 441.11 53.85 440.34 53.85 440.34 38.91 442.08 38.91 442.08 67.64 441.11 67.64"/><polygon class="cls-8" points="441.11 89.17 442.08 89.17 442.08 118.8 440.34 118.8 440.34 101.3 441.11 101.3 441.11 89.17"/><rect class="cls-8" x="440.15" y="79.03" width="0.77" height="11.06"/><rect class="cls-8" x="440.15" y="66.96" width="0.77" height="11.1"/><path class="cls-21" d="M494.28,98.72l-10.44,18.09v1.45H500.6v-9.9A10.51,10.51,0,0,0,494.28,98.72Z"/><polygon class="cls-27" points="483.85 116.83 457.14 101.4 467.64 83.22 494.28 98.72 483.85 116.83"/><path class="cls-21" d="M442.31,118.27h41.53v-1.38l-.16-.09,0,.07-26.71-15.43,10.5-18.18.09,0,.12-.2h0a1.51,1.51,0,0,0-1.95.78,1,1,0,0,1-.07.15l-8.06,14a19,19,0,0,1-15.24,8v7h0Z"/></g><g id="Layer_2-4" data-name="Layer 2"><path class="cls-26" d="M585.37,103.71H561.89A38.73,38.73,0,0,0,553,87c-13.3-14.74-35.55-17.27-51.43-6.2l10.05,11.17a24.79,24.79,0,0,1,31.64,4.36,24,24,0,0,1,1.9,2.42v19.8h12.07v0h28.13Z"/><path class="cls-26" d="M523.6,73a39.38,39.38,0,0,1,38.28,29.46h1a41.18,41.18,0,0,0-62.36-23.61c.29.31.54.65.81,1A39.6,39.6,0,0,1,523.6,73Z"/><path class="cls-21" d="M544.78,118h40.14V103.78H557.34a34,34,0,0,0-8.27-15.28l0,0A2.39,2.39,0,0,0,544.77,90s0,.09,0,.14Z"/><rect class="cls-26" x="211.81" y="40.58" width="8.84" height="30.43" rx="0.85" ry="0.85"/><path class="cls-26" d="M214.87,41.76h-3V55.05h3a.85.85,0,0,0,.85-.85V42.61A.85.85,0,0,0,214.87,41.76Z"/><path class="cls-26" d="M217.64,41.78h3V55.07h-3a.85.85,0,0,1-.85-.85V42.63A.85.85,0,0,1,217.64,41.78Z"/><path class="cls-26" d="M214.87,56.34h-3V69.63h3a.85.85,0,0,0,.85-.85V57.19A.85.85,0,0,0,214.87,56.34Z"/><path class="cls-26" d="M217.64,56.35h3V69.64h-3a.85.85,0,0,1-.85-.85V57.2A.85.85,0,0,1,217.64,56.35Z"/><path class="cls-26" d="M255.05,103.9l5.26,5.25v6.78a6.92,6.92,0,1,0-5.26-12Z"/><path class="cls-26" d="M260.2,108.9l4.69-4.68a.51.51,0,0,0,0-.71.5.5,0,0,0-.71,0l-4.68,4.68Z"/><path class="cls-26" d="M255.05,53.41l5.26-5.26V41.38a6.91,6.91,0,1,1-5.26,12Z"/><path class="cls-26" d="M260.2,48.4l4.69,4.69a.5.5,0,0,1,0,.7.5.5,0,0,1-.71,0l-4.68-4.68Z"/><rect class="cls-26" x="282.66" y="55.63" width="8.95" height="15.82" rx="0.57" ry="0.57"/><path class="cls-26" d="M285.72,56.83h-3V70.12h3a.85.85,0,0,0,.85-.85V57.68A.85.85,0,0,0,285.72,56.83Z"/><path class="cls-26" d="M288.5,56.84h3V70.13h-3a.86.86,0,0,1-.86-.85V57.69A.86.86,0,0,1,288.5,56.84Z"/><rect class="cls-26" x="211.78" y="86.29" width="8.84" height="30.43" rx="0.85" ry="0.85"/><path class="cls-26" d="M214.84,87.47h-3v13.3h3a.86.86,0,0,0,.85-.86V88.33A.86.86,0,0,0,214.84,87.47Z"/><path class="cls-26" d="M217.62,87.49h3v13.29h-3a.85.85,0,0,1-.85-.85V88.34A.85.85,0,0,1,217.62,87.49Z"/><path class="cls-26" d="M214.84,102.05h-3v13.29h3a.85.85,0,0,0,.85-.85V102.9A.85.85,0,0,0,214.84,102.05Z"/><path class="cls-26" d="M217.62,102.06h3v13.29h-3a.85.85,0,0,1-.85-.85V102.91A.85.85,0,0,1,217.62,102.06Z"/><rect class="cls-26" x="282.96" y="86.63" width="8.95" height="15.82" rx="0.57" ry="0.57"/><path class="cls-26" d="M286,87.83h-3v13.29h3a.85.85,0,0,0,.85-.85V88.68A.85.85,0,0,0,286,87.83Z"/><path class="cls-26" d="M288.8,87.84h3v13.29h-3a.85.85,0,0,1-.85-.85V88.69A.85.85,0,0,1,288.8,87.84Z"/><rect class="cls-26" x="350.95" y="40.61" width="8.84" height="30.43" rx="0.85" ry="0.85"/><path class="cls-26" d="M354,41.79h-3V55.08h3a.86.86,0,0,0,.86-.85V42.64A.86.86,0,0,0,354,41.79Z"/><path class="cls-26" d="M356.78,41.8h3V55.09h-3a.85.85,0,0,1-.85-.85V42.65A.85.85,0,0,1,356.78,41.8Z"/><path class="cls-26" d="M354,56.36h-3V69.65h3a.86.86,0,0,0,.86-.85V57.21A.86.86,0,0,0,354,56.36Z"/><path class="cls-26" d="M356.78,56.38h3V69.67h-3a.85.85,0,0,1-.85-.85V57.23A.85.85,0,0,1,356.78,56.38Z"/><rect class="cls-26" x="350.92" y="86.32" width="8.84" height="30.43" rx="0.85" ry="0.85"/><path class="cls-26" d="M354,87.5h-3v13.29h3a.85.85,0,0,0,.85-.85V88.35A.85.85,0,0,0,354,87.5Z"/><path class="cls-26" d="M356.76,87.51h3v13.3h-3a.85.85,0,0,1-.86-.85V88.37A.86.86,0,0,1,356.76,87.51Z"/><path class="cls-26" d="M354,102.07h-3v13.29h3a.85.85,0,0,0,.85-.85V102.92A.85.85,0,0,0,354,102.07Z"/><path class="cls-26" d="M356.76,102.09h3v13.29h-3a.85.85,0,0,1-.86-.85V102.94A.85.85,0,0,1,356.76,102.09Z"/><path class="cls-26" d="M457.91,39.1a4.54,4.54,0,1,0,9.07,0Z"/><path class="cls-26" d="M523.68,39.2a4.54,4.54,0,1,0,9.08,0Z"/><rect class="cls-13" x="534.51" y="41.74" width="11.34" height="11.34" rx="0.85" ry="0.85"/><rect class="cls-28" x="534.51" y="41.74" width="11.34" height="11.34" rx="0.85" ry="0.85"/><path class="cls-15" d="M546.79,39.31V43a.85.85,0,0,1-.85.85H534.61a.86.86,0,0,1-.86-.85v-3.7Z"/><rect class="cls-13" x="510.58" y="41.75" width="11.34" height="11.34" rx="0.85" ry="0.85"/><rect class="cls-29" x="510.58" y="41.75" width="11.34" height="11.34" rx="0.85" ry="0.85"/><path class="cls-15" d="M509.64,39.32V43a.86.86,0,0,0,.85.85h11.34a.86.86,0,0,0,.85-.85v-3.7Z"/><rect class="cls-13" x="468.83" y="41.55" width="11.34" height="11.34" rx="0.85" ry="0.85"/><rect class="cls-30" x="468.83" y="41.55" width="11.34" height="11.34" rx="0.85" ry="0.85"/><path class="cls-15" d="M481.11,39.12v3.7a.85.85,0,0,1-.85.85H468.92a.85.85,0,0,1-.85-.85v-3.7Z"/><rect class="cls-13" x="444.89" y="41.56" width="11.34" height="11.34" rx="0.85" ry="0.85"/><rect class="cls-31" x="444.89" y="41.56" width="11.34" height="11.34" rx="0.85" ry="0.85"/><path class="cls-15" d="M444,39.13v3.7a.86.86,0,0,0,.85.85h11.34a.86.86,0,0,0,.85-.85v-3.7Z"/><path class="cls-26" d="M670.11,111.34l0,.68,0,.73,0,.74,0,.75.06.75.05.73,0,.69.06.66a1,1,0,0,0,.57.79.71.71,0,0,0,.28.06h7.89a.71.71,0,0,0,.28-.06,1,1,0,0,0,.57-.79h0l.06-.66.06-.69.05-.73,0-.75,0-.75,0-.74,0-.73,0-.68V108l0-.48,0-.47,0-.47,0-.46,0-.46,0-.45,0-.44,0-.42,0-.4,0-.38,0-.36,0-.34,0-.32,0-.31,0-.29,0-.28,0-.28,0-.28,0-.28,0-.27,0-.28-.05-.28,0-.28,0-.28,0-.28-.06-.29-.05-.29,0-.3-.06-.3-.06-.3-.06-.31-.07-.32-.07-.32-.08-.32-.09-.33-.09-.34-.09-.34-.1-.34-.11-.34-.11-.34-.11-.34-.13-.33-.12-.33L678,93l-.14-.31-.14-.31-.15-.3-.15-.29-.16-.28-.17-.26L676.9,91l-.18-.23-.2-.21-.21-.18-.23-.16-.25-.12-.28-.09-.3,0-.3,0-.27.09-.25.12-.23.16-.22.18-.19.21-.19.23-.17.25-.17.26-.16.28-.16.29-.14.3-.15.31-.13.31-.13.33-.13.33-.12.33-.12.34-.11.34-.11.34-.09.34-.1.34-.09.34-.08.33-.08.32-.07.32-.07.32-.07.31-.06.3-.05.3-.06.3-.05.29,0,.29,0,.28-.05.28,0,.28,0,.28-.05.28,0,.27,0,.28,0,.28,0,.28,0,.28,0,.29,0,.31,0,.32,0,.34,0,.36,0,.38,0,.4,0,.42,0,.44,0,.45,0,.46v.46l0,.47,0,.47,0,.48,0,.5v2.21Z"/><path class="cls-26" d="M670.13,48.93v.51l0,.5v.48l0,.47,0,.47,0,.46,0,.46,0,.45,0,.43,0,.43,0,.4,0,.38,0,.36,0,.34,0,.32,0,.31,0,.29,0,.28,0,.28,0,.28,0,.27,0,.28,0,.28,0,.28,0,.28.05.28,0,.28.06.29,0,.29.05.3.06.3.06.3.06.31.07.32.07.31.08.33.09.33.09.33.09.34.1.34.11.34.11.34.12.34.12.34.12.33.13.32.14.32.14.31.15.3.16.29.16.27.16.27.18.25.18.23.2.21.21.18.23.16.25.12.28.09.3.05.3-.05.27-.09.25-.12.23-.16.22-.18.19-.21.19-.23.17-.25.17-.27.16-.27.16-.29.14-.3.15-.31.13-.32.13-.32.13-.33.12-.34.12-.34.11-.34.1-.34.11-.34.09-.34.09-.33.08-.33.08-.33.07-.31.07-.32.07-.31.06-.3,0-.3.06-.3.05-.29,0-.29.05-.28,0-.28,0-.28,0-.28,0-.28,0-.28,0-.27,0-.28,0-.28,0-.28,0-.29,0-.31,0-.32,0-.34,0-.36,0-.38,0-.4,0-.43,0-.43,0-.45,0-.46,0-.46,0-.47v-.47l0-.48,0-.5V46.59l0-.68,0-.73,0-.74,0-.75,0-.75-.06-.72-.05-.7-.06-.66h0a1,1,0,0,0-.56-.79.72.72,0,0,0-.29-.06h-7.88a.72.72,0,0,0-.29.06,1,1,0,0,0-.56.79l-.06.66-.06.7,0,.72-.05.75,0,.75,0,.74,0,.73,0,.68v2.34Z"/><rect class="cls-13" x="519.32" y="104.46" width="11.34" height="11.34" rx="0.85" ry="0.85"/><rect class="cls-32" x="519.32" y="104.46" width="11.34" height="11.34" rx="0.85" ry="0.85"/><path class="cls-15" d="M531.6,118.23v-3.7a.85.85,0,0,0-.85-.85H519.41a.86.86,0,0,0-.85.85v3.7Z"/><path d="M481.72,88.66a16.67,16.67,0,0,1,10.11-6.54,16.06,16.06,0,0,1,12.53,2.62l-.14.2a15.84,15.84,0,0,0-12.34-2.57,16.43,16.43,0,0,0-10,6.43Z"/><rect x="490.9" y="91.17" width="17.21" height="0.25" transform="translate(152.96 462.44) rotate(-57.32)"/><polygon points="481.39 88.97 481.53 88.76 495.37 97.89 495.23 98.1 481.39 88.97"/><rect class="cls-33" x="619.61" y="35.31" width="40.42" height="0.85"/><rect class="cls-33" x="619.59" y="121.56" width="40.42" height="0.85"/><path class="cls-34" d="M539.27,80.88h0v-.15h0v0a1.28,1.28,0,0,0-.78-1A32.48,32.48,0,0,0,515,77.34v0a1,1,0,0,1,.24,0h0a1.13,1.13,0,0,0-1.1,1.08h0V90.35c7.36-3.39,19-2.33,25.19,2.2Z"/></g><g id="Symboler-4" data-name="Symboler"><rect class="cls-35" x="586.64" y="119.65" width="31.11" height="31.15"/><path class="cls-36" d="M602.93,127.93a1.8,1.8,0,1,0-1.79-1.8,1.8,1.8,0,0,0,1.79,1.8"/><path class="cls-36" d="M601.14,136.9v-2.82l-2.51,1.3a1,1,0,0,1-1.4-.38,1,1,0,0,1,.37-1.4l3.54-2.08v-1.28a1.79,1.79,0,1,1,3.58,0v6.26c0,1.11-.56,1.24-1,1.58v8.58a1,1,0,1,1-2.05,0v-7.53l-3,1.64,0,3.79a1,1,0,1,1-2,0v-4.31c0-.57,1.05-1.26,1.05-1.26l3.54-2.08"/><path class="cls-36" d="M603.94,133.61l1.71,3.6a1,1,0,0,0,1.34.54,1,1,0,0,0,.54-1.35l-2.94-6.81"/><path class="cls-36" d="M610.54,134.5a1.51,1.51,0,1,0-1.49-1.51,1.5,1.5,0,0,0,1.49,1.51"/><path class="cls-36" d="M610.88,141l-2,6.15a.72.72,0,0,1-.9.47.72.72,0,0,1-.47-.9l1.91-5.82"/><path class="cls-36" d="M609.82,141l2,6.15a.72.72,0,0,0,.9.47.72.72,0,0,0,.47-.9l-1.91-5.82"/><rect class="cls-36" x="609.22" y="134.89" width="2.58" height="6.84" rx="1.25" ry="1.25"/><path class="cls-36" d="M609.13,138.24l-1.57-.8a.63.63,0,0,0-.87.23.64.64,0,0,0,.24.87l2.2,1.3"/><rect class="cls-36" x="600.77" y="148.28" width="16.98" height="2.51"/><rect class="cls-36" x="586.57" y="148.51" width="12.74" height="2.32"/><rect class="cls-36" x="586.57" y="145.19" width="9.34" height="3.94"/><rect class="cls-36" x="586.57" y="142.25" width="6.17" height="3.63"/><polygon class="cls-36" points="599.3 119.65 599.3 119.65 586.64 119.65 586.64 120.79 597.68 120.79 597.68 123.55 599.31 123.55 599.31 119.65 599.3 119.65"/><rect class="cls-35" x="586.84" y="7.01" width="31.11" height="31.15"/><path class="cls-36" d="M603.13,15.29a1.8,1.8,0,1,0-1.78-1.8,1.79,1.79,0,0,0,1.78,1.8"/><path class="cls-36" d="M601.35,24.27V21.45l-2.52,1.3a1,1,0,0,1-1-1.78l3.54-2.08V17.6a1.79,1.79,0,0,1,3.58,0v6.27c0,1.11-.56,1.24-1,1.58V34a1,1,0,1,1-2,0V26.5l-3,1.64,0,3.79a1,1,0,1,1-2,0V27.61c0-.56,1-1.25,1-1.25l3.54-2.08"/><path class="cls-36" d="M604.14,21l1.71,3.6a1,1,0,1,0,1.88-.81L604.79,17"/><path class="cls-36" d="M610.74,21.87a1.51,1.51,0,1,0-1.49-1.51,1.5,1.5,0,0,0,1.49,1.51"/><path class="cls-36" d="M611.08,28.39l-2,6.16a.71.71,0,0,1-.89.47.73.73,0,0,1-.48-.91l1.91-5.81"/><path class="cls-36" d="M610,28.39l2,6.16a.72.72,0,0,0,.9.47.74.74,0,0,0,.48-.91l-1.92-5.81"/><path class="cls-36" d="M609.42,23.52a1.25,1.25,0,0,1,1.25-1.26h.07A1.25,1.25,0,0,1,612,23.52v4.32a1.25,1.25,0,0,1-1.26,1.26h-.07a1.25,1.25,0,0,1-1.25-1.26Z"/><path class="cls-36" d="M609.33,25.61l-1.57-.81a.64.64,0,0,0-.63,1.11l2.2,1.3"/><rect class="cls-36" x="600.97" y="35.65" width="16.98" height="2.51"/><rect class="cls-36" x="586.77" y="35.88" width="12.74" height="2.32"/><rect class="cls-36" x="586.77" y="32.56" width="9.34" height="3.94"/><rect class="cls-36" x="586.77" y="29.62" width="6.17" height="3.63"/><polygon class="cls-36" points="599.5 7.02 599.5 7.01 586.84 7.01 586.84 8.16 597.88 8.16 597.88 10.91 599.51 10.91 599.51 7.02 599.5 7.02"/><rect class="cls-37" x="766.57" y="125.51" width="25.51" height="25.51"/><path class="cls-5" d="M773,142.61l-2.07-8.47h1.64l.81,3.85c.22,1,.41,2.11.55,2.95h0c.14-.89.37-1.9.62-3l.92-3.83h1.62l.84,3.9c.21,1,.39,1.94.52,2.86h0c.15-.93.34-1.91.58-2.93l.88-3.83h1.57l-2.28,8.47h-1.65l-.89-4c-.19-1-.36-1.77-.46-2.69h0c-.15.9-.33,1.72-.57,2.69l-1,4Z"/><path class="cls-5" d="M787.82,142.22a5.26,5.26,0,0,1-2.18.39,4,4,0,0,1-4.33-4.27,4.26,4.26,0,0,1,4.52-4.47,4.92,4.92,0,0,1,2.06.37l-.33,1.23a4.28,4.28,0,0,0-1.66-.32,2.82,2.82,0,0,0-3,3.11,2.79,2.79,0,0,0,3,3.06,4.3,4.3,0,0,0,1.68-.32Z"/><rect class="cls-38" x="507.5" y="124.43" width="25.51" height="25.51"/><path class="cls-5" d="M518.79,136.23c0-.84-.17-1-.51-1.07l-.74-.11v-.76l4.28-.61.15.13v8.62c0,.89.18,1,1.37,1v.8h-5.92v-.8c1.2-.06,1.37-.15,1.37-1Zm-.44-5.31a1.93,1.93,0,0,1,3.85,0,1.84,1.84,0,0,1-1.93,1.85A1.82,1.82,0,0,1,518.35,130.92Z"/><rect class="cls-38" x="456.46" y="123.78" width="25.51" height="25.51"/><path class="cls-5" d="M472,130.65h3.48a.27.27,0,0,1,.27.27v12.32a.27.27,0,0,1-.27.27H463.2a.27.27,0,0,1-.27-.27V130.92a.27.27,0,0,1,.27-.27h3.48v-1.07h-3.75a1.08,1.08,0,0,0-1.08,1.07v12.86a1.08,1.08,0,0,0,1.08,1.07h12.86a1.07,1.07,0,0,0,1.07-1.07V130.65a1.07,1.07,0,0,0-1.07-1.07H472Z"/><path class="cls-5" d="M473.65,138.15a1.08,1.08,0,0,1,1.07,1.07H469.9a1.07,1.07,0,0,1,1.07-1.07Z"/><path class="cls-5" d="M473.91,141.73a.8.8,0,0,0,.8-.81h-4.82a.8.8,0,0,0,.8.81h3.22"/><path class="cls-5" d="M472.57,133.61c1.4-.35,2.2.32,2.05,1.73-.48,1.43-1.72,1.93-2.34,1.5a1.8,1.8,0,0,1-2.57-1.5,1.75,1.75,0,0,1,2.54-1.79,1.13,1.13,0,0,1,1-1.12.11.11,0,0,1,.1.16s.24,0,.08.3C473.16,132.88,472.53,133.11,472.57,133.61Z"/><path class="cls-5" d="M472.57,140.55c1.88.16,2.16,0,2.28-.43s-.11-.71-1.33-.5a4.77,4.77,0,0,0-1.74,0c-1.38.08-2-.4-2,.52C469.76,140.77,470.92,140.75,472.57,140.55Z"/><path class="cls-5" d="M469.36,127.43a2.15,2.15,0,1,0,2.14,2.15A2.14,2.14,0,0,0,469.36,127.43Zm-.14,3.08-.53-.93-.19.23v.7H468v-2.16h.48v1h0a1.76,1.76,0,0,1,.14-.23l.49-.72h.61l-.72.92.76,1.24Zm1.63-1.14h-.14a.32.32,0,0,0-.33.25s0,.07,0,.1v.8h-.49v-1c0-.23,0-.38,0-.52h.42l0,.29h0a.45.45,0,0,1,.42-.32h.11Z"/><path class="cls-5" d="M466.61,131.83h.14v-.25a.27.27,0,0,0-.27-.27h-.67a.27.27,0,0,0-.27.27v.25h.14c-.16.53-.12.58,0,.7,0,2.38-1,3.47-1.07,4.55v5.22a.64.64,0,0,0,.6.54h1.87a.66.66,0,0,0,.61-.54v-5.22c-.09-1.08-1.08-2.17-1.08-4.55C466.73,132.41,466.77,132.36,466.61,131.83Z"/><polyline class="cls-39" points="732.38 131.6 732.38 135.6 728.38 135.6"/><line class="cls-40" x1="722.33" y1="135.6" x2="713.26" y2="135.6"/><polyline class="cls-39" points="710.23 135.6 706.23 135.6 706.23 131.6"/><line class="cls-41" x1="706.23" y1="122.94" x2="706.23" y2="109.95"/><line class="cls-42" x1="706.23" y1="105.62" x2="706.23" y2="40.68"/><polyline class="cls-39" points="706.23 36.35 706.23 32.35 710.23 32.35"/><line class="cls-40" x1="716.28" y1="32.35" x2="725.36" y2="32.35"/><polyline class="cls-39" points="728.38 32.35 732.38 32.35 732.38 36.35"/><line class="cls-41" x1="732.38" y1="45.01" x2="732.38" y2="58"/><line class="cls-42" x1="732.38" y1="62.33" x2="732.38" y2="127.27"/><rect class="cls-38" x="720.08" y="125.36" width="25.45" height="25.45"/><path class="cls-43" d="M734.3,126.72a1.93,1.93,0,1,1-2,1.92A1.94,1.94,0,0,1,734.3,126.72Z"/><path class="cls-43" d="M725,133.46l1.47,7.62a3.48,3.48,0,0,0,3.21,3.08l4.77,0c1.11,0,1.11-1.15,0-1.21l-4.34,0c-1.53-.08-2.27-.69-2.55-2.4L726,133.22C725.87,132.57,724.78,132.62,725,133.46Z"/><path class="cls-43" d="M730.64,132.69c.22-1.15,1-1.8,3.16-1.31l6.87,1.39a1,1,0,0,1-.52,1.93l-5.87-1.2-1.75,5.86H736a1.49,1.49,0,0,1,1.74,1.31l1.19,7.75a1.12,1.12,0,0,1-2.23.25l-1-6.55-5.8.08c-1.11-.06-1.76-1.41-1.37-2.77Z"/><path class="cls-43" d="M739.26,137.08c-.09.49-.64.42-.6-.09.06-2.32,3.21-2.31,3,.25v11.83a.32.32,0,0,1-.63,0l0-12.3C740.92,135.49,739.18,135.85,739.26,137.08Z"/><rect class="cls-38" x="693.13" y="125.31" width="25.45" height="25.45"/><path class="cls-43" d="M701.94,126.7a1.93,1.93,0,1,1-2,1.93A2,2,0,0,1,701.94,126.7Z"/><path class="cls-43" d="M698.6,133.4l1.47,7.62a3.47,3.47,0,0,0,3.22,3.08l4.76,0c1.12,0,1.12-1.15,0-1.22l-4.33,0c-1.54-.08-2.28-.68-2.56-2.39l-1.49-7.38C699.51,132.51,698.42,132.56,698.6,133.4Z"/><path class="cls-43" d="M700.47,133.13l1.41,7.25a2.07,2.07,0,0,0,2.49,1.82h5.24l1.11,6.58c.18,1.23,2.45.94,2.24-.32l-1.19-7.68c-.18-.9-.85-1.36-2-1.39l-1.08.07c.83-2.82-.88-5.13-4.24-4.84l-.4-2.25C703.58,130.67,700.12,131,700.47,133.13Z"/><rect class="cls-38" x="619.76" y="124.98" width="25.51" height="25.51"/><path class="cls-5" d="M638,139.9a1.26,1.26,0,0,1-1.26,1.26h-8.22a1.26,1.26,0,0,1-1.26-1.26V132H638v.94a3.45,3.45,0,0,1,3.49,3.16,3.18,3.18,0,0,1-3.17,3.17H638v.63m0-5.7V138h.32a1.9,1.9,0,0,0,0-3.8Z"/><path class="cls-5" d="M640.26,143.69a1.9,1.9,0,0,0,1.9-1.89h-19a1.9,1.9,0,0,0,1.9,1.89Z"/><rect class="cls-38" x="265.83" y="123.78" width="25.51" height="25.51"/><rect class="cls-5" x="269.46" y="135.43" width="13.09" height="8.87" transform="translate(-26.79 76.2) rotate(-15)"/><path class="cls-44" d="M270.62,146.2l-2.45-9.14,13.22-3.54,2.45,9.14Zm-1.72-8.72,2.14,8,12.06-3.23-2.14-8Z"/><rect class="cls-5" x="270.79" y="134.8" width="14.97" height="11.22"/><path class="cls-44" d="M286.05,146.32H270.49V134.5h15.56Zm-15-.6h14.36V135.1H271.09Z"/><path class="cls-44" d="M283.86,141.8h-5v-5h5Zm-4.42-.6h3.82v-3.82h-3.82Z"/><rect class="cls-44" x="272.97" y="143.5" width="10.83" height="0.6"/><rect class="cls-44" x="272.99" y="141.3" width="4.76" height="0.45"/><rect class="cls-44" x="272.99" y="138.94" width="4.76" height="0.6"/><rect class="cls-44" x="272.99" y="136.78" width="4.76" height="0.6"/><path class="cls-5" d="M281,128.42a4.55,4.55,0,0,1,6.69,5.09l-1.08-.29.72,1.25.38.67.13.21,2.12-1.23-1.25-.34a5.61,5.61,0,0,0-8.24-6.27,5.9,5.9,0,0,0-1.12.85l.55.95A4.57,4.57,0,0,1,281,128.42Z"/><path class="cls-45" d="M287.8,135.5h0a.13.13,0,0,1-.09-.07l-1.23-2.12a.15.15,0,0,1,0-.17.14.14,0,0,1,.16,0l.93.25a4.34,4.34,0,0,0-.48-3.17,4.43,4.43,0,0,0-3.82-2.2,4.37,4.37,0,0,0-2.2.59,4.45,4.45,0,0,0-1.07.86.15.15,0,0,1-.13.05.14.14,0,0,1-.11-.07l-.55-.95a.15.15,0,0,1,0-.19,5.76,5.76,0,0,1,9,1.24,5.68,5.68,0,0,1,.62,4.19L290,134a.16.16,0,0,1,.11.13.15.15,0,0,1-.07.15l-2.13,1.23Zm-.92-2,1,1.68,1.69-1-.91-.24a.15.15,0,0,1-.11-.18,5.42,5.42,0,0,0-.55-4.11,5.44,5.44,0,0,0-7.46-2,5,5,0,0,0-1,.75l.39.67a4.44,4.44,0,0,1,1-.77,4.6,4.6,0,0,1,2.35-.63,4.7,4.7,0,0,1,4.56,5.89.16.16,0,0,1-.07.09.17.17,0,0,1-.12,0Z"/><path class="cls-5" d="M287.17,136.37l-.54-1a4.66,4.66,0,0,1-1.11.9,4.55,4.55,0,0,1-6.69-5.08l1.09.29-.73-1.26-.39-.69-.1-.17-2.13,1.22,1.24.34a5.61,5.61,0,0,0,8.24,6.26A5.29,5.29,0,0,0,287.17,136.37Z"/><path class="cls-45" d="M283.25,138.13h0a5.76,5.76,0,0,1-5.62-7.06l-1.1-.29a.16.16,0,0,1-.11-.13.15.15,0,0,1,.07-.15l2.13-1.23a.16.16,0,0,1,.21.06l1.21,2.1a.18.18,0,0,1,0,.1.15.15,0,0,1-.15.15h-.05l-.94-.26a4.39,4.39,0,0,0,.48,3.15,4.44,4.44,0,0,0,3.83,2.21,4.5,4.5,0,0,0,2.2-.59,4.44,4.44,0,0,0,1.06-.87.21.21,0,0,1,.13,0,.2.2,0,0,1,.12.08l.54,1a.14.14,0,0,1,0,.18,6.22,6.22,0,0,1-1.16.88A5.79,5.79,0,0,1,283.25,138.13ZM277,130.58l.89.24a.14.14,0,0,1,.1.18,5.46,5.46,0,0,0,9,5.35l-.38-.68a5.14,5.14,0,0,1-1,.78,4.71,4.71,0,0,1-6.91-5.25.16.16,0,0,1,.07-.09.17.17,0,0,1,.12,0l.74.2-1-1.68Z"/></g><g id="STOLFARGER-4" data-name="STOLFARGER"><polygon class="cls-46" points="161.23 51.41 161.23 42.99 163.68 40.55 181.03 40.55 181.03 53.87 163.69 53.87 161.23 51.41"/><polygon class="cls-47" points="163.79 43.31 163.8 43.31 166.07 40.98 167.76 40.98 165.49 43.31 165.48 43.31 165.48 51.13 165.49 51.13 167.76 53.46 166.07 53.46 163.82 51.15 163.79 51.15 163.79 43.31"/><rect class="cls-5" x="161.62" y="43.9" width="1.98" height="6.51"/><polygon class="cls-46" points="161.22 67.18 161.22 58.77 163.66 56.32 181.01 56.32 181.01 69.64 163.68 69.64 161.22 67.18"/><polygon class="cls-47" points="163.78 59.09 163.78 59.09 166.06 56.76 167.74 56.76 165.47 59.09 165.46 59.09 165.46 66.91 165.47 66.91 167.74 69.23 166.06 69.23 163.8 66.93 163.78 66.93 163.78 59.09"/><rect class="cls-5" x="161.6" y="59.68" width="1.98" height="6.51"/><polygon class="cls-46" points="161.05 98.11 161.05 89.69 163.5 87.25 180.85 87.25 180.85 100.57 163.52 100.57 161.05 98.11"/><polygon class="cls-47" points="163.61 90.02 163.62 90.02 165.89 87.69 167.58 87.69 165.31 90.02 165.3 90.02 165.3 97.83 165.31 97.83 167.58 100.16 165.89 100.16 163.64 97.86 163.61 97.86 163.61 90.02"/><rect class="cls-5" x="161.44" y="90.6" width="1.98" height="6.51"/><polygon class="cls-46" points="161.04 113.89 161.04 105.47 163.48 103.03 180.83 103.03 180.83 116.35 163.5 116.35 161.04 113.89"/><polygon class="cls-47" points="163.6 105.79 163.6 105.79 165.88 103.47 167.56 103.47 165.29 105.79 165.28 105.79 165.28 113.61 165.29 113.61 167.56 115.94 165.88 115.94 163.62 113.63 163.6 113.63 163.6 105.79"/><rect class="cls-5" x="161.42" y="106.38" width="1.98" height="6.51"/><polygon class="cls-46" points="188.22 51.85 188.22 43.43 190.67 40.99 208.02 40.99 208.02 54.31 190.69 54.31 188.22 51.85"/><polygon class="cls-47" points="190.78 43.76 190.79 43.76 193.06 41.43 194.75 41.43 192.48 43.76 192.47 43.76 192.47 51.57 192.48 51.57 194.75 53.9 193.06 53.9 190.81 51.6 190.78 51.6 190.78 43.76"/><rect class="cls-5" x="188.61" y="44.34" width="1.98" height="6.51"/><polygon class="cls-46" points="188.21 67.63 188.21 59.21 190.65 56.77 208 56.77 208 70.09 190.67 70.09 188.21 67.63"/><polygon class="cls-47" points="190.77 59.53 190.77 59.53 193.05 57.2 194.74 57.2 192.46 59.53 192.46 59.53 192.46 67.35 192.46 67.35 194.74 69.68 193.05 69.68 190.79 67.37 190.77 67.37 190.77 59.53"/><rect class="cls-5" x="188.59" y="60.12" width="1.98" height="6.51"/><polygon class="cls-46" points="188.04 98.55 188.04 90.14 190.49 87.69 207.84 87.69 207.84 101.02 190.51 101.02 188.04 98.55"/><polygon class="cls-47" points="190.6 90.46 190.61 90.46 192.89 88.13 194.57 88.13 192.3 90.46 192.29 90.46 192.29 98.28 192.3 98.28 194.57 100.61 192.89 100.61 190.63 98.3 190.6 98.3 190.6 90.46"/><rect class="cls-5" x="188.43" y="91.05" width="1.98" height="6.51"/><polygon class="cls-46" points="188.03 114.33 188.03 105.91 190.47 103.47 207.82 103.47 207.82 116.79 190.49 116.79 188.03 114.33"/><polygon class="cls-47" points="190.59 106.24 190.59 106.24 192.87 103.91 194.56 103.91 192.28 106.24 192.28 106.24 192.28 114.05 192.28 114.05 194.56 116.38 192.87 116.38 190.62 114.08 190.59 114.08 190.59 106.24"/><rect class="cls-5" x="188.41" y="106.82" width="1.98" height="6.51"/><polygon class="cls-46" points="325.63 51.81 325.63 43.4 328.07 40.95 345.42 40.95 345.42 54.28 328.09 54.28 325.63 51.81"/><polygon class="cls-47" points="328.19 43.72 328.19 43.72 330.47 41.39 332.16 41.39 329.88 43.72 329.88 43.72 329.88 51.54 329.88 51.54 332.16 53.87 330.47 53.87 328.21 51.56 328.19 51.56 328.19 43.72"/><rect class="cls-5" x="326.01" y="44.31" width="1.98" height="6.51"/><polygon class="cls-46" points="325.61 67.59 325.61 59.17 328.06 56.73 345.41 56.73 345.41 70.05 328.07 70.05 325.61 67.59"/><polygon class="cls-47" points="328.17 59.5 328.18 59.5 330.45 57.17 332.14 57.17 329.87 59.5 329.86 59.5 329.86 67.31 329.87 67.31 332.14 69.64 330.45 69.64 328.2 67.33 328.17 67.33 328.17 59.5"/><rect class="cls-5" x="325.99" y="60.08" width="1.98" height="6.51"/><polygon class="cls-46" points="325.45 98.52 325.45 90.1 327.89 87.66 345.25 87.66 345.25 100.98 327.91 100.98 325.45 98.52"/><polygon class="cls-47" points="328.01 90.42 328.01 90.42 330.29 88.1 331.98 88.1 329.7 90.42 329.7 90.42 329.7 98.24 329.7 98.24 331.98 100.57 330.29 100.57 328.04 98.26 328.01 98.26 328.01 90.42"/><rect class="cls-5" x="325.83" y="91.01" width="1.98" height="6.51"/><polygon class="cls-46" points="325.43 114.29 325.43 105.88 327.88 103.43 345.23 103.43 345.23 116.76 327.89 116.76 325.43 114.29"/><polygon class="cls-47" points="327.99 106.2 328 106.2 330.27 103.87 331.96 103.87 329.69 106.2 329.68 106.2 329.68 114.02 329.69 114.02 331.96 116.34 330.27 116.34 328.02 114.04 327.99 114.04 327.99 106.2"/><rect class="cls-5" x="325.82" y="106.79" width="1.98" height="6.51"/><polygon class="cls-46" points="647.29 51.64 647.29 43.23 649.74 40.78 667.09 40.78 667.09 54.1 649.75 54.1 647.29 51.64"/><polygon class="cls-47" points="649.85 43.55 649.86 43.55 652.13 41.22 653.82 41.22 651.54 43.55 651.54 43.55 651.54 51.37 651.54 51.37 653.82 53.69 652.13 53.69 649.88 51.39 649.85 51.39 649.85 43.55"/><rect class="cls-5" x="647.67" y="44.14" width="1.98" height="6.51"/><polygon class="cls-46" points="647.27 67.42 647.27 59 649.72 56.56 667.07 56.56 667.07 69.88 649.74 69.88 647.27 67.42"/><polygon class="cls-47" points="649.83 59.33 649.84 59.33 652.12 57 653.8 57 651.53 59.33 651.52 59.33 651.52 67.14 651.53 67.14 653.8 69.47 652.12 69.47 649.86 67.16 649.83 67.16 649.83 59.33"/><rect class="cls-5" x="647.66" y="59.91" width="1.98" height="6.51"/><polygon class="cls-46" points="647.11 98.35 647.11 89.93 649.56 87.49 666.91 87.49 666.91 100.81 649.57 100.81 647.11 98.35"/><polygon class="cls-47" points="649.67 90.25 649.68 90.25 651.95 87.93 653.64 87.93 651.37 90.25 651.36 90.25 651.36 98.07 651.37 98.07 653.64 100.4 651.95 100.4 649.7 98.09 649.67 98.09 649.67 90.25"/><rect class="cls-5" x="647.5" y="90.84" width="1.98" height="6.51"/><polygon class="cls-46" points="647.1 114.12 647.1 105.71 649.54 103.26 666.89 103.26 666.89 116.58 649.56 116.58 647.1 114.12"/><polygon class="cls-47" points="649.66 106.03 649.66 106.03 651.94 103.7 653.63 103.7 651.35 106.03 651.34 106.03 651.34 113.85 651.35 113.85 653.63 116.17 651.94 116.17 649.68 113.87 649.66 113.87 649.66 106.03"/><rect class="cls-5" x="647.48" y="106.62" width="1.98" height="6.51"/><polygon class="cls-48" points="243.69 51.38 243.69 42.97 241.24 40.52 223.89 40.52 223.89 53.85 241.22 53.85 243.69 51.38"/><polygon class="cls-49" points="241.13 43.29 241.12 43.29 238.84 40.96 237.16 40.96 239.43 43.29 239.44 43.29 239.44 51.11 239.43 51.11 237.16 53.44 238.84 53.44 241.1 51.13 241.13 51.13 241.13 43.29"/><rect class="cls-5" x="241.32" y="43.88" width="1.98" height="6.51"/><polygon class="cls-48" points="243.67 67.13 243.67 58.72 241.23 56.27 223.88 56.27 223.88 69.6 241.21 69.6 243.67 67.13"/><polygon class="cls-49" points="241.11 59.04 241.11 59.04 238.83 56.71 237.14 56.71 239.42 59.04 239.42 59.04 239.42 66.86 239.42 66.86 237.14 69.19 238.83 69.19 241.09 66.88 241.11 66.88 241.11 59.04"/><rect class="cls-5" x="241.3" y="59.63" width="1.98" height="6.51"/><polygon class="cls-48" points="243.77 97.97 243.77 89.55 241.32 87.11 223.97 87.11 223.97 100.43 241.31 100.43 243.77 97.97"/><polygon class="cls-49" points="241.21 89.87 241.2 89.87 238.93 87.55 237.24 87.55 239.51 89.87 239.52 89.87 239.52 97.69 239.51 97.69 237.24 100.02 238.93 100.02 241.18 97.71 241.21 97.71 241.21 89.87"/><rect class="cls-5" x="241.4" y="90.46" width="1.98" height="6.51"/><polygon class="cls-48" points="243.75 113.72 243.75 105.3 241.31 102.86 223.96 102.86 223.96 116.18 241.29 116.18 243.75 113.72"/><polygon class="cls-49" points="241.2 105.62 241.19 105.62 238.91 103.3 237.23 103.3 239.5 105.62 239.51 105.62 239.51 113.44 239.5 113.44 237.23 115.77 238.91 115.77 241.17 113.46 241.2 113.46 241.2 105.62"/><rect class="cls-5" x="241.39" y="106.21" width="1.98" height="6.51"/><polygon class="cls-48" points="385.06 51.38 385.06 42.97 382.62 40.52 365.26 40.52 365.26 53.85 382.6 53.85 385.06 51.38"/><polygon class="cls-49" points="382.5 43.29 382.49 43.29 380.22 40.96 378.53 40.96 380.81 43.29 380.81 43.29 380.81 51.11 380.81 51.11 378.53 53.44 380.22 53.44 382.47 51.13 382.5 51.13 382.5 43.29"/><rect class="cls-5" x="382.69" y="43.88" width="1.98" height="6.51"/><polygon class="cls-48" points="385.05 67.13 385.05 58.72 382.6 56.27 365.25 56.27 365.25 69.6 382.58 69.6 385.05 67.13"/><polygon class="cls-49" points="382.49 59.04 382.48 59.04 380.2 56.71 378.52 56.71 380.79 59.04 380.8 59.04 380.8 66.86 380.79 66.86 378.52 69.19 380.2 69.19 382.46 66.88 382.49 66.88 382.49 59.04"/><rect class="cls-5" x="382.68" y="59.63" width="1.98" height="6.51"/><polygon class="cls-48" points="385.14 97.97 385.14 89.55 382.7 87.11 365.35 87.11 365.35 100.43 382.68 100.43 385.14 97.97"/><polygon class="cls-49" points="382.58 89.87 382.58 89.87 380.3 87.55 378.62 87.55 380.89 89.87 380.89 89.87 380.89 97.69 380.89 97.69 378.62 100.02 380.3 100.02 382.56 97.71 382.58 97.71 382.58 89.87"/><rect class="cls-5" x="382.78" y="90.46" width="1.98" height="6.51"/><polygon class="cls-48" points="385.13 113.72 385.13 105.3 382.69 102.86 365.33 102.86 365.33 116.18 382.67 116.18 385.13 113.72"/><polygon class="cls-49" points="382.57 105.62 382.56 105.62 380.29 103.3 378.6 103.3 380.88 105.62 380.88 105.62 380.88 113.44 380.88 113.44 378.6 115.77 380.29 115.77 382.54 113.46 382.57 113.46 382.57 105.62"/><rect class="cls-5" x="382.76" y="106.21" width="1.98" height="6.51"/><polygon class="cls-48" points="411.18 51.51 411.18 43.09 408.74 40.65 391.39 40.65 391.39 53.97 408.72 53.97 411.18 51.51"/><polygon class="cls-49" points="408.63 43.42 408.62 43.42 406.34 41.09 404.66 41.09 406.93 43.42 406.94 43.42 406.94 51.23 406.93 51.23 404.66 53.56 406.34 53.56 408.6 51.26 408.63 51.26 408.63 43.42"/><rect class="cls-5" x="408.82" y="44" width="1.98" height="6.51"/><polygon class="cls-48" points="411.17 67.26 411.17 58.84 408.73 56.4 391.38 56.4 391.38 69.72 408.71 69.72 411.17 67.26"/><polygon class="cls-49" points="408.61 59.17 408.61 59.17 406.33 56.84 404.64 56.84 406.92 59.17 406.92 59.17 406.92 66.98 406.92 66.98 404.64 69.31 406.33 69.31 408.58 67 408.61 67 408.61 59.17"/><rect class="cls-5" x="408.8" y="59.75" width="1.98" height="6.51"/><polygon class="cls-48" points="411.27 98.09 411.27 89.68 408.82 87.23 391.47 87.23 391.47 100.56 408.81 100.56 411.27 98.09"/><polygon class="cls-49" points="408.71 90 408.7 90 406.43 87.67 404.74 87.67 407.01 90 407.02 90 407.02 97.82 407.01 97.82 404.74 100.14 406.43 100.14 408.68 97.84 408.71 97.84 408.71 90"/><rect class="cls-5" x="408.9" y="90.59" width="1.98" height="6.51"/><polygon class="cls-48" points="411.25 113.84 411.25 105.43 408.81 102.98 391.46 102.98 391.46 116.31 408.79 116.31 411.25 113.84"/><polygon class="cls-49" points="408.7 105.75 408.69 105.75 406.41 103.42 404.73 103.42 407 105.75 407.01 105.75 407.01 113.57 407 113.57 404.73 115.89 406.41 115.89 408.67 113.59 408.7 113.59 408.7 105.75"/><rect class="cls-5" x="408.89" y="106.34" width="1.98" height="6.51"/><polygon class="cls-48" points="435.68 51.76 435.68 43.34 433.24 40.9 415.89 40.9 415.89 54.22 433.22 54.22 435.68 51.76"/><polygon class="cls-49" points="433.13 43.67 433.12 43.67 430.84 41.34 429.16 41.34 431.43 43.67 431.44 43.67 431.44 51.48 431.43 51.48 429.16 53.81 430.84 53.81 433.1 51.51 433.13 51.51 433.13 43.67"/><rect class="cls-5" x="433.32" y="44.25" width="1.98" height="6.51"/><polygon class="cls-48" points="435.67 67.51 435.67 59.09 433.23 56.65 415.88 56.65 415.88 69.97 433.21 69.97 435.67 67.51"/><polygon class="cls-49" points="433.11 59.42 433.11 59.42 430.83 57.09 429.14 57.09 431.42 59.42 431.42 59.42 431.42 67.23 431.42 67.23 429.14 69.56 430.83 69.56 433.08 67.25 433.11 67.25 433.11 59.42"/><rect class="cls-5" x="433.3" y="60" width="1.98" height="6.51"/><polygon class="cls-48" points="435.77 98.34 435.77 89.93 433.32 87.48 415.97 87.48 415.97 100.81 433.31 100.81 435.77 98.34"/><polygon class="cls-49" points="433.21 90.25 433.2 90.25 430.93 87.92 429.24 87.92 431.51 90.25 431.52 90.25 431.52 98.07 431.51 98.07 429.24 100.39 430.93 100.39 433.18 98.09 433.21 98.09 433.21 90.25"/><rect class="cls-5" x="433.4" y="90.84" width="1.98" height="6.51"/><polygon class="cls-48" points="435.75 114.09 435.75 105.68 433.31 103.23 415.96 103.23 415.96 116.56 433.29 116.56 435.75 114.09"/><polygon class="cls-49" points="433.2 106 433.19 106 430.91 103.67 429.23 103.67 431.5 106 431.51 106 431.51 113.82 431.5 113.82 429.23 116.14 430.91 116.14 433.17 113.84 433.2 113.84 433.2 106"/><rect class="cls-5" x="433.39" y="106.59" width="1.98" height="6.51"/><polygon class="cls-48" points="704.18 51.76 704.18 43.34 701.74 40.9 684.39 40.9 684.39 54.22 701.72 54.22 704.18 51.76"/><polygon class="cls-49" points="701.63 43.67 701.62 43.67 699.34 41.34 697.66 41.34 699.93 43.67 699.94 43.67 699.94 51.48 699.93 51.48 697.66 53.81 699.34 53.81 701.6 51.51 701.63 51.51 701.63 43.67"/><rect class="cls-5" x="701.82" y="44.25" width="1.98" height="6.51"/><polygon class="cls-48" points="704.17 67.51 704.17 59.09 701.73 56.65 684.38 56.65 684.38 69.97 701.71 69.97 704.17 67.51"/><polygon class="cls-49" points="701.61 59.42 701.61 59.42 699.33 57.09 697.64 57.09 699.92 59.42 699.92 59.42 699.92 67.23 699.92 67.23 697.64 69.56 699.33 69.56 701.58 67.25 701.61 67.25 701.61 59.42"/><rect class="cls-5" x="701.8" y="60" width="1.98" height="6.51"/><polygon class="cls-48" points="704.27 98.34 704.27 89.93 701.82 87.48 684.47 87.48 684.47 100.81 701.8 100.81 704.27 98.34"/><polygon class="cls-49" points="701.71 90.25 701.7 90.25 699.43 87.92 697.74 87.92 700.01 90.25 700.02 90.25 700.02 98.07 700.01 98.07 697.74 100.39 699.43 100.39 701.68 98.09 701.71 98.09 701.71 90.25"/><rect class="cls-5" x="701.9" y="90.84" width="1.98" height="6.51"/><polygon class="cls-48" points="704.25 114.09 704.25 105.68 701.81 103.23 684.46 103.23 684.46 116.56 701.79 116.56 704.25 114.09"/><polygon class="cls-49" points="701.7 106 701.69 106 699.41 103.67 697.73 103.67 700 106 700.01 106 700.01 113.82 700 113.82 697.73 116.14 699.41 116.14 701.67 113.84 701.7 113.84 701.7 106"/><rect class="cls-5" x="701.89" y="106.59" width="1.98" height="6.51"/><polygon class="cls-48" points="729.81 51.38 729.81 42.97 727.37 40.52 710.01 40.52 710.01 53.85 727.35 53.85 729.81 51.38"/><polygon class="cls-49" points="727.25 43.29 727.24 43.29 724.97 40.96 723.28 40.96 725.55 43.29 725.56 43.29 725.56 51.11 725.55 51.11 723.28 53.44 724.97 53.44 727.22 51.13 727.25 51.13 727.25 43.29"/><rect class="cls-5" x="727.44" y="43.88" width="1.98" height="6.51"/><polygon class="cls-48" points="729.8 67.13 729.8 58.72 727.35 56.27 710 56.27 710 69.6 727.33 69.6 729.8 67.13"/><polygon class="cls-49" points="727.24 59.04 727.23 59.04 724.96 56.71 723.27 56.71 725.54 59.04 725.55 59.04 725.55 66.86 725.54 66.86 723.27 69.19 724.96 69.19 727.21 66.88 727.24 66.88 727.24 59.04"/><rect class="cls-5" x="727.43" y="59.63" width="1.98" height="6.51"/><polygon class="cls-48" points="729.89 97.97 729.89 89.55 727.45 87.11 710.1 87.11 710.1 100.43 727.43 100.43 729.89 97.97"/><polygon class="cls-49" points="727.33 89.87 727.33 89.87 725.05 87.55 723.37 87.55 725.64 89.87 725.64 89.87 725.64 97.69 725.64 97.69 723.37 100.02 725.05 100.02 727.31 97.71 727.33 97.71 727.33 89.87"/><rect class="cls-5" x="727.53" y="90.46" width="1.98" height="6.51"/><polygon class="cls-48" points="729.88 113.72 729.88 105.3 727.44 102.86 710.08 102.86 710.08 116.18 727.42 116.18 729.88 113.72"/><polygon class="cls-49" points="727.32 105.62 727.32 105.62 725.04 103.3 723.35 103.3 725.63 105.62 725.63 105.62 725.63 113.44 725.63 113.44 723.35 115.77 725.04 115.77 727.29 113.46 727.32 113.46 727.32 105.62"/><rect class="cls-5" x="727.51" y="106.21" width="1.98" height="6.51"/><polygon class="cls-48" points="755.31 51.51 755.31 43.09 752.87 40.65 735.51 40.65 735.51 53.97 752.85 53.97 755.31 51.51"/><polygon class="cls-49" points="752.75 43.42 752.74 43.42 750.47 41.09 748.78 41.09 751.05 43.42 751.06 43.42 751.06 51.23 751.05 51.23 748.78 53.56 750.47 53.56 752.72 51.26 752.75 51.26 752.75 43.42"/><rect class="cls-5" x="752.94" y="44" width="1.98" height="6.51"/><polygon class="cls-48" points="755.3 67.26 755.3 58.84 752.85 56.4 735.5 56.4 735.5 69.72 752.83 69.72 755.3 67.26"/><polygon class="cls-49" points="752.74 59.17 752.73 59.17 750.46 56.84 748.77 56.84 751.04 59.17 751.05 59.17 751.05 66.98 751.04 66.98 748.77 69.31 750.46 69.31 752.71 67 752.74 67 752.74 59.17"/><rect class="cls-5" x="752.93" y="59.75" width="1.98" height="6.51"/><polygon class="cls-48" points="755.39 98.09 755.39 89.68 752.95 87.23 735.6 87.23 735.6 100.56 752.93 100.56 755.39 98.09"/><polygon class="cls-49" points="752.83 90 752.83 90 750.55 87.67 748.87 87.67 751.14 90 751.14 90 751.14 97.82 751.14 97.82 748.87 100.14 750.55 100.14 752.81 97.84 752.83 97.84 752.83 90"/><rect class="cls-5" x="753.03" y="90.59" width="1.98" height="6.51"/><polygon class="cls-48" points="755.38 113.84 755.38 105.43 752.94 102.98 735.58 102.98 735.58 116.31 752.92 116.31 755.38 113.84"/><polygon class="cls-49" points="752.82 105.75 752.82 105.75 750.54 103.42 748.85 103.42 751.13 105.75 751.13 105.75 751.13 113.57 751.13 113.57 748.85 115.89 750.54 115.89 752.79 113.59 752.82 113.59 752.82 105.75"/><rect class="cls-5" x="753.01" y="106.34" width="1.98" height="6.51"/></g><g id="SETENUMMER-4" data-name="SETENUMMER"><path class="cls-50" d="M202,44.77h-2.25l-.17,1.17a2.87,2.87,0,0,1,1.84.35,1.67,1.67,0,0,1,.76,1.48,2.13,2.13,0,0,1-2.35,2,3.37,3.37,0,0,1-1.56-.34l.22-.84a3.08,3.08,0,0,0,1.29.31,1.14,1.14,0,0,0,1.27-1.07c0-.67-.49-1.11-1.66-1.11a5.88,5.88,0,0,0-.8,0l.38-2.95h3Z"/><path class="cls-50" d="M201.85,60.34a2.71,2.71,0,0,0-.55,0,2.06,2.06,0,0,0-2,1.7h0a1.7,1.7,0,0,1,1.31-.57,1.77,1.77,0,0,1,1.8,1.91,2,2,0,0,1-2.07,2.09A2.23,2.23,0,0,1,198.2,63a3.48,3.48,0,0,1,1-2.61,3.32,3.32,0,0,1,2.08-.87,2.75,2.75,0,0,1,.55,0Zm-.51,3.13a1,1,0,0,0-1-1.16,1.06,1.06,0,0,0-.95.61.68.68,0,0,0-.07.35c0,.77.38,1.4,1.1,1.4C201,64.67,201.34,64.18,201.34,63.47Z"/><path class="cls-50" d="M202.32,91v.71l-2.47,5.14h-1.17l2.47-4.92h-2.76V91Z"/><path class="cls-50" d="M199.31,109.45a1.44,1.44,0,0,1-.89-1.3,1.75,1.75,0,0,1,2-1.6c1.27,0,1.83.76,1.83,1.47a1.47,1.47,0,0,1-.9,1.33v0a1.56,1.56,0,0,1,1.12,1.47c0,1.05-.88,1.75-2.13,1.75s-2.08-.79-2.08-1.61a1.63,1.63,0,0,1,1.09-1.52Zm2,1.49c0-.59-.43-.92-1.08-1.1a1.07,1.07,0,0,0-.87,1,.92.92,0,0,0,1,1A.88.88,0,0,0,201.3,110.94Zm-1.82-2.83c0,.47.39.76,1,.91a.93.93,0,0,0,.73-.88.79.79,0,0,0-.84-.83A.77.77,0,0,0,199.48,108.11Z"/><path class="cls-50" d="M172.2,45.35h0l-1.07.54-.19-.84,1.43-.7h.92V50.2H172.2Z"/><path class="cls-50" d="M170.47,65.9v-.67l.69-.64c1.38-1.28,2-2,2-2.76a.92.92,0,0,0-1-1,2.09,2.09,0,0,0-1.25.49l-.32-.79a2.9,2.9,0,0,1,1.8-.6,1.73,1.73,0,0,1,1.92,1.77c0,1-.74,1.86-1.76,2.8L172,65h2.4v.92Z"/><path class="cls-50" d="M170.69,96.16a3,3,0,0,0,1.33.36c.85,0,1.18-.48,1.18-.94,0-.69-.65-1-1.33-1h-.5v-.81h.5c.51,0,1.15-.23,1.15-.81,0-.4-.28-.74-.93-.74a2.37,2.37,0,0,0-1.2.37l-.25-.8a3.31,3.31,0,0,1,1.68-.45c1.22,0,1.83.67,1.83,1.43a1.43,1.43,0,0,1-1.08,1.37v0a1.49,1.49,0,0,1,1.29,1.46c0,1-.83,1.77-2.28,1.77a3.3,3.3,0,0,1-1.64-.4Z"/><path class="cls-50" d="M172.91,113v-1.48h-2.66v-.72l2.4-3.65H174v3.53h.76v.84H174V113Zm0-2.32v-1.59c0-.34,0-.67,0-1h0c-.18.37-.34.66-.52,1l-1.08,1.6v0Z"/><path class="cls-50" d="M230.27,49.14a2.7,2.7,0,0,0,.62,0,2.08,2.08,0,0,0,1.94-1.75h0a1.68,1.68,0,0,1-1.28.51,1.72,1.72,0,0,1-1.77-1.81A2.07,2.07,0,0,1,231.87,44c1.37,0,2.09,1.07,2.09,2.5a3.6,3.6,0,0,1-1,2.72,3.29,3.29,0,0,1-2,.81,5.16,5.16,0,0,1-.67,0Zm.59-3.13a1,1,0,0,0,1,1.07,1.1,1.1,0,0,0,1-.49.82.82,0,0,0,.06-.32c0-.79-.3-1.47-1-1.47C231.25,44.8,230.86,45.3,230.86,46Z"/><path class="cls-50" d="M229.71,60.78h0l-1.07.54-.19-.84,1.43-.7h.92v5.85h-1.07Z"/><path class="cls-50" d="M236.93,62.66c0,1.89-.74,3.07-2.15,3.07s-2.06-1.22-2.07-3,.78-3,2.14-3S236.93,60.94,236.93,62.66Zm-3.1.06c0,1.43.39,2.17,1,2.17s1-.79,1-2.2-.32-2.16-1-2.16S233.83,61.26,233.83,62.72Z"/><path class="cls-50" d="M229.71,92.18h0l-1.07.54-.19-.84,1.43-.7h.92V97h-1.07Z"/><path class="cls-50" d="M234.53,92.18h0l-1.07.54-.19-.84,1.43-.7h.92V97h-1.07Z"/><path class="cls-50" d="M229.71,107.88h0l-1.07.54-.19-.84,1.43-.7h.92v5.85h-1.07Z"/><path class="cls-50" d="M232.79,112.73v-.67l.7-.64c1.37-1.28,2-2,2-2.76a.92.92,0,0,0-1-1,2,2,0,0,0-1.25.49l-.33-.78a2.84,2.84,0,0,1,1.8-.61,1.74,1.74,0,0,1,1.93,1.78c0,1-.74,1.85-1.77,2.8l-.5.44v0h2.39v.91Z"/><path class="cls-50" d="M334.19,45.25h0l-1.07.54-.19-.84,1.43-.7h.92V50.1h-1.07Z"/><path class="cls-50" d="M337.71,49.31a2.7,2.7,0,0,0,.62,0,2.08,2.08,0,0,0,1.94-1.75h0a1.66,1.66,0,0,1-1.28.51,1.72,1.72,0,0,1-1.77-1.81,2.06,2.06,0,0,1,2.11-2.09c1.37,0,2.09,1.06,2.09,2.49a3.61,3.61,0,0,1-1,2.73,3.22,3.22,0,0,1-2,.8,3.93,3.93,0,0,1-.67,0Zm.59-3.13a1,1,0,0,0,1,1.07,1.1,1.1,0,0,0,.95-.49.82.82,0,0,0,.06-.32c0-.79-.3-1.47-1-1.47C338.7,45,338.3,45.47,338.3,46.18Z"/><path class="cls-50" d="M332.45,65.8v-.67l.69-.64c1.38-1.28,2-2,2-2.76a.92.92,0,0,0-1.05-1,2.09,2.09,0,0,0-1.25.49l-.32-.79a2.9,2.9,0,0,1,1.8-.6,1.73,1.73,0,0,1,1.92,1.77c0,1-.73,1.86-1.76,2.81l-.5.44h2.39v.92Z"/><path class="cls-50" d="M341.41,62.83c0,1.89-.74,3.07-2.15,3.07s-2.06-1.22-2.07-3,.78-3,2.14-3S341.41,61.11,341.41,62.83Zm-3.1.06c0,1.43.39,2.17,1,2.17s1-.8,1-2.2-.32-2.16-1-2.16S338.31,61.43,338.31,62.89Z"/><path class="cls-50" d="M332.45,97.2v-.67l.69-.64c1.38-1.28,2-2,2-2.76a.92.92,0,0,0-1.05-1,2.09,2.09,0,0,0-1.25.49l-.32-.79a2.9,2.9,0,0,1,1.8-.6A1.73,1.73,0,0,1,336.28,93c0,1-.73,1.86-1.76,2.8l-.5.45h2.39v.92Z"/><path class="cls-50" d="M339,92.35h0l-1.07.54-.19-.84,1.43-.7h.92V97.2H339Z"/><path class="cls-50" d="M332.45,112.9v-.67l.69-.64c1.38-1.28,2-2,2-2.76a.92.92,0,0,0-1.05-1,2.09,2.09,0,0,0-1.25.49l-.32-.79a2.9,2.9,0,0,1,1.8-.6,1.73,1.73,0,0,1,1.92,1.77c0,1-.73,1.86-1.76,2.8l-.5.45h2.39v.92Z"/><path class="cls-50" d="M337.27,112.9v-.67l.7-.64c1.37-1.28,2-2,2-2.76a.92.92,0,0,0-1-1,2.09,2.09,0,0,0-1.26.49l-.32-.79a2.9,2.9,0,0,1,1.8-.6,1.74,1.74,0,0,1,1.93,1.77c0,1-.74,1.86-1.77,2.8l-.5.45h2.39v.92Z"/><path class="cls-50" d="M303.12,61h0l-1.07.54-.19-.84,1.43-.7h.92v5.85h-1.07Z"/><path class="cls-50" d="M310.23,60v.71l-2.47,5.14h-1.17L309.06,61v0H306.3V60Z"/><path class="cls-50" d="M303.12,92.43h0L302,93l-.19-.84,1.43-.7h.92v5.85h-1.07Z"/><path class="cls-50" d="M307.22,94.23a1.43,1.43,0,0,1-.89-1.3,1.75,1.75,0,0,1,2-1.6c1.27,0,1.83.76,1.83,1.48a1.47,1.47,0,0,1-.9,1.32v0a1.56,1.56,0,0,1,1.12,1.47c0,1.05-.88,1.75-2.13,1.75s-2.08-.79-2.08-1.61a1.6,1.6,0,0,1,1.09-1.51Zm2,1.49c0-.59-.43-.91-1.09-1.1a1.08,1.08,0,0,0-.86,1,.92.92,0,0,0,1,1A.88.88,0,0,0,309.21,95.72Zm-1.82-2.83c0,.47.39.76.95.92a1,1,0,0,0,.73-.89.78.78,0,0,0-.84-.82A.76.76,0,0,0,307.39,92.89Z"/><path class="cls-50" d="M368.38,49.68V49l.7-.64c1.37-1.28,2-2,2-2.75a.92.92,0,0,0-1-1,2.15,2.15,0,0,0-1.26.48l-.32-.78a2.9,2.9,0,0,1,1.8-.6,1.73,1.73,0,0,1,1.93,1.77c0,1-.74,1.85-1.77,2.8l-.5.44v0h2.39v.92Z"/><path class="cls-50" d="M373.43,48.53a2.87,2.87,0,0,0,1.33.36c.85,0,1.18-.47,1.18-.93,0-.7-.65-1-1.33-1h-.5v-.81h.5c.51,0,1.15-.24,1.15-.81,0-.41-.29-.74-.93-.74a2.27,2.27,0,0,0-1.2.37l-.25-.8a3.21,3.21,0,0,1,1.68-.45c1.22,0,1.83.66,1.83,1.43a1.42,1.42,0,0,1-1.08,1.36v0A1.5,1.5,0,0,1,377.1,48c0,1-.83,1.77-2.28,1.77a3.17,3.17,0,0,1-1.64-.4Z"/><path class="cls-50" d="M368.38,65.38V64.7l.7-.64c1.37-1.28,2-2,2-2.75a.92.92,0,0,0-1-1,2.15,2.15,0,0,0-1.26.48l-.32-.78a2.9,2.9,0,0,1,1.8-.6,1.73,1.73,0,0,1,1.93,1.77c0,1-.74,1.85-1.77,2.8l-.5.44v0h2.39v.92Z"/><path class="cls-50" d="M375.65,65.38V63.89H373v-.72l2.4-3.65h1.3v3.53h.76v.84h-.76v1.49Zm0-2.33V61.46q0-.49,0-1h0c-.18.37-.34.67-.52,1L374.05,63h1.6Z"/><path class="cls-50" d="M368.38,96.78V96.1l.7-.64c1.37-1.28,2-2,2-2.75a.92.92,0,0,0-1-1,2.15,2.15,0,0,0-1.26.48l-.32-.78a2.9,2.9,0,0,1,1.8-.61,1.74,1.74,0,0,1,1.93,1.78c0,1-.74,1.85-1.77,2.8l-.5.44v0h2.39v.92Z"/><path class="cls-50" d="M376.93,91.84h-2.25L374.51,93a3.14,3.14,0,0,1,1.84.35,1.69,1.69,0,0,1,.76,1.49,2.13,2.13,0,0,1-2.36,2,3.36,3.36,0,0,1-1.55-.34l.22-.83a3.06,3.06,0,0,0,1.29.3A1.14,1.14,0,0,0,376,94.94c0-.68-.5-1.12-1.66-1.12a5.7,5.7,0,0,0-.8.06l.38-3h3Z"/><path class="cls-50" d="M368.38,112.48v-.68l.7-.64c1.37-1.28,2-2,2-2.75a.92.92,0,0,0-1-1,2.15,2.15,0,0,0-1.26.48l-.32-.78a2.9,2.9,0,0,1,1.8-.61,1.74,1.74,0,0,1,1.93,1.78c0,1-.74,1.85-1.77,2.8l-.5.44v0h2.39v.92Z"/><path class="cls-50" d="M376.76,107.42a3.74,3.74,0,0,0-.56,0,2.07,2.07,0,0,0-2,1.7h0a1.69,1.69,0,0,1,1.31-.56,1.76,1.76,0,0,1,1.79,1.91,2,2,0,0,1-2.06,2.08,2.23,2.23,0,0,1-2.2-2.52,3.55,3.55,0,0,1,1-2.62,3.3,3.3,0,0,1,2.08-.86,2.35,2.35,0,0,1,.56,0Zm-.51,3.13a1,1,0,0,0-1-1.16,1.07,1.07,0,0,0-1,.6.7.7,0,0,0-.07.35c0,.78.37,1.41,1.1,1.41C375.88,111.75,376.25,111.25,376.25,110.55Z"/><path class="cls-50" d="M394.44,49.86v-.68l.69-.64c1.38-1.28,2-2,2-2.75a.91.91,0,0,0-1-1,2.15,2.15,0,0,0-1.25.48l-.33-.78a3,3,0,0,1,1.81-.61,1.73,1.73,0,0,1,1.92,1.78c0,1-.74,1.85-1.76,2.8l-.51.44v0h2.4v.92Z"/><path class="cls-50" d="M403.28,44v.72l-2.47,5.14h-1.16l2.46-4.92v0h-2.76V44Z"/><path class="cls-50" d="M394.44,65.56v-.68l.69-.64c1.38-1.28,2-2,2-2.75a.91.91,0,0,0-1-1,2.15,2.15,0,0,0-1.25.48l-.33-.78a3,3,0,0,1,1.81-.61,1.73,1.73,0,0,1,1.92,1.78c0,1-.74,1.85-1.76,2.8l-.51.44v0h2.4v.92Z"/><path class="cls-50" d="M400.28,62.5a1.42,1.42,0,0,1-.89-1.29,1.74,1.74,0,0,1,1.95-1.61c1.27,0,1.84.76,1.84,1.48a1.45,1.45,0,0,1-.9,1.32v0a1.58,1.58,0,0,1,1.11,1.48c0,1-.88,1.74-2.13,1.74s-2.08-.79-2.08-1.61a1.61,1.61,0,0,1,1.1-1.51Zm2,1.5c0-.6-.43-.92-1.09-1.1a1.06,1.06,0,0,0-.87,1,.93.93,0,0,0,1,1A.89.89,0,0,0,402.27,64Zm-1.83-2.84c0,.48.4.77.95.92a.94.94,0,0,0,.73-.88.84.84,0,0,0-1.68,0Z"/><path class="cls-50" d="M394.44,97v-.68l.69-.64c1.38-1.28,2-2,2-2.75a.92.92,0,0,0-1-1,2.15,2.15,0,0,0-1.25.49l-.33-.78a3,3,0,0,1,1.81-.61,1.73,1.73,0,0,1,1.92,1.78c0,1-.74,1.85-1.76,2.8L396,96v0h2.4V97Z"/><path class="cls-50" d="M399.7,96.16a2.6,2.6,0,0,0,.61,0,2.07,2.07,0,0,0,1.19-.45,2.09,2.09,0,0,0,.76-1.3h0a1.68,1.68,0,0,1-1.28.51,1.72,1.72,0,0,1-1.77-1.81A2.07,2.07,0,0,1,401.3,91c1.36,0,2.08,1.07,2.08,2.5a3.64,3.64,0,0,1-1,2.73,3.34,3.34,0,0,1-2,.8c-.25,0-.5,0-.67,0Zm.59-3.13a1,1,0,0,0,1,1.07,1.1,1.1,0,0,0,.95-.48.93.93,0,0,0,.06-.33c0-.79-.3-1.47-1-1.47C400.68,91.82,400.29,92.32,400.29,93Z"/><path class="cls-50" d="M394.66,111.51a2.87,2.87,0,0,0,1.33.36c.85,0,1.18-.48,1.18-.93,0-.7-.65-1-1.33-1h-.5v-.81h.5c.51,0,1.15-.24,1.15-.81,0-.41-.28-.74-.93-.74a2.27,2.27,0,0,0-1.2.37l-.25-.81a3.31,3.31,0,0,1,1.68-.45c1.22,0,1.83.67,1.83,1.44A1.42,1.42,0,0,1,397,109.5v0a1.5,1.5,0,0,1,1.29,1.46c0,1-.83,1.77-2.28,1.77a3.17,3.17,0,0,1-1.64-.4Z"/><path class="cls-50" d="M403.39,109.68c0,1.9-.74,3.07-2.14,3.07s-2.06-1.22-2.07-3,.77-3,2.14-3S403.39,108,403.39,109.68Zm-3.09.06c0,1.43.38,2.17,1,2.17s1-.79,1-2.2-.32-2.16-1-2.16S400.3,108.28,400.3,109.74Z"/><path class="cls-50" d="M419.61,48.89a2.88,2.88,0,0,0,1.34.36c.84,0,1.18-.47,1.18-.93,0-.7-.66-1-1.34-1h-.5v-.81h.5c.51,0,1.16-.24,1.16-.81,0-.41-.29-.74-.94-.74a2.4,2.4,0,0,0-1.2.37l-.25-.8a3.21,3.21,0,0,1,1.68-.45c1.22,0,1.83.66,1.83,1.43A1.44,1.44,0,0,1,422,46.89h0a1.5,1.5,0,0,1,1.29,1.46c0,1-.83,1.78-2.28,1.78a3.18,3.18,0,0,1-1.64-.41Z"/><path class="cls-50" d="M426,45.18h0l-1.07.54-.19-.83,1.43-.71H427V50H426Z"/><path class="cls-50" d="M419.61,64.59A2.88,2.88,0,0,0,421,65c.84,0,1.18-.47,1.18-.93,0-.7-.66-1-1.34-1h-.5v-.81h.5c.51,0,1.16-.24,1.16-.81,0-.41-.29-.74-.94-.74a2.4,2.4,0,0,0-1.2.37l-.25-.8a3.21,3.21,0,0,1,1.68-.45c1.22,0,1.83.66,1.83,1.43A1.44,1.44,0,0,1,422,62.59h0a1.5,1.5,0,0,1,1.29,1.46c0,1-.83,1.78-2.28,1.78a3.18,3.18,0,0,1-1.64-.41Z"/><path class="cls-50" d="M424.21,65.74v-.68l.7-.64c1.37-1.28,2-2,2-2.75a.92.92,0,0,0-1-1,2.09,2.09,0,0,0-1.25.48l-.33-.78a2.9,2.9,0,0,1,1.8-.6,1.73,1.73,0,0,1,1.93,1.77c0,1-.74,1.85-1.77,2.8l-.5.44v0h2.39v.92Z"/><path class="cls-50" d="M419.61,96a2.88,2.88,0,0,0,1.34.36c.84,0,1.18-.47,1.18-.93,0-.7-.66-1-1.34-1h-.5v-.81h.5c.51,0,1.16-.24,1.16-.81,0-.41-.29-.74-.94-.74a2.3,2.3,0,0,0-1.2.37l-.25-.8a3.2,3.2,0,0,1,1.68-.46c1.22,0,1.83.67,1.83,1.44A1.42,1.42,0,0,1,422,94v0a1.5,1.5,0,0,1,1.29,1.46c0,1-.83,1.77-2.28,1.77a3.19,3.19,0,0,1-1.64-.4Z"/><path class="cls-50" d="M424.44,96a2.8,2.8,0,0,0,1.33.36c.85,0,1.18-.47,1.18-.93,0-.7-.66-1-1.33-1h-.51v-.81h.51c.5,0,1.15-.24,1.15-.81,0-.41-.29-.74-.94-.74a2.27,2.27,0,0,0-1.19.37l-.26-.8a3.24,3.24,0,0,1,1.69-.46c1.21,0,1.83.67,1.83,1.44A1.42,1.42,0,0,1,426.81,94v0a1.5,1.5,0,0,1,1.29,1.46c0,1-.83,1.77-2.28,1.77a3.12,3.12,0,0,1-1.63-.4Z"/><path class="cls-50" d="M419.61,111.69a2.88,2.88,0,0,0,1.34.36c.84,0,1.18-.47,1.18-.93,0-.7-.66-1-1.34-1h-.5v-.81h.5c.51,0,1.16-.24,1.16-.81,0-.41-.29-.74-.94-.74a2.4,2.4,0,0,0-1.2.37l-.25-.8a3.21,3.21,0,0,1,1.68-.45c1.22,0,1.83.66,1.83,1.43a1.42,1.42,0,0,1-1.08,1.36v0a1.5,1.5,0,0,1,1.29,1.46c0,1-.83,1.77-2.28,1.77a3.19,3.19,0,0,1-1.64-.4Z"/><path class="cls-50" d="M426.65,112.84v-1.49H424v-.72l2.39-3.65h1.31v3.53h.75v.84h-.75v1.49Zm0-2.33v-1.59c0-.33,0-.67,0-1h0c-.18.37-.33.67-.51,1l-1.08,1.61h1.59Z"/><path class="cls-50" d="M654.48,49.26a2.92,2.92,0,0,0,1.33.36c.85,0,1.18-.48,1.18-.94,0-.69-.66-1-1.33-1h-.51v-.81h.51c.5,0,1.15-.23,1.15-.81,0-.4-.29-.74-.94-.74a2.36,2.36,0,0,0-1.19.37l-.26-.8a3.35,3.35,0,0,1,1.69-.45c1.21,0,1.82.67,1.82,1.43a1.42,1.42,0,0,1-1.08,1.37v0a1.49,1.49,0,0,1,1.29,1.46c0,1-.83,1.77-2.28,1.77a3.3,3.3,0,0,1-1.64-.4Z"/><path class="cls-50" d="M662.8,45.47h-2.25l-.17,1.17a2.5,2.5,0,0,1,.42,0,2.6,2.6,0,0,1,1.42.38,1.69,1.69,0,0,1,.76,1.49,2.13,2.13,0,0,1-2.36,2,3.36,3.36,0,0,1-1.55-.34l.22-.84a2.9,2.9,0,0,0,1.29.31,1.14,1.14,0,0,0,1.27-1.06c0-.68-.5-1.12-1.66-1.12-.33,0-.57,0-.8,0l.38-3h3Z"/><path class="cls-50" d="M654.48,65a2.8,2.8,0,0,0,1.33.36c.85,0,1.18-.48,1.18-.94,0-.69-.66-1-1.33-1h-.51v-.81h.51c.5,0,1.15-.23,1.15-.81,0-.4-.29-.74-.94-.74a2.36,2.36,0,0,0-1.19.37l-.26-.8a3.35,3.35,0,0,1,1.69-.45c1.21,0,1.82.67,1.82,1.43A1.42,1.42,0,0,1,656.85,63v0a1.49,1.49,0,0,1,1.29,1.46c0,1-.83,1.77-2.28,1.77a3.3,3.3,0,0,1-1.64-.4Z"/><path class="cls-50" d="M662.63,61a2.84,2.84,0,0,0-.56,0,2.06,2.06,0,0,0-2,1.7h0a1.7,1.7,0,0,1,1.31-.57,1.77,1.77,0,0,1,1.79,1.91,2,2,0,0,1-2.06,2.09,2.23,2.23,0,0,1-2.2-2.53,3.54,3.54,0,0,1,1-2.61,3.3,3.3,0,0,1,2.08-.86,2.35,2.35,0,0,1,.56,0Zm-.51,3.14a1,1,0,0,0-1-1.16,1.07,1.07,0,0,0-1,.6.7.7,0,0,0-.07.35c0,.77.37,1.4,1.1,1.4C661.75,65.37,662.12,64.88,662.12,64.18Z"/><path class="cls-50" d="M654.48,96.36a2.92,2.92,0,0,0,1.33.36c.85,0,1.18-.48,1.18-.94,0-.69-.66-1-1.33-1h-.51V94h.51c.5,0,1.15-.23,1.15-.81,0-.4-.29-.74-.94-.74a2.36,2.36,0,0,0-1.19.37l-.26-.8a3.35,3.35,0,0,1,1.69-.45c1.21,0,1.82.67,1.82,1.43a1.42,1.42,0,0,1-1.08,1.37v0a1.49,1.49,0,0,1,1.29,1.46c0,1-.83,1.77-2.28,1.77a3.3,3.3,0,0,1-1.64-.4Z"/><path class="cls-50" d="M663.1,91.65v.71l-2.48,5.14h-1.16l2.47-4.91v0h-2.76v-.92Z"/><path class="cls-50" d="M654.48,112.06a2.92,2.92,0,0,0,1.33.36c.85,0,1.18-.48,1.18-.94,0-.69-.66-1-1.33-1h-.51v-.81h.51c.5,0,1.15-.23,1.15-.81,0-.4-.29-.74-.94-.74a2.36,2.36,0,0,0-1.19.37l-.26-.8a3.35,3.35,0,0,1,1.69-.45c1.21,0,1.82.67,1.82,1.43a1.42,1.42,0,0,1-1.08,1.37v0a1.49,1.49,0,0,1,1.29,1.46c0,1-.83,1.77-2.28,1.77a3.3,3.3,0,0,1-1.64-.4Z"/><path class="cls-50" d="M660.09,110.15a1.43,1.43,0,0,1-.89-1.3,1.75,1.75,0,0,1,2-1.6c1.27,0,1.83.76,1.83,1.48a1.46,1.46,0,0,1-.9,1.32v0a1.58,1.58,0,0,1,1.12,1.48c0,1-.88,1.74-2.14,1.74s-2.08-.79-2.08-1.61a1.62,1.62,0,0,1,1.1-1.51Zm2,1.49c0-.59-.43-.91-1.09-1.09a1.05,1.05,0,0,0-.86,1,.92.92,0,0,0,1,1A.88.88,0,0,0,662.08,111.64Zm-1.82-2.83c0,.48.39.76,1,.92a1,1,0,0,0,.73-.88.78.78,0,0,0-.84-.83A.77.77,0,0,0,660.26,108.81Z"/><path class="cls-50" d="M687.68,49.16a3,3,0,0,0,1.34.36c.84,0,1.18-.48,1.18-.94,0-.69-.66-1-1.34-1h-.5v-.81h.5c.51,0,1.15-.23,1.15-.81,0-.4-.28-.74-.93-.74a2.37,2.37,0,0,0-1.2.37l-.25-.8a3.31,3.31,0,0,1,1.68-.45c1.22,0,1.83.67,1.83,1.43a1.42,1.42,0,0,1-1.08,1.37v0a1.5,1.5,0,0,1,1.29,1.46c0,1-.83,1.77-2.28,1.77a3.3,3.3,0,0,1-1.64-.4Z"/><path class="cls-50" d="M692.72,49.51a2.6,2.6,0,0,0,.61,0,2.08,2.08,0,0,0,1.95-1.75h0a1.68,1.68,0,0,1-1.28.51,1.72,1.72,0,0,1-1.77-1.81,2.07,2.07,0,0,1,2.11-2.09c1.36,0,2.09,1.06,2.09,2.5a3.6,3.6,0,0,1-1,2.72,3.29,3.29,0,0,1-2,.81,5.16,5.16,0,0,1-.67,0Zm.59-3.13a1,1,0,0,0,1,1.07,1.1,1.1,0,0,0,1-.49.82.82,0,0,0,.06-.32c0-.79-.3-1.47-1-1.47C693.7,45.17,693.31,45.67,693.31,46.38Z"/><path class="cls-50" d="M689.9,66V64.52h-2.66V63.8l2.4-3.65h1.3v3.53h.76v.84h-.76V66Zm0-2.32V62.09c0-.34,0-.67,0-1h0c-.18.37-.34.67-.52,1l-1.08,1.6v0Z"/><path class="cls-50" d="M696.41,63c0,1.89-.73,3.07-2.14,3.07s-2.06-1.22-2.07-3,.77-3.05,2.14-3.05S696.41,61.31,696.41,63Zm-3.09.06c0,1.43.38,2.17,1,2.17s1-.8,1-2.2-.32-2.16-1-2.16S693.32,61.63,693.32,63.09Z"/><path class="cls-50" d="M689.9,97.4V95.92h-2.66V95.2l2.4-3.65h1.3v3.53h.76v.84h-.76V97.4Zm0-2.32V93.49c0-.34,0-.67,0-1h0c-.18.37-.34.67-.52,1l-1.08,1.6v0Z"/><path class="cls-50" d="M694,92.55h0l-1.07.54-.19-.84,1.43-.7h.92V97.4H694Z"/><path class="cls-50" d="M689.9,113.1v-1.48h-2.66v-.72l2.4-3.65h1.3v3.53h.76v.84h-.76v1.48Zm0-2.32v-1.59c0-.34,0-.67,0-1h0c-.18.37-.34.67-.52,1l-1.08,1.6v0Z"/><path class="cls-50" d="M692.28,113.1v-.67l.69-.64c1.38-1.28,2-2,2-2.76a.92.92,0,0,0-1-1,2.09,2.09,0,0,0-1.26.49l-.32-.78a2.84,2.84,0,0,1,1.8-.61,1.74,1.74,0,0,1,1.93,1.78c0,1-.74,1.85-1.77,2.8l-.5.44h2.39v.92Z"/><path class="cls-50" d="M715.92,49.72V48.23h-2.65v-.72l2.39-3.64H717V47.4h.75v.83H717v1.49Zm0-2.32V45.8c0-.33,0-.66,0-1h0c-.18.37-.33.66-.51,1l-1.08,1.6v0Z"/><path class="cls-50" d="M718.53,48.58a3,3,0,0,0,1.34.36c.84,0,1.17-.48,1.17-.94,0-.69-.65-1-1.33-1h-.5V46.2h.5c.51,0,1.16-.23,1.16-.81,0-.41-.29-.74-.94-.74a2.37,2.37,0,0,0-1.2.37l-.25-.8a3.21,3.21,0,0,1,1.68-.45c1.22,0,1.83.67,1.83,1.43a1.43,1.43,0,0,1-1.08,1.37v0a1.49,1.49,0,0,1,1.29,1.46c0,1-.83,1.77-2.28,1.77a3.18,3.18,0,0,1-1.64-.41Z"/><path class="cls-50" d="M715.92,65.42V63.93h-2.65v-.72l2.39-3.64H717V63.1h.75v.83H717v1.49Zm0-2.32V61.5c0-.33,0-.66,0-1h0c-.18.37-.33.66-.51,1l-1.08,1.6v0Z"/><path class="cls-50" d="M720.75,65.42V63.93h-2.66v-.72l2.4-3.64h1.3V63.1h.76v.83h-.76v1.49Zm0-2.32V61.5c0-.33,0-.66,0-1h0c-.18.37-.34.66-.52,1l-1.08,1.6v0Z"/><path class="cls-50" d="M715.92,96.82V95.33h-2.65v-.72L715.66,91H717V94.5h.75v.83H717v1.49Zm0-2.32V92.9c0-.33,0-.66,0-1h0c-.18.37-.33.66-.51,1l-1.08,1.6v0Z"/><path class="cls-50" d="M722,91.89h-2.25l-.18,1.17a2.87,2.87,0,0,1,1.84.35,1.68,1.68,0,0,1,.77,1.48,2.14,2.14,0,0,1-2.36,2,3.4,3.4,0,0,1-1.56-.34l.22-.84a3.08,3.08,0,0,0,1.29.31A1.14,1.14,0,0,0,721.08,95c0-.67-.49-1.11-1.66-1.11a5.88,5.88,0,0,0-.8,0l.38-3h3Z"/><path class="cls-50" d="M715.92,112.52V111h-2.65v-.72l2.39-3.64H717v3.53h.75V111H717v1.49Zm0-2.32v-1.6c0-.33,0-.66,0-1h0c-.18.37-.33.66-.51,1l-1.08,1.6v0Z"/><path class="cls-50" d="M721.86,107.46a2.71,2.71,0,0,0-.55,0,2.06,2.06,0,0,0-2,1.7h0a1.7,1.7,0,0,1,1.31-.57,1.77,1.77,0,0,1,1.8,1.91,2,2,0,0,1-2.07,2.09,2.23,2.23,0,0,1-2.2-2.53,3.49,3.49,0,0,1,1-2.61,3.32,3.32,0,0,1,2.08-.87,2.75,2.75,0,0,1,.55,0Zm-.51,3.13a1,1,0,0,0-1-1.16,1.06,1.06,0,0,0-1,.61.68.68,0,0,0-.07.35c0,.77.38,1.4,1.1,1.4S721.35,111.3,721.35,110.59Z"/><path class="cls-50" d="M741.26,49.61V48.13h-2.65v-.72L741,43.76h1.31v3.53h.76v.84h-.76v1.48Zm0-2.32V45.7c0-.34,0-.67,0-1h0c-.18.37-.33.67-.51,1l-1.08,1.6v0Z"/><path class="cls-50" d="M747.67,43.76v.71l-2.47,5.14H744l2.46-4.91v0h-2.76v-.92Z"/><path class="cls-50" d="M741.26,65.31V63.83h-2.65v-.72L741,59.46h1.31V63h.76v.84h-.76v1.48Zm0-2.32V61.4c0-.34,0-.67,0-1h0c-.18.37-.33.67-.51,1L739.67,63v0Z"/><path class="cls-50" d="M744.67,62.26a1.4,1.4,0,0,1-.89-1.29,1.74,1.74,0,0,1,2-1.61c1.27,0,1.84.76,1.84,1.48a1.47,1.47,0,0,1-.91,1.32v0a1.58,1.58,0,0,1,1.12,1.48c0,1-.88,1.74-2.13,1.74s-2.08-.79-2.08-1.61a1.61,1.61,0,0,1,1.1-1.51Zm2,1.5c0-.6-.44-.92-1.09-1.1a1.06,1.06,0,0,0-.87,1,.92.92,0,0,0,1,.95A.89.89,0,0,0,746.66,63.76Zm-1.83-2.84c0,.48.39.77.95.92a.94.94,0,0,0,.73-.88.84.84,0,0,0-1.68,0Z"/><path class="cls-50" d="M741.26,96.71V95.23h-2.65v-.72L741,90.86h1.31v3.53h.76v.84h-.76v1.48Zm0-2.32V92.8c0-.34,0-.67,0-1h0c-.18.37-.33.67-.51,1l-1.08,1.6v0Z"/><path class="cls-50" d="M744.09,95.92a2.6,2.6,0,0,0,.61,0,2.14,2.14,0,0,0,1.19-.45,2.09,2.09,0,0,0,.76-1.3h0a1.68,1.68,0,0,1-1.28.51,1.72,1.72,0,0,1-1.77-1.81,2.07,2.07,0,0,1,2.1-2.09c1.37,0,2.09,1.06,2.09,2.5a3.57,3.57,0,0,1-1,2.72,3.23,3.23,0,0,1-2,.81,5.18,5.18,0,0,1-.67,0Zm.59-3.13a1,1,0,0,0,1,1.07,1.08,1.08,0,0,0,.94-.49.66.66,0,0,0,.07-.32c0-.79-.3-1.47-1-1.47C745.07,91.58,744.68,92.08,744.68,92.79Z"/><path class="cls-50" d="M742.55,107.48H740.3l-.17,1.17a2.46,2.46,0,0,1,.41,0A2.61,2.61,0,0,1,742,109a1.69,1.69,0,0,1,.76,1.49,2.13,2.13,0,0,1-2.36,2,3.36,3.36,0,0,1-1.55-.34l.22-.84a2.9,2.9,0,0,0,1.29.31,1.14,1.14,0,0,0,1.27-1.06c0-.68-.5-1.12-1.66-1.12a5.7,5.7,0,0,0-.8.06l.38-3h3Z"/><path class="cls-50" d="M747.78,109.44c0,1.89-.74,3.07-2.14,3.07s-2.06-1.22-2.07-3,.77-3.05,2.14-3.05S747.78,107.72,747.78,109.44Zm-3.1.06c0,1.43.39,2.17,1,2.17s1-.8,1-2.2-.31-2.16-1-2.16S744.68,108,744.68,109.5Z"/></g><line class="cls-51" x1="167.14" y1="19.29" x2="238.03" y2="19.29"/><polygon class="cls-4" points="169.12 22.19 158.28 19.29 169.12 16.38 169.12 22.19"/><path class="cls-4" d="M272.35,14.19h1.4v4.14l4-4.14h1.85l-4.42,4.56,4.7,5.25h-1.79l-4.37-4.9V24h-1.4Z"/><path class="cls-4" d="M283.38,17.28a3.43,3.43,0,1,1-3.4,3.43A3.34,3.34,0,0,1,283.38,17.28Zm0,5.6a2.17,2.17,0,1,0-2.07-2.17A2.08,2.08,0,0,0,283.38,22.88Z"/><path class="cls-4" d="M289.89,17.42v.63a2.85,2.85,0,0,1,1.93-.77,3,3,0,0,1,2.33,1.09,3.31,3.31,0,0,1,2.51-1.09,3,3,0,0,1,2.34,1.1,3.4,3.4,0,0,1,.6,2.26V24h-1.33V20.43a1.87,1.87,0,0,0-.38-1.32,1.6,1.6,0,0,0-1.23-.57,2.71,2.71,0,0,0-2,.94,5.37,5.37,0,0,1,.12,1.16V24h-1.33V20.43a1.87,1.87,0,0,0-.38-1.32,1.69,1.69,0,0,0-1.28-.57,2.51,2.51,0,0,0-1.85.94V24H288.6V17.42Z"/><path class="cls-4" d="M305.54,15.23a1.9,1.9,0,0,0-.49-.06,1.28,1.28,0,0,0-1,.47,1.78,1.78,0,0,0-.26,1.17v.61h2v1.19h-2V24h-1.33V18.61h-1.54V17.42h1.54v-.57a3.09,3.09,0,0,1,.42-1.84,2.58,2.58,0,0,1,2.16-1.1,3.46,3.46,0,0,1,.79.1Z"/><path class="cls-4" d="M310,17.28a3.43,3.43,0,1,1-3.41,3.43A3.34,3.34,0,0,1,310,17.28Zm0,5.6a2.17,2.17,0,1,0-2.08-2.17A2.07,2.07,0,0,0,310,22.88Z"/><path class="cls-4" d="M318.84,18.59a1.91,1.91,0,0,0-.51-.05,2.19,2.19,0,0,0-1.78,1.1V24h-1.33V17.42h1.29v.75a2.38,2.38,0,0,1,2-.89,3.2,3.2,0,0,1,.52,0Z"/><path class="cls-4" d="M325.09,24a3.79,3.79,0,0,1-1,.14,2.37,2.37,0,0,1-1.86-.77,2.54,2.54,0,0,1-.53-1.75v-3H320V17.42h1.68V15.59H323v1.83h2.1v1.19H323v3.08a1.33,1.33,0,0,0,.19.84,1.25,1.25,0,0,0,.91.35,3,3,0,0,0,.73-.09Z"/><line class="cls-51" x1="430.23" y1="18.68" x2="359.27" y2="18.68"/><polygon class="cls-4" points="428.25 15.78 439.09 18.68 428.25 21.59 428.25 15.78"/><line class="cls-52" x1="440.36" y1="12.93" x2="440.36" y2="24.64"/><line class="cls-52" x1="156.72" y1="12.72" x2="156.72" y2="24.43"/></g></svg>