<svg xmlns="http://www.w3.org/2000/svg" viewBox="0 0 750 160"><defs><style>.cls-1,.cls-2{fill:#c6c6c5;}.cls-12,.cls-14,.cls-18,.cls-19,.cls-2,.cls-20,.cls-21,.cls-22,.cls-23,.cls-24,.cls-25,.cls-26,.cls-27,.cls-28,.cls-29,.cls-3,.cls-4,.cls-5,.cls-6,.cls-7,.cls-8{stroke:#000;}.cls-10,.cls-11,.cls-12,.cls-13,.cls-14,.cls-18,.cls-19,.cls-2,.cls-20,.cls-21,.cls-22,.cls-23,.cls-24,.cls-25,.cls-26,.cls-27,.cls-28,.cls-29,.cls-3,.cls-34,.cls-35,.cls-36,.cls-37,.cls-4,.cls-40,.cls-5,.cls-6,.cls-7,.cls-8,.cls-9{stroke-miterlimit:10;}.cls-11,.cls-12,.cls-13,.cls-2,.cls-5,.cls-6,.cls-8{stroke-width:0.25px;}.cls-3{fill:#3d3d3c;}.cls-10,.cls-18,.cls-19,.cls-20,.cls-21,.cls-22,.cls-23,.cls-24,.cls-25,.cls-26,.cls-27,.cls-28,.cls-29,.cls-3,.cls-4,.cls-7,.cls-9{stroke-width:0.5px;}.cls-31,.cls-4{fill:#6dc6d9;}.cls-5{fill:#575756;}.cls-11,.cls-30,.cls-6,.cls-7{fill:#3c3c3b;}.cls-18,.cls-20,.cls-21,.cls-22,.cls-23,.cls-24,.cls-25,.cls-26,.cls-27,.cls-28,.cls-29,.cls-34,.cls-35,.cls-36,.cls-37,.cls-40,.cls-8{fill:none;}.cls-10,.cls-11,.cls-8{stroke-linecap:round;}.cls-10,.cls-12,.cls-9{fill:#6f6f6e;}.cls-10,.cls-11,.cls-13,.cls-9{stroke:#1d1d1b;}.cls-13{fill:#b1b1b1;}.cls-14,.cls-17,.cls-19{fill:#9d9b9b;}.cls-14{stroke-width:0.75px;}.cls-15{fill:#7b7b7a;}.cls-16,.cls-39{fill:#fff;}.cls-18{stroke-dasharray:1.97 0.99;}.cls-20{stroke-dasharray:1.97 0.99;}.cls-21{stroke-dasharray:1.99 0.99;}.cls-22{stroke-dasharray:1.99 0.99;}.cls-23{stroke-dasharray:1.99 0.99;}.cls-24{stroke-dasharray:1.99 0.99;}.cls-25{stroke-dasharray:1.99 0.99;}.cls-26{stroke-dasharray:1.99 0.99;}.cls-27{stroke-dasharray:1.99 0.99;}.cls-28{stroke-dasharray:1.99 0.99;}.cls-29{stroke-dasharray:1.97 0.99;}.cls-32{fill:#ffd421;}.cls-33{fill:#221e20;}.cls-34,.cls-35,.cls-36,.cls-37,.cls-40{stroke:#e53212;}.cls-35{stroke-dasharray:5.28 5.28;}.cls-36{stroke-dasharray:8.89 8.89;}.cls-37{stroke-dasharray:8.89 8.89 8.89 8.89;}.cls-38{fill:#251a5f;}.cls-39{fill-rule:evenodd;}.cls-40{stroke-dasharray:4.76 4.76;}</style></defs><title>Type69CII_BM69C-II_vogn1</title><g id="Type69CII_BM69C-II_vogn1"><g id="VOGNKASSE-3" data-name="VOGNKASSE"><path class="cls-1" d="M27.34,42.21h-.15l.15,0Z"/><path id="GULV" class="cls-2" d="M40.41,36.24h0a3.79,3.79,0,0,0-3.67,3.39h0L32.05,79.7v.08h0v.07l4.64,40.07h0a3.78,3.78,0,0,0,3.66,3.39h0v.13H711.77V36.24Z"/><rect class="cls-3" x="42.68" y="120.18" width="2.63" height="3.54"/><rect class="cls-4" x="251.98" y="120.17" width="251.63" height="3.56"/><rect class="cls-3" x="306.11" y="120.16" width="17.65" height="3.54"/><rect class="cls-3" x="410.09" y="120.18" width="16.78" height="3.54"/><rect class="cls-3" x="358.28" y="120.18" width="17.69" height="3.54"/><rect class="cls-3" x="461.75" y="120.18" width="41.86" height="3.54"/><rect class="cls-3" x="251.98" y="120.18" width="19.55" height="3.54"/><rect class="cls-4" x="43.03" y="120.17" width="168.28" height="3.56"/><rect class="cls-4" x="544.85" y="120.17" width="167.7" height="3.56"/><rect class="cls-3" x="605.98" y="120.18" width="27.01" height="3.54"/><rect class="cls-3" x="544.85" y="120.18" width="27.3" height="3.54"/><rect class="cls-3" x="667.2" y="120.18" width="45.35" height="3.54"/><rect class="cls-3" x="188.89" y="120.16" width="22.42" height="3.54"/><rect class="cls-3" x="127.17" y="120.18" width="27.4" height="3.54"/><rect class="cls-3" x="74.13" y="120.18" width="19.47" height="3.54"/><rect class="cls-3" x="54.03" y="120.18" width="5.26" height="3.54"/><rect class="cls-3" x="42.69" y="120.18" width="2.63" height="3.54"/><rect class="cls-4" x="252" y="36.24" width="251.62" height="3.56"/><rect class="cls-3" x="306.12" y="36.23" width="17.65" height="3.54"/><rect class="cls-3" x="410.1" y="36.25" width="16.78" height="3.54"/><rect class="cls-3" x="358.29" y="36.24" width="17.69" height="3.54"/><rect class="cls-3" x="461.76" y="36.25" width="41.86" height="3.54"/><rect class="cls-3" x="252" y="36.25" width="19.55" height="3.54"/><polyline class="cls-4" points="43.04 36.24 211.32 36.24 211.32 39.8 43.04 39.8"/><rect class="cls-4" x="544.86" y="36.24" width="167.7" height="3.56"/><rect class="cls-3" x="605.99" y="36.25" width="27.01" height="3.54"/><rect class="cls-3" x="544.86" y="36.25" width="27.3" height="3.54"/><rect class="cls-3" x="667.2" y="36.25" width="45.35" height="3.54"/><rect class="cls-3" x="188.9" y="36.23" width="22.42" height="3.54"/><rect class="cls-3" x="127.18" y="36.25" width="27.4" height="3.54"/><rect class="cls-3" x="74.14" y="36.25" width="19.47" height="3.54"/><rect class="cls-3" x="54.04" y="36.25" width="5.26" height="3.54"/><rect class="cls-3" x="42.68" y="36.24" width="2.63" height="3.54"/><polygon class="cls-5" points="40.28 41.21 36.36 79.36 36.36 80.27 40.3 118.56 52.1 118.56 52.1 41.21 40.28 41.21"/><polygon class="cls-6" points="52.04 67.35 52.04 41.21 40.91 41.21 40.91 67.35 40.91 82.9 52.04 82.9 55.26 82.9 55.26 67.35 52.04 67.35"/><path class="cls-7" d="M40.39,40.13A.15.15,0,0,1,40.5,40a18.26,18.26,0,0,1,3.07-.2V36.19h-3a4.11,4.11,0,0,0-4.12,3.41h0L32.25,79.82v.08h0V80h0v.07l4.15,40.23h0a4.1,4.1,0,0,0,4.12,3.4h3v-3.56a14.7,14.7,0,0,1-3.07-.25.13.13,0,0,1-.11-.13c0-.06,0-.13,0-.2L36.28,80v-.14l4.07-39.56C40.36,40.27,40.38,40.2,40.39,40.13Z"/><polygon class="cls-6" points="79.84 65.83 79.84 39.88 78.75 39.88 78.75 65.83 78.75 66.92 79.84 66.92 94.51 66.92 94.51 67.56 95.6 67.56 95.6 66.92 95.6 65.83 95.6 65.83 79.84 65.83"/><polygon class="cls-6" points="94.52 83.83 94.52 85.23 79.84 85.23 79.84 85.22 78.75 85.22 78.75 85.23 78.75 95.19 78.75 120.16 79.84 120.16 79.84 95.19 95.61 95.19 95.61 85.56 95.61 85.23 95.61 83.83 94.52 83.83"/><line class="cls-8" x1="95.5" y1="67.13" x2="99.66" y2="83.53"/><path class="cls-8" d="M99.66,83.53a10.13,10.13,0,0,1-4.14.56"/><rect class="cls-9" x="697.06" y="40.04" width="13.91" height="25.18"/><rect class="cls-9" x="673.79" y="94.99" width="37.18" height="25.18"/><rect class="cls-10" x="545.42" y="39.79" width="10.74" height="14.8"/><rect class="cls-10" x="545.2" y="105.37" width="10.96" height="14.8"/><rect class="cls-10" x="471.88" y="98.02" width="7.42" height="22.15"/><rect class="cls-10" x="254.34" y="97.68" width="7.42" height="22.48"/><polyline class="cls-10" points="210.63 39.79 210.63 54.59 200.1 54.59 200.1 39.79"/><polyline class="cls-10" points="200.1 120.16 200.1 105.37 210.63 105.37 210.63 120.16"/><rect class="cls-10" x="254.34" y="39.79" width="7.42" height="14.01"/><rect class="cls-10" x="479.3" y="113.3" width="24.32" height="6.89"/><rect class="cls-11" x="710.97" y="39.8" width="1.58" height="30.47"/><rect class="cls-11" x="710.97" y="90.11" width="1.58" height="30.06"/><rect class="cls-12" x="492.91" y="34.46" width="16.44" height="1.07"/><rect class="cls-12" x="541.66" y="34.46" width="16.44" height="1.07"/><rect class="cls-12" x="492.91" y="125.47" width="16.44" height="1.07"/><rect class="cls-12" x="541.66" y="125.47" width="16.44" height="1.07"/><rect class="cls-12" x="198.34" y="34.54" width="16.44" height="1.07"/><rect class="cls-12" x="198.34" y="125.55" width="16.44" height="1.07"/><rect class="cls-12" x="247.09" y="125.55" width="16.44" height="1.07"/><rect class="cls-12" x="246.58" y="34.54" width="16.44" height="1.07"/><line class="cls-8" x1="710.97" y1="90.11" x2="706.12" y2="70.97"/><path class="cls-8" d="M706.12,71a11.86,11.86,0,0,1,4.83-.65"/><path class="cls-12" d="M252.11,122v-6.31h-3.89a1.14,1.14,0,0,0-1.13,1.14V122Z"/><path class="cls-12" d="M210.58,122v-6.31h3.88a1.14,1.14,0,0,1,1.14,1.14V122Z"/><path class="cls-12" d="M252.16,38v6.3h-3.89a1.13,1.13,0,0,1-1.13-1.13V38Z"/><path class="cls-12" d="M210.63,38v6.3h3.88a1.13,1.13,0,0,0,1.14-1.13V38Z"/><path class="cls-12" d="M545.17,121.74v-6.31h-3.88a1.14,1.14,0,0,0-1.14,1.13v5.18Z"/><path class="cls-12" d="M503.64,121.74v-6.31h3.89a1.14,1.14,0,0,1,1.13,1.13v5.18Z"/><path class="cls-12" d="M545.2,38v6.31h-3.89a1.14,1.14,0,0,1-1.13-1.14V38Z"/><path class="cls-12" d="M503.67,38v6.31h3.88a1.14,1.14,0,0,0,1.14-1.14V38Z"/><polygon class="cls-4" points="32.56 79.25 36.15 79.25 40.17 41.21 36.58 41.21 32.56 79.25"/><polygon class="cls-4" points="32.54 80.18 36.13 80.18 40.01 118.22 36.42 118.22 32.54 80.18"/><rect class="cls-10" x="471.88" y="40.09" width="7.42" height="3.34"/><rect class="cls-13" x="510.28" y="36.31" width="28.63" height="8.01"/><rect class="cls-13" x="503.62" y="44.32" width="41.58" height="10.27"/><rect class="cls-13" x="510.28" y="115.43" width="28.63" height="8.01"/><rect class="cls-13" x="503.62" y="105.37" width="41.58" height="10.06"/><rect class="cls-13" x="217.29" y="36.24" width="28.63" height="8.01"/><rect class="cls-13" x="210.63" y="44.26" width="41.58" height="10.27"/><rect class="cls-13" x="217.29" y="115.37" width="28.63" height="8.01"/><rect class="cls-13" x="210.63" y="105.31" width="41.58" height="10.06"/><polygon class="cls-7" points="25.54 50.62 25.54 60.58 34.23 60.85 35.29 50.39 25.54 50.62"/><path class="cls-7" d="M25.54,51.18H20.77a.57.57,0,0,0-.56.57v7.74a.57.57,0,0,0,.56.57h4.77Z"/><polygon class="cls-7" points="25.58 109.04 25.58 99.08 34.24 98.8 35.26 109.27 25.58 109.04"/><path class="cls-7" d="M25.58,108.47H20.82a.57.57,0,0,1-.57-.56v-7.74a.57.57,0,0,1,.57-.57h4.76Z"/></g><g id="SETER-3" data-name="SETER"><polygon class="cls-14" points="560.28 64.3 560.28 56.3 562.56 53.97 578.76 53.97 578.76 66.64 562.58 66.64 560.28 64.3"/><polygon class="cls-15" points="562.67 56.6 562.67 56.6 564.8 54.39 566.37 54.39 564.25 56.6 564.24 56.6 564.24 64.03 564.25 64.03 566.37 66.25 564.8 66.25 562.7 64.06 562.67 64.06 562.67 56.6"/><rect class="cls-16" x="560.66" y="57.22" width="1.85" height="6.19"/><polygon class="cls-14" points="560.29 51.19 560.29 43.19 562.57 40.87 578.77 40.87 578.77 53.53 562.59 53.53 560.29 51.19"/><polygon class="cls-15" points="562.68 43.5 562.68 43.5 564.8 41.28 566.38 41.28 564.26 43.5 564.25 43.5 564.25 50.93 564.26 50.93 566.38 53.14 564.8 53.14 562.7 50.95 562.68 50.95 562.68 43.5"/><rect class="cls-16" x="560.67" y="44.12" width="1.85" height="6.19"/><polygon class="cls-14" points="560.45 103.26 560.45 95.26 562.73 92.93 578.93 92.93 578.93 105.6 562.75 105.6 560.45 103.26"/><polygon class="cls-15" points="562.84 95.56 562.85 95.56 564.97 93.35 566.54 93.35 564.42 95.56 564.42 95.56 564.42 102.99 564.42 102.99 566.54 105.21 564.97 105.21 562.87 103.01 562.84 103.01 562.84 95.56"/><rect class="cls-16" x="560.83" y="96.18" width="1.85" height="6.19"/><polygon class="cls-14" points="560.45 90.15 560.45 82.16 562.73 79.83 578.93 79.83 578.93 92.49 562.75 92.49 560.45 90.15"/><polygon class="cls-15" points="562.84 82.46 562.84 82.46 564.97 80.25 566.54 80.25 564.42 82.46 564.41 82.46 564.41 89.89 564.42 89.89 566.54 92.1 564.97 92.1 562.86 89.91 562.84 89.91 562.84 82.46"/><rect class="cls-16" x="560.83" y="83.08" width="1.85" height="6.19"/><polygon class="cls-14" points="560.45 116.48 560.45 108.48 562.73 106.16 578.93 106.16 578.93 118.82 562.75 118.82 560.45 116.48"/><polygon class="cls-15" points="562.84 108.79 562.84 108.79 564.97 106.57 566.54 106.57 564.42 108.79 564.42 108.79 564.42 116.22 564.42 116.22 566.54 118.43 564.97 118.43 562.87 116.24 562.84 116.24 562.84 108.79"/><rect class="cls-16" x="560.83" y="109.41" width="1.85" height="6.19"/><polygon class="cls-14" points="583.36 64.3 583.36 56.3 585.64 53.97 601.84 53.97 601.84 66.64 585.66 66.64 583.36 64.3"/><polygon class="cls-15" points="585.75 56.6 585.75 56.6 587.88 54.39 589.45 54.39 587.33 56.6 587.33 56.6 587.33 64.03 587.33 64.03 589.45 66.25 587.88 66.25 585.78 64.06 585.75 64.06 585.75 56.6"/><rect class="cls-16" x="583.74" y="57.22" width="1.85" height="6.19"/><polygon class="cls-14" points="583.37 51.19 583.37 43.19 585.65 40.87 601.85 40.87 601.85 53.53 585.67 53.53 583.37 51.19"/><polygon class="cls-15" points="585.76 43.5 585.76 43.5 587.89 41.28 589.46 41.28 587.34 43.5 587.34 43.5 587.34 50.93 587.34 50.93 589.46 53.14 587.89 53.14 585.78 50.95 585.76 50.95 585.76 43.5"/><rect class="cls-16" x="583.75" y="44.12" width="1.85" height="6.19"/><polygon class="cls-14" points="583.53 103.26 583.53 95.26 585.81 92.93 602.01 92.93 602.01 105.6 585.83 105.6 583.53 103.26"/><polygon class="cls-15" points="585.92 95.56 585.92 95.56 588.05 93.35 589.62 93.35 587.5 95.56 587.5 95.56 587.5 102.99 587.5 102.99 589.62 105.21 588.05 105.21 585.95 103.01 585.92 103.01 585.92 95.56"/><rect class="cls-16" x="583.91" y="96.18" width="1.85" height="6.19"/><polygon class="cls-14" points="583.53 90.15 583.53 82.16 585.81 79.83 602.01 79.83 602.01 92.49 585.83 92.49 583.53 90.15"/><polygon class="cls-15" points="585.92 82.46 585.92 82.46 588.05 80.25 589.62 80.25 587.5 82.46 587.5 82.46 587.5 89.89 587.5 89.89 589.62 92.1 588.05 92.1 585.94 89.91 585.92 89.91 585.92 82.46"/><rect class="cls-16" x="583.91" y="83.08" width="1.85" height="6.19"/><polygon class="cls-14" points="583.53 116.48 583.53 108.48 585.81 106.16 602.01 106.16 602.01 118.82 585.83 118.82 583.53 116.48"/><polygon class="cls-15" points="585.92 108.79 585.92 108.79 588.05 106.57 589.62 106.57 587.5 108.79 587.5 108.79 587.5 116.22 587.5 116.22 589.62 118.43 588.05 118.43 585.95 116.24 585.92 116.24 585.92 108.79"/><rect class="cls-16" x="583.91" y="109.41" width="1.85" height="6.19"/><polygon class="cls-14" points="606.54 64.3 606.54 56.3 608.82 53.97 625.02 53.97 625.02 66.64 608.84 66.64 606.54 64.3"/><polygon class="cls-15" points="608.93 56.6 608.93 56.6 611.06 54.39 612.63 54.39 610.51 56.6 610.5 56.6 610.5 64.03 610.51 64.03 612.63 66.25 611.06 66.25 608.95 64.06 608.93 64.06 608.93 56.6"/><rect class="cls-16" x="606.92" y="57.22" width="1.85" height="6.19"/><polygon class="cls-14" points="606.55 51.19 606.55 43.19 608.83 40.87 625.03 40.87 625.03 53.53 608.85 53.53 606.55 51.19"/><polygon class="cls-15" points="608.94 43.5 608.94 43.5 611.06 41.28 612.64 41.28 610.52 43.5 610.51 43.5 610.51 50.93 610.52 50.93 612.64 53.14 611.06 53.14 608.96 50.95 608.94 50.95 608.94 43.5"/><rect class="cls-16" x="606.93" y="44.12" width="1.85" height="6.19"/><polygon class="cls-14" points="606.71 103.26 606.71 95.26 608.99 92.93 625.19 92.93 625.19 105.6 609.01 105.6 606.71 103.26"/><polygon class="cls-15" points="609.1 95.56 609.1 95.56 611.23 93.35 612.8 93.35 610.68 95.56 610.67 95.56 610.67 102.99 610.68 102.99 612.8 105.21 611.23 105.21 609.13 103.01 609.1 103.01 609.1 95.56"/><rect class="cls-16" x="607.09" y="96.18" width="1.85" height="6.19"/><polygon class="cls-14" points="606.71 90.15 606.71 82.16 608.99 79.83 625.19 79.83 625.19 92.49 609 92.49 606.71 90.15"/><polygon class="cls-15" points="609.1 82.46 609.1 82.46 611.22 80.25 612.8 80.25 610.68 82.46 610.67 82.46 610.67 89.89 610.68 89.89 612.8 92.1 611.22 92.1 609.12 89.91 609.1 89.91 609.1 82.46"/><rect class="cls-16" x="607.08" y="83.08" width="1.85" height="6.19"/><polygon class="cls-14" points="606.71 116.48 606.71 108.48 608.99 106.16 625.19 106.16 625.19 118.82 609.01 118.82 606.71 116.48"/><polygon class="cls-15" points="609.1 108.79 609.1 108.79 611.23 106.57 612.8 106.57 610.68 108.79 610.67 108.79 610.67 116.22 610.68 116.22 612.8 118.43 611.23 118.43 609.12 116.24 609.1 116.24 609.1 108.79"/><rect class="cls-16" x="607.09" y="109.41" width="1.85" height="6.19"/><polygon class="cls-14" points="629.01 64.3 629.01 56.3 631.29 53.97 647.49 53.97 647.49 66.64 631.31 66.64 629.01 64.3"/><polygon class="cls-15" points="631.4 56.6 631.4 56.6 633.53 54.39 635.1 54.39 632.98 56.6 632.98 56.6 632.98 64.03 632.98 64.03 635.1 66.25 633.53 66.25 631.42 64.06 631.4 64.06 631.4 56.6"/><rect class="cls-16" x="629.39" y="57.22" width="1.85" height="6.19"/><polygon class="cls-14" points="629.02 51.19 629.02 43.19 631.3 40.87 647.5 40.87 647.5 53.53 631.32 53.53 629.02 51.19"/><polygon class="cls-15" points="631.4 43.5 631.41 43.5 633.54 41.28 635.11 41.28 632.99 43.5 632.98 43.5 632.98 50.93 632.99 50.93 635.11 53.14 633.54 53.14 631.43 50.95 631.4 50.95 631.4 43.5"/><rect class="cls-16" x="629.4" y="44.12" width="1.85" height="6.19"/><polygon class="cls-14" points="629.18 103.26 629.18 95.26 631.46 92.93 647.66 92.93 647.66 105.6 631.48 105.6 629.18 103.26"/><polygon class="cls-15" points="631.57 95.56 631.57 95.56 633.7 93.35 635.27 93.35 633.15 95.56 633.15 95.56 633.15 102.99 633.15 102.99 635.27 105.21 633.7 105.21 631.6 103.01 631.57 103.01 631.57 95.56"/><rect class="cls-16" x="629.56" y="96.18" width="1.85" height="6.19"/><polygon class="cls-14" points="629.18 90.15 629.18 82.16 631.46 79.83 647.66 79.83 647.66 92.49 631.48 92.49 629.18 90.15"/><polygon class="cls-15" points="631.57 82.46 631.57 82.46 633.7 80.25 635.27 80.25 633.15 82.46 633.14 82.46 633.14 89.89 633.15 89.89 635.27 92.1 633.7 92.1 631.59 89.91 631.57 89.91 631.57 82.46"/><rect class="cls-16" x="629.56" y="83.08" width="1.85" height="6.19"/><polygon class="cls-14" points="629.18 116.48 629.18 108.48 631.46 106.16 647.66 106.16 647.66 118.82 631.48 118.82 629.18 116.48"/><polygon class="cls-15" points="631.57 108.79 631.57 108.79 633.7 106.57 635.27 106.57 633.15 108.79 633.14 108.79 633.14 116.22 633.15 116.22 635.27 118.43 633.7 118.43 631.59 116.24 631.57 116.24 631.57 108.79"/><rect class="cls-16" x="629.56" y="109.41" width="1.85" height="6.19"/><polygon class="cls-14" points="650.79 64.3 650.79 56.3 653.08 53.97 669.27 53.97 669.27 66.64 653.09 66.64 650.79 64.3"/><polygon class="cls-15" points="653.18 56.6 653.19 56.6 655.31 54.39 656.88 54.39 654.76 56.6 654.76 56.6 654.76 64.03 654.76 64.03 656.88 66.25 655.31 66.25 653.21 64.06 653.18 64.06 653.18 56.6"/><rect class="cls-16" x="651.17" y="57.22" width="1.85" height="6.19"/><polygon class="cls-14" points="650.8 51.19 650.8 43.19 653.08 40.87 669.28 40.87 669.28 53.53 653.1 53.53 650.8 51.19"/><polygon class="cls-15" points="653.19 43.5 653.19 43.5 655.32 41.28 656.89 41.28 654.77 43.5 654.77 43.5 654.77 50.93 654.77 50.93 656.89 53.14 655.32 53.14 653.21 50.95 653.19 50.95 653.19 43.5"/><rect class="cls-16" x="651.18" y="44.12" width="1.85" height="6.19"/><polygon class="cls-14" points="196.73 64.3 196.73 56.3 194.45 53.97 178.25 53.97 178.25 66.64 194.43 66.64 196.73 64.3"/><polygon class="cls-15" points="194.34 56.6 194.34 56.6 192.21 54.39 190.64 54.39 192.76 56.6 192.76 56.6 192.76 64.03 192.76 64.03 190.64 66.25 192.21 66.25 194.31 64.06 194.34 64.06 194.34 56.6"/><rect class="cls-16" x="194.5" y="57.22" width="1.85" height="6.19"/><polygon class="cls-14" points="196.72 51.19 196.72 43.19 194.44 40.87 178.24 40.87 178.24 53.53 194.42 53.53 196.72 51.19"/><polygon class="cls-15" points="194.33 43.5 194.33 43.5 192.2 41.28 190.63 41.28 192.75 43.5 192.76 43.5 192.76 50.93 192.75 50.93 190.63 53.14 192.2 53.14 194.31 50.95 194.33 50.95 194.33 43.5"/><rect class="cls-16" x="194.49" y="44.12" width="1.85" height="6.19"/><polygon class="cls-14" points="196.56 103.26 196.56 95.26 194.28 92.93 178.08 92.93 178.08 105.6 194.26 105.6 196.56 103.26"/><polygon class="cls-15" points="194.17 95.56 194.16 95.56 192.04 93.35 190.47 93.35 192.59 95.56 192.59 95.56 192.59 102.99 192.59 102.99 190.47 105.21 192.04 105.21 194.14 103.01 194.17 103.01 194.17 95.56"/><rect class="cls-16" x="194.33" y="96.18" width="1.85" height="6.19"/><polygon class="cls-14" points="196.56 90.15 196.56 82.16 194.28 79.83 178.08 79.83 178.08 92.49 194.26 92.49 196.56 90.15"/><polygon class="cls-15" points="194.17 82.46 194.17 82.46 192.04 80.25 190.47 80.25 192.59 82.46 192.6 82.46 192.6 89.89 192.59 89.89 190.47 92.1 192.04 92.1 194.15 89.91 194.17 89.91 194.17 82.46"/><rect class="cls-16" x="194.33" y="83.08" width="1.85" height="6.19"/><polygon class="cls-14" points="196.56 116.48 196.56 108.48 194.28 106.16 178.08 106.16 178.08 118.82 194.26 118.82 196.56 116.48"/><polygon class="cls-15" points="194.17 108.79 194.17 108.79 192.04 106.57 190.47 106.57 192.59 108.79 192.59 108.79 192.59 116.22 192.59 116.22 190.47 118.43 192.04 118.43 194.15 116.24 194.17 116.24 194.17 108.79"/><rect class="cls-16" x="194.33" y="109.41" width="1.85" height="6.19"/><polygon class="cls-14" points="173.65 64.3 173.65 56.3 171.37 53.97 155.17 53.97 155.17 66.64 171.35 66.64 173.65 64.3"/><polygon class="cls-15" points="171.26 56.6 171.26 56.6 169.13 54.39 167.56 54.39 169.68 56.6 169.68 56.6 169.68 64.03 169.68 64.03 167.56 66.25 169.13 66.25 171.24 64.06 171.26 64.06 171.26 56.6"/><rect class="cls-16" x="171.42" y="57.22" width="1.85" height="6.19"/><polygon class="cls-14" points="173.64 51.19 173.64 43.19 171.36 40.87 155.16 40.87 155.16 53.53 171.34 53.53 173.64 51.19"/><polygon class="cls-15" points="171.25 43.5 171.25 43.5 169.12 41.28 167.55 41.28 169.67 43.5 169.68 43.5 169.68 50.93 169.67 50.93 167.55 53.14 169.12 53.14 171.23 50.95 171.25 50.95 171.25 43.5"/><rect class="cls-16" x="171.41" y="44.12" width="1.85" height="6.19"/><polygon class="cls-14" points="173.48 103.26 173.48 95.26 171.2 92.93 155 92.93 155 105.6 171.18 105.6 173.48 103.26"/><polygon class="cls-15" points="171.09 95.56 171.09 95.56 168.96 93.35 167.39 93.35 169.51 95.56 169.51 95.56 169.51 102.99 169.51 102.99 167.39 105.21 168.96 105.21 171.06 103.01 171.09 103.01 171.09 95.56"/><rect class="cls-16" x="171.25" y="96.18" width="1.85" height="6.19"/><polygon class="cls-14" points="173.48 90.15 173.48 82.16 171.2 79.83 155 79.83 155 92.49 171.18 92.49 173.48 90.15"/><polygon class="cls-15" points="171.09 82.46 171.09 82.46 168.96 80.25 167.39 80.25 169.51 82.46 169.52 82.46 169.52 89.89 169.51 89.89 167.39 92.1 168.96 92.1 171.07 89.91 171.09 89.91 171.09 82.46"/><rect class="cls-16" x="171.25" y="83.08" width="1.85" height="6.19"/><polygon class="cls-14" points="173.48 116.48 173.48 108.48 171.2 106.16 155 106.16 155 118.82 171.18 118.82 173.48 116.48"/><polygon class="cls-15" points="171.09 108.79 171.09 108.79 168.96 106.57 167.39 106.57 169.51 108.79 169.51 108.79 169.51 116.22 169.51 116.22 167.39 118.43 168.96 118.43 171.06 116.24 171.09 116.24 171.09 108.79"/><rect class="cls-16" x="171.25" y="109.41" width="1.85" height="6.19"/><polygon class="cls-14" points="150.47 64.3 150.47 56.3 148.19 53.97 132 53.97 132 66.64 148.17 66.64 150.47 64.3"/><polygon class="cls-15" points="148.08 56.6 148.08 56.6 145.95 54.39 144.38 54.39 146.5 56.6 146.51 56.6 146.51 64.03 146.5 64.03 144.38 66.25 145.95 66.25 148.06 64.06 148.08 64.06 148.08 56.6"/><rect class="cls-16" x="148.24" y="57.22" width="1.85" height="6.19"/><polygon class="cls-14" points="150.46 51.19 150.46 43.19 148.18 40.87 131.99 40.87 131.99 53.53 148.17 53.53 150.46 51.19"/><polygon class="cls-15" points="148.08 43.5 148.07 43.5 145.95 41.28 144.37 41.28 146.49 43.5 146.5 43.5 146.5 50.93 146.49 50.93 144.37 53.14 145.95 53.14 148.05 50.95 148.08 50.95 148.08 43.5"/><rect class="cls-16" x="148.23" y="44.12" width="1.85" height="6.19"/><polygon class="cls-14" points="150.3 103.26 150.3 95.26 148.02 92.93 131.82 92.93 131.82 105.6 148 105.6 150.3 103.26"/><polygon class="cls-15" points="147.91 95.56 147.91 95.56 145.78 93.35 144.21 93.35 146.33 95.56 146.34 95.56 146.34 102.99 146.33 102.99 144.21 105.21 145.78 105.21 147.89 103.01 147.91 103.01 147.91 95.56"/><rect class="cls-16" x="148.07" y="96.18" width="1.85" height="6.19"/><polygon class="cls-14" points="150.3 90.15 150.3 82.16 148.02 79.83 131.82 79.83 131.82 92.49 148 92.49 150.3 90.15"/><polygon class="cls-15" points="147.92 82.46 147.91 82.46 145.79 80.25 144.21 80.25 146.33 82.46 146.34 82.46 146.34 89.89 146.33 89.89 144.21 92.1 145.79 92.1 147.89 89.91 147.92 89.91 147.92 82.46"/><rect class="cls-16" x="148.07" y="83.08" width="1.85" height="6.19"/><polygon class="cls-14" points="150.3 116.48 150.3 108.48 148.02 106.16 131.82 106.16 131.82 118.82 148 118.82 150.3 116.48"/><polygon class="cls-15" points="147.91 108.79 147.91 108.79 145.78 106.57 144.21 106.57 146.33 108.79 146.34 108.79 146.34 116.22 146.33 116.22 144.21 118.43 145.78 118.43 147.89 116.24 147.91 116.24 147.91 108.79"/><rect class="cls-16" x="148.07" y="109.41" width="1.85" height="6.19"/><polygon class="cls-14" points="128 64.3 128 56.3 125.72 53.97 109.53 53.97 109.53 66.64 125.7 66.64 128 64.3"/><polygon class="cls-15" points="125.61 56.6 125.61 56.6 123.48 54.39 121.91 54.39 124.03 56.6 124.04 56.6 124.04 64.03 124.03 64.03 121.91 66.25 123.48 66.25 125.59 64.06 125.61 64.06 125.61 56.6"/><rect class="cls-16" x="125.77" y="57.22" width="1.85" height="6.19"/><polygon class="cls-14" points="127.99 51.19 127.99 43.19 125.71 40.87 109.52 40.87 109.52 53.53 125.7 53.53 127.99 51.19"/><polygon class="cls-15" points="125.61 43.5 125.6 43.5 123.48 41.28 121.9 41.28 124.02 43.5 124.03 43.5 124.03 50.93 124.02 50.93 121.9 53.14 123.48 53.14 125.58 50.95 125.61 50.95 125.61 43.5"/><rect class="cls-16" x="125.76" y="44.12" width="1.85" height="6.19"/><polygon class="cls-14" points="127.83 103.26 127.83 95.26 125.55 92.93 109.35 92.93 109.35 105.6 125.53 105.6 127.83 103.26"/><polygon class="cls-15" points="125.44 95.56 125.44 95.56 123.31 93.35 121.74 93.35 123.86 95.56 123.87 95.56 123.87 102.99 123.86 102.99 121.74 105.21 123.31 105.21 125.42 103.01 125.44 103.01 125.44 95.56"/><rect class="cls-16" x="125.6" y="96.18" width="1.85" height="6.19"/><polygon class="cls-14" points="127.83 90.15 127.83 82.16 125.55 79.83 109.36 79.83 109.36 92.49 125.54 92.49 127.83 90.15"/><polygon class="cls-15" points="125.45 82.46 125.44 82.46 123.32 80.25 121.74 80.25 123.86 82.46 123.87 82.46 123.87 89.89 123.86 89.89 121.74 92.1 123.32 92.1 125.42 89.91 125.45 89.91 125.45 82.46"/><rect class="cls-16" x="125.6" y="83.08" width="1.85" height="6.19"/><polygon class="cls-14" points="127.83 116.48 127.83 108.48 125.55 106.16 109.36 106.16 109.36 118.82 125.53 118.82 127.83 116.48"/><polygon class="cls-15" points="125.44 108.79 125.44 108.79 123.31 106.57 121.74 106.57 123.86 108.79 123.87 108.79 123.87 116.22 123.86 116.22 121.74 118.43 123.31 118.43 125.42 116.24 125.44 116.24 125.44 108.79"/><rect class="cls-16" x="125.6" y="109.41" width="1.85" height="6.19"/><polygon class="cls-14" points="468.85 95.39 468.85 103.39 466.57 105.71 450.37 105.71 450.37 93.05 466.55 93.05 468.85 95.39"/><polygon class="cls-15" points="466.46 103.08 466.46 103.08 464.33 105.3 462.76 105.3 464.88 103.08 464.88 103.08 464.88 95.65 464.88 95.65 462.76 93.44 464.33 93.44 466.44 95.63 466.46 95.63 466.46 103.08"/><rect class="cls-16" x="466.62" y="96.27" width="1.85" height="6.19"/><polygon class="cls-14" points="468.84 108.49 468.84 116.49 466.56 118.82 450.36 118.82 450.36 106.15 466.54 106.15 468.84 108.49"/><polygon class="cls-15" points="466.45 116.19 466.45 116.19 464.33 118.4 462.75 118.4 464.87 116.19 464.88 116.19 464.88 108.76 464.87 108.76 462.75 106.54 464.33 106.54 466.43 108.74 466.45 108.74 466.45 116.19"/><rect class="cls-16" x="466.61" y="109.37" width="1.85" height="6.19"/><polygon class="cls-14" points="468.68 56.43 468.68 64.43 466.4 66.75 450.2 66.75 450.2 54.09 466.38 54.09 468.68 56.43"/><polygon class="cls-15" points="466.29 64.12 466.28 64.12 464.16 66.34 462.59 66.34 464.71 64.12 464.71 64.12 464.71 56.69 464.71 56.69 462.59 54.48 464.16 54.48 466.26 56.67 466.29 56.67 466.29 64.12"/><rect class="cls-16" x="466.45" y="57.31" width="1.85" height="6.19"/><polygon class="cls-14" points="468.68 69.53 468.68 77.53 466.4 79.86 450.2 79.86 450.2 67.19 466.38 67.19 468.68 69.53"/><polygon class="cls-15" points="466.29 77.22 466.29 77.22 464.16 79.44 462.59 79.44 464.71 77.22 464.72 77.22 464.72 69.8 464.71 69.8 462.59 67.58 464.16 67.58 466.27 69.78 466.29 69.78 466.29 77.22"/><rect class="cls-16" x="466.45" y="70.41" width="1.85" height="6.19"/><polygon class="cls-14" points="468.68 43.2 468.68 51.2 466.4 53.53 450.2 53.53 450.2 40.87 466.38 40.87 468.68 43.2"/><polygon class="cls-15" points="466.29 50.9 466.29 50.9 464.16 53.11 462.59 53.11 464.71 50.9 464.72 50.9 464.72 43.47 464.71 43.47 462.59 41.26 464.16 41.26 466.26 43.45 466.29 43.45 466.29 50.9"/><rect class="cls-16" x="466.45" y="44.09" width="1.85" height="6.19"/><polygon class="cls-14" points="378.63 95.39 378.63 103.39 380.91 105.71 397.11 105.71 397.11 93.05 380.93 93.05 378.63 95.39"/><polygon class="cls-15" points="381.02 103.08 381.03 103.08 383.15 105.3 384.73 105.3 382.6 103.08 382.6 103.08 382.6 95.65 382.6 95.65 384.73 93.44 383.15 93.44 381.05 95.63 381.02 95.63 381.02 103.08"/><rect class="cls-16" x="379.01" y="96.27" width="1.85" height="6.19"/><polygon class="cls-14" points="378.64 108.49 378.64 116.49 380.92 118.82 397.12 118.82 397.12 106.15 380.94 106.15 378.64 108.49"/><polygon class="cls-15" points="381.03 116.19 381.03 116.19 383.16 118.4 384.73 118.4 382.61 116.19 382.6 116.19 382.6 108.76 382.61 108.76 384.73 106.54 383.16 106.54 381.05 108.74 381.03 108.74 381.03 116.19"/><rect class="cls-16" x="379.02" y="109.37" width="1.85" height="6.19"/><polygon class="cls-14" points="445.6 56.43 445.6 64.43 443.32 66.75 427.12 66.75 427.12 54.09 443.3 54.09 445.6 56.43"/><polygon class="cls-15" points="443.21 64.12 443.2 64.12 441.08 66.34 439.51 66.34 441.63 64.12 441.63 64.12 441.63 56.69 441.63 56.69 439.51 54.48 441.08 54.48 443.18 56.67 443.21 56.67 443.21 64.12"/><rect class="cls-16" x="443.37" y="57.31" width="1.86" height="6.19"/><polygon class="cls-14" points="445.6 69.53 445.6 77.53 443.32 79.86 427.12 79.86 427.12 67.19 443.3 67.19 445.6 69.53"/><polygon class="cls-15" points="443.21 77.22 443.21 77.22 441.08 79.44 439.51 79.44 441.63 77.22 441.64 77.22 441.64 69.8 441.63 69.8 439.51 67.58 441.08 67.58 443.19 69.78 443.21 69.78 443.21 77.22"/><rect class="cls-16" x="443.37" y="70.41" width="1.85" height="6.19"/><polygon class="cls-14" points="445.6 43.2 445.6 51.2 443.32 53.53 427.12 53.53 427.12 40.87 443.3 40.87 445.6 43.2"/><polygon class="cls-15" points="443.21 50.9 443.2 50.9 441.08 53.11 439.51 53.11 441.63 50.9 441.63 50.9 441.63 43.47 441.63 43.47 439.51 41.26 441.08 41.26 443.18 43.45 443.21 43.45 443.21 50.9"/><rect class="cls-16" x="443.37" y="44.09" width="1.85" height="6.19"/><polygon class="cls-14" points="401.81 95.39 401.81 103.39 404.09 105.71 420.29 105.71 420.29 93.05 404.11 93.05 401.81 95.39"/><polygon class="cls-15" points="404.2 103.08 404.2 103.08 406.33 105.3 407.9 105.3 405.78 103.08 405.78 103.08 405.78 95.65 405.78 95.65 407.9 93.44 406.33 93.44 404.22 95.63 404.2 95.63 404.2 103.08"/><rect class="cls-16" x="402.19" y="96.27" width="1.85" height="6.19"/><polygon class="cls-14" points="401.82 108.49 401.82 116.49 404.1 118.82 420.3 118.82 420.3 106.15 404.12 106.15 401.82 108.49"/><polygon class="cls-15" points="404.2 116.19 404.21 116.19 406.33 118.4 407.91 118.4 405.79 116.19 405.78 116.19 405.78 108.76 405.79 108.76 407.91 106.54 406.33 106.54 404.23 108.74 404.2 108.74 404.2 116.19"/><rect class="cls-16" x="402.2" y="109.37" width="1.85" height="6.19"/><polygon class="cls-14" points="422.42 56.43 422.42 64.43 420.14 66.75 403.94 66.75 403.94 54.09 420.12 54.09 422.42 56.43"/><polygon class="cls-15" points="420.03 64.12 420.03 64.12 417.9 66.34 416.33 66.34 418.45 64.12 418.45 64.12 418.45 56.69 418.45 56.69 416.33 54.48 417.9 54.48 420.01 56.67 420.03 56.67 420.03 64.12"/><rect class="cls-16" x="420.19" y="57.31" width="1.85" height="6.19"/><polygon class="cls-14" points="422.42 69.53 422.42 77.53 420.14 79.86 403.94 79.86 403.94 67.19 420.12 67.19 422.42 69.53"/><polygon class="cls-15" points="420.04 77.22 420.03 77.22 417.9 79.44 416.33 79.44 418.45 77.22 418.46 77.22 418.46 69.8 418.45 69.8 416.33 67.58 417.9 67.58 420.01 69.78 420.04 69.78 420.04 77.22"/><rect class="cls-16" x="420.19" y="70.41" width="1.85" height="6.19"/><polygon class="cls-14" points="422.42 43.2 422.42 51.2 420.14 53.53 403.94 53.53 403.94 40.87 420.12 40.87 422.42 43.2"/><polygon class="cls-15" points="420.03 50.9 420.03 50.9 417.9 53.11 416.33 53.11 418.45 50.9 418.46 50.9 418.46 43.47 418.45 43.47 416.33 41.26 417.9 41.26 420.01 43.45 420.03 43.45 420.03 50.9"/><rect class="cls-16" x="420.19" y="44.09" width="1.85" height="6.19"/><polygon class="cls-14" points="424.28 95.39 424.28 103.39 426.56 105.71 442.76 105.71 442.76 93.05 426.58 93.05 424.28 95.39"/><polygon class="cls-15" points="426.67 103.08 426.68 103.08 428.8 105.3 430.37 105.3 428.25 103.08 428.25 103.08 428.25 95.65 428.25 95.65 430.37 93.44 428.8 93.44 426.7 95.63 426.67 95.63 426.67 103.08"/><rect class="cls-16" x="424.66" y="96.27" width="1.85" height="6.19"/><polygon class="cls-14" points="424.29 108.49 424.29 116.49 426.57 118.82 442.77 118.82 442.77 106.15 426.59 106.15 424.29 108.49"/><polygon class="cls-15" points="426.68 116.19 426.68 116.19 428.81 118.4 430.38 118.4 428.26 116.19 428.25 116.19 428.25 108.76 428.26 108.76 430.38 106.54 428.81 106.54 426.7 108.74 426.68 108.74 426.68 116.19"/><rect class="cls-16" x="424.67" y="109.37" width="1.85" height="6.19"/><polygon class="cls-14" points="399.95 56.43 399.95 64.43 397.67 66.75 381.47 66.75 381.47 54.09 397.65 54.09 399.95 56.43"/><polygon class="cls-15" points="397.56 64.12 397.56 64.12 395.43 66.34 393.86 66.34 395.98 64.12 395.98 64.12 395.98 56.69 395.98 56.69 393.86 54.48 395.43 54.48 397.53 56.67 397.56 56.67 397.56 64.12"/><rect class="cls-16" x="397.72" y="57.31" width="1.85" height="6.19"/><polygon class="cls-14" points="399.95 69.53 399.95 77.53 397.67 79.86 381.47 79.86 381.47 67.19 397.65 67.19 399.95 69.53"/><polygon class="cls-15" points="397.56 77.22 397.56 77.22 395.43 79.44 393.86 79.44 395.98 77.22 395.99 77.22 395.99 69.8 395.98 69.8 393.86 67.58 395.43 67.58 397.54 69.78 397.56 69.78 397.56 77.22"/><rect class="cls-16" x="397.72" y="70.41" width="1.85" height="6.19"/><polygon class="cls-14" points="399.95 43.2 399.95 51.2 397.67 53.53 381.47 53.53 381.47 40.87 397.65 40.87 399.95 43.2"/><polygon class="cls-15" points="397.56 50.9 397.56 50.9 395.43 53.11 393.86 53.11 395.98 50.9 395.99 50.9 395.99 43.47 395.98 43.47 393.86 41.26 395.43 41.26 397.54 43.45 397.56 43.45 397.56 50.9"/><rect class="cls-16" x="397.72" y="44.09" width="1.85" height="6.19"/><polygon class="cls-14" points="309.89 95.91 309.89 103.91 312.17 106.24 328.37 106.24 328.37 93.57 312.19 93.57 309.89 95.91"/><polygon class="cls-15" points="312.28 103.61 312.29 103.61 314.41 105.82 315.99 105.82 313.86 103.61 313.86 103.61 313.86 96.17 313.86 96.17 315.99 93.96 314.41 93.96 312.31 96.15 312.28 96.15 312.28 103.61"/><rect class="cls-16" x="310.27" y="96.79" width="1.85" height="6.19"/><polygon class="cls-14" points="309.9 109.02 309.9 117.02 312.18 119.34 328.38 119.34 328.38 106.67 312.2 106.67 309.9 109.02"/><polygon class="cls-15" points="312.29 116.71 312.29 116.71 314.42 118.92 315.99 118.92 313.87 116.71 313.87 116.71 313.87 109.28 313.87 109.28 315.99 107.07 314.42 107.07 312.31 109.26 312.29 109.26 312.29 116.71"/><rect class="cls-16" x="310.28" y="109.9" width="1.85" height="6.19"/><polygon class="cls-14" points="376.86 56.95 376.86 64.95 374.58 67.28 358.38 67.28 358.38 54.61 374.56 54.61 376.86 56.95"/><polygon class="cls-15" points="374.47 64.65 374.47 64.65 372.34 66.86 370.77 66.86 372.89 64.65 372.9 64.65 372.9 57.22 372.89 57.22 370.77 55 372.34 55 374.45 57.2 374.47 57.2 374.47 64.65"/><rect class="cls-16" x="374.63" y="57.83" width="1.85" height="6.19"/><polygon class="cls-14" points="376.86 70.06 376.86 78.05 374.58 80.38 358.38 80.38 358.38 67.72 374.56 67.72 376.86 70.06"/><polygon class="cls-15" points="374.48 77.75 374.47 77.75 372.35 79.96 370.77 79.96 372.89 77.75 372.9 77.75 372.9 70.32 372.89 70.32 370.77 68.11 372.35 68.11 374.45 70.3 374.48 70.3 374.48 77.75"/><rect class="cls-16" x="374.63" y="70.93" width="1.85" height="6.19"/><polygon class="cls-14" points="376.86 43.73 376.86 51.73 374.58 54.05 358.38 54.05 358.38 41.39 374.56 41.39 376.86 43.73"/><polygon class="cls-15" points="374.47 51.42 374.47 51.42 372.34 53.63 370.77 53.63 372.89 51.42 372.9 51.42 372.9 43.99 372.89 43.99 370.77 41.78 372.34 41.78 374.45 43.97 374.47 43.97 374.47 51.42"/><rect class="cls-16" x="374.63" y="44.61" width="1.85" height="6.19"/><polygon class="cls-14" points="333.07 95.91 333.07 103.91 335.35 106.24 351.55 106.24 351.55 93.57 335.37 93.57 333.07 95.91"/><polygon class="cls-15" points="335.46 103.61 335.46 103.61 337.59 105.82 339.17 105.82 337.04 103.61 337.04 103.61 337.04 96.17 337.04 96.17 339.17 93.96 337.59 93.96 335.49 96.15 335.46 96.15 335.46 103.61"/><rect class="cls-16" x="333.45" y="96.79" width="1.85" height="6.19"/><polygon class="cls-14" points="333.08 109.02 333.08 117.02 335.36 119.34 351.56 119.34 351.56 106.67 335.38 106.67 333.08 109.02"/><polygon class="cls-15" points="335.47 116.71 335.47 116.71 337.6 118.92 339.17 118.92 337.05 116.71 337.04 116.71 337.04 109.28 337.05 109.28 339.17 107.07 337.6 107.07 335.49 109.26 335.47 109.26 335.47 116.71"/><rect class="cls-16" x="333.46" y="109.9" width="1.85" height="6.19"/><polygon class="cls-14" points="353.68 56.95 353.68 64.95 351.4 67.28 335.2 67.28 335.2 54.61 351.38 54.61 353.68 56.95"/><polygon class="cls-15" points="351.29 64.65 351.29 64.65 349.16 66.86 347.59 66.86 349.71 64.65 349.72 64.65 349.72 57.22 349.71 57.22 347.59 55 349.16 55 351.27 57.2 351.29 57.2 351.29 64.65"/><rect class="cls-16" x="351.45" y="57.83" width="1.85" height="6.19"/><polygon class="cls-14" points="353.68 70.06 353.68 78.05 351.4 80.38 335.2 80.38 335.2 67.72 351.39 67.72 353.68 70.06"/><polygon class="cls-15" points="351.3 77.75 351.29 77.75 349.17 79.96 347.59 79.96 349.71 77.75 349.72 77.75 349.72 70.32 349.71 70.32 347.59 68.11 349.17 68.11 351.27 70.3 351.3 70.3 351.3 77.75"/><rect class="cls-16" x="351.45" y="70.93" width="1.85" height="6.19"/><polygon class="cls-14" points="353.68 43.73 353.68 51.73 351.4 54.05 335.2 54.05 335.2 41.39 351.38 41.39 353.68 43.73"/><polygon class="cls-15" points="351.3 51.42 351.29 51.42 349.16 53.63 347.59 53.63 349.71 51.42 349.72 51.42 349.72 43.99 349.71 43.99 347.59 41.78 349.16 41.78 351.27 43.97 351.3 43.97 351.3 51.42"/><rect class="cls-16" x="351.45" y="44.61" width="1.85" height="6.19"/><polygon class="cls-14" points="355.54 95.91 355.54 103.91 357.82 106.24 374.02 106.24 374.02 93.57 357.84 93.57 355.54 95.91"/><polygon class="cls-15" points="357.93 103.61 357.94 103.61 360.06 105.82 361.64 105.82 359.51 103.61 359.51 103.61 359.51 96.17 359.51 96.17 361.64 93.96 360.06 93.96 357.96 96.15 357.93 96.15 357.93 103.61"/><rect class="cls-16" x="355.92" y="96.79" width="1.85" height="6.19"/><polygon class="cls-14" points="355.55 109.02 355.55 117.02 357.83 119.34 374.03 119.34 374.03 106.67 357.85 106.67 355.55 109.02"/><polygon class="cls-15" points="357.94 116.71 357.94 116.71 360.07 118.92 361.64 118.92 359.52 116.71 359.52 116.71 359.52 109.28 359.52 109.28 361.64 107.07 360.07 107.07 357.96 109.26 357.94 109.26 357.94 116.71"/><rect class="cls-16" x="355.93" y="109.9" width="1.85" height="6.19"/><polygon class="cls-14" points="331.21 56.95 331.21 64.95 328.93 67.28 312.73 67.28 312.73 54.61 328.91 54.61 331.21 56.95"/><polygon class="cls-15" points="328.82 64.65 328.82 64.65 326.69 66.86 325.12 66.86 327.24 64.65 327.25 64.65 327.25 57.22 327.24 57.22 325.12 55 326.69 55 328.8 57.2 328.82 57.2 328.82 64.65"/><rect class="cls-16" x="328.98" y="57.83" width="1.85" height="6.19"/><polygon class="cls-14" points="331.21 70.06 331.21 78.05 328.93 80.38 312.73 80.38 312.73 67.72 328.91 67.72 331.21 70.06"/><polygon class="cls-15" points="328.83 77.75 328.82 77.75 326.69 79.96 325.12 79.96 327.24 77.75 327.25 77.75 327.25 70.32 327.24 70.32 325.12 68.11 326.69 68.11 328.8 70.3 328.83 70.3 328.83 77.75"/><rect class="cls-16" x="328.98" y="70.93" width="1.85" height="6.19"/><polygon class="cls-14" points="331.21 43.73 331.21 51.73 328.93 54.05 312.73 54.05 312.73 41.39 328.91 41.39 331.21 43.73"/><polygon class="cls-15" points="328.82 51.42 328.82 51.42 326.69 53.63 325.12 53.63 327.24 51.42 327.25 51.42 327.25 43.99 327.24 43.99 325.12 41.78 326.69 41.78 328.8 43.97 328.82 43.97 328.82 51.42"/><rect class="cls-16" x="328.98" y="44.61" width="1.85" height="6.19"/><polygon class="cls-14" points="287.31 95.39 287.31 103.39 289.59 105.71 305.79 105.71 305.79 93.05 289.61 93.05 287.31 95.39"/><polygon class="cls-15" points="289.7 103.08 289.7 103.08 291.83 105.3 293.4 105.3 291.28 103.08 291.27 103.08 291.27 95.65 291.28 95.65 293.4 93.44 291.83 93.44 289.72 95.63 289.7 95.63 289.7 103.08"/><rect class="cls-16" x="287.69" y="96.27" width="1.85" height="6.19"/><polygon class="cls-14" points="287.32 108.49 287.32 116.5 289.6 118.82 305.8 118.82 305.8 106.15 289.61 106.15 287.32 108.49"/><polygon class="cls-15" points="289.7 116.19 289.71 116.19 291.83 118.4 293.41 118.4 291.29 116.19 291.28 116.19 291.28 108.76 291.29 108.76 293.41 106.54 291.83 106.54 289.73 108.74 289.7 108.74 289.7 116.19"/><rect class="cls-16" x="287.69" y="109.37" width="1.85" height="6.19"/><polygon class="cls-14" points="308.62 56.43 308.62 64.43 306.34 66.75 290.15 66.75 290.15 54.09 306.32 54.09 308.62 56.43"/><polygon class="cls-15" points="306.24 64.12 306.23 64.12 304.11 66.34 302.53 66.34 304.65 64.12 304.66 64.12 304.66 56.69 304.65 56.69 302.53 54.48 304.11 54.48 306.21 56.67 306.24 56.67 306.24 64.12"/><rect class="cls-16" x="306.39" y="57.31" width="1.85" height="6.19"/><polygon class="cls-14" points="308.62 69.53 308.62 77.53 306.35 79.86 290.15 79.86 290.15 67.19 306.33 67.19 308.62 69.53"/><polygon class="cls-15" points="306.24 77.23 306.23 77.23 304.11 79.44 302.53 79.44 304.66 77.23 304.66 77.23 304.66 69.8 304.66 69.8 302.53 67.58 304.11 67.58 306.21 69.78 306.24 69.78 306.24 77.23"/><rect class="cls-16" x="306.4" y="70.41" width="1.85" height="6.19"/><polygon class="cls-14" points="308.62 43.21 308.62 51.21 306.35 53.53 290.15 53.53 290.15 40.87 306.33 40.87 308.62 43.21"/><polygon class="cls-15" points="306.24 50.9 306.23 50.9 304.11 53.11 302.53 53.11 304.65 50.9 304.66 50.9 304.66 43.47 304.65 43.47 302.53 41.26 304.11 41.26 306.21 43.45 306.24 43.45 306.24 50.9"/><rect class="cls-16" x="306.39" y="44.09" width="1.85" height="6.19"/><polygon class="cls-14" points="265.34 95.39 265.34 103.39 267.62 105.71 283.82 105.71 283.82 93.05 267.64 93.05 265.34 95.39"/><polygon class="cls-15" points="267.73 103.08 267.74 103.08 269.86 105.3 271.43 105.3 269.31 103.08 269.31 103.08 269.31 95.65 269.31 95.65 271.43 93.44 269.86 93.44 267.76 95.63 267.73 95.63 267.73 103.08"/><rect class="cls-16" x="265.72" y="96.27" width="1.85" height="6.19"/><polygon class="cls-14" points="265.35 108.49 265.35 116.5 267.63 118.82 283.83 118.82 283.83 106.15 267.65 106.15 265.35 108.49"/><polygon class="cls-15" points="267.74 116.19 267.74 116.19 269.87 118.4 271.44 118.4 269.32 116.19 269.31 116.19 269.31 108.76 269.32 108.76 271.44 106.54 269.87 106.54 267.76 108.74 267.74 108.74 267.74 116.19"/><rect class="cls-16" x="265.73" y="109.37" width="1.85" height="6.19"/><path class="cls-17" d="M264.85,66a.93.93,0,0,1-1-.89V55.1a.93.93,0,0,1,1-.89h10.73a.92.92,0,0,1,.95.89V65.15a.92.92,0,0,1-.95.89Z"/><path class="cls-18" d="M264.85,66a.93.93,0,0,1-1-.89V55.1a.93.93,0,0,1,1-.89h10.73a.92.92,0,0,1,.95.89V65.15a.92.92,0,0,1-.95.89Z"/><path class="cls-19" d="M262.65,66.29h1.74c.22,0,.4-.36.4-.8V54.84c0-.44-.18-.79-.4-.79h-1.74Z"/><path class="cls-17" d="M264.85,52.77a.93.93,0,0,1-1-.89V41.83a.93.93,0,0,1,1-.89h10.73a.92.92,0,0,1,.95.89V51.88a.92.92,0,0,1-.95.89Z"/><path class="cls-20" d="M264.85,52.77a.93.93,0,0,1-1-.89V41.83a.93.93,0,0,1,1-.89h10.73a.92.92,0,0,1,.95.89V51.88a.92.92,0,0,1-.95.89Z"/><path class="cls-19" d="M262.65,53h1.74c.22,0,.4-.36.4-.8V41.57c0-.44-.18-.79-.4-.79h-1.74Z"/><path class="cls-17" d="M82.2,64.72a.86.86,0,0,1-.89-.83v-9.5a.87.87,0,0,1,.89-.84H92.34a.87.87,0,0,1,.9.84v9.5a.86.86,0,0,1-.9.83Z"/><path class="cls-21" d="M82.2,64.72a.86.86,0,0,1-.89-.83v-9.5a.87.87,0,0,1,.89-.84H92.34a.87.87,0,0,1,.9.84v9.5a.86.86,0,0,1-.9.83Z"/><path class="cls-19" d="M80.13,65h1.64c.21,0,.38-.34.38-.76V54.15c0-.41-.17-.75-.38-.75H80.13Z"/><path class="cls-17" d="M82.2,52.19a.86.86,0,0,1-.89-.84V41.86A.86.86,0,0,1,82.2,41H92.34a.87.87,0,0,1,.9.84v9.49a.87.87,0,0,1-.9.84Z"/><path class="cls-22" d="M82.2,52.19a.86.86,0,0,1-.89-.84V41.86A.86.86,0,0,1,82.2,41H92.34a.87.87,0,0,1,.9.84v9.49a.87.87,0,0,1-.9.84Z"/><path class="cls-19" d="M80.13,52.43h1.64c.21,0,.38-.34.38-.76V41.62c0-.42-.17-.75-.38-.75H80.13Z"/><path class="cls-17" d="M82,119.34a.88.88,0,0,1-.9-.84V109a.87.87,0,0,1,.9-.83H92.14A.86.86,0,0,1,93,109v9.5a.87.87,0,0,1-.89.84Z"/><path class="cls-23" d="M82,119.34a.88.88,0,0,1-.9-.84V109a.87.87,0,0,1,.9-.83H92.14A.86.86,0,0,1,93,109v9.5a.87.87,0,0,1-.89.84Z"/><path class="cls-19" d="M79.92,119.57h1.64c.21,0,.38-.33.38-.75v-10c0-.42-.17-.76-.38-.76H79.92Z"/><path class="cls-17" d="M82,106.8a.87.87,0,0,1-.9-.83v-9.5a.88.88,0,0,1,.9-.84H92.14a.87.87,0,0,1,.89.84V106a.86.86,0,0,1-.89.83Z"/><path class="cls-24" d="M82,106.8a.87.87,0,0,1-.9-.83v-9.5a.88.88,0,0,1,.9-.84H92.14a.87.87,0,0,1,.89.84V106a.86.86,0,0,1-.89.83Z"/><path class="cls-19" d="M79.92,107h1.64c.21,0,.38-.34.38-.75V96.23c0-.41-.17-.75-.38-.75H79.92Z"/><path class="cls-17" d="M694.78,64.75a.86.86,0,0,0,.89-.84V54.42a.87.87,0,0,0-.89-.84H684.64a.87.87,0,0,0-.9.84v9.49a.87.87,0,0,0,.9.84Z"/><path class="cls-25" d="M694.78,64.75a.86.86,0,0,0,.89-.84V54.42a.87.87,0,0,0-.89-.84H684.64a.87.87,0,0,0-.9.84v9.49a.87.87,0,0,0,.9.84Z"/><path class="cls-19" d="M696.85,65h-1.64c-.21,0-.38-.34-.38-.76V54.18c0-.42.17-.75.38-.75h1.64Z"/><path class="cls-17" d="M694.78,52.22a.87.87,0,0,0,.89-.84V41.89a.86.86,0,0,0-.89-.84H684.64a.87.87,0,0,0-.9.84v9.49a.87.87,0,0,0,.9.84Z"/><path class="cls-26" d="M694.78,52.22a.86.86,0,0,0,.89-.84V41.89a.86.86,0,0,0-.89-.84H684.64a.87.87,0,0,0-.9.84v9.49a.87.87,0,0,0,.9.84Z"/><path class="cls-19" d="M696.85,52.46h-1.64c-.21,0-.38-.34-.38-.76V41.65c0-.42.17-.76.38-.76h1.64Z"/><path class="cls-17" d="M671.67,119.15a.86.86,0,0,0,.89-.84v-9.49a.87.87,0,0,0-.89-.84H661.53a.87.87,0,0,0-.89.84v9.49a.86.86,0,0,0,.89.84Z"/><path class="cls-27" d="M671.67,119.15a.86.86,0,0,0,.89-.84v-9.49a.87.87,0,0,0-.89-.84H661.53a.87.87,0,0,0-.89.84v9.49a.86.86,0,0,0,.89.84Z"/><path class="cls-19" d="M673.75,119.39h-1.64c-.21,0-.39-.34-.39-.76v-10c0-.41.18-.75.39-.75h1.64Z"/><path class="cls-17" d="M671.67,106.62a.86.86,0,0,0,.89-.84V96.29a.86.86,0,0,0-.89-.84H661.53a.86.86,0,0,0-.89.84v9.49a.86.86,0,0,0,.89.84Z"/><path class="cls-28" d="M671.67,106.62a.86.86,0,0,0,.89-.84V96.29a.86.86,0,0,0-.89-.84H661.53a.86.86,0,0,0-.89.84v9.49a.86.86,0,0,0,.89.84Z"/><path class="cls-19" d="M673.75,106.86h-1.64c-.21,0-.39-.34-.39-.76v-10c0-.42.18-.75.39-.75h1.64Z"/><path class="cls-17" d="M76.56,111a.91.91,0,0,0,.94-.89v-10a.92.92,0,0,0-.94-.89H65.82a.93.93,0,0,0-.95.89v10a.92.92,0,0,0,.95.89Z"/><path class="cls-29" d="M76.56,111a.91.91,0,0,0,.94-.89v-10a.92.92,0,0,0-.94-.89H65.82a.93.93,0,0,0-.95.89v10a.92.92,0,0,0,.95.89Z"/><path class="cls-19" d="M78.75,111.28H77c-.22,0-.4-.35-.4-.8V99.84c0-.44.18-.8.4-.8h1.74Z"/><polygon class="cls-14" points="74.77 53.03 74.77 61.44 72.33 63.88 54.98 63.88 54.98 50.56 72.31 50.56 74.77 53.03"/><polygon class="cls-15" points="72.21 61.12 72.21 61.12 69.93 63.45 68.24 63.45 70.52 61.12 70.52 61.12 70.52 53.3 70.52 53.3 68.24 50.97 69.93 50.97 72.18 53.28 72.21 53.28 72.21 61.12"/><rect class="cls-16" x="72.38" y="53.95" width="1.98" height="6.51"/></g><g id="INNREDNING-3" data-name="INNREDNING"><rect class="cls-30" x="199.54" y="39.79" width="1.28" height="23.04"/><path class="cls-30" d="M201.11,62.86a.95.95,0,1,1-1-1A.94.94,0,0,1,201.11,62.86Z"/><rect class="cls-31" x="199.76" y="54.59" width="0.85" height="6.74"/><rect class="cls-30" x="199.54" y="86.03" width="1.28" height="34.14"/><path class="cls-30" d="M201.11,85.75a.95.95,0,1,0-1,1A1,1,0,0,0,201.11,85.75Z"/><rect class="cls-31" x="199.76" y="87.54" width="0.85" height="17.61"/><rect class="cls-30" x="555.84" y="40.04" width="1.28" height="23.04"/><path class="cls-30" d="M557.42,63.1a.95.95,0,1,1-.95-.94A.94.94,0,0,1,557.42,63.1Z"/><rect class="cls-31" x="556.06" y="54.83" width="0.85" height="6.74"/><rect class="cls-30" x="555.84" y="86.27" width="1.28" height="34.14"/><path class="cls-30" d="M557.42,86a.95.95,0,1,0-.95,1A1,1,0,0,0,557.42,86Z"/><rect class="cls-31" x="556.06" y="87.78" width="0.85" height="17.61"/><rect class="cls-30" x="471.25" y="97.1" width="1.28" height="23.04"/><path class="cls-30" d="M472.82,97.08a.95.95,0,1,0-.94.94A.94.94,0,0,0,472.82,97.08Z"/><rect class="cls-30" x="471.25" y="39.77" width="1.28" height="34.14"/><path class="cls-30" d="M472.82,74.18a.95.95,0,1,1-.94-1A.95.95,0,0,1,472.82,74.18Z"/><rect class="cls-31" x="471.47" y="54.78" width="0.85" height="17.61"/><rect class="cls-30" x="261.14" y="97.1" width="1.28" height="23.04"/><path class="cls-30" d="M262.72,97.08a.95.95,0,1,0-1,.94A.94.94,0,0,0,262.72,97.08Z"/><rect class="cls-30" x="261.14" y="39.77" width="1.28" height="34.14"/><path class="cls-30" d="M262.72,74.18a.95.95,0,1,1-1-1A1,1,0,0,1,262.72,74.18Z"/><rect class="cls-31" x="261.37" y="54.78" width="0.85" height="17.61"/></g><g id="SYMBOLER-3" data-name="SYMBOLER"><rect class="cls-32" x="216.56" y="125.58" width="28.28" height="28.31"/><path class="cls-33" d="M231.37,133.1a1.63,1.63,0,1,0-1.63-1.63,1.63,1.63,0,0,0,1.63,1.63"/><path class="cls-33" d="M229.74,141.27V138.7l-2.28,1.18a.93.93,0,1,1-.93-1.61l3.21-1.9V135.2a1.63,1.63,0,0,1,3.26,0v5.7c0,1-.51,1.13-.93,1.44v7.8a.93.93,0,1,1-1.86,0v-6.85l-2.75,1.49,0,3.44a.93.93,0,1,1-1.85,0V144.3c0-.51,1-1.13,1-1.13l3.21-1.9"/><path class="cls-33" d="M232.28,138.27l1.56,3.27a.93.93,0,1,0,1.71-.73l-2.67-6.2"/><path class="cls-33" d="M238.29,139.08a1.37,1.37,0,1,0-1.36-1.37,1.37,1.37,0,0,0,1.36,1.37"/><path class="cls-33" d="M238.6,145l-1.81,5.6a.66.66,0,0,1-.82.43.67.67,0,0,1-.43-.83l1.74-5.28"/><path class="cls-33" d="M237.63,145l1.81,5.6a.66.66,0,0,0,.82.43.67.67,0,0,0,.43-.83L239,144.93"/><path class="cls-33" d="M237.09,140.58a1.14,1.14,0,0,1,1.13-1.14h.07a1.14,1.14,0,0,1,1.14,1.14v3.93a1.14,1.14,0,0,1-1.14,1.14h-.07a1.14,1.14,0,0,1-1.13-1.14Z"/><path class="cls-33" d="M237,142.48l-1.42-.73a.57.57,0,0,0-.79.21.58.58,0,0,0,.21.79l2,1.18"/><rect class="cls-33" x="229.41" y="151.61" width="15.44" height="2.28"/><rect class="cls-33" x="216.5" y="151.82" width="11.58" height="2.11"/><rect class="cls-33" x="216.5" y="148.8" width="8.49" height="3.58"/><rect class="cls-33" x="216.5" y="146.13" width="5.61" height="3.3"/><polygon class="cls-33" points="228.07 125.58 228.07 125.58 216.56 125.58 216.56 126.62 226.6 126.62 226.6 129.12 228.07 129.12 228.07 125.58 228.07 125.58"/><rect class="cls-32" x="216.56" y="7.02" width="28.29" height="28.31"/><path class="cls-33" d="M231.37,14.54a1.63,1.63,0,1,0-1.63-1.63,1.62,1.62,0,0,0,1.63,1.63"/><path class="cls-33" d="M229.74,22.71V20.14l-2.29,1.18a.91.91,0,0,1-1.26-.34.92.92,0,0,1,.34-1.27l3.21-1.9V16.64a1.63,1.63,0,1,1,3.25,0v5.7c0,1-.5,1.13-.92,1.44v7.8a.94.94,0,0,1-1.87,0V24.73l-2.75,1.49,0,3.44a.93.93,0,1,1-1.86,0V25.74c0-.51,1-1.13,1-1.13l3.21-1.9"/><path class="cls-33" d="M232.28,19.71,233.84,23a.92.92,0,0,0,1.22.49.93.93,0,0,0,.49-1.22l-2.67-6.2"/><path class="cls-33" d="M238.29,20.52a1.37,1.37,0,1,0-1.37-1.37,1.37,1.37,0,0,0,1.37,1.37"/><path class="cls-33" d="M238.6,26.45l-1.81,5.6a.66.66,0,1,1-1.25-.4l1.74-5.28"/><path class="cls-33" d="M237.63,26.45l1.81,5.6a.65.65,0,0,0,.81.43.66.66,0,0,0,.44-.83L239,26.37"/><path class="cls-33" d="M237.08,22a1.14,1.14,0,0,1,1.14-1.14h.07A1.14,1.14,0,0,1,239.43,22V26a1.14,1.14,0,0,1-1.14,1.14h-.07A1.14,1.14,0,0,1,237.08,26Z"/><path class="cls-33" d="M237,23.92l-1.42-.73a.58.58,0,1,0-.58,1l2,1.18"/><rect class="cls-33" x="229.41" y="33.05" width="15.44" height="2.29"/><rect class="cls-33" x="216.49" y="33.26" width="11.58" height="2.11"/><rect class="cls-33" x="216.49" y="30.24" width="8.49" height="3.58"/><rect class="cls-33" x="216.49" y="27.57" width="5.61" height="3.3"/><polygon class="cls-33" points="228.06 7.02 228.06 7.02 216.56 7.02 216.56 8.06 226.6 8.06 226.6 10.56 228.07 10.56 228.07 7.02 228.06 7.02"/><rect class="cls-32" x="511.56" y="125.57" width="28.29" height="28.31"/><path class="cls-33" d="M526.38,133.1a1.64,1.64,0,1,0-1.63-1.63,1.63,1.63,0,0,0,1.63,1.63"/><path class="cls-33" d="M524.75,141.26V138.7l-2.29,1.18a.92.92,0,0,1-1.27-.34.94.94,0,0,1,.34-1.28l3.21-1.89V135.2a1.63,1.63,0,1,1,3.26,0v5.7c0,1-.51,1.13-.93,1.44v7.8a.93.93,0,1,1-1.86,0v-6.85l-2.75,1.49,0,3.44a.93.93,0,1,1-1.86,0V144.3c0-.51,1-1.14,1-1.14l3.21-1.89"/><path class="cls-33" d="M527.29,138.27l1.56,3.27a.92.92,0,0,0,1.22.49.93.93,0,0,0,.49-1.22l-2.68-6.2"/><path class="cls-33" d="M533.3,139.08a1.37,1.37,0,1,0-1.37-1.37,1.36,1.36,0,0,0,1.37,1.37"/><path class="cls-33" d="M533.6,145l-1.81,5.6a.64.64,0,0,1-.81.42.65.65,0,0,1-.44-.82l1.74-5.29"/><path class="cls-33" d="M532.64,145l1.81,5.6a.64.64,0,0,0,.81.42.67.67,0,0,0,.44-.82L534,144.92"/><path class="cls-33" d="M532.09,140.58a1.14,1.14,0,0,1,1.14-1.14h.07a1.14,1.14,0,0,1,1.13,1.14v3.93a1.14,1.14,0,0,1-1.13,1.14h-.07a1.14,1.14,0,0,1-1.14-1.14Z"/><path class="cls-33" d="M532,142.48l-1.43-.73a.56.56,0,0,0-.78.21.57.57,0,0,0,.21.79l2,1.18"/><rect class="cls-33" x="524.41" y="151.6" width="15.44" height="2.28"/><rect class="cls-33" x="511.5" y="151.81" width="11.58" height="2.11"/><rect class="cls-33" x="511.5" y="148.79" width="8.49" height="3.58"/><rect class="cls-33" x="511.5" y="146.12" width="5.61" height="3.3"/><polygon class="cls-33" points="523.07 125.58 523.07 125.58 511.56 125.58 511.56 126.62 521.61 126.62 521.61 129.12 523.08 129.12 523.08 125.58 523.07 125.58"/><rect class="cls-32" x="511.56" y="7.01" width="28.29" height="28.31"/><path class="cls-33" d="M526.37,14.54a1.64,1.64,0,1,0-1.62-1.63,1.63,1.63,0,0,0,1.62,1.63"/><path class="cls-33" d="M524.75,22.7V20.14l-2.29,1.18a.93.93,0,0,1-.93-1.62l3.21-1.89V16.64a1.63,1.63,0,1,1,3.26,0v5.7c0,1-.51,1.13-.93,1.44v7.8a.93.93,0,0,1-1.86,0V24.73l-2.75,1.49,0,3.44a.93.93,0,1,1-1.86,0V25.74c0-.51,1-1.14,1-1.14l3.21-1.89"/><path class="cls-33" d="M527.29,19.71,528.85,23a.91.91,0,0,0,1.21.49.93.93,0,0,0,.5-1.22l-2.68-6.2"/><path class="cls-33" d="M533.3,20.52a1.37,1.37,0,1,0-1.37-1.37,1.36,1.36,0,0,0,1.37,1.37"/><path class="cls-33" d="M533.6,26.45l-1.81,5.6a.66.66,0,1,1-1.25-.4l1.74-5.29"/><path class="cls-33" d="M532.63,26.45l1.81,5.6a.67.67,0,0,0,.82.43.68.68,0,0,0,.44-.83L534,26.36"/><path class="cls-33" d="M532.09,22a1.15,1.15,0,0,1,1.14-1.15h.07A1.15,1.15,0,0,1,534.43,22V26a1.14,1.14,0,0,1-1.13,1.14h-.07A1.14,1.14,0,0,1,532.09,26Z"/><path class="cls-33" d="M532,23.92l-1.43-.73a.58.58,0,0,0-.79.21.59.59,0,0,0,.21.79l2,1.18"/><rect class="cls-33" x="524.41" y="33.04" width="15.44" height="2.29"/><rect class="cls-33" x="511.5" y="33.25" width="11.58" height="2.11"/><rect class="cls-33" x="511.5" y="30.23" width="8.49" height="3.58"/><rect class="cls-33" x="511.5" y="27.56" width="5.61" height="3.3"/><polygon class="cls-33" points="523.07 7.02 523.07 7.01 511.56 7.01 511.56 8.06 521.6 8.06 521.6 10.56 523.08 10.56 523.08 7.02 523.07 7.02"/><polyline class="cls-34" points="469.99 135.55 469.99 139.55 465.99 139.55"/><line class="cls-35" x1="460.71" y1="139.55" x2="452.79" y2="139.55"/><polyline class="cls-34" points="450.15 139.55 446.15 139.55 446.15 135.55"/><line class="cls-36" x1="446.15" y1="126.66" x2="446.15" y2="113.33"/><line class="cls-37" x1="446.15" y1="108.89" x2="446.15" y2="42.23"/><polyline class="cls-34" points="446.15 37.78 446.15 33.78 450.15 33.78"/><line class="cls-35" x1="455.43" y1="33.78" x2="463.35" y2="33.78"/><polyline class="cls-34" points="465.99 33.78 469.99 33.78 469.99 37.78"/><line class="cls-36" x1="469.99" y1="46.67" x2="469.99" y2="60"/><line class="cls-37" x1="469.99" y1="64.45" x2="469.99" y2="131.11"/><rect class="cls-38" x="454.82" y="128.43" width="25.45" height="25.45"/><path class="cls-39" d="M469,129.78a1.93,1.93,0,1,1-2,1.93A2,2,0,0,1,469,129.78Z"/><path class="cls-39" d="M459.7,136.53l1.48,7.62a3.47,3.47,0,0,0,3.21,3.08l4.76,0c1.12,0,1.12-1.15,0-1.21l-4.33,0c-1.54-.08-2.28-.69-2.56-2.4l-1.49-7.37C460.61,135.64,459.52,135.69,459.7,136.53Z"/><path class="cls-39" d="M465.38,135.77c.23-1.16,1.05-1.81,3.16-1.32l6.88,1.39a1,1,0,0,1-.52,1.93l-5.88-1.2-1.74,5.86h3.49a1.51,1.51,0,0,1,1.75,1.31l1.19,7.75a1.12,1.12,0,0,1-2.23.25l-1-6.55-5.8.08c-1.12-.05-1.76-1.41-1.38-2.77Z"/><path class="cls-39" d="M474,140.15c-.08.49-.63.42-.6-.09.06-2.32,3.21-2.31,3,.25v11.83a.32.32,0,0,1-.63,0l0-12.3C475.66,138.56,473.92,138.92,474,140.15Z"/><rect class="cls-38" x="427.88" y="128.38" width="25.45" height="25.45"/><path class="cls-39" d="M436.69,129.77a1.93,1.93,0,1,1-2,1.93A2,2,0,0,1,436.69,129.77Z"/><path class="cls-39" d="M433.34,136.47l1.48,7.62a3.48,3.48,0,0,0,3.21,3.09l4.76,0c1.12,0,1.12-1.15,0-1.22l-4.33,0c-1.54-.09-2.28-.69-2.56-2.4l-1.49-7.38C434.25,135.58,433.16,135.63,433.34,136.47Z"/><path class="cls-39" d="M435.21,136.2l1.41,7.25a2.07,2.07,0,0,0,2.49,1.82h5.24l1.12,6.58c.17,1.23,2.44.94,2.23-.32l-1.19-7.68c-.17-.9-.84-1.36-2-1.39l-1.08.07c.83-2.82-.88-5.13-4.24-4.83l-.4-2.26C438.32,133.74,434.86,134,435.21,136.2Z"/><polyline class="cls-34" points="197.98 135.59 197.98 139.59 193.98 139.59"/><line class="cls-40" x1="189.22" y1="139.59" x2="182.09" y2="139.59"/><polyline class="cls-34" points="179.71 139.59 175.71 139.59 175.71 135.59"/><line class="cls-36" x1="175.71" y1="126.7" x2="175.71" y2="113.37"/><line class="cls-37" x1="175.71" y1="108.92" x2="175.71" y2="42.26"/><polyline class="cls-34" points="175.71 37.82 175.71 33.82 179.71 33.82"/><line class="cls-40" x1="184.47" y1="33.82" x2="191.6" y2="33.82"/><polyline class="cls-34" points="193.98 33.82 197.98 33.82 197.98 37.82"/><line class="cls-36" x1="197.98" y1="46.71" x2="197.98" y2="60.04"/><line class="cls-37" x1="197.98" y1="64.48" x2="197.98" y2="131.14"/><rect class="cls-38" x="182.82" y="128.47" width="25.45" height="25.45"/><path class="cls-39" d="M197.05,129.82a1.93,1.93,0,1,1-2,1.93A1.95,1.95,0,0,1,197.05,129.82Z"/><path class="cls-39" d="M187.7,136.57l1.48,7.61a3.48,3.48,0,0,0,3.21,3.09l4.76,0c1.12,0,1.12-1.15,0-1.22l-4.33,0c-1.54-.08-2.28-.69-2.56-2.4l-1.49-7.37A.55.55,0,1,0,187.7,136.57Z"/><path class="cls-39" d="M193.38,135.8c.23-1.16,1.05-1.8,3.16-1.31l6.88,1.38a1,1,0,0,1-.52,1.93L197,136.6l-1.74,5.86h3.49a1.51,1.51,0,0,1,1.75,1.31l1.19,7.76a1.12,1.12,0,0,1-2.23.25l-1-6.55-5.8.07c-1.12-.05-1.76-1.41-1.38-2.77Z"/><path class="cls-39" d="M202,140.19c-.08.49-.63.42-.59-.09.06-2.32,3.2-2.31,3,.25v11.83a.32.32,0,0,1-.63,0l0-12.3C203.67,138.6,201.92,139,202,140.19Z"/><rect class="cls-38" x="155.88" y="128.41" width="25.45" height="25.45"/><path class="cls-39" d="M164.69,129.81a1.93,1.93,0,1,1-2,1.93A1.95,1.95,0,0,1,164.69,129.81Z"/><path class="cls-39" d="M161.34,136.51l1.48,7.62a3.47,3.47,0,0,0,3.21,3.08l4.77,0c1.11,0,1.11-1.15,0-1.22l-4.34,0c-1.53-.08-2.27-.68-2.56-2.4l-1.49-7.37A.55.55,0,1,0,161.34,136.51Z"/><path class="cls-39" d="M163.21,136.24l1.41,7.24a2.08,2.08,0,0,0,2.5,1.82h5.23l1.12,6.59c.17,1.23,2.44.93,2.23-.33l-1.19-7.68c-.17-.9-.84-1.35-2-1.38l-1.07.07c.83-2.82-.89-5.13-4.24-4.84l-.41-2.25C166.32,133.78,162.86,134.07,163.21,136.24Z"/></g></g></svg>