<svg xmlns="http://www.w3.org/2000/svg" xmlns:xlink="http://www.w3.org/1999/xlink" viewBox="0 0 700 160"><defs><style>.cls-1,.cls-14{fill:#b1b1b0;}.cls-1,.cls-10,.cls-11,.cls-12,.cls-13,.cls-14,.cls-15,.cls-16,.cls-17,.cls-19,.cls-2,.cls-22,.cls-3,.cls-4,.cls-6,.cls-8{stroke:#000;}.cls-1,.cls-10,.cls-11,.cls-12,.cls-13,.cls-14,.cls-15,.cls-16,.cls-17,.cls-19,.cls-2,.cls-22,.cls-26,.cls-27,.cls-28,.cls-29,.cls-3,.cls-30,.cls-31,.cls-32,.cls-33,.cls-34,.cls-35,.cls-36,.cls-37,.cls-4,.cls-6,.cls-8{stroke-miterlimit:10;}.cls-1,.cls-10,.cls-11,.cls-12,.cls-13,.cls-17,.cls-3,.cls-6,.cls-8{stroke-width:0.25px;}.cls-2,.cls-3,.cls-5{fill:#3d3d3c;}.cls-14,.cls-15,.cls-16,.cls-2,.cls-22,.cls-4{stroke-width:0.5px;}.cls-4,.cls-7{fill:#6dc6d9;}.cls-26,.cls-27,.cls-28,.cls-29,.cls-30,.cls-31,.cls-32,.cls-33,.cls-34,.cls-35,.cls-36,.cls-37,.cls-6{fill:none;}.cls-8,.cls-9{fill:#70706f;}.cls-10{fill:url(#linear-gradient);}.cls-11{fill:#585757;}.cls-12{fill:url(#linear-gradient-2);}.cls-13{fill:#3c3c3b;}.cls-15{fill:url(#Fading_Sky_2);}.cls-16{fill:url(#Fading_Sky_2-2);}.cls-17{fill:#6e6c6b;}.cls-18{fill:#000100;}.cls-19,.cls-22,.cls-23{fill:#9d9b9b;}.cls-19{stroke-width:0.75px;}.cls-20{fill:#7b7b7a;}.cls-21,.cls-39{fill:#fff;}.cls-24,.cls-40{fill:#ffd421;}.cls-25{fill:#221e20;}.cls-26,.cls-27,.cls-28,.cls-29,.cls-30,.cls-31,.cls-32,.cls-33,.cls-34,.cls-35,.cls-36,.cls-37{stroke:#e53212;}.cls-27{stroke-dasharray:5.1 5.1;}.cls-28{stroke-dasharray:7.64 7.64;}.cls-29{stroke-dasharray:7.64 7.64 7.64 7.64;}.cls-30{stroke-dasharray:5.38 5.38;}.cls-31{stroke-dasharray:4.01 4.01;}.cls-32{stroke-dasharray:4.01 4.01 4.01 4.01;}.cls-33{stroke-dasharray:7.15 7.15;}.cls-34{stroke-dasharray:7.15 7.15 7.15 7.15;}.cls-35{stroke-dasharray:8.55 8.55;}.cls-36{stroke-dasharray:8.55 8.55 8.55 8.55;}.cls-37{stroke-dasharray:1 1;}.cls-38{fill:#251a5f;}.cls-39,.cls-40{fill-rule:evenodd;}</style><linearGradient id="linear-gradient" x1="922.8" y1="-1560.44" x2="922.8" y2="-1564.48" gradientTransform="translate(949.39 -1482.01) rotate(180)" gradientUnits="userSpaceOnUse"><stop offset="0.1" stop-color="#0c111f"/><stop offset="0.71" stop-color="#07131d" stop-opacity="0.5"/><stop offset="1" stop-color="#6a6968" stop-opacity="0"/></linearGradient><linearGradient id="linear-gradient-2" x1="900.4" y1="-1562.16" x2="910.32" y2="-1562.16" gradientTransform="translate(949.39 -1482.01) rotate(180)" gradientUnits="userSpaceOnUse"><stop offset="0" stop-color="#fff"/><stop offset="1"/></linearGradient><linearGradient id="Fading_Sky_2" x1="910.9" y1="-1598.29" x2="917.9" y2="-1598.29" gradientTransform="translate(949.39 -1482.01) rotate(180)" gradientUnits="userSpaceOnUse"><stop offset="0" stop-color="#2780c2"/><stop offset="1" stop-color="#2780c2" stop-opacity="0"/></linearGradient><linearGradient id="Fading_Sky_2-2" x1="910.91" y1="1628.63" x2="917.91" y2="1628.63" gradientTransform="matrix(-1, 0, 0, 1, 949.39, -1583.99)" xlink:href="#Fading_Sky_2"/></defs><title>Type72_vogn1_BMa72</title><g id="Type72_vogn1_BMa72"><g id="VOGNKASSE-4" data-name="VOGNKASSE"><rect class="cls-1" x="71.22" y="36.73" width="570.34" height="87.75"/><polygon class="cls-2" points="637.87 91.42 635.28 91.42 635.28 121.04 640.79 121.04 640.79 104.26 637.87 104.26 637.87 91.42"/><polygon class="cls-2" points="637.87 68.7 637.87 55.86 640.79 55.86 640.79 40.13 635.28 40.13 635.28 68.7 637.87 68.7"/><rect class="cls-3" x="253.16" y="36.88" width="7.39" height="17.82" rx="0.57" ry="0.57"/><path class="cls-3" d="M300.29,106.29c0-.32.72-.59,1.6-.59H319.5c.88,0,1.6.27,1.6.59v17.23c0,.32-.72.59-1.6.59H301.89c-.88,0-1.6-.27-1.6-.59Z"/><rect class="cls-3" x="253.16" y="106.3" width="7.39" height="17.82" rx="0.57" ry="0.57"/><path class="cls-3" d="M301.88,60.69h17.48c.87,0,1.59-.34,1.59-.76V40.13H308.46V36.87h-6.58c-.88,0-1.59.34-1.59.76v22.3C300.29,60.35,301,60.69,301.88,60.69Z"/><rect class="cls-4" x="308.78" y="120.97" width="176.6" height="3.56"/><rect class="cls-2" x="420.33" y="120.99" width="3.86" height="3.54"/><rect class="cls-2" x="369.33" y="120.99" width="3.86" height="3.54"/><rect class="cls-4" x="541.81" y="120.97" width="99.43" height="3.56"/><rect class="cls-2" x="591.74" y="120.99" width="3.86" height="3.54"/><rect class="cls-2" x="629.54" y="120.99" width="11.87" height="3.54"/><polygon class="cls-2" points="540.32 122.28 541.75 122.28 541.75 120.99 556.9 120.99 556.9 124.53 541.75 124.53 541.75 124.53 540.32 124.53 540.32 122.28"/><polygon class="cls-2" points="307.67 122.28 307.67 120.99 321.19 120.99 321.19 124.53 307.88 124.53 307.88 124.53 306.43 124.53 306.43 122.28 307.67 122.28"/><rect class="cls-4" x="80.61" y="120.97" width="160.43" height="3.56"/><rect class="cls-2" x="199.3" y="120.99" width="3.86" height="3.54"/><rect class="cls-2" x="97.92" y="120.99" width="66.67" height="3.54"/><polygon class="cls-2" points="254.52 122.28 253.1 122.28 253.1 120.99 237.94 120.99 237.94 124.53 253.1 124.53 253.1 124.53 254.52 124.53 254.52 122.28"/><polygon class="cls-2" points="472.54 120.99 486.27 120.99 486.27 122.28 487.68 122.28 487.68 124.53 486.23 124.53 486.23 124.53 472.54 124.53 472.54 120.99"/><rect class="cls-2" x="73.7" y="120.99" width="8.45" height="3.54"/><rect class="cls-4" x="308.69" y="36.67" width="176.59" height="3.56"/><rect class="cls-2" x="420.24" y="36.68" width="3.86" height="3.54"/><rect class="cls-2" x="369.24" y="36.68" width="3.86" height="3.54"/><rect class="cls-4" x="541.72" y="36.67" width="99.42" height="3.56"/><rect class="cls-2" x="591.65" y="36.68" width="3.86" height="3.54"/><rect class="cls-2" x="629.45" y="36.68" width="11.87" height="3.54"/><polygon class="cls-2" points="540.23 38.93 541.66 38.93 541.66 40.22 556.82 40.22 556.82 36.68 541.66 36.68 541.66 36.68 540.23 36.68 540.23 38.93"/><polygon class="cls-2" points="307.58 38.92 307.58 40.22 321.1 40.22 321.1 36.68 307.79 36.68 307.79 36.67 306.34 36.67 306.34 38.92 307.58 38.92"/><rect class="cls-4" x="80.52" y="36.67" width="160.43" height="3.56"/><rect class="cls-2" x="199.21" y="36.68" width="3.86" height="3.54"/><rect class="cls-2" x="97.83" y="36.68" width="66.67" height="3.54"/><polygon class="cls-2" points="254.43 38.93 253.01 38.93 253.01 40.22 237.85 40.22 237.85 36.68 253.01 36.68 253.01 36.68 254.43 36.68 254.43 38.93"/><polygon class="cls-2" points="472.45 40.22 486.18 40.22 486.18 38.92 487.59 38.92 487.59 36.67 486.14 36.67 486.14 36.68 472.45 36.68 472.45 40.22"/><rect class="cls-2" x="73.98" y="36.68" width="8.07" height="3.54"/><rect class="cls-3" x="100.17" y="94.42" width="56.88" height="26.33"/><rect class="cls-3" x="100.17" y="40.55" width="56.88" height="33.01"/><rect class="cls-3" x="157.18" y="94.29" width="1.09" height="26.6"/><rect class="cls-3" x="157.18" y="40.27" width="1.09" height="33.97"/><rect class="cls-5" x="100.02" y="73.69" width="1.64" height="20.46"/><rect class="cls-5" x="156.93" y="73.66" width="1.33" height="20.46"/><rect class="cls-3" x="533.84" y="36.76" width="7.39" height="17.82" rx="0.57" ry="0.57"/><rect class="cls-3" x="486.71" y="36.77" width="7.39" height="17.82" rx="0.57" ry="0.57"/><rect class="cls-3" x="533.84" y="106.18" width="7.39" height="17.82" rx="0.57" ry="0.57"/><rect class="cls-3" x="486.71" y="106.19" width="7.39" height="17.82" rx="0.57" ry="0.57"/><path class="cls-6" d="M499.9,108.11h33.81c-.06-3.51-1.39-6.51-3.3-7.93h-33c-1.92,1.42-3.25,4.42-3.3,7.93Z"/><rect class="cls-6" x="494.07" y="108.21" width="39.7" height="7.95"/><path class="cls-6" d="M266.51,108.05h33.81c-.06-3.51-1.38-6.51-3.3-7.93h-33c-1.91,1.42-3.24,4.42-3.29,7.93Z"/><rect class="cls-6" x="260.68" y="108.15" width="39.7" height="7.95"/><path class="cls-6" d="M500.05,52.38h33.8c-.05,3.5-1.38,6.5-3.3,7.93h-33c-1.92-1.43-3.25-4.43-3.3-7.93h5.76Z"/><rect class="cls-6" x="494.21" y="44.33" width="39.7" height="7.95"/><path class="cls-6" d="M266.66,52.44h33.8c0,3.5-1.38,6.5-3.3,7.93h-33C262.28,59,261,56,260.9,52.45h5.76Z"/><rect class="cls-6" x="260.82" y="44.4" width="39.7" height="7.95"/><rect class="cls-3" x="251.7" y="40.36" width="1.13" height="38.08"/><rect class="cls-7" x="251.86" y="69.36" width="0.8" height="8.38"/><rect class="cls-3" x="251.77" y="94.91" width="1.13" height="26.01"/><circle class="cls-3" cx="252.36" cy="94.31" r="0.86" transform="translate(144.23 341.07) rotate(-86.83)"/><rect class="cls-7" x="251.95" y="95.39" width="0.8" height="8.49"/><circle class="cls-3" cx="252.25" cy="78.92" r="0.86"/><rect class="cls-3" x="541.7" y="40.29" width="1.13" height="38.08"/><rect class="cls-7" x="541.85" y="69.29" width="0.8" height="8.38"/><rect class="cls-3" x="541.77" y="94.85" width="1.13" height="26.01"/><circle class="cls-3" cx="542.36" cy="94.24" r="0.86" transform="translate(-3.72 24.69) rotate(-2.6)"/><rect class="cls-7" x="541.94" y="95.32" width="0.8" height="8.49"/><path class="cls-3" d="M541.39,78.85a.86.86,0,1,0,.86-.86A.86.86,0,0,0,541.39,78.85Z"/><rect class="cls-3" x="485.12" y="82.79" width="1.13" height="38.08"/><rect class="cls-7" x="485.28" y="83.49" width="0.8" height="8.38"/><rect class="cls-3" x="485.19" y="40.31" width="1.13" height="26.01"/><path class="cls-3" d="M484.93,66.92a.86.86,0,1,1,.86.86A.85.85,0,0,1,484.93,66.92Z"/><rect class="cls-7" x="485.37" y="57.35" width="0.8" height="8.49"/><path class="cls-3" d="M484.82,82.31a.86.86,0,1,1,.86.86A.86.86,0,0,1,484.82,82.31Z"/><rect class="cls-3" x="321.11" y="82.69" width="1.13" height="38.08"/><rect class="cls-7" x="321.27" y="83.4" width="0.8" height="8.38"/><rect class="cls-3" x="321.18" y="40.21" width="1.13" height="26.01"/><path class="cls-3" d="M320.91,66.83a.86.86,0,1,1,.86.86A.86.86,0,0,1,320.91,66.83Z"/><rect class="cls-7" x="321.36" y="57.26" width="0.8" height="8.49"/><path class="cls-3" d="M320.8,82.22a.86.86,0,1,1,.86.86A.86.86,0,0,1,320.8,82.22Z"/><rect class="cls-3" x="252.97" y="55.24" width="7.69" height="18.51"/><rect class="cls-8" x="486.53" y="87.4" width="7.69" height="18.51"/><polygon class="cls-9" points="35.53 119.24 74.05 121.25 74.05 84.16 67.75 84.16 67.75 48.91 74.05 48.91 74.05 39.41 35.22 41.68 35.53 119.24"/><rect class="cls-10" x="22.94" y="78.43" width="7.3" height="4.04"/><rect class="cls-11" x="22.47" y="100.66" width="12.37" height="9.5" rx="0.57" ry="0.57"/><rect class="cls-11" x="22.46" y="50.93" width="12.37" height="9.5" rx="0.57" ry="0.57"/><path class="cls-12" d="M41.53,108.79l7.18.88a206.08,206.08,0,0,1-1.87-28.55A203.29,203.29,0,0,1,49,50.63l-7.46.92a147.22,147.22,0,0,0-2.45,28.63A147.07,147.07,0,0,0,41.53,108.79Z"/><path class="cls-2" d="M54.45,120.74h0v.07L74.11,122l0-1-18.44-1.13v0h0c-2.53,0-4.69-4.11-5.57-9.91l-1.1-.13h0l-.53-.07v0C49.43,116.18,51.74,120.74,54.45,120.74Z"/><polygon class="cls-8" points="62.87 46.55 78.46 48.25 78.43 40.02 62.87 41.3 62.87 46.55"/><polygon class="cls-11" points="62.9 57.56 71.47 57.62 71.47 71.75 62.97 71.75 62.9 57.56"/><polygon class="cls-11" points="62.97 73.58 67.7 84.93 74.78 82.24 71.44 71.76 62.97 71.76 62.97 73.58"/><polygon class="cls-11" points="62.83 56.06 65.4 48.98 78.46 48.98 71.41 57.66 62.86 57.56 62.83 56.06"/><polygon class="cls-11" points="62.83 41.3 57.03 41.72 53.66 54.74 60.3 54.77 62.83 46.58 62.83 41.3"/><rect class="cls-11" x="53.66" y="54.77" width="6.63" height="19.9"/><polygon class="cls-13" points="60.3 54.8 62.8 56.12 62.9 73.49 60.33 74.67 60.3 54.8"/><polygon class="cls-11" points="53.94 77 60.24 74.27 65.27 85.89 58.68 88.47 53.94 77"/><polygon class="cls-13" points="62.83 46.53 65.37 49 62.8 56.08 60.26 54.76 62.83 46.53"/><polygon class="cls-13" points="60.44 74.67 62.91 73.56 67.59 84.97 65.28 85.93 60.44 74.67"/><polygon class="cls-13" points="62.84 46.5 78.43 48.27 78.39 48.93 65.37 49 62.84 46.5"/><polygon class="cls-11" points="60.33 74.68 53.97 77.41 53.67 74.47 60.33 74.68"/><polygon class="cls-8" points="58.68 88.47 74.81 82.22 74.99 120.15 58.87 118.9 58.68 88.47"/><path class="cls-14" d="M29.66,80.46h0a132,132,0,0,0,3.47,31.06H30.74l.15.56,1.4,4.78a7.78,7.78,0,0,0,6.92,5.41v0L74,124.38l.14-2.26-19.65-1.25v-.06h0c-2.71,0-5-4.57-6-11l-1.18-.15h0l-3.47-.44-2.38-.3A147,147,0,0,1,39,80.46h0A147,147,0,0,1,41.42,52l2.38-.29,3.47-.45h0l1.17-.15c.94-6.44,3.26-11,6-11h0V40L74.09,38.8,74,36.53,39.21,38.66h0a7.76,7.76,0,0,0-6.92,5.4l-1.41,4.78-.14.56h2.38A132.14,132.14,0,0,0,29.66,80.46Z"/><path class="cls-2" d="M54.42,40.15h0v-.06l19.63-1.25.06,1L55.69,41v.06h0c-2.54,0-4.7,4.11-5.58,9.91L49,51.1h0l-.54.06v0C49.4,44.7,51.71,40.15,54.42,40.15Z"/><path class="cls-15" d="M38.5,113.26a47.34,47.34,0,0,1-7-1.32c.17,2.36,3.17,6.57,7,8.67-.09-.88-.22-1.66-.23-2.45A35.69,35.69,0,0,1,38.5,113.26Z"/><path class="cls-16" d="M38.49,47.65a47.59,47.59,0,0,0-7,1.32c.17-2.36,3.17-6.57,7-8.67-.08.88-.22,1.66-.23,2.46A35.63,35.63,0,0,0,38.49,47.65Z"/><rect class="cls-11" x="13.02" y="74.21" width="9.93" height="12.56"/><rect class="cls-17" x="9.29" y="74.18" width="3.72" height="12.56"/><path class="cls-18" d="M641.76,50.14a.08.08,0,0,1-.07,0,.12.12,0,0,1,0-.17l2-2.78a.12.12,0,0,1,.17,0,.12.12,0,0,1,0,.17l-1.95,2.78A.12.12,0,0,1,641.76,50.14Z"/><path class="cls-18" d="M645.67,50.13a.14.14,0,0,1-.11-.06l-1.94-2.77a.13.13,0,1,1,.2-.15l1.95,2.78a.13.13,0,0,1,0,.17A.11.11,0,0,1,645.67,50.13Z"/><path class="cls-18" d="M645.68,50.13a.11.11,0,0,1-.07,0,.12.12,0,0,1,0-.17l1.95-2.78a.13.13,0,0,1,.17,0,.13.13,0,0,1,0,.18l-2,2.77A.11.11,0,0,1,645.68,50.13Z"/><path class="cls-18" d="M649.59,50.11a.12.12,0,0,1-.1,0l-2-2.78a.12.12,0,0,1,0-.17.12.12,0,0,1,.17,0l2,2.77a.13.13,0,0,1,0,.18Z"/><path class="cls-18" d="M649.55,50.09a.1.1,0,0,1-.07,0,.12.12,0,0,1,0-.17l1.95-2.78a.12.12,0,0,1,.17,0,.13.13,0,0,1,0,.18L649.66,50A.13.13,0,0,1,649.55,50.09Z"/><path class="cls-18" d="M641.76,57.51a.13.13,0,0,1-.13-.12V50a.12.12,0,0,1,.13-.12.12.12,0,0,1,.12.12v7.4A.12.12,0,0,1,641.76,57.51Z"/><path class="cls-18" d="M645.71,57.46a.13.13,0,0,1-.13-.13V49.94a.13.13,0,0,1,.13-.13.12.12,0,0,1,.12.13v7.39A.12.12,0,0,1,645.71,57.46Z"/><path class="cls-18" d="M649.6,57.51a.12.12,0,0,1-.12-.12V50a.12.12,0,0,1,.12-.12.12.12,0,0,1,.13.12v7.4A.12.12,0,0,1,649.6,57.51Z"/><path class="cls-18" d="M651.55,57.54a.12.12,0,0,1-.12-.13V47.22a.12.12,0,0,1,.12-.13.13.13,0,0,1,.13.13V57.41A.13.13,0,0,1,651.55,57.54Z"/><path class="cls-18" d="M643.72,57.54a.12.12,0,0,1-.12-.13V47.21a.12.12,0,0,1,.12-.13.13.13,0,0,1,.13.13v10.2A.13.13,0,0,1,643.72,57.54Z"/><path class="cls-18" d="M647.62,57.51a.12.12,0,0,1-.12-.13V47.2a.12.12,0,0,1,.12-.12.13.13,0,0,1,.13.12V57.38A.13.13,0,0,1,647.62,57.51Z"/><path class="cls-18" d="M651.58,57.54h-9.77a.12.12,0,0,1-.12-.13.12.12,0,0,1,.12-.12h9.77a.12.12,0,0,1,.13.12A.13.13,0,0,1,651.58,57.54Z"/><path class="cls-18" d="M643.71,113.49a.11.11,0,0,1-.1-.06l-2-2.77a.13.13,0,0,1,0-.18.13.13,0,0,1,.17,0l1.95,2.77a.13.13,0,0,1,0,.18Z"/><path class="cls-18" d="M643.72,113.5a.08.08,0,0,1-.07,0,.12.12,0,0,1,0-.17l1.94-2.78a.13.13,0,0,1,.18,0,.14.14,0,0,1,0,.18l-1.95,2.77A.1.1,0,0,1,643.72,113.5Z"/><path class="cls-18" d="M647.63,113.5a.1.1,0,0,1-.1,0l-1.95-2.77a.13.13,0,0,1,0-.18.12.12,0,0,1,.17,0l2,2.78a.12.12,0,0,1,0,.17A.08.08,0,0,1,647.63,113.5Z"/><path class="cls-18" d="M647.64,113.52l-.07,0a.13.13,0,0,1,0-.18l2-2.77a.12.12,0,0,1,.2.14l-2,2.78A.12.12,0,0,1,647.64,113.52Z"/><path class="cls-18" d="M651.5,113.54a.11.11,0,0,1-.1-.06l-1.95-2.77a.13.13,0,0,1,0-.18.14.14,0,0,1,.18,0l1.94,2.78a.12.12,0,0,1,0,.17A.09.09,0,0,1,651.5,113.54Z"/><path class="cls-18" d="M641.76,110.74a.13.13,0,0,1-.13-.13v-7.39a.12.12,0,0,1,.13-.12.12.12,0,0,1,.12.12v7.39A.12.12,0,0,1,641.76,110.74Z"/><path class="cls-18" d="M645.71,110.79a.13.13,0,0,1-.13-.12v-7.4a.12.12,0,0,1,.13-.12.12.12,0,0,1,.12.12v7.4A.12.12,0,0,1,645.71,110.79Z"/><path class="cls-18" d="M649.6,110.74a.12.12,0,0,1-.12-.13v-7.39a.12.12,0,0,1,.12-.13.13.13,0,0,1,.13.13v7.39A.13.13,0,0,1,649.6,110.74Z"/><path class="cls-18" d="M651.55,113.51a.12.12,0,0,1-.12-.12v-10.2a.12.12,0,0,1,.12-.12.12.12,0,0,1,.13.12v10.2A.12.12,0,0,1,651.55,113.51Z"/><path class="cls-18" d="M643.72,113.52a.12.12,0,0,1-.12-.12V103.19a.12.12,0,0,1,.12-.12.12.12,0,0,1,.13.12V113.4A.12.12,0,0,1,643.72,113.52Z"/><path class="cls-18" d="M647.62,113.53a.12.12,0,0,1-.12-.13V103.22a.12.12,0,0,1,.12-.12.12.12,0,0,1,.13.12V113.4A.13.13,0,0,1,647.62,113.53Z"/><path class="cls-18" d="M651.58,103.32h-9.77a.12.12,0,0,1-.12-.13.12.12,0,0,1,.12-.12h9.77a.12.12,0,0,1,.13.12A.13.13,0,0,1,651.58,103.32Z"/><rect class="cls-1" x="641.59" y="57.28" width="10.02" height="45.91"/><rect class="cls-18" x="232.23" y="35.27" width="28.35" height="0.72"/><rect class="cls-18" x="299.97" y="35.25" width="28.35" height="0.72"/><rect class="cls-18" x="465.8" y="35.27" width="28.35" height="0.72"/><rect class="cls-18" x="533.54" y="35.25" width="28.35" height="0.72"/><rect class="cls-18" x="232.4" y="125.13" width="28.35" height="0.72"/><rect class="cls-18" x="300.14" y="125.1" width="28.35" height="0.72"/><rect class="cls-18" x="465.97" y="125.13" width="28.35" height="0.72"/><rect class="cls-18" x="533.71" y="125.1" width="28.35" height="0.72"/><rect class="cls-13" x="262.51" y="124.46" width="1.47" height="1.7"/></g><g id="SETER_72-4" data-name="SETER 72"><polygon class="cls-19" points="544.39 57.37 544.39 65.29 546.69 67.59 563.02 67.59 563.02 55.06 546.71 55.06 544.39 57.37"/><polygon class="cls-20" points="546.8 64.99 546.81 64.99 548.95 67.18 550.54 67.18 548.39 64.99 548.39 64.99 548.39 57.63 548.39 57.63 550.54 55.44 548.95 55.44 546.83 57.61 546.8 57.61 546.8 64.99"/><rect class="cls-21" x="544.78" y="58.24" width="1.87" height="6.13"/><polygon class="cls-19" points="544.39 70.35 544.39 78.26 546.69 80.56 563.02 80.56 563.02 68.03 546.71 68.03 544.39 70.35"/><polygon class="cls-20" points="546.8 77.96 546.8 77.96 548.95 80.15 550.53 80.15 548.39 77.96 548.39 77.96 548.39 70.61 548.39 70.61 550.53 68.42 548.95 68.42 546.82 70.58 546.8 70.58 546.8 77.96"/><rect class="cls-21" x="544.77" y="71.22" width="1.87" height="6.13"/><polygon class="cls-19" points="544.39 44.28 544.39 52.2 546.69 54.5 563.02 54.5 563.02 41.97 546.71 41.97 544.39 44.28"/><polygon class="cls-20" points="546.8 51.9 546.81 51.9 548.95 54.09 550.54 54.09 548.39 51.9 548.39 51.9 548.39 44.55 548.39 44.55 550.54 42.35 548.95 42.35 546.83 44.52 546.8 44.52 546.8 51.9"/><rect class="cls-21" x="544.78" y="45.15" width="1.87" height="6.13"/><polygon class="cls-19" points="544.39 95.94 544.39 103.86 546.69 106.17 563.02 106.17 563.02 93.63 546.71 93.63 544.39 95.94"/><polygon class="cls-20" points="546.8 103.56 546.81 103.56 548.95 105.75 550.54 105.75 548.4 103.56 548.39 103.56 548.39 96.2 548.4 96.2 550.54 94.01 548.95 94.01 546.83 96.18 546.8 96.18 546.8 103.56"/><rect class="cls-21" x="544.78" y="96.81" width="1.87" height="6.13"/><polygon class="cls-19" points="544.4 108.92 544.4 116.84 546.7 119.14 563.03 119.14 563.03 106.6 546.72 106.6 544.4 108.92"/><polygon class="cls-20" points="546.81 116.53 546.82 116.53 548.96 118.73 550.54 118.73 548.4 116.53 548.4 116.53 548.4 109.18 548.4 109.18 550.54 106.99 548.96 106.99 546.84 109.16 546.81 109.16 546.81 116.53"/><rect class="cls-21" x="544.78" y="109.79" width="1.87" height="6.13"/><polygon class="cls-19" points="586.81 57.34 586.81 65.27 584.51 67.57 568.18 67.57 568.18 55.03 584.49 55.03 586.81 57.34"/><polygon class="cls-20" points="584.4 64.96 584.4 64.96 582.26 67.15 580.67 67.15 582.81 64.96 582.81 64.96 582.81 57.61 582.81 57.61 580.67 55.41 582.26 55.41 584.38 57.59 584.4 57.59 584.4 64.96"/><rect class="cls-21" x="584.56" y="58.22" width="1.87" height="6.13"/><polygon class="cls-19" points="586.81 70.32 586.81 78.23 584.51 80.54 568.18 80.54 568.18 68 584.5 68 586.81 70.32"/><polygon class="cls-20" points="584.4 77.93 584.4 77.93 582.26 80.12 580.67 80.12 582.81 77.93 582.81 77.93 582.81 70.58 582.81 70.58 580.67 68.39 582.26 68.39 584.38 70.56 584.4 70.56 584.4 77.93"/><rect class="cls-21" x="584.56" y="71.19" width="1.87" height="6.13"/><polygon class="cls-19" points="586.81 44.26 586.81 52.17 584.51 54.47 568.18 54.47 568.18 41.94 584.49 41.94 586.81 44.26"/><polygon class="cls-20" points="584.4 51.87 584.4 51.87 582.26 54.06 580.67 54.06 582.81 51.87 582.81 51.87 582.81 44.52 582.81 44.52 580.67 42.33 582.26 42.33 584.38 44.49 584.4 44.49 584.4 51.87"/><rect class="cls-21" x="584.56" y="45.13" width="1.87" height="6.13"/><polygon class="cls-19" points="586.81 95.92 586.81 103.84 584.51 106.14 568.18 106.14 568.18 93.6 584.49 93.6 586.81 95.92"/><polygon class="cls-20" points="584.4 103.53 584.4 103.53 582.25 105.72 580.67 105.72 582.81 103.53 582.81 103.53 582.81 96.18 582.81 96.18 580.67 93.98 582.25 93.98 584.38 96.16 584.4 96.16 584.4 103.53"/><rect class="cls-21" x="584.56" y="96.79" width="1.87" height="6.13"/><polygon class="cls-19" points="586.8 108.89 586.8 116.81 584.5 119.11 568.17 119.11 568.17 106.57 584.48 106.57 586.8 108.89"/><polygon class="cls-20" points="584.39 116.51 584.39 116.51 582.25 118.7 580.66 118.7 582.8 116.51 582.8 116.51 582.8 109.15 582.8 109.15 580.66 106.96 582.25 106.96 584.37 109.13 584.39 109.13 584.39 116.51"/><rect class="cls-21" x="584.55" y="109.76" width="1.87" height="6.13"/><polygon class="cls-19" points="610.79 57.37 610.79 65.29 608.49 67.59 592.16 67.59 592.16 55.06 608.47 55.06 610.79 57.37"/><polygon class="cls-20" points="608.38 64.99 608.38 64.99 606.24 67.18 604.65 67.18 606.79 64.99 606.79 64.99 606.79 57.63 606.79 57.63 604.65 55.44 606.24 55.44 608.36 57.61 608.38 57.61 608.38 64.99"/><rect class="cls-21" x="608.54" y="58.24" width="1.87" height="6.13"/><polygon class="cls-19" points="610.79 70.35 610.79 78.26 608.49 80.56 592.16 80.56 592.16 68.03 608.48 68.03 610.79 70.35"/><polygon class="cls-20" points="608.38 77.96 608.38 77.96 606.24 80.15 604.65 80.15 606.79 77.96 606.8 77.96 606.8 70.61 606.79 70.61 604.65 68.42 606.24 68.42 608.36 70.58 608.38 70.58 608.38 77.96"/><rect class="cls-21" x="608.54" y="71.22" width="1.87" height="6.13"/><polygon class="cls-19" points="610.79 44.28 610.79 52.2 608.49 54.5 592.16 54.5 592.16 41.97 608.47 41.97 610.79 44.28"/><polygon class="cls-20" points="608.38 51.9 608.38 51.9 606.24 54.09 604.65 54.09 606.79 51.9 606.79 51.9 606.79 44.55 606.79 44.55 604.65 42.35 606.24 42.35 608.36 44.52 608.38 44.52 608.38 51.9"/><rect class="cls-21" x="608.54" y="45.15" width="1.87" height="6.13"/><polygon class="cls-19" points="610.79 95.94 610.79 103.86 608.49 106.17 592.16 106.17 592.16 93.63 608.47 93.63 610.79 95.94"/><polygon class="cls-20" points="608.38 103.56 608.38 103.56 606.24 105.75 604.65 105.75 606.79 103.56 606.79 103.56 606.79 96.2 606.79 96.2 604.65 94.01 606.24 94.01 608.36 96.18 608.38 96.18 608.38 103.56"/><rect class="cls-21" x="608.54" y="96.81" width="1.87" height="6.13"/><polygon class="cls-19" points="610.78 108.92 610.78 116.84 608.48 119.14 592.15 119.14 592.15 106.6 608.47 106.6 610.78 108.92"/><polygon class="cls-20" points="608.38 116.53 608.37 116.53 606.23 118.73 604.64 118.73 606.78 116.53 606.78 116.53 606.78 109.18 606.78 109.18 604.64 106.99 606.23 106.99 608.35 109.16 608.38 109.16 608.38 116.53"/><rect class="cls-21" x="608.53" y="109.79" width="1.87" height="6.13"/><polygon class="cls-19" points="634.12 57.43 634.12 65.35 631.82 67.65 615.49 67.65 615.49 55.11 631.8 55.11 634.12 57.43"/><polygon class="cls-20" points="631.72 65.05 631.71 65.05 629.57 67.24 627.98 67.24 630.12 65.05 630.13 65.05 630.13 57.69 630.12 57.69 627.98 55.5 629.57 55.5 631.69 57.67 631.72 57.67 631.72 65.05"/><rect class="cls-21" x="631.87" y="58.3" width="1.87" height="6.13"/><polygon class="cls-19" points="634.12 44.34 634.12 52.26 631.82 54.56 615.49 54.56 615.49 42.02 631.8 42.02 634.12 44.34"/><polygon class="cls-20" points="631.72 51.95 631.71 51.95 629.57 54.15 627.98 54.15 630.12 51.95 630.13 51.95 630.13 44.6 630.12 44.6 627.98 42.41 629.57 42.41 631.69 44.58 631.72 44.58 631.72 51.95"/><rect class="cls-21" x="631.87" y="45.21" width="1.87" height="6.13"/><polygon class="cls-19" points="634.12 96 634.12 103.92 631.82 106.22 615.49 106.22 615.49 93.68 631.8 93.68 634.12 96"/><polygon class="cls-20" points="631.71 103.62 631.71 103.62 629.57 105.81 627.98 105.81 630.12 103.62 630.12 103.62 630.12 96.26 630.12 96.26 627.98 94.07 629.57 94.07 631.69 96.24 631.71 96.24 631.71 103.62"/><rect class="cls-21" x="631.87" y="96.87" width="1.87" height="6.13"/><polygon class="cls-19" points="634.11 108.97 634.11 116.89 631.81 119.2 615.48 119.2 615.48 106.66 631.79 106.66 634.11 108.97"/><polygon class="cls-20" points="631.71 116.59 631.7 116.59 629.56 118.78 627.97 118.78 630.11 116.59 630.12 116.59 630.12 109.24 630.11 109.24 627.97 107.04 629.56 107.04 631.68 109.22 631.71 109.22 631.71 116.59"/><rect class="cls-21" x="631.86" y="109.85" width="1.87" height="6.13"/><polygon class="cls-19" points="484.36 103.73 484.36 95.81 482.06 93.51 465.73 93.51 465.73 106.05 482.05 106.05 484.36 103.73"/><polygon class="cls-20" points="481.96 96.12 481.95 96.12 479.81 93.93 478.22 93.93 480.36 96.12 480.37 96.12 480.37 103.47 480.36 103.47 478.22 105.66 479.81 105.66 481.93 103.49 481.96 103.49 481.96 96.12"/><rect class="cls-21" x="482.11" y="96.73" width="1.87" height="6.13"/><polygon class="cls-19" points="484.36 90.76 484.36 82.84 482.06 80.54 465.73 80.54 465.73 93.08 482.05 93.08 484.36 90.76"/><polygon class="cls-20" points="481.96 83.15 481.95 83.15 479.81 80.96 478.22 80.96 480.36 83.15 480.37 83.15 480.37 90.5 480.36 90.5 478.22 92.69 479.81 92.69 481.93 90.52 481.96 90.52 481.96 83.15"/><rect class="cls-21" x="482.12" y="83.76" width="1.87" height="6.13"/><polygon class="cls-19" points="484.36 116.82 484.36 108.91 482.06 106.6 465.73 106.6 465.73 119.14 482.05 119.14 484.36 116.82"/><polygon class="cls-20" points="481.96 109.21 481.95 109.21 479.81 107.02 478.22 107.02 480.36 109.21 480.37 109.21 480.37 116.56 480.36 116.56 478.22 118.75 479.81 118.75 481.93 116.58 481.96 116.58 481.96 109.21"/><rect class="cls-21" x="482.11" y="109.82" width="1.87" height="6.13"/><polygon class="cls-19" points="484.36 65.16 484.36 57.24 482.06 54.94 465.73 54.94 465.73 67.48 482.05 67.48 484.36 65.16"/><polygon class="cls-20" points="481.95 57.55 481.95 57.55 479.81 55.35 478.22 55.35 480.36 57.55 480.36 57.55 480.36 64.9 480.36 64.9 478.22 67.09 479.81 67.09 481.93 64.92 481.95 64.92 481.95 57.55"/><rect class="cls-21" x="482.11" y="58.16" width="1.87" height="6.13"/><polygon class="cls-19" points="484.35 52.19 484.35 44.27 482.06 41.97 465.72 41.97 465.72 54.51 482.04 54.51 484.35 52.19"/><polygon class="cls-20" points="481.95 44.57 481.94 44.57 479.8 42.38 478.21 42.38 480.35 44.57 480.36 44.57 480.36 51.93 480.35 51.93 478.21 54.12 479.8 54.12 481.92 51.95 481.95 51.95 481.95 44.57"/><rect class="cls-21" x="482.1" y="45.19" width="1.87" height="6.13"/><polygon class="cls-19" points="461 103.73 461 95.81 458.7 93.51 442.37 93.51 442.37 106.05 458.69 106.05 461 103.73"/><polygon class="cls-20" points="458.6 96.12 458.59 96.12 456.45 93.93 454.86 93.93 457 96.12 457.01 96.12 457.01 103.47 457 103.47 454.86 105.66 456.45 105.66 458.57 103.49 458.6 103.49 458.6 96.12"/><rect class="cls-21" x="458.75" y="96.73" width="1.87" height="6.13"/><polygon class="cls-19" points="461 90.76 461 82.84 458.7 80.54 442.38 80.54 442.38 93.08 458.69 93.08 461 90.76"/><polygon class="cls-20" points="458.6 83.15 458.59 83.15 456.45 80.96 454.86 80.96 457 83.15 457.01 83.15 457.01 90.5 457 90.5 454.86 92.69 456.45 92.69 458.57 90.52 458.6 90.52 458.6 83.15"/><rect class="cls-21" x="458.76" y="83.76" width="1.87" height="6.13"/><polygon class="cls-19" points="461 116.82 461 108.91 458.7 106.6 442.38 106.6 442.38 119.14 458.69 119.14 461 116.82"/><polygon class="cls-20" points="458.6 109.21 458.59 109.21 456.45 107.02 454.86 107.02 457 109.21 457.01 109.21 457.01 116.56 457 116.56 454.86 118.75 456.45 118.75 458.57 116.58 458.6 116.58 458.6 109.21"/><rect class="cls-21" x="458.75" y="109.82" width="1.87" height="6.13"/><polygon class="cls-19" points="461 65.16 461 57.24 458.7 54.94 442.38 54.94 442.38 67.48 458.68 67.48 461 65.16"/><polygon class="cls-20" points="458.6 57.55 458.59 57.55 456.45 55.35 454.86 55.35 457 57.55 457 57.55 457 64.9 457 64.9 454.86 67.09 456.45 67.09 458.57 64.92 458.6 64.92 458.6 57.55"/><rect class="cls-21" x="458.75" y="58.16" width="1.87" height="6.13"/><polygon class="cls-19" points="460.99 52.19 460.99 44.27 458.69 41.97 442.37 41.97 442.37 54.51 458.68 54.51 460.99 52.19"/><polygon class="cls-20" points="458.59 44.57 458.58 44.57 456.44 42.38 454.85 42.38 456.99 44.57 457 44.57 457 51.93 456.99 51.93 454.85 54.12 456.44 54.12 458.56 51.95 458.59 51.95 458.59 44.57"/><rect class="cls-21" x="458.74" y="45.19" width="1.87" height="6.13"/><polygon class="cls-19" points="437.39 103.73 437.39 95.81 435.09 93.51 418.76 93.51 418.76 106.05 435.08 106.05 437.39 103.73"/><polygon class="cls-20" points="434.99 96.12 434.98 96.12 432.84 93.93 431.25 93.93 433.39 96.12 433.4 96.12 433.4 103.47 433.39 103.47 431.25 105.66 432.84 105.66 434.96 103.49 434.99 103.49 434.99 96.12"/><rect class="cls-21" x="435.14" y="96.73" width="1.87" height="6.13"/><polygon class="cls-19" points="437.39 90.76 437.39 82.84 435.09 80.54 418.76 80.54 418.76 93.08 435.08 93.08 437.39 90.76"/><polygon class="cls-20" points="434.99 83.15 434.98 83.15 432.84 80.96 431.25 80.96 433.39 83.15 433.4 83.15 433.4 90.5 433.39 90.5 431.25 92.69 432.84 92.69 434.96 90.52 434.99 90.52 434.99 83.15"/><rect class="cls-21" x="435.15" y="83.76" width="1.87" height="6.13"/><polygon class="cls-19" points="437.39 116.82 437.39 108.91 435.09 106.6 418.76 106.6 418.76 119.14 435.08 119.14 437.39 116.82"/><polygon class="cls-20" points="434.99 109.21 434.98 109.21 432.84 107.02 431.25 107.02 433.39 109.21 433.4 109.21 433.4 116.56 433.39 116.56 431.25 118.75 432.84 118.75 434.96 116.58 434.99 116.58 434.99 109.21"/><rect class="cls-21" x="435.14" y="109.82" width="1.87" height="6.13"/><polygon class="cls-19" points="437.39 65.16 437.39 57.24 435.09 54.94 418.76 54.94 418.76 67.48 435.07 67.48 437.39 65.16"/><polygon class="cls-20" points="434.99 57.55 434.98 57.55 432.84 55.35 431.25 55.35 433.39 57.55 433.39 57.55 433.39 64.9 433.39 64.9 431.25 67.09 432.84 67.09 434.96 64.92 434.99 64.92 434.99 57.55"/><rect class="cls-21" x="435.14" y="58.16" width="1.87" height="6.13"/><polygon class="cls-19" points="437.38 52.19 437.38 44.27 435.08 41.97 418.75 41.97 418.75 54.51 435.07 54.51 437.38 52.19"/><polygon class="cls-20" points="434.98 44.57 434.97 44.57 432.83 42.38 431.24 42.38 433.38 44.57 433.39 44.57 433.39 51.93 433.38 51.93 431.24 54.12 432.83 54.12 434.95 51.95 434.98 51.95 434.98 44.57"/><rect class="cls-21" x="435.13" y="45.19" width="1.87" height="6.13"/><polygon class="cls-19" points="414.38 103.73 414.38 95.81 412.08 93.51 395.75 93.51 395.75 106.05 412.06 106.05 414.38 103.73"/><polygon class="cls-20" points="411.97 96.12 411.97 96.12 409.82 93.93 408.23 93.93 410.38 96.12 410.38 96.12 410.38 103.47 410.38 103.47 408.23 105.66 409.82 105.66 411.94 103.49 411.97 103.49 411.97 96.12"/><rect class="cls-21" x="412.13" y="96.73" width="1.87" height="6.13"/><polygon class="cls-19" points="414.38 90.76 414.38 82.84 412.08 80.54 395.75 80.54 395.75 93.08 412.06 93.08 414.38 90.76"/><polygon class="cls-20" points="411.97 83.15 411.97 83.15 409.82 80.96 408.24 80.96 410.38 83.15 410.38 83.15 410.38 90.5 410.38 90.5 408.24 92.69 409.82 92.69 411.95 90.52 411.97 90.52 411.97 83.15"/><rect class="cls-21" x="412.13" y="83.76" width="1.87" height="6.13"/><polygon class="cls-19" points="414.38 116.82 414.38 108.91 412.08 106.6 395.75 106.6 395.75 119.14 412.06 119.14 414.38 116.82"/><polygon class="cls-20" points="411.97 109.21 411.97 109.21 409.82 107.02 408.23 107.02 410.38 109.21 410.38 109.21 410.38 116.56 410.38 116.56 408.23 118.75 409.82 118.75 411.94 116.58 411.97 116.58 411.97 109.21"/><rect class="cls-21" x="412.13" y="109.82" width="1.87" height="6.13"/><polygon class="cls-19" points="414.38 65.16 414.38 57.24 412.08 54.94 395.75 54.94 395.75 67.48 412.06 67.48 414.38 65.16"/><polygon class="cls-20" points="411.97 57.55 411.96 57.55 409.82 55.35 408.23 55.35 410.37 57.55 410.38 57.55 410.38 64.9 410.37 64.9 408.23 67.09 409.82 67.09 411.94 64.92 411.97 64.92 411.97 57.55"/><rect class="cls-21" x="412.13" y="58.16" width="1.87" height="6.13"/><polygon class="cls-19" points="414.37 52.19 414.37 44.27 412.07 41.97 395.74 41.97 395.74 54.51 412.05 54.51 414.37 52.19"/><polygon class="cls-20" points="411.96 44.57 411.96 44.57 409.81 42.38 408.23 42.38 410.37 44.57 410.37 44.57 410.37 51.93 410.37 51.93 408.23 54.12 409.81 54.12 411.94 51.95 411.96 51.95 411.96 44.57"/><rect class="cls-21" x="412.12" y="45.19" width="1.87" height="6.13"/><polygon class="cls-19" points="370.3 103.73 370.3 95.81 372.6 93.51 388.93 93.51 388.93 106.05 372.61 106.05 370.3 103.73"/><polygon class="cls-20" points="372.7 96.12 372.71 96.12 374.85 93.93 376.44 93.93 374.3 96.12 374.3 96.12 374.3 103.47 374.3 103.47 376.44 105.66 374.85 105.66 372.73 103.49 372.7 103.49 372.7 96.12"/><rect class="cls-21" x="370.68" y="96.73" width="1.87" height="6.13"/><polygon class="cls-19" points="370.3 90.76 370.3 82.84 372.6 80.54 388.93 80.54 388.93 93.08 372.61 93.08 370.3 90.76"/><polygon class="cls-20" points="372.7 83.15 372.71 83.15 374.85 80.96 376.44 80.96 374.3 83.15 374.29 83.15 374.29 90.5 374.3 90.5 376.44 92.69 374.85 92.69 372.73 90.52 372.7 90.52 372.7 83.15"/><rect class="cls-21" x="370.68" y="83.76" width="1.87" height="6.13"/><polygon class="cls-19" points="370.3 116.82 370.3 108.91 372.6 106.6 388.93 106.6 388.93 119.14 372.61 119.14 370.3 116.82"/><polygon class="cls-20" points="372.7 109.21 372.71 109.21 374.85 107.02 376.44 107.02 374.3 109.21 374.3 109.21 374.3 116.56 374.3 116.56 376.44 118.75 374.85 118.75 372.73 116.58 372.7 116.58 372.7 109.21"/><rect class="cls-21" x="370.68" y="109.82" width="1.87" height="6.13"/><polygon class="cls-19" points="370.3 65.16 370.3 57.24 372.6 54.94 388.93 54.94 388.93 67.48 372.62 67.48 370.3 65.16"/><polygon class="cls-20" points="372.71 57.55 372.71 57.55 374.85 55.35 376.44 55.35 374.3 57.55 374.3 57.55 374.3 64.9 374.3 64.9 376.44 67.09 374.85 67.09 372.73 64.92 372.71 64.92 372.71 57.55"/><rect class="cls-21" x="370.68" y="58.16" width="1.87" height="6.13"/><polygon class="cls-19" points="370.31 52.19 370.31 44.27 372.61 41.97 388.94 41.97 388.94 54.51 372.62 54.51 370.31 52.19"/><polygon class="cls-20" points="372.71 44.57 372.72 44.57 374.86 42.38 376.45 42.38 374.31 44.57 374.31 44.57 374.31 51.93 374.31 51.93 376.45 54.12 374.86 54.12 372.74 51.95 372.71 51.95 372.71 44.57"/><rect class="cls-21" x="370.69" y="45.19" width="1.87" height="6.13"/><polygon class="cls-19" points="346.64 103.73 346.64 95.81 348.93 93.51 365.27 93.51 365.27 106.05 348.95 106.05 346.64 103.73"/><polygon class="cls-20" points="349.04 96.12 349.05 96.12 351.19 93.93 352.78 93.93 350.64 96.12 350.63 96.12 350.63 103.47 350.64 103.47 352.78 105.66 351.19 105.66 349.07 103.49 349.04 103.49 349.04 96.12"/><rect class="cls-21" x="347.02" y="96.73" width="1.87" height="6.13"/><polygon class="cls-19" points="346.64 90.76 346.64 82.84 348.93 80.54 365.26 80.54 365.26 93.08 348.95 93.08 346.64 90.76"/><polygon class="cls-20" points="349.04 83.15 349.05 83.15 351.19 80.96 352.78 80.96 350.64 83.15 350.63 83.15 350.63 90.5 350.64 90.5 352.78 92.69 351.19 92.69 349.06 90.52 349.04 90.52 349.04 83.15"/><rect class="cls-21" x="347.02" y="83.76" width="1.87" height="6.13"/><polygon class="cls-19" points="346.64 116.82 346.64 108.91 348.93 106.6 365.26 106.6 365.26 119.14 348.95 119.14 346.64 116.82"/><polygon class="cls-20" points="349.04 109.21 349.05 109.21 351.19 107.02 352.78 107.02 350.64 109.21 350.63 109.21 350.63 116.56 350.64 116.56 352.78 118.75 351.19 118.75 349.07 116.58 349.04 116.58 349.04 109.21"/><rect class="cls-21" x="347.02" y="109.82" width="1.87" height="6.13"/><polygon class="cls-19" points="346.64 65.16 346.64 57.24 348.93 54.94 365.26 54.94 365.26 67.48 348.95 67.48 346.64 65.16"/><polygon class="cls-20" points="349.04 57.55 349.05 57.55 351.19 55.35 352.78 55.35 350.64 57.55 350.63 57.55 350.63 64.9 350.64 64.9 352.78 67.09 351.19 67.09 349.07 64.92 349.04 64.92 349.04 57.55"/><rect class="cls-21" x="347.02" y="58.16" width="1.87" height="6.13"/><polygon class="cls-19" points="346.64 52.19 346.64 44.27 348.94 41.97 365.27 41.97 365.27 54.51 348.96 54.51 346.64 52.19"/><polygon class="cls-20" points="349.05 44.57 349.06 44.57 351.2 42.38 352.79 42.38 350.65 44.57 350.64 44.57 350.64 51.93 350.65 51.93 352.79 54.12 351.2 54.12 349.08 51.95 349.05 51.95 349.05 44.57"/><rect class="cls-21" x="347.02" y="45.19" width="1.87" height="6.13"/><polygon class="cls-19" points="323.18 103.73 323.18 95.81 325.48 93.51 341.81 93.51 341.81 106.05 325.5 106.05 323.18 103.73"/><polygon class="cls-20" points="325.58 96.12 325.59 96.12 327.73 93.93 329.32 93.93 327.18 96.12 327.18 96.12 327.18 103.47 327.18 103.47 329.32 105.66 327.73 105.66 325.61 103.49 325.58 103.49 325.58 96.12"/><rect class="cls-21" x="323.56" y="96.73" width="1.87" height="6.13"/><polygon class="cls-19" points="323.18 90.76 323.18 82.84 325.48 80.54 341.81 80.54 341.81 93.08 325.49 93.08 323.18 90.76"/><polygon class="cls-20" points="325.58 83.15 325.59 83.15 327.73 80.96 329.32 80.96 327.18 83.15 327.17 83.15 327.17 90.5 327.18 90.5 329.32 92.69 327.73 92.69 325.61 90.52 325.58 90.52 325.58 83.15"/><rect class="cls-21" x="323.56" y="83.76" width="1.87" height="6.13"/><polygon class="cls-19" points="323.18 116.82 323.18 108.91 325.48 106.6 341.81 106.6 341.81 119.14 325.5 119.14 323.18 116.82"/><polygon class="cls-20" points="325.58 109.21 325.59 109.21 327.73 107.02 329.32 107.02 327.18 109.21 327.18 109.21 327.18 116.56 327.18 116.56 329.32 118.75 327.73 118.75 325.61 116.58 325.58 116.58 325.58 109.21"/><rect class="cls-21" x="323.56" y="109.82" width="1.87" height="6.13"/><polygon class="cls-19" points="323.18 65.16 323.18 57.24 325.48 54.94 341.81 54.94 341.81 67.48 325.5 67.48 323.18 65.16"/><polygon class="cls-20" points="325.59 57.55 325.59 57.55 327.73 55.35 329.32 55.35 327.18 57.55 327.18 57.55 327.18 64.9 327.18 64.9 329.32 67.09 327.73 67.09 325.61 64.92 325.59 64.92 325.59 57.55"/><rect class="cls-21" x="323.56" y="58.16" width="1.87" height="6.13"/><polygon class="cls-19" points="323.19 52.19 323.19 44.27 325.49 41.97 341.81 41.97 341.81 54.51 325.5 54.51 323.19 52.19"/><polygon class="cls-20" points="325.6 44.57 325.6 44.57 327.74 42.38 329.33 42.38 327.19 44.57 327.18 44.57 327.18 51.93 327.19 51.93 329.33 54.12 327.74 54.12 325.62 51.95 325.6 51.95 325.6 44.57"/><rect class="cls-21" x="323.57" y="45.19" width="1.87" height="6.13"/><polygon class="cls-19" points="250.29 57.37 250.29 65.29 248 67.59 231.66 67.59 231.66 55.06 247.98 55.06 250.29 57.37"/><polygon class="cls-20" points="247.89 64.99 247.88 64.99 245.74 67.18 244.15 67.18 246.29 64.99 246.3 64.99 246.3 57.63 246.29 57.63 244.15 55.44 245.74 55.44 247.86 57.61 247.89 57.61 247.89 64.99"/><rect class="cls-21" x="248.05" y="58.24" width="1.87" height="6.13"/><polygon class="cls-19" points="250.29 70.35 250.29 78.26 248 80.56 231.67 80.56 231.67 68.03 247.98 68.03 250.29 70.35"/><polygon class="cls-20" points="247.89 77.96 247.88 77.96 245.74 80.15 244.16 80.15 246.29 77.96 246.3 77.96 246.3 70.61 246.29 70.61 244.16 68.42 245.74 68.42 247.87 70.58 247.89 70.58 247.89 77.96"/><rect class="cls-21" x="248.05" y="71.22" width="1.87" height="6.13"/><polygon class="cls-19" points="250.29 44.28 250.29 52.2 248 54.5 231.67 54.5 231.67 41.97 247.98 41.97 250.29 44.28"/><polygon class="cls-20" points="247.89 51.9 247.88 51.9 245.74 54.09 244.15 54.09 246.29 51.9 246.3 51.9 246.3 44.55 246.29 44.55 244.15 42.35 245.74 42.35 247.86 44.52 247.89 44.52 247.89 51.9"/><rect class="cls-21" x="248.05" y="45.15" width="1.87" height="6.13"/><polygon class="cls-19" points="250.29 95.94 250.29 103.86 248 106.17 231.67 106.17 231.67 93.63 247.98 93.63 250.29 95.94"/><polygon class="cls-20" points="247.89 103.56 247.88 103.56 245.74 105.75 244.15 105.75 246.29 103.56 246.3 103.56 246.3 96.2 246.29 96.2 244.15 94.01 245.74 94.01 247.86 96.18 247.89 96.18 247.89 103.56"/><rect class="cls-21" x="248.04" y="96.81" width="1.87" height="6.13"/><polygon class="cls-19" points="250.28 108.92 250.28 116.84 247.99 119.14 231.66 119.14 231.66 106.6 247.97 106.6 250.28 108.92"/><polygon class="cls-20" points="247.88 116.53 247.87 116.53 245.73 118.73 244.14 118.73 246.28 116.53 246.29 116.53 246.29 109.18 246.28 109.18 244.14 106.99 245.73 106.99 247.85 109.16 247.88 109.16 247.88 116.53"/><rect class="cls-21" x="248.04" y="109.79" width="1.87" height="6.13"/><polygon class="cls-19" points="205.86 57.37 205.86 65.29 208.16 67.59 224.49 67.59 224.49 55.06 208.18 55.06 205.86 57.37"/><polygon class="cls-20" points="208.27 64.99 208.27 64.99 210.41 67.18 212 67.18 209.86 64.99 209.86 64.99 209.86 57.63 209.86 57.63 212 55.44 210.41 55.44 208.29 57.61 208.27 57.61 208.27 64.99"/><rect class="cls-21" x="206.24" y="58.24" width="1.87" height="6.13"/><polygon class="cls-19" points="205.86 70.35 205.86 78.26 208.16 80.56 224.49 80.56 224.49 68.03 208.17 68.03 205.86 70.35"/><polygon class="cls-20" points="208.27 77.96 208.27 77.96 210.41 80.15 212 80.15 209.86 77.96 209.85 77.96 209.85 70.61 209.86 70.61 212 68.42 210.41 68.42 208.29 70.58 208.27 70.58 208.27 77.96"/><rect class="cls-21" x="206.24" y="71.22" width="1.87" height="6.13"/><polygon class="cls-19" points="205.86 44.28 205.86 52.2 208.16 54.5 224.49 54.5 224.49 41.97 208.18 41.97 205.86 44.28"/><polygon class="cls-20" points="208.27 51.9 208.27 51.9 210.41 54.09 212 54.09 209.86 51.9 209.86 51.9 209.86 44.55 209.86 44.55 212 42.35 210.41 42.35 208.29 44.52 208.27 44.52 208.27 51.9"/><rect class="cls-21" x="206.24" y="45.15" width="1.87" height="6.13"/><polygon class="cls-19" points="205.86 95.94 205.86 103.86 208.16 106.17 224.49 106.17 224.49 93.63 208.18 93.63 205.86 95.94"/><polygon class="cls-20" points="208.27 103.56 208.27 103.56 210.41 105.75 212 105.75 209.86 103.56 209.86 103.56 209.86 96.2 209.86 96.2 212 94.01 210.41 94.01 208.29 96.18 208.27 96.18 208.27 103.56"/><rect class="cls-21" x="206.24" y="96.81" width="1.87" height="6.13"/><polygon class="cls-19" points="205.87 108.92 205.87 116.84 208.17 119.14 224.5 119.14 224.5 106.6 208.19 106.6 205.87 108.92"/><polygon class="cls-20" points="208.28 116.53 208.28 116.53 210.42 118.73 212.01 118.73 209.87 116.53 209.87 116.53 209.87 109.18 209.87 109.18 212.01 106.99 210.42 106.99 208.3 109.16 208.28 109.16 208.28 116.53"/><rect class="cls-21" x="206.25" y="109.79" width="1.87" height="6.13"/><polygon class="cls-19" points="183.06 57.37 183.06 65.29 185.36 67.59 201.69 67.59 201.69 55.06 185.37 55.06 183.06 57.37"/><polygon class="cls-20" points="185.46 64.99 185.47 64.99 187.61 67.18 189.2 67.18 187.06 64.99 187.05 64.99 187.05 57.63 187.06 57.63 189.2 55.44 187.61 55.44 185.49 57.61 185.46 57.61 185.46 64.99"/><rect class="cls-21" x="183.44" y="58.24" width="1.87" height="6.13"/><polygon class="cls-19" points="183.06 70.35 183.06 78.26 185.36 80.56 201.69 80.56 201.69 68.03 185.37 68.03 183.06 70.35"/><polygon class="cls-20" points="185.46 77.96 185.47 77.96 187.61 80.15 189.2 80.15 187.06 77.96 187.05 77.96 187.05 70.61 187.06 70.61 189.2 68.42 187.61 68.42 185.49 70.58 185.46 70.58 185.46 77.96"/><rect class="cls-21" x="183.44" y="71.22" width="1.87" height="6.13"/><polygon class="cls-19" points="183.06 44.28 183.06 52.2 185.36 54.5 201.69 54.5 201.69 41.97 185.37 41.97 183.06 44.28"/><polygon class="cls-20" points="185.46 51.9 185.47 51.9 187.61 54.09 189.2 54.09 187.06 51.9 187.05 51.9 187.05 44.55 187.06 44.55 189.2 42.35 187.61 42.35 185.49 44.52 185.46 44.52 185.46 51.9"/><rect class="cls-21" x="183.44" y="45.15" width="1.87" height="6.13"/><polygon class="cls-19" points="183.06 95.94 183.06 103.86 185.36 106.17 201.69 106.17 201.69 93.63 185.38 93.63 183.06 95.94"/><polygon class="cls-20" points="185.47 103.56 185.47 103.56 187.61 105.75 189.2 105.75 187.06 103.56 187.06 103.56 187.06 96.2 187.06 96.2 189.2 94.01 187.61 94.01 185.49 96.18 185.47 96.18 185.47 103.56"/><rect class="cls-21" x="183.44" y="96.81" width="1.87" height="6.13"/><polygon class="cls-19" points="183.07 108.92 183.07 116.84 185.37 119.14 201.69 119.14 201.69 106.6 185.38 106.6 183.07 108.92"/><polygon class="cls-20" points="185.47 116.53 185.48 116.53 187.62 118.73 189.21 118.73 187.07 116.53 187.06 116.53 187.06 109.18 187.07 109.18 189.21 106.99 187.62 106.99 185.5 109.16 185.47 109.16 185.47 116.53"/><rect class="cls-21" x="183.45" y="109.79" width="1.87" height="6.13"/><polygon class="cls-19" points="159.67 57.37 159.67 65.29 161.97 67.59 178.3 67.59 178.3 55.06 161.99 55.06 159.67 57.37"/><polygon class="cls-20" points="162.08 64.99 162.09 64.99 164.23 67.18 165.82 67.18 163.68 64.99 163.67 64.99 163.67 57.63 163.68 57.63 165.82 55.44 164.23 55.44 162.1 57.61 162.08 57.61 162.08 64.99"/><rect class="cls-21" x="160.06" y="58.24" width="1.87" height="6.13"/><polygon class="cls-19" points="159.67 70.35 159.67 78.26 161.97 80.56 178.3 80.56 178.3 68.03 161.99 68.03 159.67 70.35"/><polygon class="cls-20" points="162.08 77.96 162.08 77.96 164.22 80.15 165.81 80.15 163.67 77.96 163.67 77.96 163.67 70.61 163.67 70.61 165.81 68.42 164.22 68.42 162.1 70.58 162.08 70.58 162.08 77.96"/><rect class="cls-21" x="160.05" y="71.22" width="1.87" height="6.13"/><polygon class="cls-19" points="159.67 44.28 159.67 52.2 161.97 54.5 178.3 54.5 178.3 41.97 161.99 41.97 159.67 44.28"/><polygon class="cls-20" points="162.08 51.9 162.09 51.9 164.23 54.09 165.82 54.09 163.68 51.9 163.67 51.9 163.67 44.55 163.68 44.55 165.82 42.35 164.23 42.35 162.1 44.52 162.08 44.52 162.08 51.9"/><rect class="cls-21" x="160.06" y="45.15" width="1.87" height="6.13"/><polygon class="cls-19" points="159.67 95.94 159.67 103.86 161.97 106.17 178.3 106.17 178.3 93.63 161.99 93.63 159.67 95.94"/><polygon class="cls-20" points="162.08 103.56 162.09 103.56 164.23 105.75 165.82 105.75 163.68 103.56 163.67 103.56 163.67 96.2 163.68 96.2 165.82 94.01 164.23 94.01 162.11 96.18 162.08 96.18 162.08 103.56"/><rect class="cls-21" x="160.06" y="96.81" width="1.87" height="6.13"/><polygon class="cls-19" points="159.68 108.92 159.68 116.84 161.98 119.14 178.31 119.14 178.31 106.6 162 106.6 159.68 108.92"/><polygon class="cls-20" points="162.09 116.53 162.09 116.53 164.24 118.73 165.82 118.73 163.69 116.53 163.68 116.53 163.68 109.18 163.69 109.18 165.82 106.99 164.24 106.99 162.12 109.16 162.09 109.16 162.09 116.53"/><rect class="cls-21" x="160.06" y="109.79" width="1.87" height="6.13"/><path class="cls-22" d="M321,83.25h-9.62c-1.22,0-2.22.66-2.22,1.48v19.72c0,.81,1,1.48,2.22,1.48H321Z"/><path class="cls-22" d="M319.57,94.9a.85.85,0,0,1,.9.8v9a.85.85,0,0,1-.9.8H309.34a.85.85,0,0,1-.9-.8v-9a.85.85,0,0,1,.9-.8Z"/><path class="cls-22" d="M319.56,83.47a.85.85,0,0,1,.9.8v9a.85.85,0,0,1-.9.8H309.33a.85.85,0,0,1-.9-.8v-9a.85.85,0,0,1,.9-.8Z"/><rect class="cls-20" x="317.76" y="83.78" width="1.36" height="9.99"/><rect class="cls-20" x="317.78" y="95.19" width="1.36" height="9.99"/><polygon class="cls-19" points="91.42 60.59 91.42 69.01 88.98 71.45 71.63 71.45 71.63 58.13 88.96 58.13 91.42 60.59"/><polygon class="cls-20" points="88.86 68.69 88.86 68.69 86.58 71.01 84.89 71.01 87.17 68.69 87.17 68.69 87.17 60.87 87.17 60.87 84.89 58.54 86.58 58.54 88.84 60.85 88.86 60.85 88.86 68.69"/><rect class="cls-21" x="89.03" y="61.52" width="1.98" height="6.52"/><polygon class="cls-23" points="94.72 95.66 94.72 104.08 92.27 106.52 74.92 106.52 74.92 93.2 92.25 93.2 94.72 95.66"/><polygon class="cls-20" points="92.16 103.76 92.15 103.76 89.88 106.08 88.19 106.08 90.46 103.76 90.47 103.76 90.47 95.94 90.46 95.94 88.19 93.61 89.88 93.61 92.13 95.92 92.16 95.92 92.16 103.76"/><rect class="cls-21" x="92.33" y="96.59" width="1.98" height="6.52"/></g><g id="Symboler-4" data-name="Symboler"><rect class="cls-24" x="498.12" y="126" width="31.11" height="31.15"/><path class="cls-25" d="M514.41,134.28a1.8,1.8,0,1,0-1.79-1.8,1.8,1.8,0,0,0,1.79,1.8"/><path class="cls-25" d="M512.62,143.26v-2.83l-2.51,1.3a1,1,0,0,1-1.4-.38,1,1,0,0,1,.37-1.4l3.54-2.08v-1.28a1.79,1.79,0,1,1,3.58,0v6.26c0,1.11-.56,1.25-1,1.58V153a1,1,0,1,1-2,0v-7.53l-3,1.64,0,3.79a1,1,0,1,1-2,0V146.6c0-.57,1.05-1.25,1.05-1.25l3.54-2.09"/><path class="cls-25" d="M515.42,140l1.71,3.6a1,1,0,1,0,1.88-.8l-2.94-6.82"/><path class="cls-25" d="M522,140.85a1.51,1.51,0,1,0-1.5-1.51,1.5,1.5,0,0,0,1.5,1.51"/><path class="cls-25" d="M522.36,147.38l-2,6.15a.72.72,0,0,1-.9.47.71.71,0,0,1-.47-.9l1.91-5.82"/><path class="cls-25" d="M521.3,147.38l2,6.15a.72.72,0,0,0,.9.47.72.72,0,0,0,.47-.9l-1.91-5.82"/><path class="cls-25" d="M520.7,142.5a1.26,1.26,0,0,1,1.25-1.26H522a1.27,1.27,0,0,1,1.26,1.26v4.32a1.26,1.26,0,0,1-1.26,1.26H522a1.25,1.25,0,0,1-1.25-1.26Z"/><path class="cls-25" d="M520.61,144.6l-1.57-.81a.63.63,0,0,0-.87.23.64.64,0,0,0,.23.87l2.21,1.3"/><rect class="cls-25" x="512.25" y="154.63" width="16.98" height="2.51"/><rect class="cls-25" x="498.05" y="154.86" width="12.74" height="2.32"/><rect class="cls-25" x="498.05" y="151.54" width="9.34" height="3.94"/><rect class="cls-25" x="498.05" y="148.6" width="6.17" height="3.63"/><polygon class="cls-25" points="510.77 126 510.77 126 498.12 126 498.12 127.14 509.16 127.14 509.16 129.9 510.79 129.9 510.79 126 510.77 126"/><rect class="cls-24" x="497.69" y="4.01" width="31.11" height="31.15"/><path class="cls-25" d="M514,12.29a1.8,1.8,0,1,0-1.79-1.8,1.8,1.8,0,0,0,1.79,1.8"/><path class="cls-25" d="M512.19,21.27V18.44l-2.52,1.3a1,1,0,0,1-1.39-.37,1,1,0,0,1,.37-1.4l3.54-2.09V14.6a1.79,1.79,0,1,1,3.58,0v6.26c0,1.12-.56,1.25-1,1.59V31a1,1,0,1,1-2,0V23.5l-3,1.64,0,3.78a1,1,0,1,1-2.05,0V24.61c0-.57,1.06-1.25,1.06-1.25l3.54-2.09"/><path class="cls-25" d="M515,18l1.71,3.59a1,1,0,0,0,1.34.54,1,1,0,0,0,.54-1.34L515.64,14"/><path class="cls-25" d="M521.59,18.87a1.51,1.51,0,1,0-1.5-1.51,1.51,1.51,0,0,0,1.5,1.51"/><path class="cls-25" d="M521.93,25.39l-2,6.16a.72.72,0,1,1-1.37-.44l1.91-5.82"/><path class="cls-25" d="M520.87,25.39l2,6.16a.71.71,0,0,0,.89.47.73.73,0,0,0,.48-.91l-1.91-5.82"/><path class="cls-25" d="M520.27,20.52a1.25,1.25,0,0,1,1.25-1.26h.07a1.25,1.25,0,0,1,1.25,1.26v4.32a1.26,1.26,0,0,1-1.25,1.26h-.07a1.26,1.26,0,0,1-1.25-1.26Z"/><path class="cls-25" d="M520.18,22.61l-1.57-.81a.64.64,0,0,0-.87.23.66.66,0,0,0,.23.88l2.21,1.29"/><rect class="cls-25" x="511.82" y="32.64" width="16.98" height="2.51"/><rect class="cls-25" x="497.62" y="32.87" width="12.74" height="2.32"/><rect class="cls-25" x="497.62" y="29.55" width="9.34" height="3.94"/><rect class="cls-25" x="497.62" y="26.61" width="6.17" height="3.63"/><polygon class="cls-25" points="510.35 4.01 510.35 4.01 497.69 4.01 497.69 5.16 508.73 5.16 508.73 7.91 510.35 7.91 510.35 4.01 510.35 4.01"/><polyline class="cls-26" points="487.2 122.55 487.2 126.55 483.2 126.55"/><line class="cls-27" x1="478.1" y1="126.55" x2="470.45" y2="126.55"/><polyline class="cls-26" points="467.9 126.55 463.9 126.55 463.9 122.55"/><line class="cls-28" x1="463.9" y1="114.91" x2="463.9" y2="103.45"/><line class="cls-29" x1="463.9" y1="99.63" x2="463.9" y2="42.34"/><polyline class="cls-26" points="463.9 38.52 463.9 34.52 467.9 34.52"/><line class="cls-27" x1="473" y1="34.52" x2="480.65" y2="34.52"/><polyline class="cls-26" points="483.2 34.52 487.2 34.52 487.2 38.52"/><line class="cls-28" x1="487.2" y1="46.16" x2="487.2" y2="57.62"/><line class="cls-29" x1="487.2" y1="61.44" x2="487.2" y2="118.73"/><rect class="cls-24" x="265.41" y="126" width="31.11" height="31.15"/><path class="cls-25" d="M281.7,134.28a1.8,1.8,0,1,0-1.79-1.8,1.8,1.8,0,0,0,1.79,1.8"/><path class="cls-25" d="M279.91,143.25v-2.82l-2.51,1.3a1,1,0,0,1-1.4-.38,1,1,0,0,1,.37-1.4l3.54-2.08v-1.28a1.79,1.79,0,1,1,3.58,0v6.26c0,1.11-.56,1.24-1,1.58V153a1,1,0,1,1-2.05,0v-7.53l-3,1.64,0,3.79a1,1,0,1,1-2,0V146.6c0-.57,1.05-1.26,1.05-1.26l3.54-2.08"/><path class="cls-25" d="M282.71,140l1.71,3.6a1,1,0,0,0,1.34.54,1,1,0,0,0,.54-1.35l-2.94-6.81"/><path class="cls-25" d="M289.31,140.85a1.51,1.51,0,1,0-1.5-1.51,1.5,1.5,0,0,0,1.5,1.51"/><path class="cls-25" d="M289.65,147.38l-2,6.15a.72.72,0,0,1-.9.47.72.72,0,0,1-.47-.9l1.91-5.82"/><path class="cls-25" d="M288.59,147.38l2,6.15a.72.72,0,0,0,.9.47.72.72,0,0,0,.47-.9L290,147.28"/><path class="cls-25" d="M288,142.5a1.26,1.26,0,0,1,1.25-1.26h.07a1.26,1.26,0,0,1,1.26,1.26v4.32a1.25,1.25,0,0,1-1.26,1.26h-.07a1.25,1.25,0,0,1-1.25-1.26Z"/><path class="cls-25" d="M287.9,144.59l-1.57-.8a.63.63,0,0,0-.87.23.64.64,0,0,0,.24.87l2.2,1.3"/><rect class="cls-25" x="279.54" y="154.63" width="16.98" height="2.51"/><rect class="cls-25" x="265.34" y="154.86" width="12.74" height="2.32"/><rect class="cls-25" x="265.34" y="151.54" width="9.34" height="3.94"/><rect class="cls-25" x="265.34" y="148.6" width="6.17" height="3.63"/><polygon class="cls-25" points="278.07 126 278.07 126 265.41 126 265.41 127.14 276.45 127.14 276.45 129.89 278.08 129.89 278.08 126 278.07 126"/><rect class="cls-24" x="265.5" y="4.05" width="31.11" height="31.15"/><path class="cls-25" d="M281.8,12.33a1.8,1.8,0,1,0-1.79-1.8,1.79,1.79,0,0,0,1.79,1.8"/><path class="cls-25" d="M280,21.31V18.48l-2.52,1.3a1,1,0,0,1-1.39-.37,1,1,0,0,1,.37-1.4L280,15.92V14.64a1.79,1.79,0,1,1,3.58,0V20.9c0,1.11-.55,1.25-1,1.58v8.58a1,1,0,1,1-2.05,0V23.53l-3,1.64,0,3.79a1,1,0,1,1-2,0V24.65c0-.57,1.06-1.25,1.06-1.25L280,21.31"/><path class="cls-25" d="M282.8,18l1.72,3.6a1,1,0,1,0,1.88-.8L283.46,14"/><path class="cls-25" d="M289.41,18.9a1.51,1.51,0,1,0-1.5-1.51,1.5,1.5,0,0,0,1.5,1.51"/><path class="cls-25" d="M289.75,25.43l-2,6.15a.7.7,0,0,1-.89.47.72.72,0,0,1-.48-.9l1.92-5.82"/><path class="cls-25" d="M288.68,25.43l2,6.15a.72.72,0,0,0,1.38-.43l-1.91-5.82"/><rect class="cls-25" x="288.08" y="19.29" width="2.58" height="6.84" rx="1.26" ry="1.26"/><path class="cls-25" d="M288,22.65l-1.57-.81a.64.64,0,1,0-.64,1.1l2.21,1.3"/><rect class="cls-25" x="279.64" y="32.68" width="16.98" height="2.51"/><rect class="cls-25" x="265.44" y="32.91" width="12.74" height="2.32"/><rect class="cls-25" x="265.44" y="29.59" width="9.34" height="3.94"/><rect class="cls-25" x="265.44" y="26.65" width="6.17" height="3.63"/><polygon class="cls-25" points="278.16 4.05 278.16 4.05 265.5 4.05 265.5 5.2 276.55 5.2 276.55 7.95 278.17 7.95 278.17 4.05 278.16 4.05"/><polyline class="cls-26" points="344.19 66.14 344.19 70.14 340.19 70.14"/><line class="cls-30" x1="334.81" y1="70.14" x2="326.74" y2="70.14"/><polyline class="cls-26" points="324.05 70.14 320.05 70.14 320.05 66.14"/><line class="cls-31" x1="320.05" y1="62.13" x2="320.05" y2="56.11"/><line class="cls-32" x1="320.05" y1="54.1" x2="320.05" y2="40.07"/><polyline class="cls-26" points="320.05 38.06 320.05 34.06 324.05 34.06"/><line class="cls-30" x1="329.43" y1="34.06" x2="337.5" y2="34.06"/><polyline class="cls-26" points="340.19 34.06 344.19 34.06 344.19 38.06"/><line class="cls-31" x1="344.19" y1="42.07" x2="344.19" y2="48.09"/><line class="cls-32" x1="344.19" y1="50.09" x2="344.19" y2="64.13"/><line class="cls-26" x1="332.02" y1="137.52" x2="336.02" y2="137.52"/><line class="cls-33" x1="343.18" y1="137.52" x2="353.91" y2="137.52"/><line class="cls-34" x1="357.48" y1="137.52" x2="468.35" y2="137.52"/><line class="cls-26" x1="471.93" y1="137.52" x2="475.93" y2="137.52"/><line class="cls-26" x1="332.35" y1="70.23" x2="332.35" y2="74.23"/><line class="cls-35" x1="332.35" y1="82.78" x2="332.35" y2="95.6"/><line class="cls-36" x1="332.35" y1="99.88" x2="332.35" y2="129.79"/><line class="cls-26" x1="332.35" y1="134.07" x2="332.35" y2="138.07"/><line class="cls-26" x1="475.76" y1="126.73" x2="475.76" y2="130.73"/><line class="cls-37" x1="475.76" y1="131.73" x2="475.76" y2="133.23"/><line class="cls-26" x1="475.76" y1="133.73" x2="475.76" y2="137.73"/><rect class="cls-38" x="405.9" y="131.7" width="25.45" height="25.45"/><path class="cls-39" d="M420.12,133.05a1.93,1.93,0,1,1-2,1.93A1.95,1.95,0,0,1,420.12,133.05Z"/><path class="cls-39" d="M410.78,139.8l1.47,7.61a3.49,3.49,0,0,0,3.21,3.08l4.77,0c1.11,0,1.11-1.15,0-1.22l-4.33,0c-1.54-.09-2.28-.69-2.56-2.4l-1.49-7.38C411.69,138.91,410.6,139,410.78,139.8Z"/><path class="cls-39" d="M416.46,139c.22-1.16,1-1.8,3.16-1.31l6.87,1.38A1,1,0,0,1,426,141l-5.87-1.2-1.75,5.86h3.5c1.14,0,1.61.53,1.74,1.31l1.19,7.75a1.12,1.12,0,0,1-2.23.26l-1-6.55-5.8.07c-1.11-.05-1.76-1.41-1.37-2.77Z"/><path class="cls-39" d="M425.08,143.42c-.09.49-.64.41-.6-.09.06-2.32,3.21-2.31,3,.25v11.83a.33.33,0,0,1-.64,0l0-12.3C426.74,141.83,425,142.18,425.08,143.42Z"/><rect class="cls-38" x="378.95" y="131.64" width="25.45" height="25.45"/><path class="cls-39" d="M387.76,133a1.93,1.93,0,1,1-2,1.93A1.95,1.95,0,0,1,387.76,133Z"/><path class="cls-39" d="M384.42,139.74l1.48,7.61a3.47,3.47,0,0,0,3.21,3.09l4.76,0c1.12,0,1.12-1.16,0-1.22l-4.33,0c-1.54-.08-2.28-.69-2.56-2.4l-1.49-7.37C385.33,138.85,384.24,138.89,384.42,139.74Z"/><path class="cls-39" d="M386.29,139.47l1.41,7.24a2.07,2.07,0,0,0,2.49,1.82h5.24l1.12,6.59c.17,1.22,2.44.93,2.23-.33l-1.19-7.68c-.18-.9-.84-1.36-2-1.38l-1.08.07c.83-2.83-.88-5.13-4.24-4.84l-.4-2.26C389.4,137,385.94,137.3,386.29,139.47Z"/><polygon class="cls-40" points="127.22 44.53 125.16 52.77 127.85 51.06 127.11 55.13 125.82 54.84 126.66 60.2 130.13 55.37 128.39 55.25 130.61 48.29 127.68 49.67 129.65 44.53 127.22 44.53"/><polygon class="cls-40" points="126.89 101.57 124.82 109.82 127.52 108.11 126.77 112.17 125.49 111.89 126.33 117.24 129.8 112.42 128.06 112.3 130.28 105.33 127.35 106.71 129.32 101.57 126.89 101.57"/></g></g></svg>