<svg xmlns="http://www.w3.org/2000/svg" xmlns:xlink="http://www.w3.org/1999/xlink" viewBox="0 0 680 160"><defs><style>.cls-1{fill:#c6c6c5;}.cls-14,.cls-2{fill:#b1b1b1;}.cls-10,.cls-11,.cls-12,.cls-14,.cls-15,.cls-16,.cls-17,.cls-2,.cls-21,.cls-22,.cls-26,.cls-27,.cls-28,.cls-29,.cls-3,.cls-30,.cls-31,.cls-32,.cls-33,.cls-34,.cls-35,.cls-37,.cls-38,.cls-39,.cls-4,.cls-5,.cls-6,.cls-9{stroke:#000;}.cls-10,.cls-11,.cls-12,.cls-14,.cls-15,.cls-16,.cls-17,.cls-2,.cls-21,.cls-22,.cls-26,.cls-27,.cls-28,.cls-29,.cls-3,.cls-30,.cls-31,.cls-32,.cls-33,.cls-34,.cls-35,.cls-37,.cls-38,.cls-39,.cls-4,.cls-40,.cls-45,.cls-46,.cls-47,.cls-48,.cls-5,.cls-51,.cls-52,.cls-53,.cls-54,.cls-6,.cls-9{stroke-miterlimit:10;}.cls-12,.cls-15,.cls-17,.cls-2,.cls-21,.cls-35,.cls-5,.cls-9{stroke-width:0.25px;}.cls-21,.cls-3,.cls-8{fill:#6dc6d9;}.cls-10,.cls-11,.cls-14,.cls-16,.cls-26,.cls-27,.cls-28,.cls-29,.cls-3,.cls-30,.cls-31,.cls-32,.cls-33,.cls-34,.cls-37,.cls-38,.cls-39,.cls-4,.cls-6{stroke-width:0.5px;}.cls-4,.cls-5{fill:#3d3d3c;}.cls-6,.cls-7,.cls-9{fill:#3c3c3b;}.cls-10{fill:url(#Fading_Sky);}.cls-11{fill:url(#Fading_Sky-2);}.cls-12{fill:#575756;}.cls-13{fill:#ffec00;}.cls-15{fill:url(#linear-gradient);}.cls-16{fill:#e20613;}.cls-17{fill:#6f6f6e;}.cls-18,.cls-41{fill:#ffd421;}.cls-18,.cls-44,.cls-50{fill-rule:evenodd;}.cls-19,.cls-20,.cls-26,.cls-28,.cls-29,.cls-30,.cls-31,.cls-32,.cls-33,.cls-34,.cls-37,.cls-38,.cls-39,.cls-40,.cls-45,.cls-46,.cls-47,.cls-48,.cls-51,.cls-52,.cls-53,.cls-54{fill:none;}.cls-19,.cls-20{stroke:#000100;stroke-miterlimit:2;stroke-width:0.71px;}.cls-19{stroke-linecap:round;}.cls-22,.cls-25,.cls-27{fill:#9d9b9b;}.cls-22{stroke-width:0.75px;}.cls-23{fill:#7b7b7a;}.cls-24,.cls-44{fill:#fff;}.cls-26{stroke-dasharray:2.04 1.02;}.cls-28{stroke-dasharray:2.04 1.02;}.cls-29{stroke-dasharray:2.04 1.02;}.cls-30{stroke-dasharray:2.04 1.02;}.cls-31{stroke-dasharray:2.04 1.02;}.cls-32{stroke-dasharray:2.04 1.02;}.cls-33{stroke-dasharray:2.04 1.02;}.cls-34{stroke-dasharray:2.04 1.02;}.cls-35{fill:#f7f7f7;}.cls-36{fill:#ffd500;}.cls-37{stroke-dasharray:2.04 1.02;}.cls-38{stroke-dasharray:2.04 1.02;}.cls-39{stroke-dasharray:2.04 1.02;}.cls-40,.cls-45,.cls-46,.cls-47,.cls-48,.cls-51,.cls-52,.cls-53,.cls-54{stroke:#e20613;}.cls-40{stroke-dasharray:8 7 8 8;}.cls-42{fill:#000100;}.cls-43{fill:#251a5f;}.cls-46{stroke-dasharray:6.9 6.9;}.cls-47{stroke-dasharray:8.01 8.01;}.cls-48{stroke-dasharray:8 7;}.cls-49{fill:#1d1d1b;}.cls-50{fill:#cd1625;}.cls-51{stroke-dasharray:8;}.cls-52{stroke-dasharray:7.32 7.32;}.cls-53{stroke-dasharray:5.45 5.45;}.cls-54{stroke-dasharray:5.45 5.45 5.45 5.45;}.cls-55{fill:#29295d;}</style><linearGradient id="Fading_Sky" x1="632.43" y1="57.32" x2="637.22" y2="57.32" gradientUnits="userSpaceOnUse"><stop offset="0" stop-color="#2580c3"/><stop offset="1" stop-color="#2580c3" stop-opacity="0"/></linearGradient><linearGradient id="Fading_Sky-2" x1="632.43" y1="-458.57" x2="637.22" y2="-458.57" gradientTransform="matrix(1, 0, 0, -1, 0, -355.88)" xlink:href="#Fading_Sky"/><linearGradient id="linear-gradient" x1="616.12" y1="80.06" x2="630.51" y2="80.06" gradientUnits="userSpaceOnUse"><stop offset="0" stop-color="#fff"/><stop offset="1"/></linearGradient></defs><title>Type75_vogn1_BMa</title><g id="Type75_vogn1_BMa"><g id="VOGNKASSE-5" data-name="VOGNKASSE"><rect class="cls-1" x="18.72" y="69.6" width="19.07" height="20.5"/><path class="cls-1" d="M634.87,80c0-17.59-9.81-32.72-23.91-39.57-6.19-3.24-16.71-5.37-28.65-5.37q-1.09,0-2.16,0v0l-27.37-.23v.06H32.87v90.71H553v0l27.17-.24v-.18h1.4c9.27,0,17.68-1.29,23.88-3.39C622.44,116.52,634.87,99.82,634.87,80Z"/><path class="cls-2" d="M410,65v0l-11.77-2.07V34.63H103.41v40.7l-6.57,2.49v0a1.19,1.19,0,0,0-.64,1.06V94.25A1.17,1.17,0,0,0,97,95.36l6.43,2.44v27.53H398.24V91.16l.05,0V84.55L410,82.49h0a.56.56,0,0,0,.45-.54V65.55A.56.56,0,0,0,410,65Z"/><rect class="cls-3" x="31.92" y="34.7" width="79.21" height="3.56"/><rect class="cls-3" x="157.77" y="34.7" width="178.48" height="3.56"/><rect class="cls-3" x="399.34" y="34.7" width="153.31" height="3.56"/><rect class="cls-4" x="214.18" y="34.71" width="15.11" height="3.54"/><rect class="cls-4" x="273.96" y="34.71" width="13.85" height="3.54"/><polygon class="cls-4" points="344.69 34.71 335.87 34.71 335.87 34.71 330.31 34.71 330.31 38.25 336.83 38.25 336.83 36.21 344.69 36.21 344.69 34.71"/><polygon class="cls-4" points="157.42 34.71 166.23 34.71 166.23 34.71 171.79 34.71 171.79 38.25 165.27 38.25 165.27 36.21 157.42 36.21 157.42 34.71"/><rect class="cls-3" x="31.92" y="121.95" width="78.74" height="3.56"/><rect class="cls-3" x="157.57" y="121.95" width="178.66" height="3.56"/><rect class="cls-3" x="399.32" y="121.95" width="153.31" height="3.56"/><rect class="cls-4" x="214.34" y="121.94" width="15.11" height="3.54"/><rect class="cls-4" x="273.94" y="121.96" width="13.85" height="3.54"/><polygon class="cls-4" points="344.67 125.5 335.86 125.5 335.86 125.5 330.3 125.5 330.3 121.96 336.82 121.96 336.82 124 344.67 124 344.67 125.5"/><polygon class="cls-4" points="157.41 125.5 166.22 125.5 166.22 125.5 171.78 125.5 171.78 121.96 165.26 121.96 165.26 124 157.41 124 157.41 125.5"/><polygon class="cls-5" points="102.96 124 102.96 121.96 96.45 121.96 96.45 121.96 91.67 121.96 91.67 125.5 102 125.5 102 125.5 110.82 125.5 110.82 124 102.96 124"/><path class="cls-6" d="M153.38,36.45V46.89a.57.57,0,0,0,.57.57h11.6v-11Z"/><path class="cls-6" d="M115.9,36.45V46.89a.56.56,0,0,1-.57.57h-11.6v-11Z"/><path class="cls-6" d="M153.38,123.75V113.31a.57.57,0,0,1,.57-.56h11.6v11Z"/><path class="cls-6" d="M115.9,123.75V113.31a.56.56,0,0,0-.57-.56h-11.6v11Z"/><path class="cls-7" d="M104.78,74.8a1,1,0,1,1-1-1A1,1,0,0,1,104.78,74.8Z"/><path class="cls-7" d="M104.78,98.14a.95.95,0,1,0-1.89,0,.93.93,0,0,0,.22.59v24.83h1.28V98.89A1,1,0,0,0,104.78,98.14Z"/><rect class="cls-8" x="103.37" y="99.21" width="0.85" height="12.56"/><path class="cls-6" d="M386.21,36.45V46.89a.57.57,0,0,0,.57.57h11.6v-11Z"/><path class="cls-6" d="M386.21,123.75V113.31a.57.57,0,0,1,.57-.56h11.6v11Z"/><path class="cls-6" d="M348.73,123.75V113.31a.56.56,0,0,0-.57-.56h-11.6v11Z"/><rect class="cls-5" x="94.04" y="32.97" width="21.94" height="1.23"/><rect class="cls-5" x="152.76" y="32.97" width="21.94" height="1.23"/><rect class="cls-5" x="94.17" y="126.09" width="21.94" height="1.23"/><rect class="cls-5" x="152.88" y="126.09" width="21.94" height="1.23"/><rect class="cls-5" x="327.06" y="32.96" width="21.94" height="1.23"/><rect class="cls-5" x="385.78" y="32.96" width="21.94" height="1.23"/><rect class="cls-5" x="327.19" y="126.08" width="21.94" height="1.23"/><rect class="cls-5" x="385.9" y="126.08" width="21.94" height="1.23"/><path class="cls-9" d="M53.53,34.7H32v3.54h.4V56.37H31V70.46a.56.56,0,0,0,.56.57h9V58.42H42.4V71a.57.57,0,0,0,.48-.56v-14h0V38.25H53.53Z"/><path class="cls-9" d="M53.44,122H42.87V103.71h0v-14a.56.56,0,0,0-.48-.55v12.6H40.55V89.18h-9a.56.56,0,0,0-.57.56v14.1h1.36V122H32v3.54H53.44Z"/><rect class="cls-7" x="103.31" y="37.58" width="1.28" height="37.03"/><rect class="cls-8" x="103.52" y="48.28" width="0.85" height="24.88"/><polygon class="cls-5" points="102.35 34.71 102.35 34.71 98.38 34.71 98.38 38.25 103.31 38.25 103.31 36.21 111.17 36.21 111.17 34.71 102.35 34.71"/><rect class="cls-4" x="448.06" y="34.71" width="109.06" height="3.51"/><rect class="cls-4" x="448.1" y="122.01" width="109.11" height="3.51"/><polygon class="cls-4" points="390.61 34.7 399.42 34.7 399.42 34.71 404.98 34.71 404.98 38.25 398.47 38.25 398.47 36.2 390.61 36.2 390.61 34.7"/><polygon class="cls-4" points="390.62 125.5 399.43 125.5 399.43 125.5 404.99 125.5 404.99 121.95 398.48 121.95 398.48 124 390.62 124 390.62 125.5"/><path class="cls-6" d="M349.06,36.47V46.91a.57.57,0,0,1-.57.56h-11.6v-11Z"/><polygon class="cls-10" points="637.22 66.18 634.97 66.82 632.43 47.82 635.07 49.94 637.22 66.18"/><polygon class="cls-11" points="637.22 93.83 634.97 93.2 632.43 112.19 635.07 110.07 637.22 93.83"/><path class="cls-12" d="M619.51,80.69c0-.39,0-.77,0-1.16,0-10.37-1.23-19.78-3.23-26.7h0l0-.07h-2l-.72-2.3c-7.18-6.54-21.3-12.17-38-12H552.8v4.36l26.57,3.21-.43,3.53H579c.11-1.21.23-2.39.36-3.53,18.57,4.59,32.06,17.76,32.48,33.38h0c0,.17,0,.33,0,.5,0,16-13.64,29.47-32.5,34.13-.13-1.14-.25-2.32-.36-3.53h-.09l.43,3.53-26.57,3.21v4.36H575.5c16.71.2,30.83-5.43,38-12l.72-2.3h2l0-.07h0c2-6.9,3.22-16.27,3.23-26.61Z"/><polygon class="cls-13" points="632.16 47.79 632.16 47.74 632.15 47.73 632.16 47.79"/><path class="cls-14" d="M598.47,36.15c-6.31-.61-14-.81-22.26-.92h0l-19.08-.52v2.71l19,.28h0l2.91.14.23,0,.33,0,.42,0h.36a61.88,61.88,0,0,1,34.21,11.7l17.45-1.82.12,0C625.07,41.41,616.18,37.16,598.47,36.15Z"/><path class="cls-15" d="M626,54h0l-.64-.07h0a66.36,66.36,0,0,0-9.21-.63c2,6.92,3.23,16.32,3.23,26.7s-1.23,19.78-3.23,26.69v0a66.55,66.55,0,0,0,9.22-.62h0l.67-.08h.14a73.3,73.3,0,0,0,4.35-25.75A72.8,72.8,0,0,0,626,54Z"/><path class="cls-16" d="M634.18,62.33l-2-14.61h-.12l-17.31,1.82,1.38,3.78a65.49,65.49,0,0,1,9.26.63v0l.63.06h0a73,73,0,0,1,4.53,26.26,73.31,73.31,0,0,1-4.34,25.75h-.14l-.67.09h0a65.29,65.29,0,0,1-9.23.62l-1.38,3.79,17.28,1.81.11,0,1.89-13.93a97.43,97.43,0,0,0,1.65-18.24A98.47,98.47,0,0,0,634.18,62.33Z"/><path class="cls-9" d="M579.31,45.89c-.15,1.36-.3,2.76-.43,4.23a34.35,34.35,0,0,1-.23,59.54c.13,1.57.27,3.1.42,4.57,19-4.61,32.74-18.18,32.74-34.21S598.17,50.56,579.31,45.89Z"/><path class="cls-14" d="M598.5,124c-6.31.61-14,.81-22.25.92h0l-19.08.53v-2.72l19.05-.27h0l2.91-.15h.23l.33,0,.42,0h.35a61.88,61.88,0,0,0,34.22-11.7l17.45,1.82h.11C625.11,118.75,616.22,123,598.5,124Z"/><polygon class="cls-17" points="552.78 60.68 552.78 35.79 458.21 35.79 458.21 67.29 538.6 67.29 552.78 60.68"/><path class="cls-6" d="M643.08,51.34,635,49.65l1.67,11.87,6.43-.35A1.14,1.14,0,0,0,644.21,60V52.48A1.14,1.14,0,0,0,643.08,51.34Z"/><path class="cls-6" d="M643.08,108.51l-8.1,1.7,1.67-11.88,6.43.35a1.13,1.13,0,0,1,1.13,1.14v7.56A1.13,1.13,0,0,1,643.08,108.51Z"/><polygon class="cls-17" points="552.63 99.18 552.63 124.07 458.06 124.07 458.06 92.58 538.44 92.58 552.63 99.18"/><polygon class="cls-18" points="502.88 42.96 500.82 51.21 503.51 49.49 502.77 53.56 501.49 53.28 502.32 58.63 505.8 53.8 504.05 53.69 506.28 46.72 503.35 48.1 505.32 42.96 502.88 42.96"/><polygon class="cls-18" points="502.88 100.18 500.82 108.42 503.51 106.71 502.77 110.78 501.49 110.5 502.32 115.85 505.8 111.02 504.05 110.91 506.28 103.94 503.35 105.32 505.32 100.18 502.88 100.18"/><rect class="cls-7" x="398.13" y="38.36" width="1.28" height="24.1"/><path class="cls-7" d="M399.72,62.54a.95.95,0,1,1-1.89,0,.95.95,0,0,1,1.89,0Z"/><rect class="cls-8" x="398.35" y="47.8" width="0.85" height="13.56"/><path class="cls-7" d="M399.29,84.71a.95.95,0,1,1-1-.95A.94.94,0,0,1,399.29,84.71Z"/><rect class="cls-7" x="397.72" y="85.12" width="1.28" height="36.52"/><rect class="cls-8" x="397.95" y="86.15" width="0.85" height="25.6"/><line class="cls-19" x1="29.96" y1="53.7" x2="29.96" y2="70.4"/><line class="cls-19" x1="27.82" y1="53.7" x2="27.82" y2="70.4"/><line class="cls-19" x1="25.67" y1="53.7" x2="25.67" y2="70.4"/><line class="cls-19" x1="23.54" y1="53.7" x2="23.54" y2="70.4"/><line class="cls-19" x1="21.4" y1="53.7" x2="21.4" y2="70.4"/><line class="cls-19" x1="19.25" y1="53.7" x2="19.25" y2="70.4"/><path class="cls-20" d="M23.54,70.4a1.08,1.08,0,0,0-2.15,0"/><path class="cls-20" d="M27.82,70.4a1.08,1.08,0,0,0-2.15,0"/><path class="cls-20" d="M30,70.4a1.08,1.08,0,0,0-2.15,0"/><path class="cls-20" d="M31,69.33a1.07,1.07,0,0,0-1,1.07"/><path class="cls-20" d="M25.69,70.4a1.08,1.08,0,0,0-2.15,0"/><path class="cls-20" d="M19.25,70.4a1.07,1.07,0,0,0-1-1.07"/><path class="cls-20" d="M21.4,70.4a1.08,1.08,0,0,0-2.15,0"/><line class="cls-19" x1="29.96" y1="40.02" x2="29.96" y2="40.93"/><line class="cls-19" x1="27.82" y1="40.02" x2="27.82" y2="40.93"/><line class="cls-19" x1="25.67" y1="40.02" x2="25.67" y2="40.93"/><line class="cls-19" x1="23.54" y1="40.02" x2="23.54" y2="40.93"/><line class="cls-19" x1="21.4" y1="40.02" x2="21.4" y2="40.93"/><line class="cls-19" x1="19.25" y1="40.02" x2="19.25" y2="40.93"/><line class="cls-19" x1="17.52" y1="43.18" x2="16.82" y2="43.18"/><line class="cls-19" x1="17.52" y1="39.58" x2="16.82" y2="39.58"/><line class="cls-19" x1="17.52" y1="43.18" x2="17.52" y2="39.58"/><line class="cls-19" x1="31.7" y1="43.18" x2="32.39" y2="43.18"/><line class="cls-19" x1="31.7" y1="43.18" x2="31.7" y2="39.58"/><path class="cls-19" d="M31,39A1.07,1.07,0,0,0,30,40"/><path class="cls-19" d="M30,40a1.08,1.08,0,0,0-2.15,0"/><path class="cls-19" d="M27.82,40a1.08,1.08,0,0,0-2.15,0"/><path class="cls-19" d="M25.68,40a1.07,1.07,0,1,0-2.14,0"/><path class="cls-19" d="M23.54,40a1.08,1.08,0,0,0-2.15,0"/><path class="cls-19" d="M21.4,40a1.08,1.08,0,0,0-2.15,0,1.07,1.07,0,0,0-2.05-.43"/><polyline class="cls-19" points="17.52 54.53 17.52 50.94 16.82 50.94"/><path class="cls-19" d="M23.54,51.37a1.08,1.08,0,0,0-2.15,0"/><path class="cls-19" d="M23.54,53.7a1.08,1.08,0,1,0-2.15,0"/><path class="cls-19" d="M27.82,51.37a1.08,1.08,0,0,0-2.15,0"/><path class="cls-19" d="M30,51.37a1.08,1.08,0,0,0-2.15,0"/><path class="cls-19" d="M32,50.94a1.07,1.07,0,0,0-2,.43"/><path class="cls-19" d="M25.68,51.37a1.07,1.07,0,1,0-2.14,0"/><path class="cls-19" d="M27.82,53.7a1.08,1.08,0,1,0-2.15,0"/><path class="cls-19" d="M30,53.7a1.08,1.08,0,1,0-2.15,0"/><path class="cls-19" d="M31.71,52.86a1.13,1.13,0,0,0-.68-.24A1.07,1.07,0,0,0,30,53.7"/><path class="cls-19" d="M25.69,53.7a1.08,1.08,0,1,0-2.15,0"/><line class="cls-19" x1="31.7" y1="50.94" x2="32.39" y2="50.94"/><path class="cls-19" d="M19.25,53.7a1.07,1.07,0,0,0-1.07-1.08,1.13,1.13,0,0,0-.68.24"/><path class="cls-19" d="M19.25,51.37a1.07,1.07,0,0,0-2.05-.43"/><path class="cls-19" d="M21.4,51.37a1.08,1.08,0,0,0-2.15,0"/><path class="cls-19" d="M21.4,53.7a1.08,1.08,0,1,0-2.15,0"/><line class="cls-19" x1="31.7" y1="54.53" x2="31.7" y2="50.94"/><path class="cls-19" d="M31.71,39.47a.92.92,0,0,0-.85-.57"/><line class="cls-19" x1="29.96" y1="106.11" x2="29.96" y2="89.4"/><line class="cls-19" x1="27.82" y1="106.11" x2="27.82" y2="89.4"/><line class="cls-19" x1="25.67" y1="106.11" x2="25.67" y2="89.4"/><line class="cls-19" x1="23.54" y1="106.11" x2="23.54" y2="89.4"/><line class="cls-19" x1="21.4" y1="106.11" x2="21.4" y2="89.4"/><line class="cls-19" x1="19.26" y1="106.11" x2="19.26" y2="89.4"/><path class="cls-20" d="M23.54,89.4a1.08,1.08,0,0,1-2.15,0"/><path class="cls-20" d="M27.82,89.4a1.08,1.08,0,0,1-2.15,0"/><path class="cls-20" d="M30,89.4a1.08,1.08,0,0,1-2.15,0"/><path class="cls-20" d="M31,90.47a1.07,1.07,0,0,1-1-1.07"/><path class="cls-20" d="M25.69,89.4a1.08,1.08,0,0,1-2.15,0"/><path class="cls-20" d="M19.26,89.4a1.08,1.08,0,0,1-1,1.07"/><path class="cls-20" d="M21.4,89.4a1.07,1.07,0,0,1-2.14,0"/><line class="cls-19" x1="29.96" y1="119.78" x2="29.96" y2="118.87"/><line class="cls-19" x1="27.82" y1="119.78" x2="27.82" y2="118.87"/><line class="cls-19" x1="25.67" y1="119.78" x2="25.67" y2="118.87"/><line class="cls-19" x1="23.54" y1="119.78" x2="23.54" y2="118.87"/><line class="cls-19" x1="21.4" y1="119.78" x2="21.4" y2="118.87"/><line class="cls-19" x1="19.26" y1="119.78" x2="19.26" y2="118.87"/><line class="cls-19" x1="17.52" y1="116.62" x2="16.82" y2="116.62"/><line class="cls-19" x1="17.52" y1="120.22" x2="16.82" y2="120.22"/><line class="cls-19" x1="17.52" y1="116.62" x2="17.52" y2="120.22"/><line class="cls-19" x1="31.7" y1="116.62" x2="32.39" y2="116.62"/><line class="cls-19" x1="31.7" y1="116.62" x2="31.7" y2="120.22"/><path class="cls-19" d="M31,120.85A1.07,1.07,0,0,1,30,119.78"/><path class="cls-19" d="M30,119.78a1.08,1.08,0,0,1-2.15,0"/><path class="cls-19" d="M27.82,119.78a1.08,1.08,0,0,1-2.15,0"/><path class="cls-19" d="M25.69,119.78a1.08,1.08,0,0,1-2.15,0"/><path class="cls-19" d="M23.54,119.78a1.08,1.08,0,0,1-2.15,0"/><path class="cls-19" d="M21.4,119.78a1.07,1.07,0,0,1-2.14,0,1.08,1.08,0,0,1-2.06.43"/><polyline class="cls-19" points="17.52 105.27 17.52 108.86 16.82 108.86"/><path class="cls-19" d="M23.54,108.43a1.08,1.08,0,0,1-2.15,0"/><path class="cls-19" d="M23.54,106.11a1.08,1.08,0,0,1-2.15,0"/><path class="cls-19" d="M27.82,108.43a1.08,1.08,0,0,1-2.15,0"/><path class="cls-19" d="M30,108.43a1.08,1.08,0,0,1-2.15,0"/><path class="cls-19" d="M32,108.86a1.07,1.07,0,0,1-2-.43"/><path class="cls-19" d="M25.69,108.43a1.08,1.08,0,0,1-2.15,0"/><path class="cls-19" d="M27.82,106.11a1.08,1.08,0,0,1-2.15,0"/><path class="cls-19" d="M30,106.11a1.08,1.08,0,0,1-2.15,0"/><path class="cls-19" d="M31.71,106.94a1.1,1.1,0,0,1-.68.24A1.07,1.07,0,0,1,30,106.11"/><path class="cls-19" d="M25.69,106.11a1.08,1.08,0,0,1-2.15,0"/><line class="cls-19" x1="31.7" y1="108.87" x2="32.39" y2="108.87"/><path class="cls-19" d="M19.26,106.11a1.07,1.07,0,0,1-1.08,1.07,1.1,1.1,0,0,1-.67-.24"/><path class="cls-19" d="M19.26,108.43a1.08,1.08,0,0,1-2.06.43"/><path class="cls-19" d="M21.4,108.43a1.08,1.08,0,0,1-2.15,0"/><path class="cls-19" d="M21.4,106.1a1.08,1.08,0,1,1-2.15,0"/><line class="cls-19" x1="31.7" y1="105.27" x2="31.7" y2="108.86"/><path class="cls-19" d="M31.71,120.33a.92.92,0,0,1-.85.57"/><rect class="cls-21" x="41.01" y="80.28" width="1" height="9.58"/><rect class="cls-21" x="41.01" y="70.27" width="1" height="9.58"/></g><g id="INNREDNING-5" data-name="INNREDNING"><polygon class="cls-22" points="568.3 74.89 568.3 83.3 570.75 85.75 588.1 85.75 588.1 72.43 570.76 72.43 568.3 74.89"/><polygon class="cls-23" points="570.86 82.98 570.87 82.98 573.14 85.31 574.83 85.31 572.56 82.98 572.55 82.98 572.55 75.16 572.56 75.16 574.83 72.84 573.14 72.84 570.89 75.14 570.86 75.14 570.86 82.98"/><rect class="cls-24" x="568.71" y="75.81" width="1.98" height="6.52"/><path class="cls-25" d="M555,98.44a.84.84,0,0,0-.86.81v9.12a.84.84,0,0,0,.86.8h9.74a.83.83,0,0,0,.85-.8V99.25a.83.83,0,0,0-.85-.81Z"/><path class="cls-26" d="M555,98.44a.84.84,0,0,0-.86.81v9.12a.84.84,0,0,0,.86.8h9.74a.83.83,0,0,0,.85-.8V99.25a.83.83,0,0,0-.85-.81Z"/><path class="cls-27" d="M553,98.22h1.57c.2,0,.37.32.37.72v9.66c0,.39-.17.72-.37.72H553Z"/><path class="cls-25" d="M106.58,72.26a.83.83,0,0,1-.86-.8V62.34a.82.82,0,0,1,.86-.8h9.73a.82.82,0,0,1,.86.8v9.12a.83.83,0,0,1-.86.8Z"/><path class="cls-28" d="M106.58,72.26a.83.83,0,0,1-.86-.8V62.34a.82.82,0,0,1,.86-.8h9.73a.82.82,0,0,1,.86.8v9.12a.83.83,0,0,1-.86.8Z"/><path class="cls-27" d="M104.58,72.49h1.58c.2,0,.37-.32.37-.73V62.11c0-.4-.17-.72-.37-.72h-1.58Z"/><path class="cls-25" d="M106.58,60.23a.83.83,0,0,1-.86-.81V50.3a.83.83,0,0,1,.86-.8h9.73a.83.83,0,0,1,.86.8v9.12a.83.83,0,0,1-.86.81Z"/><path class="cls-29" d="M106.58,60.23a.83.83,0,0,1-.86-.81V50.3a.83.83,0,0,1,.86-.8h9.73a.83.83,0,0,1,.86.8v9.12a.83.83,0,0,1-.86.81Z"/><path class="cls-27" d="M104.58,60.46h1.58c.2,0,.37-.33.37-.73V50.07c0-.39-.17-.72-.37-.72h-1.58Z"/><path class="cls-25" d="M106.57,110.85a.83.83,0,0,1-.86-.8v-9.12a.83.83,0,0,1,.86-.81h9.73a.83.83,0,0,1,.86.81v9.12a.83.83,0,0,1-.86.8Z"/><path class="cls-30" d="M106.57,110.85a.83.83,0,0,1-.86-.8v-9.12a.83.83,0,0,1,.86-.81h9.73a.83.83,0,0,1,.86.81v9.12a.83.83,0,0,1-.86.8Z"/><path class="cls-27" d="M104.57,111.08h1.58c.2,0,.36-.33.36-.73V100.7c0-.4-.16-.72-.36-.72h-1.58Z"/><path class="cls-25" d="M395.8,87.93a.84.84,0,0,1,.86.8v9.12a.83.83,0,0,1-.86.8h-9.74a.83.83,0,0,1-.86-.8V88.73a.84.84,0,0,1,.86-.8Z"/><path class="cls-31" d="M395.8,87.93a.84.84,0,0,1,.86.8v9.12a.83.83,0,0,1-.86.8h-9.74a.83.83,0,0,1-.86-.8V88.73a.84.84,0,0,1,.86-.8Z"/><path class="cls-27" d="M397.79,87.7h-1.58c-.2,0-.36.32-.36.72v9.66c0,.4.16.72.36.72h1.58Z"/><path class="cls-25" d="M395.8,100a.84.84,0,0,1,.86.81v9.12a.84.84,0,0,1-.86.8h-9.74a.84.84,0,0,1-.86-.8v-9.12a.84.84,0,0,1,.86-.81Z"/><path class="cls-29" d="M395.8,100a.84.84,0,0,1,.86.81v9.12a.84.84,0,0,1-.86.8h-9.74a.84.84,0,0,1-.86-.8v-9.12a.84.84,0,0,1,.86-.81Z"/><path class="cls-27" d="M397.79,99.73h-1.58c-.2,0-.36.33-.36.73v9.65c0,.4.16.73.36.73h1.58Z"/><path class="cls-25" d="M395.81,49.34a.83.83,0,0,1,.85.8v9.12a.83.83,0,0,1-.85.81h-9.74a.84.84,0,0,1-.86-.81V50.14a.84.84,0,0,1,.86-.8Z"/><path class="cls-32" d="M395.81,49.34a.83.83,0,0,1,.85.8v9.12a.83.83,0,0,1-.85.81h-9.74a.84.84,0,0,1-.86-.81V50.14a.84.84,0,0,1,.86-.8Z"/><path class="cls-27" d="M397.8,49.11h-1.58c-.2,0-.36.33-.36.73v9.65c0,.4.16.72.36.72h1.58Z"/><path class="cls-25" d="M340.51,49.43a.84.84,0,0,0-.86.81v9.12a.84.84,0,0,0,.86.8h9.73a.83.83,0,0,0,.86-.8V50.24a.83.83,0,0,0-.86-.81Z"/><path class="cls-33" d="M340.51,49.43a.84.84,0,0,0-.86.81v9.11a.84.84,0,0,0,.86.81h9.73a.83.83,0,0,0,.86-.81V50.24a.83.83,0,0,0-.86-.81Z"/><path class="cls-27" d="M338.51,49.2h1.58c.2,0,.37.33.37.73v9.65c0,.4-.17.73-.37.73h-1.58Z"/><path class="cls-25" d="M340.51,61.47a.84.84,0,0,0-.86.8v9.12a.84.84,0,0,0,.86.81h9.73a.83.83,0,0,0,.86-.81V62.27a.83.83,0,0,0-.86-.8Z"/><path class="cls-34" d="M340.51,61.47a.84.84,0,0,0-.86.8v9.12a.84.84,0,0,0,.86.81h9.73a.83.83,0,0,0,.86-.81V62.27a.83.83,0,0,0-.86-.8Z"/><path class="cls-27" d="M338.51,61.24h1.58c.2,0,.37.32.37.73v9.65c0,.4-.17.72-.37.72h-1.58Z"/><path class="cls-7" d="M338.29,73.54a.95.95,0,1,1-1-1A.94.94,0,0,1,338.29,73.54Z"/><rect class="cls-7" x="336.68" y="36.82" width="1.28" height="36.52"/><rect class="cls-8" x="336.91" y="47.51" width="0.85" height="24.23"/><rect class="cls-35" x="165.59" y="96.96" width="9.54" height="24.93"/><rect class="cls-17" x="156.4" y="96.96" width="8.95" height="13.27"/><rect class="cls-17" x="336.43" y="99.26" width="8.95" height="13.27"/></g><g id="SETER-5" data-name="SETER"><polygon class="cls-22" points="100.69 55.48 100.69 63.9 98.24 66.34 80.89 66.34 80.89 53.02 98.22 53.02 100.69 55.48"/><polygon class="cls-23" points="98.13 63.58 98.12 63.58 95.85 65.9 94.16 65.9 96.43 63.58 96.44 63.58 96.44 55.76 96.43 55.76 94.16 53.43 95.85 53.43 98.1 55.74 98.13 55.74 98.13 63.58"/><rect class="cls-24" x="98.3" y="56.41" width="1.98" height="6.51"/><polygon class="cls-22" points="100.69 69.27 100.69 77.68 98.24 80.12 80.89 80.12 80.89 66.8 98.23 66.8 100.69 69.27"/><polygon class="cls-23" points="98.13 77.36 98.13 77.36 95.85 79.69 94.16 79.69 96.44 77.36 96.44 77.36 96.44 69.54 96.44 69.54 94.16 67.22 95.85 67.22 98.1 69.52 98.13 69.52 98.13 77.36"/><rect class="cls-24" x="98.3" y="70.19" width="1.98" height="6.51"/><polygon class="cls-22" points="100.69 41.57 100.69 49.99 98.24 52.43 80.89 52.43 80.89 39.11 98.22 39.11 100.69 41.57"/><polygon class="cls-23" points="98.13 49.66 98.12 49.66 95.85 51.99 94.16 51.99 96.43 49.66 96.44 49.66 96.44 41.85 96.43 41.85 94.16 39.52 95.85 39.52 98.1 41.83 98.13 41.83 98.13 49.66"/><rect class="cls-24" x="98.3" y="42.5" width="1.98" height="6.51"/><polygon class="cls-22" points="206.89 55.48 206.89 63.9 209.33 66.34 226.69 66.34 226.69 53.02 209.35 53.02 206.89 55.48"/><polygon class="cls-23" points="209.45 63.58 209.45 63.58 211.73 65.9 213.42 65.9 211.14 63.58 211.14 63.58 211.14 55.76 211.14 55.76 213.42 53.43 211.73 53.43 209.47 55.74 209.45 55.74 209.45 63.58"/><rect class="cls-24" x="207.29" y="56.41" width="1.98" height="6.51"/><polygon class="cls-22" points="206.89 69.27 206.89 77.68 209.33 80.12 226.68 80.12 226.68 66.8 209.35 66.8 206.89 69.27"/><polygon class="cls-23" points="209.44 77.36 209.45 77.36 211.73 79.69 213.41 79.69 211.14 77.36 211.13 77.36 211.13 69.54 211.14 69.54 213.41 67.22 211.73 67.22 209.47 69.52 209.44 69.52 209.44 77.36"/><rect class="cls-24" x="207.29" y="70.19" width="1.98" height="6.51"/><polygon class="cls-22" points="206.89 41.57 206.89 49.99 209.33 52.43 226.68 52.43 226.68 39.11 209.35 39.11 206.89 41.57"/><polygon class="cls-23" points="209.45 49.66 209.45 49.66 211.73 51.99 213.42 51.99 211.14 49.66 211.14 49.66 211.14 41.85 211.14 41.85 213.42 39.52 211.73 39.52 209.47 41.83 209.45 41.83 209.45 49.66"/><rect class="cls-24" x="207.29" y="42.5" width="1.98" height="6.51"/><polygon class="cls-22" points="233.63 55.48 233.63 63.9 236.07 66.34 253.43 66.34 253.43 53.02 236.09 53.02 233.63 55.48"/><polygon class="cls-23" points="236.19 63.58 236.19 63.58 238.47 65.9 240.16 65.9 237.88 63.58 237.88 63.58 237.88 55.76 237.88 55.76 240.16 53.43 238.47 53.43 236.22 55.74 236.19 55.74 236.19 63.58"/><rect class="cls-24" x="234.04" y="56.41" width="1.98" height="6.51"/><polygon class="cls-22" points="233.63 69.27 233.63 77.68 236.07 80.12 253.43 80.12 253.43 66.8 236.09 66.8 233.63 69.27"/><polygon class="cls-23" points="236.19 77.36 236.19 77.36 238.47 79.69 240.16 79.69 237.88 77.36 237.88 77.36 237.88 69.54 237.88 69.54 240.16 67.22 238.47 67.22 236.22 69.52 236.19 69.52 236.19 77.36"/><rect class="cls-24" x="234.04" y="70.19" width="1.98" height="6.51"/><polygon class="cls-22" points="233.63 41.57 233.63 49.99 236.07 52.43 253.43 52.43 253.43 39.11 236.09 39.11 233.63 41.57"/><polygon class="cls-23" points="236.19 49.66 236.19 49.66 238.47 51.99 240.16 51.99 237.88 49.66 237.88 49.66 237.88 41.85 237.88 41.85 240.16 39.52 238.47 39.52 236.22 41.83 236.19 41.83 236.19 49.66"/><rect class="cls-24" x="234.04" y="42.5" width="1.98" height="6.51"/><polygon class="cls-22" points="256.59 55.48 256.59 63.9 259.03 66.34 276.38 66.34 276.38 53.02 259.05 53.02 256.59 55.48"/><polygon class="cls-23" points="259.14 63.58 259.15 63.58 261.43 65.9 263.11 65.9 260.84 63.58 260.83 63.58 260.83 55.76 260.84 55.76 263.11 53.43 261.43 53.43 259.17 55.74 259.14 55.74 259.14 63.58"/><rect class="cls-24" x="256.99" y="56.41" width="1.98" height="6.51"/><polygon class="cls-22" points="256.59 69.27 256.59 77.68 259.03 80.12 276.38 80.12 276.38 66.8 259.05 66.8 256.59 69.27"/><polygon class="cls-23" points="259.14 77.36 259.15 77.36 261.42 79.69 263.11 79.69 260.84 77.36 260.83 77.36 260.83 69.54 260.84 69.54 263.11 67.22 261.42 67.22 259.17 69.52 259.14 69.52 259.14 77.36"/><rect class="cls-24" x="256.99" y="70.19" width="1.98" height="6.51"/><polygon class="cls-22" points="256.59 41.57 256.59 49.99 259.03 52.43 276.38 52.43 276.38 39.11 259.05 39.11 256.59 41.57"/><polygon class="cls-23" points="259.14 49.66 259.15 49.66 261.43 51.99 263.11 51.99 260.84 49.66 260.83 49.66 260.83 41.85 260.84 41.85 263.11 39.52 261.43 39.52 259.17 41.83 259.14 41.83 259.14 49.66"/><rect class="cls-24" x="256.99" y="42.5" width="1.98" height="6.51"/><polygon class="cls-22" points="280.81 55.48 280.81 63.9 283.25 66.34 300.61 66.34 300.61 53.02 283.27 53.02 280.81 55.48"/><polygon class="cls-23" points="283.37 63.58 283.38 63.58 285.65 65.9 287.34 65.9 285.06 63.58 285.06 63.58 285.06 55.76 285.06 55.76 287.34 53.43 285.65 53.43 283.4 55.74 283.37 55.74 283.37 63.58"/><rect class="cls-24" x="281.22" y="56.41" width="1.98" height="6.51"/><polygon class="cls-22" points="280.81 69.27 280.81 77.68 283.25 80.12 300.61 80.12 300.61 66.8 283.27 66.8 280.81 69.27"/><polygon class="cls-23" points="283.37 77.36 283.37 77.36 285.65 79.69 287.34 79.69 285.06 77.36 285.06 77.36 285.06 69.54 285.06 69.54 287.34 67.22 285.65 67.22 283.39 69.52 283.37 69.52 283.37 77.36"/><rect class="cls-24" x="281.21" y="70.19" width="1.98" height="6.51"/><polygon class="cls-22" points="280.81 41.57 280.81 49.99 283.25 52.43 300.61 52.43 300.61 39.11 283.27 39.11 280.81 41.57"/><polygon class="cls-23" points="283.37 49.66 283.38 49.66 285.65 51.99 287.34 51.99 285.06 49.66 285.06 49.66 285.06 41.85 285.06 41.85 287.34 39.52 285.65 39.52 283.4 41.83 283.37 41.83 283.37 49.66"/><rect class="cls-24" x="281.22" y="42.5" width="1.98" height="6.51"/><polygon class="cls-22" points="334.59 55.48 334.59 63.9 332.14 66.34 314.79 66.34 314.79 53.02 332.13 53.02 334.59 55.48"/><polygon class="cls-23" points="332.03 63.58 332.02 63.58 329.75 65.9 328.06 65.9 330.33 63.58 330.34 63.58 330.34 55.76 330.33 55.76 328.06 53.43 329.75 53.43 332 55.74 332.03 55.74 332.03 63.58"/><rect class="cls-24" x="332.2" y="56.41" width="1.98" height="6.51"/><polygon class="cls-22" points="334.59 69.27 334.59 77.68 332.14 80.12 314.79 80.12 314.79 66.8 332.13 66.8 334.59 69.27"/><polygon class="cls-23" points="332.03 77.36 332.02 77.36 329.75 79.69 328.06 79.69 330.34 77.36 330.34 77.36 330.34 69.54 330.34 69.54 328.06 67.22 329.75 67.22 332 69.52 332.03 69.52 332.03 77.36"/><rect class="cls-24" x="332.2" y="70.19" width="1.98" height="6.51"/><polygon class="cls-22" points="334.59 41.57 334.59 49.99 332.14 52.43 314.79 52.43 314.79 39.11 332.13 39.11 334.59 41.57"/><polygon class="cls-23" points="332.03 49.66 332.02 49.66 329.75 51.99 328.06 51.99 330.33 49.66 330.34 49.66 330.34 41.85 330.33 41.85 328.06 39.52 329.75 39.52 332 41.83 332.03 41.83 332.03 49.66"/><rect class="cls-24" x="332.2" y="42.5" width="1.98" height="6.51"/><polygon class="cls-22" points="44.09 96.47 44.09 104.88 46.53 107.33 63.88 107.33 63.88 94 46.55 94 44.09 96.47"/><polygon class="cls-23" points="46.65 104.56 46.65 104.56 48.93 106.89 50.62 106.89 48.34 104.56 48.34 104.56 48.34 96.74 48.34 96.74 50.62 94.42 48.93 94.42 46.68 96.72 46.65 96.72 46.65 104.56"/><rect class="cls-24" x="44.5" y="97.39" width="1.98" height="6.52"/><polygon class="cls-22" points="44.1 110.25 44.1 118.67 46.54 121.11 63.89 121.11 63.89 107.79 46.56 107.79 44.1 110.25"/><polygon class="cls-23" points="46.66 118.35 46.66 118.35 48.94 120.67 50.63 120.67 48.35 118.35 48.35 118.35 48.35 110.53 48.35 110.53 50.63 108.2 48.94 108.2 46.68 110.51 46.66 110.51 46.66 118.35"/><rect class="cls-24" x="44.5" y="111.18" width="1.98" height="6.51"/><polygon class="cls-22" points="95.9 96.47 95.9 104.88 93.46 107.33 76.11 107.33 76.11 94 93.44 94 95.9 96.47"/><polygon class="cls-23" points="93.34 104.56 93.34 104.56 91.06 106.89 89.37 106.89 91.65 104.56 91.65 104.56 91.65 96.74 91.65 96.74 89.37 94.42 91.06 94.42 93.31 96.72 93.34 96.72 93.34 104.56"/><rect class="cls-24" x="93.51" y="97.39" width="1.98" height="6.52"/><polygon class="cls-22" points="95.89 110.25 95.89 118.67 93.45 121.11 76.1 121.11 76.1 107.79 93.43 107.79 95.89 110.25"/><polygon class="cls-23" points="93.33 118.35 93.33 118.35 91.05 120.67 89.36 120.67 91.64 118.35 91.64 118.35 91.64 110.53 91.64 110.53 89.36 108.2 91.05 108.2 93.31 110.51 93.33 110.51 93.33 118.35"/><rect class="cls-24" x="93.5" y="111.18" width="1.98" height="6.51"/><polygon class="cls-22" points="229.9 96.47 229.9 104.88 227.46 107.33 210.11 107.33 210.11 94 227.44 94 229.9 96.47"/><polygon class="cls-23" points="227.35 104.56 227.34 104.56 225.06 106.89 223.38 106.89 225.65 104.56 225.66 104.56 225.66 96.74 225.65 96.74 223.38 94.42 225.06 94.42 227.32 96.72 227.35 96.72 227.35 104.56"/><rect class="cls-24" x="227.51" y="97.39" width="1.98" height="6.52"/><polygon class="cls-22" points="229.89 110.25 229.89 118.67 227.45 121.11 210.1 121.11 210.1 107.79 227.43 107.79 229.89 110.25"/><polygon class="cls-23" points="227.34 118.35 227.33 118.35 225.06 120.67 223.37 120.67 225.64 118.35 225.65 118.35 225.65 110.53 225.64 110.53 223.37 108.2 225.06 108.2 227.31 110.51 227.34 110.51 227.34 118.35"/><rect class="cls-24" x="227.51" y="111.18" width="1.98" height="6.51"/><polygon class="cls-22" points="255.91 96.47 255.91 104.88 253.47 107.33 236.12 107.33 236.12 94 253.45 94 255.91 96.47"/><polygon class="cls-23" points="253.35 104.56 253.35 104.56 251.07 106.89 249.38 106.89 251.66 104.56 251.66 104.56 251.66 96.74 251.66 96.74 249.38 94.42 251.07 94.42 253.32 96.72 253.35 96.72 253.35 104.56"/><rect class="cls-24" x="253.52" y="97.39" width="1.98" height="6.52"/><polygon class="cls-22" points="255.9 110.25 255.9 118.67 253.46 121.11 236.1 121.11 236.1 107.79 253.44 107.79 255.9 110.25"/><polygon class="cls-23" points="253.34 118.35 253.34 118.35 251.06 120.67 249.38 120.67 251.65 118.35 251.65 118.35 251.65 110.53 251.65 110.53 249.38 108.2 251.06 108.2 253.32 110.51 253.34 110.51 253.34 118.35"/><rect class="cls-24" x="253.51" y="111.18" width="1.98" height="6.51"/><polygon class="cls-22" points="281.92 96.47 281.92 104.88 279.47 107.33 262.12 107.33 262.12 94 279.45 94 281.92 96.47"/><polygon class="cls-23" points="279.36 104.56 279.35 104.56 277.08 106.89 275.39 106.89 277.66 104.56 277.67 104.56 277.67 96.74 277.66 96.74 275.39 94.42 277.08 94.42 279.33 96.72 279.36 96.72 279.36 104.56"/><rect class="cls-24" x="279.53" y="97.39" width="1.98" height="6.52"/><polygon class="cls-22" points="281.91 110.25 281.91 118.67 279.46 121.11 262.11 121.11 262.11 107.79 279.44 107.79 281.91 110.25"/><polygon class="cls-23" points="279.35 118.35 279.34 118.35 277.07 120.67 275.38 120.67 277.65 118.35 277.66 118.35 277.66 110.53 277.65 110.53 275.38 108.2 277.07 108.2 279.32 110.51 279.35 110.51 279.35 118.35"/><rect class="cls-24" x="279.52" y="111.18" width="1.98" height="6.51"/><polygon class="cls-22" points="306.91 96.47 306.91 104.88 304.47 107.33 287.12 107.33 287.12 94 304.45 94 306.91 96.47"/><polygon class="cls-23" points="304.36 104.56 304.35 104.56 302.07 106.89 300.39 106.89 302.66 104.56 302.67 104.56 302.67 96.74 302.66 96.74 300.39 94.42 302.07 94.42 304.33 96.72 304.36 96.72 304.36 104.56"/><rect class="cls-24" x="304.52" y="97.39" width="1.98" height="6.52"/><polygon class="cls-22" points="306.9 110.25 306.9 118.67 304.46 121.11 287.11 121.11 287.11 107.79 304.44 107.79 306.9 110.25"/><polygon class="cls-23" points="304.35 118.35 304.34 118.35 302.07 120.67 300.38 120.67 302.65 118.35 302.66 118.35 302.66 110.53 302.65 110.53 300.38 108.2 302.07 108.2 304.32 110.51 304.35 110.51 304.35 118.35"/><rect class="cls-24" x="304.52" y="111.18" width="1.98" height="6.51"/><polygon class="cls-22" points="334.91 96.72 334.91 105.14 332.47 107.58 315.12 107.58 315.12 94.26 332.45 94.26 334.91 96.72"/><polygon class="cls-23" points="332.35 104.81 332.35 104.81 330.07 107.14 328.38 107.14 330.66 104.81 330.66 104.81 330.66 97 330.66 97 328.38 94.67 330.07 94.67 332.32 96.98 332.35 96.98 332.35 104.81"/><rect class="cls-24" x="332.52" y="97.65" width="1.98" height="6.52"/><polygon class="cls-22" points="334.9 110.51 334.9 118.92 332.46 121.37 315.11 121.37 315.11 108.04 332.44 108.04 334.9 110.51"/><polygon class="cls-23" points="332.34 118.6 332.34 118.6 330.06 120.93 328.38 120.93 330.65 118.6 330.65 118.6 330.65 110.78 330.65 110.78 328.38 108.45 330.06 108.45 332.32 110.76 332.34 110.76 332.34 118.6"/><rect class="cls-24" x="332.51" y="111.43" width="1.98" height="6.51"/><polygon class="cls-22" points="178.85 96.47 178.85 104.88 181.3 107.33 198.65 107.33 198.65 94 181.32 94 178.85 96.47"/><polygon class="cls-23" points="181.41 104.56 181.42 104.56 183.69 106.89 185.38 106.89 183.11 104.56 183.1 104.56 183.1 96.74 183.11 96.74 185.38 94.42 183.69 94.42 181.44 96.72 181.41 96.72 181.41 104.56"/><rect class="cls-24" x="179.26" y="97.39" width="1.98" height="6.52"/><polygon class="cls-22" points="178.87 110.25 178.87 118.67 181.31 121.11 198.66 121.11 198.66 107.79 181.33 107.79 178.87 110.25"/><polygon class="cls-23" points="181.42 118.35 181.43 118.35 183.7 120.67 185.39 120.67 183.12 118.35 183.11 118.35 183.11 110.53 183.12 110.53 185.39 108.2 183.7 108.2 181.45 110.51 181.42 110.51 181.42 118.35"/><rect class="cls-24" x="179.27" y="111.18" width="1.98" height="6.51"/><polygon class="cls-22" points="456.92 96.47 456.92 104.88 454.48 107.33 437.13 107.33 437.13 94 454.46 94 456.92 96.47"/><polygon class="cls-23" points="454.36 104.56 454.36 104.56 452.08 106.89 450.39 106.89 452.67 104.56 452.67 104.56 452.67 96.74 452.67 96.74 450.39 94.42 452.08 94.42 454.33 96.72 454.36 96.72 454.36 104.56"/><rect class="cls-24" x="454.53" y="97.39" width="1.98" height="6.52"/><polygon class="cls-22" points="456.91 110.25 456.91 118.67 454.47 121.11 437.12 121.11 437.12 107.79 454.45 107.79 456.91 110.25"/><polygon class="cls-23" points="454.35 118.35 454.35 118.35 452.07 120.67 450.38 120.67 452.66 118.35 452.66 118.35 452.66 110.53 452.66 110.53 450.38 108.2 452.07 108.2 454.33 110.51 454.35 110.51 454.35 118.35"/><rect class="cls-24" x="454.52" y="111.18" width="1.98" height="6.51"/><polygon class="cls-22" points="43.85 41.52 43.85 49.94 46.3 52.38 63.65 52.38 63.65 39.06 46.32 39.06 43.85 41.52"/><polygon class="cls-23" points="46.41 49.62 46.42 49.62 48.7 51.94 50.38 51.94 48.11 49.62 48.1 49.62 48.1 41.8 48.11 41.8 50.38 39.47 48.7 39.47 46.44 41.77 46.41 41.77 46.41 49.62"/><rect class="cls-24" x="44.26" y="42.45" width="1.98" height="6.52"/><polygon class="cls-22" points="43.87 55.31 43.87 63.72 46.31 66.17 63.66 66.17 63.66 52.84 46.33 52.84 43.87 55.31"/><polygon class="cls-23" points="46.42 63.4 46.43 63.4 48.7 65.73 50.39 65.73 48.12 63.4 48.11 63.4 48.11 55.58 48.12 55.58 50.39 53.25 48.7 53.25 46.45 55.56 46.42 55.56 46.42 63.4"/><rect class="cls-24" x="44.27" y="56.23" width="1.98" height="6.51"/><polygon class="cls-22" points="405.11 41.52 405.11 49.94 407.55 52.38 424.9 52.38 424.9 39.06 407.57 39.06 405.11 41.52"/><polygon class="cls-23" points="407.66 49.62 407.67 49.62 409.94 51.94 411.63 51.94 409.36 49.62 409.35 49.62 409.35 41.8 409.36 41.8 411.63 39.47 409.94 39.47 407.69 41.77 407.66 41.77 407.66 49.62"/><rect class="cls-24" x="405.51" y="42.45" width="1.98" height="6.52"/><polygon class="cls-22" points="405.12 55.31 405.12 63.72 407.56 66.17 424.91 66.17 424.91 52.84 407.58 52.84 405.12 55.31"/><polygon class="cls-23" points="407.67 63.4 407.68 63.4 409.95 65.73 411.64 65.73 409.37 63.4 409.36 63.4 409.36 55.58 409.37 55.58 411.64 53.25 409.95 53.25 407.7 55.56 407.67 55.56 407.67 63.4"/><rect class="cls-24" x="405.52" y="56.23" width="1.98" height="6.51"/><polygon class="cls-22" points="456.91 41.52 456.91 49.94 454.46 52.38 437.11 52.38 437.11 39.06 454.44 39.06 456.91 41.52"/><polygon class="cls-23" points="454.35 49.62 454.34 49.62 452.07 51.94 450.38 51.94 452.65 49.62 452.66 49.62 452.66 41.8 452.65 41.8 450.38 39.47 452.07 39.47 454.32 41.77 454.35 41.77 454.35 49.62"/><rect class="cls-24" x="454.52" y="42.45" width="1.98" height="6.52"/><polygon class="cls-22" points="456.9 55.31 456.9 63.72 454.45 66.17 437.1 66.17 437.1 52.84 454.44 52.84 456.9 55.31"/><polygon class="cls-23" points="454.34 63.4 454.34 63.4 452.06 65.73 450.37 65.73 452.65 63.4 452.65 63.4 452.65 55.58 452.65 55.58 450.37 53.25 452.06 53.25 454.31 55.56 454.34 55.56 454.34 63.4"/><rect class="cls-24" x="454.51" y="56.23" width="1.98" height="6.51"/><polygon class="cls-22" points="402.07 96.47 402.07 104.88 404.52 107.33 421.87 107.33 421.87 94.01 404.54 94.01 402.07 96.47"/><polygon class="cls-23" points="404.63 104.56 404.64 104.56 406.91 106.89 408.6 106.89 406.33 104.56 406.32 104.56 406.32 96.75 406.33 96.75 408.6 94.42 406.91 94.42 404.66 96.72 404.63 96.72 404.63 104.56"/><rect class="cls-24" x="402.48" y="97.39" width="1.98" height="6.51"/><polygon class="cls-22" points="402.07 110.25 402.07 118.67 404.52 121.11 421.87 121.11 421.87 107.79 404.53 107.79 402.07 110.25"/><polygon class="cls-23" points="404.63 118.34 404.63 118.34 406.91 120.67 408.6 120.67 406.32 118.34 406.32 118.34 406.32 110.53 406.32 110.53 408.6 108.2 406.91 108.2 404.66 110.51 404.63 110.51 404.63 118.34"/><rect class="cls-24" x="402.48" y="111.18" width="1.98" height="6.51"/><polygon class="cls-22" points="402.07 82.56 402.07 90.97 404.52 93.42 421.87 93.42 421.87 80.1 404.54 80.1 402.07 82.56"/><polygon class="cls-23" points="404.63 90.65 404.64 90.65 406.91 92.98 408.6 92.98 406.33 90.65 406.32 90.65 406.32 82.83 406.33 82.83 408.6 80.51 406.91 80.51 404.66 82.81 404.63 82.81 404.63 90.65"/><rect class="cls-24" x="402.48" y="83.48" width="1.98" height="6.51"/></g><g id="SETENUMMER-5" data-name="SETENUMMER"><path class="cls-36" d="M445.36,48.64V47.15H442.7v-.72l2.4-3.64h1.3v3.52h.76v.84h-.76v1.49Zm0-2.33V44.72c0-.33,0-.66,0-1h0c-.18.37-.33.67-.51,1l-1.08,1.61h1.59Z"/><path class="cls-36" d="M443.15,61.23a2.8,2.8,0,0,0,1.33.36c.84,0,1.18-.47,1.18-.93,0-.69-.66-1-1.33-1h-.51v-.81h.51c.5,0,1.15-.24,1.15-.81,0-.41-.29-.74-.94-.74a2.4,2.4,0,0,0-1.2.37l-.25-.8a3.21,3.21,0,0,1,1.68-.45c1.22,0,1.83.66,1.83,1.43a1.43,1.43,0,0,1-1.08,1.37h0a1.5,1.5,0,0,1,1.29,1.46c0,1-.83,1.78-2.28,1.78a3.18,3.18,0,0,1-1.64-.41Z"/><path class="cls-36" d="M442.92,103.6v-.68l.69-.64c1.38-1.28,2-2,2-2.75a.92.92,0,0,0-1-1,2.15,2.15,0,0,0-1.25.48l-.32-.78a2.9,2.9,0,0,1,1.8-.6,1.74,1.74,0,0,1,1.93,1.77c0,1-.74,1.85-1.77,2.8l-.5.44v0h2.39v.92Z"/><path class="cls-36" d="M444.66,112.48h0l-1.07.54-.19-.83,1.43-.7h.92v5.85h-1.07Z"/><path class="cls-36" d="M414.5,47.85a4.5,4.5,0,0,0,.61,0,2.25,2.25,0,0,0,1.19-.45,2.13,2.13,0,0,0,.75-1.31h0a1.65,1.65,0,0,1-1.28.52A1.73,1.73,0,0,1,414,44.78a2.07,2.07,0,0,1,2.11-2.09c1.37,0,2.09,1.06,2.09,2.49a3.64,3.64,0,0,1-1,2.73,3.17,3.17,0,0,1-2,.8,3.84,3.84,0,0,1-.66,0Zm.58-3.14a1,1,0,0,0,1,1.07,1.07,1.07,0,0,0,.94-.48.69.69,0,0,0,.06-.33c0-.79-.29-1.46-1-1.46C415.48,43.51,415.08,44,415.08,44.71Z"/><path class="cls-36" d="M415.07,59.33a1.44,1.44,0,0,1-.89-1.3,1.75,1.75,0,0,1,2-1.6c1.27,0,1.83.75,1.83,1.47a1.47,1.47,0,0,1-.9,1.33v0a1.59,1.59,0,0,1,1.12,1.48c0,1.05-.88,1.75-2.13,1.75s-2.09-.8-2.09-1.61a1.63,1.63,0,0,1,1.1-1.52Zm2,1.49c0-.59-.43-.92-1.09-1.1a1.07,1.07,0,0,0-.86,1,.92.92,0,0,0,1,.95A.88.88,0,0,0,417.06,60.82ZM415.24,58c0,.48.39.77.95.92a.93.93,0,0,0,.73-.88.79.79,0,0,0-.84-.83A.77.77,0,0,0,415.24,58Z"/><path class="cls-36" d="M416.22,84v.71l-2.48,5.14h-1.16l2.47-4.92h-2.77V84Z"/><path class="cls-36" d="M415.75,98.54a2.84,2.84,0,0,0-.56,0,2,2,0,0,0-2,1.7h0a1.64,1.64,0,0,1,1.31-.57,1.76,1.76,0,0,1,1.79,1.91,2,2,0,0,1-2.06,2.09,2.24,2.24,0,0,1-2.21-2.53,3.52,3.52,0,0,1,1-2.61,3.26,3.26,0,0,1,2.08-.87,2.83,2.83,0,0,1,.56,0Zm-.51,3.13a1,1,0,0,0-1-1.16,1.1,1.1,0,0,0-1,.6.83.83,0,0,0-.07.35c0,.78.38,1.41,1.11,1.41C414.87,102.87,415.24,102.37,415.24,101.67Z"/><path class="cls-36" d="M415.92,112.4h-2.25l-.17,1.18a2.37,2.37,0,0,1,.41,0,2.61,2.61,0,0,1,1.43.38,1.67,1.67,0,0,1,.76,1.48,2.14,2.14,0,0,1-2.36,2,3.44,3.44,0,0,1-1.56-.34l.23-.84a3.06,3.06,0,0,0,1.29.3A1.14,1.14,0,0,0,415,115.5c0-.67-.5-1.11-1.66-1.11a5.77,5.77,0,0,0-.8,0l.38-3h3Z"/><path class="cls-36" d="M319.93,43.79h0l-1.07.54-.19-.84,1.43-.7H321v5.85h-1.07Z"/><path class="cls-36" d="M325.46,48.64V47.15H322.8v-.72l2.4-3.64h1.3v3.53h.76v.83h-.76v1.49Zm0-2.32v-1.6c0-.33,0-.66,0-1h0c-.18.37-.34.67-.52,1l-1.08,1.61v0Z"/><path class="cls-36" d="M319.93,57.53h0l-1.07.54-.19-.84,1.43-.7H321v5.85h-1.07Z"/><path class="cls-36" d="M323.24,61.23a2.86,2.86,0,0,0,1.33.37c.85,0,1.18-.48,1.18-.94,0-.69-.65-1-1.33-1h-.5v-.81h.5c.51,0,1.15-.24,1.15-.81,0-.41-.28-.74-.93-.74a2.37,2.37,0,0,0-1.2.37l-.25-.8a3.21,3.21,0,0,1,1.68-.45c1.22,0,1.83.66,1.83,1.43a1.43,1.43,0,0,1-1.08,1.37v0a1.49,1.49,0,0,1,1.29,1.45c0,1-.83,1.78-2.28,1.78a3.16,3.16,0,0,1-1.64-.41Z"/><path class="cls-36" d="M319.93,71.27h0l-1.07.54-.19-.84,1.43-.7H321v5.85h-1.07Z"/><path class="cls-36" d="M323,76.12v-.68l.69-.64c1.38-1.27,2-2,2-2.75a.92.92,0,0,0-1-1,2.15,2.15,0,0,0-1.25.48l-.33-.78a3,3,0,0,1,1.81-.6,1.73,1.73,0,0,1,1.92,1.77c0,1-.74,1.86-1.76,2.8l-.51.44v0H327v.92Z"/><path class="cls-36" d="M319.93,98.75h0l-1.07.54-.19-.84,1.43-.7H321v5.85h-1.07Z"/><path class="cls-36" d="M324.75,98.75h0l-1.08.54-.18-.84,1.43-.7h.92v5.85h-1.08Z"/><path class="cls-36" d="M319.93,112.49h0l-1.07.54-.19-.84,1.43-.7H321v5.85h-1.07Z"/><path class="cls-36" d="M327.15,114.37c0,1.89-.74,3.07-2.14,3.07s-2.06-1.23-2.07-3,.77-3,2.14-3S327.15,112.65,327.15,114.37Zm-3.1,0c0,1.43.39,2.17,1,2.17s1-.79,1-2.2-.31-2.16-1-2.16S324.05,113,324.05,114.42Z"/><path class="cls-36" d="M290.24,43.79h0l-1.07.54-.19-.84,1.43-.7h.92v5.85h-1.07Z"/><path class="cls-36" d="M293.76,47.85a4.6,4.6,0,0,0,.62,0,2.25,2.25,0,0,0,1.19-.45,2.18,2.18,0,0,0,.75-1.31h0a1.62,1.62,0,0,1-1.27.52,1.73,1.73,0,0,1-1.78-1.81,2.07,2.07,0,0,1,2.11-2.09c1.37,0,2.09,1.06,2.09,2.49a3.64,3.64,0,0,1-1,2.73,3.2,3.2,0,0,1-2,.8,3.93,3.93,0,0,1-.67,0Zm.59-3.14a1,1,0,0,0,1,1.07,1.09,1.09,0,0,0,.95-.48.84.84,0,0,0,.06-.33c0-.79-.3-1.46-1-1.46C294.75,43.51,294.35,44,294.35,44.71Z"/><path class="cls-36" d="M290.24,57.53h0l-1.07.54-.19-.84,1.43-.7h.92v5.85h-1.07Z"/><path class="cls-36" d="M294.34,59.33a1.44,1.44,0,0,1-.89-1.3,1.74,1.74,0,0,1,1.95-1.6c1.27,0,1.84.75,1.84,1.47a1.47,1.47,0,0,1-.9,1.33v0a1.59,1.59,0,0,1,1.12,1.48c0,1.05-.89,1.75-2.14,1.75s-2.08-.8-2.08-1.61a1.63,1.63,0,0,1,1.1-1.52Zm2,1.49c0-.59-.43-.92-1.09-1.1a1.06,1.06,0,0,0-.86,1,.92.92,0,0,0,1,.95A.88.88,0,0,0,296.33,60.82ZM294.5,58c0,.48.4.77,1,.92a.94.94,0,0,0,.73-.88.79.79,0,0,0-.84-.83A.78.78,0,0,0,294.5,58Z"/><path class="cls-36" d="M290.24,71.27h0l-1.07.54L289,71l1.43-.7h.92v5.85h-1.07Z"/><path class="cls-36" d="M297.35,70.27V71l-2.48,5.14h-1.16l2.47-4.92v0h-2.77v-.91Z"/><path class="cls-36" d="M290.24,98.75h0l-1.07.54-.19-.84,1.43-.7h.92v5.85h-1.07Z"/><path class="cls-36" d="M296.88,98.54a2.84,2.84,0,0,0-.56,0,2,2,0,0,0-2,1.7h0a1.65,1.65,0,0,1,1.31-.57,1.76,1.76,0,0,1,1.79,1.91,2,2,0,0,1-2.06,2.09,2.24,2.24,0,0,1-2.21-2.53,3.52,3.52,0,0,1,1-2.61,3.26,3.26,0,0,1,2.08-.87,2.83,2.83,0,0,1,.56,0Zm-.51,3.13a1,1,0,0,0-1-1.16,1.1,1.1,0,0,0-1,.6.83.83,0,0,0-.07.35c0,.78.38,1.41,1.11,1.41C296,102.87,296.37,102.37,296.37,101.67Z"/><path class="cls-36" d="M290.24,112.49h0l-1.07.54-.19-.84,1.43-.7h.92v5.85h-1.07Z"/><path class="cls-36" d="M297.05,112.4H294.8l-.17,1.18a2.37,2.37,0,0,1,.41,0,2.61,2.61,0,0,1,1.43.38,1.67,1.67,0,0,1,.76,1.48,2.14,2.14,0,0,1-2.36,2,3.44,3.44,0,0,1-1.56-.34l.23-.84a3.06,3.06,0,0,0,1.29.3,1.14,1.14,0,0,0,1.27-1.06c0-.67-.5-1.11-1.66-1.11a5.77,5.77,0,0,0-.8,0l.38-3h3Z"/><path class="cls-36" d="M263.5,48.64V48l.69-.64c1.38-1.27,2-2,2-2.75a.92.92,0,0,0-1.05-1,2.15,2.15,0,0,0-1.25.48l-.32-.78a2.9,2.9,0,0,1,1.8-.6,1.73,1.73,0,0,1,1.92,1.77c0,1-.73,1.86-1.76,2.8l-.5.44v0h2.39v.92Z"/><path class="cls-36" d="M270.76,48.64V47.15h-2.65v-.72l2.39-3.64h1.31v3.53h.75v.83h-.75v1.49Zm0-2.32v-1.6c0-.33,0-.66,0-1h0c-.18.37-.33.67-.51,1l-1.08,1.61v0Z"/><path class="cls-36" d="M263.5,62.38V61.7l.69-.64c1.38-1.27,2-2,2-2.75a.92.92,0,0,0-1.05-1,2.15,2.15,0,0,0-1.25.48l-.32-.78a2.9,2.9,0,0,1,1.8-.6,1.73,1.73,0,0,1,1.92,1.77c0,1-.73,1.86-1.76,2.8l-.5.44v0h2.39v.92Z"/><path class="cls-36" d="M268.55,61.23a2.79,2.79,0,0,0,1.33.37c.85,0,1.18-.48,1.18-.94,0-.69-.66-1-1.33-1h-.51v-.81h.51c.5,0,1.15-.24,1.15-.81,0-.41-.29-.74-.94-.74a2.36,2.36,0,0,0-1.19.37l-.26-.8a3.28,3.28,0,0,1,1.69-.45c1.21,0,1.83.66,1.83,1.43a1.43,1.43,0,0,1-1.08,1.37v0a1.48,1.48,0,0,1,1.28,1.45c0,1-.83,1.78-2.27,1.78a3.13,3.13,0,0,1-1.64-.41Z"/><path class="cls-36" d="M263.5,76.12v-.68l.69-.64c1.38-1.27,2-2,2-2.75a.92.92,0,0,0-1.05-1,2.15,2.15,0,0,0-1.25.48l-.32-.78a2.9,2.9,0,0,1,1.8-.6,1.73,1.73,0,0,1,1.92,1.77c0,1-.73,1.86-1.76,2.8l-.5.44v0h2.39v.92Z"/><path class="cls-36" d="M268.32,76.12v-.68l.7-.64c1.37-1.27,2-2,2-2.75a.92.92,0,0,0-1-1,2.12,2.12,0,0,0-1.25.48l-.33-.78a2.9,2.9,0,0,1,1.8-.6,1.74,1.74,0,0,1,1.93,1.77c0,1-.74,1.86-1.77,2.8l-.5.44v0h2.4v.92Z"/><path class="cls-36" d="M263.5,103.6v-.68l.69-.64c1.38-1.27,2-2,2-2.75a.92.92,0,0,0-1.05-1,2.15,2.15,0,0,0-1.25.48l-.32-.78a2.9,2.9,0,0,1,1.8-.6,1.73,1.73,0,0,1,1.92,1.77c0,1-.73,1.86-1.76,2.8l-.5.44v0h2.39v.92Z"/><path class="cls-36" d="M270.06,98.75h0l-1.07.54-.19-.84,1.43-.7h.92v5.85h-1.07Z"/><path class="cls-36" d="M263.5,117.34v-.68l.69-.64c1.38-1.27,2-2,2-2.75a.92.92,0,0,0-1.05-1,2.15,2.15,0,0,0-1.25.48l-.32-.78a2.9,2.9,0,0,1,1.8-.6,1.73,1.73,0,0,1,1.92,1.77c0,1-.73,1.86-1.76,2.8l-.5.44v0h2.39v.92Z"/><path class="cls-36" d="M272.46,114.37c0,1.89-.74,3.07-2.15,3.07s-2.06-1.23-2.07-3,.78-3,2.14-3S272.46,112.65,272.46,114.37Zm-3.1,0c0,1.43.39,2.17,1,2.17s1-.79,1-2.2-.32-2.16-1-2.16S269.36,113,269.36,114.42Z"/><path class="cls-36" d="M240.5,48.64V48l.69-.64c1.38-1.27,2-2,2-2.75a.92.92,0,0,0-1-1,2.15,2.15,0,0,0-1.25.48l-.32-.78a2.9,2.9,0,0,1,1.8-.6,1.74,1.74,0,0,1,1.93,1.77c0,1-.74,1.86-1.77,2.8l-.5.44v0h2.39v.92Z"/><path class="cls-36" d="M245.77,47.85a4.5,4.5,0,0,0,.61,0,2.25,2.25,0,0,0,1.19-.45,2.18,2.18,0,0,0,.75-1.31h0a1.62,1.62,0,0,1-1.27.52,1.73,1.73,0,0,1-1.78-1.81,2.07,2.07,0,0,1,2.11-2.09c1.37,0,2.09,1.06,2.09,2.49a3.64,3.64,0,0,1-1,2.73,3.2,3.2,0,0,1-2,.8,3.84,3.84,0,0,1-.66,0Zm.58-3.14a1,1,0,0,0,1,1.07,1.09,1.09,0,0,0,.95-.48.69.69,0,0,0,.06-.33c0-.79-.29-1.46-1-1.46C246.75,43.51,246.35,44,246.35,44.71Z"/><path class="cls-36" d="M240.5,62.38V61.7l.69-.64c1.38-1.27,2-2,2-2.75a.92.92,0,0,0-1-1,2.15,2.15,0,0,0-1.25.48l-.32-.78a2.9,2.9,0,0,1,1.8-.6,1.74,1.74,0,0,1,1.93,1.77c0,1-.74,1.86-1.77,2.8l-.5.44v0h2.39v.92Z"/><path class="cls-36" d="M246.34,59.33a1.44,1.44,0,0,1-.89-1.3,1.74,1.74,0,0,1,2-1.6c1.27,0,1.84.75,1.84,1.47a1.47,1.47,0,0,1-.9,1.33v0a1.59,1.59,0,0,1,1.12,1.48c0,1.05-.89,1.75-2.14,1.75s-2.08-.8-2.08-1.61a1.63,1.63,0,0,1,1.1-1.52Zm2,1.49c0-.59-.43-.92-1.09-1.1a1.06,1.06,0,0,0-.86,1,.92.92,0,0,0,1,.95A.88.88,0,0,0,248.33,60.82ZM246.5,58c0,.48.4.77,1,.92a.94.94,0,0,0,.73-.88.79.79,0,0,0-.84-.83A.78.78,0,0,0,246.5,58Z"/><path class="cls-36" d="M240.5,76.12v-.68l.69-.64c1.38-1.27,2-2,2-2.75a.92.92,0,0,0-1-1,2.15,2.15,0,0,0-1.25.48l-.32-.78a2.9,2.9,0,0,1,1.8-.6,1.74,1.74,0,0,1,1.93,1.77c0,1-.74,1.86-1.77,2.8l-.5.44v0h2.39v.92Z"/><path class="cls-36" d="M249.35,70.27V71l-2.48,5.14h-1.16l2.47-4.92v0h-2.77v-.91Z"/><path class="cls-36" d="M240.5,103.6v-.68l.69-.64c1.38-1.27,2-2,2-2.75a.92.92,0,0,0-1-1,2.15,2.15,0,0,0-1.25.48l-.32-.78a2.9,2.9,0,0,1,1.8-.6,1.74,1.74,0,0,1,1.93,1.77c0,1-.74,1.86-1.77,2.8l-.5.44v0h2.39v.92Z"/><path class="cls-36" d="M248.88,98.54a2.84,2.84,0,0,0-.56,0,2,2,0,0,0-2,1.7h0a1.65,1.65,0,0,1,1.31-.57,1.76,1.76,0,0,1,1.79,1.91,2,2,0,0,1-2.06,2.09,2.23,2.23,0,0,1-2.2-2.53,3.51,3.51,0,0,1,1-2.61,3.29,3.29,0,0,1,2.08-.87,2.86,2.86,0,0,1,.56,0Zm-.51,3.13a1,1,0,0,0-1-1.16,1.07,1.07,0,0,0-.95.6.7.7,0,0,0-.08.35c0,.78.38,1.41,1.11,1.41C248,102.87,248.37,102.37,248.37,101.67Z"/><path class="cls-36" d="M240.5,117.34v-.68l.69-.64c1.38-1.27,2-2,2-2.75a.92.92,0,0,0-1-1,2.15,2.15,0,0,0-1.25.48l-.32-.78a2.9,2.9,0,0,1,1.8-.6,1.74,1.74,0,0,1,1.93,1.77c0,1-.74,1.86-1.77,2.8l-.5.44v0h2.39v.92Z"/><path class="cls-36" d="M249.05,112.4H246.8l-.17,1.18a2.46,2.46,0,0,1,.41,0,2.61,2.61,0,0,1,1.43.38,1.67,1.67,0,0,1,.76,1.48,2.14,2.14,0,0,1-2.36,2,3.36,3.36,0,0,1-1.55-.34l.22-.84a3.06,3.06,0,0,0,1.29.3,1.14,1.14,0,0,0,1.27-1.06c0-.67-.5-1.11-1.66-1.11a5.88,5.88,0,0,0-.8,0l.38-3h3Z"/><path class="cls-36" d="M214.72,47.49a2.88,2.88,0,0,0,1.34.36c.84,0,1.18-.47,1.18-.93,0-.69-.66-1-1.34-1h-.5v-.81h.5c.51,0,1.16-.24,1.16-.81,0-.41-.29-.74-.94-.74a2.37,2.37,0,0,0-1.2.37l-.25-.8a3.21,3.21,0,0,1,1.68-.45c1.22,0,1.83.66,1.83,1.43a1.43,1.43,0,0,1-1.08,1.37v0A1.49,1.49,0,0,1,218.39,47c0,1-.83,1.78-2.28,1.78a3.18,3.18,0,0,1-1.64-.41Z"/><path class="cls-36" d="M221.76,48.64V47.15h-2.65v-.72l2.39-3.64h1.31v3.53h.75v.83h-.75v1.49Zm0-2.32v-1.6c0-.33,0-.66,0-1h0c-.18.37-.33.67-.51,1l-1.08,1.61v0Z"/><path class="cls-36" d="M214.72,61.23a2.87,2.87,0,0,0,1.34.37c.84,0,1.18-.48,1.18-.94,0-.69-.66-1-1.34-1h-.5v-.81h.5c.51,0,1.16-.24,1.16-.81,0-.41-.29-.74-.94-.74a2.37,2.37,0,0,0-1.2.37l-.25-.8a3.21,3.21,0,0,1,1.68-.45c1.22,0,1.83.66,1.83,1.43a1.43,1.43,0,0,1-1.08,1.37v0a1.49,1.49,0,0,1,1.29,1.45c0,1-.83,1.78-2.28,1.78a3.18,3.18,0,0,1-1.64-.41Z"/><path class="cls-36" d="M219.55,61.23a2.79,2.79,0,0,0,1.33.37c.85,0,1.18-.48,1.18-.94,0-.69-.66-1-1.33-1h-.51v-.81h.51c.5,0,1.15-.24,1.15-.81,0-.41-.29-.74-.94-.74a2.36,2.36,0,0,0-1.19.37l-.26-.8a3.25,3.25,0,0,1,1.69-.45c1.21,0,1.82.66,1.82,1.43a1.43,1.43,0,0,1-1.08,1.37v0a1.48,1.48,0,0,1,1.29,1.45c0,1-.83,1.78-2.28,1.78a3.11,3.11,0,0,1-1.63-.41Z"/><path class="cls-36" d="M214.72,75a3,3,0,0,0,1.34.36c.84,0,1.18-.48,1.18-.94,0-.69-.66-1-1.34-1h-.5V72.6h.5c.51,0,1.16-.24,1.16-.81,0-.41-.29-.74-.94-.74a2.37,2.37,0,0,0-1.2.37l-.25-.8a3.21,3.21,0,0,1,1.68-.45c1.22,0,1.83.66,1.83,1.43A1.43,1.43,0,0,1,217.1,73v0a1.49,1.49,0,0,1,1.29,1.45c0,1-.83,1.78-2.28,1.78a3.18,3.18,0,0,1-1.64-.41Z"/><path class="cls-36" d="M219.32,76.12v-.68l.7-.64c1.37-1.27,2-2,2-2.75a.92.92,0,0,0-1-1,2.15,2.15,0,0,0-1.26.48l-.32-.78a2.9,2.9,0,0,1,1.8-.6,1.74,1.74,0,0,1,1.93,1.77c0,1-.74,1.86-1.77,2.8l-.5.44v0h2.39v.92Z"/><path class="cls-36" d="M214.72,102.45a2.88,2.88,0,0,0,1.34.36c.84,0,1.18-.47,1.18-.93,0-.69-.66-1-1.34-1h-.5v-.81h.5c.51,0,1.16-.24,1.16-.81,0-.41-.29-.74-.94-.74a2.37,2.37,0,0,0-1.2.37l-.25-.8a3.21,3.21,0,0,1,1.68-.45c1.22,0,1.83.66,1.83,1.43a1.43,1.43,0,0,1-1.08,1.37v0a1.49,1.49,0,0,1,1.29,1.45c0,1-.83,1.78-2.28,1.78a3.18,3.18,0,0,1-1.64-.41Z"/><path class="cls-36" d="M221.06,98.75h0l-1.07.54-.19-.84,1.43-.7h.92v5.85h-1.07Z"/><path class="cls-36" d="M214.72,116.19a2.87,2.87,0,0,0,1.34.37c.84,0,1.18-.48,1.18-.94,0-.69-.66-1-1.34-1h-.5v-.81h.5c.51,0,1.16-.24,1.16-.81,0-.41-.29-.74-.94-.74a2.37,2.37,0,0,0-1.2.37l-.25-.8a3.21,3.21,0,0,1,1.68-.45c1.22,0,1.83.66,1.83,1.43a1.43,1.43,0,0,1-1.08,1.37v0a1.49,1.49,0,0,1,1.29,1.45c0,1-.83,1.78-2.28,1.78a3.18,3.18,0,0,1-1.64-.41Z"/><path class="cls-36" d="M223.45,114.37c0,1.89-.73,3.07-2.14,3.07s-2.06-1.23-2.07-3,.78-3,2.14-3S223.45,112.65,223.45,114.37Zm-3.09,0c0,1.43.38,2.17,1,2.17s1-.79,1-2.2-.32-2.16-1-2.16S220.36,113,220.36,114.42Z"/><path class="cls-36" d="M184.72,102.45a2.88,2.88,0,0,0,1.34.36c.84,0,1.18-.47,1.18-.93,0-.69-.66-1-1.34-1h-.5v-.81h.5c.51,0,1.16-.24,1.16-.81,0-.41-.29-.74-.94-.74a2.4,2.4,0,0,0-1.2.37l-.25-.8a3.21,3.21,0,0,1,1.68-.45c1.22,0,1.83.66,1.83,1.43a1.43,1.43,0,0,1-1.08,1.37v0a1.49,1.49,0,0,1,1.29,1.45c0,1-.83,1.78-2.28,1.78a3.18,3.18,0,0,1-1.64-.41Z"/><path class="cls-36" d="M192.88,98.54a2.84,2.84,0,0,0-.56,0,2,2,0,0,0-2,1.7h0a1.65,1.65,0,0,1,1.31-.57,1.76,1.76,0,0,1,1.79,1.91,2,2,0,0,1-2.06,2.09,2.24,2.24,0,0,1-2.21-2.53,3.52,3.52,0,0,1,1-2.61,3.26,3.26,0,0,1,2.08-.87,2.83,2.83,0,0,1,.56,0Zm-.51,3.13a1,1,0,0,0-1-1.16,1.1,1.1,0,0,0-1,.6.83.83,0,0,0-.07.35c0,.78.38,1.41,1.11,1.41C192,102.87,192.37,102.37,192.37,101.67Z"/><path class="cls-36" d="M184.72,116.19a2.87,2.87,0,0,0,1.34.37c.84,0,1.18-.48,1.18-.94,0-.69-.66-1-1.34-1h-.5v-.81h.5c.51,0,1.16-.24,1.16-.81,0-.41-.29-.74-.94-.74a2.4,2.4,0,0,0-1.2.37l-.25-.8a3.21,3.21,0,0,1,1.68-.45c1.22,0,1.83.66,1.83,1.43a1.43,1.43,0,0,1-1.08,1.37v0a1.49,1.49,0,0,1,1.29,1.45c0,1-.83,1.78-2.28,1.78a3.18,3.18,0,0,1-1.64-.41Z"/><path class="cls-36" d="M193.05,112.4H190.8l-.17,1.18a2.37,2.37,0,0,1,.41,0,2.61,2.61,0,0,1,1.43.38,1.67,1.67,0,0,1,.76,1.48,2.14,2.14,0,0,1-2.36,2,3.44,3.44,0,0,1-1.56-.34l.23-.84a3.06,3.06,0,0,0,1.29.3,1.14,1.14,0,0,0,1.27-1.06c0-.67-.5-1.11-1.66-1.11a5.77,5.77,0,0,0-.8,0l.38-3h3Z"/><path class="cls-36" d="M87.53,48.64V47.15H84.87v-.72l2.4-3.64h1.3v3.53h.76v.83h-.76v1.49Zm0-2.32v-1.6c0-.33,0-.66,0-1h0c-.18.37-.33.67-.51,1L85.94,46.3v0Z"/><path class="cls-36" d="M91.65,43.79h0l-1.07.54-.19-.84,1.43-.7h.92v5.85H91.65Z"/><path class="cls-36" d="M87.53,62.38V60.89H84.87v-.72l2.4-3.64h1.3v3.53h.76v.83h-.76v1.49Zm0-2.32v-1.6c0-.33,0-.66,0-1h0c-.18.37-.33.67-.51,1L85.94,60v0Z"/><path class="cls-36" d="M94.05,59.41c0,1.89-.74,3.07-2.15,3.07s-2.06-1.23-2.07-3,.78-3,2.15-3S94.05,57.69,94.05,59.41Zm-3.1.05c0,1.43.39,2.17,1,2.17s1-.79,1-2.2-.31-2.16-1-2.16S91,58,91,59.46Z"/><path class="cls-36" d="M85.32,75a2.92,2.92,0,0,0,1.33.36c.84,0,1.18-.48,1.18-.94,0-.69-.66-1-1.34-1H86V72.6h.5c.51,0,1.16-.24,1.16-.81,0-.41-.29-.74-.94-.74a2.4,2.4,0,0,0-1.2.37l-.25-.8a3.21,3.21,0,0,1,1.68-.45c1.22,0,1.83.66,1.83,1.43A1.43,1.43,0,0,1,87.69,73v0A1.49,1.49,0,0,1,89,74.44c0,1-.83,1.78-2.28,1.78a3.18,3.18,0,0,1-1.64-.41Z"/><path class="cls-36" d="M90.36,75.33a3.3,3.3,0,0,0,.61,0,2.25,2.25,0,0,0,1.19-.45,2.18,2.18,0,0,0,.75-1.31h0a1.62,1.62,0,0,1-1.27.52,1.73,1.73,0,0,1-1.78-1.81A2.07,2.07,0,0,1,92,70.17c1.37,0,2.09,1.06,2.09,2.49a3.64,3.64,0,0,1-1,2.73,3.2,3.2,0,0,1-2,.8,3.84,3.84,0,0,1-.66,0Zm.58-3.14a1,1,0,0,0,1,1.07,1.09,1.09,0,0,0,.95-.48.69.69,0,0,0,.06-.33c0-.79-.29-1.46-1-1.46C91.34,71,90.94,71.48,90.94,72.19Z"/><path class="cls-36" d="M79.73,102.45a2.8,2.8,0,0,0,1.33.36c.84,0,1.18-.47,1.18-.93,0-.69-.66-1-1.33-1H80.4v-.81h.51c.5,0,1.15-.24,1.15-.81,0-.41-.29-.74-.94-.74a2.4,2.4,0,0,0-1.2.37l-.25-.8a3.21,3.21,0,0,1,1.68-.45c1.22,0,1.83.66,1.83,1.43a1.43,1.43,0,0,1-1.08,1.37v0a1.49,1.49,0,0,1,1.29,1.45c0,1-.83,1.78-2.28,1.78a3.18,3.18,0,0,1-1.64-.41Z"/><path class="cls-36" d="M85.34,100.55a1.44,1.44,0,0,1-.89-1.3,1.74,1.74,0,0,1,2-1.6c1.27,0,1.84.75,1.84,1.47a1.47,1.47,0,0,1-.9,1.33v0A1.59,1.59,0,0,1,88.46,102c0,1-.89,1.75-2.14,1.75s-2.08-.8-2.08-1.61a1.63,1.63,0,0,1,1.1-1.52Zm2,1.49c0-.59-.43-.92-1.09-1.1a1.06,1.06,0,0,0-.86,1,.92.92,0,0,0,1,1A.88.88,0,0,0,87.33,102ZM85.5,99.2c0,.48.4.77,1,.92a.94.94,0,0,0,.73-.88.79.79,0,0,0-.84-.83A.78.78,0,0,0,85.5,99.2Z"/><path class="cls-36" d="M79.73,116.19a2.79,2.79,0,0,0,1.33.37c.84,0,1.18-.48,1.18-.94,0-.69-.66-1-1.33-1H80.4v-.81h.51c.5,0,1.15-.24,1.15-.81,0-.41-.29-.74-.94-.74a2.4,2.4,0,0,0-1.2.37l-.25-.8a3.21,3.21,0,0,1,1.68-.45c1.22,0,1.83.66,1.83,1.43a1.43,1.43,0,0,1-1.08,1.37v0a1.49,1.49,0,0,1,1.29,1.45c0,1-.83,1.78-2.28,1.78a3.18,3.18,0,0,1-1.64-.41Z"/><path class="cls-36" d="M88.35,111.49v.71l-2.48,5.14H84.71l2.47-4.92v0H84.41v-.91Z"/><path class="cls-36" d="M52.94,48.64V47.15H50.28v-.72l2.39-3.64H54v3.53h.76v.83H54v1.49Zm0-2.32v-1.6c0-.33,0-.66,0-1h0c-.18.37-.34.67-.52,1L51.34,46.3v0Z"/><path class="cls-36" d="M59.05,43.7H56.8l-.17,1.18a2.37,2.37,0,0,1,.41,0,2.58,2.58,0,0,1,1.42.38,1.68,1.68,0,0,1,.77,1.48,2.14,2.14,0,0,1-2.36,2,3.26,3.26,0,0,1-1.56-.35l.23-.83a3,3,0,0,0,1.28.3,1.14,1.14,0,0,0,1.27-1.06c0-.67-.49-1.12-1.65-1.12a5.46,5.46,0,0,0-.8.06l.37-3h3Z"/><path class="cls-36" d="M52.94,62.38V60.89H50.28v-.72l2.39-3.64H54v3.53h.76v.83H54v1.49Zm0-2.32v-1.6c0-.33,0-.66,0-1h0c-.18.37-.34.67-.52,1L51.34,60v0Z"/><path class="cls-36" d="M57.76,62.38V60.89H55.1v-.72l2.4-3.64h1.3v3.53h.76v.83H58.8v1.49Zm0-2.32v-1.6c0-.33,0-.66,0-1h0c-.18.37-.33.67-.51,1L56.17,60v0Z"/><path class="cls-36" d="M52.94,103.6v-1.49H50.28v-.72l2.39-3.64H54v3.53h.76v.83H54v1.49Zm0-2.32v-1.6c0-.33,0-.66,0-1h0c-.18.37-.34.67-.52,1l-1.08,1.61v0Z"/><path class="cls-36" d="M55.55,102.45a2.8,2.8,0,0,0,1.33.36c.84,0,1.18-.47,1.18-.93,0-.69-.66-1-1.33-1h-.51v-.81h.51c.5,0,1.15-.24,1.15-.81,0-.41-.29-.74-.94-.74a2.4,2.4,0,0,0-1.2.37l-.25-.8a3.24,3.24,0,0,1,1.68-.45c1.22,0,1.83.66,1.83,1.43a1.43,1.43,0,0,1-1.08,1.37v0a1.49,1.49,0,0,1,1.29,1.45c0,1-.83,1.78-2.28,1.78a3.18,3.18,0,0,1-1.64-.41Z"/><path class="cls-36" d="M52.94,117.34v-1.49H50.28v-.72l2.39-3.64H54V115h.76v.83H54v1.49Zm0-2.32v-1.6c0-.33,0-.66,0-1h0c-.18.37-.34.67-.52,1L51.34,115v0Z"/><path class="cls-36" d="M55.32,117.34v-.68L56,116c1.38-1.27,2-2,2-2.75a.92.92,0,0,0-1-1,2.15,2.15,0,0,0-1.25.48l-.32-.78a2.9,2.9,0,0,1,1.8-.6,1.74,1.74,0,0,1,1.93,1.77c0,1-.74,1.86-1.77,2.8l-.5.44v0h2.39v.92Z"/><path class="cls-25" d="M168.15,40.72a.83.83,0,0,1,.8-.85h9.12a.83.83,0,0,1,.81.85v9.74a.84.84,0,0,1-.81.86H169a.84.84,0,0,1-.8-.86Z"/><path class="cls-37" d="M168.15,40.72a.83.83,0,0,1,.8-.85h9.12a.83.83,0,0,1,.81.85v9.74a.84.84,0,0,1-.81.86H169a.84.84,0,0,1-.8-.86Z"/><path class="cls-27" d="M167.92,38.73v1.58c0,.2.32.36.73.36h9.65c.4,0,.72-.16.72-.36V38.73Z"/><path class="cls-25" d="M180.19,40.72a.83.83,0,0,1,.8-.85h9.12a.83.83,0,0,1,.8.85v9.74a.84.84,0,0,1-.8.86H181a.84.84,0,0,1-.8-.86Z"/><path class="cls-38" d="M180.19,40.72a.83.83,0,0,1,.8-.85h9.12a.84.84,0,0,1,.81.85v9.74a.84.84,0,0,1-.81.86H181a.84.84,0,0,1-.8-.86Z"/><path class="cls-27" d="M180,38.73v1.58c0,.2.32.36.72.36h9.66c.4,0,.72-.16.72-.36V38.73Z"/><path class="cls-25" d="M192.42,40.73a.83.83,0,0,1,.8-.86h9.12a.83.83,0,0,1,.81.86v9.73a.83.83,0,0,1-.81.86h-9.12a.83.83,0,0,1-.8-.86Z"/><path class="cls-39" d="M192.42,40.73a.83.83,0,0,1,.8-.86h9.12a.83.83,0,0,1,.81.86v9.73a.83.83,0,0,1-.81.86h-9.12a.83.83,0,0,1-.8-.86Z"/><path class="cls-27" d="M192.19,38.73v1.58c0,.2.32.36.73.36h9.65c.4,0,.72-.16.72-.36V38.73Z"/></g><g id="SYMBOLER-5" data-name="SYMBOLER"><line class="cls-40" x1="311.64" y1="83.1" x2="311.64" y2="135.98"/><rect class="cls-41" x="121.33" y="2.59" width="31.11" height="31.15"/><rect class="cls-42" x="135.47" y="31.23" width="16.98" height="2.51"/><rect class="cls-42" x="121.27" y="31.46" width="12.73" height="2.32"/><polygon class="cls-42" points="133.99 2.6 133.99 2.59 121.33 2.59 121.33 3.74 132.38 3.74 132.38 6.49 134 6.49 134 2.6 133.99 2.6"/><path class="cls-42" d="M136.63,11.19a1.79,1.79,0,1,0-1.78-1.79,1.79,1.79,0,0,0,1.78,1.79"/><path class="cls-42" d="M140.4,19.55a.71.71,0,0,1,.62-.35l-2.73-6.33a1.79,1.79,0,0,1,.12.61v5l.92,1.94a1,1,0,0,0,1.33.54,1.14,1.14,0,0,0,.33-.23l-.33-.2a.71.71,0,0,1-.26-1"/><path class="cls-42" d="M144.19,17.72a1.5,1.5,0,1,0-1.49-1.5,1.49,1.49,0,0,0,1.49,1.5"/><path class="cls-42" d="M143,24.24l-1.86,5.64a.72.72,0,0,0,.48.9.71.71,0,0,0,.89-.46L144,25.84l-.33-1a1.21,1.21,0,0,1-.63-.57"/><path class="cls-42" d="M146.81,29.88l-1.75-5.33a1.26,1.26,0,0,1-.75.33l-.31,1,1.45,4.48a.71.71,0,0,0,.89.46.72.72,0,0,0,.47-.9"/><path class="cls-42" d="M144.19,24.9h-.07a1.22,1.22,0,0,1-.46-.09l.34,1,.31-1-.12,0"/><path class="cls-42" d="M144.19,24.9h-.07a1.22,1.22,0,0,1-.46-.09l.34,1,.31-1-.12,0"/><path class="cls-42" d="M144,24.17l.91-.06.15.44a1.27,1.27,0,0,0,.37-.9V19.36a1.24,1.24,0,0,0-1.24-1.25h-.07a1.25,1.25,0,0,0-1.25,1.25v.7l.25.13V22l-.25-.14v1.82a1.19,1.19,0,0,0,.17.59l0-.13Z"/><path class="cls-42" d="M143.66,24.81l-.19-.61.53,0-.92-.06,0,.13a1.23,1.23,0,0,0,.62.57"/><path class="cls-42" d="M143.66,24.81l-.19-.61.53,0-.92-.06,0,.13a1.23,1.23,0,0,0,.62.57"/><path class="cls-42" d="M144,24.17l.53,0-.22.68a1.26,1.26,0,0,0,.75-.33l-.15-.44Z"/><path class="cls-42" d="M144,24.17l.53,0-.22.68a1.26,1.26,0,0,0,.75-.33l-.15-.44Z"/><path class="cls-42" d="M144,24.17l-.53,0,.19.61a1.22,1.22,0,0,0,.46.09h.07l.12,0,.22-.68Z"/><path class="cls-42" d="M144,24.17l-.53,0,.19.61a1.22,1.22,0,0,0,.46.09h.07l.12,0,.22-.68Z"/><path class="cls-42" d="M144,24.17l-.53,0,.19.61a1.22,1.22,0,0,0,.46.09h.07l.12,0,.22-.68Z"/><path class="cls-42" d="M141.37,19.29a.63.63,0,0,0-.35-.09l.18.41a1,1,0,0,1-.21,1.11l1.88,1.11V20.06Z"/><path class="cls-42" d="M141.2,19.61,141,19.2a.71.71,0,0,0-.36,1.32l.33.2a1,1,0,0,0,.21-1.11"/><path class="cls-42" d="M141.2,19.61,141,19.2a.71.71,0,0,0-.36,1.32l.33.2a1,1,0,0,0,.21-1.11"/><polygon class="cls-42" points="142.88 21.83 143.12 21.97 143.12 20.19 142.88 20.06 142.88 21.83"/><polygon class="cls-42" points="142.88 21.83 143.12 21.97 143.12 20.19 142.88 20.06 142.88 21.83"/><path class="cls-42" d="M134.82,21.18v-.37l-4,7.54a1.06,1.06,0,0,0,.46,1.42,1,1,0,0,0,1.41-.44l3.24-6.11-.29-2Z"/><path class="cls-42" d="M137,21.18l-1.08,2,1,6.85A1,1,0,0,0,138,31a1.06,1.06,0,0,0,.92-1.18l-1.26-8.69a.57.57,0,0,1-.13.08Z"/><polygon class="cls-42" points="135.59 21.18 135.88 23.22 136.96 21.18 135.59 21.18"/><polygon class="cls-42" points="135.59 21.18 135.88 23.22 136.96 21.18 135.59 21.18"/><path class="cls-42" d="M138.28,12.84v0a1.77,1.77,0,0,0-3.44.61v1.28l-3.51,2.07a1,1,0,0,0-.37,1.39,1,1,0,0,0,1.38.37l2.5-1.29v2.81h0l0,0v.68l.17-.33,1.31.32,1.34.14,0,.16a1.38,1.38,0,0,0,.75-1.39V18.47l-.78-1.63Z"/><path class="cls-42" d="M138.29,12.87v0l-.65,4,.78,1.63v-5a1.8,1.8,0,0,0-.12-.62"/><path class="cls-42" d="M138.29,12.87v0l-.65,4,.78,1.63v-5a1.8,1.8,0,0,0-.12-.62"/><polygon class="cls-42" points="134.82 20.81 134.82 21.18 135.59 21.18 135.53 20.71 136.3 20.8 135 20.48 134.82 20.81"/><polygon class="cls-42" points="134.82 20.81 134.82 21.18 135.59 21.18 135.53 20.71 136.3 20.8 135 20.48 134.82 20.81"/><path class="cls-42" d="M136.3,20.8l.76.18-.1.2h.57a.57.57,0,0,0,.13-.08l0-.16Z"/><path class="cls-42" d="M136.3,20.8l.76.18-.1.2h.57a.57.57,0,0,0,.13-.08l0-.16Z"/><polygon class="cls-42" points="135.59 21.18 136.96 21.18 137.06 20.98 136.3 20.8 135.53 20.71 135.59 21.18"/><polygon class="cls-42" points="135.59 21.18 136.96 21.18 137.06 20.98 136.3 20.8 135.53 20.71 135.59 21.18"/><polygon class="cls-42" points="135.59 21.18 136.96 21.18 137.06 20.98 136.3 20.8 135.53 20.71 135.59 21.18"/><rect class="cls-41" x="354.52" y="2.36" width="31.11" height="31.15"/><rect class="cls-42" x="368.65" y="30.99" width="16.98" height="2.51"/><rect class="cls-42" x="354.45" y="31.22" width="12.73" height="2.32"/><polygon class="cls-42" points="367.18 2.37 367.18 2.36 354.52 2.36 354.52 3.51 365.56 3.51 365.56 6.26 367.18 6.26 367.18 2.37 367.18 2.37"/><path class="cls-42" d="M369.81,11A1.79,1.79,0,1,0,368,9.17,1.79,1.79,0,0,0,369.81,11"/><path class="cls-42" d="M373.58,19.31a.71.71,0,0,1,.62-.34l-2.73-6.33a1.79,1.79,0,0,1,.12.61v5l.92,1.94a1,1,0,0,0,1.34.53,1.19,1.19,0,0,0,.33-.22l-.34-.2a.73.73,0,0,1-.26-1"/><path class="cls-42" d="M377.37,17.49a1.5,1.5,0,1,0-1.49-1.5,1.49,1.49,0,0,0,1.49,1.5"/><path class="cls-42" d="M376.22,24l-1.85,5.64a.72.72,0,0,0,.47.9.71.71,0,0,0,.89-.47l1.45-4.48-.33-1a1.25,1.25,0,0,1-.63-.57"/><path class="cls-42" d="M380,29.65l-1.75-5.34a1.2,1.2,0,0,1-.75.33l-.31,1,1.45,4.48a.71.71,0,0,0,.89.47.72.72,0,0,0,.47-.9"/><path class="cls-42" d="M377.37,24.67h-.07a1.34,1.34,0,0,1-.45-.09l.33,1,.31-1-.12,0"/><path class="cls-42" d="M377.37,24.67h-.07a1.34,1.34,0,0,1-.45-.09l.33,1,.31-1-.12,0"/><path class="cls-42" d="M377.18,23.93l.91-.06.15.44a1.26,1.26,0,0,0,.38-.89V19.13a1.25,1.25,0,0,0-1.25-1.25h-.07a1.24,1.24,0,0,0-1.24,1.25v.7l.24.13v1.78l-.24-.15v1.83a1.3,1.3,0,0,0,.16.59l0-.14Z"/><path class="cls-42" d="M376.85,24.58l-.2-.61.53,0-.91-.06,0,.14a1.25,1.25,0,0,0,.63.57"/><path class="cls-42" d="M376.85,24.58l-.2-.61.53,0-.91-.06,0,.14a1.25,1.25,0,0,0,.63.57"/><path class="cls-42" d="M377.18,23.93l.53,0-.22.67a1.2,1.2,0,0,0,.75-.33l-.15-.44Z"/><path class="cls-42" d="M377.18,23.93l.53,0-.22.67a1.2,1.2,0,0,0,.75-.33l-.15-.44Z"/><path class="cls-42" d="M377.18,23.93l-.53,0,.2.61a1.34,1.34,0,0,0,.45.09h.07a.53.53,0,0,0,.12,0l.22-.67Z"/><path class="cls-42" d="M377.18,23.93l-.53,0,.2.61a1.34,1.34,0,0,0,.45.09h.07a.53.53,0,0,0,.12,0l.22-.67Z"/><path class="cls-42" d="M377.18,23.93l-.53,0,.2.61a1.34,1.34,0,0,0,.45.09h.07a.53.53,0,0,0,.12,0l.22-.67Z"/><path class="cls-42" d="M374.55,19.05a.72.72,0,0,0-.35-.08l.18.41a1,1,0,0,1-.21,1.11l1.89,1.1V19.83Z"/><path class="cls-42" d="M374.38,19.38,374.2,19a.71.71,0,0,0-.62.34.73.73,0,0,0,.26,1l.33.2a1,1,0,0,0,.21-1.11"/><path class="cls-42" d="M374.38,19.38,374.2,19a.71.71,0,0,0-.62.34.73.73,0,0,0,.26,1l.33.2a1,1,0,0,0,.21-1.11"/><polygon class="cls-42" points="376.06 21.59 376.3 21.74 376.31 19.96 376.06 19.83 376.06 21.59"/><polygon class="cls-42" points="376.06 21.59 376.3 21.74 376.31 19.96 376.06 19.83 376.06 21.59"/><path class="cls-42" d="M368,21v-.38L364,28.12a1.06,1.06,0,0,0,.46,1.42,1,1,0,0,0,1.41-.45L369.06,23l-.29-2Z"/><path class="cls-42" d="M370.14,21l-1.08,2,1,6.86a1,1,0,0,0,1.17.9,1.06,1.06,0,0,0,.91-1.18l-1.26-8.69-.13.08Z"/><polygon class="cls-42" points="368.77 20.95 369.06 22.98 370.14 20.95 368.77 20.95"/><polygon class="cls-42" points="368.77 20.95 369.06 22.98 370.14 20.95 368.77 20.95"/><path class="cls-42" d="M371.46,12.61v0a1.77,1.77,0,0,0-3.44.61v1.28l-3.51,2.07a1,1,0,1,0,1,1.76l2.5-1.29v2.8h0l0,0v.67l.18-.33,1.3.32,1.34.15,0,.16a1.39,1.39,0,0,0,.75-1.4V18.24l-.78-1.63Z"/><path class="cls-42" d="M371.47,12.64v0l-.65,4,.78,1.63v-5a1.74,1.74,0,0,0-.12-.61"/><path class="cls-42" d="M371.47,12.64v0l-.65,4,.78,1.63v-5a1.74,1.74,0,0,0-.12-.61"/><polygon class="cls-42" points="368 20.57 368 20.95 368.77 20.95 368.71 20.48 369.48 20.56 368.18 20.24 368 20.57"/><polygon class="cls-42" points="368 20.57 368 20.95 368.77 20.95 368.71 20.48 369.48 20.56 368.18 20.24 368 20.57"/><path class="cls-42" d="M369.48,20.56l.76.19-.1.2h.57l.13-.08,0-.16Z"/><path class="cls-42" d="M369.48,20.56l.76.19-.1.2h.57l.13-.08,0-.16Z"/><polygon class="cls-42" points="368.77 20.95 370.14 20.95 370.24 20.75 369.48 20.57 368.71 20.48 368.77 20.95"/><polygon class="cls-42" points="368.77 20.95 370.14 20.95 370.24 20.75 369.48 20.57 368.71 20.48 368.77 20.95"/><polygon class="cls-42" points="368.77 20.95 370.14 20.95 370.24 20.75 369.48 20.57 368.71 20.48 368.77 20.95"/><rect class="cls-41" x="121.36" y="126.29" width="31.11" height="31.15"/><rect class="cls-42" x="135.49" y="154.92" width="16.98" height="2.51"/><rect class="cls-42" x="121.29" y="155.15" width="12.73" height="2.32"/><polygon class="cls-42" points="134.01 126.29 134.01 126.29 121.36 126.29 121.36 127.44 132.4 127.44 132.4 130.19 134.02 130.19 134.02 126.29 134.01 126.29"/><path class="cls-42" d="M136.65,134.88a1.79,1.79,0,1,0-1.78-1.78,1.78,1.78,0,0,0,1.78,1.78"/><path class="cls-42" d="M140.42,143.24a.68.68,0,0,1,.62-.34l-2.73-6.33a1.74,1.74,0,0,1,.12.61v5l.92,2a1,1,0,0,0,1.33.53.86.86,0,0,0,.33-.23l-.33-.19a.73.73,0,0,1-.26-1"/><path class="cls-42" d="M144.21,141.42a1.5,1.5,0,1,0-1.49-1.5,1.49,1.49,0,0,0,1.49,1.5"/><path class="cls-42" d="M143.06,147.93l-1.86,5.65a.73.73,0,0,0,.48.9.71.71,0,0,0,.89-.47l1.45-4.48-.33-1a1.17,1.17,0,0,1-.63-.57"/><path class="cls-42" d="M146.83,153.58l-1.75-5.34a1.26,1.26,0,0,1-.75.33l-.31,1,1.45,4.48a.7.7,0,0,0,.89.47.73.73,0,0,0,.47-.9"/><path class="cls-42" d="M144.21,148.6h-.07a1.14,1.14,0,0,1-.45-.1l.33,1,.31-1-.12,0"/><path class="cls-42" d="M144.21,148.6h-.07a1.14,1.14,0,0,1-.45-.1l.33,1,.31-1-.12,0"/><path class="cls-42" d="M144,147.86l.91-.06.15.44a1.25,1.25,0,0,0,.37-.9v-4.29a1.24,1.24,0,0,0-1.24-1.25h-.07a1.24,1.24,0,0,0-1.24,1.25v.71l.24.13v1.78l-.24-.15v1.82a1.16,1.16,0,0,0,.16.59l0-.13Z"/><path class="cls-42" d="M143.69,148.5l-.2-.6.53,0-.92-.06,0,.13a1.17,1.17,0,0,0,.63.57"/><path class="cls-42" d="M143.69,148.5l-.2-.6.53,0-.92-.06,0,.13a1.17,1.17,0,0,0,.63.57"/><path class="cls-42" d="M144,147.86l.53,0-.22.67a1.26,1.26,0,0,0,.75-.33l-.15-.44Z"/><path class="cls-42" d="M144,147.86l.53,0-.22.67a1.26,1.26,0,0,0,.75-.33l-.15-.44Z"/><path class="cls-42" d="M144,147.86l-.53,0,.2.6a1.14,1.14,0,0,0,.45.1h.07l.12,0,.22-.67Z"/><path class="cls-42" d="M144,147.86l-.53,0,.2.6a1.14,1.14,0,0,0,.45.1h.07l.12,0,.22-.67Z"/><path class="cls-42" d="M144,147.86l-.53,0,.2.6a1.14,1.14,0,0,0,.45.1h.07l.12,0,.22-.67Z"/><path class="cls-42" d="M141.39,143a.72.72,0,0,0-.35-.08l.18.4a1,1,0,0,1-.21,1.11l1.89,1.11v-1.76Z"/><path class="cls-42" d="M141.22,143.3l-.18-.4a.68.68,0,0,0-.62.34.73.73,0,0,0,.26,1l.33.19a1,1,0,0,0,.21-1.11"/><path class="cls-42" d="M141.22,143.3l-.18-.4a.68.68,0,0,0-.62.34.73.73,0,0,0,.26,1l.33.19a1,1,0,0,0,.21-1.11"/><polygon class="cls-42" points="142.9 145.52 143.14 145.67 143.14 143.89 142.9 143.76 142.9 145.52"/><polygon class="cls-42" points="142.9 145.52 143.14 145.67 143.14 143.89 142.9 143.76 142.9 145.52"/><path class="cls-42" d="M134.84,144.88v-.38l-4.05,7.55a1.06,1.06,0,0,0,.46,1.42,1,1,0,0,0,1.41-.45l3.24-6.11-.29-2Z"/><path class="cls-42" d="M137,144.88l-1.08,2,.95,6.85a1,1,0,0,0,1.18.9,1.06,1.06,0,0,0,.91-1.18l-1.26-8.69-.13.09Z"/><polygon class="cls-42" points="135.61 144.88 135.9 146.91 136.98 144.88 135.61 144.88"/><polygon class="cls-42" points="135.61 144.88 135.9 146.91 136.98 144.88 135.61 144.88"/><path class="cls-42" d="M138.3,136.53v0a1.76,1.76,0,0,0-1.66-1.18,1.79,1.79,0,0,0-1.78,1.79v1.27l-3.51,2.07a1,1,0,0,0,1,1.77l2.5-1.29v2.8h0l0,0v.67l.18-.33,1.3.32,1.34.15,0,.15a1.38,1.38,0,0,0,.75-1.39v-1.24l-.78-1.63Z"/><path class="cls-42" d="M138.31,136.57v0l-.65,4,.78,1.63v-5a1.74,1.74,0,0,0-.12-.61"/><path class="cls-42" d="M138.31,136.57v0l-.65,4,.78,1.63v-5a1.74,1.74,0,0,0-.12-.61"/><polygon class="cls-42" points="134.84 144.5 134.84 144.88 135.61 144.88 135.55 144.41 136.32 144.49 135.02 144.17 134.84 144.5"/><polygon class="cls-42" points="134.84 144.5 134.84 144.88 135.61 144.88 135.55 144.41 136.32 144.49 135.02 144.17 134.84 144.5"/><path class="cls-42" d="M136.32,144.49l.76.19-.1.2h.57l.13-.09,0-.15Z"/><path class="cls-42" d="M136.32,144.49l.76.19-.1.2h.57l.13-.09,0-.15Z"/><polygon class="cls-42" points="135.61 144.88 136.98 144.88 137.08 144.68 136.32 144.49 135.55 144.41 135.61 144.88"/><polygon class="cls-42" points="135.61 144.88 136.98 144.88 137.08 144.68 136.32 144.49 135.55 144.41 135.61 144.88"/><polygon class="cls-42" points="135.61 144.88 136.98 144.88 137.08 144.68 136.32 144.49 135.55 144.41 135.61 144.88"/><rect class="cls-41" x="353.99" y="126.44" width="31.11" height="31.15"/><rect class="cls-42" x="368.13" y="155.07" width="16.98" height="2.51"/><rect class="cls-42" x="353.93" y="155.3" width="12.73" height="2.32"/><polygon class="cls-42" points="366.65 126.44 366.65 126.44 354 126.44 354 127.59 365.04 127.59 365.04 130.34 366.66 130.34 366.66 126.44 366.65 126.44"/><path class="cls-42" d="M369.29,135a1.79,1.79,0,1,0-1.78-1.79,1.79,1.79,0,0,0,1.78,1.79"/><path class="cls-42" d="M373.06,143.4a.69.69,0,0,1,.62-.35L371,136.72a1.79,1.79,0,0,1,.12.61v5l.92,1.94a1,1,0,0,0,1.33.53,1,1,0,0,0,.33-.22l-.33-.2a.72.72,0,0,1-.26-1"/><path class="cls-42" d="M376.85,141.57a1.5,1.5,0,1,0-1.49-1.5,1.49,1.49,0,0,0,1.49,1.5"/><path class="cls-42" d="M375.7,148.09l-1.86,5.64a.72.72,0,0,0,.48.9.71.71,0,0,0,.89-.47l1.45-4.48-.33-1a1.25,1.25,0,0,1-.63-.57"/><path class="cls-42" d="M379.47,153.73l-1.75-5.34a1.2,1.2,0,0,1-.75.33l-.31,1,1.45,4.48a.7.7,0,0,0,.89.47.72.72,0,0,0,.47-.9"/><path class="cls-42" d="M376.85,148.75h-.07a1.34,1.34,0,0,1-.45-.09l.33,1,.31-1-.12,0"/><path class="cls-42" d="M376.85,148.75h-.07a1.34,1.34,0,0,1-.45-.09l.33,1,.31-1-.12,0"/><path class="cls-42" d="M376.66,148l.91-.06.15.44a1.25,1.25,0,0,0,.37-.89v-4.29a1.24,1.24,0,0,0-1.24-1.25h-.07a1.24,1.24,0,0,0-1.24,1.25v.7l.24.13v1.78l-.24-.15v1.83a1.18,1.18,0,0,0,.16.59l0-.14Z"/><path class="cls-42" d="M376.33,148.66l-.2-.61.53,0-.92-.06,0,.14a1.25,1.25,0,0,0,.63.57"/><path class="cls-42" d="M376.33,148.66l-.2-.61.53,0-.92-.06,0,.14a1.25,1.25,0,0,0,.63.57"/><path class="cls-42" d="M376.66,148l.53,0-.22.67a1.2,1.2,0,0,0,.75-.33l-.15-.44Z"/><path class="cls-42" d="M376.66,148l.53,0-.22.67a1.2,1.2,0,0,0,.75-.33l-.15-.44Z"/><path class="cls-42" d="M376.66,148l-.53,0,.2.61a1.34,1.34,0,0,0,.45.09h.07l.12,0,.22-.67Z"/><path class="cls-42" d="M376.66,148l-.53,0,.2.61a1.34,1.34,0,0,0,.45.09h.07l.12,0,.22-.67Z"/><path class="cls-42" d="M376.66,148l-.53,0,.2.61a1.34,1.34,0,0,0,.45.09h.07l.12,0,.22-.67Z"/><path class="cls-42" d="M374,143.13a.72.72,0,0,0-.35-.08l.18.41a1,1,0,0,1-.21,1.11l1.89,1.1v-1.76Z"/><path class="cls-42" d="M373.86,143.46l-.18-.41a.69.69,0,0,0-.62.35.72.72,0,0,0,.26,1l.33.2a1,1,0,0,0,.21-1.11"/><path class="cls-42" d="M373.86,143.46l-.18-.41a.69.69,0,0,0-.62.35.72.72,0,0,0,.26,1l.33.2a1,1,0,0,0,.21-1.11"/><polygon class="cls-42" points="375.54 145.67 375.78 145.82 375.78 144.04 375.54 143.91 375.54 145.67"/><polygon class="cls-42" points="375.54 145.67 375.78 145.82 375.78 144.04 375.54 143.91 375.54 145.67"/><path class="cls-42" d="M367.48,145v-.38l-4.05,7.55a1.06,1.06,0,0,0,.46,1.42,1,1,0,0,0,1.41-.45l3.24-6.11-.29-2Z"/><path class="cls-42" d="M369.62,145l-1.08,2,.95,6.86a1.05,1.05,0,0,0,1.17.9,1.07,1.07,0,0,0,.92-1.18L370.32,145l-.13.08Z"/><polygon class="cls-42" points="368.25 145.03 368.54 147.06 369.62 145.03 368.25 145.03"/><polygon class="cls-42" points="368.25 145.03 368.54 147.06 369.62 145.03 368.25 145.03"/><path class="cls-42" d="M370.94,136.69v0a1.77,1.77,0,0,0-3.44.61v1.28L364,140.68a1,1,0,0,0,1,1.76l2.5-1.29V144h0l0,0v.67l.18-.33,1.3.32,1.34.15,0,.16a1.4,1.4,0,0,0,.75-1.4v-1.23l-.78-1.63Z"/><path class="cls-42" d="M371,136.72v0l-.65,4,.78,1.63v-5a1.74,1.74,0,0,0-.12-.61"/><path class="cls-42" d="M371,136.72v0l-.65,4,.78,1.63v-5a1.74,1.74,0,0,0-.12-.61"/><polygon class="cls-42" points="367.48 144.65 367.48 145.03 368.25 145.03 368.19 144.56 368.96 144.65 367.66 144.32 367.48 144.65"/><polygon class="cls-42" points="367.48 144.65 367.48 145.03 368.25 145.03 368.19 144.56 368.96 144.65 367.66 144.32 367.48 144.65"/><path class="cls-42" d="M369,144.64l.76.19-.1.2h.57l.13-.08,0-.16Z"/><path class="cls-42" d="M369,144.64l.76.19-.1.2h.57l.13-.08,0-.16Z"/><polygon class="cls-42" points="368.25 145.03 369.62 145.03 369.72 144.83 368.96 144.65 368.19 144.56 368.25 145.03"/><polygon class="cls-42" points="368.25 145.03 369.62 145.03 369.72 144.83 368.96 144.65 368.19 144.56 368.25 145.03"/><polygon class="cls-42" points="368.25 145.03 369.62 145.03 369.72 144.83 368.96 144.65 368.19 144.56 368.25 145.03"/><rect class="cls-43" x="312.41" y="132.02" width="25.45" height="25.45"/><path class="cls-44" d="M326.64,133.37a1.93,1.93,0,1,1-2,1.93A2,2,0,0,1,326.64,133.37Z"/><path class="cls-44" d="M317.29,140.12l1.48,7.61a3.48,3.48,0,0,0,3.21,3.09l4.76,0c1.12,0,1.12-1.15,0-1.22l-4.33,0c-1.53-.08-2.27-.69-2.56-2.4l-1.48-7.37C318.2,139.23,317.12,139.27,317.29,140.12Z"/><path class="cls-44" d="M323,139.35c.23-1.16,1-1.8,3.16-1.31l6.88,1.38a1,1,0,0,1-.52,1.93l-5.87-1.2L324.87,146h3.49a1.52,1.52,0,0,1,1.75,1.31l1.19,7.76a1.12,1.12,0,0,1-2.23.25l-1-6.55-5.8.07c-1.11,0-1.76-1.41-1.37-2.77Z"/><path class="cls-44" d="M331.59,143.74c-.08.49-.63.42-.59-.09.06-2.32,3.2-2.31,3,.25v11.83a.32.32,0,0,1-.63,0l0-12.3C333.26,142.15,331.52,142.5,331.59,143.74Z"/><rect class="cls-43" x="285.47" y="131.96" width="25.45" height="25.45"/><path class="cls-44" d="M294.28,133.36a1.93,1.93,0,1,1-2,1.93A1.95,1.95,0,0,1,294.28,133.36Z"/><path class="cls-44" d="M290.94,140.06l1.47,7.62a3.48,3.48,0,0,0,3.22,3.08l4.76,0c1.12,0,1.12-1.15,0-1.22l-4.33,0c-1.54-.08-2.28-.68-2.56-2.4L292,139.82C291.85,139.17,290.76,139.22,290.94,140.06Z"/><path class="cls-44" d="M292.81,139.79l1.41,7.24a2.07,2.07,0,0,0,2.49,1.82H302l1.11,6.59c.18,1.23,2.45.94,2.23-.33l-1.18-7.68c-.18-.9-.85-1.35-2-1.38l-1.08.07c.83-2.82-.88-5.13-4.24-4.84l-.41-2.25C295.92,137.33,292.46,137.62,292.81,139.79Z"/><path class="cls-44" d="M209.31,133.31a1.93,1.93,0,1,1-2,1.93A1.95,1.95,0,0,1,209.31,133.31Z"/><path class="cls-44" d="M177,133.29a1.93,1.93,0,1,1-2,1.94A2,2,0,0,1,177,133.29Z"/><polyline class="cls-45" points="232.68 119.86 232.68 123.86 228.68 123.86"/><line class="cls-46" x1="221.79" y1="123.86" x2="183.86" y2="123.86"/><polyline class="cls-45" points="180.41 123.86 176.41 123.86 176.41 119.86"/><line class="cls-47" x1="176.41" y1="111.85" x2="176.41" y2="99.83"/><polyline class="cls-45" points="176.41 95.82 176.41 91.82 180.41 91.82"/><line class="cls-46" x1="187.31" y1="91.82" x2="225.23" y2="91.82"/><polyline class="cls-45" points="228.68 91.82 232.68 91.82 232.68 95.82"/><line class="cls-47" x1="232.68" y1="103.84" x2="232.68" y2="115.86"/><line class="cls-48" x1="204.2" y1="129.49" x2="312.08" y2="129.49"/><rect class="cls-43" x="434.07" y="131.98" width="25.51" height="25.51"/><path class="cls-44" d="M446.73,135.29a9.57,9.57,0,1,1-9.56,9.56A9.57,9.57,0,0,1,446.73,135.29Z"/><path class="cls-49" d="M451.89,141.5l-.55.83h-1.26v-.83h-.18l-4.7,7.3a2.14,2.14,0,0,0-.29.95,2.75,2.75,0,0,0,2.66,2.67,2.24,2.24,0,0,0,1.93-1,.34.34,0,0,0,0-.49c-.25-.24-.46,0-.53.11a1.57,1.57,0,0,1-1.4.67,2.24,2.24,0,0,1-1-.32,1.9,1.9,0,0,1-.74-.86c0-.08-.08-.24,0-.3a.14.14,0,0,1,.21.09,2.24,2.24,0,0,0,.66.8,2,2,0,0,0,.82.28,1.67,1.67,0,0,0,1.25-.67.62.62,0,0,1,.51-.21c.24,0,.58.32.58.61a.56.56,0,0,1-.12.4h.59c.35,0,.47-.2.47-.48v-6.19a1.18,1.18,0,0,0,1.24-1.17V141.5Z"/><path class="cls-49" d="M448.36,143.18v-3.61l1.08.1a1.11,1.11,0,0,0,1.14-.84l-2.66-1.62a2.23,2.23,0,0,0-1.51-.39A1.38,1.38,0,0,0,445,138.2V140s-4,6.11-4.33,6.52a3,3,0,0,0-.56,1.75,2,2,0,0,0,1.9,2h2.44a3.39,3.39,0,0,1,0-.49,2.29,2.29,0,0,1,.26-1c.12-.24,3.66-5.58,3.66-5.58Zm-1.1-3.6h0a.73.73,0,0,1-.73.76.74.74,0,0,1-.74-.74v-1.34a.16.16,0,0,1,.16-.16.16.16,0,0,1,.16.16v1.34a.41.41,0,0,0,.41.42.42.42,0,0,0,.42-.42v-1.34a.16.16,0,0,1,.15-.16.17.17,0,0,1,.17.16Z"/><path class="cls-50" d="M446.87,134.18a10.58,10.58,0,1,1-10.57,10.58,10.58,10.58,0,0,1,10.57-10.58ZM441.49,138l12.06,12.19A8.62,8.62,0,0,0,441.49,138Zm10.95,13.32-12.09-12.22a8.62,8.62,0,0,0,12.09,12.22Z"/><rect class="cls-43" x="41.02" y="131.98" width="25.51" height="25.51"/><path class="cls-44" d="M53.69,135.29a9.57,9.57,0,1,1-9.57,9.57A9.56,9.56,0,0,1,53.69,135.29Z"/><path class="cls-49" d="M58.85,141.5l-.56.83H57v-.83h-.19l-4.69,7.3a2.15,2.15,0,0,0-.3.95,2.76,2.76,0,0,0,2.67,2.67,2.24,2.24,0,0,0,1.93-1,.34.34,0,0,0,0-.49c-.26-.24-.46,0-.54.11a1.55,1.55,0,0,1-1.39.67,2.2,2.2,0,0,1-1-.32,1.83,1.83,0,0,1-.74-.86c0-.08-.08-.24,0-.3a.15.15,0,0,1,.21.09,2.18,2.18,0,0,0,.65.8,2,2,0,0,0,.83.28,1.67,1.67,0,0,0,1.24-.67.62.62,0,0,1,.52-.21c.23,0,.58.32.58.61a.68.68,0,0,1-.12.4h.58c.35,0,.47-.2.47-.48v-6.19a1.19,1.19,0,0,0,1.25-1.17V141.5Z"/><path class="cls-49" d="M55.31,143.18v-3.61l1.09.1a1.1,1.1,0,0,0,1.13-.84l-2.65-1.62a2.27,2.27,0,0,0-1.52-.38A1.37,1.37,0,0,0,52,138.2V140s-4,6.11-4.33,6.53a3,3,0,0,0-.57,1.74,2,2,0,0,0,1.9,2h2.44a2.73,2.73,0,0,1,0-.49,2.32,2.32,0,0,1,.25-1c.12-.24,3.66-5.58,3.66-5.58Zm-1.1-3.6h0a.73.73,0,0,1-.72.76.74.74,0,0,1-.74-.74v-1.34a.16.16,0,0,1,.16-.16.16.16,0,0,1,.15.16v1.34a.42.42,0,0,0,.42.42.41.41,0,0,0,.41-.42v-1.34a.16.16,0,0,1,.16-.16.16.16,0,0,1,.16.16Z"/><path class="cls-50" d="M53.83,134.18a10.58,10.58,0,1,1-10.58,10.58,10.58,10.58,0,0,1,10.58-10.58ZM48.44,138l12.07,12.18A8.62,8.62,0,0,0,48.44,138Zm11,13.31L47.3,139.12a8.62,8.62,0,0,0,6.53,14.26A8.55,8.55,0,0,0,59.4,151.34Z"/><line class="cls-51" x1="204.58" y1="130" x2="204.58" y2="123.73"/><polyline class="cls-45" points="336 79.31 336 83.31 332 83.31"/><line class="cls-52" x1="324.68" y1="83.31" x2="313.7" y2="83.31"/><polyline class="cls-45" points="310.03 83.31 306.03 83.31 306.03 79.31"/><line class="cls-53" x1="306.03" y1="73.86" x2="306.03" y2="65.68"/><line class="cls-54" x1="306.03" y1="62.95" x2="306.03" y2="43.87"/><polyline class="cls-45" points="306.03 41.15 306.03 37.15 310.03 37.15"/><line class="cls-52" x1="317.36" y1="37.15" x2="328.34" y2="37.15"/><polyline class="cls-45" points="332 37.15 336 37.15 336 41.15"/><line class="cls-53" x1="336" y1="46.6" x2="336" y2="54.78"/><line class="cls-54" x1="336" y1="57.5" x2="336" y2="76.59"/><rect class="cls-55" x="158.66" y="131.99" width="25.51" height="25.51"/><path class="cls-24" d="M177.77,143a3.65,3.65,0,0,0-1.58.35l-1.35-2.38a1.67,1.67,0,0,1-.16-.58c0-.51.49-1.09.49-1.29a.43.43,0,0,0-.43-.43H173.3a.44.44,0,1,0,0,.87h.6a.13.13,0,0,1,.13.14c0,.2-.18.28-.18.69a1.06,1.06,0,0,0,.1.47.25.25,0,0,1,0,.28l-4.85.91a.25.25,0,0,1-.22-.07s-1.11-1.47-1-1.66,1-.18,1-.18c.16-.07.28-.13.28-.29a.29.29,0,0,0-.28-.29h-2.75a.43.43,0,1,0,0,.86,2.52,2.52,0,0,1,.72-.05,1.4,1.4,0,0,1,.42.78,20.77,20.77,0,0,1-.94,2.07,3.75,3.75,0,1,0,2.5,4.12h.68a1.59,1.59,0,0,0,3.12-.43,1.34,1.34,0,0,0-.06-.4l2.4-3.18c.05,0,.08,0,.16,0a.19.19,0,0,1,.12.08c0,.05.25.44.25.44a3.75,3.75,0,1,0,2.32-.8Zm-12.69,6.64h0a2.89,2.89,0,0,1,0-5.78,3,3,0,0,1,.85.13l-1.14,2.47a.6.6,0,0,0,.57.87h2.54a2.89,2.89,0,0,1-2.82,2.31Zm.87-3.18h0c-.07,0-.17-.06-.14-.15l.88-2a2.87,2.87,0,0,1,1.26,2.1Zm3.51,0h-.64a3.77,3.77,0,0,0-1.76-2.89h0l.59-1.38c0-.08,0-.14.1-.14s.07.06.12.14l2,3.56a1.57,1.57,0,0,0-.43.71Zm1.53,1.15h0a.72.72,0,1,1,.72-.72.72.72,0,0,1-.72.72Zm1.09-1.87h0a1.52,1.52,0,0,0-1.09-.43,1.87,1.87,0,0,0-.34,0s-1.4-2.39-1.43-2.47,0-.12.15-.12l4.85-.91a.44.44,0,0,1,.43.44c0,.24-2.57,3.46-2.57,3.46Zm5.69,3.9h0a2.89,2.89,0,0,1-1.87-5.08l1.49,2.59a.43.43,0,1,0,.78-.38l-1.54-2.67a2.89,2.89,0,1,1,1.14,5.54Z"/><rect class="cls-43" x="187.36" y="131.99" width="25.51" height="25.51"/><path class="cls-24" d="M196.88,150.19a1.5,1.5,0,1,1,1.49,1.49,1.5,1.5,0,0,1-1.49-1.49Zm1.49,2.48h0a2.49,2.49,0,1,0-2.48-2.48A2.48,2.48,0,0,0,198.37,152.67Z"/><path class="cls-24" d="M202.36,150.19a1.49,1.49,0,1,1,1.49,1.49,1.49,1.49,0,0,1-1.49-1.49Zm1.49,2.48h0a2.49,2.49,0,1,0-2.49-2.48A2.49,2.49,0,0,0,203.85,152.67Z"/><path class="cls-24" d="M195.88,142.23v-1.62a1.61,1.61,0,0,0-1.64-1.62h-1.36s-.23,0-.23.25.23.25.23.25h1.41a1.19,1.19,0,0,1,1.08,1.12v1.62Z"/><path class="cls-24" d="M206.83,142.23h-5.22V137h1a4.37,4.37,0,0,1,4.23,4.23Z"/><path class="cls-24" d="M206.82,142.73H195.39V145a2.16,2.16,0,0,0,2.26,2.24h6.9a2.17,2.17,0,0,0,2.27-2.24Z"/></g></g></svg>