<svg xmlns="http://www.w3.org/2000/svg" xmlns:xlink="http://www.w3.org/1999/xlink" viewBox="0 0 680 160"><defs><style>.cls-1,.cls-16,.cls-6{fill:#3c3c3b;}.cls-2{fill:#c6c6c5;}.cls-13,.cls-3{fill:#b1b1b1;}.cls-10,.cls-11,.cls-13,.cls-14,.cls-15,.cls-16,.cls-17,.cls-19,.cls-22,.cls-24,.cls-25,.cls-26,.cls-27,.cls-28,.cls-29,.cls-3,.cls-30,.cls-31,.cls-32,.cls-33,.cls-34,.cls-35,.cls-4,.cls-5,.cls-6,.cls-7,.cls-9{stroke:#000;}.cls-10,.cls-11,.cls-13,.cls-14,.cls-15,.cls-16,.cls-17,.cls-19,.cls-22,.cls-24,.cls-25,.cls-26,.cls-27,.cls-28,.cls-29,.cls-3,.cls-30,.cls-31,.cls-32,.cls-33,.cls-34,.cls-35,.cls-4,.cls-41,.cls-42,.cls-43,.cls-44,.cls-45,.cls-48,.cls-49,.cls-5,.cls-50,.cls-51,.cls-52,.cls-53,.cls-54,.cls-6,.cls-7,.cls-9{stroke-miterlimit:10;}.cls-11,.cls-14,.cls-16,.cls-17,.cls-22,.cls-3,.cls-7{stroke-width:0.25px;}.cls-4,.cls-8{fill:#6dc6d9;}.cls-10,.cls-13,.cls-15,.cls-24,.cls-25,.cls-26,.cls-27,.cls-28,.cls-29,.cls-30,.cls-31,.cls-32,.cls-33,.cls-34,.cls-35,.cls-4,.cls-5,.cls-6,.cls-9{stroke-width:0.5px;}.cls-5,.cls-7{fill:#3d3d3c;}.cls-9{fill:url(#Fading_Sky);}.cls-10{fill:url(#Fading_Sky-2);}.cls-11{fill:#575756;}.cls-12{fill:#ffec00;}.cls-14{fill:url(#linear-gradient);}.cls-15{fill:#e20613;}.cls-17{fill:#6f6f6e;}.cls-18,.cls-37{fill:#ffd421;}.cls-18,.cls-40{fill-rule:evenodd;}.cls-19,.cls-23,.cls-25{fill:#9d9b9b;}.cls-19{stroke-width:0.75px;}.cls-20{fill:#7b7b7a;}.cls-21,.cls-40{fill:#fff;}.cls-22{fill:#f7f7f7;}.cls-24,.cls-26,.cls-27,.cls-28,.cls-29,.cls-30,.cls-31,.cls-32,.cls-33,.cls-34,.cls-35,.cls-41,.cls-42,.cls-43,.cls-44,.cls-45,.cls-48,.cls-49,.cls-50,.cls-51,.cls-52,.cls-53,.cls-54{fill:none;}.cls-24{stroke-dasharray:2.04 1.02;}.cls-26{stroke-dasharray:2.04 1.02;}.cls-27{stroke-dasharray:2.04 1.02;}.cls-28{stroke-dasharray:2.04 1.02;}.cls-29{stroke-dasharray:2.04 1.02;}.cls-30{stroke-dasharray:2.04 1.02;}.cls-31{stroke-dasharray:2.04 1.02;}.cls-32{stroke-dasharray:2.04 1.02;}.cls-33{stroke-dasharray:2.04 1.02;}.cls-34{stroke-dasharray:2.04 1.02;}.cls-35{stroke-dasharray:2.04 1.02;}.cls-36{fill:#ffd500;}.cls-38{fill:#000100;}.cls-39{fill:#251a5f;}.cls-41,.cls-42,.cls-43,.cls-44,.cls-45,.cls-48,.cls-49,.cls-50,.cls-51,.cls-52,.cls-53,.cls-54{stroke:#e20613;}.cls-42{stroke-dasharray:7.37 7.37;}.cls-43{stroke-dasharray:5.68 5.68;}.cls-44{stroke-dasharray:5.68 5.68 5.68 5.68;}.cls-45{stroke-dasharray:8 8 8 8;}.cls-46{fill:#9c9b9b;}.cls-47{fill:#009c3d;}.cls-48{stroke-dasharray:6.45 6.45;}.cls-49{stroke-dasharray:6.45 6.45 6.45 6.45;}.cls-50{stroke-dasharray:8.31 8.31;}.cls-51{stroke-dasharray:7.17 7.17;}.cls-52{stroke-dasharray:7.17 7.17 7.17 7.17;}.cls-53{stroke-dasharray:7.39 7.39;}.cls-54{stroke-dasharray:7.39 7.39 7.39 7.39;}.cls-55{fill:#29295d;}</style><linearGradient id="Fading_Sky" x1="-5798.06" y1="-1007.3" x2="-5793.27" y2="-1007.3" gradientTransform="translate(-5762.52 -904.34) rotate(180)" gradientUnits="userSpaceOnUse"><stop offset="0" stop-color="#2580c3"/><stop offset="1" stop-color="#2580c3" stop-opacity="0"/></linearGradient><linearGradient id="Fading_Sky-2" x1="-5798.06" y1="606.05" x2="-5793.27" y2="606.05" gradientTransform="matrix(-1, 0, 0, 1, -5762.52, -548.46)" xlink:href="#Fading_Sky"/><linearGradient id="linear-gradient" x1="-5814.38" y1="-984.57" x2="-5799.99" y2="-984.57" gradientTransform="translate(-5762.52 -904.34) rotate(180)" gradientUnits="userSpaceOnUse"><stop offset="0" stop-color="#fff"/><stop offset="1"/></linearGradient></defs><title>Type75_vogn5_BMb</title><g id="Type75_vogn5_BMb"><g id="VOGNKASSE"><rect class="cls-1" x="650.66" y="34.37" width="0.17" height="0.08"/><path class="cls-2" d="M33.11,80.26c0,17.58,9.8,32.72,23.9,39.56,6.19,3.24,16.71,5.37,28.65,5.37l2.17,0v0l27.36.24v-.07h519.9V34.68H115v0L87.82,35v.19H86.41c-9.27,0-17.68,1.29-23.88,3.38C45.53,43.77,33.11,60.46,33.11,80.26Z"/><path class="cls-3" d="M569.77,64.86l-6.43-2.44V34.89H268.6V69.06l-.05,0v6.59l-11.67,2.06h0a.56.56,0,0,0-.45.54V94.67a.56.56,0,0,0,.39.53v0L268.6,97.3v28.29H563.34V84.89l6.58-2.49v0a1.18,1.18,0,0,0,.65-1.06V66A1.17,1.17,0,0,0,569.77,64.86Z"/><rect class="cls-4" x="331.73" y="34.67" width="177.23" height="3.56"/><rect class="cls-4" x="115.32" y="34.67" width="153.31" height="3.56"/><rect class="cls-5" x="438.67" y="34.68" width="15.11" height="3.54"/><rect class="cls-5" x="380.17" y="34.68" width="13.85" height="3.54"/><polygon class="cls-5" points="323.29 34.68 332.1 34.68 332.1 34.68 337.66 34.68 337.66 38.22 331.14 38.22 331.14 36.18 323.29 36.18 323.29 34.68"/><rect class="cls-4" x="331.74" y="121.92" width="174.74" height="3.56"/><rect class="cls-4" x="115.34" y="121.92" width="153.31" height="3.56"/><rect class="cls-5" x="438.51" y="121.91" width="15.11" height="3.54"/><rect class="cls-5" x="380.18" y="121.93" width="13.85" height="3.54"/><polygon class="cls-5" points="323.3 125.47 332.11 125.47 332.11 125.47 337.67 125.47 337.67 121.93 331.15 121.93 331.15 123.97 323.3 123.97 323.3 125.47"/><path class="cls-1" d="M563,85.44a1,1,0,1,0,.95-1A.95.95,0,0,0,563,85.44Z"/><path class="cls-6" d="M281.76,36.42V46.87a.57.57,0,0,1-.57.56h-11.6v-11Z"/><path class="cls-6" d="M281.76,123.72V113.28a.57.57,0,0,0-.57-.56h-11.6v11Z"/><path class="cls-6" d="M319.24,123.72V113.28a.57.57,0,0,1,.57-.56h11.6v11Z"/><rect class="cls-7" x="318.97" y="32.93" width="21.94" height="1.23"/><rect class="cls-7" x="260.25" y="32.93" width="21.94" height="1.23"/><rect class="cls-7" x="318.84" y="126.05" width="21.94" height="1.23"/><rect class="cls-7" x="260.13" y="126.05" width="21.94" height="1.23"/><rect class="cls-1" x="268.35" y="98.57" width="1.28" height="23.06"/><rect class="cls-1" x="268.35" y="38.37" width="1.28" height="36.11"/><rect class="cls-5" x="110.85" y="34.69" width="109.06" height="3.51"/><rect class="cls-5" x="110.76" y="121.98" width="109.11" height="3.51"/><polygon class="cls-5" points="277.36 34.68 268.55 34.68 268.55 34.68 262.99 34.68 262.99 38.22 269.51 38.22 269.51 36.18 277.36 36.18 277.36 34.68"/><polygon class="cls-5" points="277.35 125.47 268.54 125.47 268.54 125.47 262.98 125.47 262.98 121.92 269.5 121.92 269.5 123.97 277.35 123.97 277.35 125.47"/><path class="cls-6" d="M318.92,36.44V46.88a.57.57,0,0,0,.57.57h11.6v-11Z"/><rect class="cls-1" x="330.77" y="86.6" width="1.28" height="35.09"/><rect class="cls-8" x="330.98" y="87.09" width="0.85" height="25.22"/><rect class="cls-1" x="330.78" y="38.5" width="1.28" height="23.32"/><path class="cls-1" d="M330.46,62.26a.95.95,0,1,0,1-.95A.94.94,0,0,0,330.46,62.26Z"/><rect class="cls-8" x="331" y="48.24" width="0.85" height="13.31"/><polygon class="cls-9" points="30.75 94.1 33 93.47 35.54 112.46 32.9 110.34 30.75 94.1"/><polygon class="cls-10" points="30.75 66.45 33.01 67.09 35.54 48.1 32.91 50.21 30.75 66.45"/><path class="cls-11" d="M48.46,79.59c0,.39,0,.78,0,1.16,0,10.38,1.24,19.78,3.24,26.7h0l0,.07h2l.71,2.3c7.18,6.54,21.3,12.17,38,12h22.71v-4.36L88.6,114.22l.43-3.53H89c-.12,1.21-.24,2.4-.37,3.54C70,109.63,56.52,96.47,56.1,80.84h0c0-.16,0-.33,0-.5,0-16,13.64-29.46,32.5-34.13.13,1.14.25,2.32.36,3.53H89l-.43-3.53L115.19,43V38.64H92.48c-16.72-.2-30.84,5.43-38,12l-.71,2.3h-2l0,.08h0c-2,6.89-3.23,16.27-3.24,26.6Z"/><polygon class="cls-12" points="35.82 112.5 35.82 112.55 35.82 112.55 35.82 112.5"/><path class="cls-13" d="M69.5,124.14c6.32.6,14,.81,22.26.91h0l19.08.53v-2.72l-19-.28h0l-2.91-.14h-.23s-.32,0-.33,0l-.42,0h-.35a61.73,61.73,0,0,1-34.22-11.7l-17.45,1.82-.11,0C42.9,118.87,51.79,123.12,69.5,124.14Z"/><path class="cls-14" d="M42,106.24h0l.64.07v0a66.35,66.35,0,0,0,9.2.62c-2-6.92-3.23-16.32-3.23-26.69s1.23-19.78,3.23-26.7v0a66.4,66.4,0,0,0-9.22.63h0l-.67.09h-.14A73.2,73.2,0,0,0,37.46,80,72.8,72.8,0,0,0,42,106.24Z"/><path class="cls-15" d="M33.79,98l2,14.62.11,0,17.31-1.82L51.82,107a65.6,65.6,0,0,1-9.26-.63h0l-.64-.07h0A72.8,72.8,0,0,1,37.38,80a73,73,0,0,1,4.35-25.74h.14l.66-.09h0a66.67,66.67,0,0,1,9.23-.63l1.38-3.78L35.86,47.92l-.11,0L33.86,61.83A101.8,101.8,0,0,0,33.79,98Z"/><path class="cls-16" d="M88.66,114.39c.15-1.36.3-2.76.43-4.22a34.35,34.35,0,0,1,.23-59.54c-.13-1.58-.27-3.1-.42-4.57-19,4.61-32.74,18.17-32.74,34.2S69.8,109.72,88.66,114.39Z"/><path class="cls-13" d="M69.47,36.26c6.31-.6,14-.81,22.25-.91h0l19.09-.53v2.72l-19.06.28h0l-2.9.14h-.24s-.32,0-.33,0l-.41,0h-.36a61.67,61.67,0,0,0-34.21,11.7L35.81,47.87l-.11,0C42.86,41.53,51.75,37.28,69.47,36.26Z"/><path class="cls-6" d="M24.9,108.94l8.09,1.7L31.32,98.76l-6.42.35a1.14,1.14,0,0,0-1.14,1.14v7.56A1.14,1.14,0,0,0,24.9,108.94Z"/><path class="cls-6" d="M24.89,51.77,33,50.08,31.32,62l-6.43-.35a1.14,1.14,0,0,1-1.13-1.13V52.91A1.14,1.14,0,0,1,24.89,51.77Z"/><rect class="cls-4" x="564.32" y="34.67" width="62.17" height="3.56"/><rect class="cls-4" x="564.32" y="121.92" width="61.29" height="3.56"/><path class="cls-16" d="M614.43,34.67H636v3.54h-.39V56.34H637v14.1a.56.56,0,0,1-.57.56h-9V58.39h-1.83V71a.56.56,0,0,1-.48-.55v-14h0V38.22H614.43Z"/><path class="cls-16" d="M614.52,121.93h10.57V103.68h0v-14a.58.58,0,0,1,.49-.55v12.6h1.83V89.15h9a.57.57,0,0,1,.57.56v14.08s0,0,0,0h-1.35v18.12H636v3.54H614.52Z"/><polygon class="cls-5" points="509.75 126.15 500.94 126.15 500.94 126.15 495.38 126.15 495.38 122.61 501.9 122.61 501.9 124.65 509.75 124.65 509.75 126.15"/><polygon class="cls-5" points="509.74 35.36 500.93 35.36 500.93 35.36 495.37 35.36 495.37 38.91 501.88 38.91 501.88 36.86 509.74 36.86 509.74 35.36"/><path class="cls-6" d="M551.28,124.41V114a.56.56,0,0,1,.57-.57h11.6v11Z"/><path class="cls-6" d="M551.28,37.11V47.55a.56.56,0,0,0,.57.56h11.6v-11Z"/><path class="cls-6" d="M513.8,37.11V47.55a.57.57,0,0,1-.57.56h-11.6v-11Z"/><line class="cls-7" x1="514.19" y1="34.78" x2="492.25" y2="34.78"/><rect class="cls-1" x="563.41" y="85.85" width="1.28" height="36.61"/><polygon class="cls-5" points="555.68 126.16 564.49 126.16 564.49 126.15 570.05 126.15 570.05 122.61 563.53 122.61 563.53 124.66 555.68 124.66 555.68 126.16"/><polygon class="cls-5" points="555.69 35.36 564.5 35.36 564.5 35.36 570.06 35.36 570.06 38.91 563.54 38.91 563.54 36.86 555.69 36.86 555.69 35.36"/><path class="cls-6" d="M514.12,124.39V114a.56.56,0,0,0-.57-.56H502v11Z"/><rect class="cls-1" x="563.35" y="39.14" width="1.28" height="22.34"/><rect class="cls-8" x="268.58" y="47.74" width="0.85" height="26.23"/><path class="cls-1" d="M268,75A.95.95,0,1,0,269,74,.95.95,0,0,0,268,75Z"/><path class="cls-1" d="M268,98.12a.95.95,0,1,0,.95-1A.94.94,0,0,0,268,98.12Z"/><rect class="cls-8" x="268.58" y="99.24" width="0.85" height="13.06"/><path class="cls-1" d="M330.48,85.94a.95.95,0,1,0,.95-1A.94.94,0,0,0,330.48,85.94Z"/><rect class="cls-7" x="550.97" y="32.93" width="21.94" height="1.23"/><rect class="cls-7" x="492.25" y="32.93" width="21.94" height="1.23"/><rect class="cls-7" x="550.84" y="126.05" width="21.94" height="1.23"/><rect class="cls-7" x="492.13" y="126.05" width="21.94" height="1.23"/><rect class="cls-8" x="563.6" y="86.73" width="0.85" height="26.37"/><path class="cls-1" d="M563,62a1,1,0,1,0,.95-.95A.95.95,0,0,0,563,62Z"/><rect class="cls-8" x="563.49" y="48.53" width="0.85" height="12.33"/><polygon class="cls-17" points="115.19 60.65 115.19 35.76 209.76 35.76 209.76 67.26 129.38 67.26 115.19 60.65"/><polygon class="cls-17" points="114.94 98.62 114.94 123.51 209.51 123.51 209.51 92.01 129.13 92.01 114.94 98.62"/><polygon class="cls-18" points="162.2 42.96 160.14 51.21 162.83 49.5 162.09 53.56 160.8 53.28 161.64 58.64 165.11 53.81 163.37 53.69 165.59 46.72 162.66 48.1 164.63 42.96 162.2 42.96"/><polygon class="cls-18" points="162.2 99.18 160.14 107.43 162.83 105.72 162.09 109.78 160.8 109.5 161.64 114.85 165.11 110.03 163.37 109.91 165.59 102.94 162.66 104.32 164.63 99.18 162.2 99.18"/></g><g id="INNREDNING"><polygon class="cls-19" points="98.4 75.91 98.4 84.33 95.96 86.77 78.61 86.77 78.61 73.45 95.94 73.45 98.4 75.91"/><polygon class="cls-20" points="95.84 84 95.84 84 93.56 86.33 91.88 86.33 94.15 84 94.16 84 94.16 76.19 94.15 76.19 91.88 73.86 93.56 73.86 95.82 76.16 95.84 76.16 95.84 84"/><rect class="cls-21" x="96.01" y="76.83" width="1.98" height="6.52"/><rect class="cls-22" x="489" y="39.54" width="12.39" height="24.93"/><rect class="cls-17" x="501.58" y="51.22" width="8.95" height="13.27"/><rect class="cls-17" x="321.89" y="48.25" width="8.95" height="13.27"/><path class="cls-23" d="M271.94,73.62a.83.83,0,0,1-.86-.81V63.69a.83.83,0,0,1,.86-.8h9.73a.83.83,0,0,1,.86.8v9.12a.83.83,0,0,1-.86.81Z"/><path class="cls-24" d="M271.94,73.62a.83.83,0,0,1-.86-.81V63.69a.83.83,0,0,1,.86-.8h9.73a.83.83,0,0,1,.86.8v9.12a.83.83,0,0,1-.86.81Z"/><path class="cls-25" d="M269.94,73.84h1.58c.2,0,.37-.32.37-.72V63.47c0-.4-.17-.73-.37-.73h-1.58Z"/><path class="cls-23" d="M271.94,61.58a.83.83,0,0,1-.86-.81V51.66a.83.83,0,0,1,.86-.81h9.73a.83.83,0,0,1,.86.81v9.11a.83.83,0,0,1-.86.81Z"/><path class="cls-24" d="M271.94,61.58a.83.83,0,0,1-.86-.81V51.66a.83.83,0,0,1,.86-.81h9.73a.83.83,0,0,1,.86.81v9.11a.83.83,0,0,1-.86.81Z"/><path class="cls-25" d="M269.94,61.81h1.58c.2,0,.37-.33.37-.73V51.43c0-.4-.17-.73-.37-.73h-1.58Z"/><path class="cls-23" d="M328.7,87.56a.83.83,0,0,1,.85.81v9.12a.83.83,0,0,1-.85.8H319a.84.84,0,0,1-.86-.8V88.37a.84.84,0,0,1,.86-.81Z"/><path class="cls-26" d="M328.7,87.56a.83.83,0,0,1,.85.81v9.12a.83.83,0,0,1-.85.8H319a.84.84,0,0,1-.86-.8V88.37a.84.84,0,0,1,.86-.81Z"/><path class="cls-25" d="M330.69,87.34h-1.58c-.2,0-.36.32-.36.72v9.66c0,.4.16.72.36.72h1.58Z"/><path class="cls-23" d="M328.7,99.6a.83.83,0,0,1,.85.81v9.12a.83.83,0,0,1-.85.8H319a.84.84,0,0,1-.86-.8v-9.12a.84.84,0,0,1,.86-.81Z"/><path class="cls-27" d="M328.7,99.6a.83.83,0,0,1,.85.81v9.12a.83.83,0,0,1-.85.8H319a.84.84,0,0,1-.86-.8v-9.12a.84.84,0,0,1,.86-.81Z"/><path class="cls-25" d="M330.69,99.37h-1.58c-.2,0-.36.33-.36.73v9.65c0,.4.16.73.36.73h1.58Z"/><path class="cls-23" d="M272,110.54a.84.84,0,0,1-.86-.81v-9.11a.84.84,0,0,1,.86-.81h9.74a.83.83,0,0,1,.85.81v9.11a.83.83,0,0,1-.85.81Z"/><path class="cls-28" d="M272,110.54a.84.84,0,0,1-.86-.81v-9.11a.84.84,0,0,1,.86-.81h9.74a.83.83,0,0,1,.85.81v9.11a.83.83,0,0,1-.85.81Z"/><path class="cls-25" d="M270,110.77h1.57c.2,0,.37-.33.37-.73v-9.65c0-.4-.17-.73-.37-.73H270Z"/><path class="cls-23" d="M499.21,119.72a.83.83,0,0,1-.81.85h-9.12a.83.83,0,0,1-.8-.85V110a.84.84,0,0,1,.8-.86h9.12a.84.84,0,0,1,.81.86Z"/><path class="cls-29" d="M499.21,119.72a.83.83,0,0,1-.81.85h-9.12a.83.83,0,0,1-.8-.85V110a.84.84,0,0,1,.8-.86h9.12a.84.84,0,0,1,.81.86Z"/><path class="cls-25" d="M499.43,121.71v-1.58c0-.2-.32-.36-.72-.36h-9.66c-.39,0-.72.16-.72.36v1.58Z"/><path class="cls-23" d="M487.17,119.72a.83.83,0,0,1-.8.85h-9.12a.83.83,0,0,1-.81-.85V110a.84.84,0,0,1,.81-.86h9.12a.84.84,0,0,1,.8.86Z"/><path class="cls-30" d="M487.17,119.72a.83.83,0,0,1-.8.85h-9.12a.83.83,0,0,1-.81-.85V110a.84.84,0,0,1,.81-.86h9.12a.84.84,0,0,1,.8.86Z"/><path class="cls-25" d="M487.4,121.71v-1.58c0-.2-.33-.36-.73-.36H477c-.4,0-.72.16-.72.36v1.58Z"/><path class="cls-23" d="M474.94,119.71a.83.83,0,0,1-.81.86H465a.83.83,0,0,1-.8-.86V110a.83.83,0,0,1,.8-.86h9.12a.83.83,0,0,1,.81.86Z"/><path class="cls-31" d="M474.94,119.71a.83.83,0,0,1-.81.86H465a.83.83,0,0,1-.8-.86V110a.83.83,0,0,1,.8-.86h9.12a.83.83,0,0,1,.81.86Z"/><path class="cls-25" d="M475.17,121.71v-1.58c0-.2-.33-.36-.73-.36h-9.65c-.4,0-.73.16-.73.36v1.58Z"/><path class="cls-23" d="M561,50.29a.83.83,0,0,1,.85.81v9.11A.83.83,0,0,1,561,61h-9.74a.84.84,0,0,1-.86-.81V51.1a.84.84,0,0,1,.86-.81Z"/><path class="cls-32" d="M561,50.29a.83.83,0,0,1,.85.81v9.11A.83.83,0,0,1,561,61h-9.74a.84.84,0,0,1-.86-.81V51.1a.84.84,0,0,1,.86-.81Z"/><path class="cls-25" d="M563,50.06h-1.58c-.2,0-.36.33-.36.73v9.65c0,.4.16.73.36.73H563Z"/><path class="cls-23" d="M561.06,88.13a.83.83,0,0,1,.86.81v9.11a.83.83,0,0,1-.86.81h-9.73a.83.83,0,0,1-.86-.81V88.94a.83.83,0,0,1,.86-.81Z"/><path class="cls-33" d="M561.06,88.13a.83.83,0,0,1,.86.81v9.11a.83.83,0,0,1-.86.81h-9.73a.83.83,0,0,1-.86-.81V88.94a.83.83,0,0,1,.86-.81Z"/><path class="cls-25" d="M563.06,87.9h-1.58c-.2,0-.36.33-.36.73v9.65c0,.4.16.73.36.73h1.58Z"/><path class="cls-23" d="M561.06,100.17a.83.83,0,0,1,.86.8v9.12a.84.84,0,0,1-.86.81h-9.73a.84.84,0,0,1-.86-.81V101a.83.83,0,0,1,.86-.8Z"/><path class="cls-34" d="M561.06,100.17a.83.83,0,0,1,.86.8v9.12a.83.83,0,0,1-.86.81h-9.73a.83.83,0,0,1-.86-.81V101a.83.83,0,0,1,.86-.8Z"/><path class="cls-25" d="M563.06,99.94h-1.58c-.2,0-.36.32-.36.72v9.66c0,.4.16.72.36.72h1.58Z"/><path class="cls-23" d="M112.91,52.14a.83.83,0,0,1,.86.81v9.11a.83.83,0,0,1-.86.81h-9.73a.83.83,0,0,1-.86-.81V53a.83.83,0,0,1,.86-.81Z"/><path class="cls-35" d="M112.91,52.14a.83.83,0,0,1,.86.81v9.11a.83.83,0,0,1-.86.81h-9.73a.83.83,0,0,1-.86-.81V53a.83.83,0,0,1,.86-.81Z"/><path class="cls-25" d="M114.91,51.91h-1.58c-.2,0-.37.33-.37.73v9.65c0,.4.17.72.37.72h1.58Z"/></g><g id="SETER"><polygon class="cls-19" points="624.3 96.49 624.3 104.91 621.86 107.35 604.5 107.35 604.5 94.03 621.84 94.03 624.3 96.49"/><polygon class="cls-20" points="621.74 104.58 621.74 104.58 619.46 106.91 617.77 106.91 620.05 104.58 620.05 104.58 620.05 96.76 620.05 96.76 617.77 94.44 619.46 94.44 621.71 96.74 621.74 96.74 621.74 104.58"/><rect class="cls-21" x="621.91" y="97.41" width="1.98" height="6.52"/><polygon class="cls-19" points="624.29 110.27 624.29 118.69 621.85 121.14 604.49 121.14 604.49 107.81 621.83 107.81 624.29 110.27"/><polygon class="cls-20" points="621.73 118.37 621.73 118.37 619.45 120.7 617.76 120.7 620.04 118.37 620.04 118.37 620.04 110.55 620.04 110.55 617.76 108.22 619.45 108.22 621.71 110.53 621.73 110.53 621.73 118.37"/><rect class="cls-21" x="621.9" y="111.2" width="1.98" height="6.51"/><polygon class="cls-19" points="571.14 41.54 571.14 49.96 573.59 52.4 590.94 52.4 590.94 39.08 573.61 39.08 571.14 41.54"/><polygon class="cls-20" points="573.7 49.64 573.71 49.64 575.98 51.96 577.67 51.96 575.4 49.64 575.39 49.64 575.39 41.82 575.4 41.82 577.67 39.49 575.98 39.49 573.73 41.8 573.7 41.8 573.7 49.64"/><rect class="cls-21" x="571.55" y="42.47" width="1.98" height="6.52"/><polygon class="cls-19" points="571.15 55.33 571.15 63.74 573.6 66.19 590.95 66.19 590.95 52.87 573.61 52.87 571.15 55.33"/><polygon class="cls-20" points="573.71 63.42 573.71 63.42 575.99 65.75 577.68 65.75 575.4 63.42 575.4 63.42 575.4 55.6 575.4 55.6 577.68 53.27 575.99 53.27 573.74 55.58 573.71 55.58 573.71 63.42"/><rect class="cls-21" x="571.56" y="56.25" width="1.98" height="6.51"/><polygon class="cls-19" points="623.4 41.54 623.4 49.96 620.96 52.4 603.61 52.4 603.61 39.08 620.94 39.08 623.4 41.54"/><polygon class="cls-20" points="620.85 49.64 620.84 49.64 618.57 51.96 616.88 51.96 619.15 49.64 619.16 49.64 619.16 41.82 619.15 41.82 616.88 39.49 618.57 39.49 620.82 41.8 620.85 41.8 620.85 49.64"/><rect class="cls-21" x="621.01" y="42.47" width="1.98" height="6.52"/><polygon class="cls-19" points="623.4 55.33 623.4 63.74 620.95 66.19 603.6 66.19 603.6 52.87 620.93 52.87 623.4 55.33"/><polygon class="cls-20" points="620.84 63.42 620.83 63.42 618.56 65.75 616.87 65.75 619.14 63.42 619.15 63.42 619.15 55.6 619.14 55.6 616.87 53.27 618.56 53.27 620.81 55.58 620.84 55.58 620.84 63.42"/><rect class="cls-21" x="621.01" y="56.25" width="1.98" height="6.51"/><polygon class="cls-19" points="569.5 96.49 569.5 104.91 571.94 107.35 589.29 107.35 589.29 94.03 571.96 94.03 569.5 96.49"/><polygon class="cls-20" points="572.06 104.58 572.06 104.58 574.34 106.91 576.02 106.91 573.75 104.58 573.75 104.58 573.75 96.77 573.75 96.77 576.02 94.44 574.34 94.44 572.08 96.74 572.06 96.74 572.06 104.58"/><rect class="cls-21" x="569.9" y="97.41" width="1.98" height="6.51"/><polygon class="cls-19" points="569.5 110.27 569.5 118.69 571.94 121.13 589.29 121.13 589.29 107.81 571.96 107.81 569.5 110.27"/><polygon class="cls-20" points="572.05 118.36 572.06 118.36 574.34 120.69 576.02 120.69 573.75 118.36 573.74 118.36 573.74 110.55 573.75 110.55 576.02 108.22 574.34 108.22 572.08 110.53 572.05 110.53 572.05 118.36"/><rect class="cls-21" x="569.9" y="111.2" width="1.98" height="6.51"/><polygon class="cls-19" points="569.5 82.58 569.5 90.99 571.94 93.44 589.29 93.44 589.29 80.12 571.96 80.12 569.5 82.58"/><polygon class="cls-20" points="572.06 90.67 572.06 90.67 574.34 93 576.02 93 573.75 90.67 573.75 90.67 573.75 82.85 573.75 82.85 576.02 80.53 574.34 80.53 572.08 82.83 572.06 82.83 572.06 90.67"/><rect class="cls-21" x="569.9" y="83.5" width="1.98" height="6.51"/><polygon class="cls-19" points="439.75 96.49 439.75 104.91 442.19 107.35 459.54 107.35 459.54 94.03 442.21 94.03 439.75 96.49"/><polygon class="cls-20" points="442.31 104.58 442.31 104.58 444.59 106.91 446.27 106.91 444 104.58 444 104.58 444 96.77 444 96.77 446.27 94.44 444.59 94.44 442.33 96.74 442.31 96.74 442.31 104.58"/><rect class="cls-21" x="440.15" y="97.41" width="1.98" height="6.51"/><polygon class="cls-19" points="439.75 110.27 439.75 118.69 442.19 121.13 459.54 121.13 459.54 107.81 442.21 107.81 439.75 110.27"/><polygon class="cls-20" points="442.3 118.36 442.31 118.36 444.58 120.69 446.27 120.69 444 118.36 443.99 118.36 443.99 110.55 444 110.55 446.27 108.22 444.58 108.22 442.33 110.53 442.3 110.53 442.3 118.36"/><rect class="cls-21" x="440.15" y="111.2" width="1.98" height="6.51"/><polygon class="cls-19" points="439.75 82.58 439.75 90.99 442.19 93.44 459.54 93.44 459.54 80.12 442.21 80.12 439.75 82.58"/><polygon class="cls-20" points="442.3 90.67 442.31 90.67 444.58 93 446.27 93 444 90.67 443.99 90.67 443.99 82.85 444 82.85 446.27 80.53 444.58 80.53 442.33 82.83 442.3 82.83 442.3 90.67"/><rect class="cls-21" x="440.15" y="83.5" width="1.98" height="6.51"/><polygon class="cls-19" points="435.54 96.49 435.54 104.91 433.1 107.35 415.75 107.35 415.75 94.03 433.08 94.03 435.54 96.49"/><polygon class="cls-20" points="432.98 104.58 432.98 104.58 430.7 106.91 429.01 106.91 431.29 104.58 431.29 104.58 431.29 96.77 431.29 96.77 429.01 94.44 430.7 94.44 432.96 96.74 432.98 96.74 432.98 104.58"/><rect class="cls-21" x="433.15" y="97.41" width="1.98" height="6.51"/><polygon class="cls-19" points="435.54 110.27 435.54 118.69 433.1 121.13 415.75 121.13 415.75 107.81 433.08 107.81 435.54 110.27"/><polygon class="cls-20" points="432.99 118.36 432.98 118.36 430.7 120.69 429.02 120.69 431.29 118.36 431.3 118.36 431.3 110.55 431.29 110.55 429.02 108.22 430.7 108.22 432.96 110.53 432.99 110.53 432.99 118.36"/><rect class="cls-21" x="433.15" y="111.2" width="1.98" height="6.51"/><polygon class="cls-19" points="435.54 82.58 435.54 90.99 433.1 93.44 415.75 93.44 415.75 80.12 433.08 80.12 435.54 82.58"/><polygon class="cls-20" points="432.98 90.67 432.98 90.67 430.7 93 429.01 93 431.29 90.67 431.29 90.67 431.29 82.85 431.29 82.85 429.01 80.53 430.7 80.53 432.96 82.83 432.98 82.83 432.98 90.67"/><rect class="cls-21" x="433.15" y="83.5" width="1.98" height="6.51"/><polygon class="cls-19" points="411.54 96.49 411.54 104.91 409.1 107.35 391.75 107.35 391.75 94.03 409.08 94.03 411.54 96.49"/><polygon class="cls-20" points="408.98 104.58 408.98 104.58 406.7 106.91 405.01 106.91 407.29 104.58 407.29 104.58 407.29 96.77 407.29 96.77 405.01 94.44 406.7 94.44 408.96 96.74 408.98 96.74 408.98 104.58"/><rect class="cls-21" x="409.15" y="97.41" width="1.98" height="6.51"/><polygon class="cls-19" points="411.54 110.27 411.54 118.69 409.1 121.13 391.75 121.13 391.75 107.81 409.08 107.81 411.54 110.27"/><polygon class="cls-20" points="408.99 118.36 408.98 118.36 406.71 120.69 405.02 120.69 407.29 118.36 407.3 118.36 407.3 110.55 407.29 110.55 405.02 108.22 406.71 108.22 408.96 110.53 408.99 110.53 408.99 118.36"/><rect class="cls-21" x="409.16" y="111.2" width="1.98" height="6.51"/><polygon class="cls-19" points="411.54 82.58 411.54 90.99 409.1 93.44 391.75 93.44 391.75 80.12 409.08 80.12 411.54 82.58"/><polygon class="cls-20" points="408.99 90.67 408.98 90.67 406.7 93 405.02 93 407.29 90.67 407.3 90.67 407.3 82.85 407.29 82.85 405.02 80.53 406.7 80.53 408.96 82.83 408.99 82.83 408.99 90.67"/><rect class="cls-21" x="409.15" y="83.5" width="1.98" height="6.51"/><polygon class="cls-19" points="386.54 96.49 386.54 104.91 384.1 107.35 366.75 107.35 366.75 94.03 384.08 94.03 386.54 96.49"/><polygon class="cls-20" points="383.99 104.58 383.98 104.58 381.7 106.91 380.02 106.91 382.29 104.58 382.3 104.58 382.3 96.77 382.29 96.77 380.02 94.44 381.7 94.44 383.96 96.74 383.99 96.74 383.99 104.58"/><rect class="cls-21" x="384.15" y="97.41" width="1.98" height="6.51"/><polygon class="cls-19" points="386.54 110.27 386.54 118.69 384.1 121.13 366.75 121.13 366.75 107.81 384.08 107.81 386.54 110.27"/><polygon class="cls-20" points="383.99 118.36 383.98 118.36 381.71 120.69 380.02 120.69 382.29 118.36 382.3 118.36 382.3 110.55 382.29 110.55 380.02 108.22 381.71 108.22 383.96 110.53 383.99 110.53 383.99 118.36"/><rect class="cls-21" x="384.16" y="111.2" width="1.98" height="6.51"/><polygon class="cls-19" points="386.54 82.58 386.54 90.99 384.1 93.44 366.75 93.44 366.75 80.12 384.08 80.12 386.54 82.58"/><polygon class="cls-20" points="383.99 90.67 383.98 90.67 381.7 93 380.02 93 382.29 90.67 382.3 90.67 382.3 82.85 382.29 82.85 380.02 80.53 381.7 80.53 383.96 82.83 383.99 82.83 383.99 90.67"/><rect class="cls-21" x="384.15" y="83.5" width="1.98" height="6.51"/><polygon class="cls-19" points="333.75 96.49 333.75 104.91 336.19 107.35 353.54 107.35 353.54 94.03 336.21 94.03 333.75 96.49"/><polygon class="cls-20" points="336.31 104.58 336.31 104.58 338.59 106.91 340.27 106.91 338 104.58 338 104.58 338 96.77 338 96.77 340.27 94.44 338.59 94.44 336.33 96.74 336.31 96.74 336.31 104.58"/><rect class="cls-21" x="334.15" y="97.41" width="1.98" height="6.51"/><polygon class="cls-19" points="333.75 110.27 333.75 118.69 336.19 121.13 353.54 121.13 353.54 107.81 336.21 107.81 333.75 110.27"/><polygon class="cls-20" points="336.3 118.36 336.31 118.36 338.58 120.69 340.27 120.69 338 118.36 337.99 118.36 337.99 110.55 338 110.55 340.27 108.22 338.58 108.22 336.33 110.53 336.3 110.53 336.3 118.36"/><rect class="cls-21" x="334.15" y="111.2" width="1.98" height="6.51"/><polygon class="cls-19" points="333.75 82.58 333.75 90.99 336.19 93.44 353.54 93.44 353.54 80.12 336.21 80.12 333.75 82.58"/><polygon class="cls-20" points="336.31 90.67 336.31 90.67 338.59 93 340.27 93 338 90.67 338 90.67 338 82.85 338 82.85 340.27 80.53 338.59 80.53 336.33 82.83 336.31 82.83 336.31 90.67"/><rect class="cls-21" x="334.15" y="83.5" width="1.98" height="6.51"/><polygon class="cls-19" points="487.38 41.54 487.38 49.96 484.94 52.4 467.58 52.4 467.58 39.08 484.92 39.08 487.38 41.54"/><polygon class="cls-20" points="484.82 49.64 484.81 49.64 482.54 51.96 480.85 51.96 483.12 49.64 483.13 49.64 483.13 41.82 483.12 41.82 480.85 39.49 482.54 39.49 484.79 41.8 484.82 41.8 484.82 49.64"/><rect class="cls-21" x="484.99" y="42.47" width="1.98" height="6.52"/><polygon class="cls-19" points="487.37 55.33 487.37 63.74 484.93 66.19 467.57 66.19 467.57 52.87 484.91 52.87 487.37 55.33"/><polygon class="cls-20" points="484.81 63.42 484.81 63.42 482.53 65.75 480.84 65.75 483.12 63.42 483.12 63.42 483.12 55.6 483.12 55.6 480.84 53.27 482.53 53.27 484.78 55.58 484.81 55.58 484.81 63.42"/><rect class="cls-21" x="484.98" y="56.25" width="1.98" height="6.51"/><polygon class="cls-19" points="437 41.54 437 49.96 439.45 52.4 456.8 52.4 456.8 39.08 439.47 39.08 437 41.54"/><polygon class="cls-20" points="439.56 49.64 439.57 49.64 441.84 51.96 443.53 51.96 441.26 49.64 441.25 49.64 441.25 41.82 441.26 41.82 443.53 39.49 441.84 39.49 439.59 41.8 439.56 41.8 439.56 49.64"/><rect class="cls-21" x="437.41" y="42.47" width="1.98" height="6.52"/><polygon class="cls-19" points="437.01 55.33 437.01 63.74 439.46 66.19 456.81 66.19 456.81 52.87 439.47 52.87 437.01 55.33"/><polygon class="cls-20" points="439.57 63.42 439.57 63.42 441.85 65.75 443.54 65.75 441.26 63.42 441.26 63.42 441.26 55.6 441.26 55.6 443.54 53.27 441.85 53.27 439.6 55.58 439.57 55.58 439.57 63.42"/><rect class="cls-21" x="437.42" y="56.25" width="1.98" height="6.51"/><polygon class="cls-19" points="413.09 41.54 413.09 49.96 415.54 52.4 432.89 52.4 432.89 39.08 415.56 39.08 413.09 41.54"/><polygon class="cls-20" points="415.65 49.64 415.66 49.64 417.93 51.96 419.62 51.96 417.35 49.64 417.34 49.64 417.34 41.82 417.35 41.82 419.62 39.49 417.93 39.49 415.68 41.8 415.65 41.8 415.65 49.64"/><rect class="cls-21" x="413.5" y="42.47" width="1.98" height="6.52"/><polygon class="cls-19" points="413.1 55.33 413.1 63.74 415.55 66.19 432.9 66.19 432.9 52.87 415.56 52.87 413.1 55.33"/><polygon class="cls-20" points="415.66 63.42 415.67 63.42 417.94 65.75 419.63 65.75 417.36 63.42 417.35 63.42 417.35 55.6 417.36 55.6 419.63 53.27 417.94 53.27 415.69 55.58 415.66 55.58 415.66 63.42"/><rect class="cls-21" x="413.51" y="56.25" width="1.98" height="6.51"/><polygon class="cls-19" points="387.04 41.54 387.04 49.96 389.48 52.4 406.83 52.4 406.83 39.08 389.5 39.08 387.04 41.54"/><polygon class="cls-20" points="389.6 49.64 389.6 49.64 391.88 51.96 393.57 51.96 391.29 49.64 391.29 49.64 391.29 41.82 391.29 41.82 393.57 39.49 391.88 39.49 389.62 41.8 389.6 41.8 389.6 49.64"/><rect class="cls-21" x="387.44" y="42.47" width="1.98" height="6.52"/><polygon class="cls-19" points="387.05 55.33 387.05 63.74 389.49 66.19 406.85 66.19 406.85 52.87 389.51 52.87 387.05 55.33"/><polygon class="cls-20" points="389.61 63.42 389.61 63.42 391.89 65.75 393.57 65.75 391.3 63.42 391.29 63.42 391.29 55.6 391.3 55.6 393.57 53.27 391.89 53.27 389.63 55.58 389.61 55.58 389.61 63.42"/><rect class="cls-21" x="387.45" y="56.25" width="1.98" height="6.51"/><polygon class="cls-19" points="361 41.54 361 49.96 363.45 52.4 380.8 52.4 380.8 39.08 363.47 39.08 361 41.54"/><polygon class="cls-20" points="363.56 49.64 363.57 49.64 365.84 51.96 367.53 51.96 365.26 49.64 365.25 49.64 365.25 41.82 365.26 41.82 367.53 39.49 365.84 39.49 363.59 41.8 363.56 41.8 363.56 49.64"/><rect class="cls-21" x="361.41" y="42.47" width="1.98" height="6.52"/><polygon class="cls-19" points="361.01 55.33 361.01 63.74 363.46 66.19 380.81 66.19 380.81 52.87 363.47 52.87 361.01 55.33"/><polygon class="cls-20" points="363.57 63.42 363.57 63.42 365.85 65.75 367.54 65.75 365.26 63.42 365.26 63.42 365.26 55.6 365.26 55.6 367.54 53.27 365.85 53.27 363.6 55.58 363.57 55.58 363.57 63.42"/><rect class="cls-21" x="361.42" y="56.25" width="1.98" height="6.51"/><polygon class="cls-19" points="336 41.54 336 49.96 338.45 52.4 355.8 52.4 355.8 39.08 338.47 39.08 336 41.54"/><polygon class="cls-20" points="338.56 49.64 338.57 49.64 340.84 51.96 342.53 51.96 340.26 49.64 340.25 49.64 340.25 41.82 340.26 41.82 342.53 39.49 340.84 39.49 338.59 41.8 338.56 41.8 338.56 49.64"/><rect class="cls-21" x="336.41" y="42.47" width="1.98" height="6.52"/><polygon class="cls-19" points="336.01 55.33 336.01 63.74 338.46 66.19 355.81 66.19 355.81 52.87 338.47 52.87 336.01 55.33"/><polygon class="cls-20" points="338.57 63.42 338.57 63.42 340.85 65.75 342.54 65.75 340.26 63.42 340.26 63.42 340.26 55.6 340.26 55.6 342.54 53.27 340.85 53.27 338.6 55.58 338.57 55.58 338.57 63.42"/><rect class="cls-21" x="336.42" y="56.25" width="1.98" height="6.51"/><polygon class="cls-19" points="210.67 41.54 210.67 49.96 213.11 52.4 230.47 52.4 230.47 39.08 213.13 39.08 210.67 41.54"/><polygon class="cls-20" points="213.23 49.64 213.24 49.64 215.51 51.96 217.2 51.96 214.93 49.64 214.92 49.64 214.92 41.82 214.93 41.82 217.2 39.49 215.51 39.49 213.26 41.8 213.23 41.8 213.23 49.64"/><rect class="cls-21" x="211.08" y="42.47" width="1.98" height="6.52"/><polygon class="cls-19" points="210.68 55.33 210.68 63.74 213.12 66.19 230.48 66.19 230.48 52.87 213.14 52.87 210.68 55.33"/><polygon class="cls-20" points="213.24 63.42 213.24 63.42 215.52 65.75 217.21 65.75 214.93 63.42 214.93 63.42 214.93 55.6 214.93 55.6 217.21 53.27 215.52 53.27 213.26 55.58 213.24 55.58 213.24 63.42"/><rect class="cls-21" x="211.09" y="56.25" width="1.98" height="6.51"/><polygon class="cls-19" points="265.03 55.47 265.03 63.89 262.59 66.33 245.24 66.33 245.24 53.01 262.57 53.01 265.03 55.47"/><polygon class="cls-20" points="262.47 63.57 262.47 63.57 260.19 65.89 258.5 65.89 260.78 63.57 260.78 63.57 260.78 55.75 260.78 55.75 258.5 53.42 260.19 53.42 262.45 55.73 262.47 55.73 262.47 63.57"/><rect class="cls-21" x="262.64" y="56.4" width="1.98" height="6.51"/><polygon class="cls-19" points="265.03 69.26 265.03 77.67 262.59 80.12 245.24 80.12 245.24 66.8 262.57 66.8 265.03 69.26"/><polygon class="cls-20" points="262.48 77.35 262.47 77.35 260.2 79.68 258.51 79.68 260.78 77.35 260.79 77.35 260.79 69.53 260.78 69.53 258.51 67.21 260.2 67.21 262.45 69.51 262.48 69.51 262.48 77.35"/><rect class="cls-21" x="262.65" y="70.18" width="1.98" height="6.51"/><polygon class="cls-19" points="265.03 41.56 265.03 49.98 262.59 52.42 245.24 52.42 245.24 39.1 262.57 39.1 265.03 41.56"/><polygon class="cls-20" points="262.48 49.66 262.47 49.66 260.19 51.98 258.51 51.98 260.78 49.66 260.79 49.66 260.79 41.84 260.78 41.84 258.51 39.51 260.19 39.51 262.45 41.82 262.48 41.82 262.48 49.66"/><rect class="cls-21" x="262.64" y="42.49" width="1.98" height="6.51"/><polygon class="cls-19" points="261.22 96.49 261.22 104.91 258.78 107.35 241.43 107.35 241.43 94.03 258.76 94.03 261.22 96.49"/><polygon class="cls-20" points="258.67 104.58 258.66 104.58 256.38 106.91 254.7 106.91 256.97 104.58 256.98 104.58 256.98 96.76 256.97 96.76 254.7 94.44 256.38 94.44 258.64 96.74 258.67 96.74 258.67 104.58"/><rect class="cls-21" x="258.83" y="97.41" width="1.98" height="6.52"/><polygon class="cls-19" points="261.21 110.27 261.21 118.69 258.77 121.14 241.42 121.14 241.42 107.81 258.75 107.81 261.21 110.27"/><polygon class="cls-20" points="258.66 118.37 258.65 118.37 256.38 120.7 254.69 120.7 256.96 118.37 256.97 118.37 256.97 110.55 256.96 110.55 254.69 108.22 256.38 108.22 258.63 110.53 258.66 110.53 258.66 118.37"/><rect class="cls-21" x="258.83" y="111.2" width="1.98" height="6.51"/><polygon class="cls-19" points="211.09 96.49 211.09 104.91 213.53 107.35 230.88 107.35 230.88 94.03 213.55 94.03 211.09 96.49"/><polygon class="cls-20" points="213.64 104.58 213.65 104.58 215.93 106.91 217.61 106.91 215.34 104.58 215.33 104.58 215.33 96.76 215.34 96.76 217.61 94.44 215.93 94.44 213.67 96.74 213.64 96.74 213.64 104.58"/><rect class="cls-21" x="211.49" y="97.41" width="1.98" height="6.52"/><polygon class="cls-19" points="211.09 110.27 211.09 118.69 213.54 121.14 230.89 121.14 230.89 107.81 213.56 107.81 211.09 110.27"/><polygon class="cls-20" points="213.65 118.37 213.66 118.37 215.93 120.7 217.62 120.7 215.35 118.37 215.34 118.37 215.34 110.55 215.35 110.55 217.62 108.22 215.93 108.22 213.68 110.53 213.65 110.53 213.65 118.37"/><rect class="cls-21" x="211.5" y="111.2" width="1.98" height="6.51"/></g><g id="SETENUMMER"><path class="cls-36" d="M215.5,48.67V48l.69-.64c1.38-1.28,2-2,2-2.75a.93.93,0,0,0-1-1,2.15,2.15,0,0,0-1.25.49l-.32-.78a2.9,2.9,0,0,1,1.8-.61,1.73,1.73,0,0,1,1.92,1.78c0,1-.73,1.85-1.76,2.8l-.51.44v0h2.4v.92Z"/><path class="cls-36" d="M222.76,48.67V47.18h-2.65v-.72l2.39-3.65h1.31v3.53h.75v.84h-.75v1.49Zm0-2.33V44.75c0-.33,0-.67,0-1h0c-.18.37-.33.67-.51,1l-1.08,1.6v0Z"/><path class="cls-36" d="M225.37,47.52a2.87,2.87,0,0,0,1.33.36c.85,0,1.18-.47,1.18-.93,0-.7-.65-1-1.33-1h-.5v-.81h.5c.51,0,1.15-.24,1.15-.81,0-.41-.28-.74-.93-.74a2.27,2.27,0,0,0-1.2.37l-.25-.8a3.2,3.2,0,0,1,1.68-.46c1.22,0,1.83.67,1.83,1.44a1.44,1.44,0,0,1-1.08,1.37h0A1.5,1.5,0,0,1,229,47c0,1-.83,1.78-2.28,1.78a3.18,3.18,0,0,1-1.64-.41Z"/><path class="cls-36" d="M215.5,62.41v-.68l.69-.64c1.38-1.28,2-2,2-2.75a.93.93,0,0,0-1-1,2.15,2.15,0,0,0-1.25.49l-.32-.78a2.9,2.9,0,0,1,1.8-.61,1.73,1.73,0,0,1,1.92,1.78c0,1-.73,1.85-1.76,2.8l-.51.44v0h2.4v.92Z"/><path class="cls-36" d="M222.76,62.41V60.92h-2.65V60.2l2.39-3.65h1.31v3.53h.75v.84h-.75v1.49Zm0-2.33V58.49c0-.33,0-.67,0-1h0c-.18.37-.33.67-.51,1l-1.08,1.6v0Z"/><path class="cls-36" d="M225.15,62.41v-.68l.69-.64c1.38-1.28,2-2,2-2.75a.92.92,0,0,0-1-1,2.15,2.15,0,0,0-1.25.49l-.32-.78a2.9,2.9,0,0,1,1.8-.61A1.73,1.73,0,0,1,229,58.23c0,1-.74,1.85-1.76,2.8l-.51.44v0h2.4v.92Z"/><path class="cls-36" d="M215.5,103.63V103l.69-.64c1.38-1.28,2-2,2-2.75a.92.92,0,0,0-1-1,2.15,2.15,0,0,0-1.25.48l-.32-.78a2.9,2.9,0,0,1,1.8-.6,1.73,1.73,0,0,1,1.92,1.77c0,1-.73,1.85-1.76,2.8l-.51.44v0h2.4v.92Z"/><path class="cls-36" d="M222.76,103.63v-1.49h-2.65v-.72l2.39-3.65h1.31v3.53h.75v.84h-.75v1.49Zm0-2.33V99.71c0-.33,0-.67,0-1h0c-.18.37-.33.67-.51,1l-1.08,1.6v0Z"/><path class="cls-36" d="M226.88,98.77h0l-1.08.54-.18-.83,1.43-.71H228v5.86h-1.08Z"/><path class="cls-36" d="M215.5,117.37v-.68l.69-.64c1.38-1.28,2-2,2-2.75a.92.92,0,0,0-1-1,2.15,2.15,0,0,0-1.25.48l-.32-.78a2.9,2.9,0,0,1,1.8-.6,1.73,1.73,0,0,1,1.92,1.77c0,1-.73,1.85-1.76,2.8l-.51.44v0h2.4v.92Z"/><path class="cls-36" d="M222.76,117.37v-1.49h-2.65v-.72l2.39-3.65h1.31V115h.75v.84h-.75v1.49Zm0-2.33v-1.59c0-.33,0-.67,0-1h0c-.18.37-.33.67-.51,1l-1.08,1.6v0Z"/><path class="cls-36" d="M229.28,114.39c0,1.9-.74,3.07-2.14,3.07s-2.06-1.22-2.07-3,.77-3,2.14-3S229.28,112.68,229.28,114.39Zm-3.1.06c0,1.43.39,2.17,1,2.17s1-.79,1-2.2-.31-2.16-1-2.16S226.18,113,226.18,114.45Z"/><path class="cls-36" d="M246.68,48.66V48l.69-.64c1.38-1.28,2-2,2-2.75a.92.92,0,0,0-1-1,2.09,2.09,0,0,0-1.26.49l-.32-.78a2.9,2.9,0,0,1,1.8-.61,1.74,1.74,0,0,1,1.93,1.78c0,1-.74,1.85-1.77,2.8l-.5.44v0h2.39v.91Z"/><path class="cls-36" d="M251.73,47.52a2.84,2.84,0,0,0,1.33.36c.85,0,1.18-.48,1.18-.94,0-.69-.65-1-1.33-1h-.5v-.81h.5c.5,0,1.15-.23,1.15-.81,0-.4-.28-.73-.93-.73a2.27,2.27,0,0,0-1.2.37l-.25-.81a3.31,3.31,0,0,1,1.68-.45c1.22,0,1.83.67,1.83,1.43a1.42,1.42,0,0,1-1.08,1.37v0A1.49,1.49,0,0,1,255.39,47c0,1-.82,1.77-2.27,1.77a3.17,3.17,0,0,1-1.64-.4Z"/><path class="cls-36" d="M256.77,47.87a2.6,2.6,0,0,0,.61,0,2.07,2.07,0,0,0,1.19-.45,2.09,2.09,0,0,0,.76-1.3h0a1.68,1.68,0,0,1-1.28.51,1.72,1.72,0,0,1-1.77-1.81,2.07,2.07,0,0,1,2.11-2.09c1.36,0,2.08,1.07,2.08,2.5a3.6,3.6,0,0,1-1,2.72,3.29,3.29,0,0,1-2,.81,5.16,5.16,0,0,1-.67,0Zm.59-3.13a1,1,0,0,0,1,1.07,1.09,1.09,0,0,0,.95-.49.82.82,0,0,0,.06-.32c0-.79-.3-1.47-1-1.47C257.75,43.53,257.36,44,257.36,44.74Z"/><path class="cls-36" d="M246.68,62.4v-.67l.69-.64c1.38-1.28,2-2,2-2.75a.92.92,0,0,0-1-1,2.09,2.09,0,0,0-1.26.49l-.32-.78a2.9,2.9,0,0,1,1.8-.61,1.74,1.74,0,0,1,1.93,1.78c0,1-.74,1.85-1.77,2.8l-.5.44v0h2.39v.91Z"/><path class="cls-36" d="M251.73,61.26a2.84,2.84,0,0,0,1.33.36c.85,0,1.18-.48,1.18-.94,0-.69-.65-1-1.33-1h-.5v-.81h.5c.5,0,1.15-.23,1.15-.81,0-.4-.28-.73-.93-.73a2.27,2.27,0,0,0-1.2.37l-.25-.81a3.31,3.31,0,0,1,1.68-.45c1.22,0,1.83.67,1.83,1.44a1.42,1.42,0,0,1-1.08,1.36v0a1.49,1.49,0,0,1,1.28,1.46c0,1-.82,1.77-2.27,1.77a3.17,3.17,0,0,1-1.64-.4Z"/><path class="cls-36" d="M257.35,59.35a1.41,1.41,0,0,1-.9-1.29,1.75,1.75,0,0,1,2-1.61c1.27,0,1.84.76,1.84,1.48a1.46,1.46,0,0,1-.9,1.32v0a1.58,1.58,0,0,1,1.11,1.48c0,1-.88,1.74-2.13,1.74s-2.08-.79-2.08-1.61a1.61,1.61,0,0,1,1.1-1.51Zm2,1.5c0-.6-.44-.92-1.09-1.1a1.06,1.06,0,0,0-.87,1,.93.93,0,0,0,1,.95A.89.89,0,0,0,259.34,60.85ZM257.51,58c0,.48.4.77.95.92a.94.94,0,0,0,.73-.88.84.84,0,0,0-1.68,0Z"/><path class="cls-36" d="M246.68,76.14v-.67l.69-.64c1.38-1.28,2-2,2-2.75a.92.92,0,0,0-1-1,2.09,2.09,0,0,0-1.26.49l-.32-.78a2.84,2.84,0,0,1,1.8-.61A1.74,1.74,0,0,1,250.52,72c0,1-.74,1.85-1.77,2.8l-.5.44v0h2.39v.91Z"/><path class="cls-36" d="M251.73,75a2.84,2.84,0,0,0,1.33.36c.85,0,1.18-.48,1.18-.93,0-.7-.65-1-1.33-1h-.5v-.81h.5c.5,0,1.15-.23,1.15-.81,0-.4-.28-.73-.93-.73a2.37,2.37,0,0,0-1.2.36l-.25-.8a3.31,3.31,0,0,1,1.68-.45c1.22,0,1.83.67,1.83,1.43A1.42,1.42,0,0,1,254.11,73v0a1.49,1.49,0,0,1,1.28,1.46c0,1-.82,1.77-2.27,1.77a3.17,3.17,0,0,1-1.64-.4Z"/><path class="cls-36" d="M260.35,70.29V71l-2.47,5.14h-1.16l2.46-4.91v0h-2.76v-.92Z"/><path class="cls-36" d="M243,103.62V103l.7-.64c1.38-1.28,2-2,2-2.75a.92.92,0,0,0-1-1,2.12,2.12,0,0,0-1.25.49l-.33-.78a2.86,2.86,0,0,1,1.8-.61,1.74,1.74,0,0,1,1.93,1.78c0,1-.74,1.85-1.76,2.8l-.51.44v0h2.4v.91Z"/><path class="cls-36" d="M248,102.48a2.88,2.88,0,0,0,1.34.36c.84,0,1.18-.48,1.18-.94,0-.69-.66-1-1.34-1h-.5v-.81h.5c.51,0,1.16-.23,1.16-.81,0-.4-.29-.73-.94-.73a2.3,2.3,0,0,0-1.2.37l-.25-.81a3.31,3.31,0,0,1,1.68-.45c1.22,0,1.83.67,1.83,1.43a1.42,1.42,0,0,1-1.08,1.37v0a1.5,1.5,0,0,1,1.29,1.46c0,1-.83,1.77-2.28,1.77a3.3,3.3,0,0,1-1.64-.4Z"/><path class="cls-36" d="M256.16,98.56a3.9,3.9,0,0,0-.56,0,2.06,2.06,0,0,0-2,1.7h0a1.66,1.66,0,0,1,1.31-.56,1.76,1.76,0,0,1,1.79,1.9,2,2,0,0,1-2.06,2.09,2.24,2.24,0,0,1-2.21-2.53,3.55,3.55,0,0,1,1-2.61,3.26,3.26,0,0,1,2.08-.86,2.33,2.33,0,0,1,.56,0Zm-.51,3.14a1,1,0,0,0-1-1.16,1.09,1.09,0,0,0-1,.6.83.83,0,0,0-.07.35c0,.78.38,1.41,1.11,1.41C255.28,102.9,255.65,102.4,255.65,101.7Z"/><path class="cls-36" d="M243,117.36v-.67l.7-.64c1.38-1.28,2-2,2-2.75a.92.92,0,0,0-1-1,2.12,2.12,0,0,0-1.25.49l-.33-.78a2.92,2.92,0,0,1,1.8-.61,1.74,1.74,0,0,1,1.93,1.78c0,1-.74,1.85-1.76,2.8l-.51.44v0h2.4v.91Z"/><path class="cls-36" d="M248,116.22a2.88,2.88,0,0,0,1.34.36c.84,0,1.18-.48,1.18-.94,0-.69-.66-1-1.34-1h-.5v-.8h.5c.51,0,1.16-.24,1.16-.82,0-.4-.29-.73-.94-.73a2.3,2.3,0,0,0-1.2.37l-.25-.81a3.31,3.31,0,0,1,1.68-.45c1.22,0,1.83.67,1.83,1.44a1.42,1.42,0,0,1-1.08,1.36v0a1.5,1.5,0,0,1,1.29,1.46c0,1-.83,1.77-2.28,1.77a3.19,3.19,0,0,1-1.64-.4Z"/><path class="cls-36" d="M256.33,112.43h-2.25l-.17,1.17a2.37,2.37,0,0,1,.41,0,2.61,2.61,0,0,1,1.43.38,1.69,1.69,0,0,1,.76,1.49,2.14,2.14,0,0,1-2.36,2,3.44,3.44,0,0,1-1.56-.34l.23-.84a2.9,2.9,0,0,0,1.29.31,1.14,1.14,0,0,0,1.27-1.06c0-.68-.5-1.12-1.66-1.12a5.58,5.58,0,0,0-.8.06l.38-3h3Z"/><path class="cls-36" d="M340.67,48.66V48l.69-.64c1.38-1.28,2-2,2-2.75a.93.93,0,0,0-1-1,2.09,2.09,0,0,0-1.25.49l-.32-.78a2.9,2.9,0,0,1,1.8-.61,1.73,1.73,0,0,1,1.92,1.78c0,1-.73,1.85-1.76,2.8l-.5.44v0h2.39v.91Z"/><path class="cls-36" d="M345.72,47.52a2.8,2.8,0,0,0,1.33.36c.85,0,1.18-.48,1.18-.94,0-.69-.66-1-1.33-1h-.51v-.81h.51c.5,0,1.15-.23,1.15-.81,0-.4-.29-.73-.94-.73a2.27,2.27,0,0,0-1.19.37l-.26-.81a3.38,3.38,0,0,1,1.69-.45c1.21,0,1.83.67,1.83,1.43a1.42,1.42,0,0,1-1.08,1.37v0A1.5,1.5,0,0,1,349.38,47c0,1-.83,1.77-2.27,1.77a3.14,3.14,0,0,1-1.64-.4Z"/><path class="cls-36" d="M352.76,48.66V47.18H350.1v-.72l2.4-3.65h1.3v3.53h.76v.84h-.76v1.48Zm0-2.32V44.75c0-.33,0-.67,0-1h0c-.18.37-.34.67-.52,1l-1.08,1.6v0Z"/><path class="cls-36" d="M340.67,62.4v-.67l.69-.64c1.38-1.28,2-2,2-2.75a.93.93,0,0,0-1-1,2.09,2.09,0,0,0-1.25.49l-.32-.78a2.9,2.9,0,0,1,1.8-.61,1.73,1.73,0,0,1,1.92,1.78c0,1-.73,1.85-1.76,2.8l-.5.44v0h2.39v.91Z"/><path class="cls-36" d="M345.72,61.26a2.8,2.8,0,0,0,1.33.36c.85,0,1.18-.48,1.18-.94,0-.69-.66-1-1.33-1h-.51v-.81h.51c.5,0,1.15-.23,1.15-.81,0-.4-.29-.73-.94-.73a2.27,2.27,0,0,0-1.19.37l-.26-.81a3.38,3.38,0,0,1,1.69-.45c1.21,0,1.83.67,1.83,1.44a1.42,1.42,0,0,1-1.08,1.36v0a1.5,1.5,0,0,1,1.28,1.46c0,1-.83,1.77-2.27,1.77a3.14,3.14,0,0,1-1.64-.4Z"/><path class="cls-36" d="M350.54,61.26a2.87,2.87,0,0,0,1.33.36c.85,0,1.18-.48,1.18-.94,0-.69-.65-1-1.33-1h-.5v-.81h.5c.51,0,1.15-.23,1.15-.81,0-.4-.28-.73-.93-.73a2.27,2.27,0,0,0-1.2.37l-.25-.81a3.31,3.31,0,0,1,1.68-.45c1.22,0,1.83.67,1.83,1.44a1.42,1.42,0,0,1-1.08,1.36v0a1.5,1.5,0,0,1,1.29,1.46c0,1-.83,1.77-2.28,1.77a3.19,3.19,0,0,1-1.64-.4Z"/><path class="cls-36" d="M338.81,89.88v-.67l.69-.64c1.38-1.28,2-2,2-2.75a.92.92,0,0,0-1-1,2.12,2.12,0,0,0-1.25.49l-.33-.78a2.88,2.88,0,0,1,1.8-.61,1.74,1.74,0,0,1,1.93,1.78c0,1-.74,1.85-1.76,2.8l-.51.44v0h2.4v.91Z"/><path class="cls-36" d="M343.86,88.74a2.8,2.8,0,0,0,1.33.36c.84,0,1.18-.48,1.18-.93,0-.7-.66-1-1.34-1h-.5v-.82h.5c.51,0,1.16-.23,1.16-.81,0-.4-.29-.73-.94-.73a2.4,2.4,0,0,0-1.2.36l-.25-.8a3.31,3.31,0,0,1,1.68-.45c1.22,0,1.83.67,1.83,1.43a1.42,1.42,0,0,1-1.08,1.37v0a1.5,1.5,0,0,1,1.29,1.46c0,1-.83,1.77-2.28,1.77a3.19,3.19,0,0,1-1.64-.4Z"/><path class="cls-36" d="M348.45,89.88v-.67l.7-.64c1.38-1.28,2-2,2-2.75a.92.92,0,0,0-1-1,2.12,2.12,0,0,0-1.25.49l-.33-.78a2.86,2.86,0,0,1,1.8-.61,1.74,1.74,0,0,1,1.93,1.78c0,1-.74,1.85-1.76,2.8L350,89v0h2.4v.91Z"/><path class="cls-36" d="M338.81,103.62V103l.69-.64c1.38-1.28,2-2,2-2.75a.92.92,0,0,0-1-1,2.12,2.12,0,0,0-1.25.49l-.33-.78a2.88,2.88,0,0,1,1.8-.61,1.74,1.74,0,0,1,1.93,1.78c0,1-.74,1.85-1.76,2.8l-.51.44v0h2.4v.91Z"/><path class="cls-36" d="M343.86,102.48a2.8,2.8,0,0,0,1.33.36c.84,0,1.18-.48,1.18-.94,0-.69-.66-1-1.34-1h-.5v-.81h.5c.51,0,1.16-.23,1.16-.81,0-.4-.29-.73-.94-.73a2.3,2.3,0,0,0-1.2.37l-.25-.81a3.31,3.31,0,0,1,1.68-.45c1.22,0,1.83.67,1.83,1.43a1.42,1.42,0,0,1-1.08,1.37v0a1.5,1.5,0,0,1,1.29,1.46c0,1-.83,1.77-2.28,1.77a3.3,3.3,0,0,1-1.64-.4Z"/><path class="cls-36" d="M350.19,98.77h0l-1.07.54-.19-.83,1.43-.71h.92v5.85h-1.07Z"/><path class="cls-36" d="M338.81,117.36v-.67l.69-.64c1.38-1.28,2-2,2-2.75a.92.92,0,0,0-1-1,2.12,2.12,0,0,0-1.25.49l-.33-.78a2.94,2.94,0,0,1,1.8-.61,1.74,1.74,0,0,1,1.93,1.78c0,1-.74,1.85-1.76,2.8l-.51.44v0h2.4v.91Z"/><path class="cls-36" d="M343.86,116.22a2.8,2.8,0,0,0,1.33.36c.84,0,1.18-.48,1.18-.94,0-.69-.66-1-1.34-1h-.5v-.8h.5c.51,0,1.16-.24,1.16-.82,0-.4-.29-.73-.94-.73a2.3,2.3,0,0,0-1.2.37l-.25-.81a3.31,3.31,0,0,1,1.68-.45c1.22,0,1.83.67,1.83,1.44a1.42,1.42,0,0,1-1.08,1.36v0a1.5,1.5,0,0,1,1.29,1.46c0,1-.83,1.77-2.28,1.77a3.19,3.19,0,0,1-1.64-.4Z"/><path class="cls-36" d="M352.59,114.39c0,1.89-.74,3.07-2.15,3.07s-2.06-1.22-2.07-3,.78-3,2.15-3S352.59,112.67,352.59,114.39Zm-3.1.06c0,1.43.39,2.17,1,2.17s1-.79,1-2.2-.31-2.16-1-2.16S349.49,113,349.49,114.45Z"/><path class="cls-36" d="M366.22,48.67V48l.69-.64c1.38-1.28,2-2,2-2.75a.93.93,0,0,0-1.05-1,2.15,2.15,0,0,0-1.25.49l-.33-.78a3,3,0,0,1,1.81-.61,1.73,1.73,0,0,1,1.92,1.78c0,1-.74,1.85-1.76,2.8l-.51.44v0h2.4v.92Z"/><path class="cls-36" d="M371,48.67V48l.69-.64c1.38-1.28,2-2,2-2.75a.93.93,0,0,0-1-1,2.15,2.15,0,0,0-1.25.49l-.32-.78a2.9,2.9,0,0,1,1.8-.61,1.74,1.74,0,0,1,1.93,1.78c0,1-.74,1.85-1.77,2.8l-.5.44v0H375v.92Z"/><path class="cls-36" d="M376.31,47.87a2.6,2.6,0,0,0,.61,0,2.06,2.06,0,0,0,1.94-1.75h0a1.69,1.69,0,0,1-1.28.51,1.73,1.73,0,0,1-1.78-1.81,2.07,2.07,0,0,1,2.11-2.09c1.37,0,2.09,1.07,2.09,2.5a3.64,3.64,0,0,1-1,2.73,3.29,3.29,0,0,1-2,.8c-.25,0-.49,0-.66,0Zm.58-3.13a1,1,0,0,0,1,1.07,1.07,1.07,0,0,0,.94-.48.75.75,0,0,0,.06-.33c0-.79-.29-1.47-1-1.47C377.29,43.53,376.89,44,376.89,44.74Z"/><path class="cls-36" d="M366.22,62.41v-.68l.69-.64c1.38-1.28,2-2,2-2.75a.93.93,0,0,0-1.05-1,2.15,2.15,0,0,0-1.25.49l-.33-.78a3,3,0,0,1,1.81-.61,1.73,1.73,0,0,1,1.92,1.78c0,1-.74,1.85-1.76,2.8l-.51.44v0h2.4v.92Z"/><path class="cls-36" d="M371,62.41v-.68l.69-.64c1.38-1.28,2-2,2-2.75a.93.93,0,0,0-1-1,2.15,2.15,0,0,0-1.25.49l-.32-.78a2.9,2.9,0,0,1,1.8-.61,1.74,1.74,0,0,1,1.93,1.78c0,1-.74,1.85-1.77,2.8l-.5.44v0H375v.92Z"/><path class="cls-36" d="M376.88,59.35a1.42,1.42,0,0,1-.89-1.29,1.75,1.75,0,0,1,2-1.61c1.26,0,1.83.76,1.83,1.48a1.45,1.45,0,0,1-.9,1.32v0A1.58,1.58,0,0,1,380,60.76c0,1-.88,1.74-2.14,1.74s-2.08-.79-2.08-1.61a1.62,1.62,0,0,1,1.1-1.51Zm2,1.5c0-.6-.43-.92-1.09-1.1a1.05,1.05,0,0,0-.86,1,.92.92,0,0,0,1,.95A.88.88,0,0,0,378.87,60.85ZM377,58c0,.48.4.77,1,.92a1,1,0,0,0,.73-.88A.85.85,0,0,0,377,58Z"/><path class="cls-36" d="M368.08,89.89v-.68l.69-.64c1.38-1.28,2-2,2-2.75a.92.92,0,0,0-1.05-1,2.15,2.15,0,0,0-1.25.48l-.32-.78a2.84,2.84,0,0,1,1.8-.61,1.74,1.74,0,0,1,1.93,1.78c0,1-.74,1.85-1.77,2.8l-.5.44v0H372v.92Z"/><path class="cls-36" d="M372.9,89.89v-.68l.7-.64c1.38-1.28,2-2,2-2.75a.92.92,0,0,0-1-1,2.12,2.12,0,0,0-1.25.48l-.33-.78a2.86,2.86,0,0,1,1.8-.61,1.74,1.74,0,0,1,1.93,1.78c0,1-.74,1.85-1.76,2.8l-.51.44v0h2.4v.92Z"/><path class="cls-36" d="M381.75,84v.71l-2.47,5.15h-1.16L380.58,85v0h-2.76V84Z"/><path class="cls-36" d="M368.08,103.62V103l.69-.64c1.38-1.28,2-2,2-2.75a.93.93,0,0,0-1.05-1,2.15,2.15,0,0,0-1.25.49l-.32-.78a2.84,2.84,0,0,1,1.8-.61,1.74,1.74,0,0,1,1.93,1.78c0,1-.74,1.85-1.77,2.8l-.5.44v0H372v.91Z"/><path class="cls-36" d="M372.9,103.62V103l.7-.64c1.38-1.28,2-2,2-2.75a.92.92,0,0,0-1-1,2.12,2.12,0,0,0-1.25.49l-.33-.78a2.86,2.86,0,0,1,1.8-.61,1.74,1.74,0,0,1,1.93,1.78c0,1-.74,1.85-1.76,2.8l-.51.44v0h2.4v.91Z"/><path class="cls-36" d="M381.28,98.57a3.57,3.57,0,0,0-.55,0,2.07,2.07,0,0,0-2,1.7h0a1.7,1.7,0,0,1,1.32-.56,1.77,1.77,0,0,1,1.79,1.91,2,2,0,0,1-2.06,2.08,2.23,2.23,0,0,1-2.21-2.53,3.51,3.51,0,0,1,1-2.61,3.26,3.26,0,0,1,2.08-.86,2.26,2.26,0,0,1,.55,0Zm-.51,3.13a1,1,0,0,0-1-1.16,1.07,1.07,0,0,0-.95.6.7.7,0,0,0-.07.35c0,.78.38,1.41,1.11,1.41C380.4,102.9,380.77,102.4,380.77,101.7Z"/><path class="cls-36" d="M368.08,117.36v-.67l.69-.64c1.38-1.28,2-2,2-2.75a.93.93,0,0,0-1.05-1,2.15,2.15,0,0,0-1.25.49l-.32-.78a2.9,2.9,0,0,1,1.8-.61,1.74,1.74,0,0,1,1.93,1.78c0,1-.74,1.85-1.77,2.8l-.5.44v0H372v.91Z"/><path class="cls-36" d="M372.9,117.36v-.67l.7-.64c1.38-1.28,2-2,2-2.75a.92.92,0,0,0-1-1,2.12,2.12,0,0,0-1.25.49L373,112a2.92,2.92,0,0,1,1.8-.61,1.74,1.74,0,0,1,1.93,1.78c0,1-.74,1.85-1.76,2.8l-.51.44v0h2.4v.91Z"/><path class="cls-36" d="M381.46,112.43H379.2L379,113.6a2.68,2.68,0,0,1,.42,0,2.6,2.6,0,0,1,1.42.37,1.7,1.7,0,0,1,.77,1.49,2.13,2.13,0,0,1-2.36,2,3.4,3.4,0,0,1-1.56-.34l.23-.84a2.85,2.85,0,0,0,1.28.31,1.14,1.14,0,0,0,1.27-1.06c0-.68-.49-1.12-1.65-1.12a5.73,5.73,0,0,0-.81.06l.38-3h3Z"/><path class="cls-36" d="M391.8,48.67V48l.69-.64c1.38-1.28,2-2,2-2.75a.93.93,0,0,0-1-1,2.15,2.15,0,0,0-1.25.49l-.32-.78a2.9,2.9,0,0,1,1.8-.61,1.73,1.73,0,0,1,1.92,1.78c0,1-.73,1.85-1.76,2.8l-.5.44v0h2.39v.92Z"/><path class="cls-36" d="M396.62,48.67V48l.7-.64c1.37-1.28,2-2,2-2.75a.92.92,0,0,0-1-1,2.1,2.1,0,0,0-1.25.49l-.33-.78a2.9,2.9,0,0,1,1.8-.61,1.74,1.74,0,0,1,1.93,1.78c0,1-.74,1.85-1.77,2.8l-.5.44v0h2.39v.92Z"/><path class="cls-36" d="M403.89,48.67V47.18h-2.66v-.72l2.4-3.65h1.3v3.53h.76v.84h-.76v1.49Zm0-2.33V44.75c0-.33,0-.67,0-1h0c-.18.37-.34.67-.52,1l-1.08,1.6v0Z"/><path class="cls-36" d="M391.8,62.41v-.68l.69-.64c1.38-1.28,2-2,2-2.75a.93.93,0,0,0-1-1,2.15,2.15,0,0,0-1.25.49l-.32-.78a2.9,2.9,0,0,1,1.8-.61,1.73,1.73,0,0,1,1.92,1.78c0,1-.73,1.85-1.76,2.8l-.5.44v0h2.39v.92Z"/><path class="cls-36" d="M396.62,62.41v-.68l.7-.64c1.37-1.28,2-2,2-2.75a.92.92,0,0,0-1-1,2.1,2.1,0,0,0-1.25.49l-.33-.78a2.9,2.9,0,0,1,1.8-.61,1.74,1.74,0,0,1,1.93,1.78c0,1-.74,1.85-1.77,2.8l-.5.44v0h2.39v.92Z"/><path class="cls-36" d="M401.67,61.26a2.87,2.87,0,0,0,1.33.36c.85,0,1.18-.48,1.18-.94,0-.69-.65-1-1.33-1h-.5v-.8h.5c.51,0,1.15-.24,1.15-.81,0-.41-.28-.74-.93-.74a2.27,2.27,0,0,0-1.2.37l-.25-.81a3.31,3.31,0,0,1,1.68-.45c1.22,0,1.83.67,1.83,1.44a1.42,1.42,0,0,1-1.08,1.36v0a1.5,1.5,0,0,1,1.29,1.46c0,1-.83,1.77-2.28,1.77a3.19,3.19,0,0,1-1.64-.4Z"/><path class="cls-36" d="M393.66,89.89v-.68l.7-.64c1.37-1.28,2-2,2-2.75a.92.92,0,0,0-1-1,2.15,2.15,0,0,0-1.26.48l-.32-.78a2.84,2.84,0,0,1,1.8-.61,1.74,1.74,0,0,1,1.93,1.78c0,1-.74,1.85-1.77,2.8l-.5.44v0h2.39v.92Z"/><path class="cls-36" d="M398.49,89.89v-.68l.69-.64c1.38-1.28,2-2,2-2.75a.91.91,0,0,0-1-1,2.15,2.15,0,0,0-1.25.48l-.33-.78a2.89,2.89,0,0,1,1.81-.61,1.73,1.73,0,0,1,1.92,1.78c0,1-.74,1.85-1.76,2.8l-.51.44v0h2.4v.92Z"/><path class="cls-36" d="M403.31,89.89v-.68l.69-.64c1.38-1.28,2-2,2-2.75a.92.92,0,0,0-1.05-1,2.15,2.15,0,0,0-1.25.48l-.32-.78a2.84,2.84,0,0,1,1.8-.61,1.74,1.74,0,0,1,1.93,1.78c0,1-.74,1.85-1.77,2.8l-.5.44v0h2.39v.92Z"/><path class="cls-36" d="M393.66,103.62V103l.7-.64c1.37-1.28,2-2,2-2.75a.92.92,0,0,0-1-1,2.16,2.16,0,0,0-1.26.49l-.32-.78a2.84,2.84,0,0,1,1.8-.61,1.74,1.74,0,0,1,1.93,1.78c0,1-.74,1.85-1.77,2.8l-.5.44v0h2.39v.91Z"/><path class="cls-36" d="M398.49,103.62V103l.69-.64c1.38-1.28,2-2,2-2.75a.92.92,0,0,0-1-1,2.15,2.15,0,0,0-1.25.49l-.33-.78a2.89,2.89,0,0,1,1.81-.61,1.73,1.73,0,0,1,1.92,1.78c0,1-.74,1.85-1.76,2.8l-.51.44v0h2.4v.91Z"/><path class="cls-36" d="M405.05,98.77h0l-1.07.54-.19-.83,1.43-.71h.92v5.85h-1.07Z"/><path class="cls-36" d="M393.66,117.36v-.67l.7-.64c1.37-1.28,2-2,2-2.75a.92.92,0,0,0-1-1,2.16,2.16,0,0,0-1.26.49l-.32-.78a2.9,2.9,0,0,1,1.8-.61,1.74,1.74,0,0,1,1.93,1.78c0,1-.74,1.85-1.77,2.8l-.5.44v0h2.39v.91Z"/><path class="cls-36" d="M398.49,117.36v-.67l.69-.64c1.38-1.28,2-2,2-2.75a.92.92,0,0,0-1-1,2.15,2.15,0,0,0-1.25.49l-.33-.78a3,3,0,0,1,1.81-.61,1.73,1.73,0,0,1,1.92,1.78c0,1-.74,1.85-1.76,2.8l-.51.44v0h2.4v.91Z"/><path class="cls-36" d="M407.44,114.39c0,1.89-.74,3.07-2.14,3.07s-2.06-1.22-2.07-3,.77-3,2.14-3S407.44,112.68,407.44,114.39Zm-3.09.06c0,1.43.38,2.17,1,2.17s1-.79,1-2.2-.32-2.16-1-2.16S404.35,113,404.35,114.45Z"/><path class="cls-36" d="M417.89,48.66V48l.7-.64c1.37-1.28,2-2,2-2.75a.92.92,0,0,0-1-1,2.09,2.09,0,0,0-1.26.49l-.32-.78a2.9,2.9,0,0,1,1.8-.61,1.74,1.74,0,0,1,1.93,1.78c0,1-.74,1.85-1.77,2.8l-.5.44v0h2.39v.91Z"/><path class="cls-36" d="M424.45,43.81h0l-1.07.54-.19-.83,1.43-.71h.92v5.85h-1.08Z"/><path class="cls-36" d="M428,47.87a2.6,2.6,0,0,0,.61,0,2,2,0,0,0,1.19-.45,2.09,2.09,0,0,0,.76-1.3h0a1.68,1.68,0,0,1-1.28.51,1.72,1.72,0,0,1-1.77-1.81,2.07,2.07,0,0,1,2.11-2.09c1.36,0,2.08,1.07,2.08,2.5a3.6,3.6,0,0,1-1,2.72,3.29,3.29,0,0,1-2,.81,5.16,5.16,0,0,1-.67,0Zm.59-3.13a1,1,0,0,0,1,1.07,1.07,1.07,0,0,0,1-.49.82.82,0,0,0,.06-.32c0-.79-.3-1.47-1-1.47C429,43.53,428.57,44,428.57,44.74Z"/><path class="cls-36" d="M417.89,62.4v-.67l.7-.64c1.37-1.28,2-2,2-2.75a.92.92,0,0,0-1-1,2.09,2.09,0,0,0-1.26.49l-.32-.78a2.9,2.9,0,0,1,1.8-.61,1.74,1.74,0,0,1,1.93,1.78c0,1-.74,1.85-1.77,2.8l-.5.44v0h2.39v.91Z"/><path class="cls-36" d="M424.45,57.55h0l-1.07.54-.19-.83,1.43-.71h.92V62.4h-1.08Z"/><path class="cls-36" d="M428.56,59.35a1.42,1.42,0,0,1-.89-1.29,1.74,1.74,0,0,1,1.95-1.61c1.27,0,1.84.76,1.84,1.48a1.45,1.45,0,0,1-.9,1.32v0a1.57,1.57,0,0,1,1.11,1.48c0,1-.88,1.74-2.13,1.74s-2.08-.79-2.08-1.61a1.61,1.61,0,0,1,1.1-1.51Zm2,1.5c0-.6-.43-.92-1.09-1.1a1.06,1.06,0,0,0-.87,1,.93.93,0,0,0,1,.95A.89.89,0,0,0,430.55,60.85ZM428.72,58c0,.48.4.77.95.92a.94.94,0,0,0,.73-.88.84.84,0,0,0-1.68,0Z"/><path class="cls-36" d="M417.89,89.88v-.67l.7-.64c1.37-1.28,2-2,2-2.75a.92.92,0,0,0-1-1,2.16,2.16,0,0,0-1.26.49l-.32-.78a2.84,2.84,0,0,1,1.8-.61,1.74,1.74,0,0,1,1.93,1.78c0,1-.74,1.85-1.77,2.8l-.5.44v0h2.39v.91Z"/><path class="cls-36" d="M424.45,85h0l-1.07.54-.19-.83,1.43-.71h.92v5.85h-1.08Z"/><path class="cls-36" d="M431.57,84v.71l-2.48,5.14h-1.16L430.4,85v0h-2.77V84Z"/><path class="cls-36" d="M417.89,103.62V103l.7-.64c1.37-1.28,2-2,2-2.75a.92.92,0,0,0-1-1,2.16,2.16,0,0,0-1.26.49l-.32-.78a2.84,2.84,0,0,1,1.8-.61,1.74,1.74,0,0,1,1.93,1.78c0,1-.74,1.85-1.77,2.8l-.5.44v0h2.39v.91Z"/><path class="cls-36" d="M424.45,98.77h0l-1.07.54-.19-.83,1.43-.71h.92v5.85h-1.08Z"/><path class="cls-36" d="M431.1,98.56a3.83,3.83,0,0,0-.56,0,2.06,2.06,0,0,0-2,1.7h0a1.7,1.7,0,0,1,1.32-.56,1.76,1.76,0,0,1,1.79,1.9,2,2,0,0,1-2.06,2.09,2.24,2.24,0,0,1-2.21-2.53,3.55,3.55,0,0,1,1-2.61,3.26,3.26,0,0,1,2.08-.86,2.32,2.32,0,0,1,.56,0Zm-.52,3.14c0-.69-.37-1.16-1-1.16a1.08,1.08,0,0,0-1,.6.83.83,0,0,0-.07.35c0,.78.38,1.41,1.11,1.41C430.21,102.9,430.58,102.4,430.58,101.7Z"/><path class="cls-36" d="M417.89,117.36v-.67l.7-.64c1.37-1.28,2-2,2-2.75a.92.92,0,0,0-1-1,2.16,2.16,0,0,0-1.26.49L418,112a2.9,2.9,0,0,1,1.8-.61,1.74,1.74,0,0,1,1.93,1.78c0,1-.74,1.85-1.77,2.8l-.5.44v0h2.39v.91Z"/><path class="cls-36" d="M424.45,112.51h0l-1.07.54-.19-.83,1.43-.71h.92v5.85h-1.08Z"/><path class="cls-36" d="M431.27,112.43H429l-.17,1.17a2.37,2.37,0,0,1,.41,0,2.58,2.58,0,0,1,1.42.38,1.7,1.7,0,0,1,.77,1.49,2.14,2.14,0,0,1-2.36,2,3.44,3.44,0,0,1-1.56-.34l.23-.84a2.85,2.85,0,0,0,1.28.31,1.14,1.14,0,0,0,1.27-1.06c0-.68-.49-1.12-1.65-1.12a5.46,5.46,0,0,0-.8.06l.37-3h3Z"/><path class="cls-36" d="M442,48.66V48l.69-.64c1.38-1.28,2-2,2-2.75a.92.92,0,0,0-1-1,2.09,2.09,0,0,0-1.25.49l-.33-.78a3,3,0,0,1,1.81-.61,1.73,1.73,0,0,1,1.92,1.78c0,1-.74,1.85-1.76,2.8l-.51.44v0H446v.91Z"/><path class="cls-36" d="M448.55,43.81h0l-1.07.54-.19-.83,1.43-.71h.92v5.85h-1.07Z"/><path class="cls-36" d="M454.07,48.66V47.18h-2.65v-.72l2.39-3.65h1.31v3.53h.75v.84h-.75v1.48Zm0-2.32V44.75c0-.33,0-.67,0-1h0c-.18.37-.33.67-.51,1l-1.08,1.6v0Z"/><path class="cls-36" d="M442,62.4v-.67l.69-.64c1.38-1.28,2-2,2-2.75a.92.92,0,0,0-1-1,2.09,2.09,0,0,0-1.25.49l-.33-.78a3,3,0,0,1,1.81-.61,1.73,1.73,0,0,1,1.92,1.78c0,1-.74,1.85-1.76,2.8l-.51.44v0H446v.91Z"/><path class="cls-36" d="M448.55,57.55h0l-1.07.54-.19-.83,1.43-.71h.92V62.4h-1.07Z"/><path class="cls-36" d="M451.86,61.26a2.8,2.8,0,0,0,1.33.36c.85,0,1.18-.48,1.18-.94,0-.69-.66-1-1.33-1h-.51v-.81H453c.5,0,1.15-.23,1.15-.81,0-.4-.29-.73-.93-.73a2.27,2.27,0,0,0-1.2.37l-.25-.81a3.31,3.31,0,0,1,1.68-.45c1.21,0,1.83.67,1.83,1.44a1.42,1.42,0,0,1-1.08,1.36v0a1.49,1.49,0,0,1,1.28,1.46c0,1-.82,1.77-2.27,1.77a3.14,3.14,0,0,1-1.64-.4Z"/><path class="cls-36" d="M445.71,89.88v-.67l.7-.64c1.37-1.28,2-2,2-2.75a.92.92,0,0,0-1-1,2.1,2.1,0,0,0-1.25.49l-.33-.78a2.84,2.84,0,0,1,1.8-.61,1.74,1.74,0,0,1,1.93,1.78c0,1-.74,1.85-1.77,2.8l-.5.44v0h2.39v.91Z"/><path class="cls-36" d="M452.28,85h0l-1.07.54-.19-.83,1.43-.71h.92v5.85h-1.07Z"/><path class="cls-36" d="M455.36,89.88v-.67l.69-.64c1.38-1.28,2-2,2-2.75a.93.93,0,0,0-1-1,2.15,2.15,0,0,0-1.25.49l-.32-.78a2.84,2.84,0,0,1,1.8-.61,1.74,1.74,0,0,1,1.93,1.78c0,1-.74,1.85-1.77,2.8l-.5.44v0h2.39v.91Z"/><path class="cls-36" d="M445.71,103.62V103l.7-.64c1.37-1.28,2-2,2-2.75a.92.92,0,0,0-1-1,2.1,2.1,0,0,0-1.25.49l-.33-.78a2.84,2.84,0,0,1,1.8-.61,1.74,1.74,0,0,1,1.93,1.78c0,1-.74,1.85-1.77,2.8l-.5.44v0h2.39v.91Z"/><path class="cls-36" d="M452.28,98.77h0l-1.07.54-.19-.83,1.43-.71h.92v5.85h-1.07Z"/><path class="cls-36" d="M457.1,98.77h0l-1.07.54-.19-.83,1.43-.71h.92v5.85H457.1Z"/><path class="cls-36" d="M445.71,117.36v-.67l.7-.64c1.37-1.28,2-2,2-2.75a.92.92,0,0,0-1-1,2.1,2.1,0,0,0-1.25.49l-.33-.78a2.9,2.9,0,0,1,1.8-.61,1.74,1.74,0,0,1,1.93,1.78c0,1-.74,1.85-1.77,2.8l-.5.44v0h2.39v.91Z"/><path class="cls-36" d="M452.28,112.51h0l-1.07.54-.19-.83,1.43-.71h.92v5.85h-1.07Z"/><path class="cls-36" d="M459.49,114.39c0,1.89-.73,3.07-2.14,3.07s-2.06-1.22-2.07-3,.77-3,2.14-3S459.49,112.67,459.49,114.39Zm-3.09.06c0,1.43.38,2.17,1,2.17s1-.79,1-2.2-.32-2.16-1-2.16S456.4,113,456.4,114.45Z"/><path class="cls-36" d="M469,48.66V48l.69-.64c1.38-1.28,2-2,2-2.75a.92.92,0,0,0-1-1,2.09,2.09,0,0,0-1.25.49l-.32-.78a2.9,2.9,0,0,1,1.8-.61,1.73,1.73,0,0,1,1.92,1.78c0,1-.74,1.85-1.76,2.8l-.51.44v0H473v.91Z"/><path class="cls-36" d="M477.94,45.69c0,1.89-.74,3.07-2.14,3.07s-2.06-1.22-2.07-3,.77-3,2.14-3S477.94,44,477.94,45.69Zm-3.09.06c0,1.43.38,2.17,1,2.17s1-.8,1-2.2-.32-2.16-1-2.16S474.85,44.29,474.85,45.75Z"/><path class="cls-36" d="M479.08,47.87a2.6,2.6,0,0,0,.61,0,2.06,2.06,0,0,0,1.94-1.75h0a1.69,1.69,0,0,1-1.28.51,1.73,1.73,0,0,1-1.78-1.81,2.07,2.07,0,0,1,2.11-2.09c1.37,0,2.09,1.07,2.09,2.5a3.6,3.6,0,0,1-1,2.72,3.26,3.26,0,0,1-2,.81,5,5,0,0,1-.66,0Zm.58-3.13a1,1,0,0,0,1,1.07,1.06,1.06,0,0,0,.95-.49.67.67,0,0,0,.06-.32c0-.79-.29-1.47-1-1.47C480.06,43.53,479.66,44,479.66,44.74Z"/><path class="cls-36" d="M469,62.4v-.67l.69-.64c1.38-1.28,2-2,2-2.75a.92.92,0,0,0-1-1,2.09,2.09,0,0,0-1.25.49l-.32-.78a2.9,2.9,0,0,1,1.8-.61,1.73,1.73,0,0,1,1.92,1.78c0,1-.74,1.85-1.76,2.8l-.51.44v0H473v.91Z"/><path class="cls-36" d="M477.94,59.43c0,1.89-.74,3.07-2.14,3.07s-2.06-1.22-2.07-3,.77-3,2.14-3S477.94,57.71,477.94,59.43Zm-3.09.06c0,1.43.38,2.17,1,2.17s1-.8,1-2.2-.32-2.16-1-2.16S474.85,58,474.85,59.49Z"/><path class="cls-36" d="M479.65,59.35a1.42,1.42,0,0,1-.89-1.29,1.74,1.74,0,0,1,1.95-1.61c1.27,0,1.84.76,1.84,1.48a1.45,1.45,0,0,1-.9,1.32v0a1.58,1.58,0,0,1,1.12,1.48c0,1-.89,1.74-2.14,1.74s-2.08-.79-2.08-1.61a1.62,1.62,0,0,1,1.1-1.51Zm2,1.5c0-.6-.43-.92-1.09-1.1a1.05,1.05,0,0,0-.86,1,.92.92,0,0,0,1,.95A.88.88,0,0,0,481.64,60.85ZM479.81,58c0,.48.4.77,1,.92a1,1,0,0,0,.73-.88.85.85,0,0,0-1.69,0Z"/><path class="cls-36" d="M575.92,48.66V48l.69-.64c1.38-1.28,2-2,2-2.75a.93.93,0,0,0-1-1,2.09,2.09,0,0,0-1.25.49l-.32-.78a2.9,2.9,0,0,1,1.8-.61,1.74,1.74,0,0,1,1.93,1.78c0,1-.74,1.85-1.77,2.8l-.5.44v0h2.39v.91Z"/><path class="cls-36" d="M584.88,45.69c0,1.89-.74,3.07-2.15,3.07s-2.06-1.22-2.07-3,.78-3,2.15-3S584.88,44,584.88,45.69Zm-3.1.06c0,1.43.39,2.17,1,2.17s1-.8,1-2.2-.31-2.16-1-2.16S581.78,44.29,581.78,45.75Z"/><path class="cls-36" d="M589.59,42.81v.71l-2.47,5.14H586l2.46-4.91v0h-2.76v-.92Z"/><path class="cls-36" d="M575.92,62.4v-.67l.69-.64c1.38-1.28,2-2,2-2.75a.93.93,0,0,0-1-1,2.09,2.09,0,0,0-1.25.49l-.32-.78a2.9,2.9,0,0,1,1.8-.61,1.74,1.74,0,0,1,1.93,1.78c0,1-.74,1.85-1.77,2.8l-.5.44v0h2.39v.91Z"/><path class="cls-36" d="M584.88,59.43c0,1.89-.74,3.07-2.15,3.07s-2.06-1.22-2.07-3,.78-3,2.15-3S584.88,57.71,584.88,59.43Zm-3.1.06c0,1.43.39,2.17,1,2.17s1-.8,1-2.2-.31-2.16-1-2.16S581.78,58,581.78,59.49Z"/><path class="cls-36" d="M589.12,57.35a3.57,3.57,0,0,0-.55,0,2.07,2.07,0,0,0-2,1.7h0a1.7,1.7,0,0,1,1.32-.56,1.77,1.77,0,0,1,1.79,1.91,2,2,0,0,1-2.06,2.08A2.23,2.23,0,0,1,585.47,60a3.51,3.51,0,0,1,1-2.61,3.26,3.26,0,0,1,2.08-.86,2.26,2.26,0,0,1,.55,0Zm-.51,3.13a1,1,0,0,0-1-1.16,1.07,1.07,0,0,0-1,.6.7.7,0,0,0-.07.35c0,.78.38,1.41,1.11,1.41C588.24,61.68,588.61,61.18,588.61,60.48Z"/><path class="cls-36" d="M574.06,89.88v-.67l.69-.64c1.38-1.28,2-2,2-2.75a.92.92,0,0,0-1-1,2.15,2.15,0,0,0-1.25.49l-.33-.78a2.89,2.89,0,0,1,1.81-.61,1.73,1.73,0,0,1,1.92,1.78c0,1-.74,1.85-1.76,2.8l-.51.44v0H578v.91Z"/><path class="cls-36" d="M583,86.91c0,1.89-.73,3.07-2.14,3.07s-2.06-1.22-2.07-3,.77-3,2.14-3S583,85.19,583,86.91Zm-3.09.06c0,1.43.38,2.17,1,2.17s1-.79,1-2.2-.32-2.16-1-2.16S579.92,85.51,579.92,87Z"/><path class="cls-36" d="M587.43,85h-2.25L585,86.12a2.55,2.55,0,0,1,.41,0,2.61,2.61,0,0,1,1.43.37,1.69,1.69,0,0,1,.76,1.49,2.13,2.13,0,0,1-2.36,2,3.36,3.36,0,0,1-1.55-.34l.22-.84a2.9,2.9,0,0,0,1.29.31,1.14,1.14,0,0,0,1.27-1.06c0-.68-.5-1.12-1.66-1.12a5.7,5.7,0,0,0-.8.06l.38-3h3Z"/><path class="cls-36" d="M574.06,103.62V103l.69-.64c1.38-1.28,2-2,2-2.75a.92.92,0,0,0-1-1,2.15,2.15,0,0,0-1.25.49l-.33-.78a2.89,2.89,0,0,1,1.81-.61,1.73,1.73,0,0,1,1.92,1.78c0,1-.74,1.85-1.76,2.8l-.51.44v0H578v.91Z"/><path class="cls-36" d="M583,100.65c0,1.89-.73,3.07-2.14,3.07s-2.06-1.22-2.07-3,.77-3,2.14-3S583,98.93,583,100.65Zm-3.09.06c0,1.43.38,2.17,1,2.17s1-.79,1-2.2-.32-2.16-1-2.16S579.92,99.25,579.92,100.71Z"/><path class="cls-36" d="M586.15,103.62v-1.48h-2.66v-.72l2.39-3.65h1.31v3.53H588v.84h-.76v1.48Zm0-2.32V99.71q0-.49,0-1h0c-.19.37-.34.67-.52,1l-1.08,1.6v0Z"/><path class="cls-36" d="M574.06,117.36v-.67l.69-.64c1.38-1.28,2-2,2-2.75a.92.92,0,0,0-1-1,2.15,2.15,0,0,0-1.25.49l-.33-.78a3,3,0,0,1,1.81-.61,1.73,1.73,0,0,1,1.92,1.78c0,1-.74,1.85-1.76,2.8l-.51.44v0H578v.91Z"/><path class="cls-36" d="M583,114.39c0,1.89-.73,3.07-2.14,3.07s-2.06-1.22-2.07-3,.77-3,2.14-3S583,112.67,583,114.39Zm-3.09.06c0,1.43.38,2.17,1,2.17s1-.79,1-2.2-.32-2.16-1-2.16S579.92,113,579.92,114.45Z"/><path class="cls-36" d="M583.93,116.22a2.84,2.84,0,0,0,1.33.36c.85,0,1.18-.48,1.18-.94,0-.69-.66-1-1.33-1h-.5v-.8h.5c.5,0,1.15-.24,1.15-.82,0-.4-.29-.73-.93-.73a2.27,2.27,0,0,0-1.2.37l-.25-.81a3.31,3.31,0,0,1,1.68-.45c1.22,0,1.83.67,1.83,1.44a1.42,1.42,0,0,1-1.08,1.36v0a1.49,1.49,0,0,1,1.28,1.46c0,1-.82,1.77-2.27,1.77a3.17,3.17,0,0,1-1.64-.4Z"/><path class="cls-36" d="M604.82,48.66V48l.69-.64c1.38-1.28,2-2,2-2.75a.93.93,0,0,0-1-1,2.09,2.09,0,0,0-1.25.49l-.32-.78a2.9,2.9,0,0,1,1.8-.61,1.73,1.73,0,0,1,1.92,1.78c0,1-.73,1.85-1.76,2.8l-.51.44v0h2.4v.91Z"/><path class="cls-36" d="M613.78,45.69c0,1.89-.74,3.07-2.15,3.07s-2.06-1.22-2.07-3,.78-3,2.14-3S613.78,44,613.78,45.69Zm-3.1.06c0,1.43.39,2.17,1,2.17s1-.8,1-2.2-.32-2.16-1-2.16S610.68,44.29,610.68,45.75Z"/><path class="cls-36" d="M614.47,48.66V48l.69-.64c1.38-1.28,2-2,2-2.75a.93.93,0,0,0-1.05-1,2.09,2.09,0,0,0-1.25.49l-.33-.78a3,3,0,0,1,1.81-.61,1.73,1.73,0,0,1,1.92,1.78c0,1-.74,1.85-1.76,2.8l-.51.44v0h2.4v.91Z"/><path class="cls-36" d="M604.82,62.4v-.67l.69-.64c1.38-1.28,2-2,2-2.75a.93.93,0,0,0-1-1,2.09,2.09,0,0,0-1.25.49l-.32-.78a2.9,2.9,0,0,1,1.8-.61,1.73,1.73,0,0,1,1.92,1.78c0,1-.73,1.85-1.76,2.8l-.51.44v0h2.4v.91Z"/><path class="cls-36" d="M613.78,59.43c0,1.89-.74,3.07-2.15,3.07s-2.06-1.22-2.07-3,.78-3,2.14-3S613.78,57.71,613.78,59.43Zm-3.1.06c0,1.43.39,2.17,1,2.17s1-.8,1-2.2-.32-2.16-1-2.16S610.68,58,610.68,59.49Z"/><path class="cls-36" d="M616.2,57.55h0l-1.07.54-.19-.83,1.43-.71h.92V62.4H616.2Z"/><path class="cls-36" d="M606.68,103.62V103l.69-.64c1.38-1.28,2-2,2-2.75a.92.92,0,0,0-1-1,2.16,2.16,0,0,0-1.26.49l-.32-.78a2.84,2.84,0,0,1,1.8-.61,1.74,1.74,0,0,1,1.93,1.78c0,1-.74,1.85-1.77,2.8l-.5.44v0h2.39v.91Z"/><path class="cls-36" d="M615.64,100.65c0,1.89-.74,3.07-2.14,3.07s-2.07-1.22-2.08-3,.78-3,2.15-3S615.64,98.93,615.64,100.65Zm-3.1.06c0,1.43.39,2.17,1,2.17s1-.79,1-2.2-.31-2.16-1-2.16S612.54,99.25,612.54,100.71Z"/><path class="cls-36" d="M620.46,100.65c0,1.89-.74,3.07-2.14,3.07s-2.06-1.22-2.07-3,.77-3,2.14-3S620.46,98.93,620.46,100.65Zm-3.09.06c0,1.43.38,2.17,1,2.17s1-.79,1-2.2-.32-2.16-1-2.16S617.37,99.25,617.37,100.71Z"/><path class="cls-36" d="M608.42,112.51h0l-1.07.54-.19-.83,1.43-.71h.92v5.85h-1.07Z"/><path class="cls-36" d="M612,116.57a2.6,2.6,0,0,0,.61,0,2.17,2.17,0,0,0,1.19-.45,2.08,2.08,0,0,0,.75-1.3h0a1.68,1.68,0,0,1-1.28.51,1.73,1.73,0,0,1-1.78-1.81,2.07,2.07,0,0,1,2.11-2.09c1.37,0,2.09,1.07,2.09,2.5a3.64,3.64,0,0,1-1,2.73,3.29,3.29,0,0,1-2,.8,5,5,0,0,1-.66,0Zm.58-3.13a1,1,0,0,0,1,1.07,1.08,1.08,0,0,0,.94-.49.67.67,0,0,0,.06-.32c0-.79-.29-1.47-1-1.47C612.93,112.23,612.53,112.73,612.53,113.44Z"/><path class="cls-36" d="M616.77,116.57a2.6,2.6,0,0,0,.61,0,2.14,2.14,0,0,0,1.19-.45,2.09,2.09,0,0,0,.76-1.3h0a1.68,1.68,0,0,1-1.28.51,1.72,1.72,0,0,1-1.77-1.81,2.07,2.07,0,0,1,2.11-2.09c1.36,0,2.08,1.07,2.08,2.5a3.64,3.64,0,0,1-1,2.73,3.34,3.34,0,0,1-2,.8,5.16,5.16,0,0,1-.67,0Zm.59-3.13a1,1,0,0,0,1,1.07,1.11,1.11,0,0,0,.95-.49.82.82,0,0,0,.06-.32c0-.79-.3-1.47-1-1.47C617.75,112.23,617.36,112.73,617.36,113.44Z"/></g><g id="SYMBOLER"><rect class="cls-37" x="286.12" y="2.74" width="31.11" height="31.15"/><rect class="cls-38" x="300.26" y="31.37" width="16.98" height="2.51"/><rect class="cls-38" x="286.05" y="31.6" width="12.73" height="2.32"/><polygon class="cls-38" points="298.78 2.74 298.78 2.74 286.12 2.74 286.12 3.89 297.17 3.89 297.17 6.64 298.79 6.64 298.79 2.74 298.78 2.74"/><path class="cls-38" d="M301.42,11.34a1.79,1.79,0,1,0-1.78-1.79,1.78,1.78,0,0,0,1.78,1.79"/><path class="cls-38" d="M305.19,19.69a.69.69,0,0,1,.62-.34L303.08,13a1.74,1.74,0,0,1,.11.61v5l.93,1.95a1,1,0,0,0,1.33.53,1,1,0,0,0,.33-.22l-.33-.2a.72.72,0,0,1-.26-1"/><path class="cls-38" d="M309,17.87a1.5,1.5,0,1,0-1.49-1.5,1.5,1.5,0,0,0,1.49,1.5"/><path class="cls-38" d="M307.83,24.38,306,30a.73.73,0,0,0,.47.9.72.72,0,0,0,.9-.47L308.79,26l-.34-1a1.19,1.19,0,0,1-.62-.57"/><path class="cls-38" d="M311.6,30l-1.76-5.34a1.23,1.23,0,0,1-.74.33l-.31,1,1.44,4.48a.72.72,0,0,0,.9.47.73.73,0,0,0,.47-.9"/><path class="cls-38" d="M309,25.05h-.07a1.19,1.19,0,0,1-.46-.1l.34,1,.31-1-.12,0"/><path class="cls-38" d="M309,25.05h-.07a1.19,1.19,0,0,1-.46-.1l.34,1,.31-1-.12,0"/><path class="cls-38" d="M308.79,24.31l.91-.06.14.44a1.22,1.22,0,0,0,.38-.89V19.5A1.25,1.25,0,0,0,309,18.25h-.07a1.25,1.25,0,0,0-1.25,1.25v.71l.25.13v1.78l-.25-.15V23.8a1.16,1.16,0,0,0,.17.58l0-.13Z"/><path class="cls-38" d="M308.45,25l-.19-.6.53,0-.92-.06,0,.13a1.19,1.19,0,0,0,.62.57"/><path class="cls-38" d="M308.45,25l-.19-.6.53,0-.92-.06,0,.13a1.19,1.19,0,0,0,.62.57"/><path class="cls-38" d="M308.79,24.31l.53,0-.22.67a1.23,1.23,0,0,0,.74-.33l-.14-.44Z"/><path class="cls-38" d="M308.79,24.31l.53,0-.22.67a1.23,1.23,0,0,0,.74-.33l-.14-.44Z"/><path class="cls-38" d="M308.79,24.31l-.53,0,.19.6a1.19,1.19,0,0,0,.46.1H309l.12,0,.22-.67Z"/><path class="cls-38" d="M308.79,24.31l-.53,0,.19.6a1.19,1.19,0,0,0,.46.1H309l.12,0,.22-.67Z"/><path class="cls-38" d="M308.79,24.31l-.53,0,.19.6a1.19,1.19,0,0,0,.46.1H309l.12,0,.22-.67Z"/><path class="cls-38" d="M306.16,19.43a.72.72,0,0,0-.35-.08l.18.41a1,1,0,0,1-.21,1.11l1.88,1.1V20.21Z"/><path class="cls-38" d="M306,19.75l-.18-.4a.69.69,0,0,0-.62.34.72.72,0,0,0,.26,1l.33.2a1,1,0,0,0,.21-1.12"/><path class="cls-38" d="M306,19.75l-.18-.4a.69.69,0,0,0-.62.34.72.72,0,0,0,.26,1l.33.2a1,1,0,0,0,.21-1.12"/><polygon class="cls-38" points="307.66 21.97 307.91 22.12 307.91 20.34 307.66 20.21 307.66 21.97"/><polygon class="cls-38" points="307.66 21.97 307.91 22.12 307.91 20.34 307.66 20.21 307.66 21.97"/><path class="cls-38" d="M299.61,21.33V21l-4.05,7.55a1.05,1.05,0,0,0,.46,1.42,1,1,0,0,0,1.4-.45l3.25-6.11-.29-2Z"/><path class="cls-38" d="M301.74,21.33l-1.07,2,.95,6.85a1.05,1.05,0,0,0,1.17.91,1.08,1.08,0,0,0,.92-1.19l-1.26-8.69-.13.09Z"/><polygon class="cls-38" points="300.38 21.33 300.67 23.36 301.74 21.33 300.38 21.33"/><polygon class="cls-38" points="300.38 21.33 300.67 23.36 301.74 21.33 300.38 21.33"/><path class="cls-38" d="M303.07,13v0a1.77,1.77,0,0,0-3.44.61V14.9L296.13,17a1,1,0,0,0,1,1.77l2.5-1.29v2.8h0l0,0V21l.17-.33,1.31.32,1.34.15,0,.15a1.37,1.37,0,0,0,.74-1.39V18.61L302.42,17Z"/><path class="cls-38" d="M303.08,13v0l-.65,4,.77,1.63v-5a1.74,1.74,0,0,0-.11-.61"/><path class="cls-38" d="M303.08,13v0l-.65,4,.77,1.63v-5a1.74,1.74,0,0,0-.11-.61"/><polygon class="cls-38" points="299.61 20.95 299.61 21.33 300.38 21.33 300.31 20.86 301.09 20.94 299.78 20.62 299.61 20.95"/><polygon class="cls-38" points="299.61 20.95 299.61 21.33 300.38 21.33 300.31 20.86 301.09 20.94 299.78 20.62 299.61 20.95"/><path class="cls-38" d="M301.09,20.94l.76.19-.11.2h.58l.13-.09,0-.15Z"/><path class="cls-38" d="M301.09,20.94l.76.19-.11.2h.58l.13-.09,0-.15Z"/><polygon class="cls-38" points="300.38 21.33 301.74 21.33 301.85 21.13 301.09 20.94 300.31 20.86 300.38 21.33"/><polygon class="cls-38" points="300.38 21.33 301.74 21.33 301.85 21.13 301.09 20.94 300.31 20.86 300.38 21.33"/><polygon class="cls-38" points="300.38 21.33 301.74 21.33 301.85 21.13 301.09 20.94 300.31 20.86 300.38 21.33"/><rect class="cls-37" x="286.27" y="126.33" width="31.11" height="31.15"/><rect class="cls-38" x="300.41" y="154.96" width="16.98" height="2.51"/><rect class="cls-38" x="286.21" y="155.19" width="12.73" height="2.32"/><polygon class="cls-38" points="298.93 126.34 298.93 126.33 286.27 126.33 286.27 127.48 297.32 127.48 297.32 130.23 298.94 130.23 298.94 126.34 298.93 126.34"/><path class="cls-38" d="M301.57,134.93a1.79,1.79,0,1,0-1.78-1.79,1.78,1.78,0,0,0,1.78,1.79"/><path class="cls-38" d="M305.34,143.29a.7.7,0,0,1,.62-.35l-2.73-6.33a1.78,1.78,0,0,1,.11.61v5l.93,1.94a1,1,0,0,0,1.33.54,1.14,1.14,0,0,0,.33-.23l-.33-.2a.7.7,0,0,1-.26-1"/><path class="cls-38" d="M309.13,141.46a1.5,1.5,0,1,0-1.49-1.5,1.5,1.5,0,0,0,1.49,1.5"/><path class="cls-38" d="M308,148l-1.86,5.64a.72.72,0,0,0,.48.9.71.71,0,0,0,.89-.47l1.45-4.47-.34-1A1.27,1.27,0,0,1,308,148"/><path class="cls-38" d="M311.75,153.62,310,148.28a1.21,1.21,0,0,1-.75.34l-.31,1,1.45,4.47a.7.7,0,0,0,.89.47.72.72,0,0,0,.47-.9"/><path class="cls-38" d="M309.13,148.64h-.07a1.45,1.45,0,0,1-.46-.09l.34,1,.31-1-.12,0"/><path class="cls-38" d="M309.13,148.64h-.07a1.45,1.45,0,0,1-.46-.09l.34,1,.31-1-.12,0"/><path class="cls-38" d="M308.94,147.91l.91-.07.15.44a1.23,1.23,0,0,0,.37-.89V143.1a1.24,1.24,0,0,0-1.24-1.25h-.07a1.25,1.25,0,0,0-1.25,1.25v.7l.25.13v1.78l-.25-.14v1.82a1.19,1.19,0,0,0,.17.59l0-.14Z"/><path class="cls-38" d="M308.6,148.55l-.19-.61.53,0-.92-.07,0,.14a1.27,1.27,0,0,0,.62.57"/><path class="cls-38" d="M308.6,148.55l-.19-.61.53,0-.92-.07,0,.14a1.27,1.27,0,0,0,.62.57"/><path class="cls-38" d="M308.94,147.91l.53,0-.22.68a1.21,1.21,0,0,0,.75-.34l-.15-.44Z"/><path class="cls-38" d="M308.94,147.91l.53,0-.22.68a1.21,1.21,0,0,0,.75-.34l-.15-.44Z"/><path class="cls-38" d="M308.94,147.91l-.53,0,.19.61a1.45,1.45,0,0,0,.46.09h.07l.12,0,.22-.68Z"/><path class="cls-38" d="M308.94,147.91l-.53,0,.19.61a1.45,1.45,0,0,0,.46.09h.07l.12,0,.22-.68Z"/><path class="cls-38" d="M308.94,147.91l-.53,0,.19.61a1.45,1.45,0,0,0,.46.09h.07l.12,0,.22-.68Z"/><path class="cls-38" d="M306.31,143a.63.63,0,0,0-.35-.09l.18.41a1,1,0,0,1-.21,1.11l1.88,1.11V143.8Z"/><path class="cls-38" d="M306.14,143.35l-.18-.41a.71.71,0,0,0-.36,1.32l.33.2a1,1,0,0,0,.21-1.11"/><path class="cls-38" d="M306.14,143.35l-.18-.41a.71.71,0,0,0-.36,1.32l.33.2a1,1,0,0,0,.21-1.11"/><polygon class="cls-38" points="307.81 145.57 308.06 145.71 308.06 143.93 307.81 143.8 307.81 145.57"/><polygon class="cls-38" points="307.81 145.57 308.06 145.71 308.06 143.93 307.81 143.8 307.81 145.57"/><path class="cls-38" d="M299.76,144.92v-.38l-4.05,7.55a1.06,1.06,0,0,0,.46,1.42,1,1,0,0,0,1.41-.44l3.24-6.12-.29-2Z"/><path class="cls-38" d="M301.89,144.92l-1.07,2,.95,6.86a1.05,1.05,0,0,0,1.17.9,1.08,1.08,0,0,0,.92-1.18l-1.26-8.69-.13.08Z"/><polygon class="cls-38" points="300.53 144.92 300.82 146.95 301.89 144.92 300.53 144.92"/><polygon class="cls-38" points="300.53 144.92 300.82 146.95 301.89 144.92 300.53 144.92"/><path class="cls-38" d="M303.22,136.58v0a1.77,1.77,0,0,0-3.44.61v1.28l-3.51,2.07a1,1,0,0,0,1,1.76l2.5-1.29v2.8h0l0,0v.67l.17-.32,1.31.32,1.34.14,0,.16a1.39,1.39,0,0,0,.74-1.4v-1.23l-.77-1.63Z"/><path class="cls-38" d="M303.23,136.61v0l-.65,4,.77,1.63v-5a1.78,1.78,0,0,0-.11-.61"/><path class="cls-38" d="M303.23,136.61v0l-.65,4,.77,1.63v-5a1.78,1.78,0,0,0-.11-.61"/><polygon class="cls-38" points="299.76 144.54 299.76 144.92 300.53 144.92 300.47 144.45 301.24 144.54 299.94 144.22 299.76 144.54"/><polygon class="cls-38" points="299.76 144.54 299.76 144.92 300.53 144.92 300.47 144.45 301.24 144.54 299.94 144.22 299.76 144.54"/><path class="cls-38" d="M301.24,144.54l.76.18-.11.2h.58l.13-.08,0-.16Z"/><path class="cls-38" d="M301.24,144.54l.76.18-.11.2h.58l.13-.08,0-.16Z"/><polygon class="cls-38" points="300.53 144.92 301.89 144.92 302 144.72 301.24 144.54 300.47 144.45 300.53 144.92"/><polygon class="cls-38" points="300.53 144.92 301.89 144.92 302 144.72 301.24 144.54 300.47 144.45 300.53 144.92"/><polygon class="cls-38" points="300.53 144.92 301.89 144.92 302 144.72 301.24 144.54 300.47 144.45 300.53 144.92"/><polygon class="cls-18" points="166.13 43.6 164.07 51.85 166.76 50.14 166.02 54.2 164.74 53.92 165.57 59.27 169.04 54.45 167.3 54.33 169.53 47.36 166.6 48.74 168.57 43.6 166.13 43.6"/><polygon class="cls-18" points="165.8 100.65 163.74 108.89 166.43 107.18 165.69 111.25 164.4 110.96 165.24 116.32 168.71 111.49 166.97 111.37 169.2 104.41 166.27 105.79 168.23 100.65 165.8 100.65"/><rect class="cls-39" x="420.59" y="132.01" width="25.45" height="25.45"/><path class="cls-40" d="M434.81,133.36a1.93,1.93,0,1,1-2,1.92A1.94,1.94,0,0,1,434.81,133.36Z"/><path class="cls-40" d="M425.46,140.1l1.48,7.62a3.47,3.47,0,0,0,3.21,3.08l4.77,0c1.11,0,1.11-1.15,0-1.21l-4.34,0c-1.53-.08-2.27-.69-2.56-2.39l-1.49-7.38A.55.55,0,1,0,425.46,140.1Z"/><path class="cls-40" d="M431.14,139.34c.23-1.16,1.05-1.81,3.16-1.32l6.88,1.39a1,1,0,0,1-.52,1.93l-5.87-1.2L433,146h3.49a1.51,1.51,0,0,1,1.75,1.31l1.19,7.75a1.12,1.12,0,0,1-2.23.25l-1-6.55-5.8.08c-1.11-.05-1.76-1.41-1.37-2.77Z"/><path class="cls-40" d="M439.76,143.72c-.08.49-.63.42-.59-.09.06-2.32,3.2-2.31,3,.25v11.83a.32.32,0,0,1-.63,0l0-12.3C441.43,142.13,439.68,142.49,439.76,143.72Z"/><rect class="cls-39" x="393.64" y="131.95" width="25.45" height="25.45"/><path class="cls-40" d="M402.45,133.34a1.93,1.93,0,1,1-2,1.93A2,2,0,0,1,402.45,133.34Z"/><path class="cls-40" d="M399.11,140l1.47,7.62a3.49,3.49,0,0,0,3.22,3.09l4.76,0c1.11,0,1.11-1.15,0-1.22l-4.33,0c-1.54-.09-2.28-.69-2.56-2.4l-1.49-7.38C400,139.16,398.93,139.2,399.11,140Z"/><path class="cls-40" d="M401,139.77l1.41,7.25a2.07,2.07,0,0,0,2.49,1.82h5.24l1.11,6.58c.18,1.23,2.45.94,2.24-.32l-1.2-7.68c-.17-.9-.84-1.36-2-1.39l-1.08.07c.83-2.82-.88-5.13-4.24-4.83l-.41-2.26C404.09,137.31,400.63,137.6,401,139.77Z"/><polyline class="cls-41" points="361.69 119.94 361.69 123.94 357.69 123.94"/><line class="cls-42" x1="350.33" y1="123.94" x2="339.28" y2="123.94"/><polyline class="cls-41" points="335.6 123.94 331.6 123.94 331.6 119.94"/><line class="cls-43" x1="331.6" y1="114.26" x2="331.6" y2="105.74"/><line class="cls-44" x1="331.6" y1="102.9" x2="331.6" y2="83.02"/><polyline class="cls-41" points="331.6 80.18 331.6 76.18 335.6 76.18"/><line class="cls-42" x1="342.96" y1="76.18" x2="354.01" y2="76.18"/><polyline class="cls-41" points="357.69 76.18 361.69 76.18 361.69 80.18"/><line class="cls-43" x1="361.7" y1="85.86" x2="361.7" y2="94.38"/><line class="cls-44" x1="361.7" y1="97.22" x2="361.7" y2="117.1"/><line class="cls-45" x1="419.8" y1="128.4" x2="419.8" y2="131.63"/><rect class="cls-39" x="321.67" y="132.02" width="25.51" height="25.51"/><path class="cls-21" d="M340,146.94a1.27,1.27,0,0,1-1.27,1.26h-8.22a1.26,1.26,0,0,1-1.26-1.26V139H340V140a3.45,3.45,0,0,1,3.48,3.16,3.18,3.18,0,0,1-3.16,3.17H340v.63m0-5.7V145h.32a1.9,1.9,0,0,0,0-3.8Z"/><path class="cls-21" d="M342.17,150.73a1.89,1.89,0,0,0,1.89-1.89h-19a1.9,1.9,0,0,0,1.9,1.89Z"/><rect class="cls-39" x="256.3" y="131.95" width="25.51" height="25.51"/><rect class="cls-21" x="259.93" y="143.59" width="13.09" height="8.87" transform="translate(-29.23 74.01) rotate(-15)"/><path class="cls-46" d="M261.09,154.37l-2.45-9.15,13.22-3.54,2.45,9.15Zm-1.71-8.72,2.13,8,12.07-3.23-2.14-8Z"/><rect class="cls-21" x="261.26" y="142.96" width="14.96" height="11.22"/><path class="cls-46" d="M276.53,154.49H261V142.66h15.57Zm-15-.6h14.37V143.26H261.56Z"/><path class="cls-46" d="M274.34,150h-5v-5h5Zm-4.42-.6h3.82v-3.82h-3.82Z"/><rect class="cls-46" x="263.45" y="151.67" width="10.83" height="0.6"/><rect class="cls-46" x="263.46" y="149.46" width="4.76" height="0.45"/><rect class="cls-46" x="263.46" y="147.11" width="4.76" height="0.6"/><rect class="cls-46" x="263.46" y="144.95" width="4.76" height="0.6"/><path class="cls-21" d="M271.44,136.58a4.56,4.56,0,0,1,6.69,5.1l-1.09-.29.72,1.24.39.67.12.21,2.13-1.22-1.26-.34a5.61,5.61,0,0,0-8.23-6.28,5.35,5.35,0,0,0-1.13.86l.55.95A4.47,4.47,0,0,1,271.44,136.58Z"/><path class="cls-47" d="M278.27,143.66h0a.16.16,0,0,1-.09-.07l-1.22-2.13a.12.12,0,0,1,0-.16.14.14,0,0,1,.15-.06l.94.25a4.41,4.41,0,0,0-4.31-5.37,4.47,4.47,0,0,0-2.2.59,4.74,4.74,0,0,0-1.07.87.14.14,0,0,1-.12,0,.15.15,0,0,1-.12-.07l-.55-1a.15.15,0,0,1,0-.18,5.63,5.63,0,0,1,1.16-.88,5.76,5.76,0,0,1,8.49,6.3l1.11.3a.16.16,0,0,1,.11.13.14.14,0,0,1-.08.15l-2.12,1.22A.12.12,0,0,1,278.27,143.66Zm-.91-2,1,1.68,1.68-1-.91-.25a.14.14,0,0,1-.1-.18,5.47,5.47,0,0,0-8-6.11,6.15,6.15,0,0,0-1,.75l.39.68a5.07,5.07,0,0,1,1-.78,4.72,4.72,0,0,1,6.44,1.73,4.63,4.63,0,0,1,.47,3.53.14.14,0,0,1-.07.1.14.14,0,0,1-.11,0Z"/><path class="cls-21" d="M277.65,144.54l-.55-.95a4.56,4.56,0,0,1-7.8-4.19l1.1.3-.73-1.27-.4-.68-.1-.18L267,138.8l1.24.33a5.61,5.61,0,0,0,8.24,6.26A5.67,5.67,0,0,0,277.65,144.54Z"/><path class="cls-47" d="M273.72,146.3h0a5.78,5.78,0,0,1-5-2.89,5.69,5.69,0,0,1-.63-4.17l-1.09-.3a.13.13,0,0,1-.11-.12.15.15,0,0,1,.07-.15l2.13-1.23a.14.14,0,0,1,.2.06l1.21,2.1a.12.12,0,0,1,0,.1.15.15,0,0,1-.15.15h0l-.95-.25a4.34,4.34,0,0,0,.49,3.15,4.42,4.42,0,0,0,7.09.75.13.13,0,0,1,.13-.05.14.14,0,0,1,.11.07l.55,1a.17.17,0,0,1,0,.19,5.8,5.8,0,0,1-1.15.87A5.74,5.74,0,0,1,273.72,146.3Zm-6.29-7.55.89.24a.15.15,0,0,1,.11.18,5.47,5.47,0,0,0,5.29,6.83,5.48,5.48,0,0,0,2.73-.74,5.63,5.63,0,0,0,1-.75l-.39-.67a4.68,4.68,0,0,1-1,.77,4.71,4.71,0,0,1-6.43-1.72,4.66,4.66,0,0,1-.48-3.52.14.14,0,0,1,.07-.1.14.14,0,0,1,.11,0l.75.2-1-1.68Z"/><rect class="cls-37" x="517.13" y="2.74" width="31.11" height="31.15"/><rect class="cls-38" x="531.27" y="31.37" width="16.98" height="2.51"/><rect class="cls-38" x="517.06" y="31.6" width="12.73" height="2.32"/><polygon class="cls-38" points="529.79 2.74 529.79 2.74 517.13 2.74 517.13 3.89 528.18 3.89 528.18 6.64 529.8 6.64 529.8 2.74 529.79 2.74"/><path class="cls-38" d="M532.43,11.34a1.79,1.79,0,1,0-1.78-1.79,1.78,1.78,0,0,0,1.78,1.79"/><path class="cls-38" d="M536.2,19.69a.67.67,0,0,1,.62-.34L534.09,13a1.74,1.74,0,0,1,.11.61v5l.93,1.95a1,1,0,0,0,1.33.53.86.86,0,0,0,.33-.23l-.33-.19a.72.72,0,0,1-.26-1"/><path class="cls-38" d="M540,17.87a1.5,1.5,0,1,0-1.49-1.5,1.5,1.5,0,0,0,1.49,1.5"/><path class="cls-38" d="M538.84,24.38,537,30a.73.73,0,0,0,.47.9.7.7,0,0,0,.89-.47L539.79,26l-.33-1a1.15,1.15,0,0,1-.62-.57"/><path class="cls-38" d="M542.61,30l-1.76-5.34a1.23,1.23,0,0,1-.75.33l-.31,1,1.45,4.48a.71.71,0,0,0,.89.47.73.73,0,0,0,.48-.9"/><path class="cls-38" d="M540,25.05h-.08a1.14,1.14,0,0,1-.45-.1l.33,1,.31-1a.45.45,0,0,1-.11,0"/><path class="cls-38" d="M540,25.05h-.08a1.14,1.14,0,0,1-.45-.1l.33,1,.31-1a.45.45,0,0,1-.11,0"/><path class="cls-38" d="M539.79,24.31l.92-.06.14.44a1.22,1.22,0,0,0,.38-.9V19.5A1.25,1.25,0,0,0,540,18.25h-.08a1.25,1.25,0,0,0-1.24,1.25v.71l.25.13v1.78l-.25-.15v1.82a1.16,1.16,0,0,0,.17.59l0-.13Z"/><path class="cls-38" d="M539.46,25l-.2-.6.53,0-.91-.06,0,.13a1.19,1.19,0,0,0,.62.57"/><path class="cls-38" d="M539.46,25l-.2-.6.53,0-.91-.06,0,.13a1.19,1.19,0,0,0,.62.57"/><path class="cls-38" d="M539.79,24.31l.53,0-.22.67a1.23,1.23,0,0,0,.75-.33l-.14-.44Z"/><path class="cls-38" d="M539.79,24.31l.53,0-.22.67a1.23,1.23,0,0,0,.75-.33l-.14-.44Z"/><path class="cls-38" d="M539.79,24.31l-.53,0,.2.6a1.14,1.14,0,0,0,.45.1H540a.45.45,0,0,0,.11,0l.22-.67Z"/><path class="cls-38" d="M539.79,24.31l-.53,0,.2.6a1.14,1.14,0,0,0,.45.1H540a.45.45,0,0,0,.11,0l.22-.67Z"/><path class="cls-38" d="M539.79,24.31l-.53,0,.2.6a1.14,1.14,0,0,0,.45.1H540a.45.45,0,0,0,.11,0l.22-.67Z"/><path class="cls-38" d="M537.17,19.43a.72.72,0,0,0-.35-.08l.18.4a1,1,0,0,1-.21,1.11L538.67,22V20.21Z"/><path class="cls-38" d="M537,19.75l-.18-.4a.69.69,0,0,0-.62.34.72.72,0,0,0,.26,1l.33.2a1,1,0,0,0,.21-1.12"/><path class="cls-38" d="M537,19.75l-.18-.4a.69.69,0,0,0-.62.34.72.72,0,0,0,.26,1l.33.2a1,1,0,0,0,.21-1.12"/><polygon class="cls-38" points="538.67 21.97 538.92 22.12 538.92 20.34 538.67 20.21 538.67 21.97"/><polygon class="cls-38" points="538.67 21.97 538.92 22.12 538.92 20.34 538.67 20.21 538.67 21.97"/><path class="cls-38" d="M530.62,21.33V21l-4,7.55a1.06,1.06,0,0,0,.45,1.42,1,1,0,0,0,1.41-.45l3.24-6.11-.28-2Z"/><path class="cls-38" d="M532.75,21.33l-1.08,2,1,6.85a1,1,0,0,0,1.17.9,1.07,1.07,0,0,0,.92-1.18l-1.26-8.69-.13.09Z"/><polygon class="cls-38" points="531.39 21.33 531.67 23.36 532.75 21.33 531.39 21.33"/><polygon class="cls-38" points="531.39 21.33 531.67 23.36 532.75 21.33 531.39 21.33"/><path class="cls-38" d="M534.07,13l0,0a1.77,1.77,0,0,0-1.66-1.18,1.79,1.79,0,0,0-1.79,1.79V14.9L527.13,17a1,1,0,0,0-.36,1.4,1,1,0,0,0,1.38.37l2.5-1.29v2.8h0l0,0V21l.17-.33,1.31.32,1.34.15,0,.15a1.37,1.37,0,0,0,.74-1.39V18.61L533.42,17Z"/><path class="cls-38" d="M534.09,13l0,0-.65,4,.78,1.63v-5a1.74,1.74,0,0,0-.11-.61"/><path class="cls-38" d="M534.09,13l0,0-.65,4,.78,1.63v-5a1.74,1.74,0,0,0-.11-.61"/><polygon class="cls-38" points="530.62 20.95 530.62 21.33 531.39 21.33 531.32 20.86 532.1 20.94 530.79 20.62 530.62 20.95"/><polygon class="cls-38" points="530.62 20.95 530.62 21.33 531.39 21.33 531.32 20.86 532.1 20.94 530.79 20.62 530.62 20.95"/><path class="cls-38" d="M532.1,20.94l.76.19-.11.2h.58l.13-.09,0-.15Z"/><path class="cls-38" d="M532.1,20.94l.76.19-.11.2h.58l.13-.09,0-.15Z"/><polygon class="cls-38" points="531.39 21.33 532.75 21.33 532.86 21.13 532.1 20.94 531.32 20.86 531.39 21.33"/><polygon class="cls-38" points="531.39 21.33 532.75 21.33 532.86 21.13 532.1 20.94 531.32 20.86 531.39 21.33"/><polygon class="cls-38" points="531.39 21.33 532.75 21.33 532.86 21.13 532.1 20.94 531.32 20.86 531.39 21.33"/><rect class="cls-37" x="517.28" y="126.33" width="31.11" height="31.15"/><rect class="cls-38" x="531.42" y="154.96" width="16.98" height="2.51"/><rect class="cls-38" x="517.21" y="155.19" width="12.73" height="2.32"/><polygon class="cls-38" points="529.94 126.34 529.94 126.33 517.28 126.33 517.28 127.48 528.33 127.48 528.33 130.23 529.95 130.23 529.95 126.34 529.94 126.34"/><path class="cls-38" d="M532.58,134.93a1.79,1.79,0,1,0-1.78-1.79,1.78,1.78,0,0,0,1.78,1.79"/><path class="cls-38" d="M536.35,143.29a.68.68,0,0,1,.62-.35l-2.73-6.33a1.78,1.78,0,0,1,.11.61v5l.93,1.94a1,1,0,0,0,1.33.54,1.14,1.14,0,0,0,.33-.23l-.33-.2a.71.71,0,0,1-.26-1"/><path class="cls-38" d="M540.14,141.46a1.5,1.5,0,1,0-1.49-1.5,1.5,1.5,0,0,0,1.49,1.5"/><path class="cls-38" d="M539,148l-1.86,5.64a.72.72,0,0,0,.47.9.72.72,0,0,0,.9-.47l1.45-4.47-.34-1A1.27,1.27,0,0,1,539,148"/><path class="cls-38" d="M542.76,153.62,541,148.28a1.19,1.19,0,0,1-.74.34l-.31,1,1.44,4.47a.72.72,0,0,0,.9.47.72.72,0,0,0,.47-.9"/><path class="cls-38" d="M540.14,148.64h-.07a1.39,1.39,0,0,1-.46-.09l.34,1,.31-.95-.12,0"/><path class="cls-38" d="M540.14,148.64h-.07a1.39,1.39,0,0,1-.46-.09l.34,1,.31-.95-.12,0"/><path class="cls-38" d="M540,147.9l.91-.06.14.44a1.22,1.22,0,0,0,.38-.89V143.1a1.25,1.25,0,0,0-1.24-1.25h-.07a1.25,1.25,0,0,0-1.25,1.25v.7l.25.13v1.78l-.25-.14v1.82a1.19,1.19,0,0,0,.17.59l0-.14Z"/><path class="cls-38" d="M539.61,148.55l-.19-.61.53,0-.92-.07,0,.14a1.27,1.27,0,0,0,.62.57"/><path class="cls-38" d="M539.61,148.55l-.19-.61.53,0-.92-.07,0,.14a1.27,1.27,0,0,0,.62.57"/><path class="cls-38" d="M540,147.9l.53,0-.22.68a1.24,1.24,0,0,0,.74-.34l-.14-.44Z"/><path class="cls-38" d="M540,147.9l.53,0-.22.68a1.24,1.24,0,0,0,.74-.34l-.14-.44Z"/><path class="cls-38" d="M540,147.9l-.53,0,.19.61a1.39,1.39,0,0,0,.46.09h.07l.12,0,.22-.68Z"/><path class="cls-38" d="M540,147.9l-.53,0,.19.61a1.39,1.39,0,0,0,.46.09h.07l.12,0,.22-.68Z"/><path class="cls-38" d="M540,147.9l-.53,0,.19.61a1.39,1.39,0,0,0,.46.09h.07l.12,0,.22-.68Z"/><path class="cls-38" d="M537.32,143a.63.63,0,0,0-.35-.09l.18.41a1,1,0,0,1-.21,1.11l1.88,1.11V143.8Z"/><path class="cls-38" d="M537.15,143.35l-.18-.41a.68.68,0,0,0-.62.35.71.71,0,0,0,.26,1l.33.2a1,1,0,0,0,.21-1.11"/><path class="cls-38" d="M537.15,143.35l-.18-.41a.68.68,0,0,0-.62.35.71.71,0,0,0,.26,1l.33.2a1,1,0,0,0,.21-1.11"/><polygon class="cls-38" points="538.82 145.56 539.07 145.71 539.07 143.93 538.82 143.8 538.82 145.56"/><polygon class="cls-38" points="538.82 145.56 539.07 145.71 539.07 143.93 538.82 143.8 538.82 145.56"/><path class="cls-38" d="M530.77,144.92v-.38l-4,7.55a1.05,1.05,0,0,0,.46,1.42,1,1,0,0,0,1.4-.44l3.25-6.12-.29-2Z"/><path class="cls-38" d="M532.9,144.92l-1.07,2,.95,6.86a1.05,1.05,0,0,0,1.17.9,1.08,1.08,0,0,0,.92-1.18l-1.26-8.69-.13.08Z"/><polygon class="cls-38" points="531.54 144.92 531.83 146.95 532.9 144.92 531.54 144.92"/><polygon class="cls-38" points="531.54 144.92 531.83 146.95 532.9 144.92 531.54 144.92"/><path class="cls-38" d="M534.23,136.58v0a1.77,1.77,0,0,0-3.44.61v1.28l-3.51,2.07a1,1,0,0,0,1,1.76l2.5-1.29v2.8h0l0,0v.67l.17-.32,1.31.32,1.34.14,0,.16a1.4,1.4,0,0,0,.74-1.4v-1.23l-.77-1.63Z"/><path class="cls-38" d="M534.24,136.61v0l-.65,4,.77,1.63v-5a1.78,1.78,0,0,0-.11-.61"/><path class="cls-38" d="M534.24,136.61v0l-.65,4,.77,1.63v-5a1.78,1.78,0,0,0-.11-.61"/><polygon class="cls-38" points="530.77 144.54 530.77 144.92 531.54 144.92 531.48 144.45 532.25 144.53 530.94 144.22 530.77 144.54"/><polygon class="cls-38" points="530.77 144.54 530.77 144.92 531.54 144.92 531.48 144.45 532.25 144.53 530.94 144.22 530.77 144.54"/><path class="cls-38" d="M532.25,144.54l.76.18-.11.2h.58l.13-.08,0-.16Z"/><path class="cls-38" d="M532.25,144.54l.76.18-.11.2h.58l.13-.08,0-.16Z"/><polygon class="cls-38" points="531.54 144.92 532.9 144.92 533.01 144.72 532.25 144.54 531.48 144.45 531.54 144.92"/><polygon class="cls-38" points="531.54 144.92 532.9 144.92 533.01 144.72 532.25 144.54 531.48 144.45 531.54 144.92"/><polygon class="cls-38" points="531.54 144.92 532.9 144.92 533.01 144.72 532.25 144.54 531.48 144.45 531.54 144.92"/><polyline class="cls-41" points="488.64 65.14 488.64 69.14 484.64 69.14"/><line class="cls-48" x1="478.19" y1="69.14" x2="468.52" y2="69.14"/><line class="cls-49" x1="465.3" y1="69.14" x2="442.73" y2="69.14"/><polyline class="cls-41" points="439.51 69.14 435.51 69.14 435.51 65.14"/><line class="cls-50" x1="435.51" y1="56.82" x2="435.51" y2="44.35"/><polyline class="cls-41" points="435.51 40.2 435.51 36.2 439.51 36.2"/><line class="cls-48" x1="445.96" y1="36.2" x2="455.63" y2="36.2"/><line class="cls-49" x1="458.85" y1="36.2" x2="481.42" y2="36.2"/><polyline class="cls-41" points="484.64 36.2 488.64 36.2 488.64 40.2"/><line class="cls-50" x1="488.64" y1="48.51" x2="488.64" y2="60.98"/><line class="cls-41" x1="461.95" y1="127.98" x2="457.95" y2="127.98"/><line class="cls-51" x1="450.78" y1="127.98" x2="440.02" y2="127.98"/><line class="cls-52" x1="436.43" y1="127.98" x2="353.92" y2="127.98"/><line class="cls-41" x1="350.34" y1="127.98" x2="346.34" y2="127.98"/><line class="cls-45" x1="346.73" y1="123.66" x2="346.73" y2="128.34"/><line class="cls-41" x1="462.15" y1="68.74" x2="462.15" y2="72.74"/><line class="cls-53" x1="462.15" y1="80.14" x2="462.15" y2="91.22"/><line class="cls-54" x1="462.15" y1="94.92" x2="462.15" y2="120.79"/><line class="cls-41" x1="462.15" y1="124.49" x2="462.15" y2="128.49"/><rect class="cls-55" x="457.35" y="131.99" width="25.51" height="25.51"/><path class="cls-21" d="M476.46,143a3.8,3.8,0,0,0-1.58.34l-1.35-2.37a1.67,1.67,0,0,1-.16-.58c0-.51.49-1.09.49-1.29a.43.43,0,0,0-.43-.43H472a.44.44,0,1,0,0,.87h.6a.13.13,0,0,1,.13.14c0,.2-.18.28-.18.69a1.06,1.06,0,0,0,.1.47.26.26,0,0,1,0,.28l-4.85.91a.25.25,0,0,1-.22-.07s-1.11-1.47-1-1.66,1-.18,1-.18c.17-.07.29-.13.29-.29a.29.29,0,0,0-.29-.29h-2.74a.43.43,0,1,0,0,.86,2.52,2.52,0,0,1,.72-.05,1.4,1.4,0,0,1,.42.78,20.77,20.77,0,0,1-.94,2.07,3.75,3.75,0,1,0,2.5,4.12h.68a1.58,1.58,0,0,0,3.11-.43,1.33,1.33,0,0,0-.05-.4l2.4-3.18c.05,0,.08,0,.16,0a.19.19,0,0,1,.12.08c0,.05.25.44.25.44a3.75,3.75,0,1,0,2.32-.8Zm-12.7,6.64h0a2.89,2.89,0,0,1,0-5.78,3,3,0,0,1,.86.13l-1.14,2.47a.6.6,0,0,0,.57.87h2.54a2.9,2.9,0,0,1-2.83,2.31Zm.88-3.18h0c-.07,0-.17-.07-.14-.15l.88-2a2.83,2.83,0,0,1,1.25,2.1Zm3.51,0h-.65a3.73,3.73,0,0,0-1.75-2.89h0l.59-1.38c0-.08,0-.14.1-.14s.07.06.12.14l2,3.56a1.57,1.57,0,0,0-.43.71Zm1.53,1.15h0a.72.72,0,1,1,.72-.72.72.72,0,0,1-.72.72Zm1.08-1.87h0a1.51,1.51,0,0,0-1.08-.44,1.86,1.86,0,0,0-.34,0s-1.4-2.39-1.43-2.47,0-.12.14-.12l4.86-.91a.44.44,0,0,1,.43.44c0,.24-2.58,3.46-2.58,3.46Zm5.7,3.9h0a2.88,2.88,0,0,1-1.87-5.08l1.49,2.59a.43.43,0,1,0,.78-.38l-1.54-2.67a2.89,2.89,0,1,1,1.14,5.54Z"/><rect class="cls-39" x="486.05" y="131.99" width="25.51" height="25.51"/><path class="cls-21" d="M495.57,150.19a1.5,1.5,0,1,1,1.49,1.49,1.5,1.5,0,0,1-1.49-1.49Zm1.49,2.48h0a2.49,2.49,0,1,0-2.48-2.48A2.48,2.48,0,0,0,497.06,152.67Z"/><path class="cls-21" d="M501,150.19a1.5,1.5,0,1,1,1.5,1.49,1.5,1.5,0,0,1-1.5-1.49Zm1.5,2.48h0a2.49,2.49,0,1,0-2.49-2.48A2.49,2.49,0,0,0,502.54,152.67Z"/><path class="cls-21" d="M494.57,142.23v-1.62a1.61,1.61,0,0,0-1.64-1.62h-1.36s-.23,0-.23.25.23.25.23.25H493a1.19,1.19,0,0,1,1.08,1.12v1.62Z"/><path class="cls-21" d="M505.51,142.23H500.3V137h1a4.36,4.36,0,0,1,4.22,4.23Z"/><path class="cls-21" d="M505.5,142.72H494.08V145a2.16,2.16,0,0,0,2.26,2.24h6.9A2.16,2.16,0,0,0,505.5,145Z"/></g></g></svg>