<svg xmlns="http://www.w3.org/2000/svg" xmlns:xlink="http://www.w3.org/1999/xlink" viewBox="0 0 700 160"><defs><style>.cls-1,.cls-14{fill:#b1b1b0;}.cls-1,.cls-10,.cls-11,.cls-12,.cls-13,.cls-14,.cls-15,.cls-16,.cls-17,.cls-19,.cls-2,.cls-22,.cls-3,.cls-4,.cls-6,.cls-8{stroke:#000;}.cls-1,.cls-10,.cls-11,.cls-12,.cls-13,.cls-14,.cls-15,.cls-16,.cls-17,.cls-19,.cls-2,.cls-22,.cls-26,.cls-27,.cls-28,.cls-29,.cls-3,.cls-30,.cls-31,.cls-32,.cls-33,.cls-34,.cls-35,.cls-4,.cls-6,.cls-8{stroke-miterlimit:10;}.cls-1,.cls-10,.cls-11,.cls-12,.cls-13,.cls-17,.cls-3,.cls-6,.cls-8{stroke-width:0.25px;}.cls-2,.cls-3,.cls-5{fill:#3d3d3c;}.cls-14,.cls-15,.cls-16,.cls-2,.cls-22,.cls-4{stroke-width:0.5px;}.cls-4,.cls-7{fill:#6dc6d9;}.cls-26,.cls-27,.cls-28,.cls-29,.cls-30,.cls-31,.cls-32,.cls-33,.cls-34,.cls-35,.cls-6{fill:none;}.cls-8,.cls-9{fill:#70706f;}.cls-10{fill:url(#linear-gradient);}.cls-11{fill:#585757;}.cls-12{fill:url(#linear-gradient-2);}.cls-13{fill:#3c3c3b;}.cls-15{fill:url(#Fading_Sky_2);}.cls-16{fill:url(#Fading_Sky_2-2);}.cls-17{fill:#6e6c6b;}.cls-18{fill:#000100;}.cls-19,.cls-22,.cls-23{fill:#9d9b9b;}.cls-19{stroke-width:0.75px;}.cls-20{fill:#7b7b7a;}.cls-21,.cls-37{fill:#fff;}.cls-24,.cls-38{fill:#ffd421;}.cls-25{fill:#221e20;}.cls-26,.cls-27,.cls-28,.cls-29,.cls-30,.cls-31,.cls-32,.cls-33,.cls-34,.cls-35{stroke:#e53212;}.cls-27{stroke-dasharray:5.49 5.49;}.cls-28{stroke-dasharray:7.73 7.73;}.cls-29{stroke-dasharray:7.73 7.73 7.73 7.73;}.cls-30{stroke-dasharray:5.7 5.7;}.cls-31{stroke-dasharray:4.17 4.17;}.cls-32{stroke-dasharray:4.17 4.17 4.17 4.17;}.cls-33{stroke-dasharray:1 1;}.cls-34{stroke-dasharray:7.17 7.17;}.cls-35{stroke-dasharray:7.17 7.17 7.17 7.17;}.cls-36{fill:#251a5f;}.cls-37,.cls-38{fill-rule:evenodd;}</style><linearGradient id="linear-gradient" x1="644.75" y1="82.75" x2="644.75" y2="78.71" gradientUnits="userSpaceOnUse"><stop offset="0.1" stop-color="#0c111f"/><stop offset="0.71" stop-color="#07131d" stop-opacity="0.5"/><stop offset="1" stop-color="#6a6968" stop-opacity="0"/></linearGradient><linearGradient id="linear-gradient-2" x1="622.35" y1="81.02" x2="632.27" y2="81.02" gradientUnits="userSpaceOnUse"><stop offset="0" stop-color="#fff"/><stop offset="1"/></linearGradient><linearGradient id="Fading_Sky_2" x1="632.85" y1="44.9" x2="639.85" y2="44.9" gradientUnits="userSpaceOnUse"><stop offset="0" stop-color="#2780c2"/><stop offset="1" stop-color="#2780c2" stop-opacity="0"/></linearGradient><linearGradient id="Fading_Sky_2-2" x1="632.86" y1="-14.56" x2="639.86" y2="-14.56" gradientTransform="matrix(1, 0, 0, -1, 0, 101.98)" xlink:href="#Fading_Sky_2"/></defs><title>Type72_vogn4_BMb72</title><g id="Type72_vogn4_BMb72"><g id="VOGNKASSE"><rect class="cls-1" x="29.79" y="36.69" width="570.33" height="87.75"/><polygon class="cls-2" points="33.48 69.75 36.07 69.75 36.07 40.13 30.57 40.13 30.57 56.91 33.48 56.91 33.48 69.75"/><polygon class="cls-2" points="33.48 92.47 33.48 105.32 30.57 105.32 30.57 121.05 36.07 121.05 36.07 92.47 33.48 92.47"/><rect class="cls-3" x="410.79" y="106.48" width="7.39" height="17.82" rx="0.57" ry="0.57"/><path class="cls-3" d="M371.05,54.88c0,.33-.71.59-1.59.59H351.84c-.88,0-1.59-.26-1.59-.59V37.65c0-.32.71-.58,1.59-.58h17.62c.88,0,1.59.26,1.59.58Z"/><rect class="cls-3" x="410.79" y="37.05" width="7.39" height="17.82" rx="0.57" ry="0.57"/><path class="cls-3" d="M369.47,100.49H352c-.88,0-1.59.34-1.59.76V121h12.49v3.27h6.58c.87,0,1.58-.34,1.58-.76v-22.3C371.05,100.83,370.34,100.49,369.47,100.49Z"/><rect class="cls-4" x="185.97" y="36.64" width="176.59" height="3.56"/><rect class="cls-2" x="247.16" y="36.64" width="3.86" height="3.54"/><rect class="cls-2" x="298.16" y="36.64" width="3.86" height="3.54"/><rect class="cls-4" x="30.12" y="36.64" width="99.43" height="3.56"/><rect class="cls-2" x="75.75" y="36.64" width="3.86" height="3.54"/><rect class="cls-2" x="29.94" y="36.64" width="11.87" height="3.54"/><polygon class="cls-2" points="131.03 38.9 129.61 38.9 129.61 40.19 114.45 40.19 114.45 36.64 129.61 36.64 129.61 36.65 131.03 36.65 131.03 38.9"/><polygon class="cls-2" points="363.67 38.89 363.67 40.19 350.16 40.19 350.16 36.64 363.46 36.64 363.46 36.64 364.92 36.64 364.92 38.89 363.67 38.89"/><rect class="cls-4" x="430.31" y="36.64" width="160.43" height="3.56"/><rect class="cls-2" x="468.18" y="36.64" width="3.86" height="3.54"/><rect class="cls-2" x="506.75" y="36.64" width="66.67" height="3.54"/><polygon class="cls-2" points="416.82 38.9 418.25 38.9 418.25 40.19 433.41 40.19 433.41 36.64 418.25 36.64 418.25 36.65 416.82 36.65 416.82 38.9"/><polygon class="cls-2" points="198.81 40.19 185.08 40.19 185.08 38.89 183.67 38.89 183.67 36.64 185.13 36.64 185.13 36.64 198.81 36.64 198.81 40.19"/><rect class="cls-2" x="589.2" y="36.64" width="8.45" height="3.54"/><rect class="cls-4" x="186.06" y="120.94" width="176.59" height="3.56"/><rect class="cls-2" x="247.25" y="120.95" width="3.86" height="3.54"/><rect class="cls-2" x="298.25" y="120.95" width="3.86" height="3.54"/><rect class="cls-4" x="30.21" y="120.94" width="99.43" height="3.56"/><rect class="cls-2" x="75.84" y="120.95" width="3.86" height="3.54"/><rect class="cls-2" x="30.03" y="120.95" width="11.87" height="3.54"/><polygon class="cls-2" points="131.12 122.25 129.7 122.25 129.7 120.95 114.54 120.95 114.54 124.5 129.7 124.5 129.7 124.49 131.12 124.49 131.12 122.25"/><polygon class="cls-2" points="363.76 122.25 363.76 120.95 350.25 120.95 350.25 124.5 363.55 124.5 363.55 124.5 365 124.5 365 122.25 363.76 122.25"/><rect class="cls-4" x="430.4" y="120.94" width="160.43" height="3.56"/><rect class="cls-2" x="468.27" y="120.95" width="3.86" height="3.54"/><rect class="cls-2" x="506.84" y="120.95" width="66.67" height="3.54"/><polygon class="cls-2" points="416.92 122.25 418.34 122.25 418.34 120.95 433.5 120.95 433.5 124.5 418.34 124.5 418.34 124.49 416.92 124.49 416.92 122.25"/><polygon class="cls-2" points="198.9 120.95 185.17 120.95 185.17 122.25 183.76 122.25 183.76 124.5 185.21 124.5 185.21 124.5 198.9 124.5 198.9 120.95"/><rect class="cls-2" x="589.29" y="120.95" width="8.07" height="3.54"/><rect class="cls-3" x="514.29" y="40.42" width="56.88" height="26.33"/><rect class="cls-3" x="514.29" y="87.61" width="56.88" height="33.02"/><rect class="cls-3" x="513.08" y="40.28" width="1.09" height="26.6"/><rect class="cls-3" x="513.08" y="86.94" width="1.09" height="33.97"/><rect class="cls-5" x="569.69" y="67.02" width="1.64" height="20.46"/><rect class="cls-5" x="513.09" y="67.06" width="1.33" height="20.46"/><rect class="cls-3" x="130.12" y="106.59" width="7.39" height="17.82" rx="0.57" ry="0.57"/><rect class="cls-3" x="177.25" y="106.58" width="7.39" height="17.82" rx="0.57" ry="0.57"/><rect class="cls-3" x="130.12" y="37.17" width="7.39" height="17.82" rx="0.57" ry="0.57"/><rect class="cls-3" x="177.25" y="37.16" width="7.39" height="17.82" rx="0.57" ry="0.57"/><path class="cls-6" d="M171.45,53.06H137.64c.06,3.5,1.39,6.5,3.3,7.93h33c1.91-1.43,3.24-4.43,3.3-7.93h-5.76Z"/><rect class="cls-6" x="137.59" y="45.01" width="39.7" height="7.95"/><path class="cls-6" d="M404.83,53.12H371c.05,3.5,1.38,6.5,3.3,7.93h33c1.91-1.43,3.24-4.43,3.3-7.93h-5.76Z"/><rect class="cls-6" x="370.97" y="45.08" width="39.7" height="7.95"/><path class="cls-6" d="M171.31,108.8H137.5c.06-3.5,1.39-6.51,3.3-7.93h33c1.92,1.42,3.25,4.43,3.3,7.93h-5.75Z"/><rect class="cls-6" x="137.45" y="108.9" width="39.7" height="7.95"/><path class="cls-6" d="M404.69,108.73H370.88c.06-3.51,1.39-6.51,3.3-7.93h33c1.91,1.42,3.24,4.42,3.3,7.93Z"/><rect class="cls-6" x="370.83" y="108.83" width="39.7" height="7.95"/><rect class="cls-3" x="418.51" y="82.73" width="1.13" height="38.08"/><rect class="cls-7" x="418.69" y="83.43" width="0.8" height="8.38"/><rect class="cls-3" x="418.44" y="40.25" width="1.13" height="26.01"/><circle class="cls-3" cx="418.98" cy="66.86" r="0.86"/><rect class="cls-7" x="418.6" y="57.29" width="0.8" height="8.49"/><circle class="cls-3" cx="419.09" cy="82.25" r="0.86"/><rect class="cls-3" x="128.52" y="82.8" width="1.13" height="38.08"/><rect class="cls-7" x="128.7" y="83.5" width="0.8" height="8.38"/><rect class="cls-3" x="128.45" y="40.32" width="1.13" height="26.01"/><path class="cls-3" d="M129.85,66.93a.86.86,0,1,0-.86.86A.86.86,0,0,0,129.85,66.93Z"/><rect class="cls-7" x="128.61" y="57.36" width="0.8" height="8.49"/><circle class="cls-3" cx="129.1" cy="82.32" r="0.86"/><rect class="cls-3" x="185.1" y="40.3" width="1.13" height="38.08"/><rect class="cls-7" x="185.27" y="69.3" width="0.8" height="8.38"/><rect class="cls-3" x="185.03" y="94.86" width="1.13" height="26.01"/><path class="cls-3" d="M186.43,94.25a.86.86,0,1,1-.86-.86A.86.86,0,0,1,186.43,94.25Z"/><rect class="cls-7" x="185.18" y="95.33" width="0.8" height="8.49"/><path class="cls-3" d="M186.54,78.86a.86.86,0,1,1-.86-.86A.86.86,0,0,1,186.54,78.86Z"/><rect class="cls-3" x="349.1" y="40.4" width="1.13" height="38.08"/><rect class="cls-7" x="349.28" y="69.4" width="0.8" height="8.38"/><rect class="cls-3" x="349.03" y="94.95" width="1.13" height="26.01"/><path class="cls-3" d="M350.43,94.35a.86.86,0,1,1-.85-.86A.86.86,0,0,1,350.43,94.35Z"/><rect class="cls-7" x="349.19" y="95.43" width="0.8" height="8.49"/><path class="cls-3" d="M350.54,79a.86.86,0,1,1-.86-.86A.86.86,0,0,1,350.54,79Z"/><rect class="cls-3" x="410.68" y="87.42" width="7.69" height="18.51"/><rect class="cls-8" x="177.13" y="55.27" width="7.69" height="18.51"/><polygon class="cls-9" points="635.81 41.93 597.3 39.92 597.3 77.01 603.6 77.01 603.6 112.26 597.3 112.26 597.3 121.76 636.13 119.5 635.81 41.93"/><rect class="cls-10" x="641.1" y="78.71" width="7.3" height="4.04"/><rect class="cls-11" x="636.5" y="51.01" width="12.38" height="9.5" rx="0.57" ry="0.57"/><rect class="cls-11" x="636.51" y="100.74" width="12.38" height="9.5" rx="0.57" ry="0.57"/><path class="cls-12" d="M629.82,52.38l-7.18-.88a207.85,207.85,0,0,1,1.86,28.55,203.19,203.19,0,0,1-2.15,30.49l7.47-.92A147.07,147.07,0,0,0,632.27,81,147.07,147.07,0,0,0,629.82,52.38Z"/><path class="cls-2" d="M616.89,40.43h0v-.07l-19.63-1.24-.06,1,18.45,1.13v.05h0c2.54,0,4.7,4.11,5.58,9.91l1.09.13h0l.54.06v0C621.92,45,619.6,40.43,616.89,40.43Z"/><polygon class="cls-8" points="608.48 114.63 592.88 112.93 592.92 121.16 608.48 119.88 608.48 114.63"/><polygon class="cls-11" points="608.45 103.62 599.88 103.55 599.88 89.43 608.38 89.43 608.45 103.62"/><polygon class="cls-11" points="608.38 87.6 603.65 76.25 596.56 78.94 599.9 89.41 608.38 89.42 608.38 87.6"/><polygon class="cls-11" points="608.52 105.11 605.95 112.2 592.89 112.2 599.94 103.52 608.48 103.62 608.52 105.11"/><polygon class="cls-11" points="608.51 119.88 614.31 119.46 617.68 106.44 611.05 106.4 608.51 114.6 608.51 119.88"/><rect class="cls-11" x="611.05" y="86.5" width="6.63" height="19.9"/><polygon class="cls-13" points="611.05 106.37 608.55 105.05 608.44 87.69 611.01 86.51 611.05 106.37"/><polygon class="cls-11" points="617.4 84.18 611.11 86.91 606.08 75.28 612.67 72.7 617.4 84.18"/><polygon class="cls-13" points="608.51 114.64 605.98 112.18 608.55 105.09 611.08 106.41 608.51 114.64"/><polygon class="cls-13" points="610.91 86.5 608.44 87.61 603.75 76.2 606.06 75.25 610.91 86.5"/><polygon class="cls-13" points="608.51 114.68 592.92 112.91 592.95 112.25 605.98 112.17 608.51 114.68"/><polygon class="cls-11" points="611.01 86.49 617.37 83.77 617.67 86.71 611.01 86.49"/><polygon class="cls-8" points="612.66 72.7 596.54 78.95 596.36 41.02 612.48 42.27 612.66 72.7"/><path class="cls-14" d="M641.69,80.72h0a132.14,132.14,0,0,0-3.46-31.07h2.39l-.15-.56-1.41-4.78a7.76,7.76,0,0,0-6.92-5.4h0l-34.75-2.13-.14,2.27,19.66,1.24v.07h0c2.72,0,5,4.57,6,11l1.17.15h0l3.47.45,2.38.29a147,147,0,0,1,2.45,28.46h0a147.19,147.19,0,0,1-2.45,28.46l-2.38.29-3.47.44h0l-1.17.15c-.94,6.45-3.26,11-6,11h0v.06l-19.65,1.25.14,2.26,34.74-2.12h0a7.78,7.78,0,0,0,6.92-5.41l1.41-4.78.14-.56h-2.39A132,132,0,0,0,641.69,80.72Z"/><path class="cls-2" d="M616.92,121h0v.06l-19.64,1.25,0-1,18.45-1.13v-.06h0c2.53,0,4.7-4.11,5.57-9.91l1.1-.13h0l.54-.07v0C621.94,116.48,619.63,121,616.92,121Z"/><path class="cls-15" d="M632.85,47.91a47.18,47.18,0,0,1,7,1.32c-.16-2.36-3.16-6.57-7-8.67.08.88.21,1.66.23,2.46A37.28,37.28,0,0,1,632.85,47.91Z"/><path class="cls-16" d="M632.86,113.53a47.08,47.08,0,0,0,7-1.33c-.16,2.37-3.16,6.57-7,8.67.08-.87.21-1.65.23-2.45A37.19,37.19,0,0,0,632.86,113.53Z"/><rect class="cls-11" x="648.4" y="74.4" width="9.93" height="12.56"/><rect class="cls-17" x="658.34" y="74.43" width="3.72" height="12.56"/><path class="cls-18" d="M29.54,51.07l.07,0a.12.12,0,0,0,0-.17L27.7,48.1a.13.13,0,0,0-.21.14l2,2.78A.12.12,0,0,0,29.54,51.07Z"/><path class="cls-18" d="M25.64,51.06a.14.14,0,0,0,.1-.06l2-2.77a.13.13,0,0,0-.21-.15l-1.95,2.78a.13.13,0,0,0,0,.17A.13.13,0,0,0,25.64,51.06Z"/><path class="cls-18" d="M25.62,51.06a.09.09,0,0,0,.07,0,.12.12,0,0,0,0-.17l-1.95-2.78a.13.13,0,0,0-.17,0,.13.13,0,0,0,0,.18L25.52,51A.11.11,0,0,0,25.62,51.06Z"/><path class="cls-18" d="M21.71,51a.16.16,0,0,0,.11,0l1.94-2.78a.12.12,0,0,0,0-.17.12.12,0,0,0-.17,0l-1.95,2.77a.14.14,0,0,0,0,.18Z"/><path class="cls-18" d="M21.75,51a.1.1,0,0,0,.07,0,.12.12,0,0,0,0-.17l-2-2.78a.12.12,0,0,0-.17,0,.12.12,0,0,0,0,.17L21.65,51A.12.12,0,0,0,21.75,51Z"/><path class="cls-18" d="M29.54,58.44a.13.13,0,0,0,.13-.13V50.92a.12.12,0,0,0-.13-.12.12.12,0,0,0-.12.12v7.39A.12.12,0,0,0,29.54,58.44Z"/><path class="cls-18" d="M25.6,58.39a.12.12,0,0,0,.12-.13V50.87a.12.12,0,0,0-.12-.13.13.13,0,0,0-.13.13v7.39A.13.13,0,0,0,25.6,58.39Z"/><path class="cls-18" d="M21.7,58.44a.12.12,0,0,0,.12-.12v-7.4a.12.12,0,0,0-.12-.12.12.12,0,0,0-.13.12v7.4A.13.13,0,0,0,21.7,58.44Z"/><path class="cls-18" d="M19.75,58.46a.12.12,0,0,0,.13-.12V48.15a.13.13,0,0,0-.13-.13.12.12,0,0,0-.12.13V58.34A.12.12,0,0,0,19.75,58.46Z"/><path class="cls-18" d="M27.58,58.46a.12.12,0,0,0,.12-.12V48.13a.12.12,0,0,0-.12-.12.13.13,0,0,0-.13.12V58.34A.12.12,0,0,0,27.58,58.46Z"/><path class="cls-18" d="M23.68,58.44a.13.13,0,0,0,.13-.13V48.13a.12.12,0,0,0-.13-.12.12.12,0,0,0-.12.12V58.31A.12.12,0,0,0,23.68,58.44Z"/><path class="cls-18" d="M19.72,58.46h9.77a.12.12,0,0,0,.12-.12.12.12,0,0,0-.12-.13H19.72a.13.13,0,0,0-.13.13A.12.12,0,0,0,19.72,58.46Z"/><path class="cls-18" d="M27.59,114.42a.14.14,0,0,0,.11-.06l1.94-2.77a.13.13,0,0,0,0-.18.14.14,0,0,0-.17,0l-2,2.78a.13.13,0,0,0,0,.17A.11.11,0,0,0,27.59,114.42Z"/><path class="cls-18" d="M27.58,114.43a.12.12,0,0,0,.08,0,.13.13,0,0,0,0-.17l-2-2.78a.13.13,0,0,0-.21.14l1.95,2.78A.14.14,0,0,0,27.58,114.43Z"/><path class="cls-18" d="M23.67,114.43a.12.12,0,0,0,.1-.05l1.95-2.78a.12.12,0,0,0-.2-.14l-1.95,2.78a.12.12,0,0,0,0,.17A.1.1,0,0,0,23.67,114.43Z"/><path class="cls-18" d="M23.66,114.45l.07,0a.13.13,0,0,0,0-.18l-1.94-2.77a.13.13,0,0,0-.18,0,.13.13,0,0,0,0,.17l1.95,2.78A.12.12,0,0,0,23.66,114.45Z"/><path class="cls-18" d="M19.8,114.46a.1.1,0,0,0,.1,0l2-2.77a.13.13,0,0,0,0-.18.13.13,0,0,0-.17,0l-1.95,2.78a.12.12,0,0,0,0,.17A.1.1,0,0,0,19.8,114.46Z"/><path class="cls-18" d="M29.54,111.67a.13.13,0,0,0,.13-.13v-7.39a.13.13,0,0,0-.13-.13.12.12,0,0,0-.12.13v7.39A.12.12,0,0,0,29.54,111.67Z"/><path class="cls-18" d="M25.6,111.72a.12.12,0,0,0,.12-.13V104.2a.12.12,0,0,0-.12-.12.12.12,0,0,0-.13.12v7.39A.13.13,0,0,0,25.6,111.72Z"/><path class="cls-18" d="M21.7,111.67a.12.12,0,0,0,.12-.13v-7.39a.12.12,0,0,0-.12-.13.13.13,0,0,0-.13.13v7.39A.13.13,0,0,0,21.7,111.67Z"/><path class="cls-18" d="M19.75,114.44a.13.13,0,0,0,.13-.12v-10.2a.12.12,0,0,0-.13-.12.12.12,0,0,0-.12.12v10.2A.12.12,0,0,0,19.75,114.44Z"/><path class="cls-18" d="M27.58,114.45a.12.12,0,0,0,.12-.12V104.12a.12.12,0,0,0-.12-.12.12.12,0,0,0-.13.12v10.21A.12.12,0,0,0,27.58,114.45Z"/><path class="cls-18" d="M23.68,114.45a.12.12,0,0,0,.13-.12V104.15a.13.13,0,0,0-.13-.13.12.12,0,0,0-.12.13v10.18A.12.12,0,0,0,23.68,114.45Z"/><path class="cls-18" d="M19.72,104.25h9.77a.12.12,0,0,0,.12-.13.12.12,0,0,0-.12-.12H19.72a.12.12,0,0,0-.13.12A.13.13,0,0,0,19.72,104.25Z"/><rect class="cls-1" x="19.69" y="58.21" width="10.02" height="45.91"/><rect class="cls-18" x="109.02" y="35.37" width="28.35" height="0.72"/><rect class="cls-18" x="176.76" y="35.34" width="28.35" height="0.72"/><rect class="cls-18" x="342.58" y="35.37" width="28.35" height="0.72"/><rect class="cls-18" x="410.32" y="35.34" width="28.35" height="0.72"/><rect class="cls-18" x="109.18" y="125.22" width="28.35" height="0.72"/><rect class="cls-18" x="176.92" y="125.2" width="28.35" height="0.72"/><rect class="cls-18" x="342.75" y="125.22" width="28.35" height="0.72"/><rect class="cls-18" x="410.49" y="125.2" width="28.35" height="0.72"/></g><g id="SETER_72" data-name="SETER 72"><polygon class="cls-19" points="127.32 103.72 127.32 95.8 125.02 93.49 108.69 93.49 108.69 106.03 125 106.03 127.32 103.72"/><polygon class="cls-20" points="124.91 96.1 124.91 96.1 122.77 93.91 121.17 93.91 123.32 96.1 123.32 96.1 123.32 103.45 123.32 103.45 121.17 105.65 122.77 105.65 124.89 103.48 124.91 103.48 124.91 96.1"/><rect class="cls-21" x="125.07" y="96.71" width="1.87" height="6.13"/><polygon class="cls-19" points="127.32 90.75 127.32 82.83 125.02 80.53 108.69 80.53 108.69 93.06 125 93.06 127.32 90.75"/><polygon class="cls-20" points="124.91 83.13 124.91 83.13 122.77 80.94 121.18 80.94 123.32 83.13 123.32 83.13 123.32 90.48 123.32 90.48 121.18 92.67 122.77 92.67 124.89 90.5 124.91 90.5 124.91 83.13"/><rect class="cls-21" x="125.07" y="83.75" width="1.87" height="6.13"/><polygon class="cls-19" points="127.32 116.81 127.32 108.89 125.02 106.58 108.69 106.58 108.69 119.12 125 119.12 127.32 116.81"/><polygon class="cls-20" points="124.91 109.19 124.91 109.19 122.77 107 121.17 107 123.32 109.19 123.32 109.19 123.32 116.54 123.32 116.54 121.17 118.73 122.77 118.73 124.89 116.57 124.91 116.57 124.91 109.19"/><rect class="cls-21" x="125.07" y="109.81" width="1.87" height="6.13"/><polygon class="cls-19" points="127.32 65.14 127.32 57.22 125.02 54.92 108.69 54.92 108.69 67.46 125 67.46 127.32 65.14"/><polygon class="cls-20" points="124.91 57.52 124.9 57.52 122.76 55.33 121.17 55.33 123.31 57.52 123.32 57.52 123.32 64.88 123.31 64.88 121.17 67.07 122.76 67.07 124.88 64.9 124.91 64.9 124.91 57.52"/><rect class="cls-21" x="125.07" y="58.14" width="1.87" height="6.13"/><polygon class="cls-19" points="127.31 52.16 127.31 44.24 125.01 41.94 108.68 41.94 108.68 54.48 124.99 54.48 127.31 52.16"/><polygon class="cls-20" points="124.9 44.55 124.9 44.55 122.75 42.36 121.17 42.36 123.31 44.55 123.31 44.55 123.31 51.91 123.31 51.91 121.17 54.1 122.75 54.1 124.88 51.93 124.9 51.93 124.9 44.55"/><rect class="cls-21" x="125.06" y="45.16" width="1.87" height="6.13"/><polygon class="cls-19" points="84.9 103.74 84.9 95.82 87.2 93.52 103.53 93.52 103.53 106.06 87.22 106.06 84.9 103.74"/><polygon class="cls-20" points="87.31 96.13 87.31 96.13 89.46 93.94 91.05 93.94 88.91 96.13 88.9 96.13 88.9 103.48 88.91 103.48 91.05 105.67 89.46 105.67 87.34 103.5 87.31 103.5 87.31 96.13"/><rect class="cls-21" x="85.29" y="96.74" width="1.87" height="6.13"/><polygon class="cls-19" points="84.9 90.77 84.9 82.86 87.2 80.55 103.53 80.55 103.53 93.09 87.22 93.09 84.9 90.77"/><polygon class="cls-20" points="87.31 83.16 87.31 83.16 89.45 80.97 91.04 80.97 88.9 83.16 88.9 83.16 88.9 90.51 88.9 90.51 91.04 92.7 89.45 92.7 87.33 90.53 87.31 90.53 87.31 83.16"/><rect class="cls-21" x="85.28" y="83.77" width="1.87" height="6.13"/><polygon class="cls-19" points="84.9 116.83 84.9 108.92 87.2 106.61 103.53 106.61 103.53 119.15 87.22 119.15 84.9 116.83"/><polygon class="cls-20" points="87.31 109.22 87.31 109.22 89.46 107.03 91.05 107.03 88.91 109.22 88.9 109.22 88.9 116.57 88.91 116.57 91.05 118.76 89.46 118.76 87.34 116.59 87.31 116.59 87.31 109.22"/><rect class="cls-21" x="85.29" y="109.83" width="1.87" height="6.13"/><polygon class="cls-19" points="84.9 65.17 84.9 57.25 87.2 54.95 103.53 54.95 103.53 67.49 87.22 67.49 84.9 65.17"/><polygon class="cls-20" points="87.31 57.55 87.32 57.55 89.46 55.36 91.05 55.36 88.91 57.55 88.9 57.55 88.9 64.91 88.91 64.91 91.05 67.1 89.46 67.1 87.34 64.93 87.31 64.93 87.31 57.55"/><rect class="cls-21" x="85.29" y="58.17" width="1.87" height="6.13"/><polygon class="cls-19" points="84.91 52.19 84.91 44.27 87.21 41.97 103.54 41.97 103.54 54.51 87.23 54.51 84.91 52.19"/><polygon class="cls-20" points="87.32 44.58 87.33 44.58 89.47 42.38 91.05 42.38 88.92 44.58 88.91 44.58 88.91 51.93 88.92 51.93 91.05 54.13 89.47 54.13 87.35 51.95 87.32 51.95 87.32 44.58"/><rect class="cls-21" x="85.29" y="45.19" width="1.87" height="6.13"/><polygon class="cls-19" points="60.92 103.72 60.92 95.8 63.22 93.49 79.55 93.49 79.55 106.03 63.24 106.03 60.92 103.72"/><polygon class="cls-20" points="63.33 96.1 63.33 96.1 65.48 93.91 67.06 93.91 64.92 96.1 64.92 96.1 64.92 103.45 64.92 103.45 67.06 105.65 65.48 105.65 63.35 103.48 63.33 103.48 63.33 96.1"/><rect class="cls-21" x="61.31" y="96.71" width="1.87" height="6.13"/><polygon class="cls-19" points="60.92 90.75 60.92 82.83 63.22 80.53 79.55 80.53 79.55 93.06 63.24 93.06 60.92 90.75"/><polygon class="cls-20" points="63.33 83.13 63.33 83.13 65.47 80.94 67.06 80.94 64.92 83.13 64.92 83.13 64.92 90.48 64.92 90.48 67.06 92.67 65.47 92.67 63.35 90.5 63.33 90.5 63.33 83.13"/><rect class="cls-21" x="61.3" y="83.75" width="1.87" height="6.13"/><polygon class="cls-19" points="60.92 116.81 60.92 108.89 63.22 106.58 79.55 106.58 79.55 119.12 63.24 119.12 60.92 116.81"/><polygon class="cls-20" points="63.33 109.19 63.33 109.19 65.48 107 67.06 107 64.92 109.19 64.92 109.19 64.92 116.54 64.92 116.54 67.06 118.73 65.48 118.73 63.35 116.57 63.33 116.57 63.33 109.19"/><rect class="cls-21" x="61.31" y="109.81" width="1.87" height="6.13"/><polygon class="cls-19" points="60.92 65.14 60.92 57.22 63.22 54.92 79.55 54.92 79.55 67.46 63.24 67.46 60.92 65.14"/><polygon class="cls-20" points="63.33 57.52 63.34 57.52 65.48 55.33 67.07 55.33 64.93 57.52 64.92 57.52 64.92 64.88 64.93 64.88 67.07 67.07 65.48 67.07 63.36 64.9 63.33 64.9 63.33 57.52"/><rect class="cls-21" x="61.31" y="58.14" width="1.87" height="6.13"/><polygon class="cls-19" points="60.93 52.16 60.93 44.24 63.23 41.94 79.56 41.94 79.56 54.48 63.25 54.48 60.93 52.16"/><polygon class="cls-20" points="63.34 44.55 63.34 44.55 65.49 42.36 67.07 42.36 64.94 44.55 64.93 44.55 64.93 51.91 64.94 51.91 67.07 54.1 65.49 54.1 63.37 51.93 63.34 51.93 63.34 44.55"/><rect class="cls-21" x="61.31" y="45.16" width="1.87" height="6.13"/><polygon class="cls-19" points="37.59 103.66 37.59 95.74 39.89 93.44 56.22 93.44 56.22 105.97 39.91 105.97 37.59 103.66"/><polygon class="cls-20" points="40 96.04 40 96.04 42.15 93.85 43.73 93.85 41.59 96.04 41.59 96.04 41.59 103.4 41.59 103.4 43.73 105.59 42.15 105.59 40.02 103.42 40 103.42 40 96.04"/><rect class="cls-21" x="37.97" y="96.66" width="1.87" height="6.13"/><polygon class="cls-19" points="37.59 116.75 37.59 108.83 39.89 106.53 56.22 106.53 56.22 119.07 39.91 119.07 37.59 116.75"/><polygon class="cls-20" points="40 109.13 40 109.13 42.15 106.94 43.73 106.94 41.59 109.13 41.59 109.13 41.59 116.49 41.59 116.49 43.73 118.68 42.15 118.68 40.02 116.51 40 116.51 40 109.13"/><rect class="cls-21" x="37.97" y="109.75" width="1.87" height="6.13"/><polygon class="cls-19" points="37.59 65.08 37.59 57.16 39.89 54.86 56.22 54.86 56.22 67.4 39.91 67.4 37.59 65.08"/><polygon class="cls-20" points="40 57.47 40.01 57.47 42.15 55.27 43.74 55.27 41.6 57.47 41.59 57.47 41.59 64.83 41.6 64.83 43.74 67.02 42.15 67.02 40.03 64.85 40 64.85 40 57.47"/><rect class="cls-21" x="37.97" y="58.08" width="1.87" height="6.13"/><polygon class="cls-19" points="37.6 52.11 37.6 44.19 39.9 41.89 56.23 41.89 56.23 54.43 39.92 54.43 37.6 52.11"/><polygon class="cls-20" points="40.01 44.49 40.01 44.49 42.16 42.3 43.74 42.3 41.6 44.49 41.6 44.49 41.6 51.85 41.6 51.85 43.74 54.04 42.16 54.04 40.03 51.87 40.01 51.87 40.01 44.49"/><rect class="cls-21" x="37.98" y="45.11" width="1.87" height="6.13"/><polygon class="cls-19" points="187.35 57.35 187.35 65.27 189.65 67.57 205.97 67.57 205.97 55.03 189.66 55.03 187.35 57.35"/><polygon class="cls-20" points="189.75 64.97 189.76 64.97 191.9 67.16 193.49 67.16 191.35 64.97 191.34 64.97 191.34 57.61 191.35 57.61 193.49 55.42 191.9 55.42 189.78 57.59 189.75 57.59 189.75 64.97"/><rect class="cls-21" x="187.73" y="58.22" width="1.87" height="6.13"/><polygon class="cls-19" points="187.35 70.33 187.35 78.25 189.65 80.55 205.97 80.55 205.97 68.01 189.66 68.01 187.35 70.33"/><polygon class="cls-20" points="189.75 77.94 189.76 77.94 191.9 80.13 193.49 80.13 191.35 77.94 191.34 77.94 191.34 70.59 191.35 70.59 193.49 68.4 191.9 68.4 189.78 70.57 189.75 70.57 189.75 77.94"/><rect class="cls-21" x="187.73" y="71.2" width="1.87" height="6.13"/><polygon class="cls-19" points="187.35 44.26 187.35 52.18 189.65 54.48 205.97 54.48 205.97 41.94 189.66 41.94 187.35 44.26"/><polygon class="cls-20" points="189.75 51.88 189.76 51.88 191.9 54.07 193.49 54.07 191.35 51.88 191.34 51.88 191.34 44.52 191.35 44.52 193.49 42.33 191.9 42.33 189.78 44.5 189.75 44.5 189.75 51.88"/><rect class="cls-21" x="187.73" y="45.13" width="1.87" height="6.13"/><polygon class="cls-19" points="187.35 95.93 187.35 103.85 189.65 106.15 205.97 106.15 205.97 93.61 189.66 93.61 187.35 95.93"/><polygon class="cls-20" points="189.75 103.54 189.76 103.54 191.9 105.73 193.49 105.73 191.35 103.54 191.34 103.54 191.34 96.19 191.35 96.19 193.49 94 191.9 94 189.78 96.17 189.75 96.17 189.75 103.54"/><rect class="cls-21" x="187.73" y="96.8" width="1.87" height="6.13"/><polygon class="cls-19" points="187.36 108.9 187.36 116.82 189.66 119.12 205.98 119.12 205.98 106.58 189.67 106.58 187.36 108.9"/><polygon class="cls-20" points="189.76 116.52 189.77 116.52 191.91 118.71 193.5 118.71 191.36 116.52 191.35 116.52 191.35 109.16 191.36 109.16 193.5 106.97 191.91 106.97 189.79 109.14 189.76 109.14 189.76 116.52"/><rect class="cls-21" x="187.73" y="109.77" width="1.87" height="6.13"/><polygon class="cls-19" points="210.71 57.35 210.71 65.27 213 67.57 229.33 67.57 229.33 55.03 213.02 55.03 210.71 57.35"/><polygon class="cls-20" points="213.11 64.97 213.12 64.97 215.26 67.16 216.85 67.16 214.71 64.97 214.7 64.97 214.7 57.61 214.71 57.61 216.85 55.42 215.26 55.42 213.14 57.59 213.11 57.59 213.11 64.97"/><rect class="cls-21" x="211.09" y="58.22" width="1.87" height="6.13"/><polygon class="cls-19" points="210.71 70.33 210.71 78.25 213 80.55 229.33 80.55 229.33 68.01 213.02 68.01 210.71 70.33"/><polygon class="cls-20" points="213.11 77.94 213.12 77.94 215.26 80.13 216.84 80.13 214.71 77.94 214.7 77.94 214.7 70.59 214.71 70.59 216.84 68.4 215.26 68.4 213.13 70.57 213.11 70.57 213.11 77.94"/><rect class="cls-21" x="211.09" y="71.2" width="1.87" height="6.13"/><polygon class="cls-19" points="210.71 44.26 210.71 52.18 213 54.48 229.33 54.48 229.33 41.94 213.02 41.94 210.71 44.26"/><polygon class="cls-20" points="213.11 51.88 213.12 51.88 215.26 54.07 216.85 54.07 214.71 51.88 214.7 51.88 214.7 44.52 214.71 44.52 216.85 42.33 215.26 42.33 213.14 44.5 213.11 44.5 213.11 51.88"/><rect class="cls-21" x="211.09" y="45.13" width="1.87" height="6.13"/><polygon class="cls-19" points="210.71 95.93 210.71 103.85 213 106.15 229.33 106.15 229.33 93.61 213.02 93.61 210.71 95.93"/><polygon class="cls-20" points="213.11 103.54 213.12 103.54 215.26 105.73 216.85 105.73 214.71 103.54 214.7 103.54 214.7 96.19 214.71 96.19 216.85 94 215.26 94 213.14 96.17 213.11 96.17 213.11 103.54"/><rect class="cls-21" x="211.09" y="96.8" width="1.87" height="6.13"/><polygon class="cls-19" points="210.71 108.9 210.71 116.82 213.01 119.12 229.34 119.12 229.34 106.58 213.03 106.58 210.71 108.9"/><polygon class="cls-20" points="213.12 116.52 213.13 116.52 215.27 118.71 216.86 118.71 214.72 116.52 214.71 116.52 214.71 109.16 214.72 109.16 216.86 106.97 215.27 106.97 213.15 109.14 213.12 109.14 213.12 116.52"/><rect class="cls-21" x="211.09" y="109.77" width="1.87" height="6.13"/><polygon class="cls-19" points="234.31 57.35 234.31 65.27 236.61 67.57 252.94 67.57 252.94 55.03 236.63 55.03 234.31 57.35"/><polygon class="cls-20" points="236.72 64.97 236.72 64.97 238.87 67.16 240.46 67.16 238.31 64.97 238.31 64.97 238.31 57.61 238.31 57.61 240.46 55.42 238.87 55.42 236.75 57.59 236.72 57.59 236.72 64.97"/><rect class="cls-21" x="234.7" y="58.22" width="1.87" height="6.13"/><polygon class="cls-19" points="234.31 70.33 234.31 78.25 236.61 80.55 252.94 80.55 252.94 68.01 236.63 68.01 234.31 70.33"/><polygon class="cls-20" points="236.72 77.94 236.72 77.94 238.87 80.13 240.45 80.13 238.31 77.94 238.31 77.94 238.31 70.59 238.31 70.59 240.45 68.4 238.87 68.4 236.74 70.57 236.72 70.57 236.72 77.94"/><rect class="cls-21" x="234.69" y="71.2" width="1.87" height="6.13"/><polygon class="cls-19" points="234.31 44.26 234.31 52.18 236.61 54.48 252.94 54.48 252.94 41.94 236.63 41.94 234.31 44.26"/><polygon class="cls-20" points="236.72 51.88 236.72 51.88 238.87 54.07 240.46 54.07 238.31 51.88 238.31 51.88 238.31 44.52 238.31 44.52 240.46 42.33 238.87 42.33 236.75 44.5 236.72 44.5 236.72 51.88"/><rect class="cls-21" x="234.7" y="45.13" width="1.87" height="6.13"/><polygon class="cls-19" points="234.31 95.93 234.31 103.85 236.61 106.15 252.94 106.15 252.94 93.61 236.63 93.61 234.31 95.93"/><polygon class="cls-20" points="236.72 103.54 236.73 103.54 238.87 105.73 240.46 105.73 238.32 103.54 238.31 103.54 238.31 96.19 238.32 96.19 240.46 94 238.87 94 236.75 96.17 236.72 96.17 236.72 103.54"/><rect class="cls-21" x="234.7" y="96.8" width="1.87" height="6.13"/><polygon class="cls-19" points="234.32 108.9 234.32 116.82 236.62 119.12 252.95 119.12 252.95 106.58 236.64 106.58 234.32 108.9"/><polygon class="cls-20" points="236.73 116.52 236.74 116.52 238.88 118.71 240.46 118.71 238.32 116.52 238.32 116.52 238.32 109.16 238.32 109.16 240.46 106.97 238.88 106.97 236.75 109.14 236.73 109.14 236.73 116.52"/><rect class="cls-21" x="234.7" y="109.77" width="1.87" height="6.13"/><polygon class="cls-19" points="257.33 57.35 257.33 65.27 259.63 67.57 275.96 67.57 275.96 55.03 259.64 55.03 257.33 57.35"/><polygon class="cls-20" points="259.73 64.97 259.74 64.97 261.88 67.16 263.47 67.16 261.33 64.97 261.32 64.97 261.32 57.61 261.33 57.61 263.47 55.42 261.88 55.42 259.76 57.59 259.73 57.59 259.73 64.97"/><rect class="cls-21" x="257.71" y="58.22" width="1.87" height="6.13"/><polygon class="cls-19" points="257.33 70.33 257.33 78.25 259.63 80.55 275.96 80.55 275.96 68.01 259.64 68.01 257.33 70.33"/><polygon class="cls-20" points="259.73 77.94 259.74 77.94 261.88 80.13 263.47 80.13 261.33 77.94 261.32 77.94 261.32 70.59 261.33 70.59 263.47 68.4 261.88 68.4 259.76 70.57 259.73 70.57 259.73 77.94"/><rect class="cls-21" x="257.71" y="71.2" width="1.87" height="6.13"/><polygon class="cls-19" points="257.33 44.26 257.33 52.18 259.63 54.48 275.96 54.48 275.96 41.94 259.64 41.94 257.33 44.26"/><polygon class="cls-20" points="259.73 51.88 259.74 51.88 261.88 54.07 263.47 54.07 261.33 51.88 261.32 51.88 261.32 44.52 261.33 44.52 263.47 42.33 261.88 42.33 259.76 44.5 259.73 44.5 259.73 51.88"/><rect class="cls-21" x="257.71" y="45.13" width="1.87" height="6.13"/><polygon class="cls-19" points="257.33 95.93 257.33 103.85 259.63 106.15 275.96 106.15 275.96 93.61 259.64 93.61 257.33 95.93"/><polygon class="cls-20" points="259.74 103.54 259.74 103.54 261.88 105.73 263.47 105.73 261.33 103.54 261.33 103.54 261.33 96.19 261.33 96.19 263.47 94 261.88 94 259.76 96.17 259.74 96.17 259.74 103.54"/><rect class="cls-21" x="257.71" y="96.8" width="1.87" height="6.13"/><polygon class="cls-19" points="257.34 108.9 257.34 116.82 259.64 119.12 275.97 119.12 275.97 106.58 259.65 106.58 257.34 108.9"/><polygon class="cls-20" points="259.74 116.52 259.75 116.52 261.89 118.71 263.48 118.71 261.34 116.52 261.33 116.52 261.33 109.16 261.34 109.16 263.48 106.97 261.89 106.97 259.77 109.14 259.74 109.14 259.74 116.52"/><rect class="cls-21" x="257.72" y="109.77" width="1.87" height="6.13"/><polygon class="cls-19" points="301.4 57.35 301.4 65.27 299.11 67.57 282.78 67.57 282.78 55.03 299.09 55.03 301.4 57.35"/><polygon class="cls-20" points="299 64.97 298.99 64.97 296.85 67.16 295.26 67.16 297.4 64.97 297.41 64.97 297.41 57.61 297.4 57.61 295.26 55.42 296.85 55.42 298.97 57.59 299 57.59 299 64.97"/><rect class="cls-21" x="299.16" y="58.22" width="1.87" height="6.13"/><polygon class="cls-19" points="301.4 70.33 301.4 78.25 299.11 80.55 282.78 80.55 282.78 68.01 299.09 68.01 301.4 70.33"/><polygon class="cls-20" points="299 77.94 299 77.94 296.85 80.13 295.26 80.13 297.4 77.94 297.41 77.94 297.41 70.59 297.4 70.59 295.26 68.4 296.85 68.4 298.98 70.57 299 70.57 299 77.94"/><rect class="cls-21" x="299.16" y="71.2" width="1.87" height="6.13"/><polygon class="cls-19" points="301.4 44.26 301.4 52.18 299.11 54.48 282.78 54.48 282.78 41.94 299.09 41.94 301.4 44.26"/><polygon class="cls-20" points="299 51.88 298.99 51.88 296.85 54.07 295.26 54.07 297.4 51.88 297.41 51.88 297.41 44.52 297.4 44.52 295.26 42.33 296.85 42.33 298.97 44.5 299 44.5 299 51.88"/><rect class="cls-21" x="299.16" y="45.13" width="1.87" height="6.13"/><polygon class="cls-19" points="301.4 95.93 301.4 103.85 299.11 106.15 282.78 106.15 282.78 93.61 299.09 93.61 301.4 95.93"/><polygon class="cls-20" points="299 103.54 298.99 103.54 296.85 105.73 295.26 105.73 297.4 103.54 297.41 103.54 297.41 96.19 297.4 96.19 295.26 94 296.85 94 298.97 96.17 299 96.17 299 103.54"/><rect class="cls-21" x="299.16" y="96.8" width="1.87" height="6.13"/><polygon class="cls-19" points="301.39 108.9 301.39 116.82 299.1 119.12 282.77 119.12 282.77 106.58 299.08 106.58 301.39 108.9"/><polygon class="cls-20" points="298.99 116.52 298.98 116.52 296.84 118.71 295.25 118.71 297.39 116.52 297.4 116.52 297.4 109.16 297.39 109.16 295.25 106.97 296.84 106.97 298.96 109.14 298.99 109.14 298.99 116.52"/><rect class="cls-21" x="299.15" y="109.77" width="1.87" height="6.13"/><polygon class="cls-19" points="325.06 57.35 325.06 65.27 322.77 67.57 306.44 67.57 306.44 55.03 322.75 55.03 325.06 57.35"/><polygon class="cls-20" points="322.66 64.97 322.65 64.97 320.51 67.16 318.92 67.16 321.06 64.97 321.07 64.97 321.07 57.61 321.06 57.61 318.92 55.42 320.51 55.42 322.63 57.59 322.66 57.59 322.66 64.97"/><rect class="cls-21" x="322.82" y="58.22" width="1.87" height="6.13"/><polygon class="cls-19" points="325.06 70.33 325.06 78.25 322.77 80.55 306.44 80.55 306.44 68.01 322.75 68.01 325.06 70.33"/><polygon class="cls-20" points="322.66 77.94 322.65 77.94 320.51 80.13 318.93 80.13 321.06 77.94 321.07 77.94 321.07 70.59 321.06 70.59 318.93 68.4 320.51 68.4 322.64 70.57 322.66 70.57 322.66 77.94"/><rect class="cls-21" x="322.82" y="71.2" width="1.87" height="6.13"/><polygon class="cls-19" points="325.06 44.26 325.06 52.18 322.77 54.48 306.44 54.48 306.44 41.94 322.75 41.94 325.06 44.26"/><polygon class="cls-20" points="322.66 51.88 322.65 51.88 320.51 54.07 318.92 54.07 321.06 51.88 321.07 51.88 321.07 44.52 321.06 44.52 318.92 42.33 320.51 42.33 322.63 44.5 322.66 44.5 322.66 51.88"/><rect class="cls-21" x="322.82" y="45.13" width="1.87" height="6.13"/><polygon class="cls-19" points="325.06 95.93 325.06 103.85 322.77 106.15 306.44 106.15 306.44 93.61 322.75 93.61 325.06 95.93"/><polygon class="cls-20" points="322.66 103.54 322.65 103.54 320.51 105.73 318.92 105.73 321.06 103.54 321.07 103.54 321.07 96.19 321.06 96.19 318.92 94 320.51 94 322.63 96.17 322.66 96.17 322.66 103.54"/><rect class="cls-21" x="322.82" y="96.8" width="1.87" height="6.13"/><polygon class="cls-19" points="325.06 108.9 325.06 116.82 322.76 119.12 306.43 119.12 306.43 106.58 322.74 106.58 325.06 108.9"/><polygon class="cls-20" points="322.65 116.52 322.64 116.52 320.5 118.71 318.92 118.71 321.05 116.52 321.06 116.52 321.06 109.16 321.05 109.16 318.92 106.97 320.5 106.97 322.62 109.14 322.65 109.14 322.65 116.52"/><rect class="cls-21" x="322.81" y="109.77" width="1.87" height="6.13"/><polygon class="cls-19" points="348.52 57.35 348.52 65.27 346.22 67.57 329.89 67.57 329.89 55.03 346.21 55.03 348.52 57.35"/><polygon class="cls-20" points="346.12 64.97 346.11 64.97 343.97 67.16 342.38 67.16 344.52 64.97 344.53 64.97 344.53 57.61 344.52 57.61 342.38 55.42 343.97 55.42 346.09 57.59 346.12 57.59 346.12 64.97"/><rect class="cls-21" x="346.27" y="58.22" width="1.87" height="6.13"/><polygon class="cls-19" points="348.52 70.33 348.52 78.25 346.22 80.55 329.89 80.55 329.89 68.01 346.21 68.01 348.52 70.33"/><polygon class="cls-20" points="346.12 77.94 346.11 77.94 343.97 80.13 342.38 80.13 344.52 77.94 344.53 77.94 344.53 70.59 344.52 70.59 342.38 68.4 343.97 68.4 346.09 70.57 346.12 70.57 346.12 77.94"/><rect class="cls-21" x="346.28" y="71.2" width="1.87" height="6.13"/><polygon class="cls-19" points="348.52 44.26 348.52 52.18 346.22 54.48 329.89 54.48 329.89 41.94 346.21 41.94 348.52 44.26"/><polygon class="cls-20" points="346.12 51.88 346.11 51.88 343.97 54.07 342.38 54.07 344.52 51.88 344.53 51.88 344.53 44.52 344.52 44.52 342.38 42.33 343.97 42.33 346.09 44.5 346.12 44.5 346.12 51.88"/><rect class="cls-21" x="346.27" y="45.13" width="1.87" height="6.13"/><polygon class="cls-19" points="348.52 95.93 348.52 103.85 346.22 106.15 329.89 106.15 329.89 93.61 346.2 93.61 348.52 95.93"/><polygon class="cls-20" points="346.11 103.54 346.11 103.54 343.97 105.73 342.38 105.73 344.52 103.54 344.52 103.54 344.52 96.19 344.52 96.19 342.38 94 343.97 94 346.09 96.17 346.11 96.17 346.11 103.54"/><rect class="cls-21" x="346.27" y="96.8" width="1.87" height="6.13"/><polygon class="cls-19" points="348.51 108.9 348.51 116.82 346.21 119.12 329.89 119.12 329.89 106.58 346.2 106.58 348.51 108.9"/><polygon class="cls-20" points="346.11 116.52 346.1 116.52 343.96 118.71 342.37 118.71 344.51 116.52 344.52 116.52 344.52 109.16 344.51 109.16 342.37 106.97 343.96 106.97 346.08 109.14 346.11 109.14 346.11 116.52"/><rect class="cls-21" x="346.26" y="109.77" width="1.87" height="6.13"/><polygon class="cls-19" points="421.41 103.72 421.41 95.8 423.71 93.49 440.04 93.49 440.04 106.03 423.72 106.03 421.41 103.72"/><polygon class="cls-20" points="423.81 96.1 423.82 96.1 425.96 93.91 427.55 93.91 425.41 96.1 425.4 96.1 425.4 103.45 425.41 103.45 427.55 105.65 425.96 105.65 423.84 103.48 423.81 103.48 423.81 96.1"/><rect class="cls-21" x="421.79" y="96.71" width="1.87" height="6.13"/><polygon class="cls-19" points="421.41 90.75 421.41 82.83 423.71 80.53 440.03 80.53 440.03 93.06 423.72 93.06 421.41 90.75"/><polygon class="cls-20" points="423.81 83.13 423.82 83.13 425.96 80.94 427.55 80.94 425.41 83.13 425.4 83.13 425.4 90.48 425.41 90.48 427.55 92.67 425.96 92.67 423.84 90.5 423.81 90.5 423.81 83.13"/><rect class="cls-21" x="421.79" y="83.75" width="1.87" height="6.13"/><polygon class="cls-19" points="421.41 116.81 421.41 108.89 423.71 106.58 440.03 106.58 440.03 119.12 423.72 119.12 421.41 116.81"/><polygon class="cls-20" points="423.81 109.19 423.82 109.19 425.96 107 427.55 107 425.41 109.19 425.4 109.19 425.4 116.54 425.41 116.54 427.55 118.73 425.96 118.73 423.84 116.57 423.81 116.57 423.81 109.19"/><rect class="cls-21" x="421.79" y="109.81" width="1.87" height="6.13"/><polygon class="cls-19" points="421.41 65.14 421.41 57.22 423.71 54.92 440.03 54.92 440.03 67.46 423.73 67.46 421.41 65.14"/><polygon class="cls-20" points="423.81 57.52 423.82 57.52 425.96 55.33 427.55 55.33 425.41 57.52 425.4 57.52 425.4 64.88 425.41 64.88 427.55 67.07 425.96 67.07 423.84 64.9 423.81 64.9 423.81 57.52"/><rect class="cls-21" x="421.79" y="58.14" width="1.87" height="6.13"/><polygon class="cls-19" points="421.42 52.16 421.42 44.24 423.72 41.94 440.04 41.94 440.04 54.48 423.73 54.48 421.42 52.16"/><polygon class="cls-20" points="423.82 44.55 423.83 44.55 425.97 42.36 427.56 42.36 425.42 44.55 425.41 44.55 425.41 51.91 425.42 51.91 427.56 54.1 425.97 54.1 423.85 51.93 423.82 51.93 423.82 44.55"/><rect class="cls-21" x="421.8" y="45.16" width="1.87" height="6.13"/><polygon class="cls-19" points="465.84 103.72 465.84 95.8 463.54 93.49 447.21 93.49 447.21 106.03 463.52 106.03 465.84 103.72"/><polygon class="cls-20" points="463.43 96.1 463.43 96.1 461.29 93.91 459.7 93.91 461.84 96.1 461.85 96.1 461.85 103.45 461.84 103.45 459.7 105.65 461.29 105.65 463.41 103.48 463.43 103.48 463.43 96.1"/><rect class="cls-21" x="463.59" y="96.71" width="1.87" height="6.13"/><polygon class="cls-19" points="465.84 90.75 465.84 82.83 463.54 80.53 447.21 80.53 447.21 93.06 463.53 93.06 465.84 90.75"/><polygon class="cls-20" points="463.43 83.13 463.43 83.13 461.29 80.94 459.7 80.94 461.84 83.13 461.85 83.13 461.85 90.48 461.84 90.48 459.7 92.67 461.29 92.67 463.41 90.5 463.43 90.5 463.43 83.13"/><rect class="cls-21" x="463.59" y="83.75" width="1.87" height="6.13"/><polygon class="cls-19" points="465.84 116.81 465.84 108.89 463.54 106.58 447.21 106.58 447.21 119.12 463.52 119.12 465.84 116.81"/><polygon class="cls-20" points="463.43 109.19 463.43 109.19 461.29 107 459.7 107 461.84 109.19 461.85 109.19 461.85 116.54 461.84 116.54 459.7 118.73 461.29 118.73 463.41 116.57 463.43 116.57 463.43 109.19"/><rect class="cls-21" x="463.59" y="109.81" width="1.87" height="6.13"/><polygon class="cls-19" points="465.84 65.14 465.84 57.22 463.54 54.92 447.21 54.92 447.21 67.46 463.52 67.46 465.84 65.14"/><polygon class="cls-20" points="463.43 57.52 463.43 57.52 461.29 55.33 459.7 55.33 461.84 57.52 461.84 57.52 461.84 64.88 461.84 64.88 459.7 67.07 461.29 67.07 463.41 64.9 463.43 64.9 463.43 57.52"/><rect class="cls-21" x="463.59" y="58.14" width="1.87" height="6.13"/><polygon class="cls-19" points="465.83 52.16 465.83 44.24 463.53 41.94 447.2 41.94 447.2 54.48 463.51 54.48 465.83 52.16"/><polygon class="cls-20" points="463.43 44.55 463.42 44.55 461.28 42.36 459.69 42.36 461.83 44.55 461.83 44.55 461.83 51.91 461.83 51.91 459.69 54.1 461.28 54.1 463.4 51.93 463.43 51.93 463.43 44.55"/><rect class="cls-21" x="463.58" y="45.16" width="1.87" height="6.13"/><polygon class="cls-19" points="488.64 103.72 488.64 95.8 486.35 93.49 470.01 93.49 470.01 106.03 486.33 106.03 488.64 103.72"/><polygon class="cls-20" points="486.24 96.1 486.23 96.1 484.09 93.91 482.5 93.91 484.64 96.1 484.65 96.1 484.65 103.45 484.64 103.45 482.5 105.65 484.09 105.65 486.21 103.48 486.24 103.48 486.24 96.1"/><rect class="cls-21" x="486.4" y="96.71" width="1.87" height="6.13"/><polygon class="cls-19" points="488.64 90.75 488.64 82.83 486.35 80.53 470.02 80.53 470.02 93.06 486.33 93.06 488.64 90.75"/><polygon class="cls-20" points="486.24 83.13 486.23 83.13 484.09 80.94 482.5 80.94 484.64 83.13 484.65 83.13 484.65 90.48 484.64 90.48 482.5 92.67 484.09 92.67 486.21 90.5 486.24 90.5 486.24 83.13"/><rect class="cls-21" x="486.4" y="83.75" width="1.87" height="6.13"/><polygon class="cls-19" points="488.64 116.81 488.64 108.89 486.35 106.58 470.02 106.58 470.02 119.12 486.33 119.12 488.64 116.81"/><polygon class="cls-20" points="486.24 109.19 486.23 109.19 484.09 107 482.5 107 484.64 109.19 484.65 109.19 484.65 116.54 484.64 116.54 482.5 118.73 484.09 118.73 486.21 116.57 486.24 116.57 486.24 109.19"/><rect class="cls-21" x="486.4" y="109.81" width="1.87" height="6.13"/><polygon class="cls-19" points="488.64 65.14 488.64 57.22 486.35 54.92 470.02 54.92 470.02 67.46 486.32 67.46 488.64 65.14"/><polygon class="cls-20" points="486.24 57.52 486.23 57.52 484.09 55.33 482.5 55.33 484.64 57.52 484.64 57.52 484.64 64.88 484.64 64.88 482.5 67.07 484.09 67.07 486.21 64.9 486.24 64.9 486.24 57.52"/><rect class="cls-21" x="486.39" y="58.14" width="1.87" height="6.13"/><polygon class="cls-19" points="488.63 52.16 488.63 44.24 486.33 41.94 470.01 41.94 470.01 54.48 486.32 54.48 488.63 52.16"/><polygon class="cls-20" points="486.23 44.55 486.22 44.55 484.08 42.36 482.49 42.36 484.63 44.55 484.64 44.55 484.64 51.91 484.63 51.91 482.49 54.1 484.08 54.1 486.2 51.93 486.23 51.93 486.23 44.55"/><rect class="cls-21" x="486.39" y="45.16" width="1.87" height="6.13"/><polygon class="cls-19" points="512.03 103.72 512.03 95.8 509.73 93.49 493.4 93.49 493.4 106.03 509.71 106.03 512.03 103.72"/><polygon class="cls-20" points="509.62 96.1 509.62 96.1 507.48 93.91 505.89 93.91 508.03 96.1 508.03 96.1 508.03 103.45 508.03 103.45 505.89 105.65 507.48 105.65 509.6 103.48 509.62 103.48 509.62 96.1"/><rect class="cls-21" x="509.78" y="96.71" width="1.87" height="6.13"/><polygon class="cls-19" points="512.03 90.75 512.03 82.83 509.73 80.53 493.4 80.53 493.4 93.06 509.71 93.06 512.03 90.75"/><polygon class="cls-20" points="509.62 83.13 509.62 83.13 507.48 80.94 505.89 80.94 508.03 83.13 508.03 83.13 508.03 90.48 508.03 90.48 505.89 92.67 507.48 92.67 509.6 90.5 509.62 90.5 509.62 83.13"/><rect class="cls-21" x="509.78" y="83.75" width="1.87" height="6.13"/><polygon class="cls-19" points="512.03 116.81 512.03 108.89 509.73 106.58 493.4 106.58 493.4 119.12 509.71 119.12 512.03 116.81"/><polygon class="cls-20" points="509.62 109.19 509.62 109.19 507.48 107 505.89 107 508.03 109.19 508.03 109.19 508.03 116.54 508.03 116.54 505.89 118.73 507.48 118.73 509.6 116.57 509.62 116.57 509.62 109.19"/><rect class="cls-21" x="509.78" y="109.81" width="1.87" height="6.13"/><polygon class="cls-19" points="512.03 65.14 512.03 57.22 509.73 54.92 493.4 54.92 493.4 67.46 509.71 67.46 512.03 65.14"/><polygon class="cls-20" points="509.62 57.52 509.61 57.52 507.47 55.33 505.88 55.33 508.02 57.52 508.03 57.52 508.03 64.88 508.02 64.88 505.88 67.07 507.47 67.07 509.6 64.9 509.62 64.9 509.62 57.52"/><rect class="cls-21" x="509.78" y="58.14" width="1.87" height="6.13"/><polygon class="cls-19" points="512.02 52.16 512.02 44.24 509.72 41.94 493.39 41.94 493.39 54.48 509.7 54.48 512.02 52.16"/><polygon class="cls-20" points="509.61 44.55 509.61 44.55 507.47 42.36 505.88 42.36 508.02 44.55 508.02 44.55 508.02 51.91 508.02 51.91 505.88 54.1 507.47 54.1 509.59 51.93 509.61 51.93 509.61 44.55"/><rect class="cls-21" x="509.77" y="45.16" width="1.87" height="6.13"/><path class="cls-22" d="M350.35,55.54H360c1.22,0,2.23.66,2.23,1.48V76.74c0,.81-1,1.48-2.23,1.48h-9.62Z"/><path class="cls-22" d="M351.82,67.19a.86.86,0,0,0-.91.8v9a.86.86,0,0,0,.91.8h10.23a.86.86,0,0,0,.9-.8V68a.86.86,0,0,0-.9-.8Z"/><path class="cls-22" d="M351.83,55.76a.85.85,0,0,0-.9.8v9a.85.85,0,0,0,.9.8h10.23a.86.86,0,0,0,.9-.8v-9a.86.86,0,0,0-.9-.8Z"/><rect class="cls-20" x="352.26" y="56.07" width="1.36" height="9.99"/><rect class="cls-20" x="352.25" y="67.48" width="1.36" height="9.99"/><polygon class="cls-19" points="579.64 100.53 579.64 92.11 582.09 89.67 599.44 89.67 599.44 102.99 582.11 102.99 579.64 100.53"/><polygon class="cls-20" points="582.2 92.43 582.21 92.43 584.49 90.1 586.17 90.1 583.9 92.43 583.89 92.43 583.89 100.25 583.9 100.25 586.17 102.58 584.49 102.58 582.23 100.27 582.2 100.27 582.2 92.43"/><rect class="cls-21" x="580.05" y="93.09" width="1.98" height="6.52"/><polygon class="cls-23" points="576.35 65.45 576.35 57.04 578.8 54.59 596.15 54.59 596.15 67.92 578.82 67.92 576.35 65.45"/><polygon class="cls-20" points="578.91 57.36 578.92 57.36 581.19 55.03 582.88 55.03 580.61 57.36 580.6 57.36 580.6 65.18 580.61 65.18 582.88 67.51 581.19 67.51 578.94 65.2 578.91 65.2 578.91 57.36"/><rect class="cls-21" x="576.76" y="58.01" width="1.98" height="6.52"/></g><g id="Symboler"><rect class="cls-24" x="142.12" y="126.09" width="31.11" height="31.14"/><path class="cls-25" d="M158.41,134.37a1.8,1.8,0,1,0-1.79-1.79,1.79,1.79,0,0,0,1.79,1.79"/><path class="cls-25" d="M156.62,143.35v-2.82l-2.52,1.3a1,1,0,0,1-1-1.78l3.54-2.08v-1.28a1.79,1.79,0,1,1,3.58,0V143c0,1.11-.56,1.24-1,1.58v8.58a1,1,0,1,1-2.05,0v-7.53l-3,1.64,0,3.79a1,1,0,0,1-2,0v-4.32c0-.56,1.06-1.25,1.06-1.25l3.54-2.08"/><path class="cls-25" d="M159.41,140.06l1.72,3.6a1,1,0,0,0,1.34.54,1,1,0,0,0,.54-1.35L160.07,136"/><path class="cls-25" d="M166,141a1.51,1.51,0,1,0-1.5-1.51A1.5,1.5,0,0,0,166,141"/><path class="cls-25" d="M166.36,147.47l-2,6.16a.72.72,0,0,1-.9.47.73.73,0,0,1-.48-.9l1.92-5.82"/><path class="cls-25" d="M165.29,147.47l2,6.16a.71.71,0,0,0,.89.47.73.73,0,0,0,.48-.9l-1.91-5.82"/><path class="cls-25" d="M164.7,142.6a1.26,1.26,0,0,1,1.25-1.26H166a1.26,1.26,0,0,1,1.25,1.26v4.32a1.25,1.25,0,0,1-1.25,1.26H166a1.25,1.25,0,0,1-1.25-1.26Z"/><path class="cls-25" d="M164.61,144.69l-1.57-.81a.64.64,0,0,0-.64,1.11l2.2,1.3"/><rect class="cls-25" x="156.25" y="154.73" width="16.98" height="2.51"/><rect class="cls-25" x="142.05" y="154.96" width="12.73" height="2.32"/><rect class="cls-25" x="142.05" y="151.64" width="9.34" height="3.94"/><rect class="cls-25" x="142.05" y="148.7" width="6.17" height="3.63"/><polygon class="cls-25" points="154.77 126.1 154.77 126.09 142.12 126.09 142.12 127.24 153.16 127.24 153.16 129.99 154.78 129.99 154.78 126.1 154.77 126.1"/><rect class="cls-24" x="143.13" y="3.75" width="31.11" height="31.14"/><path class="cls-25" d="M159.42,12a1.8,1.8,0,1,0-1.79-1.8,1.8,1.8,0,0,0,1.79,1.8"/><path class="cls-25" d="M157.63,21V18.18l-2.51,1.3a1,1,0,0,1-1-1.77l3.54-2.09V14.34a1.79,1.79,0,1,1,3.58,0V20.6c0,1.11-.56,1.25-1,1.58v8.58a1,1,0,1,1-2.05,0V23.23l-3,1.65,0,3.78a1,1,0,1,1-2,0V24.35c0-.57,1.05-1.25,1.05-1.25L157.63,21"/><path class="cls-25" d="M160.43,17.72l1.71,3.59a1,1,0,1,0,1.88-.8l-2.94-6.82"/><path class="cls-25" d="M167,18.6a1.51,1.51,0,1,0-1.5-1.5,1.51,1.51,0,0,0,1.5,1.5"/><path class="cls-25" d="M167.37,25.13l-2,6.15a.71.71,0,0,1-.9.47.72.72,0,0,1-.47-.9L165.92,25"/><path class="cls-25" d="M166.31,25.13l2,6.15a.71.71,0,0,0,.9.47.72.72,0,0,0,.47-.9L167.76,25"/><rect class="cls-25" x="165.71" y="19" width="2.58" height="6.84" rx="1.25" ry="1.25"/><path class="cls-25" d="M165.62,22.35l-1.57-.81a.63.63,0,0,0-.87.23.64.64,0,0,0,.24.87l2.2,1.3"/><rect class="cls-25" x="157.26" y="32.38" width="16.98" height="2.51"/><rect class="cls-25" x="143.06" y="32.61" width="12.73" height="2.32"/><rect class="cls-25" x="143.06" y="29.29" width="9.34" height="3.94"/><rect class="cls-25" x="143.06" y="26.35" width="6.17" height="3.63"/><polygon class="cls-25" points="155.79 3.75 155.79 3.75 143.13 3.75 143.13 4.9 154.17 4.9 154.17 7.65 155.79 7.65 155.79 3.75 155.79 3.75"/><polyline class="cls-26" points="352.28 122.95 352.28 126.95 348.28 126.95"/><line class="cls-27" x1="342.79" y1="126.95" x2="334.56" y2="126.95"/><polyline class="cls-26" points="331.81 126.95 327.81 126.95 327.81 122.95"/><line class="cls-28" x1="327.81" y1="115.22" x2="327.81" y2="103.63"/><line class="cls-29" x1="327.81" y1="99.77" x2="327.81" y2="41.82"/><polyline class="cls-26" points="327.81 37.96 327.81 33.96 331.81 33.96"/><line class="cls-27" x1="337.3" y1="33.96" x2="345.54" y2="33.96"/><polyline class="cls-26" points="348.28 33.96 352.28 33.96 352.28 37.96"/><line class="cls-28" x1="352.28" y1="45.68" x2="352.28" y2="57.27"/><line class="cls-29" x1="352.28" y1="61.14" x2="352.28" y2="119.09"/><rect class="cls-24" x="374.81" y="126.15" width="31.11" height="31.14"/><path class="cls-25" d="M391.11,134.43a1.8,1.8,0,1,0-1.79-1.8,1.79,1.79,0,0,0,1.79,1.8"/><path class="cls-25" d="M389.32,143.41v-2.83l-2.52,1.3a1,1,0,0,1-1.39-.37,1,1,0,0,1,.37-1.4l3.53-2.09v-1.28a1.79,1.79,0,1,1,3.58,0V143c0,1.11-.56,1.25-1,1.59v8.58a1,1,0,1,1-2,0v-7.54l-3,1.65,0,3.78a1,1,0,1,1-2,0v-4.31c0-.57,1.06-1.25,1.06-1.25l3.53-2.09"/><path class="cls-25" d="M392.11,140.12l1.72,3.59a1,1,0,0,0,1.34.54,1,1,0,0,0,.54-1.34l-2.95-6.82"/><path class="cls-25" d="M398.72,141a1.51,1.51,0,1,0-1.5-1.5,1.5,1.5,0,0,0,1.5,1.5"/><path class="cls-25" d="M399.06,147.53l-2,6.15a.7.7,0,0,1-.89.48.73.73,0,0,1-.48-.91l1.91-5.82"/><path class="cls-25" d="M398,147.53l2,6.15a.71.71,0,0,0,.9.48.73.73,0,0,0,.48-.91l-1.92-5.82"/><rect class="cls-25" x="397.39" y="141.4" width="2.58" height="6.84" rx="1.25" ry="1.25"/><path class="cls-25" d="M397.3,144.75l-1.56-.81a.64.64,0,1,0-.64,1.1l2.2,1.3"/><rect class="cls-25" x="388.95" y="154.78" width="16.98" height="2.51"/><rect class="cls-25" x="374.74" y="155.01" width="12.74" height="2.32"/><rect class="cls-25" x="374.74" y="151.69" width="9.34" height="3.94"/><rect class="cls-25" x="374.74" y="148.75" width="6.17" height="3.63"/><polygon class="cls-25" points="387.47 126.16 387.47 126.15 374.81 126.15 374.81 127.3 385.86 127.3 385.86 130.05 387.48 130.05 387.48 126.16 387.47 126.16"/><rect class="cls-24" x="375.4" y="3.73" width="31.11" height="31.14"/><path class="cls-25" d="M391.69,12a1.8,1.8,0,1,0-1.78-1.8,1.8,1.8,0,0,0,1.78,1.8"/><path class="cls-25" d="M389.91,21V18.16l-2.52,1.31a1,1,0,0,1-1-1.78l3.53-2.09V14.32a1.79,1.79,0,1,1,3.58,0v6.26c0,1.12-.56,1.25-1,1.59v8.58a1,1,0,1,1-2,0V23.22l-3,1.64,0,3.78a1,1,0,1,1-2,0V24.33c0-.57,1.06-1.25,1.06-1.25L389.9,21"/><path class="cls-25" d="M392.7,17.7l1.71,3.6a1,1,0,0,0,1.89-.81l-2.95-6.82"/><path class="cls-25" d="M399.31,18.59a1.51,1.51,0,1,0-1.5-1.51,1.51,1.51,0,0,0,1.5,1.51"/><path class="cls-25" d="M399.65,25.11l-2,6.16a.7.7,0,0,1-.89.47.73.73,0,0,1-.48-.91L398.19,25"/><path class="cls-25" d="M398.58,25.11l2,6.16a.72.72,0,0,0,.9.47.73.73,0,0,0,.48-.91L400,25"/><rect class="cls-25" x="397.98" y="18.98" width="2.58" height="6.84" rx="1.25" ry="1.25"/><path class="cls-25" d="M397.89,22.33l-1.56-.81a.63.63,0,0,0-.87.23.65.65,0,0,0,.23.88l2.2,1.29"/><rect class="cls-25" x="389.54" y="32.36" width="16.98" height="2.51"/><rect class="cls-25" x="375.33" y="32.59" width="12.73" height="2.32"/><rect class="cls-25" x="375.33" y="29.27" width="9.34" height="3.94"/><rect class="cls-25" x="375.33" y="26.33" width="6.17" height="3.63"/><polygon class="cls-25" points="388.06 3.74 388.06 3.73 375.4 3.73 375.4 4.88 386.45 4.88 386.45 7.63 388.07 7.63 388.07 3.74 388.06 3.74"/><polyline class="cls-26" points="209.15 123 209.15 127 205.15 127"/><line class="cls-30" x1="199.45" y1="127" x2="190.9" y2="127"/><polyline class="cls-26" points="188.05 127 184.05 127 184.05 123"/><line class="cls-31" x1="184.05" y1="118.82" x2="184.05" y2="112.56"/><line class="cls-32" x1="184.05" y1="110.47" x2="184.05" y2="95.86"/><polyline class="cls-26" points="184.05 93.78 184.05 89.78 188.05 89.78"/><line class="cls-30" x1="193.75" y1="89.77" x2="202.3" y2="89.77"/><polyline class="cls-26" points="205.15 89.78 209.15 89.78 209.15 93.78"/><line class="cls-31" x1="209.14" y1="97.95" x2="209.14" y2="104.21"/><line class="cls-32" x1="209.14" y1="106.3" x2="209.14" y2="120.91"/><line class="cls-26" x1="340.22" y1="127.09" x2="340.22" y2="131.09"/><line class="cls-33" x1="340.22" y1="132.09" x2="340.22" y2="133.59"/><line class="cls-26" x1="340.22" y1="134.09" x2="340.22" y2="138.09"/><line class="cls-26" x1="196.42" y1="127.11" x2="196.42" y2="131.11"/><line class="cls-33" x1="196.42" y1="132.12" x2="196.42" y2="133.62"/><line class="cls-26" x1="196.42" y1="134.12" x2="196.42" y2="138.12"/><line class="cls-26" x1="196.18" y1="138.02" x2="200.18" y2="138.02"/><line class="cls-34" x1="207.35" y1="138.02" x2="218.11" y2="138.02"/><line class="cls-35" x1="221.7" y1="138.02" x2="332.89" y2="138.02"/><line class="cls-26" x1="336.48" y1="138.02" x2="340.48" y2="138.02"/><rect class="cls-36" x="272.1" y="131.84" width="25.45" height="25.45"/><path class="cls-37" d="M286.32,133.19a1.93,1.93,0,1,1-2,1.93A1.95,1.95,0,0,1,286.32,133.19Z"/><path class="cls-37" d="M277,139.93l1.47,7.62a3.49,3.49,0,0,0,3.21,3.08l4.77,0c1.11,0,1.11-1.15,0-1.22l-4.34,0c-1.53-.08-2.27-.69-2.55-2.39l-1.49-7.38C277.89,139.05,276.8,139.09,277,139.93Z"/><path class="cls-37" d="M282.66,139.17c.22-1.16,1-1.8,3.16-1.31l6.87,1.38a1,1,0,0,1-.52,1.93L286.3,140l-1.75,5.86h3.5c1.14,0,1.61.53,1.74,1.31l1.19,7.75a1.12,1.12,0,0,1-2.23.26l-1-6.56-5.8.08c-1.11,0-1.76-1.41-1.37-2.77Z"/><path class="cls-37" d="M291.28,143.55c-.09.5-.64.42-.6-.08.06-2.32,3.21-2.31,3,.25v11.83a.32.32,0,0,1-.63,0l0-12.31C292.94,142,291.2,142.32,291.28,143.55Z"/><rect class="cls-36" x="245.15" y="131.78" width="25.45" height="25.45"/><path class="cls-37" d="M254,133.17a1.93,1.93,0,1,1-2,1.93A2,2,0,0,1,254,133.17Z"/><path class="cls-37" d="M250.62,139.88l1.47,7.61a3.48,3.48,0,0,0,3.22,3.09l4.76,0c1.12,0,1.12-1.15,0-1.22l-4.33,0c-1.54-.08-2.28-.69-2.56-2.4l-1.49-7.38C251.53,139,250.44,139,250.62,139.88Z"/><path class="cls-37" d="M252.49,139.61l1.41,7.24a2.07,2.07,0,0,0,2.49,1.82h5.24l1.12,6.59c.17,1.22,2.44.93,2.23-.33l-1.19-7.68q-.27-1.35-2-1.38l-1.08.07c.83-2.83-.88-5.13-4.24-4.84l-.4-2.26C255.6,137.14,252.14,137.43,252.49,139.61Z"/><polygon class="cls-38" points="540.95 43.99 538.89 52.24 541.58 50.53 540.84 54.59 539.55 54.31 540.39 59.66 543.86 54.84 542.12 54.72 544.34 47.75 541.41 49.13 543.38 43.99 540.95 43.99"/><polygon class="cls-38" points="540.62 101.04 538.55 109.28 541.25 107.57 540.5 111.64 539.22 111.35 540.06 116.71 543.53 111.88 541.78 111.76 544.01 104.8 541.08 106.18 543.05 101.04 540.62 101.04"/></g></g></svg>