<svg xmlns="http://www.w3.org/2000/svg" viewBox="0 0 700 160"><defs><style>.cls-1{fill:#b1b1b0;}.cls-1,.cls-2,.cls-3,.cls-4,.cls-5,.cls-7,.cls-9{stroke:#000;}.cls-1,.cls-15,.cls-16,.cls-17,.cls-18,.cls-19,.cls-2,.cls-20,.cls-21,.cls-22,.cls-23,.cls-24,.cls-3,.cls-4,.cls-5,.cls-7,.cls-9{stroke-miterlimit:10;}.cls-1,.cls-2,.cls-3,.cls-7{stroke-width:0.25px;}.cls-2,.cls-5{fill:#3d3d3c;}.cls-3{fill:#c7c5c4;}.cls-4,.cls-6{fill:#6dc6d9;}.cls-4,.cls-5{stroke-width:0.5px;}.cls-7{fill:#70706f;}.cls-8{fill:#000100;}.cls-9{fill:#9d9b9b;stroke-width:0.75px;}.cls-10{fill:#7b7b7a;}.cls-11,.cls-13{fill:#fff;}.cls-12{fill:#221e20;}.cls-13{fill-rule:evenodd;}.cls-14{fill:#ffd421;}.cls-15,.cls-16,.cls-17,.cls-18,.cls-19,.cls-20,.cls-21,.cls-22,.cls-23,.cls-24{fill:none;stroke:#e53212;}.cls-16{stroke-dasharray:5.1 5.1;}.cls-17{stroke-dasharray:7.64 7.64;}.cls-18{stroke-dasharray:7.64 7.64 7.64 7.64;}.cls-19{stroke-dasharray:5.38 5.38;}.cls-20{stroke-dasharray:7.72 7.72;}.cls-21{stroke-dasharray:7.72 7.72 7.72 7.72;}.cls-22{stroke-dasharray:1 1;}.cls-23{stroke-dasharray:8.51 8.51;}.cls-24{stroke-dasharray:8.51 8.51 8.51 8.51;}.cls-25{fill:#251a5f;}</style></defs><title>Type72_vogn2_BP72</title><g id="Type72_vogn2_BP72"><g id="VOGNKASSE-3" data-name="VOGNKASSE"><rect class="cls-1" x="30.04" y="36.54" width="548.83" height="87.75"/><rect class="cls-2" x="153.21" y="106.2" width="7.39" height="17.82" rx="0.57" ry="0.57"/><rect class="cls-2" x="200.34" y="106.19" width="7.39" height="17.82" rx="0.57" ry="0.57"/><rect class="cls-2" x="153.21" y="36.78" width="7.39" height="17.82" rx="0.57" ry="0.57"/><rect class="cls-2" x="200.34" y="36.77" width="7.39" height="17.82" rx="0.57" ry="0.57"/><rect class="cls-2" x="399.98" y="106.14" width="7.39" height="17.82" rx="0.57" ry="0.57"/><rect class="cls-2" x="447.11" y="106.12" width="7.39" height="17.82" rx="0.57" ry="0.57"/><rect class="cls-2" x="399.98" y="36.72" width="7.39" height="17.82" rx="0.57" ry="0.57"/><rect class="cls-2" x="447.11" y="36.71" width="7.39" height="17.82" rx="0.57" ry="0.57"/><path class="cls-3" d="M152.59,36.54V67.25a23.45,23.45,0,0,1,0,26.05v31H30.27V36.54Z"/><path class="cls-3" d="M141,69.69l11.33-2.25v-.23a23,23,0,0,1,0,26.28v-.2L141,90.87a.56.56,0,0,1-.57-.56v-20A.57.57,0,0,1,141,69.69Z"/><path class="cls-3" d="M456.23,36.54V67.25a23.43,23.43,0,0,0,0,26v31H578.55V36.54Z"/><path class="cls-3" d="M467.83,69.69l-11.34-2.25v-.23a23,23,0,0,0,0,26.28v-.2l11.34-2.42a.56.56,0,0,0,.57-.57v-20A.57.57,0,0,0,467.83,69.69Z"/><rect class="cls-4" x="207.72" y="36.68" width="191.42" height="3.56"/><rect class="cls-5" x="259.9" y="36.69" width="3.86" height="3.54"/><rect class="cls-5" x="301.77" y="36.69" width="3.86" height="3.54"/><rect class="cls-5" x="343.9" y="36.69" width="3.86" height="3.54"/><rect class="cls-4" x="29.58" y="36.68" width="123.43" height="3.56"/><rect class="cls-5" x="71.49" y="36.69" width="3.86" height="3.54"/><rect class="cls-5" x="104.27" y="36.69" width="3.86" height="3.54"/><rect class="cls-5" x="29.69" y="36.69" width="11.87" height="3.54"/><polygon class="cls-5" points="154.49 38.94 153.07 38.94 153.07 40.23 137.91 40.23 137.91 36.69 153.07 36.69 153.07 36.69 154.49 36.69 154.49 38.94"/><polygon class="cls-5" points="399.42 38.93 399.42 40.23 385.9 40.23 385.9 36.69 399.21 36.69 399.21 36.68 400.66 36.68 400.66 38.93 399.42 38.93"/><rect class="cls-4" x="455.06" y="36.68" width="123.43" height="3.56"/><rect class="cls-5" x="532.7" y="36.69" width="3.87" height="3.54"/><rect class="cls-5" x="499.93" y="36.69" width="3.86" height="3.54"/><rect class="cls-5" x="566.5" y="36.69" width="11.87" height="3.54"/><polygon class="cls-5" points="453.57 38.94 454.99 38.94 454.99 40.23 470.15 40.23 470.15 36.69 454.99 36.69 454.99 36.69 453.57 36.69 453.57 38.94"/><polygon class="cls-5" points="221.56 40.23 207.83 40.23 207.83 38.93 206.42 38.93 206.42 36.68 207.87 36.68 207.87 36.69 221.56 36.69 221.56 40.23"/><rect class="cls-4" x="207.7" y="120.6" width="191.43" height="3.56"/><rect class="cls-5" x="259.89" y="120.61" width="3.86" height="3.54"/><rect class="cls-5" x="301.76" y="120.61" width="3.86" height="3.54"/><rect class="cls-5" x="343.89" y="120.61" width="3.86" height="3.54"/><rect class="cls-4" x="29.56" y="120.6" width="123.43" height="3.56"/><rect class="cls-5" x="71.47" y="120.61" width="3.86" height="3.54"/><rect class="cls-5" x="104.24" y="120.61" width="3.86" height="3.54"/><rect class="cls-5" x="29.66" y="120.61" width="11.87" height="3.54"/><polygon class="cls-5" points="154.47 121.9 153.04 121.9 153.04 120.61 137.88 120.61 137.88 124.15 153.04 124.15 153.04 124.15 154.47 124.15 154.47 121.9"/><polygon class="cls-5" points="399.4 121.91 399.4 120.61 385.89 120.61 385.89 124.15 399.19 124.15 399.19 124.16 400.64 124.16 400.64 121.91 399.4 121.91"/><rect class="cls-4" x="455.04" y="120.6" width="123.43" height="3.56"/><rect class="cls-5" x="532.69" y="120.61" width="3.86" height="3.54"/><rect class="cls-5" x="499.91" y="120.61" width="3.86" height="3.54"/><rect class="cls-5" x="566.48" y="120.61" width="11.87" height="3.54"/><polygon class="cls-5" points="453.56 121.9 454.98 121.9 454.98 120.61 470.14 120.61 470.14 124.15 454.98 124.15 454.98 124.15 453.56 124.15 453.56 121.9"/><polygon class="cls-5" points="221.54 120.61 207.8 120.61 207.8 121.91 206.4 121.91 206.4 124.16 207.85 124.16 207.85 124.15 221.54 124.15 221.54 120.61"/><rect class="cls-2" x="151.79" y="40.33" width="1.13" height="26.01"/><path class="cls-2" d="M153.19,67a.86.86,0,1,0-.86.86A.86.86,0,0,0,153.19,67Z"/><rect class="cls-6" x="152.15" y="57.34" width="0.8" height="8.49"/><rect class="cls-2" x="151.72" y="94.28" width="1.13" height="26.01"/><circle class="cls-2" cx="152.27" cy="93.68" r="0.86"/><rect class="cls-6" x="151.88" y="94.76" width="0.8" height="8.49"/><rect class="cls-2" x="455.07" y="40.53" width="1.13" height="26.01"/><path class="cls-2" d="M456.47,67.15a.86.86,0,1,0-1.72,0,.86.86,0,0,0,1.72,0Z"/><rect class="cls-6" x="455.44" y="57.54" width="0.8" height="8.49"/><rect class="cls-2" x="455.01" y="94.49" width="1.13" height="26.01"/><path class="cls-2" d="M456.41,93.88a.86.86,0,1,1-1.72,0,.86.86,0,0,1,1.72,0Z"/><rect class="cls-6" x="455.16" y="94.96" width="0.8" height="8.49"/><rect class="cls-2" x="208.19" y="39.16" width="1.13" height="38.08"/><rect class="cls-6" x="208.37" y="68.16" width="0.8" height="8.38"/><rect class="cls-2" x="208.12" y="93.71" width="1.13" height="26.01"/><path class="cls-2" d="M209.52,93.11a.86.86,0,1,1-.86-.86A.87.87,0,0,1,209.52,93.11Z"/><rect class="cls-6" x="208.28" y="94.19" width="0.8" height="8.49"/><path class="cls-2" d="M209.63,77.72a.86.86,0,1,1-.86-.86A.87.87,0,0,1,209.63,77.72Z"/><rect class="cls-2" x="398.46" y="40.22" width="1.13" height="38.08"/><rect class="cls-6" x="398.63" y="69.22" width="0.8" height="8.38"/><rect class="cls-2" x="398.39" y="94.77" width="1.13" height="26.01"/><path class="cls-2" d="M399.79,94.17a.86.86,0,0,1-1.72,0,.86.86,0,0,1,1.72,0Z"/><rect class="cls-6" x="398.54" y="95.25" width="0.8" height="8.49"/><circle class="cls-2" cx="399.04" cy="78.78" r="0.86"/><polygon class="cls-2" points="568.07 90.57 548.1 90.57 548.1 120.44 571.67 120.44 571.67 94.32 568.07 90.57"/><polygon class="cls-5" points="575.42 69.34 572.83 69.34 572.83 39.72 578.33 39.72 578.33 56.49 575.42 56.49 575.42 69.34"/><polygon class="cls-5" points="575.42 92.06 575.42 104.9 578.33 104.9 578.33 120.63 572.83 120.63 572.83 92.06 575.42 92.06"/><polygon class="cls-5" points="32.84 69.7 35.43 69.7 35.43 40.3 29.92 40.3 29.92 56.95 32.84 56.95 32.84 69.7"/><polygon class="cls-5" points="32.84 92.25 32.84 105 29.92 105 29.92 120.61 35.43 120.61 35.43 92.25 32.84 92.25"/><rect class="cls-7" x="200.27" y="54.82" width="7.69" height="18.51"/><path class="cls-8" d="M579,50.34l-.07,0a.13.13,0,0,1,0-.18l2-2.77a.12.12,0,0,1,.17,0,.12.12,0,0,1,0,.17l-1.95,2.78A.12.12,0,0,1,579,50.34Z"/><path class="cls-8" d="M582.89,50.33a.14.14,0,0,1-.11-.06l-1.94-2.77a.13.13,0,0,1,0-.18.12.12,0,0,1,.17,0l2,2.78a.12.12,0,0,1,0,.17A.11.11,0,0,1,582.89,50.33Z"/><path class="cls-8" d="M582.9,50.33a.11.11,0,0,1-.07,0,.13.13,0,0,1,0-.17l2-2.78a.12.12,0,0,1,.17,0,.13.13,0,0,1,0,.18L583,50.27A.14.14,0,0,1,582.9,50.33Z"/><path class="cls-8" d="M586.81,50.31a.12.12,0,0,1-.1-.05l-2-2.78a.12.12,0,0,1,.2-.14l1.95,2.77a.13.13,0,0,1,0,.18Z"/><path class="cls-8" d="M586.77,50.29a.1.1,0,0,1-.07,0,.13.13,0,0,1,0-.17l2-2.78a.12.12,0,0,1,.2.14l-1.94,2.78A.16.16,0,0,1,586.77,50.29Z"/><path class="cls-8" d="M579,57.71a.12.12,0,0,1-.12-.13V50.19a.12.12,0,0,1,.12-.12.12.12,0,0,1,.13.12v7.39A.13.13,0,0,1,579,57.71Z"/><path class="cls-8" d="M582.93,57.66a.13.13,0,0,1-.13-.13V50.14a.13.13,0,0,1,.13-.13.12.12,0,0,1,.12.13v7.39A.12.12,0,0,1,582.93,57.66Z"/><path class="cls-8" d="M586.82,57.71a.13.13,0,0,1-.12-.12v-7.4a.12.12,0,0,1,.12-.12.12.12,0,0,1,.13.12v7.4A.13.13,0,0,1,586.82,57.71Z"/><path class="cls-8" d="M588.77,57.74a.12.12,0,0,1-.12-.13V47.42a.12.12,0,0,1,.12-.13.13.13,0,0,1,.13.13V57.61A.13.13,0,0,1,588.77,57.74Z"/><path class="cls-8" d="M580.94,57.74a.13.13,0,0,1-.12-.13V47.4a.13.13,0,0,1,.12-.12.13.13,0,0,1,.13.12V57.61A.13.13,0,0,1,580.94,57.74Z"/><path class="cls-8" d="M584.84,57.71a.12.12,0,0,1-.12-.13V47.4a.12.12,0,0,1,.12-.12.12.12,0,0,1,.13.12V57.58A.13.13,0,0,1,584.84,57.71Z"/><path class="cls-8" d="M588.8,57.74H579a.12.12,0,0,1-.12-.13.12.12,0,0,1,.12-.12h9.77a.12.12,0,0,1,.13.12A.13.13,0,0,1,588.8,57.74Z"/><path class="cls-8" d="M580.93,113.69a.11.11,0,0,1-.1-.06l-2-2.77a.13.13,0,0,1,0-.18.13.13,0,0,1,.17,0l1.95,2.78a.12.12,0,0,1,0,.17A.11.11,0,0,1,580.93,113.69Z"/><path class="cls-8" d="M580.94,113.7a.08.08,0,0,1-.07,0,.12.12,0,0,1,0-.17l1.94-2.78a.13.13,0,0,1,.18,0,.12.12,0,0,1,0,.17l-2,2.78A.12.12,0,0,1,580.94,113.7Z"/><path class="cls-8" d="M584.85,113.7a.12.12,0,0,1-.1,0l-2-2.78a.13.13,0,0,1,.21-.14l1.94,2.78a.12.12,0,0,1,0,.17A.08.08,0,0,1,584.85,113.7Z"/><path class="cls-8" d="M584.86,113.72l-.07,0a.13.13,0,0,1,0-.18l2-2.77a.12.12,0,0,1,.2.14L585,113.67A.12.12,0,0,1,584.86,113.72Z"/><path class="cls-8" d="M588.72,113.74a.11.11,0,0,1-.1-.06l-2-2.77a.13.13,0,1,1,.21-.15l1.94,2.78a.12.12,0,0,1,0,.17A.09.09,0,0,1,588.72,113.74Z"/><path class="cls-8" d="M579,110.94a.12.12,0,0,1-.12-.13v-7.39a.12.12,0,0,1,.12-.13.13.13,0,0,1,.13.13v7.39A.13.13,0,0,1,579,110.94Z"/><path class="cls-8" d="M582.93,111a.13.13,0,0,1-.13-.13v-7.39a.12.12,0,0,1,.13-.12.12.12,0,0,1,.12.12v7.39A.12.12,0,0,1,582.93,111Z"/><path class="cls-8" d="M586.82,110.94a.13.13,0,0,1-.12-.13v-7.39a.13.13,0,0,1,.12-.13.13.13,0,0,1,.13.13v7.39A.13.13,0,0,1,586.82,110.94Z"/><path class="cls-8" d="M588.77,113.71a.12.12,0,0,1-.12-.12v-10.2a.12.12,0,0,1,.12-.12.12.12,0,0,1,.13.12v10.2A.13.13,0,0,1,588.77,113.71Z"/><path class="cls-8" d="M580.94,113.72a.12.12,0,0,1-.12-.12V103.39a.12.12,0,0,1,.12-.12.12.12,0,0,1,.13.12V113.6A.12.12,0,0,1,580.94,113.72Z"/><path class="cls-8" d="M584.84,113.72a.12.12,0,0,1-.12-.12V103.42a.12.12,0,0,1,.12-.13.13.13,0,0,1,.13.13V113.6A.12.12,0,0,1,584.84,113.72Z"/><path class="cls-8" d="M588.8,103.52H579a.12.12,0,0,1-.12-.13.12.12,0,0,1,.12-.12h9.77a.12.12,0,0,1,.13.12A.13.13,0,0,1,588.8,103.52Z"/><rect class="cls-1" x="578.81" y="57.48" width="10.02" height="45.91"/><path class="cls-8" d="M29.64,50.81a.12.12,0,0,0,.08,0,.13.13,0,0,0,0-.17L27.8,47.84a.13.13,0,0,0-.21.14l1.95,2.78A.16.16,0,0,0,29.64,50.81Z"/><path class="cls-8" d="M25.74,50.8a.11.11,0,0,0,.1-.06L27.79,48a.14.14,0,0,0,0-.18.14.14,0,0,0-.18,0L25.64,50.6a.12.12,0,0,0,0,.17A.09.09,0,0,0,25.74,50.8Z"/><path class="cls-8" d="M25.72,50.8a.13.13,0,0,0,.08,0,.14.14,0,0,0,0-.17l-1.95-2.78a.13.13,0,1,0-.21.15l1.95,2.77A.11.11,0,0,0,25.72,50.8Z"/><path class="cls-8" d="M21.82,50.78a.14.14,0,0,0,.1-.05L23.87,48a.13.13,0,0,0-.21-.14l-1.95,2.77a.14.14,0,0,0,0,.18Z"/><path class="cls-8" d="M21.85,50.76a.08.08,0,0,0,.07,0,.12.12,0,0,0,0-.17L20,47.79a.13.13,0,0,0-.18,0,.14.14,0,0,0,0,.18l1.95,2.77A.1.1,0,0,0,21.85,50.76Z"/><path class="cls-8" d="M29.64,58.18a.13.13,0,0,0,.13-.12v-7.4a.12.12,0,0,0-.13-.12.12.12,0,0,0-.12.12v7.4A.13.13,0,0,0,29.64,58.18Z"/><path class="cls-8" d="M25.7,58.13a.12.12,0,0,0,.12-.13V50.61a.12.12,0,0,0-.12-.12.12.12,0,0,0-.13.12V58A.13.13,0,0,0,25.7,58.13Z"/><path class="cls-8" d="M21.8,58.18a.12.12,0,0,0,.13-.12v-7.4a.12.12,0,0,0-.13-.12.12.12,0,0,0-.12.12v7.4A.12.12,0,0,0,21.8,58.18Z"/><path class="cls-8" d="M19.85,58.21a.13.13,0,0,0,.13-.13V47.89a.13.13,0,0,0-.13-.13.12.12,0,0,0-.12.13V58.08A.12.12,0,0,0,19.85,58.21Z"/><path class="cls-8" d="M27.68,58.21a.13.13,0,0,0,.13-.13V47.88a.13.13,0,0,0-.13-.13.12.12,0,0,0-.12.13v10.2A.12.12,0,0,0,27.68,58.21Z"/><path class="cls-8" d="M23.78,58.18a.13.13,0,0,0,.13-.13V47.87a.13.13,0,0,0-.13-.12.12.12,0,0,0-.12.12V58.05A.12.12,0,0,0,23.78,58.18Z"/><path class="cls-8" d="M19.82,58.21h9.77a.13.13,0,0,0,.13-.13.12.12,0,0,0-.13-.12H19.82a.12.12,0,0,0-.12.12A.12.12,0,0,0,19.82,58.21Z"/><path class="cls-8" d="M27.7,114.16a.12.12,0,0,0,.1-.06l1.95-2.77a.14.14,0,0,0,0-.18.14.14,0,0,0-.18,0L27.59,114a.14.14,0,0,0,0,.18Z"/><path class="cls-8" d="M27.69,114.17a.1.1,0,0,0,.07,0,.13.13,0,0,0,0-.17l-1.95-2.78a.12.12,0,0,0-.2.14l1.94,2.78A.16.16,0,0,0,27.69,114.17Z"/><path class="cls-8" d="M23.77,114.17a.16.16,0,0,0,.11,0l1.95-2.78a.14.14,0,0,0,0-.17.13.13,0,0,0-.18,0L23.67,114a.13.13,0,0,0,0,.17A.1.1,0,0,0,23.77,114.17Z"/><path class="cls-8" d="M23.76,114.19l.08,0a.14.14,0,0,0,0-.18l-1.95-2.77a.13.13,0,0,0-.18,0,.13.13,0,0,0,0,.17l1.95,2.78A.16.16,0,0,0,23.76,114.19Z"/><path class="cls-8" d="M19.9,114.21a.14.14,0,0,0,.11-.06L22,111.38a.13.13,0,1,0-.2-.15L19.8,114a.13.13,0,0,0,0,.17A.11.11,0,0,0,19.9,114.21Z"/><path class="cls-8" d="M29.64,111.41a.13.13,0,0,0,.13-.13v-7.39a.13.13,0,0,0-.13-.13.13.13,0,0,0-.12.13v7.39A.13.13,0,0,0,29.64,111.41Z"/><path class="cls-8" d="M25.7,111.46a.12.12,0,0,0,.12-.13v-7.39a.12.12,0,0,0-.12-.12.12.12,0,0,0-.13.12v7.39A.13.13,0,0,0,25.7,111.46Z"/><path class="cls-8" d="M21.8,111.41a.13.13,0,0,0,.13-.13v-7.39a.13.13,0,0,0-.13-.13.12.12,0,0,0-.12.13v7.39A.12.12,0,0,0,21.8,111.41Z"/><path class="cls-8" d="M19.85,114.18a.12.12,0,0,0,.13-.12v-10.2a.12.12,0,0,0-.13-.12.12.12,0,0,0-.12.12v10.2A.12.12,0,0,0,19.85,114.18Z"/><path class="cls-8" d="M27.68,114.19a.12.12,0,0,0,.13-.12V103.86a.12.12,0,0,0-.13-.12.12.12,0,0,0-.12.12v10.21A.12.12,0,0,0,27.68,114.19Z"/><path class="cls-8" d="M23.78,114.19a.12.12,0,0,0,.13-.12V103.89a.12.12,0,0,0-.13-.12.12.12,0,0,0-.12.12v10.18A.12.12,0,0,0,23.78,114.19Z"/><path class="cls-8" d="M19.82,104h9.77a.13.13,0,0,0,.13-.13.12.12,0,0,0-.13-.12H19.82a.12.12,0,0,0-.12.12A.12.12,0,0,0,19.82,104Z"/><rect class="cls-1" x="19.79" y="57.95" width="10.02" height="45.91"/><rect class="cls-8" x="132.13" y="35.1" width="28.35" height="0.72"/><rect class="cls-8" x="199.87" y="35.07" width="28.35" height="0.72"/><rect class="cls-8" x="378.69" y="35.1" width="28.35" height="0.72"/><rect class="cls-8" x="446.43" y="35.07" width="28.35" height="0.72"/><rect class="cls-8" x="132.29" y="124.96" width="28.35" height="0.72"/><rect class="cls-8" x="200.03" y="124.93" width="28.35" height="0.72"/><rect class="cls-8" x="378.86" y="124.96" width="28.35" height="0.72"/><rect class="cls-8" x="446.6" y="124.93" width="28.35" height="0.72"/></g><g id="SETER_72-3" data-name="SETER 72"><polygon class="cls-9" points="105.79 103.52 105.79 95.6 108.09 93.3 124.42 93.3 124.42 105.84 108.11 105.84 105.79 103.52"/><polygon class="cls-10" points="108.2 95.91 108.2 95.91 110.34 93.72 111.93 93.72 109.79 95.91 109.79 95.91 109.79 103.26 109.79 103.26 111.93 105.45 110.34 105.45 108.22 103.28 108.2 103.28 108.2 95.91"/><rect class="cls-11" x="106.17" y="96.52" width="1.87" height="6.13"/><polygon class="cls-9" points="105.79 90.55 105.79 82.63 108.09 80.33 124.42 80.33 124.42 92.87 108.11 92.87 105.79 90.55"/><polygon class="cls-10" points="108.2 82.93 108.2 82.93 110.34 80.75 111.93 80.75 109.79 82.93 109.78 82.93 109.78 90.29 109.79 90.29 111.93 92.48 110.34 92.48 108.22 90.31 108.2 90.31 108.2 82.93"/><rect class="cls-11" x="106.17" y="83.55" width="1.87" height="6.13"/><polygon class="cls-9" points="105.79 116.61 105.79 108.69 108.09 106.39 124.42 106.39 124.42 118.93 108.11 118.93 105.79 116.61"/><polygon class="cls-10" points="108.2 109 108.2 109 110.34 106.81 111.93 106.81 109.79 109 109.79 109 109.79 116.35 109.79 116.35 111.93 118.54 110.34 118.54 108.22 116.37 108.2 116.37 108.2 109"/><rect class="cls-11" x="106.17" y="109.61" width="1.87" height="6.13"/><polygon class="cls-9" points="127.42 64.95 127.42 57.03 125.12 54.73 108.79 54.73 108.79 67.27 125.1 67.27 127.42 64.95"/><polygon class="cls-10" points="125.01 57.33 125.01 57.33 122.86 55.14 121.28 55.14 123.42 57.33 123.42 57.33 123.42 64.69 123.42 64.69 121.28 66.88 122.86 66.88 124.98 64.71 125.01 64.71 125.01 57.33"/><rect class="cls-11" x="125.17" y="57.95" width="1.87" height="6.13"/><polygon class="cls-9" points="127.41 51.98 127.41 44.06 125.11 41.76 108.78 41.76 108.78 54.29 125.09 54.29 127.41 51.98"/><polygon class="cls-10" points="125 44.36 125 44.36 122.86 42.17 121.27 42.17 123.41 44.36 123.41 44.36 123.41 51.72 123.41 51.72 121.27 53.91 122.86 53.91 124.98 51.74 125 51.74 125 44.36"/><rect class="cls-11" x="125.16" y="44.98" width="1.87" height="6.13"/><polygon class="cls-9" points="83 103.55 83 95.63 85.3 93.33 101.63 93.33 101.63 105.87 85.32 105.87 83 103.55"/><polygon class="cls-10" points="85.41 95.93 85.42 95.93 87.56 93.74 89.15 93.74 87.01 95.93 87 95.93 87 103.29 87.01 103.29 89.15 105.48 87.56 105.48 85.44 103.31 85.41 103.31 85.41 95.93"/><rect class="cls-11" x="83.39" y="96.55" width="1.87" height="6.13"/><polygon class="cls-9" points="83 90.58 83 82.66 85.3 80.36 101.63 80.36 101.63 92.89 85.32 92.89 83 90.58"/><polygon class="cls-10" points="85.41 82.96 85.42 82.96 87.56 80.77 89.14 80.77 87 82.96 87 82.96 87 90.32 87 90.32 89.14 92.51 87.56 92.51 85.44 90.34 85.41 90.34 85.41 82.96"/><rect class="cls-11" x="83.39" y="83.58" width="1.87" height="6.13"/><polygon class="cls-9" points="83 116.64 83 108.72 85.3 106.42 101.63 106.42 101.63 118.96 85.32 118.96 83 116.64"/><polygon class="cls-10" points="85.41 109.03 85.42 109.03 87.56 106.83 89.15 106.83 87.01 109.03 87 109.03 87 116.38 87.01 116.38 89.15 118.57 87.56 118.57 85.44 116.4 85.41 116.4 85.41 109.03"/><rect class="cls-11" x="83.39" y="109.64" width="1.87" height="6.13"/><polygon class="cls-9" points="83 64.98 83 57.06 85.3 54.76 101.63 54.76 101.63 67.3 85.32 67.3 83 64.98"/><polygon class="cls-10" points="85.41 57.36 85.42 57.36 87.56 55.17 89.15 55.17 87.01 57.36 87 57.36 87 64.72 87.01 64.72 89.15 66.91 87.56 66.91 85.44 64.74 85.41 64.74 85.41 57.36"/><rect class="cls-11" x="83.39" y="57.98" width="1.87" height="6.13"/><polygon class="cls-9" points="83.02 52.01 83.02 44.09 85.31 41.78 101.64 41.78 101.64 54.32 85.33 54.32 83.02 52.01"/><polygon class="cls-10" points="85.42 44.39 85.43 44.39 87.57 42.2 89.16 42.2 87.02 44.39 87.01 44.39 87.01 51.74 87.02 51.74 89.16 53.94 87.57 53.94 85.45 51.77 85.42 51.77 85.42 44.39"/><rect class="cls-11" x="83.39" y="45" width="1.87" height="6.13"/><polygon class="cls-9" points="60.02 103.52 60.02 95.6 62.32 93.3 78.65 93.3 78.65 105.84 62.34 105.84 60.02 103.52"/><polygon class="cls-10" points="62.43 95.91 62.44 95.91 64.58 93.72 66.17 93.72 64.03 95.91 64.02 95.91 64.02 103.26 64.03 103.26 66.17 105.45 64.58 105.45 62.46 103.28 62.43 103.28 62.43 95.91"/><rect class="cls-11" x="60.41" y="96.52" width="1.87" height="6.13"/><polygon class="cls-9" points="60.02 90.55 60.02 82.63 62.32 80.33 78.65 80.33 78.65 92.87 62.34 92.87 60.02 90.55"/><polygon class="cls-10" points="62.43 82.93 62.43 82.93 64.58 80.75 66.16 80.75 64.03 82.93 64.02 82.93 64.02 90.29 64.03 90.29 66.16 92.48 64.58 92.48 62.45 90.31 62.43 90.31 62.43 82.93"/><rect class="cls-11" x="60.4" y="83.55" width="1.87" height="6.13"/><polygon class="cls-9" points="60.02 116.61 60.02 108.69 62.32 106.39 78.65 106.39 78.65 118.93 62.34 118.93 60.02 116.61"/><polygon class="cls-10" points="62.43 109 62.44 109 64.58 106.81 66.17 106.81 64.03 109 64.02 109 64.02 116.35 64.03 116.35 66.17 118.54 64.58 118.54 62.46 116.37 62.43 116.37 62.43 109"/><rect class="cls-11" x="60.41" y="109.61" width="1.87" height="6.13"/><polygon class="cls-9" points="60.02 64.95 60.02 57.03 62.32 54.73 78.65 54.73 78.65 67.27 62.34 67.27 60.02 64.95"/><polygon class="cls-10" points="62.43 57.33 62.44 57.33 64.58 55.14 66.17 55.14 64.03 57.33 64.02 57.33 64.02 64.69 64.03 64.69 66.17 66.88 64.58 66.88 62.46 64.71 62.43 64.71 62.43 57.33"/><rect class="cls-11" x="60.41" y="57.95" width="1.87" height="6.13"/><polygon class="cls-9" points="60.03 51.98 60.03 44.06 62.33 41.76 78.66 41.76 78.66 54.29 62.35 54.29 60.03 51.98"/><polygon class="cls-10" points="62.44 44.36 62.45 44.36 64.59 42.17 66.17 42.17 64.04 44.36 64.03 44.36 64.03 51.72 64.04 51.72 66.17 53.91 64.59 53.91 62.47 51.74 62.44 51.74 62.44 44.36"/><rect class="cls-11" x="60.41" y="44.98" width="1.87" height="6.13"/><polygon class="cls-9" points="36.69 103.47 36.69 95.55 38.99 93.24 55.32 93.24 55.32 105.78 39.01 105.78 36.69 103.47"/><polygon class="cls-10" points="39.1 95.85 39.11 95.85 41.25 93.66 42.84 93.66 40.7 95.85 40.69 95.85 40.69 103.2 40.7 103.2 42.84 105.39 41.25 105.39 39.13 103.22 39.1 103.22 39.1 95.85"/><rect class="cls-11" x="37.08" y="96.46" width="1.87" height="6.13"/><polygon class="cls-9" points="36.69 116.56 36.69 108.64 38.99 106.34 55.32 106.34 55.32 118.87 39.01 118.87 36.69 116.56"/><polygon class="cls-10" points="39.1 108.94 39.11 108.94 41.25 106.75 42.84 106.75 40.7 108.94 40.69 108.94 40.69 116.29 40.7 116.29 42.84 118.48 41.25 118.48 39.13 116.31 39.1 116.31 39.1 108.94"/><rect class="cls-11" x="37.08" y="109.56" width="1.87" height="6.13"/><polygon class="cls-9" points="36.69 64.89 36.69 56.97 38.99 54.67 55.32 54.67 55.32 67.21 39.01 67.21 36.69 64.89"/><polygon class="cls-10" points="39.1 57.28 39.11 57.28 41.25 55.09 42.84 55.09 40.7 57.28 40.69 57.28 40.69 64.63 40.7 64.63 42.84 66.83 41.25 66.83 39.13 64.66 39.1 64.66 39.1 57.28"/><rect class="cls-11" x="37.08" y="57.89" width="1.87" height="6.13"/><polygon class="cls-9" points="36.7 51.92 36.7 44 39 41.7 55.33 41.7 55.33 54.24 39.02 54.24 36.7 51.92"/><polygon class="cls-10" points="39.11 44.3 39.12 44.3 41.26 42.11 42.84 42.11 40.71 44.3 40.7 44.3 40.7 51.66 40.71 51.66 42.84 53.85 41.26 53.85 39.14 51.68 39.11 51.68 39.11 44.3"/><rect class="cls-11" x="37.08" y="44.92" width="1.87" height="6.13"/><polygon class="cls-9" points="210.45 57.16 210.45 65.08 212.75 67.38 229.08 67.38 229.08 54.84 212.76 54.84 210.45 57.16"/><polygon class="cls-10" points="212.85 64.78 212.86 64.78 215 66.97 216.59 66.97 214.45 64.78 214.44 64.78 214.44 57.42 214.45 57.42 216.59 55.23 215 55.23 212.88 57.4 212.85 57.4 212.85 64.78"/><rect class="cls-11" x="210.83" y="58.03" width="1.87" height="6.13"/><polygon class="cls-9" points="210.45 70.13 210.45 78.05 212.75 80.35 229.07 80.35 229.07 67.82 212.76 67.82 210.45 70.13"/><polygon class="cls-10" points="212.85 77.75 212.86 77.75 215 79.94 216.59 79.94 214.45 77.75 214.44 77.75 214.44 70.39 214.45 70.39 216.59 68.2 215 68.2 212.88 70.37 212.85 70.37 212.85 77.75"/><rect class="cls-11" x="210.83" y="71" width="1.87" height="6.13"/><polygon class="cls-9" points="210.45 44.07 210.45 51.99 212.75 54.29 229.07 54.29 229.07 41.76 212.76 41.76 210.45 44.07"/><polygon class="cls-10" points="212.85 51.69 212.86 51.69 215 53.88 216.59 53.88 214.45 51.69 214.44 51.69 214.44 44.33 214.45 44.33 216.59 42.14 215 42.14 212.88 44.31 212.85 44.31 212.85 51.69"/><rect class="cls-11" x="210.83" y="44.94" width="1.87" height="6.13"/><polygon class="cls-9" points="210.45 95.73 210.45 103.65 212.75 105.95 229.07 105.95 229.07 93.42 212.77 93.42 210.45 95.73"/><polygon class="cls-10" points="212.86 103.35 212.86 103.35 215 105.54 216.59 105.54 214.45 103.35 214.45 103.35 214.45 95.99 214.45 95.99 216.59 93.8 215 93.8 212.88 95.97 212.86 95.97 212.86 103.35"/><rect class="cls-11" x="210.83" y="96.6" width="1.87" height="6.13"/><polygon class="cls-9" points="210.46 108.71 210.46 116.63 212.76 118.93 229.08 118.93 229.08 106.39 212.77 106.39 210.46 108.71"/><polygon class="cls-10" points="212.86 116.32 212.87 116.32 215.01 118.51 216.6 118.51 214.46 116.32 214.45 116.32 214.45 108.97 214.46 108.97 216.6 106.77 215.01 106.77 212.89 108.95 212.86 108.95 212.86 116.32"/><rect class="cls-11" x="210.84" y="109.58" width="1.87" height="6.13"/><polygon class="cls-9" points="233.81 57.16 233.81 65.08 236.11 67.38 252.44 67.38 252.44 54.84 236.12 54.84 233.81 57.16"/><polygon class="cls-10" points="236.21 64.78 236.22 64.78 238.36 66.97 239.95 66.97 237.81 64.78 237.8 64.78 237.8 57.42 237.81 57.42 239.95 55.23 238.36 55.23 236.24 57.4 236.21 57.4 236.21 64.78"/><rect class="cls-11" x="234.19" y="58.03" width="1.87" height="6.13"/><polygon class="cls-9" points="233.81 70.13 233.81 78.05 236.11 80.35 252.43 80.35 252.43 67.82 236.12 67.82 233.81 70.13"/><polygon class="cls-10" points="236.21 77.75 236.22 77.75 238.36 79.94 239.95 79.94 237.81 77.75 237.8 77.75 237.8 70.39 237.81 70.39 239.95 68.2 238.36 68.2 236.24 70.37 236.21 70.37 236.21 77.75"/><rect class="cls-11" x="234.19" y="71" width="1.87" height="6.13"/><polygon class="cls-9" points="233.81 44.07 233.81 51.99 236.11 54.29 252.43 54.29 252.43 41.76 236.12 41.76 233.81 44.07"/><polygon class="cls-10" points="236.21 51.69 236.22 51.69 238.36 53.88 239.95 53.88 237.81 51.69 237.8 51.69 237.8 44.33 237.81 44.33 239.95 42.14 238.36 42.14 236.24 44.31 236.21 44.31 236.21 51.69"/><rect class="cls-11" x="234.19" y="44.94" width="1.87" height="6.13"/><polygon class="cls-9" points="233.81 95.73 233.81 103.65 236.11 105.95 252.43 105.95 252.43 93.42 236.13 93.42 233.81 95.73"/><polygon class="cls-10" points="236.22 103.35 236.22 103.35 238.36 105.54 239.95 105.54 237.81 103.35 237.81 103.35 237.81 95.99 237.81 95.99 239.95 93.8 238.36 93.8 236.24 95.97 236.22 95.97 236.22 103.35"/><rect class="cls-11" x="234.19" y="96.6" width="1.87" height="6.13"/><polygon class="cls-9" points="233.82 108.71 233.82 116.63 236.12 118.93 252.44 118.93 252.44 106.39 236.13 106.39 233.82 108.71"/><polygon class="cls-10" points="236.22 116.32 236.23 116.32 238.37 118.51 239.96 118.51 237.82 116.32 237.81 116.32 237.81 108.97 237.82 108.97 239.96 106.77 238.37 106.77 236.25 108.95 236.22 108.95 236.22 116.32"/><rect class="cls-11" x="234.2" y="109.58" width="1.87" height="6.13"/><polygon class="cls-9" points="257.42 57.16 257.42 65.08 259.71 67.38 276.04 67.38 276.04 54.84 259.73 54.84 257.42 57.16"/><polygon class="cls-10" points="259.82 64.78 259.83 64.78 261.97 66.97 263.56 66.97 261.42 64.78 261.41 64.78 261.41 57.42 261.42 57.42 263.56 55.23 261.97 55.23 259.85 57.4 259.82 57.4 259.82 64.78"/><rect class="cls-11" x="257.8" y="58.03" width="1.87" height="6.13"/><polygon class="cls-9" points="257.42 70.13 257.42 78.05 259.71 80.35 276.04 80.35 276.04 67.82 259.73 67.82 257.42 70.13"/><polygon class="cls-10" points="259.82 77.75 259.82 77.75 261.97 79.94 263.56 79.94 261.42 77.75 261.41 77.75 261.41 70.39 261.42 70.39 263.56 68.2 261.97 68.2 259.85 70.37 259.82 70.37 259.82 77.75"/><rect class="cls-11" x="257.8" y="71" width="1.87" height="6.13"/><polygon class="cls-9" points="257.42 44.07 257.42 51.99 259.71 54.29 276.04 54.29 276.04 41.76 259.73 41.76 257.42 44.07"/><polygon class="cls-10" points="259.82 51.69 259.83 51.69 261.97 53.88 263.56 53.88 261.42 51.69 261.41 51.69 261.41 44.33 261.42 44.33 263.56 42.14 261.97 42.14 259.85 44.31 259.82 44.31 259.82 51.69"/><rect class="cls-11" x="257.8" y="44.94" width="1.87" height="6.13"/><polygon class="cls-9" points="257.42 95.73 257.42 103.65 259.71 105.95 276.04 105.95 276.04 93.42 259.73 93.42 257.42 95.73"/><polygon class="cls-10" points="259.82 103.35 259.83 103.35 261.97 105.54 263.56 105.54 261.42 103.35 261.42 103.35 261.42 95.99 261.42 95.99 263.56 93.8 261.97 93.8 259.85 95.97 259.82 95.97 259.82 103.35"/><rect class="cls-11" x="257.8" y="96.6" width="1.87" height="6.13"/><polygon class="cls-9" points="257.42 108.71 257.42 116.63 259.72 118.93 276.05 118.93 276.05 106.39 259.74 106.39 257.42 108.71"/><polygon class="cls-10" points="259.83 116.32 259.84 116.32 261.98 118.51 263.56 118.51 261.43 116.32 261.42 116.32 261.42 108.97 261.43 108.97 263.56 106.77 261.98 106.77 259.86 108.95 259.83 108.95 259.83 116.32"/><rect class="cls-11" x="257.81" y="109.58" width="1.87" height="6.13"/><polygon class="cls-9" points="280.43 57.16 280.43 65.08 282.73 67.38 299.06 67.38 299.06 54.84 282.75 54.84 280.43 57.16"/><polygon class="cls-10" points="282.84 64.78 282.84 64.78 284.98 66.97 286.57 66.97 284.43 64.78 284.43 64.78 284.43 57.42 284.43 57.42 286.57 55.23 284.98 55.23 282.86 57.4 282.84 57.4 282.84 64.78"/><rect class="cls-11" x="280.81" y="58.03" width="1.87" height="6.13"/><polygon class="cls-9" points="280.43 70.13 280.43 78.05 282.73 80.35 299.06 80.35 299.06 67.82 282.75 67.82 280.43 70.13"/><polygon class="cls-10" points="282.84 77.75 282.84 77.75 284.98 79.94 286.57 79.94 284.43 77.75 284.42 77.75 284.42 70.39 284.43 70.39 286.57 68.2 284.98 68.2 282.86 70.37 282.84 70.37 282.84 77.75"/><rect class="cls-11" x="280.81" y="71" width="1.87" height="6.13"/><polygon class="cls-9" points="280.43 44.07 280.43 51.99 282.73 54.29 299.06 54.29 299.06 41.76 282.75 41.76 280.43 44.07"/><polygon class="cls-10" points="282.84 51.69 282.84 51.69 284.98 53.88 286.57 53.88 284.43 51.69 284.43 51.69 284.43 44.33 284.43 44.33 286.57 42.14 284.98 42.14 282.86 44.31 282.84 44.31 282.84 51.69"/><rect class="cls-11" x="280.81" y="44.94" width="1.87" height="6.13"/><polygon class="cls-9" points="280.43 95.73 280.43 103.65 282.73 105.95 299.06 105.95 299.06 93.42 282.75 93.42 280.43 95.73"/><polygon class="cls-10" points="282.84 103.35 282.84 103.35 284.99 105.54 286.57 105.54 284.43 103.35 284.43 103.35 284.43 95.99 284.43 95.99 286.57 93.8 284.99 93.8 282.86 95.97 282.84 95.97 282.84 103.35"/><rect class="cls-11" x="280.81" y="96.6" width="1.87" height="6.13"/><polygon class="cls-9" points="280.44 108.71 280.44 116.63 282.74 118.93 299.07 118.93 299.07 106.39 282.76 106.39 280.44 108.71"/><polygon class="cls-10" points="282.85 116.32 282.85 116.32 284.99 118.51 286.58 118.51 284.44 116.32 284.44 116.32 284.44 108.97 284.44 108.97 286.58 106.77 284.99 106.77 282.87 108.95 282.85 108.95 282.85 116.32"/><rect class="cls-11" x="280.82" y="109.58" width="1.87" height="6.13"/><polygon class="cls-9" points="324.51 57.16 324.51 65.08 322.21 67.38 305.88 67.38 305.88 54.84 322.19 54.84 324.51 57.16"/><polygon class="cls-10" points="322.1 64.78 322.09 64.78 319.95 66.97 318.36 66.97 320.5 64.78 320.51 64.78 320.51 57.42 320.5 57.42 318.36 55.23 319.95 55.23 322.07 57.4 322.1 57.4 322.1 64.78"/><rect class="cls-11" x="322.26" y="58.03" width="1.87" height="6.13"/><polygon class="cls-9" points="324.51 70.13 324.51 78.05 322.21 80.35 305.88 80.35 305.88 67.82 322.19 67.82 324.51 70.13"/><polygon class="cls-10" points="322.1 77.75 322.1 77.75 319.96 79.94 318.37 79.94 320.51 77.75 320.51 77.75 320.51 70.39 320.51 70.39 318.37 68.2 319.96 68.2 322.08 70.37 322.1 70.37 322.1 77.75"/><rect class="cls-11" x="322.26" y="71" width="1.87" height="6.13"/><polygon class="cls-9" points="324.51 44.07 324.51 51.99 322.21 54.29 305.88 54.29 305.88 41.76 322.19 41.76 324.51 44.07"/><polygon class="cls-10" points="322.1 51.69 322.09 51.69 319.95 53.88 318.36 53.88 320.5 51.69 320.51 51.69 320.51 44.33 320.5 44.33 318.36 42.14 319.95 42.14 322.07 44.31 322.1 44.31 322.1 51.69"/><rect class="cls-11" x="322.26" y="44.94" width="1.87" height="6.13"/><polygon class="cls-9" points="571.19 57.16 571.19 65.08 568.89 67.38 552.56 67.38 552.56 54.84 568.87 54.84 571.19 57.16"/><polygon class="cls-10" points="568.78 64.78 568.77 64.78 566.63 66.97 565.04 66.97 567.18 64.78 567.19 64.78 567.19 57.42 567.18 57.42 565.04 55.23 566.63 55.23 568.75 57.4 568.78 57.4 568.78 64.78"/><rect class="cls-11" x="568.94" y="58.03" width="1.87" height="6.13"/><polygon class="cls-9" points="571.19 44.07 571.19 51.99 568.89 54.29 552.56 54.29 552.56 41.76 568.87 41.76 571.19 44.07"/><polygon class="cls-10" points="568.78 51.69 568.77 51.69 566.63 53.88 565.04 53.88 567.18 51.69 567.19 51.69 567.19 44.33 567.18 44.33 565.04 42.14 566.63 42.14 568.75 44.31 568.78 44.31 568.78 51.69"/><rect class="cls-11" x="568.94" y="44.94" width="1.87" height="6.13"/><polygon class="cls-9" points="457.51 103.52 457.51 95.6 459.81 93.3 476.14 93.3 476.14 105.84 459.82 105.84 457.51 103.52"/><polygon class="cls-10" points="459.92 95.91 459.92 95.91 462.06 93.72 463.65 93.72 461.51 95.91 461.5 95.91 461.5 103.26 461.51 103.26 463.65 105.45 462.06 105.45 459.94 103.28 459.92 103.28 459.92 95.91"/><rect class="cls-11" x="457.89" y="96.52" width="1.87" height="6.13"/><polygon class="cls-9" points="457.51 116.61 457.51 108.69 459.81 106.39 476.13 106.39 476.13 118.93 459.82 118.93 457.51 116.61"/><polygon class="cls-10" points="459.92 109 459.92 109 462.06 106.81 463.65 106.81 461.51 109 461.5 109 461.5 116.35 461.51 116.35 463.65 118.54 462.06 118.54 459.94 116.37 459.92 116.37 459.92 109"/><rect class="cls-11" x="457.89" y="109.61" width="1.87" height="6.13"/><polygon class="cls-9" points="457.51 64.95 457.51 57.03 459.81 54.73 476.13 54.73 476.13 67.27 459.83 67.27 457.51 64.95"/><polygon class="cls-10" points="459.92 57.33 459.92 57.33 462.06 55.14 463.65 55.14 461.51 57.33 461.51 57.33 461.51 64.69 461.51 64.69 463.65 66.88 462.06 66.88 459.94 64.71 459.92 64.71 459.92 57.33"/><rect class="cls-11" x="457.89" y="57.95" width="1.87" height="6.13"/><polygon class="cls-9" points="457.52 51.98 457.52 44.06 459.82 41.76 476.14 41.76 476.14 54.29 459.83 54.29 457.52 51.98"/><polygon class="cls-10" points="459.92 44.36 459.93 44.36 462.07 42.17 463.66 42.17 461.52 44.36 461.51 44.36 461.51 51.72 461.52 51.72 463.66 53.91 462.07 53.91 459.95 51.74 459.92 51.74 459.92 44.36"/><rect class="cls-11" x="457.9" y="44.98" width="1.87" height="6.13"/><polygon class="cls-9" points="500.94 103.52 500.94 95.6 498.64 93.3 482.31 93.3 482.31 105.84 498.63 105.84 500.94 103.52"/><polygon class="cls-10" points="498.54 95.91 498.53 95.91 496.39 93.72 494.8 93.72 496.94 95.91 496.95 95.91 496.95 103.26 496.94 103.26 494.8 105.45 496.39 105.45 498.51 103.28 498.54 103.28 498.54 95.91"/><rect class="cls-11" x="498.7" y="96.52" width="1.87" height="6.13"/><polygon class="cls-9" points="500.94 90.55 500.94 82.63 498.64 80.33 482.32 80.33 482.32 92.87 498.63 92.87 500.94 90.55"/><polygon class="cls-10" points="498.54 82.93 498.53 82.93 496.39 80.75 494.8 80.75 496.94 82.93 496.95 82.93 496.95 90.29 496.94 90.29 494.8 92.48 496.39 92.48 498.51 90.31 498.54 90.31 498.54 82.93"/><rect class="cls-11" x="498.7" y="83.55" width="1.87" height="6.13"/><polygon class="cls-9" points="500.94 116.61 500.94 108.69 498.64 106.39 482.32 106.39 482.32 118.93 498.63 118.93 500.94 116.61"/><polygon class="cls-10" points="498.54 109 498.53 109 496.39 106.81 494.8 106.81 496.94 109 496.95 109 496.95 116.35 496.94 116.35 494.8 118.54 496.39 118.54 498.51 116.37 498.54 116.37 498.54 109"/><rect class="cls-11" x="498.7" y="109.61" width="1.87" height="6.13"/><polygon class="cls-9" points="480.31 64.95 480.31 57.03 482.61 54.73 498.93 54.73 498.93 67.27 482.63 67.27 480.31 64.95"/><polygon class="cls-10" points="482.71 57.33 482.72 57.33 484.86 55.14 486.45 55.14 484.31 57.33 484.31 57.33 484.31 64.69 484.31 64.69 486.45 66.88 484.86 66.88 482.74 64.71 482.71 64.71 482.71 57.33"/><rect class="cls-11" x="480.69" y="57.95" width="1.87" height="6.13"/><polygon class="cls-9" points="480.32 51.98 480.32 44.06 482.62 41.76 498.94 41.76 498.94 54.29 482.63 54.29 480.32 51.98"/><polygon class="cls-10" points="482.72 44.36 482.73 44.36 484.87 42.17 486.46 42.17 484.32 44.36 484.31 44.36 484.31 51.72 484.32 51.72 486.46 53.91 484.87 53.91 482.75 51.74 482.72 51.74 482.72 44.36"/><rect class="cls-11" x="480.7" y="44.98" width="1.87" height="6.13"/><polygon class="cls-9" points="523.75 103.52 523.75 95.6 521.45 93.3 505.12 93.3 505.12 105.84 521.43 105.84 523.75 103.52"/><polygon class="cls-10" points="521.34 95.91 521.33 95.91 519.19 93.72 517.6 93.72 519.74 95.91 519.75 95.91 519.75 103.26 519.74 103.26 517.6 105.45 519.19 105.45 521.31 103.28 521.34 103.28 521.34 95.91"/><rect class="cls-11" x="521.5" y="96.52" width="1.87" height="6.13"/><polygon class="cls-9" points="523.75 90.55 523.75 82.63 521.45 80.33 505.12 80.33 505.12 92.87 521.43 92.87 523.75 90.55"/><polygon class="cls-10" points="521.34 82.93 521.34 82.93 519.19 80.75 517.61 80.75 519.75 82.93 519.75 82.93 519.75 90.29 519.75 90.29 517.61 92.48 519.19 92.48 521.32 90.31 521.34 90.31 521.34 82.93"/><rect class="cls-11" x="521.5" y="83.55" width="1.87" height="6.13"/><polygon class="cls-9" points="523.75 116.61 523.75 108.69 521.45 106.39 505.12 106.39 505.12 118.93 521.43 118.93 523.75 116.61"/><polygon class="cls-10" points="521.34 109 521.33 109 519.19 106.81 517.6 106.81 519.74 109 519.75 109 519.75 116.35 519.74 116.35 517.6 118.54 519.19 118.54 521.31 116.37 521.34 116.37 521.34 109"/><rect class="cls-11" x="521.5" y="109.61" width="1.87" height="6.13"/><polygon class="cls-9" points="523.75 64.95 523.75 57.03 521.45 54.73 505.12 54.73 505.12 67.27 521.43 67.27 523.75 64.95"/><polygon class="cls-10" points="521.34 57.33 521.33 57.33 519.19 55.14 517.6 55.14 519.74 57.33 519.75 57.33 519.75 64.69 519.74 64.69 517.6 66.88 519.19 66.88 521.31 64.71 521.34 64.71 521.34 57.33"/><rect class="cls-11" x="521.49" y="57.95" width="1.87" height="6.13"/><polygon class="cls-9" points="523.74 51.98 523.74 44.06 521.44 41.76 505.11 41.76 505.11 54.29 521.42 54.29 523.74 51.98"/><polygon class="cls-10" points="521.33 44.36 521.32 44.36 519.18 42.17 517.59 42.17 519.73 44.36 519.74 44.36 519.74 51.72 519.73 51.72 517.59 53.91 519.18 53.91 521.3 51.74 521.33 51.74 521.33 44.36"/><rect class="cls-11" x="521.49" y="44.98" width="1.87" height="6.13"/><polygon class="cls-9" points="547.13 103.52 547.13 95.6 544.83 93.3 528.5 93.3 528.5 105.84 544.81 105.84 547.13 103.52"/><polygon class="cls-10" points="544.72 95.91 544.72 95.91 542.58 93.72 540.99 93.72 543.13 95.91 543.13 95.91 543.13 103.26 543.13 103.26 540.99 105.45 542.58 105.45 544.7 103.28 544.72 103.28 544.72 95.91"/><rect class="cls-11" x="544.88" y="96.52" width="1.87" height="6.13"/><polygon class="cls-9" points="547.13 90.55 547.13 82.63 544.83 80.33 528.5 80.33 528.5 92.87 544.82 92.87 547.13 90.55"/><polygon class="cls-10" points="544.72 82.93 544.72 82.93 542.58 80.75 540.99 80.75 543.13 82.93 543.13 82.93 543.13 90.29 543.13 90.29 540.99 92.48 542.58 92.48 544.7 90.31 544.72 90.31 544.72 82.93"/><rect class="cls-11" x="544.88" y="83.55" width="1.87" height="6.13"/><polygon class="cls-9" points="547.13 116.61 547.13 108.69 544.83 106.39 528.5 106.39 528.5 118.93 544.81 118.93 547.13 116.61"/><polygon class="cls-10" points="544.72 109 544.72 109 542.58 106.81 540.99 106.81 543.13 109 543.13 109 543.13 116.35 543.13 116.35 540.99 118.54 542.58 118.54 544.7 116.37 544.72 116.37 544.72 109"/><rect class="cls-11" x="544.88" y="109.61" width="1.87" height="6.13"/><polygon class="cls-9" points="547.13 64.95 547.13 57.03 544.83 54.73 528.5 54.73 528.5 67.27 544.81 67.27 547.13 64.95"/><polygon class="cls-10" points="544.72 57.33 544.72 57.33 542.58 55.14 540.99 55.14 543.13 57.33 543.13 57.33 543.13 64.69 543.13 64.69 540.99 66.88 542.58 66.88 544.7 64.71 544.72 64.71 544.72 57.33"/><rect class="cls-11" x="544.88" y="57.95" width="1.87" height="6.13"/><polygon class="cls-9" points="547.12 51.98 547.12 44.06 544.82 41.76 528.49 41.76 528.49 54.29 544.8 54.29 547.12 51.98"/><polygon class="cls-10" points="544.71 44.36 544.71 44.36 542.57 42.17 540.98 42.17 543.12 44.36 543.12 44.36 543.12 51.72 543.12 51.72 540.98 53.91 542.57 53.91 544.69 51.74 544.71 51.74 544.71 44.36"/><rect class="cls-11" x="544.87" y="44.98" width="1.87" height="6.13"/><polygon class="cls-9" points="150.33 103.46 150.33 95.54 148.03 93.24 131.7 93.24 131.7 105.78 148.01 105.78 150.33 103.46"/><polygon class="cls-10" points="147.93 95.84 147.92 95.84 145.78 93.65 144.19 93.65 146.33 95.84 146.33 95.84 146.33 103.2 146.33 103.2 144.19 105.39 145.78 105.39 147.9 103.22 147.93 103.22 147.93 95.84"/><rect class="cls-11" x="148.08" y="96.46" width="1.87" height="6.13"/><polygon class="cls-9" points="150.33 116.55 150.33 108.63 148.03 106.33 131.7 106.33 131.7 118.87 148.01 118.87 150.33 116.55"/><polygon class="cls-10" points="147.93 108.94 147.92 108.94 145.78 106.75 144.19 106.75 146.33 108.94 146.33 108.94 146.33 116.29 146.33 116.29 144.19 118.48 145.78 118.48 147.9 116.31 147.93 116.31 147.93 108.94"/><rect class="cls-11" x="148.08" y="109.55" width="1.87" height="6.13"/><polygon class="cls-9" points="150.33 64.89 150.33 56.97 148.03 54.67 131.7 54.67 131.7 67.21 148.01 67.21 150.33 64.89"/><polygon class="cls-10" points="147.92 57.27 147.92 57.27 145.78 55.08 144.19 55.08 146.33 57.27 146.33 57.27 146.33 64.63 146.33 64.63 144.19 66.82 145.78 66.82 147.9 64.65 147.92 64.65 147.92 57.27"/><rect class="cls-11" x="148.08" y="57.89" width="1.87" height="6.13"/><polygon class="cls-9" points="150.32 51.92 150.32 44 148.02 41.69 131.69 41.69 131.69 54.23 148 54.23 150.32 51.92"/><polygon class="cls-10" points="147.91 44.3 147.91 44.3 145.77 42.11 144.18 42.11 146.32 44.3 146.32 44.3 146.32 51.66 146.32 51.66 144.18 53.85 145.77 53.85 147.89 51.68 147.91 51.68 147.91 44.3"/><rect class="cls-11" x="148.07" y="44.91" width="1.87" height="6.13"/><polygon class="cls-9" points="396.69 57.16 396.69 65.08 394.39 67.38 378.06 67.38 378.06 54.84 394.37 54.84 396.69 57.16"/><polygon class="cls-10" points="394.28 64.77 394.27 64.77 392.13 66.96 390.54 66.96 392.68 64.77 392.69 64.77 392.69 57.42 392.68 57.42 390.54 55.23 392.13 55.23 394.25 57.4 394.28 57.4 394.28 64.77"/><rect class="cls-11" x="394.44" y="58.03" width="1.87" height="6.13"/><polygon class="cls-9" points="396.69 70.13 396.69 78.05 394.39 80.35 378.06 80.35 378.06 67.81 394.37 67.81 396.69 70.13"/><polygon class="cls-10" points="394.28 77.74 394.28 77.74 392.13 79.93 390.55 79.93 392.69 77.74 392.69 77.74 392.69 70.39 392.69 70.39 390.55 68.2 392.13 68.2 394.25 70.37 394.28 70.37 394.28 77.74"/><rect class="cls-11" x="394.44" y="71" width="1.87" height="6.13"/><polygon class="cls-9" points="396.69 44.07 396.69 51.98 394.39 54.29 378.06 54.29 378.06 41.75 394.37 41.75 396.69 44.07"/><polygon class="cls-10" points="394.28 51.68 394.27 51.68 392.13 53.87 390.54 53.87 392.68 51.68 392.69 51.68 392.69 44.33 392.68 44.33 390.54 42.14 392.13 42.14 394.25 44.31 394.28 44.31 394.28 51.68"/><rect class="cls-11" x="394.44" y="44.94" width="1.87" height="6.13"/><polygon class="cls-9" points="396.69 95.73 396.69 103.65 394.39 105.95 378.06 105.95 378.06 93.41 394.37 93.41 396.69 95.73"/><polygon class="cls-10" points="394.28 103.34 394.27 103.34 392.13 105.54 390.54 105.54 392.68 103.34 392.69 103.34 392.69 95.99 392.68 95.99 390.54 93.8 392.13 93.8 394.25 95.97 394.28 95.97 394.28 103.34"/><rect class="cls-11" x="394.43" y="96.6" width="1.87" height="6.13"/><polygon class="cls-9" points="396.68 108.7 396.68 116.62 394.38 118.92 378.05 118.92 378.05 106.38 394.36 106.38 396.68 108.7"/><polygon class="cls-10" points="394.27 116.32 394.26 116.32 392.12 118.51 390.54 118.51 392.67 116.32 392.68 116.32 392.68 108.96 392.67 108.96 390.54 106.77 392.12 106.77 394.24 108.94 394.27 108.94 394.27 116.32"/><rect class="cls-11" x="394.43" y="109.57" width="1.87" height="6.13"/><polygon class="cls-9" points="373.33 57.16 373.33 65.08 371.03 67.38 354.7 67.38 354.7 54.84 371.01 54.84 373.33 57.16"/><polygon class="cls-10" points="370.92 64.77 370.92 64.77 368.77 66.96 367.18 66.96 369.32 64.77 369.33 64.77 369.33 57.42 369.32 57.42 367.18 55.23 368.77 55.23 370.89 57.4 370.92 57.4 370.92 64.77"/><rect class="cls-11" x="371.08" y="58.03" width="1.87" height="6.13"/><polygon class="cls-9" points="373.33 70.13 373.33 78.05 371.03 80.35 354.7 80.35 354.7 67.81 371.01 67.81 373.33 70.13"/><polygon class="cls-10" points="370.92 77.74 370.92 77.74 368.78 79.93 367.19 79.93 369.33 77.74 369.33 77.74 369.33 70.39 369.33 70.39 367.19 68.2 368.78 68.2 370.9 70.37 370.92 70.37 370.92 77.74"/><rect class="cls-11" x="371.08" y="71" width="1.87" height="6.13"/><polygon class="cls-9" points="373.33 44.07 373.33 51.98 371.03 54.29 354.7 54.29 354.7 41.75 371.01 41.75 373.33 44.07"/><polygon class="cls-10" points="370.92 51.68 370.92 51.68 368.77 53.87 367.18 53.87 369.32 51.68 369.33 51.68 369.33 44.33 369.32 44.33 367.18 42.14 368.77 42.14 370.89 44.31 370.92 44.31 370.92 51.68"/><rect class="cls-11" x="371.08" y="44.94" width="1.87" height="6.13"/><polygon class="cls-9" points="373.33 95.73 373.33 103.65 371.03 105.95 354.7 105.95 354.7 93.41 371.01 93.41 373.33 95.73"/><polygon class="cls-10" points="370.92 103.34 370.91 103.34 368.77 105.54 367.18 105.54 369.32 103.34 369.33 103.34 369.33 95.99 369.32 95.99 367.18 93.8 368.77 93.8 370.89 95.97 370.92 95.97 370.92 103.34"/><rect class="cls-11" x="371.08" y="96.6" width="1.87" height="6.13"/><polygon class="cls-9" points="373.32 108.7 373.32 116.62 371.02 118.92 354.69 118.92 354.69 106.38 371 106.38 373.32 108.7"/><polygon class="cls-10" points="370.91 116.32 370.9 116.32 368.76 118.51 367.18 118.51 369.31 116.32 369.32 116.32 369.32 108.96 369.31 108.96 367.18 106.77 368.76 106.77 370.88 108.94 370.91 108.94 370.91 116.32"/><rect class="cls-11" x="371.07" y="109.57" width="1.87" height="6.13"/><polygon class="cls-9" points="349.72 57.16 349.72 65.08 347.42 67.38 331.09 67.38 331.09 54.84 347.4 54.84 349.72 57.16"/><polygon class="cls-10" points="347.31 64.77 347.31 64.77 345.17 66.96 343.57 66.96 345.71 64.77 345.72 64.77 345.72 57.42 345.71 57.42 343.57 55.23 345.17 55.23 347.29 57.4 347.31 57.4 347.31 64.77"/><rect class="cls-11" x="347.47" y="58.03" width="1.87" height="6.13"/><polygon class="cls-9" points="349.72 70.13 349.72 78.05 347.42 80.35 331.09 80.35 331.09 67.81 347.4 67.81 349.72 70.13"/><polygon class="cls-10" points="347.31 77.74 347.31 77.74 345.17 79.93 343.58 79.93 345.72 77.74 345.72 77.74 345.72 70.39 345.72 70.39 343.58 68.2 345.17 68.2 347.29 70.37 347.31 70.37 347.31 77.74"/><rect class="cls-11" x="347.47" y="71" width="1.87" height="6.13"/><polygon class="cls-9" points="349.72 44.07 349.72 51.98 347.42 54.29 331.09 54.29 331.09 41.75 347.4 41.75 349.72 44.07"/><polygon class="cls-10" points="347.31 51.68 347.31 51.68 345.17 53.87 343.57 53.87 345.71 51.68 345.72 51.68 345.72 44.33 345.71 44.33 343.57 42.14 345.17 42.14 347.29 44.31 347.31 44.31 347.31 51.68"/><rect class="cls-11" x="347.47" y="44.94" width="1.87" height="6.13"/><polygon class="cls-9" points="349.72 95.73 349.72 103.65 347.42 105.95 331.09 105.95 331.09 93.41 347.4 93.41 349.72 95.73"/><polygon class="cls-10" points="347.31 103.34 347.31 103.34 345.16 105.54 343.57 105.54 345.71 103.34 345.72 103.34 345.72 95.99 345.71 95.99 343.57 93.8 345.16 93.8 347.28 95.97 347.31 95.97 347.31 103.34"/><rect class="cls-11" x="347.47" y="96.6" width="1.87" height="6.13"/><polygon class="cls-9" points="349.71 108.7 349.71 116.62 347.41 118.92 331.08 118.92 331.08 106.38 347.39 106.38 349.71 108.7"/><polygon class="cls-10" points="347.3 116.32 347.3 116.32 345.15 118.51 343.57 118.51 345.71 116.32 345.71 116.32 345.71 108.96 345.71 108.96 343.57 106.77 345.15 106.77 347.28 108.94 347.3 108.94 347.3 116.32"/><rect class="cls-11" x="347.46" y="109.57" width="1.87" height="6.13"/><polygon class="cls-9" points="326.7 95.73 326.7 103.65 324.4 105.95 308.07 105.95 308.07 93.41 324.38 93.41 326.7 95.73"/><polygon class="cls-10" points="324.29 103.34 324.29 103.34 322.15 105.54 320.56 105.54 322.7 103.34 322.7 103.34 322.7 95.99 322.7 95.99 320.56 93.8 322.15 93.8 324.27 95.97 324.29 95.97 324.29 103.34"/><rect class="cls-11" x="324.45" y="96.6" width="1.87" height="6.13"/><polygon class="cls-9" points="326.69 108.7 326.69 116.62 324.39 118.92 308.06 118.92 308.06 106.38 324.38 106.38 326.69 108.7"/><polygon class="cls-10" points="324.29 116.32 324.28 116.32 322.14 118.51 320.55 118.51 322.69 116.32 322.7 116.32 322.7 108.96 322.69 108.96 320.55 106.77 322.14 106.77 324.26 108.94 324.29 108.94 324.29 116.32"/><rect class="cls-11" x="324.44" y="109.57" width="1.87" height="6.13"/></g><g id="Symboler-3" data-name="Symboler"><polygon class="cls-12" points="158.9 119.58 158.9 119.58 146.24 119.58 146.24 120.73 157.29 120.73 157.29 123.48 158.91 123.48 158.91 119.58 158.9 119.58"/><rect class="cls-12" x="159.26" y="36.45" width="15.44" height="2.28"/><rect class="cls-12" x="146.35" y="36.66" width="11.58" height="2.1"/><path class="cls-13" d="M47.59,126.78a1.93,1.93,0,1,1-2,1.93A1.95,1.95,0,0,1,47.59,126.78Z"/><rect class="cls-14" x="413.65" y="125.38" width="31.11" height="31.15"/><rect class="cls-8" x="427.79" y="154.02" width="16.98" height="2.51"/><rect class="cls-8" x="413.59" y="154.25" width="12.73" height="2.32"/><polygon class="cls-8" points="426.31 125.39 426.31 125.38 413.65 125.38 413.65 126.53 424.7 126.53 424.7 129.28 426.32 129.28 426.32 125.39 426.31 125.39"/><path class="cls-8" d="M429,134a1.79,1.79,0,1,0-1.78-1.79A1.79,1.79,0,0,0,429,134"/><path class="cls-8" d="M432.72,142.34a.71.71,0,0,1,.62-.35l-2.73-6.33a1.8,1.8,0,0,1,.12.62v5l.92,1.94a1,1,0,0,0,1.33.54,1,1,0,0,0,.33-.23l-.33-.2a.71.71,0,0,1-.26-1"/><path class="cls-8" d="M436.51,140.51A1.5,1.5,0,1,0,435,139a1.49,1.49,0,0,0,1.49,1.5"/><path class="cls-8" d="M435.36,147l-1.86,5.64a.72.72,0,0,0,.48.9.71.71,0,0,0,.89-.46l1.45-4.48-.33-1a1.21,1.21,0,0,1-.63-.57"/><path class="cls-8" d="M439.13,152.67l-1.75-5.33a1.26,1.26,0,0,1-.75.33l-.31,1,1.45,4.48a.71.71,0,0,0,.89.46.72.72,0,0,0,.47-.9"/><path class="cls-8" d="M436.51,147.69h-.07a1.22,1.22,0,0,1-.46-.09l.34,1,.31-1-.12,0"/><path class="cls-8" d="M436.51,147.69h-.07a1.22,1.22,0,0,1-.46-.09l.34,1,.31-1-.12,0"/><path class="cls-8" d="M436.32,147l.91-.06.15.44a1.27,1.27,0,0,0,.37-.9v-4.29a1.24,1.24,0,0,0-1.24-1.25h-.07a1.25,1.25,0,0,0-1.25,1.25v.7l.25.13v1.78l-.25-.14v1.82a1.19,1.19,0,0,0,.17.59l0-.13Z"/><path class="cls-8" d="M436,147.6l-.19-.61.53,0-.92-.06,0,.13a1.23,1.23,0,0,0,.62.57"/><path class="cls-8" d="M436,147.6l-.19-.61.53,0-.92-.06,0,.13a1.23,1.23,0,0,0,.62.57"/><path class="cls-8" d="M436.32,147l.53,0-.22.68a1.26,1.26,0,0,0,.75-.33l-.15-.44Z"/><path class="cls-8" d="M436.32,147l.53,0-.22.68a1.26,1.26,0,0,0,.75-.33l-.15-.44Z"/><path class="cls-8" d="M436.32,147l-.53,0,.19.61a1.22,1.22,0,0,0,.46.09h.07l.12,0,.22-.68Z"/><path class="cls-8" d="M436.32,147l-.53,0,.19.61a1.22,1.22,0,0,0,.46.09h.07l.12,0,.22-.68Z"/><path class="cls-8" d="M436.32,147l-.53,0,.19.61a1.22,1.22,0,0,0,.46.09h.07l.12,0,.22-.68Z"/><path class="cls-8" d="M433.69,142.08a.63.63,0,0,0-.35-.09l.18.41a1,1,0,0,1-.21,1.11l1.88,1.11v-1.76Z"/><path class="cls-8" d="M433.52,142.4l-.18-.41a.71.71,0,0,0-.36,1.32l.33.2a1,1,0,0,0,.21-1.11"/><path class="cls-8" d="M433.52,142.4l-.18-.41a.71.71,0,0,0-.36,1.32l.33.2a1,1,0,0,0,.21-1.11"/><polygon class="cls-8" points="435.19 144.62 435.44 144.76 435.44 142.98 435.19 142.85 435.19 144.62"/><polygon class="cls-8" points="435.19 144.62 435.44 144.76 435.44 142.98 435.19 142.85 435.19 144.62"/><path class="cls-8" d="M427.14,144v-.37l-4.05,7.54a1.06,1.06,0,0,0,.46,1.42,1,1,0,0,0,1.41-.44L428.2,146l-.29-2Z"/><path class="cls-8" d="M429.28,144l-1.08,2,.95,6.85a1,1,0,0,0,1.17.9,1.06,1.06,0,0,0,.92-1.18L430,143.89a.57.57,0,0,1-.13.08Z"/><polygon class="cls-8" points="427.91 143.97 428.2 146.01 429.28 143.97 427.91 143.97"/><polygon class="cls-8" points="427.91 143.97 428.2 146.01 429.28 143.97 427.91 143.97"/><path class="cls-8" d="M430.6,135.63v0a1.77,1.77,0,0,0-1.66-1.17,1.79,1.79,0,0,0-1.78,1.79v1.27l-3.51,2.07a1,1,0,0,0-.37,1.39,1,1,0,0,0,1.38.37l2.5-1.29v2.81h0l0,0v.68l.18-.33,1.3.32,1.34.15,0,.15a1.38,1.38,0,0,0,.75-1.39v-1.24l-.78-1.63Z"/><path class="cls-8" d="M430.61,135.66v0l-.65,4,.78,1.63v-5a1.8,1.8,0,0,0-.12-.62"/><path class="cls-8" d="M430.61,135.66v0l-.65,4,.78,1.63v-5a1.8,1.8,0,0,0-.12-.62"/><polygon class="cls-8" points="427.14 143.6 427.14 143.97 427.91 143.97 427.85 143.5 428.62 143.59 427.32 143.27 427.14 143.6"/><polygon class="cls-8" points="427.14 143.6 427.14 143.97 427.91 143.97 427.85 143.5 428.62 143.59 427.32 143.27 427.14 143.6"/><path class="cls-8" d="M428.62,143.59l.76.18-.1.2h.57a.57.57,0,0,0,.13-.08l0-.16Z"/><path class="cls-8" d="M428.62,143.59l.76.18-.1.2h.57a.57.57,0,0,0,.13-.08l0-.16Z"/><polygon class="cls-8" points="427.91 143.97 429.28 143.97 429.38 143.78 428.62 143.59 427.85 143.5 427.91 143.97"/><polygon class="cls-8" points="427.91 143.97 429.28 143.97 429.38 143.78 428.62 143.59 427.85 143.5 427.91 143.97"/><polygon class="cls-8" points="427.91 143.97 429.28 143.97 429.38 143.78 428.62 143.59 427.85 143.5 427.91 143.97"/><rect class="cls-14" x="411.65" y="4.38" width="31.11" height="31.15"/><rect class="cls-8" x="425.79" y="33.02" width="16.98" height="2.51"/><rect class="cls-8" x="411.59" y="33.25" width="12.73" height="2.32"/><polygon class="cls-8" points="424.31 4.39 424.31 4.38 411.65 4.38 411.65 5.53 422.7 5.53 422.7 8.28 424.32 8.28 424.32 4.39 424.31 4.39"/><path class="cls-8" d="M427,13a1.79,1.79,0,1,0-1.78-1.79A1.79,1.79,0,0,0,427,13"/><path class="cls-8" d="M430.72,21.34a.71.71,0,0,1,.62-.35l-2.73-6.33a1.8,1.8,0,0,1,.12.62v5l.92,1.94a1,1,0,0,0,1.33.54,1,1,0,0,0,.33-.23l-.33-.2a.71.71,0,0,1-.26-1"/><path class="cls-8" d="M434.51,19.51A1.5,1.5,0,1,0,433,18a1.49,1.49,0,0,0,1.49,1.5"/><path class="cls-8" d="M433.36,26l-1.86,5.64a.72.72,0,0,0,.48.9.71.71,0,0,0,.89-.46l1.45-4.48-.33-1a1.21,1.21,0,0,1-.63-.57"/><path class="cls-8" d="M437.13,31.67l-1.75-5.33a1.26,1.26,0,0,1-.75.33l-.31,1,1.45,4.48a.71.71,0,0,0,.89.46.72.72,0,0,0,.47-.9"/><path class="cls-8" d="M434.51,26.69h-.07a1.22,1.22,0,0,1-.46-.09l.34,1,.31-1-.12,0"/><path class="cls-8" d="M434.51,26.69h-.07a1.22,1.22,0,0,1-.46-.09l.34,1,.31-1-.12,0"/><path class="cls-8" d="M434.32,26l.91-.06.15.44a1.27,1.27,0,0,0,.37-.9V21.15a1.24,1.24,0,0,0-1.24-1.25h-.07a1.25,1.25,0,0,0-1.25,1.25v.7l.25.13v1.78l-.25-.14v1.82a1.19,1.19,0,0,0,.17.59l0-.13Z"/><path class="cls-8" d="M434,26.6l-.19-.61.53,0-.92-.06,0,.13a1.23,1.23,0,0,0,.62.57"/><path class="cls-8" d="M434,26.6l-.19-.61.53,0-.92-.06,0,.13a1.23,1.23,0,0,0,.62.57"/><path class="cls-8" d="M434.32,26l.53,0-.22.68a1.26,1.26,0,0,0,.75-.33l-.15-.44Z"/><path class="cls-8" d="M434.32,26l.53,0-.22.68a1.26,1.26,0,0,0,.75-.33l-.15-.44Z"/><path class="cls-8" d="M434.32,26l-.53,0,.19.61a1.22,1.22,0,0,0,.46.09h.07l.12,0,.22-.68Z"/><path class="cls-8" d="M434.32,26l-.53,0,.19.61a1.22,1.22,0,0,0,.46.09h.07l.12,0,.22-.68Z"/><path class="cls-8" d="M434.32,26l-.53,0,.19.61a1.22,1.22,0,0,0,.46.09h.07l.12,0,.22-.68Z"/><path class="cls-8" d="M431.69,21.08a.63.63,0,0,0-.35-.09l.18.41a1,1,0,0,1-.21,1.11l1.88,1.11V21.86Z"/><path class="cls-8" d="M431.52,21.4l-.18-.41a.71.71,0,0,0-.36,1.32l.33.2a1,1,0,0,0,.21-1.11"/><path class="cls-8" d="M431.52,21.4l-.18-.41a.71.71,0,0,0-.36,1.32l.33.2a1,1,0,0,0,.21-1.11"/><polygon class="cls-8" points="433.19 23.62 433.44 23.76 433.44 21.98 433.19 21.85 433.19 23.62"/><polygon class="cls-8" points="433.19 23.62 433.44 23.76 433.44 21.98 433.19 21.85 433.19 23.62"/><path class="cls-8" d="M425.14,23V22.6l-4.05,7.54a1.06,1.06,0,0,0,.46,1.42,1,1,0,0,0,1.41-.44L426.2,25l-.29-2Z"/><path class="cls-8" d="M427.28,23l-1.08,2,.95,6.85a1,1,0,0,0,1.17.9,1.06,1.06,0,0,0,.92-1.18L428,22.89a.57.57,0,0,1-.13.08Z"/><polygon class="cls-8" points="425.91 22.97 426.2 25.01 427.28 22.97 425.91 22.97"/><polygon class="cls-8" points="425.91 22.97 426.2 25.01 427.28 22.97 425.91 22.97"/><path class="cls-8" d="M428.6,14.63v0A1.77,1.77,0,0,0,427,13.49a1.79,1.79,0,0,0-1.78,1.79v1.27l-3.51,2.07a1,1,0,0,0-.37,1.39,1,1,0,0,0,1.38.37l2.5-1.29V21.9h0l0,0v.68l.18-.33,1.3.32,1.34.15,0,.15a1.38,1.38,0,0,0,.75-1.39V20.26L428,18.63Z"/><path class="cls-8" d="M428.61,14.66v0l-.65,4,.78,1.63v-5a1.8,1.8,0,0,0-.12-.62"/><path class="cls-8" d="M428.61,14.66v0l-.65,4,.78,1.63v-5a1.8,1.8,0,0,0-.12-.62"/><polygon class="cls-8" points="425.14 22.6 425.14 22.97 425.91 22.97 425.85 22.5 426.62 22.59 425.32 22.27 425.14 22.6"/><polygon class="cls-8" points="425.14 22.6 425.14 22.97 425.91 22.97 425.85 22.5 426.62 22.59 425.32 22.27 425.14 22.6"/><path class="cls-8" d="M426.62,22.59l.76.18-.1.2h.57a.57.57,0,0,0,.13-.08l0-.16Z"/><path class="cls-8" d="M426.62,22.59l.76.18-.1.2h.57a.57.57,0,0,0,.13-.08l0-.16Z"/><polygon class="cls-8" points="425.91 22.97 427.28 22.97 427.38 22.77 426.62 22.59 425.85 22.5 425.91 22.97"/><polygon class="cls-8" points="425.91 22.97 427.28 22.97 427.38 22.77 426.62 22.59 425.85 22.5 425.91 22.97"/><polygon class="cls-8" points="425.91 22.97 427.28 22.97 427.38 22.77 426.62 22.59 425.85 22.5 425.91 22.97"/><rect class="cls-14" x="165.65" y="125.38" width="31.11" height="31.15"/><rect class="cls-8" x="179.79" y="154.02" width="16.98" height="2.51"/><rect class="cls-8" x="165.59" y="154.25" width="12.73" height="2.32"/><polygon class="cls-8" points="178.31 125.39 178.31 125.38 165.66 125.38 165.66 126.53 176.7 126.53 176.7 129.28 178.32 129.28 178.32 125.39 178.31 125.39"/><path class="cls-8" d="M181,134a1.79,1.79,0,1,0-1.78-1.79A1.79,1.79,0,0,0,181,134"/><path class="cls-8" d="M184.72,142.34a.71.71,0,0,1,.62-.35l-2.73-6.33a1.8,1.8,0,0,1,.12.62v5l.92,1.94a1,1,0,0,0,1.33.54,1,1,0,0,0,.33-.23l-.33-.2a.71.71,0,0,1-.26-1"/><path class="cls-8" d="M188.51,140.51A1.5,1.5,0,1,0,187,139a1.49,1.49,0,0,0,1.49,1.5"/><path class="cls-8" d="M187.36,147l-1.86,5.64a.72.72,0,0,0,.48.9.71.71,0,0,0,.89-.46l1.45-4.48-.33-1a1.21,1.21,0,0,1-.63-.57"/><path class="cls-8" d="M191.13,152.67l-1.75-5.33a1.26,1.26,0,0,1-.75.33l-.31,1,1.45,4.48a.71.71,0,0,0,.89.46.72.72,0,0,0,.47-.9"/><path class="cls-8" d="M188.51,147.69h-.07a1.22,1.22,0,0,1-.46-.09l.34,1,.31-1-.12,0"/><path class="cls-8" d="M188.51,147.69h-.07a1.22,1.22,0,0,1-.46-.09l.34,1,.31-1-.12,0"/><path class="cls-8" d="M188.32,147l.91-.06.15.44a1.27,1.27,0,0,0,.37-.9v-4.29a1.24,1.24,0,0,0-1.24-1.25h-.07a1.25,1.25,0,0,0-1.25,1.25v.7l.25.13v1.78l-.25-.14v1.82a1.19,1.19,0,0,0,.17.59l0-.13Z"/><path class="cls-8" d="M188,147.6l-.19-.61.53,0-.92-.06,0,.13a1.23,1.23,0,0,0,.62.57"/><path class="cls-8" d="M188,147.6l-.19-.61.53,0-.92-.06,0,.13a1.23,1.23,0,0,0,.62.57"/><path class="cls-8" d="M188.32,147l.53,0-.22.68a1.26,1.26,0,0,0,.75-.33l-.15-.44Z"/><path class="cls-8" d="M188.32,147l.53,0-.22.68a1.26,1.26,0,0,0,.75-.33l-.15-.44Z"/><path class="cls-8" d="M188.32,147l-.53,0,.19.61a1.22,1.22,0,0,0,.46.09h.07l.12,0,.22-.68Z"/><path class="cls-8" d="M188.32,147l-.53,0,.19.61a1.22,1.22,0,0,0,.46.09h.07l.12,0,.22-.68Z"/><path class="cls-8" d="M188.32,147l-.53,0,.19.61a1.22,1.22,0,0,0,.46.09h.07l.12,0,.22-.68Z"/><path class="cls-8" d="M185.69,142.08a.63.63,0,0,0-.35-.09l.18.41a1,1,0,0,1-.21,1.11l1.88,1.11v-1.76Z"/><path class="cls-8" d="M185.52,142.4l-.18-.41a.71.71,0,0,0-.36,1.32l.33.2a1,1,0,0,0,.21-1.11"/><path class="cls-8" d="M185.52,142.4l-.18-.41a.71.71,0,0,0-.36,1.32l.33.2a1,1,0,0,0,.21-1.11"/><polygon class="cls-8" points="187.19 144.62 187.44 144.76 187.44 142.98 187.19 142.85 187.19 144.62"/><polygon class="cls-8" points="187.19 144.62 187.44 144.76 187.44 142.98 187.19 142.85 187.19 144.62"/><path class="cls-8" d="M179.14,144v-.37l-4,7.54a1.06,1.06,0,0,0,.46,1.42,1,1,0,0,0,1.41-.44L180.2,146l-.29-2Z"/><path class="cls-8" d="M181.28,144l-1.08,2,1,6.85a1,1,0,0,0,1.17.9,1.06,1.06,0,0,0,.92-1.18L182,143.89a.57.57,0,0,1-.13.08Z"/><polygon class="cls-8" points="179.91 143.97 180.2 146.01 181.28 143.97 179.91 143.97"/><polygon class="cls-8" points="179.91 143.97 180.2 146.01 181.28 143.97 179.91 143.97"/><path class="cls-8" d="M182.6,135.63v0a1.77,1.77,0,0,0-1.66-1.17,1.79,1.79,0,0,0-1.78,1.79v1.27l-3.51,2.07a1,1,0,0,0-.37,1.39,1,1,0,0,0,1.38.37l2.5-1.29v2.81h0l0,0v.68l.18-.33,1.3.32,1.34.15,0,.15a1.38,1.38,0,0,0,.75-1.39v-1.24l-.78-1.63Z"/><path class="cls-8" d="M182.61,135.66v0l-.65,4,.78,1.63v-5a1.8,1.8,0,0,0-.12-.62"/><path class="cls-8" d="M182.61,135.66v0l-.65,4,.78,1.63v-5a1.8,1.8,0,0,0-.12-.62"/><polygon class="cls-8" points="179.14 143.6 179.14 143.97 179.91 143.97 179.85 143.5 180.62 143.59 179.32 143.27 179.14 143.6"/><polygon class="cls-8" points="179.14 143.6 179.14 143.97 179.91 143.97 179.85 143.5 180.62 143.59 179.32 143.27 179.14 143.6"/><path class="cls-8" d="M180.62,143.59l.76.18-.1.2h.57a.57.57,0,0,0,.13-.08l0-.16Z"/><path class="cls-8" d="M180.62,143.59l.76.18-.1.2h.57a.57.57,0,0,0,.13-.08l0-.16Z"/><polygon class="cls-8" points="179.91 143.97 181.28 143.97 181.38 143.78 180.62 143.59 179.85 143.5 179.91 143.97"/><polygon class="cls-8" points="179.91 143.97 181.28 143.97 181.38 143.78 180.62 143.59 179.85 143.5 179.91 143.97"/><polygon class="cls-8" points="179.91 143.97 181.28 143.97 181.38 143.78 180.62 143.59 179.85 143.5 179.91 143.97"/><rect class="cls-14" x="163.65" y="4.38" width="31.11" height="31.15"/><rect class="cls-8" x="177.79" y="33.02" width="16.98" height="2.51"/><rect class="cls-8" x="163.59" y="33.25" width="12.73" height="2.32"/><polygon class="cls-8" points="176.31 4.39 176.31 4.38 163.66 4.38 163.66 5.53 174.7 5.53 174.7 8.28 176.32 8.28 176.32 4.39 176.31 4.39"/><path class="cls-8" d="M179,13a1.79,1.79,0,1,0-1.78-1.79A1.79,1.79,0,0,0,179,13"/><path class="cls-8" d="M182.72,21.34a.71.71,0,0,1,.62-.35l-2.73-6.33a1.8,1.8,0,0,1,.12.62v5l.92,1.94a1,1,0,0,0,1.33.54,1,1,0,0,0,.33-.23l-.33-.2a.71.71,0,0,1-.26-1"/><path class="cls-8" d="M186.51,19.51A1.5,1.5,0,1,0,185,18a1.49,1.49,0,0,0,1.49,1.5"/><path class="cls-8" d="M185.36,26l-1.86,5.64a.72.72,0,0,0,.48.9.71.71,0,0,0,.89-.46l1.45-4.48-.33-1a1.21,1.21,0,0,1-.63-.57"/><path class="cls-8" d="M189.13,31.67l-1.75-5.33a1.26,1.26,0,0,1-.75.33l-.31,1,1.45,4.48a.71.71,0,0,0,.89.46.72.72,0,0,0,.47-.9"/><path class="cls-8" d="M186.51,26.69h-.07a1.22,1.22,0,0,1-.46-.09l.34,1,.31-1-.12,0"/><path class="cls-8" d="M186.51,26.69h-.07a1.22,1.22,0,0,1-.46-.09l.34,1,.31-1-.12,0"/><path class="cls-8" d="M186.32,26l.91-.06.15.44a1.27,1.27,0,0,0,.37-.9V21.15a1.24,1.24,0,0,0-1.24-1.25h-.07a1.25,1.25,0,0,0-1.25,1.25v.7l.25.13v1.78l-.25-.14v1.82a1.19,1.19,0,0,0,.17.59l0-.13Z"/><path class="cls-8" d="M186,26.6l-.19-.61.53,0-.92-.06,0,.13a1.23,1.23,0,0,0,.62.57"/><path class="cls-8" d="M186,26.6l-.19-.61.53,0-.92-.06,0,.13a1.23,1.23,0,0,0,.62.57"/><path class="cls-8" d="M186.32,26l.53,0-.22.68a1.26,1.26,0,0,0,.75-.33l-.15-.44Z"/><path class="cls-8" d="M186.32,26l.53,0-.22.68a1.26,1.26,0,0,0,.75-.33l-.15-.44Z"/><path class="cls-8" d="M186.32,26l-.53,0,.19.61a1.22,1.22,0,0,0,.46.09h.07l.12,0,.22-.68Z"/><path class="cls-8" d="M186.32,26l-.53,0,.19.61a1.22,1.22,0,0,0,.46.09h.07l.12,0,.22-.68Z"/><path class="cls-8" d="M186.32,26l-.53,0,.19.61a1.22,1.22,0,0,0,.46.09h.07l.12,0,.22-.68Z"/><path class="cls-8" d="M183.69,21.08a.63.63,0,0,0-.35-.09l.18.41a1,1,0,0,1-.21,1.11l1.88,1.11V21.86Z"/><path class="cls-8" d="M183.52,21.4l-.18-.41a.71.71,0,0,0-.36,1.32l.33.2a1,1,0,0,0,.21-1.11"/><path class="cls-8" d="M183.52,21.4l-.18-.41a.71.71,0,0,0-.36,1.32l.33.2a1,1,0,0,0,.21-1.11"/><polygon class="cls-8" points="185.19 23.62 185.44 23.76 185.44 21.98 185.19 21.85 185.19 23.62"/><polygon class="cls-8" points="185.19 23.62 185.44 23.76 185.44 21.98 185.19 21.85 185.19 23.62"/><path class="cls-8" d="M177.14,23V22.6l-4,7.54a1.06,1.06,0,0,0,.46,1.42,1,1,0,0,0,1.41-.44L178.2,25l-.29-2Z"/><path class="cls-8" d="M179.28,23l-1.08,2,1,6.85a1,1,0,0,0,1.17.9,1.06,1.06,0,0,0,.92-1.18L180,22.89a.57.57,0,0,1-.13.08Z"/><polygon class="cls-8" points="177.91 22.97 178.2 25.01 179.28 22.97 177.91 22.97"/><polygon class="cls-8" points="177.91 22.97 178.2 25.01 179.28 22.97 177.91 22.97"/><path class="cls-8" d="M180.6,14.63v0A1.77,1.77,0,0,0,179,13.49a1.79,1.79,0,0,0-1.78,1.79v1.27l-3.51,2.07a1,1,0,0,0-.37,1.39,1,1,0,0,0,1.38.37l2.5-1.29V21.9h0l0,0v.68l.18-.33,1.3.32,1.34.15,0,.15a1.38,1.38,0,0,0,.75-1.39V20.26L180,18.63Z"/><path class="cls-8" d="M180.61,14.66v0l-.65,4,.78,1.63v-5a1.8,1.8,0,0,0-.12-.62"/><path class="cls-8" d="M180.61,14.66v0l-.65,4,.78,1.63v-5a1.8,1.8,0,0,0-.12-.62"/><polygon class="cls-8" points="177.14 22.6 177.14 22.97 177.91 22.97 177.85 22.5 178.62 22.59 177.32 22.27 177.14 22.6"/><polygon class="cls-8" points="177.14 22.6 177.14 22.97 177.91 22.97 177.85 22.5 178.62 22.59 177.32 22.27 177.14 22.6"/><path class="cls-8" d="M178.62,22.59l.76.18-.1.2h.57a.57.57,0,0,0,.13-.08l0-.16Z"/><path class="cls-8" d="M178.62,22.59l.76.18-.1.2h.57a.57.57,0,0,0,.13-.08l0-.16Z"/><polygon class="cls-8" points="177.91 22.97 179.28 22.97 179.38 22.77 178.62 22.59 177.85 22.5 177.91 22.97"/><polygon class="cls-8" points="177.91 22.97 179.28 22.97 179.38 22.77 178.62 22.59 177.85 22.5 177.91 22.97"/><polygon class="cls-8" points="177.91 22.97 179.28 22.97 179.38 22.77 178.62 22.59 177.85 22.5 177.91 22.97"/><polyline class="cls-15" points="400.14 121.49 400.14 125.49 396.14 125.49"/><line class="cls-16" x1="391.04" y1="125.49" x2="383.39" y2="125.49"/><polyline class="cls-15" points="380.84 125.49 376.84 125.49 376.84 121.49"/><line class="cls-17" x1="376.84" y1="113.85" x2="376.84" y2="102.4"/><line class="cls-18" x1="376.84" y1="98.58" x2="376.84" y2="41.28"/><polyline class="cls-15" points="376.84 37.47 376.84 33.47 380.84 33.47"/><line class="cls-16" x1="385.94" y1="33.47" x2="393.59" y2="33.47"/><polyline class="cls-15" points="396.14 33.47 400.14 33.47 400.14 37.47"/><line class="cls-17" x1="400.14" y1="45.1" x2="400.14" y2="56.56"/><line class="cls-18" x1="400.14" y1="60.38" x2="400.14" y2="117.67"/><polyline class="cls-15" points="231.13 121.9 231.13 125.9 227.13 125.9"/><line class="cls-19" x1="221.75" y1="125.9" x2="213.68" y2="125.9"/><polyline class="cls-15" points="210.99 125.9 206.99 125.9 206.99 121.9"/><line class="cls-20" x1="206.99" y1="114.18" x2="206.99" y2="102.61"/><line class="cls-21" x1="206.99" y1="98.75" x2="206.99" y2="40.87"/><polyline class="cls-15" points="206.99 37.01 206.99 33.01 210.99 33.01"/><line class="cls-19" x1="216.37" y1="33.01" x2="224.44" y2="33.01"/><polyline class="cls-15" points="227.13 33.01 231.13 33.01 231.13 37.01"/><line class="cls-20" x1="231.13" y1="44.72" x2="231.13" y2="56.3"/><line class="cls-21" x1="231.13" y1="60.16" x2="231.13" y2="118.04"/><line class="cls-15" x1="388.7" y1="125.68" x2="388.7" y2="129.68"/><line class="cls-22" x1="388.7" y1="130.68" x2="388.7" y2="132.18"/><line class="cls-15" x1="388.7" y1="132.68" x2="388.7" y2="136.68"/><line class="cls-15" x1="219.32" y1="126.54" x2="219.32" y2="130.54"/><line class="cls-22" x1="219.32" y1="131.54" x2="219.32" y2="133.05"/><line class="cls-15" x1="219.32" y1="133.55" x2="219.32" y2="137.55"/><line class="cls-15" x1="219.51" y1="137.24" x2="223.51" y2="137.24"/><line class="cls-23" x1="232.02" y1="137.24" x2="244.78" y2="137.24"/><line class="cls-24" x1="249.04" y1="137.24" x2="380.91" y2="137.24"/><line class="cls-15" x1="385.17" y1="137.24" x2="389.17" y2="137.24"/><rect class="cls-25" x="303.84" y="130.31" width="25.45" height="25.45"/><path class="cls-13" d="M318.06,131.66a1.93,1.93,0,1,1-2,1.93A1.95,1.95,0,0,1,318.06,131.66Z"/><path class="cls-13" d="M308.71,138.4l1.48,7.62a3.47,3.47,0,0,0,3.21,3.08l4.77,0c1.11,0,1.11-1.15,0-1.22l-4.34,0c-1.53-.09-2.27-.69-2.55-2.4l-1.5-7.38A.55.55,0,1,0,308.71,138.4Z"/><path class="cls-13" d="M314.39,137.64c.23-1.16,1.05-1.8,3.16-1.31l6.88,1.38a1,1,0,0,1-.52,1.93l-5.87-1.2-1.75,5.86h3.49a1.51,1.51,0,0,1,1.75,1.31l1.19,7.75a1.12,1.12,0,0,1-2.23.26l-1-6.56-5.8.08c-1.11,0-1.76-1.41-1.37-2.77Z"/><path class="cls-13" d="M323,142c-.09.5-.64.42-.6-.08.06-2.32,3.2-2.31,3,.25V154a.32.32,0,0,1-.63,0l0-12.29C324.68,140.43,322.94,140.79,323,142Z"/><rect class="cls-25" x="276.89" y="130.25" width="25.45" height="25.45"/><path class="cls-13" d="M285.7,131.65a1.93,1.93,0,1,1-2,1.93A1.95,1.95,0,0,1,285.7,131.65Z"/><path class="cls-13" d="M282.36,138.35l1.47,7.61a3.48,3.48,0,0,0,3.22,3.09l4.76,0c1.12,0,1.12-1.15,0-1.22l-4.33,0c-1.54-.08-2.28-.69-2.56-2.4l-1.49-7.38C283.27,137.46,282.18,137.5,282.36,138.35Z"/><path class="cls-13" d="M284.23,138.08l1.41,7.24a2.07,2.07,0,0,0,2.49,1.82h5.24l1.11,6.59c.18,1.22,2.45.93,2.24-.33l-1.19-7.68q-.27-1.35-2-1.38l-1.08.07c.83-2.83-.88-5.13-4.24-4.84l-.41-2.26C287.34,135.61,283.88,135.91,284.23,138.08Z"/></g></g></svg>