<svg xmlns="http://www.w3.org/2000/svg" viewBox="0 0 680 160"><defs><style>.cls-1{fill:#c6c6c5;}.cls-2{fill:#b1b1b1;}.cls-11,.cls-12,.cls-13,.cls-14,.cls-15,.cls-17,.cls-18,.cls-19,.cls-2,.cls-22,.cls-23,.cls-24,.cls-25,.cls-26,.cls-27,.cls-28,.cls-3,.cls-4,.cls-5,.cls-8,.cls-9{stroke:#000;}.cls-11,.cls-12,.cls-13,.cls-14,.cls-15,.cls-17,.cls-18,.cls-19,.cls-2,.cls-22,.cls-23,.cls-24,.cls-25,.cls-26,.cls-27,.cls-28,.cls-3,.cls-36,.cls-37,.cls-38,.cls-39,.cls-4,.cls-40,.cls-41,.cls-42,.cls-43,.cls-44,.cls-45,.cls-47,.cls-48,.cls-5,.cls-8,.cls-9{stroke-miterlimit:10;}.cls-19,.cls-2,.cls-22,.cls-8,.cls-9{stroke-width:0.25px;}.cls-19,.cls-3,.cls-7{fill:#6dc6d9;}.cls-11,.cls-12,.cls-13,.cls-14,.cls-15,.cls-17,.cls-18,.cls-23,.cls-24,.cls-25,.cls-26,.cls-27,.cls-3,.cls-4,.cls-5{stroke-width:0.5px;}.cls-4,.cls-8{fill:#3d3d3c;}.cls-5,.cls-6{fill:#3c3c3b;}.cls-9{fill:#f7f7f7;}.cls-10,.cls-12,.cls-28{fill:#9d9b9b;}.cls-11,.cls-13,.cls-14,.cls-15,.cls-17,.cls-18,.cls-20,.cls-21,.cls-23,.cls-24,.cls-25,.cls-26,.cls-27,.cls-36,.cls-37,.cls-38,.cls-39,.cls-40,.cls-41,.cls-42,.cls-43,.cls-44,.cls-45,.cls-47,.cls-48{fill:none;}.cls-11{stroke-dasharray:2.04 1.02;}.cls-13{stroke-dasharray:2.04 1.02;}.cls-14{stroke-dasharray:2.04 1.02;}.cls-15{stroke-dasharray:2.02 1.01;}.cls-16,.cls-22{fill:#6f6f6e;}.cls-17{stroke-dasharray:2.04 1.02;}.cls-18{stroke-dasharray:2.04 1.02;}.cls-20,.cls-21{stroke:#000100;stroke-miterlimit:2;stroke-width:0.71px;}.cls-20{stroke-linecap:round;}.cls-23{stroke-dasharray:2.04 1.02;}.cls-24{stroke-dasharray:2.04 1.02;}.cls-25{stroke-dasharray:2.04 1.02;}.cls-26{stroke-dasharray:2.04 1.02;}.cls-27{stroke-dasharray:2.04 1.02;}.cls-28{stroke-width:0.75px;}.cls-29{fill:#7b7b7a;}.cls-30,.cls-35{fill:#fff;}.cls-31{fill:#ffd500;}.cls-32{fill:#ffd421;}.cls-33{fill:#000100;}.cls-34{fill:#251a5f;}.cls-35{fill-rule:evenodd;}.cls-36,.cls-37,.cls-38,.cls-39,.cls-40,.cls-41,.cls-42,.cls-43,.cls-44,.cls-45,.cls-47,.cls-48{stroke:#e20613;}.cls-36{stroke-dasharray:8 8 8 8;}.cls-38{stroke-dasharray:6.88 6.88;}.cls-39{stroke-dasharray:6.88 6.88 6.88 6.88;}.cls-40{stroke-dasharray:8.13 8.13;}.cls-41{stroke-dasharray:6.84 6.84;}.cls-42{stroke-dasharray:5.54 5.54;}.cls-43{stroke-dasharray:5.54 5.54 5.54 5.54;}.cls-44{stroke-dasharray:7.71 7.71;}.cls-45{stroke-dasharray:7.71 7.71 7.71 7.71;}.cls-46{fill:#29295d;}.cls-47{stroke-dasharray:5.33 5.33;}.cls-48{stroke-dasharray:5.33 5.33 5.33 5.33;}</style></defs><title>Type75_vogn4_BPb</title><g id="Type75_vogn4_BPb"><g id="VOGNKASSE-2" data-name="VOGNKASSE"><rect class="cls-1" x="18.87" y="69.92" width="16.83" height="20.5"/><rect class="cls-1" x="32.7" y="34.53" width="494.43" height="90.7"/><path class="cls-2" d="M458,64.7l-6.44-2.43V34.73H108.2v40.7l-6.58,2.49v0A1.18,1.18,0,0,0,101,79V94.35a1.17,1.17,0,0,0,.78,1.11l6.44,2.44v27.53H451.54V84.73l6.58-2.49v0a1.18,1.18,0,0,0,.65-1.06V65.81A1.17,1.17,0,0,0,458,64.7Z"/><rect class="cls-3" x="32.78" y="34.7" width="76.31" height="3.56"/><rect class="cls-3" x="171.43" y="34.7" width="217.67" height="3.56"/><rect class="cls-3" x="450.83" y="34.7" width="76.37" height="3.56"/><rect class="cls-4" x="220.04" y="34.71" width="10.51" height="3.54"/><rect class="cls-4" x="274.35" y="34.71" width="10.51" height="3.54"/><rect class="cls-4" x="329.23" y="34.71" width="10.51" height="3.54"/><polygon class="cls-4" points="397.79 34.71 388.97 34.71 388.97 34.71 383.42 34.71 383.42 38.26 389.93 38.26 389.93 36.21 397.79 36.21 397.79 34.71"/><polygon class="cls-4" points="443.02 34.71 451.83 34.71 451.83 34.71 457.39 34.71 457.39 38.26 450.87 38.26 450.87 36.21 443.02 36.21 443.02 34.71"/><polygon class="cls-4" points="162.52 34.71 171.33 34.71 171.33 34.71 176.89 34.71 176.89 38.26 170.37 38.26 170.37 36.21 162.52 36.21 162.52 34.71"/><polygon class="cls-4" points="117.26 34.71 108.45 34.71 108.45 34.71 102.89 34.71 102.89 38.26 109.41 38.26 109.41 36.21 117.26 36.21 117.26 34.71"/><rect class="cls-3" x="32.35" y="121.95" width="76.72" height="3.56"/><rect class="cls-3" x="171.41" y="121.95" width="217.67" height="3.56"/><rect class="cls-3" x="450.82" y="121.95" width="76.37" height="3.56"/><rect class="cls-4" x="220.03" y="121.96" width="10.52" height="3.54"/><rect class="cls-4" x="274.34" y="121.96" width="10.51" height="3.54"/><rect class="cls-4" x="329.21" y="121.96" width="10.52" height="3.54"/><polygon class="cls-4" points="397.77 125.51 388.96 125.51 388.96 125.5 383.4 125.5 383.4 121.96 389.92 121.96 389.92 124.01 397.77 124.01 397.77 125.51"/><polygon class="cls-4" points="443 125.51 451.81 125.51 451.81 125.5 457.37 125.5 457.37 121.96 450.86 121.96 450.86 124.01 443 124.01 443 125.51"/><polygon class="cls-4" points="162.5 125.51 171.31 125.51 171.31 125.5 176.87 125.5 176.87 121.96 170.36 121.96 170.36 124.01 162.5 124.01 162.5 125.51"/><polygon class="cls-4" points="117.25 125.51 108.44 125.51 108.44 125.5 102.88 125.5 102.88 121.96 109.39 121.96 109.39 124.01 117.25 124.01 117.25 125.51"/><polygon class="cls-4" points="527.09 55.44 527.09 38.25 527.24 38.25 527.24 34.71 505.35 34.71 505.35 38.25 516.49 38.25 516.49 55.44 516.49 56.07 516.49 56.09 527.26 56.09 527.26 55.44 527.09 55.44"/><polygon class="cls-4" points="527.09 104.76 527.09 121.95 527.25 121.95 527.25 125.5 505.36 125.5 505.36 121.95 516.5 121.95 516.5 104.76 516.5 104.13 516.5 104.12 527.26 104.12 527.26 104.76 527.09 104.76"/><path class="cls-5" d="M516.49,56.07h0V70.16a.57.57,0,0,0,.57.57H527.8a.57.57,0,0,0,.56-.57V56.08H516.49Z"/><path class="cls-5" d="M516.5,104.11h0V90a.58.58,0,0,1,.57-.57H527.8a.58.58,0,0,1,.57.57V104.1a0,0,0,0,1,0,0Z"/><path class="cls-5" d="M47.16,34.71H32.06v3.54h.4V56.37H31.1v14.1a.57.57,0,0,0,.56.57h9V58.42h1.83V71a.56.56,0,0,0,.48-.55v-14h0V38.25H53.74V34.71Z"/><path class="cls-5" d="M47.15,122H43V103.71h0v-14a.55.55,0,0,0-.48-.55v12.6H40.64V89.18h-9a.57.57,0,0,0-.57.57v14.07s0,0,0,0h1.35V122h-.39v3.54H53.73V122Z"/><path class="cls-5" d="M158.48,36.46V46.9a.56.56,0,0,0,.57.56h11.6v-11Z"/><path class="cls-5" d="M121,36.45V46.9a.57.57,0,0,1-.57.56h-11.6v-11Z"/><path class="cls-5" d="M158.48,123.76V113.32a.56.56,0,0,1,.57-.57h11.6v11Z"/><path class="cls-5" d="M121,123.76V113.32a.57.57,0,0,0-.57-.57h-11.6v11Z"/><rect class="cls-6" x="108.3" y="36.74" width="1.28" height="38.27"/><path class="cls-6" d="M109.87,74.8a.95.95,0,1,1-.94-1A.95.95,0,0,1,109.87,74.8Z"/><path class="cls-6" d="M109.88,98.14a.95.95,0,1,0-1.89,0,.93.93,0,0,0,.22.59v24.84h1.28V98.89A.94.94,0,0,0,109.88,98.14Z"/><rect class="cls-7" x="108.52" y="47.72" width="0.85" height="25.9"/><rect class="cls-7" x="108.47" y="99.21" width="0.85" height="13.22"/><path class="cls-5" d="M439.31,36.46V46.9a.57.57,0,0,0,.57.56h11.6v-11Z"/><path class="cls-5" d="M401.83,36.45V46.9a.57.57,0,0,1-.57.56h-11.6v-11Z"/><path class="cls-5" d="M439.31,123.76V113.32a.57.57,0,0,1,.57-.57h11.6v11Z"/><path class="cls-5" d="M401.83,123.76V113.32a.57.57,0,0,0-.57-.57h-11.6v11Z"/><rect class="cls-6" x="388.8" y="36.74" width="1.28" height="38.27"/><path class="cls-6" d="M390.37,74.8a.95.95,0,1,1-.94-1A.95.95,0,0,1,390.37,74.8Z"/><path class="cls-6" d="M390.38,98.14a1,1,0,1,0-1.9,0,.94.94,0,0,0,.23.59v24.84H390V98.89A.94.94,0,0,0,390.38,98.14Z"/><rect class="cls-7" x="389.02" y="47.72" width="0.85" height="25.9"/><rect class="cls-7" x="388.97" y="99.21" width="0.85" height="13.22"/><rect class="cls-8" x="99.14" y="32.97" width="21.94" height="1.23"/><rect class="cls-8" x="157.86" y="32.97" width="21.94" height="1.23"/><rect class="cls-8" x="99.26" y="126.09" width="21.94" height="1.23"/><rect class="cls-8" x="157.98" y="126.09" width="21.94" height="1.23"/><rect class="cls-8" x="380.3" y="32.96" width="21.94" height="1.23"/><rect class="cls-8" x="439.02" y="32.96" width="21.94" height="1.23"/><rect class="cls-8" x="380.43" y="126.08" width="21.94" height="1.23"/><rect class="cls-8" x="439.14" y="126.08" width="21.94" height="1.23"/><rect class="cls-9" x="171.03" y="96.68" width="9.54" height="24.93"/><path class="cls-10" d="M111.81,111.05a.83.83,0,0,1-.86-.81v-9.12a.84.84,0,0,1,.86-.81h9.73a.84.84,0,0,1,.86.81v9.12a.83.83,0,0,1-.86.81Z"/><path class="cls-11" d="M111.81,111.05a.83.83,0,0,1-.86-.81v-9.12a.84.84,0,0,1,.86-.81h9.73a.84.84,0,0,1,.86.81v9.12a.83.83,0,0,1-.86.81Z"/><path class="cls-12" d="M109.81,111.27h1.58c.2,0,.36-.32.36-.72v-9.66c0-.4-.16-.72-.36-.72h-1.58Z"/><path class="cls-10" d="M392.06,72.41a.83.83,0,0,1-.86-.8V62.49a.83.83,0,0,1,.86-.81h9.73a.84.84,0,0,1,.86.81v9.12a.84.84,0,0,1-.86.8Z"/><path class="cls-13" d="M392.06,72.41a.83.83,0,0,1-.86-.8V62.49a.83.83,0,0,1,.86-.81h9.73a.84.84,0,0,1,.86.81v9.12a.84.84,0,0,1-.86.8Z"/><path class="cls-12" d="M390.06,72.64h1.58c.2,0,.36-.33.36-.73V62.26c0-.4-.16-.72-.36-.72h-1.58Z"/><path class="cls-10" d="M392.06,60.38a.83.83,0,0,1-.86-.81V50.45a.83.83,0,0,1,.86-.8h9.73a.84.84,0,0,1,.86.8v9.12a.84.84,0,0,1-.86.81Z"/><path class="cls-14" d="M392.06,60.38a.83.83,0,0,1-.86-.81V50.45a.83.83,0,0,1,.86-.8h9.73a.84.84,0,0,1,.86.8v9.12a.84.84,0,0,1-.86.81Z"/><path class="cls-12" d="M390.06,60.6h1.58c.2,0,.36-.32.36-.72V50.22c0-.4-.16-.72-.36-.72h-1.58Z"/><path class="cls-10" d="M449.2,60.8A.83.83,0,0,0,450,60V50.87a.82.82,0,0,0-.84-.8h-9.55a.82.82,0,0,0-.84.8V60a.83.83,0,0,0,.84.81Z"/><path class="cls-15" d="M449.2,60.8A.83.83,0,0,0,450,60V50.87a.82.82,0,0,0-.84-.8h-9.55a.82.82,0,0,0-.84.8V60a.83.83,0,0,0,.84.81Z"/><path class="cls-12" d="M451.15,61H449.6c-.19,0-.35-.32-.35-.72V50.64c0-.39.16-.72.35-.72h1.55Z"/><rect class="cls-16" x="466.3" y="30.08" width="0.33" height="0.17"/><rect class="cls-6" x="451.49" y="85.71" width="1.28" height="36.08"/><path class="cls-6" d="M453,85.17a1,1,0,1,1-.95-.94A1,1,0,0,1,453,85.17Z"/><rect class="cls-6" x="451.39" y="38.39" width="1.28" height="23.33"/><path class="cls-6" d="M451.13,62a.95.95,0,1,1,.95,1A1,1,0,0,1,451.13,62Z"/><rect class="cls-7" x="451.59" y="47.73" width="0.85" height="13.15"/><rect class="cls-7" x="451.68" y="86.2" width="0.85" height="26.18"/><path class="cls-10" d="M449.28,87.48a.84.84,0,0,1,.86.8V97.4a.84.84,0,0,1-.86.81h-9.74a.83.83,0,0,1-.85-.81V88.28a.83.83,0,0,1,.85-.8Z"/><path class="cls-17" d="M449.28,87.48a.84.84,0,0,1,.86.8V97.4a.84.84,0,0,1-.86.81h-9.74a.83.83,0,0,1-.85-.81V88.28a.83.83,0,0,1,.85-.8Z"/><path class="cls-12" d="M451.27,87.25H449.7c-.2,0-.37.32-.37.73v9.65c0,.4.17.72.37.72h1.57Z"/><path class="cls-10" d="M449.28,99.51a.84.84,0,0,1,.86.81v9.12a.84.84,0,0,1-.86.8h-9.74a.83.83,0,0,1-.85-.8v-9.12a.83.83,0,0,1,.85-.81Z"/><path class="cls-18" d="M449.28,99.51a.84.84,0,0,1,.86.81v9.12a.84.84,0,0,1-.86.8h-9.74a.83.83,0,0,1-.85-.8v-9.12a.83.83,0,0,1,.85-.81Z"/><path class="cls-12" d="M451.27,99.29H449.7c-.2,0-.37.32-.37.72v9.66c0,.4.17.72.37.72h1.57Z"/><rect class="cls-19" x="41.11" y="80.32" width="1" height="9.58"/><rect class="cls-19" x="41.11" y="70.31" width="1" height="9.58"/><line class="cls-20" x1="29.89" y1="53.97" x2="29.89" y2="70.68"/><line class="cls-20" x1="27.76" y1="53.97" x2="27.76" y2="70.68"/><line class="cls-20" x1="25.61" y1="53.97" x2="25.61" y2="70.68"/><line class="cls-20" x1="23.47" y1="53.97" x2="23.47" y2="70.68"/><line class="cls-20" x1="21.34" y1="53.97" x2="21.34" y2="70.68"/><line class="cls-20" x1="19.19" y1="53.97" x2="19.19" y2="70.68"/><path class="cls-21" d="M23.47,70.68a1.08,1.08,0,1,0-2.15,0"/><path class="cls-21" d="M27.76,70.68a1.08,1.08,0,1,0-2.15,0"/><path class="cls-21" d="M29.89,70.68a1.08,1.08,0,1,0-2.15,0"/><path class="cls-21" d="M30.92,69.6a1.08,1.08,0,0,0-1,1.08"/><path class="cls-21" d="M25.62,70.68a1.08,1.08,0,1,0-2.15,0"/><path class="cls-21" d="M19.19,70.68a1.08,1.08,0,0,0-1-1.08"/><path class="cls-21" d="M21.34,70.68a1.08,1.08,0,1,0-2.15,0"/><line class="cls-20" x1="29.89" y1="40.29" x2="29.89" y2="41.21"/><line class="cls-20" x1="27.76" y1="40.29" x2="27.76" y2="41.21"/><line class="cls-20" x1="25.61" y1="40.29" x2="25.61" y2="41.21"/><line class="cls-20" x1="23.47" y1="40.29" x2="23.47" y2="41.21"/><line class="cls-20" x1="21.34" y1="40.29" x2="21.34" y2="41.21"/><line class="cls-20" x1="19.19" y1="40.29" x2="19.19" y2="41.21"/><line class="cls-20" x1="17.45" y1="43.45" x2="16.75" y2="43.45"/><line class="cls-20" x1="17.45" y1="39.86" x2="16.75" y2="39.86"/><line class="cls-20" x1="17.45" y1="43.45" x2="17.45" y2="39.86"/><line class="cls-20" x1="31.64" y1="43.45" x2="32.32" y2="43.45"/><line class="cls-20" x1="31.64" y1="43.45" x2="31.64" y2="39.86"/><path class="cls-20" d="M31,39.22a1.07,1.07,0,0,0-1.07,1.07"/><path class="cls-20" d="M29.89,40.29a1.08,1.08,0,0,0-2.15,0"/><path class="cls-20" d="M27.75,40.29a1.07,1.07,0,0,0-2.14,0"/><path class="cls-20" d="M25.62,40.29a1.08,1.08,0,0,0-2.15,0"/><path class="cls-20" d="M23.47,40.29a1.08,1.08,0,0,0-2.15,0"/><path class="cls-20" d="M21.34,40.29a1.08,1.08,0,0,0-2.15,0,1.08,1.08,0,0,0-2.06-.43"/><polyline class="cls-20" points="17.45 54.8 17.45 51.21 16.75 51.21"/><path class="cls-20" d="M23.47,51.65a1.08,1.08,0,1,0-2.15,0"/><path class="cls-20" d="M23.47,54a1.08,1.08,0,1,0-2.15,0"/><path class="cls-20" d="M27.75,51.65a1.07,1.07,0,1,0-2.14,0"/><path class="cls-20" d="M29.89,51.65a1.08,1.08,0,1,0-2.15,0"/><path class="cls-20" d="M31.94,51.21a1.06,1.06,0,0,0-1-.64,1.07,1.07,0,0,0-1.07,1.08"/><path class="cls-20" d="M25.62,51.65a1.08,1.08,0,1,0-2.15,0"/><path class="cls-20" d="M27.76,54a1.08,1.08,0,1,0-2.15,0"/><path class="cls-20" d="M29.89,54a1.08,1.08,0,1,0-2.15,0"/><path class="cls-20" d="M31.64,53.13a1.1,1.1,0,0,0-.68-.24A1.08,1.08,0,0,0,29.89,54"/><path class="cls-20" d="M25.62,54a1.08,1.08,0,1,0-2.15,0"/><line class="cls-20" x1="31.64" y1="51.21" x2="32.32" y2="51.21"/><path class="cls-20" d="M19.19,54a1.08,1.08,0,0,0-1.08-1.08,1.1,1.1,0,0,0-.67.24"/><path class="cls-20" d="M19.19,51.65a1.08,1.08,0,0,0-2.06-.44"/><path class="cls-20" d="M21.34,51.65a1.08,1.08,0,1,0-2.15,0"/><path class="cls-20" d="M21.34,54a1.08,1.08,0,1,0-2.15,0"/><line class="cls-20" x1="31.64" y1="54.81" x2="31.64" y2="51.21"/><path class="cls-20" d="M31.64,39.74a.92.92,0,0,0-.84-.57"/><line class="cls-20" x1="29.89" y1="106.38" x2="29.89" y2="89.67"/><line class="cls-20" x1="27.76" y1="106.38" x2="27.76" y2="89.67"/><line class="cls-20" x1="25.61" y1="106.38" x2="25.61" y2="89.67"/><line class="cls-20" x1="23.47" y1="106.38" x2="23.47" y2="89.67"/><line class="cls-20" x1="21.34" y1="106.38" x2="21.34" y2="89.67"/><line class="cls-20" x1="19.19" y1="106.38" x2="19.19" y2="89.67"/><path class="cls-21" d="M23.47,89.67a1.08,1.08,0,0,1-2.15,0"/><path class="cls-21" d="M27.76,89.67a1.08,1.08,0,0,1-2.15,0"/><path class="cls-21" d="M29.89,89.67a1.08,1.08,0,0,1-2.15,0"/><path class="cls-21" d="M30.92,90.74a1.07,1.07,0,0,1-1-1.07"/><path class="cls-21" d="M25.62,89.67a1.08,1.08,0,0,1-2.15,0"/><path class="cls-21" d="M19.19,89.67a1.07,1.07,0,0,1-1,1.07"/><path class="cls-21" d="M21.34,89.67a1.08,1.08,0,0,1-2.15,0"/><line class="cls-20" x1="29.89" y1="120.05" x2="29.89" y2="119.14"/><line class="cls-20" x1="27.76" y1="120.05" x2="27.76" y2="119.14"/><line class="cls-20" x1="25.61" y1="120.05" x2="25.61" y2="119.14"/><line class="cls-20" x1="23.47" y1="120.05" x2="23.47" y2="119.14"/><line class="cls-20" x1="21.34" y1="120.05" x2="21.34" y2="119.14"/><line class="cls-20" x1="19.19" y1="120.05" x2="19.19" y2="119.14"/><line class="cls-20" x1="17.45" y1="116.89" x2="16.75" y2="116.89"/><line class="cls-20" x1="17.45" y1="120.49" x2="16.75" y2="120.49"/><line class="cls-20" x1="17.45" y1="116.89" x2="17.45" y2="120.49"/><line class="cls-20" x1="31.64" y1="116.89" x2="32.32" y2="116.89"/><line class="cls-20" x1="31.64" y1="116.89" x2="31.64" y2="120.49"/><path class="cls-20" d="M31,121.12a1.07,1.07,0,0,1-1.08-1.07"/><path class="cls-20" d="M29.89,120.05a1.08,1.08,0,0,1-2.15,0"/><path class="cls-20" d="M27.75,120.05a1.07,1.07,0,1,1-2.14,0"/><path class="cls-20" d="M25.62,120.05a1.08,1.08,0,0,1-2.15,0"/><path class="cls-20" d="M23.47,120.05a1.08,1.08,0,0,1-2.15,0"/><path class="cls-20" d="M21.34,120.05a1.08,1.08,0,0,1-2.15,0,1.07,1.07,0,0,1-1.07,1.07,1.09,1.09,0,0,1-1-.63"/><polyline class="cls-20" points="17.45 105.54 17.45 109.14 16.75 109.14"/><path class="cls-20" d="M23.47,108.7a1.08,1.08,0,0,1-2.15,0"/><path class="cls-20" d="M23.47,106.38a1.08,1.08,0,0,1-2.15,0"/><path class="cls-20" d="M27.75,108.7a1.07,1.07,0,0,1-2.14,0"/><path class="cls-20" d="M29.89,108.7a1.08,1.08,0,0,1-2.15,0"/><path class="cls-20" d="M32,109.14a1.09,1.09,0,0,1-1,.63,1.07,1.07,0,0,1-1.08-1.07"/><path class="cls-20" d="M25.62,108.7a1.08,1.08,0,0,1-2.15,0"/><path class="cls-20" d="M27.76,106.38a1.08,1.08,0,0,1-2.15,0"/><path class="cls-20" d="M29.89,106.38a1.08,1.08,0,0,1-2.15,0"/><path class="cls-20" d="M31.64,107.21a1,1,0,0,1-.67.24,1.07,1.07,0,0,1-1.08-1.07"/><path class="cls-20" d="M25.62,106.38a1.08,1.08,0,0,1-2.15,0"/><line class="cls-20" x1="31.64" y1="109.14" x2="32.32" y2="109.14"/><path class="cls-20" d="M19.19,106.38a1.07,1.07,0,0,1-1.07,1.07,1,1,0,0,1-.68-.24"/><path class="cls-20" d="M19.19,108.7a1.07,1.07,0,0,1-1.07,1.07,1.09,1.09,0,0,1-1-.63"/><path class="cls-20" d="M21.34,108.7a1.08,1.08,0,0,1-2.15,0"/><path class="cls-20" d="M21.34,106.38a1.08,1.08,0,0,1-2.15,0"/><line class="cls-20" x1="31.64" y1="105.54" x2="31.64" y2="109.14"/><path class="cls-20" d="M31.64,120.61a.94.94,0,0,1-.84.57"/></g><g id="INNREDNING-2" data-name="INNREDNING"><rect class="cls-22" x="389.93" y="99.18" width="8.95" height="13.27"/><rect class="cls-22" x="161.85" y="96.68" width="8.95" height="13.27"/><path class="cls-10" d="M111.71,73.23a.84.84,0,0,1-.86-.8V63.31a.84.84,0,0,1,.86-.81h9.74a.84.84,0,0,1,.86.81v9.12a.84.84,0,0,1-.86.8Z"/><path class="cls-23" d="M111.71,73.23a.84.84,0,0,1-.86-.8V63.31a.84.84,0,0,1,.86-.81h9.74a.84.84,0,0,1,.86.81v9.12a.84.84,0,0,1-.86.8Z"/><path class="cls-12" d="M109.72,73.46h1.57c.2,0,.37-.33.37-.73V63.08c0-.4-.17-.72-.37-.72h-1.57Z"/><path class="cls-10" d="M111.71,61.19a.83.83,0,0,1-.86-.8V51.27a.84.84,0,0,1,.86-.8h9.74a.84.84,0,0,1,.86.8v9.12a.83.83,0,0,1-.86.8Z"/><path class="cls-24" d="M111.71,61.19a.83.83,0,0,1-.86-.8V51.27a.84.84,0,0,1,.86-.8h9.74a.84.84,0,0,1,.86.8v9.12a.83.83,0,0,1-.86.8Z"/><path class="cls-12" d="M109.72,61.42h1.57c.2,0,.37-.32.37-.72V51c0-.4-.17-.72-.37-.72h-1.57Z"/><path class="cls-10" d="M172.61,40.74a.82.82,0,0,1,.8-.85h9.12a.83.83,0,0,1,.8.85v9.74a.84.84,0,0,1-.8.86h-9.12a.83.83,0,0,1-.8-.86Z"/><path class="cls-25" d="M172.61,40.74a.82.82,0,0,1,.8-.85h9.12a.83.83,0,0,1,.8.85v9.74a.84.84,0,0,1-.8.86h-9.12a.83.83,0,0,1-.8-.86Z"/><path class="cls-12" d="M172.38,38.75v1.58c0,.2.32.36.72.36h9.66c.4,0,.72-.16.72-.36V38.75Z"/><path class="cls-10" d="M184.64,40.74a.83.83,0,0,1,.81-.85h9.11a.83.83,0,0,1,.81.85v9.74a.84.84,0,0,1-.81.86h-9.11a.84.84,0,0,1-.81-.86Z"/><path class="cls-26" d="M184.64,40.74a.83.83,0,0,1,.81-.85h9.11a.83.83,0,0,1,.81.85v9.74a.84.84,0,0,1-.81.86h-9.11a.84.84,0,0,1-.81-.86Z"/><path class="cls-12" d="M184.41,38.75v1.58c0,.2.33.36.73.36h9.65c.4,0,.73-.16.73-.36V38.75Z"/><path class="cls-10" d="M196.87,40.74a.83.83,0,0,1,.81-.85h9.12a.83.83,0,0,1,.8.85v9.74a.84.84,0,0,1-.8.86h-9.12a.84.84,0,0,1-.81-.86Z"/><path class="cls-27" d="M196.87,40.74a.83.83,0,0,1,.81-.85h9.12a.83.83,0,0,1,.8.85v9.74a.84.84,0,0,1-.8.86h-9.12a.84.84,0,0,1-.81-.86Z"/><path class="cls-12" d="M196.65,38.75v1.58c0,.2.32.36.72.36H207c.39,0,.72-.16.72-.36V38.75Z"/></g><g id="SETER-2" data-name="SETER"><polygon class="cls-28" points="97.87 96.43 97.87 104.84 95.43 107.29 78.07 107.29 78.07 93.97 95.41 93.97 97.87 96.43"/><polygon class="cls-29" points="95.31 104.52 95.31 104.52 93.03 106.85 91.34 106.85 93.62 104.52 93.62 104.52 93.62 96.7 93.62 96.7 91.34 94.38 93.03 94.38 95.28 96.68 95.31 96.68 95.31 104.52"/><rect class="cls-30" x="95.48" y="97.35" width="1.98" height="6.52"/><polygon class="cls-28" points="97.86 110.21 97.86 118.63 95.42 121.08 78.06 121.08 78.06 107.75 95.4 107.75 97.86 110.21"/><polygon class="cls-29" points="95.3 118.31 95.3 118.31 93.02 120.64 91.33 120.64 93.61 118.31 93.61 118.31 93.61 110.49 93.61 110.49 91.33 108.16 93.02 108.16 95.28 110.47 95.3 110.47 95.3 118.31"/><rect class="cls-30" x="95.47" y="111.14" width="1.98" height="6.51"/><polygon class="cls-28" points="104.69 55.44 104.69 63.86 102.25 66.31 84.89 66.31 84.89 52.98 102.22 52.98 104.69 55.44"/><polygon class="cls-29" points="102.13 63.54 102.12 63.54 99.85 65.86 98.16 65.86 100.43 63.54 100.44 63.54 100.44 55.72 100.43 55.72 98.16 53.39 99.85 53.39 102.1 55.7 102.13 55.7 102.13 63.54"/><rect class="cls-30" x="102.3" y="56.37" width="1.98" height="6.51"/><polygon class="cls-28" points="104.69 69.23 104.69 77.64 102.25 80.09 84.89 80.09 84.89 66.77 102.23 66.77 104.69 69.23"/><polygon class="cls-29" points="102.13 77.32 102.13 77.32 99.85 79.65 98.17 79.65 100.44 77.32 100.44 77.32 100.44 69.5 100.44 69.5 98.17 67.18 99.85 67.18 102.11 69.48 102.13 69.48 102.13 77.32"/><rect class="cls-30" x="102.3" y="70.15" width="1.98" height="6.51"/><polygon class="cls-28" points="104.69 41.53 104.69 49.95 102.25 52.39 84.89 52.39 84.89 39.07 102.23 39.07 104.69 41.53"/><polygon class="cls-29" points="102.13 49.63 102.13 49.63 99.85 51.95 98.16 51.95 100.44 49.63 100.44 49.63 100.44 41.81 100.44 41.81 98.16 39.48 99.85 39.48 102.1 41.79 102.13 41.79 102.13 49.63"/><rect class="cls-30" x="102.3" y="42.46" width="1.98" height="6.51"/><polygon class="cls-28" points="44.06 96.43 44.06 104.84 46.51 107.29 63.86 107.29 63.86 93.97 46.53 93.97 44.06 96.43"/><polygon class="cls-29" points="46.62 104.52 46.63 104.52 48.9 106.85 50.59 106.85 48.32 104.52 48.31 104.52 48.31 96.7 48.32 96.7 50.59 94.38 48.9 94.38 46.65 96.68 46.62 96.68 46.62 104.52"/><rect class="cls-30" x="44.47" y="97.35" width="1.98" height="6.52"/><polygon class="cls-28" points="44.07 110.21 44.07 118.63 46.52 121.08 63.87 121.08 63.87 107.75 46.53 107.75 44.07 110.21"/><polygon class="cls-29" points="46.63 118.31 46.64 118.31 48.91 120.64 50.6 120.64 48.33 118.31 48.32 118.31 48.32 110.49 48.33 110.49 50.6 108.16 48.91 108.16 46.66 110.47 46.63 110.47 46.63 118.31"/><rect class="cls-30" x="44.48" y="111.14" width="1.98" height="6.51"/><polygon class="cls-28" points="50.79 41.48 50.79 49.9 53.24 52.34 70.59 52.34 70.59 39.02 53.26 39.02 50.79 41.48"/><polygon class="cls-29" points="53.35 49.58 53.36 49.58 55.63 51.91 57.32 51.91 55.05 49.58 55.04 49.58 55.04 41.76 55.05 41.76 57.32 39.43 55.63 39.43 53.38 41.74 53.35 41.74 53.35 49.58"/><rect class="cls-30" x="51.2" y="42.41" width="1.98" height="6.52"/><polygon class="cls-28" points="50.8 55.27 50.8 63.68 53.25 66.13 70.6 66.13 70.6 52.8 53.27 52.8 50.8 55.27"/><polygon class="cls-29" points="53.36 63.36 53.37 63.36 55.64 65.69 57.33 65.69 55.06 63.36 55.05 63.36 55.05 55.55 55.06 55.55 57.33 53.22 55.64 53.22 53.39 55.52 53.36 55.52 53.36 63.36"/><rect class="cls-30" x="51.21" y="56.19" width="1.98" height="6.51"/><polygon class="cls-28" points="387.24 55.44 387.24 63.86 384.8 66.3 367.45 66.3 367.45 52.98 384.78 52.98 387.24 55.44"/><polygon class="cls-29" points="384.68 63.54 384.68 63.54 382.4 65.86 380.71 65.86 382.99 63.54 383 63.54 383 55.72 382.99 55.72 380.71 53.39 382.4 53.39 384.66 55.7 384.68 55.7 384.68 63.54"/><rect class="cls-30" x="384.85" y="56.37" width="1.98" height="6.51"/><polygon class="cls-28" points="387.24 69.23 387.24 77.64 384.8 80.08 367.45 80.08 367.45 66.77 384.78 66.77 387.24 69.23"/><polygon class="cls-29" points="384.69 77.32 384.68 77.32 382.41 79.65 380.72 79.65 382.99 77.32 383 77.32 383 69.5 382.99 69.5 380.72 67.18 382.41 67.18 384.66 69.48 384.69 69.48 384.69 77.32"/><rect class="cls-30" x="384.86" y="70.15" width="1.98" height="6.51"/><polygon class="cls-28" points="387.24 41.53 387.24 49.95 384.8 52.39 367.45 52.39 367.45 39.07 384.78 39.07 387.24 41.53"/><polygon class="cls-29" points="384.69 49.63 384.68 49.63 382.4 51.95 380.72 51.95 382.99 49.63 383 49.63 383 41.81 382.99 41.81 380.72 39.48 382.4 39.48 384.66 41.79 384.69 41.79 384.69 49.63"/><rect class="cls-30" x="384.85" y="42.46" width="1.98" height="6.51"/><polygon class="cls-28" points="335.08 55.44 335.08 63.86 337.52 66.3 354.88 66.3 354.88 52.98 337.54 52.98 335.08 55.44"/><polygon class="cls-29" points="337.64 63.54 337.64 63.54 339.92 65.86 341.61 65.86 339.33 63.54 339.33 63.54 339.33 55.72 339.33 55.72 341.61 53.39 339.92 53.39 337.67 55.7 337.64 55.7 337.64 63.54"/><rect class="cls-30" x="335.49" y="56.37" width="1.98" height="6.51"/><polygon class="cls-28" points="335.08 69.23 335.08 77.64 337.52 80.08 354.88 80.08 354.88 66.77 337.54 66.77 335.08 69.23"/><polygon class="cls-29" points="337.63 77.32 337.64 77.32 339.92 79.65 341.6 79.65 339.33 77.32 339.32 77.32 339.32 69.5 339.33 69.5 341.6 67.18 339.92 67.18 337.66 69.48 337.63 69.48 337.63 77.32"/><rect class="cls-30" x="335.48" y="70.15" width="1.98" height="6.51"/><polygon class="cls-28" points="335.08 41.53 335.08 49.95 337.52 52.39 354.88 52.39 354.88 39.07 337.54 39.07 335.08 41.53"/><polygon class="cls-29" points="337.64 49.63 337.64 49.63 339.92 51.95 341.61 51.95 339.33 49.63 339.33 49.63 339.33 41.81 339.33 41.81 341.61 39.48 339.92 39.48 337.67 41.79 337.64 41.79 337.64 49.63"/><rect class="cls-30" x="335.48" y="42.46" width="1.98" height="6.51"/><polygon class="cls-28" points="309.04 55.44 309.04 63.86 311.48 66.3 328.83 66.3 328.83 52.98 311.5 52.98 309.04 55.44"/><polygon class="cls-29" points="311.59 63.54 311.6 63.54 313.88 65.86 315.56 65.86 313.29 63.54 313.28 63.54 313.28 55.72 313.29 55.72 315.56 53.39 313.88 53.39 311.62 55.7 311.59 55.7 311.59 63.54"/><rect class="cls-30" x="309.44" y="56.37" width="1.98" height="6.51"/><polygon class="cls-28" points="309.04 69.23 309.04 77.64 311.48 80.08 328.83 80.08 328.83 66.77 311.5 66.77 309.04 69.23"/><polygon class="cls-29" points="311.59 77.32 311.6 77.32 313.87 79.65 315.56 79.65 313.29 77.32 313.28 77.32 313.28 69.5 313.29 69.5 315.56 67.18 313.87 67.18 311.62 69.48 311.59 69.48 311.59 77.32"/><rect class="cls-30" x="309.44" y="70.15" width="1.98" height="6.51"/><polygon class="cls-28" points="309.04 41.53 309.04 49.95 311.48 52.39 328.83 52.39 328.83 39.07 311.5 39.07 309.04 41.53"/><polygon class="cls-29" points="311.59 49.63 311.6 49.63 313.88 51.95 315.56 51.95 313.29 49.63 313.28 49.63 313.28 41.81 313.29 41.81 315.56 39.48 313.88 39.48 311.62 41.79 311.59 41.79 311.59 49.63"/><rect class="cls-30" x="309.44" y="42.46" width="1.98" height="6.51"/><polygon class="cls-28" points="284.57 55.44 284.57 63.86 287.01 66.3 304.36 66.3 304.36 52.98 287.03 52.98 284.57 55.44"/><polygon class="cls-29" points="287.13 63.54 287.13 63.54 289.41 65.86 291.09 65.86 288.82 63.54 288.81 63.54 288.81 55.72 288.82 55.72 291.09 53.39 289.41 53.39 287.15 55.7 287.13 55.7 287.13 63.54"/><rect class="cls-30" x="284.97" y="56.37" width="1.98" height="6.51"/><polygon class="cls-28" points="284.57 69.23 284.57 77.64 287.01 80.08 304.36 80.08 304.36 66.77 287.03 66.77 284.57 69.23"/><polygon class="cls-29" points="287.12 77.32 287.13 77.32 289.4 79.65 291.09 79.65 288.82 77.32 288.81 77.32 288.81 69.5 288.82 69.5 291.09 67.18 289.4 67.18 287.15 69.48 287.12 69.48 287.12 77.32"/><rect class="cls-30" x="284.97" y="70.15" width="1.98" height="6.51"/><polygon class="cls-28" points="284.57 41.53 284.57 49.95 287.01 52.39 304.36 52.39 304.36 39.07 287.03 39.07 284.57 41.53"/><polygon class="cls-29" points="287.13 49.63 287.13 49.63 289.41 51.95 291.09 51.95 288.82 49.63 288.81 49.63 288.81 41.81 288.82 41.81 291.09 39.48 289.41 39.48 287.15 41.79 287.13 41.79 287.13 49.63"/><rect class="cls-30" x="284.97" y="42.46" width="1.98" height="6.51"/><polygon class="cls-28" points="259.44 55.44 259.44 63.86 261.88 66.3 279.24 66.3 279.24 52.98 261.9 52.98 259.44 55.44"/><polygon class="cls-29" points="262 63.54 262 63.54 264.28 65.86 265.97 65.86 263.69 63.54 263.69 63.54 263.69 55.72 263.69 55.72 265.97 53.39 264.28 53.39 262.03 55.7 262 55.7 262 63.54"/><rect class="cls-30" x="259.85" y="56.37" width="1.98" height="6.51"/><polygon class="cls-28" points="259.44 69.23 259.44 77.64 261.88 80.08 279.24 80.08 279.24 66.77 261.9 66.77 259.44 69.23"/><polygon class="cls-29" points="262 77.32 262 77.32 264.28 79.65 265.96 79.65 263.69 77.32 263.69 77.32 263.69 69.5 263.69 69.5 265.96 67.18 264.28 67.18 262.02 69.48 262 69.48 262 77.32"/><rect class="cls-30" x="259.84" y="70.15" width="1.98" height="6.51"/><polygon class="cls-28" points="259.44 41.53 259.44 49.95 261.88 52.39 279.24 52.39 279.24 39.07 261.9 39.07 259.44 41.53"/><polygon class="cls-29" points="262 49.63 262 49.63 264.28 51.95 265.97 51.95 263.69 49.63 263.69 49.63 263.69 41.81 263.69 41.81 265.97 39.48 264.28 39.48 262.03 41.79 262 41.79 262 49.63"/><rect class="cls-30" x="259.85" y="42.46" width="1.98" height="6.51"/><polygon class="cls-28" points="234.63 55.44 234.63 63.86 237.07 66.3 254.43 66.3 254.43 52.98 237.09 52.98 234.63 55.44"/><polygon class="cls-29" points="237.19 63.54 237.2 63.54 239.47 65.86 241.16 65.86 238.88 63.54 238.88 63.54 238.88 55.72 238.88 55.72 241.16 53.39 239.47 53.39 237.22 55.7 237.19 55.7 237.19 63.54"/><rect class="cls-30" x="235.04" y="56.37" width="1.98" height="6.51"/><polygon class="cls-28" points="234.63 69.23 234.63 77.64 237.07 80.08 254.43 80.08 254.43 66.77 237.09 66.77 234.63 69.23"/><polygon class="cls-29" points="237.19 77.32 237.19 77.32 239.47 79.65 241.16 79.65 238.88 77.32 238.88 77.32 238.88 69.5 238.88 69.5 241.16 67.18 239.47 67.18 237.22 69.48 237.19 69.48 237.19 77.32"/><rect class="cls-30" x="235.04" y="70.15" width="1.98" height="6.51"/><polygon class="cls-28" points="234.63 41.53 234.63 49.95 237.07 52.39 254.43 52.39 254.43 39.07 237.09 39.07 234.63 41.53"/><polygon class="cls-29" points="237.19 49.63 237.2 49.63 239.47 51.95 241.16 51.95 238.88 49.63 238.88 49.63 238.88 41.81 238.88 41.81 241.16 39.48 239.47 39.48 237.22 41.79 237.19 41.79 237.19 49.63"/><rect class="cls-30" x="235.04" y="42.46" width="1.98" height="6.51"/><polygon class="cls-28" points="210.23 55.44 210.23 63.86 212.67 66.3 230.02 66.3 230.02 52.98 212.69 52.98 210.23 55.44"/><polygon class="cls-29" points="212.79 63.54 212.79 63.54 215.07 65.86 216.76 65.86 214.48 63.54 214.48 63.54 214.48 55.72 214.48 55.72 216.76 53.39 215.07 53.39 212.81 55.7 212.79 55.7 212.79 63.54"/><rect class="cls-30" x="210.64" y="56.37" width="1.98" height="6.51"/><polygon class="cls-28" points="210.23 69.23 210.23 77.64 212.67 80.08 230.02 80.08 230.02 66.77 212.69 66.77 210.23 69.23"/><polygon class="cls-29" points="212.78 77.32 212.79 77.32 215.06 79.65 216.75 79.65 214.48 77.32 214.47 77.32 214.47 69.5 214.48 69.5 216.75 67.18 215.06 67.18 212.81 69.48 212.78 69.48 212.78 77.32"/><rect class="cls-30" x="210.63" y="70.15" width="1.98" height="6.51"/><polygon class="cls-28" points="210.23 41.53 210.23 49.95 212.67 52.39 230.02 52.39 230.02 39.07 212.69 39.07 210.23 41.53"/><polygon class="cls-29" points="212.79 49.63 212.79 49.63 215.07 51.95 216.75 51.95 214.48 49.63 214.47 49.63 214.47 41.81 214.48 41.81 216.75 39.48 215.07 39.48 212.81 41.79 212.79 41.79 212.79 49.63"/><rect class="cls-30" x="210.63" y="42.46" width="1.98" height="6.51"/><polygon class="cls-28" points="510.16 96.43 510.16 104.84 507.71 107.29 490.36 107.29 490.36 93.97 507.7 93.97 510.16 96.43"/><polygon class="cls-29" points="507.6 104.52 507.59 104.52 505.32 106.85 503.63 106.85 505.9 104.52 505.91 104.52 505.91 96.7 505.9 96.7 503.63 94.38 505.32 94.38 507.57 96.68 507.6 96.68 507.6 104.52"/><rect class="cls-30" x="507.77" y="97.35" width="1.98" height="6.52"/><polygon class="cls-28" points="510.15 110.21 510.15 118.63 507.71 121.08 490.35 121.08 490.35 107.75 507.69 107.75 510.15 110.21"/><polygon class="cls-29" points="507.59 118.31 507.59 118.31 505.31 120.64 503.62 120.64 505.9 118.31 505.9 118.31 505.9 110.49 505.9 110.49 503.62 108.16 505.31 108.16 507.56 110.47 507.59 110.47 507.59 118.31"/><rect class="cls-30" x="507.76" y="111.14" width="1.98" height="6.51"/><polygon class="cls-28" points="385.01 96.43 385.01 104.84 382.57 107.29 365.21 107.29 365.21 93.97 382.55 93.97 385.01 96.43"/><polygon class="cls-29" points="382.45 104.52 382.45 104.52 380.17 106.85 378.48 106.85 380.76 104.52 380.76 104.52 380.76 96.7 380.76 96.7 378.48 94.38 380.17 94.38 382.43 96.68 382.45 96.68 382.45 104.52"/><rect class="cls-30" x="382.62" y="97.35" width="1.98" height="6.52"/><polygon class="cls-28" points="385 110.21 385 118.63 382.56 121.08 365.21 121.08 365.21 107.75 382.54 107.75 385 110.21"/><polygon class="cls-29" points="382.44 118.31 382.44 118.31 380.16 120.64 378.48 120.64 380.75 118.31 380.75 118.31 380.75 110.49 380.75 110.49 378.48 108.16 380.16 108.16 382.42 110.47 382.44 110.47 382.44 118.31"/><rect class="cls-30" x="382.61" y="111.14" width="1.98" height="6.51"/><polygon class="cls-28" points="359.81 96.43 359.81 104.84 357.37 107.29 340.02 107.29 340.02 93.97 357.35 93.97 359.81 96.43"/><polygon class="cls-29" points="357.25 104.52 357.25 104.52 354.97 106.85 353.28 106.85 355.56 104.52 355.56 104.52 355.56 96.7 355.56 96.7 353.28 94.38 354.97 94.38 357.23 96.68 357.25 96.68 357.25 104.52"/><rect class="cls-30" x="357.42" y="97.35" width="1.98" height="6.52"/><polygon class="cls-28" points="359.8 110.21 359.8 118.63 357.36 121.08 340.01 121.08 340.01 107.75 357.34 107.75 359.8 110.21"/><polygon class="cls-29" points="357.25 118.31 357.24 118.31 354.96 120.64 353.28 120.64 355.55 118.31 355.56 118.31 355.56 110.49 355.55 110.49 353.28 108.16 354.96 108.16 357.22 110.47 357.25 110.47 357.25 118.31"/><rect class="cls-30" x="357.41" y="111.14" width="1.98" height="6.51"/><polygon class="cls-28" points="334.39 96.43 334.39 104.84 331.94 107.29 314.59 107.29 314.59 93.97 331.93 93.97 334.39 96.43"/><polygon class="cls-29" points="331.83 104.52 331.82 104.52 329.55 106.85 327.86 106.85 330.13 104.52 330.14 104.52 330.14 96.7 330.13 96.7 327.86 94.38 329.55 94.38 331.8 96.68 331.83 96.68 331.83 104.52"/><rect class="cls-30" x="332" y="97.35" width="1.98" height="6.52"/><polygon class="cls-28" points="334.38 110.21 334.38 118.63 331.94 121.08 314.58 121.08 314.58 107.75 331.92 107.75 334.38 110.21"/><polygon class="cls-29" points="331.82 118.31 331.82 118.31 329.54 120.64 327.85 120.64 330.13 118.31 330.13 118.31 330.13 110.49 330.13 110.49 327.85 108.16 329.54 108.16 331.79 110.47 331.82 110.47 331.82 118.31"/><rect class="cls-30" x="331.99" y="111.14" width="1.98" height="6.51"/><polygon class="cls-28" points="309.81 96.43 309.81 104.84 307.37 107.29 290.02 107.29 290.02 93.97 307.35 93.97 309.81 96.43"/><polygon class="cls-29" points="307.25 104.52 307.25 104.52 304.97 106.85 303.29 106.85 305.56 104.52 305.56 104.52 305.56 96.7 305.56 96.7 303.29 94.38 304.97 94.38 307.23 96.68 307.25 96.68 307.25 104.52"/><rect class="cls-30" x="307.42" y="97.35" width="1.98" height="6.52"/><polygon class="cls-28" points="309.8 110.21 309.8 118.63 307.36 121.08 290.01 121.08 290.01 107.75 307.34 107.75 309.8 110.21"/><polygon class="cls-29" points="307.25 118.31 307.24 118.31 304.96 120.64 303.28 120.64 305.55 118.31 305.56 118.31 305.56 110.49 305.55 110.49 303.28 108.16 304.96 108.16 307.22 110.47 307.25 110.47 307.25 118.31"/><rect class="cls-30" x="307.41" y="111.14" width="1.98" height="6.51"/><polygon class="cls-28" points="285.28 96.43 285.28 104.84 282.84 107.29 265.48 107.29 265.48 93.97 282.82 93.97 285.28 96.43"/><polygon class="cls-29" points="282.72 104.52 282.71 104.52 280.44 106.85 278.75 106.85 281.03 104.52 281.03 104.52 281.03 96.7 281.03 96.7 278.75 94.38 280.44 94.38 282.69 96.68 282.72 96.68 282.72 104.52"/><rect class="cls-30" x="282.89" y="97.35" width="1.98" height="6.52"/><polygon class="cls-28" points="285.27 110.21 285.27 118.63 282.83 121.08 265.47 121.08 265.47 107.75 282.81 107.75 285.27 110.21"/><polygon class="cls-29" points="282.71 118.31 282.71 118.31 280.43 120.64 278.75 120.64 281.02 118.31 281.02 118.31 281.02 110.49 281.02 110.49 278.75 108.16 280.43 108.16 282.69 110.47 282.71 110.47 282.71 118.31"/><rect class="cls-30" x="282.88" y="111.14" width="1.98" height="6.51"/><polygon class="cls-28" points="260.59 96.43 260.59 104.84 258.14 107.29 240.79 107.29 240.79 93.97 258.13 93.97 260.59 96.43"/><polygon class="cls-29" points="258.03 104.52 258.02 104.52 255.75 106.85 254.06 106.85 256.33 104.52 256.34 104.52 256.34 96.7 256.33 96.7 254.06 94.38 255.75 94.38 258 96.68 258.03 96.68 258.03 104.52"/><rect class="cls-30" x="258.2" y="97.35" width="1.98" height="6.52"/><polygon class="cls-28" points="260.58 110.21 260.58 118.63 258.13 121.08 240.78 121.08 240.78 107.75 258.12 107.75 260.58 110.21"/><polygon class="cls-29" points="258.02 118.31 258.01 118.31 255.74 120.64 254.05 120.64 256.33 118.31 256.33 118.31 256.33 110.49 256.33 110.49 254.05 108.16 255.74 108.16 257.99 110.47 258.02 110.47 258.02 118.31"/><rect class="cls-30" x="258.19" y="111.14" width="1.98" height="6.51"/><polygon class="cls-28" points="234.81 96.43 234.81 104.84 232.37 107.29 215.02 107.29 215.02 93.97 232.35 93.97 234.81 96.43"/><polygon class="cls-29" points="232.25 104.52 232.25 104.52 229.97 106.85 228.28 106.85 230.56 104.52 230.56 104.52 230.56 96.7 230.56 96.7 228.28 94.38 229.97 94.38 232.22 96.68 232.25 96.68 232.25 104.52"/><rect class="cls-30" x="232.42" y="97.35" width="1.98" height="6.52"/><polygon class="cls-28" points="234.8 110.21 234.8 118.63 232.36 121.08 215.01 121.08 215.01 107.75 232.34 107.75 234.8 110.21"/><polygon class="cls-29" points="232.25 118.31 232.24 118.31 229.96 120.64 228.28 120.64 230.55 118.31 230.56 118.31 230.56 110.49 230.55 110.49 228.28 108.16 229.96 108.16 232.22 110.47 232.25 110.47 232.25 118.31"/><rect class="cls-30" x="232.41" y="111.14" width="1.98" height="6.51"/><polygon class="cls-28" points="182 96.43 182 104.84 184.45 107.29 201.8 107.29 201.8 93.97 184.47 93.97 182 96.43"/><polygon class="cls-29" points="184.56 104.52 184.57 104.52 186.84 106.85 188.53 106.85 186.26 104.52 186.25 104.52 186.25 96.7 186.26 96.7 188.53 94.38 186.84 94.38 184.59 96.68 184.56 96.68 184.56 104.52"/><rect class="cls-30" x="182.41" y="97.35" width="1.98" height="6.52"/><polygon class="cls-28" points="182.01 110.21 182.01 118.63 184.46 121.08 201.81 121.08 201.81 107.75 184.47 107.75 182.01 110.21"/><polygon class="cls-29" points="184.57 118.31 184.58 118.31 186.85 120.64 188.54 120.64 186.26 118.31 186.26 118.31 186.26 110.49 186.26 110.49 188.54 108.16 186.85 108.16 184.6 110.47 184.57 110.47 184.57 118.31"/><rect class="cls-30" x="182.42" y="111.14" width="1.98" height="6.51"/><polygon class="cls-28" points="455.4 96.43 455.4 104.84 457.84 107.29 475.19 107.29 475.19 93.97 457.86 93.97 455.4 96.43"/><polygon class="cls-29" points="457.96 104.52 457.96 104.52 460.24 106.85 461.93 106.85 459.65 104.52 459.65 104.52 459.65 96.71 459.65 96.71 461.93 94.38 460.24 94.38 457.98 96.69 457.96 96.69 457.96 104.52"/><rect class="cls-30" x="455.8" y="97.35" width="1.98" height="6.51"/><polygon class="cls-28" points="455.4 110.21 455.4 118.63 457.84 121.07 475.19 121.07 475.19 107.75 457.86 107.75 455.4 110.21"/><polygon class="cls-29" points="457.95 118.3 457.96 118.3 460.24 120.63 461.92 120.63 459.65 118.3 459.64 118.3 459.64 110.49 459.65 110.49 461.92 108.16 460.24 108.16 457.98 110.47 457.95 110.47 457.95 118.3"/><rect class="cls-30" x="455.8" y="111.14" width="1.98" height="6.51"/><polygon class="cls-28" points="455.4 82.52 455.4 90.93 457.84 93.38 475.19 93.38 475.19 80.06 457.86 80.06 455.4 82.52"/><polygon class="cls-29" points="457.96 90.61 457.96 90.61 460.24 92.94 461.92 92.94 459.65 90.61 459.64 90.61 459.64 82.79 459.65 82.79 461.92 80.47 460.24 80.47 457.98 82.77 457.96 82.77 457.96 90.61"/><rect class="cls-30" x="455.8" y="83.44" width="1.98" height="6.51"/><polygon class="cls-28" points="464.22 41.48 464.22 49.9 466.67 52.34 484.02 52.34 484.02 39.02 466.69 39.02 464.22 41.48"/><polygon class="cls-29" points="466.78 49.58 466.79 49.58 469.06 51.91 470.75 51.91 468.48 49.58 468.47 49.58 468.47 41.76 468.48 41.76 470.75 39.43 469.06 39.43 466.81 41.74 466.78 41.74 466.78 49.58"/><rect class="cls-30" x="464.63" y="42.41" width="1.98" height="6.52"/><polygon class="cls-28" points="464.23 55.27 464.23 63.68 466.68 66.13 484.03 66.13 484.03 52.8 466.69 52.8 464.23 55.27"/><polygon class="cls-29" points="466.79 63.36 466.79 63.36 469.07 65.69 470.76 65.69 468.48 63.36 468.48 63.36 468.48 55.55 468.48 55.55 470.76 53.22 469.07 53.22 466.82 55.52 466.79 55.52 466.79 63.36"/><rect class="cls-30" x="464.64" y="56.19" width="1.98" height="6.51"/><polygon class="cls-28" points="515.59 41.48 515.59 49.9 513.15 52.34 495.79 52.34 495.79 39.02 513.13 39.02 515.59 41.48"/><polygon class="cls-29" points="513.03 49.58 513.02 49.58 510.75 51.91 509.06 51.91 511.33 49.58 511.34 49.58 511.34 41.76 511.33 41.76 509.06 39.43 510.75 39.43 513 41.74 513.03 41.74 513.03 49.58"/><rect class="cls-30" x="513.2" y="42.41" width="1.98" height="6.52"/><polygon class="cls-28" points="515.58 55.27 515.58 63.68 513.14 66.13 495.78 66.13 495.78 52.8 513.12 52.8 515.58 55.27"/><polygon class="cls-29" points="513.02 63.36 513.02 63.36 510.74 65.69 509.05 65.69 511.33 63.36 511.33 63.36 511.33 55.55 511.33 55.55 509.05 53.22 510.74 53.22 513 55.52 513.02 55.52 513.02 63.36"/><rect class="cls-30" x="513.19" y="56.19" width="1.98" height="6.51"/></g><g id="SETENUMMER-2" data-name="SETENUMMER"><path class="cls-31" d="M58,43.92h0l-1.07.54-.19-.84,1.43-.7H59v5.85H58Z"/><path class="cls-31" d="M61.48,48a2.6,2.6,0,0,0,.61,0,2.17,2.17,0,0,0,1.19-.45,2.08,2.08,0,0,0,.75-1.3h0a1.69,1.69,0,0,1-1.28.51A1.73,1.73,0,0,1,61,44.91a2.07,2.07,0,0,1,2.11-2.09c1.37,0,2.09,1.06,2.09,2.5a3.6,3.6,0,0,1-1,2.72,3.24,3.24,0,0,1-2,.81,5,5,0,0,1-.66,0Zm.58-3.13a1,1,0,0,0,1,1.07,1.08,1.08,0,0,0,.95-.49.67.67,0,0,0,.06-.32c0-.79-.29-1.47-1-1.47C62.46,43.64,62.06,44.14,62.06,44.85Z"/><path class="cls-31" d="M66.88,45.72a1.42,1.42,0,0,1-.9-1.3,1.75,1.75,0,0,1,2-1.6c1.27,0,1.84.76,1.84,1.48a1.47,1.47,0,0,1-.9,1.32v0A1.58,1.58,0,0,1,70,47.13c0,1-.88,1.74-2.13,1.74s-2.08-.79-2.08-1.61a1.6,1.6,0,0,1,1.1-1.51Zm2,1.5c0-.6-.44-.92-1.09-1.1a1.06,1.06,0,0,0-.87,1,.93.93,0,0,0,1,1A.89.89,0,0,0,68.87,47.22ZM67,44.38c0,.48.4.76.95.92a.94.94,0,0,0,.73-.88.84.84,0,0,0-1.68,0Z"/><path class="cls-31" d="M58,57.66h0l-1.07.54-.19-.84,1.43-.7H59v5.85H58Z"/><path class="cls-31" d="M61.48,61.72a2.6,2.6,0,0,0,.61,0,2.17,2.17,0,0,0,1.19-.45A2.08,2.08,0,0,0,64,60h0a1.69,1.69,0,0,1-1.28.51A1.73,1.73,0,0,1,61,58.65a2.07,2.07,0,0,1,2.11-2.09c1.37,0,2.09,1.06,2.09,2.5a3.6,3.6,0,0,1-1,2.72,3.24,3.24,0,0,1-2,.81,5,5,0,0,1-.66,0Zm.58-3.13a1,1,0,0,0,1,1.07,1.08,1.08,0,0,0,.95-.49.67.67,0,0,0,.06-.32c0-.79-.29-1.47-1-1.47C62.46,57.38,62.06,57.88,62.06,58.59Z"/><path class="cls-31" d="M69.88,56.66v.71l-2.47,5.14H66.25l2.46-4.91v0H66v-.92Z"/><path class="cls-31" d="M50.5,98.88h0l-1.07.54-.19-.84,1.43-.7h.92v5.85H50.5Z"/><path class="cls-31" d="M54,102.94a2.7,2.7,0,0,0,.62,0,2.08,2.08,0,0,0,1.94-1.75h0a1.66,1.66,0,0,1-1.28.51,1.72,1.72,0,0,1-1.77-1.81,2.07,2.07,0,0,1,2.11-2.09c1.36,0,2.09,1.06,2.09,2.5a3.6,3.6,0,0,1-1,2.72,3.29,3.29,0,0,1-2,.81,5.16,5.16,0,0,1-.67,0Zm.59-3.13a1,1,0,0,0,1,1.07,1.1,1.1,0,0,0,1-.49.82.82,0,0,0,.06-.32c0-.79-.3-1.47-1-1.47C55,98.6,54.61,99.1,54.61,99.81Z"/><path class="cls-31" d="M62,98.67a2.84,2.84,0,0,0-.56,0,2.06,2.06,0,0,0-2,1.7h0a1.7,1.7,0,0,1,1.31-.57,1.77,1.77,0,0,1,1.79,1.91,2,2,0,0,1-2.06,2.09,2.23,2.23,0,0,1-2.2-2.53,3.54,3.54,0,0,1,1-2.61,3.3,3.3,0,0,1,2.08-.86,2.35,2.35,0,0,1,.56,0Zm-.51,3.14c0-.69-.37-1.17-1-1.17a1.08,1.08,0,0,0-1,.61.7.7,0,0,0-.07.35c0,.77.37,1.4,1.1,1.4C61.08,103,61.45,102.51,61.45,101.81Z"/><path class="cls-31" d="M50.5,112.62h0l-1.07.54-.19-.84,1.43-.7h.92v5.85H50.5Z"/><path class="cls-31" d="M54,116.68a2.7,2.7,0,0,0,.62,0,2.08,2.08,0,0,0,1.94-1.75h0a1.66,1.66,0,0,1-1.28.51,1.72,1.72,0,0,1-1.77-1.81,2.07,2.07,0,0,1,2.11-2.09c1.36,0,2.09,1.06,2.09,2.5a3.6,3.6,0,0,1-1,2.72,3.29,3.29,0,0,1-2,.81,5.16,5.16,0,0,1-.67,0Zm.59-3.13a1,1,0,0,0,1,1.07,1.1,1.1,0,0,0,1-.49.82.82,0,0,0,.06-.32c0-.79-.3-1.47-1-1.47C55,112.34,54.61,112.84,54.61,113.55Z"/><path class="cls-31" d="M62.13,112.54H59.88l-.17,1.17a2.5,2.5,0,0,1,.42,0,2.6,2.6,0,0,1,1.42.38,1.69,1.69,0,0,1,.76,1.49,2.13,2.13,0,0,1-2.36,2,3.36,3.36,0,0,1-1.55-.34l.22-.84a2.9,2.9,0,0,0,1.29.31,1.14,1.14,0,0,0,1.27-1.06c0-.68-.5-1.12-1.66-1.12-.33,0-.57,0-.8,0l.38-2.95h3Z"/><path class="cls-31" d="M88.54,43.92h0l-1.07.54-.19-.84,1.43-.7h.92v5.85H88.54Z"/><path class="cls-31" d="M92.06,48a2.7,2.7,0,0,0,.62,0,2.08,2.08,0,0,0,1.94-1.75h0a1.66,1.66,0,0,1-1.28.51,1.72,1.72,0,0,1-1.77-1.81,2.06,2.06,0,0,1,2.11-2.09c1.36,0,2.09,1.06,2.09,2.49a3.61,3.61,0,0,1-1,2.73,3.22,3.22,0,0,1-2,.8,4,4,0,0,1-.67,0Zm.59-3.13a1,1,0,0,0,1,1.07,1.1,1.1,0,0,0,1-.49.82.82,0,0,0,.06-.32c0-.8-.3-1.47-1-1.47C93,43.64,92.65,44.14,92.65,44.85Z"/><path class="cls-31" d="M98.89,48.77V47.29H96.23v-.72l2.39-3.65h1.31v3.53h.76v.84h-.76v1.48Zm0-2.32V44.86c0-.34,0-.67,0-1h0c-.18.37-.34.66-.52,1l-1.08,1.6v0Z"/><path class="cls-31" d="M88.54,57.66h0l-1.07.54-.19-.84,1.43-.7h.92v5.85H88.54Z"/><path class="cls-31" d="M92.06,61.72a2.7,2.7,0,0,0,.62,0A2.08,2.08,0,0,0,94.62,60h0a1.66,1.66,0,0,1-1.28.51,1.72,1.72,0,0,1-1.77-1.81,2.06,2.06,0,0,1,2.11-2.09c1.36,0,2.09,1.06,2.09,2.5a3.6,3.6,0,0,1-1,2.72,3.22,3.22,0,0,1-2,.8,4,4,0,0,1-.67,0Zm.59-3.13a1,1,0,0,0,1,1.07,1.1,1.1,0,0,0,1-.49.82.82,0,0,0,.06-.32c0-.79-.3-1.47-1-1.47C93,57.38,92.65,57.88,92.65,58.59Z"/><path class="cls-31" d="M96.67,61.37a3,3,0,0,0,1.33.36c.85,0,1.18-.48,1.18-.94,0-.69-.65-1-1.33-1h-.5V59h.5c.51,0,1.15-.23,1.15-.81,0-.4-.28-.74-.93-.74a2.37,2.37,0,0,0-1.2.37l-.25-.8a3.31,3.31,0,0,1,1.68-.45c1.22,0,1.83.67,1.83,1.43a1.43,1.43,0,0,1-1.08,1.37v0a1.5,1.5,0,0,1,1.29,1.46c0,1-.83,1.77-2.28,1.77a3.27,3.27,0,0,1-1.64-.4Z"/><path class="cls-31" d="M88.54,71.4h0l-1.07.54-.19-.84,1.43-.7h.92v5.85H88.54Z"/><path class="cls-31" d="M92.06,75.46a2.7,2.7,0,0,0,.62,0A2.11,2.11,0,0,0,93.86,75a2.15,2.15,0,0,0,.76-1.3h0a1.66,1.66,0,0,1-1.28.51,1.72,1.72,0,0,1-1.77-1.81,2.06,2.06,0,0,1,2.11-2.09c1.36,0,2.09,1.06,2.09,2.49a3.61,3.61,0,0,1-1,2.73,3.22,3.22,0,0,1-2,.8,4,4,0,0,1-.67,0Zm.59-3.13a1,1,0,0,0,1,1.07,1.1,1.1,0,0,0,1-.49.82.82,0,0,0,.06-.32c0-.79-.3-1.47-1-1.47C93,71.12,92.65,71.62,92.65,72.33Z"/><path class="cls-31" d="M96.45,76.25v-.67l.69-.64c1.38-1.28,2-2,2-2.76a.92.92,0,0,0-1-1,2.09,2.09,0,0,0-1.25.49l-.33-.79a3,3,0,0,1,1.81-.6,1.73,1.73,0,0,1,1.92,1.77c0,1-.74,1.86-1.76,2.8l-.51.45h2.4v.92Z"/><path class="cls-31" d="M81.08,98.88h0L80,99.42l-.19-.84,1.43-.7h.92v5.85H81.08Z"/><path class="cls-31" d="M84.61,102.94a2.6,2.6,0,0,0,.61,0,2.14,2.14,0,0,0,1.19-.45,2.12,2.12,0,0,0,.76-1.3h0a1.68,1.68,0,0,1-1.28.51,1.72,1.72,0,0,1-1.77-1.81,2.06,2.06,0,0,1,2.1-2.09c1.37,0,2.09,1.06,2.09,2.49a3.57,3.57,0,0,1-1,2.73,3.17,3.17,0,0,1-2,.8,4,4,0,0,1-.67,0Zm.58-3.13a1,1,0,0,0,1,1.07,1.08,1.08,0,0,0,.94-.49.66.66,0,0,0,.07-.32c0-.8-.3-1.47-1-1.47C85.59,98.6,85.19,99.1,85.19,99.81Z"/><path class="cls-31" d="M90.73,98.88h0l-1.07.54-.19-.84,1.43-.7h.92v5.85H90.73Z"/><path class="cls-31" d="M81.08,112.62h0l-1.07.54-.19-.84,1.43-.7h.92v5.85H81.08Z"/><path class="cls-31" d="M84.61,116.68a2.6,2.6,0,0,0,.61,0,2.14,2.14,0,0,0,1.19-.45,2.12,2.12,0,0,0,.76-1.3h0a1.68,1.68,0,0,1-1.28.51,1.72,1.72,0,0,1-1.77-1.81,2.06,2.06,0,0,1,2.1-2.09c1.37,0,2.09,1.06,2.09,2.5a3.57,3.57,0,0,1-1,2.72,3.17,3.17,0,0,1-2,.8,4,4,0,0,1-.67,0Zm.58-3.13a1,1,0,0,0,1,1.07,1.08,1.08,0,0,0,.94-.49.66.66,0,0,0,.07-.32c0-.79-.3-1.47-1-1.47C85.59,112.34,85.19,112.84,85.19,113.55Z"/><path class="cls-31" d="M93.13,114.5c0,1.89-.74,3.07-2.15,3.07s-2.06-1.22-2.07-3,.78-3,2.14-3S93.13,112.78,93.13,114.5Zm-3.1.06c0,1.43.39,2.17,1,2.17s1-.8,1-2.2-.32-2.16-1-2.16S90,113.1,90,114.56Z"/><path class="cls-31" d="M216.2,43.92h0l-1.08.54-.18-.84,1.43-.7h.92v5.85H216.2Z"/><path class="cls-31" d="M220.31,45.72a1.43,1.43,0,0,1-.89-1.3,1.74,1.74,0,0,1,2-1.6c1.27,0,1.84.76,1.84,1.48a1.46,1.46,0,0,1-.9,1.32v0a1.55,1.55,0,0,1,1.11,1.47c0,1.05-.88,1.75-2.13,1.75s-2.08-.79-2.08-1.61a1.6,1.6,0,0,1,1.1-1.51Zm2,1.49c0-.59-.43-.91-1.09-1.09a1.05,1.05,0,0,0-.86,1,.92.92,0,0,0,1,1A.89.89,0,0,0,222.3,47.21Zm-1.83-2.83c0,.48.4.76,1,.92a.94.94,0,0,0,.72-.89.84.84,0,0,0-1.68,0Z"/><path class="cls-31" d="M228.14,42.92v.71l-2.48,5.14H224.5L227,43.86v0h-2.76v-.92Z"/><path class="cls-31" d="M216.2,57.66h0l-1.08.54-.18-.84,1.43-.7h.92v5.85H216.2Z"/><path class="cls-31" d="M220.31,59.46a1.43,1.43,0,0,1-.89-1.3,1.74,1.74,0,0,1,2-1.6c1.27,0,1.84.76,1.84,1.48a1.46,1.46,0,0,1-.9,1.32v0a1.56,1.56,0,0,1,1.11,1.47c0,1-.88,1.75-2.13,1.75s-2.08-.79-2.08-1.61a1.6,1.6,0,0,1,1.1-1.51Zm2,1.49c0-.59-.43-.91-1.09-1.09a1.05,1.05,0,0,0-.86,1,.92.92,0,0,0,1,1A.89.89,0,0,0,222.3,61Zm-1.83-2.83c0,.48.4.76,1,.92a.94.94,0,0,0,.72-.89.84.84,0,0,0-1.68,0Z"/><path class="cls-31" d="M227.67,57.45a2.84,2.84,0,0,0-.56,0,2,2,0,0,0-2,1.7h0a1.7,1.7,0,0,1,1.31-.57,1.76,1.76,0,0,1,1.79,1.91,2,2,0,0,1-2.06,2.09,2.23,2.23,0,0,1-2.2-2.53,3.54,3.54,0,0,1,1-2.61,3.3,3.3,0,0,1,2.08-.86,2.35,2.35,0,0,1,.56,0Zm-.51,3.14c0-.69-.37-1.17-1-1.17a1.08,1.08,0,0,0-.95.61.7.7,0,0,0-.08.35c0,.77.38,1.4,1.11,1.4C226.79,61.78,227.16,61.29,227.16,60.59Z"/><path class="cls-31" d="M216.2,71.4h0l-1.08.54-.18-.84,1.43-.7h.92v5.85H216.2Z"/><path class="cls-31" d="M220.31,73.2a1.43,1.43,0,0,1-.89-1.3,1.74,1.74,0,0,1,2-1.6c1.27,0,1.84.76,1.84,1.48a1.46,1.46,0,0,1-.9,1.32v0a1.56,1.56,0,0,1,1.11,1.47c0,1.05-.88,1.75-2.13,1.75s-2.08-.79-2.08-1.61a1.6,1.6,0,0,1,1.1-1.51Zm2,1.49c0-.59-.43-.91-1.09-1.09a1.05,1.05,0,0,0-.86,1,.92.92,0,0,0,1,1A.89.89,0,0,0,222.3,74.69Zm-1.83-2.83c0,.48.4.76,1,.92a.94.94,0,0,0,.72-.89.84.84,0,0,0-1.68,0Z"/><path class="cls-31" d="M227.84,71.32h-2.25l-.17,1.17a2.5,2.5,0,0,1,.42,0,2.6,2.6,0,0,1,1.42.38,1.67,1.67,0,0,1,.76,1.48,2.13,2.13,0,0,1-2.36,2,3.36,3.36,0,0,1-1.55-.34l.22-.84a2.9,2.9,0,0,0,1.29.31,1.14,1.14,0,0,0,1.27-1.06c0-.68-.5-1.12-1.66-1.12-.33,0-.57,0-.8,0l.38-2.95h3Z"/><path class="cls-31" d="M218.07,98.88h0l-1.07.54-.19-.84,1.43-.7h.92v5.85h-1.07Z"/><path class="cls-31" d="M222.17,100.68a1.43,1.43,0,0,1-.89-1.3,1.74,1.74,0,0,1,1.95-1.6c1.27,0,1.84.76,1.84,1.48a1.46,1.46,0,0,1-.9,1.32v0a1.56,1.56,0,0,1,1.12,1.47c0,1-.89,1.75-2.14,1.75s-2.08-.79-2.08-1.61a1.61,1.61,0,0,1,1.1-1.51Zm2,1.49c0-.59-.43-.91-1.09-1.09a1.05,1.05,0,0,0-.86,1,.92.92,0,0,0,1,1A.89.89,0,0,0,224.16,102.17Zm-1.83-2.83c0,.48.4.76,1,.92a1,1,0,0,0,.73-.89.85.85,0,0,0-1.69,0Z"/><path class="cls-31" d="M228.42,103.73v-1.48h-2.66v-.72l2.4-3.65h1.3v3.53h.76v.84h-.76v1.48Zm0-2.32V99.82c0-.34,0-.67,0-1h0c-.18.37-.33.66-.51,1l-1.08,1.6v0Z"/><path class="cls-31" d="M218.07,112.62h0l-1.07.54-.19-.84,1.43-.7h.92v5.85h-1.07Z"/><path class="cls-31" d="M222.17,114.42a1.43,1.43,0,0,1-.89-1.3,1.74,1.74,0,0,1,1.95-1.6c1.27,0,1.84.76,1.84,1.48a1.46,1.46,0,0,1-.9,1.32v0a1.57,1.57,0,0,1,1.12,1.47c0,1.05-.89,1.75-2.14,1.75s-2.08-.79-2.08-1.61a1.61,1.61,0,0,1,1.1-1.51Zm2,1.49c0-.59-.43-.91-1.09-1.09a1.05,1.05,0,0,0-.86,1,.92.92,0,0,0,1,1A.89.89,0,0,0,224.16,115.91Zm-1.83-2.83c0,.48.4.76,1,.92a1,1,0,0,0,.73-.89.85.85,0,0,0-1.69,0Z"/><path class="cls-31" d="M226.2,116.33a3,3,0,0,0,1.34.36c.84,0,1.18-.48,1.18-.94,0-.69-.66-1-1.34-1h-.5V114h.5c.51,0,1.16-.23,1.16-.81,0-.4-.29-.74-.94-.74a2.4,2.4,0,0,0-1.2.37l-.25-.8a3.31,3.31,0,0,1,1.68-.45c1.22,0,1.83.67,1.83,1.43a1.43,1.43,0,0,1-1.08,1.37v0a1.5,1.5,0,0,1,1.29,1.46c0,1-.83,1.77-2.28,1.77a3.3,3.3,0,0,1-1.64-.4Z"/><path class="cls-31" d="M240.75,43.92h0l-1.07.54-.19-.84,1.44-.7h.91v5.85h-1.07Z"/><path class="cls-31" d="M244.86,45.72a1.42,1.42,0,0,1-.9-1.3,1.75,1.75,0,0,1,2-1.6c1.27,0,1.84.76,1.84,1.48a1.47,1.47,0,0,1-.9,1.32v0A1.57,1.57,0,0,1,248,47.12c0,1.05-.88,1.75-2.13,1.75s-2.08-.79-2.08-1.61a1.6,1.6,0,0,1,1.1-1.51Zm2,1.49c0-.59-.44-.91-1.09-1.09a1.06,1.06,0,0,0-.87,1,.92.92,0,0,0,1,1A.89.89,0,0,0,246.85,47.21ZM245,44.38c0,.48.4.76.95.92a.94.94,0,0,0,.73-.89.84.84,0,0,0-1.68,0Z"/><path class="cls-31" d="M248.66,48.77V48.1l.7-.64c1.37-1.28,2-2,2-2.76a.92.92,0,0,0-1-1,2.06,2.06,0,0,0-1.25.49l-.33-.79a2.9,2.9,0,0,1,1.8-.6,1.74,1.74,0,0,1,1.93,1.78c0,1-.74,1.85-1.77,2.79l-.5.45h2.39v.92Z"/><path class="cls-31" d="M240.75,57.66h0l-1.07.54-.19-.84,1.44-.7h.91v5.85h-1.07Z"/><path class="cls-31" d="M244.86,59.46a1.42,1.42,0,0,1-.9-1.3,1.75,1.75,0,0,1,2-1.6c1.27,0,1.84.76,1.84,1.48a1.47,1.47,0,0,1-.9,1.32v0A1.58,1.58,0,0,1,248,60.86c0,1-.88,1.75-2.13,1.75s-2.08-.79-2.08-1.61a1.6,1.6,0,0,1,1.1-1.51Zm2,1.49c0-.59-.44-.91-1.09-1.09a1.06,1.06,0,0,0-.87,1,.92.92,0,0,0,1,1A.89.89,0,0,0,246.85,61ZM245,58.12c0,.48.4.76.95.92a.94.94,0,0,0,.73-.89.84.84,0,0,0-1.68,0Z"/><path class="cls-31" d="M250.4,57.66h0l-1.07.54-.19-.84,1.43-.7h.92v5.85H250.4Z"/><path class="cls-31" d="M240.75,71.4h0l-1.07.54-.19-.84,1.44-.7h.91v5.85h-1.07Z"/><path class="cls-31" d="M244.86,73.2a1.42,1.42,0,0,1-.9-1.3,1.75,1.75,0,0,1,2-1.6c1.27,0,1.84.76,1.84,1.48a1.47,1.47,0,0,1-.9,1.32v0A1.58,1.58,0,0,1,248,74.6c0,1.05-.88,1.75-2.13,1.75s-2.08-.79-2.08-1.61a1.6,1.6,0,0,1,1.1-1.51Zm2,1.49c0-.59-.44-.91-1.09-1.09a1.06,1.06,0,0,0-.87,1,.92.92,0,0,0,1,1A.89.89,0,0,0,246.85,74.69ZM245,71.86c0,.48.4.76.95.92a.94.94,0,0,0,.73-.89.84.84,0,0,0-1.68,0Z"/><path class="cls-31" d="M252.8,73.28c0,1.89-.74,3.07-2.15,3.07s-2.06-1.22-2.07-3,.78-3,2.14-3S252.8,71.56,252.8,73.28Zm-3.1.06c0,1.43.39,2.17,1,2.17s1-.8,1-2.2-.32-2.16-1-2.16S249.7,71.88,249.7,73.34Z"/><path class="cls-31" d="M244.48,98.88h0l-1.07.54-.19-.84,1.43-.7h.92v5.85h-1.07Z"/><path class="cls-31" d="M251.59,97.88v.71l-2.48,5.14H248l2.47-4.91v0h-2.76v-.92Z"/><path class="cls-31" d="M252.83,102.94a2.6,2.6,0,0,0,.61,0,2.14,2.14,0,0,0,1.19-.45,2.12,2.12,0,0,0,.76-1.3h0a1.68,1.68,0,0,1-1.28.51,1.72,1.72,0,0,1-1.77-1.81,2.06,2.06,0,0,1,2.11-2.09c1.36,0,2.08,1.06,2.08,2.49a3.61,3.61,0,0,1-1,2.73,3.22,3.22,0,0,1-2,.8,4,4,0,0,1-.67,0Zm.59-3.13a1,1,0,0,0,1,1.07,1.11,1.11,0,0,0,1-.49.82.82,0,0,0,.06-.32c0-.79-.3-1.47-1-1.47C253.81,98.6,253.42,99.1,253.42,99.81Z"/><path class="cls-31" d="M244.48,112.62h0l-1.07.54-.19-.84,1.43-.7h.92v5.85h-1.07Z"/><path class="cls-31" d="M251.59,111.62v.71l-2.48,5.14H248l2.47-4.91v0h-2.76v-.92Z"/><path class="cls-31" d="M253.41,114.42a1.41,1.41,0,0,1-.89-1.3,1.74,1.74,0,0,1,1.95-1.6c1.27,0,1.84.76,1.84,1.48a1.47,1.47,0,0,1-.9,1.32v0a1.58,1.58,0,0,1,1.11,1.47c0,1.05-.88,1.75-2.13,1.75s-2.08-.79-2.08-1.61a1.6,1.6,0,0,1,1.1-1.51Zm2,1.49c0-.59-.44-.91-1.09-1.09a1.06,1.06,0,0,0-.87,1,.93.93,0,0,0,1,1A.89.89,0,0,0,255.4,115.91Zm-1.83-2.83c0,.48.4.76,1,.92a.94.94,0,0,0,.73-.89.84.84,0,0,0-1.68,0Z"/><path class="cls-31" d="M265.33,43.92h0l-1.08.54-.18-.84,1.43-.7h.92v5.85h-1.08Z"/><path class="cls-31" d="M272.44,42.92v.71L270,48.77h-1.16l2.46-4.91v0h-2.76v-.92Z"/><path class="cls-31" d="M277.27,42.92v.71l-2.48,5.14h-1.16l2.47-4.91v0h-2.76v-.92Z"/><path class="cls-31" d="M265.33,57.66h0l-1.08.54-.18-.84,1.43-.7h.92v5.85h-1.08Z"/><path class="cls-31" d="M272.44,56.66v.71L270,62.51h-1.16l2.46-4.91v0h-2.76v-.92Z"/><path class="cls-31" d="M276.8,57.45a2.84,2.84,0,0,0-.56,0,2,2,0,0,0-2,1.7h0a1.7,1.7,0,0,1,1.31-.57,1.76,1.76,0,0,1,1.79,1.91,2,2,0,0,1-2.06,2.09,2.23,2.23,0,0,1-2.2-2.53,3.54,3.54,0,0,1,1-2.61,3.28,3.28,0,0,1,2.08-.86,2.35,2.35,0,0,1,.56,0Zm-.51,3.14c0-.69-.37-1.17-1-1.17a1.08,1.08,0,0,0-.95.61.7.7,0,0,0-.08.35c0,.77.38,1.4,1.11,1.4C275.92,61.78,276.29,61.29,276.29,60.59Z"/><path class="cls-31" d="M265.33,71.4h0l-1.08.54-.18-.84,1.43-.7h.92v5.85h-1.08Z"/><path class="cls-31" d="M272.44,70.4v.71L270,76.25h-1.16l2.46-4.91v0h-2.76V70.4Z"/><path class="cls-31" d="M277,71.32h-2.25l-.17,1.17a2.46,2.46,0,0,1,.41,0,2.61,2.61,0,0,1,1.43.38,1.68,1.68,0,0,1,.76,1.49,2.13,2.13,0,0,1-2.36,2,3.36,3.36,0,0,1-1.55-.34l.22-.84a2.9,2.9,0,0,0,1.29.31A1.14,1.14,0,0,0,276,74.42c0-.68-.5-1.12-1.66-1.12-.33,0-.57,0-.8,0l.38-2.95h3Z"/><path class="cls-31" d="M269.06,98.88h0l-1.07.54-.19-.84,1.43-.7h.92v5.85h-1.07Z"/><path class="cls-31" d="M276.17,97.88v.71l-2.47,5.14h-1.17L275,98.82v0h-2.76v-.92Z"/><path class="cls-31" d="M279.41,103.73v-1.48h-2.65v-.72l2.39-3.65h1.31v3.53h.75v.84h-.75v1.48Zm0-2.32V99.82c0-.34,0-.67,0-1h0c-.18.37-.33.67-.51,1l-1.08,1.6v0Z"/><path class="cls-31" d="M269.06,112.62h0l-1.07.54-.19-.84,1.43-.7h.92v5.85h-1.07Z"/><path class="cls-31" d="M276.17,111.62v.71l-2.47,5.14h-1.17l2.47-4.91v0h-2.76v-.92Z"/><path class="cls-31" d="M277.2,116.33a2.92,2.92,0,0,0,1.33.36c.85,0,1.18-.48,1.18-.94,0-.69-.66-1-1.33-1h-.51V114h.51c.5,0,1.15-.23,1.15-.81,0-.4-.29-.74-.94-.74a2.33,2.33,0,0,0-1.19.37l-.26-.8a3.35,3.35,0,0,1,1.69-.45c1.21,0,1.82.67,1.82,1.43a1.43,1.43,0,0,1-1.08,1.37v0a1.5,1.5,0,0,1,1.29,1.46c0,1-.83,1.77-2.28,1.77a3.3,3.3,0,0,1-1.64-.4Z"/><path class="cls-31" d="M291.29,43.92h0l-1.07.54-.19-.84,1.43-.7h.92v5.85h-1.07Z"/><path class="cls-31" d="M298.4,42.92v.71l-2.47,5.14h-1.16l2.46-4.91v0h-2.76v-.92Z"/><path class="cls-31" d="M299.2,48.77V48.1l.7-.64c1.37-1.28,2-2,2-2.76a.92.92,0,0,0-1-1,2.09,2.09,0,0,0-1.26.49l-.32-.79a2.9,2.9,0,0,1,1.8-.6A1.74,1.74,0,0,1,303,44.59c0,1-.74,1.86-1.77,2.8l-.5.45h2.39v.92Z"/><path class="cls-31" d="M291.29,57.66h0l-1.07.54-.19-.84,1.43-.7h.92v5.85h-1.07Z"/><path class="cls-31" d="M298.4,56.66v.71l-2.47,5.14h-1.16l2.46-4.91v0h-2.76v-.92Z"/><path class="cls-31" d="M300.94,57.66h0l-1.07.54-.19-.84,1.43-.7H302v5.85h-1.07Z"/><path class="cls-31" d="M291.29,71.4h0l-1.07.54L290,71.1l1.43-.7h.92v5.85h-1.07Z"/><path class="cls-31" d="M298.4,70.4v.71l-2.47,5.14h-1.16l2.46-4.91v0h-2.76V70.4Z"/><path class="cls-31" d="M303.33,73.28c0,1.89-.73,3.07-2.14,3.07s-2.06-1.22-2.07-3,.78-3,2.14-3S303.33,71.56,303.33,73.28Zm-3.09,0c0,1.44.38,2.17,1,2.17s1-.79,1-2.19-.32-2.16-1-2.16S300.24,71.88,300.24,73.33Z"/><path class="cls-31" d="M293.15,98.88h0l-1.07.54-.19-.84,1.43-.7h.92v5.85h-1.08Z"/><path class="cls-31" d="M299.8,98.67a2.81,2.81,0,0,0-.56,0,2,2,0,0,0-2,1.7h0a1.7,1.7,0,0,1,1.32-.57,1.76,1.76,0,0,1,1.79,1.91,2,2,0,0,1-2.06,2.09,2.24,2.24,0,0,1-2.21-2.53,3.55,3.55,0,0,1,1-2.61,3.26,3.26,0,0,1,2.08-.86,2.32,2.32,0,0,1,.56,0Zm-.52,3.14c0-.69-.37-1.17-1-1.17a1.08,1.08,0,0,0-1,.61.8.8,0,0,0-.07.35c0,.77.38,1.4,1.11,1.4C298.91,103,299.28,102.51,299.28,101.81Z"/><path class="cls-31" d="M301.51,102.94a2.6,2.6,0,0,0,.61,0,2.17,2.17,0,0,0,1.19-.45,2.11,2.11,0,0,0,.75-1.3h0a1.69,1.69,0,0,1-1.28.51A1.73,1.73,0,0,1,301,99.87a2.07,2.07,0,0,1,2.11-2.09c1.37,0,2.09,1.06,2.09,2.49a3.61,3.61,0,0,1-1,2.73,3.17,3.17,0,0,1-2,.8,3.84,3.84,0,0,1-.66,0Zm.58-3.13a1,1,0,0,0,1,1.07,1.08,1.08,0,0,0,.94-.49.67.67,0,0,0,.06-.32c0-.8-.29-1.47-1-1.47C302.49,98.6,302.09,99.1,302.09,99.81Z"/><path class="cls-31" d="M293.15,112.62h0l-1.07.54-.19-.84,1.43-.7h.92v5.85h-1.08Z"/><path class="cls-31" d="M299.8,112.41a2.81,2.81,0,0,0-.56,0,2,2,0,0,0-2,1.7h0a1.7,1.7,0,0,1,1.32-.57,1.76,1.76,0,0,1,1.79,1.91,2,2,0,0,1-2.06,2.09,2.24,2.24,0,0,1-2.21-2.53,3.55,3.55,0,0,1,1-2.61,3.26,3.26,0,0,1,2.08-.86,2.32,2.32,0,0,1,.56,0Zm-.52,3.14c0-.69-.37-1.17-1-1.17a1.08,1.08,0,0,0-1,.61.8.8,0,0,0-.07.35c0,.77.38,1.4,1.11,1.4C298.91,116.74,299.28,116.25,299.28,115.55Z"/><path class="cls-31" d="M302.08,114.42a1.43,1.43,0,0,1-.89-1.3,1.75,1.75,0,0,1,2-1.6c1.26,0,1.83.76,1.83,1.48a1.46,1.46,0,0,1-.9,1.32v0a1.57,1.57,0,0,1,1.12,1.47c0,1.05-.88,1.75-2.14,1.75S301,116.78,301,116a1.61,1.61,0,0,1,1.1-1.51Zm2,1.49c0-.59-.43-.91-1.09-1.09a1.05,1.05,0,0,0-.86,1,.92.92,0,0,0,1,1A.88.88,0,0,0,304.07,115.91Zm-1.83-2.83c0,.48.4.76,1,.92a1,1,0,0,0,.73-.89.85.85,0,0,0-1.69,0Z"/><path class="cls-31" d="M315.39,43.92h0l-1.07.54-.19-.84,1.43-.7h.92v5.85h-1.07Z"/><path class="cls-31" d="M322,43.71a2.84,2.84,0,0,0-.56,0,2,2,0,0,0-2,1.7h0a1.7,1.7,0,0,1,1.32-.57,1.76,1.76,0,0,1,1.79,1.91,2,2,0,0,1-2.06,2.09,2.24,2.24,0,0,1-2.21-2.53,3.55,3.55,0,0,1,1-2.61,3.26,3.26,0,0,1,2.08-.86,2.32,2.32,0,0,1,.56,0Zm-.52,3.14c0-.69-.36-1.17-1-1.17a1.08,1.08,0,0,0-1,.61.8.8,0,0,0-.07.35c0,.77.38,1.4,1.11,1.4C321.15,48,321.51,47.55,321.51,46.85Z"/><path class="cls-31" d="M327.32,42.92v.71l-2.48,5.14h-1.16l2.47-4.91v0h-2.76v-.92Z"/><path class="cls-31" d="M315.39,57.66h0l-1.07.54-.19-.84,1.43-.7h.92v5.85h-1.07Z"/><path class="cls-31" d="M322,57.45a2.84,2.84,0,0,0-.56,0,2,2,0,0,0-2,1.7h0a1.7,1.7,0,0,1,1.32-.57,1.76,1.76,0,0,1,1.79,1.91,2,2,0,0,1-2.06,2.09,2.24,2.24,0,0,1-2.21-2.53,3.55,3.55,0,0,1,1-2.61,3.26,3.26,0,0,1,2.08-.86,2.32,2.32,0,0,1,.56,0Zm-.52,3.14c0-.69-.36-1.17-1-1.17a1.08,1.08,0,0,0-1,.61.83.83,0,0,0-.07.35c0,.77.38,1.4,1.11,1.4C321.15,61.78,321.51,61.29,321.51,60.59Z"/><path class="cls-31" d="M326.85,57.45a2.84,2.84,0,0,0-.56,0,2.06,2.06,0,0,0-2,1.7h0a1.7,1.7,0,0,1,1.31-.57,1.76,1.76,0,0,1,1.79,1.91,2,2,0,0,1-2.06,2.09,2.23,2.23,0,0,1-2.2-2.53,3.54,3.54,0,0,1,1-2.61,3.3,3.3,0,0,1,2.08-.86,2.35,2.35,0,0,1,.56,0Zm-.51,3.14c0-.69-.37-1.17-1-1.17a1.08,1.08,0,0,0-.95.61.7.7,0,0,0-.07.35c0,.77.37,1.4,1.1,1.4C326,61.78,326.34,61.29,326.34,60.59Z"/><path class="cls-31" d="M315.39,71.4h0l-1.07.54-.19-.84,1.43-.7h.92v5.85h-1.07Z"/><path class="cls-31" d="M322,71.19a2.84,2.84,0,0,0-.56,0,2,2,0,0,0-2,1.7h0a1.7,1.7,0,0,1,1.32-.57,1.76,1.76,0,0,1,1.79,1.91,2,2,0,0,1-2.06,2.09,2.24,2.24,0,0,1-2.21-2.53,3.55,3.55,0,0,1,1-2.61,3.26,3.26,0,0,1,2.08-.86,2.32,2.32,0,0,1,.56,0Zm-.52,3.13c0-.68-.36-1.16-1-1.16a1.08,1.08,0,0,0-1,.61.83.83,0,0,0-.07.35c0,.77.38,1.4,1.11,1.4C321.15,75.52,321.51,75,321.51,74.32Z"/><path class="cls-31" d="M327,71.32h-2.25l-.17,1.17a2.5,2.5,0,0,1,.42,0,2.6,2.6,0,0,1,1.42.38,1.67,1.67,0,0,1,.76,1.48,2.13,2.13,0,0,1-2.36,2,3.36,3.36,0,0,1-1.55-.34l.22-.84a2.9,2.9,0,0,0,1.29.31,1.14,1.14,0,0,0,1.27-1.06c0-.68-.5-1.12-1.66-1.12-.33,0-.57,0-.8,0L324,70.4h3Z"/><path class="cls-31" d="M319.11,98.88h0l-1.07.54-.19-.84,1.43-.7h.92v5.85h-1.07Z"/><path class="cls-31" d="M325.75,98.67a2.71,2.71,0,0,0-.55,0,2.06,2.06,0,0,0-2,1.7h0a1.7,1.7,0,0,1,1.31-.57,1.77,1.77,0,0,1,1.8,1.91,2,2,0,0,1-2.06,2.09,2.23,2.23,0,0,1-2.21-2.53,3.51,3.51,0,0,1,1-2.61,3.26,3.26,0,0,1,2.08-.86,2.26,2.26,0,0,1,.55,0Zm-.51,3.14c0-.69-.37-1.17-1-1.17a1.08,1.08,0,0,0-1,.61.68.68,0,0,0-.07.35c0,.77.38,1.4,1.11,1.4C324.87,103,325.24,102.51,325.24,101.81Z"/><path class="cls-31" d="M329.46,103.73v-1.48h-2.65v-.72l2.39-3.65h1.31v3.53h.75v.84h-.75v1.48Zm0-2.32V99.82c0-.34,0-.67,0-1h0c-.18.37-.33.66-.51,1l-1.08,1.6v0Z"/><path class="cls-31" d="M319.11,112.62h0l-1.07.54-.19-.84,1.43-.7h.92v5.85h-1.07Z"/><path class="cls-31" d="M325.75,112.41a2.71,2.71,0,0,0-.55,0,2.06,2.06,0,0,0-2,1.7h0a1.7,1.7,0,0,1,1.31-.57,1.77,1.77,0,0,1,1.8,1.91,2,2,0,0,1-2.06,2.09A2.23,2.23,0,0,1,322.1,115a3.51,3.51,0,0,1,1-2.61,3.26,3.26,0,0,1,2.08-.86,2.26,2.26,0,0,1,.55,0Zm-.51,3.14c0-.69-.37-1.17-1-1.17a1.08,1.08,0,0,0-1,.61.68.68,0,0,0-.07.35c0,.77.38,1.4,1.11,1.4C324.87,116.74,325.24,116.25,325.24,115.55Z"/><path class="cls-31" d="M327.25,116.33a2.92,2.92,0,0,0,1.33.36c.85,0,1.18-.48,1.18-.94,0-.69-.66-1-1.33-1h-.51V114h.51c.5,0,1.15-.23,1.15-.81,0-.4-.29-.74-.94-.74a2.36,2.36,0,0,0-1.19.37l-.26-.8a3.35,3.35,0,0,1,1.69-.45c1.21,0,1.82.67,1.82,1.43a1.43,1.43,0,0,1-1.08,1.37v0a1.49,1.49,0,0,1,1.29,1.46c0,1-.83,1.77-2.28,1.77a3.22,3.22,0,0,1-1.63-.4Z"/><path class="cls-31" d="M339.52,43.92h0l-1.07.54-.19-.84,1.44-.7h.91v5.85h-1.07Z"/><path class="cls-31" d="M346.17,43.71a2.77,2.77,0,0,0-.56,0,2,2,0,0,0-2,1.7h0a1.7,1.7,0,0,1,1.32-.57,1.77,1.77,0,0,1,1.79,1.91,2,2,0,0,1-2.06,2.09,2.23,2.23,0,0,1-2.21-2.53,3.55,3.55,0,0,1,1-2.61,3.26,3.26,0,0,1,2.08-.86,2.32,2.32,0,0,1,.56,0Zm-.52,3.14c0-.69-.37-1.17-1-1.17a1.08,1.08,0,0,0-1,.61.8.8,0,0,0-.07.35c0,.77.38,1.4,1.11,1.4C345.28,48,345.65,47.55,345.65,46.85Z"/><path class="cls-31" d="M347.43,48.77V48.1l.7-.64c1.37-1.28,2-2,2-2.76a.92.92,0,0,0-1-1,2.06,2.06,0,0,0-1.25.49l-.33-.79a2.9,2.9,0,0,1,1.8-.6,1.74,1.74,0,0,1,1.93,1.77c0,1-.74,1.86-1.77,2.8l-.5.45h2.4v.92Z"/><path class="cls-31" d="M339.52,57.66h0l-1.07.54-.19-.84,1.44-.7h.91v5.85h-1.07Z"/><path class="cls-31" d="M346.17,57.45a2.77,2.77,0,0,0-.56,0,2,2,0,0,0-2,1.7h0a1.7,1.7,0,0,1,1.32-.57,1.77,1.77,0,0,1,1.79,1.91,2,2,0,0,1-2.06,2.09,2.23,2.23,0,0,1-2.21-2.53,3.55,3.55,0,0,1,1-2.61,3.26,3.26,0,0,1,2.08-.86,2.32,2.32,0,0,1,.56,0Zm-.52,3.14c0-.69-.37-1.17-1-1.17a1.08,1.08,0,0,0-1,.61.83.83,0,0,0-.07.35c0,.77.38,1.4,1.11,1.4C345.28,61.78,345.65,61.29,345.65,60.59Z"/><path class="cls-31" d="M349.17,57.66h0l-1.07.54-.19-.84,1.43-.7h.92v5.85h-1.07Z"/><path class="cls-31" d="M339.52,71.4h0l-1.07.54-.19-.84,1.44-.7h.91v5.85h-1.07Z"/><path class="cls-31" d="M346.17,71.19a2.77,2.77,0,0,0-.56,0,2,2,0,0,0-2,1.7h0a1.7,1.7,0,0,1,1.32-.57,1.77,1.77,0,0,1,1.79,1.91,2,2,0,0,1-2.06,2.09,2.23,2.23,0,0,1-2.21-2.53,3.55,3.55,0,0,1,1-2.61,3.26,3.26,0,0,1,2.08-.86,2.32,2.32,0,0,1,.56,0Zm-.52,3.13a1,1,0,0,0-1-1.16,1.08,1.08,0,0,0-1,.61.83.83,0,0,0-.07.35c0,.77.38,1.4,1.11,1.4C345.28,75.52,345.65,75,345.65,74.32Z"/><path class="cls-31" d="M351.57,73.28c0,1.89-.74,3.07-2.15,3.07s-2.06-1.22-2.07-3,.78-3,2.14-3S351.57,71.56,351.57,73.28Zm-3.1,0c0,1.44.39,2.17,1,2.17s1-.79,1-2.19-.32-2.16-1-2.16S348.47,71.88,348.47,73.33Z"/><path class="cls-31" d="M343.25,98.88h0l-1.07.54-.19-.84,1.43-.7h.92v5.85h-1.07Z"/><path class="cls-31" d="M350.06,98.8h-2.25l-.17,1.17a2.5,2.5,0,0,1,.42,0,2.6,2.6,0,0,1,1.42.38,1.68,1.68,0,0,1,.76,1.49,2.13,2.13,0,0,1-2.36,2,3.36,3.36,0,0,1-1.55-.34l.22-.84a2.9,2.9,0,0,0,1.29.31,1.14,1.14,0,0,0,1.27-1.07c0-.67-.5-1.11-1.66-1.11-.33,0-.57,0-.8,0l.38-3h3Z"/><path class="cls-31" d="M351.6,102.94a2.6,2.6,0,0,0,.61,0,2.14,2.14,0,0,0,1.19-.45,2.12,2.12,0,0,0,.76-1.3h0a1.68,1.68,0,0,1-1.28.51,1.72,1.72,0,0,1-1.77-1.81,2.06,2.06,0,0,1,2.1-2.09c1.37,0,2.09,1.06,2.09,2.49a3.61,3.61,0,0,1-1,2.73,3.22,3.22,0,0,1-2,.8,4,4,0,0,1-.67,0Zm.59-3.13a1,1,0,0,0,1,1.07,1.11,1.11,0,0,0,1-.49.82.82,0,0,0,.06-.32c0-.8-.3-1.47-1-1.47C352.58,98.6,352.19,99.1,352.19,99.81Z"/><path class="cls-31" d="M343.25,112.62h0l-1.07.54-.19-.84,1.43-.7h.92v5.85h-1.07Z"/><path class="cls-31" d="M350.06,112.54h-2.25l-.17,1.17a2.5,2.5,0,0,1,.42,0,2.6,2.6,0,0,1,1.42.38,1.68,1.68,0,0,1,.76,1.49,2.13,2.13,0,0,1-2.36,2,3.36,3.36,0,0,1-1.55-.34l.22-.84a2.9,2.9,0,0,0,1.29.31,1.14,1.14,0,0,0,1.27-1.06c0-.68-.5-1.12-1.66-1.12-.33,0-.57,0-.8,0l.38-2.95h3Z"/><path class="cls-31" d="M352.18,114.42a1.43,1.43,0,0,1-.89-1.3,1.74,1.74,0,0,1,1.95-1.6c1.27,0,1.84.76,1.84,1.48a1.46,1.46,0,0,1-.9,1.32v0a1.56,1.56,0,0,1,1.11,1.47c0,1.05-.88,1.75-2.13,1.75s-2.08-.79-2.08-1.61a1.6,1.6,0,0,1,1.1-1.51Zm2,1.49c0-.59-.44-.91-1.09-1.09a1.06,1.06,0,0,0-.87,1,.93.93,0,0,0,1,1A.89.89,0,0,0,354.17,115.91Zm-1.83-2.83c0,.48.4.76,1,.92a.94.94,0,0,0,.73-.89.84.84,0,0,0-1.68,0Z"/><path class="cls-31" d="M469.91,43.92h0l-1.07.54-.19-.84,1.43-.7H471v5.85h-1.07Z"/><path class="cls-31" d="M476.72,43.84h-2.25L474.3,45a2.5,2.5,0,0,1,.42,0,2.6,2.6,0,0,1,1.42.38,1.68,1.68,0,0,1,.76,1.49,2.13,2.13,0,0,1-2.36,2,3.36,3.36,0,0,1-1.55-.34l.22-.84a2.9,2.9,0,0,0,1.29.31,1.14,1.14,0,0,0,1.27-1.07c0-.67-.5-1.11-1.66-1.11-.33,0-.57,0-.8,0l.38-2.95h3Z"/><path class="cls-31" d="M477.82,48.77V48.1l.69-.64c1.38-1.28,2-2,2-2.76a.92.92,0,0,0-1.05-1,2.09,2.09,0,0,0-1.25.49l-.32-.79a2.9,2.9,0,0,1,1.8-.6,1.74,1.74,0,0,1,1.93,1.77c0,1-.74,1.86-1.77,2.8l-.5.45h2.39v.92Z"/><path class="cls-31" d="M469.91,57.66h0l-1.07.54-.19-.84,1.43-.7H471v5.85h-1.07Z"/><path class="cls-31" d="M476.72,57.58h-2.25l-.17,1.17a2.5,2.5,0,0,1,.42,0,2.6,2.6,0,0,1,1.42.38,1.68,1.68,0,0,1,.76,1.49,2.13,2.13,0,0,1-2.36,2,3.36,3.36,0,0,1-1.55-.34l.22-.84a2.9,2.9,0,0,0,1.29.31,1.14,1.14,0,0,0,1.27-1.06c0-.68-.5-1.12-1.66-1.12-.33,0-.57,0-.8,0l.38-3h3Z"/><path class="cls-31" d="M479.56,57.66h0l-1.07.54-.19-.84,1.43-.7h.92v5.85h-1.07Z"/><path class="cls-31" d="M462.46,85.14h0l-1.07.54-.19-.84,1.43-.7h.92V90h-1.07Z"/><path class="cls-31" d="M469.27,85.06H467l-.17,1.17a2.37,2.37,0,0,1,.41,0,2.61,2.61,0,0,1,1.43.38,1.67,1.67,0,0,1,.76,1.48,2.14,2.14,0,0,1-2.36,2,3.44,3.44,0,0,1-1.56-.34l.23-.84a2.9,2.9,0,0,0,1.29.31,1.15,1.15,0,0,0,1.27-1.06c0-.68-.5-1.12-1.66-1.12a7.91,7.91,0,0,0-.8,0l.38-3h3Z"/><path class="cls-31" d="M474.5,87c0,1.89-.74,3.07-2.14,3.07s-2.06-1.22-2.07-3,.77-3,2.14-3S474.5,85.3,474.5,87Zm-3.1,0c0,1.44.39,2.17,1,2.17s1-.79,1-2.19-.31-2.16-1-2.16S471.4,85.62,471.4,87.07Z"/><path class="cls-31" d="M462.46,98.88h0l-1.07.54-.19-.84,1.43-.7h.92v5.85h-1.07Z"/><path class="cls-31" d="M468,103.73v-1.48h-2.65v-.72l2.39-3.65H469v3.53h.75v.84H469v1.48Zm0-2.32V99.82c0-.34,0-.67,0-1h0c-.18.37-.33.66-.51,1l-1.08,1.6v0Z"/><path class="cls-31" d="M470.81,102.94a2.6,2.6,0,0,0,.61,0,2.17,2.17,0,0,0,1.19-.45,2.06,2.06,0,0,0,.75-1.3h0a1.68,1.68,0,0,1-1.28.51,1.72,1.72,0,0,1-1.77-1.81,2.06,2.06,0,0,1,2.1-2.09c1.37,0,2.09,1.06,2.09,2.49a3.57,3.57,0,0,1-1,2.73,3.17,3.17,0,0,1-2,.8,3.84,3.84,0,0,1-.66,0Zm.58-3.13a1,1,0,0,0,1,1.07,1.08,1.08,0,0,0,.94-.49.67.67,0,0,0,.06-.32c0-.8-.29-1.47-1-1.47C471.79,98.6,471.39,99.1,471.39,99.81Z"/><path class="cls-31" d="M462.46,112.62h0l-1.07.54-.19-.84,1.43-.7h.92v5.85h-1.07Z"/><path class="cls-31" d="M468,117.47V116h-2.65v-.72l2.39-3.65H469v3.53h.75V116H469v1.48Zm0-2.32v-1.59c0-.34,0-.67,0-1h0c-.18.37-.33.66-.51,1l-1.08,1.6v0Z"/><path class="cls-31" d="M471.38,114.42a1.43,1.43,0,0,1-.89-1.3,1.75,1.75,0,0,1,2-1.6c1.27,0,1.83.76,1.83,1.48a1.46,1.46,0,0,1-.9,1.32v0a1.57,1.57,0,0,1,1.12,1.47c0,1.05-.88,1.75-2.13,1.75s-2.08-.79-2.08-1.61a1.6,1.6,0,0,1,1.09-1.51Zm2,1.49c0-.59-.43-.91-1.09-1.09a1.06,1.06,0,0,0-.86,1,.92.92,0,0,0,1,1A.88.88,0,0,0,473.37,115.91Zm-1.82-2.83c0,.48.39.76.95.92a.94.94,0,0,0,.73-.89.78.78,0,0,0-.84-.82A.77.77,0,0,0,471.55,113.08Z"/><path class="cls-31" d="M498.67,43.92h0l-1.07.54-.19-.84,1.43-.7h.92v5.85h-1.07Z"/><path class="cls-31" d="M504.2,48.77V47.29h-2.66v-.72l2.4-3.65h1.3v3.53H506v.84h-.76v1.48Zm0-2.32V44.86c0-.34,0-.67,0-1h0c-.18.37-.34.66-.52,1l-1.08,1.6v0Z"/><path class="cls-31" d="M510.61,42.92v.71l-2.48,5.14H507l2.47-4.91v0h-2.77v-.92Z"/><path class="cls-31" d="M498.67,57.66h0l-1.07.54-.19-.84,1.43-.7h.92v5.85h-1.07Z"/><path class="cls-31" d="M504.2,62.51V61h-2.66v-.72l2.4-3.65h1.3v3.53H506V61h-.76v1.48Zm0-2.32V58.6c0-.34,0-.67,0-1h0c-.18.37-.34.66-.52,1l-1.08,1.6v0Z"/><path class="cls-31" d="M510.14,57.45a2.84,2.84,0,0,0-.56,0,2,2,0,0,0-2,1.7h0a1.7,1.7,0,0,1,1.32-.57,1.76,1.76,0,0,1,1.79,1.91,2,2,0,0,1-2.06,2.09,2.24,2.24,0,0,1-2.21-2.53,3.55,3.55,0,0,1,1-2.61,3.26,3.26,0,0,1,2.08-.86,2.32,2.32,0,0,1,.56,0Zm-.52,3.14c0-.69-.36-1.17-1-1.17a1.08,1.08,0,0,0-1,.61.83.83,0,0,0-.07.35c0,.77.38,1.4,1.11,1.4C509.26,61.78,509.62,61.29,509.62,60.59Z"/><path class="cls-31" d="M493.08,98.88h0l-1.07.54-.19-.84,1.43-.7h.92v5.85h-1.07Z"/><path class="cls-31" d="M498.61,103.73v-1.48H496v-.72l2.4-3.65h1.3v3.53h.76v.84h-.76v1.48Zm0-2.32V99.82c0-.34,0-.67,0-1h0c-.18.37-.34.66-.52,1l-1.08,1.6v0Z"/><path class="cls-31" d="M504.72,98.8h-2.25L502.3,100a2.37,2.37,0,0,1,.41,0,2.56,2.56,0,0,1,1.42.38,1.68,1.68,0,0,1,.77,1.49,2.14,2.14,0,0,1-2.36,2,3.44,3.44,0,0,1-1.56-.34l.23-.84a2.86,2.86,0,0,0,1.29.31,1.15,1.15,0,0,0,1.27-1.07c0-.67-.5-1.11-1.66-1.11a7.71,7.71,0,0,0-.8,0l.38-3h3Z"/><path class="cls-31" d="M493.08,112.62h0l-1.07.54-.19-.84,1.43-.7h.92v5.85h-1.07Z"/><path class="cls-31" d="M498.61,117.47V116H496v-.72l2.4-3.65h1.3v3.53h.76V116h-.76v1.48Zm0-2.32v-1.59c0-.34,0-.67,0-1h0c-.18.37-.34.66-.52,1l-1.08,1.6v0Z"/><path class="cls-31" d="M503.43,117.47V116h-2.65v-.72l2.39-3.65h1.31v3.53h.75V116h-.75v1.48Zm0-2.32v-1.59c0-.34,0-.67,0-1h0c-.18.37-.33.66-.51,1l-1.08,1.6v0Z"/><path class="cls-31" d="M188.07,98.7h0l-1.07.54-.19-.84,1.43-.7h.92v5.85h-1.07Z"/><path class="cls-31" d="M192.17,100.5a1.43,1.43,0,0,1-.89-1.29,1.74,1.74,0,0,1,1.95-1.61c1.27,0,1.84.76,1.84,1.48a1.46,1.46,0,0,1-.9,1.32v0a1.57,1.57,0,0,1,1.11,1.48c0,1-.88,1.74-2.13,1.74s-2.08-.79-2.08-1.61a1.62,1.62,0,0,1,1.1-1.51Zm2,1.5c0-.6-.43-.92-1.09-1.1a1.05,1.05,0,0,0-.86,1,.92.92,0,0,0,1,1A.89.89,0,0,0,194.16,102Zm-1.83-2.84c0,.48.4.77,1,.92a1,1,0,0,0,.73-.88.79.79,0,0,0-.84-.83A.78.78,0,0,0,192.33,99.16Z"/><path class="cls-31" d="M196.42,102.76a2.6,2.6,0,0,0,.61,0,2.17,2.17,0,0,0,1.19-.45A2,2,0,0,0,199,101h0a1.68,1.68,0,0,1-1.28.51,1.72,1.72,0,0,1-1.77-1.81A2.07,2.07,0,0,1,198,97.6c1.37,0,2.09,1.07,2.09,2.5a3.6,3.6,0,0,1-1,2.72,3.24,3.24,0,0,1-2,.81,5,5,0,0,1-.66,0Zm.58-3.13a1,1,0,0,0,1,1.07,1.08,1.08,0,0,0,.94-.49.67.67,0,0,0,.06-.32c0-.79-.29-1.47-1-1.47C197.4,98.42,197,98.92,197,99.63Z"/><path class="cls-31" d="M188.07,112.44h0L187,113l-.19-.84,1.43-.7h.92v5.85h-1.07Z"/><path class="cls-31" d="M192.17,114.24a1.43,1.43,0,0,1-.89-1.29,1.74,1.74,0,0,1,1.95-1.61c1.27,0,1.84.76,1.84,1.48a1.46,1.46,0,0,1-.9,1.32v0a1.57,1.57,0,0,1,1.11,1.48c0,1-.88,1.74-2.13,1.74s-2.08-.79-2.08-1.61a1.62,1.62,0,0,1,1.1-1.51Zm2,1.5c0-.6-.43-.92-1.09-1.1a1.05,1.05,0,0,0-.86,1,.92.92,0,0,0,1,1A.89.89,0,0,0,194.16,115.74Zm-1.83-2.84c0,.48.4.77,1,.92a1,1,0,0,0,.73-.88.79.79,0,0,0-.84-.83A.78.78,0,0,0,192.33,112.9Z"/><path class="cls-31" d="M197,114.24a1.43,1.43,0,0,1-.89-1.29,1.75,1.75,0,0,1,2-1.61c1.27,0,1.83.76,1.83,1.48a1.46,1.46,0,0,1-.9,1.32v0a1.58,1.58,0,0,1,1.12,1.48c0,1-.88,1.74-2.13,1.74s-2.08-.79-2.08-1.61a1.61,1.61,0,0,1,1.09-1.51Zm2,1.5c0-.6-.43-.92-1.09-1.1a1.06,1.06,0,0,0-.86,1,.92.92,0,0,0,1,1A.88.88,0,0,0,199,115.74Zm-1.82-2.84c0,.48.39.77,1,.92a.94.94,0,0,0,.73-.88.78.78,0,0,0-.84-.83A.77.77,0,0,0,197.16,112.9Z"/><path class="cls-31" d="M370.11,43.92h0l-1.07.54-.19-.84,1.43-.7h.92v5.85h-1.07Z"/><path class="cls-31" d="M376.92,43.84h-2.25L374.5,45a2.87,2.87,0,0,1,1.84.35,1.67,1.67,0,0,1,.76,1.48,2.13,2.13,0,0,1-2.35,2,3.37,3.37,0,0,1-1.56-.34l.22-.84a2.93,2.93,0,0,0,1.29.31A1.14,1.14,0,0,0,376,46.93c0-.67-.49-1.11-1.66-1.11-.33,0-.57,0-.8,0l.38-2.95h3Z"/><path class="cls-31" d="M382.05,42.92v.71l-2.48,5.14h-1.16l2.47-4.92h-2.77v-.92Z"/><path class="cls-31" d="M370.11,57.66h0L369,58.2l-.19-.84,1.43-.7h.92v5.85h-1.07Z"/><path class="cls-31" d="M376.92,57.58h-2.25l-.17,1.17a2.87,2.87,0,0,1,1.84.35,1.67,1.67,0,0,1,.76,1.48,2.13,2.13,0,0,1-2.35,2,3.37,3.37,0,0,1-1.56-.34l.22-.84a2.93,2.93,0,0,0,1.29.31A1.14,1.14,0,0,0,376,60.67c0-.67-.49-1.11-1.66-1.11-.33,0-.57,0-.8,0l.38-3h3Z"/><path class="cls-31" d="M381.58,57.45a2.81,2.81,0,0,0-.56,0,2,2,0,0,0-2,1.7h0a1.7,1.7,0,0,1,1.32-.57,1.76,1.76,0,0,1,1.79,1.91,2,2,0,0,1-2.06,2.09,2.24,2.24,0,0,1-2.21-2.53,3.53,3.53,0,0,1,1-2.61A3.32,3.32,0,0,1,381,56.6a2.83,2.83,0,0,1,.56,0Zm-.52,3.13a1,1,0,0,0-1-1.16,1.08,1.08,0,0,0-1,.61.8.8,0,0,0-.07.35c0,.77.38,1.4,1.11,1.4C380.69,61.78,381.06,61.29,381.06,60.58Z"/><path class="cls-31" d="M370.11,71.4h0l-1.07.54-.19-.84,1.43-.7h.92v5.85h-1.07Z"/><path class="cls-31" d="M376.92,71.32h-2.25l-.17,1.17a2.87,2.87,0,0,1,1.84.35,1.67,1.67,0,0,1,.76,1.48,2.13,2.13,0,0,1-2.35,2,3.37,3.37,0,0,1-1.56-.34l.22-.84a2.93,2.93,0,0,0,1.29.31A1.14,1.14,0,0,0,376,74.41c0-.67-.49-1.11-1.66-1.11a5.88,5.88,0,0,0-.8,0l.38-2.95h3Z"/><path class="cls-31" d="M381.75,71.32H379.5l-.17,1.17a2.37,2.37,0,0,1,.41,0,2.58,2.58,0,0,1,1.42.38,1.68,1.68,0,0,1,.77,1.48,2.14,2.14,0,0,1-2.36,2A3.44,3.44,0,0,1,378,76l.23-.84a2.85,2.85,0,0,0,1.28.31,1.14,1.14,0,0,0,1.27-1.07c0-.67-.49-1.11-1.65-1.11a5.66,5.66,0,0,0-.8,0l.37-2.95h3Z"/><path class="cls-31" d="M368.25,98.88h0l-1.07.54-.19-.84,1.43-.7h.92v5.85h-1.07Z"/><path class="cls-31" d="M375.06,98.8h-2.25l-.17,1.17a2.46,2.46,0,0,1,.41,0,2.61,2.61,0,0,1,1.43.38,1.67,1.67,0,0,1,.76,1.48,2.14,2.14,0,0,1-2.36,2,3.44,3.44,0,0,1-1.56-.34l.23-.84a2.9,2.9,0,0,0,1.29.31,1.14,1.14,0,0,0,1.27-1.07c0-.67-.5-1.11-1.66-1.11a7.91,7.91,0,0,0-.8,0l.38-3h3Z"/><path class="cls-31" d="M378.6,103.73v-1.48h-2.66v-.73l2.4-3.64h1.3v3.53h.76v.84h-.76v1.48Zm0-2.32v-1.6c0-.33,0-.66,0-1h0c-.18.37-.33.66-.52,1l-1.08,1.6v0Z"/><path class="cls-31" d="M368.25,112.62h0l-1.07.54-.19-.84,1.43-.7h.92v5.85h-1.07Z"/><path class="cls-31" d="M375.06,112.54h-2.25l-.17,1.17a2.46,2.46,0,0,1,.41,0,2.61,2.61,0,0,1,1.43.38,1.67,1.67,0,0,1,.76,1.48,2.14,2.14,0,0,1-2.36,2,3.44,3.44,0,0,1-1.56-.34l.23-.84a2.9,2.9,0,0,0,1.29.31,1.14,1.14,0,0,0,1.27-1.07c0-.67-.5-1.11-1.66-1.11a7.91,7.91,0,0,0-.8,0l.38-2.95h3Z"/><path class="cls-31" d="M376.38,116.33a3,3,0,0,0,1.34.36c.84,0,1.18-.48,1.18-.94,0-.69-.66-1-1.34-1h-.5V114h.5c.51,0,1.16-.23,1.16-.81,0-.4-.29-.74-.94-.74a2.37,2.37,0,0,0-1.2.37l-.25-.8a3.31,3.31,0,0,1,1.68-.45c1.22,0,1.83.67,1.83,1.43a1.43,1.43,0,0,1-1.08,1.37v0a1.49,1.49,0,0,1,1.29,1.46c0,1-.83,1.77-2.28,1.77a3.18,3.18,0,0,1-1.64-.41Z"/></g><g id="SYMBOLER-2" data-name="SYMBOLER"><rect class="cls-32" x="126.02" y="2.75" width="31.11" height="31.15"/><rect class="cls-33" x="140.15" y="31.38" width="16.98" height="2.51"/><rect class="cls-33" x="125.95" y="31.61" width="12.73" height="2.32"/><polygon class="cls-33" points="138.68 2.75 138.68 2.75 126.02 2.75 126.02 3.89 137.06 3.89 137.06 6.64 138.69 6.64 138.69 2.75 138.68 2.75"/><path class="cls-33" d="M141.31,11.34a1.79,1.79,0,1,0-1.77-1.78,1.78,1.78,0,0,0,1.77,1.78"/><path class="cls-33" d="M145.08,19.7a.7.7,0,0,1,.63-.34L143,13a1.63,1.63,0,0,1,.12.62v5l.93,1.94a1,1,0,0,0,1.33.54.86.86,0,0,0,.33-.23l-.34-.19a.74.74,0,0,1-.26-1"/><path class="cls-33" d="M148.87,17.87a1.5,1.5,0,1,0-1.49-1.49,1.49,1.49,0,0,0,1.49,1.49"/><path class="cls-33" d="M147.72,24.39,145.87,30a.73.73,0,0,0,.47.9.72.72,0,0,0,.89-.47L148.68,26l-.33-1a1.21,1.21,0,0,1-.63-.57"/><path class="cls-33" d="M151.5,30l-1.76-5.34A1.26,1.26,0,0,1,149,25l-.31,1,1.45,4.48a.72.72,0,0,0,.89.47.73.73,0,0,0,.48-.9"/><path class="cls-33" d="M148.87,25.06h-.07a1.14,1.14,0,0,1-.45-.1l.33,1,.31-1a.42.42,0,0,1-.12,0"/><path class="cls-33" d="M148.87,25.06h-.07a1.14,1.14,0,0,1-.45-.1l.33,1,.31-1a.42.42,0,0,1-.12,0"/><path class="cls-33" d="M148.68,24.32l.92-.06.14.44a1.26,1.26,0,0,0,.38-.9V19.51a1.25,1.25,0,0,0-1.25-1.25h-.07a1.24,1.24,0,0,0-1.24,1.25v.71l.25.13v1.78l-.24-.15V23.8a1.26,1.26,0,0,0,.16.59l.05-.13Z"/><path class="cls-33" d="M148.35,25l-.2-.6.53,0-.91-.06-.05.13a1.21,1.21,0,0,0,.63.57"/><path class="cls-33" d="M148.35,25l-.2-.6.53,0-.91-.06-.05.13a1.21,1.21,0,0,0,.63.57"/><path class="cls-33" d="M148.68,24.32l.53,0L149,25a1.26,1.26,0,0,0,.75-.33l-.14-.44Z"/><path class="cls-33" d="M148.68,24.32l.53,0L149,25a1.26,1.26,0,0,0,.75-.33l-.14-.44Z"/><path class="cls-33" d="M148.68,24.32l-.53,0,.2.61a1.14,1.14,0,0,0,.45.1h.07a.42.42,0,0,0,.12,0l.22-.68Z"/><path class="cls-33" d="M148.68,24.32l-.53,0,.2.61a1.14,1.14,0,0,0,.45.1h.07a.42.42,0,0,0,.12,0l.22-.68Z"/><path class="cls-33" d="M148.68,24.32l-.53,0,.2.61a1.14,1.14,0,0,0,.45.1h.07a.42.42,0,0,0,.12,0l.22-.68Z"/><path class="cls-33" d="M146.06,19.44a.74.74,0,0,0-.35-.08l.17.4a1,1,0,0,1-.2,1.11L147.56,22V20.22Z"/><path class="cls-33" d="M145.88,19.76l-.17-.4a.67.67,0,0,0-.62.34.72.72,0,0,0,.25,1l.34.19a1,1,0,0,0,.2-1.11"/><path class="cls-33" d="M145.88,19.76l-.17-.4a.67.67,0,0,0-.62.34.72.72,0,0,0,.25,1l.34.19a1,1,0,0,0,.2-1.11"/><polygon class="cls-33" points="147.56 21.98 147.8 22.13 147.81 20.35 147.56 20.22 147.56 21.98"/><polygon class="cls-33" points="147.56 21.98 147.8 22.13 147.81 20.35 147.56 20.22 147.56 21.98"/><path class="cls-33" d="M139.5,21.34V21l-4.05,7.54a1.08,1.08,0,0,0,.46,1.43,1,1,0,0,0,1.41-.45l3.24-6.11-.28-2Z"/><path class="cls-33" d="M141.64,21.34l-1.08,2,1,6.85a1,1,0,0,0,1.17.9,1.05,1.05,0,0,0,.91-1.18l-1.25-8.69-.13.09Z"/><polygon class="cls-33" points="140.28 21.34 140.56 23.37 141.64 21.34 140.28 21.34"/><polygon class="cls-33" points="140.28 21.34 140.56 23.37 141.64 21.34 140.28 21.34"/><path class="cls-33" d="M143,13l0,0a1.78,1.78,0,0,0-3.45.62v1.27L136,17a1,1,0,0,0,1,1.77l2.5-1.29v2.8h0l0,0V21l.18-.33L141,21l1.34.15,0,.15a1.37,1.37,0,0,0,.74-1.39V18.62L142.31,17Z"/><path class="cls-33" d="M143,13v0l-.65,4,.78,1.63v-5A1.54,1.54,0,0,0,143,13"/><path class="cls-33" d="M143,13v0l-.65,4,.78,1.63v-5A1.54,1.54,0,0,0,143,13"/><polygon class="cls-33" points="139.5 20.96 139.5 21.34 140.28 21.34 140.21 20.87 140.98 20.95 139.68 20.63 139.5 20.96"/><polygon class="cls-33" points="139.5 20.96 139.5 21.34 140.28 21.34 140.21 20.87 140.98 20.95 139.68 20.63 139.5 20.96"/><path class="cls-33" d="M141,21l.76.19-.1.2h.58l.13-.09,0-.15Z"/><path class="cls-33" d="M141,21l.76.19-.1.2h.58l.13-.09,0-.15Z"/><polygon class="cls-33" points="140.28 21.34 141.64 21.34 141.74 21.14 140.98 20.95 140.21 20.87 140.28 21.34"/><polygon class="cls-33" points="140.28 21.34 141.64 21.34 141.74 21.14 140.98 20.95 140.21 20.87 140.28 21.34"/><polygon class="cls-33" points="140.28 21.34 141.64 21.34 141.74 21.14 140.98 20.95 140.21 20.87 140.28 21.34"/><rect class="cls-32" x="125.77" y="126.76" width="31.11" height="31.15"/><rect class="cls-33" x="139.91" y="155.4" width="16.98" height="2.51"/><rect class="cls-33" x="125.7" y="155.63" width="12.73" height="2.32"/><polygon class="cls-33" points="138.43 126.77 138.43 126.76 125.77 126.76 125.77 127.91 136.82 127.91 136.82 130.66 138.44 130.66 138.44 126.77 138.43 126.77"/><path class="cls-33" d="M141.07,135.36a1.79,1.79,0,1,0-1.78-1.78,1.78,1.78,0,0,0,1.78,1.78"/><path class="cls-33" d="M144.84,143.72a.7.7,0,0,1,.62-.35L142.73,137a1.8,1.8,0,0,1,.11.62v5l.93,1.94a1,1,0,0,0,1.33.54,1,1,0,0,0,.33-.23l-.33-.2a.7.7,0,0,1-.26-1"/><path class="cls-33" d="M148.63,141.89a1.5,1.5,0,1,0-1.49-1.5,1.5,1.5,0,0,0,1.49,1.5"/><path class="cls-33" d="M147.48,148.41l-1.86,5.64a.72.72,0,0,0,.47.9.7.7,0,0,0,.89-.46l1.46-4.48-.34-1a1.23,1.23,0,0,1-.62-.57"/><path class="cls-33" d="M151.25,154.05l-1.76-5.33a1.23,1.23,0,0,1-.74.33l-.31,1,1.44,4.48a.71.71,0,0,0,.89.46.72.72,0,0,0,.48-.9"/><path class="cls-33" d="M148.63,149.07h-.07a1.18,1.18,0,0,1-.46-.09l.34,1,.31-1-.12,0"/><path class="cls-33" d="M148.63,149.07h-.07a1.18,1.18,0,0,1-.46-.09l.34,1,.31-1-.12,0"/><path class="cls-33" d="M148.44,148.34l.91-.06.14.44a1.24,1.24,0,0,0,.38-.9v-4.29a1.25,1.25,0,0,0-1.24-1.25h-.07a1.25,1.25,0,0,0-1.25,1.25v.7l.25.13v1.78l-.25-.14v1.82a1.19,1.19,0,0,0,.17.59l0-.13Z"/><path class="cls-33" d="M148.1,149l-.19-.61.53,0-.92-.06,0,.13a1.23,1.23,0,0,0,.62.57"/><path class="cls-33" d="M148.1,149l-.19-.61.53,0-.92-.06,0,.13a1.23,1.23,0,0,0,.62.57"/><path class="cls-33" d="M148.44,148.34l.53,0-.22.68a1.23,1.23,0,0,0,.74-.33l-.14-.44Z"/><path class="cls-33" d="M148.44,148.34l.53,0-.22.68a1.23,1.23,0,0,0,.74-.33l-.14-.44Z"/><path class="cls-33" d="M148.44,148.34l-.53,0,.19.61a1.18,1.18,0,0,0,.46.09h.07l.12,0,.22-.68Z"/><path class="cls-33" d="M148.44,148.34l-.53,0,.19.61a1.18,1.18,0,0,0,.46.09h.07l.12,0,.22-.68Z"/><path class="cls-33" d="M148.44,148.34l-.53,0,.19.61a1.18,1.18,0,0,0,.46.09h.07l.12,0,.22-.68Z"/><path class="cls-33" d="M145.81,143.46a.63.63,0,0,0-.35-.09l.18.41a1,1,0,0,1-.21,1.11l1.88,1.11v-1.76Z"/><path class="cls-33" d="M145.64,143.78l-.18-.41a.71.71,0,0,0-.36,1.32l.33.2a1,1,0,0,0,.21-1.11"/><path class="cls-33" d="M145.64,143.78l-.18-.41a.71.71,0,0,0-.36,1.32l.33.2a1,1,0,0,0,.21-1.11"/><polygon class="cls-33" points="147.31 146 147.56 146.14 147.56 144.36 147.31 144.23 147.31 146"/><polygon class="cls-33" points="147.31 146 147.56 146.14 147.56 144.36 147.31 144.23 147.31 146"/><path class="cls-33" d="M139.26,145.35V145l-4,7.54a1,1,0,0,0,.46,1.42,1,1,0,0,0,1.4-.44l3.24-6.11-.28-2Z"/><path class="cls-33" d="M141.39,145.35l-1.08,2,1,6.85a1,1,0,0,0,1.17.9,1.07,1.07,0,0,0,.92-1.18l-1.26-8.69-.13.08Z"/><polygon class="cls-33" points="140.03 145.35 140.31 147.39 141.39 145.35 140.03 145.35"/><polygon class="cls-33" points="140.03 145.35 140.31 147.39 141.39 145.35 140.03 145.35"/><path class="cls-33" d="M142.72,137v0a1.77,1.77,0,0,0-3.44.62v1.27L135.78,141a1,1,0,0,0-.37,1.39,1,1,0,0,0,1.38.37l2.5-1.29v2.81h0V145l.17-.33,1.31.32,1.34.15,0,.15a1.37,1.37,0,0,0,.74-1.39v-1.24l-.78-1.63Z"/><path class="cls-33" d="M142.73,137v0l-.65,4,.77,1.63v-5a1.8,1.8,0,0,0-.11-.62"/><path class="cls-33" d="M142.73,137v0l-.65,4,.77,1.63v-5a1.8,1.8,0,0,0-.11-.62"/><polygon class="cls-33" points="139.26 144.98 139.26 145.35 140.03 145.35 139.96 144.88 140.74 144.97 139.43 144.65 139.26 144.98"/><polygon class="cls-33" points="139.26 144.98 139.26 145.35 140.03 145.35 139.96 144.88 140.74 144.97 139.43 144.65 139.26 144.98"/><path class="cls-33" d="M140.74,145l.76.18-.11.2H142l.13-.08,0-.16Z"/><path class="cls-33" d="M140.74,145l.76.18-.11.2H142l.13-.08,0-.16Z"/><polygon class="cls-33" points="140.03 145.35 141.39 145.35 141.5 145.16 140.74 144.97 139.96 144.88 140.03 145.35"/><polygon class="cls-33" points="140.03 145.35 141.39 145.35 141.5 145.16 140.74 144.97 139.96 144.88 140.03 145.35"/><polygon class="cls-33" points="140.03 145.35 141.39 145.35 141.5 145.16 140.74 144.97 139.96 144.88 140.03 145.35"/><rect class="cls-32" x="406.86" y="126.61" width="31.11" height="31.15"/><rect class="cls-33" x="421" y="155.25" width="16.98" height="2.51"/><rect class="cls-33" x="406.8" y="155.48" width="12.73" height="2.32"/><polygon class="cls-33" points="419.52 126.62 419.52 126.61 406.86 126.61 406.86 127.76 417.91 127.76 417.91 130.51 419.53 130.51 419.53 126.62 419.52 126.62"/><path class="cls-33" d="M422.16,135.21a1.79,1.79,0,1,0-1.78-1.79,1.78,1.78,0,0,0,1.78,1.79"/><path class="cls-33" d="M425.93,143.57a.7.7,0,0,1,.62-.35l-2.73-6.33a1.8,1.8,0,0,1,.11.62v5l.93,1.94a1,1,0,0,0,1.33.54,1.14,1.14,0,0,0,.33-.23l-.33-.2a.7.7,0,0,1-.26-1"/><path class="cls-33" d="M429.72,141.74a1.5,1.5,0,1,0-1.49-1.5,1.5,1.5,0,0,0,1.49,1.5"/><path class="cls-33" d="M428.57,148.26l-1.86,5.64a.72.72,0,0,0,.48.9.71.71,0,0,0,.89-.46l1.45-4.48-.34-1a1.23,1.23,0,0,1-.62-.57"/><path class="cls-33" d="M432.34,153.9l-1.76-5.33a1.23,1.23,0,0,1-.74.33l-.31,1,1.45,4.48a.7.7,0,0,0,.89.46.72.72,0,0,0,.47-.9"/><path class="cls-33" d="M429.72,148.92h-.07a1.18,1.18,0,0,1-.46-.09l.34,1,.31-1-.12,0"/><path class="cls-33" d="M429.72,148.92h-.07a1.18,1.18,0,0,1-.46-.09l.34,1,.31-1-.12,0"/><path class="cls-33" d="M429.53,148.19l.91-.06.14.44a1.24,1.24,0,0,0,.38-.9v-4.29a1.25,1.25,0,0,0-1.24-1.25h-.07a1.25,1.25,0,0,0-1.25,1.25v.7l.25.13V146l-.25-.14v1.82a1.19,1.19,0,0,0,.17.59l0-.13Z"/><path class="cls-33" d="M429.19,148.83l-.19-.61.53,0-.92-.06,0,.13a1.23,1.23,0,0,0,.62.57"/><path class="cls-33" d="M429.19,148.83l-.19-.61.53,0-.92-.06,0,.13a1.23,1.23,0,0,0,.62.57"/><path class="cls-33" d="M429.53,148.19l.53,0-.22.68a1.23,1.23,0,0,0,.74-.33l-.14-.44Z"/><path class="cls-33" d="M429.53,148.19l.53,0-.22.68a1.23,1.23,0,0,0,.74-.33l-.14-.44Z"/><path class="cls-33" d="M429.53,148.19l-.53,0,.19.61a1.18,1.18,0,0,0,.46.09h.07l.12,0,.22-.68Z"/><path class="cls-33" d="M429.53,148.19l-.53,0,.19.61a1.18,1.18,0,0,0,.46.09h.07l.12,0,.22-.68Z"/><path class="cls-33" d="M429.53,148.19l-.53,0,.19.61a1.18,1.18,0,0,0,.46.09h.07l.12,0,.22-.68Z"/><path class="cls-33" d="M426.9,143.31a.63.63,0,0,0-.35-.09l.18.41a1,1,0,0,1-.21,1.11l1.88,1.11v-1.77Z"/><path class="cls-33" d="M426.73,143.63l-.18-.41a.71.71,0,0,0-.36,1.32l.33.2a1,1,0,0,0,.21-1.11"/><path class="cls-33" d="M426.73,143.63l-.18-.41a.71.71,0,0,0-.36,1.32l.33.2a1,1,0,0,0,.21-1.11"/><polygon class="cls-33" points="428.4 145.85 428.65 145.99 428.65 144.21 428.4 144.08 428.4 145.85"/><polygon class="cls-33" points="428.4 145.85 428.65 145.99 428.65 144.21 428.4 144.08 428.4 145.85"/><path class="cls-33" d="M420.35,145.2v-.37l-4.05,7.54a1,1,0,0,0,.46,1.42,1,1,0,0,0,1.4-.44l3.25-6.11-.29-2Z"/><path class="cls-33" d="M422.48,145.2l-1.07,2,.95,6.85a1,1,0,0,0,1.17.9,1.07,1.07,0,0,0,.92-1.18l-1.26-8.69-.13.08Z"/><polygon class="cls-33" points="421.12 145.2 421.41 147.24 422.48 145.2 421.12 145.2"/><polygon class="cls-33" points="421.12 145.2 421.41 147.24 422.48 145.2 421.12 145.2"/><path class="cls-33" d="M423.81,136.86v0a1.77,1.77,0,0,0-3.44.62v1.27l-3.51,2.07a1,1,0,0,0,1,1.76l2.5-1.29v2.81h0l0,0v.68l.17-.33,1.31.32,1.34.14,0,.16a1.37,1.37,0,0,0,.74-1.39v-1.24l-.77-1.63Z"/><path class="cls-33" d="M423.82,136.89v0l-.65,4,.77,1.63v-5a1.8,1.8,0,0,0-.11-.62"/><path class="cls-33" d="M423.82,136.89v0l-.65,4,.77,1.63v-5a1.8,1.8,0,0,0-.11-.62"/><polygon class="cls-33" points="420.35 144.83 420.35 145.2 421.12 145.2 421.06 144.73 421.83 144.82 420.52 144.5 420.35 144.83"/><polygon class="cls-33" points="420.35 144.83 420.35 145.2 421.12 145.2 421.06 144.73 421.83 144.82 420.52 144.5 420.35 144.83"/><path class="cls-33" d="M421.83,144.82l.76.18-.11.2h.58l.13-.08,0-.16Z"/><path class="cls-33" d="M421.83,144.82l.76.18-.11.2h.58l.13-.08,0-.16Z"/><polygon class="cls-33" points="421.12 145.2 422.48 145.2 422.59 145 421.83 144.82 421.06 144.73 421.12 145.2"/><polygon class="cls-33" points="421.12 145.2 422.48 145.2 422.59 145 421.83 144.82 421.06 144.73 421.12 145.2"/><polygon class="cls-33" points="421.12 145.2 422.48 145.2 422.59 145 421.83 144.82 421.06 144.73 421.12 145.2"/><rect class="cls-32" x="406.52" y="2.69" width="31.11" height="31.15"/><rect class="cls-33" x="420.65" y="31.32" width="16.98" height="2.51"/><rect class="cls-33" x="406.45" y="31.55" width="12.73" height="2.32"/><polygon class="cls-33" points="419.18 2.69 419.18 2.69 406.52 2.69 406.52 3.84 417.57 3.84 417.57 6.59 419.19 6.59 419.19 2.69 419.18 2.69"/><path class="cls-33" d="M421.81,11.29A1.79,1.79,0,1,0,420,9.5a1.79,1.79,0,0,0,1.77,1.79"/><path class="cls-33" d="M425.59,19.64a.69.69,0,0,1,.62-.34L423.48,13a1.78,1.78,0,0,1,.11.61v5l.93,1.94a1,1,0,0,0,1.33.53,1,1,0,0,0,.33-.22l-.33-.2a.72.72,0,0,1-.26-1"/><path class="cls-33" d="M429.38,17.82a1.5,1.5,0,1,0-1.49-1.5,1.5,1.5,0,0,0,1.49,1.5"/><path class="cls-33" d="M428.23,24.34,426.37,30a.73.73,0,0,0,.47.9.7.7,0,0,0,.89-.47l1.45-4.48-.33-1a1.23,1.23,0,0,1-.62-.57"/><path class="cls-33" d="M432,30l-1.76-5.34a1.18,1.18,0,0,1-.75.33l-.31,1,1.45,4.48a.71.71,0,0,0,.89.47A.72.72,0,0,0,432,30"/><path class="cls-33" d="M429.38,25h-.08a1.34,1.34,0,0,1-.45-.09l.33,1,.31-1a.45.45,0,0,1-.11,0"/><path class="cls-33" d="M429.38,25h-.08a1.34,1.34,0,0,1-.45-.09l.33,1,.31-1a.45.45,0,0,1-.11,0"/><path class="cls-33" d="M429.18,24.26l.92-.06.14.44a1.26,1.26,0,0,0,.38-.89V19.46a1.25,1.25,0,0,0-1.24-1.25h-.08a1.25,1.25,0,0,0-1.24,1.25v.7l.25.13v1.78l-.25-.15v1.83a1.19,1.19,0,0,0,.17.59l0-.14Z"/><path class="cls-33" d="M428.85,24.91l-.2-.61.53,0-.91-.06,0,.14a1.23,1.23,0,0,0,.62.57"/><path class="cls-33" d="M428.85,24.91l-.2-.61.53,0-.91-.06,0,.14a1.23,1.23,0,0,0,.62.57"/><path class="cls-33" d="M429.18,24.26l.53,0-.22.67a1.18,1.18,0,0,0,.75-.33l-.14-.44Z"/><path class="cls-33" d="M429.18,24.26l.53,0-.22.67a1.18,1.18,0,0,0,.75-.33l-.14-.44Z"/><path class="cls-33" d="M429.18,24.26l-.53,0,.2.61a1.34,1.34,0,0,0,.45.09h.08a.45.45,0,0,0,.11,0l.22-.67Z"/><path class="cls-33" d="M429.18,24.26l-.53,0,.2.61a1.34,1.34,0,0,0,.45.09h.08a.45.45,0,0,0,.11,0l.22-.67Z"/><path class="cls-33" d="M429.18,24.26l-.53,0,.2.61a1.34,1.34,0,0,0,.45.09h.08a.45.45,0,0,0,.11,0l.22-.67Z"/><path class="cls-33" d="M426.56,19.38a.72.72,0,0,0-.35-.08l.17.41a1,1,0,0,1-.2,1.11l1.88,1.1V20.16Z"/><path class="cls-33" d="M426.38,19.71l-.17-.41a.69.69,0,0,0-.62.34.72.72,0,0,0,.26,1l.33.2a1,1,0,0,0,.2-1.11"/><path class="cls-33" d="M426.38,19.71l-.17-.41a.69.69,0,0,0-.62.34.72.72,0,0,0,.26,1l.33.2a1,1,0,0,0,.2-1.11"/><polygon class="cls-33" points="428.06 21.92 428.31 22.07 428.31 20.29 428.06 20.16 428.06 21.92"/><polygon class="cls-33" points="428.06 21.92 428.31 22.07 428.31 20.29 428.06 20.16 428.06 21.92"/><path class="cls-33" d="M420,21.28V20.9l-4,7.55a1.06,1.06,0,0,0,.45,1.42,1,1,0,0,0,1.41-.45l3.24-6.11-.28-2Z"/><path class="cls-33" d="M422.14,21.28l-1.08,2,1,6.85a1.05,1.05,0,0,0,1.17.91,1.08,1.08,0,0,0,.92-1.18l-1.26-8.7-.13.09Z"/><polygon class="cls-33" points="420.78 21.28 421.06 23.31 422.14 21.28 420.78 21.28"/><polygon class="cls-33" points="420.78 21.28 421.06 23.31 422.14 21.28 420.78 21.28"/><path class="cls-33" d="M423.46,12.94l0,0a1.78,1.78,0,0,0-3.45.61v1.27l-3.51,2.07a1,1,0,0,0-.37,1.4,1,1,0,0,0,1.39.37L420,17.4v2.8h0l0,0v.67l.18-.33,1.31.32,1.34.15,0,.16a1.4,1.4,0,0,0,.74-1.4V18.56l-.78-1.62Z"/><path class="cls-33" d="M423.48,13l0,0-.65,4,.78,1.63v-5a1.74,1.74,0,0,0-.11-.61"/><path class="cls-33" d="M423.48,13l0,0-.65,4,.78,1.63v-5a1.74,1.74,0,0,0-.11-.61"/><polygon class="cls-33" points="420 20.9 420 21.28 420.78 21.28 420.71 20.81 421.49 20.89 420.18 20.57 420 20.9"/><polygon class="cls-33" points="420 20.9 420 21.28 420.78 21.28 420.71 20.81 421.49 20.89 420.18 20.57 420 20.9"/><path class="cls-33" d="M421.49,20.89l.76.19-.11.2h.58l.13-.09,0-.15Z"/><path class="cls-33" d="M421.49,20.89l.76.19-.11.2h.58l.13-.09,0-.15Z"/><polygon class="cls-33" points="420.78 21.28 422.14 21.28 422.25 21.08 421.49 20.89 420.71 20.81 420.78 21.28"/><polygon class="cls-33" points="420.78 21.28 422.14 21.28 422.25 21.08 421.49 20.89 420.71 20.81 420.78 21.28"/><polygon class="cls-33" points="420.78 21.28 422.14 21.28 422.25 21.08 421.49 20.89 420.71 20.81 420.78 21.28"/><rect class="cls-34" x="311.72" y="132.26" width="25.45" height="25.45"/><path class="cls-35" d="M326,133.61a1.93,1.93,0,1,1-2,1.93A1.95,1.95,0,0,1,326,133.61Z"/><path class="cls-35" d="M316.6,140.35l1.48,7.62a3.47,3.47,0,0,0,3.21,3.08l4.76,0c1.12,0,1.12-1.16,0-1.22l-4.33,0c-1.53-.08-2.27-.69-2.56-2.39l-1.49-7.38A.55.55,0,1,0,316.6,140.35Z"/><path class="cls-35" d="M322.28,139.59c.23-1.16,1.05-1.8,3.16-1.31l6.88,1.38a1,1,0,0,1-.52,1.93l-5.88-1.2-1.74,5.86h3.49a1.51,1.51,0,0,1,1.75,1.31l1.19,7.75a1.12,1.12,0,0,1-2.23.26l-1-6.56-5.8.08c-1.11-.05-1.76-1.41-1.38-2.77Z"/><path class="cls-35" d="M330.9,144c-.08.5-.63.42-.59-.08.06-2.32,3.2-2.32,3,.25V156a.32.32,0,0,1-.63,0l0-12.3C332.56,142.38,330.82,142.74,330.9,144Z"/><rect class="cls-34" x="284.78" y="132.2" width="25.45" height="25.45"/><path class="cls-35" d="M293.59,133.59a1.93,1.93,0,1,1-2,1.93A2,2,0,0,1,293.59,133.59Z"/><path class="cls-35" d="M290.24,140.3l1.48,7.61a3.48,3.48,0,0,0,3.22,3.09l4.76,0c1.11,0,1.11-1.15,0-1.22l-4.33,0c-1.54-.08-2.28-.69-2.57-2.4l-1.49-7.38A.55.55,0,1,0,290.24,140.3Z"/><path class="cls-35" d="M292.11,140l1.41,7.24a2.08,2.08,0,0,0,2.5,1.82h5.23l1.12,6.59c.18,1.22,2.44.93,2.23-.33l-1.19-7.68q-.26-1.35-2-1.38l-1.07.07c.83-2.83-.88-5.13-4.24-4.84l-.41-2.26C295.22,137.56,291.77,137.85,292.11,140Z"/><line class="cls-36" x1="311" y1="127.69" x2="311" y2="134.41"/><polyline class="cls-37" points="236.72 119.64 236.72 123.64 232.72 123.64"/><line class="cls-38" x1="225.83" y1="123.64" x2="215.51" y2="123.64"/><line class="cls-39" x1="212.06" y1="123.64" x2="187.97" y2="123.64"/><polyline class="cls-37" points="184.53 123.64 180.53 123.64 180.53 119.64"/><line class="cls-40" x1="180.53" y1="111.5" x2="180.53" y2="99.31"/><polyline class="cls-37" points="180.53 95.24 180.53 91.24 184.53 91.24"/><line class="cls-38" x1="191.41" y1="91.24" x2="201.74" y2="91.24"/><line class="cls-39" x1="205.18" y1="91.24" x2="229.27" y2="91.24"/><polyline class="cls-37" points="232.72 91.24 236.72 91.24 236.72 95.24"/><line class="cls-40" x1="236.72" y1="103.37" x2="236.72" y2="115.57"/><polyline class="cls-37" points="389.12 79.59 389.12 83.59 385.12 83.59"/><line class="cls-41" x1="378.28" y1="83.59" x2="368.02" y2="83.59"/><polyline class="cls-37" points="364.61 83.59 360.61 83.59 360.61 79.59"/><line class="cls-42" x1="360.61" y1="74.05" x2="360.61" y2="65.74"/><line class="cls-43" x1="360.61" y1="62.97" x2="360.61" y2="43.58"/><polyline class="cls-37" points="360.61 40.81 360.61 36.81 364.61 36.81"/><line class="cls-41" x1="371.44" y1="36.81" x2="381.7" y2="36.81"/><polyline class="cls-37" points="385.12 36.81 389.12 36.81 389.12 40.81"/><line class="cls-42" x1="389.12" y1="46.35" x2="389.12" y2="54.66"/><line class="cls-43" x1="389.12" y1="57.43" x2="389.12" y2="76.82"/><line class="cls-37" x1="363.11" y1="128.24" x2="359.11" y2="128.24"/><line class="cls-44" x1="351.41" y1="128.24" x2="339.85" y2="128.24"/><line class="cls-45" x1="335.99" y1="128.24" x2="216.55" y2="128.24"/><line class="cls-37" x1="212.7" y1="128.24" x2="208.7" y2="128.24"/><rect class="cls-46" x="162.25" y="132.2" width="25.51" height="25.51"/><path class="cls-30" d="M181.36,143.16a3.77,3.77,0,0,0-1.58.35l-1.36-2.38a1.85,1.85,0,0,1-.16-.58c0-.51.5-1.08.5-1.28a.44.44,0,0,0-.43-.44h-1.45a.44.44,0,0,0-.43.44.43.43,0,0,0,.43.43h.6a.13.13,0,0,1,.13.14c0,.2-.17.28-.18.69a1.22,1.22,0,0,0,.1.47.26.26,0,0,1,0,.28l-4.85.91a.25.25,0,0,1-.23-.07s-1.1-1.47-1-1.66,1-.18,1-.18c.17-.07.29-.13.29-.29a.29.29,0,0,0-.29-.29h-2.74a.43.43,0,0,0-.43.43.44.44,0,0,0,.43.44,2.88,2.88,0,0,1,.72-.06,1.55,1.55,0,0,1,.42.78,20.67,20.67,0,0,1-.95,2.07,3.68,3.68,0,0,0-1.2-.2,3.75,3.75,0,1,0,3.71,4.32h.68a1.58,1.58,0,0,0,3.11-.42,1.84,1.84,0,0,0,0-.41l2.4-3.18s.08,0,.16,0a.16.16,0,0,1,.11.07l.26.44a3.75,3.75,0,1,0,2.32-.8Zm-12.7,6.64h0a2.89,2.89,0,1,1,0-5.77,2.71,2.71,0,0,1,.86.13l-1.15,2.47a.59.59,0,0,0,.58.86h2.54a2.89,2.89,0,0,1-2.83,2.31Zm.88-3.18h0c-.08,0-.18-.06-.14-.14l.87-2a2.91,2.91,0,0,1,1.26,2.1Zm3.51,0h-.65a3.73,3.73,0,0,0-1.75-2.89h0l.6-1.38c0-.07,0-.14.1-.14s.07.06.11.14l2,3.56a1.7,1.7,0,0,0-.42.71Zm1.52,1.16h0a.72.72,0,1,1,.73-.72.73.73,0,0,1-.73.72Zm1.09-1.88h0a1.52,1.52,0,0,0-1.09-.43,1.84,1.84,0,0,0-.33,0s-1.4-2.39-1.43-2.46,0-.13.14-.13l4.85-.9a.44.44,0,0,1,.44.43c0,.24-2.58,3.46-2.58,3.46Zm5.7,3.9h0a2.89,2.89,0,0,1-1.88-5.08l1.5,2.59a.43.43,0,0,0,.58.2.43.43,0,0,0,.19-.58l-1.54-2.67a2.91,2.91,0,0,1,1.15-.23,2.89,2.89,0,0,1,0,5.77Z"/><rect class="cls-34" x="190.95" y="132.2" width="25.51" height="25.51"/><path class="cls-30" d="M200.46,150.39a1.5,1.5,0,1,1,1.5,1.49,1.5,1.5,0,0,1-1.5-1.49Zm1.5,2.48h0a2.49,2.49,0,1,0-2.49-2.48A2.48,2.48,0,0,0,202,152.87Z"/><path class="cls-30" d="M205.94,150.39a1.5,1.5,0,1,1,1.49,1.49,1.5,1.5,0,0,1-1.49-1.49Zm1.49,2.48h0a2.49,2.49,0,1,0-2.48-2.48A2.48,2.48,0,0,0,207.43,152.87Z"/><path class="cls-30" d="M199.47,142.43v-1.62a1.61,1.61,0,0,0-1.64-1.61h-1.37s-.22.05-.22.24.22.25.22.25h1.41a1.2,1.2,0,0,1,1.09,1.12v1.62Z"/><path class="cls-30" d="M210.41,142.43h-5.22V137.2h1a4.37,4.37,0,0,1,4.22,4.24Z"/><path class="cls-30" d="M210.4,142.93H199v2.22a2.17,2.17,0,0,0,2.27,2.24h6.9a2.16,2.16,0,0,0,2.26-2.24Z"/><line class="cls-37" x1="362.64" y1="83.39" x2="362.64" y2="87.39"/><line class="cls-47" x1="362.64" y1="92.72" x2="362.64" y2="100.72"/><line class="cls-48" x1="362.64" y1="103.39" x2="362.64" y2="122.05"/><line class="cls-37" x1="362.64" y1="124.72" x2="362.64" y2="128.72"/><line class="cls-36" x1="209.62" y1="123.49" x2="209.62" y2="128.38"/></g></g></svg>