<svg xmlns="http://www.w3.org/2000/svg" viewBox="0 0 750 160"><defs><style>.cls-1,.cls-2{fill:#c6c6c5;}.cls-13,.cls-15,.cls-19,.cls-2,.cls-20,.cls-21,.cls-22,.cls-23,.cls-24,.cls-25,.cls-26,.cls-27,.cls-28,.cls-29,.cls-3,.cls-30,.cls-31,.cls-32,.cls-36,.cls-37,.cls-4,.cls-5,.cls-6,.cls-7,.cls-8{stroke:#000;}.cls-10,.cls-11,.cls-12,.cls-13,.cls-14,.cls-15,.cls-19,.cls-2,.cls-20,.cls-21,.cls-22,.cls-23,.cls-24,.cls-25,.cls-26,.cls-27,.cls-28,.cls-29,.cls-3,.cls-30,.cls-31,.cls-32,.cls-35,.cls-36,.cls-37,.cls-4,.cls-40,.cls-41,.cls-42,.cls-43,.cls-46,.cls-47,.cls-48,.cls-5,.cls-6,.cls-7,.cls-8,.cls-9{stroke-miterlimit:10;}.cls-12,.cls-13,.cls-14,.cls-2,.cls-35,.cls-37,.cls-5,.cls-6,.cls-8{stroke-width:0.25px;}.cls-3{fill:#3d3d3c;}.cls-11,.cls-19,.cls-20,.cls-21,.cls-22,.cls-23,.cls-24,.cls-25,.cls-26,.cls-27,.cls-28,.cls-29,.cls-3,.cls-30,.cls-31,.cls-32,.cls-4,.cls-7,.cls-9{stroke-width:0.5px;}.cls-34,.cls-4{fill:#6dc6d9;}.cls-5{fill:#575756;}.cls-12,.cls-33,.cls-6,.cls-7{fill:#3c3c3b;}.cls-10,.cls-19,.cls-21,.cls-22,.cls-23,.cls-24,.cls-25,.cls-26,.cls-27,.cls-28,.cls-29,.cls-30,.cls-31,.cls-32,.cls-40,.cls-41,.cls-42,.cls-43,.cls-46,.cls-47,.cls-48,.cls-8{fill:none;}.cls-11,.cls-12,.cls-8{stroke-linecap:round;}.cls-11,.cls-13,.cls-9{fill:#6f6f6e;}.cls-10,.cls-11,.cls-12,.cls-14,.cls-35,.cls-9{stroke:#1d1d1b;}.cls-14{fill:#b1b1b1;}.cls-15,.cls-18,.cls-20,.cls-35,.cls-36{fill:#9d9b9b;}.cls-15{stroke-width:0.75px;}.cls-16,.cls-37{fill:#7b7b7a;}.cls-17,.cls-45{fill:#fff;}.cls-19{stroke-dasharray:1.97 0.99;}.cls-21{stroke-dasharray:1.97 0.99;}.cls-22{stroke-dasharray:1.99 0.99;}.cls-23{stroke-dasharray:1.99 0.99;}.cls-24{stroke-dasharray:1.99 0.99;}.cls-25{stroke-dasharray:1.99 0.99;}.cls-26{stroke-dasharray:1.99 0.99;}.cls-27{stroke-dasharray:1.99 0.99;}.cls-28{stroke-dasharray:1.99 0.99;}.cls-29{stroke-dasharray:1.99 0.99;}.cls-30{stroke-dasharray:1.97 0.99;}.cls-31{stroke-dasharray:1.97 0.99;}.cls-32{stroke-dasharray:1.97 0.99;}.cls-38{fill:#ffd421;}.cls-39{fill:#221e20;}.cls-40,.cls-41,.cls-42,.cls-43,.cls-46,.cls-47,.cls-48{stroke:#e53212;}.cls-41{stroke-dasharray:5.11 5.11;}.cls-42{stroke-dasharray:8.89 8.89;}.cls-43{stroke-dasharray:8.89 8.89 8.89 8.89;}.cls-44{fill:#251a5f;}.cls-45,.cls-49{fill-rule:evenodd;}.cls-46{stroke-dasharray:5.13 5.13;}.cls-47{stroke-dasharray:8.89 8.89;}.cls-48{stroke-dasharray:8.89 8.89 8.89 8.89;}.cls-49{fill:#312782;}</style></defs><title>Type69CII_BS69C-II_vogn3</title><g id="Type69C-II_BS69C-II_vogn3"><g id="VOGNKASSE"><path class="cls-1" d="M721.47,117.76h.16l-.16,0Z"/><path id="GULV" class="cls-2" d="M708.41,123.72h.05a3.77,3.77,0,0,0,3.66-3.38h0l4.63-40.07v-.08h0v-.07l-4.63-40.07h0a3.78,3.78,0,0,0-3.66-3.39h-.05v-.13H37.05v87.19Z"/><rect class="cls-3" x="703.5" y="36.25" width="2.63" height="3.54"/><rect class="cls-4" x="245.2" y="36.24" width="251.63" height="3.56"/><rect class="cls-3" x="425.05" y="36.26" width="17.65" height="3.54"/><rect class="cls-3" x="321.95" y="36.25" width="16.78" height="3.54"/><rect class="cls-3" x="372.85" y="36.25" width="17.69" height="3.54"/><rect class="cls-3" x="245.2" y="36.25" width="41.86" height="3.54"/><rect class="cls-3" x="477.28" y="36.25" width="19.55" height="3.54"/><rect class="cls-4" x="537.51" y="36.24" width="168.28" height="3.56"/><rect class="cls-4" x="36.27" y="36.24" width="167.7" height="3.56"/><rect class="cls-3" x="115.82" y="36.25" width="27.01" height="3.54"/><rect class="cls-3" x="176.66" y="36.25" width="27.3" height="3.54"/><rect class="cls-3" x="36.27" y="36.25" width="45.35" height="3.54"/><rect class="cls-3" x="537.51" y="36.26" width="22.42" height="3.54"/><rect class="cls-3" x="594.25" y="36.25" width="27.4" height="3.54"/><rect class="cls-3" x="655.21" y="36.25" width="19.47" height="3.54"/><rect class="cls-3" x="689.52" y="36.25" width="5.26" height="3.54"/><rect class="cls-3" x="703.5" y="36.25" width="2.63" height="3.54"/><rect class="cls-4" x="245.2" y="120.17" width="251.62" height="3.56"/><rect class="cls-3" x="425.04" y="120.19" width="17.65" height="3.54"/><rect class="cls-3" x="321.94" y="120.18" width="16.78" height="3.54"/><rect class="cls-3" x="372.84" y="120.18" width="17.69" height="3.54"/><rect class="cls-3" x="245.2" y="120.18" width="41.86" height="3.54"/><rect class="cls-3" x="477.27" y="120.18" width="19.55" height="3.54"/><polyline class="cls-4" points="705.78 123.73 537.5 123.73 537.5 120.17 705.78 120.17"/><rect class="cls-4" x="36.26" y="120.17" width="167.7" height="3.56"/><rect class="cls-3" x="115.81" y="120.18" width="27.01" height="3.54"/><rect class="cls-3" x="176.65" y="120.18" width="27.3" height="3.54"/><rect class="cls-3" x="36.26" y="120.18" width="45.35" height="3.54"/><rect class="cls-3" x="537.5" y="120.19" width="22.42" height="3.54"/><rect class="cls-3" x="594.24" y="120.18" width="27.4" height="3.54"/><rect class="cls-3" x="655.2" y="120.18" width="19.47" height="3.54"/><rect class="cls-3" x="689.51" y="120.18" width="5.26" height="3.54"/><rect class="cls-3" x="703.5" y="120.19" width="2.63" height="3.54"/><polygon class="cls-5" points="708.53 118.76 712.45 80.61 712.45 79.7 708.52 41.41 696.72 41.41 696.72 118.76 708.53 118.76"/><polygon class="cls-6" points="696.78 92.62 696.78 118.76 707.9 118.76 707.9 92.62 707.9 77.07 696.78 77.07 693.56 77.07 693.56 92.62 696.78 92.62"/><path class="cls-7" d="M708.43,119.84s0,.11-.11.12a17.56,17.56,0,0,1-3.07.21v3.6h3a4.09,4.09,0,0,0,4.11-3.4h0l4.16-40.22v-.08h0v-.13h0v-.07l-4.16-40.23h0a4.09,4.09,0,0,0-4.11-3.4h-3V39.8a14.82,14.82,0,0,1,3.07.25c.07,0,.1.09.11.13l0,.2,4.07,39.55v.15l-4.07,39.56Z"/><polygon class="cls-6" points="668.97 94.14 668.97 120.09 670.06 120.09 670.06 94.14 670.06 93.05 668.97 93.05 654.31 93.05 654.31 92.41 653.22 92.41 653.22 93.05 653.22 94.14 653.22 94.14 668.97 94.14"/><polygon class="cls-6" points="654.3 76.14 654.3 74.74 668.97 74.74 668.97 74.75 670.06 74.75 670.06 74.74 670.06 64.78 670.06 39.8 668.97 39.8 668.97 64.78 653.21 64.78 653.21 74.41 653.21 74.74 653.21 76.14 654.3 76.14"/><line class="cls-8" x1="653.32" y1="92.84" x2="649.15" y2="76.44"/><path class="cls-8" d="M649.15,76.44a10.18,10.18,0,0,1,4.15-.56"/><rect class="cls-9" x="37.84" y="90.68" width="37.18" height="29.25"/><rect class="cls-10" x="37.86" y="39.67" width="58.9" height="30.31"/><rect class="cls-11" x="266.14" y="39.83" width="10.13" height="3.86"/><rect class="cls-11" x="248.27" y="39.78" width="17.86" height="9.79"/><rect class="cls-12" x="36.26" y="89.7" width="1.58" height="30.47"/><rect class="cls-12" x="36.26" y="39.8" width="1.58" height="30.06"/><rect class="cls-13" x="239.46" y="124.44" width="16.44" height="1.07"/><rect class="cls-13" x="190.71" y="124.44" width="16.44" height="1.07"/><rect class="cls-13" x="239.46" y="33.43" width="16.44" height="1.07"/><rect class="cls-13" x="190.71" y="33.43" width="16.44" height="1.07"/><rect class="cls-13" x="534.04" y="124.36" width="16.44" height="1.07"/><rect class="cls-13" x="534.04" y="33.35" width="16.44" height="1.07"/><rect class="cls-13" x="485.29" y="33.35" width="16.44" height="1.07"/><rect class="cls-13" x="485.79" y="124.36" width="16.44" height="1.07"/><line class="cls-8" x1="37.84" y1="69.86" x2="42.7" y2="89"/><path class="cls-8" d="M42.7,89a11.88,11.88,0,0,1-4.84.65"/><path class="cls-13" d="M496.71,38v6.31h3.88a1.14,1.14,0,0,0,1.14-1.14V38Z"/><path class="cls-13" d="M538.24,38v6.31h-3.89a1.14,1.14,0,0,1-1.13-1.14V38Z"/><path class="cls-13" d="M496.66,122v-6.3h3.88a1.13,1.13,0,0,1,1.14,1.13V122Z"/><path class="cls-13" d="M538.19,122v-6.3H534.3a1.13,1.13,0,0,0-1.13,1.13V122Z"/><path class="cls-13" d="M203.64,38.23v6.31h3.89a1.13,1.13,0,0,0,1.13-1.13V38.23Z"/><path class="cls-13" d="M245.17,38.23v6.31h-3.88a1.14,1.14,0,0,1-1.14-1.13V38.23Z"/><path class="cls-13" d="M203.62,122v-6.31h3.88a1.14,1.14,0,0,1,1.14,1.14V122Z"/><path class="cls-13" d="M245.15,122v-6.31h-3.89a1.14,1.14,0,0,0-1.13,1.14V122Z"/><polygon class="cls-4" points="716.26 80.72 712.67 80.72 708.65 118.76 712.24 118.76 716.26 80.72"/><polygon class="cls-4" points="716.28 79.79 712.69 79.79 708.8 41.74 712.39 41.74 716.28 79.79"/><rect class="cls-11" x="268.37" y="116.53" width="7.9" height="3.34"/><rect class="cls-14" x="209.91" y="115.65" width="28.63" height="8.01"/><rect class="cls-14" x="203.62" y="105.38" width="41.58" height="10.27"/><rect class="cls-14" x="209.91" y="36.53" width="28.63" height="8.01"/><rect class="cls-14" x="203.62" y="44.54" width="41.58" height="10.06"/><rect class="cls-14" x="502.89" y="115.71" width="28.63" height="8.01"/><rect class="cls-14" x="496.61" y="105.44" width="41.58" height="10.27"/><rect class="cls-14" x="502.89" y="36.59" width="28.63" height="8.01"/><rect class="cls-14" x="496.61" y="44.6" width="41.58" height="10.06"/><polygon class="cls-7" points="723.28 109.35 723.28 99.39 714.58 99.12 713.53 109.58 723.28 109.35"/><path class="cls-7" d="M723.28,108.78H728a.56.56,0,0,0,.57-.56v-7.74a.57.57,0,0,0-.57-.57h-4.76Z"/><polygon class="cls-7" points="723.23 50.93 723.23 60.89 714.57 61.16 713.55 50.7 723.23 50.93"/><path class="cls-7" d="M723.23,51.5H728a.56.56,0,0,1,.57.56V59.8a.57.57,0,0,1-.57.57h-4.76Z"/><rect class="cls-11" x="245.2" y="114.42" width="23.17" height="5.62"/><rect class="cls-11" x="245.2" y="39.83" width="3.06" height="3.86"/><rect class="cls-11" x="192.95" y="39.83" width="10.67" height="3.86"/><rect class="cls-11" x="193.27" y="116.53" width="10.35" height="3.34"/><rect class="cls-11" x="538.38" y="39.8" width="9.6" height="3.94"/><rect class="cls-11" x="538.19" y="116.34" width="9.79" height="3.86"/></g><g id="SETER"><polygon class="cls-15" points="190.33 95.5 190.33 103.5 188.05 105.83 171.85 105.83 171.85 93.16 188.03 93.16 190.33 95.5"/><polygon class="cls-16" points="187.94 103.19 187.94 103.19 185.81 105.41 184.24 105.41 186.36 103.19 186.37 103.19 186.37 95.76 186.36 95.76 184.24 93.55 185.81 93.55 187.91 95.74 187.94 95.74 187.94 103.19"/><rect class="cls-17" x="188.1" y="96.38" width="1.85" height="6.19"/><polygon class="cls-15" points="190.32 108.61 190.32 116.61 188.04 118.93 171.84 118.93 171.84 106.27 188.02 106.27 190.32 108.61"/><polygon class="cls-16" points="187.93 116.3 187.93 116.3 185.81 118.51 184.23 118.51 186.35 116.3 186.36 116.3 186.36 108.87 186.35 108.87 184.23 106.66 185.81 106.66 187.91 108.85 187.93 108.85 187.93 116.3"/><rect class="cls-17" x="188.09" y="109.49" width="1.85" height="6.19"/><polygon class="cls-15" points="190.16 56.54 190.16 64.54 187.88 66.87 171.68 66.87 171.68 54.2 187.86 54.2 190.16 56.54"/><polygon class="cls-16" points="187.77 64.23 187.76 64.23 185.64 66.45 184.07 66.45 186.19 64.23 186.19 64.23 186.19 56.8 186.19 56.8 184.07 54.59 185.64 54.59 187.74 56.78 187.77 56.78 187.77 64.23"/><rect class="cls-17" x="187.93" y="57.42" width="1.85" height="6.19"/><polygon class="cls-15" points="190.16 69.65 190.16 77.64 187.88 79.97 171.68 79.97 171.68 67.31 187.86 67.31 190.16 69.65"/><polygon class="cls-16" points="187.77 77.34 187.77 77.34 185.64 79.55 184.07 79.55 186.19 77.34 186.19 77.34 186.19 69.91 186.19 69.91 184.07 67.7 185.64 67.7 187.75 69.89 187.77 69.89 187.77 77.34"/><rect class="cls-17" x="187.93" y="70.52" width="1.85" height="6.19"/><polygon class="cls-15" points="190.16 43.32 190.16 51.32 187.88 53.64 171.68 53.64 171.68 40.98 187.86 40.98 190.16 43.32"/><polygon class="cls-16" points="187.77 51.01 187.77 51.01 185.64 53.22 184.07 53.22 186.19 51.01 186.19 51.01 186.19 43.58 186.19 43.58 184.07 41.37 185.64 41.37 187.75 43.56 187.77 43.56 187.77 51.01"/><rect class="cls-17" x="187.93" y="44.2" width="1.85" height="6.19"/><polygon class="cls-15" points="166.25 95.5 166.25 103.5 163.97 105.83 147.77 105.83 147.77 93.16 163.95 93.16 166.25 95.5"/><polygon class="cls-16" points="163.86 103.19 163.85 103.19 161.73 105.41 160.16 105.41 162.28 103.19 162.28 103.19 162.28 95.76 162.28 95.76 160.16 93.55 161.73 93.55 163.83 95.74 163.86 95.74 163.86 103.19"/><rect class="cls-17" x="164.02" y="96.38" width="1.85" height="6.19"/><polygon class="cls-15" points="166.24 108.61 166.24 116.61 163.96 118.93 147.76 118.93 147.76 106.27 163.94 106.27 166.24 108.61"/><polygon class="cls-16" points="163.85 116.3 163.85 116.3 161.72 118.51 160.15 118.51 162.27 116.3 162.27 116.3 162.27 108.87 162.27 108.87 160.15 106.66 161.72 106.66 163.83 108.85 163.85 108.85 163.85 116.3"/><rect class="cls-17" x="164.01" y="109.49" width="1.85" height="6.19"/><polygon class="cls-15" points="166.08 56.54 166.08 64.54 163.79 66.87 147.6 66.87 147.6 54.2 163.78 54.2 166.08 56.54"/><polygon class="cls-16" points="163.69 64.23 163.68 64.23 161.56 66.45 159.99 66.45 162.1 64.23 162.11 64.23 162.11 56.8 162.1 56.8 159.99 54.59 161.56 54.59 163.66 56.78 163.69 56.78 163.69 64.23"/><rect class="cls-17" x="163.85" y="57.42" width="1.85" height="6.19"/><polygon class="cls-15" points="166.08 69.65 166.08 77.64 163.8 79.97 147.6 79.97 147.6 67.31 163.78 67.31 166.08 69.65"/><polygon class="cls-16" points="163.69 77.34 163.69 77.34 161.56 79.55 159.99 79.55 162.11 77.34 162.11 77.34 162.11 69.91 162.11 69.91 159.99 67.7 161.56 67.7 163.66 69.89 163.69 69.89 163.69 77.34"/><rect class="cls-17" x="163.85" y="70.52" width="1.85" height="6.19"/><polygon class="cls-15" points="166.08 43.32 166.08 51.32 163.8 53.64 147.6 53.64 147.6 40.98 163.78 40.98 166.08 43.32"/><polygon class="cls-16" points="163.69 51.01 163.69 51.01 161.56 53.22 159.99 53.22 162.11 51.01 162.11 51.01 162.11 43.58 162.11 43.58 159.99 41.37 161.56 41.37 163.66 43.56 163.69 43.56 163.69 51.01"/><rect class="cls-17" x="163.85" y="44.2" width="1.85" height="6.19"/><polygon class="cls-15" points="142.07 95.5 142.07 103.5 139.79 105.83 123.59 105.83 123.59 93.16 139.77 93.16 142.07 95.5"/><polygon class="cls-16" points="139.68 103.19 139.68 103.19 137.55 105.41 135.98 105.41 138.1 103.19 138.1 103.19 138.1 95.76 138.1 95.76 135.98 93.55 137.55 93.55 139.66 95.74 139.68 95.74 139.68 103.19"/><rect class="cls-17" x="139.84" y="96.38" width="1.85" height="6.19"/><polygon class="cls-15" points="142.06 108.61 142.06 116.61 139.78 118.93 123.58 118.93 123.58 106.27 139.76 106.27 142.06 108.61"/><polygon class="cls-16" points="139.67 116.3 139.67 116.3 137.55 118.51 135.97 118.51 138.09 116.3 138.1 116.3 138.1 108.87 138.09 108.87 135.97 106.66 137.55 106.66 139.65 108.85 139.67 108.85 139.67 116.3"/><rect class="cls-17" x="139.83" y="109.49" width="1.85" height="6.19"/><polygon class="cls-15" points="141.9 56.54 141.9 64.54 139.62 66.87 123.42 66.87 123.42 54.2 139.6 54.2 141.9 56.54"/><polygon class="cls-16" points="139.51 64.23 139.5 64.23 137.38 66.45 135.81 66.45 137.93 64.23 137.94 64.23 137.94 56.8 137.93 56.8 135.81 54.59 137.38 54.59 139.48 56.78 139.51 56.78 139.51 64.23"/><rect class="cls-17" x="139.67" y="57.42" width="1.85" height="6.19"/><polygon class="cls-15" points="141.9 69.65 141.9 77.64 139.62 79.97 123.42 79.97 123.42 67.31 139.6 67.31 141.9 69.65"/><polygon class="cls-16" points="139.51 77.34 139.51 77.34 137.38 79.55 135.81 79.55 137.93 77.34 137.94 77.34 137.94 69.91 137.93 69.91 135.81 67.7 137.38 67.7 139.49 69.89 139.51 69.89 139.51 77.34"/><rect class="cls-17" x="139.67" y="70.52" width="1.85" height="6.19"/><polygon class="cls-15" points="141.9 43.32 141.9 51.32 139.62 53.64 123.42 53.64 123.42 40.98 139.6 40.98 141.9 43.32"/><polygon class="cls-16" points="139.51 51.01 139.51 51.01 137.38 53.22 135.81 53.22 137.93 51.01 137.94 51.01 137.94 43.58 137.93 43.58 135.81 41.37 137.38 41.37 139.49 43.56 139.51 43.56 139.51 51.01"/><rect class="cls-17" x="139.67" y="44.2" width="1.85" height="6.19"/><polygon class="cls-15" points="118.6 95.5 118.6 103.5 116.32 105.83 100.12 105.83 100.12 93.16 116.3 93.16 118.6 95.5"/><polygon class="cls-16" points="116.21 103.19 116.21 103.19 114.08 105.41 112.51 105.41 114.63 103.19 114.63 103.19 114.63 95.76 114.63 95.76 112.51 93.55 114.08 93.55 116.19 95.74 116.21 95.74 116.21 103.19"/><rect class="cls-17" x="116.37" y="96.38" width="1.85" height="6.19"/><polygon class="cls-15" points="118.59 108.61 118.59 116.61 116.31 118.93 100.11 118.93 100.11 106.27 116.29 106.27 118.59 108.61"/><polygon class="cls-16" points="116.2 116.3 116.2 116.3 114.07 118.51 112.5 118.51 114.62 116.3 114.63 116.3 114.63 108.87 114.62 108.87 112.5 106.66 114.07 106.66 116.18 108.85 116.2 108.85 116.2 116.3"/><rect class="cls-17" x="116.36" y="109.49" width="1.85" height="6.19"/><polygon class="cls-15" points="551.88 95.5 551.88 103.5 554.16 105.83 570.36 105.83 570.36 93.16 554.18 93.16 551.88 95.5"/><polygon class="cls-16" points="554.27 103.19 554.27 103.19 556.4 105.41 557.97 105.41 555.85 103.19 555.85 103.19 555.85 95.76 555.85 95.76 557.97 93.55 556.4 93.55 554.29 95.74 554.27 95.74 554.27 103.19"/><rect class="cls-17" x="552.26" y="96.38" width="1.85" height="6.19"/><polygon class="cls-15" points="551.89 108.61 551.89 116.61 554.17 118.93 570.37 118.93 570.37 106.27 554.18 106.27 551.89 108.61"/><polygon class="cls-16" points="554.27 116.3 554.28 116.3 556.4 118.51 557.98 118.51 555.86 116.3 555.85 116.3 555.85 108.87 555.86 108.87 557.98 106.66 556.4 106.66 554.3 108.85 554.27 108.85 554.27 116.3"/><rect class="cls-17" x="552.27" y="109.49" width="1.85" height="6.19"/><polygon class="cls-15" points="552.05 56.54 552.05 64.54 554.33 66.87 570.53 66.87 570.53 54.2 554.35 54.2 552.05 56.54"/><polygon class="cls-16" points="554.44 64.23 554.44 64.23 556.57 66.45 558.14 66.45 556.02 64.23 556.01 64.23 556.01 56.8 556.02 56.8 558.14 54.59 556.57 54.59 554.47 56.78 554.44 56.78 554.44 64.23"/><rect class="cls-17" x="552.43" y="57.42" width="1.85" height="6.19"/><polygon class="cls-15" points="552.05 69.65 552.05 77.64 554.33 79.97 570.53 79.97 570.53 67.31 554.35 67.31 552.05 69.65"/><polygon class="cls-16" points="554.43 77.34 554.44 77.34 556.57 79.55 558.14 79.55 556.02 77.34 556.01 77.34 556.01 69.91 556.02 69.91 558.14 67.7 556.57 67.7 554.46 69.89 554.43 69.89 554.43 77.34"/><rect class="cls-17" x="552.43" y="70.52" width="1.85" height="6.19"/><polygon class="cls-15" points="552.05 43.32 552.05 51.32 554.33 53.64 570.53 53.64 570.53 40.98 554.35 40.98 552.05 43.32"/><polygon class="cls-16" points="554.44 51.01 554.44 51.01 556.57 53.22 558.14 53.22 556.02 51.01 556.01 51.01 556.01 43.58 556.02 43.58 558.14 41.37 556.57 41.37 554.46 43.56 554.44 43.56 554.44 51.01"/><rect class="cls-17" x="552.43" y="44.2" width="1.85" height="6.19"/><polygon class="cls-15" points="574.96 95.5 574.96 103.5 577.24 105.83 593.44 105.83 593.44 93.16 577.26 93.16 574.96 95.5"/><polygon class="cls-16" points="577.35 103.19 577.35 103.19 579.48 105.41 581.05 105.41 578.93 103.19 578.93 103.19 578.93 95.76 578.93 95.76 581.05 93.55 579.48 93.55 577.37 95.74 577.35 95.74 577.35 103.19"/><rect class="cls-17" x="575.34" y="96.38" width="1.85" height="6.19"/><polygon class="cls-15" points="574.97 108.61 574.97 116.61 577.25 118.93 593.45 118.93 593.45 106.27 577.27 106.27 574.97 108.61"/><polygon class="cls-16" points="577.36 116.3 577.36 116.3 579.48 118.51 581.06 118.51 578.94 116.3 578.93 116.3 578.93 108.87 578.94 108.87 581.06 106.66 579.48 106.66 577.38 108.85 577.36 108.85 577.36 116.3"/><rect class="cls-17" x="575.35" y="109.49" width="1.85" height="6.19"/><polygon class="cls-15" points="575.13 56.54 575.13 64.54 577.41 66.87 593.61 66.87 593.61 54.2 577.43 54.2 575.13 56.54"/><polygon class="cls-16" points="577.52 64.23 577.52 64.23 579.65 66.45 581.22 66.45 579.1 64.23 579.1 64.23 579.1 56.8 579.1 56.8 581.22 54.59 579.65 54.59 577.54 56.78 577.52 56.78 577.52 64.23"/><rect class="cls-17" x="575.51" y="57.42" width="1.85" height="6.19"/><polygon class="cls-15" points="575.13 69.65 575.13 77.64 577.41 79.97 593.61 79.97 593.61 67.31 577.43 67.31 575.13 69.65"/><polygon class="cls-16" points="577.52 77.34 577.52 77.34 579.64 79.55 581.22 79.55 579.1 77.34 579.09 77.34 579.09 69.91 579.1 69.91 581.22 67.7 579.64 67.7 577.54 69.89 577.52 69.89 577.52 77.34"/><rect class="cls-17" x="575.51" y="70.52" width="1.85" height="6.19"/><polygon class="cls-15" points="575.13 43.32 575.13 51.32 577.41 53.64 593.61 53.64 593.61 40.98 577.43 40.98 575.13 43.32"/><polygon class="cls-16" points="577.52 51.01 577.52 51.01 579.65 53.22 581.22 53.22 579.1 51.01 579.1 51.01 579.1 43.58 579.1 43.58 581.22 41.37 579.65 41.37 577.54 43.56 577.52 43.56 577.52 51.01"/><rect class="cls-17" x="575.51" y="44.2" width="1.85" height="6.19"/><polygon class="cls-15" points="598.14 95.5 598.14 103.5 600.42 105.83 616.61 105.83 616.61 93.16 600.43 93.16 598.14 95.5"/><polygon class="cls-16" points="600.52 103.19 600.53 103.19 602.65 105.41 604.23 105.41 602.11 103.19 602.1 103.19 602.1 95.76 602.11 95.76 604.23 93.55 602.65 93.55 600.55 95.74 600.52 95.74 600.52 103.19"/><rect class="cls-17" x="598.52" y="96.38" width="1.85" height="6.19"/><polygon class="cls-15" points="598.15 108.61 598.15 116.61 600.43 118.93 616.62 118.93 616.62 106.27 600.44 106.27 598.15 108.61"/><polygon class="cls-16" points="600.53 116.3 600.54 116.3 602.66 118.51 604.24 118.51 602.12 116.3 602.11 116.3 602.11 108.87 602.12 108.87 604.24 106.66 602.66 106.66 600.56 108.85 600.53 108.85 600.53 116.3"/><rect class="cls-17" x="598.52" y="109.49" width="1.85" height="6.19"/><polygon class="cls-15" points="598.31 56.54 598.31 64.54 600.59 66.87 616.78 66.87 616.78 54.2 600.61 54.2 598.31 56.54"/><polygon class="cls-16" points="600.7 64.23 600.7 64.23 602.83 66.45 604.4 66.45 602.28 64.23 602.27 64.23 602.27 56.8 602.28 56.8 604.4 54.59 602.83 54.59 600.72 56.78 600.7 56.78 600.7 64.23"/><rect class="cls-17" x="598.69" y="57.42" width="1.85" height="6.19"/><polygon class="cls-15" points="598.31 69.65 598.31 77.64 600.59 79.97 616.78 79.97 616.78 67.31 600.6 67.31 598.31 69.65"/><polygon class="cls-16" points="600.69 77.34 600.7 77.34 602.82 79.55 604.4 79.55 602.27 77.34 602.27 77.34 602.27 69.91 602.27 69.91 604.4 67.7 602.82 67.7 600.72 69.89 600.69 69.89 600.69 77.34"/><rect class="cls-17" x="598.68" y="70.52" width="1.85" height="6.19"/><polygon class="cls-15" points="598.31 43.32 598.31 51.32 600.59 53.64 616.78 53.64 616.78 40.98 600.61 40.98 598.31 43.32"/><polygon class="cls-16" points="600.7 51.01 600.7 51.01 602.82 53.22 604.4 53.22 602.28 51.01 602.27 51.01 602.27 43.58 602.28 43.58 604.4 41.37 602.82 41.37 600.72 43.56 600.7 43.56 600.7 51.01"/><rect class="cls-17" x="598.69" y="44.2" width="1.85" height="6.19"/><polygon class="cls-15" points="620.61 95.5 620.61 103.5 622.89 105.83 639.08 105.83 639.08 93.16 622.9 93.16 620.61 95.5"/><polygon class="cls-16" points="622.99 103.19 623 103.19 625.12 105.41 626.7 105.41 624.58 103.19 624.57 103.19 624.57 95.76 624.58 95.76 626.7 93.55 625.12 93.55 623.02 95.74 622.99 95.74 622.99 103.19"/><rect class="cls-17" x="620.99" y="96.38" width="1.85" height="6.19"/><polygon class="cls-15" points="620.62 108.61 620.62 116.61 622.89 118.93 639.09 118.93 639.09 106.27 622.91 106.27 620.62 108.61"/><polygon class="cls-16" points="623 116.3 623.01 116.3 625.13 118.51 626.71 118.51 624.58 116.3 624.58 116.3 624.58 108.87 624.58 108.87 626.71 106.66 625.13 106.66 623.03 108.85 623 108.85 623 116.3"/><rect class="cls-17" x="620.99" y="109.49" width="1.85" height="6.19"/><polygon class="cls-15" points="620.78 56.54 620.78 64.54 623.06 66.87 639.25 66.87 639.25 54.2 623.08 54.2 620.78 56.54"/><polygon class="cls-16" points="623.16 64.23 623.17 64.23 625.29 66.45 626.87 66.45 624.75 64.23 624.74 64.23 624.74 56.8 624.75 56.8 626.87 54.59 625.29 54.59 623.19 56.78 623.16 56.78 623.16 64.23"/><rect class="cls-17" x="621.16" y="57.42" width="1.85" height="6.19"/><polygon class="cls-15" points="620.78 69.65 620.78 77.64 623.06 79.97 639.25 79.97 639.25 67.31 623.07 67.31 620.78 69.65"/><polygon class="cls-16" points="623.16 77.34 623.17 77.34 625.29 79.55 626.87 79.55 624.74 77.34 624.74 77.34 624.74 69.91 624.74 69.91 626.87 67.7 625.29 67.7 623.19 69.89 623.16 69.89 623.16 77.34"/><rect class="cls-17" x="621.15" y="70.52" width="1.85" height="6.19"/><polygon class="cls-15" points="620.78 43.32 620.78 51.32 623.06 53.64 639.25 53.64 639.25 40.98 623.08 40.98 620.78 43.32"/><polygon class="cls-16" points="623.16 51.01 623.17 51.01 625.29 53.22 626.87 53.22 624.75 51.01 624.74 51.01 624.74 43.58 624.75 43.58 626.87 41.37 625.29 41.37 623.19 43.56 623.16 43.56 623.16 51.01"/><rect class="cls-17" x="621.15" y="44.2" width="1.85" height="6.19"/><polygon class="cls-15" points="483.79 103.37 483.79 95.37 481.51 93.04 465.31 93.04 465.31 105.71 481.49 105.71 483.79 103.37"/><polygon class="cls-16" points="481.4 95.67 481.39 95.67 479.27 93.46 477.7 93.46 479.82 95.67 479.82 95.67 479.82 103.11 479.82 103.11 477.7 105.32 479.27 105.32 481.38 103.13 481.4 103.13 481.4 95.67"/><rect class="cls-17" x="481.56" y="96.3" width="1.85" height="6.19"/><polygon class="cls-15" points="483.79 90.27 483.79 82.27 481.51 79.94 465.31 79.94 465.31 92.61 481.49 92.61 483.79 90.27"/><polygon class="cls-16" points="481.4 82.57 481.4 82.57 479.27 80.36 477.7 80.36 479.82 82.57 479.83 82.57 479.83 90 479.82 90 477.7 92.21 479.27 92.21 481.38 90.02 481.4 90.02 481.4 82.57"/><rect class="cls-17" x="481.56" y="83.2" width="1.85" height="6.19"/><polygon class="cls-15" points="483.79 116.59 483.79 108.59 481.51 106.27 465.31 106.27 465.31 118.93 481.49 118.93 483.79 116.59"/><polygon class="cls-16" points="481.4 108.9 481.4 108.9 479.27 106.69 477.7 106.69 479.82 108.9 479.83 108.9 479.83 116.33 479.82 116.33 477.7 118.54 479.27 118.54 481.38 116.35 481.4 116.35 481.4 108.9"/><rect class="cls-17" x="481.56" y="109.52" width="1.85" height="6.19"/><polygon class="cls-15" points="393.74 64.41 393.74 56.41 396.02 54.09 412.22 54.09 412.22 66.75 396.04 66.75 393.74 64.41"/><polygon class="cls-16" points="396.13 56.72 396.14 56.72 398.26 54.5 399.84 54.5 397.71 56.72 397.71 56.72 397.71 64.15 397.71 64.15 399.84 66.36 398.26 66.36 396.16 64.17 396.13 64.17 396.13 56.72"/><rect class="cls-17" x="394.12" y="57.34" width="1.85" height="6.19"/><polygon class="cls-15" points="393.75 51.3 393.75 43.3 396.03 40.98 412.23 40.98 412.23 53.65 396.05 53.65 393.75 51.3"/><polygon class="cls-16" points="396.14 43.61 396.14 43.61 398.27 41.4 399.84 41.4 397.72 43.61 397.71 43.61 397.71 51.04 397.72 51.04 399.84 53.26 398.27 53.26 396.16 51.06 396.14 51.06 396.14 43.61"/><rect class="cls-17" x="394.13" y="44.23" width="1.85" height="6.19"/><polygon class="cls-15" points="460.71 103.37 460.71 95.37 458.43 93.04 442.23 93.04 442.23 105.71 458.41 105.71 460.71 103.37"/><polygon class="cls-16" points="458.32 95.67 458.31 95.67 456.19 93.46 454.62 93.46 456.74 95.67 456.74 95.67 456.74 103.11 456.74 103.11 454.62 105.32 456.19 105.32 458.29 103.13 458.32 103.13 458.32 95.67"/><rect class="cls-17" x="458.48" y="96.3" width="1.86" height="6.19"/><polygon class="cls-15" points="460.71 90.27 460.71 82.27 458.43 79.94 442.23 79.94 442.23 92.61 458.41 92.61 460.71 90.27"/><polygon class="cls-16" points="458.32 82.57 458.32 82.57 456.19 80.36 454.62 80.36 456.74 82.57 456.75 82.57 456.75 90 456.74 90 454.62 92.21 456.19 92.21 458.3 90.02 458.32 90.02 458.32 82.57"/><rect class="cls-17" x="458.48" y="83.2" width="1.85" height="6.19"/><polygon class="cls-15" points="460.71 116.59 460.71 108.59 458.43 106.27 442.23 106.27 442.23 118.93 458.41 118.93 460.71 116.59"/><polygon class="cls-16" points="458.32 108.9 458.32 108.9 456.19 106.69 454.62 106.69 456.74 108.9 456.75 108.9 456.75 116.33 456.74 116.33 454.62 118.54 456.19 118.54 458.3 116.35 458.32 116.35 458.32 108.9"/><rect class="cls-17" x="458.48" y="109.52" width="1.85" height="6.19"/><polygon class="cls-15" points="416.92 64.41 416.92 56.41 419.2 54.09 435.4 54.09 435.4 66.75 419.22 66.75 416.92 64.41"/><polygon class="cls-16" points="419.31 56.72 419.31 56.72 421.44 54.5 423.01 54.5 420.89 56.72 420.89 56.72 420.89 64.15 420.89 64.15 423.01 66.36 421.44 66.36 419.33 64.17 419.31 64.17 419.31 56.72"/><rect class="cls-17" x="417.3" y="57.34" width="1.85" height="6.19"/><polygon class="cls-15" points="416.93 51.3 416.93 43.3 419.21 40.98 435.41 40.98 435.41 53.65 419.23 53.65 416.93 51.3"/><polygon class="cls-16" points="419.31 43.61 419.32 43.61 421.45 41.4 423.02 41.4 420.9 43.61 420.89 43.61 420.89 51.04 420.9 51.04 423.02 53.26 421.45 53.26 419.34 51.06 419.31 51.06 419.31 43.61"/><rect class="cls-17" x="417.31" y="44.23" width="1.85" height="6.19"/><polygon class="cls-15" points="437.53 103.37 437.53 95.37 435.25 93.04 419.05 93.04 419.05 105.71 435.23 105.71 437.53 103.37"/><polygon class="cls-16" points="435.14 95.67 435.14 95.67 433.01 93.46 431.44 93.46 433.56 95.67 433.57 95.67 433.57 103.11 433.56 103.11 431.44 105.32 433.01 105.32 435.12 103.13 435.14 103.13 435.14 95.67"/><rect class="cls-17" x="435.3" y="96.3" width="1.85" height="6.19"/><polygon class="cls-15" points="437.53 90.27 437.53 82.27 435.25 79.94 419.05 79.94 419.05 92.61 435.23 92.61 437.53 90.27"/><polygon class="cls-16" points="435.15 82.57 435.14 82.57 433.02 80.36 431.44 80.36 433.56 82.57 433.57 82.57 433.57 90 433.56 90 431.44 92.21 433.02 92.21 435.12 90.02 435.15 90.02 435.15 82.57"/><rect class="cls-17" x="435.3" y="83.2" width="1.85" height="6.19"/><polygon class="cls-15" points="437.53 116.59 437.53 108.59 435.25 106.27 419.05 106.27 419.05 118.93 435.23 118.93 437.53 116.59"/><polygon class="cls-16" points="435.14 108.9 435.14 108.9 433.01 106.69 431.44 106.69 433.56 108.9 433.57 108.9 433.57 116.33 433.56 116.33 431.44 118.54 433.01 118.54 435.12 116.35 435.14 116.35 435.14 108.9"/><rect class="cls-17" x="435.3" y="109.52" width="1.85" height="6.19"/><polygon class="cls-15" points="439.39 64.41 439.39 56.41 441.67 54.09 457.87 54.09 457.87 66.75 441.69 66.75 439.39 64.41"/><polygon class="cls-16" points="441.78 56.72 441.79 56.72 443.91 54.5 445.48 54.5 443.36 56.72 443.36 56.72 443.36 64.15 443.36 64.15 445.48 66.36 443.91 66.36 441.81 64.17 441.78 64.17 441.78 56.72"/><rect class="cls-17" x="439.77" y="57.34" width="1.85" height="6.19"/><polygon class="cls-15" points="439.4 51.3 439.4 43.3 441.68 40.98 457.88 40.98 457.88 53.65 441.7 53.65 439.4 51.3"/><polygon class="cls-16" points="441.79 43.61 441.79 43.61 443.92 41.4 445.49 41.4 443.37 43.61 443.36 43.61 443.36 51.04 443.37 51.04 445.49 53.26 443.92 53.26 441.81 51.06 441.79 51.06 441.79 43.61"/><rect class="cls-17" x="439.78" y="44.23" width="1.85" height="6.19"/><polygon class="cls-15" points="415.06 103.37 415.06 95.37 412.78 93.04 396.58 93.04 396.58 105.71 412.76 105.71 415.06 103.37"/><polygon class="cls-16" points="412.67 95.67 412.67 95.67 410.54 93.46 408.97 93.46 411.09 95.67 411.1 95.67 411.1 103.11 411.09 103.11 408.97 105.32 410.54 105.32 412.64 103.13 412.67 103.13 412.67 95.67"/><rect class="cls-17" x="412.83" y="96.3" width="1.85" height="6.19"/><polygon class="cls-15" points="415.06 90.27 415.06 82.27 412.78 79.94 396.58 79.94 396.58 92.61 412.76 92.61 415.06 90.27"/><polygon class="cls-16" points="412.67 82.57 412.67 82.57 410.54 80.36 408.97 80.36 411.09 82.57 411.1 82.57 411.1 90 411.09 90 408.97 92.21 410.54 92.21 412.65 90.02 412.67 90.02 412.67 82.57"/><rect class="cls-17" x="412.83" y="83.2" width="1.85" height="6.19"/><polygon class="cls-15" points="415.06 116.59 415.06 108.59 412.78 106.27 396.58 106.27 396.58 118.93 412.76 118.93 415.06 116.59"/><polygon class="cls-16" points="412.67 108.9 412.67 108.9 410.54 106.69 408.97 106.69 411.09 108.9 411.1 108.9 411.1 116.33 411.09 116.33 408.97 118.54 410.54 118.54 412.64 116.35 412.67 116.35 412.67 108.9"/><rect class="cls-17" x="412.83" y="109.52" width="1.85" height="6.19"/><polygon class="cls-15" points="325.01 63.89 325.01 55.89 327.29 53.56 343.48 53.56 343.48 66.23 327.31 66.23 325.01 63.89"/><polygon class="cls-16" points="327.39 56.19 327.4 56.19 329.52 53.98 331.1 53.98 328.98 56.19 328.97 56.19 328.97 63.63 328.98 63.63 331.1 65.84 329.52 65.84 327.42 63.65 327.39 63.65 327.39 56.19"/><rect class="cls-17" x="325.38" y="56.81" width="1.85" height="6.19"/><polygon class="cls-15" points="325.01 50.78 325.01 42.78 327.3 40.46 343.49 40.46 343.49 53.12 327.31 53.12 325.01 50.78"/><polygon class="cls-16" points="327.4 43.09 327.41 43.09 329.53 40.88 331.11 40.88 328.98 43.09 328.98 43.09 328.98 50.52 328.98 50.52 331.11 52.73 329.53 52.73 327.43 50.54 327.4 50.54 327.4 43.09"/><rect class="cls-17" x="325.39" y="43.71" width="1.85" height="6.19"/><polygon class="cls-15" points="391.97 102.85 391.97 94.85 389.69 92.52 373.5 92.52 373.5 105.19 389.67 105.19 391.97 102.85"/><polygon class="cls-16" points="389.58 95.15 389.58 95.15 387.45 92.94 385.88 92.94 388 95.15 388.01 95.15 388.01 102.58 388 102.58 385.88 104.8 387.45 104.8 389.56 102.6 389.58 102.6 389.58 95.15"/><rect class="cls-17" x="389.74" y="95.77" width="1.85" height="6.19"/><polygon class="cls-15" points="391.97 89.74 391.97 81.74 389.69 79.42 373.5 79.42 373.5 92.08 389.68 92.08 391.97 89.74"/><polygon class="cls-16" points="389.59 82.05 389.58 82.05 387.46 79.84 385.88 79.84 388.01 82.05 388.01 82.05 388.01 89.48 388.01 89.48 385.88 91.69 387.46 91.69 389.56 89.5 389.59 89.5 389.59 82.05"/><rect class="cls-17" x="389.74" y="82.67" width="1.85" height="6.19"/><polygon class="cls-15" points="391.97 116.07 391.97 108.07 389.69 105.75 373.5 105.75 373.5 118.41 389.67 118.41 391.97 116.07"/><polygon class="cls-16" points="389.58 108.38 389.58 108.38 387.45 106.16 385.88 106.16 388 108.38 388.01 108.38 388.01 115.81 388 115.81 385.88 118.02 387.45 118.02 389.56 115.83 389.58 115.83 389.58 108.38"/><rect class="cls-17" x="389.74" y="109" width="1.85" height="6.19"/><polygon class="cls-15" points="348.19 63.89 348.19 55.89 350.46 53.56 366.66 53.56 366.66 66.23 350.48 66.23 348.19 63.89"/><polygon class="cls-16" points="350.57 56.19 350.58 56.19 352.7 53.98 354.28 53.98 352.15 56.19 352.15 56.19 352.15 63.63 352.15 63.63 354.28 65.84 352.7 65.84 350.6 63.65 350.57 63.65 350.57 56.19"/><rect class="cls-17" x="348.56" y="56.81" width="1.85" height="6.19"/><polygon class="cls-15" points="348.19 50.78 348.19 42.78 350.47 40.46 366.67 40.46 366.67 53.12 350.49 53.12 348.19 50.78"/><polygon class="cls-16" points="350.58 43.09 350.58 43.09 352.71 40.88 354.29 40.88 352.16 43.09 352.16 43.09 352.16 50.52 352.16 50.52 354.29 52.73 352.71 52.73 350.61 50.54 350.58 50.54 350.58 43.09"/><rect class="cls-17" x="348.57" y="43.71" width="1.85" height="6.19"/><polygon class="cls-15" points="368.8 102.85 368.8 94.85 366.51 92.52 350.31 92.52 350.31 105.19 366.5 105.19 368.8 102.85"/><polygon class="cls-16" points="366.41 95.15 366.4 95.15 364.28 92.94 362.7 92.94 364.82 95.15 364.83 95.15 364.83 102.58 364.82 102.58 362.7 104.8 364.28 104.8 366.38 102.6 366.41 102.6 366.41 95.15"/><rect class="cls-17" x="366.56" y="95.77" width="1.85" height="6.19"/><polygon class="cls-15" points="368.8 89.74 368.8 81.74 366.52 79.42 350.32 79.42 350.32 92.08 366.5 92.08 368.8 89.74"/><polygon class="cls-16" points="366.41 82.05 366.4 82.05 364.28 79.84 362.7 79.84 364.83 82.05 364.83 82.05 364.83 89.48 364.83 89.48 362.7 91.69 364.28 91.69 366.38 89.5 366.41 89.5 366.41 82.05"/><rect class="cls-17" x="366.57" y="82.67" width="1.85" height="6.19"/><polygon class="cls-15" points="368.8 116.07 368.8 108.07 366.52 105.75 350.32 105.75 350.32 118.41 366.5 118.41 368.8 116.07"/><polygon class="cls-16" points="366.41 108.38 366.4 108.38 364.28 106.16 362.7 106.16 364.82 108.38 364.83 108.38 364.83 115.81 364.82 115.81 362.7 118.02 364.28 118.02 366.38 115.83 366.41 115.83 366.41 108.38"/><rect class="cls-17" x="366.56" y="109" width="1.85" height="6.19"/><polygon class="cls-15" points="370.66 63.89 370.66 55.89 372.94 53.56 389.13 53.56 389.13 66.23 372.95 66.23 370.66 63.89"/><polygon class="cls-16" points="373.05 56.19 373.05 56.19 375.17 53.98 376.75 53.98 374.63 56.19 374.62 56.19 374.62 63.63 374.63 63.63 376.75 65.84 375.17 65.84 373.07 63.65 373.05 63.65 373.05 56.19"/><rect class="cls-17" x="371.04" y="56.81" width="1.85" height="6.19"/><polygon class="cls-15" points="370.67 50.78 370.67 42.78 372.94 40.46 389.14 40.46 389.14 53.12 372.96 53.12 370.67 50.78"/><polygon class="cls-16" points="373.05 43.09 373.06 43.09 375.18 40.88 376.76 40.88 374.63 43.09 374.63 43.09 374.63 50.52 374.63 50.52 376.76 52.73 375.18 52.73 373.08 50.54 373.05 50.54 373.05 43.09"/><rect class="cls-17" x="371.04" y="43.71" width="1.85" height="6.19"/><polygon class="cls-15" points="346.32 102.85 346.32 94.85 344.04 92.52 327.85 92.52 327.85 105.19 344.02 105.19 346.32 102.85"/><polygon class="cls-16" points="343.94 95.15 343.93 95.15 341.81 92.94 340.23 92.94 342.35 95.15 342.36 95.15 342.36 102.58 342.35 102.58 340.23 104.8 341.81 104.8 343.91 102.6 343.94 102.6 343.94 95.15"/><rect class="cls-17" x="344.09" y="95.77" width="1.85" height="6.19"/><polygon class="cls-15" points="346.32 89.74 346.32 81.74 344.04 79.42 327.85 79.42 327.85 92.08 344.03 92.08 346.32 89.74"/><polygon class="cls-16" points="343.94 82.05 343.93 82.05 341.81 79.84 340.23 79.84 342.36 82.05 342.36 82.05 342.36 89.48 342.36 89.48 340.23 91.69 341.81 91.69 343.91 89.5 343.94 89.5 343.94 82.05"/><rect class="cls-17" x="344.09" y="82.67" width="1.85" height="6.19"/><polygon class="cls-15" points="346.32 116.07 346.32 108.07 344.04 105.75 327.85 105.75 327.85 118.41 344.02 118.41 346.32 116.07"/><polygon class="cls-16" points="343.94 108.38 343.93 108.38 341.81 106.16 340.23 106.16 342.35 108.38 342.36 108.38 342.36 115.81 342.35 115.81 340.23 118.02 341.81 118.02 343.91 115.83 343.94 115.83 343.94 108.38"/><rect class="cls-17" x="344.09" y="109" width="1.85" height="6.19"/><polygon class="cls-15" points="302.42 64.41 302.42 56.41 304.7 54.08 320.9 54.08 320.9 66.75 304.72 66.75 302.42 64.41"/><polygon class="cls-16" points="304.81 56.72 304.81 56.72 306.94 54.5 308.51 54.5 306.39 56.72 306.39 56.72 306.39 64.15 306.39 64.15 308.51 66.36 306.94 66.36 304.83 64.17 304.81 64.17 304.81 56.72"/><rect class="cls-17" x="302.8" y="57.34" width="1.85" height="6.19"/><polygon class="cls-15" points="302.43 51.3 302.43 43.3 304.71 40.98 320.91 40.98 320.91 53.65 304.73 53.65 302.43 51.3"/><polygon class="cls-16" points="304.81 43.61 304.82 43.61 306.94 41.4 308.52 41.4 306.4 43.61 306.39 43.61 306.39 51.04 306.4 51.04 308.52 53.25 306.94 53.25 304.84 51.06 304.81 51.06 304.81 43.61"/><rect class="cls-17" x="302.81" y="44.23" width="1.85" height="6.19"/><polygon class="cls-15" points="323.74 103.37 323.74 95.37 321.46 93.04 305.26 93.04 305.26 105.71 321.44 105.71 323.74 103.37"/><polygon class="cls-16" points="321.35 95.67 321.34 95.67 319.22 93.46 317.64 93.46 319.77 95.67 319.77 95.67 319.77 103.11 319.77 103.11 317.64 105.32 319.22 105.32 321.32 103.13 321.35 103.13 321.35 95.67"/><rect class="cls-17" x="321.51" y="96.3" width="1.85" height="6.19"/><polygon class="cls-15" points="323.74 90.26 323.74 82.27 321.46 79.94 305.26 79.94 305.26 92.61 321.44 92.61 323.74 90.26"/><polygon class="cls-16" points="321.35 82.57 321.35 82.57 319.22 80.36 317.64 80.36 319.77 82.57 319.77 82.57 319.77 90 319.77 90 317.64 92.21 319.22 92.21 321.33 90.02 321.35 90.02 321.35 82.57"/><rect class="cls-17" x="321.51" y="83.19" width="1.85" height="6.19"/><polygon class="cls-15" points="323.74 116.59 323.74 108.59 321.46 106.27 305.26 106.27 305.26 118.93 321.44 118.93 323.74 116.59"/><polygon class="cls-16" points="321.35 108.9 321.35 108.9 319.22 106.69 317.64 106.69 319.77 108.9 319.77 108.9 319.77 116.33 319.77 116.33 317.64 118.54 319.22 118.54 321.32 116.35 321.35 116.35 321.35 108.9"/><rect class="cls-17" x="321.51" y="109.52" width="1.85" height="6.19"/><polygon class="cls-15" points="280.45 64.41 280.45 56.41 282.73 54.08 298.93 54.08 298.93 66.75 282.75 66.75 280.45 64.41"/><polygon class="cls-16" points="282.84 56.72 282.85 56.72 284.97 54.5 286.55 54.5 284.42 56.72 284.42 56.72 284.42 64.15 284.42 64.15 286.55 66.36 284.97 66.36 282.87 64.17 282.84 64.17 282.84 56.72"/><rect class="cls-17" x="280.83" y="57.34" width="1.85" height="6.19"/><polygon class="cls-15" points="280.46 51.3 280.46 43.3 282.74 40.98 298.94 40.98 298.94 53.65 282.76 53.65 280.46 51.3"/><polygon class="cls-16" points="282.85 43.61 282.85 43.61 284.98 41.4 286.56 41.4 284.43 43.61 284.43 43.61 284.43 51.04 284.43 51.04 286.56 53.25 284.98 53.25 282.88 51.06 282.85 51.06 282.85 43.61"/><rect class="cls-17" x="280.84" y="44.23" width="1.85" height="6.19"/><path class="cls-18" d="M280,93.76a.93.93,0,0,0-.95.89v10a.93.93,0,0,0,.95.89h10.73a.92.92,0,0,0,.95-.89v-10a.92.92,0,0,0-.95-.89Z"/><path class="cls-19" d="M280,93.76a.93.93,0,0,0-.95.89v10a.93.93,0,0,0,.95.89h10.73a.92.92,0,0,0,.95-.89v-10a.92.92,0,0,0-.95-.89Z"/><path class="cls-20" d="M277.76,93.51h1.74c.22,0,.4.36.4.8V105c0,.44-.18.8-.4.8h-1.74Z"/><path class="cls-18" d="M280,107a.93.93,0,0,0-.95.89v10a.93.93,0,0,0,.95.89h10.73a.92.92,0,0,0,.95-.89v-10a.92.92,0,0,0-.95-.89Z"/><path class="cls-21" d="M280,107a.93.93,0,0,0-.95.89v10a.93.93,0,0,0,.95.89h10.73a.92.92,0,0,0,.95-.89v-10a.92.92,0,0,0-.95-.89Z"/><path class="cls-20" d="M277.76,106.78h1.74c.22,0,.4.36.4.8v10.64c0,.44-.18.8-.4.8h-1.74Z"/><path class="cls-18" d="M666.4,95.08a.86.86,0,0,1,.9.83v9.5a.87.87,0,0,1-.9.84H656.27a.87.87,0,0,1-.9-.84v-9.5a.86.86,0,0,1,.9-.83Z"/><path class="cls-22" d="M666.4,95.08a.86.86,0,0,1,.9.83v9.5a.87.87,0,0,1-.9.84H656.27a.87.87,0,0,1-.9-.84v-9.5a.86.86,0,0,1,.9-.83Z"/><path class="cls-20" d="M668.48,94.84h-1.64c-.21,0-.38.33-.38.75v10.06c0,.41.17.75.38.75h1.64Z"/><path class="cls-18" d="M666.4,107.61a.87.87,0,0,1,.9.84v9.49a.87.87,0,0,1-.9.84H656.27a.87.87,0,0,1-.9-.84v-9.49a.87.87,0,0,1,.9-.84Z"/><path class="cls-23" d="M666.4,107.61a.87.87,0,0,1,.9.84v9.49a.87.87,0,0,1-.9.84H656.27a.87.87,0,0,1-.9-.84v-9.49a.87.87,0,0,1,.9-.84Z"/><path class="cls-20" d="M668.48,107.37h-1.64c-.21,0-.38.34-.38.76v10.05c0,.41.17.75.38.75h1.64Z"/><path class="cls-18" d="M666.61,40.46a.87.87,0,0,1,.89.84v9.49a.86.86,0,0,1-.89.84H656.47a.86.86,0,0,1-.89-.84V41.3a.87.87,0,0,1,.89-.84Z"/><path class="cls-24" d="M666.61,40.46a.87.87,0,0,1,.89.84v9.49a.86.86,0,0,1-.89.84H656.47a.86.86,0,0,1-.89-.84V41.3a.87.87,0,0,1,.89-.84Z"/><path class="cls-20" d="M668.69,40.22H667c-.21,0-.38.34-.38.76V51c0,.42.17.76.38.76h1.65Z"/><path class="cls-18" d="M666.61,53a.87.87,0,0,1,.89.84v9.5a.87.87,0,0,1-.89.84H656.47a.87.87,0,0,1-.89-.84v-9.5a.87.87,0,0,1,.89-.84Z"/><path class="cls-25" d="M666.61,53a.87.87,0,0,1,.89.84v9.5a.87.87,0,0,1-.89.84H656.47a.87.87,0,0,1-.89-.84v-9.5a.87.87,0,0,1,.89-.84Z"/><path class="cls-20" d="M668.69,52.76H667c-.21,0-.38.33-.38.75V63.56c0,.42.17.76.38.76h1.65Z"/><path class="cls-18" d="M77.83,95.05a.86.86,0,0,0-.89.83v9.5a.87.87,0,0,0,.89.84H88a.87.87,0,0,0,.89-.84v-9.5a.86.86,0,0,0-.89-.83Z"/><path class="cls-26" d="M77.83,95.05a.86.86,0,0,0-.89.83v9.5a.87.87,0,0,0,.89.84H88a.87.87,0,0,0,.89-.84v-9.5a.86.86,0,0,0-.89-.83Z"/><path class="cls-20" d="M75.76,94.81H77.4c.21,0,.38.34.38.76v10.05c0,.41-.17.75-.38.75H75.76Z"/><path class="cls-18" d="M77.83,107.58a.86.86,0,0,0-.89.84v9.49a.86.86,0,0,0,.89.84H88a.86.86,0,0,0,.89-.84v-9.49a.86.86,0,0,0-.89-.84Z"/><path class="cls-27" d="M77.83,107.58a.86.86,0,0,0-.89.84v9.49a.86.86,0,0,0,.89.84H88a.86.86,0,0,0,.89-.84v-9.49a.86.86,0,0,0-.89-.84Z"/><path class="cls-20" d="M75.76,107.34H77.4c.21,0,.38.34.38.76v10.05c0,.42-.17.75-.38.75H75.76Z"/><path class="cls-18" d="M100.94,40.65a.86.86,0,0,0-.9.83V51a.87.87,0,0,0,.9.84h10.13A.87.87,0,0,0,112,51v-9.5a.86.86,0,0,0-.9-.83Z"/><path class="cls-28" d="M100.94,40.65a.86.86,0,0,0-.9.83V51a.87.87,0,0,0,.9.84h10.13A.87.87,0,0,0,112,51v-9.5a.86.86,0,0,0-.9-.83Z"/><path class="cls-20" d="M98.86,40.41h1.64c.21,0,.38.34.38.76v10c0,.41-.17.75-.38.75H98.86Z"/><path class="cls-18" d="M100.94,53.18a.87.87,0,0,0-.9.84v9.49a.87.87,0,0,0,.9.84h10.13a.87.87,0,0,0,.9-.84V54a.87.87,0,0,0-.9-.84Z"/><path class="cls-29" d="M100.94,53.18a.87.87,0,0,0-.9.84v9.49a.87.87,0,0,0,.9.84h10.13a.87.87,0,0,0,.9-.84V54a.87.87,0,0,0-.9-.84Z"/><path class="cls-20" d="M98.86,52.94h1.64c.21,0,.38.34.38.76v10c0,.42-.17.75-.38.75H98.86Z"/><path class="cls-18" d="M672.05,48.77a.91.91,0,0,0-.94.88V59.71a.91.91,0,0,0,.94.88h10.74a.92.92,0,0,0,1-.88V49.65a.92.92,0,0,0-1-.88Z"/><path class="cls-30" d="M672.05,48.77a.91.91,0,0,0-.94.88V59.71a.91.91,0,0,0,.94.88h10.74a.92.92,0,0,0,1-.88V49.65a.92.92,0,0,0-1-.88Z"/><path class="cls-20" d="M669.86,48.52h1.73c.23,0,.41.35.41.79V60c0,.44-.18.8-.41.8h-1.73Z"/><polygon class="cls-15" points="673.84 106.77 673.84 98.36 676.28 95.91 693.63 95.91 693.63 109.23 676.3 109.23 673.84 106.77"/><polygon class="cls-16" points="676.4 98.68 676.4 98.68 678.68 96.35 680.37 96.35 678.09 98.68 678.09 98.68 678.09 106.5 678.09 106.5 680.37 108.82 678.68 108.82 676.42 106.52 676.4 106.52 676.4 98.68"/><rect class="cls-17" x="674.24" y="99.33" width="1.98" height="6.51"/><path class="cls-18" d="M483.87,41.58a.93.93,0,0,1,.95.89V52.52a.93.93,0,0,1-.95.89H473.14a.92.92,0,0,1-.95-.89V42.47a.92.92,0,0,1,.95-.89Z"/><path class="cls-31" d="M483.87,41.58a.93.93,0,0,1,.95.89V52.52a.93.93,0,0,1-.95.89H473.14a.92.92,0,0,1-.95-.89V42.47a.92.92,0,0,1,.95-.89Z"/><path class="cls-20" d="M486.07,41.33h-1.74c-.22,0-.4.36-.4.8V52.77c0,.44.18.8.4.8h1.74Z"/><path class="cls-18" d="M483.87,54.85a.93.93,0,0,1,.95.89V65.79a.93.93,0,0,1-.95.89H473.14a.92.92,0,0,1-.95-.89V55.74a.92.92,0,0,1,.95-.89Z"/><path class="cls-32" d="M483.87,54.85a.93.93,0,0,1,.95.89V65.79a.93.93,0,0,1-.95.89H473.14a.92.92,0,0,1-.95-.89V55.74a.92.92,0,0,1,.95-.89Z"/><path class="cls-20" d="M486.07,54.6h-1.74c-.22,0-.4.36-.4.8V66c0,.44.18.8.4.8h1.74Z"/></g><g id="INNREDNING"><rect class="cls-33" x="547.98" y="97.2" width="1.28" height="23.04"/><path class="cls-33" d="M547.68,97.17a.95.95,0,1,1,1,1A.94.94,0,0,1,547.68,97.17Z"/><rect class="cls-34" x="548.18" y="98.71" width="0.85" height="6.74"/><rect class="cls-33" x="547.98" y="39.87" width="1.28" height="34.14"/><path class="cls-33" d="M547.68,74.28a.95.95,0,1,0,1-1A1,1,0,0,0,547.68,74.28Z"/><rect class="cls-34" x="548.18" y="54.88" width="0.85" height="17.61"/><rect class="cls-33" x="191.67" y="96.95" width="1.28" height="23.04"/><path class="cls-33" d="M191.37,96.93a1,1,0,1,1,.95.94A.95.95,0,0,1,191.37,96.93Z"/><rect class="cls-34" x="191.88" y="98.46" width="0.85" height="6.74"/><rect class="cls-33" x="191.67" y="39.62" width="1.28" height="34.14"/><path class="cls-33" d="M191.37,74a1,1,0,1,0,.95-1A1,1,0,0,0,191.37,74Z"/><rect class="cls-34" x="191.88" y="54.63" width="0.85" height="17.61"/><rect class="cls-33" x="276.27" y="39.89" width="1.28" height="23.04"/><path class="cls-33" d="M276,63a.95.95,0,1,0,.95-1A.94.94,0,0,0,276,63Z"/><rect class="cls-33" x="276.27" y="86.13" width="1.28" height="34.14"/><path class="cls-33" d="M276,85.85a.95.95,0,1,1,.95,1A1,1,0,0,1,276,85.85Z"/><rect class="cls-34" x="276.47" y="87.63" width="0.85" height="17.61"/><rect class="cls-33" x="486.37" y="39.89" width="1.28" height="25.8"/><path class="cls-33" d="M486.07,66A.95.95,0,1,0,487,65,.94.94,0,0,0,486.07,66Z"/><rect class="cls-33" x="486.37" y="86.13" width="1.28" height="34.14"/><path class="cls-33" d="M486.07,85.85a.95.95,0,1,1,.95,1A1,1,0,0,1,486.07,85.85Z"/><rect class="cls-34" x="486.57" y="87.63" width="0.85" height="17.61"/><rect class="cls-35" x="80.55" y="40.16" width="15.82" height="29.39"/><polygon class="cls-36" points="67.68 48.63 78.54 48.63 78.54 61.95 67.7 61.95 65.24 59.49 65.24 51.07 67.68 48.63"/><polygon class="cls-16" points="66.24 51.41 66.25 51.41 68.52 49.09 70.21 49.09 67.93 51.41 67.93 51.41 67.93 59.23 67.93 59.23 70.21 61.56 68.52 61.56 66.27 59.25 66.24 59.25 66.24 51.41"/><rect class="cls-37" x="70.13" y="46.38" width="6.76" height="1.44" rx="0.57" ry="0.57"/><rect class="cls-37" x="70" y="62.72" width="6.76" height="1.44" rx="0.57" ry="0.57"/><rect class="cls-34" x="486.58" y="58.27" width="0.85" height="6.74"/><rect class="cls-34" x="276.49" y="52.73" width="0.85" height="9.06"/></g><g id="SYMBOLER"><rect class="cls-38" x="503.88" y="125.44" width="28.28" height="28.31"/><path class="cls-39" d="M518.69,133a1.64,1.64,0,1,0-1.62-1.63,1.63,1.63,0,0,0,1.62,1.63"/><path class="cls-39" d="M517.07,141.13v-2.56l-2.29,1.18a.93.93,0,0,1-1.27-.34.94.94,0,0,1,.34-1.28l3.21-1.89v-1.17a1.63,1.63,0,1,1,3.26,0v5.69c0,1-.51,1.14-.93,1.44V150a.93.93,0,0,1-1.86,0v-6.85l-2.75,1.49,0,3.44a.93.93,0,1,1-1.86,0v-3.92c0-.51,1-1.14,1-1.14l3.21-1.89"/><path class="cls-39" d="M519.61,138.14l1.56,3.27a.91.91,0,0,0,1.21.49.93.93,0,0,0,.5-1.22l-2.68-6.2"/><path class="cls-39" d="M525.61,139a1.37,1.37,0,1,0-1.36-1.37,1.37,1.37,0,0,0,1.36,1.37"/><path class="cls-39" d="M525.92,144.88l-1.81,5.6a.66.66,0,0,1-1.25-.4l1.74-5.29"/><path class="cls-39" d="M525,144.88l1.81,5.6a.66.66,0,0,0,1.25-.4l-1.74-5.29"/><rect class="cls-39" x="524.41" y="139.3" width="2.34" height="6.22" rx="1.14" ry="1.14"/><path class="cls-39" d="M524.33,142.35l-1.43-.73a.57.57,0,0,0-.79.21.58.58,0,0,0,.21.79l2,1.18"/><rect class="cls-39" x="516.73" y="151.47" width="15.44" height="2.28"/><rect class="cls-39" x="503.82" y="151.68" width="11.58" height="2.11"/><rect class="cls-39" x="503.82" y="148.66" width="8.49" height="3.58"/><rect class="cls-39" x="503.82" y="145.99" width="5.61" height="3.3"/><polygon class="cls-39" points="515.39 125.45 515.39 125.44 503.88 125.44 503.88 126.49 513.92 126.49 513.92 128.99 515.39 128.99 515.39 125.45 515.39 125.45"/><rect class="cls-38" x="503.88" y="6.88" width="28.29" height="28.31"/><path class="cls-39" d="M518.69,14.41a1.64,1.64,0,1,0-1.62-1.63,1.63,1.63,0,0,0,1.62,1.63"/><path class="cls-39" d="M517.07,22.57V20l-2.29,1.18a.93.93,0,0,1-.93-1.62l3.21-1.89V16.51a1.63,1.63,0,1,1,3.26,0v5.7c0,1-.51,1.13-.93,1.43v7.81a.93.93,0,0,1-1.86,0V24.6l-2.75,1.49,0,3.44a.93.93,0,1,1-1.85,0V25.61c0-.51,1-1.14,1-1.14l3.21-1.89"/><path class="cls-39" d="M519.6,19.58l1.56,3.27a.93.93,0,0,0,1.71-.73l-2.67-6.2"/><path class="cls-39" d="M525.61,20.39A1.37,1.37,0,1,0,524.25,19a1.37,1.37,0,0,0,1.36,1.37"/><path class="cls-39" d="M525.92,26.32l-1.81,5.6a.66.66,0,0,1-1.25-.4l1.74-5.29"/><path class="cls-39" d="M525,26.32l1.81,5.6a.66.66,0,0,0,1.25-.4l-1.74-5.29"/><rect class="cls-39" x="524.41" y="20.74" width="2.34" height="6.22" rx="1.14" ry="1.14"/><path class="cls-39" d="M524.33,23.79l-1.43-.74a.58.58,0,0,0-.58,1l2,1.18"/><rect class="cls-39" x="516.73" y="32.91" width="15.44" height="2.29"/><rect class="cls-39" x="503.82" y="33.12" width="11.58" height="2.11"/><rect class="cls-39" x="503.82" y="30.1" width="8.49" height="3.58"/><rect class="cls-39" x="503.82" y="27.43" width="5.61" height="3.3"/><polygon class="cls-39" points="515.39 6.89 515.39 6.88 503.88 6.88 503.88 7.93 513.92 7.93 513.92 10.43 515.39 10.43 515.39 6.89 515.39 6.89"/><rect class="cls-38" x="209.88" y="125.44" width="28.28" height="28.31"/><path class="cls-39" d="M224.69,133a1.64,1.64,0,1,0-1.63-1.63,1.63,1.63,0,0,0,1.63,1.63"/><path class="cls-39" d="M223.06,141.13v-2.56l-2.28,1.18a.93.93,0,0,1-.93-1.62l3.21-1.89v-1.17a1.63,1.63,0,0,1,3.26,0v5.69c0,1-.51,1.14-.93,1.44V150a.93.93,0,1,1-1.86,0v-6.85l-2.75,1.49,0,3.44a.93.93,0,1,1-1.85,0v-3.92c0-.51,1-1.14,1-1.14l3.21-1.89"/><path class="cls-39" d="M225.6,138.14l1.56,3.27a.93.93,0,0,0,1.71-.73l-2.67-6.2"/><path class="cls-39" d="M231.61,139a1.37,1.37,0,1,0-1.36-1.37,1.37,1.37,0,0,0,1.36,1.37"/><path class="cls-39" d="M231.92,144.88l-1.81,5.6a.66.66,0,0,1-1.25-.4l1.74-5.29"/><path class="cls-39" d="M231,144.88l1.81,5.6a.66.66,0,0,0,1.25-.4l-1.74-5.29"/><path class="cls-39" d="M230.41,140.45a1.15,1.15,0,0,1,1.13-1.15h.07a1.15,1.15,0,0,1,1.14,1.15v3.93a1.14,1.14,0,0,1-1.14,1.14h-.07a1.14,1.14,0,0,1-1.13-1.14Z"/><path class="cls-39" d="M230.32,142.35l-1.42-.73a.57.57,0,0,0-.79.21.58.58,0,0,0,.21.79l2,1.18"/><rect class="cls-39" x="222.73" y="151.47" width="15.44" height="2.28"/><rect class="cls-39" x="209.82" y="151.68" width="11.58" height="2.11"/><rect class="cls-39" x="209.82" y="148.66" width="8.49" height="3.58"/><rect class="cls-39" x="209.82" y="145.99" width="5.61" height="3.3"/><polygon class="cls-39" points="221.39 125.45 221.39 125.44 209.88 125.44 209.88 126.49 219.92 126.49 219.92 128.99 221.39 128.99 221.39 125.45 221.39 125.45"/><rect class="cls-38" x="209.88" y="6.88" width="28.29" height="28.31"/><path class="cls-39" d="M224.69,14.41a1.64,1.64,0,1,0-1.63-1.63,1.62,1.62,0,0,0,1.63,1.63"/><path class="cls-39" d="M223.06,22.57V20l-2.29,1.18a.92.92,0,0,1-1.26-.34.93.93,0,0,1,.34-1.28l3.21-1.89V16.51a1.63,1.63,0,1,1,3.25,0v5.7c0,1-.5,1.13-.92,1.43v7.81a.94.94,0,0,1-1.87,0V24.6l-2.75,1.49,0,3.44a.93.93,0,0,1-1.86,0V25.61c0-.51,1-1.14,1-1.14l3.21-1.89"/><path class="cls-39" d="M225.6,19.58l1.56,3.27a.92.92,0,0,0,1.22.49.93.93,0,0,0,.49-1.22l-2.67-6.2"/><path class="cls-39" d="M231.61,20.39A1.37,1.37,0,1,0,230.24,19a1.37,1.37,0,0,0,1.37,1.37"/><path class="cls-39" d="M231.92,26.32l-1.81,5.6a.66.66,0,0,1-1.25-.4l1.74-5.29"/><path class="cls-39" d="M231,26.32l1.81,5.6a.64.64,0,0,0,.81.42.65.65,0,0,0,.44-.82l-1.74-5.29"/><rect class="cls-39" x="230.4" y="20.74" width="2.34" height="6.22" rx="1.14" ry="1.14"/><path class="cls-39" d="M230.32,23.79l-1.42-.74a.58.58,0,0,0-.58,1l2,1.18"/><rect class="cls-39" x="222.73" y="32.91" width="15.44" height="2.29"/><rect class="cls-39" x="209.81" y="33.12" width="11.58" height="2.11"/><rect class="cls-39" x="209.81" y="30.1" width="8.49" height="3.58"/><rect class="cls-39" x="209.81" y="27.43" width="5.61" height="3.3"/><polygon class="cls-39" points="221.38 6.89 221.38 6.88 209.88 6.88 209.88 7.93 219.92 7.93 219.92 10.43 221.39 10.43 221.39 6.89 221.38 6.89"/><polyline class="cls-40" points="573.85 136.52 573.85 140.52 569.85 140.52"/><line class="cls-41" x1="564.73" y1="140.52" x2="557.07" y2="140.52"/><polyline class="cls-40" points="554.51 140.52 550.51 140.52 550.51 136.52"/><line class="cls-42" x1="550.51" y1="127.63" x2="550.51" y2="114.3"/><line class="cls-43" x1="550.51" y1="109.85" x2="550.51" y2="43.19"/><polyline class="cls-40" points="550.51 38.75 550.51 34.75 554.51 34.75"/><line class="cls-41" x1="559.62" y1="34.75" x2="567.29" y2="34.75"/><polyline class="cls-40" points="569.85 34.75 573.85 34.75 573.85 38.75"/><line class="cls-42" x1="573.85" y1="47.64" x2="573.85" y2="60.97"/><line class="cls-43" x1="573.85" y1="65.41" x2="573.85" y2="132.07"/><rect class="cls-44" x="563.67" y="128.15" width="25.45" height="25.45"/><path class="cls-45" d="M577.89,129.5a1.93,1.93,0,1,1-2,1.93A2,2,0,0,1,577.89,129.5Z"/><path class="cls-45" d="M568.55,136.25l1.48,7.61a3.48,3.48,0,0,0,3.21,3.09l4.76,0c1.12,0,1.12-1.15,0-1.22l-4.33,0c-1.54-.08-2.28-.69-2.56-2.4L569.62,136C569.46,135.36,568.37,135.4,568.55,136.25Z"/><path class="cls-45" d="M574.23,135.48c.23-1.16,1-1.8,3.16-1.31l6.88,1.38a1,1,0,0,1-.52,1.93l-5.88-1.2-1.74,5.86h3.49a1.51,1.51,0,0,1,1.75,1.31l1.19,7.76a1.12,1.12,0,0,1-2.23.25l-1-6.55-5.8.07c-1.12,0-1.76-1.41-1.38-2.77Z"/><path class="cls-45" d="M582.85,139.87c-.08.49-.63.42-.6-.09.06-2.32,3.21-2.31,3,.25v11.83a.32.32,0,0,1-.63,0l0-12.3C584.51,138.28,582.77,138.63,582.85,139.87Z"/><rect class="cls-44" x="536.73" y="128.09" width="25.45" height="25.45"/><path class="cls-45" d="M545.54,129.49a1.93,1.93,0,1,1-2,1.93A1.95,1.95,0,0,1,545.54,129.49Z"/><path class="cls-45" d="M542.19,136.19l1.48,7.62a3.47,3.47,0,0,0,3.21,3.08l4.76,0c1.12,0,1.12-1.15,0-1.22l-4.33,0c-1.54-.08-2.28-.68-2.56-2.4L543.26,136C543.1,135.3,542,135.34,542.19,136.19Z"/><path class="cls-45" d="M544.06,135.92l1.41,7.24A2.07,2.07,0,0,0,548,145h5.24l1.12,6.59c.17,1.23,2.44.94,2.23-.33l-1.19-7.68c-.17-.9-.84-1.35-2-1.38l-1.08.07c.83-2.82-.88-5.13-4.24-4.84l-.4-2.25C547.17,133.46,543.71,133.75,544.06,135.92Z"/><polyline class="cls-40" points="190.99 135.45 190.99 139.45 186.99 139.45"/><line class="cls-46" x1="181.86" y1="139.45" x2="174.16" y2="139.45"/><polyline class="cls-40" points="171.59 139.45 167.59 139.45 167.59 135.45"/><line class="cls-47" x1="167.59" y1="126.56" x2="167.59" y2="113.23"/><line class="cls-48" x1="167.59" y1="108.79" x2="167.59" y2="42.13"/><polyline class="cls-40" points="167.59 37.68 167.59 33.68 171.59 33.68"/><line class="cls-46" x1="176.73" y1="33.68" x2="184.43" y2="33.68"/><polyline class="cls-40" points="186.99 33.68 190.99 33.68 190.99 37.68"/><line class="cls-47" x1="190.99" y1="46.57" x2="190.99" y2="59.9"/><line class="cls-48" x1="190.99" y1="64.35" x2="190.99" y2="131.01"/><rect class="cls-44" x="178.27" y="128.34" width="25.45" height="25.45"/><path class="cls-45" d="M192.49,129.69a1.93,1.93,0,1,1-2,1.92A1.94,1.94,0,0,1,192.49,129.69Z"/><path class="cls-45" d="M183.15,136.43l1.47,7.62a3.49,3.49,0,0,0,3.21,3.08l4.77,0c1.11,0,1.11-1.16,0-1.22l-4.33,0c-1.54-.08-2.28-.69-2.56-2.39l-1.49-7.38C184.06,135.54,183,135.59,183.15,136.43Z"/><path class="cls-45" d="M188.83,135.67c.23-1.16,1-1.81,3.16-1.32l6.87,1.39a1,1,0,0,1-.52,1.93l-5.87-1.2-1.75,5.86h3.5a1.49,1.49,0,0,1,1.74,1.31l1.2,7.75a1.13,1.13,0,0,1-2.24.25l-1-6.55-5.8.08c-1.11,0-1.76-1.41-1.37-2.77Z"/><path class="cls-45" d="M197.45,140.05c-.09.5-.64.42-.6-.09.06-2.32,3.21-2.31,3,.25v11.84a.33.33,0,0,1-.64,0l0-12.3C199.11,138.46,197.37,138.82,197.45,140.05Z"/><rect class="cls-44" x="151.32" y="128.28" width="25.45" height="25.45"/><path class="cls-45" d="M160.14,129.67a1.93,1.93,0,1,1-2,1.93A1.94,1.94,0,0,1,160.14,129.67Z"/><path class="cls-45" d="M156.79,136.37l1.47,7.62a3.5,3.5,0,0,0,3.22,3.09l4.76,0c1.12,0,1.12-1.15,0-1.22l-4.33,0c-1.54-.09-2.28-.69-2.56-2.4l-1.49-7.38C157.7,135.49,156.61,135.53,156.79,136.37Z"/><path class="cls-45" d="M158.66,136.11l1.41,7.24a2.07,2.07,0,0,0,2.49,1.82h5.24l1.12,6.59c.17,1.22,2.44.93,2.23-.33L170,143.75c-.18-.9-.85-1.36-2-1.39l-1.08.08c.83-2.83-.88-5.14-4.24-4.84l-.4-2.26C161.77,133.64,158.31,133.93,158.66,136.11Z"/><rect class="cls-44" x="50.03" y="128.24" width="25.51" height="25.51"/><path class="cls-17" d="M63.19,134.83a1.54,1.54,0,0,0,1.53-1.6l.77.05-.72-.77h-3a1.73,1.73,0,0,0-.16.72A1.6,1.6,0,0,0,63.19,134.83Z"/><path class="cls-17" d="M65.14,149.37a.87.87,0,0,1-1.74,0v-7H63v7a.87.87,0,0,1-1.74,0V137.45h-.43v4.35a.58.58,0,0,1-.59.58.57.57,0,0,1-.58-.58v-4.94a1.88,1.88,0,0,1,1.89-1.74h3.34a1.88,1.88,0,0,1,1.89,1.74v4.94a.58.58,0,0,1-1.16,0v-4.35h-.44Z"/><polygon class="cls-45" points="61.69 132.16 64.91 132.15 65.54 131.12 61.59 131.11 61.69 132.16"/><path class="cls-49" d="M63.26,137.37a.37.37,0,0,1,0,.73.37.37,0,1,1,0-.73Z"/><path class="cls-49" d="M63.26,138.66a.37.37,0,1,1-.37.37A.37.37,0,0,1,63.26,138.66Z"/><path class="cls-49" d="M63.17,136a.41.41,0,0,1,0,.81.41.41,0,1,1,0-.81Z"/></g></g></svg>