<svg xmlns="http://www.w3.org/2000/svg" xmlns:xlink="http://www.w3.org/1999/xlink" viewBox="0 0 740 160"><defs><style>.cls-1,.cls-18,.cls-44,.cls-45,.cls-52,.cls-53,.cls-58,.cls-62,.cls-72,.cls-73{fill:none;}.cls-2{fill:#c6c6c5;}.cls-10,.cls-11,.cls-12,.cls-13,.cls-14,.cls-15,.cls-16,.cls-17,.cls-2,.cls-3,.cls-31,.cls-32,.cls-36,.cls-37,.cls-38,.cls-39,.cls-40,.cls-41,.cls-42,.cls-44,.cls-45,.cls-5,.cls-50,.cls-52,.cls-53,.cls-54,.cls-56,.cls-58,.cls-59,.cls-6,.cls-62,.cls-7,.cls-8,.cls-9{stroke:#000;}.cls-10,.cls-11,.cls-12,.cls-13,.cls-14,.cls-15,.cls-16,.cls-17,.cls-2,.cls-21,.cls-22,.cls-3,.cls-31,.cls-32,.cls-36,.cls-39,.cls-40,.cls-41,.cls-42,.cls-44,.cls-45,.cls-5,.cls-50,.cls-52,.cls-53,.cls-54,.cls-56,.cls-58,.cls-59,.cls-6,.cls-61,.cls-62,.cls-7,.cls-72,.cls-73,.cls-8,.cls-9{stroke-miterlimit:10;}.cls-10,.cls-11,.cls-12,.cls-13,.cls-14,.cls-15,.cls-2,.cls-21,.cls-22,.cls-3,.cls-31,.cls-32,.cls-36,.cls-37,.cls-38,.cls-39,.cls-40,.cls-41,.cls-42,.cls-44,.cls-45,.cls-5,.cls-50,.cls-52,.cls-53,.cls-54,.cls-56,.cls-58,.cls-59,.cls-6,.cls-62,.cls-7,.cls-8,.cls-9{stroke-width:0.25px;}.cls-3,.cls-61{fill:#79c8d4;}.cls-17,.cls-19,.cls-4,.cls-40,.cls-5{fill:#3c3c3b;}.cls-16,.cls-18,.cls-19,.cls-20,.cls-5,.cls-50,.cls-51,.cls-59,.cls-60,.cls-61,.cls-62,.cls-66,.cls-68,.cls-69{fill-rule:evenodd;}.cls-49,.cls-50,.cls-6{fill:#6f6f6e;}.cls-7{fill:url(#Cast_Iron);}.cls-8{fill:url(#Cast_Iron-2);}.cls-9{fill:#60615f;}.cls-10{fill:url(#Cast_Iron-3);}.cls-11{fill:url(#Cast_Iron-4);}.cls-12{fill:url(#Cast_Iron-5);}.cls-13{fill:url(#Cast_Iron-6);}.cls-14{fill:url(#Cast_Iron-7);}.cls-15{fill:url(#Cast_Iron-8);}.cls-16{fill:#f3e20a;}.cls-16,.cls-17{stroke-width:0.15px;}.cls-20{fill:#ececec;}.cls-21{fill:#e84e1b;}.cls-21,.cls-22{stroke:#1d1d1b;}.cls-22{fill:#b1b1b1;}.cls-23{fill:url(#linear-gradient);}.cls-24{fill:url(#linear-gradient-2);}.cls-25{fill:url(#linear-gradient-3);}.cls-26{fill:url(#linear-gradient-4);}.cls-27{fill:url(#linear-gradient-5);}.cls-28{fill:url(#linear-gradient-6);}.cls-29{fill:url(#linear-gradient-7);}.cls-30{fill:url(#linear-gradient-8);}.cls-31,.cls-37,.cls-38,.cls-60{fill:#9c9b9b;}.cls-32,.cls-68{fill:#cd1625;}.cls-33{fill:url(#linear-gradient-9);}.cls-34{fill:url(#linear-gradient-10);}.cls-35{fill:url(#linear-gradient-11);}.cls-36,.cls-51,.cls-59{fill:#faca9e;}.cls-37,.cls-72,.cls-73{stroke-linecap:round;}.cls-37,.cls-38{stroke-linejoin:round;}.cls-39{fill:url(#linear-gradient-12);}.cls-41{fill:url(#linear-gradient-13);}.cls-42{fill:#85ccdb;}.cls-43{fill:url(#New_Gradient_Swatch_1);}.cls-45{stroke-dasharray:2.83 2.83;}.cls-46{fill:url(#linear-gradient-14);}.cls-47{fill:url(#linear-gradient-15);}.cls-48{fill:url(#linear-gradient-16);}.cls-52{stroke-dasharray:2.02 2.02;}.cls-53{stroke-dasharray:2.17 2.17;}.cls-54,.cls-57{fill:#9d9b9b;}.cls-55,.cls-56{fill:#7b7b7a;}.cls-58{stroke-dasharray:1.95 0.97;}.cls-61{stroke:#3c3c3b;stroke-width:0.1px;}.cls-62{stroke-dasharray:2 2;}.cls-63{fill:#29295d;}.cls-64,.cls-66{fill:#fff;}.cls-65{fill:#251a5f;}.cls-67{fill:#1d1d1b;}.cls-69{fill:#312782;}.cls-70{clip-path:url(#clip-path);}.cls-71{fill:#575756;}.cls-72,.cls-73{stroke:#575756;}.cls-73{stroke-width:0.75px;}</style><linearGradient id="Cast_Iron" x1="-3991.61" y1="2050.18" x2="-3987.93" y2="2050.18" gradientTransform="translate(-2038.33 -3934.48) rotate(-90)" gradientUnits="userSpaceOnUse"><stop offset="0.01" stop-color="#909094"/><stop offset="0.53" stop-color="#a3a2a2"/><stop offset="1" stop-color="#5f5e60"/></linearGradient><linearGradient id="Cast_Iron-2" x1="-3992.4" y1="2053.81" x2="-3987.2" y2="2053.81" xlink:href="#Cast_Iron"/><linearGradient id="Cast_Iron-3" x1="-4041.26" y1="2050.15" x2="-4037.58" y2="2050.15" xlink:href="#Cast_Iron"/><linearGradient id="Cast_Iron-4" x1="-4042.05" y1="2053.78" x2="-4036.85" y2="2053.78" xlink:href="#Cast_Iron"/><linearGradient id="Cast_Iron-5" x1="-3991.36" y1="-3184.62" x2="-3987.68" y2="-3184.62" gradientTransform="matrix(0, -1, -1, 0, -2461.08, -3934.48)" xlink:href="#Cast_Iron"/><linearGradient id="Cast_Iron-6" x1="-3992.15" y1="-3180.99" x2="-3986.95" y2="-3180.99" gradientTransform="matrix(0, -1, -1, 0, -2461.08, -3934.48)" xlink:href="#Cast_Iron"/><linearGradient id="Cast_Iron-7" x1="-4041.02" y1="-3184.65" x2="-4037.34" y2="-3184.65" gradientTransform="matrix(0, -1, -1, 0, -2461.08, -3934.48)" xlink:href="#Cast_Iron"/><linearGradient id="Cast_Iron-8" x1="-4041.81" y1="-3181.02" x2="-4036.61" y2="-3181.02" gradientTransform="matrix(0, -1, -1, 0, -2461.08, -3934.48)" xlink:href="#Cast_Iron"/><linearGradient id="linear-gradient" x1="675.87" y1="44.48" x2="678.96" y2="44.48" gradientUnits="userSpaceOnUse"><stop offset="0" stop-color="#e84e1b"/><stop offset="1" stop-color="#9f390d"/></linearGradient><linearGradient id="linear-gradient-2" x1="-5406.33" y1="44.48" x2="-5403.24" y2="44.48" gradientTransform="matrix(-1, 0, 0, 1, -4803.49, 0)" xlink:href="#linear-gradient"/><linearGradient id="linear-gradient-3" x1="618.81" y1="49.09" x2="618.81" y2="52.21" gradientUnits="userSpaceOnUse"><stop offset="0" stop-color="#b1b1b1"/><stop offset="1" stop-color="#575756"/></linearGradient><linearGradient id="linear-gradient-4" x1="659.98" y1="49.09" x2="659.98" y2="52.21" xlink:href="#linear-gradient-3"/><linearGradient id="linear-gradient-5" x1="560.99" y1="44.51" x2="564.08" y2="44.51" xlink:href="#linear-gradient"/><linearGradient id="linear-gradient-6" x1="-5291.45" y1="44.51" x2="-5288.36" y2="44.51" gradientTransform="matrix(-1, 0, 0, 1, -4803.49, 0)" xlink:href="#linear-gradient"/><linearGradient id="linear-gradient-7" x1="503.93" y1="49.12" x2="503.93" y2="52.24" xlink:href="#linear-gradient-3"/><linearGradient id="linear-gradient-8" x1="545.09" y1="49.12" x2="545.09" y2="52.24" xlink:href="#linear-gradient-3"/><linearGradient id="linear-gradient-9" x1="427.28" y1="116.72" x2="424.25" y2="116.72" gradientUnits="userSpaceOnUse"><stop offset="0" stop-color="#cd1625"/><stop offset="0.38" stop-color="#cd1625"/><stop offset="0.44" stop-color="#cd1625"/><stop offset="0.59" stop-color="#c21522"/><stop offset="0.84" stop-color="#a5141b"/><stop offset="1" stop-color="#8e1315"/></linearGradient><linearGradient id="linear-gradient-10" x1="-5840.59" y1="116.71" x2="-5843.44" y2="116.71" gradientTransform="matrix(-1, 0, 0, 1, -5378.48, 0)" xlink:href="#linear-gradient-9"/><linearGradient id="linear-gradient-11" x1="164.63" y1="116.72" x2="161.78" y2="116.72" gradientTransform="translate(303.13)" xlink:href="#linear-gradient-9"/><linearGradient id="linear-gradient-12" x1="407.11" y1="95.09" x2="407.11" y2="39.28" gradientUnits="userSpaceOnUse"><stop offset="0.03" stop-color="#a7a6a2"/><stop offset="0.16" stop-color="#b0b0b1"/><stop offset="0.28" stop-color="#babcc2"/><stop offset="0.47" stop-color="#abaeb4"/><stop offset="0.84" stop-color="#848b8f"/><stop offset="1" stop-color="#71797d"/><stop offset="1" stop-color="#858b8f"/></linearGradient><linearGradient id="linear-gradient-13" x1="348.2" y1="90.53" x2="348.2" y2="75.61" xlink:href="#linear-gradient-12"/><linearGradient id="New_Gradient_Swatch_1" x1="-2797.9" y1="2906.59" x2="-2788.94" y2="2906.59" gradientTransform="translate(-2546.85 -2745.07) rotate(-90)" gradientUnits="userSpaceOnUse"><stop offset="0" stop-color="#fff"/><stop offset="0.69" stop-color="#727271"/><stop offset="1"/></linearGradient><linearGradient id="linear-gradient-14" x1="-5854.69" y1="60.9" x2="-5856.63" y2="60.9" gradientTransform="matrix(-1, 0, 0, 1, -5378.48, 0)" xlink:href="#linear-gradient-9"/><linearGradient id="linear-gradient-15" x1="-2551.88" y1="2930.44" x2="-2553.41" y2="2930.44" gradientTransform="matrix(0, 1, 1, 0, -2591.45, 2634.9)" xlink:href="#linear-gradient-9"/><linearGradient id="linear-gradient-16" x1="-5701.83" y1="116.66" x2="-5704.86" y2="116.66" gradientTransform="matrix(-1, 0, 0, 1, -5395.29, 0)" xlink:href="#linear-gradient-9"/><clipPath id="clip-path"><rect class="cls-1" x="361.75" y="130.93" width="25.51" height="25.51"/></clipPath></defs><title>Type5_FR5-1</title><g id="Type_5_FR5-1_vogn5"><g id="VOGNKASSE"><rect id="GULVFARGE" class="cls-2" x="27.28" y="36.15" width="680.6" height="87.92"/><rect class="cls-3" x="27.32" y="120.99" width="287.14" height="3.12"/><rect class="cls-3" x="341.1" y="120.99" width="227.52" height="3.12"/><rect class="cls-3" x="594.8" y="121.01" width="113.35" height="3.12"/><rect class="cls-3" x="594.75" y="36.04" width="113.35" height="3.12"/><rect class="cls-3" x="27.26" y="36.14" width="287.14" height="3.12"/><rect class="cls-3" x="341.72" y="36.14" width="226.83" height="3.12"/><rect class="cls-4" x="91.19" y="36.12" width="13.8" height="3.12"/><rect class="cls-4" x="140.56" y="36.14" width="24.79" height="3.12"/><rect class="cls-4" x="200.73" y="36.11" width="42.07" height="3.12"/><rect class="cls-4" x="266.9" y="36.13" width="49.84" height="3.12"/><rect class="cls-4" x="341.53" y="36.06" width="162.21" height="3.12"/><rect class="cls-4" x="539.05" y="36.06" width="29.44" height="3.12"/><rect class="cls-4" x="657.36" y="36.06" width="50.56" height="3.12"/><rect class="cls-4" x="91.5" y="120.96" width="13.98" height="3.12"/><rect class="cls-4" x="141.11" y="120.98" width="24.77" height="3.12"/><rect class="cls-4" x="201.42" y="120.95" width="30.39" height="3.12"/><rect class="cls-4" x="267.77" y="120.96" width="46.64" height="3.12"/><rect class="cls-4" x="340.82" y="120.9" width="88.34" height="3.12"/><rect class="cls-4" x="454.02" y="120.96" width="4.14" height="3.12"/><rect class="cls-4" x="482.08" y="120.9" width="4.52" height="3.12"/><rect class="cls-4" x="510.7" y="120.96" width="57.89" height="3.12"/><rect class="cls-4" x="592.59" y="36.07" width="41.02" height="3.12"/><rect class="cls-4" x="594.2" y="120.9" width="113.89" height="3.12"/><path class="cls-5" d="M18.6,37.69h0c-1.39.27-2.52.76-2.7,2.79V63.11H27.1v-27Z"/><path class="cls-5" d="M18.66,122.51h0c-1.39-.26-2.51-.75-2.7-2.78V97.09h11.2v27Z"/><path class="cls-5" d="M716.62,37.69h0c1.39.27,2.51.76,2.7,2.79V63.11h-11.2v-27Z"/><path class="cls-5" d="M716.56,122.51h0c1.38-.26,2.51-.75,2.7-2.78V97.09h-11.2v27Z"/><polygon class="cls-6" points="17.36 63.14 17.36 63.16 15.39 65.13 11.94 65.13 8.27 68.79 8.27 80.34 8.27 80.36 8.27 91.9 11.94 95.57 15.39 95.57 17.36 97.53 17.36 97.56 27.08 97.56 27.08 80.36 27.08 80.34 27.08 63.14 17.36 63.14"/><rect class="cls-7" x="8.59" y="53.45" width="6.51" height="3.68"/><rect class="cls-8" x="15" y="52.72" width="0.95" height="5.2"/><path class="cls-9" d="M8.56,58.9V51.56h-1l-.06.14c-.65,1.24-.53,6.07,0,7.18l0,.12h1l0-.1h0"/><rect class="cls-10" x="8.56" y="103.11" width="6.51" height="3.68"/><rect class="cls-11" x="14.97" y="102.38" width="0.95" height="5.2"/><path class="cls-9" d="M8.52,108.55v-7.34h-1l-.06.14c-.65,1.25-.54,6.08,0,7.19l0,.11h1v-.1h0"/><polygon class="cls-6" points="717.76 62.89 717.76 62.92 719.73 64.88 723.18 64.88 726.85 68.55 726.85 80.09 726.85 80.11 726.85 91.66 723.18 95.32 719.73 95.32 717.76 97.29 717.76 97.31 708.04 97.31 708.04 80.11 708.04 80.09 708.04 62.89 717.76 62.89"/><rect class="cls-12" x="720.28" y="53.21" width="6.51" height="3.68"/><rect class="cls-13" x="719.43" y="52.47" width="0.95" height="5.2"/><path class="cls-9" d="M726.83,58.65V51.31h1l0,.14c.65,1.25.54,6.08,0,7.18l0,.12h-1v-.1h0"/><rect class="cls-14" x="720.31" y="102.86" width="6.51" height="3.68"/><rect class="cls-15" x="719.46" y="102.13" width="0.95" height="5.2"/><path class="cls-9" d="M726.86,108.31V101h1l0,.14c.66,1.24.54,6.07,0,7.18l0,.12h-1v-.1h0"/><polygon class="cls-16" points="705.09 100.7 704.43 100.7 704.43 97.97 704.01 97.97 704.01 98.06 702.61 98.06 702.61 98.47 704.01 98.47 704.01 103.79 704.43 103.79 704.43 101.03 705.09 101.03 705.09 100.7"/><rect class="cls-17" x="592.59" y="33.97" width="29.92" height="1.21"/><rect class="cls-17" x="592.67" y="125.05" width="29.91" height="1.21"/><rect class="cls-17" x="339.62" y="34.01" width="29.91" height="1.21"/><rect class="cls-17" x="339.71" y="125.1" width="29.91" height="1.21"/><rect class="cls-4" x="26.98" y="120.98" width="40.52" height="3.12"/><rect class="cls-4" x="27.11" y="36.12" width="39.8" height="3.12"/><path class="cls-6" d="M341.78,39.57v3.69a.58.58,0,0,0,.57.57h6.09a.57.57,0,0,0,.56-.57V39.57Z"/><path class="cls-6" d="M592.73,39.22v3.69a.57.57,0,0,0,.57.57h6.08a.58.58,0,0,0,.57-.57V39.22Z"/><path class="cls-6" d="M596.73,116.22v3.69a.57.57,0,0,0,.57.57h6.08a.58.58,0,0,0,.57-.57v-3.69Z"/></g><g id="INNREDNING"><rect class="cls-4" x="28.41" y="80.14" width="0.91" height="13.48"/><rect class="cls-4" x="28.41" y="66.5" width="0.91" height="13.48"/><rect class="cls-4" x="29.33" y="39.19" width="0.94" height="27.72"/><rect class="cls-4" x="29.34" y="93.48" width="0.91" height="27.38"/><rect class="cls-4" x="27.45" y="39.14" width="0.94" height="27.72"/><rect class="cls-4" x="27.46" y="93.43" width="0.91" height="27.38"/><rect class="cls-4" x="45.41" y="80.08" width="0.91" height="13.48"/><rect class="cls-4" x="45.41" y="66.44" width="0.91" height="13.48"/><rect class="cls-4" x="46.33" y="39.13" width="0.94" height="27.72"/><rect class="cls-4" x="46.34" y="93.41" width="0.91" height="27.38"/><rect class="cls-4" x="44.45" y="39.08" width="0.94" height="27.72"/><rect class="cls-4" x="44.46" y="93.37" width="0.91" height="27.38"/><rect class="cls-4" x="685.11" y="80.25" width="0.91" height="13.48"/><rect class="cls-4" x="685.11" y="66.61" width="0.91" height="13.48"/><rect class="cls-4" x="685.65" y="39.3" width="1.31" height="27.72"/><rect class="cls-4" x="686.04" y="93.58" width="0.91" height="27.38"/><rect class="cls-4" x="684.15" y="39.25" width="0.94" height="27.72"/><rect class="cls-4" x="684.16" y="93.54" width="0.91" height="27.38"/><rect class="cls-4" x="706.3" y="80.3" width="0.91" height="13.48"/><rect class="cls-4" x="706.3" y="66.66" width="0.91" height="13.48"/><rect class="cls-4" x="707.22" y="39.35" width="0.94" height="27.72"/><rect class="cls-4" x="707.23" y="93.64" width="0.91" height="27.38"/><rect class="cls-4" x="705.35" y="39.31" width="0.94" height="27.72"/><rect class="cls-4" x="705.36" y="93.59" width="0.91" height="27.38"/><rect class="cls-6" x="29.83" y="39.38" width="14.72" height="25.61"/><rect class="cls-6" x="30.14" y="97.8" width="14.72" height="22.84"/><rect class="cls-6" x="686.48" y="104.89" width="19.22" height="15.74"/><rect class="cls-6" x="686.51" y="39.3" width="19.22" height="21.11"/><rect class="cls-6" x="655.89" y="97.13" width="28.23" height="23.36"/><path class="cls-18" d="M655.53,120.82V79.51A4.53,4.53,0,0,0,651,75H521.85a4.53,4.53,0,0,0-4.53,4.54v41.31Z"/><path class="cls-19" d="M571.19,74.94h-49a4.53,4.53,0,0,0-4.53,4.54v41.31h1.47V79.54a3.11,3.11,0,0,1,3.11-3.11h48.91Z"/><path class="cls-19" d="M651.38,74.94H595.69v1.49h55.57a3.12,3.12,0,0,1,3.12,3.11v41.25h1.54V79.48A4.54,4.54,0,0,0,651.38,74.94Z"/><path class="cls-20" d="M655.07,120.74v-41a4.23,4.23,0,0,0-4.21-4.25H522.57a4.23,4.23,0,0,0-4.21,4.25v41Z"/><rect class="cls-21" x="599.66" y="39.57" width="79.43" height="9.83"/><rect class="cls-22" x="613.31" y="39.57" width="11.04" height="12.74"/><rect class="cls-22" x="654.44" y="39.6" width="11.04" height="12.74"/><rect class="cls-23" x="675.87" y="39.68" width="3.09" height="9.59"/><rect class="cls-24" x="599.75" y="39.68" width="3.09" height="9.59"/><rect class="cls-25" x="613.42" y="49.09" width="10.79" height="3.13"/><rect class="cls-26" x="654.58" y="49.09" width="10.79" height="3.13"/><rect class="cls-21" x="484.78" y="39.6" width="79.43" height="9.83"/><rect class="cls-22" x="498.43" y="39.6" width="11.04" height="12.74"/><rect class="cls-22" x="539.56" y="39.63" width="11.04" height="12.74"/><rect class="cls-27" x="560.99" y="39.71" width="3.09" height="9.59"/><rect class="cls-28" x="484.87" y="39.71" width="3.09" height="9.59"/><rect class="cls-29" x="498.54" y="49.12" width="10.79" height="3.13"/><rect class="cls-30" x="539.7" y="49.12" width="10.79" height="3.13"/><path class="cls-31" d="M513.41,104.28a1.32,1.32,0,0,0-1.29-1.32v0h-5.69a1.34,1.34,0,0,0-1.34,1.34.14.14,0,0,0,0,.07h0l.8,5.09a1.35,1.35,0,0,0,.39.78,3.74,3.74,0,0,0,3,1.15,3.39,3.39,0,0,0,3.08-1.37,1.54,1.54,0,0,0,.2-.38h0l0-.1a1.85,1.85,0,0,0,0-.23s0,0,0,0l.76-4.74A2.21,2.21,0,0,0,513.41,104.28Z"/><path class="cls-31" d="M499.16,104.28a1.32,1.32,0,0,0-1.29-1.32v0h-5.69a1.34,1.34,0,0,0-1.34,1.34.14.14,0,0,0,0,.07h0l.8,5.09a1.35,1.35,0,0,0,.39.78,3.74,3.74,0,0,0,3,1.15A3.39,3.39,0,0,0,498.1,110a1.54,1.54,0,0,0,.2-.38h0l0-.1a1.85,1.85,0,0,0,0-.23s0,0,0,0l.76-4.74A2.21,2.21,0,0,0,499.16,104.28Z"/><path class="cls-31" d="M485,104.28a1.32,1.32,0,0,0-1.28-1.32H478a1.33,1.33,0,0,0-1.34,1.33s0,0,0,.07h0l.8,5.09a1.28,1.28,0,0,0,.4.78,3.7,3.7,0,0,0,3,1.16,3.42,3.42,0,0,0,3.08-1.37,1.45,1.45,0,0,0,.2-.39h0l0-.1a.93.93,0,0,0,0-.23v0l.75-4.74A1.11,1.11,0,0,0,485,104.28Z"/><path class="cls-31" d="M470.78,104.28A1.32,1.32,0,0,0,469.5,103v0h-5.7a1.34,1.34,0,0,0-1.33,1.34s0,0,0,.07h0l.81,5.09a1.35,1.35,0,0,0,.39.78,3.7,3.7,0,0,0,3,1.15,3.41,3.41,0,0,0,3.09-1.37,1.23,1.23,0,0,0,.19-.38h0v-.1a.93.93,0,0,0,0-.23v0l.75-4.74A1.11,1.11,0,0,0,470.78,104.28Z"/><path class="cls-31" d="M456.61,104.28a1.32,1.32,0,0,0-1.28-1.32v0h-5.69a1.34,1.34,0,0,0-1.34,1.34.14.14,0,0,0,0,.07h0l.8,5.09a1.35,1.35,0,0,0,.39.78,3.72,3.72,0,0,0,3,1.15,3.4,3.4,0,0,0,3.09-1.37,1.54,1.54,0,0,0,.2-.38h0v-.1a1,1,0,0,0,.05-.23s0,0,0,0l.76-4.74A2.17,2.17,0,0,0,456.61,104.28Z"/><path class="cls-31" d="M442.49,104.24a1.33,1.33,0,0,0-1.28-1.33h-5.7a1.33,1.33,0,0,0-1.33,1.34s0,.05,0,.07h0l.81,5.09a1.38,1.38,0,0,0,.39.78,3.7,3.7,0,0,0,3,1.15,3.41,3.41,0,0,0,3.09-1.37,1.5,1.5,0,0,0,.19-.38h0l0-.1a.93.93,0,0,0,0-.23v0l.75-4.75A1,1,0,0,0,442.49,104.24Z"/><path class="cls-31" d="M285,104.26a1.33,1.33,0,0,0-1.28-1.33H278a1.34,1.34,0,0,0-1.34,1.34s0,0,0,.07h0l.81,5.09a1.38,1.38,0,0,0,.39.78,3.7,3.7,0,0,0,3,1.15A3.41,3.41,0,0,0,283.9,110a1.54,1.54,0,0,0,.2-.38h0v-.1a1,1,0,0,0,.05-.23v0l.75-4.75A1,1,0,0,0,285,104.26Z"/><path class="cls-31" d="M270.7,104.26a1.33,1.33,0,0,0-1.28-1.33h-5.69a1.34,1.34,0,0,0-1.34,1.34s0,0,0,.07h0l.81,5.09a1.38,1.38,0,0,0,.39.78,3.7,3.7,0,0,0,3,1.15,3.41,3.41,0,0,0,3.09-1.37,1.23,1.23,0,0,0,.19-.38h0v-.1a1,1,0,0,0,.05-.23v0l.75-4.75A1,1,0,0,0,270.7,104.26Z"/><path class="cls-31" d="M256.49,104.26a1.33,1.33,0,0,0-1.28-1.33h-5.69a1.34,1.34,0,0,0-1.34,1.34.19.19,0,0,0,0,.07h0l.8,5.09a1.35,1.35,0,0,0,.39.78,3.72,3.72,0,0,0,3,1.15,3.41,3.41,0,0,0,3.09-1.37,1.54,1.54,0,0,0,.2-.38h0l0-.1a1.85,1.85,0,0,0,0-.23v0l.76-4.75A1.72,1.72,0,0,0,256.49,104.26Z"/><path class="cls-31" d="M242.33,104.26a1.33,1.33,0,0,0-1.28-1.33h-5.7a1.34,1.34,0,0,0-1.34,1.34s0,0,0,.07h0l.8,5.09a1.38,1.38,0,0,0,.39.78,3.74,3.74,0,0,0,3,1.15,3.38,3.38,0,0,0,3.08-1.37,1.27,1.27,0,0,0,.2-.38h0l0-.1a.93.93,0,0,0,0-.23v0l.75-4.75A2,2,0,0,0,242.33,104.26Z"/><path class="cls-31" d="M228.16,104.26a1.33,1.33,0,0,0-1.28-1.33h-5.7a1.34,1.34,0,0,0-1.33,1.34s0,0,0,.07h0l.81,5.09a1.38,1.38,0,0,0,.39.78,3.7,3.7,0,0,0,3,1.15,3.41,3.41,0,0,0,3.09-1.37,1.23,1.23,0,0,0,.19-.38h0v-.1a.93.93,0,0,0,0-.23v0l.75-4.75A1,1,0,0,0,228.16,104.26Z"/><path class="cls-31" d="M214,104.22a1.33,1.33,0,0,0-1.29-1.33h-5.69a1.34,1.34,0,0,0-1.34,1.34s0,0,0,.07h0l.8,5.09a1.38,1.38,0,0,0,.39.78,3.77,3.77,0,0,0,3,1.15,3.39,3.39,0,0,0,3.08-1.37,1.54,1.54,0,0,0,.2-.38h0l0-.1a2,2,0,0,0,0-.24h0l.75-4.75A2,2,0,0,0,214,104.22Z"/><path class="cls-31" d="M299.15,104.38a1.33,1.33,0,0,0-1.29-1.32h-5.69a1.34,1.34,0,0,0-1.34,1.33s0,.05,0,.07h0l.8,5.08a1.32,1.32,0,0,0,.39.78,3.74,3.74,0,0,0,3,1.16,3.39,3.39,0,0,0,3.08-1.37,1.4,1.4,0,0,0,.2-.38h0l0-.11a.85.85,0,0,0,0-.23v0l.75-4.74A1.84,1.84,0,0,0,299.15,104.38Z"/><path class="cls-32" d="M201.12,112.7V97.36h-9.67v20.5h0v2.78H309.67V112.7ZM219,114.81h-3.69a.51.51,0,0,1,0-1H219a.51.51,0,1,1,0,1Zm14.34,0h-3.69a.51.51,0,1,1,0-1h3.69a.51.51,0,0,1,0,1Zm14.16,0h-3.69a.51.51,0,0,1,0-1h3.69a.51.51,0,1,1,0,1Zm14.17,0H258a.51.51,0,0,1,0-1h3.69a.51.51,0,0,1,0,1Zm14.5,0h-3.69a.51.51,0,0,1,0-1h3.69a.51.51,0,0,1,0,1Zm13.83-.24h-3.69a.51.51,0,0,1,0-1H290a.51.51,0,1,1,0,1Z"/><path class="cls-32" d="M424.13,112.74v7.94h93.5v-7.94Zm14,2H434.4a.51.51,0,1,1,0-1h3.69a.51.51,0,0,1,0,1Zm13.08,0h-3.69a.51.51,0,0,1,0-1h3.69a.51.51,0,1,1,0,1Zm39.79,0h-3.69a.51.51,0,0,1,0-1H491a.51.51,0,0,1,0,1Zm14.08,0h-3.69a.51.51,0,0,1,0-1H505a.51.51,0,0,1,0,1Z"/><rect class="cls-33" x="424.25" y="112.89" width="3.03" height="7.66"/><rect class="cls-34" x="462.11" y="112.88" width="2.85" height="7.66"/><rect class="cls-35" x="464.91" y="112.89" width="2.85" height="7.66"/><path class="cls-36" d="M111.15,39.42v27a1.78,1.78,0,0,0,1.78,1.78h12.48a1.78,1.78,0,0,0,1.78-1.78v-27Z"/><path class="cls-36" d="M159.31,39.42v27a1.78,1.78,0,0,0,1.78,1.78h12.48a1.78,1.78,0,0,0,1.78-1.78v-27Z"/><path class="cls-36" d="M63.58,39.42v27a1.78,1.78,0,0,0,1.78,1.78H77.84a1.79,1.79,0,0,0,1.79-1.78v-27Z"/><path class="cls-36" d="M111,120.49V93.54a1.79,1.79,0,0,1,1.78-1.79h12.48a1.79,1.79,0,0,1,1.78,1.79v26.95Z"/><path class="cls-36" d="M63.47,120.49v-27a1.78,1.78,0,0,1,1.78-1.78H77.73a1.78,1.78,0,0,1,1.78,1.78v27Z"/><path class="cls-36" d="M159.19,120.49V93.54A1.79,1.79,0,0,1,161,91.75h12.48a1.79,1.79,0,0,1,1.79,1.79v26.95Z"/><path class="cls-31" d="M95.2,39.39H82.64a.57.57,0,0,0-.57.56V67.43a.57.57,0,0,0,.57.57H95.2Z"/><path class="cls-31" d="M95.27,39.39h12.56a.56.56,0,0,1,.57.56V67.43a.56.56,0,0,1-.57.57H95.27Z"/><path class="cls-6" d="M93.08,39.4V64.71a.56.56,0,0,0,.57.57h3a.56.56,0,0,0,.57-.57V39.4Z"/><polygon class="cls-37" points="96.29 63.82 96.29 39.44 94.08 39.44 94.08 63.82 94.09 63.82 93.36 65.09 97.02 65.09 96.29 63.82 96.29 63.82"/><path class="cls-31" d="M47.52,39.39H60.08a.56.56,0,0,1,.57.56V67.43a.56.56,0,0,1-.57.57H47.52Z"/><path class="cls-6" d="M47.5,39.47V65.34H49a.56.56,0,0,0,.56-.56V39.47Z"/><polygon class="cls-38" points="48.7 39.5 47.54 39.5 47.54 65.15 49.43 65.15 48.7 63.88 48.7 63.88 48.7 39.5"/><path class="cls-31" d="M47.52,120.56H60.08a.56.56,0,0,0,.57-.57V92.52a.56.56,0,0,0-.57-.57H47.52Z"/><path class="cls-6" d="M47.5,120.48V94.61H49a.56.56,0,0,1,.56.56v25.31Z"/><polygon class="cls-38" points="48.7 120.45 47.54 120.45 47.54 94.8 49.43 94.8 48.7 96.07 48.7 96.07 48.7 120.45"/><path class="cls-31" d="M200.23,39.37v0h-9.08V68h12.56a.57.57,0,0,0,.57-.56V52.6h24.48V39.37Z"/><path class="cls-31" d="M191.18,39.39H178.61a.56.56,0,0,0-.56.56V67.43a.56.56,0,0,0,.56.57h12.57Z"/><path class="cls-6" d="M188.94,39.42v25.3a.56.56,0,0,0,.57.57h3.05a.56.56,0,0,0,.57-.57V39.42Z"/><polygon class="cls-37" points="192.15 63.83 192.15 39.45 189.95 39.45 189.95 63.83 189.95 63.83 189.22 65.1 192.88 65.1 192.15 63.83 192.15 63.83"/><polygon class="cls-6" points="191.15 39.56 193.28 41.64 228.78 41.64 228.78 39.56 191.15 39.56"/><polygon class="cls-31" points="191.08 39.52 192.27 40.68 228.75 40.68 228.75 39.52 191.08 39.52"/><path class="cls-31" d="M143.2,39.39H130.64a.57.57,0,0,0-.57.56V67.43a.57.57,0,0,0,.57.57H143.2Z"/><path class="cls-31" d="M143.27,39.39h12.56a.56.56,0,0,1,.57.56V67.43a.56.56,0,0,1-.57.57H143.27Z"/><path class="cls-6" d="M141.08,39.4V64.71a.56.56,0,0,0,.57.57h3a.56.56,0,0,0,.57-.57V39.4Z"/><polygon class="cls-37" points="144.29 63.82 144.29 39.44 142.08 39.44 142.08 63.82 142.09 63.82 141.36 65.09 145.02 65.09 144.29 63.82 144.29 63.82"/><path class="cls-31" d="M95.2,120.56H82.64a.57.57,0,0,1-.57-.56V92.52a.57.57,0,0,1,.57-.57H95.2Z"/><path class="cls-31" d="M95.27,120.56h12.56a.56.56,0,0,0,.57-.56V92.52a.56.56,0,0,0-.57-.57H95.27Z"/><path class="cls-6" d="M93.08,120.55V95.24a.56.56,0,0,1,.56-.57H96.7a.56.56,0,0,1,.57.57v25.31Z"/><polygon class="cls-37" points="96.29 96.13 96.29 120.51 94.08 120.51 94.08 96.13 94.09 96.13 93.36 94.86 97.02 94.86 96.29 96.13 96.29 96.13"/><path class="cls-31" d="M143.2,120.56H130.64a.57.57,0,0,1-.57-.56V92.52a.57.57,0,0,1,.57-.57H143.2Z"/><path class="cls-31" d="M143.27,120.56h12.56a.56.56,0,0,0,.57-.56V92.52a.56.56,0,0,0-.57-.57H143.27Z"/><path class="cls-6" d="M141.08,120.55V95.24a.56.56,0,0,1,.56-.57h3.06a.56.56,0,0,1,.57.57v25.31Z"/><polygon class="cls-37" points="144.29 96.13 144.29 120.51 142.08 120.51 142.08 96.13 142.09 96.13 141.36 94.86 145.02 94.86 144.29 96.13 144.29 96.13"/><path class="cls-31" d="M191.14,120.56H178.57A.57.57,0,0,1,178,120V92.52a.57.57,0,0,1,.57-.57h12.57Z"/><path class="cls-6" d="M191.15,120.48V94.61h-1.51a.57.57,0,0,0-.57.56v25.31Z"/><polygon class="cls-38" points="189.95 120.45 191.12 120.45 191.12 94.8 189.22 94.8 189.96 96.07 189.95 96.07 189.95 120.45"/><path class="cls-39" d="M476.66,42.37V39.28H350v3.09h0V57.12h48V76.59H342.41v0h-.08a4.75,4.75,0,0,0-4.75,4.76h0v9.56h0a4.27,4.27,0,0,0,4.26,4.14h64A10.88,10.88,0,0,0,416.32,84.3h0V66.65h0a2.8,2.8,0,0,1,2.75-2.74h57.56V58h-.08V42.37Z"/><rect class="cls-40" x="350.02" y="39.28" width="2.47" height="17.75"/><rect class="cls-6" x="392.24" y="39.45" width="17.25" height="17.5"/><rect class="cls-6" x="424.99" y="39.53" width="48.83" height="17.33"/><rect class="cls-40" x="474.11" y="39.45" width="2.47" height="18.08"/><rect class="cls-41" x="342.58" y="75.61" width="11.25" height="14.92"/><path class="cls-32" d="M419.05,58h0a8.66,8.66,0,0,0-8.55,8.58h0V84.29h0s0,.06,0,.1a5,5,0,0,1-4.95,5h0v0H340.42V81.38h-2.86v9.56h0a4.27,4.27,0,0,0,4.26,4.14h64A10.88,10.88,0,0,0,416.32,84.3h0V66.65h0a2.8,2.8,0,0,1,2.75-2.74h59.16V58ZM362.92,93.67a.59.59,0,0,1-.57.61H347.71a.59.59,0,0,1-.57-.61v0a.59.59,0,0,1,.57-.61h14.64a.59.59,0,0,1,.57.61Zm18.35,0a.59.59,0,0,1-.57.61H366.06a.59.59,0,0,1-.57-.61v0a.59.59,0,0,1,.57-.61H380.7a.59.59,0,0,1,.57.61Zm18.52,0a.59.59,0,0,1-.57.61H384.58a.59.59,0,0,1-.57-.61v0a.59.59,0,0,1,.57-.61h14.64a.59.59,0,0,1,.57.61Zm15.6-15.57a.57.57,0,0,1-.61.48h0a.57.57,0,0,1-.61-.48V66a.56.56,0,0,1,.61-.47h0a.56.56,0,0,1,.61.47Zm22.42-15.89a.56.56,0,0,1-.47.61H425.23a.56.56,0,0,1-.47-.61v0a.55.55,0,0,1,.47-.61h12.11a.55.55,0,0,1,.47.61Zm18.39,0a.56.56,0,0,1-.47.61H443.62a.56.56,0,0,1-.47-.61v0a.55.55,0,0,1,.47-.61h12.11a.55.55,0,0,1,.47.61Zm18.5,0a.55.55,0,0,1-.47.6H462.12a.55.55,0,0,1-.47-.6v0a.55.55,0,0,1,.47-.61h12.11a.55.55,0,0,1,.47.61Z"/><path class="cls-42" d="M400,79.36v9.77h5.52a4.74,4.74,0,0,0,4.74-4.74v-5Z"/><rect class="cls-43" x="355.48" y="43.87" width="8.5" height="8.96" rx="0.67" ry="0.67"/><line class="cls-44" x1="352.49" y1="51.61" x2="353.99" y2="51.61"/><line class="cls-45" x1="356.82" y1="51.61" x2="389.33" y2="51.61"/><line class="cls-44" x1="390.74" y1="51.61" x2="392.24" y2="51.61"/><rect class="cls-6" x="409.74" y="39.45" width="11.75" height="17.5"/><rect class="cls-42" x="425.18" y="45.06" width="48.83" height="11.94"/><rect class="cls-6" x="421.51" y="39.47" width="3.71" height="17.5"/><rect class="cls-46" x="476.21" y="58.03" width="1.94" height="5.75"/><rect class="cls-47" x="337.7" y="81.49" width="2.58" height="1.52"/><rect class="cls-48" x="306.53" y="112.83" width="3.03" height="7.66"/><path class="cls-6" d="M594.45,120.84v-3.69a.57.57,0,0,1,.57-.57h6.09a.56.56,0,0,1,.56.57v3.69Z"/><path class="cls-6" d="M341.2,120.71V117a.58.58,0,0,1,.57-.57h6.09a.57.57,0,0,1,.56.57v3.69Z"/><rect class="cls-6" x="348.57" y="118.32" width="64.75" height="2.25"/><rect class="cls-6" x="606.32" y="115.82" width="48.75" height="4.92"/><path class="cls-49" d="M563.84,74.94v-.35a.56.56,0,0,0-.56-.56H547.64a.56.56,0,0,0-.56.56v.35h-2.19v-.35a.56.56,0,0,0-.56-.56H528.69a.56.56,0,0,0-.56.56v.35h-2.47v-.59a1.14,1.14,0,0,1,1.13-1.13h38.39a1.14,1.14,0,0,1,1.13,1.13v.59Z"/><path class="cls-49" d="M648.09,74.93H647v-.34a.57.57,0,0,0-.56-.57H630.79a.58.58,0,0,0-.57.57v.34h-2.47v-.58a1.13,1.13,0,0,1,1.14-1.13H648.3a1.13,1.13,0,0,1,1.13,1.13v.58Z"/><rect class="cls-17" x="595.18" y="74.25" width="25.94" height="0.5"/><path class="cls-31" d="M315.88,78.42V75.06h0a.36.36,0,0,0-.36-.34H300.63v8h-1.26V83a.55.55,0,0,1-.53.57H284.2a.55.55,0,0,1-.53-.57v-.34h-2.24V83a.54.54,0,0,1-.52.57H266.44a.54.54,0,0,1-.52-.57v-.34h-2.24V83a.56.56,0,0,1-.56.57H247.48a.56.56,0,0,1-.56-.57v-.34h-2.47v.58a1.14,1.14,0,0,0,1.13,1.14h64.59a5.89,5.89,0,0,0,5.72-5.89S315.88,78.46,315.88,78.42Z"/><path class="cls-50" d="M289.76,39.12V58.2a.58.58,0,0,0,.57.57h25.12a.57.57,0,0,0,.56-.57V39.12Z"/><path class="cls-51" d="M265.52,39.48v13a1.7,1.7,0,0,0,1.7,1.7h5.1a1.7,1.7,0,0,0,1.7-1.7v-13Z"/><polyline class="cls-44" points="266.52 39.48 265.52 39.48 265.52 40.48"/><path class="cls-52" d="M265.52,42.5v10a1.7,1.7,0,0,0,1.7,1.7h5.1a1.7,1.7,0,0,0,1.7-1.7v-11"/><polyline class="cls-44" points="274.02 40.48 274.02 39.48 273.02 39.48"/><line class="cls-53" x1="270.85" y1="39.48" x2="267.6" y2="39.48"/><polygon class="cls-54" points="253.89 46.85 243.03 46.85 243.03 60.17 253.88 60.17 256.34 57.71 256.34 49.3 253.89 46.85"/><polygon class="cls-55" points="254.96 49.58 254.96 49.58 252.68 47.25 251 47.25 253.27 49.58 253.28 49.58 253.28 57.39 253.27 57.39 251 59.72 252.68 59.72 254.94 57.42 254.96 57.42 254.96 49.58"/><rect class="cls-56" x="244.32" y="44.54" width="6.76" height="1.44" rx="0.57" ry="0.57"/><rect class="cls-56" x="244.44" y="60.88" width="6.76" height="1.44" rx="0.57" ry="0.57"/><rect class="cls-57" x="275.9" y="41.56" width="11.34" height="11.34" rx="0.85" ry="0.85"/><rect class="cls-58" x="275.9" y="41.56" width="11.34" height="11.34" rx="0.85" ry="0.85"/><path class="cls-54" d="M275,39.13v3.7a.85.85,0,0,0,.85.85h11.34a.85.85,0,0,0,.85-.85v-3.7Z"/><path class="cls-54" d="M289.74,40h-.5a.85.85,0,0,0-.85.85V52.15a.85.85,0,0,0,.85.85h.5Z"/><polygon class="cls-59" points="299.83 39.32 299.83 39.5 299.89 39.5 299.89 59.45 300.59 59.45 300.59 39.32 299.83 39.32"/><path class="cls-59" d="M299.89,74.71h-51.2v0h-.13a5.71,5.71,0,0,1-5.71-5.7s0-.08,0-.12h0v-.69h0V39.32h-14V67.8h0V68h0a2.14,2.14,0,0,0,.53,1.41h0l1.31,1.31h0l10.78,10.78h0l.75.75h0a2,2,0,0,0,1,.48h57.34v-8h-.7Z"/><polygon class="cls-60" points="236.63 61.39 236.63 39.46 229.63 39.46 229.63 68.38 229.64 68.38 236.63 61.39"/><polygon class="cls-60" points="286.37 75.08 264.25 75.08 264.25 75.08 252.15 75.08 245.1 82.07 245.1 82.08 274.27 82.08 274.27 82.08 286.37 82.08 286.37 75.08"/><rect class="cls-6" x="286.33" y="74.76" width="13.66" height="7.3"/><polygon class="cls-19" points="299.94 39.38 299.94 39.56 300.01 39.56 300.01 59.51 300.7 59.51 300.7 39.38 299.94 39.38"/><path class="cls-19" d="M300,82.07H243.82a1.92,1.92,0,0,1-1-.48v0l-.74-.74h0L231.52,70.32h0L230.26,69h0a2.09,2.09,0,0,1-.51-1.37,1.36,1.36,0,0,1,0-.2h-.05V39.56h.15v-.18H229V67.85h0v.3h0a2.12,2.12,0,0,0,.51,1.3h0l1.31,1.31h0l10.77,10.77h0l.75.75,0,0a2.08,2.08,0,0,0,1,.49H300.7v-8H300Z"/><polygon class="cls-61" points="242.28 81.32 230.13 69.17 229.74 69.57 241.89 81.71 242.28 81.32"/><path class="cls-62" d="M300.26,59.45V74.29a15,15,0,0,0,14.38-14.84Z"/><rect class="cls-36" x="208.69" y="57.28" width="13.75" height="10.83" rx="1.7" ry="1.7"/></g><g id="SYMBOLER"><rect class="cls-63" x="539.57" y="130.93" width="25.51" height="25.51"/><path class="cls-64" d="M545.92,149.72a1.72,1.72,0,0,1-1.71-1.71V140.6a1.71,1.71,0,0,1,1.71-1.71h1.14v10.83Z"/><path class="cls-64" d="M558.45,149.72a1.72,1.72,0,0,0,1.71-1.71V140.6a1.71,1.71,0,0,0-1.71-1.71h-1.14v10.83Z"/><path class="cls-64" d="M550.76,137.61h2.85v1.28h-2.85v-1.28Zm0-.86h0a.86.86,0,0,0-.85.86v1.28h-2.28v10.82h9.11V138.89h-2.28v-1.28a.86.86,0,0,0-.85-.86Z"/><rect class="cls-63" x="597.9" y="130.83" width="25.51" height="25.51"/><path class="cls-64" d="M603.07,135.53c2.23,1.12,4.06,3.28,4.1,5.67v11.34h-1.71l0-10.77a6.31,6.31,0,0,0-2.79-5.58Z"/><path class="cls-64" d="M611.83,135.53c-2.23,1.12-4.06,3.28-4.1,5.67v11.34h1.71l0-10.77a6.31,6.31,0,0,1,2.78-5.58Z"/><path class="cls-64" d="M614.23,141.73c0-.71-.73-1.3-1.7-1.44l-.42-.8-.42.8c-1,.14-1.7.73-1.7,1.44s.73,1.3,1.7,1.44v9.37h.84v-9.37C613.5,143,614.23,142.44,614.23,141.73Zm-.75-.39h-1v-.46A1.61,1.61,0,0,1,613.48,141.34Zm-1.79-.46v.46h-1A1.58,1.58,0,0,1,611.69,140.88Zm-1,1.25h1v.45A1.57,1.57,0,0,1,610.74,142.13Zm1.79.45v-.45h1A1.6,1.6,0,0,1,612.53,142.58Z"/><path class="cls-64" d="M618.9,141.73c0-.71-.72-1.3-1.69-1.44l-.42-.8-.43.8c-1,.14-1.69.73-1.69,1.44s.73,1.3,1.69,1.44v9.37h.85v-9.37C618.18,143,618.9,142.44,618.9,141.73Zm-.75-.39h-.94v-.46A1.58,1.58,0,0,1,618.15,141.34Zm-1.79-.46v.46h-1A1.61,1.61,0,0,1,616.36,140.88Zm-1,1.25h1v.45A1.6,1.6,0,0,1,615.41,142.13Zm1.8.45v-.45h.94A1.57,1.57,0,0,1,617.21,142.58Z"/><rect class="cls-65" x="423.61" y="130.93" width="25.51" height="25.51"/><path class="cls-64" d="M442.07,140.06,440.91,138l-.5,1.81-1.64-2.91h0a2.64,2.64,0,0,0-2.24-1.46,2.54,2.54,0,0,0-2.2,1.38l-1.83,3.06,2.07,1.23,1.95-3.29,1.79,3.18-1.81-.51,1.16,2.06,3.45,1Z"/><path class="cls-64" d="M434.28,148.09l-3.82,0,1.85-3.14.46,1.82,1.21-2-.89-3.46-3.46.88-1.2,2,1.81-.47-1.7,2.87h0a2.66,2.66,0,0,0-.16,2.67,2.57,2.57,0,0,0,2.3,1.22l3.57,0Z"/><path class="cls-64" d="M440,151.88l-1.31-1.34,3.34,0h0a2.66,2.66,0,0,0,2.38-1.2,2.56,2.56,0,0,0-.08-2.6l-1.76-3.11-2.09,1.17,1.87,3.33-3.64,0,1.34-1.31-2.36,0-2.56,2.5,2.5,2.56Z"/><rect class="cls-65" x="283.94" y="130.93" width="25.51" height="25.51"/><path class="cls-64" d="M302.4,140.06,301.24,138l-.51,1.81-1.64-2.91h0a2.62,2.62,0,0,0-2.23-1.46,2.56,2.56,0,0,0-2.21,1.38l-1.82,3.06,2.07,1.23,2-3.29,1.78,3.18-1.8-.51,1.16,2.06,3.44,1Z"/><path class="cls-64" d="M294.6,148.09l-3.82,0,1.85-3.14.47,1.82,1.2-2-.88-3.46-3.47.88-1.2,2,1.82-.47-1.71,2.87h0a2.66,2.66,0,0,0-.15,2.67,2.55,2.55,0,0,0,2.29,1.22l3.57,0Z"/><path class="cls-64" d="M300.34,151.88,299,150.54l3.34,0h0a2.67,2.67,0,0,0,2.39-1.2,2.58,2.58,0,0,0-.09-2.6l-1.75-3.11-2.1,1.17,1.87,3.33-3.63,0,1.33-1.31-2.36,0-2.56,2.5,2.5,2.56Z"/><rect class="cls-65" x="190.93" y="130.93" width="25.51" height="25.51"/><path class="cls-64" d="M209.39,140.06,208.24,138l-.51,1.81-1.64-2.91h0a2.62,2.62,0,0,0-2.23-1.46,2.56,2.56,0,0,0-2.21,1.38l-1.83,3.06,2.07,1.23,2-3.29,1.79,3.18-1.8-.51,1.16,2.06,3.44,1Z"/><path class="cls-64" d="M201.6,148.09l-3.82,0,1.85-3.14.46,1.82,1.21-2-.88-3.46-3.47.88-1.2,2,1.82-.47-1.71,2.87h0a2.66,2.66,0,0,0-.16,2.67,2.57,2.57,0,0,0,2.3,1.22l3.57,0Z"/><path class="cls-64" d="M207.34,151.88,206,150.54l3.34,0h0a2.68,2.68,0,0,0,2.39-1.2,2.58,2.58,0,0,0-.09-2.6l-1.75-3.11-2.1,1.17,1.87,3.33-3.64,0,1.34-1.31-2.36,0-2.56,2.5,2.5,2.56Z"/><rect class="cls-65" x="568.82" y="130.93" width="25.51" height="25.51"/><path class="cls-64" d="M587.82,141.57a3.54,3.54,0,0,0-1.53.34L585,139.6a1.79,1.79,0,0,1-.15-.56c0-.49.48-1.06.48-1.25a.42.42,0,0,0-.42-.42h-1.4a.42.42,0,1,0,0,.84h.58a.13.13,0,0,1,.13.14c0,.19-.17.27-.17.67a1,1,0,0,0,.09.45.24.24,0,0,1,0,.27l-4.71.89a.21.21,0,0,1-.21-.07s-1.08-1.42-1-1.61,1-.18,1-.18c.16-.06.28-.13.28-.28a.27.27,0,0,0-.28-.28h-2.66a.42.42,0,1,0,0,.84,2.78,2.78,0,0,1,.7-.05,1.44,1.44,0,0,1,.41.75,19.51,19.51,0,0,1-.92,2,3.77,3.77,0,0,0-1.17-.19,3.64,3.64,0,1,0,3.6,4.2h.66a1.54,1.54,0,0,0,3-.42,1.75,1.75,0,0,0,0-.4l2.33-3.08a.15.15,0,0,1,.15,0,.19.19,0,0,1,.12.07c0,.05.24.43.24.43a3.64,3.64,0,1,0,2.25-.78ZM575.5,148h0a2.8,2.8,0,1,1,.83-5.48l-1.11,2.4a.58.58,0,0,0,.56.84h2.47A2.82,2.82,0,0,1,575.5,148Zm.86-3.08h0c-.08,0-.17-.06-.14-.15l.85-1.89a2.81,2.81,0,0,1,1.22,2Zm3.4,0h-.63a3.65,3.65,0,0,0-1.7-2.81h0l.57-1.34c0-.07,0-.13.1-.13s.07.06.11.13l2,3.46a1.55,1.55,0,0,0-.41.69Zm1.48,1.12h0a.7.7,0,1,1,.7-.7.7.7,0,0,1-.7.7Zm1.06-1.82h0a1.49,1.49,0,0,0-1.06-.42,1.66,1.66,0,0,0-.32,0s-1.36-2.32-1.39-2.39,0-.13.14-.13l4.7-.87a.42.42,0,0,1,.42.42c0,.23-2.49,3.36-2.49,3.36Zm5.52,3.78h0a2.8,2.8,0,0,1-1.82-4.93l1.46,2.52a.42.42,0,0,0,.56.19.43.43,0,0,0,.19-.56l-1.5-2.59a2.76,2.76,0,0,1,1.11-.23,2.8,2.8,0,0,1,0,5.6Z"/><rect class="cls-65" x="7.82" y="130.93" width="25.51" height="25.51"/><path class="cls-66" d="M20.49,134.24a9.57,9.57,0,1,1-9.57,9.57A9.56,9.56,0,0,1,20.49,134.24Z"/><path class="cls-67" d="M25.65,140.45l-.56.83H23.84v-.83h-.19L19,147.75a2.29,2.29,0,0,0-.3.95,2.76,2.76,0,0,0,2.67,2.67,2.24,2.24,0,0,0,1.93-1,.34.34,0,0,0,0-.49c-.26-.24-.46,0-.54.11a1.56,1.56,0,0,1-1.4.67,2.08,2.08,0,0,1-1-.32,1.79,1.79,0,0,1-.74-.86c0-.08-.08-.24,0-.3a.15.15,0,0,1,.21.09,2.18,2.18,0,0,0,.65.8,1.88,1.88,0,0,0,.83.28,1.67,1.67,0,0,0,1.24-.67.62.62,0,0,1,.52-.21c.23,0,.58.32.58.61a.68.68,0,0,1-.12.4h.58c.35,0,.47-.2.47-.48v-6.19a1.18,1.18,0,0,0,1.25-1.17v-2.16Z"/><path class="cls-67" d="M22.11,142.13v-3.61l1.09.1a1.1,1.1,0,0,0,1.13-.84l-2.65-1.62a2.27,2.27,0,0,0-1.52-.38,1.37,1.37,0,0,0-1.37,1.37v1.77s-4,6.11-4.33,6.53a3,3,0,0,0-.57,1.74,2,2,0,0,0,1.9,2h2.44a2.73,2.73,0,0,1,0-.49,2.36,2.36,0,0,1,.25-1c.12-.24,3.66-5.58,3.66-5.58Zm-1.1-3.6h0a.73.73,0,0,1-.72.76.74.74,0,0,1-.74-.74v-1.34a.16.16,0,0,1,.16-.16.16.16,0,0,1,.15.16v1.34a.42.42,0,0,0,.42.42.41.41,0,0,0,.41-.42v-1.34a.16.16,0,0,1,.32,0Z"/><path class="cls-68" d="M20.63,133.13a10.58,10.58,0,1,1-10.58,10.58,10.58,10.58,0,0,1,10.58-10.58ZM15.24,137l12.07,12.18A8.62,8.62,0,0,0,15.24,137Zm11,13.31L14.1,138.07a8.62,8.62,0,0,0,12.1,12.22Z"/><rect class="cls-65" x="702.83" y="130.93" width="25.51" height="25.51"/><path class="cls-66" d="M715.49,134.24a9.57,9.57,0,1,1-9.56,9.56A9.56,9.56,0,0,1,715.49,134.24Z"/><path class="cls-67" d="M720.66,140.45l-.56.83h-1.26v-.83h-.18l-4.7,7.3a2.14,2.14,0,0,0-.29.95,2.76,2.76,0,0,0,2.66,2.67,2.25,2.25,0,0,0,1.94-1,.34.34,0,0,0,0-.48c-.25-.24-.45,0-.53.11a1.56,1.56,0,0,1-1.4.67,2.15,2.15,0,0,1-1-.32,1.94,1.94,0,0,1-.75-.86c0-.08-.07-.24,0-.3a.16.16,0,0,1,.22.08,2.1,2.1,0,0,0,.65.8,1.83,1.83,0,0,0,.83.29,1.67,1.67,0,0,0,1.24-.67.59.59,0,0,1,.52-.21c.23,0,.58.32.57.61a.56.56,0,0,1-.12.4h.59c.35,0,.47-.2.47-.48v-6.19a1.18,1.18,0,0,0,1.25-1.17v-2.16Z"/><path class="cls-67" d="M717.12,142.13v-3.61l1.09.1a1.11,1.11,0,0,0,1.13-.84l-2.65-1.62a2.27,2.27,0,0,0-1.52-.39,1.37,1.37,0,0,0-1.37,1.38v1.77s-4,6.11-4.32,6.53a3,3,0,0,0-.57,1.74,2,2,0,0,0,1.9,2h2.44a2.73,2.73,0,0,1,0-.49,2.32,2.32,0,0,1,.25-1c.12-.24,3.66-5.58,3.66-5.58Zm-1.1-3.6h0a.73.73,0,0,1-.73.76.74.74,0,0,1-.73-.74v-1.34a.16.16,0,0,1,.15-.16.16.16,0,0,1,.16.16v1.34a.42.42,0,0,0,.42.42.41.41,0,0,0,.41-.42v-1.34a.16.16,0,0,1,.16-.16.16.16,0,0,1,.16.16Z"/><path class="cls-68" d="M715.64,133.13a10.58,10.58,0,1,1-10.58,10.58,10.58,10.58,0,0,1,10.58-10.58ZM710.25,137l12.07,12.19A8.63,8.63,0,0,0,710.25,137Zm11,13.32-12.1-12.22a8.62,8.62,0,0,0,12.1,12.22Z"/><rect class="cls-65" x="254.89" y="130.93" width="25.51" height="25.51"/><path class="cls-64" d="M268.05,137.52a1.54,1.54,0,0,0,1.52-1.6l.77,0-.71-.77h-3a1.62,1.62,0,0,0,1.44,2.32Z"/><path class="cls-64" d="M270,152.05a.88.88,0,1,1-1.75,0v-7h-.43v7a.87.87,0,1,1-1.74,0V140.13h-.44v4.36a.58.58,0,0,1-1.16,0v-4.94a1.87,1.87,0,0,1,1.89-1.74h3.34a1.88,1.88,0,0,1,1.89,1.74v4.94a.59.59,0,0,1-1.17,0v-4.36H270Z"/><polygon class="cls-66" points="266.55 134.84 269.77 134.83 270.4 133.8 266.44 133.79 266.55 134.84"/><path class="cls-69" d="M268.11,140.05a.37.37,0,1,1-.37.37A.38.38,0,0,1,268.11,140.05Z"/><path class="cls-69" d="M268.11,141.34a.37.37,0,1,1-.36.37A.37.37,0,0,1,268.11,141.34Z"/><path class="cls-69" d="M268,138.66a.41.41,0,0,1,.41.41.41.41,0,0,1-.82,0A.41.41,0,0,1,268,138.66Z"/><rect class="cls-65" x="361.75" y="130.93" width="25.51" height="25.51"/><g class="cls-70"><path class="cls-64" d="M372.51,151.17v-9.3a1.47,1.47,0,0,0,1.23-1.36v-5.13a.34.34,0,0,0-.68,0v3.76h-.55v-3.76a.34.34,0,1,0-.68,0v3.76h-.55v-3.76a.34.34,0,1,0-.68,0v3.76h-.55v-3.76a.34.34,0,0,0-.68,0v5.13a1.47,1.47,0,0,0,1.23,1.36v9.3a1,1,0,0,0,1.91,0"/><path class="cls-64" d="M379.08,145.4v5.74a1,1,0,1,1-1.91,0v-5.73h-1.09v-8.87a1.5,1.5,0,0,1,3,0v8.89"/></g><path class="cls-71" d="M365.25,11.38h1.4v4.13l4-4.13h1.85l-4.42,4.55,4.7,5.25H371l-4.37-4.9v4.9h-1.4Z"/><path class="cls-71" d="M378.24,20.58a3,3,0,0,1-2,.74,3.31,3.31,0,0,1-3.33-3.43,3.48,3.48,0,0,1,1.69-3,3.11,3.11,0,0,1,1.61-.42,3.06,3.06,0,0,1,2.06.74v-.6h1.29v6.58h-1.29Zm0-3.92a2.36,2.36,0,0,0-1.88-.94,2.1,2.1,0,0,0-2.11,2.17,2.15,2.15,0,0,0,2.18,2.17,2.29,2.29,0,0,0,1.81-.94Z"/><path class="cls-71" d="M385.69,12.41a2.11,2.11,0,0,0-.49-.05,1.27,1.27,0,0,0-1,.46,1.88,1.88,0,0,0-.25,1.17v.61h2v1.19h-2v5.39h-1.33V15.79h-1.54V14.6h1.54V14a3,3,0,0,1,.42-1.85,2.56,2.56,0,0,1,2.16-1.09,3.35,3.35,0,0,1,.78.09Z"/><path class="cls-71" d="M388,18.17a2.12,2.12,0,0,0,2.13,2,2.38,2.38,0,0,0,1.89-.9l.86.83a3.43,3.43,0,0,1-2.77,1.23,3.34,3.34,0,0,1-3.4-3.43,3.19,3.19,0,1,1,6.37,0c0,.05,0,.15,0,.28Zm.11-1.12h3.58A1.83,1.83,0,0,0,390,15.62,1.9,1.9,0,0,0,388.14,17.05Zm1.29-3.57.91-2.1h1.47l-1.47,2.1Z"/><line class="cls-72" x1="38.27" y1="16.12" x2="328.58" y2="16.12"/><polygon class="cls-71" points="40.26 19.03 29.42 16.13 40.26 13.22 40.26 19.03"/><line class="cls-73" x1="29.35" y1="10.35" x2="29.35" y2="22.05"/><line class="cls-72" x1="551.45" y1="16.35" x2="428.58" y2="16.35"/><polygon class="cls-71" points="549.47 13.44 560.31 16.34 549.47 19.25 549.47 13.44"/><line class="cls-73" x1="560.37" y1="22.12" x2="560.37" y2="10.42"/></g></g></svg>