<svg xmlns="http://www.w3.org/2000/svg" xmlns:xlink="http://www.w3.org/1999/xlink" viewBox="0 0 840 160"><defs><style>.cls-1{fill:#c6c6c5;}.cls-2{fill:#6dc6d9;}.cls-11,.cls-12,.cls-13,.cls-14,.cls-15,.cls-16,.cls-17,.cls-18,.cls-19,.cls-2,.cls-20,.cls-21,.cls-22,.cls-24,.cls-26,.cls-29,.cls-3,.cls-30,.cls-31,.cls-33,.cls-34,.cls-35,.cls-36,.cls-37,.cls-38,.cls-39,.cls-4,.cls-40,.cls-41,.cls-42,.cls-43,.cls-44,.cls-45,.cls-46,.cls-47,.cls-48,.cls-49,.cls-50,.cls-51,.cls-52,.cls-53,.cls-54,.cls-55,.cls-56,.cls-57,.cls-58,.cls-59,.cls-60,.cls-61,.cls-62,.cls-63,.cls-64,.cls-65,.cls-66,.cls-67,.cls-68,.cls-69,.cls-70,.cls-71,.cls-73,.cls-75,.cls-76,.cls-77,.cls-78,.cls-79,.cls-8,.cls-80,.cls-81,.cls-82,.cls-83,.cls-84,.cls-85,.cls-86,.cls-87,.cls-88,.cls-89,.cls-9{stroke:#000;}.cls-10,.cls-100,.cls-11,.cls-12,.cls-13,.cls-14,.cls-15,.cls-16,.cls-17,.cls-18,.cls-19,.cls-2,.cls-20,.cls-21,.cls-22,.cls-23,.cls-24,.cls-25,.cls-26,.cls-29,.cls-3,.cls-30,.cls-31,.cls-39,.cls-40,.cls-41,.cls-42,.cls-43,.cls-44,.cls-45,.cls-46,.cls-47,.cls-48,.cls-57,.cls-58,.cls-59,.cls-6,.cls-60,.cls-61,.cls-62,.cls-63,.cls-64,.cls-65,.cls-66,.cls-67,.cls-68,.cls-69,.cls-7,.cls-70,.cls-71,.cls-72,.cls-73,.cls-75,.cls-76,.cls-77,.cls-78,.cls-79,.cls-8,.cls-80,.cls-81,.cls-82,.cls-83,.cls-84,.cls-85,.cls-86,.cls-87,.cls-88,.cls-89,.cls-9,.cls-90,.cls-99{stroke-miterlimit:10;}.cls-2,.cls-29,.cls-3,.cls-30,.cls-31,.cls-39,.cls-40,.cls-41,.cls-42,.cls-43,.cls-44,.cls-45,.cls-46,.cls-47,.cls-48,.cls-49,.cls-50,.cls-51,.cls-52,.cls-53,.cls-54,.cls-55,.cls-56,.cls-7{stroke-width:0.5px;}.cls-3{fill:#3d3d3c;}.cls-4,.cls-6{fill:#3c3c3b;}.cls-33,.cls-34,.cls-35,.cls-36,.cls-37,.cls-38,.cls-4,.cls-49,.cls-50,.cls-51,.cls-52,.cls-53,.cls-54,.cls-55,.cls-56{stroke-linejoin:round;}.cls-10,.cls-11,.cls-12,.cls-13,.cls-14,.cls-15,.cls-16,.cls-17,.cls-18,.cls-19,.cls-20,.cls-21,.cls-24,.cls-25,.cls-26,.cls-33,.cls-34,.cls-35,.cls-36,.cls-37,.cls-38,.cls-4,.cls-57,.cls-58,.cls-59,.cls-6,.cls-60,.cls-61,.cls-62,.cls-63,.cls-64,.cls-65,.cls-66,.cls-67,.cls-68,.cls-69,.cls-70,.cls-71,.cls-72,.cls-8,.cls-9,.cls-90{stroke-width:0.25px;}.cls-5{fill:#b1b1b0;}.cls-10,.cls-23,.cls-25,.cls-6,.cls-7,.cls-72,.cls-90{stroke:#1d1d1b;}.cls-100,.cls-22,.cls-25,.cls-29,.cls-31,.cls-33,.cls-35,.cls-36,.cls-37,.cls-38,.cls-39,.cls-40,.cls-41,.cls-42,.cls-43,.cls-44,.cls-45,.cls-46,.cls-47,.cls-48,.cls-49,.cls-51,.cls-52,.cls-53,.cls-54,.cls-55,.cls-56,.cls-7,.cls-99{fill:none;}.cls-100,.cls-23,.cls-33,.cls-34,.cls-35,.cls-36,.cls-37,.cls-38,.cls-49,.cls-50,.cls-51,.cls-52,.cls-53,.cls-54,.cls-55,.cls-56,.cls-7,.cls-73,.cls-76,.cls-77,.cls-78,.cls-79,.cls-80,.cls-81,.cls-82,.cls-83,.cls-84,.cls-85,.cls-86,.cls-87,.cls-88,.cls-89,.cls-99{stroke-linecap:round;}.cls-8{fill:#55accf;}.cls-9{fill:#e2e1e1;}.cls-10{fill:#e3e3e2;}.cls-11{fill:url(#radial-gradient);}.cls-12,.cls-23,.cls-90{fill:#6f6f6e;}.cls-13{fill:url(#Cast_Iron);}.cls-14{fill:url(#Cast_Iron-2);}.cls-15{fill:#60615f;}.cls-16{fill:url(#Cast_Iron-3);}.cls-17{fill:url(#Cast_Iron-4);}.cls-18{fill:url(#Cast_Iron-5);}.cls-19{fill:url(#Cast_Iron-6);}.cls-20{fill:url(#Cast_Iron-7);}.cls-21{fill:url(#Cast_Iron-8);}.cls-100,.cls-22,.cls-23{stroke-width:0.75px;}.cls-24{fill:#b1b1b1;}.cls-25{stroke-dasharray:2 1;}.cls-26{fill:url(#radial-gradient-2);}.cls-27,.cls-75{fill:#9c9b9b;}.cls-28,.cls-30{fill:#9d9b9b;}.cls-29{stroke-dasharray:2.09 1.04;}.cls-31{stroke-dasharray:2.03 1.02;}.cls-32,.cls-34,.cls-50{fill:#faca9e;}.cls-33{stroke-dasharray:2.02 1.01;}.cls-35{stroke-dasharray:2.02 1.01;}.cls-36{stroke-dasharray:2.02 1.01;}.cls-37{stroke-dasharray:2.02 1.01;}.cls-38{stroke-dasharray:2.02 1.01;}.cls-39{stroke-dasharray:2.03 1.02;}.cls-40{stroke-dasharray:2.03 1.02;}.cls-41{stroke-dasharray:2.03 1.02;}.cls-42{stroke-dasharray:2.03 1.02;}.cls-43{stroke-dasharray:2.03 1.02;}.cls-44{stroke-dasharray:2.03 1.02;}.cls-45{stroke-dasharray:2.03 1.02;}.cls-46{stroke-dasharray:2.03 1.02;}.cls-47{stroke-dasharray:2.03 1.02;}.cls-48{stroke-dasharray:2.09 1.04;}.cls-49{stroke-dasharray:2.02 1.01;}.cls-51{stroke-dasharray:2.02 1.01;}.cls-52{stroke-dasharray:2.02 1.01;}.cls-53{stroke-dasharray:2.02 1.01;}.cls-54{stroke-dasharray:2.02 1.01;}.cls-55{stroke-dasharray:2.02 1.01;}.cls-56{stroke-dasharray:2.02 1.01;}.cls-57{fill:url(#radial-gradient-3);}.cls-58{fill:url(#radial-gradient-4);}.cls-59{fill:url(#radial-gradient-5);}.cls-60{fill:url(#radial-gradient-6);}.cls-61{fill:url(#radial-gradient-7);}.cls-62{fill:url(#radial-gradient-8);}.cls-63{fill:url(#radial-gradient-9);}.cls-64{fill:url(#radial-gradient-10);}.cls-65{fill:url(#radial-gradient-11);}.cls-66{fill:url(#radial-gradient-12);}.cls-67{fill:url(#radial-gradient-13);}.cls-68{fill:url(#radial-gradient-14);}.cls-69{fill:url(#radial-gradient-15);}.cls-70{fill:url(#radial-gradient-16);}.cls-71{fill:url(#radial-gradient-17);}.cls-72{fill:#d9d9d9;}.cls-73,.cls-76,.cls-77,.cls-78,.cls-79,.cls-80,.cls-81,.cls-82,.cls-83,.cls-84,.cls-85,.cls-86,.cls-87,.cls-88,.cls-89{stroke-width:0.1px;}.cls-73{fill:url(#linear-gradient);}.cls-74{fill:#9cc3e7;}.cls-75{stroke-width:0.05px;}.cls-76{fill:url(#linear-gradient-2);}.cls-77{fill:url(#linear-gradient-3);}.cls-78{fill:url(#linear-gradient-4);}.cls-79{fill:url(#linear-gradient-5);}.cls-80{fill:url(#linear-gradient-6);}.cls-81{fill:url(#linear-gradient-7);}.cls-82{fill:url(#linear-gradient-8);}.cls-83{fill:url(#linear-gradient-9);}.cls-84{fill:url(#linear-gradient-10);}.cls-85{fill:url(#linear-gradient-11);}.cls-86{fill:url(#linear-gradient-12);}.cls-87{fill:url(#linear-gradient-13);}.cls-88{fill:url(#linear-gradient-14);}.cls-89{fill:url(#linear-gradient-15);}.cls-91,.cls-97{fill:#ffd421;}.cls-92{fill:#221e20;}.cls-93{fill:#251a5f;}.cls-94{fill:#fff;}.cls-95{fill:#29295d;}.cls-96{fill:#1d1d1b;}.cls-97{fill-rule:evenodd;}.cls-98{fill:#575756;}.cls-100,.cls-99{stroke:#575756;}</style><radialGradient id="radial-gradient" cx="703.78" cy="43.38" r="3.61" gradientUnits="userSpaceOnUse"><stop offset="0.01" stop-color="#c6c6c5"/><stop offset="0.53" stop-color="#c6c6c5"/><stop offset="0.99" stop-color="#9c9b9b"/></radialGradient><linearGradient id="Cast_Iron" x1="258.11" y1="-416.92" x2="261.79" y2="-416.92" gradientTransform="matrix(0, 1, 1, 0, 444.21, -154.77)" gradientUnits="userSpaceOnUse"><stop offset="0.01" stop-color="#909094"/><stop offset="0.53" stop-color="#a3a2a2"/><stop offset="1" stop-color="#5f5e60"/></linearGradient><linearGradient id="Cast_Iron-2" x1="257.32" y1="-413.29" x2="262.52" y2="-413.29" xlink:href="#Cast_Iron"/><linearGradient id="Cast_Iron-3" x1="208.46" y1="-416.95" x2="212.14" y2="-416.95" xlink:href="#Cast_Iron"/><linearGradient id="Cast_Iron-4" x1="207.67" y1="-413.32" x2="212.87" y2="-413.32" xlink:href="#Cast_Iron"/><linearGradient id="Cast_Iron-5" x1="258.02" y1="1057.63" x2="261.7" y2="1057.63" gradientTransform="translate(1842.69 -154.77) rotate(90)" xlink:href="#Cast_Iron"/><linearGradient id="Cast_Iron-6" x1="257.23" y1="1061.25" x2="262.43" y2="1061.25" gradientTransform="translate(1842.69 -154.77) rotate(90)" xlink:href="#Cast_Iron"/><linearGradient id="Cast_Iron-7" x1="208.37" y1="1057.59" x2="212.05" y2="1057.59" gradientTransform="translate(1842.69 -154.77) rotate(90)" xlink:href="#Cast_Iron"/><linearGradient id="Cast_Iron-8" x1="207.58" y1="1061.22" x2="212.78" y2="1061.22" gradientTransform="translate(1842.69 -154.77) rotate(90)" xlink:href="#Cast_Iron"/><radialGradient id="radial-gradient-2" cx="140.05" cy="42.72" r="3.61" xlink:href="#radial-gradient"/><radialGradient id="radial-gradient-3" cx="180.59" cy="42.46" r="3.61" xlink:href="#radial-gradient"/><radialGradient id="radial-gradient-4" cx="219.75" cy="42.74" r="3.61" xlink:href="#radial-gradient"/><radialGradient id="radial-gradient-5" cx="258.11" cy="42.5" r="3.61" xlink:href="#radial-gradient"/><radialGradient id="radial-gradient-6" cx="298.39" cy="42.52" r="3.61" xlink:href="#radial-gradient"/><radialGradient id="radial-gradient-7" cx="337.65" cy="42.54" r="3.61" xlink:href="#radial-gradient"/><radialGradient id="radial-gradient-8" cx="376.93" cy="42.57" r="3.61" xlink:href="#radial-gradient"/><radialGradient id="radial-gradient-9" cx="416.27" cy="42.56" r="3.61" xlink:href="#radial-gradient"/><radialGradient id="radial-gradient-10" cx="455.57" cy="42.52" r="3.61" xlink:href="#radial-gradient"/><radialGradient id="radial-gradient-11" cx="494.86" cy="42.57" r="3.61" xlink:href="#radial-gradient"/><radialGradient id="radial-gradient-12" cx="534.23" cy="42.61" r="3.61" xlink:href="#radial-gradient"/><radialGradient id="radial-gradient-13" cx="573.66" cy="42.57" r="3.61" xlink:href="#radial-gradient"/><radialGradient id="radial-gradient-14" cx="611.55" cy="42.59" r="3.61" xlink:href="#radial-gradient"/><radialGradient id="radial-gradient-15" cx="654.75" cy="42.55" r="3.61" xlink:href="#radial-gradient"/><radialGradient id="radial-gradient-16" cx="100.9" cy="42.74" r="3.61" xlink:href="#radial-gradient"/><radialGradient id="radial-gradient-17" cx="64.95" cy="42.44" r="3.61" xlink:href="#radial-gradient"/><linearGradient id="linear-gradient" x1="82.88" y1="-1130.25" x2="82.88" y2="-1120.89" gradientTransform="matrix(1, 0, 0, -1, 0, -1035.94)" gradientUnits="userSpaceOnUse"><stop offset="0" stop-color="#fff"/><stop offset="1" stop-color="#b1b1b1"/></linearGradient><linearGradient id="linear-gradient-2" x1="122.26" y1="-1130.25" x2="122.26" y2="-1120.89" xlink:href="#linear-gradient"/><linearGradient id="linear-gradient-3" x1="161.63" y1="-1130.06" x2="161.63" y2="-1120.71" xlink:href="#linear-gradient"/><linearGradient id="linear-gradient-4" x1="200.82" y1="-1130.18" x2="200.82" y2="-1120.83" xlink:href="#linear-gradient"/><linearGradient id="linear-gradient-5" x1="240.07" y1="-1130.12" x2="240.07" y2="-1120.77" xlink:href="#linear-gradient"/><linearGradient id="linear-gradient-6" x1="279.38" y1="-1130.18" x2="279.38" y2="-1120.83" xlink:href="#linear-gradient"/><linearGradient id="linear-gradient-7" x1="318.63" y1="-1130.18" x2="318.63" y2="-1120.83" xlink:href="#linear-gradient"/><linearGradient id="linear-gradient-8" x1="357.88" y1="-1130.18" x2="357.88" y2="-1120.83" xlink:href="#linear-gradient"/><linearGradient id="linear-gradient-9" x1="397.19" y1="-1130.25" x2="397.19" y2="-1120.89" xlink:href="#linear-gradient"/><linearGradient id="linear-gradient-10" x1="436.57" y1="-1130.18" x2="436.57" y2="-1120.83" xlink:href="#linear-gradient"/><linearGradient id="linear-gradient-11" x1="475.82" y1="-1130.25" x2="475.82" y2="-1120.89" xlink:href="#linear-gradient"/><linearGradient id="linear-gradient-12" x1="515.19" y1="-1130.25" x2="515.19" y2="-1120.89" xlink:href="#linear-gradient"/><linearGradient id="linear-gradient-13" x1="554.57" y1="-1130.25" x2="554.57" y2="-1120.89" xlink:href="#linear-gradient"/><linearGradient id="linear-gradient-14" x1="593.94" y1="-1130.31" x2="593.94" y2="-1120.96" xlink:href="#linear-gradient"/><linearGradient id="linear-gradient-15" x1="633.32" y1="-1130.31" x2="633.32" y2="-1120.96" xlink:href="#linear-gradient"/></defs><title>WLAB-2</title><g id="WLAB-2"><g id="VOGNKASSE"><rect id="GULV" class="cls-1" x="44.51" y="35.08" width="725.06" height="90.71"/><rect class="cls-2" x="47.53" y="34.4" width="687.09" height="3.56"/><rect class="cls-3" x="344.65" y="34.41" width="10.06" height="3.54"/><rect class="cls-3" x="383.63" y="34.41" width="10.06" height="3.54"/><rect class="cls-3" x="423.31" y="34.41" width="10.06" height="3.54"/><rect class="cls-3" x="463" y="34.41" width="8.99" height="3.54"/><rect class="cls-3" x="502.4" y="34.41" width="8.99" height="3.54"/><rect class="cls-3" x="541.5" y="34.41" width="8.99" height="3.54"/><rect class="cls-3" x="580.85" y="34.41" width="9.18" height="3.54"/><rect class="cls-3" x="620.6" y="34.41" width="9.38" height="3.54"/><rect class="cls-3" x="659.16" y="34.41" width="75.88" height="3.54"/><rect class="cls-3" x="762.49" y="34.41" width="5.39" height="3.54"/><rect class="cls-3" x="305.18" y="34.41" width="10.06" height="3.54"/><rect class="cls-3" x="266" y="34.41" width="10.06" height="3.54"/><rect class="cls-3" x="227.16" y="34.41" width="10.06" height="3.54"/><rect class="cls-3" x="187.92" y="34.41" width="10.06" height="3.54"/><rect class="cls-3" x="148.51" y="34.4" width="10.06" height="3.54"/><rect class="cls-3" x="109.76" y="34.41" width="10.06" height="3.54"/><rect class="cls-3" x="44.61" y="34.41" width="36.35" height="3.54"/><rect class="cls-2" x="47.54" y="122.4" width="687.36" height="3.56"/><rect class="cls-3" x="344.8" y="122.41" width="10.06" height="3.54"/><rect class="cls-3" x="383.64" y="122.41" width="10.06" height="3.54"/><rect class="cls-3" x="423.32" y="122.41" width="10.06" height="3.54"/><rect class="cls-3" x="463.23" y="122.41" width="8.99" height="3.54"/><rect class="cls-3" x="502.56" y="122.41" width="8.99" height="3.54"/><rect class="cls-3" x="541.68" y="122.41" width="8.99" height="3.54"/><rect class="cls-3" x="580.86" y="122.41" width="9.18" height="3.54"/><rect class="cls-3" x="620.76" y="122.41" width="9.38" height="3.54"/><rect class="cls-3" x="659.17" y="122.41" width="75.88" height="3.54"/><rect class="cls-3" x="762.5" y="122.41" width="5.39" height="3.54"/><rect class="cls-3" x="305.18" y="122.41" width="10.06" height="3.54"/><rect class="cls-3" x="265.84" y="122.41" width="10.06" height="3.54"/><rect class="cls-3" x="227.17" y="122.41" width="10.06" height="3.54"/><rect class="cls-3" x="187.93" y="122.41" width="10.06" height="3.54"/><rect class="cls-3" x="148.52" y="122.41" width="10.06" height="3.54"/><rect class="cls-3" x="109.76" y="122.41" width="10.06" height="3.54"/><rect class="cls-3" x="68.89" y="122.41" width="12.07" height="3.54"/><polygon class="cls-4" points="31.46 36.55 31.46 65.69 44.34 65.69 44.34 34.27 31.46 36.55"/><polygon class="cls-4" points="31.51 123.81 31.51 94.66 44.38 94.66 44.38 126.08 31.51 123.81"/><polygon class="cls-4" points="780.97 36.55 780.97 65.69 768.1 65.69 768.1 34.28 780.97 36.55"/><polygon class="cls-4" points="781.04 123.79 781.04 94.65 768.17 94.65 768.17 126.06 781.04 123.79"/><rect class="cls-5" x="72.16" y="95.37" width="605.7" height="1.7"/><rect class="cls-6" x="541.71" y="95.36" width="22.68" height="1.7"/><rect class="cls-6" x="502.55" y="95.36" width="22.68" height="1.7"/><rect class="cls-6" x="580.97" y="95.36" width="23.05" height="1.7"/><rect class="cls-6" x="620.24" y="95.36" width="23.05" height="1.7"/><rect class="cls-6" x="659.98" y="95.36" width="17.93" height="1.7"/><rect class="cls-6" x="463.11" y="95.36" width="22.68" height="1.7"/><rect class="cls-6" x="423.9" y="95.36" width="22.68" height="1.7"/><rect class="cls-6" x="384.47" y="95.36" width="22.68" height="1.7"/><rect class="cls-6" x="344.89" y="95.36" width="23.11" height="1.7"/><rect class="cls-6" x="305.61" y="95.36" width="22.93" height="1.7"/><rect class="cls-6" x="266.66" y="95.36" width="22.68" height="1.7"/><rect class="cls-6" x="227.41" y="95.36" width="22.68" height="1.7"/><rect class="cls-6" x="187.95" y="95.36" width="22.68" height="1.7"/><rect class="cls-6" x="148.81" y="95.36" width="22.68" height="1.7"/><rect class="cls-6" x="110.01" y="95.36" width="22.68" height="1.7"/><rect class="cls-6" x="72.59" y="95.36" width="20.69" height="1.7"/><line class="cls-7" x1="94.15" y1="101.77" x2="109.97" y2="97.08"/><path class="cls-7" d="M94.11,101.77a15.56,15.56,0,0,1-.87-4.62"/><line class="cls-7" x1="133.65" y1="101.77" x2="149.47" y2="97.08"/><path class="cls-7" d="M133.61,101.77a15.56,15.56,0,0,1-.87-4.62"/><line class="cls-7" x1="172.4" y1="101.86" x2="188.22" y2="97.17"/><path class="cls-7" d="M172.36,101.86a15.63,15.63,0,0,1-.87-4.63"/><line class="cls-7" x1="211.57" y1="101.86" x2="227.39" y2="97.17"/><path class="cls-7" d="M211.53,101.86a15.62,15.62,0,0,1-.88-4.63"/><line class="cls-7" x1="251.07" y1="101.86" x2="266.89" y2="97.17"/><path class="cls-7" d="M251,101.86a15.62,15.62,0,0,1-.88-4.63"/><line class="cls-7" x1="290.23" y1="101.84" x2="306.05" y2="97.15"/><path class="cls-7" d="M290.19,101.84a16,16,0,0,1-.87-4.63"/><line class="cls-7" x1="329.07" y1="101.86" x2="344.89" y2="97.17"/><path class="cls-7" d="M329,101.86a15.62,15.62,0,0,1-.88-4.63"/><line class="cls-7" x1="368.57" y1="102" x2="384.39" y2="97.31"/><path class="cls-7" d="M368.65,101.94a15.63,15.63,0,0,1-.87-4.63"/><line class="cls-7" x1="408.08" y1="101.71" x2="423.9" y2="97.02"/><path class="cls-7" d="M408,101.71a15.62,15.62,0,0,1-.88-4.63"/><line class="cls-7" x1="447.36" y1="101.75" x2="463.18" y2="97.06"/><path class="cls-7" d="M447.32,101.75a15.88,15.88,0,0,1-.87-4.62"/><line class="cls-7" x1="486.74" y1="101.69" x2="502.56" y2="97"/><path class="cls-7" d="M486.7,101.69a16,16,0,0,1-.87-4.63"/><line class="cls-7" x1="526.23" y1="101.69" x2="542.05" y2="97"/><path class="cls-7" d="M526.19,101.69a16,16,0,0,1-.87-4.63"/><line class="cls-7" x1="565.06" y1="101.77" x2="580.89" y2="97.09"/><path class="cls-7" d="M565,101.77a15.82,15.82,0,0,1-.87-4.62"/><line class="cls-7" x1="604.69" y1="101.77" x2="620.52" y2="97.08"/><path class="cls-7" d="M604.65,101.77a15.88,15.88,0,0,1-.87-4.62"/><line class="cls-7" x1="644.19" y1="101.77" x2="660.01" y2="97.09"/><path class="cls-7" d="M644.15,101.77a15.5,15.5,0,0,1-.87-4.62"/><rect class="cls-6" x="71.29" y="64.01" width="2.12" height="1.7"/><rect class="cls-6" x="43.84" y="64.01" width="10.71" height="1.7"/><line class="cls-7" x1="55.42" y1="70.42" x2="71.25" y2="65.73"/><path class="cls-7" d="M55.38,70.42a16,16,0,0,1-.87-4.63"/><rect class="cls-8" x="44.4" y="38.62" width="28.36" height="24.94"/><path class="cls-9" d="M46.43,59.44h5.74c4.06,0,7.34-2.29,7.34-5.09s-3.31-5.1-7.38-5.1H44.35V59.44Z"/><path class="cls-9" d="M46.89,57.5a8.62,8.62,0,0,0,5.25,1.63c3.87,0,7-2.14,7-4.77s-3.13-4.77-7-4.77a8.62,8.62,0,0,0-5.25,1.63Z"/><rect class="cls-8" x="675.31" y="38.39" width="36.47" height="30.52"/><path class="cls-9" d="M681,42.59v5.55s0,0,0,0c0,4,2.48,7.16,5.52,7.16s5.53-3.23,5.53-7.2V45.64h0V40.55H681Z"/><path class="cls-9" d="M683.08,43a7.88,7.88,0,0,0-1.77,5.13c0,3.77,2.32,6.83,5.18,6.83s5.17-3.06,5.17-6.83A7.93,7.93,0,0,0,689.9,43Z"/><rect class="cls-10" x="697.42" y="38.69" width="14.24" height="8.51"/><rect class="cls-11" x="699.53" y="40.55" width="8.5" height="5.67" rx="1.42" ry="1.42"/><rect class="cls-12" x="675.11" y="38.18" width="22.27" height="2.39"/><rect class="cls-6" x="667.1" y="69.07" width="22.68" height="1.7"/><rect class="cls-6" x="706.65" y="69.07" width="27.79" height="1.7"/><line class="cls-7" x1="690.67" y1="75.48" x2="706.49" y2="70.8"/><path class="cls-7" d="M690.63,75.48a15.5,15.5,0,0,1-.87-4.62"/><rect class="cls-6" x="732.85" y="38.26" width="1.7" height="30.58"/><rect class="cls-6" x="711.74" y="38.28" width="1.7" height="30.58"/><rect class="cls-6" x="674.18" y="38.3" width="0.85" height="30.58"/><rect class="cls-6" x="666.5" y="38.3" width="0.85" height="57.08"/><rect class="cls-13" x="24.04" y="103.34" width="6.51" height="3.68"/><rect class="cls-14" x="30.44" y="102.55" width="0.95" height="5.2"/><path class="cls-15" d="M24,101.58v7.34H23l-.06-.14c-.65-1.25-.53-6.08,0-7.19l.05-.11h1l0,.1h0"/><rect class="cls-16" x="24" y="53.69" width="6.51" height="3.68"/><rect class="cls-17" x="30.41" y="52.9" width="0.95" height="5.2"/><path class="cls-15" d="M24,51.92v7.34H23l-.06-.14c-.65-1.24-.53-6.07,0-7.18l0-.11h1l0,.09h0"/><rect class="cls-18" x="781.81" y="103.25" width="6.51" height="3.68"/><rect class="cls-19" x="780.96" y="102.46" width="0.95" height="5.2"/><path class="cls-15" d="M788.36,101.49v7.34h1l0-.14c.66-1.25.54-6.08,0-7.19l0-.11h-1v.1h0"/><rect class="cls-20" x="781.84" y="53.6" width="6.51" height="3.68"/><rect class="cls-21" x="780.99" y="52.81" width="0.95" height="5.2"/><path class="cls-15" d="M788.39,51.83v7.34h1l0-.14c.66-1.24.54-6.07,0-7.18l0-.11h-1v.09h0"/><path class="cls-22" d="M27.67,62a3.24,3.24,0,1,1-3.23-3.24A3.23,3.23,0,0,1,27.67,62Z"/><line class="cls-22" x1="27.54" y1="62.03" x2="31.48" y2="62.03"/><path class="cls-22" d="M27.67,98.78a3.24,3.24,0,1,1-3.23-3.24A3.23,3.23,0,0,1,27.67,98.78Z"/><line class="cls-22" x1="27.54" y1="98.84" x2="31.48" y2="98.84"/><path class="cls-22" d="M784.81,61.78a3.24,3.24,0,1,0,3.24-3.24A3.24,3.24,0,0,0,784.81,61.78Z"/><line class="cls-22" x1="784.94" y1="61.84" x2="781.01" y2="61.84"/><path class="cls-22" d="M784.81,98.59a3.24,3.24,0,1,0,3.24-3.24A3.23,3.23,0,0,0,784.81,98.59Z"/><line class="cls-22" x1="784.94" y1="98.65" x2="781.01" y2="98.65"/><polygon class="cls-12" points="781.02 64.93 781.02 66.05 786.85 66.05 790.57 69.42 790.57 80.31 790.57 80.44 790.57 91.34 786.85 94.71 781.02 94.71 781.02 95.83 768.11 95.83 768.11 80.44 768.11 80.31 768.11 64.93 781.02 64.93"/><polygon class="cls-12" points="31.41 64.93 31.41 66.05 25.59 66.05 21.86 69.42 21.86 80.31 21.86 80.44 21.86 91.34 25.59 94.71 31.41 94.71 31.41 95.83 44.32 95.83 44.32 80.44 44.32 80.31 44.32 64.93 31.41 64.93"/><rect class="cls-12" x="667.32" y="70.98" width="10.55" height="24.46"/><rect class="cls-12" x="667.31" y="116.88" width="10.55" height="5.46"/><line class="cls-7" x1="683.38" y1="98.21" x2="677.82" y2="116.97"/><path class="cls-7" d="M683.38,98.16a19.08,19.08,0,0,0-5.49-1"/><rect class="cls-23" x="704.47" y="95.32" width="30.46" height="27.01"/><rect class="cls-23" x="713.47" y="37.82" width="21.46" height="32.76"/><rect class="cls-23" x="667.72" y="38.32" width="7.71" height="30.79"/><rect class="cls-24" x="735.25" y="107.65" width="27.12" height="18.45"/><line class="cls-24" x1="735.25" y1="113.32" x2="762.37" y2="113.32"/><line class="cls-24" x1="735.25" y1="119.57" x2="762.37" y2="119.57"/><rect class="cls-24" x="735.2" y="34.28" width="27.12" height="18.45"/><line class="cls-24" x1="735.2" y1="47.06" x2="762.32" y2="47.06"/><line class="cls-24" x1="735.2" y1="40.81" x2="762.32" y2="40.81"/><rect class="cls-6" x="766.35" y="37.92" width="1.7" height="30.58"/><rect class="cls-6" x="766.35" y="91.59" width="1.7" height="30.58"/><rect class="cls-6" x="764.9" y="67.31" width="1.13" height="25.33"/><rect class="cls-25" x="764.92" y="44.79" width="1.13" height="25.33"/><rect class="cls-6" x="44.23" y="91.45" width="1.7" height="30.58"/><rect class="cls-6" x="44.23" y="64.4" width="1.7" height="3.96"/><rect class="cls-6" x="46.24" y="67.3" width="1.13" height="25.33"/><rect class="cls-25" x="46.25" y="89.92" width="1.13" height="25.33"/><rect class="cls-6" x="71.16" y="96.8" width="1.13" height="25.33"/><rect class="cls-25" x="71.16" y="74.21" width="1.13" height="25.33"/><rect class="cls-3" x="44.66" y="122.41" width="12.29" height="3.54"/><rect class="cls-6" x="709.67" y="32.78" width="27.14" height="1.13"/><rect class="cls-6" x="709.75" y="127.01" width="27.14" height="1.13"/><line class="cls-7" x1="57.29" y1="129.46" x2="68.81" y2="126.04"/><path class="cls-7" d="M57.26,129.46a11.68,11.68,0,0,1-.63-3.38"/></g><g id="INNREDNING"><rect class="cls-6" x="111.87" y="38.1" width="0.85" height="57.2"/><rect class="cls-10" x="112.73" y="38.14" width="38.41" height="8.51"/><rect class="cls-26" x="135.79" y="39.89" width="8.5" height="5.67" rx="1.42" ry="1.42"/><circle class="cls-27" cx="139.98" cy="42.79" r="0.64"/><path class="cls-28" d="M88.16,120.76c0,.22-.36.4-.81.4H78.23c-.44,0-.8-.18-.8-.4v-4.58c0-.22.36-.4.8-.4h9.12c.45,0,.81.18.81.4Z"/><path class="cls-29" d="M88.16,120.76c0,.22-.36.4-.81.4H78.23c-.44,0-.8-.18-.8-.4v-4.58c0-.22.36-.4.8-.4h9.12c.45,0,.81.18.81.4Z"/><path class="cls-30" d="M88.39,122.3v-1.58c0-.2-.33-.36-.73-.36H78c-.39,0-.72.16-.72.36v1.58Z"/><path class="cls-28" d="M126.25,120.69c0,.22-.76.39-1.71.39H105.19c-.94,0-1.71-.17-1.71-.39V116.2c0-.22.77-.4,1.71-.4h19.35c.95,0,1.71.18,1.71.4Z"/><path class="cls-31" d="M126.25,120.69c0,.22-.76.39-1.71.39H105.19c-.94,0-1.71-.17-1.71-.39V116.2c0-.22.77-.4,1.71-.4h19.35c.95,0,1.71.18,1.71.4Z"/><path class="cls-30" d="M126.73,122.22v-1.58c0-.2-.69-.36-1.54-.36H104.71c-.85,0-1.54.16-1.54.36v1.58Z"/><path class="cls-32" d="M102.3,121.54c0,.25-.42.46-.94.46H90.68c-.52,0-.94-.21-.94-.46v-5.22c0-.26.42-.46.94-.46h10.68c.52,0,.94.2.94.46Z"/><path class="cls-33" d="M102.3,121.54c0,.25-.42.46-.94.46H90.68c-.52,0-.94-.21-.94-.46v-5.22c0-.26.42-.46.94-.46h10.68c.52,0,.94.2.94.46Z"/><polygon class="cls-34" points="91.18 119.98 89.8 122.36 102.07 122.36 100.7 119.98 91.18 119.98"/><path class="cls-32" d="M141,121.46c0,.26-.42.46-.94.46H129.41c-.52,0-.95-.2-.95-.46v-5.22c0-.26.43-.46.95-.46h10.68c.52,0,.94.2.94.46Z"/><path class="cls-35" d="M141,121.46c0,.26-.42.46-.94.46H129.41c-.52,0-.95-.2-.95-.46v-5.22c0-.26.43-.46.95-.46h10.68c.52,0,.94.2.94.46Z"/><polygon class="cls-34" points="129.91 119.9 128.53 122.28 140.8 122.28 139.42 119.9 129.91 119.9"/><path class="cls-32" d="M179.92,121.54c0,.26-.42.46-.95.46H168.29c-.52,0-.94-.2-.94-.46v-5.22c0-.25.42-.46.94-.46H179c.53,0,.95.21.95.46Z"/><path class="cls-36" d="M179.92,121.54c0,.26-.42.46-.95.46H168.29c-.52,0-.94-.2-.94-.46v-5.22c0-.25.42-.46.94-.46H179c.53,0,.95.21.95.46Z"/><polygon class="cls-34" points="168.79 119.98 167.42 122.36 179.69 122.36 178.31 119.98 168.79 119.98"/><path class="cls-32" d="M219.35,121.54c0,.26-.42.46-.94.46H207.73c-.52,0-.95-.2-.95-.46v-5.22c0-.26.43-.46.95-.46h10.68c.52,0,.94.2.94.46Z"/><path class="cls-37" d="M219.35,121.54c0,.26-.42.46-.94.46H207.73c-.52,0-.95-.2-.95-.46v-5.22c0-.26.43-.46.95-.46h10.68c.52,0,.94.2.94.46Z"/><polygon class="cls-34" points="208.23 119.98 206.85 122.36 219.12 122.36 217.74 119.98 208.23 119.98"/><path class="cls-32" d="M258.31,121.54c0,.26-.42.46-.94.46H246.69c-.52,0-.94-.2-.94-.46v-5.22c0-.25.42-.46.94-.46h10.68c.52,0,.94.21.94.46Z"/><path class="cls-38" d="M258.31,121.54c0,.26-.42.46-.94.46H246.69c-.52,0-.94-.2-.94-.46v-5.22c0-.25.42-.46.94-.46h10.68c.52,0,.94.21.94.46Z"/><polygon class="cls-34" points="247.19 119.98 245.81 122.36 258.08 122.36 256.7 119.98 247.19 119.98"/><path class="cls-28" d="M165.2,120.93c0,.22-.76.4-1.71.4H144.15c-1,0-1.71-.18-1.71-.4v-4.48c0-.22.76-.4,1.71-.4h19.34c.95,0,1.71.18,1.71.4Z"/><path class="cls-39" d="M165.2,120.93c0,.22-.76.4-1.71.4H144.15c-1,0-1.71-.18-1.71-.4v-4.48c0-.22.76-.4,1.71-.4h19.34c.95,0,1.71.18,1.71.4Z"/><path class="cls-30" d="M165.69,122.47v-1.58c0-.2-.69-.37-1.54-.37H143.66c-.84,0-1.53.17-1.53.37v1.58Z"/><path class="cls-28" d="M204,120.83c0,.21-.76.39-1.71.39H183c-.94,0-1.71-.18-1.71-.39v-4.49c0-.22.77-.4,1.71-.4h19.35c.95,0,1.71.18,1.71.4Z"/><path class="cls-40" d="M204,120.83c0,.21-.76.39-1.71.39H183c-.94,0-1.71-.18-1.71-.39v-4.49c0-.22.77-.4,1.71-.4h19.35c.95,0,1.71.18,1.71.4Z"/><path class="cls-30" d="M204.52,122.36v-1.58c0-.2-.69-.37-1.54-.37H182.5c-.85,0-1.54.17-1.54.37v1.58Z"/><path class="cls-28" d="M243.19,120.83c0,.21-.76.39-1.71.39H222.14c-.95,0-1.71-.18-1.71-.39v-4.49c0-.22.76-.4,1.71-.4h19.34c1,0,1.71.18,1.71.4Z"/><path class="cls-41" d="M243.19,120.83c0,.21-.76.39-1.71.39H222.14c-.95,0-1.71-.18-1.71-.39v-4.49c0-.22.76-.4,1.71-.4h19.34c1,0,1.71.18,1.71.4Z"/><path class="cls-30" d="M243.67,122.36v-1.58c0-.2-.68-.37-1.54-.37H221.65c-.85,0-1.53.17-1.53.37v1.58Z"/><path class="cls-28" d="M282,120.72c0,.22-.76.39-1.71.39H261c-.94,0-1.7-.17-1.7-.39v-4.49c0-.22.76-.4,1.7-.4h19.35c.95,0,1.71.18,1.71.4Z"/><path class="cls-42" d="M282,120.72c0,.22-.76.39-1.71.39H261c-.94,0-1.7-.17-1.7-.39v-4.49c0-.22.76-.4,1.7-.4h19.35c.95,0,1.71.18,1.71.4Z"/><path class="cls-30" d="M282.5,122.25v-1.58c0-.2-.69-.36-1.54-.36H260.48c-.85,0-1.54.16-1.54.36v1.58Z"/><path class="cls-28" d="M321.35,120.93c0,.22-.76.4-1.71.4H300.3c-.95,0-1.71-.18-1.71-.4v-4.48c0-.22.76-.4,1.71-.4h19.34c.95,0,1.71.18,1.71.4Z"/><path class="cls-43" d="M321.35,120.93c0,.22-.76.4-1.71.4H300.3c-.95,0-1.71-.18-1.71-.4v-4.48c0-.22.76-.4,1.71-.4h19.34c.95,0,1.71.18,1.71.4Z"/><path class="cls-30" d="M321.83,122.47v-1.58c0-.2-.68-.37-1.54-.37H299.81c-.85,0-1.53.17-1.53.37v1.58Z"/><path class="cls-28" d="M361,120.61c0,.22-.76.39-1.7.39H339.92c-.94,0-1.71-.17-1.71-.39v-4.49c0-.22.77-.39,1.71-.39h19.35c.94,0,1.7.17,1.7.39Z"/><path class="cls-44" d="M361,120.61c0,.22-.76.39-1.7.39H339.92c-.94,0-1.71-.17-1.71-.39v-4.49c0-.22.77-.39,1.71-.39h19.35c.94,0,1.7.17,1.7.39Z"/><path class="cls-30" d="M361.46,122.14v-1.58c0-.2-.69-.36-1.54-.36H339.44c-.85,0-1.54.16-1.54.36v1.58Z"/><path class="cls-28" d="M399.67,120.83c0,.21-.76.39-1.71.39H378.61c-.94,0-1.71-.18-1.71-.39v-4.49c0-.22.77-.4,1.71-.4H398c1,0,1.71.18,1.71.4Z"/><path class="cls-45" d="M399.67,120.83c0,.21-.76.39-1.71.39H378.61c-.94,0-1.71-.18-1.71-.39v-4.49c0-.22.77-.4,1.71-.4H398c1,0,1.71.18,1.71.4Z"/><path class="cls-30" d="M400.15,122.36v-1.58c0-.2-.69-.37-1.54-.37H378.13c-.85,0-1.54.17-1.54.37v1.58Z"/><path class="cls-28" d="M440.19,120.83c0,.21-.76.39-1.71.39H419.14c-.95,0-1.71-.18-1.71-.39v-4.49c0-.22.76-.4,1.71-.4h19.34c.95,0,1.71.18,1.71.4Z"/><path class="cls-44" d="M440.19,120.83c0,.21-.76.39-1.71.39H419.14c-.95,0-1.71-.18-1.71-.39v-4.49c0-.22.76-.4,1.71-.4h19.34c.95,0,1.71.18,1.71.4Z"/><path class="cls-30" d="M440.68,122.36v-1.58c0-.2-.69-.37-1.54-.37H418.65c-.84,0-1.53.17-1.53.37v1.58Z"/><path class="cls-28" d="M479,120.72c0,.22-.77.39-1.71.39H457.92c-.94,0-1.71-.17-1.71-.39v-4.49c0-.22.77-.4,1.71-.4h19.35c.94,0,1.71.18,1.71.4Z"/><path class="cls-44" d="M479,120.72c0,.22-.77.39-1.71.39H457.92c-.94,0-1.71-.17-1.71-.39v-4.49c0-.22.77-.4,1.71-.4h19.35c.94,0,1.71.18,1.71.4Z"/><path class="cls-30" d="M479.46,122.25v-1.58c0-.2-.69-.36-1.54-.36H457.44c-.85,0-1.54.16-1.54.36v1.58Z"/><path class="cls-28" d="M518.6,120.83c0,.21-.76.39-1.7.39H497.55c-.94,0-1.71-.18-1.71-.39v-4.49c0-.22.77-.4,1.71-.4H516.9c.94,0,1.7.18,1.7.4Z"/><path class="cls-46" d="M518.6,120.83c0,.21-.76.39-1.7.39H497.55c-.94,0-1.71-.18-1.71-.39v-4.49c0-.22.77-.4,1.71-.4H516.9c.94,0,1.7.18,1.7.4Z"/><path class="cls-30" d="M519.09,122.36v-1.58c0-.2-.69-.37-1.54-.37H497.06c-.84,0-1.53.17-1.53.37v1.58Z"/><path class="cls-28" d="M557.38,120.64c0,.22-.76.39-1.7.39H536.33c-.94,0-1.71-.17-1.71-.39v-4.49c0-.22.77-.4,1.71-.4h19.35c.94,0,1.7.18,1.7.4Z"/><path class="cls-47" d="M557.38,120.64c0,.22-.76.39-1.7.39H536.33c-.94,0-1.71-.17-1.71-.39v-4.49c0-.22.77-.4,1.71-.4h19.35c.94,0,1.7.18,1.7.4Z"/><path class="cls-30" d="M557.87,122.17v-1.58c0-.2-.69-.36-1.54-.36H535.85c-.85,0-1.54.16-1.54.36v1.58Z"/><path class="cls-28" d="M597,120.86c0,.21-.76.39-1.71.39H575.91c-.95,0-1.71-.18-1.71-.39v-4.49c0-.22.76-.4,1.71-.4h19.34c1,0,1.71.18,1.71.4Z"/><path class="cls-44" d="M597,120.86c0,.21-.76.39-1.71.39H575.91c-.95,0-1.71-.18-1.71-.39v-4.49c0-.22.76-.4,1.71-.4h19.34c1,0,1.71.18,1.71.4Z"/><path class="cls-30" d="M597.45,122.39v-1.58c0-.2-.69-.37-1.54-.37H575.42c-.84,0-1.53.17-1.53.37v1.58Z"/><path class="cls-28" d="M637.11,120.77c0,.22-.76.4-1.71.4H616.06c-.95,0-1.71-.18-1.71-.4v-4.48c0-.22.76-.4,1.71-.4H635.4c1,0,1.71.18,1.71.4Z"/><path class="cls-44" d="M637.11,120.77c0,.22-.76.4-1.71.4H616.06c-.95,0-1.71-.18-1.71-.4v-4.48c0-.22.76-.4,1.71-.4H635.4c1,0,1.71.18,1.71.4Z"/><path class="cls-30" d="M637.6,122.31v-1.58c0-.2-.69-.37-1.54-.37H615.57c-.84,0-1.53.17-1.53.37v1.58Z"/><path class="cls-28" d="M664.16,120.76c0,.22-.36.4-.81.4h-9.12c-.44,0-.8-.18-.8-.4v-4.58c0-.22.36-.4.8-.4h9.12c.45,0,.81.18.81.4Z"/><path class="cls-48" d="M664.16,120.76c0,.22-.36.4-.81.4h-9.12c-.44,0-.8-.18-.8-.4v-4.58c0-.22.36-.4.8-.4h9.12c.45,0,.81.18.81.4Z"/><path class="cls-30" d="M664.39,122.3v-1.58c0-.2-.33-.36-.73-.36H654c-.4,0-.73.16-.73.36v1.58Z"/><path class="cls-32" d="M296.59,121.43c0,.26-.42.47-.94.47H285c-.52,0-.94-.21-.94-.47v-5.22c0-.25.42-.46.94-.46h10.68c.52,0,.94.21.94.46Z"/><path class="cls-49" d="M296.59,121.43c0,.26-.42.47-.94.47H285c-.52,0-.94-.21-.94-.47v-5.22c0-.25.42-.46.94-.46h10.68c.52,0,.94.21.94.46Z"/><polygon class="cls-50" points="285.47 119.88 284.09 122.26 296.36 122.26 294.98 119.88 285.47 119.88"/><path class="cls-32" d="M336.36,121.44c0,.25-.42.46-.94.46H324.74c-.53,0-.95-.21-.95-.46v-5.23c0-.25.42-.46.95-.46h10.68c.52,0,.94.21.94.46Z"/><path class="cls-51" d="M336.36,121.44c0,.25-.42.46-.94.46H324.74c-.53,0-.95-.21-.95-.46v-5.23c0-.25.42-.46.95-.46h10.68c.52,0,.94.21.94.46Z"/><polygon class="cls-50" points="325.23 119.88 323.86 122.26 336.13 122.26 334.75 119.88 325.23 119.88"/><path class="cls-32" d="M375.32,121.33c0,.25-.42.46-.94.46H363.7c-.53,0-.95-.21-.95-.46v-5.22c0-.26.42-.47.95-.47h10.68c.52,0,.94.21.94.47Z"/><path class="cls-52" d="M375.32,121.33c0,.25-.42.46-.94.46H363.7c-.53,0-.95-.21-.95-.46v-5.22c0-.26.42-.47.95-.47h10.68c.52,0,.94.21.94.47Z"/><polygon class="cls-50" points="364.19 119.77 362.82 122.15 375.09 122.15 373.71 119.77 364.19 119.77"/><path class="cls-32" d="M414.94,121.43c0,.26-.42.46-.95.46H403.31c-.52,0-.94-.2-.94-.46v-5.22c0-.25.42-.46.94-.46H414c.53,0,.95.21.95.46Z"/><path class="cls-53" d="M414.94,121.43c0,.26-.42.46-.95.46H403.31c-.52,0-.94-.2-.94-.46v-5.22c0-.25.42-.46.94-.46H414c.53,0,.95.21.95.46Z"/><polygon class="cls-50" points="403.81 119.87 402.44 122.26 414.7 122.26 413.33 119.87 403.81 119.87"/><path class="cls-32" d="M454.71,121.44c0,.25-.42.46-.95.46H443.08c-.52,0-.94-.21-.94-.46v-5.23c0-.25.42-.46.94-.46h10.68c.53,0,.95.21.95.46Z"/><path class="cls-54" d="M454.71,121.44c0,.25-.42.46-.95.46H443.08c-.52,0-.94-.21-.94-.46v-5.23c0-.25.42-.46.94-.46h10.68c.53,0,.95.21.95.46Z"/><polygon class="cls-50" points="443.58 119.88 442.21 122.26 454.48 122.26 453.1 119.88 443.58 119.88"/><path class="cls-32" d="M493.79,121.44c0,.25-.42.46-.94.46H482.17c-.52,0-.95-.21-.95-.46v-5.23c0-.25.43-.46.95-.46h10.68c.52,0,.94.21.94.46Z"/><path class="cls-54" d="M493.79,121.44c0,.25-.42.46-.94.46H482.17c-.52,0-.95-.21-.95-.46v-5.23c0-.25.43-.46.95-.46h10.68c.52,0,.94.21.94.46Z"/><polygon class="cls-50" points="482.67 119.88 481.29 122.26 493.56 122.26 492.18 119.88 482.67 119.88"/><path class="cls-32" d="M533,121.44c0,.25-.42.46-.94.46H521.33c-.52,0-.94-.21-.94-.46v-5.23c0-.25.42-.46.94-.46H532c.52,0,.94.21.94.46Z"/><path class="cls-54" d="M533,121.44c0,.25-.42.46-.94.46H521.33c-.52,0-.94-.21-.94-.46v-5.23c0-.25.42-.46.94-.46H532c.52,0,.94.21.94.46Z"/><polygon class="cls-50" points="521.83 119.88 520.46 122.26 532.72 122.26 531.35 119.88 521.83 119.88"/><path class="cls-32" d="M572.25,121.44c0,.25-.42.46-.94.46H560.63c-.53,0-1-.21-1-.46v-5.23c0-.25.42-.46,1-.46h10.68c.52,0,.94.21.94.46Z"/><path class="cls-55" d="M572.25,121.44c0,.25-.42.46-.94.46H560.63c-.53,0-1-.21-1-.46v-5.23c0-.25.42-.46,1-.46h10.68c.52,0,.94.21.94.46Z"/><polygon class="cls-50" points="561.12 119.88 559.75 122.26 572.02 122.26 570.64 119.88 561.12 119.88"/><path class="cls-32" d="M612.2,121.33c0,.25-.42.46-1,.46H600.57c-.52,0-.94-.21-.94-.46v-5.22c0-.26.42-.47.94-.47h10.68c.53,0,1,.21,1,.47Z"/><path class="cls-56" d="M612.2,121.33c0,.25-.42.46-1,.46H600.57c-.52,0-.94-.21-.94-.46v-5.22c0-.26.42-.47.94-.47h10.68c.53,0,1,.21,1,.47Z"/><polygon class="cls-50" points="601.07 119.77 599.7 122.15 611.97 122.15 610.59 119.77 601.07 119.77"/><path class="cls-32" d="M652,121.44c0,.25-.42.46-.94.46H640.36c-.52,0-1-.21-1-.46v-5.23c0-.25.43-.46,1-.46H651c.52,0,.94.21.94.46Z"/><path class="cls-55" d="M652,121.44c0,.25-.42.46-.94.46H640.36c-.52,0-1-.21-1-.46v-5.23c0-.25.43-.46,1-.46H651c.52,0,.94.21.94.46Z"/><polygon class="cls-50" points="640.86 119.88 639.48 122.26 651.75 122.26 650.37 119.88 640.86 119.88"/><rect class="cls-6" x="151.23" y="38.08" width="0.85" height="57.2"/><rect class="cls-10" x="152" y="38.04" width="38.41" height="8.51"/><rect class="cls-57" x="176.34" y="39.63" width="8.5" height="5.67" rx="1.42" ry="1.42"/><circle class="cls-27" cx="179.66" cy="42.8" r="0.64"/><rect class="cls-10" x="191.24" y="38.07" width="38.41" height="8.51"/><rect class="cls-58" x="215.5" y="39.91" width="8.5" height="5.67" rx="1.42" ry="1.42"/><circle class="cls-27" cx="218.62" cy="42.88" r="0.64"/><rect class="cls-6" x="229.66" y="37.96" width="0.85" height="57.2"/><rect class="cls-10" x="230.53" y="38.07" width="38.41" height="8.51"/><rect class="cls-59" x="253.86" y="39.66" width="8.5" height="5.67" rx="1.42" ry="1.42"/><circle class="cls-27" cx="257.5" cy="42.88" r="0.64"/><rect class="cls-6" x="268.94" y="38.02" width="0.85" height="57.2"/><rect class="cls-6" x="308.22" y="38.07" width="0.85" height="57.2"/><rect class="cls-6" x="347.48" y="38.03" width="0.85" height="57.2"/><rect class="cls-6" x="386.79" y="38.05" width="0.85" height="57.2"/><rect class="cls-6" x="426.16" y="38.07" width="0.85" height="57.2"/><rect class="cls-6" x="465.43" y="37.97" width="0.85" height="57.2"/><rect class="cls-6" x="504.81" y="38.07" width="0.85" height="57.2"/><rect class="cls-6" x="544.15" y="38.13" width="0.85" height="57.2"/><rect class="cls-6" x="583.52" y="37.99" width="0.85" height="57.2"/><rect class="cls-6" x="622.9" y="37.93" width="0.85" height="57.2"/><rect class="cls-10" x="269.81" y="38.09" width="38.41" height="8.51"/><rect class="cls-60" x="294.14" y="39.68" width="8.5" height="5.67" rx="1.42" ry="1.42"/><rect class="cls-10" x="309.07" y="38.11" width="38.41" height="8.51"/><rect class="cls-61" x="333.4" y="39.7" width="8.5" height="5.67" rx="1.42" ry="1.42"/><rect class="cls-10" x="348.35" y="38.14" width="38.41" height="8.51"/><rect class="cls-62" x="372.68" y="39.73" width="8.5" height="5.67" rx="1.42" ry="1.42"/><rect class="cls-10" x="387.68" y="38.14" width="38.41" height="8.51"/><rect class="cls-63" x="412.01" y="39.73" width="8.5" height="5.67" rx="1.42" ry="1.42"/><rect class="cls-10" x="426.99" y="38.09" width="38.41" height="8.51"/><rect class="cls-64" x="451.32" y="39.68" width="8.5" height="5.67" rx="1.42" ry="1.42"/><rect class="cls-10" x="466.28" y="38.14" width="38.41" height="8.51"/><rect class="cls-65" x="490.61" y="39.73" width="8.5" height="5.67" rx="1.42" ry="1.42"/><rect class="cls-10" x="505.65" y="38.19" width="38.41" height="8.51"/><rect class="cls-66" x="529.98" y="39.78" width="8.5" height="5.67" rx="1.42" ry="1.42"/><rect class="cls-10" x="545.07" y="38.14" width="38.41" height="8.51"/><rect class="cls-67" x="569.41" y="39.73" width="8.5" height="5.67" rx="1.42" ry="1.42"/><rect class="cls-10" x="584.38" y="38.14" width="38.41" height="8.51"/><rect class="cls-68" x="607.3" y="39.76" width="8.5" height="5.67" rx="1.42" ry="1.42"/><rect class="cls-10" x="623.87" y="38.17" width="42.71" height="8.51"/><rect class="cls-69" x="650.5" y="39.71" width="8.5" height="5.67" rx="1.42" ry="1.42"/><rect class="cls-6" x="190.39" y="38.01" width="0.85" height="57.2"/><rect class="cls-6" x="72.47" y="38.01" width="0.85" height="57.2"/><rect class="cls-10" x="73.41" y="38.16" width="38.41" height="8.51"/><rect class="cls-70" x="96.64" y="39.9" width="8.5" height="5.67" rx="1.42" ry="1.42"/><rect class="cls-10" x="44.36" y="38.41" width="28.02" height="7.84"/><rect class="cls-71" x="60.7" y="39.6" width="8.5" height="5.67" rx="1.42" ry="1.42"/><rect class="cls-72" x="73.51" y="46.78" width="19.07" height="48.37"/><path class="cls-73" d="M90,92.39a.36.36,0,0,1,0,.1,1.38,1.38,0,0,1-.09.23v.37a.56.56,0,0,1-.57.56h-.36c-.5.37-3,.65-6,.65s-5.58-.28-6.05-.66h-.39a.57.57,0,0,1-.57-.57v-.45c0-.1-.06-.23-.09-.38v0a18.09,18.09,0,0,1,0-5.16l.06-.26a1.94,1.94,0,0,1,.07-.22v-.41a.57.57,0,0,1,.57-.57h.31a2.14,2.14,0,0,1,.6-.21A26.47,26.47,0,0,1,82.89,85a26.59,26.59,0,0,1,5.54.44l.11,0h0a1.94,1.94,0,0,1,.42.17h.31a.57.57,0,0,1,.56.57v.38l0,.09a2.68,2.68,0,0,1,.11.49,16,16,0,0,1,.17,2.49A13.2,13.2,0,0,1,90,92.39Z"/><path class="cls-74" d="M76.44,87.46v0l-.61-.61v0Z"/><path class="cls-75" d="M74,88.08h0V47.89a.56.56,0,0,1,.56-.55H91.48a.56.56,0,0,1,.56.55V88.08Z"/><rect class="cls-72" x="112.88" y="46.78" width="19.07" height="48.37"/><path class="cls-76" d="M129.34,92.39l0,.1a1.38,1.38,0,0,1-.09.23v.37a.56.56,0,0,1-.56.56h-.36c-.5.37-3,.65-6.05.65s-5.59-.28-6.06-.66h-.38a.56.56,0,0,1-.57-.57v-.45a2.28,2.28,0,0,1-.1-.38v0a14.25,14.25,0,0,1-.2-2.6,15.13,15.13,0,0,1,.19-2.56,1.1,1.1,0,0,1,.06-.26,1,1,0,0,1,.07-.22v-.41a.57.57,0,0,1,.56-.57h.32a2,2,0,0,1,.59-.21,26.61,26.61,0,0,1,5.53-.44,26.52,26.52,0,0,1,5.54.44l.11,0h0a1.94,1.94,0,0,1,.42.17h.3a.57.57,0,0,1,.57.57v.38l0,.09a1.66,1.66,0,0,1,.11.49,14.64,14.64,0,0,1,.18,2.49A13.2,13.2,0,0,1,129.34,92.39Z"/><path class="cls-75" d="M113.42,88.08h0V47.89a.56.56,0,0,1,.57-.55h16.87a.57.57,0,0,1,.57.55V88.08Z"/><rect class="cls-72" x="152.26" y="46.59" width="19.07" height="48.56"/><path class="cls-77" d="M168.71,92.2a.36.36,0,0,1,0,.1,1.1,1.1,0,0,1-.09.23v.37a.57.57,0,0,1-.57.57h-.36c-.5.36-3,.64-6,.64s-5.58-.28-6.05-.65h-.39a.58.58,0,0,1-.57-.57v-.46c0-.1-.06-.23-.09-.38v0a15.4,15.4,0,0,1-.19-2.6,15.17,15.17,0,0,1,.18-2.55l.06-.27c0-.08.05-.16.07-.22V86a.57.57,0,0,1,.57-.57h.31a2.14,2.14,0,0,1,.6-.21,35,35,0,0,1,11.07,0l.11,0h0a1.57,1.57,0,0,1,.42.18h.31a.56.56,0,0,1,.56.56v.38l0,.1a2.4,2.4,0,0,1,.11.48,16,16,0,0,1,.17,2.49A13.2,13.2,0,0,1,168.71,92.2Z"/><path class="cls-74" d="M155.19,87.27v0l-.61-.61v0Z"/><path class="cls-75" d="M152.79,88.08h0V47.89a.56.56,0,0,1,.56-.55h16.88a.56.56,0,0,1,.56.55V88.08Z"/><rect class="cls-72" x="191.45" y="46.72" width="19.07" height="48.37"/><path class="cls-78" d="M207.9,92.33l0,.1a.87.87,0,0,1-.08.23V93a.57.57,0,0,1-.57.57h-.36c-.5.37-3,.65-6.05.65s-5.59-.29-6.05-.66h-.39a.57.57,0,0,1-.57-.57v-.45c0-.1-.07-.23-.1-.38v0a14.45,14.45,0,0,1-.19-2.61,15.17,15.17,0,0,1,.18-2.55,1.31,1.31,0,0,1,.06-.27,1,1,0,0,1,.07-.21v-.41a.56.56,0,0,1,.56-.57h.32a1.71,1.71,0,0,1,.6-.21,34.2,34.2,0,0,1,11.06,0l.12,0h0a1.94,1.94,0,0,1,.42.17h.31a.56.56,0,0,1,.56.57v.38a.25.25,0,0,1,0,.09,2,2,0,0,1,.12.48,16.14,16.14,0,0,1,.17,2.49A13.31,13.31,0,0,1,207.9,92.33Z"/><path class="cls-74" d="M194.38,87.4v0l-.6-.6v0Z"/><path class="cls-75" d="M192,88.08h0V47.89a.57.57,0,0,1,.57-.55h16.87a.56.56,0,0,1,.57.55V88.08Z"/><rect class="cls-72" x="230.7" y="46.66" width="19.07" height="48.5"/><path class="cls-79" d="M247.15,92.26l0,.11a1,1,0,0,1-.08.23V93a.57.57,0,0,1-.57.57h-.36c-.5.37-3,.65-6.05.65s-5.59-.29-6.05-.66h-.39a.58.58,0,0,1-.57-.57v-.45c0-.1-.07-.23-.1-.38v0a14.41,14.41,0,0,1-.19-2.6,15.17,15.17,0,0,1,.18-2.55,1.31,1.31,0,0,1,.06-.27,1.14,1.14,0,0,1,.07-.22v-.41a.56.56,0,0,1,.56-.56H234a2,2,0,0,1,.6-.22,26.47,26.47,0,0,1,5.53-.44,25.63,25.63,0,0,1,5.53.45.53.53,0,0,1,.12,0h0a1.94,1.94,0,0,1,.42.17h.31a.56.56,0,0,1,.56.57v.37a.3.3,0,0,1,0,.1,1.88,1.88,0,0,1,.12.48,16,16,0,0,1,.17,2.49A13.2,13.2,0,0,1,247.15,92.26Z"/><path class="cls-75" d="M231.23,88.08h0V47.89a.57.57,0,0,1,.57-.55h16.87a.56.56,0,0,1,.57.55V88.08Z"/><rect class="cls-72" x="270.01" y="46.72" width="19.07" height="48.5"/><path class="cls-80" d="M286.46,92.33a.44.44,0,0,1,0,.1,1.38,1.38,0,0,1-.09.23V93a.56.56,0,0,1-.57.57h-.36c-.5.37-3,.65-6.05.65s-5.58-.29-6.05-.66h-.39a.57.57,0,0,1-.57-.57v-.45c0-.1-.06-.23-.09-.38v0a15.44,15.44,0,0,1-.19-2.61,15.17,15.17,0,0,1,.18-2.55l.06-.27c0-.08.05-.15.07-.21v-.41a.56.56,0,0,1,.57-.57h.31a1.87,1.87,0,0,1,.6-.21,34.27,34.27,0,0,1,11.07,0l.11,0h0a1.94,1.94,0,0,1,.42.17h.31a.56.56,0,0,1,.56.57v.38l.05.09a2.57,2.57,0,0,1,.11.48,16.14,16.14,0,0,1,.17,2.49A13.31,13.31,0,0,1,286.46,92.33Z"/><path class="cls-75" d="M270.54,88.08h0V47.89a.56.56,0,0,1,.56-.55H288a.56.56,0,0,1,.56.55V88.08Z"/><rect class="cls-72" x="309.26" y="46.72" width="19.07" height="48.5"/><path class="cls-81" d="M325.71,92.33s0,.06,0,.1a1.38,1.38,0,0,1-.09.23V93a.56.56,0,0,1-.57.57h-.35c-.5.37-3,.65-6.06.65s-5.58-.29-6.05-.66h-.39a.57.57,0,0,1-.57-.57v-.45c0-.1-.06-.23-.09-.38v0a15.44,15.44,0,0,1-.19-2.61A15.17,15.17,0,0,1,311.5,87l.06-.27c0-.08.05-.15.07-.21v-.41a.56.56,0,0,1,.57-.57h.31a1.87,1.87,0,0,1,.6-.21,34.27,34.27,0,0,1,11.07,0l.11,0h0a1.94,1.94,0,0,1,.42.17h.31a.56.56,0,0,1,.56.57v.38l.05.09a2.57,2.57,0,0,1,.11.48,16.14,16.14,0,0,1,.17,2.49A13.31,13.31,0,0,1,325.71,92.33Z"/><path class="cls-74" d="M312.19,87.4v0l-.61-.6v0Z"/><path class="cls-75" d="M309.79,88.08h0V47.89a.56.56,0,0,1,.56-.55h16.88a.56.56,0,0,1,.56.55V88.08Z"/><rect class="cls-72" x="348.51" y="46.72" width="19.07" height="48.5"/><path class="cls-82" d="M365,92.33s0,.06,0,.1a1.38,1.38,0,0,1-.09.23V93a.56.56,0,0,1-.57.57h-.35c-.5.37-3,.65-6.06.65s-5.58-.29-6.05-.66h-.39a.57.57,0,0,1-.57-.57v-.45c0-.1-.06-.23-.09-.38v0a15.44,15.44,0,0,1-.19-2.61,15.17,15.17,0,0,1,.18-2.55l.06-.27c0-.08.05-.15.07-.21v-.41a.56.56,0,0,1,.57-.57h.31a1.87,1.87,0,0,1,.6-.21,34.27,34.27,0,0,1,11.07,0l.11,0h0a1.94,1.94,0,0,1,.42.17h.31a.56.56,0,0,1,.56.57v.38l.05.09a2.57,2.57,0,0,1,.11.48,16.14,16.14,0,0,1,.17,2.49A13.31,13.31,0,0,1,365,92.33Z"/><path class="cls-75" d="M349,88.08h0V47.89a.56.56,0,0,1,.56-.55h16.88a.56.56,0,0,1,.56.55V88.08Z"/><rect class="cls-72" x="387.82" y="46.78" width="19.07" height="48.37"/><path class="cls-83" d="M404.28,92.39l0,.1a1.38,1.38,0,0,1-.09.23v.37a.56.56,0,0,1-.56.56h-.36c-.5.37-3,.65-6.05.65s-5.59-.28-6.06-.66h-.39a.56.56,0,0,1-.56-.57v-.45a2.28,2.28,0,0,1-.1-.38v0a15.4,15.4,0,0,1-.19-2.6,14.15,14.15,0,0,1,.19-2.56,2,2,0,0,1,.05-.26l.07-.22v-.41a.58.58,0,0,1,.57-.57h.31a2.14,2.14,0,0,1,.6-.21,35,35,0,0,1,11.07,0l.11,0h0a2.26,2.26,0,0,1,.43.17h.3a.58.58,0,0,1,.57.57v.38l0,.09a2,2,0,0,1,.11.49,14.64,14.64,0,0,1,.18,2.49A13.93,13.93,0,0,1,404.28,92.39Z"/><path class="cls-75" d="M388.36,88.08h0V47.89a.56.56,0,0,1,.57-.55h16.87a.57.57,0,0,1,.57.55V88.08Z"/><rect class="cls-72" x="427.2" y="46.72" width="19.07" height="48.5"/><path class="cls-84" d="M443.65,92.33l0,.1a.87.87,0,0,1-.08.23V93a.57.57,0,0,1-.57.57h-.36c-.5.37-3,.65-6.05.65s-5.59-.29-6.05-.66h-.39a.57.57,0,0,1-.57-.57v-.45c0-.1-.07-.23-.1-.38v0a14.45,14.45,0,0,1-.19-2.61,15.17,15.17,0,0,1,.18-2.55,1.31,1.31,0,0,1,.06-.27,1,1,0,0,1,.07-.21v-.41a.56.56,0,0,1,.56-.57h.32a1.71,1.71,0,0,1,.6-.21,34.2,34.2,0,0,1,11.06,0l.12,0h0a1.94,1.94,0,0,1,.42.17H443a.56.56,0,0,1,.56.57v.38l.05.09a2.57,2.57,0,0,1,.11.48,16.14,16.14,0,0,1,.17,2.49A13.31,13.31,0,0,1,443.65,92.33Z"/><path class="cls-75" d="M427.73,88.08h0V47.89a.57.57,0,0,1,.57-.55h16.87a.56.56,0,0,1,.57.55V88.08Z"/><rect class="cls-72" x="466.45" y="46.78" width="19.07" height="48.37"/><path class="cls-85" d="M482.9,92.39l0,.1a.87.87,0,0,1-.08.23v.37a.57.57,0,0,1-.57.56h-.36c-.5.37-3,.65-6.05.65s-5.59-.28-6.05-.66h-.39a.57.57,0,0,1-.57-.57v-.45c0-.1-.07-.23-.1-.38v0a14.41,14.41,0,0,1-.19-2.6,15.31,15.31,0,0,1,.18-2.56,1.1,1.1,0,0,1,.06-.26,1,1,0,0,1,.07-.22v-.41a.57.57,0,0,1,.56-.57h.32a1.94,1.94,0,0,1,.6-.21,35,35,0,0,1,11.06,0l.12,0h0a1.94,1.94,0,0,1,.42.17h.31a.57.57,0,0,1,.56.57v.38l.05.09a2.68,2.68,0,0,1,.11.49,16,16,0,0,1,.17,2.49A13.2,13.2,0,0,1,482.9,92.39Z"/><path class="cls-75" d="M467,88.08h0V47.89a.57.57,0,0,1,.57-.55h16.87a.56.56,0,0,1,.57.55V88.08Z"/><rect class="cls-72" x="505.82" y="46.78" width="19.07" height="48.37"/><path class="cls-86" d="M522.28,92.39l0,.1a1.38,1.38,0,0,1-.09.23v.37a.56.56,0,0,1-.56.56h-.36c-.5.37-3,.65-6,.65s-5.59-.28-6.06-.66h-.39a.56.56,0,0,1-.56-.57v-.45a2.28,2.28,0,0,1-.1-.38v0a15.4,15.4,0,0,1-.19-2.6,14.15,14.15,0,0,1,.19-2.56,2,2,0,0,1,.05-.26l.07-.22v-.41a.58.58,0,0,1,.57-.57h.31a2.14,2.14,0,0,1,.6-.21,35,35,0,0,1,11.07,0l.11,0h0a2.26,2.26,0,0,1,.43.17h.3a.58.58,0,0,1,.57.57v.38l0,.09a2,2,0,0,1,.11.49,14.64,14.64,0,0,1,.18,2.49A13.93,13.93,0,0,1,522.28,92.39Z"/><path class="cls-75" d="M506.36,88.08h0V47.89a.56.56,0,0,1,.57-.55h16.87a.57.57,0,0,1,.57.55V88.08Z"/><rect class="cls-72" x="545.2" y="46.78" width="19.07" height="48.37"/><path class="cls-87" d="M561.65,92.39l0,.1a.87.87,0,0,1-.08.23v.37a.57.57,0,0,1-.57.56h-.36c-.5.37-3,.65-6.05.65s-5.59-.28-6-.66h-.39a.57.57,0,0,1-.57-.57v-.45c0-.1-.07-.23-.1-.38v0a14.41,14.41,0,0,1-.19-2.6,15.31,15.31,0,0,1,.18-2.56,1.1,1.1,0,0,1,.06-.26,1,1,0,0,1,.07-.22v-.41a.57.57,0,0,1,.56-.57h.32a1.94,1.94,0,0,1,.6-.21,35,35,0,0,1,11.06,0l.12,0h0a1.94,1.94,0,0,1,.42.17H561a.57.57,0,0,1,.56.57v.38l.05.09a2.68,2.68,0,0,1,.11.49,16,16,0,0,1,.17,2.49A13.2,13.2,0,0,1,561.65,92.39Z"/><path class="cls-75" d="M545.73,88.08h0V47.89a.57.57,0,0,1,.57-.55h16.87a.56.56,0,0,1,.57.55V88.08Z"/><rect class="cls-72" x="584.57" y="46.84" width="19.07" height="48.37"/><path class="cls-88" d="M601,92.45l0,.1a1.1,1.1,0,0,1-.09.23v.37a.57.57,0,0,1-.56.57H600c-.5.36-3,.64-6,.64s-5.59-.28-6.06-.65h-.39a.57.57,0,0,1-.56-.57v-.46a2.28,2.28,0,0,1-.1-.38v0a15.4,15.4,0,0,1-.19-2.6,14,14,0,0,1,.19-2.55,2.16,2.16,0,0,1,0-.27c0-.08,0-.16.07-.22v-.41a.58.58,0,0,1,.57-.57h.31a2.14,2.14,0,0,1,.6-.21,35,35,0,0,1,11.07,0l.11,0h0a1.78,1.78,0,0,1,.43.18h.3a.57.57,0,0,1,.57.56v.38a1,1,0,0,1,0,.1,1.87,1.87,0,0,1,.11.48,14.64,14.64,0,0,1,.18,2.49A13.93,13.93,0,0,1,601,92.45Z"/><path class="cls-74" d="M587.51,87.52v0l-.61-.61v0Z"/><path class="cls-75" d="M585.11,88.08h0V47.89a.56.56,0,0,1,.57-.55h16.87a.57.57,0,0,1,.57.55V88.08Z"/><rect class="cls-72" x="623.95" y="46.84" width="19.07" height="48.37"/><path class="cls-89" d="M640.4,92.45l0,.1a.76.76,0,0,1-.08.23v.37a.58.58,0,0,1-.57.57h-.36c-.5.36-3,.64-6.05.64s-5.59-.28-6-.65h-.39a.58.58,0,0,1-.57-.57v-.46c0-.1-.07-.23-.1-.38v0a14.41,14.41,0,0,1-.19-2.6,15.17,15.17,0,0,1,.18-2.55,1.18,1.18,0,0,1,.06-.27,1.14,1.14,0,0,1,.07-.22v-.41a.57.57,0,0,1,.56-.57h.32a1.94,1.94,0,0,1,.6-.21,35,35,0,0,1,11.06,0l.12,0h0a1.57,1.57,0,0,1,.42.18h.31a.56.56,0,0,1,.56.56v.38a.93.93,0,0,1,.05.1,2.4,2.4,0,0,1,.11.48,16,16,0,0,1,.17,2.49A13.2,13.2,0,0,1,640.4,92.45Z"/><path class="cls-75" d="M624.48,88.08h0V47.89a.57.57,0,0,1,.57-.55h16.87a.56.56,0,0,1,.57.55V88.08Z"/><rect class="cls-90" x="109.76" y="38.2" width="1.89" height="8.37"/><rect class="cls-90" x="149.3" y="38.21" width="1.89" height="8.37"/><rect class="cls-90" x="188.53" y="38.21" width="1.89" height="8.37"/><rect class="cls-90" x="227.76" y="38.21" width="1.89" height="8.37"/><rect class="cls-90" x="267.03" y="38.21" width="1.89" height="8.37"/><rect class="cls-90" x="306.35" y="38.21" width="1.89" height="8.37"/><rect class="cls-90" x="345.58" y="38.21" width="1.89" height="8.37"/><rect class="cls-90" x="384.87" y="38.21" width="1.89" height="8.37"/><rect class="cls-90" x="424.24" y="38.21" width="1.89" height="8.37"/><rect class="cls-90" x="463.52" y="38.21" width="1.89" height="8.37"/><rect class="cls-90" x="502.85" y="38.21" width="1.89" height="8.37"/><rect class="cls-90" x="542.24" y="38.21" width="1.89" height="8.37"/><rect class="cls-90" x="581.58" y="38.21" width="1.89" height="8.37"/><rect class="cls-90" x="620.95" y="38.21" width="1.89" height="8.37"/></g><g id="SYMBOLER"><polyline class="cls-91" points="769.07 33.24 737.96 33.24 737.96 2.1 769.07 2.1"/><path class="cls-92" d="M754.25,10.38a1.8,1.8,0,1,0-1.78-1.8,1.8,1.8,0,0,0,1.78,1.8"/><path class="cls-92" d="M752.47,19.35V16.53L750,17.83a1,1,0,0,1-1-1.78L752.46,14V12.69a1.79,1.79,0,1,1,3.58,0V19c0,1.11-.56,1.24-1,1.58v8.58a1,1,0,1,1-2,0V21.58l-3,1.64,0,3.79a1,1,0,1,1-2,0V22.7c0-.57,1-1.26,1-1.26l3.54-2.08"/><path class="cls-92" d="M755.26,16.06l1.71,3.6a1,1,0,1,0,1.88-.81L755.91,12"/><path class="cls-92" d="M761.86,17a1.51,1.51,0,1,0-1.5-1.51,1.5,1.5,0,0,0,1.5,1.51"/><path class="cls-92" d="M762.2,23.48l-2,6.15a.72.72,0,0,1-.9.47.72.72,0,0,1-.47-.9l1.91-5.82"/><path class="cls-92" d="M761.14,23.48l2,6.15a.72.72,0,0,0,.9.47.72.72,0,0,0,.47-.9l-1.91-5.82"/><path class="cls-92" d="M760.54,18.6a1.26,1.26,0,0,1,1.25-1.26h.07a1.26,1.26,0,0,1,1.26,1.26v4.32a1.25,1.25,0,0,1-1.26,1.26h-.07a1.25,1.25,0,0,1-1.25-1.26Z"/><path class="cls-92" d="M760.45,20.69l-1.57-.8a.63.63,0,0,0-.87.23.64.64,0,0,0,.24.87l2.2,1.3"/><polyline class="cls-92" points="769.07 33.24 752.09 33.24 752.09 30.73 769.07 30.73"/><rect class="cls-92" x="737.89" y="30.96" width="12.73" height="2.32"/><rect class="cls-92" x="737.89" y="27.64" width="9.34" height="3.94"/><rect class="cls-92" x="737.89" y="24.7" width="6.17" height="3.63"/><polygon class="cls-92" points="750.62 2.1 750.62 2.1 737.96 2.1 737.96 3.24 749 3.24 749 6 750.63 6 750.63 2.1 750.62 2.1"/><polyline class="cls-91" points="768.98 158.14 737.87 158.14 737.87 126.99 768.98 126.99"/><path class="cls-92" d="M754.16,135.27a1.8,1.8,0,1,0-1.78-1.8,1.79,1.79,0,0,0,1.78,1.8"/><path class="cls-92" d="M752.38,144.25v-2.82l-2.52,1.3a1,1,0,1,1-1-1.78l3.53-2.09v-1.28a1.79,1.79,0,1,1,3.58,0v6.27c0,1.11-.56,1.24-1,1.58V154a1,1,0,1,1-2,0v-7.53l-3,1.64,0,3.78a1,1,0,1,1-2,0v-4.31c0-.57,1.06-1.25,1.06-1.25l3.53-2.08"/><path class="cls-92" d="M755.17,141l1.71,3.6a1,1,0,1,0,1.88-.81l-2.94-6.82"/><path class="cls-92" d="M761.77,141.85a1.51,1.51,0,1,0-1.5-1.51,1.51,1.51,0,0,0,1.5,1.51"/><path class="cls-92" d="M762.11,148.37l-2,6.16a.72.72,0,0,1-.9.47.73.73,0,0,1-.47-.91l1.91-5.82"/><path class="cls-92" d="M761.05,148.37l2,6.16a.72.72,0,0,0,.9.47.75.75,0,0,0,.48-.91l-1.92-5.82"/><path class="cls-92" d="M760.45,143.5a1.25,1.25,0,0,1,1.25-1.26h.07A1.25,1.25,0,0,1,763,143.5v4.32a1.26,1.26,0,0,1-1.26,1.26h-.07a1.26,1.26,0,0,1-1.25-1.26Z"/><path class="cls-92" d="M760.36,145.59l-1.57-.81a.62.62,0,0,0-.86.23.64.64,0,0,0,.23.88l2.2,1.29"/><polyline class="cls-92" points="768.98 158.14 752 158.14 752 155.62 768.98 155.62"/><rect class="cls-92" x="737.8" y="155.85" width="12.73" height="2.32"/><rect class="cls-92" x="737.8" y="152.53" width="9.34" height="3.94"/><rect class="cls-92" x="737.8" y="149.59" width="6.17" height="3.63"/><polygon class="cls-92" points="750.53 127 750.53 126.99 737.87 126.99 737.87 128.14 748.92 128.14 748.92 130.89 750.54 130.89 750.54 127 750.53 127"/><rect class="cls-93" x="638.19" y="132.67" width="25.51" height="25.51"/><path class="cls-94" d="M655,150.12l-.16.66a4.87,4.87,0,1,1-7.58-5.16v-1.54l-.09,0a6.18,6.18,0,1,0,8.57,8l.13-.38Z"/><path class="cls-94" d="M651.41,144.07h2.37a.83.83,0,0,0,.85-.81.81.81,0,0,0-.85-.8h-2.39v-1.78a1.79,1.79,0,0,0-1.78-1.81,1.77,1.77,0,0,0-1.75,1.81s0,5.46,0,5.56A1.68,1.68,0,0,0,649.6,148h5.1l2.39,5.05a1,1,0,0,0,.86.45.94.94,0,0,0,.92-1,1.21,1.21,0,0,0,0-.34l-2.71-5.58a1.05,1.05,0,0,0-.76-.49h-3.94Z"/><path class="cls-94" d="M649.61,138.58a1.78,1.78,0,1,0-1.77-1.78A1.78,1.78,0,0,0,649.61,138.58Z"/><rect class="cls-95" x="678.06" y="132.69" width="25.51" height="25.51"/><path class="cls-94" d="M684.45,149.79l-2.07-8.46H684l.81,3.84c.23,1,.41,2.11.55,3h0c.14-.89.36-1.9.61-3l.92-3.83h1.62l.84,3.89c.22,1,.39,1.94.52,2.86h0c.15-.93.34-1.91.58-2.92l.88-3.83H693l-2.28,8.46H689l-.88-4c-.2-1-.37-1.77-.47-2.69h0c-.15.91-.33,1.72-.57,2.69l-1,4Z"/><path class="cls-94" d="M699.31,149.4a5.26,5.26,0,0,1-2.18.39,4,4,0,0,1-4.33-4.27,4.26,4.26,0,0,1,4.53-4.47,5,5,0,0,1,2.06.37l-.34,1.24a4.09,4.09,0,0,0-1.66-.33,2.82,2.82,0,0,0-3,3.11,2.79,2.79,0,0,0,3,3.06,4.3,4.3,0,0,0,1.68-.32Z"/><rect class="cls-95" x="45.59" y="132.72" width="25.51" height="25.51"/><path class="cls-94" d="M52,149.82l-2.07-8.47h1.64l.81,3.85c.22,1,.41,2.11.55,3h0c.14-.9.37-1.9.62-3l.92-3.83h1.62l.84,3.9c.21,1,.39,1.94.51,2.86h0c.15-.93.34-1.91.58-2.93l.87-3.83h1.57l-2.27,8.47H56.56l-.88-4c-.2-1-.36-1.78-.46-2.69h0c-.15.9-.32,1.72-.56,2.69l-1,4Z"/><path class="cls-94" d="M66.84,149.43a5.31,5.31,0,0,1-2.19.39,4,4,0,0,1-4.32-4.27,4.27,4.27,0,0,1,4.52-4.48,4.88,4.88,0,0,1,2.06.38l-.34,1.23a4.19,4.19,0,0,0-1.65-.32,2.82,2.82,0,0,0-3,3.11,2.77,2.77,0,0,0,3,3.05,4.36,4.36,0,0,0,1.69-.31Z"/><rect class="cls-91" x="793.22" y="63.74" width="31.16" height="31.18"/><rect class="cls-92" x="806.66" y="92.58" width="17.73" height="2.29"/><rect class="cls-92" x="793.24" y="92.59" width="12.76" height="2.32"/><polygon class="cls-92" points="805.89 63.76 805.89 63.75 793.22 63.75 793.22 64.9 804.28 64.9 804.28 67.66 805.9 67.66 805.9 63.76 805.89 63.76"/><path class="cls-96" d="M807.23,86.81l.18.68a5.06,5.06,0,1,0,7.87-5.36v-1.6l.1,0a6.42,6.42,0,1,1-8.91,8.34l-.13-.4Z"/><path class="cls-96" d="M810.91,80.52h-2.46a.84.84,0,1,1,0-1.68h2.49V77a1.87,1.87,0,0,1,1.85-1.88A1.84,1.84,0,0,1,814.61,77s0,5.67,0,5.77a1.76,1.76,0,0,1-1.83,1.81h-5.3L805,89.82a1.07,1.07,0,0,1-.9.47,1,1,0,0,1-1-1.07,1,1,0,0,1,.06-.36L806,83.07a1.08,1.08,0,0,1,.79-.51h4.09Z"/><path class="cls-96" d="M812.78,74.81A1.85,1.85,0,1,1,814.63,73,1.85,1.85,0,0,1,812.78,74.81Z"/><polygon class="cls-97" points="724.08 47.15 722.01 55.39 724.71 53.68 723.96 57.75 722.68 57.46 723.52 62.82 726.99 57.99 725.25 57.87 727.47 50.91 724.54 52.29 726.51 47.15 724.08 47.15"/><polygon class="cls-97" points="719.23 100.62 717.17 108.87 719.86 107.16 719.12 111.23 717.83 110.94 718.67 116.3 722.14 111.47 720.4 111.35 722.63 104.38 719.7 105.77 721.66 100.62 719.23 100.62"/></g><g id="PLASSNUMMER"><path class="cls-98" d="M650,54.85h0l-1.15.58-.2-.9,1.54-.75h1v6.28H650Z"/><path class="cls-98" d="M657.3,54.76h-2.42L654.7,56a2.76,2.76,0,0,1,.44,0,2.81,2.81,0,0,1,1.53.41,1.81,1.81,0,0,1,.82,1.59A2.29,2.29,0,0,1,655,60.16a3.67,3.67,0,0,1-1.67-.36l.24-.9a3.24,3.24,0,0,0,1.38.33,1.22,1.22,0,0,0,1.36-1.14c0-.73-.53-1.2-1.78-1.2a6.37,6.37,0,0,0-.85.06l.4-3.17h3.26Z"/><path class="cls-98" d="M650,70.25h0l-1.15.58-.2-.9,1.54-.75h1v6.28H650Z"/><path class="cls-98" d="M655.16,70.25h0l-1.15.58-.2-.9,1.54-.75h1v6.28h-1.15Z"/><path class="cls-98" d="M608.22,60.08v-.72l.75-.69c1.47-1.37,2.17-2.12,2.18-3a1,1,0,0,0-1.12-1,2.26,2.26,0,0,0-1.34.52l-.35-.84a3.08,3.08,0,0,1,1.93-.65,1.86,1.86,0,0,1,2.07,1.9c0,1.1-.79,2-1.9,3l-.54.47v0h2.57v1Z"/><path class="cls-98" d="M617.4,54.79H615l-.19,1.26a2.9,2.9,0,0,1,.45,0,2.74,2.74,0,0,1,1.52.4,1.79,1.79,0,0,1,.82,1.6,2.28,2.28,0,0,1-2.53,2.17,3.55,3.55,0,0,1-1.67-.37l.24-.89a3.25,3.25,0,0,0,1.38.32,1.23,1.23,0,0,0,1.37-1.14c0-.72-.54-1.19-1.78-1.19-.36,0-.62,0-.86,0l.4-3.16h3.26Z"/><path class="cls-98" d="M608.22,75.48v-.72l.75-.69c1.47-1.37,2.17-2.12,2.18-2.95A1,1,0,0,0,610,70.07a2.26,2.26,0,0,0-1.34.52l-.35-.84a3.08,3.08,0,0,1,1.93-.65,1.86,1.86,0,0,1,2.07,1.9c0,1.1-.79,2-1.9,3l-.54.47v0h2.57v1Z"/><path class="cls-98" d="M615.26,70.28h0l-1.15.58-.21-.9,1.54-.75h1v6.27h-1.15Z"/><path class="cls-98" d="M569,58.89a3.17,3.17,0,0,0,1.43.38c.91,0,1.27-.51,1.27-1,0-.75-.71-1.07-1.43-1.07h-.54v-.86h.54c.54,0,1.23-.26,1.23-.87,0-.44-.31-.8-1-.8a2.62,2.62,0,0,0-1.29.4l-.27-.86a3.56,3.56,0,0,1,1.81-.48c1.3,0,2,.71,2,1.53a1.54,1.54,0,0,1-1.16,1.47v0a1.59,1.59,0,0,1,1.38,1.56c0,1.07-.89,1.91-2.44,1.91a3.37,3.37,0,0,1-1.76-.44Z"/><path class="cls-98" d="M577.9,54.82h-2.42l-.18,1.25.44,0a2.8,2.8,0,0,1,1.53.4,1.81,1.81,0,0,1,.82,1.59,2.29,2.29,0,0,1-2.53,2.18,3.68,3.68,0,0,1-1.67-.37l.24-.9a3.1,3.1,0,0,0,1.38.33,1.22,1.22,0,0,0,1.36-1.14c0-.72-.53-1.2-1.77-1.2a6.41,6.41,0,0,0-.86.06l.4-3.17h3.26Z"/><path class="cls-98" d="M569,74.29a3.17,3.17,0,0,0,1.43.38c.91,0,1.27-.51,1.27-1,0-.75-.71-1.07-1.43-1.07h-.54v-.86h.54c.54,0,1.23-.26,1.23-.87,0-.44-.31-.8-1-.8a2.62,2.62,0,0,0-1.29.4l-.27-.86a3.56,3.56,0,0,1,1.81-.48c1.3,0,2,.71,2,1.53a1.54,1.54,0,0,1-1.16,1.47v0a1.6,1.6,0,0,1,1.38,1.57c0,1.06-.89,1.9-2.44,1.9a3.37,3.37,0,0,1-1.76-.44Z"/><path class="cls-98" d="M575.76,70.31h0l-1.15.58-.2-.9,1.54-.76h1v6.28h-1.15Z"/><path class="cls-98" d="M532.12,60.34V58.75h-2.85V58l2.57-3.92h1.4v3.79h.81v.9h-.81v1.59Zm0-2.49V56.14c0-.36,0-.71,0-1.09h0c-.19.39-.36.71-.55,1.06l-1.16,1.72v0Z"/><path class="cls-98" d="M538.68,55.05h-2.41l-.19,1.25a2.9,2.9,0,0,1,.45,0,2.75,2.75,0,0,1,1.52.41,1.78,1.78,0,0,1,.82,1.59,2.29,2.29,0,0,1-2.53,2.18,3.68,3.68,0,0,1-1.67-.37l.24-.9a3.15,3.15,0,0,0,1.39.33,1.23,1.23,0,0,0,1.36-1.14c0-.72-.53-1.2-1.78-1.2a6.41,6.41,0,0,0-.86.06l.41-3.17h3.25Z"/><path class="cls-98" d="M532.12,75.74V74.15h-2.85v-.77l2.57-3.92h1.4v3.79h.81v.9h-.81v1.59Zm0-2.49V71.54c0-.36,0-.71,0-1.09h0c-.19.39-.36.71-.55,1.06l-1.16,1.72v0Z"/><path class="cls-98" d="M536.55,70.54h0l-1.15.57-.21-.89,1.54-.76h1v6.28h-1.15Z"/><path class="cls-98" d="M494.55,55.05h-2.41L492,56.3a2.76,2.76,0,0,1,.44,0,2.81,2.81,0,0,1,1.53.41,1.81,1.81,0,0,1,.82,1.59,2.3,2.3,0,0,1-2.53,2.18,3.61,3.61,0,0,1-1.67-.37l.24-.9a3.1,3.1,0,0,0,1.38.33,1.23,1.23,0,0,0,1.36-1.14c0-.72-.53-1.2-1.78-1.2a6.54,6.54,0,0,0-.86.06l.41-3.17h3.25Z"/><path class="cls-98" d="M499.73,55.05h-2.41l-.19,1.25a2.9,2.9,0,0,1,.45,0,2.75,2.75,0,0,1,1.52.41,1.79,1.79,0,0,1,.83,1.59,2.3,2.3,0,0,1-2.54,2.18,3.68,3.68,0,0,1-1.67-.37l.25-.9a3.1,3.1,0,0,0,1.38.33,1.23,1.23,0,0,0,1.36-1.14c0-.72-.53-1.2-1.78-1.2a6.41,6.41,0,0,0-.86.06l.41-3.17h3.25Z"/><path class="cls-98" d="M494.55,70.45h-2.41L492,71.7a2.89,2.89,0,0,1,.44,0,2.8,2.8,0,0,1,1.53.4,1.81,1.81,0,0,1,.82,1.59,2.3,2.3,0,0,1-2.53,2.18,3.61,3.61,0,0,1-1.67-.37l.24-.9a3.1,3.1,0,0,0,1.38.33,1.22,1.22,0,0,0,1.36-1.14c0-.72-.53-1.2-1.78-1.2a6.54,6.54,0,0,0-.86.06l.41-3.17h3.25Z"/><path class="cls-98" d="M497.6,70.54h0l-1.15.57-.2-.89,1.53-.76h1v6.28H497.6Z"/><path class="cls-98" d="M455.08,54.91a3.24,3.24,0,0,0-.6,0,2.21,2.21,0,0,0-2.1,1.83h0a1.82,1.82,0,0,1,1.42-.61,1.89,1.89,0,0,1,1.92,2.05,2.19,2.19,0,0,1-2.21,2.24c-1.53,0-2.37-1.16-2.37-2.72a3.78,3.78,0,0,1,1.09-2.8,3.46,3.46,0,0,1,2.23-.92,2.68,2.68,0,0,1,.6,0Zm-.55,3.36A1.09,1.09,0,0,0,453.44,57a1.16,1.16,0,0,0-1,.65.9.9,0,0,0-.07.37c0,.83.4,1.51,1.19,1.51C454.13,59.56,454.53,59,454.53,58.27Z"/><path class="cls-98" d="M460.44,55.05H458l-.19,1.25a2.9,2.9,0,0,1,.45,0,2.75,2.75,0,0,1,1.52.41,1.79,1.79,0,0,1,.83,1.59,2.3,2.3,0,0,1-2.54,2.18,3.68,3.68,0,0,1-1.67-.37l.24-.9a3.18,3.18,0,0,0,1.39.33,1.23,1.23,0,0,0,1.36-1.14c0-.72-.53-1.2-1.78-1.2a6.41,6.41,0,0,0-.86.06l.41-3.17h3.25Z"/><path class="cls-98" d="M455.08,70.31a3.24,3.24,0,0,0-.6,0,2.21,2.21,0,0,0-2.1,1.83h0a1.82,1.82,0,0,1,1.42-.61,1.89,1.89,0,0,1,1.92,2,2.18,2.18,0,0,1-2.21,2.24c-1.53,0-2.37-1.16-2.37-2.72a3.78,3.78,0,0,1,1.09-2.8,3.46,3.46,0,0,1,2.23-.92,2.68,2.68,0,0,1,.6,0Zm-.55,3.36a1.09,1.09,0,0,0-1.09-1.24,1.16,1.16,0,0,0-1,.65.9.9,0,0,0-.07.37c0,.83.4,1.51,1.19,1.51C454.13,75,454.53,74.43,454.53,73.67Z"/><path class="cls-98" d="M458.31,70.54h0l-1.15.57-.2-.89,1.53-.76h1v6.28h-1.15Z"/><path class="cls-98" d="M416.66,54.32v.76L414,60.6h-1.25l2.65-5.28h-3v-1Z"/><path class="cls-98" d="M421.52,55.31h-2.41l-.19,1.25a2.9,2.9,0,0,1,.45,0,2.75,2.75,0,0,1,1.52.41,1.78,1.78,0,0,1,.82,1.59,2.28,2.28,0,0,1-2.53,2.17,3.7,3.7,0,0,1-1.67-.36l.24-.9a3.28,3.28,0,0,0,1.38.33,1.23,1.23,0,0,0,1.37-1.14c0-.73-.53-1.2-1.78-1.2a6.41,6.41,0,0,0-.86.06l.41-3.17h3.25Z"/><path class="cls-98" d="M416.66,69.72v.76L414,76h-1.25l2.65-5.27v0h-3v-1Z"/><path class="cls-98" d="M419.39,70.79h0l-1.15.58-.21-.9,1.54-.75h1V76h-1.15Z"/><path class="cls-98" d="M374.34,57.07a1.53,1.53,0,0,1-1-1.39,1.87,1.87,0,0,1,2.1-1.72c1.36,0,2,.81,2,1.58a1.57,1.57,0,0,1-1,1.42v0a1.68,1.68,0,0,1,1.2,1.58c0,1.12-.94,1.88-2.29,1.88s-2.23-.85-2.23-1.73a1.73,1.73,0,0,1,1.18-1.62Zm2.14,1.6c0-.64-.47-1-1.17-1.18a1.14,1.14,0,0,0-.93,1.09,1,1,0,0,0,1.05,1A1,1,0,0,0,376.48,58.67Zm-2-3c0,.51.43.82,1,1a1,1,0,0,0,.78-.94.84.84,0,0,0-.9-.89A.83.83,0,0,0,374.51,55.63Z"/><path class="cls-98" d="M382.43,55.05H380l-.18,1.25a2.76,2.76,0,0,1,.44,0,2.81,2.81,0,0,1,1.53.41,1.81,1.81,0,0,1,.82,1.59,2.3,2.3,0,0,1-2.53,2.18,3.65,3.65,0,0,1-1.67-.37l.24-.9a3.1,3.1,0,0,0,1.38.33,1.22,1.22,0,0,0,1.36-1.14c0-.72-.53-1.2-1.78-1.2a6.37,6.37,0,0,0-.85.06l.4-3.17h3.26Z"/><path class="cls-98" d="M374.34,72.47a1.53,1.53,0,0,1-1-1.39,1.87,1.87,0,0,1,2.1-1.72c1.36,0,2,.81,2,1.58a1.57,1.57,0,0,1-1,1.42v0a1.68,1.68,0,0,1,1.2,1.58c0,1.12-.94,1.88-2.29,1.88s-2.23-.85-2.23-1.73a1.73,1.73,0,0,1,1.18-1.62Zm2.14,1.6c0-.64-.47-1-1.17-1.18a1.14,1.14,0,0,0-.93,1.09,1,1,0,0,0,1.05,1A1,1,0,0,0,376.48,74.07Zm-2-3c0,.51.43.82,1,1a1,1,0,0,0,.78-.94.84.84,0,0,0-.9-.89A.83.83,0,0,0,374.51,71Z"/><path class="cls-98" d="M380.29,70.54h0l-1.15.57-.2-.89,1.54-.76h1v6.28h-1.15Z"/><path class="cls-98" d="M333.41,59.46a3,3,0,0,0,.65,0,2.28,2.28,0,0,0,1.28-.48,2.33,2.33,0,0,0,.81-1.4h0a1.77,1.77,0,0,1-1.37.55,1.84,1.84,0,0,1-1.9-1.94,2.21,2.21,0,0,1,2.26-2.24c1.46,0,2.24,1.14,2.24,2.67a3.91,3.91,0,0,1-1.09,2.93,3.53,3.53,0,0,1-2.15.86,4.46,4.46,0,0,1-.71,0ZM334,56.1a1,1,0,0,0,1,1.15,1.16,1.16,0,0,0,1-.52.77.77,0,0,0,.07-.35c0-.85-.32-1.57-1.09-1.57C334.46,54.81,334,55.34,334,56.1Z"/><path class="cls-98" d="M342.11,55H339.7l-.19,1.26a2.9,2.9,0,0,1,.45,0,2.74,2.74,0,0,1,1.52.4,1.79,1.79,0,0,1,.82,1.6,2.29,2.29,0,0,1-2.53,2.17,3.55,3.55,0,0,1-1.67-.37l.24-.9a3.1,3.1,0,0,0,1.38.33,1.23,1.23,0,0,0,1.37-1.14c0-.72-.54-1.19-1.78-1.19-.36,0-.62,0-.86.05l.41-3.16h3.25Z"/><path class="cls-98" d="M333.41,74.86a3.62,3.62,0,0,0,.65,0,2.36,2.36,0,0,0,1.28-.49,2.33,2.33,0,0,0,.81-1.4h0a1.77,1.77,0,0,1-1.37.55,1.84,1.84,0,0,1-1.9-1.94,2.21,2.21,0,0,1,2.26-2.24c1.46,0,2.24,1.14,2.24,2.68a3.9,3.9,0,0,1-1.09,2.92,3.53,3.53,0,0,1-2.15.86,4.46,4.46,0,0,1-.71,0ZM334,71.5a1,1,0,0,0,1,1.15,1.16,1.16,0,0,0,1-.52.77.77,0,0,0,.07-.35c0-.85-.32-1.57-1.09-1.57C334.46,70.21,334,70.74,334,71.5Z"/><path class="cls-98" d="M340,70.51h0l-1.15.58-.21-.9,1.54-.75h1v6.27H340Z"/><path class="cls-98" d="M292.48,55.11h0l-1.15.58-.2-.9,1.53-.75h1v6.27h-1.15Z"/><path class="cls-98" d="M300.23,57.13c0,2-.8,3.29-2.3,3.29s-2.21-1.31-2.22-3.23.83-3.26,2.3-3.26S300.23,55.28,300.23,57.13Zm-3.33,0c0,1.54.42,2.33,1.07,2.33s1.06-.85,1.06-2.35-.34-2.32-1-2.32S296.9,55.62,296.9,57.18Z"/><path class="cls-98" d="M305,55h-2.41l-.19,1.26a2.9,2.9,0,0,1,.45,0,2.74,2.74,0,0,1,1.52.4,1.79,1.79,0,0,1,.82,1.6,2.29,2.29,0,0,1-2.53,2.17,3.55,3.55,0,0,1-1.67-.37l.24-.9a3.1,3.1,0,0,0,1.38.33A1.23,1.23,0,0,0,304,58.34c0-.72-.54-1.19-1.78-1.19-.36,0-.62,0-.86.05l.41-3.16H305Z"/><path class="cls-98" d="M292.79,70.51h0l-1.15.58-.21-.9,1.54-.75h1v6.27h-1.15Z"/><path class="cls-98" d="M300.54,72.53c0,2-.79,3.29-2.3,3.29S296,74.51,296,72.59s.83-3.26,2.3-3.26S300.54,70.68,300.54,72.53Zm-3.32,0c0,1.54.41,2.33,1.06,2.33s1.06-.85,1.06-2.35-.33-2.32-1-2.32S297.22,71,297.22,72.58Z"/><path class="cls-98" d="M303.15,70.51h0l-1.15.58-.2-.9,1.54-.75h1v6.27h-1.15Z"/><path class="cls-98" d="M253.46,55.11h0l-1.15.58-.2-.89,1.53-.76h1v6.28h-1.15Z"/><path class="cls-98" d="M258.64,55.11h0l-1.15.58-.2-.89L258.8,54h1v6.28h-1.15Z"/><path class="cls-98" d="M266,55h-2.41l-.19,1.25a2.9,2.9,0,0,1,.45,0,2.75,2.75,0,0,1,1.52.41,1.78,1.78,0,0,1,.82,1.59,2.29,2.29,0,0,1-2.53,2.18,3.68,3.68,0,0,1-1.67-.37l.24-.9a3.1,3.1,0,0,0,1.38.33,1.23,1.23,0,0,0,1.37-1.14c0-.72-.53-1.2-1.78-1.2a6.41,6.41,0,0,0-.86.06L262.7,54H266Z"/><path class="cls-98" d="M253.46,70.52h0l-1.15.57-.2-.89,1.53-.76h1v6.28h-1.15Z"/><path class="cls-98" d="M258.64,70.52h0l-1.15.57-.2-.89,1.53-.76h1v6.28h-1.15Z"/><path class="cls-98" d="M263.82,70.52h0l-1.15.57-.21-.89,1.54-.76h1v6.28h-1.15Z"/><path class="cls-98" d="M215,55.11h0l-1.15.58-.2-.89,1.53-.76h1v6.28H215Z"/><path class="cls-98" d="M218.27,60.32V59.6l.74-.69c1.48-1.37,2.18-2.12,2.19-3a1,1,0,0,0-1.12-1.05,2.3,2.3,0,0,0-1.35.52l-.34-.84a3.14,3.14,0,0,1,1.93-.64,1.86,1.86,0,0,1,2.07,1.9c0,1.1-.8,2-1.9,3l-.54.48v0h2.57v1Z"/><path class="cls-98" d="M227.45,55H225l-.18,1.25a2.85,2.85,0,0,1,.44,0,2.81,2.81,0,0,1,1.53.41,1.81,1.81,0,0,1,.82,1.59,2.29,2.29,0,0,1-2.53,2.18,3.68,3.68,0,0,1-1.67-.37l.24-.9a3.1,3.1,0,0,0,1.38.33,1.22,1.22,0,0,0,1.36-1.14c0-.72-.53-1.2-1.77-1.2a6.41,6.41,0,0,0-.86.06l.4-3.17h3.26Z"/><path class="cls-98" d="M215,70.52h0l-1.15.57-.2-.89,1.53-.76h1v6.28H215Z"/><path class="cls-98" d="M218.27,75.72V75l.74-.69c1.48-1.37,2.18-2.12,2.19-3a1,1,0,0,0-1.12-1,2.3,2.3,0,0,0-1.35.52l-.34-.84a3.14,3.14,0,0,1,1.93-.64,1.86,1.86,0,0,1,2.07,1.9c0,1.1-.8,2-1.9,3l-.54.48v0h2.57v1Z"/><path class="cls-98" d="M225.31,70.52h0l-1.15.57-.2-.89,1.54-.76h1v6.28h-1.15Z"/><path class="cls-98" d="M175,55.11h0l-1.15.58-.21-.89,1.54-.76h1v6.28H175Z"/><path class="cls-98" d="M178.51,59.09a3,3,0,0,0,1.43.39c.91,0,1.27-.51,1.27-1,0-.75-.71-1.07-1.43-1.07h-.54v-.87h.54c.54,0,1.23-.25,1.23-.86,0-.44-.31-.8-1-.8a2.49,2.49,0,0,0-1.29.4l-.27-.86a3.53,3.53,0,0,1,1.81-.48c1.3,0,2,.71,2,1.53a1.54,1.54,0,0,1-1.16,1.47v0a1.59,1.59,0,0,1,1.38,1.56c0,1.07-.89,1.91-2.44,1.91a3.47,3.47,0,0,1-1.76-.44Z"/><path class="cls-98" d="M187.45,55H185l-.18,1.25a2.76,2.76,0,0,1,.44,0,2.81,2.81,0,0,1,1.53.41,1.81,1.81,0,0,1,.82,1.59,2.3,2.3,0,0,1-2.53,2.18,3.65,3.65,0,0,1-1.67-.37l.24-.9a3.1,3.1,0,0,0,1.38.33,1.22,1.22,0,0,0,1.36-1.14c0-.72-.53-1.2-1.78-1.2a6.37,6.37,0,0,0-.85.06l.4-3.17h3.26Z"/><path class="cls-98" d="M175,70.52h0l-1.15.57-.21-.89,1.54-.76h1v6.28H175Z"/><path class="cls-98" d="M178.51,74.49a3,3,0,0,0,1.43.39c.91,0,1.27-.51,1.27-1,0-.75-.71-1.07-1.43-1.07h-.54v-.87h.54c.54,0,1.23-.25,1.23-.86,0-.44-.31-.8-1-.8a2.59,2.59,0,0,0-1.29.4l-.27-.86a3.53,3.53,0,0,1,1.81-.48c1.3,0,2,.71,2,1.53a1.54,1.54,0,0,1-1.16,1.47v0a1.59,1.59,0,0,1,1.38,1.56c0,1.07-.89,1.91-2.44,1.91a3.47,3.47,0,0,1-1.76-.44Z"/><path class="cls-98" d="M185.31,70.52h0l-1.15.57-.2-.89,1.54-.76h1v6.28h-1.15Z"/><path class="cls-98" d="M136.54,55.11h0l-1.15.58-.21-.89L136.7,54h1v6.28h-1.15Z"/><path class="cls-98" d="M142.47,60.32V58.73h-2.85V58L142.19,54h1.4v3.79h.81v.9h-.81v1.59Zm0-2.49V56.12c0-.36,0-.72,0-1.09h0c-.2.39-.36.71-.55,1.06l-1.16,1.72v0Z"/><path class="cls-98" d="M149,55h-2.42l-.18,1.25a2.76,2.76,0,0,1,.44,0,2.81,2.81,0,0,1,1.53.41,1.81,1.81,0,0,1,.82,1.59,2.29,2.29,0,0,1-2.53,2.18,3.68,3.68,0,0,1-1.67-.37l.24-.9a3.1,3.1,0,0,0,1.38.33A1.22,1.22,0,0,0,148,58.35c0-.72-.53-1.2-1.77-1.2a6.41,6.41,0,0,0-.86.06l.4-3.17H149Z"/><path class="cls-98" d="M136.54,70.52h0l-1.15.57-.21-.89,1.54-.76h1v6.28h-1.15Z"/><path class="cls-98" d="M142.47,75.72V74.13h-2.85v-.78l2.57-3.91h1.4v3.79h.81v.9h-.81v1.59Zm0-2.49V71.52c0-.36,0-.71,0-1.09h0c-.2.39-.36.71-.55,1.06l-1.16,1.72v0Z"/><path class="cls-98" d="M146.89,70.52h0l-1.15.57-.2-.89,1.54-.76h1v6.28h-1.15Z"/><path class="cls-98" d="M97,55.11h0l-1.15.58-.2-.89L97.11,54h1v6.28H97Z"/><path class="cls-98" d="M104.26,55h-2.41l-.19,1.25a2.9,2.9,0,0,1,.45,0,2.75,2.75,0,0,1,1.52.41,1.79,1.79,0,0,1,.83,1.59,2.3,2.3,0,0,1-2.54,2.18,3.68,3.68,0,0,1-1.67-.37l.25-.9a3.1,3.1,0,0,0,1.38.33,1.23,1.23,0,0,0,1.36-1.14c0-.72-.53-1.2-1.78-1.2a6.41,6.41,0,0,0-.86.06L101,54h3.25Z"/><path class="cls-98" d="M109.44,55H107l-.19,1.25a2.9,2.9,0,0,1,.45,0,2.75,2.75,0,0,1,1.52.41,1.78,1.78,0,0,1,.82,1.59,2.29,2.29,0,0,1-2.53,2.18,3.68,3.68,0,0,1-1.67-.37l.24-.9a3.13,3.13,0,0,0,1.38.33,1.23,1.23,0,0,0,1.37-1.14c0-.72-.53-1.2-1.78-1.2a6.41,6.41,0,0,0-.86.06l.41-3.17h3.25Z"/><path class="cls-98" d="M97,70.52h0l-1.15.57-.2-.89,1.53-.76h1v6.28H97Z"/><path class="cls-98" d="M104.26,70.43h-2.41l-.19,1.25a2.9,2.9,0,0,1,.45,0,2.75,2.75,0,0,1,1.52.41,1.79,1.79,0,0,1,.83,1.59,2.3,2.3,0,0,1-2.54,2.18,3.68,3.68,0,0,1-1.67-.37l.25-.9a3.1,3.1,0,0,0,1.38.33,1.23,1.23,0,0,0,1.36-1.14c0-.72-.53-1.2-1.78-1.2a6.41,6.41,0,0,0-.86.06l.41-3.17h3.25Z"/><path class="cls-98" d="M107.31,70.52h0l-1.15.57-.21-.89,1.54-.76h1v6.28h-1.15Z"/></g><g id="TXT"><path class="cls-98" d="M351.22,21.44a3.12,3.12,0,0,0,2.4,1.26,1.57,1.57,0,0,0,1.7-1.47c0-1.5-2.07-1.67-3.37-2.52a2.51,2.51,0,0,1-1.25-2.16,2.76,2.76,0,0,1,3-2.6,4,4,0,0,1,2.63,1l-.82,1a2.69,2.69,0,0,0-1.75-.67,1.46,1.46,0,0,0-1.63,1.31c0,1.25,2.09,1.52,3.35,2.36a2.57,2.57,0,0,1,1.27,2.24,2.83,2.83,0,0,1-3,2.84,4.41,4.41,0,0,1-3.44-1.64Z"/><path class="cls-98" d="M361.32,17.17a3.43,3.43,0,1,1-3.41,3.43A3.34,3.34,0,0,1,361.32,17.17Zm0,5.6a2.17,2.17,0,1,0-2.08-2.17A2.08,2.08,0,0,0,361.32,22.77Z"/><path class="cls-98" d="M365.42,17.31h1.37l1.95,4.48,1.94-4.48h1.37l-2.85,6.58h-.93Z"/><path class="cls-98" d="M374,20.88a2.12,2.12,0,0,0,2.13,2,2.38,2.38,0,0,0,1.89-.9l.87.83A3.45,3.45,0,0,1,376.16,24a3.35,3.35,0,0,1-3.41-3.43,3.2,3.2,0,1,1,6.38,0,1.76,1.76,0,0,1,0,.28Zm.11-1.12h3.59A1.84,1.84,0,0,0,376,18.33,1.92,1.92,0,0,0,374.15,19.76Z"/><line class="cls-99" x1="81.88" y1="18.83" x2="325.84" y2="18.83"/><polygon class="cls-98" points="83.86 21.74 73.02 18.84 83.86 15.93 83.86 21.74"/><line class="cls-100" x1="72.95" y1="13.06" x2="72.95" y2="24.76"/><line class="cls-99" x1="659.06" y1="19.06" x2="403.84" y2="19.06"/><polygon class="cls-98" points="657.08 16.15 667.92 19.05 657.08 21.96 657.08 16.15"/><line class="cls-100" x1="667.98" y1="24.83" x2="667.98" y2="13.13"/></g></g></svg>