<?xml version="1.0" encoding="UTF-8" standalone="no"?>
<svg width="100px" height="100px" viewBox="0 0 100 100" version="1.1" xmlns="http://www.w3.org/2000/svg" xmlns:xlink="http://www.w3.org/1999/xlink">
    <!-- Generator: Sketch 3.8.3 (29802) - http://www.bohemiancoding.com/sketch -->
    <title>Icon/Monitor/Train</title>
    <desc>Created with Sketch.</desc>
    <defs>
        <circle id="path-1" cx="50" cy="50" r="50"></circle>
        <circle id="path-3" cx="50" cy="50" r="50"></circle>
        <circle id="path-5" cx="50" cy="50" r="50"></circle>
        <mask id="mask-6" maskContentUnits="userSpaceOnUse" maskUnits="objectBoundingBox" x="0" y="0" width="100" height="100" fill="white">
            <use xlink:href="#path-5"></use>
        </mask>
    </defs>
    <g id="Symbols" stroke="none" stroke-width="1" fill="none" fill-rule="evenodd">
        <g id="Icon/Monitor/Train">
            <mask id="mask-2" fill="white">
                <use xlink:href="#path-1"></use>
            </mask>
            <g id="Mask"></g>
            <g id="Group-3" style="mix-blend-mode: lighten;">
                <mask id="mask-4" fill="white">
                    <use xlink:href="#path-3"></use>
                </mask>
                <g id="Fill-1"></g>
                <path d="M36.4817776,31 L66.2754501,31 C66.8879428,31 67.498857,31.2561152 67.9361263,31.6772125 L84.6012966,48.2979871 C86.7071351,50.3720486 88,53.2757347 88,56.4622473 C88,59.6393324 86.7071351,62.5320197 84.6012966,64.6280788 C82.5144012,66.6974265 79.6145321,68 76.4194668,68 L70.9086105,68 L-19,67.9811449 L-19,31 L28.710272,31 L41.8926772,24.3469944 L27.8540042,17.0136238 L35.4657976,17.0097062 L47.9282551,23.4508428 C48.8786158,23.9437803 48.8786158,24.7491276 47.9282551,25.2409841 L36.4817776,31 Z M54,44 L54,36 L64.4999998,36 L72.5,44 L54,44 Z M-3,72 L72,72 L72,76 L-3,76 L-3,72 Z" id="Combined-Shape" fill="#FFFFFF" mask="url(#mask-4)"></path>
                <g id="Oval-24" mask="url(#mask-4)" stroke-width="7.69230769" stroke="#FFFFFF">
                    <use mask="url(#mask-6)" xlink:href="#path-5"></use>
                </g>
            </g>
        </g>
    </g>
</svg>