<?xml version="1.0" encoding="UTF-8"?>
<svg width="64px" height="64px" viewBox="0 0 64 64" version="1.1" xmlns="http://www.w3.org/2000/svg" xmlns:xlink="http://www.w3.org/1999/xlink">
    <!-- Generator: Sketch 42 (36781) - http://www.bohemiancoding.com/sketch -->
    <title>Icon/Operator logo/Flytoget</title>
    <desc>Created with Sketch.</desc>
    <defs></defs>
    <g id="Operator-logos" stroke="none" stroke-width="1" fill="none" fill-rule="evenodd">
        <g id="Icon/Operator-logo/Flytoget" fill="#FFFFFF">
            <path d="M8.18559485,44.7818308 L8.18559485,46.2245899 C8.18559485,46.26202 8.15331994,46.2909432 8.11821391,46.2909432 L3.62803882,46.2909432 L3.62803882,47.8953322 L7.75016677,47.8953322 C7.78414035,47.8953322 7.81641526,47.9265239 7.81641526,47.9611184 L7.81641526,49.4027433 C7.81641526,49.438472 7.78414035,49.4702308 7.75016677,49.4702308 L3.62803882,49.4702308 L3.62803882,52.7623758 C3.62803882,52.8009401 3.60255864,52.8287291 3.56405524,52.8287291 L2.012595,52.8287291 C1.97579028,52.8287291 1.94464783,52.8009401 1.94464783,52.7623758 L1.94464783,44.7818308 C1.94464783,44.7466692 1.97579028,44.7149103 2.012595,44.7149103 L8.11821391,44.7149103 C8.15331994,44.7149103 8.18559485,44.7466692 8.18559485,44.7818308 L8.18559485,44.7818308 Z M15.4383884,51.2521291 L11.3474029,51.2521291 L11.3474029,44.7818308 C11.3474029,44.7466692 11.315128,44.7149103 11.2805882,44.7149103 L9.73026038,44.7149103 C9.69062453,44.7149103 9.66174699,44.7466692 9.66174699,44.7818308 L9.66174699,52.7623758 C9.66174699,52.8009401 9.69062453,52.8287291 9.73026038,52.8287291 L15.4383884,52.8287291 C15.4768918,52.8287291 15.5063355,52.8009401 15.5063355,52.7623758 L15.5063355,51.3184824 C15.5063355,51.2816194 15.4768918,51.2521291 15.4383884,51.2521291 L15.4383884,51.2521291 Z M19.3866848,52.8287291 C19.4263207,52.8287291 19.4534995,52.8009401 19.4534995,52.7623758 L19.4534995,50.671963 L22.7948013,44.7835321 C22.8163179,44.746102 22.7981987,44.7149103 22.7545993,44.7149103 L21.0281751,44.7149103 C20.9845756,44.7149103 20.9324828,44.746102 20.9120987,44.7840992 L18.5752824,49.0596343 L16.2384662,44.7840992 C16.2175159,44.746102 16.1648568,44.7149103 16.1218236,44.7149103 L14.3948332,44.7149103 C14.3518,44.7149103 14.3336807,44.746102 14.3551973,44.7835321 L17.6959329,50.671963 L17.6959329,52.7623758 C17.6959329,52.8009401 17.7242442,52.8287291 17.7627476,52.8287291 L19.3866848,52.8287291 Z M30.1574428,44.7149103 L24.0461616,44.7149103 L23.1520902,46.2881076 L25.7295526,46.2881076 L25.7295526,52.7618086 C25.7295526,52.7969702 25.7584301,52.8287291 25.7969335,52.8287291 L27.3466951,52.8287291 C27.3834998,52.8287291 27.4129436,52.7969702 27.4129436,52.7618086 L27.4129436,46.2881076 L30.1574428,46.2881076 C30.1953799,46.2881076 30.2236913,46.2586172 30.2236913,46.2228885 L30.2236913,44.7801294 C30.2236913,44.7426993 30.1953799,44.7149103 30.1574428,44.7149103 L30.1574428,44.7149103 Z M37.1775173,48.7704019 C37.1775173,47.352029 36.028644,46.2002036 34.6096807,46.2002036 C33.1912837,46.2002036 32.0412779,47.352029 32.0412779,48.7704019 C32.0412779,50.1904761 33.1912837,51.3440029 34.6096807,51.3440029 C36.028644,51.3440029 37.1775173,50.1904761 37.1775173,48.7704019 L37.1775173,48.7704019 Z M38.8308983,48.7704019 C38.8308983,51.1063786 36.9414009,53 34.6096807,53 C32.2779605,53 30.3895956,51.1063786 30.3895956,48.7704019 C30.3895956,46.4361265 32.2779605,44.5459079 34.6096807,44.5459079 C36.9414009,44.5459079 38.8308983,46.4361265 38.8308983,48.7704019 L38.8308983,48.7704019 Z M47.5411585,48.4448737 L45.9913969,48.4448737 C45.9500624,48.4448737 45.9217511,48.4732298 45.9217511,48.5072571 L45.9217511,50.6101466 C45.4506507,51.0644116 44.8017553,51.3440029 44.0877439,51.3440029 C42.6382044,51.3440029 41.4610197,50.1904761 41.4610197,48.7704019 C41.4610197,47.352029 42.6382044,46.2002036 44.0877439,46.2002036 C44.6601987,46.2002036 45.1460209,46.3589979 45.6210849,46.6839589 C45.6386379,46.6975699 45.6901645,46.7145835 45.7167771,46.6884959 L46.8078953,45.6926292 C46.8333755,45.66881 46.8356404,45.626843 46.8118589,45.6001882 C46.0655726,44.945162 45.0984579,44.5459079 44.0311212,44.5459079 C41.6977024,44.5459079 39.8070725,46.4361265 39.8070725,48.7704019 C39.8070725,51.1063786 41.6977024,53 44.0311212,53 C46.2224173,53 47.5977811,51.2209373 47.6079732,51.0082665 L47.6079732,48.5072571 C47.6079732,48.4732298 47.5745658,48.4448737 47.5411585,48.4448737 L47.5411585,48.4448737 Z M55.3698042,51.2521291 L50.614069,51.2521291 L50.614069,49.4702308 L54.7299684,49.4702308 C54.769038,49.4702308 54.7996143,49.438472 54.7996143,49.4027433 L54.7996143,47.9611184 C54.7996143,47.9265239 54.769038,47.8953322 54.7299684,47.8953322 L50.614069,47.8953322 L50.614069,46.2909432 L55.2769431,46.2909432 C55.3120491,46.2909432 55.3420591,46.26202 55.3420591,46.2245899 L55.3420591,44.7818308 C55.3420591,44.7466692 55.3120491,44.7149103 55.2769431,44.7149103 L48.995794,44.7149103 C48.9629529,44.7149103 48.9335091,44.7466692 48.9335091,44.7818308 L48.9335091,52.7623758 C48.9335091,52.8009401 48.9629529,52.8287291 48.995794,52.8287291 L55.3698042,52.8287291 C55.404344,52.8287291 55.4337878,52.8009401 55.4337878,52.7623758 L55.4337878,51.3184824 C55.4337878,51.2816194 55.404344,51.2521291 55.3698042,51.2521291 L55.3698042,51.2521291 Z M63.9345442,44.7149103 C63.9707827,44.7149103 63.9996603,44.7466692 63.9996603,44.7818308 L63.9996603,46.2245899 C63.9996603,46.26202 63.9707827,46.2909432 63.9345442,46.2909432 L61.1906113,46.2909432 L61.1906113,52.7623758 C61.1906113,52.8009401 61.1583364,52.8287291 61.1237965,52.8287291 L59.5734688,52.8287291 C59.5360978,52.8287291 59.5077865,52.8009401 59.5077865,52.7623758 L59.5077865,46.2909432 L56.7491316,46.2909432 C56.7117607,46.2909432 56.6806182,46.26202 56.6806182,46.2245899 L56.6806182,44.7818308 C56.6806182,44.7466692 56.7117607,44.7149103 56.7491316,44.7149103 L63.9345442,44.7149103 Z M7.60555256,19.7841573 L0,11 L8.39147475,11 L13.945023,16.7664995 C15.6046324,18.4882828 17.5218749,18.971471 19.2369746,18.971471 L44.9481814,18.971471 C46.3699758,18.971471 48.1020623,19.4694044 49.5634926,20.747131 L51.6506029,22.787637 L14.255315,22.787637 C11.476276,22.787637 9.79571614,22.3152241 7.60555256,19.7841573 Z M64,37.2174968 L55.607959,37.2174968 L50.0544108,31.4504301 C48.3953676,29.7286468 46.4775589,29.2454586 44.7624592,29.2454586 L19.0512523,29.2454586 C17.6294579,29.2454586 15.8979377,28.7480924 14.4359412,27.4703658 L12.3493971,25.4298598 L49.7441188,25.4298598 C52.5231578,25.4298598 54.2042839,25.9022727 56.3938812,28.4333395 L64,37.2174968 Z" id="new_logo"></path>
        </g>
    </g>
</svg>