<?xml version="1.0" encoding="UTF-8"?>
<svg width="150px" height="122px" viewBox="0 0 150 122" version="1.1" xmlns="http://www.w3.org/2000/svg" xmlns:xlink="http://www.w3.org/1999/xlink">
    <!-- Generator: Sketch 52.6 (67491) - http://www.bohemiancoding.com/sketch -->
    <title>Track_Indicator/Operatør/GoAhead Copy</title>
    <desc>Created with Sketch.</desc>
    <g id="Track_Indicator/Operatør/GoAhead-Copy" stroke="none" stroke-width="1" fill="none" fill-rule="evenodd">
        <g id="GO_AHEAD_NORDIC_LOGO_SHORT_RGB_PRIMARY-2-Copy" fill="#FFFFFF">
            <g id="GO_AHEAD_NORDIC_LOGO_SHORT_RGB_PRIMARY">
                <polygon id="Path" points="23.3255814 94.4011628 19.6046512 115.627907 19.5290698 115.627907 9.88372093 94.4011628 5.22674419 94.4011628 0.569767442 120.767442 4.18604651 120.767442 8.01744186 99.0930233 8.09302326 99.0930233 17.7790698 120.767442 22.3197674 120.767442 26.9767442 94.4011628"></polygon>
                <path d="M54.0697674,105.412791 C54.0687935,104.277171 53.8721168,103.150214 53.4883721,102.081395 C53.1245051,101.079666 52.5674526,100.159146 51.8488372,99.372093 C51.1042186,98.5732803 50.1959354,97.9446213 49.1860465,97.5290698 C48.0320941,97.0641055 46.7962039,96.8367017 45.5523256,96.8604651 C43.9363956,96.8436361 42.3404583,97.2186813 40.9011628,97.9534884 C39.5210417,98.6723027 38.2992371,99.6608177 37.3081395,100.860465 C36.3050233,102.082688 35.5291818,103.474871 35.0174419,104.97093 C34.4857238,106.488078 34.2144558,108.084235 34.2151163,109.69186 C34.2187524,110.819668 34.4153897,111.938534 34.7965116,113 C35.1542105,114.007744 35.7052147,114.935959 36.4186047,115.732558 C37.1536912,116.533032 38.0571696,117.160503 39.0639535,117.569767 C40.2281079,118.042148 41.4765148,118.271649 42.7325581,118.244186 C44.3665325,118.268479 45.982171,117.89748 47.4418605,117.162791 C48.8208538,116.462528 50.038642,115.482357 51.0174419,114.284884 C52.010876,113.058975 52.7804052,111.667524 53.2906977,110.174419 C53.8243404,108.645715 54.0956073,107.037771 54.0930233,105.418605 M42.6337209,121.44186 C40.9316295,121.461057 39.2387383,121.189722 37.627907,120.639535 C36.1982427,120.151172 34.8856253,119.371125 33.7732558,118.348837 C32.6981963,117.348367 31.8531538,116.126428 31.2965116,114.767442 C30.692315,113.270023 30.3938211,111.666854 30.4186047,110.052326 C30.3983582,107.881308 30.7930285,105.726408 31.5813953,103.703488 C32.3249242,101.789917 33.4236948,100.034251 34.8197674,98.5290698 C36.1953265,97.0586099 37.8468733,95.8732893 39.6802326,95.0406977 C41.5859274,94.1759516 43.6573649,93.7374577 45.75,93.755814 C47.4230735,93.7373812 49.0868558,94.0068117 50.6686047,94.5523256 C52.0883167,95.0471983 53.3920642,95.8266771 54.5,96.8430233 C55.5724154,97.8457779 56.4170312,99.0671002 56.9767442,100.424419 C57.5815316,101.911502 57.8801226,103.505306 57.8546512,105.110465 C57.8727783,107.293789 57.4884553,109.461765 56.7209302,111.505814 C56.0011933,113.424495 54.9195792,115.187053 53.5348837,116.697674 C52.1676022,118.169847 50.5213735,119.355606 48.6918605,120.186047 C46.7863417,121.051329 44.7264123,121.461679 42.6337209,121.442762 L43,122" id="Shape" fill-rule="nonzero"></path>
                <path d="M67.4883721,105.982558 L71.5581395,105.982558 C72.4504468,105.985843 73.3413655,105.911924 74.2209302,105.761628 C74.9816094,105.635873 75.7139101,105.376024 76.3837209,104.994186 C77.6892247,104.267427 78.4639804,102.857959 78.377907,101.366279 C78.4789873,100.17634 77.9097797,99.0289605 76.9011628,98.3895349 C75.6745975,97.7314408 74.2912382,97.4217935 72.9011628,97.494186 L69.0290698,97.494186 L67.4883721,105.982558 Z M64.9186047,120.767442 L61.3081395,120.767442 L65.9593023,94.4011628 L73.4476744,94.4011628 C74.6398537,94.386828 75.8286223,94.5315137 76.9825581,94.8313953 C77.9679583,95.0749956 78.8975241,95.5052405 79.7209302,96.0988372 C80.4563566,96.6330753 81.0541974,97.3345418 81.4651163,98.1453488 C81.8922914,99.0206665 82.103612,99.9855642 82.0813953,100.959302 C82.0954706,101.992364 81.8975983,103.017342 81.5,103.97093 C81.146428,104.817629 80.6264637,105.584725 79.9709302,106.226744 C79.2950593,106.877922 78.5072469,107.401818 77.6453488,107.773256 C76.7051392,108.182295 75.7165115,108.469505 74.7034884,108.627907 L80.3255814,120.767442 L76.255814,120.767442 L71.0232558,109 L66.9534884,109 L64.9186047,120.767442 Z" id="Shape" fill-rule="nonzero"></path>
                <path d="M89.122093,117.569767 L94.5232558,117.569767 C96.3169984,117.6054 98.0986573,117.268865 99.755814,116.581395 C101.181866,115.972907 102.468033,115.078527 103.534884,113.953488 C104.546375,112.875142 105.325998,111.600835 105.825581,110.209302 C106.330241,108.818989 106.587995,107.351164 106.587209,105.872093 C106.587157,104.772359 106.390253,103.681513 106.005814,102.651163 C105.641544,101.65654 105.064091,100.75365 104.313953,100.005814 C103.4841,99.2038361 102.493194,98.5874925 101.406977,98.1976744 C100.061549,97.7234223 98.6413191,97.4968946 97.2151163,97.5290698 L92.6395349,97.5290698 L89.122093,117.569767 Z M89.6046512,94.4011628 L98.1337209,94.4011628 C99.6318282,94.4011712 101.122723,94.608566 102.563953,95.0174419 C103.992231,95.407306 105.333716,96.0642388 106.517442,96.9534884 C107.705811,97.8669435 108.67184,99.0377076 109.343023,100.377907 C110.100732,101.949784 110.47151,103.680084 110.424419,105.424419 C110.451571,107.583466 110.040163,109.725556 109.215116,111.72093 C108.445216,113.55333 107.295971,115.201903 105.843023,116.55814 C104.364917,117.923664 102.629599,118.981062 100.738372,119.668605 C98.689965,120.416308 96.5235246,120.788541 94.3430233,120.767442 L84.9476744,120.767442 L89.6046512,94.4011628 Z" id="Shape" fill-rule="nonzero"></path>
                <polygon id="Path" points="118.517442 94.4011628 113.866279 120.767442 117.517442 120.767442 122.174419 94.4011628"></polygon>
                <path d="M147.738372,116.598837 C147.195246,117.286981 146.583574,117.918132 145.912791,118.482558 C145.202233,119.087588 144.421422,119.604876 143.587209,120.023256 C142.662506,120.483246 141.686773,120.832559 140.680233,121.063953 C139.551582,121.323557 138.396462,121.450386 137.238372,121.44186 C135.595045,121.460798 133.961945,121.181064 132.418605,120.616279 C131.028858,120.107233 129.759859,119.315346 128.69186,118.290698 C127.650503,117.279644 126.832542,116.061615 126.290698,114.715116 C125.70581,113.245273 125.415426,111.674829 125.436047,110.093023 C125.418755,107.902823 125.829551,105.730345 126.645349,103.697674 C127.415135,101.769008 128.545813,100.004913 129.976744,98.5 C131.3928,97.0269889 133.080896,95.8423594 134.947674,95.0116279 C136.87409,94.1474786 138.964297,93.7092094 141.075581,93.7267442 C142.021495,93.7241847 142.964929,93.8235962 143.889535,94.0232558 C144.755263,94.2080928 145.597678,94.4888979 146.401163,94.8604651 C147.144371,95.2063714 147.844816,95.6375643 148.488372,96.1453488 C149.077911,96.6128818 149.581554,97.1794805 149.976744,97.8197674 L146.959302,100.017442 C146.736714,99.61067 146.461044,99.2352898 146.139535,98.9011628 C145.760525,98.5024046 145.328124,98.1580491 144.854651,97.877907 C144.30909,97.5530828 143.722479,97.3027955 143.110465,97.1337209 C142.408074,96.9402245 141.681997,96.8462846 140.953488,96.8546512 C139.310877,96.8379529 137.688135,97.2147319 136.22093,97.9534884 C134.804553,98.6731315 133.540973,99.6603036 132.5,100.860465 C131.448996,102.056808 130.627166,103.436379 130.075581,104.930233 C129.51104,106.442224 129.221596,108.04303 129.22093,109.656977 C129.212706,110.793732 129.395481,111.923795 129.761628,113 C130.101932,114.010681 130.646113,114.940735 131.360465,115.732558 C132.093656,116.528787 132.990023,117.157433 133.988372,117.575581 C135.122898,118.037466 136.339185,118.264902 137.563953,118.244186 C140.565525,118.274056 143.411942,116.913099 145.273256,114.55814 L147.738372,116.598837 Z" id="Path"></path>
                <path d="M51.0697674,78.5465116 C46.1915337,79.7690317 41.1802306,80.3803092 36.1511628,80.3662791 C31.1182444,80.4198298 26.111617,79.63386 21.3372093,78.0406977 C17.1278272,76.6549896 13.2502286,74.4143354 9.94767442,71.4593023 C6.79045357,68.5810733 4.29510259,65.0522741 2.63372093,61.1162791 C0.831386386,56.7820518 -0.0611013814,52.123701 0.011627907,47.4302326 C-0.0318521921,41.17542 1.11039285,34.9690246 3.37790698,29.1395349 C5.52238525,23.6036051 8.71885084,18.5354599 12.7906977,14.2151163 C16.8237268,9.97230967 21.6596101,6.57316001 27.0174419,4.21511628 C32.6299141,1.75874723 38.6994197,0.520274823 44.8255814,0.581395349 C50.3918433,0.508537956 55.9233507,1.46856794 61.1395349,3.4127907 C66.0155039,5.30813953 69.8468992,8.10658915 72.6337209,11.8081395 L59.6802326,23.4883721 C58.1657781,21.3350298 56.1765664,19.5586637 53.8662791,18.2965116 C51.4011628,16.9089147 48.2810078,16.2151163 44.505814,16.2151163 C40.9316519,16.1753879 37.3976951,16.9717725 34.1860465,18.5406977 C31.038786,20.0830965 28.2363707,22.2467114 25.9476744,24.9011628 C23.585951,27.6492706 21.7386194,30.8003693 20.494186,34.2034884 C19.1659107,37.7805593 18.4942884,41.5680361 18.5116279,45.3837209 C18.4831954,48.0237426 18.916055,50.6484462 19.7906977,53.1395349 C20.6027298,55.4651867 21.9144995,57.5846574 23.6337209,59.3488372 C25.4218678,61.1428874 27.5753103,62.5309258 29.9476744,63.4186047 C32.6874772,64.4213061 35.5887151,64.9101016 38.505814,64.8604651 C40.4957085,64.8065361 42.4793172,64.6122552 44.4418605,64.2790698 C46.2074972,63.9748213 47.919315,63.4146612 49.5232558,62.6162791 L51.0697674,53.5290698 L36.3081395,53.5290698 L38.9825581,38.877907 L70.1046512,38.877907 L64.0639535,73.7616279 C59.9321557,75.8536913 55.5716157,77.4593846 51.0697674,78.5465116 Z" id="Path"></path>
                <polygon id="Path" points="117.744186 2.44767442 94.5465116 38.8662791 112.674419 38.8662791 122.343023 21.9127907 125.94186 46.3139535 101.906977 63.0930233 128.116279 63.0930233 130.686047 78.1744186 149.401163 78.1744186 135.069767 2.44767442"></polygon>
                <polygon id="Path" points="85.2093023 53.5232558 69.505814 78.1744186 89.8255814 78.1744186 97.8139535 64.9302326 104.319767 53.5232558"></polygon>
            </g>
        </g>
    </g>
</svg>