<?xml version="1.0" encoding="utf-8"?>
<!-- Generator: Adobe Illustrator 18.1.1, SVG Export Plug-In . SVG Version: 6.00 Build 0)  -->
<svg version="1.1" id="Layer_1" xmlns="http://www.w3.org/2000/svg" xmlns:xlink="http://www.w3.org/1999/xlink" x="0px" y="0px"
	 viewBox="305 305 40 40" enable-background="new 305 305 40 40" xml:space="preserve">
<title>Buss_sort</title>
<g id="_Group_">
	<path id="_Compound_Path_" d="M325,345c11,0,20-9,20-20c0-11-9-20-20-20s-20,9-20,20C305,336.1,314,345,325,345"/>
</g>
<g id="_Group_2">
	<path id="_Path_" fill="#FFFFFF" d="M334.3,330.6c0,1.3-1.1,2.4-2.4,2.4c-1.3,0-2.4-1.1-2.4-2.4c0-1.3,1.1-2.4,2.4-2.4
		C333.2,328.2,334.3,329.2,334.3,330.6L334.3,330.6"/>
	<path id="_Compound_Path_2" fill="#FFFFFF" d="M338.9,318.6h-27.8c-0.3,0-0.6,0.3-0.6,0.6l0,0v11.2c0,0.3,0.3,0.6,0.6,0.6l0,0h3.6
		c0-0.1,0-0.2,0-0.3c0-1.9,1.5-3.4,3.4-3.4c1.9,0,3.4,1.5,3.4,3.4c0,0.1,0,0.2,0,0.3h6.9c0-0.1,0-0.2,0-0.3c0-1.9,1.5-3.4,3.4-3.4
		c1.9,0,3.4,1.5,3.4,3.4c0,0.1,0,0.2,0,0.3h3.6c0.3,0,0.6-0.3,0.6-0.6v-11.2C339.5,318.8,339.2,318.6,338.9,318.6z M317.6,325.8
		h-5.8V321h5.8V325.8z M324.5,325.8h-5.8V321h5.8V325.8z M331.3,325.8h-5.8V321h5.8L331.3,325.8z M338.2,325.8h-5.8V321h5.8
		L338.2,325.8z"/>
	<path id="_Path_2" fill="#FFFFFF" d="M320.5,330.7c0,1.3-1.1,2.4-2.4,2.4c-1.3,0-2.4-1.1-2.4-2.4c0-1.3,1.1-2.4,2.4-2.4
		C319.5,328.3,320.5,329.3,320.5,330.7L320.5,330.7"/>
</g>
</svg>
