<?xml version="1.0" encoding="utf-8"?>
<!-- Generator: Adobe Illustrator 18.1.1, SVG Export Plug-In . SVG Version: 6.00 Build 0)  -->
<svg version="1.1" id="Layer_1" xmlns="http://www.w3.org/2000/svg" xmlns:xlink="http://www.w3.org/1999/xlink" x="0px" y="0px"
	 viewBox="305 305 40 40" enable-background="new 305 305 40 40" xml:space="preserve">
<title>Båt_sort</title>
<g id="_Group_">
	<g id="_Group_2">
		<g id="_Group_3">
			<path id="_Compound_Path_" d="M305,325.3c0-11,9-20,20-20c11,0,20,9,20,20c0,11-9,20-20,20C314,345.3,305,336.3,305,325.3
				C305,325.3,305,325.3,305,325.3"/>
		</g>
	</g>
	<g id="_Group_4">
		<g id="_Group_5">
			<path id="_Path_" fill="#FFFFFF" d="M336.9,330.2c-2.2-1.2-4.9-1.2-7.2,0c-1.8,1-4,1-5.8,0c-1.1-0.6-2.3-0.9-3.6-0.9
				c-1.3,0-2.5,0.3-3.6,0.9c-0.9,0.5-1.9,0.8-2.9,0.7c-1,0-2-0.2-2.9-0.7c-0.5-0.3-1.1-0.5-1.7-0.7l-0.4,1.5c0.5,0.1,1,0.3,1.4,0.6
				c1.1,0.6,2.3,0.9,3.6,0.9c1.3,0,2.5-0.3,3.6-0.9c0.9-0.5,1.8-0.7,2.8-0.7c1,0,2,0.2,2.9,0.7c2.2,1.2,4.9,1.2,7.2,0
				c1.8-1,4-1,5.8,0l0.1,0l0.9-1.2L336.9,330.2z"/>
			<path id="_Compound_Path_2" fill="#FFFFFF" d="M341.4,323.6h-4.9l-1.6-6.6c-0.1-0.3-0.2-0.4-0.5-0.4h-2.6l-0.6-2.4
				c-0.1-0.2-0.2-0.3-0.4-0.3h-0.1l-3.7,1.3c-0.3,0.1-0.6,0.4-0.5,0.8v2.9h-11.8c-0.3,0-0.5,0.2-0.5,0.5l-1,4.2h-1.6
				c-0.3,0-0.5,0.2-0.6,0.4l-1.2,4.3c0.7,0.2,1.4,0.5,2,0.8c0.6,0.4,1.4,0.6,2.1,0.6c0.7,0,1.5-0.2,2.1-0.6c1.3-0.7,2.8-1.1,4.3-1.1
				c1.5,0,3,0.4,4.3,1.1c1.3,0.8,3,0.8,4.3,0c2.7-1.5,5.9-1.5,8.6,0l0.3,0.2l3.8-5.2c0-0.1,0.1-0.1,0.1-0.2
				C341.7,323.7,341.6,323.6,341.4,323.6C341.4,323.6,341.4,323.6,341.4,323.6z M319.8,323.6h-5.4l0.5-2.3h4.9L319.8,323.6z
				 M326.3,323.6h-5.4v-2.3h5.4L326.3,323.6z M327.4,323.6v-2.3h5.4l0.6,2.2L327.4,323.6z"/>
		</g>
	</g>
</g>
</svg>
