<?xml version="1.0" encoding="utf-8"?>
<!-- Generator: Adobe Illustrator 18.1.1, SVG Export Plug-In . SVG Version: 6.00 Build 0)  -->
<svg version="1.1" id="Layer_1" xmlns="http://www.w3.org/2000/svg" xmlns:xlink="http://www.w3.org/1999/xlink" x="0px" y="0px"
	 viewBox="305 305 40 40" enable-background="new 305 305 40 40" xml:space="preserve">
<title>Trikk_sort</title>
<g id="_Group_">
	<g id="_Group_2">
		<path id="_Compound_Path_" d="M325,345c11,0,20-9,20-20s-9-20-20-20s-20,9-20,20S314,345,325,345"/>
	</g>
	<g id="_Group_3">
		<g id="_Group_4">
			<rect id="_Path_" x="310.7" y="332.9" fill="#FFFFFF" width="28.6" height="1.3"/>
			<path id="_Compound_Path_2" fill="#FFFFFF" d="M340,326.9l-0.6-2.6l-1-4.6l0,0l-0.1-0.6c-0.1-0.3-0.3-0.5-0.6-0.5h-12.1l2.9-2.5
				c0.3-0.2,0.4-0.7,0.1-1c0,0-0.1-0.1-0.1-0.1l-3.8-3.1h-2.3l4.6,3.6l-3.5,3.1h-11c-0.3,0-0.6,0.2-0.6,0.5l-0.6,2.6l-1.1,4.9l0,0
				l-0.1,0.4c-0.1,0.8,0,1.6,0.4,2.3l1.1,1.7h3.9v0.4c0,0.6,0.5,1.1,1.1,1.1h3.3c0.6,0,1.1-0.5,1.1-1.1v-0.4h8.2v0.4
				c0,0.6,0.5,1.1,1.1,1.1h3.3c0.6,0,1.1-0.5,1.1-1.1v-0.4h3.9l1.1-1.7C340,328.5,340.1,327.7,340,326.9z M317.5,325.8h-5.9l1.1-4.8
				h4.9V325.8z M324.5,325.8h-5.9V321h5.9L324.5,325.8z M331.5,325.8h-5.9V321h5.9L331.5,325.8z M332.5,325.8V321h4.8l1.1,4.8H332.5
				z"/>
		</g>
	</g>
</g>
</svg>
