<?xml version="1.0" encoding="UTF-8" standalone="no"?>
<svg width="64px" height="64px" viewBox="0 0 64 64" version="1.1" xmlns="http://www.w3.org/2000/svg" xmlns:xlink="http://www.w3.org/1999/xlink">
    <!-- Generator: Sketch 3.8.3 (29802) - http://www.bohemiancoding.com/sketch -->
    <title>Icon/Operator logo/SJ</title>
    <desc>Created with Sketch.</desc>
    <defs>
        <path d="M42.0547565,25.0599158 C41.3752388,29.7435716 37.1928906,29.9524315 34.3932482,29.799484 C34.1987881,29.7872194 33.9897617,29.7504254 33.8244342,29.7331106 C33.5596918,29.7020882 33.5422122,29.4080972 33.768354,29.3107014 C34.3371679,29.0621618 37.1386311,27.5601021 37.4441592,24.3781452 C37.5071584,23.7245112 37.5053376,22.8082692 37.5053376,22.6293495 L37.5053376,10.3390817 L42.1319579,10.3390817 L42.1319579,22.7960045 C42.1319579,24.249727 42.0911723,24.7940613 42.0547565,25.0599158 Z M36.9314255,38.159651 C37.124429,33.3537093 41.0995716,30.0462201 47.2483699,30.0462201 L63.7763837,30.0462201 C64.0047104,30.0462201 64.0607906,30.1887065 63.9326072,30.4285888 C63.3321116,31.5648731 61.3933374,34.8316004 58.9942682,34.8316004 L49.3721361,34.8316004 C44.0572583,34.8316004 40.4998043,37.7004478 39.4794351,40.6490155 C39.2955356,41.186496 38.7726055,42.4677919 38.0162505,42.4677919 C36.9824076,42.4677919 36.8170801,41.08405 36.9314255,38.159651 Z M27.0682213,38.159651 C26.8770386,33.3537093 22.9015318,30.0462201 16.751641,30.0462201 L0.22508392,30.0462201 C-0.00324279419,30.0462201 -0.0615079845,30.1887065 0.0670395917,30.4285888 C0.667171052,31.5648731 2.60849436,34.8316004 5.00574279,34.8316004 L14.626054,34.8316004 C19.9405677,34.8316004 23.4998425,37.7004478 24.5216683,40.6490155 C24.705932,41.186496 25.2270413,42.4677919 25.9837604,42.4677919 C27.0208808,42.4677919 27.1843875,41.08405 27.0682213,38.159651 Z M32.0003696,48.1044836 C35.4602295,48.1044836 38.9357481,46.2961683 40.3909212,44.3230015 C42.1913156,41.8765633 42.518329,37.4309861 50.5866012,37.4309861 L57.7739766,37.4309861 C57.7739766,37.4309861 58.0037599,37.5525505 57.8945127,37.7527529 C57.2896472,38.8720832 55.1098007,42.5687949 52.6491889,42.5687949 L49.3353562,42.5687949 C47.5447941,42.5687949 47.1252847,43.7837173 46.2669656,45.209664 C43.732794,50.0617785 38.7318199,53.3548387 32.0003696,53.3548387 C25.2674627,53.3548387 20.2672169,50.0617785 17.7345019,45.209664 C16.8707205,43.7837173 16.4566735,42.5687949 14.6664755,42.5687949 L11.3526428,42.5687949 C8.8902102,42.5687949 6.71182039,38.8720832 6.10841151,37.7527529 C5.99770765,37.5525505 6.22567021,37.4309861 6.22567021,37.4309861 L13.4148664,37.4309861 C21.481682,37.4309861 21.8079671,41.8765633 23.6105464,44.3230015 C25.0638987,46.2961683 28.540874,48.1044836 32.0003696,48.1044836 Z M33.6510953,10.9440178 L33.6510953,13.9394798 C33.6510953,13.9394798 31.2509336,12.79057 29.4396145,12.79057 C27.6333936,12.79057 26.2663466,13.4250856 26.2663466,14.7428148 C26.2663466,16.3805071 29.3431128,17.1528197 30.4734575,17.5402386 C31.6038022,17.9316254 34.9496807,19.3885944 34.9496807,22.353034 C34.9496807,25.4978362 33.2053666,28.3843591 27.1527058,28.3843591 C23.9652357,28.3843591 22.1451768,27.405351 22.1451768,27.405351 L22.1451768,24.4391078 C23.197956,24.8301339 25.564251,25.4177552 26.7838143,25.4177552 C28.8547777,25.4177552 30.104566,24.9765883 30.104566,23.6480374 C30.104566,21.9670581 26.8559175,21.0749847 25.6010309,20.5638371 C24.3461444,20.0508859 21.4674798,18.8424565 21.4674798,15.4036633 C21.4674798,11.5680724 24.9375361,10 29.070723,10 C31.8791052,10 33.6510953,10.9440178 33.6510953,10.9440178 Z" id="path-1"></path>
    </defs>
    <g id="Operator-logos" stroke="none" stroke-width="1" fill="none" fill-rule="evenodd">
        <g id="Icon/Operator-logo/SJ">
            <g id="Combined-Shape">
                <use fill="#9EA0A5" xlink:href="#path-1"></use>
                <use fill="#FFFFFF" xlink:href="#path-1"></use>
            </g>
        </g>
    </g>
</svg>