<?xml version="1.0" encoding="UTF-8" standalone="no"?>
<!-- Created with Inkscape (http://www.inkscape.org/) -->

<svg
   xmlns:dc="http://purl.org/dc/elements/1.1/"
   xmlns:cc="http://creativecommons.org/ns#"
   xmlns:rdf="http://www.w3.org/1999/02/22-rdf-syntax-ns#"
   xmlns:svg="http://www.w3.org/2000/svg"
   xmlns="http://www.w3.org/2000/svg"
   xmlns:sodipodi="http://sodipodi.sourceforge.net/DTD/sodipodi-0.dtd"
   xmlns:inkscape="http://www.inkscape.org/namespaces/inkscape"
   width="958"
   height="958"
   viewBox="0 0 253.47083 253.47084"
   version="1.1"
   id="svg8"
   inkscape:version="0.92.3 (2405546, 2018-03-11)"
   sodipodi:docname="Vy.svg">
  <defs
     id="defs2">
    <style
       id="style3713">.cls-1{fill:#f2f2f3;}</style>
  </defs>
  <sodipodi:namedview
     id="base"
     pagecolor="#ffffff"
     bordercolor="#666666"
     borderopacity="1.0"
     inkscape:pageopacity="0.0"
     inkscape:pageshadow="2"
     inkscape:zoom="0.35"
     inkscape:cx="-51.192157"
     inkscape:cy="273.7998"
     inkscape:document-units="mm"
     inkscape:current-layer="layer1"
     showgrid="false"
     units="px"
     fit-margin-top="0"
     fit-margin-left="0"
     fit-margin-right="0"
     fit-margin-bottom="0"
     inkscape:window-width="1885"
     inkscape:window-height="1145"
     inkscape:window-x="1955"
     inkscape:window-y="27"
     inkscape:window-maximized="1" />
  <metadata
     id="metadata5">
    <rdf:RDF>
      <cc:Work
         rdf:about="">
        <dc:format>image/svg+xml</dc:format>
        <dc:type
           rdf:resource="http://purl.org/dc/dcmitype/StillImage" />
        <dc:title></dc:title>
      </cc:Work>
    </rdf:RDF>
  </metadata>
  <g
     inkscape:label="Ebene 1"
     inkscape:groupmode="layer"
     id="layer1"
     transform="translate(19.339337,32.194641)">
    <g
       id="g3770"
       transform="matrix(0.26458333,0,0,0.26458333,-19.365745,30.464558)">
      <path
         id="path3719"
         d="m 722.5,301.8 a 0.37121422,0.37121422 0 0 0 0.06,-0.74 v 0 a 52,52 0 0 1 -21,-7.63 c -14.11,-9 -25.17,-26.17 -34.58,-54.83 C 665.74,234.83 618.72,74.8 615.65,64.36 604.94,27.9 584.77,11.56 566.12,4.67 a 75.57,75.57 0 0 0 -26,-4.59 h -13 a 0.37121422,0.37121422 0 0 0 -0.06,0.74 v 0 a 66.87,66.87 0 0 1 16.43,4.51 c 17.27,7.25 35.29,23.7 45.67,59 2.32,7.89 49.67,169.09 50.69,172.27 9.58,29.94 20.86,47.66 35.35,56.89 9.15,5.83 19.59,8.28 31.68,8.28 z"
         class="cls-1"
         inkscape:connector-curvature="0"
         style="fill:#f2f2f3" />
      <path
         id="path3721"
         d="m 764.09,301.8 a 0.37121422,0.37121422 0 0 0 0.06,-0.74 v 0 C 743.04,298.33 729.38,268.68 721.84,243.45 713.93,216.97 685.35,120.29 668.34,64.36 651.26,8.19 598.1,0.13 574,0.09 v 0 a 0.37121422,0.37121422 0 0 0 -0.06,0.74 v 0 c 22.48,3 54.42,16.64 68.2,63.54 12.1,41.16 50.54,171.92 52,176.3 9.23,27.33 20.05,43.83 33.75,52.68 9.22,6 19.74,8.45 32,8.45 z"
         class="cls-1"
         inkscape:connector-curvature="0"
         style="fill:#f2f2f3" />
      <path
         id="path3723"
         d="m 210.31,484.7 h -6.46 c -19.21,0 -42.32,-9.77 -55,-54.62 L 34.28,39.21 C 27.49,15.75 17.41,4 0.31,1 V 1 A 0.37,0.37 0 0 1 0.37,0.31 H 17.6 c 22.9,0 35.4,11.46 43.29,38.9 0,0 105.89,359.38 115.52,393.33 7.12,25.12 15.44,42.2 28.32,49.11 a 24.84,24.84 0 0 0 5.64,2.31 v 0 a 0.37121422,0.37121422 0 0 1 -0.06,0.74 z"
         class="cls-1"
         inkscape:connector-curvature="0"
         style="fill:#f2f2f3" />
      <path
         id="path3725"
         d="M 171.53,53.79 C 160.58,15.89 143.37,0 111.73,0 H 96.3 a 0.37121422,0.37121422 0 0 0 -0.06,0.74 v 0 C 121,4.29 135.36,20.56 145,53.79 c 0,0 94.79,322.79 107.1,365 l 13,-44 C 253.74,336 171.53,53.79 171.53,53.79 Z"
         class="cls-1"
         inkscape:connector-curvature="0"
         style="fill:#f2f2f3" />
      <path
         id="path3727"
         d="m 219.17,484.7 h 11.26 c 14.11,0 24.22,-3.73 31.79,-9.91 12.33,-10 17.94,-26.55 23.13,-44 C 286.13,428.22 386.45,88 390,74.69 401.95,29.78 428.66,10.22 457.15,3.29 a 110.09,110.09 0 0 1 14.27,-2.46 v 0 a 0.37121422,0.37121422 0 0 0 -0.06,-0.74 h -12.54 c -37.58,0 -79.54,14.91 -95.42,74.6 -5.73,21.53 -103.85,353.52 -104.63,356.13 -5.19,17.42 -11.09,35.78 -23.42,45.82 A 31.24,31.24 0 0 1 219.11,484 v 0 a 0.37121422,0.37121422 0 0 0 0.06,0.74 z"
         class="cls-1"
         inkscape:connector-curvature="0"
         style="fill:#f2f2f3" />
      <path
         id="path3729"
         d="m 734.47,250.46 59,-196.72 c 9.6,-33.22 24,-49.5 48.72,-53 v 0 A 0.37121422,0.37121422 0 0 0 842.13,0 h -15.4 c -31.64,0 -48.84,15.84 -59.8,53.74 l -45.64,153.35 c 0,0 12.07,40.25 13.18,43.37 z"
         class="cls-1"
         inkscape:connector-curvature="0"
         style="fill:#f2f2f3" />
      <path
         id="path3731"
         d="m 889.81,0.31 h -16.44 c -26.9,0 -41.54,13.47 -50.85,45.7 l -58.89,196.87 c -4.29,13.8 -9.69,27.19 -15.12,35.84 5.14,7 10.57,11.35 15.95,12.43 10.14,-8.7 18.55,-24.83 26.08,-49.33 0.4,-1.3 58.64,-195.81 58.64,-195.81 8.07,-27.92 20.13,-41.76 40.69,-45 v 0 a 0.37121422,0.37121422 0 0 0 -0.06,-0.74 z"
         class="cls-1"
         inkscape:connector-curvature="0"
         style="fill:#f2f2f3" />
      <path
         id="path3733"
         d="m 770.21,311.64 h -26.45 c -12,39.61 -27.88,92.05 -33.79,111.81 -16.44,55.07 9.5,60.74 19.4,60.74 h 20.89 a 0.37,0.37 0 0 0 0.08,-0.73 v 0 c -11.33,-2.7 -26.74,-14.44 -13.14,-60 0.01,-0.01 23.99,-81.2 33.01,-111.82 z"
         class="cls-1"
         inkscape:connector-curvature="0"
         style="fill:#f2f2f3" />
      <path
         id="path3735"
         d="M 924.73,0.72 A 0.37,0.37 0 0 0 924.62,0 h -3.68 C 898,0 885.58,11.47 877.65,38.9 c 0,0 -45.15,151.89 -59.34,198.94 -14.19,47.05 -23.94,59.66 -43.22,63 l -1,0.23 a 0.37121422,0.37121422 0 0 0 0.06,0.74 h 13.08 c 33.57,0 46.08,-22.39 57.89,-61.81 9.9,-33 67.8,-226.51 67.8,-226.51 C 914.55,8 919.27,2.37 924.73,0.72 Z"
         class="cls-1"
         inkscape:connector-curvature="0"
         style="fill:#f2f2f3" />
      <path
         id="path3737"
         d="m 796.82,311 c -9.28,31.58 -35.72,121.63 -35.72,121.63 -14,46.79 8.07,51.6 16.48,51.6 H 798 a 0.37,0.37 0 0 0 0.08,-0.73 v 0 c -9.58,-2.49 -22.1,-12.75 -10.72,-50.87 0,0 29,-98.22 40,-135.7 -6.3,6.34 -16.94,12.27 -30.54,14.07 z"
         class="cls-1"
         inkscape:connector-curvature="0"
         style="fill:#f2f2f3" />
      <path
         id="path3739"
         d="m 846.65,484.19 a 0.37,0.37 0 0 0 0.08,-0.73 v 0 c -8.09,-2.3 -18.25,-11.27 -8.72,-43.18 0,0 112,-381.24 118.25,-402.83 6.25,-21.59 -8.83,-35.1 -22.38,-37.14 -0.1,0 -0.54,-0.14 -0.63,0.15 -0.09,0.29 0.28,0.46 0.36,0.51 2.7,1.42 5.72,4.69 4.07,10.3 l -126,429 c -11.89,39.82 6.87,43.91 14,43.91 z"
         class="cls-1"
         inkscape:connector-curvature="0"
         style="fill:#f2f2f3" />
      <path
         id="path3741"
         d="m 669.41,301.8 a 0.37121422,0.37121422 0 0 0 0.06,-0.74 v 0 a 52.09,52.09 0 0 1 -20.77,-7.47 c -14.81,-9.38 -26.27,-27.6 -36,-58.64 -0.83,-2.66 -48.51,-165 -50.15,-170.58 C 552.47,30 536.26,13.55 520.27,6 A 63.76,63.76 0 0 0 492.8,0.09 h -14 a 0.37121422,0.37121422 0 0 0 -0.06,0.74 v 0 c 2.62,0.4 39,1.52 57.33,63.54 18.33,62.02 40.28,136.16 47.7,162.33 16,56.6 36.74,75.1 70,75.1 z"
         class="cls-1"
         inkscape:connector-curvature="0"
         style="fill:#f2f2f3" />
      <path
         id="path3743"
         d="m 500.81,21.38 v 0 c -13.38,11.48 -24.45,28.53 -31,53.28 C 469,77.31 369.6,415.62 367.43,423 c -8.36,28.17 -15.36,56.15 -47,61 v 0 a 0.37121422,0.37121422 0 0 0 0.06,0.74 h 6.29 c 0,0 4.54,-0.07 5.45,-0.11 32.15,-1.3 48.17,-15 61.88,-61.63 10,-34.08 101.5,-345.57 102.3,-348.27 3.91,-13 8.59,-27.87 15.33,-40.88 A 66.73,66.73 0 0 0 500.81,21.38 Z"
         class="cls-1"
         inkscape:connector-curvature="0"
         style="fill:#f2f2f3" />
      <path
         id="path3745"
         d="M 485.88,12.71 C 475.71,9.82 461.27,10.59 448.16,21.1 435.05,31.61 423.32,49.43 417.32,72 c -0.7,2.62 -104.61,356.24 -105.39,358.84 -5.19,17.42 -10.81,33.92 -23.13,44 A 43.66,43.66 0 0 1 267.25,484 v 0 a 0.37121422,0.37121422 0 0 0 0.06,0.74 h 16.28 c 14.11,0 24.22,-3.73 31.79,-9.91 12.33,-10 17.94,-26.55 23.13,-44 0.78,-2.61 103.93,-353.51 104.63,-356.13 6.58,-24.75 17.65,-41.79 31,-53.28 a 80.78,80.78 0 0 1 12.11,-8.58 z"
         class="cls-1"
         inkscape:connector-curvature="0"
         style="fill:#f2f2f3" />
      <path
         id="path3747"
         d="M 239.82,454.42 A 82.07,82.07 0 0 1 228.63,430.08 C 224.68,416.14 116.11,46 116.11,46 106.79,13.78 92.16,0.31 65.26,0.31 H 48.83 a 0.37121422,0.37121422 0 0 0 -0.06,0.74 c 20.57,3.2 32.62,17 40.69,45 L 202,430.08 c 5.82,20.54 13.83,33.72 22.64,42 6.27,-3.63 11.59,-9.52 15.18,-17.66 z"
         class="cls-1"
         inkscape:connector-curvature="0"
         style="fill:#f2f2f3" />
    </g>
  </g>
</svg>
