<?xml version="1.0" encoding="UTF-8"?>
<svg width="340px" height="160px" viewBox="0 0 340 160" version="1.1" xmlns="http://www.w3.org/2000/svg" xmlns:xlink="http://www.w3.org/1999/xlink">
    <!-- Generator: Sketch 51.3 (57544) - http://www.bohemiancoding.com/sketch -->
    <title>Line/Track indicator/F1x</title>
    <desc>Created with Sketch.</desc>
    <defs></defs>
    <g id="Line/Track-indicator/F1x" stroke="none" stroke-width="1" fill="none" fill-rule="evenodd">
        <rect id="Rectangle-257" fill="#767676" x="0" y="0" width="340" height="160"></rect>
        <g id="Line/Track-indicator/x-border" fill="#FFFFFF">
            <rect id="Rectangle-234" x="15" y="15" width="310" height="130"></rect>
        </g>
        <path d="M192.082031,128 L172.667969,128 L172.667969,51.984375 L153.732422,59.2988281 L153.732422,43.1660156 L190.03125,28.3320312 L192.082031,28.3320312 L192.082031,128 Z M245.607422,75.9785156 L254.220703,54.0351562 L274.728516,54.0351562 L257.84375,90.1972656 L275.34375,128 L254.767578,128 L245.675781,104.826172 L236.652344,128 L216.007812,128 L233.507812,90.1972656 L216.759766,54.0351562 L237.335938,54.0351562 L245.607422,75.9785156 Z" id="1x" fill="#000000"></path>
        <polygon id="F" fill="#000000" points="120.335938 87.3945312 89.0957031 87.3945312 89.0957031 128 68.9980469 128 68.9980469 28.46875 124.095703 28.46875 124.095703 45.2167969 89.0957031 45.2167969 89.0957031 70.7148438 120.335938 70.7148438"></polygon>
    </g>
</svg>