<?xml version="1.0" encoding="UTF-8"?>
<svg width="340px" height="160px" viewBox="0 0 340 160" version="1.1" xmlns="http://www.w3.org/2000/svg" xmlns:xlink="http://www.w3.org/1999/xlink">
    <!-- Generator: Sketch 51.3 (57544) - http://www.bohemiancoding.com/sketch -->
    <title>Line/Track indicator/F2</title>
    <desc>Created with Sketch.</desc>
    <defs></defs>
    <g id="Line/Track-indicator/F2" stroke="none" stroke-width="1" fill="none" fill-rule="evenodd">
        <rect id="Rectangle-257" fill="#767676" x="0" y="0" width="340" height="160"></rect>
        <path d="M237.146484,128 L178.494141,128 L178.494141,114.328125 L205.427734,80.0800781 C208.84572,75.3404711 211.363599,71.181984 212.981445,67.6044922 C214.599292,64.0270003 215.408203,60.5976727 215.408203,57.3164062 C215.408203,52.8958112 214.644864,49.4323042 213.118164,46.9257812 C211.591464,44.4192583 209.392592,43.1660156 206.521484,43.1660156 C203.376937,43.1660156 200.881845,44.6243344 199.036133,47.5410156 C197.19042,50.4576969 196.267578,54.5592184 196.267578,59.8457031 L176.853516,59.8457031 C176.853516,53.7389018 178.118151,48.1562753 180.647461,43.0976562 C183.17677,38.0390372 186.731422,34.1084125 191.311523,31.3056641 C195.891624,28.5029157 201.075492,27.1015625 206.863281,27.1015625 C215.750044,27.1015625 222.642879,29.5510823 227.541992,34.4501953 C232.441105,39.3493083 234.890625,46.3105018 234.890625,55.3339844 C234.890625,60.9394812 233.534844,66.6246457 230.823242,72.3896484 C228.11164,78.1546512 223.201207,85.252562 216.091797,93.6835938 L203.308594,111.935547 L237.146484,111.935547 L237.146484,128 Z" id="2" fill="#FFFFFF"></path>
        <polygon id="F" fill="#FFFFFF" points="147.335938 87.3945312 116.095703 87.3945312 116.095703 128 95.9980469 128 95.9980469 28.46875 151.095703 28.46875 151.095703 45.2167969 116.095703 45.2167969 116.095703 70.7148438 147.335938 70.7148438"></polygon>
    </g>
</svg>