<?xml version="1.0" encoding="UTF-8"?>
<svg width="340px" height="160px" viewBox="0 0 340 160" version="1.1" xmlns="http://www.w3.org/2000/svg" xmlns:xlink="http://www.w3.org/1999/xlink">
    <!-- Generator: Sketch 51.3 (57544) - http://www.bohemiancoding.com/sketch -->
    <title>Line/Track indicator/F2x</title>
    <desc>Created with Sketch.</desc>
    <defs></defs>
    <g id="Line/Track-indicator/F2x" stroke="none" stroke-width="1" fill="none" fill-rule="evenodd">
        <rect id="Rectangle-257" fill="#767676" x="0" y="0" width="340" height="160"></rect>
        <g id="Line/Track-indicator/x-border" fill="#FFFFFF">
            <rect id="Rectangle-234" x="15" y="15" width="310" height="130"></rect>
        </g>
        <path d="M208.146484,128 L149.494141,128 L149.494141,114.328125 L176.427734,80.0800781 C179.84572,75.3404711 182.363599,71.181984 183.981445,67.6044922 C185.599292,64.0270003 186.408203,60.5976727 186.408203,57.3164062 C186.408203,52.8958112 185.644864,49.4323042 184.118164,46.9257812 C182.591464,44.4192583 180.392592,43.1660156 177.521484,43.1660156 C174.376937,43.1660156 171.881845,44.6243344 170.036133,47.5410156 C168.19042,50.4576969 167.267578,54.5592184 167.267578,59.8457031 L147.853516,59.8457031 C147.853516,53.7389018 149.118151,48.1562753 151.647461,43.0976562 C154.17677,38.0390372 157.731422,34.1084125 162.311523,31.3056641 C166.891624,28.5029157 172.075492,27.1015625 177.863281,27.1015625 C186.750044,27.1015625 193.642879,29.5510823 198.541992,34.4501953 C203.441105,39.3493083 205.890625,46.3105018 205.890625,55.3339844 C205.890625,60.9394812 204.534844,66.6246457 201.823242,72.3896484 C199.11164,78.1546512 194.201207,85.252562 187.091797,93.6835938 L174.308594,111.935547 L208.146484,111.935547 L208.146484,128 Z M245.607422,75.9785156 L254.220703,54.0351562 L274.728516,54.0351562 L257.84375,90.1972656 L275.34375,128 L254.767578,128 L245.675781,104.826172 L236.652344,128 L216.007812,128 L233.507812,90.1972656 L216.759766,54.0351562 L237.335938,54.0351562 L245.607422,75.9785156 Z" id="2x" fill="#000000"></path>
        <polygon id="F" fill="#000000" points="120.335938 87.3945312 89.0957031 87.3945312 89.0957031 128 68.9980469 128 68.9980469 28.46875 124.095703 28.46875 124.095703 45.2167969 89.0957031 45.2167969 89.0957031 70.7148438 120.335938 70.7148438"></polygon>
    </g>
</svg>