<?xml version="1.0" encoding="UTF-8"?>
<svg width="340px" height="160px" viewBox="0 0 340 160" version="1.1" xmlns="http://www.w3.org/2000/svg" xmlns:xlink="http://www.w3.org/1999/xlink">
    <!-- Generator: Sketch 51.3 (57544) - http://www.bohemiancoding.com/sketch -->
    <title>Line/Track indicator/L12</title>
    <desc>Created with Sketch.</desc>
    <defs></defs>
    <g id="Line/Track-indicator/L12" stroke="none" stroke-width="1" fill="none" fill-rule="evenodd">
        <rect id="Rectangle-257" fill="#DC0000" x="0" y="0" width="340" height="160"></rect>
        <path d="M186.082031,128 L166.667969,128 L166.667969,51.984375 L147.732422,59.2988281 L147.732422,43.1660156 L184.03125,28.3320312 L186.082031,28.3320312 L186.082031,128 Z M266.966797,128 L208.314453,128 L208.314453,114.328125 L235.248047,80.0800781 C238.666033,75.3404711 241.183911,71.181984 242.801758,67.6044922 C244.419604,64.0270003 245.228516,60.5976727 245.228516,57.3164062 C245.228516,52.8958112 244.465177,49.4323042 242.938477,46.9257812 C241.411776,44.4192583 239.212905,43.1660156 236.341797,43.1660156 C233.19725,43.1660156 230.702158,44.6243344 228.856445,47.5410156 C227.010733,50.4576969 226.087891,54.5592184 226.087891,59.8457031 L206.673828,59.8457031 C206.673828,53.7389018 207.938464,48.1562753 210.467773,43.0976562 C212.997083,38.0390372 216.551735,34.1084125 221.131836,31.3056641 C225.711937,28.5029157 230.895804,27.1015625 236.683594,27.1015625 C245.570357,27.1015625 252.463192,29.5510823 257.362305,34.4501953 C262.261418,39.3493083 264.710938,46.3105018 264.710938,55.3339844 C264.710938,60.9394812 263.355157,66.6246457 260.643555,72.3896484 C257.931953,78.1546512 253.02152,85.252562 245.912109,93.6835938 L233.128906,111.935547 L266.966797,111.935547 L266.966797,128 Z" id="12" fill="#FFFFFF"></path>
        <polygon id="L" fill="#FFFFFF" points="81.0957031 111.320312 116.369141 111.320312 116.369141 128 60.9980469 128 60.9980469 28.46875 81.0957031 28.46875"></polygon>
    </g>
</svg>