<?xml version="1.0" encoding="UTF-8"?>
<svg width="340px" height="160px" viewBox="0 0 340 160" version="1.1" xmlns="http://www.w3.org/2000/svg" xmlns:xlink="http://www.w3.org/1999/xlink">
    <!-- Generator: Sketch 51.3 (57544) - http://www.bohemiancoding.com/sketch -->
    <title>Line/Track indicator/L12x</title>
    <desc>Created with Sketch.</desc>
    <defs></defs>
    <g id="Line/Track-indicator/L12x" stroke="none" stroke-width="1" fill="none" fill-rule="evenodd">
        <rect id="Rectangle-257" fill="#DC0000" x="0" y="0" width="340" height="160"></rect>
        <g id="Line/Track-indicator/x-border" fill="#FFFFFF">
            <rect id="Rectangle-234" x="15" y="15" width="310" height="130"></rect>
        </g>
        <path d="M154.082031,128 L134.667969,128 L134.667969,51.984375 L115.732422,59.2988281 L115.732422,43.1660156 L152.03125,28.3320312 L154.082031,28.3320312 L154.082031,128 Z M234.966797,128 L176.314453,128 L176.314453,114.328125 L203.248047,80.0800781 C206.666033,75.3404711 209.183911,71.181984 210.801758,67.6044922 C212.419604,64.0270003 213.228516,60.5976727 213.228516,57.3164062 C213.228516,52.8958112 212.465177,49.4323042 210.938477,46.9257812 C209.411776,44.4192583 207.212905,43.1660156 204.341797,43.1660156 C201.19725,43.1660156 198.702158,44.6243344 196.856445,47.5410156 C195.010733,50.4576969 194.087891,54.5592184 194.087891,59.8457031 L174.673828,59.8457031 C174.673828,53.7389018 175.938464,48.1562753 178.467773,43.0976562 C180.997083,38.0390372 184.551735,34.1084125 189.131836,31.3056641 C193.711937,28.5029157 198.895804,27.1015625 204.683594,27.1015625 C213.570357,27.1015625 220.463192,29.5510823 225.362305,34.4501953 C230.261418,39.3493083 232.710938,46.3105018 232.710938,55.3339844 C232.710938,60.9394812 231.355157,66.6246457 228.643555,72.3896484 C225.931953,78.1546512 221.02152,85.252562 213.912109,93.6835938 L201.128906,111.935547 L234.966797,111.935547 L234.966797,128 Z M272.427734,75.9785156 L281.041016,54.0351562 L301.548828,54.0351562 L284.664062,90.1972656 L302.164062,128 L281.587891,128 L272.496094,104.826172 L263.472656,128 L242.828125,128 L260.328125,90.1972656 L243.580078,54.0351562 L264.15625,54.0351562 L272.427734,75.9785156 Z" id="12x" fill="#000000"></path>
        <polygon id="L" fill="#000000" points="64.0957031 111.320312 99.3691406 111.320312 99.3691406 128 43.9980469 128 43.9980469 28.46875 64.0957031 28.46875"></polygon>
    </g>
</svg>