<?xml version="1.0" encoding="UTF-8"?>
<svg width="340px" height="160px" viewBox="0 0 340 160" version="1.1" xmlns="http://www.w3.org/2000/svg" xmlns:xlink="http://www.w3.org/1999/xlink">
    <!-- Generator: Sketch 51.3 (57544) - http://www.bohemiancoding.com/sketch -->
    <title>Line/Track indicator/L13</title>
    <desc>Created with Sketch.</desc>
    <defs></defs>
    <g id="Line/Track-indicator/L13" stroke="none" stroke-width="1" fill="none" fill-rule="evenodd">
        <rect id="Rectangle-257" fill="#F0871E" x="0" y="0" width="340" height="160"></rect>
        <path d="M187.082031,128 L167.667969,128 L167.667969,51.984375 L148.732422,59.2988281 L148.732422,43.1660156 L185.03125,28.3320312 L187.082031,28.3320312 L187.082031,128 Z M226.541016,69.4160156 L235.90625,69.4160156 C239.460955,69.4160156 242.069979,68.1741661 243.733398,65.6904297 C245.396818,63.2066933 246.228516,59.8912968 246.228516,55.7441406 C246.228516,51.7792771 245.374032,48.6917428 243.665039,46.4814453 C241.956046,44.2711478 239.66603,43.1660156 236.794922,43.1660156 C234.106106,43.1660156 231.907235,44.2141822 230.198242,46.3105469 C228.489249,48.4069115 227.634766,51.0501143 227.634766,54.2402344 L208.289062,54.2402344 C208.289062,49.0448959 209.48534,44.3851118 211.87793,40.2607422 C214.27052,36.1363726 217.620096,32.912121 221.926758,30.5878906 C226.23342,28.2636603 231.007135,27.1015625 236.248047,27.1015625 C245.408249,27.1015625 252.585912,29.6308341 257.78125,34.6894531 C262.976588,39.7480722 265.574219,46.6750862 265.574219,55.4707031 C265.574219,59.9824444 264.400728,64.1637177 262.053711,68.0146484 C259.706694,71.8655792 256.61916,74.816396 252.791016,76.8671875 C257.48505,78.8724059 260.982736,81.8801883 263.28418,85.890625 C265.585623,89.9010617 266.736328,94.6405977 266.736328,100.109375 C266.736328,108.950565 263.922229,116.037083 258.293945,121.369141 C252.665662,126.701199 245.27153,129.367188 236.111328,129.367188 C227.58915,129.367188 220.673529,126.735378 215.364258,121.47168 C210.054986,116.207981 207.400391,109.292361 207.400391,100.724609 L226.746094,100.724609 C226.746094,104.279315 227.680329,107.264311 229.548828,109.679688 C231.417327,112.095064 233.787095,113.302734 236.658203,113.302734 C239.985043,113.302734 242.616852,112.072278 244.553711,109.611328 C246.49057,107.150378 247.458984,103.869161 247.458984,99.7675781 C247.458984,89.9693521 243.653684,85.0475263 236.042969,85.0019531 L226.541016,85.0019531 L226.541016,69.4160156 Z" id="13" fill="#000000"></path>
        <polygon id="L" fill="#000000" points="82.0957031 111.320312 117.369141 111.320312 117.369141 128 61.9980469 128 61.9980469 28.46875 82.0957031 28.46875"></polygon>
    </g>
</svg>