<?xml version="1.0" encoding="UTF-8"?>
<svg width="340px" height="160px" viewBox="0 0 340 160" version="1.1" xmlns="http://www.w3.org/2000/svg" xmlns:xlink="http://www.w3.org/1999/xlink">
    <!-- Generator: Sketch 51.3 (57544) - http://www.bohemiancoding.com/sketch -->
    <title>Line/Track indicator/L13x</title>
    <desc>Created with Sketch.</desc>
    <defs></defs>
    <g id="Line/Track-indicator/L13x" stroke="none" stroke-width="1" fill="none" fill-rule="evenodd">
        <rect id="Rectangle-257" fill="#F0871E" x="0" y="0" width="340" height="160"></rect>
        <g id="Line/Track-indicator/x-border" fill="#FFFFFF">
            <rect id="Rectangle-234" x="15" y="15" width="310" height="130"></rect>
        </g>
        <path d="M155.082031,128 L135.667969,128 L135.667969,51.984375 L116.732422,59.2988281 L116.732422,43.1660156 L153.03125,28.3320312 L155.082031,28.3320312 L155.082031,128 Z M194.541016,69.4160156 L203.90625,69.4160156 C207.460955,69.4160156 210.069979,68.1741661 211.733398,65.6904297 C213.396818,63.2066933 214.228516,59.8912968 214.228516,55.7441406 C214.228516,51.7792771 213.374032,48.6917428 211.665039,46.4814453 C209.956046,44.2711478 207.66603,43.1660156 204.794922,43.1660156 C202.106106,43.1660156 199.907235,44.2141822 198.198242,46.3105469 C196.489249,48.4069115 195.634766,51.0501143 195.634766,54.2402344 L176.289062,54.2402344 C176.289062,49.0448959 177.48534,44.3851118 179.87793,40.2607422 C182.27052,36.1363726 185.620096,32.912121 189.926758,30.5878906 C194.23342,28.2636603 199.007135,27.1015625 204.248047,27.1015625 C213.408249,27.1015625 220.585912,29.6308341 225.78125,34.6894531 C230.976588,39.7480722 233.574219,46.6750862 233.574219,55.4707031 C233.574219,59.9824444 232.400728,64.1637177 230.053711,68.0146484 C227.706694,71.8655792 224.61916,74.816396 220.791016,76.8671875 C225.48505,78.8724059 228.982736,81.8801883 231.28418,85.890625 C233.585623,89.9010617 234.736328,94.6405977 234.736328,100.109375 C234.736328,108.950565 231.922229,116.037083 226.293945,121.369141 C220.665662,126.701199 213.27153,129.367188 204.111328,129.367188 C195.58915,129.367188 188.673529,126.735378 183.364258,121.47168 C178.054986,116.207981 175.400391,109.292361 175.400391,100.724609 L194.746094,100.724609 C194.746094,104.279315 195.680329,107.264311 197.548828,109.679688 C199.417327,112.095064 201.787095,113.302734 204.658203,113.302734 C207.985043,113.302734 210.616852,112.072278 212.553711,109.611328 C214.49057,107.150378 215.458984,103.869161 215.458984,99.7675781 C215.458984,89.9693521 211.653684,85.0475263 204.042969,85.0019531 L194.541016,85.0019531 L194.541016,69.4160156 Z M273.427734,75.9785156 L282.041016,54.0351562 L302.548828,54.0351562 L285.664062,90.1972656 L303.164062,128 L282.587891,128 L273.496094,104.826172 L264.472656,128 L243.828125,128 L261.328125,90.1972656 L244.580078,54.0351562 L265.15625,54.0351562 L273.427734,75.9785156 Z" id="13x" fill="#000000"></path>
        <polygon id="L" fill="#000000" points="64.0957031 111.320312 99.3691406 111.320312 99.3691406 128 43.9980469 128 43.9980469 28.46875 64.0957031 28.46875"></polygon>
    </g>
</svg>