<?xml version="1.0" encoding="UTF-8"?>
<svg width="340px" height="160px" viewBox="0 0 340 160" version="1.1" xmlns="http://www.w3.org/2000/svg" xmlns:xlink="http://www.w3.org/1999/xlink">
    <!-- Generator: Sketch 51.3 (57544) - http://www.bohemiancoding.com/sketch -->
    <title>Line/Track indicator/L14</title>
    <desc>Created with Sketch.</desc>
    <defs></defs>
    <g id="Line/Track-indicator/L14" stroke="none" stroke-width="1" fill="none" fill-rule="evenodd">
        <rect id="Rectangle-257" fill="#FCC414" x="0" y="0" width="340" height="160"></rect>
        <path d="M187.082031,128 L167.667969,128 L167.667969,51.984375 L148.732422,59.2988281 L148.732422,43.1660156 L185.03125,28.3320312 L187.082031,28.3320312 L187.082031,128 Z M260.310547,90.4023438 L268.787109,90.4023438 L268.787109,106.466797 L260.310547,106.466797 L260.310547,128 L240.964844,128 L240.964844,106.466797 L208.015625,106.466797 L207.126953,93.9570312 L240.896484,28.46875 L260.310547,28.46875 L260.310547,90.4023438 Z M225.925781,90.4023438 L240.964844,90.4023438 L240.964844,57.1113281 L240.554688,57.8632812 L225.925781,90.4023438 Z" id="14" fill="#000000"></path>
        <polygon id="L" fill="#000000" points="82.0957031 111.320312 117.369141 111.320312 117.369141 128 61.9980469 128 61.9980469 28.46875 82.0957031 28.46875"></polygon>
    </g>
</svg>