<?xml version="1.0" encoding="UTF-8"?>
<svg width="340px" height="160px" viewBox="0 0 340 160" version="1.1" xmlns="http://www.w3.org/2000/svg" xmlns:xlink="http://www.w3.org/1999/xlink">
    <!-- Generator: Sketch 51.3 (57544) - http://www.bohemiancoding.com/sketch -->
    <title>Line/Track indicator/L14x</title>
    <desc>Created with Sketch.</desc>
    <defs></defs>
    <g id="Line/Track-indicator/L14x" stroke="none" stroke-width="1" fill="none" fill-rule="evenodd">
        <rect id="Rectangle-257" fill="#FCC414" x="0" y="0" width="340" height="160"></rect>
        <g id="Line/Track-indicator/x-border" fill="#FFFFFF">
            <rect id="Rectangle-234" x="15" y="15" width="310" height="130"></rect>
        </g>
        <path d="M155.082031,128 L135.667969,128 L135.667969,51.984375 L116.732422,59.2988281 L116.732422,43.1660156 L153.03125,28.3320312 L155.082031,28.3320312 L155.082031,128 Z M228.310547,90.4023438 L236.787109,90.4023438 L236.787109,106.466797 L228.310547,106.466797 L228.310547,128 L208.964844,128 L208.964844,106.466797 L176.015625,106.466797 L175.126953,93.9570312 L208.896484,28.46875 L228.310547,28.46875 L228.310547,90.4023438 Z M193.925781,90.4023438 L208.964844,90.4023438 L208.964844,57.1113281 L208.554688,57.8632812 L193.925781,90.4023438 Z M273.427734,75.9785156 L282.041016,54.0351562 L302.548828,54.0351562 L285.664062,90.1972656 L303.164062,128 L282.587891,128 L273.496094,104.826172 L264.472656,128 L243.828125,128 L261.328125,90.1972656 L244.580078,54.0351562 L265.15625,54.0351562 L273.427734,75.9785156 Z" id="14x" fill="#000000"></path>
        <polygon id="L" fill="#000000" points="64.0957031 111.320312 99.3691406 111.320312 99.3691406 128 43.9980469 128 43.9980469 28.46875 64.0957031 28.46875"></polygon>
    </g>
</svg>