<?xml version="1.0" encoding="UTF-8"?>
<svg width="340px" height="160px" viewBox="0 0 340 160" version="1.1" xmlns="http://www.w3.org/2000/svg" xmlns:xlink="http://www.w3.org/1999/xlink">
    <!-- Generator: Sketch 51.3 (57544) - http://www.bohemiancoding.com/sketch -->
    <title>Line/Track indicator/L1x</title>
    <desc>Created with Sketch.</desc>
    <defs></defs>
    <g id="Line/Track-indicator/L1x" stroke="none" stroke-width="1" fill="none" fill-rule="evenodd">
        <rect id="Rectangle-257" fill="#D72D82" x="0" y="0" width="340" height="160"></rect>
        <g id="Line/Track-indicator/x-border" fill="#FFFFFF">
            <rect id="Rectangle-234" x="15" y="15" width="310" height="130"></rect>
        </g>
        <path d="M187.082031,128 L167.667969,128 L167.667969,51.984375 L148.732422,59.2988281 L148.732422,43.1660156 L185.03125,28.3320312 L187.082031,28.3320312 L187.082031,128 Z M240.607422,75.9785156 L249.220703,54.0351562 L269.728516,54.0351562 L252.84375,90.1972656 L270.34375,128 L249.767578,128 L240.675781,104.826172 L231.652344,128 L211.007812,128 L228.507812,90.1972656 L211.759766,54.0351562 L232.335938,54.0351562 L240.607422,75.9785156 Z" id="1x" fill="#000000"></path>
        <polygon id="L" fill="#000000" points="91.0957031 111.320312 126.369141 111.320312 126.369141 128 70.9980469 128 70.9980469 28.46875 91.0957031 28.46875"></polygon>
    </g>
</svg>