<?xml version="1.0" encoding="UTF-8"?>
<svg width="340px" height="160px" viewBox="0 0 340 160" version="1.1" xmlns="http://www.w3.org/2000/svg" xmlns:xlink="http://www.w3.org/1999/xlink">
    <!-- Generator: Sketch 51.3 (57544) - http://www.bohemiancoding.com/sketch -->
    <title>Line/Track indicator/L2</title>
    <desc>Created with Sketch.</desc>
    <defs></defs>
    <g id="Line/Track-indicator/L2" stroke="none" stroke-width="1" fill="none" fill-rule="evenodd">
        <rect id="Rectangle-257" fill="#64C8FF" x="0" y="0" width="340" height="160"></rect>
        <path d="M234.146484,128 L175.494141,128 L175.494141,114.328125 L202.427734,80.0800781 C205.84572,75.3404711 208.363599,71.181984 209.981445,67.6044922 C211.599292,64.0270003 212.408203,60.5976727 212.408203,57.3164062 C212.408203,52.8958112 211.644864,49.4323042 210.118164,46.9257812 C208.591464,44.4192583 206.392592,43.1660156 203.521484,43.1660156 C200.376937,43.1660156 197.881845,44.6243344 196.036133,47.5410156 C194.19042,50.4576969 193.267578,54.5592184 193.267578,59.8457031 L173.853516,59.8457031 C173.853516,53.7389018 175.118151,48.1562753 177.647461,43.0976562 C180.17677,38.0390372 183.731422,34.1084125 188.311523,31.3056641 C192.891624,28.5029157 198.075492,27.1015625 203.863281,27.1015625 C212.750044,27.1015625 219.642879,29.5510823 224.541992,34.4501953 C229.441105,39.3493083 231.890625,46.3105018 231.890625,55.3339844 C231.890625,60.9394812 230.534844,66.6246457 227.823242,72.3896484 C225.11164,78.1546512 220.201207,85.252562 213.091797,93.6835938 L200.308594,111.935547 L234.146484,111.935547 L234.146484,128 Z" id="2" fill="#000000"></path>
        <polygon id="L" fill="#000000" points="113.095703 111.320312 148.369141 111.320312 148.369141 128 92.9980469 128 92.9980469 28.46875 113.095703 28.46875"></polygon>
    </g>
</svg>