<?xml version="1.0" encoding="UTF-8"?>
<svg width="340px" height="160px" viewBox="0 0 340 160" version="1.1" xmlns="http://www.w3.org/2000/svg" xmlns:xlink="http://www.w3.org/1999/xlink">
    <!-- Generator: Sketch 51.3 (57544) - http://www.bohemiancoding.com/sketch -->
    <title>Line/Track indicator/L21x</title>
    <desc>Created with Sketch.</desc>
    <defs></defs>
    <g id="Line/Track-indicator/L21x" stroke="none" stroke-width="1" fill="none" fill-rule="evenodd">
        <rect id="Rectangle-257" fill="#8C69AA" x="0" y="0" width="340" height="160"></rect>
        <g id="Line/Track-indicator/x-border" fill="#FFFFFF">
            <rect id="Rectangle-234" x="15" y="15" width="310" height="130"></rect>
        </g>
        <path d="M176.146484,128 L117.494141,128 L117.494141,114.328125 L144.427734,80.0800781 C147.84572,75.3404711 150.363599,71.181984 151.981445,67.6044922 C153.599292,64.0270003 154.408203,60.5976727 154.408203,57.3164062 C154.408203,52.8958112 153.644864,49.4323042 152.118164,46.9257812 C150.591464,44.4192583 148.392592,43.1660156 145.521484,43.1660156 C142.376937,43.1660156 139.881845,44.6243344 138.036133,47.5410156 C136.19042,50.4576969 135.267578,54.5592184 135.267578,59.8457031 L115.853516,59.8457031 C115.853516,53.7389018 117.118151,48.1562753 119.647461,43.0976562 C122.17677,38.0390372 125.731422,34.1084125 130.311523,31.3056641 C134.891624,28.5029157 140.075492,27.1015625 145.863281,27.1015625 C154.750044,27.1015625 161.642879,29.5510823 166.541992,34.4501953 C171.441105,39.3493083 173.890625,46.3105018 173.890625,55.3339844 C173.890625,60.9394812 172.534844,66.6246457 169.823242,72.3896484 C167.11164,78.1546512 162.201207,85.252562 155.091797,93.6835938 L142.308594,111.935547 L176.146484,111.935547 L176.146484,128 Z M224.902344,128 L205.488281,128 L205.488281,51.984375 L186.552734,59.2988281 L186.552734,43.1660156 L222.851562,28.3320312 L224.902344,28.3320312 L224.902344,128 Z M272.427734,75.9785156 L281.041016,54.0351562 L301.548828,54.0351562 L284.664062,90.1972656 L302.164062,128 L281.587891,128 L272.496094,104.826172 L263.472656,128 L242.828125,128 L260.328125,90.1972656 L243.580078,54.0351562 L264.15625,54.0351562 L272.427734,75.9785156 Z" id="21x" fill="#000000"></path>
        <polygon id="L" fill="#000000" points="62.0957031 111.320312 97.3691406 111.320312 97.3691406 128 41.9980469 128 41.9980469 28.46875 62.0957031 28.46875"></polygon>
    </g>
</svg>