<?xml version="1.0" encoding="UTF-8"?>
<svg width="340px" height="160px" viewBox="0 0 340 160" version="1.1" xmlns="http://www.w3.org/2000/svg" xmlns:xlink="http://www.w3.org/1999/xlink">
    <!-- Generator: Sketch 51.3 (57544) - http://www.bohemiancoding.com/sketch -->
    <title>Line/Track indicator/L22</title>
    <desc>Created with Sketch.</desc>
    <defs></defs>
    <g id="Line/Track-indicator/L22" stroke="none" stroke-width="1" fill="none" fill-rule="evenodd">
        <rect id="Rectangle-257" fill="#005AAF" x="0" y="0" width="340" height="160"></rect>
        <path d="M200.146484,128 L141.494141,128 L141.494141,114.328125 L168.427734,80.0800781 C171.84572,75.3404711 174.363599,71.181984 175.981445,67.6044922 C177.599292,64.0270003 178.408203,60.5976727 178.408203,57.3164062 C178.408203,52.8958112 177.644864,49.4323042 176.118164,46.9257812 C174.591464,44.4192583 172.392592,43.1660156 169.521484,43.1660156 C166.376937,43.1660156 163.881845,44.6243344 162.036133,47.5410156 C160.19042,50.4576969 159.267578,54.5592184 159.267578,59.8457031 L139.853516,59.8457031 C139.853516,53.7389018 141.118151,48.1562753 143.647461,43.0976562 C146.17677,38.0390372 149.731422,34.1084125 154.311523,31.3056641 C158.891624,28.5029157 164.075492,27.1015625 169.863281,27.1015625 C178.750044,27.1015625 185.642879,29.5510823 190.541992,34.4501953 C195.441105,39.3493083 197.890625,46.3105018 197.890625,55.3339844 C197.890625,60.9394812 196.534844,66.6246457 193.823242,72.3896484 C191.11164,78.1546512 186.201207,85.252562 179.091797,93.6835938 L166.308594,111.935547 L200.146484,111.935547 L200.146484,128 Z M270.966797,128 L212.314453,128 L212.314453,114.328125 L239.248047,80.0800781 C242.666033,75.3404711 245.183911,71.181984 246.801758,67.6044922 C248.419604,64.0270003 249.228516,60.5976727 249.228516,57.3164062 C249.228516,52.8958112 248.465177,49.4323042 246.938477,46.9257812 C245.411776,44.4192583 243.212905,43.1660156 240.341797,43.1660156 C237.19725,43.1660156 234.702158,44.6243344 232.856445,47.5410156 C231.010733,50.4576969 230.087891,54.5592184 230.087891,59.8457031 L210.673828,59.8457031 C210.673828,53.7389018 211.938464,48.1562753 214.467773,43.0976562 C216.997083,38.0390372 220.551735,34.1084125 225.131836,31.3056641 C229.711937,28.5029157 234.895804,27.1015625 240.683594,27.1015625 C249.570357,27.1015625 256.463192,29.5510823 261.362305,34.4501953 C266.261418,39.3493083 268.710938,46.3105018 268.710938,55.3339844 C268.710938,60.9394812 267.355157,66.6246457 264.643555,72.3896484 C261.931953,78.1546512 257.02152,85.252562 249.912109,93.6835938 L237.128906,111.935547 L270.966797,111.935547 L270.966797,128 Z" id="22" fill="#FFFFFF"></path>
        <polygon id="L" fill="#FFFFFF" points="77.0957031 111.320312 112.369141 111.320312 112.369141 128 56.9980469 128 56.9980469 28.46875 77.0957031 28.46875"></polygon>
    </g>
</svg>