<?xml version="1.0" encoding="UTF-8"?>
<svg width="340px" height="160px" viewBox="0 0 340 160" version="1.1" xmlns="http://www.w3.org/2000/svg" xmlns:xlink="http://www.w3.org/1999/xlink">
    <!-- Generator: Sketch 51.3 (57544) - http://www.bohemiancoding.com/sketch -->
    <title>Line/Track indicator/L22x</title>
    <desc>Created with Sketch.</desc>
    <defs></defs>
    <g id="Line/Track-indicator/L22x" stroke="none" stroke-width="1" fill="none" fill-rule="evenodd">
        <rect id="Rectangle-257" fill="#005AAF" x="0" y="0" width="340" height="160"></rect>
        <g id="Line/Track-indicator/x-border" fill="#FFFFFF">
            <rect id="Rectangle-234" x="15" y="15" width="310" height="130"></rect>
        </g>
        <path d="M170.146484,128 L111.494141,128 L111.494141,114.328125 L138.427734,80.0800781 C141.84572,75.3404711 144.363599,71.181984 145.981445,67.6044922 C147.599292,64.0270003 148.408203,60.5976727 148.408203,57.3164062 C148.408203,52.8958112 147.644864,49.4323042 146.118164,46.9257812 C144.591464,44.4192583 142.392592,43.1660156 139.521484,43.1660156 C136.376937,43.1660156 133.881845,44.6243344 132.036133,47.5410156 C130.19042,50.4576969 129.267578,54.5592184 129.267578,59.8457031 L109.853516,59.8457031 C109.853516,53.7389018 111.118151,48.1562753 113.647461,43.0976562 C116.17677,38.0390372 119.731422,34.1084125 124.311523,31.3056641 C128.891624,28.5029157 134.075492,27.1015625 139.863281,27.1015625 C148.750044,27.1015625 155.642879,29.5510823 160.541992,34.4501953 C165.441105,39.3493083 167.890625,46.3105018 167.890625,55.3339844 C167.890625,60.9394812 166.534844,66.6246457 163.823242,72.3896484 C161.11164,78.1546512 156.201207,85.252562 149.091797,93.6835938 L136.308594,111.935547 L170.146484,111.935547 L170.146484,128 Z M240.966797,128 L182.314453,128 L182.314453,114.328125 L209.248047,80.0800781 C212.666033,75.3404711 215.183911,71.181984 216.801758,67.6044922 C218.419604,64.0270003 219.228516,60.5976727 219.228516,57.3164062 C219.228516,52.8958112 218.465177,49.4323042 216.938477,46.9257812 C215.411776,44.4192583 213.212905,43.1660156 210.341797,43.1660156 C207.19725,43.1660156 204.702158,44.6243344 202.856445,47.5410156 C201.010733,50.4576969 200.087891,54.5592184 200.087891,59.8457031 L180.673828,59.8457031 C180.673828,53.7389018 181.938464,48.1562753 184.467773,43.0976562 C186.997083,38.0390372 190.551735,34.1084125 195.131836,31.3056641 C199.711937,28.5029157 204.895804,27.1015625 210.683594,27.1015625 C219.570357,27.1015625 226.463192,29.5510823 231.362305,34.4501953 C236.261418,39.3493083 238.710938,46.3105018 238.710938,55.3339844 C238.710938,60.9394812 237.355157,66.6246457 234.643555,72.3896484 C231.931953,78.1546512 227.02152,85.252562 219.912109,93.6835938 L207.128906,111.935547 L240.966797,111.935547 L240.966797,128 Z M278.427734,75.9785156 L287.041016,54.0351562 L307.548828,54.0351562 L290.664062,90.1972656 L308.164062,128 L287.587891,128 L278.496094,104.826172 L269.472656,128 L248.828125,128 L266.328125,90.1972656 L249.580078,54.0351562 L270.15625,54.0351562 L278.427734,75.9785156 Z" id="22x" fill="#000000"></path>
        <polygon id="L" fill="#000000" points="59.0957031 111.320312 94.3691406 111.320312 94.3691406 128 38.9980469 128 38.9980469 28.46875 59.0957031 28.46875"></polygon>
    </g>
</svg>