<?xml version="1.0" encoding="UTF-8"?>
<svg width="340px" height="160px" viewBox="0 0 340 160" version="1.1" xmlns="http://www.w3.org/2000/svg" xmlns:xlink="http://www.w3.org/1999/xlink">
    <!-- Generator: Sketch 51.3 (57544) - http://www.bohemiancoding.com/sketch -->
    <title>Line/Track indicator/L2x</title>
    <desc>Created with Sketch.</desc>
    <defs></defs>
    <g id="Line/Track-indicator/L2x" stroke="none" stroke-width="1" fill="none" fill-rule="evenodd">
        <rect id="Rectangle-257" fill="#64C8FF" x="0" y="0" width="340" height="160"></rect>
        <g id="Line/Track-indicator/x-border" fill="#FFFFFF">
            <rect id="Rectangle-234" x="15" y="15" width="310" height="130"></rect>
        </g>
        <path d="M207.146484,128 L148.494141,128 L148.494141,114.328125 L175.427734,80.0800781 C178.84572,75.3404711 181.363599,71.181984 182.981445,67.6044922 C184.599292,64.0270003 185.408203,60.5976727 185.408203,57.3164062 C185.408203,52.8958112 184.644864,49.4323042 183.118164,46.9257812 C181.591464,44.4192583 179.392592,43.1660156 176.521484,43.1660156 C173.376937,43.1660156 170.881845,44.6243344 169.036133,47.5410156 C167.19042,50.4576969 166.267578,54.5592184 166.267578,59.8457031 L146.853516,59.8457031 C146.853516,53.7389018 148.118151,48.1562753 150.647461,43.0976562 C153.17677,38.0390372 156.731422,34.1084125 161.311523,31.3056641 C165.891624,28.5029157 171.075492,27.1015625 176.863281,27.1015625 C185.750044,27.1015625 192.642879,29.5510823 197.541992,34.4501953 C202.441105,39.3493083 204.890625,46.3105018 204.890625,55.3339844 C204.890625,60.9394812 203.534844,66.6246457 200.823242,72.3896484 C198.11164,78.1546512 193.201207,85.252562 186.091797,93.6835938 L173.308594,111.935547 L207.146484,111.935547 L207.146484,128 Z M244.607422,75.9785156 L253.220703,54.0351562 L273.728516,54.0351562 L256.84375,90.1972656 L274.34375,128 L253.767578,128 L244.675781,104.826172 L235.652344,128 L215.007812,128 L232.507812,90.1972656 L215.759766,54.0351562 L236.335938,54.0351562 L244.607422,75.9785156 Z" id="2x" fill="#000000"></path>
        <polygon id="L" fill="#000000" points="92.0957031 111.320312 127.369141 111.320312 127.369141 128 71.9980469 128 71.9980469 28.46875 92.0957031 28.46875"></polygon>
    </g>
</svg>