<?xml version="1.0" encoding="UTF-8"?>
<svg width="340px" height="160px" viewBox="0 0 340 160" version="1.1" xmlns="http://www.w3.org/2000/svg" xmlns:xlink="http://www.w3.org/1999/xlink">
    <!-- Generator: Sketch 51.3 (57544) - http://www.bohemiancoding.com/sketch -->
    <title>Line/Track indicator/L3</title>
    <desc>Created with Sketch.</desc>
    <defs></defs>
    <g id="Line/Track-indicator/L3" stroke="none" stroke-width="1" fill="none" fill-rule="evenodd">
        <rect id="Rectangle-257" fill="#8CBE23" x="0" y="0" width="340" height="160"></rect>
        <path d="M192.720703,69.4160156 L202.085938,69.4160156 C205.640643,69.4160156 208.249666,68.1741661 209.913086,65.6904297 C211.576506,63.2066933 212.408203,59.8912968 212.408203,55.7441406 C212.408203,51.7792771 211.553719,48.6917428 209.844727,46.4814453 C208.135734,44.2711478 205.845717,43.1660156 202.974609,43.1660156 C200.285794,43.1660156 198.086923,44.2141822 196.37793,46.3105469 C194.668937,48.4069115 193.814453,51.0501143 193.814453,54.2402344 L174.46875,54.2402344 C174.46875,49.0448959 175.665027,44.3851118 178.057617,40.2607422 C180.450207,36.1363726 183.799783,32.912121 188.106445,30.5878906 C192.413107,28.2636603 197.186823,27.1015625 202.427734,27.1015625 C211.587936,27.1015625 218.765599,29.6308341 223.960938,34.6894531 C229.156276,39.7480722 231.753906,46.6750862 231.753906,55.4707031 C231.753906,59.9824444 230.580415,64.1637177 228.233398,68.0146484 C225.886381,71.8655792 222.798847,74.816396 218.970703,76.8671875 C223.664737,78.8724059 227.162423,81.8801883 229.463867,85.890625 C231.765311,89.9010617 232.916016,94.6405977 232.916016,100.109375 C232.916016,108.950565 230.101916,116.037083 224.473633,121.369141 C218.845349,126.701199 211.451218,129.367188 202.291016,129.367188 C193.768838,129.367188 186.853217,126.735378 181.543945,121.47168 C176.234674,116.207981 173.580078,109.292361 173.580078,100.724609 L192.925781,100.724609 C192.925781,104.279315 193.860017,107.264311 195.728516,109.679688 C197.597015,112.095064 199.966783,113.302734 202.837891,113.302734 C206.16473,113.302734 208.79654,112.072278 210.733398,109.611328 C212.670257,107.150378 213.638672,103.869161 213.638672,99.7675781 C213.638672,89.9693521 209.833371,85.0475263 202.222656,85.0019531 L192.720703,85.0019531 L192.720703,69.4160156 Z" id="3" fill="#000000"></path>
        <polygon id="L" fill="#000000" points="113.095703 111.320312 148.369141 111.320312 148.369141 128 92.9980469 128 92.9980469 28.46875 113.095703 28.46875"></polygon>
    </g>
</svg>