<?xml version="1.0" encoding="UTF-8"?>
<svg width="340px" height="160px" viewBox="0 0 340 160" version="1.1" xmlns="http://www.w3.org/2000/svg" xmlns:xlink="http://www.w3.org/1999/xlink">
    <!-- Generator: Sketch 51.3 (57544) - http://www.bohemiancoding.com/sketch -->
    <title>Line/Track indicator/L3x</title>
    <desc>Created with Sketch.</desc>
    <defs></defs>
    <g id="Line/Track-indicator/L3x" stroke="none" stroke-width="1" fill="none" fill-rule="evenodd">
        <rect id="Rectangle-257" fill="#8CBE23" x="0" y="0" width="340" height="160"></rect>
        <g id="Line/Track-indicator/x-border" fill="#FFFFFF">
            <rect id="Rectangle-234" x="15" y="15" width="310" height="130"></rect>
        </g>
        <path d="M165.720703,69.4160156 L175.085938,69.4160156 C178.640643,69.4160156 181.249666,68.1741661 182.913086,65.6904297 C184.576506,63.2066933 185.408203,59.8912968 185.408203,55.7441406 C185.408203,51.7792771 184.553719,48.6917428 182.844727,46.4814453 C181.135734,44.2711478 178.845717,43.1660156 175.974609,43.1660156 C173.285794,43.1660156 171.086923,44.2141822 169.37793,46.3105469 C167.668937,48.4069115 166.814453,51.0501143 166.814453,54.2402344 L147.46875,54.2402344 C147.46875,49.0448959 148.665027,44.3851118 151.057617,40.2607422 C153.450207,36.1363726 156.799783,32.912121 161.106445,30.5878906 C165.413107,28.2636603 170.186823,27.1015625 175.427734,27.1015625 C184.587936,27.1015625 191.765599,29.6308341 196.960938,34.6894531 C202.156276,39.7480722 204.753906,46.6750862 204.753906,55.4707031 C204.753906,59.9824444 203.580415,64.1637177 201.233398,68.0146484 C198.886381,71.8655792 195.798847,74.816396 191.970703,76.8671875 C196.664737,78.8724059 200.162423,81.8801883 202.463867,85.890625 C204.765311,89.9010617 205.916016,94.6405977 205.916016,100.109375 C205.916016,108.950565 203.101916,116.037083 197.473633,121.369141 C191.845349,126.701199 184.451218,129.367188 175.291016,129.367188 C166.768838,129.367188 159.853217,126.735378 154.543945,121.47168 C149.234674,116.207981 146.580078,109.292361 146.580078,100.724609 L165.925781,100.724609 C165.925781,104.279315 166.860017,107.264311 168.728516,109.679688 C170.597015,112.095064 172.966783,113.302734 175.837891,113.302734 C179.16473,113.302734 181.79654,112.072278 183.733398,109.611328 C185.670257,107.150378 186.638672,103.869161 186.638672,99.7675781 C186.638672,89.9693521 182.833371,85.0475263 175.222656,85.0019531 L165.720703,85.0019531 L165.720703,69.4160156 Z M244.607422,75.9785156 L253.220703,54.0351562 L273.728516,54.0351562 L256.84375,90.1972656 L274.34375,128 L253.767578,128 L244.675781,104.826172 L235.652344,128 L215.007812,128 L232.507812,90.1972656 L215.759766,54.0351562 L236.335938,54.0351562 L244.607422,75.9785156 Z" id="3x" fill="#000000"></path>
        <polygon id="L" fill="#000000" points="92.0957031 111.320312 127.369141 111.320312 127.369141 128 71.9980469 128 71.9980469 28.46875 92.0957031 28.46875"></polygon>
    </g>
</svg>