<?xml version="1.0" encoding="UTF-8"?>
<svg width="340px" height="160px" viewBox="0 0 340 160" version="1.1" xmlns="http://www.w3.org/2000/svg" xmlns:xlink="http://www.w3.org/1999/xlink">
    <!-- Generator: Sketch 51.3 (57544) - http://www.bohemiancoding.com/sketch -->
    <title>Line/Track indicator/R10</title>
    <desc>Created with Sketch.</desc>
    <defs></defs>
    <g id="Line/Track-indicator/R10" stroke="none" stroke-width="1" fill="none" fill-rule="evenodd">
        <rect id="Rectangle-257" fill="#A0001E" x="0" y="0" width="340" height="160"></rect>
        <path d="M192.082031,128 L172.667969,128 L172.667969,51.984375 L153.732422,59.2988281 L153.732422,43.1660156 L190.03125,28.3320312 L192.082031,28.3320312 L192.082031,128 Z M272.146484,86.8476562 C272.146484,100.610746 269.651392,111.137984 264.661133,118.429688 C259.670873,125.721391 252.550176,129.367188 243.298828,129.367188 C234.138626,129.367188 227.063502,125.823929 222.073242,118.737305 C217.082983,111.650681 214.496746,101.499415 214.314453,88.2832031 L214.314453,69.484375 C214.314453,55.7668585 216.798152,45.2737994 221.765625,38.0048828 C226.733098,30.7359663 233.865188,27.1015625 243.162109,27.1015625 C252.459031,27.1015625 259.591121,30.7017869 264.558594,37.9023438 C269.526067,45.1029006 272.055338,55.3794905 272.146484,68.7324219 L272.146484,86.8476562 Z M252.732422,66.6816406 C252.732422,58.8430598 251.95769,52.9642123 250.408203,49.0449219 C248.858716,45.1256314 246.443376,43.1660156 243.162109,43.1660156 C237.009735,43.1660156 233.819663,50.3436782 233.591797,64.6992188 L233.591797,89.5136719 C233.591797,97.5345453 234.377922,103.504538 235.950195,107.423828 C237.522469,111.343119 239.971989,113.302734 243.298828,113.302734 C246.443375,113.302734 248.778964,111.468443 250.305664,107.799805 C251.832364,104.131167 252.641276,98.5143607 252.732422,90.9492188 L252.732422,66.6816406 Z" id="10" fill="#FFFFFF"></path>
        <path d="M93.1445312,91.6328125 L83.1640625,91.6328125 L83.1640625,128 L63.0664062,128 L63.0664062,28.46875 L95.1269531,28.46875 C105.198618,28.46875 112.980116,31.0777734 118.47168,36.2958984 C123.963244,41.5140235 126.708984,48.9309415 126.708984,58.546875 C126.708984,71.7630869 121.90109,81.0142965 112.285156,86.3007812 L129.716797,127.042969 L129.716797,128 L108.115234,128 L93.1445312,91.6328125 Z M83.1640625,74.8847656 L94.5800781,74.8847656 C98.5905148,74.8847656 101.598297,73.5517711 103.603516,70.8857422 C105.608734,68.2197132 106.611328,64.6536682 106.611328,60.1875 C106.611328,50.2069813 102.714883,45.2167969 94.921875,45.2167969 L83.1640625,45.2167969 L83.1640625,74.8847656 Z" id="R" fill="#FFFFFF"></path>
    </g>
</svg>