<?xml version="1.0" encoding="UTF-8"?>
<svg width="340px" height="160px" viewBox="0 0 340 160" version="1.1" xmlns="http://www.w3.org/2000/svg" xmlns:xlink="http://www.w3.org/1999/xlink">
    <!-- Generator: Sketch 51.3 (57544) - http://www.bohemiancoding.com/sketch -->
    <title>Line/Track indicator/R10x</title>
    <desc>Created with Sketch.</desc>
    <defs></defs>
    <g id="Line/Track-indicator/R10x" stroke="none" stroke-width="1" fill="none" fill-rule="evenodd">
        <rect id="Rectangle-257" fill="#A0001E" x="0" y="0" width="340" height="160"></rect>
        <g id="Line/Track-indicator/x-border" fill="#FFFFFF">
            <rect id="Rectangle-234" x="15" y="15" width="310" height="130"></rect>
        </g>
        <path d="M159.082031,128 L139.667969,128 L139.667969,51.984375 L120.732422,59.2988281 L120.732422,43.1660156 L157.03125,28.3320312 L159.082031,28.3320312 L159.082031,128 Z M239.146484,86.8476562 C239.146484,100.610746 236.651392,111.137984 231.661133,118.429688 C226.670873,125.721391 219.550176,129.367188 210.298828,129.367188 C201.138626,129.367188 194.063502,125.823929 189.073242,118.737305 C184.082983,111.650681 181.496746,101.499415 181.314453,88.2832031 L181.314453,69.484375 C181.314453,55.7668585 183.798152,45.2737994 188.765625,38.0048828 C193.733098,30.7359663 200.865188,27.1015625 210.162109,27.1015625 C219.459031,27.1015625 226.591121,30.7017869 231.558594,37.9023438 C236.526067,45.1029006 239.055338,55.3794905 239.146484,68.7324219 L239.146484,86.8476562 Z M219.732422,66.6816406 C219.732422,58.8430598 218.95769,52.9642123 217.408203,49.0449219 C215.858716,45.1256314 213.443376,43.1660156 210.162109,43.1660156 C204.009735,43.1660156 200.819663,50.3436782 200.591797,64.6992188 L200.591797,89.5136719 C200.591797,97.5345453 201.377922,103.504538 202.950195,107.423828 C204.522469,111.343119 206.971989,113.302734 210.298828,113.302734 C213.443375,113.302734 215.778964,111.468443 217.305664,107.799805 C218.832364,104.131167 219.641276,98.5143607 219.732422,90.9492188 L219.732422,66.6816406 Z M277.427734,75.9785156 L286.041016,54.0351562 L306.548828,54.0351562 L289.664062,90.1972656 L307.164062,128 L286.587891,128 L277.496094,104.826172 L268.472656,128 L247.828125,128 L265.328125,90.1972656 L248.580078,54.0351562 L269.15625,54.0351562 L277.427734,75.9785156 Z" id="10x" fill="#000000"></path>
        <path d="M68.1445312,91.6328125 L58.1640625,91.6328125 L58.1640625,128 L38.0664062,128 L38.0664062,28.46875 L70.1269531,28.46875 C80.1986181,28.46875 87.9801158,31.0777734 93.4716797,36.2958984 C98.9632436,41.5140235 101.708984,48.9309415 101.708984,58.546875 C101.708984,71.7630869 96.9010897,81.0142965 87.2851562,86.3007812 L104.716797,127.042969 L104.716797,128 L83.1152344,128 L68.1445312,91.6328125 Z M58.1640625,74.8847656 L69.5800781,74.8847656 C73.5905148,74.8847656 76.5982973,73.5517711 78.6035156,70.8857422 C80.608734,68.2197132 81.6113281,64.6536682 81.6113281,60.1875 C81.6113281,50.2069813 77.7148827,45.2167969 69.921875,45.2167969 L58.1640625,45.2167969 L58.1640625,74.8847656 Z" id="R" fill="#000000"></path>
    </g>
</svg>