<?xml version="1.0" encoding="UTF-8"?>
<svg width="340px" height="160px" viewBox="0 0 340 160" version="1.1" xmlns="http://www.w3.org/2000/svg" xmlns:xlink="http://www.w3.org/1999/xlink">
    <!-- Generator: Sketch 51.3 (57544) - http://www.bohemiancoding.com/sketch -->
    <title>Line/Track indicator/R11</title>
    <desc>Created with Sketch.</desc>
    <defs></defs>
    <g id="Line/Track-indicator/R11" stroke="none" stroke-width="1" fill="none" fill-rule="evenodd">
        <rect id="Rectangle-257" fill="#A0001E" x="0" y="0" width="340" height="160"></rect>
        <path d="M192.082031,128 L172.667969,128 L172.667969,51.984375 L153.732422,59.2988281 L153.732422,43.1660156 L190.03125,28.3320312 L192.082031,28.3320312 L192.082031,128 Z M256.902344,128 L237.488281,128 L237.488281,51.984375 L218.552734,59.2988281 L218.552734,43.1660156 L254.851562,28.3320312 L256.902344,28.3320312 L256.902344,128 Z" id="11" fill="#FFFFFF"></path>
        <path d="M93.1445312,91.6328125 L83.1640625,91.6328125 L83.1640625,128 L63.0664062,128 L63.0664062,28.46875 L95.1269531,28.46875 C105.198618,28.46875 112.980116,31.0777734 118.47168,36.2958984 C123.963244,41.5140235 126.708984,48.9309415 126.708984,58.546875 C126.708984,71.7630869 121.90109,81.0142965 112.285156,86.3007812 L129.716797,127.042969 L129.716797,128 L108.115234,128 L93.1445312,91.6328125 Z M83.1640625,74.8847656 L94.5800781,74.8847656 C98.5905148,74.8847656 101.598297,73.5517711 103.603516,70.8857422 C105.608734,68.2197132 106.611328,64.6536682 106.611328,60.1875 C106.611328,50.2069813 102.714883,45.2167969 94.921875,45.2167969 L83.1640625,45.2167969 L83.1640625,74.8847656 Z" id="R" fill="#FFFFFF"></path>
    </g>
</svg>