<?xml version="1.0" encoding="UTF-8"?>
<svg width="340px" height="160px" viewBox="0 0 340 160" version="1.1" xmlns="http://www.w3.org/2000/svg" xmlns:xlink="http://www.w3.org/1999/xlink">
    <!-- Generator: Sketch 51.3 (57544) - http://www.bohemiancoding.com/sketch -->
    <title>Line/Track indicator/R20</title>
    <desc>Created with Sketch.</desc>
    <defs></defs>
    <g id="Line/Track-indicator/R20" stroke="none" stroke-width="1" fill="none" fill-rule="evenodd">
        <rect id="Rectangle-257" fill="#873287" x="0" y="0" width="340" height="160"></rect>
        <path d="M205.146484,128 L146.494141,128 L146.494141,114.328125 L173.427734,80.0800781 C176.84572,75.3404711 179.363599,71.181984 180.981445,67.6044922 C182.599292,64.0270003 183.408203,60.5976727 183.408203,57.3164062 C183.408203,52.8958112 182.644864,49.4323042 181.118164,46.9257812 C179.591464,44.4192583 177.392592,43.1660156 174.521484,43.1660156 C171.376937,43.1660156 168.881845,44.6243344 167.036133,47.5410156 C165.19042,50.4576969 164.267578,54.5592184 164.267578,59.8457031 L144.853516,59.8457031 C144.853516,53.7389018 146.118151,48.1562753 148.647461,43.0976562 C151.17677,38.0390372 154.731422,34.1084125 159.311523,31.3056641 C163.891624,28.5029157 169.075492,27.1015625 174.863281,27.1015625 C183.750044,27.1015625 190.642879,29.5510823 195.541992,34.4501953 C200.441105,39.3493083 202.890625,46.3105018 202.890625,55.3339844 C202.890625,60.9394812 201.534844,66.6246457 198.823242,72.3896484 C196.11164,78.1546512 191.201207,85.252562 184.091797,93.6835938 L171.308594,111.935547 L205.146484,111.935547 L205.146484,128 Z M275.146484,86.8476562 C275.146484,100.610746 272.651392,111.137984 267.661133,118.429688 C262.670873,125.721391 255.550176,129.367188 246.298828,129.367188 C237.138626,129.367188 230.063502,125.823929 225.073242,118.737305 C220.082983,111.650681 217.496746,101.499415 217.314453,88.2832031 L217.314453,69.484375 C217.314453,55.7668585 219.798152,45.2737994 224.765625,38.0048828 C229.733098,30.7359663 236.865188,27.1015625 246.162109,27.1015625 C255.459031,27.1015625 262.591121,30.7017869 267.558594,37.9023438 C272.526067,45.1029006 275.055338,55.3794905 275.146484,68.7324219 L275.146484,86.8476562 Z M255.732422,66.6816406 C255.732422,58.8430598 254.95769,52.9642123 253.408203,49.0449219 C251.858716,45.1256314 249.443376,43.1660156 246.162109,43.1660156 C240.009735,43.1660156 236.819663,50.3436782 236.591797,64.6992188 L236.591797,89.5136719 C236.591797,97.5345453 237.377922,103.504538 238.950195,107.423828 C240.522469,111.343119 242.971989,113.302734 246.298828,113.302734 C249.443375,113.302734 251.778964,111.468443 253.305664,107.799805 C254.832364,104.131167 255.641276,98.5143607 255.732422,90.9492188 L255.732422,66.6816406 Z" id="20" fill="#FFFFFF"></path>
        <path d="M86.1445312,91.6328125 L76.1640625,91.6328125 L76.1640625,128 L56.0664062,128 L56.0664062,28.46875 L88.1269531,28.46875 C98.1986181,28.46875 105.980116,31.0777734 111.47168,36.2958984 C116.963244,41.5140235 119.708984,48.9309415 119.708984,58.546875 C119.708984,71.7630869 114.90109,81.0142965 105.285156,86.3007812 L122.716797,127.042969 L122.716797,128 L101.115234,128 L86.1445312,91.6328125 Z M76.1640625,74.8847656 L87.5800781,74.8847656 C91.5905148,74.8847656 94.5982973,73.5517711 96.6035156,70.8857422 C98.608734,68.2197132 99.6113281,64.6536682 99.6113281,60.1875 C99.6113281,50.2069813 95.7148827,45.2167969 87.921875,45.2167969 L76.1640625,45.2167969 L76.1640625,74.8847656 Z" id="R" fill="#FFFFFF"></path>
    </g>
</svg>