<?xml version="1.0" encoding="UTF-8"?>
<svg width="340px" height="160px" viewBox="0 0 340 160" version="1.1" xmlns="http://www.w3.org/2000/svg" xmlns:xlink="http://www.w3.org/1999/xlink">
    <!-- Generator: Sketch 51.3 (57544) - http://www.bohemiancoding.com/sketch -->
    <title>Line/Track indicator/R20x</title>
    <desc>Created with Sketch.</desc>
    <defs></defs>
    <g id="Line/Track-indicator/R20x" stroke="none" stroke-width="1" fill="none" fill-rule="evenodd">
        <rect id="Rectangle-257" fill="#873287" x="0" y="0" width="340" height="160"></rect>
        <g id="Line/Track-indicator/x-border" fill="#FFFFFF">
            <rect id="Rectangle-234" x="15" y="15" width="310" height="130"></rect>
        </g>
        <path d="M175.146484,128 L116.494141,128 L116.494141,114.328125 L143.427734,80.0800781 C146.84572,75.3404711 149.363599,71.181984 150.981445,67.6044922 C152.599292,64.0270003 153.408203,60.5976727 153.408203,57.3164062 C153.408203,52.8958112 152.644864,49.4323042 151.118164,46.9257812 C149.591464,44.4192583 147.392592,43.1660156 144.521484,43.1660156 C141.376937,43.1660156 138.881845,44.6243344 137.036133,47.5410156 C135.19042,50.4576969 134.267578,54.5592184 134.267578,59.8457031 L114.853516,59.8457031 C114.853516,53.7389018 116.118151,48.1562753 118.647461,43.0976562 C121.17677,38.0390372 124.731422,34.1084125 129.311523,31.3056641 C133.891624,28.5029157 139.075492,27.1015625 144.863281,27.1015625 C153.750044,27.1015625 160.642879,29.5510823 165.541992,34.4501953 C170.441105,39.3493083 172.890625,46.3105018 172.890625,55.3339844 C172.890625,60.9394812 171.534844,66.6246457 168.823242,72.3896484 C166.11164,78.1546512 161.201207,85.252562 154.091797,93.6835938 L141.308594,111.935547 L175.146484,111.935547 L175.146484,128 Z M245.146484,86.8476562 C245.146484,100.610746 242.651392,111.137984 237.661133,118.429688 C232.670873,125.721391 225.550176,129.367188 216.298828,129.367188 C207.138626,129.367188 200.063502,125.823929 195.073242,118.737305 C190.082983,111.650681 187.496746,101.499415 187.314453,88.2832031 L187.314453,69.484375 C187.314453,55.7668585 189.798152,45.2737994 194.765625,38.0048828 C199.733098,30.7359663 206.865188,27.1015625 216.162109,27.1015625 C225.459031,27.1015625 232.591121,30.7017869 237.558594,37.9023438 C242.526067,45.1029006 245.055338,55.3794905 245.146484,68.7324219 L245.146484,86.8476562 Z M225.732422,66.6816406 C225.732422,58.8430598 224.95769,52.9642123 223.408203,49.0449219 C221.858716,45.1256314 219.443376,43.1660156 216.162109,43.1660156 C210.009735,43.1660156 206.819663,50.3436782 206.591797,64.6992188 L206.591797,89.5136719 C206.591797,97.5345453 207.377922,103.504538 208.950195,107.423828 C210.522469,111.343119 212.971989,113.302734 216.298828,113.302734 C219.443375,113.302734 221.778964,111.468443 223.305664,107.799805 C224.832364,104.131167 225.641276,98.5143607 225.732422,90.9492188 L225.732422,66.6816406 Z M283.427734,75.9785156 L292.041016,54.0351562 L312.548828,54.0351562 L295.664062,90.1972656 L313.164062,128 L292.587891,128 L283.496094,104.826172 L274.472656,128 L253.828125,128 L271.328125,90.1972656 L254.580078,54.0351562 L275.15625,54.0351562 L283.427734,75.9785156 Z" id="20x" fill="#000000"></path>
        <path d="M66.1445312,91.6328125 L56.1640625,91.6328125 L56.1640625,128 L36.0664062,128 L36.0664062,28.46875 L68.1269531,28.46875 C78.1986181,28.46875 85.9801158,31.0777734 91.4716797,36.2958984 C96.9632436,41.5140235 99.7089844,48.9309415 99.7089844,58.546875 C99.7089844,71.7630869 94.9010897,81.0142965 85.2851562,86.3007812 L102.716797,127.042969 L102.716797,128 L81.1152344,128 L66.1445312,91.6328125 Z M56.1640625,74.8847656 L67.5800781,74.8847656 C71.5905148,74.8847656 74.5982973,73.5517711 76.6035156,70.8857422 C78.608734,68.2197132 79.6113281,64.6536682 79.6113281,60.1875 C79.6113281,50.2069813 75.7148827,45.2167969 67.921875,45.2167969 L56.1640625,45.2167969 L56.1640625,74.8847656 Z" id="R" fill="#000000"></path>
    </g>
</svg>