<?xml version="1.0" encoding="UTF-8"?>
<svg width="340px" height="160px" viewBox="0 0 340 160" version="1.1" xmlns="http://www.w3.org/2000/svg" xmlns:xlink="http://www.w3.org/1999/xlink">
    <!-- Generator: Sketch 51.3 (57544) - http://www.bohemiancoding.com/sketch -->
    <title>Line/Track indicator/R30</title>
    <desc>Created with Sketch.</desc>
    <defs></defs>
    <g id="Line/Track-indicator/R30" stroke="none" stroke-width="1" fill="none" fill-rule="evenodd">
        <rect id="Rectangle-257" fill="#05782D" x="0" y="0" width="340" height="160"></rect>
        <path d="M163.720703,69.4160156 L173.085938,69.4160156 C176.640643,69.4160156 179.249666,68.1741661 180.913086,65.6904297 C182.576506,63.2066933 183.408203,59.8912968 183.408203,55.7441406 C183.408203,51.7792771 182.553719,48.6917428 180.844727,46.4814453 C179.135734,44.2711478 176.845717,43.1660156 173.974609,43.1660156 C171.285794,43.1660156 169.086923,44.2141822 167.37793,46.3105469 C165.668937,48.4069115 164.814453,51.0501143 164.814453,54.2402344 L145.46875,54.2402344 C145.46875,49.0448959 146.665027,44.3851118 149.057617,40.2607422 C151.450207,36.1363726 154.799783,32.912121 159.106445,30.5878906 C163.413107,28.2636603 168.186823,27.1015625 173.427734,27.1015625 C182.587936,27.1015625 189.765599,29.6308341 194.960938,34.6894531 C200.156276,39.7480722 202.753906,46.6750862 202.753906,55.4707031 C202.753906,59.9824444 201.580415,64.1637177 199.233398,68.0146484 C196.886381,71.8655792 193.798847,74.816396 189.970703,76.8671875 C194.664737,78.8724059 198.162423,81.8801883 200.463867,85.890625 C202.765311,89.9010617 203.916016,94.6405977 203.916016,100.109375 C203.916016,108.950565 201.101916,116.037083 195.473633,121.369141 C189.845349,126.701199 182.451218,129.367188 173.291016,129.367188 C164.768838,129.367188 157.853217,126.735378 152.543945,121.47168 C147.234674,116.207981 144.580078,109.292361 144.580078,100.724609 L163.925781,100.724609 C163.925781,104.279315 164.860017,107.264311 166.728516,109.679688 C168.597015,112.095064 170.966783,113.302734 173.837891,113.302734 C177.16473,113.302734 179.79654,112.072278 181.733398,109.611328 C183.670257,107.150378 184.638672,103.869161 184.638672,99.7675781 C184.638672,89.9693521 180.833371,85.0475263 173.222656,85.0019531 L163.720703,85.0019531 L163.720703,69.4160156 Z M275.146484,86.8476562 C275.146484,100.610746 272.651392,111.137984 267.661133,118.429688 C262.670873,125.721391 255.550176,129.367188 246.298828,129.367188 C237.138626,129.367188 230.063502,125.823929 225.073242,118.737305 C220.082983,111.650681 217.496746,101.499415 217.314453,88.2832031 L217.314453,69.484375 C217.314453,55.7668585 219.798152,45.2737994 224.765625,38.0048828 C229.733098,30.7359663 236.865188,27.1015625 246.162109,27.1015625 C255.459031,27.1015625 262.591121,30.7017869 267.558594,37.9023438 C272.526067,45.1029006 275.055338,55.3794905 275.146484,68.7324219 L275.146484,86.8476562 Z M255.732422,66.6816406 C255.732422,58.8430598 254.95769,52.9642123 253.408203,49.0449219 C251.858716,45.1256314 249.443376,43.1660156 246.162109,43.1660156 C240.009735,43.1660156 236.819663,50.3436782 236.591797,64.6992188 L236.591797,89.5136719 C236.591797,97.5345453 237.377922,103.504538 238.950195,107.423828 C240.522469,111.343119 242.971989,113.302734 246.298828,113.302734 C249.443375,113.302734 251.778964,111.468443 253.305664,107.799805 C254.832364,104.131167 255.641276,98.5143607 255.732422,90.9492188 L255.732422,66.6816406 Z" id="30" fill="#FFFFFF"></path>
        <path d="M86.1445312,91.6328125 L76.1640625,91.6328125 L76.1640625,128 L56.0664062,128 L56.0664062,28.46875 L88.1269531,28.46875 C98.1986181,28.46875 105.980116,31.0777734 111.47168,36.2958984 C116.963244,41.5140235 119.708984,48.9309415 119.708984,58.546875 C119.708984,71.7630869 114.90109,81.0142965 105.285156,86.3007812 L122.716797,127.042969 L122.716797,128 L101.115234,128 L86.1445312,91.6328125 Z M76.1640625,74.8847656 L87.5800781,74.8847656 C91.5905148,74.8847656 94.5982973,73.5517711 96.6035156,70.8857422 C98.608734,68.2197132 99.6113281,64.6536682 99.6113281,60.1875 C99.6113281,50.2069813 95.7148827,45.2167969 87.921875,45.2167969 L76.1640625,45.2167969 L76.1640625,74.8847656 Z" id="R" fill="#FFFFFF"></path>
    </g>
</svg>