<?xml version="1.0" encoding="UTF-8"?>
<svg width="340px" height="160px" viewBox="0 0 340 160" version="1.1" xmlns="http://www.w3.org/2000/svg" xmlns:xlink="http://www.w3.org/1999/xlink">
    <!-- Generator: Sketch 51.3 (57544) - http://www.bohemiancoding.com/sketch -->
    <title>Line/Track indicator/R30x</title>
    <desc>Created with Sketch.</desc>
    <defs></defs>
    <g id="Line/Track-indicator/R30x" stroke="none" stroke-width="1" fill="none" fill-rule="evenodd">
        <rect id="Rectangle-257" fill="#05782D" x="0" y="0" width="340" height="160"></rect>
        <g id="Line/Track-indicator/x-border" fill="#FFFFFF">
            <rect id="Rectangle-234" x="15" y="15" width="310" height="130"></rect>
        </g>
        <path d="M133.720703,69.4160156 L143.085938,69.4160156 C146.640643,69.4160156 149.249666,68.1741661 150.913086,65.6904297 C152.576506,63.2066933 153.408203,59.8912968 153.408203,55.7441406 C153.408203,51.7792771 152.553719,48.6917428 150.844727,46.4814453 C149.135734,44.2711478 146.845717,43.1660156 143.974609,43.1660156 C141.285794,43.1660156 139.086923,44.2141822 137.37793,46.3105469 C135.668937,48.4069115 134.814453,51.0501143 134.814453,54.2402344 L115.46875,54.2402344 C115.46875,49.0448959 116.665027,44.3851118 119.057617,40.2607422 C121.450207,36.1363726 124.799783,32.912121 129.106445,30.5878906 C133.413107,28.2636603 138.186823,27.1015625 143.427734,27.1015625 C152.587936,27.1015625 159.765599,29.6308341 164.960938,34.6894531 C170.156276,39.7480722 172.753906,46.6750862 172.753906,55.4707031 C172.753906,59.9824444 171.580415,64.1637177 169.233398,68.0146484 C166.886381,71.8655792 163.798847,74.816396 159.970703,76.8671875 C164.664737,78.8724059 168.162423,81.8801883 170.463867,85.890625 C172.765311,89.9010617 173.916016,94.6405977 173.916016,100.109375 C173.916016,108.950565 171.101916,116.037083 165.473633,121.369141 C159.845349,126.701199 152.451218,129.367188 143.291016,129.367188 C134.768838,129.367188 127.853217,126.735378 122.543945,121.47168 C117.234674,116.207981 114.580078,109.292361 114.580078,100.724609 L133.925781,100.724609 C133.925781,104.279315 134.860017,107.264311 136.728516,109.679688 C138.597015,112.095064 140.966783,113.302734 143.837891,113.302734 C147.16473,113.302734 149.79654,112.072278 151.733398,109.611328 C153.670257,107.150378 154.638672,103.869161 154.638672,99.7675781 C154.638672,89.9693521 150.833371,85.0475263 143.222656,85.0019531 L133.720703,85.0019531 L133.720703,69.4160156 Z M245.146484,86.8476562 C245.146484,100.610746 242.651392,111.137984 237.661133,118.429688 C232.670873,125.721391 225.550176,129.367188 216.298828,129.367188 C207.138626,129.367188 200.063502,125.823929 195.073242,118.737305 C190.082983,111.650681 187.496746,101.499415 187.314453,88.2832031 L187.314453,69.484375 C187.314453,55.7668585 189.798152,45.2737994 194.765625,38.0048828 C199.733098,30.7359663 206.865188,27.1015625 216.162109,27.1015625 C225.459031,27.1015625 232.591121,30.7017869 237.558594,37.9023438 C242.526067,45.1029006 245.055338,55.3794905 245.146484,68.7324219 L245.146484,86.8476562 Z M225.732422,66.6816406 C225.732422,58.8430598 224.95769,52.9642123 223.408203,49.0449219 C221.858716,45.1256314 219.443376,43.1660156 216.162109,43.1660156 C210.009735,43.1660156 206.819663,50.3436782 206.591797,64.6992188 L206.591797,89.5136719 C206.591797,97.5345453 207.377922,103.504538 208.950195,107.423828 C210.522469,111.343119 212.971989,113.302734 216.298828,113.302734 C219.443375,113.302734 221.778964,111.468443 223.305664,107.799805 C224.832364,104.131167 225.641276,98.5143607 225.732422,90.9492188 L225.732422,66.6816406 Z M283.427734,75.9785156 L292.041016,54.0351562 L312.548828,54.0351562 L295.664062,90.1972656 L313.164062,128 L292.587891,128 L283.496094,104.826172 L274.472656,128 L253.828125,128 L271.328125,90.1972656 L254.580078,54.0351562 L275.15625,54.0351562 L283.427734,75.9785156 Z" id="30x" fill="#000000"></path>
        <path d="M66.1445312,91.6328125 L56.1640625,91.6328125 L56.1640625,128 L36.0664062,128 L36.0664062,28.46875 L68.1269531,28.46875 C78.1986181,28.46875 85.9801158,31.0777734 91.4716797,36.2958984 C96.9632436,41.5140235 99.7089844,48.9309415 99.7089844,58.546875 C99.7089844,71.7630869 94.9010897,81.0142965 85.2851562,86.3007812 L102.716797,127.042969 L102.716797,128 L81.1152344,128 L66.1445312,91.6328125 Z M56.1640625,74.8847656 L67.5800781,74.8847656 C71.5905148,74.8847656 74.5982973,73.5517711 76.6035156,70.8857422 C78.608734,68.2197132 79.6113281,64.6536682 79.6113281,60.1875 C79.6113281,50.2069813 75.7148827,45.2167969 67.921875,45.2167969 L56.1640625,45.2167969 L56.1640625,74.8847656 Z" id="R" fill="#000000"></path>
    </g>
</svg>