<?xml version="1.0" encoding="UTF-8"?>
<svg width="100px" height="45px" viewBox="0 0 100 45" version="1.1" xmlns="http://www.w3.org/2000/svg" xmlns:xlink="http://www.w3.org/1999/xlink">
    <!-- Generator: Sketch 51.3 (57544) - http://www.bohemiancoding.com/sketch -->
    <title>Line/Monitor/L12</title>
    <desc>Created with Sketch.</desc>
    <defs></defs>
    <g id="Line/Monitor/L12" stroke="none" stroke-width="1" fill="none" fill-rule="evenodd">
        <rect id="Rectangle-285-Copy-3" fill="#DC0000" x="0" y="0" width="100" height="45"></rect>
        <path d="M47.0234375,36 L41.4765625,36 L41.4765625,14.28125 L36.0664062,16.3710938 L36.0664062,11.7617188 L46.4375,7.5234375 L47.0234375,7.5234375 L47.0234375,36 Z M70.8476562,36 L54.0898438,36 L54.0898438,32.09375 L61.7851562,22.3085938 C62.7617236,20.9544203 63.4811175,19.7662812 63.9433594,18.7441406 C64.4056013,17.7220001 64.6367188,16.7421922 64.6367188,15.8046875 C64.6367188,14.5416604 64.418622,13.5520869 63.9824219,12.8359375 C63.5462218,12.1197881 62.9179729,11.7617188 62.0976562,11.7617188 C61.1992143,11.7617188 60.4863308,12.1783813 59.9589844,13.0117188 C59.431638,13.8450562 59.1679688,15.0169195 59.1679688,16.5273438 L53.6210938,16.5273438 C53.6210938,14.7825434 53.9824183,13.1875072 54.7050781,11.7421875 C55.427738,10.2968678 56.4433528,9.17383213 57.7519531,8.37304688 C59.0605534,7.57226162 60.5416584,7.171875 62.1953125,7.171875 C64.7343877,7.171875 66.703769,7.87173779 68.1035156,9.27148438 C69.5032622,10.671231 70.203125,12.6601434 70.203125,15.2382812 C70.203125,16.8398518 69.8157591,18.4641845 69.0410156,20.1113281 C68.2662722,21.7584718 66.8632914,23.7864463 64.8320312,26.1953125 L61.1796875,31.4101562 L70.8476562,31.4101562 L70.8476562,36 Z" id="12" fill="#FFFFFF"></path>
        <polygon id="L" fill="#FFFFFF" points="17.0273438 31.234375 27.1054688 31.234375 27.1054688 36 11.2851562 36 11.2851562 7.5625 17.0273438 7.5625"></polygon>
    </g>
</svg>