<?xml version="1.0" encoding="UTF-8"?>
<svg width="100px" height="45px" viewBox="0 0 100 45" version="1.1" xmlns="http://www.w3.org/2000/svg" xmlns:xlink="http://www.w3.org/1999/xlink">
    <!-- Generator: Sketch 51.3 (57544) - http://www.bohemiancoding.com/sketch -->
    <title>Line/Monitor/L12x</title>
    <desc>Created with Sketch.</desc>
    <defs></defs>
    <g id="Line/Monitor/L12x" stroke="none" stroke-width="1" fill="none" fill-rule="evenodd">
        <rect id="Rectangle-285-Copy-3" fill="#DC0000" x="0" y="0" width="100" height="45"></rect>
        <g id="Line/Monitor/x-border" fill="#FFFFFF">
            <rect id="Rectangle-7" x="4" y="4" width="92" height="37"></rect>
        </g>
        <path d="M45.0234375,36 L39.4765625,36 L39.4765625,14.28125 L34.0664062,16.3710938 L34.0664062,11.7617188 L44.4375,7.5234375 L45.0234375,7.5234375 L45.0234375,36 Z M68.8476562,36 L52.0898438,36 L52.0898438,32.09375 L59.7851562,22.3085938 C60.7617236,20.9544203 61.4811175,19.7662812 61.9433594,18.7441406 C62.4056013,17.7220001 62.6367188,16.7421922 62.6367188,15.8046875 C62.6367188,14.5416604 62.418622,13.5520869 61.9824219,12.8359375 C61.5462218,12.1197881 60.9179729,11.7617188 60.0976562,11.7617188 C59.1992143,11.7617188 58.4863308,12.1783813 57.9589844,13.0117188 C57.431638,13.8450562 57.1679688,15.0169195 57.1679688,16.5273438 L51.6210938,16.5273438 C51.6210938,14.7825434 51.9824183,13.1875072 52.7050781,11.7421875 C53.427738,10.2968678 54.4433528,9.17383213 55.7519531,8.37304688 C57.0605534,7.57226162 58.5416584,7.171875 60.1953125,7.171875 C62.7343877,7.171875 64.703769,7.87173779 66.1035156,9.27148438 C67.5032622,10.671231 68.203125,12.6601434 68.203125,15.2382812 C68.203125,16.8398518 67.8157591,18.4641845 67.0410156,20.1113281 C66.2662722,21.7584718 64.8632914,23.7864463 62.8320312,26.1953125 L59.1796875,31.4101562 L68.8476562,31.4101562 L68.8476562,36 Z" id="12" fill="#000000"></path>
        <polygon id="x" fill="#000000" points="82.0820312 21.1367188 84.5429688 14.8671875 90.4023438 14.8671875 85.578125 25.1992188 90.578125 36 84.6992188 36 82.1015625 29.3789062 79.5234375 36 73.625 36 78.625 25.1992188 73.8398438 14.8671875 79.71875 14.8671875"></polygon>
        <polygon id="L" fill="#000000" points="17.0273438 31.234375 27.1054688 31.234375 27.1054688 36 11.2851562 36 11.2851562 7.5625 17.0273438 7.5625"></polygon>
    </g>
</svg>