<?xml version="1.0" encoding="UTF-8"?>
<svg width="100px" height="45px" viewBox="0 0 100 45" version="1.1" xmlns="http://www.w3.org/2000/svg" xmlns:xlink="http://www.w3.org/1999/xlink">
    <!-- Generator: Sketch 51.3 (57544) - http://www.bohemiancoding.com/sketch -->
    <title>Line/Monitor/L13</title>
    <desc>Created with Sketch.</desc>
    <defs></defs>
    <g id="Line/Monitor/L13" stroke="none" stroke-width="1" fill="none" fill-rule="evenodd">
        <rect id="Rectangle-285-Copy-4" fill="#F0871E" x="0" y="0" width="100" height="45"></rect>
        <path d="M47.0234375,36 L41.4765625,36 L41.4765625,14.28125 L36.0664062,16.3710938 L36.0664062,11.7617188 L46.4375,7.5234375 L47.0234375,7.5234375 L47.0234375,36 Z M59.0117188,19.2617188 L61.6875,19.2617188 C62.7031301,19.2617188 63.4485653,18.9069046 63.9238281,18.1972656 C64.3990909,17.4876267 64.6367188,16.5403705 64.6367188,15.3554688 C64.6367188,14.2226506 64.3925806,13.3404979 63.9042969,12.7089844 C63.4160132,12.0774708 62.7617229,11.7617188 61.9414062,11.7617188 C61.1731732,11.7617188 60.5449243,12.0611949 60.0566406,12.6601562 C59.5683569,13.2591176 59.3242188,14.0143184 59.3242188,14.9257812 L53.796875,14.9257812 C53.796875,13.4413988 54.1386685,12.1100319 54.8222656,10.9316406 C55.5058628,9.75324932 56.4628845,8.83203457 57.6933594,8.16796875 C58.9238343,7.50390293 60.2877529,7.171875 61.7851562,7.171875 C64.4023568,7.171875 66.4531176,7.89452402 67.9375,9.33984375 C69.4218824,10.7851635 70.1640625,12.7643104 70.1640625,15.2773438 C70.1640625,16.5664127 69.8287794,17.7610622 69.1582031,18.8613281 C68.4876269,19.961594 67.6054742,20.8046846 66.5117188,21.390625 C67.8528713,21.9635445 68.8522103,22.8229109 69.5097656,23.96875 C70.167321,25.1145891 70.4960938,26.4687422 70.4960938,28.03125 C70.4960938,30.5573043 69.6920653,32.5820236 68.0839844,34.1054688 C66.4759034,35.6289139 64.3632943,36.390625 61.7460938,36.390625 C59.3111857,36.390625 57.335294,35.6386794 55.8183594,34.1347656 C54.3014247,32.6308519 53.5429688,30.6549602 53.5429688,28.2070312 L59.0703125,28.2070312 C59.0703125,29.2226613 59.3372369,30.0755174 59.8710938,30.765625 C60.4049506,31.4557326 61.0820271,31.8007812 61.9023438,31.8007812 C62.8528693,31.8007812 63.6048149,31.4492223 64.1582031,30.7460938 C64.7115913,30.0429652 64.9882812,29.1054746 64.9882812,27.9335938 C64.9882812,25.1341006 63.9010525,23.7278646 61.7265625,23.7148438 L59.0117188,23.7148438 L59.0117188,19.2617188 Z" id="13" fill="#000000"></path>
        <polygon id="L" fill="#000000" points="17.0273438 31.234375 27.1054688 31.234375 27.1054688 36 11.2851562 36 11.2851562 7.5625 17.0273438 7.5625"></polygon>
    </g>
</svg>