<?xml version="1.0" encoding="UTF-8"?>
<svg width="100px" height="45px" viewBox="0 0 100 45" version="1.1" xmlns="http://www.w3.org/2000/svg" xmlns:xlink="http://www.w3.org/1999/xlink">
    <!-- Generator: Sketch 51.3 (57544) - http://www.bohemiancoding.com/sketch -->
    <title>Line/Monitor/L13x</title>
    <desc>Created with Sketch.</desc>
    <defs></defs>
    <g id="Line/Monitor/L13x" stroke="none" stroke-width="1" fill="none" fill-rule="evenodd">
        <rect id="Rectangle-285-Copy-4" fill="#F0871E" x="0" y="0" width="100" height="45"></rect>
        <g id="Line/Monitor/x-border" fill="#FFFFFF">
            <rect id="Rectangle-7" x="4" y="4" width="92" height="37"></rect>
        </g>
        <path d="M45.0234375,36 L39.4765625,36 L39.4765625,14.28125 L34.0664062,16.3710938 L34.0664062,11.7617188 L44.4375,7.5234375 L45.0234375,7.5234375 L45.0234375,36 Z M57.0117188,19.2617188 L59.6875,19.2617188 C60.7031301,19.2617188 61.4485653,18.9069046 61.9238281,18.1972656 C62.3990909,17.4876267 62.6367188,16.5403705 62.6367188,15.3554688 C62.6367188,14.2226506 62.3925806,13.3404979 61.9042969,12.7089844 C61.4160132,12.0774708 60.7617229,11.7617188 59.9414062,11.7617188 C59.1731732,11.7617188 58.5449243,12.0611949 58.0566406,12.6601562 C57.5683569,13.2591176 57.3242188,14.0143184 57.3242188,14.9257812 L51.796875,14.9257812 C51.796875,13.4413988 52.1386685,12.1100319 52.8222656,10.9316406 C53.5058628,9.75324932 54.4628845,8.83203457 55.6933594,8.16796875 C56.9238343,7.50390293 58.2877529,7.171875 59.7851562,7.171875 C62.4023568,7.171875 64.4531176,7.89452402 65.9375,9.33984375 C67.4218824,10.7851635 68.1640625,12.7643104 68.1640625,15.2773438 C68.1640625,16.5664127 67.8287794,17.7610622 67.1582031,18.8613281 C66.4876269,19.961594 65.6054742,20.8046846 64.5117188,21.390625 C65.8528713,21.9635445 66.8522103,22.8229109 67.5097656,23.96875 C68.167321,25.1145891 68.4960938,26.4687422 68.4960938,28.03125 C68.4960938,30.5573043 67.6920653,32.5820236 66.0839844,34.1054688 C64.4759034,35.6289139 62.3632943,36.390625 59.7460938,36.390625 C57.3111857,36.390625 55.335294,35.6386794 53.8183594,34.1347656 C52.3014247,32.6308519 51.5429688,30.6549602 51.5429688,28.2070312 L57.0703125,28.2070312 C57.0703125,29.2226613 57.3372369,30.0755174 57.8710938,30.765625 C58.4049506,31.4557326 59.0820271,31.8007812 59.9023438,31.8007812 C60.8528693,31.8007812 61.6048149,31.4492223 62.1582031,30.7460938 C62.7115913,30.0429652 62.9882812,29.1054746 62.9882812,27.9335938 C62.9882812,25.1341006 61.9010525,23.7278646 59.7265625,23.7148438 L57.0117188,23.7148438 L57.0117188,19.2617188 Z" id="13" fill="#000000"></path>
        <polygon id="x" fill="#000000" points="82.0820312 21.1367188 84.5429688 14.8671875 90.4023438 14.8671875 85.578125 25.1992188 90.578125 36 84.6992188 36 82.1015625 29.3789062 79.5234375 36 73.625 36 78.625 25.1992188 73.8398438 14.8671875 79.71875 14.8671875"></polygon>
        <polygon id="L" fill="#000000" points="17.0273438 31.234375 27.1054688 31.234375 27.1054688 36 11.2851562 36 11.2851562 7.5625 17.0273438 7.5625"></polygon>
    </g>
</svg>