<?xml version="1.0" encoding="UTF-8"?>
<svg width="100px" height="45px" viewBox="0 0 100 45" version="1.1" xmlns="http://www.w3.org/2000/svg" xmlns:xlink="http://www.w3.org/1999/xlink">
    <!-- Generator: Sketch 51.3 (57544) - http://www.bohemiancoding.com/sketch -->
    <title>Line/Monitor/L14</title>
    <desc>Created with Sketch.</desc>
    <defs></defs>
    <g id="Line/Monitor/L14" stroke="none" stroke-width="1" fill="none" fill-rule="evenodd">
        <rect id="Rectangle-285-Copy-5" fill="#FCC414" x="0" y="0" width="100" height="45"></rect>
        <path d="M47.0234375,36 L41.4765625,36 L41.4765625,14.28125 L36.0664062,16.3710938 L36.0664062,11.7617188 L46.4375,7.5234375 L47.0234375,7.5234375 L47.0234375,36 Z M68.6601562,25.2578125 L71.0820312,25.2578125 L71.0820312,29.8476562 L68.6601562,29.8476562 L68.6601562,36 L63.1328125,36 L63.1328125,29.8476562 L53.71875,29.8476562 L53.4648438,26.2734375 L63.1132812,7.5625 L68.6601562,7.5625 L68.6601562,25.2578125 Z M58.8359375,25.2578125 L63.1328125,25.2578125 L63.1328125,15.7460938 L63.015625,15.9609375 L58.8359375,25.2578125 Z" id="14" fill="#000000"></path>
        <polygon id="L" fill="#000000" points="17.0273438 31.234375 27.1054688 31.234375 27.1054688 36 11.2851562 36 11.2851562 7.5625 17.0273438 7.5625"></polygon>
    </g>
</svg>