<?xml version="1.0" encoding="UTF-8"?>
<svg width="100px" height="45px" viewBox="0 0 100 45" version="1.1" xmlns="http://www.w3.org/2000/svg" xmlns:xlink="http://www.w3.org/1999/xlink">
    <!-- Generator: Sketch 51.3 (57544) - http://www.bohemiancoding.com/sketch -->
    <title>Line/Monitor/L14x</title>
    <desc>Created with Sketch.</desc>
    <defs></defs>
    <g id="Line/Monitor/L14x" stroke="none" stroke-width="1" fill="none" fill-rule="evenodd">
        <rect id="Rectangle-285-Copy-5" fill="#FCC414" x="0" y="0" width="100" height="45"></rect>
        <g id="Line/Monitor/x-border" fill="#FFFFFF">
            <rect id="Rectangle-7" x="4" y="4" width="92" height="37"></rect>
        </g>
        <path d="M45.0234375,36 L39.4765625,36 L39.4765625,14.28125 L34.0664062,16.3710938 L34.0664062,11.7617188 L44.4375,7.5234375 L45.0234375,7.5234375 L45.0234375,36 Z M66.6601562,25.2578125 L69.0820312,25.2578125 L69.0820312,29.8476562 L66.6601562,29.8476562 L66.6601562,36 L61.1328125,36 L61.1328125,29.8476562 L51.71875,29.8476562 L51.4648438,26.2734375 L61.1132812,7.5625 L66.6601562,7.5625 L66.6601562,25.2578125 Z M56.8359375,25.2578125 L61.1328125,25.2578125 L61.1328125,15.7460938 L61.015625,15.9609375 L56.8359375,25.2578125 Z" id="14" fill="#000000"></path>
        <polygon id="x" fill="#000000" points="82.0820312 21.1367188 84.5429688 14.8671875 90.4023438 14.8671875 85.578125 25.1992188 90.578125 36 84.6992188 36 82.1015625 29.3789062 79.5234375 36 73.625 36 78.625 25.1992188 73.8398438 14.8671875 79.71875 14.8671875"></polygon>
        <polygon id="L" fill="#000000" points="17.0273438 31.234375 27.1054688 31.234375 27.1054688 36 11.2851562 36 11.2851562 7.5625 17.0273438 7.5625"></polygon>
    </g>
</svg>