<?xml version="1.0" encoding="UTF-8"?>
<svg width="100px" height="45px" viewBox="0 0 100 45" version="1.1" xmlns="http://www.w3.org/2000/svg" xmlns:xlink="http://www.w3.org/1999/xlink">
    <!-- Generator: Sketch 51.3 (57544) - http://www.bohemiancoding.com/sketch -->
    <title>Line/Monitor/L1x</title>
    <desc>Created with Sketch.</desc>
    <defs></defs>
    <g id="Line/Monitor/L1x" stroke="none" stroke-width="1" fill="none" fill-rule="evenodd">
        <rect id="Rectangle-285" fill="#D72D82" x="0" y="0" width="100" height="45"></rect>
        <g id="Line/Monitor/x-border" fill="#FFFFFF">
            <rect id="Rectangle-7" x="4" y="4" width="92" height="37"></rect>
        </g>
        <polygon id="1" fill="#000000" points="47.0234375 36 41.4765625 36 41.4765625 14.28125 36.0664062 16.3710938 36.0664062 11.7617188 46.4375 7.5234375 47.0234375 7.5234375"></polygon>
        <polygon id="x" fill="#000000" points="62.0820312 21.1367188 64.5429688 14.8671875 70.4023438 14.8671875 65.578125 25.1992188 70.578125 36 64.6992188 36 62.1015625 29.3789062 59.5234375 36 53.625 36 58.625 25.1992188 53.8398438 14.8671875 59.71875 14.8671875"></polygon>
        <polygon id="L" fill="#000000" points="17.0273438 31.234375 27.1054688 31.234375 27.1054688 36 11.2851562 36 11.2851562 7.5625 17.0273438 7.5625"></polygon>
    </g>
</svg>