<?xml version="1.0" encoding="UTF-8"?>
<svg width="100px" height="45px" viewBox="0 0 100 45" version="1.1" xmlns="http://www.w3.org/2000/svg" xmlns:xlink="http://www.w3.org/1999/xlink">
    <!-- Generator: Sketch 51.3 (57544) - http://www.bohemiancoding.com/sketch -->
    <title>Line/Monitor/L21</title>
    <desc>Created with Sketch.</desc>
    <defs></defs>
    <g id="Line/Monitor/L21" stroke="none" stroke-width="1" fill="none" fill-rule="evenodd">
        <rect id="Rectangle-285-Copy-6" fill="#8C69AA" x="0" y="0" width="100" height="45"></rect>
        <path d="M53.6132812,36 L36.8554688,36 L36.8554688,32.09375 L44.5507812,22.3085938 C45.5273486,20.9544203 46.2467425,19.7662812 46.7089844,18.7441406 C47.1712263,17.7220001 47.4023438,16.7421922 47.4023438,15.8046875 C47.4023438,14.5416604 47.184247,13.5520869 46.7480469,12.8359375 C46.3118468,12.1197881 45.6835979,11.7617188 44.8632812,11.7617188 C43.9648393,11.7617188 43.2519558,12.1783813 42.7246094,13.0117188 C42.197263,13.8450562 41.9335938,15.0169195 41.9335938,16.5273438 L36.3867188,16.5273438 C36.3867188,14.7825434 36.7480433,13.1875072 37.4707031,11.7421875 C38.193363,10.2968678 39.2089778,9.17383213 40.5175781,8.37304688 C41.8261784,7.57226162 43.3072834,7.171875 44.9609375,7.171875 C47.5000127,7.171875 49.469394,7.87173779 50.8691406,9.27148438 C52.2688872,10.671231 52.96875,12.6601434 52.96875,15.2382812 C52.96875,16.8398518 52.5813841,18.4641845 51.8066406,20.1113281 C51.0318972,21.7584718 49.6289164,23.7864463 47.5976562,26.1953125 L43.9453125,31.4101562 L53.6132812,31.4101562 L53.6132812,36 Z M68.2578125,36 L62.7109375,36 L62.7109375,14.28125 L57.3007812,16.3710938 L57.3007812,11.7617188 L67.671875,7.5234375 L68.2578125,7.5234375 L68.2578125,36 Z" id="21" fill="#FFFFFF"></path>
        <polygon id="L" fill="#FFFFFF" points="17.0273438 31.234375 27.1054688 31.234375 27.1054688 36 11.2851562 36 11.2851562 7.5625 17.0273438 7.5625"></polygon>
    </g>
</svg>