<?xml version="1.0" encoding="UTF-8"?>
<svg width="100px" height="45px" viewBox="0 0 100 45" version="1.1" xmlns="http://www.w3.org/2000/svg" xmlns:xlink="http://www.w3.org/1999/xlink">
    <!-- Generator: Sketch 51.3 (57544) - http://www.bohemiancoding.com/sketch -->
    <title>Line/Monitor/L22</title>
    <desc>Created with Sketch.</desc>
    <defs></defs>
    <g id="Line/Monitor/L22" stroke="none" stroke-width="1" fill="none" fill-rule="evenodd">
        <rect id="Rectangle-285-Copy-7" fill="#005AAF" x="0" y="0" width="100" height="45"></rect>
        <path d="M53.6132812,36 L36.8554688,36 L36.8554688,32.09375 L44.5507812,22.3085938 C45.5273486,20.9544203 46.2467425,19.7662812 46.7089844,18.7441406 C47.1712263,17.7220001 47.4023438,16.7421922 47.4023438,15.8046875 C47.4023438,14.5416604 47.184247,13.5520869 46.7480469,12.8359375 C46.3118468,12.1197881 45.6835979,11.7617188 44.8632812,11.7617188 C43.9648393,11.7617188 43.2519558,12.1783813 42.7246094,13.0117188 C42.197263,13.8450562 41.9335938,15.0169195 41.9335938,16.5273438 L36.3867188,16.5273438 C36.3867188,14.7825434 36.7480433,13.1875072 37.4707031,11.7421875 C38.193363,10.2968678 39.2089778,9.17383213 40.5175781,8.37304688 C41.8261784,7.57226162 43.3072834,7.171875 44.9609375,7.171875 C47.5000127,7.171875 49.469394,7.87173779 50.8691406,9.27148438 C52.2688872,10.671231 52.96875,12.6601434 52.96875,15.2382812 C52.96875,16.8398518 52.5813841,18.4641845 51.8066406,20.1113281 C51.0318972,21.7584718 49.6289164,23.7864463 47.5976562,26.1953125 L43.9453125,31.4101562 L53.6132812,31.4101562 L53.6132812,36 Z M72.8476562,36 L56.0898438,36 L56.0898438,32.09375 L63.7851562,22.3085938 C64.7617236,20.9544203 65.4811175,19.7662812 65.9433594,18.7441406 C66.4056013,17.7220001 66.6367188,16.7421922 66.6367188,15.8046875 C66.6367188,14.5416604 66.418622,13.5520869 65.9824219,12.8359375 C65.5462218,12.1197881 64.9179729,11.7617188 64.0976562,11.7617188 C63.1992143,11.7617188 62.4863308,12.1783813 61.9589844,13.0117188 C61.431638,13.8450562 61.1679688,15.0169195 61.1679688,16.5273438 L55.6210938,16.5273438 C55.6210938,14.7825434 55.9824183,13.1875072 56.7050781,11.7421875 C57.427738,10.2968678 58.4433528,9.17383213 59.7519531,8.37304688 C61.0605534,7.57226162 62.5416584,7.171875 64.1953125,7.171875 C66.7343877,7.171875 68.703769,7.87173779 70.1035156,9.27148438 C71.5032622,10.671231 72.203125,12.6601434 72.203125,15.2382812 C72.203125,16.8398518 71.8157591,18.4641845 71.0410156,20.1113281 C70.2662722,21.7584718 68.8632914,23.7864463 66.8320312,26.1953125 L63.1796875,31.4101562 L72.8476562,31.4101562 L72.8476562,36 Z" id="22" fill="#FFFFFF"></path>
        <polygon id="L" fill="#FFFFFF" points="17.0273438 31.234375 27.1054688 31.234375 27.1054688 36 11.2851562 36 11.2851562 7.5625 17.0273438 7.5625"></polygon>
    </g>
</svg>