<?xml version="1.0" encoding="UTF-8"?>
<svg width="100px" height="45px" viewBox="0 0 100 45" version="1.1" xmlns="http://www.w3.org/2000/svg" xmlns:xlink="http://www.w3.org/1999/xlink">
    <!-- Generator: Sketch 51.3 (57544) - http://www.bohemiancoding.com/sketch -->
    <title>Line/Monitor/L3</title>
    <desc>Created with Sketch.</desc>
    <defs></defs>
    <g id="Line/Monitor/L3" stroke="none" stroke-width="1" fill="none" fill-rule="evenodd">
        <rect id="Rectangle-285-Copy-2" fill="#8CBE23" x="0" y="0" width="100" height="45"></rect>
        <path d="M39.7773438,19.2617188 L42.453125,19.2617188 C43.4687551,19.2617188 44.2141903,18.9069046 44.6894531,18.1972656 C45.1647159,17.4876267 45.4023438,16.5403705 45.4023438,15.3554688 C45.4023438,14.2226506 45.1582056,13.3404979 44.6699219,12.7089844 C44.1816382,12.0774708 43.5273479,11.7617188 42.7070312,11.7617188 C41.9387982,11.7617188 41.3105493,12.0611949 40.8222656,12.6601562 C40.3339819,13.2591176 40.0898438,14.0143184 40.0898438,14.9257812 L34.5625,14.9257812 C34.5625,13.4413988 34.9042935,12.1100319 35.5878906,10.9316406 C36.2714878,9.75324932 37.2285095,8.83203457 38.4589844,8.16796875 C39.6894593,7.50390293 41.0533779,7.171875 42.5507812,7.171875 C45.1679818,7.171875 47.2187426,7.89452402 48.703125,9.33984375 C50.1875074,10.7851635 50.9296875,12.7643104 50.9296875,15.2773438 C50.9296875,16.5664127 50.5944044,17.7610622 49.9238281,18.8613281 C49.2532519,19.961594 48.3710992,20.8046846 47.2773438,21.390625 C48.6184963,21.9635445 49.6178353,22.8229109 50.2753906,23.96875 C50.932946,25.1145891 51.2617188,26.4687422 51.2617188,28.03125 C51.2617188,30.5573043 50.4576903,32.5820236 48.8496094,34.1054688 C47.2415284,35.6289139 45.1289193,36.390625 42.5117188,36.390625 C40.0768107,36.390625 38.100919,35.6386794 36.5839844,34.1347656 C35.0670497,32.6308519 34.3085938,30.6549602 34.3085938,28.2070312 L39.8359375,28.2070312 C39.8359375,29.2226613 40.1028619,30.0755174 40.6367188,30.765625 C41.1705756,31.4557326 41.8476521,31.8007812 42.6679688,31.8007812 C43.6184943,31.8007812 44.3704399,31.4492223 44.9238281,30.7460938 C45.4772163,30.0429652 45.7539062,29.1054746 45.7539062,27.9335938 C45.7539062,25.1341006 44.6666775,23.7278646 42.4921875,23.7148438 L39.7773438,23.7148438 L39.7773438,19.2617188 Z" id="3" fill="#000000"></path>
        <polygon id="L" fill="#000000" points="17.0273438 31.234375 27.1054688 31.234375 27.1054688 36 11.2851562 36 11.2851562 7.5625 17.0273438 7.5625"></polygon>
    </g>
</svg>