<?xml version="1.0" encoding="UTF-8"?>
<svg width="100px" height="45px" viewBox="0 0 100 45" version="1.1" xmlns="http://www.w3.org/2000/svg" xmlns:xlink="http://www.w3.org/1999/xlink">
    <!-- Generator: Sketch 51.3 (57544) - http://www.bohemiancoding.com/sketch -->
    <title>Line/Monitor/R10</title>
    <desc>Created with Sketch.</desc>
    <defs></defs>
    <g id="Line/Monitor/R10" stroke="none" stroke-width="1" fill="none" fill-rule="evenodd">
        <rect id="Rectangle-285-Copy-8" fill="#A0001E" x="0" y="0" width="100" height="45"></rect>
        <path d="M47.0234375,36 L41.4765625,36 L41.4765625,14.28125 L36.0664062,16.3710938 L36.0664062,11.7617188 L46.4375,7.5234375 L47.0234375,7.5234375 L47.0234375,36 Z M70.6132812,24.2421875 C70.6132812,28.1744988 69.9003978,31.1822813 68.4746094,33.265625 C67.048821,35.3489687 65.0143361,36.390625 62.3710938,36.390625 C59.7538932,36.390625 57.732429,35.3782653 56.3066406,33.3535156 C54.8808522,31.3287659 54.1419273,28.4284043 54.0898438,24.6523438 L54.0898438,19.28125 C54.0898438,15.3619596 54.7994721,12.3639427 56.21875,10.2871094 C57.6380279,8.21027607 59.675768,7.171875 62.3320312,7.171875 C64.9882945,7.171875 67.0260346,8.20051055 68.4453125,10.2578125 C69.8645904,12.3151145 70.5872395,15.251283 70.6132812,19.0664062 L70.6132812,24.2421875 Z M65.0664062,18.4804688 C65.0664062,16.2408742 64.8450543,14.5612035 64.4023438,13.4414062 C63.9596332,12.321609 63.2695359,11.7617188 62.3320312,11.7617188 C60.57421,11.7617188 59.6627607,13.8124795 59.5976562,17.9140625 L59.5976562,25.0039062 C59.5976562,27.2955844 59.8222634,29.0012965 60.2714844,30.1210938 C60.7207054,31.240891 61.4205682,31.8007812 62.3710938,31.8007812 C63.2695357,31.8007812 63.9368468,31.2766979 64.3730469,30.2285156 C64.809247,29.1803333 65.0403645,27.5755316 65.0664062,25.4140625 L65.0664062,18.4804688 Z" id="10" fill="#FFFFFF"></path>
        <path d="M17.8984375,25.609375 L15.046875,25.609375 L15.046875,36 L9.3046875,36 L9.3046875,7.5625 L18.4648438,7.5625 C21.3424623,7.5625 23.5657474,8.30793525 25.1347656,9.79882812 C26.7037839,11.289721 27.4882812,13.4088404 27.4882812,16.15625 C27.4882812,19.9323105 26.1145971,22.5755133 23.3671875,24.0859375 L28.3476562,35.7265625 L28.3476562,36 L22.1757812,36 L17.8984375,25.609375 Z M15.046875,20.8242188 L18.3085938,20.8242188 C19.4544328,20.8242188 20.3137992,20.4433632 20.8867188,19.6816406 C21.4596383,18.9199181 21.7460938,17.901048 21.7460938,16.625 C21.7460938,13.7734232 20.6328236,12.3476562 18.40625,12.3476562 L15.046875,12.3476562 L15.046875,20.8242188 Z" id="R" fill="#FFFFFF"></path>
    </g>
</svg>