<?xml version="1.0" encoding="UTF-8"?>
<svg width="100px" height="45px" viewBox="0 0 100 45" version="1.1" xmlns="http://www.w3.org/2000/svg" xmlns:xlink="http://www.w3.org/1999/xlink">
    <!-- Generator: Sketch 51.3 (57544) - http://www.bohemiancoding.com/sketch -->
    <title>Line/Monitor/R10x</title>
    <desc>Created with Sketch.</desc>
    <defs></defs>
    <g id="Line/Monitor/R10x" stroke="none" stroke-width="1" fill="none" fill-rule="evenodd">
        <rect id="Rectangle-285-Copy-8" fill="#A0001E" x="0" y="0" width="100" height="45"></rect>
        <g id="Line/Monitor/x-border" fill="#FFFFFF">
            <rect id="Rectangle-7" x="4" y="4" width="92" height="37"></rect>
        </g>
        <path d="M47.0234375,36 L41.4765625,36 L41.4765625,14.28125 L36.0664062,16.3710938 L36.0664062,11.7617188 L46.4375,7.5234375 L47.0234375,7.5234375 L47.0234375,36 Z M70.6132812,24.2421875 C70.6132812,28.1744988 69.9003978,31.1822813 68.4746094,33.265625 C67.048821,35.3489687 65.0143361,36.390625 62.3710938,36.390625 C59.7538932,36.390625 57.732429,35.3782653 56.3066406,33.3535156 C54.8808522,31.3287659 54.1419273,28.4284043 54.0898438,24.6523438 L54.0898438,19.28125 C54.0898438,15.3619596 54.7994721,12.3639427 56.21875,10.2871094 C57.6380279,8.21027607 59.675768,7.171875 62.3320312,7.171875 C64.9882945,7.171875 67.0260346,8.20051055 68.4453125,10.2578125 C69.8645904,12.3151145 70.5872395,15.251283 70.6132812,19.0664062 L70.6132812,24.2421875 Z M65.0664062,18.4804688 C65.0664062,16.2408742 64.8450543,14.5612035 64.4023438,13.4414062 C63.9596332,12.321609 63.2695359,11.7617188 62.3320312,11.7617188 C60.57421,11.7617188 59.6627607,13.8124795 59.5976562,17.9140625 L59.5976562,25.0039062 C59.5976562,27.2955844 59.8222634,29.0012965 60.2714844,30.1210938 C60.7207054,31.240891 61.4205682,31.8007812 62.3710938,31.8007812 C63.2695357,31.8007812 63.9368468,31.2766979 64.3730469,30.2285156 C64.809247,29.1803333 65.0403645,27.5755316 65.0664062,25.4140625 L65.0664062,18.4804688 Z" id="10" fill="#000000"></path>
        <path d="M18.8984375,25.609375 L16.046875,25.609375 L16.046875,36 L10.3046875,36 L10.3046875,7.5625 L19.4648438,7.5625 C22.3424623,7.5625 24.5657474,8.30793525 26.1347656,9.79882812 C27.7037839,11.289721 28.4882812,13.4088404 28.4882812,16.15625 C28.4882812,19.9323105 27.1145971,22.5755133 24.3671875,24.0859375 L29.3476562,35.7265625 L29.3476562,36 L23.1757812,36 L18.8984375,25.609375 Z M16.046875,20.8242188 L19.3085938,20.8242188 C20.4544328,20.8242188 21.3137992,20.4433632 21.8867188,19.6816406 C22.4596383,18.9199181 22.7460938,17.901048 22.7460938,16.625 C22.7460938,13.7734232 21.6328236,12.3476562 19.40625,12.3476562 L16.046875,12.3476562 L16.046875,20.8242188 Z" id="R" fill="#000000"></path>
        <polygon id="x" fill="#000000" points="82.0820312 21.1367188 84.5429688 14.8671875 90.4023438 14.8671875 85.578125 25.1992188 90.578125 36 84.6992188 36 82.1015625 29.3789062 79.5234375 36 73.625 36 78.625 25.1992188 73.8398438 14.8671875 79.71875 14.8671875"></polygon>
    </g>
</svg>