<?xml version="1.0" encoding="UTF-8"?>
<svg width="100px" height="45px" viewBox="0 0 100 45" version="1.1" xmlns="http://www.w3.org/2000/svg" xmlns:xlink="http://www.w3.org/1999/xlink">
    <!-- Generator: Sketch 51.3 (57544) - http://www.bohemiancoding.com/sketch -->
    <title>Line/Monitor/R11</title>
    <desc>Created with Sketch.</desc>
    <defs></defs>
    <g id="Line/Monitor/R11" stroke="none" stroke-width="1" fill="none" fill-rule="evenodd">
        <rect id="Rectangle-285-Copy-9" fill="#A0001E" x="0" y="0" width="100" height="45"></rect>
        <path d="M47.0234375,36 L41.4765625,36 L41.4765625,14.28125 L36.0664062,16.3710938 L36.0664062,11.7617188 L46.4375,7.5234375 L47.0234375,7.5234375 L47.0234375,36 Z M66.2578125,36 L60.7109375,36 L60.7109375,14.28125 L55.3007812,16.3710938 L55.3007812,11.7617188 L65.671875,7.5234375 L66.2578125,7.5234375 L66.2578125,36 Z" id="11" fill="#FFFFFF"></path>
        <path d="M17.8984375,25.609375 L15.046875,25.609375 L15.046875,36 L9.3046875,36 L9.3046875,7.5625 L18.4648438,7.5625 C21.3424623,7.5625 23.5657474,8.30793525 25.1347656,9.79882812 C26.7037839,11.289721 27.4882812,13.4088404 27.4882812,16.15625 C27.4882812,19.9323105 26.1145971,22.5755133 23.3671875,24.0859375 L28.3476562,35.7265625 L28.3476562,36 L22.1757812,36 L17.8984375,25.609375 Z M15.046875,20.8242188 L18.3085938,20.8242188 C19.4544328,20.8242188 20.3137992,20.4433632 20.8867188,19.6816406 C21.4596383,18.9199181 21.7460938,17.901048 21.7460938,16.625 C21.7460938,13.7734232 20.6328236,12.3476562 18.40625,12.3476562 L15.046875,12.3476562 L15.046875,20.8242188 Z" id="R" fill="#FFFFFF"></path>
    </g>
</svg>