<?xml version="1.0" encoding="UTF-8"?>
<svg width="100px" height="45px" viewBox="0 0 100 45" version="1.1" xmlns="http://www.w3.org/2000/svg" xmlns:xlink="http://www.w3.org/1999/xlink">
    <!-- Generator: Sketch 51.3 (57544) - http://www.bohemiancoding.com/sketch -->
    <title>Line/Monitor/R11x</title>
    <desc>Created with Sketch.</desc>
    <defs></defs>
    <g id="Line/Monitor/R11x" stroke="none" stroke-width="1" fill="none" fill-rule="evenodd">
        <rect id="Rectangle-285-Copy-9" fill="#A0001E" x="0" y="0" width="100" height="45"></rect>
        <g id="Line/Monitor/x-border" fill="#FFFFFF">
            <rect id="Rectangle-7" x="4" y="4" width="92" height="37"></rect>
        </g>
        <path d="M47.0234375,36 L41.4765625,36 L41.4765625,14.28125 L36.0664062,16.3710938 L36.0664062,11.7617188 L46.4375,7.5234375 L47.0234375,7.5234375 L47.0234375,36 Z M66.2578125,36 L60.7109375,36 L60.7109375,14.28125 L55.3007812,16.3710938 L55.3007812,11.7617188 L65.671875,7.5234375 L66.2578125,7.5234375 L66.2578125,36 Z" id="11" fill="#000000"></path>
        <polygon id="x" fill="#000000" points="82.0820312 21.1367188 84.5429688 14.8671875 90.4023438 14.8671875 85.578125 25.1992188 90.578125 36 84.6992188 36 82.1015625 29.3789062 79.5234375 36 73.625 36 78.625 25.1992188 73.8398438 14.8671875 79.71875 14.8671875"></polygon>
        <path d="M18.8984375,25.609375 L16.046875,25.609375 L16.046875,36 L10.3046875,36 L10.3046875,7.5625 L19.4648438,7.5625 C22.3424623,7.5625 24.5657474,8.30793525 26.1347656,9.79882812 C27.7037839,11.289721 28.4882812,13.4088404 28.4882812,16.15625 C28.4882812,19.9323105 27.1145971,22.5755133 24.3671875,24.0859375 L29.3476562,35.7265625 L29.3476562,36 L23.1757812,36 L18.8984375,25.609375 Z M16.046875,20.8242188 L19.3085938,20.8242188 C20.4544328,20.8242188 21.3137992,20.4433632 21.8867188,19.6816406 C22.4596383,18.9199181 22.7460938,17.901048 22.7460938,16.625 C22.7460938,13.7734232 21.6328236,12.3476562 19.40625,12.3476562 L16.046875,12.3476562 L16.046875,20.8242188 Z" id="R" fill="#000000"></path>
    </g>
</svg>