<?xml version="1.0" encoding="UTF-8"?>
<svg width="100px" height="45px" viewBox="0 0 100 45" version="1.1" xmlns="http://www.w3.org/2000/svg" xmlns:xlink="http://www.w3.org/1999/xlink">
    <!-- Generator: Sketch 51.3 (57544) - http://www.bohemiancoding.com/sketch -->
    <title>Line/Monitor/R20</title>
    <desc>Created with Sketch.</desc>
    <defs></defs>
    <g id="Line/Monitor/R20" stroke="none" stroke-width="1" fill="none" fill-rule="evenodd">
        <rect id="Rectangle-285-Copy-10" fill="#873287" x="0" y="0" width="100" height="45"></rect>
        <path d="M53.6132812,36 L36.8554688,36 L36.8554688,32.09375 L44.5507812,22.3085938 C45.5273486,20.9544203 46.2467425,19.7662812 46.7089844,18.7441406 C47.1712263,17.7220001 47.4023438,16.7421922 47.4023438,15.8046875 C47.4023438,14.5416604 47.184247,13.5520869 46.7480469,12.8359375 C46.3118468,12.1197881 45.6835979,11.7617188 44.8632812,11.7617188 C43.9648393,11.7617188 43.2519558,12.1783813 42.7246094,13.0117188 C42.197263,13.8450562 41.9335938,15.0169195 41.9335938,16.5273438 L36.3867188,16.5273438 C36.3867188,14.7825434 36.7480433,13.1875072 37.4707031,11.7421875 C38.193363,10.2968678 39.2089778,9.17383213 40.5175781,8.37304688 C41.8261784,7.57226162 43.3072834,7.171875 44.9609375,7.171875 C47.5000127,7.171875 49.469394,7.87173779 50.8691406,9.27148438 C52.2688872,10.671231 52.96875,12.6601434 52.96875,15.2382812 C52.96875,16.8398518 52.5813841,18.4641845 51.8066406,20.1113281 C51.0318972,21.7584718 49.6289164,23.7864463 47.5976562,26.1953125 L43.9453125,31.4101562 L53.6132812,31.4101562 L53.6132812,36 Z M72.6132812,24.2421875 C72.6132812,28.1744988 71.9003978,31.1822813 70.4746094,33.265625 C69.048821,35.3489687 67.0143361,36.390625 64.3710938,36.390625 C61.7538932,36.390625 59.732429,35.3782653 58.3066406,33.3535156 C56.8808522,31.3287659 56.1419273,28.4284043 56.0898438,24.6523438 L56.0898438,19.28125 C56.0898438,15.3619596 56.7994721,12.3639427 58.21875,10.2871094 C59.6380279,8.21027607 61.675768,7.171875 64.3320312,7.171875 C66.9882945,7.171875 69.0260346,8.20051055 70.4453125,10.2578125 C71.8645904,12.3151145 72.5872395,15.251283 72.6132812,19.0664062 L72.6132812,24.2421875 Z M67.0664062,18.4804688 C67.0664062,16.2408742 66.8450543,14.5612035 66.4023438,13.4414062 C65.9596332,12.321609 65.2695359,11.7617188 64.3320312,11.7617188 C62.57421,11.7617188 61.6627607,13.8124795 61.5976562,17.9140625 L61.5976562,25.0039062 C61.5976562,27.2955844 61.8222634,29.0012965 62.2714844,30.1210938 C62.7207054,31.240891 63.4205682,31.8007812 64.3710938,31.8007812 C65.2695357,31.8007812 65.9368468,31.2766979 66.3730469,30.2285156 C66.809247,29.1803333 67.0403645,27.5755316 67.0664062,25.4140625 L67.0664062,18.4804688 Z" id="20" fill="#FFFFFF"></path>
        <path d="M17.8984375,25.609375 L15.046875,25.609375 L15.046875,36 L9.3046875,36 L9.3046875,7.5625 L18.4648438,7.5625 C21.3424623,7.5625 23.5657474,8.30793525 25.1347656,9.79882812 C26.7037839,11.289721 27.4882812,13.4088404 27.4882812,16.15625 C27.4882812,19.9323105 26.1145971,22.5755133 23.3671875,24.0859375 L28.3476562,35.7265625 L28.3476562,36 L22.1757812,36 L17.8984375,25.609375 Z M15.046875,20.8242188 L18.3085938,20.8242188 C19.4544328,20.8242188 20.3137992,20.4433632 20.8867188,19.6816406 C21.4596383,18.9199181 21.7460938,17.901048 21.7460938,16.625 C21.7460938,13.7734232 20.6328236,12.3476562 18.40625,12.3476562 L15.046875,12.3476562 L15.046875,20.8242188 Z" id="R" fill="#FFFFFF"></path>
    </g>
</svg>