<?xml version="1.0" encoding="UTF-8"?>
<svg width="100px" height="45px" viewBox="0 0 100 45" version="1.1" xmlns="http://www.w3.org/2000/svg" xmlns:xlink="http://www.w3.org/1999/xlink">
    <!-- Generator: Sketch 51.3 (57544) - http://www.bohemiancoding.com/sketch -->
    <title>Line/Monitor/R30</title>
    <desc>Created with Sketch.</desc>
    <defs></defs>
    <g id="Line/Monitor/R30" stroke="none" stroke-width="1" fill="none" fill-rule="evenodd">
        <rect id="Rectangle-285-Copy-11" fill="#05782D" x="0" y="0" width="100" height="45"></rect>
        <path d="M41.7773438,19.2617188 L44.453125,19.2617188 C45.4687551,19.2617188 46.2141903,18.9069046 46.6894531,18.1972656 C47.1647159,17.4876267 47.4023438,16.5403705 47.4023438,15.3554688 C47.4023438,14.2226506 47.1582056,13.3404979 46.6699219,12.7089844 C46.1816382,12.0774708 45.5273479,11.7617188 44.7070312,11.7617188 C43.9387982,11.7617188 43.3105493,12.0611949 42.8222656,12.6601562 C42.3339819,13.2591176 42.0898438,14.0143184 42.0898438,14.9257812 L36.5625,14.9257812 C36.5625,13.4413988 36.9042935,12.1100319 37.5878906,10.9316406 C38.2714878,9.75324932 39.2285095,8.83203457 40.4589844,8.16796875 C41.6894593,7.50390293 43.0533779,7.171875 44.5507812,7.171875 C47.1679818,7.171875 49.2187426,7.89452402 50.703125,9.33984375 C52.1875074,10.7851635 52.9296875,12.7643104 52.9296875,15.2773438 C52.9296875,16.5664127 52.5944044,17.7610622 51.9238281,18.8613281 C51.2532519,19.961594 50.3710992,20.8046846 49.2773438,21.390625 C50.6184963,21.9635445 51.6178353,22.8229109 52.2753906,23.96875 C52.932946,25.1145891 53.2617188,26.4687422 53.2617188,28.03125 C53.2617188,30.5573043 52.4576903,32.5820236 50.8496094,34.1054688 C49.2415284,35.6289139 47.1289193,36.390625 44.5117188,36.390625 C42.0768107,36.390625 40.100919,35.6386794 38.5839844,34.1347656 C37.0670497,32.6308519 36.3085938,30.6549602 36.3085938,28.2070312 L41.8359375,28.2070312 C41.8359375,29.2226613 42.1028619,30.0755174 42.6367188,30.765625 C43.1705756,31.4557326 43.8476521,31.8007812 44.6679688,31.8007812 C45.6184943,31.8007812 46.3704399,31.4492223 46.9238281,30.7460938 C47.4772163,30.0429652 47.7539062,29.1054746 47.7539062,27.9335938 C47.7539062,25.1341006 46.6666775,23.7278646 44.4921875,23.7148438 L41.7773438,23.7148438 L41.7773438,19.2617188 Z M72.6132812,24.2421875 C72.6132812,28.1744988 71.9003978,31.1822813 70.4746094,33.265625 C69.048821,35.3489687 67.0143361,36.390625 64.3710938,36.390625 C61.7538932,36.390625 59.732429,35.3782653 58.3066406,33.3535156 C56.8808522,31.3287659 56.1419273,28.4284043 56.0898438,24.6523438 L56.0898438,19.28125 C56.0898438,15.3619596 56.7994721,12.3639427 58.21875,10.2871094 C59.6380279,8.21027607 61.675768,7.171875 64.3320312,7.171875 C66.9882945,7.171875 69.0260346,8.20051055 70.4453125,10.2578125 C71.8645904,12.3151145 72.5872395,15.251283 72.6132812,19.0664062 L72.6132812,24.2421875 Z M67.0664062,18.4804688 C67.0664062,16.2408742 66.8450543,14.5612035 66.4023438,13.4414062 C65.9596332,12.321609 65.2695359,11.7617188 64.3320312,11.7617188 C62.57421,11.7617188 61.6627607,13.8124795 61.5976562,17.9140625 L61.5976562,25.0039062 C61.5976562,27.2955844 61.8222634,29.0012965 62.2714844,30.1210938 C62.7207054,31.240891 63.4205682,31.8007812 64.3710938,31.8007812 C65.2695357,31.8007812 65.9368468,31.2766979 66.3730469,30.2285156 C66.809247,29.1803333 67.0403645,27.5755316 67.0664062,25.4140625 L67.0664062,18.4804688 Z" id="30" fill="#FFFFFF"></path>
        <path d="M17.8984375,25.609375 L15.046875,25.609375 L15.046875,36 L9.3046875,36 L9.3046875,7.5625 L18.4648438,7.5625 C21.3424623,7.5625 23.5657474,8.30793525 25.1347656,9.79882812 C26.7037839,11.289721 27.4882812,13.4088404 27.4882812,16.15625 C27.4882812,19.9323105 26.1145971,22.5755133 23.3671875,24.0859375 L28.3476562,35.7265625 L28.3476562,36 L22.1757812,36 L17.8984375,25.609375 Z M15.046875,20.8242188 L18.3085938,20.8242188 C19.4544328,20.8242188 20.3137992,20.4433632 20.8867188,19.6816406 C21.4596383,18.9199181 21.7460938,17.901048 21.7460938,16.625 C21.7460938,13.7734232 20.6328236,12.3476562 18.40625,12.3476562 L15.046875,12.3476562 L15.046875,20.8242188 Z" id="R" fill="#FFFFFF"></path>
    </g>
</svg>