<?xml version="1.0" encoding="UTF-8"?>
<svg width="100px" height="45px" viewBox="0 0 100 45" version="1.1" xmlns="http://www.w3.org/2000/svg" xmlns:xlink="http://www.w3.org/1999/xlink">
    <!-- Generator: Sketch 51.3 (57544) - http://www.bohemiancoding.com/sketch -->
    <title>Line/Monitor/R30x</title>
    <desc>Created with Sketch.</desc>
    <defs></defs>
    <g id="Line/Monitor/R30x" stroke="none" stroke-width="1" fill="none" fill-rule="evenodd">
        <rect id="Rectangle-285-Copy-11" fill="#05782D" x="0" y="0" width="100" height="45"></rect>
        <g id="Line/Monitor/x-border" fill="#FFFFFF">
            <rect id="Rectangle-7" x="4" y="4" width="92" height="37"></rect>
        </g>
        <path d="M39.7773438,19.2617188 L42.453125,19.2617188 C43.4687551,19.2617188 44.2141903,18.9069046 44.6894531,18.1972656 C45.1647159,17.4876267 45.4023438,16.5403705 45.4023438,15.3554688 C45.4023438,14.2226506 45.1582056,13.3404979 44.6699219,12.7089844 C44.1816382,12.0774708 43.5273479,11.7617188 42.7070312,11.7617188 C41.9387982,11.7617188 41.3105493,12.0611949 40.8222656,12.6601562 C40.3339819,13.2591176 40.0898438,14.0143184 40.0898438,14.9257812 L34.5625,14.9257812 C34.5625,13.4413988 34.9042935,12.1100319 35.5878906,10.9316406 C36.2714878,9.75324932 37.2285095,8.83203457 38.4589844,8.16796875 C39.6894593,7.50390293 41.0533779,7.171875 42.5507812,7.171875 C45.1679818,7.171875 47.2187426,7.89452402 48.703125,9.33984375 C50.1875074,10.7851635 50.9296875,12.7643104 50.9296875,15.2773438 C50.9296875,16.5664127 50.5944044,17.7610622 49.9238281,18.8613281 C49.2532519,19.961594 48.3710992,20.8046846 47.2773438,21.390625 C48.6184963,21.9635445 49.6178353,22.8229109 50.2753906,23.96875 C50.932946,25.1145891 51.2617188,26.4687422 51.2617188,28.03125 C51.2617188,30.5573043 50.4576903,32.5820236 48.8496094,34.1054688 C47.2415284,35.6289139 45.1289193,36.390625 42.5117188,36.390625 C40.0768107,36.390625 38.100919,35.6386794 36.5839844,34.1347656 C35.0670497,32.6308519 34.3085938,30.6549602 34.3085938,28.2070312 L39.8359375,28.2070312 C39.8359375,29.2226613 40.1028619,30.0755174 40.6367188,30.765625 C41.1705756,31.4557326 41.8476521,31.8007812 42.6679688,31.8007812 C43.6184943,31.8007812 44.3704399,31.4492223 44.9238281,30.7460938 C45.4772163,30.0429652 45.7539062,29.1054746 45.7539062,27.9335938 C45.7539062,25.1341006 44.6666775,23.7278646 42.4921875,23.7148438 L39.7773438,23.7148438 L39.7773438,19.2617188 Z M70.6132812,24.2421875 C70.6132812,28.1744988 69.9003978,31.1822813 68.4746094,33.265625 C67.048821,35.3489687 65.0143361,36.390625 62.3710938,36.390625 C59.7538932,36.390625 57.732429,35.3782653 56.3066406,33.3535156 C54.8808522,31.3287659 54.1419273,28.4284043 54.0898438,24.6523438 L54.0898438,19.28125 C54.0898438,15.3619596 54.7994721,12.3639427 56.21875,10.2871094 C57.6380279,8.21027607 59.675768,7.171875 62.3320312,7.171875 C64.9882945,7.171875 67.0260346,8.20051055 68.4453125,10.2578125 C69.8645904,12.3151145 70.5872395,15.251283 70.6132812,19.0664062 L70.6132812,24.2421875 Z M65.0664062,18.4804688 C65.0664062,16.2408742 64.8450543,14.5612035 64.4023438,13.4414062 C63.9596332,12.321609 63.2695359,11.7617188 62.3320312,11.7617188 C60.57421,11.7617188 59.6627607,13.8124795 59.5976562,17.9140625 L59.5976562,25.0039062 C59.5976562,27.2955844 59.8222634,29.0012965 60.2714844,30.1210938 C60.7207054,31.240891 61.4205682,31.8007812 62.3710938,31.8007812 C63.2695357,31.8007812 63.9368468,31.2766979 64.3730469,30.2285156 C64.809247,29.1803333 65.0403645,27.5755316 65.0664062,25.4140625 L65.0664062,18.4804688 Z" id="30" fill="#000000"></path>
        <polygon id="x" fill="#000000" points="82.0820312 21.1367188 84.5429688 14.8671875 90.4023438 14.8671875 85.578125 25.1992188 90.578125 36 84.6992188 36 82.1015625 29.3789062 79.5234375 36 73.625 36 78.625 25.1992188 73.8398438 14.8671875 79.71875 14.8671875"></polygon>
        <path d="M18.8984375,25.609375 L16.046875,25.609375 L16.046875,36 L10.3046875,36 L10.3046875,7.5625 L19.4648438,7.5625 C22.3424623,7.5625 24.5657474,8.30793525 26.1347656,9.79882812 C27.7037839,11.289721 28.4882812,13.4088404 28.4882812,16.15625 C28.4882812,19.9323105 27.1145971,22.5755133 24.3671875,24.0859375 L29.3476562,35.7265625 L29.3476562,36 L23.1757812,36 L18.8984375,25.609375 Z M16.046875,20.8242188 L19.3085938,20.8242188 C20.4544328,20.8242188 21.3137992,20.4433632 21.8867188,19.6816406 C22.4596383,18.9199181 22.7460938,17.901048 22.7460938,16.625 C22.7460938,13.7734232 21.6328236,12.3476562 19.40625,12.3476562 L16.046875,12.3476562 L16.046875,20.8242188 Z" id="R" fill="#000000"></path>
    </g>
</svg>