<?xml version="1.0" encoding="utf-8"?>
<!-- Generator: Adobe Illustrator 22.0.1, SVG Export Plug-In . SVG Version: 6.00 Build 0)  -->
<svg version="1.1" id="Type_5" xmlns="http://www.w3.org/2000/svg" xmlns:xlink="http://www.w3.org/1999/xlink" x="0px" y="0px"
	 viewBox="0 0 1830.8 340" style="enable-background:new 0 0 1830.8 340;" xml:space="preserve">
<metadata><?xpacket begin="﻿" id="W5M0MpCehiHzreSzNTczkc9d"?>
<x:xmpmeta xmlns:x="adobe:ns:meta/" x:xmptk="Adobe XMP Core 5.6-c143 79.161210, 2017/08/11-10:28:36        ">
   <rdf:RDF xmlns:rdf="http://www.w3.org/1999/02/22-rdf-syntax-ns#">
      <rdf:Description rdf:about=""/>
   </rdf:RDF>
</x:xmpmeta>
                                                                                                    
                                                                                                    
                                                                                                    
                                                                                                    
                                                                                                    
                                                                                                    
                                                                                                    
                                                                                                    
                                                                                                    
                                                                                                    
                                                                                                    
                                                                                                    
                                                                                                    
                                                                                                    
                                                                                                    
                                                                                                    
                                                                                                    
                                                                                                    
                                                                                                    
                                                                                                    
                           
<?xpacket end="w"?></metadata>
<style type="text/css">
	.st0{fill:#B1B3B3;}
	.st1{fill:#212322;}
	.st2{fill:#444445;}
	.st3{fill:#DA291C;}
	.st4{fill:#FA4616;}
	.st5{fill:#878787;}
	.st6{fill:none;stroke:#000000;stroke-width:2;stroke-linecap:round;stroke-linejoin:round;stroke-miterlimit:10;}
	.st7{fill:none;stroke:#000000;stroke-width:2;stroke-linejoin:round;stroke-miterlimit:10;}
	.st8{fill:none;stroke:#000000;stroke-width:2;stroke-miterlimit:10;}
</style>
<g id="Mål_16_">
</g>
<g id="Farger_16_">
	<g id="Grunnfarge_12_">
		<path class="st0" d="M21.8,90.6h125.3l34.8-34.7h1460.6l34.8,34.7H1808v-45c0,0,1.5-17.7-24.6-21.9s-1.1,0-1.1,0l-112.1-5.3
			l-0.3,3h-68.8v-2.6H227.9l-0.1,3.2l-68-0.6v-2.6c0,0-59.3,2-64.4,2.2s-46.6,1.5-52.9,3.5c-6.3,2.1-20.7,7.1-20.7,22
			S21.8,90.6,21.8,90.6z"/>
		<path class="st1" d="M1484.6,265.2c0,0-7.9-11.4-24.7-11.4s-32.2,16.3-29.6,35.9c2.6,19.7,23.5,24.6,30.6,25.4
			c7.2,0.7,18.4-3.9,26.3-14.9h5.9v-2.8h18.5v-4.1h60.4v4.1h18.5v2.8h6.3c0,0,7.4,12.9,22.2,14.6c14.8,1.7,26.5-7.3,31.4-16.5
			c4.8-9.2,4.6-21-1.6-30.1l-16.7-0.1l-13.4-14.3l-5.8-6.2l-29.4-0.1H1513c0,0-1.9,2-2.1,6.3c-0.2,4.4,1.5,13.9,2.9,15.9
			c0,0,0-2.7-6-3.7s-7.6-0.9-7.6-0.9s2.8-4.3-0.9-5.6c0,0-2.7,0.6-3.4,1.8c-0.7,1.2-4.8-0.1-4.8-0.1L1484.6,265.2z"/>
		<path class="st1" d="M345.6,265.2c0,0,7.9-11.4,24.7-11.4s32.2,16.3,29.6,35.9c-2.6,19.7-23.5,24.6-30.6,25.4s-18.4-3.9-26.3-14.9
			h-5.9v-2.8h-18.5v-4.1h-60.4v4.1h-18.5v2.8h-6.3c0,0-7.4,12.9-22.2,14.6c-14.8,1.7-26.5-7.3-31.4-16.5c-4.8-9.2-4.6-21,1.6-30.1
			l16.7-0.1l13.4-14.3l5.8-6.2l29.4-0.1h70.5c0,0,1.9,2,2.1,6.3c0.2,4.4-1.5,13.9-2.9,15.9c0,0,0-2.7,6-3.7s7.6-0.9,7.6-0.9
			s-2.8-4.3,0.9-5.6c0,0,2.7,0.6,3.4,1.8c0.7,1.2,4.8-0.1,4.8-0.1L345.6,265.2z"/>
		<path class="st1" d="M21.8,228.3H11.4c0,0-1.7,0.2-1.7-3.4H7.2v-1.1H3.9c0,0-0.6,11.3,0,25.9h3.7v-0.9h2c0,0-0.4-3.2,0.6-3.2
			s16.2,0,16.2,0l-4.7-4.6L21.8,228.3L21.8,228.3z"/>
		<path class="st1" d="M1808.1,228.3h10.4c0,0,1.7,0.2,1.7-3.4h2.5v-1.1h3.3c0,0,0.6,11.3,0,25.9h-3.7v-0.9h-2c0,0,0.4-3.2-0.6-3.2
			s-16.2,0-16.2,0l4.7-4.6v-12.7H1808.1z"/>
		<rect x="424.5" y="244.1" class="st1" width="189.1" height="29.2"/>
		<rect x="629.6" y="244.1" class="st1" width="111.2" height="29.2"/>
		<rect x="774.7" y="244.1" class="st1" width="89.9" height="29.2"/>
		<rect x="883.6" y="244.1" class="st1" width="66.5" height="29.2"/>
		<rect x="992.5" y="244.1" class="st1" width="99.8" height="29.2"/>
		<rect x="1101.3" y="244.1" class="st1" width="298.7" height="29.2"/>
	</g>
	<g id="Profilering_16_">
		<rect x="21.8" y="90.6" class="st2" width="1786.3" height="75.6"/>
		<polygon class="st3" points="21.8,241 50.7,268.3 197.9,268.3 217.9,248.4 360.2,248.4 389,242.9 1440.9,242.9 1470.4,247.6 
			1612.8,247.6 1632,268.1 1780,268.1 1808.1,241.5 1808.1,166.2 21.8,166.2 		"/>
		<polygon class="st3" points="1642.5,55.9 181.9,55.9 147.1,90.6 1677.4,90.6 		"/>
		<g>
			<polygon class="st0" points="1808.2,213.5 1618.1,213.5 1491.2,82.4 365.2,82.4 238.3,213.5 21.5,213.5 21.5,210.1 236.9,210.1 
				363.8,79 1492.6,79 1619.5,210.1 1808.2,210.1 			"/>
		</g>
		<g>
			<rect x="22" y="192.9" class="st0" width="1785.8" height="6.7"/>
		</g>
	</g>
	<g id="Dører_og_vinduer_14_">
		<path class="st4" d="M61.9,268.2h70.4c0,0,5.4-0.3,5.4-7c0-6.1,0-155.4,0-182.3c0-2.7-3.4-4.1-3.4-4.1H60c0,0-3.1,1.1-3.1,4.9
			s0,183.4,0,183.4S57.1,268.2,61.9,268.2z"/>
		<path class="st4" d="M1697.2,268.2h70.4c0,0,5.4-0.3,5.4-7c0-6.1,0-155.7,0-182.4c0-2.6-3.4-4-3.4-4h-73.8c0,0-3.7,0.9-3.7,5.9
			s0,182.3,0,182.3S1692.4,268.2,1697.2,268.2z"/>
		<path class="st5" d="M451.4,162.1h-42.3c-5.1,0-9.3-4.2-9.3-9.3v-50.4c0-5.1,4.2-9.3,9.3-9.3h42.3c5.1,0,9.3,4.2,9.3,9.3v50.4
			C460.7,157.9,456.5,162.1,451.4,162.1z"/>
		<path class="st5" d="M575.9,162.1h-71.1c-5.1,0-9.3-4.2-9.3-9.3v-50.4c0-5.1,4.2-9.3,9.3-9.3h71.1c5.1,0,9.3,4.2,9.3,9.3v50.4
			C585.3,157.9,581.1,162.1,575.9,162.1z"/>
		<path class="st5" d="M700.9,162.1h-71.1c-5.1,0-9.3-4.2-9.3-9.3v-50.4c0-5.1,4.2-9.3,9.3-9.3h71.1c5.1,0,9.3,4.2,9.3,9.3v50.4
			C710.3,157.9,706.1,162.1,700.9,162.1z"/>
		<path class="st5" d="M826,162.1h-71.1c-5.1,0-9.3-4.2-9.3-9.3v-50.4c0-5.1,4.2-9.3,9.3-9.3H826c5.1,0,9.3,4.2,9.3,9.3v50.4
			C835.3,157.9,831.1,162.1,826,162.1z"/>
		<path class="st5" d="M951,162.1h-71.1c-5.1,0-9.3-4.2-9.3-9.3v-50.4c0-5.1,4.2-9.3,9.3-9.3H951c5.1,0,9.3,4.2,9.3,9.3v50.4
			C960.4,157.9,956.1,162.1,951,162.1z"/>
		<path class="st5" d="M1075.4,162.1h-71.1c-5.1,0-9.3-4.2-9.3-9.3v-50.4c0-5.1,4.2-9.3,9.3-9.3h71.1c5.1,0,9.3,4.2,9.3,9.3v50.4
			C1084.8,157.9,1080.6,162.1,1075.4,162.1z"/>
		<path class="st5" d="M1200.4,162.1h-71.1c-5.1,0-9.3-4.2-9.3-9.3v-50.4c0-5.1,4.2-9.3,9.3-9.3h71.1c5.1,0,9.3,4.2,9.3,9.3v50.4
			C1209.8,157.9,1205.6,162.1,1200.4,162.1z"/>
		<path class="st5" d="M1325.5,162.1h-71.1c-5.1,0-9.3-4.2-9.3-9.3v-50.4c0-5.1,4.2-9.3,9.3-9.3h71.1c5.1,0,9.3,4.2,9.3,9.3v50.4
			C1334.9,157.9,1330.7,162.1,1325.5,162.1z"/>
		<path class="st5" d="M1450.5,162.1h-71.1c-5.1,0-9.3-4.2-9.3-9.3v-50.4c0-5.1,4.2-9.3,9.3-9.3h71.1c5.1,0,9.3,4.2,9.3,9.3v50.4
			C1459.9,157.9,1455.7,162.1,1450.5,162.1z"/>
		<path class="st5" d="M1574.3,162.1h-71.1c-5.1,0-9.3-4.2-9.3-9.3v-50.4c0-5.1,4.2-9.3,9.3-9.3h71.1c5.1,0,9.3,4.2,9.3,9.3v50.4
			C1583.7,157.9,1579.5,162.1,1574.3,162.1z"/>
		<path class="st5" d="M1661.1,162.1h-25.9c-5.1,0-9.3-4.2-9.3-9.3v-50.4c0-5.1,4.2-9.3,9.3-9.3h25.9c5.1,0,9.3,4.2,9.3,9.3v50.4
			C1670.5,157.9,1666.3,162.1,1661.1,162.1z"/>
		<path class="st5" d="M112.3,163.2H78.6c-4.1,0-7.5-3.4-7.5-7.5v-35c0-4.1,3.4-7.5,7.5-7.5h33.8c4.1,0,7.5,3.4,7.5,7.5v35
			C119.9,159.8,116.5,163.2,112.3,163.2z"/>
		<path class="st5" d="M1717.6,163.2h33.8c4.1,0,7.5-3.4,7.5-7.5v-35c0-4.1-3.4-7.5-7.5-7.5h-33.8c-4.1,0-7.5,3.4-7.5,7.5v35
			C1710.1,159.8,1713.5,163.2,1717.6,163.2z"/>
	</g>
</g>
<g id="Omriss_16_">
	<path class="st6" d="M1808.1,45.6c0,4.6,0,45,0,45v150.9l-28.1,26.6h-148l-9.9-10.6l-3.2-3.4l-6.1-6.5h-142.4l-29.5-4.7H389
		l-28.8,4.8l-143.1-0.1l-19.2,20.7l-93.5,0.1H50.7L21.8,241l0.1-168.9V44.9c0,0,0.8-19.1,28.1-21.4c27.3-2.2,109.9-4.6,109.9-4.6
		v2.6H228v-2.6h1373.3v2.5h69.1v-2.9l108.5,5c0,0,18.9-0.7,27.2,14.6C1806.1,38,1808.1,41,1808.1,45.6z"/>
	<circle class="st6" cx="1460.9" cy="284.5" r="12.3"/>
	<path class="st6" d="M1484.7,265.1c-5.6-6.9-14.2-11.3-23.8-11.3c-16.9,0-30.6,13.7-30.6,30.6c0,16.9,13.7,30.6,30.6,30.6
		c11.2,0,20.9-6,26.3-14.9"/>
	<circle class="st6" cx="1622.9" cy="284.5" r="12.3"/>
	<path class="st6" d="M1599.2,265.1c4.8-5.9,11.8-10,19.7-11"/>
	<path class="st6" d="M1648.8,268.1c3,4.7,4.8,10.4,4.8,16.4c0,16.9-13.7,30.6-30.6,30.6c-11.2,0-20.9-6-26.3-14.9"/>
	<path class="st6" d="M1476.3,270.3l-1.9-0.6v9.9c0,0,1,1.8,1,5s-1,4.5-1,4.5v11.1h8.4h4.4h5.9v-2.8h18.5v-4.1v-9.5l-0.7-6.5
		l-7.5-7.3l-0.1-0.1h-8.9h-6.1v0.6v3.6l-2.8-0.9l0,0l-5.2-1.7"/>
	<path class="st6" d="M1607.4,270.2l1.6-0.5v9.9c0,0-1,1.8-1,5s1,4.5,1,4.5v11.1h-7.5h-4.8h-6.3v-2.8h-18.5v-4.1v-9.5l0.7-6.5
		l7.6-7.3h15v4.2l3.8-1.2l4.6-1.5"/>
	<polyline class="st6" points="1571.9,293.2 1511.5,293.2 1511.5,293.2 	"/>
	<path class="st6" d="M1572.9,257c0,6-2.2,11.1-2.2,11.1s-0.8,1.1-1.8,1.1c-1.1,0-30.7,0.1-30.7,0.1h-23.4c0,0-1.4-0.1-1.8-1.1
		c-0.1-0.3-0.3-0.7-0.6-1.5c-0.7-1.8-1.6-5.1-1.6-10c0-6.8,1.6-9.2,1.6-9.2h58.8C1571.1,247.6,1572.9,251,1572.9,257z"/>
	<path class="st6" d="M1570.1,269l9.5-1.5l0.6,2.4l12.3-0.1l0.9-1.3c0,0,1.3,0.3,3,0.7c1.3,0.3,2.8,0.7,4.1,1c1.5,0.4,2.6,0.8,2.8,1
		c0.1,0.1,0.2,0.2,0.2,0.3c0.4,0.4,0.9,0.6,0.9,2c0,1.6,0.1,3.5,0.1,3.5h2.9v-6.7V270c0,0-1.3-1.8-2.9-2.5c-0.3-0.1-0.8-0.3-1.5-0.7
		c-1-0.4-2.4-1-3.8-1.7c-3.1-1.4-6.3-3.2-6.3-4h-9.4v-13.4h-10V261l10,0.2"/>
	<path class="st6" d="M1513.6,269l-9.5-1.5l-0.6,2.4h-0.3l-9-0.1h-3.1l-0.9-1.3c0,0-1.3,0.3-3,0.7c-2.8,0.7-6.6,1.6-6.9,2
		c-0.1,0.1-0.2,0.2-0.2,0.3l0,0c-0.4,0.4-0.9,0.6-0.9,1.9c0,1.6-0.1,3.5-0.1,3.5h-2.9v-6.7l0,0V270c0,0,1.3-1.8,2.9-2.5
		c0.3-0.1,1-0.4,2-0.8c1-0.4,2.2-1,3.4-1.5c0.1,0,0.1-0.1,0.1-0.1c3-1.4,6.2-3.1,6.2-3.9h5.6c0,0,0.7-2.1,2.7-1.7
		c2,0.5,1.6,2.1,1.6,2.5c0,0.3-0.9,3.8-0.9,3.8l1.1,0.3l0.7-1l10.7,1.7"/>
	<line class="st6" x1="1485.4" y1="273.2" x2="1485.4" y2="273.2"/>
	<path class="st6" d="M1481.2,266.8c-4.9-5.7-12.2-9.2-20.3-9.2c-14.9,0-26.9,12.1-26.9,27s12.1,26.9,26.9,26.9
		c9,0,17-4.4,21.8-11.2"/>
	<path class="st6" d="M1644.7,268.1c3.5,4.6,5.5,10.2,5.5,16.4c0,14.9-12.1,26.9-26.9,26.9c-9,0-17-4.4-21.8-11.2"/>
	<path class="st6" d="M1622.1,257.5c-7.7,0.4-14.5,3.9-19.1,9.3c0.7,0.3,1.2,0.6,1.5,0.7c1.6,0.7,2.9,2.5,2.9,2.5v0.3v6.7h-2.9
		c0,0-0.1-1.9-0.1-3.5c0-1.4-0.5-1.5-0.9-2c-0.1-0.1-0.2-0.2-0.2-0.3c-0.2-0.2-1.3-0.6-2.8-1"/>
	<circle class="st7" cx="369.1" cy="284.5" r="12.3"/>
	<path class="st7" d="M342.8,300.2c5.3,8.9,15.1,14.9,26.3,14.9c16.9,0,30.6-13.7,30.6-30.6c0-16.9-13.7-30.6-30.6-30.6
		c-9.6,0-18.2,4.4-23.8,11.3"/>
	<circle class="st7" cx="207.1" cy="284.5" r="12.3"/>
	<path class="st7" d="M211.1,254.1c7.9,1,14.9,5.1,19.7,11"/>
	<path class="st7" d="M233.3,300.2c-5.3,8.9-15.1,14.9-26.3,14.9c-16.9,0-30.6-13.7-30.6-30.6c0-6,1.7-11.6,4.8-16.4"/>
	<path class="st7" d="M349.8,271.6l-5.2,1.7l0,0l-2.8,0.9v-3.6v-0.6h-6.1h-8.9l-0.1,0.1l-7.5,7.3l-0.7,6.5v9.5v4.1H337v2.8h5.9h4.4
		h8.4V289c0,0-1-1.2-1-4.5c0-3.2,1-5,1-5v-9.9l-1.9,0.6"/>
	<path class="st7" d="M226.5,271.5l4.6,1.5l3.8,1.2V270h15l7.6,7.3l0.7,6.5v9.5v4.1h-18.5v2.8h-6.3h-4.8H221V289c0,0,1-1.2,1-4.5
		c0-3.2-1-5-1-5v-9.9l1.6,0.5"/>
	<polyline class="st7" points="318.5,293.2 318.5,293.2 258.1,293.2 	"/>
	<path class="st7" d="M257,257c0,6,2.2,11.1,2.2,11.1s0.8,1.1,1.8,1.1c1.1,0,30.7,0.1,30.7,0.1h23.4c0,0,1.4-0.1,1.8-1.1
		c0.1-0.3,0.3-0.7,0.6-1.5c0.7-1.8,1.6-5.1,1.6-10c0-6.8-1.6-9.2-1.6-9.2h-58.8C258.8,247.6,257,251,257,257z"/>
	<path class="st7" d="M246.5,261.1l10-0.2v-13.3h-10V261.1h-9.4c0,0.8-3.3,2.6-6.3,4c-1.4,0.7-2.8,1.3-3.8,1.7
		c-0.7,0.3-1.2,0.6-1.5,0.7c-1.6,0.7-2.9,2.5-2.9,2.5v0.3v6.7h2.9c0,0,0.1-1.9,0.1-3.5c0-1.4,0.5-1.5,0.9-2c0.1-0.1,0.2-0.2,0.2-0.3
		c0.2-0.2,1.3-0.6,2.8-1c1.2-0.3,2.8-0.7,4.1-1c1.7-0.4,3-0.7,3-0.7l0.9,1.3l12.3,0.1l0.6-2.4l9.5,1.5"/>
	<path class="st7" d="M317.6,266.8l10.7-1.7l0.7,1l1.1-0.3c0,0-0.8-3.5-0.9-3.8c0-0.4-0.5-2,1.6-2.5c2-0.4,2.7,1.7,2.7,1.7h5.6
		c0,0.8,3.2,2.5,6.2,3.9c0.1,0,0.1,0,0.1,0.1c1.2,0.6,2.4,1.1,3.4,1.5c0.9,0.4,1.6,0.7,2,0.8c1.6,0.7,2.9,2.5,2.9,2.5v0.3l0,0v6.7
		h-2.9c0,0-0.1-1.9-0.1-3.5c0-1.3-0.4-1.5-0.9-1.9l0,0c-0.1-0.1-0.2-0.2-0.2-0.3c-0.3-0.4-4.1-1.3-6.9-2c-1.7-0.4-3-0.7-3-0.7
		l-0.9,1.3h-3.1l-9,0.1h-0.3l-0.6-2.4l-9.5,1.5"/>
	<line class="st7" x1="344.6" y1="273.2" x2="344.6" y2="273.2"/>
	<path class="st7" d="M347.2,300.2c4.9,6.8,12.8,11.2,21.8,11.2c14.9,0,26.9-12.1,26.9-26.9c0-14.9-12.1-27-26.9-27
		c-8.1,0-15.3,3.6-20.3,9.2"/>
	<path class="st7" d="M228.5,300.2c-4.9,6.8-12.8,11.2-21.8,11.2c-14.9,0-26.9-12.1-26.9-26.9c0-6.1,2.1-11.8,5.5-16.4"/>
	<path class="st7" d="M229.5,270.2c-1.5,0.4-2.6,0.8-2.8,1c-0.1,0.1-0.2,0.2-0.2,0.3c-0.4,0.4-0.9,0.6-0.9,2c0,1.6-0.1,3.5-0.1,3.5
		h-2.9v-6.7V270c0,0,1.3-1.8,2.9-2.5c0.3-0.1,0.8-0.3,1.5-0.7c-4.7-5.4-11.5-8.9-19.1-9.3"/>
	<path class="st7" d="M1642.2,182.1H189.4c-1,0-1.8-0.8-1.8-1.8l0,0c0-1,0.8-1.8,1.8-1.8h1452.8c1,0,1.8,0.8,1.8,1.8l0,0
		C1644,181.3,1643.2,182.1,1642.2,182.1z"/>
	<path class="st7" d="M1642.2,199.8H189.4c-1,0-1.8-0.8-1.8-1.8l0,0c0-1,0.8-1.8,1.8-1.8h1452.8c1,0,1.8,0.8,1.8,1.8l0,0
		C1644,198.8,1643.2,199.8,1642.2,199.8z"/>
	<path class="st7" d="M1642.2,216.8H189.4c-1,0-1.8-0.8-1.8-1.8l0,0c0-1,0.8-1.8,1.8-1.8h1452.8c1,0,1.8,0.8,1.8,1.8l0,0
		C1644,216,1643.2,216.8,1642.2,216.8z"/>
	<path class="st7" d="M451.4,162.1h-42.3c-5.1,0-9.3-4.2-9.3-9.3v-50.4c0-5.1,4.2-9.3,9.3-9.3h42.3c5.1,0,9.3,4.2,9.3,9.3v50.4
		C460.7,157.9,456.5,162.1,451.4,162.1z"/>
	<path class="st7" d="M575.9,162.1h-71.1c-5.1,0-9.3-4.2-9.3-9.3v-50.4c0-5.1,4.2-9.3,9.3-9.3h71.1c5.1,0,9.3,4.2,9.3,9.3v50.4
		C585.3,157.9,581.1,162.1,575.9,162.1z"/>
	<path class="st7" d="M700.9,162.1h-71.1c-5.1,0-9.3-4.2-9.3-9.3v-50.4c0-5.1,4.2-9.3,9.3-9.3h71.1c5.1,0,9.3,4.2,9.3,9.3v50.4
		C710.3,157.9,706.1,162.1,700.9,162.1z"/>
	<path class="st7" d="M826,162.1h-71.1c-5.1,0-9.3-4.2-9.3-9.3v-50.4c0-5.1,4.2-9.3,9.3-9.3H826c5.1,0,9.3,4.2,9.3,9.3v50.4
		C835.3,157.9,831.1,162.1,826,162.1z"/>
	<path class="st7" d="M951,162.1h-71.1c-5.1,0-9.3-4.2-9.3-9.3v-50.4c0-5.1,4.2-9.3,9.3-9.3H951c5.1,0,9.3,4.2,9.3,9.3v50.4
		C960.4,157.9,956.1,162.1,951,162.1z"/>
	<path class="st7" d="M1075.4,162.1h-71.1c-5.1,0-9.3-4.2-9.3-9.3v-50.4c0-5.1,4.2-9.3,9.3-9.3h71.1c5.1,0,9.3,4.2,9.3,9.3v50.4
		C1084.8,157.9,1080.6,162.1,1075.4,162.1z"/>
	<path class="st7" d="M1200.4,162.1h-71.1c-5.1,0-9.3-4.2-9.3-9.3v-50.4c0-5.1,4.2-9.3,9.3-9.3h71.1c5.1,0,9.3,4.2,9.3,9.3v50.4
		C1209.8,157.9,1205.6,162.1,1200.4,162.1z"/>
	<path class="st7" d="M1325.5,162.1h-71.1c-5.1,0-9.3-4.2-9.3-9.3v-50.4c0-5.1,4.2-9.3,9.3-9.3h71.1c5.1,0,9.3,4.2,9.3,9.3v50.4
		C1334.9,157.9,1330.7,162.1,1325.5,162.1z"/>
	<path class="st7" d="M1450.5,162.1h-71.1c-5.1,0-9.3-4.2-9.3-9.3v-50.4c0-5.1,4.2-9.3,9.3-9.3h71.1c5.1,0,9.3,4.2,9.3,9.3v50.4
		C1459.9,157.9,1455.7,162.1,1450.5,162.1z"/>
	<path class="st7" d="M1574.3,162.1h-71.1c-5.1,0-9.3-4.2-9.3-9.3v-50.4c0-5.1,4.2-9.3,9.3-9.3h71.1c5.1,0,9.3,4.2,9.3,9.3v50.4
		C1583.7,157.9,1579.5,162.1,1574.3,162.1z"/>
	<path class="st7" d="M1661.1,162.1h-25.9c-5.1,0-9.3-4.2-9.3-9.3v-50.4c0-5.1,4.2-9.3,9.3-9.3h25.9c5.1,0,9.3,4.2,9.3,9.3v50.4
		C1670.5,157.9,1666.3,162.1,1661.1,162.1z"/>
	<line class="st7" x1="21.8" y1="72.1" x2="1808" y2="72.1"/>
	<line class="st7" x1="1612.8" y1="247.6" x2="1642.4" y2="242.8"/>
	<line class="st7" x1="1779.7" y1="23.4" x2="1779.7" y2="268.1"/>
	<line class="st7" x1="1773.1" y1="220.2" x2="1808.1" y2="220.2"/>
	<line class="st7" x1="56.9" y1="220.2" x2="21.8" y2="220.2"/>
	<line class="st7" x1="185.6" y1="242.5" x2="217.2" y2="247.6"/>
	<line class="st7" x1="389" y1="242.9" x2="137.2" y2="242.9"/>
	<line class="st7" x1="1440.9" y1="242.9" x2="1692.5" y2="242.9"/>
	<path class="st7" d="M112.3,163.2H78.6c-4.1,0-7.5-3.4-7.5-7.5v-35c0-4.1,3.4-7.5,7.5-7.5h33.8c4.1,0,7.5,3.4,7.5,7.5v35
		C119.9,159.8,116.5,163.2,112.3,163.2z"/>
	<path class="st7" d="M132.8,267.8H61.7c-2.7,0-4.9-2.2-4.9-4.9V79.8c0-2.7,2.2-4.9,4.9-4.9h71.1c2.7,0,4.9,2.2,4.9,4.9V263
		C137.7,265.5,135.5,267.8,132.8,267.8z"/>
	<path class="st7" d="M1717.6,163.2h33.8c4.1,0,7.5-3.4,7.5-7.5v-35c0-4.1-3.4-7.5-7.5-7.5h-33.8c-4.1,0-7.5,3.4-7.5,7.5v35
		C1710.1,159.8,1713.5,163.2,1717.6,163.2z"/>
	<path class="st7" d="M1697.1,267.8h71.1c2.7,0,4.9-2.2,4.9-4.9V79.8c0-2.7-2.2-4.9-4.9-4.9h-71.1c-2.7,0-4.9,2.2-4.9,4.9V263
		C1692.3,265.5,1694.5,267.8,1697.1,267.8z"/>
	<path class="st7" d="M124.7,63.4H58.1c-0.3,0-0.5-0.2-0.5-0.5V44.4c0-0.3,0.2-0.5,0.5-0.5h66.6c0.3,0,0.5,0.2,0.5,0.5v18.5
		C125.2,63.2,124.9,63.4,124.7,63.4z"/>
	<rect x="60.9" y="46.6" class="st7" width="60.7" height="14.3"/>
	<polygon class="st8" points="64.5,57.3 64.9,49.8 117.8,49.8 117.4,57.3 	"/>
	<line class="st7" x1="68.7" y1="49.8" x2="68.2" y2="57.3"/>
	<line class="st7" x1="72.5" y1="49.8" x2="72" y2="57.3"/>
	<line class="st7" x1="76.3" y1="49.8" x2="75.8" y2="57.3"/>
	<line class="st7" x1="80" y1="49.8" x2="79.6" y2="57.3"/>
	<line class="st7" x1="83.8" y1="49.8" x2="83.4" y2="57.3"/>
	<line class="st7" x1="87.6" y1="49.8" x2="87.1" y2="57.3"/>
	<line class="st7" x1="91.4" y1="49.8" x2="90.9" y2="57.3"/>
	<line class="st7" x1="95.2" y1="49.8" x2="94.7" y2="57.3"/>
	<line class="st7" x1="98.9" y1="49.8" x2="98.5" y2="57.3"/>
	<line class="st7" x1="102.7" y1="49.8" x2="102.3" y2="57.3"/>
	<line class="st7" x1="106.5" y1="49.8" x2="106" y2="57.3"/>
	<line class="st7" x1="110.3" y1="49.8" x2="109.8" y2="57.3"/>
	<line class="st7" x1="114.1" y1="49.8" x2="113.6" y2="57.3"/>
	<path class="st7" d="M1771.8,63.4h-66.6c-0.3,0-0.5-0.2-0.5-0.5V44.4c0-0.3,0.2-0.5,0.5-0.5h66.6c0.3,0,0.5,0.2,0.5,0.5v18.5
		C1772.3,63.2,1772.1,63.4,1771.8,63.4z"/>
	<rect x="1708.1" y="46.6" class="st7" width="60.7" height="14.3"/>
	<polygon class="st8" points="1711.6,57.3 1712.1,49.8 1765,49.8 1764.5,57.3 	"/>
	<line class="st7" x1="1715.9" y1="49.8" x2="1715.4" y2="57.3"/>
	<line class="st7" x1="1719.6" y1="49.8" x2="1719.2" y2="57.3"/>
	<line class="st7" x1="1723.4" y1="49.8" x2="1722.9" y2="57.3"/>
	<line class="st7" x1="1727.2" y1="49.8" x2="1726.7" y2="57.3"/>
	<line class="st7" x1="1731" y1="49.8" x2="1730.5" y2="57.3"/>
	<line class="st7" x1="1734.7" y1="49.8" x2="1734.3" y2="57.3"/>
	<line class="st7" x1="1738.5" y1="49.8" x2="1738.1" y2="57.3"/>
	<line class="st7" x1="1742.3" y1="49.8" x2="1741.8" y2="57.3"/>
	<line class="st7" x1="1746.1" y1="49.8" x2="1745.6" y2="57.3"/>
	<line class="st7" x1="1749.9" y1="49.8" x2="1749.4" y2="57.3"/>
	<line class="st7" x1="1753.6" y1="49.8" x2="1753.2" y2="57.3"/>
	<line class="st7" x1="1757.4" y1="49.8" x2="1757" y2="57.3"/>
	<line class="st7" x1="1761.2" y1="49.8" x2="1760.7" y2="57.3"/>
	<path class="st7" d="M982.8,63.4h-66.6c-0.3,0-0.5-0.2-0.5-0.5V44.4c0-0.3,0.2-0.5,0.5-0.5h66.6c0.3,0,0.5,0.2,0.5,0.5v18.5
		C983.4,63.2,983.1,63.4,982.8,63.4z"/>
	<polygon class="st8" points="931,60.8 931.4,47 969.3,47 968.8,60.8 	"/>
	<line class="st7" x1="935.2" y1="47" x2="934.7" y2="60.8"/>
	<line class="st7" x1="939" y1="47" x2="938.5" y2="60.8"/>
	<line class="st7" x1="942.8" y1="47" x2="942.3" y2="60.8"/>
	<line class="st7" x1="946.5" y1="47" x2="946.1" y2="60.8"/>
	<line class="st7" x1="950.3" y1="47" x2="949.9" y2="60.8"/>
	<line class="st7" x1="954.1" y1="47" x2="953.6" y2="60.8"/>
	<line class="st7" x1="957.9" y1="47" x2="957.4" y2="60.8"/>
	<line class="st7" x1="961.7" y1="47" x2="961.2" y2="60.8"/>
	<line class="st7" x1="965.4" y1="47" x2="965" y2="60.8"/>
	<path class="st8" d="M21.7,228.1H11.4c0,0-1.7,0.5-1.7-1.8V225H7.2v-1.1H3.9c0,0-0.4,7.8-0.4,12.2s0.4,13.7,0.4,13.7h3.7v-1h2v-2.2
		c0,0,0.1-1.1,1.1-1.1s15.7,0,15.7,0"/>
	<path class="st8" d="M1808.1,228.1h10.3c0,0,1.7,0.5,1.7-1.8V225h2.5v-1.1h3.3c0,0,0.4,7.8,0.4,12.2s-0.4,13.7-0.4,13.7h-3.7v-1h-2
		v-2.2c0,0-0.1-1.1-1.1-1.1s-15.7,0-15.7,0"/>
	<line class="st8" x1="50.7" y1="268.3" x2="50.7" y2="23.4"/>
	<polyline class="st8" points="50.7,31.6 161,26.6 1669,26.6 1778.6,32.3 	"/>
	<polyline class="st8" points="50.7,26.8 161,21.8 1669,21.8 1778.6,27.4 	"/>
	<polyline class="st8" points="50.7,38 161,33 1669,33 1778.6,38.6 	"/>
	<line class="st8" x1="1778.6" y1="49.5" x2="1772.3" y2="49.1"/>
	<polyline class="st8" points="125.2,45.4 161,43.8 1669,43.8 1704.7,45.6 	"/>
	<line class="st8" x1="57.6" y1="48.5" x2="50.7" y2="48.8"/>
	<line class="st8" x1="1778.6" y1="61.5" x2="1772.3" y2="61.2"/>
	<polyline class="st8" points="983.4,55.9 1669,55.9 1704.7,57.8 	"/>
	<polyline class="st8" points="125.2,57.5 161,55.9 915.8,55.9 	"/>
	<line class="st8" x1="57.6" y1="60.6" x2="50.7" y2="60.9"/>
	<line class="st8" x1="1668.8" y1="21.3" x2="1668.8" y2="72.2"/>
	<line class="st8" x1="1692.3" y1="82.2" x2="1773" y2="82.2"/>
	<line class="st8" x1="56.9" y1="82.2" x2="137.6" y2="82.2"/>
	<rect x="424.2" y="244" class="st7" width="189.3" height="29.2"/>
	<rect x="629.6" y="244" class="st7" width="111.2" height="29.2"/>
	<rect x="774.7" y="244" class="st7" width="89.2" height="29.2"/>
	<rect x="883.7" y="244" class="st7" width="66.7" height="29.2"/>
	<rect x="992.5" y="244" class="st7" width="99.8" height="29.2"/>
	<rect x="1101.1" y="244" class="st7" width="77.8" height="29.2"/>
	<rect x="1178.9" y="244" class="st7" width="221.3" height="29.2"/>
</g>
</svg>
