<?xml version="1.0" encoding="utf-8"?>
<!-- Generator: Adobe Illustrator 22.0.1, SVG Export Plug-In . SVG Version: 6.00 Build 0)  -->
<svg version="1.1" id="Type_7" xmlns="http://www.w3.org/2000/svg" xmlns:xlink="http://www.w3.org/1999/xlink" x="0px" y="0px"
	 viewBox="0 0 1904.8 300" style="enable-background:new 0 0 1904.8 300;" xml:space="preserve">
<style type="text/css">
	.st0{fill:#212322;}
	.st1{fill:#B1B3B3;}
	.st2{fill:#DA291C;}
	.st3{fill:#333F48;}
	.st4{fill:#878787;}
	.st5{fill:#FA4616;}
	.st6{fill:none;stroke:#000000;stroke-width:2;stroke-linecap:round;stroke-linejoin:round;}
	.st7{fill:none;stroke:#000000;stroke-width:2;stroke-miterlimit:10;}
</style>
<title>171122_NT_illustrasjoner</title>
<metadata><?xpacket begin="﻿" id="W5M0MpCehiHzreSzNTczkc9d"?>
<x:xmpmeta xmlns:x="adobe:ns:meta/" x:xmptk="Adobe XMP Core 5.6-c143 79.161210, 2017/08/11-10:28:36        ">
   <rdf:RDF xmlns:rdf="http://www.w3.org/1999/02/22-rdf-syntax-ns#">
      <rdf:Description rdf:about=""
            xmlns:dc="http://purl.org/dc/elements/1.1/">
         <dc:title>
            <rdf:Alt>
               <rdf:li xml:lang="x-default">171122_NT_illustrasjoner</rdf:li>
            </rdf:Alt>
         </dc:title>
      </rdf:Description>
   </rdf:RDF>
</x:xmpmeta>
                                                                                                    
                                                                                                    
                                                                                                    
                                                                                                    
                                                                                                    
                                                                                                    
                                                                                                    
                                                                                                    
                                                                                                    
                                                                                                    
                                                                                                    
                                                                                                    
                                                                                                    
                                                                                                    
                                                                                                    
                                                                                                    
                                                                                                    
                                                                                                    
                                                                                                    
                                                                                                    
                           
<?xpacket end="w"?></metadata>
<g id="Farger">
	<g id="Grunnfarge">
		<rect x="613" y="225.4" class="st0" width="61.8" height="27"/>
		<rect x="688.3" y="225.4" class="st0" width="141.6" height="27"/>
		<rect x="872.7" y="225.4" class="st0" width="69.2" height="27"/>
		<rect x="1015.4" y="225.4" class="st0" width="171.9" height="27"/>
		<rect x="1243.3" y="225.4" class="st0" width="56.6" height="27"/>
		<polygon class="st1" points="20.2,13.6 1885.3,13.6 1885.3,92 20.7,92 		"/>
		<rect x="67.7" y="225.5" class="st0" width="74.4" height="16.6"/>
		<path class="st0" d="M230.3,210.3v7.2h21.1c0,0,0.2,3.9,4.7,3.9h10.1v18.8h-39.9c0,0-4.2-7.1-15.3-11.5s-24-1.5-29.7,2.8
			s-8.8,6.7-9.6,8.7H162l-3.9,7.8v11.6h2.6l5-4.5c0,0-4.4,13.5,7.4,27.6s28.6,11.8,28.6,11.8s17.9-0.5,26.7-16.8
			c0,0,5.2-5.9,4.5-20.4l26,13.4h1.9v13.9h4.1l7.1-7.3v-2.3H308v2.3l7.1,7.3h4.1v-13.9h1.9l26-13c0,0-2.2,15.5,9.8,26.9
			s23.2,10.5,30.9,9.3s23.6-9,26.8-27.5c0.6-3.6,0.6-7.2,0.1-10.8l4.4,4h2.6V248l-3.9-7.8h-9.7c0,0-5.3-7.8-14.3-11.1
			c-5.4-2-11.2-2.7-17-2.3c0,0-14.7,1.1-22.6,13.4h-40.6v-18.8h11.8c1.8-0.4,3-2,3-3.9h21.1v-7.2H230.3z"/>
		<polygon class="st0" points="20.4,205.4 4.7,205.5 4.7,199 2.2,199 2.2,231.2 4.7,231.2 4.7,224.5 20.4,224.5 		"/>
		<path class="st0" d="M1555.8,210.3v7.2h21.1c0,0,0.2,3.9,4.7,3.9h10.1v18.8h-39.9c0,0-4.3-7.1-15.3-11.5s-24-1.5-29.7,2.8
			s-8.8,6.7-9.5,8.7h-9.8l-3.9,7.8v11.6h2.6l5-4.5c0,0-4.4,13.5,7.4,27.6s28.6,11.8,28.6,11.8s17.9-0.5,26.7-16.8
			c0,0,5.2-5.9,4.5-20.4l26,13.4h1.9v13.9h4.1l7.1-7.3v-2.3h35.9v2.3l7.1,7.3h4.1v-13.9h1.9l26-13c0,0-2.2,15.5,9.8,26.9
			s23.2,10.5,30.9,9.3s23.6-9,26.8-27.5c0.6-3.6,0.6-7.2,0.1-10.8l4.4,4h2.6V248l-3.9-7.8h-9.7c0,0-5.3-7.8-14.3-11.1
			c-5.4-2-11.2-2.7-17-2.3c0,0-14.7,1.1-22.6,13.4h-40.5v-18.8h11.8c1.8-0.4,3-2,3-3.9h21.1v-7.2H1555.8z"/>
		<rect x="1763.9" y="225.4" class="st0" width="74.4" height="16.6"/>
		<path class="st0" d="M1885.1,205.5h15.9V199h2.3c0,0,0.2,32,0,32h-2.3v-6.7h-15.9V205.5z"/>
	</g>
	<g id="Profilering">
		<polygon class="st2" points="20.5,146.6 1884.4,146.6 1884.4,224.4 1744.9,224.4 1733.6,210.3 1497.3,210.3 1484.8,225.5 
			419.9,225.5 407.9,210.3 171.7,210.3 159.3,225.5 20.5,225.5 		"/>
		<polygon class="st3" points="20.7,92 1885.1,92 1885.1,148.7 20.2,148.7 		"/>
		<polygon class="st2" points="1716.3,53.7 188.3,53.7 141.3,92 1763.2,92 		"/>
		<rect x="20.2" y="178.7" class="st1" width="1865.1" height="6.7"/>
		<polygon class="st1" points="1885.3,199.2 1645.1,199.2 1518.2,68.1 392.2,68.1 265.3,199.2 19.8,199.2 19.8,195.8 263.9,195.8 
			390.8,64.7 1519.6,64.7 1520.1,65.2 1646.5,195.8 1885.3,195.8 		"/>
	</g>
	<g id="Dører_og_vinduer">
		<path class="st4" d="M414.8,95.9h109.8c3.8,0,6.9,3.1,6.9,6.9v34.9c0,3.8-3.1,6.9-6.9,6.9H414.8c-3.8,0-6.9-3.1-6.9-6.9v-34.9
			C407.9,99,411,95.9,414.8,95.9z"/>
		<path class="st4" d="M563.4,95.9h109.8c3.8,0,6.9,3.1,6.9,6.9v34.9c0,3.8-3.1,6.9-6.9,6.9H563.4c-3.8,0-6.9-3.1-6.9-6.9v-34.9
			C556.5,99,559.6,95.9,563.4,95.9z"/>
		<path class="st4" d="M786.3,95.9h109.8c3.8,0,6.9,3.1,6.9,6.9v34.9c0,3.8-3.1,6.9-6.9,6.9H786.3c-3.8,0-6.9-3.1-6.9-6.9v-34.9
			C779.3,99,782.4,95.9,786.3,95.9z"/>
		<path class="st4" d="M934.8,95.9h109.8c3.8,0,6.9,3.1,6.9,6.9v34.9c0,3.8-3.1,6.9-6.9,6.9H934.8c-3.8,0-6.9-3.1-6.9-6.9v-34.9
			C927.9,99,931,95.9,934.8,95.9z"/>
		<path class="st4" d="M1083.4,95.9h109.8c3.8,0,6.9,3.1,6.9,6.9v34.9c0,3.8-3.1,6.9-6.9,6.9h-109.8c-3.8,0-6.9-3.1-6.9-6.9v-34.9
			C1076.5,99,1079.6,95.9,1083.4,95.9z"/>
		<path class="st4" d="M1232,95.9h109.8c3.8,0,6.9,3.1,6.9,6.9v34.9c0,3.8-3.1,6.9-6.9,6.9H1232c-3.8,0-6.9-3.1-6.9-6.9v-34.9
			C1225.1,99,1228.2,95.9,1232,95.9z"/>
		<path class="st4" d="M1380.6,95.9h109.8c3.8,0,6.9,3.1,6.9,6.9v34.9c0,3.8-3.1,6.9-6.9,6.9h-109.8c-3.8,0-6.9-3.1-6.9-6.9v-34.9
			C1373.7,99,1376.8,95.9,1380.6,95.9z"/>
		<rect x="67.9" y="13.6" class="st5" width="72.6" height="212.4"/>
		<path class="st4" d="M266.3,95.9H376c3.8,0,6.9,3.1,6.9,6.9v34.9c0,3.8-3.1,6.9-6.9,6.9H266.3c-3.8,0-6.9-3.1-6.9-6.9v-34.9
			C259.3,99,262.4,95.9,266.3,95.9z"/>
		<path class="st4" d="M33.8,93h23.2c2.4,0,4.4,2,4.4,4.4v46.2c0,2.4-2,4.4-4.4,4.4H33.8c-2.4,0-4.4-2-4.4-4.4V97.4
			C29.3,95,31.3,93,33.8,93z"/>
		<rect x="1764.7" y="13.6" class="st5" width="72.6" height="212.4"/>
		<path class="st4" d="M1872.1,148.1h-23.2c-2.4,0-4.4-2-4.4-4.4V97.4c0-2.4,2-4.4,4.4-4.4h23.2c2.4,0,4.4,2,4.4,4.4v46.2
			C1876.5,146.1,1874.6,148.1,1872.1,148.1z"/>
		<path class="st4" d="M87.7,96.9h34.4c2.4,0,4.4,2,4.4,4.4v39.4c0,2.4-2,4.4-4.4,4.4H87.7c-2.4,0-4.4-2-4.4-4.4v-39.4
			C83.2,98.9,85.2,96.9,87.7,96.9z"/>
		<path class="st4" d="M1818.2,145.1h-34.4c-2.4,0-4.4-2-4.4-4.4v-39.4c0-2.4,2-4.4,4.4-4.4h34.4c2.4,0,4.4,2,4.4,4.4v39.4
			C1822.6,143.2,1820.6,145.1,1818.2,145.1z"/>
		<path class="st4" d="M1529.3,95.9h109.8c3.8,0,6.9,3.1,6.9,6.9v34.9c0,3.8-3.1,6.9-6.9,6.9h-109.8c-3.8,0-6.9-3.1-6.9-6.9v-34.9
			C1522.3,99,1525.5,95.9,1529.3,95.9z"/>
	</g>
</g>
<g id="Omriss">
	<polygon class="st6" points="20.2,13.6 1885,13.6 1885,224.5 1745.4,224.5 1733.6,210.3 1497.3,210.3 1485.4,225.5 419.9,225.5 
		407.9,210.3 171.7,210.3 159.8,225.5 20.2,225.5 	"/>
	<line class="st6" x1="20.2" y1="26.1" x2="1885" y2="26.1"/>
	<line class="st6" x1="1885" y1="33.4" x2="20.4" y2="33.4"/>
	<line class="st6" x1="20.4" y1="53.7" x2="1885" y2="53.7"/>
	<path class="st6" d="M1558.4,257.3c0.1,1.1,0.2,2.1,0.2,3.2c0.3,18.8-14.7,34.3-33.5,34.6c-18.8,0.3-34.3-14.7-34.6-33.5
		c0-0.4,0-0.8,0-1.2c0-1.7,0.1-3.4,0.4-5.1"/>
	<path class="st6" d="M1497.2,240.2c11.3-15.1,32.6-18.1,47.7-6.8c2.6,1.9,4.9,4.2,6.8,6.8"/>
	<path class="st6" d="M1554.2,255.8c0.3,1.6,0.4,3.3,0.4,4.9c-0.3,16.6-14,29.9-30.7,29.6c-16.2-0.3-29.3-13.4-29.6-29.6
		c0-2,0.2-4,0.6-5.9"/>
	<path class="st6" d="M1502.5,240.2c11.4-12.2,30.4-12.8,42.6-1.4c0.5,0.5,1,0.9,1.4,1.4"/>
	<circle class="st6" cx="1524.5" cy="260.5" r="6.8"/>
	<path class="st6" d="M1740.3,255.6c2.7,18.6-10.2,35.9-28.8,38.6c-18.6,2.7-35.9-10.2-38.6-28.8c-0.2-1.6-0.3-3.2-0.3-4.8
		c0-1,0-1.9,0.1-2.8"/>
	<path class="st6" d="M1679.3,240.2c11.3-15.1,32.6-18.1,47.7-6.8c2.6,1.9,4.9,4.2,6.8,6.8"/>
	<path class="st6" d="M1736.1,254.8c0.4,1.9,0.6,3.9,0.6,5.9c0,16.6-13.5,30.1-30.1,30.1s-30.1-13.5-30.1-30.1
		c0-1.5,0.1-3.1,0.3-4.6"/>
	<path class="st6" d="M1684.6,240.2c11.4-12.2,30.4-12.8,42.6-1.4c0.5,0.5,1,0.9,1.4,1.4"/>
	<circle class="st6" cx="1706.6" cy="260.5" r="6.8"/>
	<path class="st6" d="M1486.2,259.6h-2.6V248l3.9-7.8h104.2v-18.8h47.7v18.8h104l3.9,7.8v11.6h-2.6l-5.2-4.8h-9.7v-1.7h-10.2l-9.9-6
		h-6.6l-9.9,6H1683v1.8c0,0-4.9-0.3-17,5.9l-19.4,10h-62.2l-21.7-11.1c0,0-7-4.7-14.9-4.7v-1.8h-10.2l-9.9-6h-6.6l-9.9,6h-10.2v1.7
		h-9.7L1486.2,259.6z"/>
	<polyline class="st6" points="1500.3,254.8 1497.9,260.6 1497.9,265.6 1514.8,274.1 1534.2,274.1 1551.1,265.6 1551.1,260.6 
		1548.6,254.9 	"/>
	<polyline class="st6" points="1682.2,254.8 1679.8,260.6 1679.8,265.6 1696.7,274.1 1716.1,274.1 1732.9,265.6 1732.9,260.6 
		1730.4,254.9 	"/>
	<path class="st6" d="M1654.2,210.3v7.5c0,2-1.6,3.6-3.6,3.6l0,0h-70c-2,0-3.6-1.6-3.6-3.6l0,0v-7.5"/>
	<polyline class="st6" points="1555.8,210.3 1555.8,217.5 1576.9,217.5 	"/>
	<polyline class="st6" points="1675.2,210.3 1675.2,217.5 1654.2,217.5 	"/>
	<polyline class="st6" points="1586.3,270.7 1586.3,284.6 1590.4,284.6 1597.6,277.4 1597.6,275 1633.5,275 1633.5,277.4 
		1640.6,284.6 1644.7,284.6 1644.7,270.7 	"/>
	<path class="st6" d="M232.9,257.3c0.1,1.1,0.1,2.1,0.1,3.2c0.3,18.8-14.7,34.3-33.5,34.6c-18.8,0.3-34.3-14.7-34.6-33.5
		c0-0.4,0-0.8,0-1.2c0-1.7,0.1-3.4,0.4-5.1"/>
	<path class="st6" d="M171.7,240.2c11.3-15.1,32.6-18.1,47.7-6.8c2.6,1.9,4.9,4.2,6.8,6.8"/>
	<path class="st6" d="M228.7,255.8c0.3,1.6,0.4,3.3,0.4,4.9c0,16.6-13.5,30.1-30.1,30.1c-16.6,0-30.1-13.5-30.1-30.1
		c0-2,0.2-4,0.6-5.9"/>
	<path class="st6" d="M177,240.2c11.4-12.1,30.4-12.8,42.6-1.4c0.5,0.4,0.9,0.9,1.4,1.4"/>
	<circle class="st6" cx="199" cy="260.5" r="6.8"/>
	<path class="st6" d="M414.8,255.6c2.8,18.6-10.1,35.9-28.7,38.7s-35.9-10.1-38.7-28.7c-0.3-1.7-0.4-3.4-0.4-5.1
		c0-1,0.1-1.9,0.1-2.8"/>
	<path class="st6" d="M353.8,240.2c11.3-15.1,32.6-18.1,47.7-6.8c2.6,1.9,4.9,4.2,6.8,6.8"/>
	<path class="st6" d="M410.6,254.8c3.3,16.3-7.3,32.2-23.6,35.5c-16.3,3.3-32.2-7.3-35.5-23.6c-0.4-2-0.6-3.9-0.6-5.9
		c0-1.5,0.1-3.1,0.3-4.6"/>
	<path class="st6" d="M359.1,240.2c11.4-12.1,30.4-12.8,42.6-1.4c0.5,0.4,0.9,0.9,1.4,1.4"/>
	<circle class="st6" cx="381" cy="260.5" r="6.8"/>
	<path class="st6" d="M160.7,259.6h-2.6V248l3.9-7.8h104.2v-18.8h47.7v18.8h104l3.9,7.8v11.6h-2.6l-5.2-4.8h-9.7v-1.7H394l-9.9-6
		h-6.6l-9.9,6h-10.2v1.8c0,0-4.9-0.3-17,5.9l-19.4,10h-62.2l-21.7-11.1c0,0-6.9-4.7-14.9-4.7v-1.8h-10.2l-9.9-6h-6.6l-9.9,6h-10.2
		v1.7H166L160.7,259.6z"/>
	<polyline class="st6" points="174.8,254.8 172.4,260.6 172.4,265.6 189.2,274.1 208.7,274.1 225.5,265.6 225.5,260.6 223,254.9 	
		"/>
	<polyline class="st6" points="356.6,254.8 354.3,260.6 354.3,265.6 371.1,274.1 390.6,274.1 407.4,265.6 407.4,260.6 404.9,254.9 	
		"/>
	<path class="st6" d="M328.6,210.3v7.5c0,2-1.6,3.6-3.6,3.6h-70c-2,0-3.6-1.6-3.6-3.6c0,0,0,0,0,0v-7.5"/>
	<polyline class="st6" points="230.3,210.3 230.3,217.5 251.4,217.5 	"/>
	<polyline class="st6" points="349.7,210.3 349.7,217.5 328.6,217.5 	"/>
	<polyline class="st6" points="260.8,270.7 260.8,284.6 264.9,284.6 272,277.4 272,275 308,275 308,277.4 315.1,284.6 319.2,284.6 
		319.2,270.7 	"/>
	<path class="st6" d="M33.8,93h23.2c2.4,0,4.4,2,4.4,4.4v46.2c0,2.4-2,4.4-4.4,4.4H33.8c-2.4,0-4.4-2-4.4-4.4V97.4
		C29.3,95,31.3,93,33.8,93z"/>
	<path class="st6" d="M87.7,96.9h34.4c2.4,0,4.4,2,4.4,4.4v39.4c0,2.4-2,4.4-4.4,4.4H87.7c-2.4,0-4.4-2-4.4-4.4v-39.4
		C83.2,98.9,85.2,96.9,87.7,96.9z"/>
	<path class="st6" d="M266.3,95.9H376c3.8,0,6.9,3.1,6.9,6.9v34.9c0,3.8-3.1,6.9-6.9,6.9H266.3c-3.8,0-6.9-3.1-6.9-6.9v-34.9
		C259.3,99,262.4,95.9,266.3,95.9z"/>
	<path class="st6" d="M155.8,92h1593.6c4,0,7.2,3.2,7.2,7.2v42.4c0,4-3.2,7.2-7.2,7.2H155.8c-4,0-7.2-3.2-7.2-7.2V99.2
		C148.6,95.2,151.8,92,155.8,92z"/>
	<path class="st6" d="M414.8,95.9h109.8c3.8,0,6.9,3.1,6.9,6.9v34.9c0,3.8-3.1,6.9-6.9,6.9H414.8c-3.8,0-6.9-3.1-6.9-6.9v-34.9
		C407.9,99,411,95.9,414.8,95.9z"/>
	<path class="st6" d="M563.4,95.9h109.8c3.8,0,6.9,3.1,6.9,6.9v34.9c0,3.8-3.1,6.9-6.9,6.9H563.4c-3.8,0-6.9-3.1-6.9-6.9v-34.9
		C556.5,99,559.6,95.9,563.4,95.9z"/>
	<path class="st6" d="M786.3,95.9h109.8c3.8,0,6.9,3.1,6.9,6.9v34.9c0,3.8-3.1,6.9-6.9,6.9H786.3c-3.8,0-6.9-3.1-6.9-6.9v-34.9
		C779.3,99,782.4,95.9,786.3,95.9z"/>
	<path class="st6" d="M934.8,95.9h109.8c3.8,0,6.9,3.1,6.9,6.9v34.9c0,3.8-3.1,6.9-6.9,6.9H934.8c-3.8,0-6.9-3.1-6.9-6.9v-34.9
		C927.9,99,931,95.9,934.8,95.9z"/>
	<path class="st6" d="M1083.4,95.9h109.8c3.8,0,6.9,3.1,6.9,6.9v34.9c0,3.8-3.1,6.9-6.9,6.9h-109.8c-3.8,0-6.9-3.1-6.9-6.9v-34.9
		C1076.5,99,1079.6,95.9,1083.4,95.9z"/>
	<path class="st6" d="M1232,95.9h109.8c3.8,0,6.9,3.1,6.9,6.9v34.9c0,3.8-3.1,6.9-6.9,6.9H1232c-3.8,0-6.9-3.1-6.9-6.9v-34.9
		C1225.1,99,1228.2,95.9,1232,95.9z"/>
	<path class="st6" d="M1380.6,95.9h109.8c3.8,0,6.9,3.1,6.9,6.9v34.9c0,3.8-3.1,6.9-6.9,6.9h-109.8c-3.8,0-6.9-3.1-6.9-6.9v-34.9
		C1373.7,99,1376.8,95.9,1380.6,95.9z"/>
	<path class="st6" d="M1529.2,95.9h109.8c3.8,0,6.9,3.1,6.9,6.9v34.9c0,3.8-3.1,6.9-6.9,6.9h-109.8c-3.8,0-6.9-3.1-6.9-6.9v-34.9
		C1522.2,99,1525.3,95.9,1529.2,95.9z"/>
	<path class="st6" d="M75,64.3h59.8c3.6,0,6.5,2.9,6.5,6.5v154.7l0,0H68.4l0,0V70.8C68.4,67.2,71.4,64.3,75,64.3
		C75,64.3,75,64.3,75,64.3z"/>
	<polyline class="st6" points="1838.2,225.5 1838.2,242.1 1763.8,242.1 1763.8,225.5 	"/>
	<path class="st6" d="M1872.1,148.1h-23.2c-2.4,0-4.4-2-4.4-4.4V97.4c0-2.4,2-4.4,4.4-4.4h23.2c2.4,0,4.4,2,4.4,4.4v46.2
		C1876.5,146.1,1874.6,148.1,1872.1,148.1z"/>
	<path class="st6" d="M1818.2,145.1h-34.4c-2.4,0-4.4-2-4.4-4.4v-39.4c0-2.4,2-4.4,4.4-4.4h34.4c2.4,0,4.4,2,4.4,4.4v39.4
		C1822.6,143.2,1820.6,145.1,1818.2,145.1z"/>
	<path class="st6" d="M1837.4,225.5h-72.9l0,0V70.8c0-3.6,2.9-6.5,6.5-6.5l0,0h59.8c3.6,0,6.5,2.9,6.5,6.5v0L1837.4,225.5
		L1837.4,225.5L1837.4,225.5z"/>
	<rect x="2.2" y="199" class="st7" width="2.2" height="32"/>
	<rect x="1885" y="205.5" class="st7" width="15.9" height="18.9"/>
	<rect x="1900.9" y="199" class="st7" width="2.2" height="32"/>
	<polyline class="st6" points="67.7,225.5 67.7,242.1 142.1,242.1 142.1,225.5 	"/>
	<rect x="613" y="225.4" class="st6" width="61.8" height="27"/>
	<rect x="688.3" y="225.4" class="st6" width="141.6" height="27"/>
	<rect x="872.7" y="225.4" class="st6" width="69.2" height="27"/>
	<rect x="1015.4" y="225.4" class="st6" width="171.9" height="27"/>
	<rect x="1243.3" y="225.4" class="st6" width="56.6" height="27"/>
	<rect x="4.3" y="205.5" class="st7" width="15.9" height="18.9"/>
</g>
</svg>
