<?xml version="1.0" encoding="utf-8"?>
<!-- Generator: Adobe Illustrator 22.0.1, SVG Export Plug-In . SVG Version: 6.00 Build 0)  -->
<svg version="1.1" id="Type_5" xmlns="http://www.w3.org/2000/svg" xmlns:xlink="http://www.w3.org/1999/xlink" x="0px" y="0px"
	 viewBox="0 0 1829.7 340" style="enable-background:new 0 0 1829.7 340;" xml:space="preserve">
<metadata><?xpacket begin="﻿" id="W5M0MpCehiHzreSzNTczkc9d"?>
<x:xmpmeta xmlns:x="adobe:ns:meta/" x:xmptk="Adobe XMP Core 5.6-c143 79.161210, 2017/08/11-10:28:36        ">
   <rdf:RDF xmlns:rdf="http://www.w3.org/1999/02/22-rdf-syntax-ns#">
      <rdf:Description rdf:about=""/>
   </rdf:RDF>
</x:xmpmeta>
                                                                                                    
                                                                                                    
                                                                                                    
                                                                                                    
                                                                                                    
                                                                                                    
                                                                                                    
                                                                                                    
                                                                                                    
                                                                                                    
                                                                                                    
                                                                                                    
                                                                                                    
                                                                                                    
                                                                                                    
                                                                                                    
                                                                                                    
                                                                                                    
                                                                                                    
                                                                                                    
                           
<?xpacket end="w"?></metadata>
<style type="text/css">
	.st0{fill:#B1B3B3;}
	.st1{fill:#212322;}
	.st2{fill:#444445;}
	.st3{fill:#DA291C;}
	.st4{fill:#FA4616;}
	.st5{fill:#878787;}
	.st6{fill:none;stroke:#000000;stroke-width:2;stroke-linecap:round;stroke-linejoin:round;stroke-miterlimit:10;}
	.st7{fill:none;stroke:#000000;stroke-width:2;stroke-linejoin:round;stroke-miterlimit:10;}
	.st8{fill:none;stroke:#000000;stroke-width:2;stroke-miterlimit:10;}
</style>
<g id="Mål_16_">
</g>
<g id="Farger_16_">
	<g id="Grunnfarge_12_">
		<path class="st0" d="M23.1,90.1h125.3l34.8-34.7h1460.6l34.8,34.7h130.7v-45c0,0,1.5-17.7-24.6-21.9s-1.1,0-1.1,0L1671.5,18
			l-0.3,3h-68.8v-2.6H229.2l-0.1,3.2l-68-0.6v-2.6c0,0-59.3,2-64.4,2.2s-46.6,1.5-52.9,3.5c-6.3,2.1-20.7,7.1-20.7,22
			C23.1,61,23.1,90.1,23.1,90.1z"/>
		<path class="st1" d="M1485.1,264.8c0,0-7.9-11.4-24.7-11.4c-16.8,0-32.2,16.3-29.6,35.9c2.6,19.7,23.5,24.6,30.6,25.4
			c7.2,0.7,18.4-3.9,26.3-14.9h5.9V297h18.5v-4.1h60.4v4.1h18.5v2.8h6.3c0,0,7.4,12.9,22.2,14.6c14.8,1.7,26.5-7.3,31.4-16.5
			s4.6-21-1.6-30.1l-16.7-0.1l-13.4-14.3l-5.8-6.2l-29.4-0.1h-70.5c0,0-1.9,2-2.1,6.3c-0.2,4.4,1.5,13.9,2.9,15.9c0,0,0-2.7-6-3.7
			s-7.6-0.9-7.6-0.9s2.8-4.3-0.9-5.6c0,0-2.7,0.6-3.4,1.8c-0.7,1.2-4.8-0.1-4.8-0.1L1485.1,264.8z"/>
		<path class="st1" d="M346.1,264.8c0,0,7.9-11.4,24.7-11.4s32.2,16.3,29.6,35.9s-23.5,24.6-30.6,25.4c-7.2,0.7-18.4-3.9-26.3-14.9
			h-5.9V297h-18.5v-4.1h-60.4v4.1h-18.5v2.8H234c0,0-7.4,12.9-22.2,14.6c-14.8,1.7-26.5-7.3-31.4-16.5s-4.6-21,1.6-30.1l16.7-0.1
			l13.4-14.3l5.8-6.2l29.4-0.1h70.5c0,0,1.9,2,2.1,6.3c0.2,4.4-1.5,13.9-2.9,15.9c0,0,0-2.7,6-3.7s7.6-0.9,7.6-0.9s-2.8-4.3,0.9-5.6
			c0,0,2.7,0.6,3.4,1.8c0.7,1.2,4.8-0.1,4.8-0.1L346.1,264.8z"/>
		<path class="st1" d="M22.3,227.8H12c0,0-1.7,0.2-1.7-3.4H7.8v-1.1H4.5c0,0-0.6,11.3,0,25.9h3.7v-0.9h2c0,0-0.4-3.2,0.6-3.2
			s16.2,0,16.2,0l-4.7-4.6V227.8z"/>
		<path class="st1" d="M1808.7,227.8h10.4c0,0,1.7,0.2,1.7-3.4h2.5v-1.1h3.3c0,0,0.6,11.3,0,25.9h-3.7v-0.9h-2c0,0,0.4-3.2-0.6-3.2
			s-16.2,0-16.2,0l4.7-4.6v-12.7H1808.7z"/>
		<rect x="427.5" y="244.1" class="st1" width="189.1" height="29.2"/>
		<rect x="632.6" y="244.1" class="st1" width="111.2" height="29.2"/>
		<rect x="777.8" y="244.1" class="st1" width="89.9" height="29.2"/>
		<rect x="886.6" y="244.1" class="st1" width="66.5" height="29.2"/>
		<rect x="995.5" y="244.1" class="st1" width="99.8" height="29.2"/>
		<rect x="1104.4" y="244.1" class="st1" width="298.7" height="29.2"/>
	</g>
	<g id="Profilering_16_">
		<rect x="22.4" y="90.1" class="st2" width="1786.3" height="75.6"/>
		<polygon class="st3" points="22.3,240.6 51.3,268 198.5,268 218.5,247.9 360.8,247.9 389.6,242.4 1441.5,242.4 1470.9,247.1 
			1613.3,247.1 1632.5,267.6 1780.5,267.6 1808.6,241 1808.6,165.8 22.4,165.8 		"/>
		<polygon class="st3" points="1643.1,55.4 182.5,55.4 147.6,90.1 1677.9,90.1 		"/>
		<g>
			<polygon class="st0" points="1809.8,213.5 1619.6,213.5 1492.7,82.4 366.7,82.4 239.9,213.5 23.1,213.5 23.1,210.1 238.4,210.1 
				365.3,79 1494.2,79 1621,210.1 1809.8,210.1 			"/>
		</g>
		<g>
			<rect x="23.5" y="192.9" class="st0" width="1785.8" height="6.7"/>
		</g>
	</g>
	<g id="Dører_og_vinduer_14_">
		<path class="st4" d="M62.5,267.8h70.4c0,0,5.4-0.3,5.4-7c0-6.1,0-155.4,0-182.3c0-2.7-3.4-4.1-3.4-4.1H60.5c0,0-3.1,1.1-3.1,4.9
			s0,183.4,0,183.4S57.6,267.8,62.5,267.8z"/>
		<path class="st4" d="M1697.8,267.8h70.4c0,0,5.4-0.3,5.4-7c0-6.1,0-155.7,0-182.4c0-2.6-3.4-4-3.4-4h-73.8c0,0-3.7,0.9-3.7,5.9
			s0,182.3,0,182.3S1693,267.8,1697.8,267.8z"/>
		<path class="st5" d="M451.9,161.8h-42.3c-5.1,0-9.3-4.2-9.3-9.3v-50.4c0-5.1,4.2-9.3,9.3-9.3h42.3c5.1,0,9.3,4.2,9.3,9.3v50.4
			C461.3,157.5,457.1,161.8,451.9,161.8z"/>
		<path class="st5" d="M576.5,161.8h-71.1c-5.1,0-9.3-4.2-9.3-9.3v-50.4c0-5.1,4.2-9.3,9.3-9.3h71.1c5.1,0,9.3,4.2,9.3,9.3v50.4
			C585.8,157.5,581.6,161.8,576.5,161.8z"/>
		<path class="st5" d="M701.5,161.8h-71.1c-5.1,0-9.3-4.2-9.3-9.3v-50.4c0-5.1,4.2-9.3,9.3-9.3h71.1c5.1,0,9.3,4.2,9.3,9.3v50.4
			C710.8,157.5,706.6,161.8,701.5,161.8z"/>
		<path class="st5" d="M826.6,161.8h-71.1c-5.1,0-9.3-4.2-9.3-9.3v-50.4c0-5.1,4.2-9.3,9.3-9.3h71.1c5.1,0,9.3,4.2,9.3,9.3v50.4
			C835.9,157.5,831.7,161.8,826.6,161.8z"/>
		<path class="st5" d="M1076,161.8h-71.1c-5.1,0-9.3-4.2-9.3-9.3v-50.4c0-5.1,4.2-9.3,9.3-9.3h71.1c5.1,0,9.3,4.2,9.3,9.3v50.4
			C1085.3,157.5,1081.1,161.8,1076,161.8z"/>
		<path class="st5" d="M1201,161.8h-71.1c-5.1,0-9.3-4.2-9.3-9.3v-50.4c0-5.1,4.2-9.3,9.3-9.3h71.1c5.1,0,9.3,4.2,9.3,9.3v50.4
			C1210.4,157.5,1206.1,161.8,1201,161.8z"/>
		<path class="st5" d="M1326.1,161.8H1255c-5.1,0-9.3-4.2-9.3-9.3v-50.4c0-5.1,4.2-9.3,9.3-9.3h71.1c5.1,0,9.3,4.2,9.3,9.3v50.4
			C1335.4,157.5,1331.2,161.8,1326.1,161.8z"/>
		<path class="st5" d="M1451.1,161.8H1380c-5.1,0-9.3-4.2-9.3-9.3v-50.4c0-5.1,4.2-9.3,9.3-9.3h71.1c5.1,0,9.3,4.2,9.3,9.3v50.4
			C1460.4,157.5,1456.2,161.8,1451.1,161.8z"/>
		<path class="st5" d="M1574.9,161.8h-71.1c-5.1,0-9.3-4.2-9.3-9.3v-50.4c0-5.1,4.2-9.3,9.3-9.3h71.1c5.1,0,9.3,4.2,9.3,9.3v50.4
			C1584.3,157.5,1580,161.8,1574.9,161.8z"/>
		<path class="st5" d="M112.9,162.8H79.1c-4.1,0-7.5-3.4-7.5-7.5v-35c0-4.1,3.4-7.5,7.5-7.5h33.8c4.1,0,7.5,3.4,7.5,7.5v35
			C120.4,159.3,117,162.8,112.9,162.8z"/>
		<path class="st5" d="M1718.2,162.8h33.8c4.1,0,7.5-3.4,7.5-7.5v-35c0-4.1-3.4-7.5-7.5-7.5h-33.8c-4.1,0-7.5,3.4-7.5,7.5v35
			C1710.7,159.3,1714,162.8,1718.2,162.8z"/>
	</g>
</g>
<g id="Omriss_16_">
	<path class="st6" d="M1808.8,44.9c0,4.6,0,45,0,45v150.9l-28.1,26.6h-148l-9.9-10.6l-3.2-3.4l-6.1-6.5h-142.4l-29.5-4.7H389.7
		l-28.8,4.8l-143.1-0.1l-19.2,20.7l-93.5,0.1H51.4l-28.9-27.3l0.1-168.9V44.2c0,0,0.8-19.1,28.1-21.4c27.3-2.2,109.9-4.6,109.9-4.6
		v2.6h68.1v-2.6H1602v2.5h69.1v-2.9l108.5,5c0,0,18.9-0.7,27.2,14.6C1806.8,37.3,1808.8,40.3,1808.8,44.9z"/>
	<circle class="st6" cx="1461.6" cy="283.8" r="12.3"/>
	<path class="st6" d="M1485.4,264.5c-5.6-6.9-14.2-11.3-23.8-11.3c-16.9,0-30.6,13.7-30.6,30.6c0,16.9,13.7,30.6,30.6,30.6
		c11.2,0,20.9-6,26.3-14.9"/>
	<circle class="st6" cx="1623.6" cy="283.8" r="12.3"/>
	<path class="st6" d="M1599.8,264.5c4.8-5.9,11.8-10,19.7-11"/>
	<path class="st6" d="M1649.5,267.5c3,4.7,4.8,10.4,4.8,16.4c0,16.9-13.7,30.6-30.6,30.6c-11.2,0-20.9-6-26.3-14.9"/>
	<path class="st6" d="M1477,269.6l-1.9-0.6v9.9c0,0,1,1.8,1,5s-1,4.5-1,4.5v11.1h8.4h4.4h5.9v-2.8h18.5v-4.1V283l-0.7-6.5l-7.5-7.3
		l-0.1-0.1h-8.9h-6.1v0.6v3.6l-2.8-0.9l0,0l-5.2-1.7"/>
	<path class="st6" d="M1608.1,269.5l1.6-0.5v9.9c0,0-1,1.8-1,5s1,4.5,1,4.5v11.1h-7.5h-4.8h-6.3v-2.8h-18.5v-4.1V283l0.7-6.5
		l7.6-7.3h15v4.2l3.8-1.2l4.6-1.5"/>
	<polyline class="st6" points="1572.5,292.5 1512.2,292.5 1512.1,292.5 	"/>
	<path class="st6" d="M1573.6,256.4c0,6-2.2,11.1-2.2,11.1s-0.8,1.1-1.8,1.1c-1.1,0-30.7,0.1-30.7,0.1h-23.4c0,0-1.4-0.1-1.8-1.1
		c-0.1-0.3-0.3-0.7-0.6-1.5c-0.7-1.8-1.6-5.1-1.6-10c0-6.8,1.6-9.2,1.6-9.2h58.8C1571.8,246.9,1573.6,250.3,1573.6,256.4z"/>
	<path class="st6" d="M1570.8,268.2l9.5-1.5l0.6,2.4l12.3-0.1l0.9-1.3c0,0,1.3,0.3,3,0.7c1.3,0.3,2.8,0.7,4.1,1
		c1.5,0.4,2.6,0.8,2.8,1c0.1,0.1,0.2,0.2,0.2,0.3c0.4,0.4,0.9,0.6,0.9,2c0,1.6,0.1,3.5,0.1,3.5h2.9v-6.7v-0.3c0,0-1.3-1.8-2.9-2.5
		c-0.3-0.1-0.8-0.3-1.5-0.7c-1-0.4-2.4-1-3.8-1.7c-3.1-1.4-6.3-3.2-6.3-4h-9.4V247h-10v13.3l10,0.2"/>
	<path class="st6" d="M1514.3,268.3l-9.5-1.5l-0.6,2.4h-0.3l-9-0.1h-3.1l-0.9-1.3c0,0-1.3,0.3-3,0.7c-2.8,0.7-6.6,1.6-6.9,2
		c-0.1,0.1-0.2,0.2-0.2,0.3l0,0c-0.4,0.4-0.9,0.6-0.9,1.9c0,1.6-0.1,3.5-0.1,3.5h-2.9v-6.7l0,0v-0.3c0,0,1.3-1.8,2.9-2.5
		c0.3-0.1,1-0.4,2-0.8c1-0.4,2.2-1,3.4-1.5c0.1,0,0.1-0.1,0.1-0.1c3-1.4,6.2-3.1,6.2-3.9h5.6c0,0,0.7-2.1,2.7-1.7
		c2,0.5,1.6,2.1,1.6,2.5c0,0.3-0.9,3.8-0.9,3.8l1.1,0.3l0.7-1l10.7,1.7"/>
	<line class="st6" x1="1486.1" y1="272.5" x2="1486.1" y2="272.5"/>
	<path class="st6" d="M1481.8,266c-4.9-5.7-12.2-9.2-20.3-9.2c-14.9,0-26.9,12.1-26.9,27s12.1,26.9,26.9,26.9c9,0,17-4.4,21.8-11.2"
		/>
	<path class="st6" d="M1645.4,267.5c3.5,4.6,5.5,10.2,5.5,16.4c0,14.9-12.1,26.9-26.9,26.9c-9,0-17-4.4-21.8-11.2"/>
	<path class="st6" d="M1622.8,256.8c-7.7,0.4-14.5,3.9-19.1,9.3c0.7,0.3,1.2,0.6,1.5,0.7c1.6,0.7,2.9,2.5,2.9,2.5v0.3v6.7h-2.9
		c0,0-0.1-1.9-0.1-3.5c0-1.4-0.5-1.5-0.9-2c-0.1-0.1-0.2-0.2-0.2-0.3c-0.2-0.2-1.3-0.6-2.8-1"/>
	<circle class="st7" cx="369.7" cy="283.8" r="12.3"/>
	<path class="st7" d="M343.5,299.5c5.3,8.9,15.1,14.9,26.3,14.9c16.9,0,30.6-13.7,30.6-30.6c0-16.9-13.7-30.6-30.6-30.6
		c-9.6,0-18.2,4.4-23.8,11.3"/>
	<circle class="st7" cx="207.7" cy="283.8" r="12.3"/>
	<path class="st7" d="M211.8,253.4c7.9,1,14.9,5.1,19.7,11"/>
	<path class="st7" d="M234,299.5c-5.3,8.9-15.1,14.9-26.3,14.9c-16.9,0-30.6-13.7-30.6-30.6c0-6,1.7-11.6,4.8-16.4"/>
	<path class="st7" d="M350.5,271l-5.2,1.7l0,0l-2.8,0.9V270v-0.6h-6.1h-8.9l-0.1,0.1l-7.5,7.3l-0.7,6.5v9.5v4.1h18.5v2.8h5.9h4.4
		h8.4v-11.1c0,0-1-1.2-1-4.5c0-3.2,1-5,1-5v-10l-1.9,0.6"/>
	<path class="st7" d="M227.1,270.8l4.6,1.5l3.8,1.2v-4.2h15l7.6,7.3l0.7,6.5v9.5v4.1h-18.5v2.8H234h-4.8h-7.5v-11.1c0,0,1-1.2,1-4.5
		c0-3.2-1-5-1-5V269l1.6,0.5"/>
	<polyline class="st7" points="319.2,292.5 319.2,292.5 258.8,292.5 	"/>
	<path class="st7" d="M257.7,256.4c0,6,2.2,11.1,2.2,11.1s0.8,1.1,1.8,1.1c1.1,0,30.7,0.1,30.7,0.1h23.4c0,0,1.4-0.1,1.8-1.1
		c0.1-0.3,0.3-0.7,0.6-1.5c0.7-1.8,1.6-5.1,1.6-10c0-6.8-1.6-9.2-1.6-9.2h-58.8C259.5,246.9,257.7,250.3,257.7,256.4z"/>
	<path class="st7" d="M247.2,260.4l10-0.2V247h-10L247.2,260.4h-9.4c0,0.8-3.3,2.6-6.3,4c-1.4,0.7-2.8,1.3-3.8,1.7
		c-0.7,0.3-1.2,0.6-1.5,0.7c-1.6,0.7-2.9,2.5-2.9,2.5v0.3v6.7h2.9c0,0,0.1-1.9,0.1-3.5c0-1.4,0.5-1.5,0.9-2c0.1-0.1,0.2-0.2,0.2-0.3
		c0.2-0.2,1.3-0.6,2.8-1c1.2-0.3,2.8-0.7,4.1-1c1.7-0.4,3-0.7,3-0.7l0.9,1.3l12.3,0.1l0.6-2.4l9.5,1.5"/>
	<path class="st7" d="M318.3,266.1l10.7-1.7l0.7,1l1.1-0.3c0,0-0.8-3.5-0.9-3.8c0-0.4-0.5-2,1.6-2.5c2-0.4,2.7,1.7,2.7,1.7h5.6
		c0,0.8,3.2,2.5,6.2,3.9c0.1,0,0.1,0,0.1,0.1c1.2,0.6,2.4,1.1,3.4,1.5c0.9,0.4,1.6,0.7,2,0.8c1.6,0.7,2.9,2.5,2.9,2.5v0.3l0,0v6.7
		h-2.9c0,0-0.1-1.9-0.1-3.5c0-1.3-0.4-1.5-0.9-1.9l0,0c-0.1-0.1-0.2-0.2-0.2-0.3c-0.3-0.4-4.1-1.3-6.9-2c-1.7-0.4-3-0.7-3-0.7
		l-0.9,1.3h-3.1l-9,0.1h-0.3l-0.6-2.4l-9.5,1.5"/>
	<line class="st7" x1="345.3" y1="272.5" x2="345.3" y2="272.5"/>
	<path class="st7" d="M347.9,299.5c4.9,6.8,12.8,11.2,21.8,11.2c14.9,0,26.9-12.1,26.9-26.9c0-14.9-12.1-27-26.9-27
		c-8.1,0-15.3,3.6-20.3,9.2"/>
	<path class="st7" d="M229.2,299.5c-4.9,6.8-12.8,11.2-21.8,11.2c-14.9,0-26.9-12.1-26.9-26.9c0-6.1,2.1-11.8,5.5-16.4"/>
	<path class="st7" d="M230.2,269.5c-1.5,0.4-2.6,0.8-2.8,1c-0.1,0.1-0.2,0.2-0.2,0.3c-0.4,0.4-0.9,0.6-0.9,2c0,1.6-0.1,3.5-0.1,3.5
		h-2.9v-6.7v-0.3c0,0,1.3-1.8,2.9-2.5c0.3-0.1,0.8-0.3,1.5-0.7c-4.7-5.4-11.5-8.9-19.1-9.3"/>
	<path class="st7" d="M1642.8,181.4H190c-1,0-1.8-0.8-1.8-1.8l0,0c0-1,0.8-1.8,1.8-1.8h1452.8c1,0,1.8,0.8,1.8,1.8l0,0
		C1644.7,180.6,1643.8,181.4,1642.8,181.4z"/>
	<path class="st7" d="M1642.8,199H190c-1,0-1.8-0.8-1.8-1.8l0,0c0-1,0.8-1.8,1.8-1.8h1452.8c1,0,1.8,0.8,1.8,1.8l0,0
		C1644.7,198.1,1643.8,199,1642.8,199z"/>
	<path class="st7" d="M1642.8,216.1H190c-1,0-1.8-0.8-1.8-1.8l0,0c0-1,0.8-1.8,1.8-1.8h1452.8c1,0,1.8,0.8,1.8,1.8l0,0
		C1644.7,215.3,1643.8,216.1,1642.8,216.1z"/>
	<path class="st7" d="M452.1,161.4h-42.3c-5.1,0-9.3-4.2-9.3-9.3v-50.4c0-5.1,4.2-9.3,9.3-9.3h42.3c5.1,0,9.3,4.2,9.3,9.3v50.4
		C461.4,157.2,457.2,161.4,452.1,161.4z"/>
	<path class="st7" d="M576.6,161.4h-71.1c-5.1,0-9.3-4.2-9.3-9.3v-50.4c0-5.1,4.2-9.3,9.3-9.3h71.1c5.1,0,9.3,4.2,9.3,9.3v50.4
		C585.9,157.2,581.7,161.4,576.6,161.4z"/>
	<path class="st7" d="M701.6,161.4h-71.1c-5.1,0-9.3-4.2-9.3-9.3v-50.4c0-5.1,4.2-9.3,9.3-9.3h71.1c5.1,0,9.3,4.2,9.3,9.3v50.4
		C710.9,157.2,706.7,161.4,701.6,161.4z"/>
	<path class="st7" d="M826.7,161.4h-71.1c-5.1,0-9.3-4.2-9.3-9.3v-50.4c0-5.1,4.2-9.3,9.3-9.3h71.1c5.1,0,9.3,4.2,9.3,9.3v50.4
		C836,157.2,831.8,161.4,826.7,161.4z"/>
	<path class="st7" d="M1076.1,161.4H1005c-5.1,0-9.3-4.2-9.3-9.3v-50.4c0-5.1,4.2-9.3,9.3-9.3h71.1c5.1,0,9.3,4.2,9.3,9.3v50.4
		C1085.5,157.2,1081.3,161.4,1076.1,161.4z"/>
	<path class="st7" d="M1201.1,161.4H1130c-5.1,0-9.3-4.2-9.3-9.3v-50.4c0-5.1,4.2-9.3,9.3-9.3h71.1c5.1,0,9.3,4.2,9.3,9.3v50.4
		C1210.5,157.2,1206.3,161.4,1201.1,161.4z"/>
	<path class="st7" d="M1326.2,161.4h-71.1c-5.1,0-9.3-4.2-9.3-9.3v-50.4c0-5.1,4.2-9.3,9.3-9.3h71.1c5.1,0,9.3,4.2,9.3,9.3v50.4
		C1335.5,157.2,1331.3,161.4,1326.2,161.4z"/>
	<path class="st7" d="M1451.2,161.4h-71.1c-5.1,0-9.3-4.2-9.3-9.3v-50.4c0-5.1,4.2-9.3,9.3-9.3h71.1c5.1,0,9.3,4.2,9.3,9.3v50.4
		C1460.6,157.2,1456.3,161.4,1451.2,161.4z"/>
	<path class="st7" d="M1575,161.4h-71c-5.1,0-9.3-4.2-9.3-9.3v-50.4c0-5.1,4.2-9.3,9.3-9.3h71.1c5.1,0,9.3,4.2,9.3,9.3v50.4
		C1584.4,157.2,1580.2,161.4,1575,161.4z"/>
	<line class="st7" x1="22.5" y1="71.4" x2="1808.7" y2="71.4"/>
	<line class="st7" x1="1613.4" y1="246.9" x2="1643.1" y2="242.1"/>
	<line class="st7" x1="1780.4" y1="22.8" x2="1780.4" y2="267.5"/>
	<line class="st7" x1="1773.8" y1="219.5" x2="1808.8" y2="219.5"/>
	<line class="st7" x1="57.5" y1="219.5" x2="22.4" y2="219.5"/>
	<line class="st7" x1="186.3" y1="241.8" x2="217.8" y2="246.9"/>
	<line class="st7" x1="389.7" y1="242.2" x2="137.8" y2="242.2"/>
	<line class="st7" x1="1441.6" y1="242.2" x2="1693.1" y2="242.2"/>
	<path class="st7" d="M113,162.5H79.2c-4.1,0-7.5-3.4-7.5-7.5v-35c0-4.1,3.4-7.5,7.5-7.5H113c4.1,0,7.5,3.4,7.5,7.5v35
		C120.5,159.1,117.2,162.5,113,162.5z"/>
	<path class="st7" d="M133.5,267H62.4c-2.7,0-4.9-2.2-4.9-4.9V79c0-2.7,2.2-4.9,4.9-4.9h71.1c2.7,0,4.9,2.2,4.9,4.9v183.2
		C138.4,264.8,136.2,267,133.5,267z"/>
	<path class="st7" d="M1718.3,162.5h33.8c4.1,0,7.5-3.4,7.5-7.5v-35c0-4.1-3.4-7.5-7.5-7.5h-33.8c-4.1,0-7.5,3.4-7.5,7.5v35
		C1710.8,159.1,1714.2,162.5,1718.3,162.5z"/>
	<path class="st7" d="M1697.8,267h71.1c2.7,0,4.9-2.2,4.9-4.9V79c0-2.7-2.2-4.9-4.9-4.9h-71.1c-2.7,0-4.9,2.2-4.9,4.9v183.2
		C1692.9,264.8,1695.1,267,1697.8,267z"/>
	<path class="st7" d="M125.3,62.8H58.8c-0.3,0-0.5-0.2-0.5-0.5V43.8c0-0.3,0.2-0.5,0.5-0.5h66.6c0.3,0,0.5,0.2,0.5,0.5v18.5
		C125.9,62.5,125.6,62.8,125.3,62.8z"/>
	<rect x="61.6" y="45.9" class="st7" width="60.7" height="14.3"/>
	<polygon class="st8" points="65.1,56.6 65.6,49.1 118.5,49.1 118.1,56.6 	"/>
	<line class="st7" x1="69.4" y1="49.1" x2="68.9" y2="56.6"/>
	<line class="st7" x1="73.2" y1="49.1" x2="72.7" y2="56.6"/>
	<line class="st7" x1="76.9" y1="49.1" x2="76.5" y2="56.6"/>
	<line class="st7" x1="80.7" y1="49.1" x2="80.3" y2="56.6"/>
	<line class="st7" x1="84.5" y1="49.1" x2="84" y2="56.6"/>
	<line class="st7" x1="88.3" y1="49.1" x2="87.8" y2="56.6"/>
	<line class="st7" x1="92.1" y1="49.1" x2="91.6" y2="56.6"/>
	<line class="st7" x1="95.8" y1="49.1" x2="95.4" y2="56.6"/>
	<line class="st7" x1="99.6" y1="49.1" x2="99.2" y2="56.6"/>
	<line class="st7" x1="103.4" y1="49.1" x2="102.9" y2="56.6"/>
	<line class="st7" x1="107.2" y1="49.1" x2="106.7" y2="56.6"/>
	<line class="st7" x1="111" y1="49.1" x2="110.5" y2="56.6"/>
	<line class="st7" x1="114.7" y1="49.1" x2="114.3" y2="56.6"/>
	<path class="st7" d="M1772.5,62.8h-66.6c-0.3,0-0.5-0.2-0.5-0.5V43.8c0-0.3,0.2-0.5,0.5-0.5h66.6c0.3,0,0.5,0.2,0.5,0.5v18.5
		C1773,62.5,1772.8,62.8,1772.5,62.8z"/>
	<rect x="1708.7" y="45.9" class="st7" width="60.7" height="14.3"/>
	<polygon class="st8" points="1712.3,56.6 1712.7,49.1 1765.7,49.1 1765.2,56.6 	"/>
	<line class="st7" x1="1716.5" y1="49.1" x2="1716.1" y2="56.6"/>
	<line class="st7" x1="1720.3" y1="49.1" x2="1719.8" y2="56.6"/>
	<line class="st7" x1="1724.1" y1="49.1" x2="1723.6" y2="56.6"/>
	<line class="st7" x1="1727.9" y1="49.1" x2="1727.4" y2="56.6"/>
	<line class="st7" x1="1731.6" y1="49.1" x2="1731.2" y2="56.6"/>
	<line class="st7" x1="1735.4" y1="49.1" x2="1735" y2="56.6"/>
	<line class="st7" x1="1739.2" y1="49.1" x2="1738.7" y2="56.6"/>
	<line class="st7" x1="1743" y1="49.1" x2="1742.5" y2="56.6"/>
	<line class="st7" x1="1746.8" y1="49.1" x2="1746.3" y2="56.6"/>
	<line class="st7" x1="1750.5" y1="49.1" x2="1750.1" y2="56.6"/>
	<line class="st7" x1="1754.3" y1="49.1" x2="1753.9" y2="56.6"/>
	<line class="st7" x1="1758.1" y1="49.1" x2="1757.6" y2="56.6"/>
	<line class="st7" x1="1761.9" y1="49.1" x2="1761.4" y2="56.6"/>
	<path class="st7" d="M947.9,62.8h-66.6c-0.3,0-0.5-0.2-0.5-0.5V43.8c0-0.3,0.2-0.5,0.5-0.5h66.6c0.3,0,0.5,0.2,0.5,0.5v18.5
		C948.5,62.5,948.2,62.8,947.9,62.8z"/>
	<polygon class="st8" points="896,60 896.5,46.3 934.4,46.3 933.9,60 	"/>
	<path class="st8" d="M22.4,227.4H12.1c0,0-1.7,0.5-1.7-1.8v-1.4H7.9v-1.1H4.6c0,0-0.4,7.8-0.4,12.2S4.6,249,4.6,249h3.7v-1h2v-2.2
		c0,0,0.1-1.1,1.1-1.1s15.7,0,15.7,0"/>
	<path class="st8" d="M1808.8,227.4h10.3c0,0,1.7,0.5,1.7-1.8v-1.4h2.5v-1.1h3.3c0,0,0.4,7.8,0.4,12.2s-0.4,13.7-0.4,13.7h-3.7v-1
		h-2v-2.2c0,0-0.1-1.1-1.1-1.1s-15.7,0-15.7,0"/>
	<line class="st8" x1="51.4" y1="267.8" x2="51.4" y2="22.8"/>
	<polyline class="st8" points="51.4,30.9 161.6,25.9 1669.6,25.9 1779.3,31.6 	"/>
	<polyline class="st8" points="51.4,26 161.6,21 1669.6,21 1779.3,26.8 	"/>
	<polyline class="st8" points="51.4,37.3 161.6,32.3 1669.6,32.3 1779.3,37.9 	"/>
	<line class="st8" x1="1779.2" y1="48.8" x2="1773" y2="48.4"/>
	<polyline class="st8" points="125.9,44.8 126.1,43.1 1634,43.1 1705.4,44.9 	"/>
	<line class="st8" x1="58.3" y1="47.8" x2="51.4" y2="48.1"/>
	<line class="st8" x1="1779.2" y1="60.9" x2="1773" y2="60.5"/>
	<polyline class="st8" points="948.4,55.2 1669.6,55.2 1705.4,57 	"/>
	<polyline class="st8" points="125.9,56.8 161.7,55.2 880.8,55.2 	"/>
	<line class="st8" x1="58.3" y1="59.9" x2="51.4" y2="60.2"/>
	<line class="st8" x1="1669.5" y1="20.6" x2="1669.5" y2="71.5"/>
	<line class="st8" x1="1692.9" y1="81.5" x2="1773.7" y2="81.5"/>
	<line class="st8" x1="57.6" y1="81.5" x2="138.3" y2="81.5"/>
	<rect x="427.3" y="244" class="st7" width="189.3" height="29.2"/>
	<rect x="632.6" y="244" class="st7" width="111.2" height="29.2"/>
	<rect x="777.8" y="244" class="st7" width="89.2" height="29.2"/>
	<rect x="886.7" y="244" class="st7" width="66.7" height="29.2"/>
	<rect x="995.5" y="244" class="st7" width="99.8" height="29.2"/>
	<rect x="1104.1" y="244" class="st7" width="77.8" height="29.2"/>
	<rect x="1181.9" y="244" class="st7" width="221.3" height="29.2"/>
</g>
</svg>
