<?xml version="1.0" encoding="utf-8"?>
<!-- Generator: Adobe Illustrator 22.0.1, SVG Export Plug-In . SVG Version: 6.00 Build 0)  -->
<svg version="1.1" id="Type_5" xmlns="http://www.w3.org/2000/svg" xmlns:xlink="http://www.w3.org/1999/xlink" x="0px" y="0px"
	 viewBox="0 0 1830.3 340" style="enable-background:new 0 0 1830.3 340;" xml:space="preserve">
<metadata><?xpacket begin="﻿" id="W5M0MpCehiHzreSzNTczkc9d"?>
<x:xmpmeta xmlns:x="adobe:ns:meta/" x:xmptk="Adobe XMP Core 5.6-c143 79.161210, 2017/08/11-10:28:36        ">
   <rdf:RDF xmlns:rdf="http://www.w3.org/1999/02/22-rdf-syntax-ns#">
      <rdf:Description rdf:about=""/>
   </rdf:RDF>
</x:xmpmeta>
                                                                                                    
                                                                                                    
                                                                                                    
                                                                                                    
                                                                                                    
                                                                                                    
                                                                                                    
                                                                                                    
                                                                                                    
                                                                                                    
                                                                                                    
                                                                                                    
                                                                                                    
                                                                                                    
                                                                                                    
                                                                                                    
                                                                                                    
                                                                                                    
                                                                                                    
                                                                                                    
                           
<?xpacket end="w"?></metadata>
<style type="text/css">
	.st0{fill:#B1B3B3;}
	.st1{fill:#212322;}
	.st2{fill:#444445;}
	.st3{fill:#DA291C;}
	.st4{fill:#FA4616;}
	.st5{fill:#878787;}
	.st6{fill:none;stroke:#000000;stroke-width:2;stroke-linecap:round;stroke-linejoin:round;stroke-miterlimit:10;}
	.st7{fill:none;stroke:#000000;stroke-width:2;stroke-linejoin:round;stroke-miterlimit:10;}
	.st8{fill:none;stroke:#000000;stroke-width:2;stroke-miterlimit:10;}
</style>
<g id="Mål_16_">
</g>
<g id="Farger_16_">
	<g id="Grunnfarge_12_">
		<path class="st0" d="M20.5,90.8h125.3l34.8-34.7h1460.6l34.8,34.7h130.7v-45c0,0,1.5-17.7-24.6-21.9c-26.1-4.2-1.1,0-1.1,0
			l-112.1-5.3l-0.3,3h-68.8V19H226.6l-0.1,3.2l-68-0.6V19c0,0-59.3,2-64.4,2.2s-46.6,1.5-52.9,3.5c-6.3,2.1-20.7,7.1-20.7,22
			C20.5,61.8,20.5,90.8,20.5,90.8z"/>
		<path class="st1" d="M1483.2,265.5c0,0-7.9-11.4-24.7-11.4c-16.8,0-32.2,16.3-29.6,35.9s23.5,24.6,30.6,25.4
			c7.2,0.7,18.4-3.9,26.3-14.9h5.9v-2.8h18.5v-4.1h60.4v4.1h18.5v2.8h6.3c0,0,7.4,12.9,22.2,14.6c14.8,1.7,26.5-7.3,31.4-16.5
			c4.8-9.2,4.6-21-1.6-30.1l-16.7-0.1l-13.4-14.3l-5.8-6.2l-29.4-0.1h-70.5c0,0-1.9,2-2.1,6.3s1.5,13.9,2.9,15.9c0,0,0-2.7-6-3.7
			s-7.6-0.9-7.6-0.9s2.8-4.3-0.9-5.6c0,0-2.7,0.6-3.4,1.8c-0.7,1.2-4.8-0.1-4.8-0.1L1483.2,265.5z"/>
		<path class="st1" d="M344.2,265.5c0,0,7.9-11.4,24.7-11.4s32.2,16.3,29.6,35.9s-23.5,24.6-30.6,25.4s-18.4-3.9-26.3-14.9h-5.9
			v-2.8h-18.5v-4.1h-60.4v4.1h-18.5v2.8H232c0,0-7.4,12.9-22.2,14.6c-14.8,1.7-26.5-7.3-31.4-16.5c-4.8-9.2-4.6-21,1.6-30.1
			l16.7-0.1l13.4-14.3l5.8-6.2l29.4-0.1h70.5c0,0,1.9,2,2.1,6.3c0.2,4.4-1.5,13.9-2.9,15.9c0,0,0-2.7,6-3.7s7.6-0.9,7.6-0.9
			s-2.8-4.3,0.9-5.6c0,0,2.7,0.6,3.4,1.8c0.7,1.2,4.8-0.1,4.8-0.1L344.2,265.5z"/>
		<path class="st1" d="M20.4,228.5H10.1c0,0-1.7,0.2-1.7-3.4H5.9V224H2.6c0,0-0.6,11.3,0,25.9h3.7V249h2c0,0-0.4-3.2,0.6-3.2
			s16.2,0,16.2,0l-4.7-4.6C20.4,241.2,20.4,228.5,20.4,228.5z"/>
		<path class="st1" d="M1806.8,228.5h10.4c0,0,1.7,0.2,1.7-3.4h2.5V224h3.3c0,0,0.6,11.3,0,25.9h-3.7V249h-2c0,0,0.4-3.2-0.6-3.2
			s-16.2,0-16.2,0l4.7-4.6v-12.7H1806.8z"/>
		<rect x="427.3" y="244.1" class="st1" width="189.1" height="29.2"/>
		<rect x="632.4" y="244.1" class="st1" width="111.2" height="29.2"/>
		<rect x="777.5" y="244.1" class="st1" width="89.9" height="29.2"/>
		<rect x="886.4" y="244.1" class="st1" width="66.5" height="29.2"/>
		<rect x="995.3" y="244.1" class="st1" width="99.8" height="29.2"/>
		<rect x="1104.2" y="244.1" class="st1" width="298.7" height="29.2"/>
	</g>
	<g id="Profilering_16_">
		<rect x="20.5" y="90.8" class="st2" width="1786.3" height="75.6"/>
		<polygon class="st3" points="20.4,241.3 49.4,268.6 196.6,268.6 216.6,248.6 358.9,248.6 387.7,243.1 1439.6,243.1 1469,247.8 
			1611.4,247.8 1630.7,268.3 1778.7,268.3 1806.8,241.8 1806.8,166.5 20.5,166.5 		"/>
		<polygon class="st3" points="1641.2,56.1 180.6,56.1 145.7,90.8 1676,90.8 		"/>
		<g>
			<polygon class="st0" points="1807.8,213.5 1617.6,213.5 1490.8,82.4 364.8,82.4 237.9,213.5 21.1,213.5 21.1,210.1 236.4,210.1 
				363.3,79 1492.2,79 1619.1,210.1 1807.8,210.1 			"/>
		</g>
		<g>
			<rect x="21.6" y="192.9" class="st0" width="1785.8" height="6.7"/>
		</g>
	</g>
	<g id="Dører_og_vinduer_14_">
		<path class="st4" d="M60.6,268.5H131c0,0,5.4-0.3,5.4-7c0-6.1,0-155.4,0-182.3c0-2.7-3.4-4.1-3.4-4.1H58.6c0,0-3.1,1.1-3.1,4.9
			s0,183.4,0,183.4S55.7,268.5,60.6,268.5z"/>
		<path class="st4" d="M1695.9,268.5h70.4c0,0,5.4-0.3,5.4-7c0-6.1,0-155.7,0-182.4c0-2.6-3.4-4-3.4-4h-73.8c0,0-3.7,0.9-3.7,5.9
			s0,182.3,0,182.3S1691.1,268.5,1695.9,268.5z"/>
		<path class="st5" d="M450,162.4h-42.3c-5.1,0-9.3-4.2-9.3-9.3v-50.4c0-5.1,4.2-9.3,9.3-9.3H450c5.1,0,9.3,4.2,9.3,9.3V153
			C459.4,158.2,455.2,162.4,450,162.4z"/>
		<path class="st5" d="M574.6,162.4h-71.1c-5.1,0-9.3-4.2-9.3-9.3v-50.4c0-5.1,4.2-9.3,9.3-9.3h71.1c5.1,0,9.3,4.2,9.3,9.3V153
			C583.9,158.2,579.7,162.4,574.6,162.4z"/>
		<path class="st5" d="M699.6,162.4h-71.1c-5.1,0-9.3-4.2-9.3-9.3v-50.4c0-5.1,4.2-9.3,9.3-9.3h71.1c5.1,0,9.3,4.2,9.3,9.3V153
			C708.9,158.2,704.7,162.4,699.6,162.4z"/>
		<path class="st5" d="M824.7,162.4h-71.1c-5.1,0-9.3-4.2-9.3-9.3v-50.4c0-5.1,4.2-9.3,9.3-9.3h71.1c5.1,0,9.3,4.2,9.3,9.3V153
			C834,158.2,829.8,162.4,824.7,162.4z"/>
		<path class="st5" d="M1074.1,162.4H1003c-5.1,0-9.3-4.2-9.3-9.3v-50.4c0-5.1,4.2-9.3,9.3-9.3h71.1c5.1,0,9.3,4.2,9.3,9.3V153
			C1083.5,158.2,1079.2,162.4,1074.1,162.4z"/>
		<path class="st5" d="M1199.1,162.4H1128c-5.1,0-9.3-4.2-9.3-9.3v-50.4c0-5.1,4.2-9.3,9.3-9.3h71.1c5.1,0,9.3,4.2,9.3,9.3V153
			C1208.5,158.2,1204.3,162.4,1199.1,162.4z"/>
		<path class="st5" d="M1324.2,162.4h-71.1c-5.1,0-9.3-4.2-9.3-9.3v-50.4c0-5.1,4.2-9.3,9.3-9.3h71.1c5.1,0,9.3,4.2,9.3,9.3V153
			C1333.5,158.2,1329.3,162.4,1324.2,162.4z"/>
		<path class="st5" d="M1449.2,162.4h-71.1c-5.1,0-9.3-4.2-9.3-9.3v-50.4c0-5.1,4.2-9.3,9.3-9.3h71.1c5.1,0,9.3,4.2,9.3,9.3V153
			C1458.5,158.2,1454.3,162.4,1449.2,162.4z"/>
		<path class="st5" d="M1573,162.4h-71.1c-5.1,0-9.3-4.2-9.3-9.3v-50.4c0-5.1,4.2-9.3,9.3-9.3h71.1c5.1,0,9.3,4.2,9.3,9.3V153
			C1582.4,158.2,1578.2,162.4,1573,162.4z"/>
		<path class="st5" d="M111,163.4H77.2c-4.1,0-7.5-3.4-7.5-7.5v-35c0-4.1,3.4-7.5,7.5-7.5H111c4.1,0,7.5,3.4,7.5,7.5v35
			C118.5,160,115.1,163.4,111,163.4z"/>
		<path class="st5" d="M1716.3,163.4h33.8c4.1,0,7.5-3.4,7.5-7.5v-35c0-4.1-3.4-7.5-7.5-7.5h-33.8c-4.1,0-7.5,3.4-7.5,7.5v35
			C1708.8,160,1712.2,163.4,1716.3,163.4z"/>
	</g>
</g>
<g id="Omriss_16_">
	<path class="st6" d="M1806.9,46c0,4.6,0,45,0,45v150.9l-28.1,26.6h-148l-9.9-10.6l-3.2-3.4l-6.1-6.5h-142.4l-29.5-4.7H387.8
		L359,248l-143.1-0.1l-19.2,20.7l-93.5,0.1H49.5l-28.9-27.3l0.1-168.9V45.2c0,0,0.8-19.1,28.1-21.4c27.3-2.2,109.9-4.6,109.9-4.6
		v2.6h68.1v-2.6H1600v2.5h69.1v-2.9l108.5,5c0,0,18.9-0.7,27.2,14.6C1804.9,38.4,1806.9,41.3,1806.9,46z"/>
	<circle class="st6" cx="1459.7" cy="284.8" r="12.3"/>
	<path class="st6" d="M1483.5,265.5c-5.6-6.9-14.2-11.3-23.8-11.3c-16.9,0-30.6,13.7-30.6,30.6c0,16.9,13.7,30.6,30.6,30.6
		c11.2,0,20.9-6,26.3-14.9"/>
	<circle class="st6" cx="1621.7" cy="284.8" r="12.3"/>
	<path class="st6" d="M1597.9,265.5c4.8-5.9,11.8-10,19.7-11"/>
	<path class="st6" d="M1647.6,268.5c3,4.7,4.8,10.4,4.8,16.4c0,16.9-13.7,30.6-30.6,30.6c-11.2,0-20.9-6-26.3-14.9"/>
	<path class="st6" d="M1475.1,270.8l-1.9-0.6v9.9c0,0,1,1.8,1,5s-1,4.5-1,4.5v11.1h8.4h4.4h5.9v-2.8h18.5v-4.1v-9.5l-0.7-6.5
		l-7.5-7.3l-0.1-0.1h-8.9h-6.1v0.6v3.6l-2.8-0.9l0,0l-5.2-1.7"/>
	<path class="st6" d="M1606.2,270.6l1.6-0.5v9.9c0,0-1,1.8-1,5s1,4.5,1,4.5v11.1h-7.5h-4.8h-6.3v-2.8h-18.5v-4.1v-9.5l0.7-6.5
		l7.6-7.3h15v4.2l3.8-1.2l4.6-1.5"/>
	<polyline class="st6" points="1570.7,293.6 1510.3,293.6 1510.2,293.6 	"/>
	<path class="st6" d="M1571.7,257.4c0,6-2.2,11.1-2.2,11.1s-0.8,1.1-1.8,1.1c-1.1,0-30.7,0.1-30.7,0.1h-23.4c0,0-1.4-0.1-1.8-1.1
		c-0.1-0.3-0.3-0.7-0.6-1.5c-0.7-1.8-1.6-5.1-1.6-10c0-6.8,1.6-9.2,1.6-9.2h58.8C1569.9,247.9,1571.7,251.4,1571.7,257.4z"/>
	<path class="st6" d="M1568.9,269.3l9.5-1.5l0.6,2.4l12.3-0.1l0.9-1.3c0,0,1.3,0.3,3,0.7c1.3,0.3,2.8,0.7,4.1,1
		c1.5,0.4,2.6,0.8,2.8,1c0.1,0.1,0.2,0.2,0.2,0.3c0.4,0.4,0.9,0.6,0.9,2c0,1.6,0.1,3.5,0.1,3.5h2.9v-6.7v-0.3c0,0-1.3-1.8-2.9-2.5
		c-0.3-0.1-0.8-0.3-1.5-0.7c-1-0.4-2.4-1-3.8-1.7c-3.1-1.4-6.3-3.2-6.3-4h-9.4V248h-10v13.3l10,0.2"/>
	<path class="st6" d="M1512.4,269.5l-9.5-1.5l-0.6,2.4h-0.3l-9-0.1h-3.1l-0.9-1.3c0,0-1.3,0.3-3,0.7c-2.8,0.7-6.6,1.6-6.9,2
		c-0.1,0.1-0.2,0.2-0.2,0.3l0,0c-0.4,0.4-0.9,0.6-0.9,1.9c0,1.6-0.1,3.5-0.1,3.5h-2.9v-6.7l0,0v-0.3c0,0,1.3-1.8,2.9-2.5
		c0.3-0.1,1-0.4,2-0.8c1-0.4,2.2-1,3.4-1.5c0.1,0,0.1-0.1,0.1-0.1c3-1.4,6.2-3.1,6.2-3.9h5.6c0,0,0.7-2.1,2.7-1.7
		c2,0.5,1.6,2.1,1.6,2.5c0,0.3-0.9,3.8-0.9,3.8l1.1,0.3l0.7-1l10.7,1.7"/>
	<line class="st6" x1="1484.2" y1="273.6" x2="1484.2" y2="273.6"/>
	<path class="st6" d="M1480,267.1c-4.9-5.7-12.2-9.2-20.3-9.2c-14.9,0-26.9,12.1-26.9,27s12.1,26.9,26.9,26.9c9,0,17-4.4,21.8-11.2"
		/>
	<path class="st6" d="M1643.5,268.5c3.5,4.6,5.5,10.2,5.5,16.4c0,14.9-12.1,26.9-26.9,26.9c-9,0-17-4.4-21.8-11.2"/>
	<path class="st6" d="M1620.9,257.9c-7.7,0.4-14.5,3.9-19.1,9.3c0.7,0.3,1.2,0.6,1.5,0.7c1.6,0.7,2.9,2.5,2.9,2.5v0.3v6.7h-2.9
		c0,0-0.1-1.9-0.1-3.5c0-1.4-0.5-1.5-0.9-2c-0.1-0.1-0.2-0.2-0.2-0.3c-0.2-0.2-1.3-0.6-2.8-1"/>
	<circle class="st7" cx="367.8" cy="284.8" r="12.3"/>
	<path class="st7" d="M341.6,300.5c5.3,8.9,15.1,14.9,26.3,14.9c16.9,0,30.6-13.7,30.6-30.6c0-16.9-13.7-30.6-30.6-30.6
		c-9.6,0-18.2,4.4-23.8,11.3"/>
	<circle class="st7" cx="205.8" cy="284.8" r="12.3"/>
	<path class="st7" d="M209.9,254.4c7.9,1,14.9,5.1,19.7,11"/>
	<path class="st7" d="M232.1,300.5c-5.3,8.9-15.1,14.9-26.3,14.9c-16.9,0-30.6-13.7-30.6-30.6c0-6,1.7-11.6,4.8-16.4"/>
	<path class="st7" d="M348.6,272l-5.2,1.7l0,0l-2.8,0.9V271v-0.6h-6.1h-8.9l-0.1,0.1l-7.5,7.3l-0.7,6.5v9.5v4.1h18.5v2.8h5.9h4.4
		h8.4v-11.1c0,0-1-1.2-1-4.5c0-3.2,1-5,1-5v-9.9l-1.9,0.6"/>
	<path class="st7" d="M225.3,271.8l4.6,1.5l3.8,1.2v-4.2h15l7.6,7.3l0.7,6.5v9.5v4.1h-18.5v2.8h-6.3h-4.8h-7.5v-11.1
		c0,0,1-1.2,1-4.5c0-3.2-1-5-1-5V270l1.6,0.5"/>
	<polyline class="st7" points="317.3,293.6 317.3,293.6 256.9,293.6 	"/>
	<path class="st7" d="M255.8,257.4c0,6,2.2,11.1,2.2,11.1s0.8,1.1,1.8,1.1c1.1,0,30.7,0.1,30.7,0.1H314c0,0,1.4-0.1,1.8-1.1
		c0.1-0.3,0.3-0.7,0.6-1.5c0.7-1.8,1.6-5.1,1.6-10c0-6.8-1.6-9.2-1.6-9.2h-58.8C257.6,247.9,255.8,251.4,255.8,257.4z"/>
	<path class="st7" d="M245.3,261.5l10-0.2V248h-10V261.5h-9.4c0,0.8-3.3,2.6-6.3,4c-1.4,0.7-2.8,1.3-3.8,1.7
		c-0.7,0.3-1.2,0.6-1.5,0.7c-1.6,0.7-2.9,2.5-2.9,2.5v0.3v6.7h2.9c0,0,0.1-1.9,0.1-3.5c0-1.4,0.5-1.5,0.9-2c0.1-0.1,0.2-0.2,0.2-0.3
		c0.2-0.2,1.3-0.6,2.8-1c1.2-0.3,2.8-0.7,4.1-1c1.7-0.4,3-0.7,3-0.7l0.9,1.3l12.3,0.1l0.6-2.4l9.5,1.5"/>
	<path class="st7" d="M316.4,267.2l10.7-1.7l0.7,1l1.1-0.3c0,0-0.8-3.5-0.9-3.8c0-0.4-0.5-2,1.6-2.5c2-0.4,2.7,1.7,2.7,1.7h5.6
		c0,0.8,3.2,2.5,6.2,3.9c0.1,0,0.1,0,0.1,0.1c1.2,0.6,2.4,1.1,3.4,1.5c0.9,0.4,1.6,0.7,2,0.8c1.6,0.7,2.9,2.5,2.9,2.5v0.3l0,0v6.7
		h-2.9c0,0-0.1-1.9-0.1-3.5c0-1.3-0.4-1.5-0.9-1.9l0,0c-0.1-0.1-0.2-0.2-0.2-0.3c-0.3-0.4-4.1-1.3-6.9-2c-1.7-0.4-3-0.7-3-0.7
		l-0.9,1.3h-3.1l-9,0.1h-0.3l-0.6-2.4l-9.5,1.5"/>
	<line class="st7" x1="343.4" y1="273.6" x2="343.4" y2="273.6"/>
	<path class="st7" d="M346,300.5c4.9,6.8,12.8,11.2,21.8,11.2c14.9,0,26.9-12.1,26.9-26.9c0-14.9-12.1-27-26.9-27
		c-8.1,0-15.3,3.6-20.3,9.2"/>
	<path class="st7" d="M227.3,300.5c-4.9,6.8-12.8,11.2-21.8,11.2c-14.9,0-26.9-12.1-26.9-26.9c0-6.1,2.1-11.8,5.5-16.4"/>
	<path class="st7" d="M228.3,270.6c-1.5,0.4-2.6,0.8-2.8,1c-0.1,0.1-0.2,0.2-0.2,0.3c-0.4,0.4-0.9,0.6-0.9,2c0,1.6-0.1,3.5-0.1,3.5
		h-2.9v-6.7v-0.3c0,0,1.3-1.8,2.9-2.5c0.3-0.1,0.8-0.3,1.5-0.7c-4.7-5.4-11.5-8.9-19.1-9.3"/>
	<path class="st7" d="M1640.9,182.5H188.1c-1,0-1.8-0.8-1.8-1.8l0,0c0-1,0.8-1.8,1.8-1.8h1452.8c1,0,1.8,0.8,1.8,1.8l0,0
		C1642.8,181.6,1642,182.5,1640.9,182.5z"/>
	<path class="st7" d="M1640.9,200H188.1c-1,0-1.8-0.8-1.8-1.8l0,0c0-1,0.8-1.8,1.8-1.8h1452.8c1,0,1.8,0.8,1.8,1.8l0,0
		C1642.8,199.2,1642,200,1640.9,200z"/>
	<path class="st7" d="M1640.9,217.2H188.1c-1,0-1.8-0.8-1.8-1.8l0,0c0-1,0.8-1.8,1.8-1.8h1452.8c1,0,1.8,0.8,1.8,1.8l0,0
		C1642.8,216.4,1642,217.2,1640.9,217.2z"/>
	<path class="st7" d="M450.2,162.5h-42.3c-5.1,0-9.3-4.2-9.3-9.3v-50.4c0-5.1,4.2-9.3,9.3-9.3h42.3c5.1,0,9.3,4.2,9.3,9.3v50.4
		C459.5,158.3,455.3,162.5,450.2,162.5z"/>
	<path class="st7" d="M574.7,162.5h-71.1c-5.1,0-9.3-4.2-9.3-9.3v-50.4c0-5.1,4.2-9.3,9.3-9.3h71.1c5.1,0,9.3,4.2,9.3,9.3v50.4
		C584,158.3,579.8,162.5,574.7,162.5z"/>
	<path class="st7" d="M699.7,162.5h-71.1c-5.1,0-9.3-4.2-9.3-9.3v-50.4c0-5.1,4.2-9.3,9.3-9.3h71.1c5.1,0,9.3,4.2,9.3,9.3v50.4
		C709.1,158.3,704.8,162.5,699.7,162.5z"/>
	<path class="st7" d="M824.8,162.5h-71.1c-5.1,0-9.3-4.2-9.3-9.3v-50.4c0-5.1,4.2-9.3,9.3-9.3h71.1c5.1,0,9.3,4.2,9.3,9.3v50.4
		C834.1,158.3,829.9,162.5,824.8,162.5z"/>
	<path class="st7" d="M1074.2,162.5h-71.1c-5.1,0-9.3-4.2-9.3-9.3v-50.4c0-5.1,4.2-9.3,9.3-9.3h71.1c5.1,0,9.3,4.2,9.3,9.3v50.4
		C1083.6,158.3,1079.4,162.5,1074.2,162.5z"/>
	<path class="st7" d="M1199.2,162.5h-71.1c-5.1,0-9.3-4.2-9.3-9.3v-50.4c0-5.1,4.2-9.3,9.3-9.3h71.1c5.1,0,9.3,4.2,9.3,9.3v50.4
		C1208.6,158.3,1204.4,162.5,1199.2,162.5z"/>
	<path class="st7" d="M1324.3,162.5h-71.1c-5.1,0-9.3-4.2-9.3-9.3v-50.4c0-5.1,4.2-9.3,9.3-9.3h71.1c5.1,0,9.3,4.2,9.3,9.3v50.4
		C1333.7,158.3,1329.4,162.5,1324.3,162.5z"/>
	<path class="st7" d="M1449.3,162.5h-71.1c-5.1,0-9.3-4.2-9.3-9.3v-50.4c0-5.1,4.2-9.3,9.3-9.3h71.1c5.1,0,9.3,4.2,9.3,9.3v50.4
		C1458.7,158.3,1454.5,162.5,1449.3,162.5z"/>
	<path class="st7" d="M1573.1,162.5H1502c-5.1,0-9.3-4.2-9.3-9.3v-50.4c0-5.1,4.2-9.3,9.3-9.3h71.1c5.1,0,9.3,4.2,9.3,9.3v50.4
		C1582.5,158.3,1578.3,162.5,1573.1,162.5z"/>
	<line class="st7" x1="20.6" y1="72.5" x2="1806.8" y2="72.5"/>
	<line class="st7" x1="1611.6" y1="247.9" x2="1641.2" y2="243.2"/>
	<line class="st7" x1="1778.5" y1="23.8" x2="1778.5" y2="268.5"/>
	<line class="st7" x1="1771.9" y1="220.6" x2="1806.9" y2="220.6"/>
	<line class="st7" x1="55.6" y1="220.6" x2="20.6" y2="220.6"/>
	<line class="st7" x1="184.4" y1="242.9" x2="215.9" y2="247.9"/>
	<line class="st7" x1="387.8" y1="243.3" x2="135.9" y2="243.3"/>
	<line class="st7" x1="1439.7" y1="243.3" x2="1691.2" y2="243.3"/>
	<path class="st7" d="M111.1,163.5H77.3c-4.1,0-7.5-3.4-7.5-7.5v-35c0-4.1,3.4-7.5,7.5-7.5h33.8c4.1,0,7.5,3.4,7.5,7.5v35
		C118.7,160.1,115.3,163.5,111.1,163.5z"/>
	<path class="st7" d="M131.6,268.1H60.5c-2.7,0-4.9-2.2-4.9-4.9V80c0-2.7,2.2-4.9,4.9-4.9h71.1c2.7,0,4.9,2.2,4.9,4.9v183.2
		C136.5,266,134.3,268.1,131.6,268.1z"/>
	<path class="st7" d="M1716.4,163.5h33.8c4.1,0,7.5-3.4,7.5-7.5v-35c0-4.1-3.4-7.5-7.5-7.5h-33.8c-4.1,0-7.5,3.4-7.5,7.5v35
		C1708.9,160.1,1712.3,163.5,1716.4,163.5z"/>
	<path class="st7" d="M1695.9,268.1h71.1c2.7,0,4.9-2.2,4.9-4.9V80c0-2.7-2.2-4.9-4.9-4.9h-71.1c-2.7,0-4.9,2.2-4.9,4.9v183.2
		C1691.1,266,1693.2,268.1,1695.9,268.1z"/>
	<path class="st7" d="M123.4,63.8H56.9c-0.3,0-0.5-0.2-0.5-0.5V44.8c0-0.3,0.2-0.5,0.5-0.5h66.6c0.3,0,0.5,0.2,0.5,0.5v18.5
		C124,63.6,123.7,63.8,123.4,63.8z"/>
	<rect x="59.7" y="46.9" class="st7" width="60.7" height="14.3"/>
	<polygon class="st8" points="63.2,57.8 63.7,50.2 116.6,50.2 116.2,57.8 	"/>
	<line class="st7" x1="67.5" y1="50.2" x2="67" y2="57.8"/>
	<line class="st7" x1="71.3" y1="50.2" x2="70.8" y2="57.8"/>
	<line class="st7" x1="75" y1="50.2" x2="74.6" y2="57.8"/>
	<line class="st7" x1="78.8" y1="50.2" x2="78.4" y2="57.8"/>
	<line class="st7" x1="82.6" y1="50.2" x2="82.1" y2="57.8"/>
	<line class="st7" x1="86.4" y1="50.2" x2="85.9" y2="57.8"/>
	<line class="st7" x1="90.2" y1="50.2" x2="89.7" y2="57.8"/>
	<line class="st7" x1="93.9" y1="50.2" x2="93.5" y2="57.8"/>
	<line class="st7" x1="97.7" y1="50.2" x2="97.3" y2="57.8"/>
	<line class="st7" x1="101.5" y1="50.2" x2="101" y2="57.8"/>
	<line class="st7" x1="105.3" y1="50.2" x2="104.8" y2="57.8"/>
	<line class="st7" x1="109.1" y1="50.2" x2="108.6" y2="57.8"/>
	<line class="st7" x1="112.8" y1="50.2" x2="112.4" y2="57.8"/>
	<path class="st7" d="M1770.6,63.8H1704c-0.3,0-0.5-0.2-0.5-0.5V44.8c0-0.3,0.2-0.5,0.5-0.5h66.6c0.3,0,0.5,0.2,0.5,0.5v18.5
		C1771.1,63.6,1770.9,63.8,1770.6,63.8z"/>
	<rect x="1706.9" y="46.9" class="st7" width="60.7" height="14.3"/>
	<polygon class="st8" points="1710.4,57.8 1710.9,50.2 1763.8,50.2 1763.3,57.8 	"/>
	<line class="st7" x1="1714.6" y1="50.2" x2="1714.2" y2="57.8"/>
	<line class="st7" x1="1718.4" y1="50.2" x2="1718" y2="57.8"/>
	<line class="st7" x1="1722.2" y1="50.2" x2="1721.7" y2="57.8"/>
	<line class="st7" x1="1726" y1="50.2" x2="1725.5" y2="57.8"/>
	<line class="st7" x1="1729.8" y1="50.2" x2="1729.3" y2="57.8"/>
	<line class="st7" x1="1733.5" y1="50.2" x2="1733.1" y2="57.8"/>
	<line class="st7" x1="1737.3" y1="50.2" x2="1736.8" y2="57.8"/>
	<line class="st7" x1="1741.1" y1="50.2" x2="1740.6" y2="57.8"/>
	<line class="st7" x1="1744.9" y1="50.2" x2="1744.4" y2="57.8"/>
	<line class="st7" x1="1748.7" y1="50.2" x2="1748.2" y2="57.8"/>
	<line class="st7" x1="1752.4" y1="50.2" x2="1752" y2="57.8"/>
	<line class="st7" x1="1756.2" y1="50.2" x2="1755.7" y2="57.8"/>
	<line class="st7" x1="1760" y1="50.2" x2="1759.5" y2="57.8"/>
	<path class="st7" d="M946,63.8h-66.6c-0.3,0-0.5-0.2-0.5-0.5V44.8c0-0.3,0.2-0.5,0.5-0.5H946c0.3,0,0.5,0.2,0.5,0.5v18.5
		C946.6,63.6,946.3,63.8,946,63.8z"/>
	<polygon class="st8" points="894.1,61 894.6,47.3 932.5,47.3 932,61 	"/>
	<path class="st8" d="M20.5,228.5H10.2c0,0-1.7,0.5-1.7-1.8v-1.4H6v-1.1H2.7c0,0-0.4,7.8-0.4,12.2s0.4,13.7,0.4,13.7h3.7v-1h2V247
		c0,0,0.1-1.1,1.1-1.1s15.7,0,15.7,0"/>
	<path class="st8" d="M1806.9,228.5h10.3c0,0,1.7,0.5,1.7-1.8v-1.4h2.5v-1.1h3.3c0,0,0.4,7.8,0.4,12.2s-0.4,13.7-0.4,13.7h-3.7v-1
		h-2V247c0,0-0.1-1.1-1.1-1.1s-15.7,0-15.7,0"/>
	<line class="st8" x1="49.5" y1="268.8" x2="49.5" y2="23.8"/>
	<polyline class="st8" points="49.5,32 159.8,27 1667.7,27 1777.4,32.6 	"/>
	<polyline class="st8" points="49.5,27.1 159.8,22.1 1667.7,22.1 1777.4,27.8 	"/>
	<polyline class="st8" points="49.5,38.3 159.8,33.3 1667.7,33.3 1777.4,39 	"/>
	<line class="st8" x1="1777.3" y1="49.8" x2="1771.1" y2="49.5"/>
	<polyline class="st8" points="124,45.8 124.2,44.2 1632.1,44.2 1703.5,46 	"/>
	<line class="st8" x1="56.4" y1="48.9" x2="49.5" y2="49.1"/>
	<line class="st8" x1="1777.3" y1="61.9" x2="1771.1" y2="61.6"/>
	<polyline class="st8" points="946.6,56.3 1667.7,56.3 1703.5,58.1 	"/>
	<polyline class="st8" points="124,57.9 159.8,56.3 878.9,56.3 	"/>
	<line class="st8" x1="56.4" y1="61" x2="49.5" y2="61.2"/>
	<line class="st8" x1="1667.6" y1="21.8" x2="1667.6" y2="72.6"/>
	<line class="st8" x1="1691.1" y1="82.5" x2="1771.8" y2="82.5"/>
	<line class="st8" x1="55.7" y1="82.5" x2="136.4" y2="82.5"/>
	<rect x="427.1" y="244" class="st7" width="189.3" height="29.2"/>
	<rect x="632.4" y="244" class="st7" width="111.2" height="29.2"/>
	<rect x="777.5" y="244" class="st7" width="89.2" height="29.2"/>
	<rect x="886.5" y="244" class="st7" width="66.7" height="29.2"/>
	<rect x="995.3" y="244" class="st7" width="99.8" height="29.2"/>
	<rect x="1103.9" y="244" class="st7" width="77.8" height="29.2"/>
	<rect x="1181.7" y="244" class="st7" width="221.3" height="29.2"/>
</g>
</svg>
