<?xml version="1.0" encoding="utf-8"?>
<!-- Generator: Adobe Illustrator 22.0.1, SVG Export Plug-In . SVG Version: 6.00 Build 0)  -->
<svg version="1.1" id="Type_7" xmlns="http://www.w3.org/2000/svg" xmlns:xlink="http://www.w3.org/1999/xlink" x="0px" y="0px"
	 viewBox="0 0 1906.9 300" style="enable-background:new 0 0 1906.9 300;" xml:space="preserve">
<style type="text/css">
	.st0{fill:#B1B3B3;}
	.st1{fill:#212322;}
	.st2{fill:#DA291C;}
	.st3{fill:#333F48;}
	.st4{fill:#878787;}
	.st5{fill:#FA4616;}
	.st6{fill:none;stroke:#000000;stroke-width:2;stroke-linecap:round;stroke-linejoin:round;}
	.st7{fill:none;stroke:#000000;stroke-width:2;stroke-miterlimit:10;}
</style>
<title>171122_NT_illustrasjoner</title>
<metadata><?xpacket begin="﻿" id="W5M0MpCehiHzreSzNTczkc9d"?>
<x:xmpmeta xmlns:x="adobe:ns:meta/" x:xmptk="Adobe XMP Core 5.6-c143 79.161210, 2017/08/11-10:28:36        ">
   <rdf:RDF xmlns:rdf="http://www.w3.org/1999/02/22-rdf-syntax-ns#">
      <rdf:Description rdf:about=""
            xmlns:dc="http://purl.org/dc/elements/1.1/">
         <dc:title>
            <rdf:Alt>
               <rdf:li xml:lang="x-default">171122_NT_illustrasjoner</rdf:li>
            </rdf:Alt>
         </dc:title>
      </rdf:Description>
   </rdf:RDF>
</x:xmpmeta>
                                                                                                    
                                                                                                    
                                                                                                    
                                                                                                    
                                                                                                    
                                                                                                    
                                                                                                    
                                                                                                    
                                                                                                    
                                                                                                    
                                                                                                    
                                                                                                    
                                                                                                    
                                                                                                    
                                                                                                    
                                                                                                    
                                                                                                    
                                                                                                    
                                                                                                    
                                                                                                    
                           
<?xpacket end="w"?></metadata>
<g id="Farger">
	<g id="Grunnfarge">
		<polygon class="st0" points="21.9,13.6 1886.3,13.6 1886.3,92 22.6,92 		"/>
		<polygon class="st1" points="22,205.4 6.3,205.5 6.3,199 3.8,199 3.8,231.2 6.3,231.2 6.3,224.5 22,224.5 		"/>
		<rect x="69.6" y="225.5" class="st1" width="74.4" height="16.6"/>
		<path class="st1" d="M232.2,210.3v7.2h21.1c0,0,0.2,3.9,4.7,3.9h10.1v18.8h-39.9c0,0-4.3-7.1-15.3-11.5s-24-1.5-29.7,2.8
			s-8.8,6.7-9.6,8.7h-9.8L160,248v11.6h2.6l5-4.5c0,0-4.4,13.5,7.4,27.6s28.6,11.8,28.6,11.8s17.9-0.5,26.7-16.8
			c0,0,5.2-5.9,4.5-20.4l26,13.4h1.9v13.9h4.1l7.1-7.3v-2.3h35.9v2.3l7.1,7.3h4.1v-13.9h1.9l26-13c0,0-2.2,15.5,9.8,26.9
			s23.2,10.5,30.9,9.3s23.6-9,26.8-27.5c0.6-3.6,0.6-7.2,0.1-10.8l4.4,4h2.6V248l-3.9-7.8h-9.6c0,0-5.3-7.8-14.3-11.1
			c-5.4-2-11.2-2.7-17-2.3c0,0-14.7,1.1-22.6,13.4h-40.5v-18.8h11.8c1.8-0.4,3-2,3-3.9h21.1v-7.2H232.2z"/>
		<rect x="614.7" y="225.4" class="st1" width="61.8" height="27"/>
		<rect x="690.1" y="225.4" class="st1" width="141.6" height="27"/>
		<rect x="875.5" y="224.4" class="st1" width="69.2" height="27"/>
		<rect x="1018.2" y="224.4" class="st1" width="171.9" height="27"/>
		<rect x="1246.1" y="224.4" class="st1" width="56.6" height="27"/>
		<path class="st1" d="M1557.6,210.3v7.2h21.1c0,0,0.2,3.9,4.7,3.9h10.1v18.8h-39.9c0,0-4.3-7.1-15.3-11.5s-24-1.5-29.7,2.8
			s-8.8,6.7-9.5,8.7h-9.8l-3.9,7.8v11.6h2.6l5-4.5c0,0-4.4,13.5,7.4,27.6s28.6,11.8,28.6,11.8s17.9-0.5,26.7-16.8
			c0,0,5.2-5.9,4.5-20.4l26,13.4h1.9v13.9h4.1l7.1-7.3v-2.3h35.9v2.3l7.1,7.3h4.1v-13.9h1.9l26-13c0,0-2.2,15.5,9.8,26.9
			s23.2,10.5,30.9,9.3s23.6-9,26.8-27.5c0.6-3.6,0.6-7.2,0.2-10.8l4.3,4h2.6V248l-3.9-7.8h-9.7c0,0-5.3-7.8-14.3-11.1
			c-5.4-2-11.2-2.7-17-2.3c0,0-14.7,1.1-22.6,13.4h-40.5v-18.8h11.8c1.8-0.4,3-2,3-3.9h21.1v-7.2H1557.6z"/>
		<rect x="1765.6" y="225.4" class="st1" width="74.4" height="16.6"/>
		<path class="st1" d="M1886.8,205.5h15.9V199h2.3c0,0,0.2,32,0,32h-2.3v-6.7h-15.9L1886.8,205.5z"/>
	</g>
	<g id="Profilering">
		<polygon class="st2" points="21.7,146.6 1886.8,146.6 1886.8,224.4 1747.2,224.4 1735.6,210.3 1499.4,210.3 1487.2,225.5 
			421.9,225.5 410.1,210.3 174.1,210.3 161.6,225.5 21.7,225.5 		"/>
		<polygon class="st3" points="22.6,92 1887,92 1887,148.7 22.1,148.7 		"/>
		<polygon class="st2" points="1718.2,53.7 190.2,53.7 143.3,92 1765.2,92 		"/>
		<rect x="21.4" y="178.7" class="st0" width="1864.7" height="6.7"/>
		<polygon class="st0" points="1886.4,199.2 1646.2,199.2 1519.3,68.1 393.3,68.1 266.4,199.2 20.9,199.2 20.9,195.8 265,195.8 
			391.8,64.7 1520.7,64.7 1647.6,195.8 1886.4,195.8 		"/>
	</g>
	<g id="Dører_og_vinduer">
		<path class="st4" d="M35.7,93h23.2c2.4,0,4.4,2,4.4,4.4v46.2c0,2.4-2,4.4-4.4,4.4H35.7c-2.4,0-4.4-2-4.4-4.4V97.4
			C31.2,95,33.2,93,35.7,93z"/>
		<rect x="69.8" y="13.6" class="st5" width="72.6" height="212.4"/>
		<path class="st4" d="M268.2,95.9H378c3.8,0,6.9,3.1,6.9,6.9v34.9c0,3.8-3.1,6.9-6.9,6.9H268.2c-3.8,0-6.9-3.1-6.9-6.9v-34.9
			C261.2,99,264.3,95.9,268.2,95.9z"/>
		<path class="st4" d="M89.6,96.9H124c2.4,0,4.4,2,4.4,4.4v39.4c0,2.4-2,4.4-4.4,4.4H89.6c-2.4,0-4.4-2-4.4-4.4v-39.4
			C85.2,98.9,87.1,96.9,89.6,96.9z"/>
		<path class="st4" d="M416.8,95.9h109.8c3.8,0,6.9,3.1,6.9,6.9v34.9c0,3.8-3.1,6.9-6.9,6.9H416.8c-3.8,0-6.9-3.1-6.9-6.9v-34.9
			C409.8,99,412.9,95.9,416.8,95.9z"/>
		<path class="st4" d="M565.3,95.9h109.8c3.8,0,6.9,3.1,6.9,6.9v34.9c0,3.8-3.1,6.9-6.9,6.9H565.3c-3.8,0-6.9-3.1-6.9-6.9v-34.9
			C558.4,99,561.5,95.9,565.3,95.9z"/>
		<path class="st4" d="M788,95.9h109.8c3.8,0,6.9,3.1,6.9,6.9v34.9c0,3.8-3.1,6.9-6.9,6.9H788c-3.8,0-6.9-3.1-6.9-6.9v-34.9
			C781.1,99,784.2,95.9,788,95.9z"/>
		<path class="st4" d="M936.5,96.6h109.8c3.8,0,6.9,3.1,6.9,6.9v34.9c0,3.8-3.1,6.9-6.9,6.9H936.5c-3.8,0-6.9-3.1-6.9-6.9v-34.9
			C929.6,99.7,932.7,96.6,936.5,96.6z"/>
		<path class="st4" d="M1085.3,95.4h109.8c3.8,0,6.9,3.1,6.9,6.9v34.9c0,3.8-3.1,6.9-6.9,6.9h-109.8c-3.8,0-6.9-3.1-6.9-6.9v-34.9
			C1078.4,98.5,1081.5,95.4,1085.3,95.4z"/>
		<path class="st4" d="M1233.7,95.4h109.8c3.8,0,6.9,3.1,6.9,6.9v34.9c0,3.8-3.1,6.9-6.9,6.9h-109.8c-3.8,0-6.9-3.1-6.9-6.9v-34.9
			C1226.8,98.5,1229.9,95.4,1233.7,95.4z"/>
		<path class="st4" d="M1382.4,95.9h109.8c3.8,0,6.9,3.1,6.9,6.9v34.9c0,3.8-3.1,6.9-6.9,6.9h-109.8c-3.8,0-6.9-3.1-6.9-6.9v-34.9
			C1375.4,99,1378.5,95.9,1382.4,95.9z"/>
		<rect x="1766.5" y="13.6" class="st5" width="72.6" height="212.4"/>
		<path class="st4" d="M1873.9,148.1h-23.2c-2.4,0-4.4-2-4.4-4.4V97.4c0-2.4,2-4.4,4.4-4.4h23.2c2.4,0,4.4,2,4.4,4.4v46.2
			C1878.3,146.1,1876.3,148.1,1873.9,148.1z"/>
		<path class="st4" d="M1820,145.1h-34.4c-2.4,0-4.4-2-4.4-4.4v-39.4c0-2.4,2-4.4,4.4-4.4h34.4c2.4,0,4.4,2,4.4,4.4v39.4
			C1824.4,143.2,1822.4,145.1,1820,145.1z"/>
		<path class="st4" d="M1530.9,95.9h109.8c3.8,0,6.9,3.1,6.9,6.9v34.9c0,3.8-3.1,6.9-6.9,6.9h-109.8c-3.8,0-6.9-3.1-6.9-6.9v-34.9
			C1524,99,1527.1,95.9,1530.9,95.9z"/>
	</g>
</g>
<g id="Omriss">
	<rect x="875" y="225.4" class="st6" width="69.2" height="27"/>
	<polygon class="st6" points="21.7,13.6 1886.5,13.6 1886.5,224.5 1746.9,224.5 1735.1,210.3 1498.8,210.3 1486.9,225.5 
		421.4,225.5 409.4,210.3 173.2,210.3 161.4,225.5 21.7,225.5 	"/>
	<line class="st6" x1="21.7" y1="26.1" x2="1886.5" y2="26.1"/>
	<line class="st6" x1="1886.5" y1="33.4" x2="21.9" y2="33.4"/>
	<line class="st6" x1="21.9" y1="53.7" x2="1886.5" y2="53.7"/>
	<path class="st6" d="M1559.9,257.3c0.1,1.1,0.2,2.2,0.2,3.2c0.3,18.8-14.7,34.3-33.5,34.6c-18.8,0.3-34.3-14.7-34.6-33.5
		c0-0.4,0-0.8,0-1.2c0-1.7,0.1-3.4,0.4-5.1"/>
	<path class="st6" d="M1498.8,240.2c11.3-15.1,32.6-18.1,47.7-6.8c2.6,1.9,4.9,4.2,6.8,6.8"/>
	<path class="st6" d="M1555.7,255.8c0.3,1.6,0.4,3.3,0.4,4.9c0,16.6-13.5,30.1-30.1,30.1s-30.1-13.5-30.1-30.1c0-2,0.2-4,0.6-5.9"/>
	<path class="st6" d="M1504,240.2c11.4-12.2,30.4-12.8,42.6-1.4c0.5,0.5,1,0.9,1.4,1.4"/>
	<circle class="st6" cx="1526" cy="260.5" r="6.8"/>
	<path class="st6" d="M1741.8,255.6c0.2,1.6,0.4,3.3,0.4,4.9c0.3,18.8-14.7,34.3-33.5,34.6c-18.8,0.3-34.3-14.7-34.6-33.5
		c0-0.4,0-0.8,0-1.2c0-1,0.1-1.9,0.1-2.8"/>
	<path class="st6" d="M1680.8,240.2c11.3-15.1,32.6-18.1,47.7-6.8c2.6,1.9,4.9,4.2,6.8,6.8"/>
	<path class="st6" d="M1737.6,254.8c3.3,16.3-7.3,32.2-23.6,35.5c-16.3,3.3-32.2-7.3-35.5-23.6c-0.4-2-0.6-3.9-0.6-5.9
		c0-1.5,0.1-3.1,0.3-4.6"/>
	<path class="st6" d="M1686.1,240.2c11.4-12.2,30.4-12.8,42.6-1.4c0.5,0.5,1,0.9,1.4,1.4"/>
	<circle class="st6" cx="1708.1" cy="260.5" r="6.8"/>
	<path class="st6" d="M1487.8,259.6h-2.6V248l3.9-7.8h104.2v-18.8h47.7v18.8h104l3.9,7.8v11.6h-2.6l-5.2-4.8h-9.7v-1.7H1721l-9.9-6
		h-6.6l-9.9,6h-10.2v1.8c0,0-4.9-0.3-17,5.9l-19.4,10h-62.2l-21.7-11.1c0,0-7-4.7-14.9-4.7v-1.8h-10.2l-9.9-6h-6.6l-9.9,6h-10.2v1.7
		h-9.6L1487.8,259.6z"/>
	<polyline class="st6" points="1501.8,254.8 1499.4,260.6 1499.4,265.6 1516.3,274.1 1535.7,274.1 1552.6,265.6 1552.6,260.6 
		1550.1,254.9 	"/>
	<polyline class="st6" points="1683.7,254.8 1681.3,260.6 1681.3,265.6 1698.2,274.1 1717.6,274.1 1734.4,265.6 1734.4,260.6 
		1731.9,254.9 	"/>
	<path class="st6" d="M1655.7,210.3v7.5c0,2-1.6,3.6-3.6,3.6l0,0h-70c-2,0-3.6-1.6-3.7-3.6c0,0,0,0,0,0v-7.5"/>
	<polyline class="st6" points="1557.3,210.3 1557.3,217.5 1578.4,217.5 	"/>
	<polyline class="st6" points="1676.7,210.3 1676.7,217.5 1655.7,217.5 	"/>
	<polyline class="st6" points="1587.8,270.7 1587.8,284.6 1591.9,284.6 1599.1,277.4 1599.1,275 1635,275 1635,277.4 1642.1,284.6 
		1646.2,284.6 1646.2,270.7 	"/>
	<path class="st6" d="M234.4,257.3c0.1,1.1,0.1,2.1,0.1,3.2c0.3,18.8-14.7,34.3-33.5,34.6c-18.8,0.3-34.3-14.7-34.6-33.5
		c0-0.4,0-0.8,0-1.2c0-1.7,0.1-3.4,0.4-5.1"/>
	<path class="st6" d="M173.2,240.2c11.3-15.1,32.6-18.1,47.7-6.8c2.6,1.9,4.9,4.2,6.8,6.8"/>
	<path class="st6" d="M230.2,255.8c0.3,1.6,0.4,3.3,0.4,4.9c-0.3,16.6-14,29.9-30.7,29.6c-16.2-0.3-29.3-13.4-29.6-29.6
		c0-2,0.2-4,0.6-5.9"/>
	<path class="st6" d="M178.5,240.2c11.4-12.1,30.4-12.8,42.6-1.4c0.5,0.4,0.9,0.9,1.4,1.4"/>
	<circle class="st6" cx="200.5" cy="260.5" r="6.8"/>
	<path class="st6" d="M416.2,255.6c2.7,18.6-10.2,35.9-28.8,38.6c-18.6,2.7-35.9-10.2-38.6-28.8c-0.2-1.6-0.3-3.2-0.3-4.8
		c0-1,0-1.9,0.1-2.8"/>
	<path class="st6" d="M355.3,240.2c11.3-15.1,32.6-18.1,47.7-6.8c2.6,1.9,4.9,4.2,6.8,6.8"/>
	<path class="st6" d="M412.1,254.8c0.4,1.9,0.6,3.9,0.6,5.9c0,16.6-13.5,30.1-30.1,30.1s-30.1-13.5-30.1-30.1c0-1.5,0.1-3.1,0.3-4.6
		"/>
	<path class="st6" d="M360.6,240.2c11.4-12.1,30.4-12.8,42.6-1.4c0.5,0.4,0.9,0.9,1.4,1.4"/>
	<circle class="st6" cx="382.5" cy="260.5" r="6.8"/>
	<path class="st6" d="M162.2,259.6h-2.6V248l3.9-7.8h104.2v-18.8h47.7v18.8h104l3.9,7.8v11.6h-2.6l-5.2-4.8h-9.7v-1.7h-10.1l-9.9-6
		h-6.6l-9.9,6H359v1.8c0,0-4.9-0.3-17,5.9l-19.4,10h-62.2l-21.7-11.1c0,0-6.9-4.7-14.9-4.7v-1.8h-10.2l-9.9-6h-6.6l-9.9,6h-10.2v1.7
		h-9.7L162.2,259.6z"/>
	<polyline class="st6" points="176.2,254.8 173.9,260.6 173.9,265.6 190.7,274.1 210.2,274.1 227,265.6 227,260.6 224.5,254.9 	"/>
	<polyline class="st6" points="358.1,254.8 355.8,260.6 355.8,265.6 372.6,274.1 392.1,274.1 408.9,265.6 408.9,260.6 406.4,254.9 	
		"/>
	<path class="st6" d="M330.1,210.3v7.5c0,2-1.6,3.6-3.6,3.6h0h-70c-2,0-3.6-1.6-3.6-3.6l0,0v-7.5"/>
	<polyline class="st6" points="231.8,210.3 231.8,217.5 252.9,217.5 	"/>
	<polyline class="st6" points="351.2,210.3 351.2,217.5 330.1,217.5 	"/>
	<polyline class="st6" points="262.3,270.7 262.3,284.6 266.4,284.6 273.5,277.4 273.5,275 309.5,275 309.5,277.4 316.6,284.6 
		320.7,284.6 320.7,270.7 	"/>
	<polyline class="st6" points="69.2,225.5 69.2,242.1 143.6,242.1 143.6,225.5 	"/>
	<path class="st6" d="M35.3,93h23.2c2.4,0,4.4,2,4.4,4.4v46.2c0,2.4-2,4.4-4.4,4.4H35.3c-2.4,0-4.4-2-4.4-4.4V97.4
		C30.8,95,32.8,93,35.3,93z"/>
	<path class="st6" d="M89.2,96.9h34.4c2.4,0,4.4,2,4.4,4.4v39.4c0,2.4-2,4.4-4.4,4.4H89.2c-2.4,0-4.4-2-4.4-4.4v-39.4
		C84.8,98.9,86.7,96.9,89.2,96.9z"/>
	<path class="st6" d="M267.8,95.9h109.8c3.8,0,6.9,3.1,6.9,6.9v34.9c0,3.8-3.1,6.9-6.9,6.9H267.8c-3.8,0-6.9-3.1-6.9-6.9v-34.9
		C260.8,99,263.9,95.9,267.8,95.9z"/>
	<path class="st6" d="M157.3,92h1593.6c4,0,7.2,3.2,7.2,7.2v42.4c0,4-3.2,7.2-7.2,7.2H157.3c-4,0-7.2-3.2-7.2-7.2V99.2
		C150.1,95.2,153.3,92,157.3,92z"/>
	<path class="st6" d="M416.3,95.9h109.8c3.8,0,6.9,3.1,6.9,6.9v34.9c0,3.8-3.1,6.9-6.9,6.9H416.3c-3.8,0-6.9-3.1-6.9-6.9v-34.9
		C409.4,99,412.5,95.9,416.3,95.9z"/>
	<path class="st6" d="M564.9,95.9h109.8c3.8,0,6.9,3.1,6.9,6.9v34.9c0,3.8-3.1,6.9-6.9,6.9H564.9c-3.8,0-6.9-3.1-6.9-6.9v-34.9
		C558,99,561.1,95.9,564.9,95.9z"/>
	<path class="st6" d="M787.8,95.9h109.8c3.8,0,6.9,3.1,6.9,6.9v34.9c0,3.8-3.1,6.9-6.9,6.9H787.8c-3.8,0-6.9-3.1-6.9-6.9v-34.9
		C780.8,99,784,95.9,787.8,95.9z"/>
	<path class="st6" d="M936.3,95.9h109.8c3.8,0,6.9,3.1,6.9,6.9v34.9c0,3.8-3.1,6.9-6.9,6.9H936.3c-3.8,0-6.9-3.1-6.9-6.9v-34.9
		C929.4,99,932.5,95.9,936.3,95.9z"/>
	<path class="st6" d="M1084.9,95.9h109.8c3.8,0,6.9,3.1,6.9,6.9v34.9c0,3.8-3.1,6.9-6.9,6.9h-109.8c-3.8,0-6.9-3.1-6.9-6.9v-34.9
		C1078,99,1081.1,95.9,1084.9,95.9z"/>
	<path class="st6" d="M1233.5,95.9h109.8c3.8,0,6.9,3.1,6.9,6.9v34.9c0,3.8-3.1,6.9-6.9,6.9h-109.8c-3.8,0-6.9-3.1-6.9-6.9v-34.9
		C1226.6,99,1229.7,95.9,1233.5,95.9z"/>
	<path class="st6" d="M1382.1,95.9h109.8c3.8,0,6.9,3.1,6.9,6.9v34.9c0,3.8-3.1,6.9-6.9,6.9h-109.8c-3.8,0-6.9-3.1-6.9-6.9v-34.9
		C1375.2,99,1378.3,95.9,1382.1,95.9z"/>
	<path class="st6" d="M1530.7,95.9h109.8c3.8,0,6.9,3.1,6.9,6.9v34.9c0,3.8-3.1,6.9-6.9,6.9h-109.8c-3.8,0-6.9-3.1-6.9-6.9v-34.9
		C1523.7,99,1526.8,95.9,1530.7,95.9z"/>
	<path class="st6" d="M76.5,64.3h59.8c3.6,0,6.5,2.9,6.5,6.5v154.7l0,0H70l0,0V70.8C70,67.3,72.9,64.3,76.5,64.3z"/>
	<polyline class="st6" points="1839.7,225.5 1839.7,242.1 1765.3,242.1 1765.3,225.5 	"/>
	<path class="st6" d="M1873.6,148.1h-23.2c-2.4,0-4.4-2-4.4-4.4V97.4c0-2.4,2-4.4,4.4-4.4h23.2c2.4,0,4.4,2,4.4,4.4v46.2
		C1878,146.1,1876.1,148.1,1873.6,148.1z"/>
	<path class="st6" d="M1819.7,145.1h-34.4c-2.4,0-4.4-2-4.4-4.4v-39.4c0-2.4,2-4.4,4.4-4.4h34.4c2.4,0,4.4,2,4.4,4.4v39.4
		C1824.1,143.2,1822.1,145.1,1819.7,145.1z"/>
	<path class="st6" d="M1838.9,225.5h-72.9l0,0V70.8c0-3.6,2.9-6.5,6.5-6.5l0,0h59.8c3.6,0,6.5,2.9,6.5,6.5c0,0,0,0,0,0V225.5
		L1838.9,225.5z"/>
	<rect x="5.8" y="205.5" class="st7" width="15.9" height="18.9"/>
	<rect x="3.7" y="199" class="st7" width="2.2" height="32"/>
	<rect x="1886.5" y="205.5" class="st7" width="15.9" height="18.9"/>
	<rect x="1902.4" y="199" class="st7" width="2.2" height="32"/>
	<rect x="615.3" y="225.4" class="st6" width="61.8" height="27"/>
	<rect x="690.6" y="225.4" class="st6" width="141.6" height="27"/>
	<rect x="1017.7" y="225.4" class="st6" width="171.9" height="27"/>
	<rect x="1245.6" y="225.4" class="st6" width="56.6" height="27"/>
</g>
</svg>
