<?xml version="1.0" encoding="utf-8"?>
<!-- Generator: Adobe Illustrator 22.0.1, SVG Export Plug-In . SVG Version: 6.00 Build 0)  -->
<svg version="1.1" id="Type_7" xmlns="http://www.w3.org/2000/svg" xmlns:xlink="http://www.w3.org/1999/xlink" x="0px" y="0px"
	 viewBox="0 0 1905.6 300" style="enable-background:new 0 0 1905.6 300;" xml:space="preserve">
<style type="text/css">
	.st0{fill:#B1B3B3;}
	.st1{fill:#212322;}
	.st2{fill:#DA291C;}
	.st3{fill:#333F48;}
	.st4{fill:#FA4616;}
	.st5{fill:#878787;}
	.st6{fill:none;stroke:#000000;stroke-width:2;stroke-linecap:round;stroke-linejoin:round;}
	.st7{fill:none;stroke:#000000;stroke-width:2;stroke-miterlimit:10;}
</style>
<title>171122_NT_illustrasjoner</title>
<metadata><?xpacket begin="﻿" id="W5M0MpCehiHzreSzNTczkc9d"?>
<x:xmpmeta xmlns:x="adobe:ns:meta/" x:xmptk="Adobe XMP Core 5.6-c143 79.161210, 2017/08/11-10:28:36        ">
   <rdf:RDF xmlns:rdf="http://www.w3.org/1999/02/22-rdf-syntax-ns#">
      <rdf:Description rdf:about=""
            xmlns:dc="http://purl.org/dc/elements/1.1/">
         <dc:title>
            <rdf:Alt>
               <rdf:li xml:lang="x-default">171122_NT_illustrasjoner</rdf:li>
            </rdf:Alt>
         </dc:title>
      </rdf:Description>
   </rdf:RDF>
</x:xmpmeta>
                                                                                                    
                                                                                                    
                                                                                                    
                                                                                                    
                                                                                                    
                                                                                                    
                                                                                                    
                                                                                                    
                                                                                                    
                                                                                                    
                                                                                                    
                                                                                                    
                                                                                                    
                                                                                                    
                                                                                                    
                                                                                                    
                                                                                                    
                                                                                                    
                                                                                                    
                                                                                                    
                           
<?xpacket end="w"?></metadata>
<g id="Farger">
	<g id="Grunnfarge">
		<polygon class="st0" points="20,13.6 1884.5,13.6 1884.5,92 20.8,92 		"/>
		<rect x="67.8" y="225.5" class="st1" width="74.4" height="16.6"/>
		<path class="st1" d="M230.3,210.3v7.2h21.1c0,0,0.2,3.9,4.7,3.9h10.1v18.8h-39.9c0,0-4.3-7.1-15.3-11.5s-24-1.5-29.7,2.8
			s-8.8,6.7-9.6,8.7H162l-3.9,7.8v11.6h2.6l5-4.5c0,0-4.4,13.5,7.4,27.6s28.6,11.8,28.6,11.8s17.9-0.5,26.7-16.8
			c0,0,5.2-5.9,4.5-20.4l26,13.4h1.9v13.9h4.2l7.1-7.3v-2.3H308v2.3l7.1,7.3h4.1v-13.9h1.9l26-13c0,0-2.2,15.5,9.8,26.9
			s23.2,10.5,30.9,9.3s23.6-9,26.8-27.5c0.6-3.6,0.6-7.2,0.1-10.8l4.4,4h2.6V248l-3.9-7.8h-9.7c0,0-5.3-7.8-14.2-11.1
			c-5.4-2-11.2-2.7-17-2.3c0,0-14.7,1.1-22.6,13.4h-40.6v-18.8h11.8c1.8-0.4,3-2,3-3.9h21.1v-7.2H230.3z"/>
		<polygon class="st1" points="20.2,205.4 4.4,205.5 4.4,199 1.9,199 1.9,231.2 4.4,231.2 4.4,224.5 20.2,224.5 		"/>
		<rect x="613.6" y="225.4" class="st1" width="61.8" height="27"/>
		<rect x="688.9" y="225.4" class="st1" width="141.6" height="27"/>
		<rect x="872.3" y="225.4" class="st1" width="69.2" height="27"/>
		<rect x="1015.4" y="225.4" class="st1" width="171.9" height="27"/>
		<rect x="1243.9" y="225.4" class="st1" width="56.6" height="27"/>
		<rect x="1763.8" y="225.4" class="st1" width="74.4" height="16.6"/>
		<path class="st1" d="M1555.9,210.3v7.2h21.1c0,0,0.2,3.9,4.7,3.9h10.1v18.8h-39.9c0,0-4.3-7.1-15.3-11.5s-24-1.5-29.7,2.8
			s-8.8,6.7-9.5,8.7h-9.8l-3.9,7.8v11.6h2.6l5-4.5c0,0-4.4,13.5,7.4,27.6s28.6,11.8,28.6,11.8s17.9-0.5,26.7-16.8
			c0,0,5.2-5.9,4.5-20.4l26,13.4h1.9v13.9h4.1l7.1-7.3v-2.3h35.9v2.3l7.1,7.3h4.1v-13.9h1.9l26-13c0,0-2.2,15.5,9.8,26.9
			s23.2,10.5,30.9,9.3s23.6-9,26.8-27.5c0.6-3.6,0.6-7.2,0.1-10.8l4.4,4h2.6V248l-3.9-7.8h-9.7c0,0-5.3-7.8-14.3-11.1
			c-5.4-2-11.2-2.7-17-2.3c0,0-14.7,1.1-22.6,13.4h-40.5v-18.8h11.8c1.8-0.4,3-2,3-3.9h21.1v-7.2H1555.9z"/>
		<path class="st1" d="M1885.1,205.5h15.9V199h2.3c0,0,0.2,32,0,32h-2.3v-6.7h-15.9V205.5z"/>
	</g>
	<g id="Profilering">
		<polygon class="st2" points="20,146.6 1884.5,146.6 1884.5,224.4 1744.9,224.4 1733.3,210.3 1497.1,210.3 1484.9,225.5 
			419.6,225.5 407.9,210.3 171.8,210.3 159.3,225.5 20,225.5 		"/>
		<polygon class="st3" points="20.8,92 1885.2,92 1885.2,148.7 20.3,148.7 		"/>
		<rect x="20.4" y="178.7" class="st0" width="1864.7" height="6.7"/>
		<polygon class="st2" points="1716.3,53.7 188.3,53.7 141.4,92 1763.3,92 		"/>
		<polygon class="st0" points="1885.5,199.2 1645.2,199.2 1518.3,68.1 392.3,68.1 265.5,199.2 20,199.2 20,195.8 264,195.8 
			390.9,64.7 1519.8,64.7 1646.7,195.8 1885.5,195.8 		"/>
	</g>
	<g id="Dører_og_vinduer">
		<rect x="67.9" y="13.6" class="st4" width="72.6" height="212.4"/>
		<path class="st5" d="M87.7,96.9h34.4c2.4,0,4.4,2,4.4,4.4v39.4c0,2.4-2,4.4-4.4,4.4H87.7c-2.4,0-4.4-2-4.4-4.4v-39.4
			C83.3,98.9,85.3,96.9,87.7,96.9z"/>
		<path class="st5" d="M266.3,95.9h109.8c3.8,0,6.9,3.1,6.9,6.9v34.9c0,3.8-3.1,6.9-6.9,6.9H266.3c-3.8,0-6.9-3.1-6.9-6.9v-34.9
			C259.4,99,262.5,95.9,266.3,95.9z"/>
		<path class="st5" d="M33.8,93H57c2.4,0,4.4,2,4.4,4.4v46.2c0,2.4-2,4.4-4.4,4.4H33.8c-2.4,0-4.4-2-4.4-4.4V97.4
			C29.4,95,31.4,93,33.8,93z"/>
		<path class="st5" d="M414.9,95.9h109.8c3.8,0,6.9,3.1,6.9,6.9v34.9c0,3.8-3.1,6.9-6.9,6.9H414.9c-3.8,0-6.9-3.1-6.9-6.9v-34.9
			C408,99,411.1,95.9,414.9,95.9z"/>
		<path class="st5" d="M563.5,95.9h109.8c3.8,0,6.9,3.1,6.9,6.9v34.9c0,3.8-3.1,6.9-6.9,6.9H563.5c-3.8,0-6.9-3.1-6.9-6.9v-34.9
			C556.5,99,559.6,95.9,563.5,95.9z"/>
		<path class="st5" d="M786.3,95.9h109.8c3.8,0,6.9,3.1,6.9,6.9v34.9c0,3.8-3.1,6.9-6.9,6.9H786.3c-3.8,0-6.9-3.1-6.9-6.9v-34.9
			C779.4,99,782.5,95.9,786.3,95.9z"/>
		<path class="st5" d="M934.9,95.9h109.8c3.8,0,6.9,3.1,6.9,6.9v34.9c0,3.8-3.1,6.9-6.9,6.9H934.9c-3.8,0-6.9-3.1-6.9-6.9v-34.9
			C928,99,931.1,95.9,934.9,95.9z"/>
		<path class="st5" d="M1083.5,95.9h109.8c3.8,0,6.9,3.1,6.9,6.9v34.9c0,3.8-3.1,6.9-6.9,6.9h-109.8c-3.8,0-6.9-3.1-6.9-6.9v-34.9
			C1076.6,99,1079.7,95.9,1083.5,95.9z"/>
		<rect x="1764.5" y="14.2" class="st4" width="72.6" height="212.3"/>
		<path class="st5" d="M1232.1,95.9h109.8c3.8,0,6.9,3.1,6.9,6.9v34.9c0,3.8-3.1,6.9-6.9,6.9h-109.8c-3.8,0-6.9-3.1-6.9-6.9v-34.9
			C1225.1,99,1228.2,95.9,1232.1,95.9z"/>
		<path class="st5" d="M1380.6,95.9h109.8c3.8,0,6.9,3.1,6.9,6.9v34.9c0,3.8-3.1,6.9-6.9,6.9h-109.8c-3.8,0-6.9-3.1-6.9-6.9v-34.9
			C1373.7,99,1376.8,95.9,1380.6,95.9z"/>
		<path class="st5" d="M1529.2,95.9H1639c3.8,0,6.9,3.1,6.9,6.9v34.9c0,3.8-3.1,6.9-6.9,6.9h-109.8c-3.8,0-6.9-3.1-6.9-6.9v-34.9
			C1522.3,99,1525.4,95.9,1529.2,95.9z"/>
		<path class="st5" d="M1872.2,148.1H1849c-2.4,0-4.4-2-4.4-4.4V97.4c0-2.4,2-4.4,4.4-4.4h23.2c2.4,0,4.4,2,4.4,4.4v46.2
			C1876.6,146.1,1874.6,148.1,1872.2,148.1z"/>
		<path class="st5" d="M1818.2,145.1h-34.4c-2.4,0-4.4-2-4.4-4.4v-39.4c0-2.4,2-4.4,4.4-4.4h34.4c2.4,0,4.4,2,4.4,4.4v39.4
			C1822.7,143.2,1820.7,145.1,1818.2,145.1z"/>
	</g>
</g>
<g id="Omriss">
	<polygon class="st6" points="20,13.6 1884.8,13.6 1884.8,224.5 1745.2,224.5 1733.3,210.3 1497.1,210.3 1485.2,225.5 419.6,225.5 
		407.7,210.3 171.4,210.3 159.6,225.5 20,225.5 	"/>
	<line class="st6" x1="20" y1="26.1" x2="1884.8" y2="26.1"/>
	<line class="st6" x1="1884.8" y1="33.4" x2="20.2" y2="33.4"/>
	<line class="st6" x1="20.2" y1="53.7" x2="1884.8" y2="53.7"/>
	<path class="st6" d="M1558.2,257.3c0.1,1.1,0.2,2.1,0.2,3.2c0.3,18.8-14.7,34.3-33.5,34.6c-18.8,0.3-34.3-14.7-34.6-33.5
		c0-0.4,0-0.8,0-1.2c0-1.7,0.1-3.4,0.4-5.1"/>
	<path class="st6" d="M1497,240.2c11.3-15.1,32.6-18.1,47.7-6.8c2.6,1.9,4.9,4.2,6.8,6.8"/>
	<path class="st6" d="M1554,255.8c0.3,1.6,0.4,3.3,0.4,4.9c0,16.6-13.5,30.1-30.1,30.1s-30.1-13.5-30.1-30.1c0-2,0.2-4,0.6-5.9"/>
	<path class="st6" d="M1502.3,240.2c11.4-12.2,30.4-12.8,42.6-1.4c0.5,0.5,1,0.9,1.4,1.4"/>
	<circle class="st6" cx="1524.3" cy="260.5" r="6.8"/>
	<path class="st6" d="M1740.1,255.6c2.7,18.6-10.2,35.9-28.8,38.6c-18.6,2.7-35.9-10.2-38.6-28.8c-0.2-1.6-0.3-3.2-0.3-4.8
		c0-1,0-1.9,0.1-2.8"/>
	<path class="st6" d="M1679.1,240.2c11.3-15.1,32.6-18.1,47.7-6.8c2.6,1.9,4.9,4.2,6.8,6.8"/>
	<path class="st6" d="M1735.9,254.8c3.3,16.3-7.3,32.2-23.6,35.5c-16.3,3.3-32.2-7.3-35.5-23.6c-0.4-2-0.6-3.9-0.6-5.9
		c0-1.5,0.1-3.1,0.3-4.6"/>
	<path class="st6" d="M1684.4,240.2c11.4-12.2,30.4-12.8,42.6-1.4c0.5,0.5,1,0.9,1.4,1.4"/>
	<circle class="st6" cx="1706.3" cy="260.5" r="6.8"/>
	<path class="st6" d="M1486,259.6h-2.6V248l3.9-7.8h104.2v-18.8h47.7v18.8h104l3.9,7.8v11.6h-2.6l-5.2-4.8h-9.7v-1.7h-10.2l-9.9-6
		h-6.6l-9.9,6h-10.2v1.8c0,0-4.9-0.3-17,5.9l-19.4,10h-62.2l-21.7-11.1c0,0-7-4.7-14.9-4.7v-1.8h-10.2l-9.9-6h-6.5l-9.9,6H1501v1.7
		h-9.7L1486,259.6z"/>
	<polyline class="st6" points="1500.1,254.8 1497.7,260.6 1497.7,265.6 1514.6,274.1 1534,274.1 1550.8,265.6 1550.8,260.6 
		1548.3,254.9 	"/>
	<polyline class="st6" points="1681.9,254.8 1679.6,260.6 1679.6,265.6 1696.4,274.1 1715.9,274.1 1732.7,265.6 1732.7,260.6 
		1730.2,254.9 	"/>
	<path class="st6" d="M1653.9,210.3v7.5c0,2-1.6,3.6-3.6,3.6c0,0,0,0,0,0h-70c-2,0-3.6-1.6-3.6-3.6l0,0v-7.5"/>
	<polyline class="st6" points="1555.6,210.3 1555.6,217.5 1576.7,217.5 	"/>
	<polyline class="st6" points="1675,210.3 1675,217.5 1653.9,217.5 	"/>
	<polyline class="st6" points="1586.1,270.7 1586.1,284.6 1590.2,284.6 1597.3,277.4 1597.3,275 1633.3,275 1633.3,277.4 
		1640.4,284.6 1644.5,284.6 1644.5,270.7 	"/>
	<path class="st6" d="M232.6,257.3c0.1,1.1,0.2,2.2,0.2,3.2c0.3,18.8-14.7,34.3-33.5,34.6c-18.8,0.3-34.3-14.7-34.6-33.5
		c0-0.4,0-0.8,0-1.2c0-1.7,0.1-3.4,0.4-5.1"/>
	<path class="st6" d="M171.5,240.2c11.3-15.1,32.6-18.1,47.7-6.8c2.6,1.9,4.9,4.2,6.8,6.8"/>
	<path class="st6" d="M228.5,255.8c0.3,1.6,0.4,3.3,0.4,4.9c0,16.6-13.5,30.1-30.1,30.1c-16.6,0-30.1-13.5-30.1-30.1
		c0-2,0.2-4,0.6-5.9"/>
	<path class="st6" d="M176.8,240.2c11.4-12.2,30.4-12.8,42.6-1.4c0.5,0.5,1,0.9,1.4,1.4"/>
	<circle class="st6" cx="198.7" cy="260.5" r="6.8"/>
	<path class="st6" d="M414.5,255.6c2.7,18.6-10.2,35.9-28.8,38.6c-18.6,2.7-35.9-10.2-38.6-28.8c-0.2-1.6-0.3-3.2-0.3-4.8
		c0-1,0-1.9,0.1-2.8"/>
	<path class="st6" d="M353.6,240.2c11.3-15.1,32.6-18.1,47.7-6.8c2.6,1.9,4.9,4.2,6.8,6.8"/>
	<path class="st6" d="M410.4,254.8c0.4,1.9,0.6,3.9,0.6,5.9c-0.3,16.6-14,29.9-30.7,29.6c-16.2-0.3-29.3-13.4-29.6-29.6
		c0-1.5,0.1-3.1,0.3-4.6"/>
	<path class="st6" d="M358.8,240.2c11.4-12.2,30.4-12.8,42.6-1.4c0.5,0.5,1,0.9,1.4,1.4"/>
	<circle class="st6" cx="380.8" cy="260.5" r="6.8"/>
	<path class="st6" d="M160.5,259.6h-2.6V248l3.9-7.8h104.2v-18.8h47.7v18.8h104l3.9,7.8v11.6h-2.6l-5.2-4.8H404v-1.7h-10.2l-9.9-6
		h-6.6l-9.9,6h-10.2v1.8c0,0-4.9-0.3-17,5.9l-19.4,10h-62.2L237,259.6c0,0-7-4.7-14.9-4.7v-1.8h-10.2l-9.9-6.1h-6.6l-9.9,6h-10.1
		v1.7h-9.7L160.5,259.6z"/>
	<polyline class="st6" points="174.5,254.8 172.2,260.6 172.2,265.6 189,274.1 208.5,274.1 225.3,265.6 225.3,260.6 222.8,254.9 	
		"/>
	<polyline class="st6" points="356.4,254.8 354.1,260.6 354.1,265.6 370.9,274.1 390.4,274.1 407.2,265.6 407.2,260.6 404.7,254.9 	
		"/>
	<path class="st6" d="M328.4,210.3v7.5c0,2-1.6,3.6-3.6,3.6h0h-70c-2,0-3.6-1.6-3.6-3.6l0,0v-7.5"/>
	<polyline class="st6" points="230.1,210.3 230.1,217.5 251.1,217.5 	"/>
	<polyline class="st6" points="349.5,210.3 349.5,217.5 328.4,217.5 	"/>
	<polyline class="st6" points="260.6,270.7 260.6,284.6 264.7,284.6 271.8,277.4 271.8,275 307.7,275 307.7,277.4 314.9,284.6 
		319,284.6 319,270.7 	"/>
	<polyline class="st6" points="67.5,225.5 67.5,242.1 141.9,242.1 141.9,225.5 	"/>
	<path class="st6" d="M33.5,93h23.2c2.4,0,4.4,2,4.4,4.4v46.2c0,2.4-2,4.4-4.4,4.4H33.5c-2.4,0-4.4-2-4.4-4.4V97.4
		C29.1,95,31.1,93,33.5,93z"/>
	<path class="st6" d="M87.5,96.9h34.4c2.4,0,4.4,2,4.4,4.4v39.4c0,2.4-2,4.4-4.4,4.4H87.5c-2.4,0-4.4-2-4.4-4.4v-39.4
		C83,98.9,85,96.9,87.5,96.9z"/>
	<path class="st6" d="M266,95.9h109.8c3.8,0,6.9,3.1,6.9,6.9v34.9c0,3.8-3.1,6.9-6.9,6.9H266c-3.8,0-6.9-3.1-6.9-6.9v-34.9
		C259.1,99,262.2,95.9,266,95.9z"/>
	<path class="st6" d="M155.6,92h1593.6c4,0,7.2,3.2,7.2,7.2v42.4c0,4-3.2,7.2-7.2,7.2H155.6c-4,0-7.2-3.2-7.2-7.2V99.2
		C148.4,95.2,151.6,92,155.6,92z"/>
	<path class="st6" d="M414.6,95.9h109.8c3.8,0,6.9,3.1,6.9,6.9v34.9c0,3.8-3.1,6.9-6.9,6.9H414.6c-3.8,0-6.9-3.1-6.9-6.9v-34.9
		C407.7,99,410.8,95.9,414.6,95.9z"/>
	<path class="st6" d="M563.2,95.9H673c3.8,0,6.9,3.1,6.9,6.9v34.9c0,3.8-3.1,6.9-6.9,6.9H563.2c-3.8,0-6.9-3.1-6.9-6.9v-34.9
		C556.3,99,559.4,95.9,563.2,95.9z"/>
	<path class="st6" d="M786,95.9h109.8c3.8,0,6.9,3.1,6.9,6.9v34.9c0,3.8-3.1,6.9-6.9,6.9H786c-3.8,0-6.9-3.1-6.9-6.9v-34.9
		C779.1,99,782.2,95.9,786,95.9z"/>
	<path class="st6" d="M934.6,95.9h109.8c3.8,0,6.9,3.1,6.9,6.9v34.9c0,3.8-3.1,6.9-6.9,6.9H934.6c-3.8,0-6.9-3.1-6.9-6.9v-34.9
		C927.7,99,930.8,95.9,934.6,95.9z"/>
	<path class="st6" d="M1083.2,95.9H1193c3.8,0,6.9,3.1,6.9,6.9v34.9c0,3.8-3.1,6.9-6.9,6.9h-109.8c-3.8,0-6.9-3.1-6.9-6.9v-34.9
		C1076.3,99,1079.4,95.9,1083.2,95.9z"/>
	<path class="st6" d="M1231.8,95.9h109.8c3.8,0,6.9,3.1,6.9,6.9v34.9c0,3.8-3.1,6.9-6.9,6.9h-109.8c-3.8,0-6.9-3.1-6.9-6.9v-34.9
		C1224.8,99,1228,95.9,1231.8,95.9z"/>
	<path class="st6" d="M1380.4,95.9h109.8c3.8,0,6.9,3.1,6.9,6.9v34.9c0,3.8-3.1,6.9-6.9,6.9h-109.8c-3.8,0-6.9-3.1-6.9-6.9v-34.9
		C1373.4,99,1376.5,95.9,1380.4,95.9z"/>
	<path class="st6" d="M1528.9,95.9h109.8c3.8,0,6.9,3.1,6.9,6.9v34.9c0,3.8-3.1,6.9-6.9,6.9h-109.8c-3.8,0-6.9-3.1-6.9-6.9v-34.9
		C1522,99,1525.1,95.9,1528.9,95.9z"/>
	<path class="st6" d="M74.8,64.3h59.8c3.6,0,6.5,2.9,6.5,6.5v154.7l0,0H68.2l0,0V70.8C68.2,67.2,71.2,64.3,74.8,64.3
		C74.8,64.3,74.8,64.3,74.8,64.3z"/>
	<polyline class="st6" points="1837.9,225.5 1837.9,242.1 1763.6,242.1 1763.6,225.5 	"/>
	<path class="st6" d="M1871.9,148.1h-23.2c-2.4,0-4.4-2-4.4-4.4V97.4c0-2.4,2-4.4,4.4-4.4h23.2c2.4,0,4.4,2,4.4,4.4v46.2
		C1876.3,146.1,1874.3,148.1,1871.9,148.1z"/>
	<path class="st6" d="M1818,145.1h-34.4c-2.4,0-4.4-2-4.4-4.4v-39.4c0-2.4,2-4.4,4.4-4.4h34.4c2.4,0,4.4,2,4.4,4.4v39.4
		C1822.4,143.2,1820.4,145.1,1818,145.1z"/>
	<path class="st6" d="M1837.2,225.5h-72.9l0,0V70.8c0-3.6,2.9-6.5,6.5-6.5l0,0h59.8c3.6,0,6.5,2.9,6.5,6.5v0L1837.2,225.5
		L1837.2,225.5L1837.2,225.5z"/>
	<rect x="4.1" y="205.5" class="st7" width="15.9" height="18.9"/>
	<rect x="1.9" y="199" class="st7" width="2.2" height="32"/>
	<rect x="1884.8" y="205.5" class="st7" width="15.9" height="18.9"/>
	<rect x="1900.6" y="199" class="st7" width="2.2" height="32"/>
	<rect x="613.6" y="225.4" class="st6" width="61.8" height="27"/>
	<rect x="688.9" y="225.4" class="st6" width="141.6" height="27"/>
	<rect x="873.3" y="225.4" class="st6" width="69.2" height="27"/>
	<rect x="1016" y="225.4" class="st6" width="171.9" height="27"/>
	<rect x="1243.9" y="225.4" class="st6" width="56.6" height="27"/>
</g>
</svg>
