<?xml version="1.0" encoding="utf-8"?>
<!-- Generator: Adobe Illustrator 22.0.1, SVG Export Plug-In . SVG Version: 6.00 Build 0)  -->
<svg version="1.1" id="Type_7" xmlns="http://www.w3.org/2000/svg" xmlns:xlink="http://www.w3.org/1999/xlink" x="0px" y="0px"
	 viewBox="0 0 1906.7 300" style="enable-background:new 0 0 1906.7 300;" xml:space="preserve">
<style type="text/css">
	.st0{fill:#B1B3B3;}
	.st1{fill:#212322;}
	.st2{fill:#DA291C;}
	.st3{fill:#333F48;}
	.st4{fill:#FA4616;}
	.st5{fill:#878787;}
	.st6{fill:none;stroke:#000000;stroke-width:2;stroke-linecap:round;stroke-linejoin:round;}
	.st7{fill:none;stroke:#000000;stroke-width:2;stroke-miterlimit:10;}
</style>
<title>171122_NT_illustrasjoner</title>
<metadata><?xpacket begin="﻿" id="W5M0MpCehiHzreSzNTczkc9d"?>
<x:xmpmeta xmlns:x="adobe:ns:meta/" x:xmptk="Adobe XMP Core 5.6-c143 79.161210, 2017/08/11-10:28:36        ">
   <rdf:RDF xmlns:rdf="http://www.w3.org/1999/02/22-rdf-syntax-ns#">
      <rdf:Description rdf:about=""
            xmlns:dc="http://purl.org/dc/elements/1.1/">
         <dc:title>
            <rdf:Alt>
               <rdf:li xml:lang="x-default">171122_NT_illustrasjoner</rdf:li>
            </rdf:Alt>
         </dc:title>
      </rdf:Description>
   </rdf:RDF>
</x:xmpmeta>
                                                                                                    
                                                                                                    
                                                                                                    
                                                                                                    
                                                                                                    
                                                                                                    
                                                                                                    
                                                                                                    
                                                                                                    
                                                                                                    
                                                                                                    
                                                                                                    
                                                                                                    
                                                                                                    
                                                                                                    
                                                                                                    
                                                                                                    
                                                                                                    
                                                                                                    
                                                                                                    
                           
<?xpacket end="w"?></metadata>
<g id="Farger">
	<g id="Grunnfarge">
		<polygon class="st0" points="21.3,12.8 1885.7,12.8 1885.7,91.2 22,91.2 		"/>
		<polygon class="st1" points="21.4,204.6 5.7,204.7 5.7,198.2 3.2,198.2 3.2,230.4 5.7,230.4 5.7,223.7 38.1,223.7 21.4,207.3 		
			"/>
		<rect x="1765.1" y="224.6" class="st1" width="74.4" height="16.6"/>
		<rect x="68.7" y="225" class="st1" width="74.4" height="16.6"/>
		<path class="st1" d="M1558.1,209.5v7.2h21.1c0,0,0.2,3.9,4.7,3.9h10.1v18.8h-39.9c0,0-4.3-7.1-15.3-11.5s-24-1.5-29.7,2.8
			s-8.8,6.7-9.6,8.7h-9.8l-3.9,7.8v11.6h2.6l5-4.5c0,0-4.4,13.5,7.4,27.6s28.6,11.8,28.6,11.8s17.9-0.5,26.7-16.8
			c0,0,5.2-5.9,4.5-20.4l26,13.4h1.9v13.9h4.1l7.1-7.3v-2.3h35.9v2.3l7.1,7.3h4.1V270h1.9l26-13c0,0-2.2,15.5,9.8,26.9
			s23.2,10.5,30.9,9.3s23.6-9,26.8-27.5c0.6-3.6,0.6-7.2,0.2-10.8l4.3,4h2.6v-11.7l-3.9-7.8h-9.7c0,0-5.3-7.8-14.3-11.1
			c-5.4-2-11.2-2.7-17-2.3c0,0-14.7,1.1-22.6,13.4h-40.5v-18.8h11.8c1.8-0.4,3-2,3-3.9h21.1v-7.2L1558.1,209.5z"/>
		<path class="st1" d="M231.3,209.5v7.2h21.1c0,0,0.2,3.9,4.7,3.9h10.1v18.8h-39.9c0,0-4.3-7.1-15.3-11.5s-24-1.5-29.7,2.8
			s-8.8,6.7-9.5,8.7H163l-3.9,7.8v11.6h2.6l5-4.5c0,0-4.4,13.5,7.4,27.6s28.6,11.8,28.6,11.8s17.9-0.5,26.7-16.8
			c0,0,5.2-5.9,4.5-20.4l26,13.4h1.9v13.9h4.1l7.1-7.3v-2.3H309v2.3l7.1,7.3h4.1V270h1.9l26-13c0,0-2.2,15.5,9.8,26.9
			s23.2,10.5,30.9,9.3s23.6-9,26.8-27.5c0.6-3.6,0.6-7.2,0.1-10.8l4.4,4h2.6v-11.7l-3.9-7.8h-9.7c0,0-5.3-7.8-14.3-11.1
			c-5.4-2-11.2-2.7-17-2.3c0,0-14.7,1.1-22.6,13.4h-40.6v-18.8h11.8c1.8-0.4,3-2,3-3.9h21.1v-7.2L231.3,209.5z"/>
		<rect x="614.3" y="224.6" class="st1" width="61.8" height="27"/>
		<rect x="689.6" y="224.6" class="st1" width="141.6" height="27"/>
		<rect x="874" y="224.6" class="st1" width="69.2" height="27"/>
		<rect x="1016.7" y="224.6" class="st1" width="171.9" height="27"/>
		<rect x="1244.6" y="224.6" class="st1" width="56.6" height="27"/>
		<path class="st1" d="M1886.3,204.7h15.9v-6.5h2.3c0,0,0.2,32,0,32h-2.3v-6.7h-32.5l16.6-17.2V204.7z"/>
	</g>
	<g id="Profilering">
		<polygon class="st2" points="1717.6,52.9 189.6,52.9 142.7,91.2 1764.6,91.2 		"/>
		<polygon class="st2" points="21.4,145.8 1885.7,145.8 1885.7,207.3 1869.9,223.6 1746.2,223.6 1734.6,209.5 1498.4,209.5 
			1486.1,224.8 420.1,224.8 408.4,209.5 173.3,209.5 160.6,224.8 38.3,224.8 21.4,207 		"/>
		<polygon class="st3" points="22,91.2 1886.4,91.2 1886.4,148 21.5,148 		"/>
		<rect x="21.7" y="178.7" class="st0" width="1864.7" height="6.7"/>
		<polygon class="st0" points="1886.8,199.2 1646.5,199.2 1519.6,68.1 393.6,68.1 266.7,199.2 21.2,199.2 21.2,195.8 265.3,195.8 
			392.1,64.7 1521,64.7 1647.9,195.8 1886.8,195.8 		"/>
	</g>
	<g id="Dører_og_vinduer">
		<rect x="69.7" y="13.3" class="st4" width="72.6" height="212.4"/>
		<path class="st5" d="M34.8,93h23.2c2.4,0,4.4,2,4.4,4.4v46.2c0,2.4-2,4.4-4.4,4.4H34.8c-2.4,0-4.4-2-4.4-4.4V97.4
			C30.3,95,32.3,93,34.8,93z"/>
		<path class="st5" d="M88.7,96.4h34.4c2.4,0,4.4,2,4.4,4.4v39.4c0,2.4-2,4.4-4.4,4.4H88.7c-2.4,0-4.4-2-4.4-4.4v-39.4
			C84.2,98.4,86.2,96.4,88.7,96.4z"/>
		<path class="st5" d="M267.1,95.1h109.8c3.8,0,6.9,3.1,6.9,6.9V137c0,3.8-3.1,6.9-6.9,6.9H267.1c-3.8,0-6.9-3.1-6.9-6.9V102
			C260.1,98.2,263.3,95.1,267.1,95.1z"/>
		<path class="st5" d="M415.6,95.1h109.8c3.8,0,6.9,3.1,6.9,6.9V137c0,3.8-3.1,6.9-6.9,6.9H415.6c-3.8,0-6.9-3.1-6.9-6.9V102
			C408.7,98.2,411.8,95.1,415.6,95.1z"/>
		<path class="st5" d="M564.2,95.1H674c3.8,0,6.9,3.1,6.9,6.9V137c0,3.8-3.1,6.9-6.9,6.9H564.2c-3.8,0-6.9-3.1-6.9-6.9V102
			C557.3,98.2,560.4,95.1,564.2,95.1z"/>
		<path class="st5" d="M788.5,95.1h109.8c3.8,0,6.9,3.1,6.9,6.9V137c0,3.8-3.1,6.9-6.9,6.9H788.5c-3.8,0-6.9-3.1-6.9-6.9V102
			C781.6,98.2,784.7,95.1,788.5,95.1z"/>
		<path class="st5" d="M935.7,95.1h109.8c3.8,0,6.9,3.1,6.9,6.9V137c0,3.8-3.1,6.9-6.9,6.9H935.7c-3.8,0-6.9-3.1-6.9-6.9V102
			C928.7,98.2,931.8,95.1,935.7,95.1z"/>
		<path class="st5" d="M1084.2,95.1H1194c3.8,0,6.9,3.1,6.9,6.9V137c0,3.8-3.1,6.9-6.9,6.9h-109.8c-3.8,0-6.9-3.1-6.9-6.9V102
			C1077.3,98.2,1080.4,95.1,1084.2,95.1z"/>
		<path class="st5" d="M1232.8,95.1h109.8c3.8,0,6.9,3.1,6.9,6.9V137c0,3.8-3.1,6.9-6.9,6.9h-109.8c-3.8,0-6.9-3.1-6.9-6.9V102
			C1225.9,98.2,1229,95.1,1232.8,95.1z"/>
		<path class="st5" d="M1381.4,95.1h109.8c3.8,0,6.9,3.1,6.9,6.9V137c0,3.8-3.1,6.9-6.9,6.9h-109.8c-3.8,0-6.9-3.1-6.9-6.9V102
			C1374.5,98.2,1377.6,95.1,1381.4,95.1z"/>
		<path class="st5" d="M1530,95.1h109.8c3.8,0,6.9,3.1,6.9,6.9V137c0,3.8-3.1,6.9-6.9,6.9H1530c-3.8,0-6.9-3.1-6.9-6.9V102
			C1523,98.2,1526.1,95.1,1530,95.1z"/>
		<rect x="1765.3" y="12.8" class="st4" width="72.6" height="212.4"/>
		<path class="st5" d="M1873.6,147.3h-23.2c-2.4,0-4.4-2-4.4-4.4V96.6c0-2.4,2-4.4,4.4-4.4h23.2c2.4,0,4.4,2,4.4,4.4v46.2
			C1878,145.3,1876,147.3,1873.6,147.3z"/>
		<path class="st5" d="M1819.2,144.4h-34.4c-2.4,0-4.4-2-4.4-4.4v-39.4c0-2.4,2-4.4,4.4-4.4h34.4c2.4,0,4.4,2,4.4,4.4v39.4
			C1823.6,142.4,1821.6,144.4,1819.2,144.4z"/>
	</g>
</g>
<g id="Omriss">
	<polygon class="st6" points="21.2,13.1 1886,13.1 1886,206.8 1868.9,223.9 1746.4,223.9 1734.6,209.7 1498.3,209.7 1486.4,225 
		420.9,225 408.9,209.7 172.7,209.7 160.9,225 39.4,225 21.2,207.5 	"/>
	<line class="st6" x1="21.2" y1="25.6" x2="1886" y2="25.6"/>
	<line class="st6" x1="1886" y1="32.9" x2="21.4" y2="32.9"/>
	<line class="st6" x1="21.4" y1="53.2" x2="1886" y2="53.2"/>
	<path class="st6" d="M1559.4,256.8c0.1,1.1,0.2,2.2,0.2,3.2c0.3,18.8-14.7,34.3-33.5,34.6c-18.8,0.3-34.3-14.7-34.6-33.5
		c0-0.4,0-0.8,0-1.2c0-1.7,0.1-3.4,0.4-5.1"/>
	<path class="st6" d="M1498.2,239.6c11.3-15.1,32.7-18.1,47.7-6.8c2.6,1.9,4.9,4.2,6.8,6.8"/>
	<path class="st6" d="M1555.2,255.3c0.3,1.6,0.4,3.3,0.4,4.9c0,16.6-13.5,30.1-30.1,30.1s-30.1-13.5-30.1-30.1c0-2,0.2-4,0.6-5.9"/>
	<path class="st6" d="M1503.5,239.6c11.4-12.1,30.4-12.8,42.6-1.4c0.5,0.4,0.9,0.9,1.4,1.4"/>
	<circle class="st6" cx="1525.5" cy="260" r="6.8"/>
	<path class="st6" d="M1741.3,255.1c0.2,1.6,0.4,3.3,0.4,4.9c0.3,18.8-14.7,34.3-33.5,34.6c-18.8,0.3-34.3-14.7-34.6-33.5
		c0-0.4,0-0.8,0-1.2c0-1,0-1.9,0.1-2.9"/>
	<path class="st6" d="M1680.3,239.6c11.3-15.1,32.6-18.1,47.7-6.8c2.6,1.9,4.9,4.2,6.8,6.8"/>
	<path class="st6" d="M1737.1,254.3c3.2,16.3-7.3,32.2-23.7,35.4c-16.3,3.2-32.2-7.3-35.4-23.7c-0.4-1.9-0.6-3.9-0.6-5.9
		c0-1.5,0.1-3.1,0.3-4.6"/>
	<path class="st6" d="M1685.6,239.6c11.4-12.2,30.4-12.8,42.6-1.4c0.5,0.5,1,0.9,1.4,1.4"/>
	<circle class="st6" cx="1707.6" cy="260" r="6.8"/>
	<path class="st6" d="M1487.2,259.1h-2.6v-11.6l3.9-7.8h104.2v-18.8h47.7v18.8h104l3.9,7.8v11.6h-2.6l-5.2-4.8h-9.7v-1.7h-10.2
		l-9.9-6h-6.6l-9.9,6H1684v1.7c0,0-4.9-0.3-17,5.9l-19.4,10h-62.2l-21.6-11.2c0,0-7-4.7-14.9-4.7v-1.7h-10.2l-9.9-6h-6.6l-9.9,6
		h-10.2v1.7h-9.7L1487.2,259.1z"/>
	<polyline class="st6" points="1501.3,254.3 1498.9,260.1 1498.9,265.1 1515.8,273.6 1535.2,273.6 1552.1,265.1 1552.1,260.1 
		1549.6,254.4 	"/>
	<polyline class="st6" points="1683.2,254.3 1680.8,260.1 1680.8,265.1 1697.7,273.6 1717.1,273.6 1733.9,265.1 1733.9,260.1 
		1731.4,254.4 	"/>
	<path class="st6" d="M1655.2,209.7v7.5c0,2-1.6,3.6-3.6,3.6l0,0h-70c-2,0-3.6-1.6-3.7-3.6c0,0,0,0,0,0v-7.5"/>
	<polyline class="st6" points="1556.8,209.7 1556.8,217 1577.9,217 	"/>
	<polyline class="st6" points="1676.2,209.7 1676.2,217 1655.2,217 	"/>
	<polyline class="st6" points="1587.3,270.2 1587.3,284.1 1591.4,284.1 1598.6,276.9 1598.6,274.5 1634.5,274.5 1634.5,276.9 
		1641.6,284.1 1645.7,284.1 1645.7,270.2 	"/>
	<path class="st6" d="M233.9,256.8c0.1,1,0.1,2.1,0.1,3.2c0.3,18.8-14.7,34.3-33.5,34.6c-18.8,0.3-34.3-14.7-34.6-33.5
		c0-0.4,0-0.8,0-1.2c0-1.7,0.1-3.4,0.4-5.1"/>
	<path class="st6" d="M172.7,239.6c11.3-15.1,32.6-18.1,47.7-6.8c2.6,1.9,4.9,4.2,6.8,6.8"/>
	<path class="st6" d="M229.7,255.3c0.3,1.6,0.4,3.3,0.4,4.9c0.3,16.6-12.9,30.4-29.6,30.7s-30.4-12.9-30.7-29.6c0-0.4,0-0.7,0-1.1
		c0-2,0.2-4,0.6-5.9"/>
	<path class="st6" d="M178,239.6c11.4-12.1,30.4-12.8,42.6-1.4c0.5,0.4,0.9,0.9,1.4,1.4"/>
	<circle class="st6" cx="200" cy="260" r="6.8"/>
	<path class="st6" d="M415.8,255.1c0.2,1.6,0.4,3.3,0.4,4.9c0.3,18.8-14.7,34.3-33.5,34.6c-18.8,0.3-34.3-14.7-34.6-33.5
		c0-0.4,0-0.8,0-1.2c0-1,0-1.9,0.1-2.9"/>
	<path class="st6" d="M354.8,239.6c11.3-15.1,32.7-18.1,47.7-6.8c2.6,1.9,4.9,4.2,6.8,6.8"/>
	<path class="st6" d="M411.6,254.3c0.4,1.9,0.6,3.9,0.6,5.9c0,16.6-13.5,30.1-30.1,30.1s-30.1-13.5-30.1-30.1c0-1.5,0.1-3.1,0.3-4.6
		"/>
	<path class="st6" d="M360.1,239.6c11.4-12.1,30.4-12.8,42.6-1.4c0.5,0.4,0.9,0.9,1.4,1.4"/>
	<circle class="st6" cx="382" cy="260" r="6.8"/>
	<path class="st6" d="M161.7,259.1h-2.6v-11.6l3.9-7.8h104.2v-18.8h47.7v18.8h104l3.9,7.8v11.6h-2.6l-5.2-4.8h-9.7v-1.7H395l-9.9-6
		h-6.6l-9.9,6h-10.2v1.7c0,0-4.9-0.3-17,5.9l-19.4,10h-62.2l-21.7-11.2c0,0-6.9-4.7-14.9-4.7v-1.7h-10.2l-9.9-6h-6.6l-9.9,6h-10.2
		v1.7H167L161.7,259.1z"/>
	<polyline class="st6" points="175.8,254.3 173.4,260.1 173.4,265.1 190.2,273.6 209.7,273.6 226.5,265.1 226.5,260.1 224,254.4 	
		"/>
	<polyline class="st6" points="357.6,254.3 355.3,260.1 355.3,265.1 372.1,273.6 391.6,273.6 408.4,265.1 408.4,260.1 405.9,254.4 	
		"/>
	<path class="st6" d="M329.6,209.7v7.5c0,2-1.6,3.6-3.6,3.6h0h-70c-2,0-3.6-1.6-3.6-3.6l0,0v-7.5"/>
	<polyline class="st6" points="231.3,209.7 231.3,217 252.4,217 	"/>
	<polyline class="st6" points="350.7,209.7 350.7,217 329.6,217 	"/>
	<polyline class="st6" points="261.8,270.2 261.8,284.1 265.9,284.1 273,276.9 273,274.5 309,274.5 309,276.9 316.1,284.1 
		320.2,284.1 320.2,270.2 	"/>
	<polyline class="st6" points="68.7,225 68.7,241.6 143.1,241.6 143.1,225 	"/>
	<path class="st6" d="M34.8,92.5h23.2c2.4,0,4.4,2,4.4,4.4v46.2c0,2.4-2,4.4-4.4,4.4H34.8c-2.4,0-4.4-2-4.4-4.4V96.9
		C30.3,94.5,32.3,92.5,34.8,92.5z"/>
	<path class="st6" d="M88.7,96.4h34.4c2.4,0,4.4,2,4.4,4.4v39.4c0,2.4-2,4.4-4.4,4.4H88.7c-2.4,0-4.4-2-4.4-4.4v-39.4
		C84.2,98.4,86.2,96.4,88.7,96.4z"/>
	<path class="st6" d="M267.3,95.4H377c3.8,0,6.9,3.1,6.9,6.9v34.9c0,3.8-3.1,6.9-6.9,6.9H267.3c-3.8,0-6.9-3.1-6.9-6.9v-34.9
		C260.3,98.5,263.4,95.4,267.3,95.4z"/>
	<path class="st6" d="M156.8,91.2h1593.6c4,0,7.2,3.2,7.2,7.2v42.4c0,4-3.2,7.2-7.2,7.2H156.8c-4,0-7.2-3.2-7.2-7.2V98.4
		C149.6,94.4,152.8,91.2,156.8,91.2z"/>
	<path class="st6" d="M415.8,95.4h109.8c3.8,0,6.9,3.1,6.9,6.9v34.9c0,3.8-3.1,6.9-6.9,6.9H415.8c-3.8,0-6.9-3.1-6.9-6.9v-34.9
		C408.9,98.5,412,95.4,415.8,95.4z"/>
	<path class="st6" d="M564.4,95.4h109.8c3.8,0,6.9,3.1,6.9,6.9v34.9c0,3.8-3.1,6.9-6.9,6.9H564.4c-3.8,0-6.9-3.1-6.9-6.9v-34.9
		C557.5,98.5,560.6,95.4,564.4,95.4z"/>
	<path class="st6" d="M787.3,95.4h109.8c3.8,0,6.9,3.1,6.9,6.9v34.9c0,3.8-3.1,6.9-6.9,6.9H787.3c-3.8,0-6.9-3.1-6.9-6.9v-34.9
		C780.3,98.5,783.5,95.4,787.3,95.4z"/>
	<path class="st6" d="M935.8,95.4h109.8c3.8,0,6.9,3.1,6.9,6.9v34.9c0,3.8-3.1,6.9-6.9,6.9H935.8c-3.8,0-6.9-3.1-6.9-6.9v-34.9
		C928.9,98.5,932,95.4,935.8,95.4z"/>
	<path class="st6" d="M1084.4,95.4h109.8c3.8,0,6.9,3.1,6.9,6.9v34.9c0,3.8-3.1,6.9-6.9,6.9h-109.8c-3.8,0-6.9-3.1-6.9-6.9v-34.9
		C1077.5,98.5,1080.6,95.4,1084.4,95.4z"/>
	<path class="st6" d="M1233,95.4h109.8c3.8,0,6.9,3.1,6.9,6.9v34.9c0,3.8-3.1,6.9-6.9,6.9H1233c-3.8,0-6.9-3.1-6.9-6.9v-34.9
		C1226.1,98.5,1229.2,95.4,1233,95.4z"/>
	<path class="st6" d="M1381.6,95.4h109.8c3.8,0,6.9,3.1,6.9,6.9v34.9c0,3.8-3.1,6.9-6.9,6.9h-109.8c-3.8,0-6.9-3.1-6.9-6.9v-34.9
		C1374.7,98.5,1377.8,95.4,1381.6,95.4z"/>
	<path class="st6" d="M1530.2,95.4h109.8c3.8,0,6.9,3.1,6.9,6.9v34.9c0,3.8-3.1,6.9-6.9,6.9h-109.8c-3.8,0-6.9-3.1-6.9-6.9v-34.9
		C1523.2,98.5,1526.3,95.4,1530.2,95.4z"/>
	<path class="st6" d="M76,63.8h59.8c3.6,0,6.5,2.9,6.5,6.5v154.7l0,0H69.5l0,0V70.3C69.5,66.7,72.4,63.8,76,63.8
		C76,63.8,76,63.8,76,63.8z"/>
	<polyline class="st6" points="1839.2,225 1839.2,241.6 1764.8,241.6 1764.8,225 	"/>
	<path class="st6" d="M1873.1,147.6h-23.2c-2.4,0-4.4-2-4.4-4.4V96.9c0-2.4,2-4.4,4.4-4.4h23.2c2.4,0,4.4,2,4.4,4.4v46.2
		C1877.5,145.6,1875.6,147.6,1873.1,147.6z"/>
	<path class="st6" d="M1819.2,144.6h-34.4c-2.4,0-4.4-2-4.4-4.4v-39.4c0-2.4,2-4.4,4.4-4.4h34.4c2.4,0,4.4,2,4.4,4.4v39.4
		C1823.6,142.7,1821.6,144.6,1819.2,144.6z"/>
	<path class="st6" d="M1838.4,225h-72.9l0,0V70.3c0-3.6,2.9-6.5,6.5-6.5l0,0h59.8c3.6,0,6.5,2.9,6.5,6.5v0L1838.4,225L1838.4,225z"
		/>
	<polyline class="st7" points="38.3,223.9 5.3,223.9 5.3,205 21.2,205 	"/>
	<rect x="3.2" y="198.3" class="st7" width="2.2" height="32"/>
	<polyline class="st7" points="1868.9,223.9 1901.9,223.9 1901.9,205 1886,205 	"/>
	<rect x="1901.9" y="198.5" class="st7" width="2.2" height="32"/>
	<rect x="614.3" y="225.3" class="st6" width="61.8" height="27"/>
	<rect x="689.6" y="225.3" class="st6" width="141.6" height="27"/>
	<rect x="874" y="225.3" class="st6" width="69.2" height="27"/>
	<rect x="1016.7" y="225.3" class="st6" width="171.9" height="27"/>
	<rect x="1244.6" y="225.3" class="st6" width="56.6" height="27"/>
</g>
</svg>
