<?xml version="1.0" encoding="utf-8"?>
<!-- Generator: Adobe Illustrator 22.0.1, SVG Export Plug-In . SVG Version: 6.00 Build 0)  -->
<svg version="1.1" id="Type_73_B" xmlns="http://www.w3.org/2000/svg" xmlns:xlink="http://www.w3.org/1999/xlink" x="0px" y="0px"
	 viewBox="0 0 1947 428" style="enable-background:new 0 0 1947 428;" xml:space="preserve">
<style type="text/css">
	.st0{fill:#212322;}
	.st1{fill:#C7C9C7;}
	.st2{fill:#333F48;}
	.st3{fill:#444445;}
	.st4{fill:#DA291C;}
	.st5{fill:#101820;}
	.st6{fill:#B1B3B3;}
	.st7{fill:#58595B;}
	.st8{fill:#878787;}
	.st9{fill:#FA4616;}
</style>
<g id="Mål_8_">
</g>
<g>
	<g id="Farger_8_">
		<g id="Grunnfarge_4_">
			<g>
				<path class="st0" d="M1589,347.5c0,0-7.9,14.4-10.2,17.6c-2.3,3.2-15.2,29.8-15.2,29.8s1.4,22.3,20.5,29.9
					c19.1,7.6,33.3,0.5,43.2-12.1c9.9-12.6,3.7-30.3,3.7-30.3s5.9,1.1,7.7,3.2c1.8,2.1,13.4,15.5,13.4,15.5s2.7,2.8,7.8,2.8
					s81,0,81,0s2,0.9,7.5-5.3c5.5-6.2,10.5-11.9,10.5-11.9s2.8-2.7,5.9-3.5c3.1-0.8,3.1-0.8,3.1-0.8s-6.1,15.1,3.1,29
					c9.3,13.9,23.7,20.3,41.9,14.4c18.2-5.9,21.9-23.9,22.3-32.3c0.3-8.5-21.5-45.9-21.5-45.9H1589L1589,347.5L1589,347.5z"/>
			</g>
			<g>
				<polygon class="st1" points="50.2,148.6 50.2,406.4 154.6,406.4 186.6,347.5 411.2,347.5 442.5,409.8 1555.1,409.8 1589,347.5 
					1813.7,347.5 1842.9,406.4 1946.6,406.4 1946.6,148.6 				"/>
			</g>
			<g>
				<polygon class="st2" points="1842.9,406.4 1946.6,406.4 1946.6,354.3 1816.2,354.3 				"/>
			</g>
			<g>
				<polygon class="st2" points="1585.2,354 1555.1,409.8 442.5,409.8 413.9,354 				"/>
			</g>
			<g>
				<polygon class="st2" points="50.2,406.4 154.6,406.4 182.8,354.3 50,354.3 				"/>
			</g>
			<g>
				<polygon class="st3" points="0,180.9 6.9,173.8 13,181.4 19,173.9 25.2,181.4 31.2,173.9 37.3,181.5 43.4,173.9 50.1,181.4 
					49.8,374.7 43.7,382.3 37.6,374.7 31.5,382.3 25.3,374.9 19.3,382.3 13.2,375 6.9,382.3 0,375.3 				"/>
			</g>
			<g>
				<path class="st0" d="M411.2,347.5H186.6c0,0-7.9,14.4-10.2,17.6c-2.3,3.2-15.2,29.8-15.2,29.8s1.4,22.3,20.5,29.9
					c19.1,7.5,33.3,0.5,43.2-12.1c9.9-12.7,3.7-30.3,3.7-30.3s7,0.5,8.9,2.6c1.9,2.1,12.9,15.4,12.9,15.4s1.5,2.5,4.9,3.3v4.7
					c0,0,0,1-1.3,1.5c-1.3,0.5-5.3,2-5.3,2s-0.2,1.9,0.8,2.3c1,0.3,3.1,1.5,10.2,1.5c7.2,0,37.4,0,37.4,0h4.6c0,0,25.3,0,32.5,0
					c7.2,0,9.2-1.2,10.2-1.5c1-0.3,0.8-2.3,0.8-2.3s-3.9-1.5-5.3-2c-1.3-0.5-1.3-1.5-1.3-1.5V404c0.8,0,2.9-0.6,7.1-5.4
					c5.5-6.2,10.5-11.9,10.5-11.9s2.8-2.7,5.9-3.5c3.1-0.8,3.1-0.8,3.1-0.8s-6.1,15.1,3.1,29c9.3,13.9,23.7,20.3,41.9,14.4
					c18.2-5.9,21.9-23.9,22.3-32.3C433.1,385,411.2,347.5,411.2,347.5z"/>
			</g>
		</g>
		<g id="Profilering_8_">
			<g>
				<polygon class="st4" points="75.1,354 182.8,354.3 186.6,347.5 411.1,347.5 413.9,354 1585.2,354 1588.5,348.2 1812.8,348.2 
					1816.2,354.3 1946.6,354.3 1946.6,198.4 50,198.4 50,354 				"/>
			</g>
			<g>
				<polygon class="st5" points="83.6,219.6 50,219.6 50,295.2 1946.6,295.2 1946.6,219.6 				"/>
			</g>
			<g>
				<g>
					<rect x="50" y="326.1" class="st6" width="1896.5" height="6.7"/>
				</g>
			</g>
			<g>
				<g>
					<rect x="50.3" y="209.9" class="st6" width="1896.2" height="3.4"/>
				</g>
			</g>
		</g>
		<g id="Dører_og_vinduer_7_">
			<g>
				<rect x="200.2" y="224" class="st7" width="104.6" height="65.9"/>
			</g>
			<g>
				<path class="st8" d="M295.6,283.9h-86c-2.4,0-4.3-1.9-4.3-4.3v-45.7c0-2.4,1.9-4.3,4.3-4.3h86c2.4,0,4.3,1.9,4.3,4.3v45.7
					C299.9,282,298,283.9,295.6,283.9z"/>
			</g>
			<g>
				<rect x="335.2" y="224" class="st7" width="104.6" height="65.9"/>
			</g>
			<g>
				<path class="st8" d="M430.5,283.9h-86c-2.4,0-4.3-1.9-4.3-4.3v-45.7c0-2.4,1.9-4.3,4.3-4.3h86c2.4,0,4.3,1.9,4.3,4.3v45.7
					C434.8,282,432.9,283.9,430.5,283.9z"/>
			</g>
			<g>
				<rect x="742.2" y="222.1" class="st7" width="104.6" height="65.9"/>
			</g>
			<g>
				<path class="st8" d="M837.5,282.7h-86c-2.4,0-4.3-1.9-4.3-4.3v-45.7c0-2.4,1.9-4.3,4.3-4.3h86c2.4,0,4.3,1.9,4.3,4.3v45.7
					C841.8,280.8,839.9,282.7,837.5,282.7z"/>
			</g>
			<g>
				<rect x="1151.7" y="222.1" class="st7" width="104.6" height="65.9"/>
			</g>
			<g>
				<rect x="1009.7" y="221.8" class="st8" width="104.6" height="65.9"/>
			</g>
			<g>
				<rect x="876.1" y="222.1" class="st8" width="104.6" height="65.9"/>
			</g>
			<g>
				<path class="st8" d="M1247.2,282.8h-86c-2.4,0-4.3-1.9-4.3-4.3v-45.7c0-2.4,1.9-4.3,4.3-4.3h86c2.4,0,4.3,1.9,4.3,4.3v45.7
					C1251.5,280.9,1249.5,282.8,1247.2,282.8z"/>
			</g>
			<g>
				<rect x="1561.6" y="222.1" class="st7" width="104.6" height="65.9"/>
			</g>
			<g>
				<path class="st8" d="M1656.9,282.2h-86c-2.4,0-4.3-1.9-4.3-4.3v-45.6c0-2.4,1.9-4.3,4.3-4.3h86c2.4,0,4.3,1.9,4.3,4.3V278
					C1661.2,280.3,1659.3,282.2,1656.9,282.2z"/>
			</g>
			<g>
				<rect x="1697.4" y="222.1" class="st7" width="104.6" height="65.9"/>
			</g>
			<g>
				<path class="st8" d="M1791.7,282.2h-86c-2.4,0-4.3-1.9-4.3-4.3v-45.6c0-2.4,1.9-4.3,4.3-4.3h86c2.4,0,4.3,1.9,4.3,4.3V278
					C1796,280.3,1794.1,282.2,1791.7,282.2z"/>
			</g>
			<g>
				<path class="st4" d="M1475.2,369.2h-98h-2.2c-2.4,0-4.3-1.9-4.3-4.3v-159c0-2.4,1.9-4.3,4.3-4.3h103.1c2.4,0,4.3,1.9,4.3,4.3
					v159c0,2.4-1.9,4.3-4.3,4.3H1475.2z"/>
			</g>
			<g>
				<rect x="1379.6" y="222.8" class="st8" width="94" height="64.6"/>
			</g>
			<g>
				<path class="st7" d="M1379.6,223.4v-8.9c0-3.7,3-6.6,6.6-6.6h80.8c3.7,0,6.6,3,6.6,6.6v8.9H1379.6z"/>
			</g>
			<g>
				<path class="st7" d="M1379.6,287.4v8.9c0,3.7,3,6.6,6.6,6.6h80.8c3.7,0,6.6-3,6.6-6.6v-8.9H1379.6z"/>
			</g>
			<g>
				<path class="st9" d="M523.6,369.8v25.4h98v-25.4h2.2c2.4,0,4.3-1.9,4.3-4.3v-159c0-2.4-1.9-4.3-4.3-4.3H520.6
					c-2.4,0-4.3,1.9-4.3,4.3v159c0,2.4,1.9,4.3,4.3,4.3H523.6z"/>
			</g>
			<g>
				<rect x="533.6" y="225" class="st8" width="87.6" height="65.1"/>
			</g>
			<g>
				<rect x="112.3" y="222.9" class="st7" width="56.7" height="65.9"/>
			</g>
			<g>
				<path class="st8" d="M120.9,282.9h38.7c2.4,0,4.3-1.9,4.3-4.3v-45.7c0-2.4-1.9-4.3-4.3-4.3h-38.7c-2.4,0-4.3,1.9-4.3,4.3v45.7
					C116.6,281,118.6,282.9,120.9,282.9z"/>
			</g>
		</g>
	</g>
	<g id="Omriss_8_">
		<g>
			<path d="M305.5,289.1H198.8v-67.9h106.6V289.1z M200.8,287.1h102.6v-63.9H200.8V287.1z"/>
		</g>
		<g>
			<path d="M295.2,283.1h-86c-3,0-5.3-2.3-5.3-5.3v-45.7c0-3,2.3-5.3,5.3-5.3h86c3,0,5.3,2.3,5.3,5.3v45.7
				C300.5,280.8,298.1,283.1,295.2,283.1z M209.1,228.8c-1.9,0-3.3,1.4-3.3,3.3v45.7c0,1.9,1.4,3.3,3.3,3.3h86
				c1.9,0,3.3-1.4,3.3-3.3v-45.7c0-1.9-1.4-3.3-3.3-3.3H209.1z"/>
		</g>
		<g>
			<path d="M170.6,289.1h-59v-67.9h59V289.1z M113.6,287.1h55v-63.9h-55V287.1z"/>
		</g>
		<g>
			<path d="M160.3,283.1h-38.4c-3,0-5.3-2.3-5.3-5.3v-45.7c0-3,2.3-5.3,5.3-5.3h38.4c3,0,5.3,2.3,5.3,5.3v45.7
				C165.6,280.7,163.2,283.1,160.3,283.1z M121.9,228.8c-1.9,0-3.3,1.4-3.3,3.3v45.7c0,1.9,1.4,3.3,3.3,3.3h38.4
				c1.8,0,3.3-1.5,3.3-3.3v-45.7c0-1.9-1.4-3.3-3.3-3.3H121.9z"/>
		</g>
		<g>
			<path d="M440.4,289.1H333.8v-67.9h106.6V289.1z M335.8,287.1h102.6v-63.9H335.8V287.1z"/>
		</g>
		<g>
			<path d="M430.1,283.1h-86c-3,0-5.3-2.3-5.3-5.3v-45.7c0-3,2.3-5.3,5.3-5.3h86c3,0,5.3,2.3,5.3,5.3v45.7
				C435.4,280.8,433.1,283.1,430.1,283.1z M344.1,228.8c-1.9,0-3.3,1.4-3.3,3.3v45.7c0,1.9,1.4,3.3,3.3,3.3h86
				c1.9,0,3.3-1.4,3.3-3.3v-45.7c0-1.9-1.5-3.3-3.3-3.3H344.1z"/>
		</g>
		<g>
			<path d="M847.2,289.1H740.5v-67.9h106.6V289.1z M742.6,287.1h102.6v-63.9H742.6V287.1z"/>
		</g>
		<g>
			<path d="M981,289.1H874.4v-67.9H981V289.1z M876.4,287.1H979v-63.9H876.4V287.1z"/>
		</g>
		<g>
			<path d="M1114.8,289.1h-106.6v-67.9h106.6V289.1z M1010.2,287.1h102.6v-63.9h-102.6V287.1z"/>
		</g>
		<g>
			<path d="M837,283.1h-86c-3,0-5.3-2.3-5.3-5.3v-45.7c0-3,2.3-5.3,5.3-5.3h86c3,0,5.3,2.3,5.3,5.3v45.7
				C842.3,280.7,839.9,283.1,837,283.1z M751,228.8c-1.9,0-3.3,1.4-3.3,3.3v45.7c0,1.9,1.5,3.3,3.3,3.3h86c1.8,0,3.3-1.5,3.3-3.3
				v-45.7c0-1.9-1.4-3.3-3.3-3.3H751z"/>
		</g>
		<g>
			<path d="M1256.9,289.1h-106.6v-67.9h106.6V289.1z M1152.2,287.1h102.6v-63.9h-102.6V287.1z"/>
		</g>
		<g>
			<path d="M1246.6,283.1h-86c-3,0-5.3-2.3-5.3-5.3v-45.7c0-3,2.3-5.3,5.3-5.3h86c3,0,5.3,2.3,5.3,5.3v45.7
				C1251.9,280.8,1249.5,283.1,1246.6,283.1z M1160.5,228.8c-1.9,0-3.3,1.4-3.3,3.3v45.7c0,1.9,1.4,3.3,3.3,3.3h86
				c1.9,0,3.3-1.4,3.3-3.3v-45.7c0-1.9-1.4-3.3-3.3-3.3H1160.5z"/>
		</g>
		<g>
			<path d="M1666.7,289.1h-106.6v-67.9h106.6V289.1z M1562.1,287.1h102.6v-63.9h-102.6V287.1z"/>
		</g>
		<g>
			<path d="M1656.4,283.1h-86c-3,0-5.3-2.3-5.3-5.3v-45.7c0-3,2.3-5.3,5.3-5.3h86c3,0,5.3,2.3,5.3,5.3v45.7
				C1661.7,280.8,1659.4,283.1,1656.4,283.1z M1570.4,228.8c-1.9,0-3.3,1.4-3.3,3.3v45.7c0,1.9,1.4,3.3,3.3,3.3h86
				c1.9,0,3.3-1.4,3.3-3.3v-45.7c0-1.9-1.4-3.3-3.3-3.3H1570.4z"/>
		</g>
		<g>
			<path d="M1802.5,289.1h-106.6v-67.9h106.6V289.1z M1697.9,287.1h102.6v-63.9h-102.6V287.1z"/>
		</g>
		<g>
			<path d="M1792.2,283.1h-86c-3,0-5.3-2.3-5.3-5.3v-45.7c0-3,2.3-5.3,5.3-5.3h86c3,0,5.3,2.3,5.3,5.3v45.7
				C1797.5,280.8,1795.1,283.1,1792.2,283.1z M1706.2,228.8c-1.9,0-3.3,1.4-3.3,3.3v45.7c0,1.9,1.4,3.3,3.3,3.3h86
				c1.9,0,3.3-1.4,3.3-3.3v-45.7c0-1.9-1.4-3.3-3.3-3.3H1706.2z"/>
		</g>
		<g>
			<path d="M339.3,404h-83.5c-2.2,0-4.1-0.9-5.4-2.5l-14.2-16.2c-0.7-0.8-1.6-1.3-2.6-1.6l-25-6.4c-0.3-0.1-0.7-0.2-0.9-0.2
				l-24.6-1.5l-0.2-12h40.4c2,0,3.8,0.6,5.4,1.8l20,9.3c1.2,1,2.7,1.5,4.3,1.5h88.2c1.6,0,3.2-0.6,4.4-1.6l0.2-0.1l18.5-8.9
				c1.7-1.3,3.6-1.9,5.5-1.9h40.3v11.2l-23.4,1.5c-0.4,0-0.6,0.1-0.9,0.2l-0.2,0.1l-24.5,7.1c-1.1,0.3-1.9,1-2.5,1.5l-14,16.2
				C343.3,403.1,341.3,404,339.3,404z M207.8,375.2c0.4,0,0.8,0.1,1.3,0.2l25,6.4c1.4,0.3,2.6,1.1,3.6,2.2l14.2,16.2
				c0.9,1.1,2.3,1.8,3.8,1.8h83.5c1.5,0,2.9-0.6,4-1.8l14-16.2c0.8-0.8,1.9-1.7,3.4-2.1l11.6-3.4l12.8-3.7c0.5-0.2,1.1-0.4,1.7-0.4
				l21.5-1.3v-7.4h-38.3c-1.5,0-3.1,0.5-4.4,1.6l-0.2,0.1l-18.5,8.8c-1.5,1.3-3.5,2-5.5,2H253c-2,0-3.8-0.6-5.4-1.8l-20-9.3
				c-1.2-1-2.7-1.5-4.3-1.5H185l0.2,8.2L207.8,375.2C207.8,375.2,207.8,375.2,207.8,375.2z"/>
		</g>
		<g>
			<path d="M398,401.2c-4.7,0-8.6-3.9-8.6-8.6s3.9-8.6,8.6-8.6c4.7,0,8.6,3.9,8.6,8.6S402.7,401.2,398,401.2z M398,386
				c-3.6,0-6.6,3-6.6,6.6c0,3.6,3,6.6,6.6,6.6c3.6,0,6.6-3,6.6-6.6C404.6,389,401.6,386,398,386z"/>
		</g>
		<g>
			<path d="M202.5,365.7c-2.3-0.5-4.4-0.8-6.5-0.8c-2.1,0-4.3,0.3-6.5,0.8l-0.5-1.9c2.3-0.5,4.7-0.8,6.9-0.8c2.2,0,4.5,0.3,6.9,0.8
				L202.5,365.7z"/>
		</g>
		<g>
			<polygon points="348.1,360.2 328.6,360.2 318.5,353.9 275.4,353.9 264.8,359.8 263.9,358 274.9,351.9 319,351.9 329.1,358.2 
				346.1,358.2 346.1,347.1 348.1,347.1 			"/>
		</g>
		<g>
			<polygon points="352.9,372.2 350.9,372.2 350.9,356.6 346.2,347.6 348,346.6 352.9,356.1 			"/>
		</g>
		<g>
			<polygon points="252.3,376 250.3,376 250.3,371.1 265.6,371.1 263.5,359.9 246.6,359.9 246.6,346.7 248.6,346.7 248.6,357.9 
				265.2,357.9 268.1,373.1 252.3,373.1 			"/>
		</g>
		<g>
			<rect x="338.7" y="357.9" transform="matrix(0.867 -0.4983 0.4983 0.867 -138.155 218.1725)" width="2" height="20.1"/>
		</g>
		<g>
			<path d="M398.1,428.2c-19.7,0-35.7-16-35.7-35.6c0-4,0.6-7.7,1.9-11.2l1.9,0.7c-1.2,3.3-1.7,6.8-1.7,10.6
				c0,18.5,15.1,33.6,33.7,33.6c18.5,0,33.6-15.1,33.6-33.6c0-0.3,0-0.7,0-1c0-0.4-0.1-0.7-0.1-1.1h2c0,0.3,0,0.7,0,1
				c0,0.4,0.1,0.7,0.1,1.1C433.7,412.3,417.7,428.2,398.1,428.2z"/>
		</g>
		<g>
			<path d="M419.2,366.5c-6.1-5-13.4-7.6-21.3-7.6c-7.2,0-14.2,2.3-20.1,6.7l-1.2-1.6c6.3-4.6,13.6-7.1,21.3-7.1
				c8.3,0,16.1,2.8,22.5,8L419.2,366.5z"/>
		</g>
		<g>
			<path d="M404.6,365.8c-2.3-0.5-4.5-0.8-6.6-0.8c-2.2,0-4.3,0.2-6.6,0.8l-0.4-2c2.5-0.6,4.7-0.8,7-0.8c2.3,0,4.6,0.3,7,0.8
				L404.6,365.8z"/>
		</g>
		<g>
			<path d="M398,422.2c-16.3,0-29.6-13.3-29.6-29.6c0-4.8,1.1-9.5,3.3-13.6l1.8,0.9c-2,3.7-3.1,8.1-3.1,12.6
				c0,15.2,12.4,27.6,27.6,27.6c15.2,0,27.6-12.4,27.6-27.6c0-11.1-6.6-21.1-16.8-25.4l0.8-1.8c10.9,4.6,18,15.3,18,27.2
				C427.6,408.9,414.3,422.2,398,422.2z"/>
		</g>
		<g>
			<path d="M195.5,401.3c-4.7,0-8.6-3.9-8.6-8.6s3.9-8.6,8.6-8.6c4.7,0,8.6,3.9,8.6,8.6S200.3,401.3,195.5,401.3z M195.5,386.1
				c-3.6,0-6.6,3-6.6,6.6c0,3.6,3,6.6,6.6,6.6s6.6-3,6.6-6.6C202.1,389.1,199.2,386.1,195.5,386.1z"/>
		</g>
		<g>
			<path d="M215.6,365.6L215.6,365.6c-0.1-0.1-0.1-0.1-0.1-0.1l-0.1-0.1c-5.7-4.2-12.5-6.4-19.8-6.4c-6.3,0-12.5,1.8-17.9,5.1
				l-1.1-1.7c5.7-3.6,12.3-5.5,18.9-5.5c7.7,0,14.9,2.3,20.9,6.8c0.3,0.2,0.5,0.3,0.6,0.4L215.6,365.6z"/>
		</g>
		<g>
			<path d="M195.5,428.3c-19.4,0-35.4-15.8-35.6-35.2l2,0c0.2,18.3,15.3,33.2,33.6,33.2c18.6,0,33.7-15.1,33.7-33.6
				c0-3.4-0.6-7-1.8-10.6l1.9-0.6c1.2,3.8,1.8,7.6,1.8,11.2C231.2,412.4,215.2,428.3,195.5,428.3z"/>
		</g>
		<g>
			<path d="M195.5,422.3c-16.3,0-29.6-13.3-29.6-29.6c0-11.7,6.9-22.3,17.5-27l0.8,1.8c-9.9,4.4-16.3,14.3-16.3,25.2
				c0,15.2,12.4,27.6,27.6,27.6c15.2,0,27.6-12.4,27.6-27.6c0-4.3-1.1-8.7-3.1-12.6l1.8-0.9c2.2,4.2,3.3,8.9,3.3,13.6
				C225.1,409,211.9,422.3,195.5,422.3z"/>
		</g>
		<g>
			<path d="M201.9,365.9c-0.1-0.1-0.3-0.1-0.6-0.1c-0.2,0-0.4-0.1-0.5-0.1c-3.4-0.8-7-0.8-10.5,0l-0.4-2c3.8-0.8,7.7-0.8,11.4,0
				c0.1,0,0.3,0.1,0.4,0.1c0.3,0,0.7,0.1,1.2,0.3L201.9,365.9z"/>
		</g>
		<g>
			<path d="M1741.8,404h-83.5c-2,0-4-0.9-5.4-2.4l-14-16.2c-0.6-0.7-1.5-1.2-2.4-1.5l-11.6-3.4l-12.9-3.7c-0.2,0-0.4-0.1-0.6-0.1
				c-0.2,0-0.4-0.1-0.6-0.1l-23.4-1.5v-11.2h40.3c2.1,0,4,0.7,5.5,2l18.7,9c1.2,1,2.7,1.6,4.4,1.6h88.2c1.6,0,3-0.5,4.3-1.5l0.2-0.1
				l19.8-9.2c1.6-1.2,3.4-1.8,5.4-1.8h40.4l-0.2,12l-24.5,1.5c-0.3,0-0.5,0.1-0.8,0.2l-25.1,6.4c-1,0.2-1.9,0.8-2.6,1.6l-14.2,16.2
				C1745.8,403.1,1743.8,404,1741.8,404z M1589.3,373.2l21.7,1.4c0.2,0,0.4,0.1,0.6,0.1c0.2,0.1,0.5,0.1,0.7,0.2l24.5,7.1
				c1.3,0.4,2.5,1.1,3.4,2.1l14,16.2c1,1.1,2.5,1.8,3.9,1.8h83.5c1.5,0,2.9-0.7,3.8-1.7l14.2-16.2c1-1.1,2.2-1.9,3.6-2.2l12.1-3.1
				l12.9-3.3c0.4-0.1,0.9-0.2,1.3-0.2l22.6-1.3l0.2-8.2h-38.4c-1.6,0-3,0.5-4.3,1.5l-0.2,0.1l-19.8,9.2c-1.6,1.2-3.4,1.8-5.4,1.8
				h-88.2c-2.1,0-4-0.7-5.5-2l-18.7-9c-1.2-1-2.7-1.6-4.4-1.6h-38.3V373.2z"/>
		</g>
		<g>
			<path d="M1599.3,401.2c-4.7,0-8.6-3.9-8.6-8.6s3.9-8.6,8.6-8.6c4.7,0,8.6,3.9,8.6,8.6S1604.1,401.2,1599.3,401.2z M1599.3,386
				c-3.6,0-6.6,3-6.6,6.6c0,3.6,3,6.6,6.6,6.6c3.6,0,6.6-3,6.6-6.6C1605.9,389,1603,386,1599.3,386z"/>
		</g>
		<g>
			<path d="M1807.9,365.7c-2.3-0.5-4.4-0.8-6.5-0.8c-2.1,0-4.3,0.3-6.5,0.8l-0.5-1.9c2.3-0.5,4.7-0.8,6.9-0.8c2.2,0,4.5,0.3,6.9,0.8
				L1807.9,365.7z"/>
		</g>
		<g>
			<polygon points="1668.7,360.2 1649.3,360.2 1649.3,347.1 1651.3,347.1 1651.3,358.2 1668.2,358.2 1678.4,351.9 1722.4,351.9 
				1733.5,358 1732.6,359.8 1721.9,353.9 1678.9,353.9 			"/>
		</g>
		<g>
			<polygon points="1646.4,372.2 1644.4,372.2 1644.4,356.1 1649.5,346.6 1651.2,347.6 1646.4,356.6 			"/>
		</g>
		<g>
			<polygon points="1747,376 1745,376 1745,373.1 1729.2,373.1 1732.2,357.9 1748.8,357.9 1748.8,346.7 1750.8,346.7 1750.8,359.9 
				1733.9,359.9 1731.7,371.1 1747,371.1 			"/>
		</g>
		<g>
			<rect x="1647.7" y="366.9" transform="matrix(0.4942 -0.8693 0.8693 0.4942 518.5507 1627.1497)" width="20" height="2"/>
		</g>
		<g>
			<path d="M1619.4,365.7c-5.9-4.4-12.9-6.7-20.1-6.7c-6.7,0-13.3,2.1-19,5.9l-1.1-1.7c6-4.1,13-6.3,20.2-6.3c7.7,0,15,2.5,21.3,7.1
				L1619.4,365.7z"/>
		</g>
		<g>
			<path d="M1599.3,428.2c-19.6,0-35.6-16-35.6-35.6v-0.9h2v0.9c0,18.5,15.1,33.6,33.6,33.6c18.6,0,33.7-15.1,33.7-33.6
				c0-3.4-0.6-7-1.8-10.6l1.9-0.6c1.2,3.8,1.8,7.6,1.8,11.2C1635,412.3,1619,428.2,1599.3,428.2z"/>
		</g>
		<g>
			<path d="M1599.3,422.2c-16.3,0-29.6-13.3-29.6-29.6c0-13.8,9.3-25.6,22.6-28.8c2.4-0.5,4.8-0.8,7-0.8c2.3,0,4.5,0.3,7,0.8l-0.4,2
				c-2.3-0.5-4.4-0.8-6.6-0.8c-2.1,0-4.3,0.3-6.6,0.8c-12.4,3-21,14-21,26.8c0,15.2,12.4,27.6,27.6,27.6c15.2,0,27.6-12.4,27.6-27.6
				c0-4.5-1.1-8.9-3.1-12.6l1.8-0.9c2.2,4,3.3,8.7,3.3,13.6C1628.9,408.9,1615.7,422.2,1599.3,422.2z"/>
		</g>
		<g>
			<path d="M1801.8,401.3c-4.7,0-8.6-3.9-8.6-8.6s3.9-8.6,8.6-8.6s8.6,3.9,8.6,8.6S1806.5,401.3,1801.8,401.3z M1801.8,386.1
				c-3.6,0-6.6,3-6.6,6.6c0,3.6,3,6.6,6.6,6.6c3.6,0,6.6-3,6.6-6.6C1808.4,389.1,1805.4,386.1,1801.8,386.1z"/>
		</g>
		<g>
			<path d="M1801.9,428.3c-19.7,0-35.7-16-35.7-35.6c0-4,0.6-7.7,1.9-11.2l1.9,0.7c-1.2,3.3-1.7,6.8-1.7,10.6
				c0,18.5,15.1,33.6,33.7,33.6c18.5,0,33.6-15.1,33.6-33.6v-0.3h2v0.3C1837.5,412.4,1821.5,428.3,1801.9,428.3z"/>
		</g>
		<g>
			<path d="M1781.8,365.7l-1.5-1.4c0.1-0.1,0.2-0.2,0.4-0.3l0.2-0.1c6.1-4.4,13.4-6.8,21-6.8c7.6,0,14.9,2.4,21,6.9l-1.2,1.6
				c-5.8-4.3-12.6-6.5-19.8-6.5c-7.2,0-14,2.2-19.8,6.4C1782,365.6,1781.9,365.6,1781.8,365.7z"/>
		</g>
		<g>
			<path d="M1801.8,422.3c-16.3,0-29.6-13.3-29.6-29.6c0-4.6,1.1-9.3,3.3-13.6l1.8,0.9c-2,3.9-3.1,8.3-3.1,12.6
				c0,15.2,12.4,27.6,27.6,27.6s27.6-12.4,27.6-27.6c0-12.7-8.7-23.8-21-26.8c-4.6-1-8.5-1.1-13.1,0l-0.4-2c5-1.1,9.1-1.1,14,0
				c13.3,3.3,22.6,15.1,22.6,28.8C1831.4,409,1818.1,422.3,1801.8,422.3z"/>
		</g>
		<g>
			<path d="M1556,410H441.5l-31.6-61.7H186.4l-31.7,58.3H48.8V146.8H1947v259.9h-104.4l-29.8-58.3h-223.4L1556,410z M442.7,408
				h1112.1l33.3-61.7H1814l29.8,58.3H1945V148.8H50.8v255.9h102.7l31.7-58.3h225.9L442.7,408z"/>
		</g>
		<g>
			<path d="M621.4,290.2h-25.6V223h25.6V290.2z M597.8,288.2h21.6V225h-21.6V288.2z"/>
		</g>
		<g>
			<path d="M609.3,286.3h-2.5c-4.3,0-7.8-3.5-7.8-7.8v-43.9c0-4.4,3.4-7.8,7.8-7.8h2.5c4.4,0,7.8,3.4,7.8,7.8v43.9
				C617.1,282.9,613.7,286.3,609.3,286.3z M606.8,228.8c-3.3,0-5.8,2.5-5.8,5.8v43.9c0,3.2,2.6,5.8,5.8,5.8h2.5
				c3.3,0,5.8-2.5,5.8-5.8v-43.9c0-3.3-2.5-5.8-5.8-5.8H606.8z"/>
		</g>
		<g>
			<path d="M622.1,395.4h-100V370h-2c-3,0-5.3-2.3-5.3-5.3v-159c0-3,2.3-5.3,5.3-5.3h103.2c3,0,5.3,2.3,5.3,5.3v159
				c0,3-2.3,5.3-5.3,5.3h-1.2V395.4z M524.1,393.4h96V368h3.2c1.9,0,3.3-1.5,3.3-3.3v-159c0-1.9-1.4-3.3-3.3-3.3H520.1
				c-1.9,0-3.3,1.5-3.3,3.3v159c0,1.9,1.4,3.3,3.3,3.3h4V393.4z"/>
		</g>
		<g>
			<path d="M597.7,290.3h-65.9v-67.1h65.9V290.3z M533.8,288.3h61.9v-63.1h-61.9V288.3z"/>
		</g>
		<g>
			<path d="M1476.9,395.4h-100V370h-1.9c-3,0-5.3-2.3-5.3-5.3v-159c0-3,2.3-5.3,5.3-5.3h103.1c3,0,5.3,2.3,5.3,5.3v159
				c0,3-2.3,5.3-5.3,5.3h-1.2V395.4z M1378.9,393.4h96V368h3.2c1.9,0,3.3-1.5,3.3-3.3v-159c0-1.9-1.4-3.3-3.3-3.3H1375
				c-1.9,0-3.3,1.5-3.3,3.3v159c0,1.9,1.4,3.3,3.3,3.3h3.9V393.4z"/>
		</g>
		<g>
			<path d="M1474.1,288.9H1378v-66.6h96.1V288.9z M1380,286.9h92.1v-62.6H1380V286.9z"/>
		</g>
		<g>
			<path d="M1380,223.3h-2v-9c0-4.2,3.4-7.6,7.6-7.6h80.8c4.2,0,7.6,3.4,7.6,7.6v8.9h-2v-8.9c0-3.1-2.5-5.6-5.6-5.6h-80.8
				c-3.1,0-5.6,2.5-5.6,5.6V223.3z"/>
		</g>
		<g>
			<path d="M1466.4,304.1h-80.8c-4.2,0-7.6-3.4-7.6-7.6v-8.9h2v8.9c0,3.1,2.5,5.6,5.6,5.6h80.8c3.1,0,5.6-2.5,5.6-5.6v-8.9h2v8.9
				C1474,300.7,1470.6,304.1,1466.4,304.1z"/>
		</g>
		<g>
			<rect x="1377.9" y="368" width="98" height="2"/>
		</g>
		<g>
			<rect x="523.1" y="368" width="98.6" height="2"/>
		</g>
		<g>
			<rect x="12" y="181.4" width="2" height="193.1"/>
		</g>
		<g>
			<rect x="24.2" y="181.4" width="2" height="193.1"/>
		</g>
		<g>
			<polygon points="13,183.1 6.9,175.4 1.6,182.1 0,180.9 6.9,172.2 13,179.9 19,172.3 25.1,179.9 31.2,172.3 37.3,179.9 
				43.4,172.3 50.3,180.9 48.7,182.1 43.4,175.5 37.3,183.1 31.2,175.5 25.1,183.1 19,175.5 			"/>
		</g>
		<g>
			<polygon points="6.9,383.9 0,375.3 1.6,374.1 6.9,380.7 13,373.1 19.3,380.7 25.4,373.1 31.5,380.7 37.6,373.1 43.7,380.7 
				49,374.1 50.6,375.3 43.7,383.9 37.6,376.3 31.5,383.9 25.4,376.3 19.3,383.9 13,376.3 			"/>
		</g>
		<g>
			<rect x="36.2" y="181.5" width="2" height="193.2"/>
		</g>
		<g>
			<path d="M334,416.6h-74.5c-6.7,0-9.1-1-10.3-1.5l-0.3-0.1c-1.7-0.7-1.5-3.1-1.4-3.3c0-0.4,0.3-0.7,0.6-0.8c0.2-0.1,3.9-1.5,5.3-2
				c0.6-0.2,0.6-0.5,0.6-0.6l0-5c0-0.6,0.4-1,1-1c0.6,0,1,0.4,1,1v5c0,0.6-0.4,1.8-1.9,2.4c-1.1,0.4-3.5,1.3-4.7,1.8
				c0,0.3,0.1,0.6,0.2,0.7c0.1,0,0.2,0.1,0.3,0.1c1,0.4,3.2,1.4,9.5,1.4H334c6.3,0,8.5-0.9,9.5-1.4l0.3-0.1c0.1-0.1,0.1-0.3,0.2-0.7
				c-1.2-0.4-3.7-1.4-4.7-1.8c-1.5-0.6-1.9-1.8-1.9-2.4v-5c0-0.6,0.4-1,1-1s1,0.4,1,1v5c0,0,0.1,0.3,0.7,0.6c1.3,0.5,5.3,2,5.3,2
				c0.4,0.1,0.6,0.5,0.6,0.8c0,0.3,0.2,2.7-1.4,3.3l-0.3,0.1C343.1,415.6,340.6,416.6,334,416.6z"/>
		</g>
	</g>
</g>
</svg>
