<?xml version="1.0" encoding="utf-8"?>
<!-- Generator: Adobe Illustrator 22.0.1, SVG Export Plug-In . SVG Version: 6.00 Build 0)  -->
<svg version="1.1" id="Layer_1" xmlns="http://www.w3.org/2000/svg" xmlns:xlink="http://www.w3.org/1999/xlink" x="0px" y="0px"
	 viewBox="0 0 1976.3 440" style="enable-background:new 0 0 1976.3 440;" xml:space="preserve">
<metadata><?xpacket begin="﻿" id="W5M0MpCehiHzreSzNTczkc9d"?>
<x:xmpmeta xmlns:x="adobe:ns:meta/" x:xmptk="Adobe XMP Core 5.6-c143 79.161210, 2017/08/11-10:28:36        ">
   <rdf:RDF xmlns:rdf="http://www.w3.org/1999/02/22-rdf-syntax-ns#">
      <rdf:Description rdf:about=""/>
   </rdf:RDF>
</x:xmpmeta>
                                                                                                    
                                                                                                    
                                                                                                    
                                                                                                    
                                                                                                    
                                                                                                    
                                                                                                    
                                                                                                    
                                                                                                    
                                                                                                    
                                                                                                    
                                                                                                    
                                                                                                    
                                                                                                    
                                                                                                    
                                                                                                    
                                                                                                    
                                                                                                    
                                                                                                    
                                                                                                    
                           
<?xpacket end="w"?></metadata>
<style type="text/css">
	.st0{fill:#B1B3B3;}
	.st1{fill:#212322;}
	.st2{fill:#444445;}
	.st3{fill:#DA291C;}
	.st4{fill:#30302F;}
	.st5{fill:#AFC1BA;}
	.st6{fill:none;}
	.st7{fill:#878787;}
	.st8{fill:#828684;}
	.st9{fill:none;stroke:#000000;stroke-width:2;stroke-miterlimit:10;}
	.st10{display:none;fill:none;stroke:#000000;stroke-width:2;stroke-miterlimit:10;}
	.st11{fill:none;stroke:#000000;stroke-width:1.8778;stroke-miterlimit:10;}
	.st12{display:none;}
</style>
<g id="WLAB2__x28_Sovevogn_x29_">
	<g id="Mål_17_">
	</g>
	<g id="Farger_17_">
		<g id="Grunnfarge_13_">
		</g>
		<g id="Profilering_17_">
		</g>
		<g id="Dører_og_vinduer_15_">
		</g>
	</g>
	<g id="Omriss_17_">
	</g>
</g>
<g id="Type_5">
	<g id="Mål_16_">
	</g>
	<g id="Farger_16_">
		<g id="Grunnfarge_12_">
		</g>
		<g id="Profilering_16_">
		</g>
		<g id="Dører_og_vinduer_14_">
		</g>
	</g>
	<g id="Omriss_16_">
	</g>
</g>
<g id="Type_7">
	<g id="Mål_15_">
	</g>
	<g id="Farger_15_">
		<g id="Grunnfarge_11_">
		</g>
		<g id="Profilering_15_">
		</g>
		<g id="Dører_og_vinduer_13_">
		</g>
	</g>
	<g id="Omriss_15_">
	</g>
</g>
<g id="El_18">
	<g id="Mål_14_">
	</g>
	<g id="Farger_14_">
		<g id="Grunnfarge_10_">
		</g>
		<g id="Profilering_14_">
		</g>
		<g id="Dører_og_vinduer_12_">
		</g>
	</g>
	<g id="Omriss_14_">
	</g>
</g>
<g id="Di4">
	<g id="Mål_13_">
	</g>
	<g id="Farger_13_">
		<g id="Grunnfarge_9_">
		</g>
		<g id="Profilering_13_">
		</g>
		<g id="Dører_og_vinduer_og_stiger">
		</g>
	</g>
	<g id="Omriss_13_">
	</g>
</g>
<g id="Type_93">
	<g id="Mål_12_">
	</g>
	<g id="Farger_12_">
		<g id="Grunnfarge_8_">
		</g>
		<g id="Profilering_12_">
		</g>
		<g id="Dører_og_vinduer_11_">
		</g>
	</g>
	<g id="Omriss_12_">
	</g>
</g>
<g id="Type_92">
	<g id="Mål_11_">
	</g>
	<g id="Farger_11_">
		<g id="Grunnfarge_7_">
		</g>
		<g id="Profilering_11_">
		</g>
		<g id="Dører_og_vinduer_10_">
		</g>
	</g>
	<g id="Omriss_11_">
	</g>
</g>
<g id="Type_75_1_">
	<g id="Mål_10_">
	</g>
	<g id="Farger_10_">
		<g id="Grunnfarge_6_">
		</g>
		<g id="Profilering_10_">
		</g>
		<g id="Dører_og_vinduer_9_">
		</g>
	</g>
	<g id="Omriss_10_">
	</g>
</g>
<g id="Type_74">
	<g id="Mål_9_">
	</g>
	<g id="Farger_9_">
		<g id="Grunnfarge_5_">
		</g>
		<g id="Profilering_9_">
		</g>
		<g id="Dører_og_vinduer_8_">
		</g>
	</g>
	<g id="Omriss_9_">
	</g>
</g>
<g id="Type_73_B">
	<g id="Mål_8_">
	</g>
	<g id="Farger_8_">
		<g id="Grunnfarge_4_">
		</g>
		<g id="Profilering_8_">
		</g>
		<g id="Dører_og_vinduer_7_">
		</g>
	</g>
	<g id="Omriss_8_">
	</g>
</g>
<g id="Type_73_A">
	<g id="Mål_7_">
	</g>
	<g id="Farger_7_">
		<g id="Grunnfarge_3_">
		</g>
		<g id="Profilering_7_">
		</g>
		<g id="Dører_og_vinduer_6_">
		</g>
	</g>
	<g id="Omriss_7_">
	</g>
</g>
<g id="Type_72">
	<g id="Mål_6_">
	</g>
	<g id="Farger_6_">
		<g id="Grunnfarge">
		</g>
		<g id="Profilering">
		</g>
		<g id="Dører_og_vinduer">
		</g>
	</g>
	<g id="Omriss_6_">
	</g>
</g>
<g id="Type_70">
	<g id="Mål_5_">
	</g>
	<g id="Farger_5_">
		<g id="Grunnfarge_2_">
		</g>
		<g id="Profilering_6_">
		</g>
		<g id="Dører_og_vinduer_5_">
		</g>
	</g>
	<g id="Omriss_5_">
	</g>
</g>
<g id="Type_69_H">
	<g id="Mål_4_">
	</g>
	<g id="Farger_4_">
		<g id="grunnfarger">
		</g>
		<g id="Profilering_5_">
		</g>
		<g id="Dører_og_vinduer_4_">
		</g>
	</g>
	<g id="Omriss_4_">
	</g>
</g>
<g id="Type_69_G">
	<g id="Mål_3_">
	</g>
	<g id="Farger_3_">
		<g id="Grunnfarger_1_">
		</g>
		<g id="Profilering_4_">
		</g>
		<g id="dører_og_vinduer">
		</g>
	</g>
	<g id="Omriss_3_">
	</g>
</g>
<g id="Type_69_D">
	<g id="Mål_2_">
	</g>
	<g id="Farger_2_">
		<g id="Grunnfarger">
		</g>
		<g id="Profilering_3_">
		</g>
		<g id="Dører_og_vinduer_3_">
		</g>
	</g>
	<g id="Omriss_2_">
	</g>
</g>
<g id="Type_69_CII">
	<g id="Mål_1_">
	</g>
	<g id="Farger_1_">
		<g id="Gunnfarge">
			<path class="st0" d="M1966,136.4h-409.8h-40.9l-23.7-25.4h-130.3l-23.2,25.4h-305.9V93.3H922v43.1H617.4L593.9,111h-129l-23,25.4
				H244.7v-5.9h-86.9v5.9H50.1c-4,0-7.2,3.2-7.2,7.2v206.8c0,4,3.2,7.2,7.2,7.2h361.6l36.4,20h153.2l36.5-20.1v0.1h674.1l36.7,20
				H1502l36.7-20h12.7h6.1h5.4H1966c4,0,7.2-3.2,7.2-7.2V143.6C1973.3,139.8,1970,136.4,1966,136.4z"/>
			<rect x="1373.3" y="115.6" class="st1" width="103.7" height="16.6"/>
			<rect x="475.1" y="114.8" class="st1" width="103.7" height="16.6"/>
			<rect x="1688.9" y="130.5" class="st1" width="86.9" height="5.9"/>
			<polyline class="st1" points="1014.1,94.6 1014.1,116.8 939.8,116.8 939.8,94.6 			"/>
			<g>
				<path class="st1" d="M389.1,361.4l-45.7-4.4l0,0h-55.2h-30.8H167l0,0l-47,4.6v11.2l12.9,17.2v0.3v6.4h4.5
					c6.2,9.9,17.2,16.6,29.7,16.6s23.6-6.6,29.7-16.6h4.3v-6.4l15.6-21.5h4.4v10h-8.6v7.6h84.3v-7.6h-8.6v-10l0,0h4.3l15.6,21.6l0,0
					v6.3h4.5c6.2,9.9,17.2,16.6,29.7,16.6s23.6-6.6,29.7-16.6h4.3v-6.4l12.8-17.8L389.1,361.4L389.1,361.4z"/>
				<rect x="277.4" y="407" class="st1" width="0.1" height="0.1"/>
			</g>
			<rect x="48.1" y="357.6" class="st1" width="9.4" height="14.6"/>
			<polyline class="st1" points="57.5,363.5 89.7,363.5 94.3,357.8 			"/>
			<rect x="48.1" y="357.6" class="st1" width="9.4" height="14.6"/>
			<polygon class="st1" points="57.5,363.5 89.7,363.5 94.3,357.8 57.5,357.6 			"/>
			<rect x="723.8" y="358" class="st1" width="61.1" height="21.6"/>
			<rect x="677.7" y="357.6" class="st1" width="17.7" height="15.6"/>
			<rect x="723.8" y="358" class="st1" width="61.1" height="21.6"/>
			<rect x="677.7" y="357.6" class="st1" width="17.7" height="15.6"/>
			<rect x="920.2" y="357.9" class="st1" width="40.3" height="27.9"/>
			<rect x="920.2" y="357.9" class="st1" width="40.3" height="27.9"/>
			<path class="st2" d="M1604.4,361.3l45.7-4.4h170l27.2,2.9l12.6,1.7c0,0-0.3,7.1-0.3,11.2l-12.6,17.7l-0.4,6h-4.8
				c0,0-10.8,17.4-27.9,17s-28.9-10.3-31.2-16.5l-4.6-0.3v-5.9l-4-4.4h-84.3l-4.3,4v6.4h-4.5c0,0-11.5,17.1-28.6,16.6
				s-25.7-8.9-30.9-16.6c0,0-4.3,0.3-4.3,0s0-6.2,0-6.2l-12.8-18L1604.4,361.3L1604.4,361.3z"/>
			<rect x="1958.7" y="357.8" class="st1" width="9.4" height="14.6"/>
			<polyline class="st1" points="1958.7,363.5 1926.5,363.5 1921.8,357.8 			"/>
			<rect x="1958.7" y="357.8" class="st1" width="9.4" height="14.6"/>
			<polygon class="st1" points="1958.7,363.5 1926.5,363.5 1921.8,357.8 1958.7,357.6 			"/>
			<path class="st2" d="M41.9,338H25.8l-0.2,11.2H15.4V338H0.1l-0.5-185.5h8.9c0,0-0.8-6.8,6.2-6.8s6.2,6.8,6.2,6.8h4.2
				c0,0-0.7-6.6,6.2-6.6s6.2,6.6,6.2,6.6h4.3L41.9,338z"/>
		</g>
		<g id="Profilering_2_">
			<path id="rødt_nederst_6_" class="st3" d="M1974.8,268.8v81.6c0,3.8-3.2,6.9-7.2,6.9l-428.1-0.1l-38.3,20l-151.5,0.1l-37-20h2.2
				H638.6l-36.6,20H448.3l-36-20H50.7c-4,0-7.2-3.1-7.2-6.9v-42v-39.5c12.8,0,74.4-0.1,74.4-0.1L1974.8,268.8L1974.8,268.8z"/>
			<polyline id="sort_bak_vinduer_6_" class="st4" points="43.6,269 42.9,187.2 1975.5,187.2 1975.5,269 43.4,269 			"/>
			<polygon class="st3" points="1845,187.2 1812.3,153.8 1804.4,153.8 1804.4,153.8 248.2,153.8 201.5,153.8 168.8,187.2 
				192.8,187.2 1840.6,187.2 1840.6,187.2 			"/>
			<g>
				<polygon class="st0" points="1973.9,310.2 1642.4,310.2 1641.9,309.8 1487.2,149.4 447,149.4 290.1,310.1 43.6,310.2 
					43.6,306.8 288.6,306.8 445.6,146 1488.7,146 1489.2,146.5 1643.9,306.8 1973.9,306.8 				"/>
			</g>
			<g>
				<rect x="42.9" y="293.2" class="st0" width="1930.4" height="6.7"/>
			</g>
		</g>
		<g id="Dører_og_vinduer_2_">
			<path class="st5" d="M495.8,274.3h16c2.9,0,5.2-2.3,5.2-5.2v-49c0-2.9-2.3-5.2-5.2-5.2h-16c-2.9,0-5.2,2.3-5.2,5.2v49
				C490.7,272,493,274.3,495.8,274.3z"/>
			<path class="st5" d="M543,274.3h16c2.9,0,5.2-2.3,5.2-5.2v-49c0-2.9-2.3-5.2-5.2-5.2h-16c-2.9,0-5.2,2.3-5.2,5.2v49
				C537.8,272,540.2,274.3,543,274.3z"/>
			<path class="st5" d="M1393.6,274.3h16c2.9,0,5.2-2.3,5.2-5.2v-49c0-2.9-2.3-5.2-5.2-5.2h-16c-2.9,0-5.2,2.3-5.2,5.2v49
				C1388.4,272,1390.8,274.3,1393.6,274.3z"/>
			<path class="st5" d="M1440.8,274.3h16c2.9,0,5.2-2.3,5.2-5.2v-49c0-2.9-2.3-5.2-5.2-5.2h-16c-2.9,0-5.2,2.3-5.2,5.2v49
				C1435.6,272,1437.9,274.3,1440.8,274.3z"/>
			<path class="st0" d="M485,357.8h84.8c4.6,0,8.4-3.7,8.4-8.4V136.5H476.7v212.9C476.7,354,480.4,357.8,485,357.8z"/>
			<line class="st6" x1="527.4" y1="195.1" x2="527.4" y2="357.6"/>
			<path class="st0" d="M1382.8,357.8h84.8c4.6,0,8.4-3.7,8.4-8.4V136.5h-101.5v212.9C1374.4,354,1378.2,357.8,1382.8,357.8z"/>
			<line class="st6" x1="1425.2" y1="195.1" x2="1425.2" y2="357.6"/>
			<path class="st7" d="M1456.8,274.3h-16c-2.9,0-5.2-2.3-5.2-5.2v-49c0-2.9,2.3-5.2,5.2-5.2h16c2.9,0,5.2,2.3,5.2,5.2v49
				C1462,272,1459.7,274.3,1456.8,274.3z"/>
			<path class="st7" d="M1409.7,274.3h-16c-2.9,0-5.2-2.3-5.2-5.2v-49c0-2.9,2.3-5.2,5.2-5.2h16c2.9,0,5.2,2.3,5.2,5.2v49
				C1414.8,272,1412.5,274.3,1409.7,274.3z"/>
			<path class="st7" d="M559.1,274.3h-16c-2.9,0-5.2-2.3-5.2-5.2v-49c0-2.9,2.3-5.2,5.2-5.2h16c2.9,0,5.2,2.3,5.2,5.2v49
				C564.2,272,561.9,274.3,559.1,274.3z"/>
			<path class="st7" d="M511.9,274.3h-16c-2.9,0-5.2-2.3-5.2-5.2v-49c0-2.9,2.3-5.2,5.2-5.2h16c2.9,0,5.2,2.3,5.2,5.2v49
				C517.1,272,514.8,274.3,511.9,274.3z"/>
			<path class="st7" d="M186.1,265.2h71.2c4.4,0,8-3.6,8-8v-49.7c0-4.4-3.6-8-8-8h-71.2c-4.4,0-8,3.6-8,8v49.7
				C178.1,261.6,181.7,265.2,186.1,265.2z"/>
			<path class="st7" d="M336.3,265.2h71.2c4.4,0,8-3.6,8-8v-49.7c0-4.4-3.6-8-8-8h-71.2c-4.4,0-8,3.6-8,8v49.7
				C328.3,261.6,331.9,265.2,336.3,265.2z"/>
			<path class="st8" d="M1746.2,265.2H1675c-4.4,0-8-3.6-8-8v-49.7c0-4.4,3.6-8,8-8h71.2c4.4,0,8,3.6,8,8v49.7
				C1754.2,261.6,1750.6,265.2,1746.2,265.2z"/>
			<path class="st7" d="M1611,265.2h-71.2c-4.4,0-8-3.6-8-8v-49.7c0-4.4,3.6-8,8-8h71.2c4.4,0,8,3.6,8,8v49.7
				C1619,261.6,1615.4,265.2,1611,265.2z"/>
			<path class="st7" d="M699.1,265.2h71.2c4.4,0,8-3.6,8-8v-49.7c0-4.4-3.6-8-8-8h-71.2c-4.4,0-8,3.6-8,8v49.7
				C691.1,261.6,694.7,265.2,699.1,265.2z"/>
			<path class="st7" d="M836.5,265.2h71.2c4.4,0,8-3.6,8-8v-49.7c0-4.4-3.6-8-8-8h-71.2c-4.4,0-8,3.6-8,8v49.7
				C828.5,261.6,832,265.2,836.5,265.2z"/>
			<path class="st7" d="M970.6,265.2h71.2c4.4,0,8-3.6,8-8v-49.7c0-4.4-3.6-8-8-8h-71.2c-4.4,0-8,3.6-8,8v49.7
				C962.6,261.6,966.2,265.2,970.6,265.2z"/>
			<path class="st7" d="M1105.1,265.2h71.2c4.4,0,8-3.6,8-8v-49.7c0-4.4-3.6-8-8-8h-71.2c-4.4,0-8,3.6-8,8v49.7
				C1097.1,261.6,1100.7,265.2,1105.1,265.2z"/>
			<path class="st7" d="M1242.2,265.2h71.2c4.4,0,8-3.6,8-8v-49.7c0-4.4-3.6-8-8-8h-71.2c-4.4,0-8,3.6-8,8v49.7
				C1234.2,261.6,1237.8,265.2,1242.2,265.2z"/>
			<path class="st7" d="M1880.1,265.2h-71.2c-4.4,0-8-3.6-8-8v-49.7c0-4.4,3.6-8,8-8h71.2c4.4,0,8,3.6,8,8v49.7
				C1888.1,261.6,1884.5,265.2,1880.1,265.2z"/>
			<path class="st7" d="M1746.2,265.2H1675c-4.4,0-8-3.6-8-8v-49.7c0-4.4,3.6-8,8-8h71.2c4.4,0,8,3.6,8,8v49.7
				C1754.2,261.6,1750.6,265.2,1746.2,265.2z"/>
		</g>
	</g>
	<g id="Omriss_1_">
		<path class="st9" d="M312,397c6.2,9.9,17.2,16.6,29.7,16.6c12.6,0,23.6-6.6,29.7-16.6"/>
		<polyline class="st9" points="368,390.5 375.8,390.5 375.8,397 318.9,397 307.5,397 307.5,390.5 315.6,390.5 		"/>
		<path class="st9" d="M365.2,380c-0.2,3.8-1.2,7.4-3,10.6"/>
		<path class="st9" d="M321.3,390.5c-1.8-3.1-2.9-6.7-3-10.6"/>
		<path class="st9" d="M326.6,397c4.1,3.5,9.4,5.6,15.2,5.6c5.8,0,11.1-2.1,15.2-5.6"/>
		<circle class="st9" cx="341.8" cy="379" r="7.7"/>
		<path class="st9" d="M364,367.5h-44.5c-2.2,0-3.9,1.8-3.9,3.9v19.1H368v-19.1C368,369.2,366.2,367.5,364,367.5z"/>
		<polyline class="st9" points="368,380 365.2,380 361.2,380 354.6,383.1 354.5,383.2 		"/>
		<polyline class="st9" points="315.6,380 318.3,380 322.2,380 328.9,383.2 		"/>
		<path class="st10" d="M203.4,397c-5.3,6.9-13.6,11.3-22.9,11.3c-9.3,0-17.6-4.4-22.9-11.3"/>
		<path class="st9" d="M136.8,397c6.2,9.9,17.2,16.6,29.7,16.6s23.6-6.6,29.7-16.6"/>
		<polygon class="st9" points="143.7,397 132.3,397 132.3,390.5 200.6,390.5 200.6,397 		"/>
		<path class="st9" d="M190,380c-0.2,3.8-1.2,7.4-3,10.6"/>
		<path class="st9" d="M146.1,390.5c-1.8-3.1-2.9-6.7-3-10.6"/>
		<path class="st9" d="M151.4,397c4.1,3.5,9.4,5.6,15.2,5.6s11.1-2.1,15.2-5.6"/>
		<circle class="st9" cx="166.6" cy="379" r="7.7"/>
		<path class="st9" d="M188.8,367.5h-44.5c-2.2,0-3.9,1.8-3.9,3.9v19.1h52.4v-19.1C192.8,369.2,191,367.5,188.8,367.5z"/>
		<polyline class="st9" points="192.8,380 190,380 186,380 186,380 179.4,383.1 179.3,383.2 		"/>
		<polyline class="st9" points="140.4,380 143.1,380 147,380 153.7,383.2 		"/>
		<polyline class="st9" points="375.8,390.5 388.6,372.8 388.6,361.6 342.9,357.8 		"/>
		<polyline class="st9" points="132.3,390.5 119.7,373 119.7,361.8 166.5,357.6 		"/>
		<polyline class="st9" points="200.6,390.5 216.2,369 220.6,369 		"/>
		<polyline class="st9" points="307.5,390.5 292,369 287.7,369 		"/>
		<rect x="212" y="379" class="st9" width="84.3" height="7.6"/>
		<line class="st9" x1="220.6" y1="357.2" x2="220.6" y2="379.1"/>
		<line class="st9" x1="251.5" y1="357.2" x2="251.5" y2="379.1"/>
		<line class="st9" x1="256.9" y1="357.2" x2="256.9" y2="379.1"/>
		<line class="st9" x1="287.7" y1="357.2" x2="287.7" y2="379"/>
		<path class="st9" d="M1621.2,397c6.2,9.9,17.2,16.6,29.7,16.6s23.6-6.6,29.7-16.6"/>
		<polygon class="st9" points="1673.9,397 1685.2,397 1685.2,390.5 1617,390.5 1617,397 		"/>
		<path class="st9" d="M1627.5,380c0.2,3.8,1.2,7.4,3,10.6"/>
		<path class="st9" d="M1671.4,390.5c1.8-3.1,2.9-6.7,3-10.6"/>
		<path class="st9" d="M1666.2,397c-4.1,3.5-9.4,5.6-15.2,5.6c-5.8,0-11.1-2.1-15.2-5.6"/>
		<circle class="st9" cx="1651" cy="379" r="7.7"/>
		<path class="st9" d="M1677.2,390.5v-19.1c0-2.2-1.8-3.9-3.9-3.9h-44.5c-2.2,0-3.9,1.8-3.9,3.9v19.1"/>
		<polyline class="st9" points="1624.8,380 1627.5,380 1631.5,380 1638.1,383.1 1638.3,383.2 		"/>
		<polyline class="st9" points="1677.2,380 1674.4,380 1670.6,380 1663.8,383.2 		"/>
		<path class="st10" d="M1803.5,396.8c5.3,6.9,13.6,11.3,22.9,11.3s17.6-4.4,22.9-11.3"/>
		<path class="st9" d="M1782.8,396.8c6.2,9.9,17.2,16.6,29.7,16.6s23.6-6.6,29.7-16.6"/>
		<polygon class="st9" points="1835.4,396.8 1846.7,396.8 1846.7,390.5 1778.5,390.5 1778.5,396.8 		"/>
		<path class="st9" d="M1789.1,380c0.2,3.8,1.2,7.4,3,10.6"/>
		<path class="st9" d="M1832.9,390.5c1.8-3.1,2.9-6.7,3-10.6"/>
		<path class="st9" d="M1827.7,396.8c-4.1,3.5-9.4,5.6-15.2,5.6c-5.8,0-11.1-2.1-15.2-5.6"/>
		<circle class="st9" cx="1812.5" cy="379" r="7.7"/>
		<path class="st9" d="M1786.3,371.3v19.1h52.4v-19.1c0-2.2-1.8-3.9-3.9-3.9h-44.5C1788.1,367.5,1786.3,369.1,1786.3,371.3z"/>
		<polyline class="st9" points="1825.3,383.1 1832.1,380 1836,380 1838.7,380 		"/>
		<polyline class="st9" points="1786.3,380 1789.1,380 1793,380 1799.7,383.1 1799.8,383.1 		"/>
		<polyline class="st9" points="1617,390.5 1604.2,372.8 1604.2,361.6 1649.9,357.8 		"/>
		<polyline class="st9" points="1846.7,390.5 1859.4,372.8 1859.4,361.6 1812.5,357.8 		"/>
		<rect x="1689.6" y="379" class="st9" width="84.3" height="7.6"/>
		<line class="st9" x1="1765.3" y1="357.2" x2="1765.3" y2="379.1"/>
		<line class="st9" x1="1734.4" y1="357.2" x2="1734.4" y2="379.1"/>
		<line class="st9" x1="1729" y1="357.2" x2="1729" y2="379.1"/>
		<line class="st9" x1="1698.2" y1="357.2" x2="1698.2" y2="379"/>
		<line class="st9" x1="1778.5" y1="390.5" x2="1773.9" y2="386.6"/>
		<line class="st9" x1="1685.2" y1="390.5" x2="1689.6" y2="386.6"/>
		<line class="st9" x1="1731.7" y1="379" x2="1731.7" y2="386.6"/>
		<line class="st9" x1="1425.2" y1="195.2" x2="1425.2" y2="357.8"/>
		<line class="st9" x1="527.4" y1="195.2" x2="527.4" y2="357.8"/>
		<rect x="47.8" y="357.8" class="st9" width="9.4" height="14.6"/>
		<polyline class="st9" points="57.3,363.6 89.4,363.6 94.1,357.9 		"/>
		<path class="st9" d="M1557.3,357.8h408.5c4,0,7.1-1.9,8.4-2.6V148.4c-1.2-8.6-4.4-11.8-8.4-11.8H1556H49.9c-4,0-7.2,3.2-7.2,7.2
			v206.8c0,4,3.2,7.2,7.2,7.2h361.6l36.4,20h153.2l36.6-20h674.1l36.7,20h153.2l36.7-20h12.7h11.5"/>
		<rect x="1958.4" y="357.8" class="st9" width="9.4" height="14.6"/>
		<polyline class="st9" points="1958.5,363.6 1926.3,363.6 1921.6,357.9 		"/>
		<rect x="723.7" y="358.2" class="st9" width="61.1" height="21.6"/>
		<rect x="677.5" y="357.9" class="st9" width="17.7" height="15.6"/>
		<rect x="919.9" y="357.8" class="st9" width="40.3" height="27.9"/>
		<path class="st9" d="M186.1,265.4h71.2c4.4,0,8-3.6,8-8v-49.7c0-4.4-3.6-8-8-8h-71.2c-4.4,0-8,3.6-8,8v49.7
			C178.1,261.8,181.7,265.4,186.1,265.4z"/>
		<path class="st9" d="M336.3,265.4h71.2c4.4,0,8-3.6,8-8v-49.7c0-4.4-3.6-8-8-8h-71.2c-4.4,0-8,3.6-8,8v49.7
			C328.3,261.8,331.9,265.4,336.3,265.4z"/>
		<path class="st9" d="M1746.2,265.4H1675c-4.4,0-8-3.6-8-8v-49.7c0-4.4,3.6-8,8-8h71.2c4.4,0,8,3.6,8,8v49.7
			C1754.2,261.8,1750.6,265.4,1746.2,265.4z"/>
		<path class="st9" d="M1611,265.4h-71.2c-4.4,0-8-3.6-8-8v-49.7c0-4.4,3.6-8,8-8h71.2c4.4,0,8,3.6,8,8v49.7
			C1619,261.8,1615.4,265.4,1611,265.4z"/>
		<path class="st9" d="M699.1,265.4h71.2c4.4,0,8-3.6,8-8v-49.7c0-4.4-3.6-8-8-8h-71.2c-4.4,0-8,3.6-8,8v49.7
			C691.1,261.8,694.7,265.4,699.1,265.4z"/>
		<path class="st9" d="M836.5,265.4h71.2c4.4,0,8-3.6,8-8v-49.7c0-4.4-3.6-8-8-8h-71.2c-4.4,0-8,3.6-8,8v49.7
			C828.5,261.8,832,265.4,836.5,265.4z"/>
		<path class="st9" d="M970.6,265.4h71.2c4.4,0,8-3.6,8-8v-49.7c0-4.4-3.6-8-8-8h-71.2c-4.4,0-8,3.6-8,8v49.7
			C962.6,261.8,966.2,265.4,970.6,265.4z"/>
		<path class="st9" d="M1105.1,265.4h71.2c4.4,0,8-3.6,8-8v-49.7c0-4.4-3.6-8-8-8h-71.2c-4.4,0-8,3.6-8,8v49.7
			C1097.1,261.8,1100.7,265.4,1105.1,265.4z"/>
		<path class="st9" d="M1242.2,265.4h71.2c4.4,0,8-3.6,8-8v-49.7c0-4.4-3.6-8-8-8h-71.2c-4.4,0-8,3.6-8,8v49.7
			C1234.2,261.8,1237.8,265.4,1242.2,265.4z"/>
		<path class="st9" d="M1880.1,265.4h-71.2c-4.4,0-8-3.6-8-8v-49.7c0-4.4,3.6-8,8-8h71.2c4.4,0,8,3.6,8,8v49.7
			C1888.1,261.8,1884.5,265.4,1880.1,265.4z"/>
		<path class="st9" d="M496.6,274.5h14.5c3.3,0,5.9-2.7,5.9-5.9v-47.4c0-3.3-2.7-5.9-5.9-5.9h-14.5c-3.3,0-5.9,2.7-5.9,5.9v47.4
			C490.7,271.8,493.3,274.5,496.6,274.5z"/>
		<path class="st9" d="M543.8,274.5h14.5c3.3,0,5.9-2.7,5.9-5.9v-47.4c0-3.3-2.7-5.9-5.9-5.9h-14.5c-3.3,0-5.9,2.7-5.9,5.9v47.4
			C537.8,271.8,540.5,274.5,543.8,274.5z"/>
		<path class="st9" d="M1394.4,274.5h14.5c3.3,0,5.9-2.7,5.9-5.9v-47.4c0-3.3-2.7-5.9-5.9-5.9h-14.5c-3.3,0-5.9,2.7-5.9,5.9v47.4
			C1388.4,271.8,1391.1,274.5,1394.4,274.5z"/>
		<path class="st9" d="M1441.5,274.5h14.5c3.3,0,5.9-2.7,5.9-5.9v-47.4c0-3.3-2.7-5.9-5.9-5.9h-14.5c-3.3,0-5.9,2.7-5.9,5.9v47.4
			C1435.6,271.8,1438.3,274.5,1441.5,274.5z"/>
		<path class="st9" d="M484,357.9h86.9c4,0,7.3-3.3,7.3-7.3v-148c0-4-3.3-7.3-7.3-7.3H484c-4,0-7.3,3.3-7.3,7.3v148
			C476.7,354.6,480,357.9,484,357.9z"/>
		<path class="st9" d="M1381.8,357.9h86.9c4,0,7.3-3.3,7.3-7.3v-148c0-4-3.3-7.3-7.3-7.3h-86.9c-4,0-7.3,3.3-7.3,7.3v148
			C1374.4,354.6,1377.7,357.9,1381.8,357.9z"/>
		<polyline class="st9" points="1337.7,136.8 1361,111.1 1491.3,111.1 1515.1,136.8 		"/>
		<rect x="1373.1" y="115.8" class="st9" width="103.7" height="16.6"/>
		<polyline class="st9" points="441.6,136.8 464.7,111.1 593.7,111.1 617.3,136.8 		"/>
		<rect x="475" y="115.2" class="st9" width="103.7" height="16.6"/>
		<rect x="1688.7" y="130.6" class="st9" width="86.9" height="5.9"/>
		<rect x="921.7" y="94.3" class="st9" width="110.7" height="42.3"/>
		<rect x="157.5" y="130.6" class="st9" width="86.9" height="5.9"/>
		<polyline class="st9" points="1013.9,95.3 1013.9,117.4 939.6,117.4 939.6,95.3 		"/>
		<g>
			<path class="st11" d="M37.1,151.8c0-3.3-2.7-6-6-6s-6,2.7-6,6v-0.1v162.5"/>
		</g>
		<line class="st11" x1="37.1" y1="151.8" x2="37.1" y2="341.1"/>
		<line class="st11" x1="33" y1="151.8" x2="33" y2="329.8"/>
		<line class="st11" x1="29" y1="151.8" x2="29" y2="329.8"/>
		<rect x="15.7" y="315" class="st11" width="9.8" height="34.4"/>
		<rect x="25.7" y="329.8" class="st11" width="11.4" height="8.2"/>
		<path class="st11" d="M20.9,349.2V151.8v-0.1c0-3.3-2.7-6-6-6s-6,2.7-6,6v0.4v177.7"/>
		<line class="st11" x1="4.8" y1="152.2" x2="4.8" y2="341.6"/>
		<line class="st11" x1="12.8" y1="152.1" x2="12.8" y2="329.8"/>
		<line class="st11" x1="16.9" y1="152.2" x2="16.9" y2="314.6"/>
		<rect x="4.7" y="329.8" class="st11" width="11.1" height="8.2"/>
	</g>
</g>
<g id="Type_69_B">
	<g id="Mål">
	</g>
	<g id="Farger">
		<g id="Grunnfarge_1_">
		</g>
		<g id="Profilering_1_">
		</g>
		<g id="Dører_og_vinduer_1_">
		</g>
	</g>
	<g id="Omriss">
	</g>
</g>
<g id="Info">
</g>
<g id="Tognavn" class="st12">
</g>
</svg>
