<?xml version="1.0" encoding="utf-8"?>
<!-- Generator: Adobe Illustrator 22.0.1, SVG Export Plug-In . SVG Version: 6.00 Build 0)  -->
<svg version="1.1" id="Type_69_D" xmlns="http://www.w3.org/2000/svg" xmlns:xlink="http://www.w3.org/1999/xlink" x="0px" y="0px"
	 viewBox="0 0 1927.2 426" style="enable-background:new 0 0 1927.2 426;" xml:space="preserve">
<metadata><?xpacket begin="﻿" id="W5M0MpCehiHzreSzNTczkc9d"?>
<x:xmpmeta xmlns:x="adobe:ns:meta/" x:xmptk="Adobe XMP Core 5.6-c143 79.161210, 2017/08/11-10:28:36        ">
   <rdf:RDF xmlns:rdf="http://www.w3.org/1999/02/22-rdf-syntax-ns#">
      <rdf:Description rdf:about=""/>
   </rdf:RDF>
</x:xmpmeta>
                                                                                                    
                                                                                                    
                                                                                                    
                                                                                                    
                                                                                                    
                                                                                                    
                                                                                                    
                                                                                                    
                                                                                                    
                                                                                                    
                                                                                                    
                                                                                                    
                                                                                                    
                                                                                                    
                                                                                                    
                                                                                                    
                                                                                                    
                                                                                                    
                                                                                                    
                                                                                                    
                           
<?xpacket end="w"?></metadata>
<style type="text/css">
	.st0{fill:#212322;}
	.st1{fill:#444445;}
	.st2{fill:#B1B3B3;}
	.st3{fill:#DA291C;}
	.st4{fill:#30302F;}
	.st5{fill:#878787;}
	.st6{fill:none;stroke:#000000;stroke-width:2;stroke-miterlimit:10;}
</style>
<g id="Mål_2_">
</g>
<g id="Farger_2_">
	<g id="Grunnfarger">
		<polygon class="st0" points="1309.4,360.8 1201.8,361.3 1201.8,360.2 1163.7,360.2 1163.7,360.2 1110.4,360.2 1110.4,361 
			1085.7,361 1082.1,361 1055.6,361 1055.6,381.2 1082.1,381.2 1085.7,381.2 1110.4,381.2 1110.4,398 1156.9,398 1163.7,398.1 
			1201.8,398.1 1201.8,376.3 1309.4,376 		"/>
		<path class="st0" d="M1777,407.6c5.4,7.6,14.2,12.6,24.2,12.6c13,0,24-8.4,28-20l-0.1,0.3c4.2,3.7,9.4,6.6,9.4,6.6l0.2,0.1
			c0,0,2-6.8,5.6-5.5c0,0,0.9-14.7,0.3-15.4s-15.2-9.5-15.2-9.5c-0.4-0.2-1.6-1.1-2.5-1.8c-0.7-0.5-1.4-1.2-1.9-1.9
			c-5.4-7.3-14.1-12.1-23.8-12.1l-37.1-0.1l-15.4,6.2h-6.4v-6.4c0,0-40-0.3-40.3,0l-0.1,6.4h-7l-14.6-5.9l-38.3-0.3
			c-9.8,0-17.4,3.9-23.1,11.3c0,0.1-2.6,2.6-3.5,3.2c-4.4,2.7-16.1,10.1-16.5,10.7c-0.6,0.7,0.3,15.4,0.3,15.4
			c3.6-1.3,5.6,5.5,5.6,5.5s5.1-3.6,9.3-6.8c4,11.5,15,19.8,27.9,19.8c9.5,0,18-4.5,23.4-11.5v0.3l5.1-0.5v1.5h41.5v-7.3v0.1h18.8
			v-0.1v7.3h41.5l4.5-2.3L1777,407.6"/>
		<path class="st0" d="M332.8,407.2c5.4,7.6,14.2,12.6,24.2,12.6c13,0,24-8.4,28-20l-0.1,0.3c4.2,3.7,9.4,6.6,9.4,6.6l0.2,0.1
			c0,0,2-6.8,5.6-5.5c0,0,0.9-14.7,0.3-15.4s-15.2-9.5-15.2-9.5c-0.4-0.2-1.6-1.1-2.5-1.8c-0.7-0.5-1.4-1.2-1.9-1.9
			c-5.4-7.3-14.1-12.1-23.8-12.1l-37.1-0.1l-15.4,6.2h-6.4v-6.4c0,0-40-0.3-40.3,0l-0.1,6.4h-7l-14.6-5.9l-38.3-0.3
			c-9.8,0-17.4,3.9-23.1,11.3c0,0.1-2.6,2.6-3.5,3.2c-4.4,2.7-16.1,10.1-16.5,10.7c-0.6,0.7,0.3,15.4,0.3,15.4
			c3.6-1.3,5.6,5.5,5.6,5.5s5.1-3.6,9.3-6.8c4,11.5,15,19.8,27.9,19.8c9.5,0,18-4.5,23.4-11.5v0.3l5.1-0.5v1.5h41.5v-7.3v0.1h18.8
			v-0.1v7.3h41.5l4.5-2.3L332.8,407.2"/>
		<polygon class="st1" points="64.3,154.1 55.4,154.1 55.4,159.3 38.8,159.3 38.8,333.8 55.4,333.8 55.4,338.5 59.6,338.5 77,360.6 
			77.2,146.5 		"/>
		<polygon class="st1" points="71.2,352.1 39.9,352.1 39.9,341.5 63.8,341.5 		"/>
		<polygon class="st2" points="1523.6,136.3 1481.4,113.5 1460.9,113.5 1460.9,110.3 1360.4,110.3 1360.4,114 1337.1,114 
			1300.3,136.3 653.3,136.3 611.1,113.6 590.6,113.6 590.6,110.4 490.1,110.4 490.1,114.2 466.7,114.2 429.8,136.3 78.1,136.3 
			78.1,360.8 78.1,360.8 445.2,360.8 482.4,382.5 626.4,382.5 664.4,360.6 1318.9,360.6 1355.2,382.5 1493.5,382.5 1530.5,360.6 
			1923.3,360.6 1923.3,136.3 		"/>
		<polyline class="st0" points="1370.3,135.5 1370.3,118.2 1450.8,118.2 1450.8,135.4 		"/>
		<polyline class="st0" points="500,135.5 499.9,118.2 580.5,118.2 580.5,135.4 		"/>
		<polygon class="st1" points="8.4,352.1 40.4,352.1 40.4,341.5 14.8,341.5 		"/>
		<polygon class="st1" points="39.3,159.3 23.7,159.3 23.7,154.1 14.7,154.1 1.8,146.5 2,360.6 19.4,338.1 23.7,338.1 23.7,333.8 
			39.3,333.8 		"/>
		<path class="st1" d="M83.8,360.6l-6.1-0.1l-3-3.1c0,0-0.2,14.9,0,15.1c0.2,0.2,9.1,0,9.1,0v-12.2"/>
		<path class="st1" d="M1915.1,360.2l6.2-0.4l2.9-3.2c0,0,0.3,15.6,0,15.9c-0.2,0.2-9.1,0-9.1,0V360.2"/>
	</g>
	<g id="Profilering_3_">
		<polygon id="rødt_nederst_7_" class="st3" points="1922.3,273.4 1922.4,360.6 1530.4,360.5 1492.9,382.5 1353.8,382.6 
			1317.9,361 663.7,360.6 625.1,382.3 481.3,382.5 444.5,360.8 77.2,360.3 77.5,273.4 		"/>
		<polygon class="st3" points="1849.5,200.6 1816.8,167.2 245.4,167.1 213,200.3 		"/>
		<g>
			<rect x="78.4" y="297.1" class="st2" width="1843.9" height="6.7"/>
		</g>
		<g>
			<polygon class="st2" points="1921.8,314.6 1625,314.6 1502.7,176 444.4,176 314.6,314.5 313.9,314.5 78.4,314.6 78.4,311.2 
				313.1,311.1 442.9,172.6 1504.3,172.6 1626.5,311.2 1921.8,311.2 			"/>
		</g>
		<polyline id="sort_bak_vinduer_7_" class="st4" points="78.8,273.2 78.1,199.3 1922.3,199.3 1922.3,273.3 		"/>
	</g>
	<g id="Dører_og_vinduer_3_">
		<rect x="488.1" y="137.2" class="st2" width="105" height="224.4"/>
		<rect x="1357.5" y="137.4" class="st2" width="105" height="224.4"/>
		<path class="st5" d="M1852.8,271.4h-67.6c-4.5,0-8.1-3.6-8.1-8.1v-54c0-4.5,3.6-8.1,8.1-8.1h67.6c4.5,0,8.1,3.6,8.1,8.1v54
			C1860.9,267.8,1857.3,271.4,1852.8,271.4z"/>
		<path class="st5" d="M1722.8,271.4h-67.6c-4.5,0-8.1-3.6-8.1-8.1v-54c0-4.5,3.6-8.1,8.1-8.1h67.6c4.5,0,8.1,3.6,8.1,8.1v54
			C1730.9,267.8,1727.3,271.4,1722.8,271.4z"/>
		<path class="st5" d="M1590.8,271.4h-67.6c-4.5,0-8.1-3.6-8.1-8.1v-54c0-4.5,3.6-8.1,8.1-8.1h67.6c4.5,0,8.1,3.6,8.1,8.1v54
			C1598.9,267.8,1595.3,271.4,1590.8,271.4z"/>
		<path class="st5" d="M1447.2,270.3h-21.6c-3.4,0-6.1-2.7-6.1-6.1v-43.3c0-3.4,2.7-6.1,6.1-6.1h21.6c3.4,0,6.1,2.7,6.1,6.1v43.3
			C1453.3,267.6,1450.6,270.3,1447.2,270.3z"/>
		<path class="st5" d="M1395.7,270.3h-21.6c-3.4,0-6.1-2.7-6.1-6.1v-43.3c0-3.4,2.7-6.1,6.1-6.1h21.6c3.4,0,6.1,2.7,6.1,6.1v43.3
			C1401.8,267.6,1399.1,270.3,1395.7,270.3z"/>
		<path class="st5" d="M1298,271.4h-67.6c-4.5,0-8.1-3.6-8.1-8.1v-54c0-4.5,3.6-8.1,8.1-8.1h67.6c4.5,0,8.1,3.6,8.1,8.1v54
			C1306.1,267.8,1302.4,271.4,1298,271.4z"/>
		<path class="st5" d="M1168,271.4h-67.6c-4.5,0-8.1-3.6-8.1-8.1v-54c0-4.5,3.6-8.1,8.1-8.1h67.6c4.5,0,8.1,3.6,8.1,8.1v54
			C1176.1,267.8,1172.4,271.4,1168,271.4z"/>
		<path class="st5" d="M1036.3,271.4h-67.6c-4.5,0-8.1-3.6-8.1-8.1v-54c0-4.5,3.6-8.1,8.1-8.1h67.6c4.5,0,8.1,3.6,8.1,8.1v54
			C1044.5,267.8,1040.8,271.4,1036.3,271.4z"/>
		<path class="st5" d="M904.9,271.4h-67.6c-4.5,0-8.1-3.6-8.1-8.1v-54c0-4.5,3.6-8.1,8.1-8.1h67.6c4.5,0,8.1,3.6,8.1,8.1v54
			C913,267.8,909.4,271.4,904.9,271.4z"/>
		<path class="st5" d="M777,271.4h-67.6c-4.5,0-8.1-3.6-8.1-8.1v-54c0-4.5,3.6-8.1,8.1-8.1H777c4.5,0,8.1,3.6,8.1,8.1v54
			C785.1,267.8,781.4,271.4,777,271.4z"/>
		<path class="st5" d="M577.4,270.3h-21.6c-3.4,0-6.1-2.7-6.1-6.1v-43.3c0-3.4,2.7-6.1,6.1-6.1h21.6c3.4,0,6.1,2.7,6.1,6.1v43.3
			C583.5,267.6,580.8,270.3,577.4,270.3z"/>
		<path class="st5" d="M525.9,270.3h-21.6c-3.4,0-6.1-2.7-6.1-6.1v-43.3c0-3.4,2.7-6.1,6.1-6.1h21.6c3.4,0,6.1,2.7,6.1,6.1v43.3
			C532,267.6,529.3,270.3,525.9,270.3z"/>
		<path class="st5" d="M421.8,271.4h-67.6c-4.5,0-8.1-3.6-8.1-8.1v-54c0-4.5,3.6-8.1,8.1-8.1h67.6c4.5,0,8.1,3.6,8.1,8.1v54
			C429.9,267.8,426.3,271.4,421.8,271.4z"/>
		<path class="st5" d="M276.1,271.4h-67.6c-4.5,0-8.1-3.6-8.1-8.1v-54c0-4.5,3.6-8.1,8.1-8.1h67.6c4.5,0,8.1,3.6,8.1,8.1v54
			C284.2,267.8,280.5,271.4,276.1,271.4z"/>
	</g>
</g>
<g id="Omriss_2_">
	<polyline class="st6" points="1665,409 1670.2,408.6 1670.2,410 1711.7,410 1711.7,402.8 	"/>
	<polyline class="st6" points="1681.8,395.2 1681.8,402.8 1694.9,402.8 	"/>
	<polyline class="st6" points="1776.5,407.8 1772,410 1730.5,410 1730.5,402.8 	"/>
	<polyline class="st6" points="1755.9,398.5 1759.8,402.8 1748.6,402.8 	"/>
	<line class="st6" x1="1741.9" y1="361" x2="1741.9" y2="367.1"/>
	<line class="st6" x1="1701.6" y1="367.1" x2="1701.6" y2="361"/>
	<circle class="st6" cx="1642.2" cy="390.8" r="4.3"/>
	<circle class="st6" cx="1801" cy="390.8" r="4.3"/>
	<path class="st6" d="M1828.8,400.2c-4,11.6-15,20-28,20c-16.3,0-29.6-13.3-29.6-29.6c0-1,0-1.5,0-1.5"/>
	<path class="st6" d="M1825.9,397.8c-3.5,10.3-13.3,17.9-24.7,17.9c-14.4,0-26-11.7-26-26.2c0-0.9,0.1-2.1,0.1-2.1"/>
	<path class="st6" d="M1671,388.8l0.2,1.8c0,16.3-13.3,29.6-29.6,29.6c-12.9,0-23.9-8.3-27.9-19.8"/>
	<path class="st6" d="M1666.8,387.5l0.2,1.6c0,14.5-11.5,26.2-25.7,26.2c-11.2,0-20.7-7.3-24.2-17.6"/>
	<path class="st6" d="M1618.5,372.5c0,0.1-2.6,2.6-3.5,3.2c-4.4,2.7-16.1,10.1-16.5,10.7c-0.6,0.7,0.3,15.4,0.3,15.4
		c3.6-1.3,5.6,5.5,5.6,5.5s12.4-9.2,13.9-10.8s1-3.4,1-5.2c0.1-3.4,2.6-5,4.2-5.6c1.2-0.4,9-0.3,9-0.3l4.4-2.5
		c1.7-1,3.7-1.5,5.7-1.5l0,0c2,0,3.9,0.5,5.6,1.5l5.6,3.1h11.6c0.3,0,0.8,0.2,0.8,0.2l28.9,16.8h53.6l27.6-16.4c0,0,0.5-0.5,1.3-0.5
		c0.7,0,1,0,1,0h11.6l5.6-3.1c1.7-1,3.6-1.5,5.6-1.5l0,0c2,0,3.9,0.5,5.7,1.5l4.4,2.5c0,0,6.6-0.2,7.8,0.1c1,0.2,4.7,1.5,4.7,7.4
		c0,6.3,14.5,14.3,14.5,14.3l0.2,0.1c0,0,2-6.8,5.6-5.5c0,0,0.9-14.7,0.3-15.4s-15.2-9.5-15.2-9.5c-0.4-0.2-1.6-1.1-2.5-1.7
		c-0.7-0.5-1.4-1.2-1.9-1.9c-5.4-7.3-14.1-12.1-23.9-12.1H1764l-15.4,6.2h-53.8l-14.6-5.9l-38.3-0.3l0,0
		C1631.8,361,1624.3,365,1618.5,372.5"/>
	<polyline class="st6" points="220.8,408.6 226,408.1 226,409.6 267.5,409.6 267.5,402.3 	"/>
	<polyline class="st6" points="237.5,394.8 237.5,402.3 250.6,402.3 	"/>
	<polyline class="st6" points="332.3,407.2 327.8,409.6 286.3,409.6 286.3,402.3 	"/>
	<polyline class="st6" points="311.7,398 315.6,402.3 304.4,402.5 	"/>
	<line class="st6" x1="297.7" y1="360.5" x2="297.7" y2="366.6"/>
	<line class="st6" x1="257.4" y1="366.6" x2="257.4" y2="360.5"/>
	<circle class="st6" cx="197.9" cy="390.2" r="4.3"/>
	<circle class="st6" cx="356.8" cy="390.5" r="4.3"/>
	<path class="st6" d="M384.6,399.8c-4,11.6-15,20-28,20c-16.3,0-29.6-13.3-29.6-29.6c0-1,0-1.5,0-1.5"/>
	<path class="st6" d="M381.7,397.3c-3.5,10.3-13.3,17.9-24.7,17.9c-14.4,0-26-11.7-26-26.2c0-0.9,0.1-2.1,0.1-2.1"/>
	<path class="st6" d="M226.8,388.3l0.2,1.8c0,16.3-13.3,29.6-29.6,29.6c-12.9,0-23.9-8.3-27.9-19.8"/>
	<path class="st6" d="M222.5,387l0.2,1.6c0,14.5-11.5,26.2-25.7,26.2c-11.2,0-20.7-7.3-24.2-17.6"/>
	<path class="st6" d="M174.3,372c0,0.1-2.6,2.6-3.5,3.2c-4.4,2.7-16.1,10.1-16.5,10.7c-0.6,0.7,0.3,15.4,0.3,15.4
		c3.6-1.3,5.6,5.5,5.6,5.5s12.4-9.2,13.9-10.8s1-3.4,1-5.2c0.1-3.4,2.6-5,4.2-5.6c1.2-0.4,9-0.3,9-0.3l4.4-2.5
		c1.7-1,3.7-1.5,5.7-1.5l0,0c2,0,3.9,0.5,5.6,1.5l5.6,3.1h11.6c0.3,0,0.8,0.2,0.8,0.2l28.9,16.8h53.6l27.6-16.4c0,0,0.5-0.5,1.3-0.5
		s1,0,1,0H346l5.6-3.1c1.7-1,3.6-1.5,5.6-1.5l0,0c2,0,3.9,0.5,5.7,1.5l4.4,2.5c0,0,6.6-0.2,7.8,0.1c1,0.2,4.7,1.5,4.7,7.4
		c0,6.3,14.5,14.3,14.5,14.3l0.2,0.1c0,0,2-6.8,5.6-5.5c0,0,0.9-14.7,0.3-15.4s-15.2-9.5-15.2-9.5c-0.4-0.2-1.6-1.1-2.5-1.7
		c-0.7-0.5-1.4-1.2-1.9-1.9c-5.4-7.3-14.1-12.1-23.9-12.1h-37.1l-15.4,6.2h-53.8L236,361l-38.3-0.3l0,0
		C187.6,360.6,180,364.5,174.3,372"/>
	<line class="st6" x1="1460.9" y1="113.8" x2="1460.9" y2="136.4"/>
	<line class="st6" x1="1360.4" y1="114.3" x2="1360.4" y2="136.3"/>
	<line class="st6" x1="590.5" y1="113.8" x2="590.5" y2="136.3"/>
	<line class="st6" x1="489.9" y1="114.2" x2="489.9" y2="136.3"/>
	<polygon class="st6" points="77.7,360.8 444.7,360.8 482,382.5 626,382.5 664,360.6 1318.4,360.6 1354.8,382.5 1493.1,382.5 
		1530.1,360.6 1922.8,360.6 1922.8,136.3 77.7,136.3 	"/>
	<polyline class="st6" points="77.2,146.5 64.3,154.1 55.4,154.1 55.4,338.5 59.6,338.5 77,360.6 	"/>
	<polyline class="st6" points="62,341.5 40,341.5 40,352.1 70.9,352.1 	"/>
	<polyline class="st6" points="55.5,159.3 39.3,159.3 39.3,333.8 55.5,333.8 	"/>
	<line class="st6" x1="630.9" y1="285.8" x2="1323" y2="285.8"/>
	<line class="st6" x1="630.8" y1="316.1" x2="1323" y2="316.1"/>
	<line class="st6" x1="106.7" y1="285.8" x2="451.1" y2="285.8"/>
	<line class="st6" x1="106.7" y1="316.1" x2="451.1" y2="316.1"/>
	<line class="st6" x1="1500.2" y1="285.8" x2="1872.4" y2="285.8"/>
	<line class="st6" x1="1500.2" y1="316.1" x2="1872.4" y2="316.1"/>
	<polyline class="st6" points="429.8,136.2 466.6,114.2 489.9,114.2 489.9,110.4 590.5,110.4 590.5,113.8 611,113.8 652.8,136.2 	
		"/>
	<polyline class="st6" points="1300.2,136.4 1337,114.3 1360.4,114.3 1360.4,110.6 1460.9,110.6 1460.9,113.8 1481.4,113.8 
		1523.2,136.4 	"/>
	<path class="st6" d="M276.1,271.4h-67.6c-4.5,0-8.1-3.6-8.1-8.1v-54c0-4.5,3.6-8.1,8.1-8.1h67.6c4.5,0,8.1,3.6,8.1,8.1v54
		C284.2,267.8,280.5,271.4,276.1,271.4z"/>
	<line class="st6" x1="200.6" y1="227.3" x2="284.3" y2="227.3"/>
	<path class="st6" d="M421.8,271.4h-67.6c-4.5,0-8.1-3.6-8.1-8.1v-54c0-4.5,3.6-8.1,8.1-8.1h67.6c4.5,0,8.1,3.6,8.1,8.1v54
		C429.9,267.8,426.3,271.4,421.8,271.4z"/>
	<line class="st6" x1="346.4" y1="227.3" x2="430.1" y2="227.3"/>
	<path class="st6" d="M777,271.4h-67.6c-4.5,0-8.1-3.6-8.1-8.1v-54c0-4.5,3.6-8.1,8.1-8.1H777c4.5,0,8.1,3.6,8.1,8.1v54
		C785.1,267.8,781.4,271.4,777,271.4z"/>
	<line class="st6" x1="701.5" y1="227.3" x2="785.2" y2="227.3"/>
	<path class="st6" d="M904.9,271.4h-67.6c-4.5,0-8.1-3.6-8.1-8.1v-54c0-4.5,3.6-8.1,8.1-8.1h67.6c4.5,0,8.1,3.6,8.1,8.1v54
		C913,267.8,909.4,271.4,904.9,271.4z"/>
	<line class="st6" x1="829.4" y1="227.3" x2="913.1" y2="227.3"/>
	<path class="st6" d="M1036.3,271.4h-67.6c-4.5,0-8.1-3.6-8.1-8.1v-54c0-4.5,3.6-8.1,8.1-8.1h67.6c4.5,0,8.1,3.6,8.1,8.1v54
		C1044.5,267.8,1040.8,271.4,1036.3,271.4z"/>
	<line class="st6" x1="960.9" y1="227.3" x2="1044.6" y2="227.3"/>
	<path class="st6" d="M1168,271.4h-67.6c-4.5,0-8.1-3.6-8.1-8.1v-54c0-4.5,3.6-8.1,8.1-8.1h67.6c4.5,0,8.1,3.6,8.1,8.1v54
		C1176.1,267.8,1172.4,271.4,1168,271.4z"/>
	<line class="st6" x1="1092.5" y1="227.3" x2="1176.2" y2="227.3"/>
	<path class="st6" d="M1298,271.4h-67.6c-4.5,0-8.1-3.6-8.1-8.1v-54c0-4.5,3.6-8.1,8.1-8.1h67.6c4.5,0,8.1,3.6,8.1,8.1v54
		C1306.1,267.8,1302.4,271.4,1298,271.4z"/>
	<line class="st6" x1="1222.5" y1="227.3" x2="1306.2" y2="227.3"/>
	<path class="st6" d="M1590.8,271.4h-67.6c-4.5,0-8.1-3.6-8.1-8.1v-54c0-4.5,3.6-8.1,8.1-8.1h67.6c4.5,0,8.1,3.6,8.1,8.1v54
		C1598.9,267.8,1595.3,271.4,1590.8,271.4z"/>
	<line class="st6" x1="1515.3" y1="227.3" x2="1599" y2="227.3"/>
	<path class="st6" d="M1722.8,271.4h-67.6c-4.5,0-8.1-3.6-8.1-8.1v-54c0-4.5,3.6-8.1,8.1-8.1h67.6c4.5,0,8.1,3.6,8.1,8.1v54
		C1730.9,267.8,1727.3,271.4,1722.8,271.4z"/>
	<line class="st6" x1="1647.4" y1="227.3" x2="1731" y2="227.3"/>
	<path class="st6" d="M1852.8,271.4h-67.6c-4.5,0-8.1-3.6-8.1-8.1v-54c0-4.5,3.6-8.1,8.1-8.1h67.6c4.5,0,8.1,3.6,8.1,8.1v54
		C1860.9,267.8,1857.3,271.4,1852.8,271.4z"/>
	<line class="st6" x1="1777.4" y1="227.3" x2="1861.1" y2="227.3"/>
	<path class="st6" d="M83.6,360.5v12.2c0,0-8.9,0.2-9.1,0s0-15.4,0-15.4"/>
	<path class="st6" d="M1463,362h-104.9V200.4c0-4.5,3.6-8.1,8.1-8.1h88.6c4.5,0,8.1,3.6,8.1,8.1V362H1463z"/>
	<path class="st6" d="M1447.2,270.3h-21.6c-3.4,0-6.1-2.7-6.1-6.1v-43.3c0-3.4,2.7-6.1,6.1-6.1h21.6c3.4,0,6.1,2.7,6.1,6.1v43.3
		C1453.3,267.5,1450.6,270.3,1447.2,270.3z"/>
	<path class="st6" d="M1395.7,270.3h-21.6c-3.4,0-6.1-2.7-6.1-6.1v-43.3c0-3.4,2.7-6.1,6.1-6.1h21.6c3.4,0,6.1,2.7,6.1,6.1v43.3
		C1401.8,267.5,1399.1,270.3,1395.7,270.3z"/>
	<line class="st6" x1="1410.6" y1="191.9" x2="1410.6" y2="362"/>
	<path class="st6" d="M593.2,362H488.3V200.4c0-4.5,3.6-8.1,8.1-8.1H585c4.5,0,8.1,3.6,8.1,8.1V362H593.2z"/>
	<path class="st6" d="M577.4,270.3h-21.6c-3.4,0-6.1-2.7-6.1-6.1v-43.3c0-3.4,2.7-6.1,6.1-6.1h21.6c3.4,0,6.1,2.7,6.1,6.1v43.3
		C583.5,267.5,580.8,270.3,577.4,270.3z"/>
	<path class="st6" d="M525.9,270.3h-21.6c-3.4,0-6.1-2.7-6.1-6.1v-43.3c0-3.4,2.7-6.1,6.1-6.1h21.6c3.4,0,6.1,2.7,6.1,6.1v43.3
		C532,267.5,529.3,270.3,525.9,270.3z"/>
	<line class="st6" x1="540.8" y1="191.9" x2="540.8" y2="362"/>
	<polyline class="st6" points="500,135.5 499.9,118.2 580.5,118.2 580.5,135.4 	"/>
	<line class="st6" x1="512.2" y1="135.4" x2="512.2" y2="118.2"/>
	<line class="st6" x1="526" y1="135.4" x2="526" y2="118.2"/>
	<line class="st6" x1="539.8" y1="135.4" x2="539.8" y2="118.2"/>
	<line class="st6" x1="553.6" y1="135.4" x2="553.6" y2="118.2"/>
	<line class="st6" x1="567.4" y1="135.4" x2="567.4" y2="118.2"/>
	<polyline class="st6" points="1370.3,135.5 1370.3,118.2 1450.8,118.2 1450.8,135.4 	"/>
	<line class="st6" x1="1382.5" y1="135.4" x2="1382.5" y2="118.2"/>
	<line class="st6" x1="1396.3" y1="135.4" x2="1396.3" y2="118.2"/>
	<line class="st6" x1="1410.1" y1="135.4" x2="1410.1" y2="118.2"/>
	<line class="st6" x1="1423.9" y1="135.4" x2="1423.9" y2="118.2"/>
	<line class="st6" x1="1437.7" y1="135.4" x2="1437.7" y2="118.2"/>
	<line class="st6" x1="78.1" y1="180.8" x2="488.1" y2="180.8"/>
	<line class="st6" x1="593.5" y1="180.8" x2="1357" y2="180.8"/>
	<line class="st6" x1="1462.9" y1="180.9" x2="1921.9" y2="180.9"/>
	<rect x="1055.6" y="361" class="st6" width="25.7" height="20.2"/>
	<rect x="1083" y="361" class="st6" width="25.7" height="20.2"/>
	<rect x="1110.2" y="361" class="st6" width="44.9" height="37.2"/>
	<rect x="1156.6" y="361" class="st6" width="44.9" height="37.2"/>
	<rect x="1203.2" y="361" class="st6" width="105.9" height="15"/>
	<polyline class="st6" points="1.4,146.5 14.4,154 23.3,154 23.3,338.1 19,338.1 1.6,360.6 	"/>
	<polyline class="st6" points="16.5,341.5 39.7,341.5 39.7,352.1 7.7,352.1 	"/>
	<polyline class="st6" points="23.1,159.3 39.3,159.3 39.3,333.8 23.1,333.8 	"/>
	<path class="st6" d="M1915.1,360.1v12.2c0,0,8.9,0.2,9.1,0s0-15.4,0-15.4"/>
</g>
</svg>
