<?xml version="1.0" encoding="utf-8"?>
<!-- Generator: Adobe Illustrator 22.0.1, SVG Export Plug-In . SVG Version: 6.00 Build 0)  -->
<svg version="1.1" id="Type_5" xmlns="http://www.w3.org/2000/svg" xmlns:xlink="http://www.w3.org/1999/xlink" x="0px" y="0px"
	 viewBox="0 0 1827 340" style="enable-background:new 0 0 1827 340;" xml:space="preserve">
<metadata><?xpacket begin="﻿" id="W5M0MpCehiHzreSzNTczkc9d"?>
<x:xmpmeta xmlns:x="adobe:ns:meta/" x:xmptk="Adobe XMP Core 5.6-c143 79.161210, 2017/08/11-10:28:36        ">
   <rdf:RDF xmlns:rdf="http://www.w3.org/1999/02/22-rdf-syntax-ns#">
      <rdf:Description rdf:about=""/>
   </rdf:RDF>
</x:xmpmeta>
                                                                                                    
                                                                                                    
                                                                                                    
                                                                                                    
                                                                                                    
                                                                                                    
                                                                                                    
                                                                                                    
                                                                                                    
                                                                                                    
                                                                                                    
                                                                                                    
                                                                                                    
                                                                                                    
                                                                                                    
                                                                                                    
                                                                                                    
                                                                                                    
                                                                                                    
                                                                                                    
                           
<?xpacket end="w"?></metadata>
<style type="text/css">
	.st0{fill:#B1B3B3;}
	.st1{fill:#212322;}
	.st2{fill:#444445;}
	.st3{fill:#DA291C;}
	.st4{fill:#FA4616;}
	.st5{fill:#878787;}
	.st6{fill:none;stroke:#000000;stroke-width:2;stroke-linecap:round;stroke-linejoin:round;stroke-miterlimit:10;}
	.st7{fill:none;stroke:#000000;stroke-width:2;stroke-linejoin:round;stroke-miterlimit:10;}
	.st8{fill:none;stroke:#000000;stroke-width:2;stroke-miterlimit:10;}
</style>
<g id="Mål_16_">
</g>
<g id="Farger_16_">
	<g id="Grunnfarge_12_">
		<path class="st0" d="M20.6,90.3h125.3l34.8-34.7h1460.6l34.8,34.7h130.7v-45c0,0,1.5-17.7-24.6-21.9s-1.1,0-1.1,0L1669,18.1
			l-0.3,3H1600v-2.6H226.7l-0.1,3.2l-68-0.6v-2.6c0,0-59.3,2-64.4,2.2s-46.6,1.5-52.9,3.5c-6.3,2.1-20.7,7.1-20.7,22
			C20.6,61.1,20.6,90.3,20.6,90.3z"/>
		<path class="st1" d="M1483.4,264.8c0,0-7.9-11.4-24.7-11.4s-32.2,16.3-29.6,35.9c2.6,19.7,23.5,24.6,30.6,25.4
			c7.2,0.7,18.4-3.9,26.3-14.9h5.9V297h18.5V293h60.4v4.1h18.5v2.8h6.3c0,0,7.4,12.9,22.2,14.6c14.8,1.7,26.5-7.3,31.4-16.5
			c4.8-9.2,4.6-21-1.6-30.1l-16.7-0.1l-13.4-14.3l-5.8-6.2l-29.4-0.1h-70.5c0,0-1.9,2-2.1,6.3c-0.2,4.4,1.5,13.9,2.9,15.9
			c0,0,0-2.7-6-3.7s-7.6-0.9-7.6-0.9s2.8-4.3-0.9-5.6c0,0-2.7,0.6-3.4,1.8c-0.7,1.2-4.8-0.1-4.8-0.1L1483.4,264.8z"/>
		<path class="st1" d="M344.4,264.8c0,0,7.9-11.4,24.7-11.4s32.2,16.3,29.6,35.9c-2.6,19.7-23.5,24.6-30.6,25.4
			c-7.2,0.7-18.4-3.9-26.3-14.9h-5.9V297h-18.5V293H257v4.1h-18.5v2.8h-6.3c0,0-7.4,12.9-22.2,14.6c-14.8,1.7-26.5-7.3-31.4-16.5
			c-4.8-9.2-4.6-21,1.6-30.1l16.7-0.1l13.4-14.3l5.8-6.2l29.4-0.1H316c0,0,1.9,2,2.1,6.3c0.2,4.4-1.5,13.9-2.9,15.9c0,0,0-2.7,6-3.7
			s7.6-0.9,7.6-0.9s-2.8-4.3,0.9-5.6c0,0,2.7,0.6,3.4,1.8c0.7,1.2,4.8-0.1,4.8-0.1L344.4,264.8z"/>
		<path class="st1" d="M20.6,227.9H10.2c0,0-1.7,0.2-1.7-3.4H6v-1.1H2.7c0,0-0.6,11.3,0,25.9h3.7v-0.9h2c0,0-0.4-3.2,0.6-3.2
			s16.2,0,16.2,0l-4.7-4.6v-12.7H20.6z"/>
		<path class="st1" d="M1806.9,227.9h10.4c0,0,1.7,0.2,1.7-3.4h2.5v-1.1h3.3c0,0,0.6,11.3,0,25.9h-3.7v-0.9h-2c0,0,0.4-3.2-0.6-3.2
			s-16.2,0-16.2,0l4.7-4.6v-12.7H1806.9z"/>
		<rect x="427" y="244.1" class="st1" width="189.1" height="29.2"/>
		<rect x="632" y="244.1" class="st1" width="111.2" height="29.2"/>
		<rect x="777.2" y="244.1" class="st1" width="89.9" height="29.2"/>
		<rect x="886" y="244.1" class="st1" width="66.5" height="29.2"/>
		<rect x="994.9" y="244.1" class="st1" width="99.8" height="29.2"/>
		<rect x="1103.8" y="244.1" class="st1" width="298.7" height="29.2"/>
	</g>
	<g id="Profilering_16_">
		<rect x="20.6" y="90.3" class="st2" width="1786.3" height="75.6"/>
		<polygon class="st3" points="20.6,240.8 49.5,268 196.7,268 216.7,248 359,248 387.8,242.6 1439.7,242.6 1469.2,247.2 
			1611.6,247.2 1630.8,267.8 1778.8,267.8 1806.9,241.1 1806.9,165.9 20.6,165.9 		"/>
		<polygon class="st3" points="1641.3,55.6 180.7,55.6 145.9,90.3 1676.2,90.3 		"/>
		<g>
			<polygon class="st0" points="1807.3,213.5 1617.1,213.5 1490.2,82.4 364.2,82.4 237.3,213.5 20.6,213.5 20.6,210.1 235.9,210.1 
				362.8,79 1491.7,79 1618.5,210.1 1807.3,210.1 			"/>
		</g>
		<g>
			<rect x="21" y="192.9" class="st0" width="1785.8" height="6.7"/>
		</g>
	</g>
	<g id="Dører_og_vinduer_14_">
		<path class="st4" d="M60.7,268h70.4c0,0,5.4-0.3,5.4-7c0-6.1,0-155.4,0-182.3c0-2.7-3.4-4.1-3.4-4.1H58.8c0,0-3.1,1.1-3.1,4.9
			s0,183.4,0,183.4S55.9,268,60.7,268z"/>
		<path class="st4" d="M1696,268h70.4c0,0,5.4-0.3,5.4-7c0-6.1,0-155.7,0-182.4c0-2.6-3.4-4-3.4-4h-73.8c0,0-3.7,0.9-3.7,5.9
			s0,182.3,0,182.3S1691.2,268,1696,268z"/>
		<path class="st5" d="M450.2,161.8h-42.3c-5.1,0-9.3-4.2-9.3-9.3V102c0-5.1,4.2-9.3,9.3-9.3h42.3c5.1,0,9.3,4.2,9.3,9.3v50.4
			C459.5,157.6,455.3,161.8,450.2,161.8z"/>
		<path class="st5" d="M574.7,161.8h-71.1c-5.1,0-9.3-4.2-9.3-9.3V102c0-5.1,4.2-9.3,9.3-9.3h71.1c5.1,0,9.3,4.2,9.3,9.3v50.4
			C584.1,157.6,579.9,161.8,574.7,161.8z"/>
		<path class="st5" d="M699.7,161.8h-71.1c-5.1,0-9.3-4.2-9.3-9.3V102c0-5.1,4.2-9.3,9.3-9.3h71.1c5.1,0,9.3,4.2,9.3,9.3v50.4
			C709.1,157.6,704.9,161.8,699.7,161.8z"/>
		<path class="st5" d="M824.8,161.8h-71.1c-5.1,0-9.3-4.2-9.3-9.3V102c0-5.1,4.2-9.3,9.3-9.3h71.1c5.1,0,9.3,4.2,9.3,9.3v50.4
			C834.1,157.6,829.9,161.8,824.8,161.8z"/>
		<path class="st5" d="M1074.2,161.8h-71.1c-5.1,0-9.3-4.2-9.3-9.3V102c0-5.1,4.2-9.3,9.3-9.3h71.1c5.1,0,9.3,4.2,9.3,9.3v50.4
			C1083.6,157.6,1079.4,161.8,1074.2,161.8z"/>
		<path class="st5" d="M1199.2,161.8h-71.1c-5.1,0-9.3-4.2-9.3-9.3V102c0-5.1,4.2-9.3,9.3-9.3h71.1c5.1,0,9.3,4.2,9.3,9.3v50.4
			C1208.6,157.6,1204.4,161.8,1199.2,161.8z"/>
		<path class="st5" d="M1324.3,161.8h-71.1c-5.1,0-9.3-4.2-9.3-9.3V102c0-5.1,4.2-9.3,9.3-9.3h71.1c5.1,0,9.3,4.2,9.3,9.3v50.4
			C1333.7,157.6,1329.5,161.8,1324.3,161.8z"/>
		<path class="st5" d="M1449.3,161.8h-71.1c-5.1,0-9.3-4.2-9.3-9.3V102c0-5.1,4.2-9.3,9.3-9.3h71.1c5.1,0,9.3,4.2,9.3,9.3v50.4
			C1458.7,157.6,1454.5,161.8,1449.3,161.8z"/>
		<path class="st5" d="M1573.2,161.8h-71.1c-5.1,0-9.3-4.2-9.3-9.3V102c0-5.1,4.2-9.3,9.3-9.3h71.1c5.1,0,9.3,4.2,9.3,9.3v50.4
			C1582.5,157.6,1578.3,161.8,1573.2,161.8z"/>
		<path class="st5" d="M111.1,162.8H77.4c-4.1,0-7.5-3.4-7.5-7.5v-35c0-4.1,3.4-7.5,7.5-7.5h33.8c4.1,0,7.5,3.4,7.5,7.5v35
			C118.7,159.4,115.3,162.8,111.1,162.8z"/>
		<path class="st5" d="M1716.4,162.8h33.8c4.1,0,7.5-3.4,7.5-7.5v-35c0-4.1-3.4-7.5-7.5-7.5h-33.8c-4.1,0-7.5,3.4-7.5,7.5v35
			C1708.9,159.4,1712.3,162.8,1716.4,162.8z"/>
	</g>
</g>
<g id="Omriss_16_">
	<path class="st6" d="M1807,45.3c0,4.6,0,45,0,45v150.9l-28.1,26.6h-148l-9.9-10.6l-3.2-3.4l-6.1-6.5h-142.4l-29.5-4.7H388
		l-28.8,4.8l-143.1-0.1L196.9,268l-93.5,0.1H49.6l-28.9-27.3l0.1-168.9V44.6c0,0,0.8-19.1,28.1-21.4c27.3-2.2,109.9-4.6,109.9-4.6
		v2.6h68.1v-2.6h1373.3v2.5h69.1v-2.9l108.5,5c0,0,18.9-0.7,27.2,14.6C1805,37.8,1807,40.6,1807,45.3z"/>
	<circle class="st6" cx="1459.8" cy="284.1" r="12.3"/>
	<path class="st6" d="M1483.6,264.8c-5.6-6.9-14.2-11.3-23.8-11.3c-16.9,0-30.6,13.7-30.6,30.6c0,16.9,13.7,30.6,30.6,30.6
		c11.2,0,20.9-6,26.3-14.9"/>
	<circle class="st6" cx="1621.8" cy="284.1" r="12.3"/>
	<path class="st6" d="M1598.1,264.8c4.8-5.9,11.8-10,19.7-11"/>
	<path class="st6" d="M1647.7,267.8c3,4.7,4.8,10.4,4.8,16.4c0,16.9-13.7,30.6-30.6,30.6c-11.2,0-20.9-6-26.3-14.9"/>
	<path class="st6" d="M1475.2,270l-1.9-0.6v9.9c0,0,1,1.8,1,5s-1,4.5-1,4.5V300h8.4h4.4h5.9V297h18.5V293v-9.5l-0.7-6.5l-7.5-7.3
		l-0.1-0.1h-8.9h-6.1v0.6v3.6l-2.8-0.9l0,0l-5.2-1.7"/>
	<path class="st6" d="M1606.3,270l1.6-0.5v9.9c0,0-1,1.8-1,5s1,4.5,1,4.5V300h-7.5h-4.8h-6.3V297h-18.5V293v-9.5l0.7-6.5l7.6-7.3h15
		v4.2l3.8-1.2l4.6-1.5"/>
	<polyline class="st6" points="1570.8,293 1510.4,293 1510.4,293 	"/>
	<path class="st6" d="M1571.9,256.8c0,6-2.2,11.1-2.2,11.1s-0.8,1.1-1.8,1.1c-1.1,0-30.7,0.1-30.7,0.1h-23.4c0,0-1.4-0.1-1.8-1.1
		c-0.1-0.3-0.3-0.7-0.6-1.5c-0.7-1.8-1.6-5.1-1.6-10c0-6.8,1.6-9.2,1.6-9.2h58.8C1570,247.2,1571.9,250.8,1571.9,256.8z"/>
	<path class="st6" d="M1569,268.6l9.5-1.5l0.6,2.4l12.3-0.1l0.9-1.3c0,0,1.3,0.3,3,0.7c1.3,0.3,2.8,0.7,4.1,1c1.5,0.4,2.6,0.8,2.8,1
		c0.1,0.1,0.2,0.2,0.2,0.3c0.4,0.4,0.9,0.6,0.9,2c0,1.6,0.1,3.5,0.1,3.5h2.9V270v-0.3c0,0-1.3-1.8-2.9-2.5c-0.3-0.1-0.8-0.3-1.5-0.7
		c-1-0.4-2.4-1-3.8-1.7c-3.1-1.4-6.3-3.2-6.3-4h-9.4v-13.4h-10v13.3l10,0.2"/>
	<path class="st6" d="M1512.5,268.8l-9.5-1.5l-0.6,2.4h-0.3l-9-0.1h-3.1l-0.9-1.3c0,0-1.3,0.3-3,0.7c-2.8,0.7-6.6,1.6-6.9,2
		c-0.1,0.1-0.2,0.2-0.2,0.3l0,0c-0.4,0.4-0.9,0.6-0.9,1.9c0,1.6-0.1,3.5-0.1,3.5h-2.9V270l0,0v-0.3c0,0,1.3-1.8,2.9-2.5
		c0.3-0.1,1-0.4,2-0.8c1-0.4,2.2-1,3.4-1.5c0.1,0,0.1-0.1,0.1-0.1c3-1.4,6.2-3.1,6.2-3.9h5.6c0,0,0.7-2.1,2.7-1.7
		c2,0.5,1.6,2.1,1.6,2.5c0,0.3-0.9,3.8-0.9,3.8l1.1,0.3l0.7-1l10.7,1.7"/>
	<line class="st6" x1="1484.3" y1="273" x2="1484.3" y2="273"/>
	<path class="st6" d="M1480.1,266.5c-4.9-5.7-12.2-9.2-20.3-9.2c-14.9,0-26.9,12.1-26.9,27s12.1,26.9,26.9,26.9
		c9,0,17-4.4,21.8-11.2"/>
	<path class="st6" d="M1643.6,267.8c3.5,4.6,5.5,10.2,5.5,16.4c0,14.9-12.1,26.9-26.9,26.9c-9,0-17-4.4-21.8-11.2"/>
	<path class="st6" d="M1621,257.2c-7.7,0.4-14.5,3.9-19.1,9.3c0.7,0.3,1.2,0.6,1.5,0.7c1.6,0.7,2.9,2.5,2.9,2.5v0.3v6.7h-2.9
		c0,0-0.1-1.9-0.1-3.5c0-1.4-0.5-1.5-0.9-2c-0.1-0.1-0.2-0.2-0.2-0.3c-0.2-0.2-1.3-0.6-2.8-1"/>
	<circle class="st7" cx="368" cy="284.1" r="12.3"/>
	<path class="st7" d="M341.7,299.8c5.3,8.9,15.1,14.9,26.3,14.9c16.9,0,30.6-13.7,30.6-30.6c0-16.9-13.7-30.6-30.6-30.6
		c-9.6,0-18.2,4.4-23.8,11.3"/>
	<circle class="st7" cx="206" cy="284.1" r="12.3"/>
	<path class="st7" d="M210,253.8c7.9,1,14.9,5.1,19.7,11"/>
	<path class="st7" d="M232.2,299.8c-5.3,8.9-15.1,14.9-26.3,14.9c-16.9,0-30.6-13.7-30.6-30.6c0-6,1.7-11.6,4.8-16.4"/>
	<path class="st7" d="M348.7,271.2l-5.2,1.7l0,0l-2.8,0.9v-3.6v-0.6h-6.1h-8.9l-0.1,0.1l-7.5,7.3l-0.7,6.5v9.5v4.1h18.5v2.8h5.9h4.4
		h8.4v-11.1c0,0-1-1.2-1-4.5c0-3.2,1-5,1-5v-9.9l-1.9,0.6"/>
	<path class="st7" d="M225.4,271.1l4.6,1.5l3.8,1.2v-4.2h15l7.6,7.3l0.7,6.5v9.5v4.1h-18.5v2.8h-6.3h-4.8H220v-11.1c0,0,1-1.2,1-4.5
		c0-3.2-1-5-1-5v-9.9l1.6,0.5"/>
	<polyline class="st7" points="317.4,293 317.4,293 257,293 	"/>
	<path class="st7" d="M256,256.8c0,6,2.2,11.1,2.2,11.1s0.8,1.1,1.8,1.1c1.1,0,30.7,0.1,30.7,0.1h23.4c0,0,1.4-0.1,1.8-1.1
		c0.1-0.3,0.3-0.7,0.6-1.5c0.7-1.8,1.6-5.1,1.6-10c0-6.8-1.6-9.2-1.6-9.2h-58.8C257.8,247.2,256,250.8,256,256.8z"/>
	<path class="st7" d="M245.4,260.8l10-0.2v-13.3h-10V260.8H236c0,0.8-3.3,2.6-6.3,4c-1.4,0.7-2.8,1.3-3.8,1.7
		c-0.7,0.3-1.2,0.6-1.5,0.7c-1.6,0.7-2.9,2.5-2.9,2.5v0.3v6.7h2.9c0,0,0.1-1.9,0.1-3.5c0-1.4,0.5-1.5,0.9-2c0.1-0.1,0.2-0.2,0.2-0.3
		c0.2-0.2,1.3-0.6,2.8-1c1.2-0.3,2.8-0.7,4.1-1c1.7-0.4,3-0.7,3-0.7l0.9,1.3l12.3,0.1l0.6-2.4l9.5,1.5"/>
	<path class="st7" d="M316.5,266.5l10.7-1.7l0.7,1l1.1-0.3c0,0-0.8-3.5-0.9-3.8c0-0.4-0.5-2,1.6-2.5c2-0.4,2.7,1.7,2.7,1.7h5.6
		c0,0.8,3.2,2.5,6.2,3.9c0.1,0,0.1,0,0.1,0.1c1.2,0.6,2.4,1.1,3.4,1.5c0.9,0.4,1.6,0.7,2,0.8c1.6,0.7,2.9,2.5,2.9,2.5v0.3l0,0v6.7
		h-2.9c0,0-0.1-1.9-0.1-3.5c0-1.3-0.4-1.5-0.9-1.9l0,0c-0.1-0.1-0.2-0.2-0.2-0.3c-0.3-0.4-4.1-1.3-6.9-2c-1.7-0.4-3-0.7-3-0.7
		l-0.9,1.3h-3.1l-9,0.1h-0.3l-0.6-2.4l-9.5,1.5"/>
	<line class="st7" x1="343.5" y1="273" x2="343.5" y2="273"/>
	<path class="st7" d="M346.2,299.8C351,306.6,359,311,368,311c14.9,0,26.9-12.1,26.9-26.9c0-14.9-12.1-27-26.9-27
		c-8.1,0-15.3,3.6-20.3,9.2"/>
	<path class="st7" d="M227.4,299.8c-4.9,6.8-12.8,11.2-21.8,11.2c-14.9,0-26.9-12.1-26.9-26.9c0-6.1,2.1-11.8,5.5-16.4"/>
	<path class="st7" d="M228.4,270c-1.5,0.4-2.6,0.8-2.8,1c-0.1,0.1-0.2,0.2-0.2,0.3c-0.4,0.4-0.9,0.6-0.9,2c0,1.6-0.1,3.5-0.1,3.5
		h-2.9V270v-0.3c0,0,1.3-1.8,2.9-2.5c0.3-0.1,0.8-0.3,1.5-0.7c-4.7-5.4-11.5-8.9-19.1-9.3"/>
	<path class="st7" d="M1641.1,181.8H188.3c-1,0-1.8-0.8-1.8-1.8l0,0c0-1,0.8-1.8,1.8-1.8h1452.8c1,0,1.8,0.8,1.8,1.8l0,0
		C1642.9,180.9,1642.1,181.8,1641.1,181.8z"/>
	<path class="st7" d="M1641.1,199.3H188.3c-1,0-1.8-0.8-1.8-1.8l0,0c0-1,0.8-1.8,1.8-1.8h1452.8c1,0,1.8,0.8,1.8,1.8l0,0
		C1642.9,198.5,1642.1,199.3,1641.1,199.3z"/>
	<path class="st7" d="M1641.1,216.5H188.3c-1,0-1.8-0.8-1.8-1.8l0,0c0-1,0.8-1.8,1.8-1.8h1452.8c1,0,1.8,0.8,1.8,1.8l0,0
		C1642.9,215.8,1642.1,216.5,1641.1,216.5z"/>
	<path class="st7" d="M450.3,161.8H408c-5.1,0-9.3-4.2-9.3-9.3V102c0-5.1,4.2-9.3,9.3-9.3h42.3c5.1,0,9.3,4.2,9.3,9.3v50.4
		C459.6,157.6,455.4,161.8,450.3,161.8z"/>
	<path class="st7" d="M574.8,161.8h-71.1c-5.1,0-9.3-4.2-9.3-9.3V102c0-5.1,4.2-9.3,9.3-9.3h71.1c5.1,0,9.3,4.2,9.3,9.3v50.4
		C584.2,157.6,580,161.8,574.8,161.8z"/>
	<path class="st7" d="M699.8,161.8h-71.1c-5.1,0-9.3-4.2-9.3-9.3V102c0-5.1,4.2-9.3,9.3-9.3h71.1c5.1,0,9.3,4.2,9.3,9.3v50.4
		C709.2,157.6,705,161.8,699.8,161.8z"/>
	<path class="st7" d="M824.9,161.8h-71.1c-5.1,0-9.3-4.2-9.3-9.3V102c0-5.1,4.2-9.3,9.3-9.3h71.1c5.1,0,9.3,4.2,9.3,9.3v50.4
		C834.3,157.6,830.1,161.8,824.9,161.8z"/>
	<path class="st7" d="M1074.4,161.8h-71.1c-5.1,0-9.3-4.2-9.3-9.3V102c0-5.1,4.2-9.3,9.3-9.3h71.1c5.1,0,9.3,4.2,9.3,9.3v50.4
		C1083.7,157.6,1079.5,161.8,1074.4,161.8z"/>
	<path class="st7" d="M1199.4,161.8h-71.1c-5.1,0-9.3-4.2-9.3-9.3V102c0-5.1,4.2-9.3,9.3-9.3h71.1c5.1,0,9.3,4.2,9.3,9.3v50.4
		C1208.7,157.6,1204.5,161.8,1199.4,161.8z"/>
	<path class="st7" d="M1324.4,161.8h-71.1c-5.1,0-9.3-4.2-9.3-9.3V102c0-5.1,4.2-9.3,9.3-9.3h71.1c5.1,0,9.3,4.2,9.3,9.3v50.4
		C1333.8,157.6,1329.6,161.8,1324.4,161.8z"/>
	<path class="st7" d="M1449.5,161.8h-71.1c-5.1,0-9.3-4.2-9.3-9.3V102c0-5.1,4.2-9.3,9.3-9.3h71.1c5.1,0,9.3,4.2,9.3,9.3v50.4
		C1458.8,157.6,1454.6,161.8,1449.5,161.8z"/>
	<path class="st7" d="M1573.3,161.8h-71.1c-5.1,0-9.3-4.2-9.3-9.3V102c0-5.1,4.2-9.3,9.3-9.3h71.1c5.1,0,9.3,4.2,9.3,9.3v50.4
		C1582.6,157.6,1578.4,161.8,1573.3,161.8z"/>
	<line class="st7" x1="20.7" y1="71.8" x2="1806.9" y2="71.8"/>
	<line class="st7" x1="1611.7" y1="247.2" x2="1641.3" y2="242.5"/>
	<line class="st7" x1="1778.6" y1="23.1" x2="1778.6" y2="267.8"/>
	<line class="st7" x1="1772" y1="219.9" x2="1807" y2="219.9"/>
	<line class="st7" x1="55.8" y1="219.9" x2="20.7" y2="219.9"/>
	<line class="st7" x1="184.6" y1="242.2" x2="216.1" y2="247.2"/>
	<line class="st7" x1="388" y1="242.6" x2="136.1" y2="242.6"/>
	<line class="st7" x1="1439.8" y1="242.6" x2="1691.4" y2="242.6"/>
	<path class="st7" d="M111.3,162.8H77.5c-4.1,0-7.5-3.4-7.5-7.5v-35c0-4.1,3.4-7.5,7.5-7.5h33.8c4.1,0,7.5,3.4,7.5,7.5v35
		C118.8,159.4,115.4,162.8,111.3,162.8z"/>
	<path class="st7" d="M131.8,267.5H60.6c-2.7,0-4.9-2.2-4.9-4.9V79.3c0-2.7,2.2-4.9,4.9-4.9h71.1c2.7,0,4.9,2.2,4.9,4.9v183.2
		C136.6,265.2,134.4,267.5,131.8,267.5z"/>
	<path class="st7" d="M1716.5,162.8h33.8c4.1,0,7.5-3.4,7.5-7.5v-35c0-4.1-3.4-7.5-7.5-7.5h-33.8c-4.1,0-7.5,3.4-7.5,7.5v35
		C1709,159.4,1712.4,162.8,1716.5,162.8z"/>
	<path class="st7" d="M1696.1,267.5h71.1c2.7,0,4.9-2.2,4.9-4.9V79.3c0-2.7-2.2-4.9-4.9-4.9h-71.1c-2.7,0-4.9,2.2-4.9,4.9v183.2
		C1691.2,265.2,1693.4,267.5,1696.1,267.5z"/>
	<path class="st7" d="M123.6,63.1H57c-0.3,0-0.5-0.2-0.5-0.5V44.1c0-0.3,0.2-0.5,0.5-0.5h66.6c0.3,0,0.5,0.2,0.5,0.5v18.5
		C124.1,62.9,123.9,63.1,123.6,63.1z"/>
	<rect x="59.8" y="46.2" class="st7" width="60.7" height="14.3"/>
	<polygon class="st8" points="63.4,57 63.8,49.5 116.8,49.5 116.3,57 	"/>
	<line class="st7" x1="67.6" y1="49.5" x2="67.2" y2="57"/>
	<line class="st7" x1="71.4" y1="49.5" x2="70.9" y2="57"/>
	<line class="st7" x1="75.2" y1="49.5" x2="74.7" y2="57"/>
	<line class="st7" x1="79" y1="49.5" x2="78.5" y2="57"/>
	<line class="st7" x1="82.7" y1="49.5" x2="82.3" y2="57"/>
	<line class="st7" x1="86.5" y1="49.5" x2="86.1" y2="57"/>
	<line class="st7" x1="90.3" y1="49.5" x2="89.8" y2="57"/>
	<line class="st7" x1="94.1" y1="49.5" x2="93.6" y2="57"/>
	<line class="st7" x1="97.9" y1="49.5" x2="97.4" y2="57"/>
	<line class="st7" x1="101.6" y1="49.5" x2="101.2" y2="57"/>
	<line class="st7" x1="105.4" y1="49.5" x2="105" y2="57"/>
	<line class="st7" x1="109.2" y1="49.5" x2="108.7" y2="57"/>
	<line class="st7" x1="113" y1="49.5" x2="112.5" y2="57"/>
	<path class="st7" d="M1770.7,63.1h-66.6c-0.3,0-0.5-0.2-0.5-0.5V44.1c0-0.3,0.2-0.5,0.5-0.5h66.6c0.3,0,0.5,0.2,0.5,0.5v18.5
		C1771.3,62.9,1771,63.1,1770.7,63.1z"/>
	<rect x="1707" y="46.2" class="st7" width="60.7" height="14.3"/>
	<polygon class="st8" points="1710.5,57 1711,49.5 1763.9,49.5 1763.4,57 	"/>
	<line class="st7" x1="1714.8" y1="49.5" x2="1714.3" y2="57"/>
	<line class="st7" x1="1718.6" y1="49.5" x2="1718.1" y2="57"/>
	<line class="st7" x1="1722.3" y1="49.5" x2="1721.9" y2="57"/>
	<line class="st7" x1="1726.1" y1="49.5" x2="1725.6" y2="57"/>
	<line class="st7" x1="1729.9" y1="49.5" x2="1729.4" y2="57"/>
	<line class="st7" x1="1733.7" y1="49.5" x2="1733.2" y2="57"/>
	<line class="st7" x1="1737.4" y1="49.5" x2="1737" y2="57"/>
	<line class="st7" x1="1741.2" y1="49.5" x2="1740.8" y2="57"/>
	<line class="st7" x1="1745" y1="49.5" x2="1744.5" y2="57"/>
	<line class="st7" x1="1748.8" y1="49.5" x2="1748.3" y2="57"/>
	<line class="st7" x1="1752.6" y1="49.5" x2="1752.1" y2="57"/>
	<line class="st7" x1="1756.3" y1="49.5" x2="1755.9" y2="57"/>
	<line class="st7" x1="1760.1" y1="49.5" x2="1759.7" y2="57"/>
	<path class="st7" d="M946.2,63.1h-66.6c-0.3,0-0.5-0.2-0.5-0.5V44.1c0-0.3,0.2-0.5,0.5-0.5h66.6c0.3,0,0.5,0.2,0.5,0.5v18.5
		C946.7,62.9,946.5,63.1,946.2,63.1z"/>
	<polygon class="st8" points="894.3,60.3 894.7,46.6 932.6,46.6 932.1,60.3 	"/>
	<path class="st8" d="M20.6,227.8H10.3c0,0-1.7,0.5-1.7-1.8v-1.4H6.1v-1.1H2.9c0,0-0.4,7.8-0.4,12.2s0.4,13.7,0.4,13.7h3.7v-1h2
		v-2.2c0,0,0.1-1.1,1.1-1.1s15.7,0,15.7,0"/>
	<path class="st8" d="M1807,227.8h10.3c0,0,1.7,0.5,1.7-1.8v-1.4h2.5v-1.1h3.3c0,0,0.4,7.8,0.4,12.2s-0.4,13.7-0.4,13.7h-3.7v-1h-2
		v-2.2c0,0-0.1-1.1-1.1-1.1s-15.7,0-15.7,0"/>
	<line class="st8" x1="49.6" y1="268" x2="49.6" y2="23.1"/>
	<polyline class="st8" points="49.7,31.3 159.9,26.3 1667.9,26.3 1777.5,31.9 	"/>
	<polyline class="st8" points="49.7,26.4 159.9,21.4 1667.9,21.4 1777.5,27 	"/>
	<polyline class="st8" points="49.7,37.6 159.9,32.6 1667.9,32.6 1777.5,38.3 	"/>
	<line class="st8" x1="1777.5" y1="49.1" x2="1771.2" y2="48.8"/>
	<polyline class="st8" points="124.1,45.1 124.3,43.5 1632.3,43.5 1703.6,45.3 	"/>
	<line class="st8" x1="56.5" y1="48.2" x2="49.6" y2="48.4"/>
	<line class="st8" x1="1777.5" y1="61.2" x2="1771.2" y2="60.9"/>
	<polyline class="st8" points="946.7,55.6 1667.9,55.6 1703.6,57.4 	"/>
	<polyline class="st8" points="124.1,57.2 159.9,55.6 879.1,55.6 	"/>
	<line class="st8" x1="56.5" y1="60.3" x2="49.6" y2="60.5"/>
	<line class="st8" x1="1667.7" y1="21" x2="1667.7" y2="71.9"/>
	<line class="st8" x1="1691.2" y1="81.8" x2="1771.9" y2="81.8"/>
	<line class="st8" x1="55.8" y1="81.8" x2="136.6" y2="81.8"/>
	<rect x="426.7" y="244" class="st7" width="189.3" height="29.2"/>
	<rect x="632" y="244" class="st7" width="111.2" height="29.2"/>
	<rect x="777.2" y="244" class="st7" width="89.2" height="29.2"/>
	<rect x="886.1" y="244" class="st7" width="66.7" height="29.2"/>
	<rect x="994.9" y="244" class="st7" width="99.8" height="29.2"/>
	<rect x="1103.5" y="244" class="st7" width="77.8" height="29.2"/>
	<rect x="1181.3" y="244" class="st7" width="221.3" height="29.2"/>
</g>
</svg>
