<?xml version="1.0" encoding="utf-8"?>
<!-- Generator: Adobe Illustrator 22.0.1, SVG Export Plug-In . SVG Version: 6.00 Build 0)  -->
<svg version="1.1" id="Type_7" xmlns="http://www.w3.org/2000/svg" xmlns:xlink="http://www.w3.org/1999/xlink" x="0px" y="0px"
	 viewBox="0 0 1906.2 300" style="enable-background:new 0 0 1906.2 300;" xml:space="preserve">
<style type="text/css">
	.st0{fill:#B1B3B3;}
	.st1{fill:#212322;}
	.st2{fill:#DA291C;}
	.st3{fill:#333F48;}
	.st4{fill:#878787;}
	.st5{fill:#FA4616;}
	.st6{fill:none;stroke:#000000;stroke-width:2;stroke-linecap:round;stroke-linejoin:round;}
	.st7{fill:none;stroke:#000000;stroke-width:2;stroke-miterlimit:10;}
</style>
<title>171122_NT_illustrasjoner</title>
<metadata><?xpacket begin="﻿" id="W5M0MpCehiHzreSzNTczkc9d"?>
<x:xmpmeta xmlns:x="adobe:ns:meta/" x:xmptk="Adobe XMP Core 5.6-c143 79.161210, 2017/08/11-10:28:36        ">
   <rdf:RDF xmlns:rdf="http://www.w3.org/1999/02/22-rdf-syntax-ns#">
      <rdf:Description rdf:about=""
            xmlns:dc="http://purl.org/dc/elements/1.1/">
         <dc:title>
            <rdf:Alt>
               <rdf:li xml:lang="x-default">171122_NT_illustrasjoner</rdf:li>
            </rdf:Alt>
         </dc:title>
      </rdf:Description>
   </rdf:RDF>
</x:xmpmeta>
                                                                                                    
                                                                                                    
                                                                                                    
                                                                                                    
                                                                                                    
                                                                                                    
                                                                                                    
                                                                                                    
                                                                                                    
                                                                                                    
                                                                                                    
                                                                                                    
                                                                                                    
                                                                                                    
                                                                                                    
                                                                                                    
                                                                                                    
                                                                                                    
                                                                                                    
                                                                                                    
                           
<?xpacket end="w"?></metadata>
<g id="Farger">
	<g id="Grunnfarge">
		<polygon class="st0" points="21.1,13.7 1885.6,13.7 1885.6,92.1 21.8,92.1 		"/>
		<rect x="68.8" y="225.6" class="st1" width="74.4" height="16.6"/>
		<rect x="1764.9" y="225.5" class="st1" width="74.4" height="16.6"/>
		<path class="st1" d="M1557,210.3v7.2h21c0,0,0.2,3.9,4.7,3.9h10.1v18.8h-39.9c0,0-4.3-7.1-15.3-11.5s-24-1.5-29.7,2.8
			s-8.8,6.7-9.5,8.7h-9.8l-3.9,7.8v11.6h2.6l5-4.5c0,0-4.4,13.5,7.4,27.6s28.6,11.8,28.6,11.8s17.9-0.5,26.7-16.8
			c0,0,5.2-5.9,4.5-20.4l26,13.4h1.9v13.9h4.1l7.1-7.3v-2.3h35.9v2.3l7.1,7.3h4.1v-13.9h1.9l26-13c0,0-2.2,15.5,9.8,26.9
			s23.2,10.5,30.9,9.3s23.6-9,26.8-27.5c0.6-3.6,0.6-7.2,0.1-10.8l4.4,4h2.6v-11.7l-3.9-7.8h-9.7c0,0-5.3-7.8-14.3-11.1
			c-5.4-2-11.2-2.7-17-2.3c0,0-14.7,1.1-22.6,13.4h-40.5v-18.8h11.8c1.8-0.4,3-2,3-3.9h21.1v-7.2L1557,210.3z"/>
		<path class="st1" d="M231.4,210.3v7.2h21.1c0,0,0.2,3.9,4.7,3.9h10.1v18.8h-39.9c0,0-4.3-7.1-15.3-11.5s-24-1.5-29.7,2.8
			s-8.8,6.7-9.6,8.7h-9.8l-3.9,7.8v11.6h2.6l5-4.5c0,0-4.4,13.5,7.4,27.6s28.6,11.8,28.6,11.8s17.9-0.5,26.7-16.8
			c0,0,5.2-5.9,4.5-20.4l26,13.4h1.9v13.9h4.1l7.1-7.3v-2.3h35.9v2.3l7.1,7.3h4.1v-13.9h1.9l26-13c0,0-2.2,15.5,9.8,26.9
			s23.2,10.4,31,9.3s23.6-9,26.8-27.5c0.6-3.6,0.6-7.2,0.1-10.8l4.4,4h2.6v-11.7l-3.9-7.8h-9.7c0,0-5.3-7.8-14.3-11.1
			c-5.4-2-11.2-2.7-17-2.3c0,0-14.7,1.1-22.6,13.4h-40.5v-18.8h11.8c1.8-0.4,3-2,3-3.9h21.1v-7.2L231.4,210.3z"/>
		<polygon class="st1" points="21.2,205.5 5.5,205.6 5.5,199.1 3,199.1 3,231.2 5.5,231.2 5.5,224.6 38,224.6 21.2,208 		"/>
		<path class="st1" d="M1886.1,205.6h15.9v-6.5h2.3c0,0,0.2,32,0,32h-2.3v-6h-33.3l17.4-18V205.6z"/>
		<rect x="614.1" y="225.5" class="st1" width="61.8" height="27"/>
		<rect x="689.4" y="225.5" class="st1" width="141.6" height="27"/>
		<rect x="873.8" y="225.5" class="st1" width="69.2" height="27"/>
		<rect x="1016.5" y="225.5" class="st1" width="171.9" height="27"/>
		<rect x="1244.4" y="225.5" class="st1" width="56.6" height="27"/>
	</g>
	<g id="Profilering">
		<polygon class="st2" points="21,146.7 1886.1,146.7 1886.1,207.4 1868.7,224.4 1746.5,224.4 1734.9,210.3 1498.7,210.3 
			1486.5,225.6 420.4,225.6 409.7,210.3 173.6,210.3 160.9,225.6 39,225.6 21,207.8 		"/>
		<polygon class="st3" points="21.8,92.1 1886.3,92.1 1886.1,148.9 21.1,148.9 		"/>
		<rect x="20.9" y="178.7" class="st0" width="1864.7" height="6.7"/>
		<polygon class="st0" points="1886,199.2 1645.7,199.2 1518.9,68.1 392.9,68.1 266,199.2 20.5,199.2 20.5,195.8 264.5,195.8 
			391.4,64.7 1520.3,64.7 1647.2,195.8 1886,195.8 		"/>
		<polygon class="st2" points="1717.4,53.8 189.4,53.8 142.5,92.1 1764.4,92.1 		"/>
	</g>
	<g id="Dører_og_vinduer">
		<path class="st4" d="M34.9,93.1h23.2c2.4,0,4.4,2,4.4,4.4v46.2c0,2.4-2,4.4-4.4,4.4H34.9c-2.4,0-4.4-2-4.4-4.4V97.5
			C30.5,95.1,32.4,93.1,34.9,93.1z"/>
		<path class="st4" d="M452.7,96h109.8c3.8,0,6.9,3.1,6.9,6.9v34.9c0,3.8-3.1,6.9-6.9,6.9H452.7c-3.8,0-6.9-3.1-6.9-6.9v-34.9
			C445.8,99.1,448.9,96,452.7,96z"/>
		<rect x="1765.8" y="13.7" class="st5" width="72.6" height="212.3"/>
		<rect x="69.4" y="13.7" class="st5" width="72.6" height="212.3"/>
		<path class="st4" d="M624.6,96h109.8c3.8,0,6.9,3.1,6.9,6.9v34.9c0,3.8-3.1,6.9-6.9,6.9H624.6c-3.8,0-6.9-3.1-6.9-6.9v-34.9
			C617.7,99.1,620.8,96,624.6,96z"/>
		<path class="st4" d="M279.1,96h109.8c3.8,0,6.9,3.1,6.9,6.9v34.9c0,3.8-3.1,6.9-6.9,6.9H279.1c-3.8,0-6.9-3.1-6.9-6.9v-34.9
			C272.2,99.1,275.3,96,279.1,96z"/>
		<path class="st4" d="M88.8,97h34.4c2.4,0,4.4,2,4.4,4.4v39.4c0,2.4-2,4.4-4.4,4.4H88.8c-2.4,0-4.4-2-4.4-4.4v-39.4
			C84.4,99,86.4,97,88.8,97z"/>
		<path class="st4" d="M886.8,96h109.8c3.8,0,6.9,3.1,6.9,6.9v34.9c0,3.8-3.1,6.9-6.9,6.9H886.8c-3.8,0-6.9-3.1-6.9-6.9v-34.9
			C879.8,99.1,883,96,886.8,96z"/>
		<path class="st4" d="M1066.7,96h109.8c3.8,0,6.9,3.1,6.9,6.9v34.9c0,3.8-3.1,6.9-6.9,6.9h-109.8c-3.8,0-6.9-3.1-6.9-6.9v-34.9
			C1059.7,99.1,1062.8,96,1066.7,96z"/>
		<path class="st4" d="M1240.7,96h109.8c3.8,0,6.9,3.1,6.9,6.9v34.9c0,3.8-3.1,6.9-6.9,6.9h-109.8c-3.8,0-6.9-3.1-6.9-6.9v-34.9
			C1233.8,99.1,1236.9,96,1240.7,96z"/>
		<path class="st4" d="M1452.7,96h35.3c3.8,0,6.9,3.1,6.9,6.9v34.9c0,3.8-3.1,6.9-6.9,6.9h-35.3c-3.8,0-6.9-3.1-6.9-6.9v-34.9
			C1445.7,99.1,1448.8,96,1452.7,96z"/>
		<path class="st4" d="M1873.2,148.2h-23.2c-2.4,0-4.4-2-4.4-4.4V97.5c0-2.4,2-4.4,4.4-4.4h23.2c2.4,0,4.4,2,4.4,4.4v46.2
			C1877.7,146.2,1875.7,148.2,1873.2,148.2z"/>
		<path class="st4" d="M1819.3,145.2h-34.4c-2.4,0-4.4-2-4.4-4.4v-39.4c0-2.4,2-4.4,4.4-4.4h34.4c2.4,0,4.4,2,4.4,4.4v39.4
			C1823.8,143.3,1821.8,145.2,1819.3,145.2z"/>
	</g>
</g>
<g id="Omriss">
	<polygon class="st6" points="21,13.9 1885.8,13.9 1885.8,207.7 1868.7,224.8 1746.2,224.8 1734.4,210.6 1498.2,210.6 1486.2,225.9 
		420.7,225.9 408.7,210.6 172.5,210.6 160.7,225.9 39.3,225.9 21,208.3 	"/>
	<line class="st6" x1="21" y1="26.4" x2="1885.8" y2="26.4"/>
	<line class="st6" x1="1885.8" y1="33.8" x2="21.3" y2="33.8"/>
	<line class="st6" x1="21.3" y1="54" x2="1885.8" y2="54"/>
	<path class="st6" d="M1559.2,257.6c0.1,1,0.2,2.1,0.2,3.2c0.3,18.8-14.7,34.3-33.5,34.6c-18.8,0.3-34.3-14.7-34.6-33.5
		c0-0.4,0-0.8,0-1.2c0-1.7,0.1-3.4,0.4-5.1"/>
	<path class="st6" d="M1498.1,240.5c11.3-15.1,32.6-18.1,47.7-6.8c2.6,1.9,4.9,4.2,6.8,6.8"/>
	<path class="st6" d="M1555,256.1c0.3,1.6,0.4,3.3,0.4,4.9c0,16.6-13.5,30.1-30.1,30.1s-30.1-13.5-30.1-30.1c0-2,0.2-4,0.6-5.9"/>
	<path class="st6" d="M1503.3,240.5c11.4-12.2,30.4-12.8,42.6-1.4c0.5,0.5,1,0.9,1.4,1.4"/>
	<circle class="st6" cx="1525.3" cy="260.9" r="6.8"/>
	<path class="st6" d="M1741.1,256c2.7,18.6-10.2,35.9-28.8,38.6c-18.6,2.7-35.9-10.2-38.6-28.8c-0.2-1.6-0.3-3.2-0.3-4.8
		c0-1,0.1-1.9,0.1-2.8"/>
	<path class="st6" d="M1680.2,240.5c11.3-15.1,32.6-18.1,47.7-6.8c2.6,1.9,4.9,4.2,6.8,6.8"/>
	<path class="st6" d="M1736.9,255.2c3.3,16.3-7.3,32.2-23.6,35.5c-16.3,3.3-32.2-7.3-35.5-23.6c-0.4-2-0.6-3.9-0.6-5.9
		c0-1.5,0.1-3.1,0.3-4.6"/>
	<path class="st6" d="M1685.4,240.5c11.4-12.1,30.4-12.8,42.6-1.4c0.5,0.4,0.9,0.9,1.4,1.4"/>
	<circle class="st6" cx="1707.4" cy="260.9" r="6.8"/>
	<path class="st6" d="M1487.1,259.9h-2.6v-11.6l3.9-7.8h104.2v-18.8h47.7v18.8h104l3.9,7.8v11.6h-2.6l-5.2-4.8h-9.7v-1.7h-10.2
		l-9.9-6h-6.6l-9.9,6h-10.2v1.8c0,0-4.9-0.3-17,5.9l-19.4,10h-62.2l-21.7-11.1c0,0-7-4.7-14.9-4.7v-1.8h-10.2l-9.9-6h-6.6l-9.9,6
		H1502v1.7h-9.7L1487.1,259.9z"/>
	<polyline class="st6" points="1501.1,255.2 1498.8,260.9 1498.8,265.9 1515.6,274.4 1535.1,274.4 1551.9,265.9 1551.9,260.9 
		1549.4,255.2 	"/>
	<polyline class="st6" points="1683,255.2 1680.7,260.9 1680.7,265.9 1697.5,274.4 1716.9,274.4 1733.8,265.9 1733.8,260.9 
		1731.3,255.2 	"/>
	<path class="st6" d="M1655,210.6v7.5c0,2-1.6,3.7-3.7,3.7l0,0h-70c-2,0-3.6-1.6-3.6-3.7v-7.5"/>
	<polyline class="st6" points="1556.7,210.6 1556.7,217.8 1577.7,217.8 	"/>
	<polyline class="st6" points="1676.1,210.6 1676.1,217.8 1655,217.8 	"/>
	<polyline class="st6" points="1587.2,271.1 1587.2,284.9 1591.3,284.9 1598.4,277.7 1598.4,275.3 1634.3,275.3 1634.3,277.7 
		1641.4,284.9 1645.5,284.9 1645.5,271.1 	"/>
	<path class="st6" d="M233.7,257.6c0.1,1,0.2,2.1,0.2,3.2c0.3,18.8-14.7,34.3-33.5,34.6c-18.8,0.3-34.3-14.7-34.6-33.5
		c0-0.4,0-0.8,0-1.2c0-1.7,0.1-3.4,0.4-5.1"/>
	<path class="st6" d="M172.5,240.5c11.3-15.1,32.6-18.1,47.7-6.8c2.6,1.9,4.9,4.2,6.8,6.8"/>
	<path class="st6" d="M229.5,256.1c0.3,1.6,0.4,3.3,0.4,4.9c0,16.6-13.5,30.1-30.1,30.1c-16.6,0-30.1-13.5-30.1-30.1
		c0-2,0.2-4,0.6-5.9"/>
	<path class="st6" d="M177.8,240.5c11.4-12.1,30.4-12.8,42.6-1.4c0.5,0.4,0.9,0.9,1.4,1.4"/>
	<circle class="st6" cx="199.8" cy="260.9" r="6.8"/>
	<path class="st6" d="M415.6,256c2.7,18.6-10.2,35.9-28.8,38.6c-18.6,2.7-35.9-10.2-38.6-28.8c-0.2-1.6-0.3-3.2-0.3-4.8
		c0-1,0-1.9,0.1-2.8"/>
	<path class="st6" d="M354.6,240.5c11.3-15.1,32.6-18.1,47.7-6.8c2.6,1.9,4.9,4.2,6.8,6.8"/>
	<path class="st6" d="M411.4,255.2c0.4,1.9,0.6,3.9,0.6,5.9c-0.3,16.6-14,29.9-30.7,29.6c-16.2-0.3-29.3-13.4-29.6-29.6
		c0-1.5,0.1-3.1,0.3-4.6"/>
	<path class="st6" d="M359.9,240.5c11.4-12.1,30.4-12.8,42.6-1.4c0.5,0.4,0.9,0.9,1.4,1.4"/>
	<circle class="st6" cx="381.9" cy="260.9" r="6.8"/>
	<path class="st6" d="M161.5,259.9h-2.6v-11.6l3.9-7.8H267v-18.8h47.7v18.8h104l3.9,7.8v11.6h-2.6l-5.2-4.8H405v-1.7h-10.2l-9.9-6
		h-6.6l-9.9,6h-10.2v1.8c0,0-4.9-0.3-17,5.9l-19.4,10h-62.2L238,259.9c0,0-6.9-4.7-14.9-4.7v-1.7h-10.2l-9.9-6h-6.6l-9.9,6h-10.2
		v1.7h-9.7L161.5,259.9z"/>
	<polyline class="st6" points="175.6,255.2 173.2,260.9 173.2,265.9 190.1,274.4 209.5,274.4 226.3,265.9 226.3,260.9 223.9,255.2 	
		"/>
	<polyline class="st6" points="357.5,255.2 355.1,260.9 355.1,265.9 372,274.4 391.4,274.4 408.2,265.9 408.2,260.9 405.7,255.2 	
		"/>
	<path class="st6" d="M329.4,210.6v7.5c0,2-1.6,3.6-3.6,3.7h-70c-2,0-3.6-1.6-3.6-3.7v-7.5"/>
	<polyline class="st6" points="231.1,210.6 231.1,217.8 252.2,217.8 	"/>
	<polyline class="st6" points="350.5,210.6 350.5,217.8 329.4,217.8 	"/>
	<polyline class="st6" points="261.6,271.1 261.6,284.9 265.7,284.9 272.9,277.7 272.9,275.3 308.8,275.3 308.8,277.7 315.9,284.9 
		320,284.9 320,271.1 	"/>
	<polyline class="st6" points="68.5,225.9 68.5,242.5 142.9,242.5 142.9,225.9 	"/>
	<path class="st6" d="M34.6,93.3h23.2c2.4,0,4.4,2,4.4,4.4V144c0,2.4-2,4.4-4.4,4.4H34.6c-2.4,0-4.4-2-4.4-4.4V97.7
		C30.2,95.3,32.1,93.3,34.6,93.3z"/>
	<path class="st6" d="M88.5,97.2H123c2.4,0,4.4,2,4.4,4.4V141c0,2.4-2,4.4-4.4,4.4H88.5c-2.4,0-4.4-2-4.4-4.4v-39.4
		C84.1,99.2,86.1,97.2,88.5,97.2z"/>
	<path class="st6" d="M279.1,96.2h109.8c3.8,0,6.9,3.1,6.9,6.9v34.9c0,3.8-3.1,6.9-6.9,6.9H279.1c-3.8,0-6.9-3.1-6.9-6.9v-34.9
		C272.2,99.3,275.3,96.2,279.1,96.2z"/>
	<path class="st6" d="M156.6,92.1h1593.6c4,0,7.2,3.2,7.2,7.2v42.4c0,4-3.2,7.2-7.2,7.2H156.6c-4,0-7.2-3.2-7.2-7.2V99.3
		C149.4,95.3,152.7,92.1,156.6,92.1z"/>
	<path class="st6" d="M452.7,96.2h109.8c3.8,0,6.9,3.1,6.9,6.9v34.9c0,3.8-3.1,6.9-6.9,6.9H452.7c-3.8,0-6.9-3.1-6.9-6.9v-34.9
		C445.8,99.3,448.9,96.2,452.7,96.2z"/>
	<path class="st6" d="M624.6,96.2h109.8c3.8,0,6.9,3.1,6.9,6.9v34.9c0,3.8-3.1,6.9-6.9,6.9H624.6c-3.8,0-6.9-3.1-6.9-6.9v-34.9
		C617.7,99.3,620.8,96.2,624.6,96.2z"/>
	<path class="st6" d="M886.8,96.2h109.8c3.8,0,6.9,3.1,6.9,6.9v34.9c0,3.8-3.1,6.9-6.9,6.9H886.8c-3.8,0-6.9-3.1-6.9-6.9v-34.9
		C879.8,99.3,883,96.2,886.8,96.2z"/>
	<path class="st6" d="M1066.7,96.2h109.8c3.8,0,6.9,3.1,6.9,6.9v34.9c0,3.8-3.1,6.9-6.9,6.9h-109.8c-3.8,0-6.9-3.1-6.9-6.9v-34.9
		C1059.7,99.3,1062.8,96.2,1066.7,96.2z"/>
	<path class="st6" d="M1240.7,96.2h109.8c3.8,0,6.9,3.1,6.9,6.9v34.9c0,3.8-3.1,6.9-6.9,6.9h-109.8c-3.8,0-6.9-3.1-6.9-6.9v-34.9
		C1233.8,99.3,1236.9,96.2,1240.7,96.2z"/>
	<path class="st6" d="M1452.7,96.2h35.3c3.8,0,6.9,3.1,6.9,6.9v34.9c0,3.8-3.1,6.9-6.9,6.9h-35.3c-3.8,0-6.9-3.1-6.9-6.9v-34.9
		C1445.7,99.3,1448.8,96.2,1452.7,96.2z"/>
	<path class="st6" d="M75.8,64.6h59.8c3.6,0,6.5,2.9,6.5,6.5v154.7l0,0H69.3l0,0V71.2C69.3,67.6,72.2,64.6,75.8,64.6z"/>
	<polyline class="st6" points="1839,225.9 1839,242.5 1764.6,242.5 1764.6,225.9 	"/>
	<path class="st6" d="M1872.9,148.4h-23.2c-2.4,0-4.4-2-4.4-4.4V97.7c0-2.4,2-4.4,4.4-4.4h23.2c2.4,0,4.4,2,4.4,4.4V144
		C1877.4,146.4,1875.4,148.4,1872.9,148.4z"/>
	<path class="st6" d="M1819,145.5h-34.4c-2.4,0-4.4-2-4.4-4.4v-39.4c0-2.4,2-4.4,4.4-4.4h34.4c2.4,0,4.4,2,4.4,4.4V141
		C1823.5,143.5,1821.5,145.5,1819,145.5z"/>
	<path class="st6" d="M1838.2,225.9h-72.9l0,0V71.2c0-3.6,2.9-6.5,6.5-6.5l0,0h59.8c3.6,0,6.5,2.9,6.5,6.5v0L1838.2,225.9
		L1838.2,225.9z"/>
	<polyline class="st7" points="38.2,224.8 5.2,224.8 5.2,205.8 21,205.8 	"/>
	<rect x="3" y="199.3" class="st7" width="2.2" height="32"/>
	<polyline class="st7" points="1868.7,224.8 1901.7,224.8 1901.7,205.8 1885.8,205.8 	"/>
	<rect x="1901.7" y="199.3" class="st7" width="2.2" height="32"/>
	<rect x="614.1" y="225.5" class="st6" width="61.8" height="27"/>
	<rect x="689.4" y="225.5" class="st6" width="141.6" height="27"/>
	<rect x="873.8" y="225.5" class="st6" width="69.2" height="27"/>
	<rect x="1016.5" y="225.5" class="st6" width="171.9" height="27"/>
	<rect x="1244.4" y="225.5" class="st6" width="56.6" height="27"/>
</g>
</svg>
