<?xml version="1.0" encoding="utf-8"?>
<!-- Generator: Adobe Illustrator 22.0.1, SVG Export Plug-In . SVG Version: 6.00 Build 0)  -->
<svg version="1.1" id="Type_72" xmlns="http://www.w3.org/2000/svg" xmlns:xlink="http://www.w3.org/1999/xlink" x="0px" y="0px"
	 viewBox="0 0 1627.2 450" style="enable-background:new 0 0 1627.2 450;" xml:space="preserve">
<metadata><?xpacket begin="﻿" id="W5M0MpCehiHzreSzNTczkc9d"?>
<x:xmpmeta xmlns:x="adobe:ns:meta/" x:xmptk="Adobe XMP Core 5.6-c143 79.161210, 2017/08/11-10:28:36        ">
   <rdf:RDF xmlns:rdf="http://www.w3.org/1999/02/22-rdf-syntax-ns#">
      <rdf:Description rdf:about=""/>
   </rdf:RDF>
</x:xmpmeta>
                                                                                                    
                                                                                                    
                                                                                                    
                                                                                                    
                                                                                                    
                                                                                                    
                                                                                                    
                                                                                                    
                                                                                                    
                                                                                                    
                                                                                                    
                                                                                                    
                                                                                                    
                                                                                                    
                                                                                                    
                                                                                                    
                                                                                                    
                                                                                                    
                                                                                                    
                                                                                                    
                           
<?xpacket end="w"?></metadata>
<style type="text/css">
	.st0{fill:#444445;}
	.st1{fill:#B1B3B3;}
	.st2{fill:#212322;}
	.st3{fill:#010101;}
	.st4{fill:#DAE294;}
	.st5{fill:#004F59;}
	.st6{fill:#878787;}
	.st7{fill:#212221;}
	.st8{fill:none;stroke:#231F20;stroke-width:2;stroke-miterlimit:10;}
</style>
<g id="Mål_6_">
</g>
<g id="Farger_6_">
	<g id="Grunnfarge">
		<polygon class="st0" points="0.9,349.6 7.2,357.5 13.5,349.6 19.8,357.5 26.1,349.6 32.4,357.5 32.4,142.5 32.4,142.3 26.1,150.1 
			19.8,142.3 13.5,150.1 7.2,142.3 0.9,150.1 		"/>
		<polygon class="st0" points="38.7,350.6 32.4,358.5 26.1,350.6 19.8,358.5 13.5,350.6 7.2,358.5 7.2,143.5 7.2,143.3 13.5,151.1 
			19.8,143.3 26.1,151.1 32.4,143.3 38.7,151.1 		"/>
		<path class="st1" d="M1592.9,91.7v47.9h-2.7V91.9c0,0-5.7-1-9,1.7c-10.2,8.5-29.4,25.3-33.7,31.6c-0.6,0.9-1,2.1-1,3.2v11.2
			h-526.9v-11.2c0-1.1-0.3-2.3-1-3.2c-4.3-6.2-23.4-23.1-33.7-31.6c-3.3-2.7-9-1.7-9-1.7v47.7h-2.7V91.8H606.5v47.9h-3.2V91.9
			c0,0-5.7-1-9,1.7c-10.2,8.5-29.4,25.3-33.7,31.6c-0.6,0.9-1,2.1-1,3.2v11.2H119.1v-11.2c0-1.1-0.3-2.3-1-3.2
			c-4.3-6.2-23.4-23.1-33.7-31.6c-3.3-2.7-9-1.7-9-1.7v47.7h-2.7V91.8H39v47.9l0,0v201.9v25.6v12.7h22.9l9.1-11.7l47.8,0.5h239.7
			l18.1,39.2h931.7l18.1-39.5h267.8l9.1,11.3h22.8v-23.3v-16.7v-200h0.5V91.8L1592.9,91.7L1592.9,91.7z"/>
		<path class="st2" d="M1626.1,379l-22.9,0.1l-9.1-10.9h-255.7l-0.2,25.4h30.4v4.8l99.5,20.1c0,0,1.6,3.8,5.3,4c3.7,0.2,5-3.7,5-3.7
			l5.2,0.4l3.1-9.6l14.1,12.2h1.5c0,0,7.4,18.7,29.1,22.1s32.7-8.8,32.7-8.8s4.9-1.9,11.2-14.1l2,0.1l4.1-3.7h44.7"/>
		<path class="st2" d="M-1,378.8l62.1,0.2l9.1-11.2h256.3l0.2,25.4h-30.4v5.4l-99.8,20.3c0,0-0.4,3.4-4.1,3.6
			c-3.7,0.2-6.2-3.1-6.2-3.1l-4.9-0.2l-3.1-9.6l-14.1,12.2l-1.9-0.2c0,0-9.5,23.1-31.5,23.5c-22.9,0.4-29.1-9.1-29.1-9.1
			s-6.8-4.1-12.1-15.2l-2,0.1l-4.7-4.1H-0.5"/>
		<polyline class="st2" points="376.5,408 1308,408 1327,368.6 358,368.6 376.5,408 		"/>
	</g>
	<g id="Profilering">
		<rect x="1306.3" y="205.8" class="st3" width="290.8" height="88.4"/>
		<polygon class="st4" points="39.4,312 39.4,318.8 1626.5,318.8 1626.5,312 		"/>
		<polygon class="st5" points="1361.6,318.8 1316.4,318.8 525.1,318.8 512.2,318.8 39.4,318.8 39.4,354 512.2,354 525.1,354 
			1316.3,354 1361.6,354 1626.5,354 1626.5,318.8 		"/>
		<path class="st5" d="M39.4,162.3c48,0,1586.7,0,1586.7,0v-13.5H39.4V162.3z"/>
		<rect x="39.4" y="162.3" class="st4" width="1586.9" height="11.3"/>
		<rect x="69.1" y="205.8" class="st3" width="290.8" height="88.4"/>
		<rect x="587.8" y="205.8" class="st3" width="368.9" height="126.1"/>
	</g>
	<g id="Dører_og_vinduer">
		<path class="st6" d="M151.5,284.8H83.3c-2.6,0-4.6-2.1-4.6-4.6v-60.3c0-2.6,2.1-4.6,4.6-4.6h68.2c2.6,0,4.6,2.1,4.6,4.6v60.3
			C156.1,282.8,154.1,284.8,151.5,284.8z"/>
		<path class="st6" d="M247.2,284.8H179c-2.6,0-4.6-2.1-4.6-4.6v-60.3c0-2.6,2.1-4.6,4.6-4.6h68.2c2.6,0,4.6,2.1,4.6,4.6v60.3
			C251.8,282.8,249.8,284.8,247.2,284.8z"/>
		<path class="st6" d="M343.4,284.8h-68.2c-2.6,0-4.6-2.1-4.6-4.6v-60.3c0-2.6,2.1-4.6,4.6-4.6h68.2c2.6,0,4.6,2.1,4.6,4.6v60.3
			C348,282.8,345.9,284.8,343.4,284.8z"/>
		<path class="st7" d="M522.7,394.5h-93.2c-6.1,0-11-4.9-11-11V192.1c0-6.1,4.9-11,11-11h93.2c6.1,0,11,4.9,11,11v191.4
			C533.7,389.6,528.7,394.5,522.7,394.5z"/>
		<path class="st6" d="M456.7,319.9h-19.4c-3.4,0-6.1-2.8-6.1-6.1v-91.6c0-3.4,2.8-6.1,6.1-6.1h19.4c3.4,0,6.1,2.8,6.1,6.1v91.6
			C462.8,317.1,460,319.9,456.7,319.9z"/>
		<path class="st6" d="M514.7,319.9h-19.4c-3.4,0-6.1-2.8-6.1-6.1v-91.6c0-3.4,2.8-6.1,6.1-6.1h19.4c3.4,0,6.1,2.8,6.1,6.1v91.6
			C520.9,317.1,518.1,319.9,514.7,319.9z"/>
		<path class="st6" d="M697.6,322.3h-94.2c-2.6,0-4.6-2.1-4.6-4.6v-97.9c0-2.6,2.1-4.6,4.6-4.6h94.2c2.6,0,4.6,2.1,4.6,4.6v97.9
			C702.3,320.2,700.2,322.3,697.6,322.3z"/>
		<path class="st6" d="M940.8,322.3h-94.2c-2.6,0-4.6-2.1-4.6-4.6v-97.9c0-2.6,2.1-4.6,4.6-4.6h94.2c2.6,0,4.6,2.1,4.6,4.6v97.9
			C945.4,320.2,943.3,322.3,940.8,322.3z"/>
		<path class="st6" d="M819.2,322.3H725c-2.6,0-4.6-2.1-4.6-4.6v-97.9c0-2.6,2.1-4.6,4.6-4.6h94.2c2.6,0,4.6,2.1,4.6,4.6v97.9
			C823.8,320.2,821.8,322.3,819.2,322.3z"/>
		<path class="st7" d="M1235.9,394.5h-93.2c-6.1,0-11-4.9-11-11V192.1c0-6.1,4.9-11,11-11h93.2c6.1,0,11,4.9,11,11v191.4
			C1246.8,389.6,1241.9,394.5,1235.9,394.5z"/>
		<path class="st6" d="M1169.8,319.9h-19.4c-3.4,0-6.1-2.8-6.1-6.1v-91.6c0-3.4,2.8-6.1,6.1-6.1h19.4c3.4,0,6.1,2.8,6.1,6.1v91.6
			C1176,317.1,1173.2,319.9,1169.8,319.9z"/>
		<path class="st6" d="M1227.9,319.9h-19.4c-3.4,0-6.1-2.8-6.1-6.1v-91.6c0-3.4,2.8-6.1,6.1-6.1h19.4c3.4,0,6.1,2.8,6.1,6.1v91.6
			C1234,317.1,1231.3,319.9,1227.9,319.9z"/>
		<path class="st6" d="M1390.1,284.8h-68.2c-2.6,0-4.6-2.1-4.6-4.6v-60.3c0-2.6,2.1-4.6,4.6-4.6h68.2c2.6,0,4.6,2.1,4.6,4.6v60.3
			C1394.7,282.8,1392.6,284.8,1390.1,284.8z"/>
		<path class="st6" d="M1485.8,284.8h-68.2c-2.6,0-4.6-2.1-4.6-4.6v-60.3c0-2.6,2.1-4.6,4.6-4.6h68.2c2.6,0,4.6,2.1,4.6,4.6v60.3
			C1490.4,282.8,1488.3,284.8,1485.8,284.8z"/>
		<path class="st6" d="M1582,284.8h-68.2c-2.6,0-4.6-2.1-4.6-4.6v-60.3c0-2.6,2.1-4.6,4.6-4.6h68.2c2.6,0,4.6,2.1,4.6,4.6v60.3
			C1586.6,282.8,1584.5,284.8,1582,284.8z"/>
	</g>
</g>
<g id="Omriss_6_">
	<polyline class="st8" points="0.9,151 7.2,143.1 13.5,151 19.8,143.1 26.1,151 32.4,143.1 32.5,143.1 	"/>
	<polyline class="st8" points="0.9,350.4 7.2,358.3 13.5,350.4 19.8,358.3 26.1,350.4 32.4,358.3 32.5,358.3 	"/>
	<line class="st8" x1="13.5" y1="150.9" x2="13.5" y2="350.4"/>
	<line class="st8" x1="26.1" y1="150.9" x2="26.1" y2="350.4"/>
	<polyline class="st8" points="38.7,151.1 32.4,143.2 26.1,151.1 19.8,143.2 13.5,151.1 7.2,143.2 	"/>
	<polyline class="st8" points="39,350.2 32.4,358.4 26.1,350.5 19.8,358.4 13.5,350.5 7.2,358.4 	"/>
	<path class="st8" d="M1019.7,139.8v-11.2c0-1.1-0.3-2.3-1-3.2c-4.3-6.2-23.4-23.1-33.7-31.6c-3.3-2.7-9-1.7-9-1.7v47.7"/>
	<path class="st8" d="M559.2,139.8v-11.2c0-1.1,0.3-2.3,1-3.2c4.3-6.2,23.4-23.1,33.7-31.6c3.3-2.7,9-1.7,9-1.7v47.7"/>
	<polyline class="st8" points="1626.1,379 1626.1,380 1603.3,380 1594.3,368.6 1326.4,368.6 1308.3,408 376.6,408 358.5,368.6 
		118.7,368.6 70.9,368.6 61.9,380 39,380 39,367.3 39,341.8 39,139.8 1626.1,139.8 1626.1,339.9 1626.1,356.5 1626.1,379 	"/>
	<path class="st8" d="M151.1,284.9H82.9c-2.6,0-4.6-2.1-4.6-4.6V220c0-2.6,2.1-4.6,4.6-4.6h68.2c2.6,0,4.6,2.1,4.6,4.6v60.3
		C155.7,282.9,153.7,284.9,151.1,284.9z"/>
	<path class="st8" d="M246.8,284.9h-68.2c-2.6,0-4.6-2.1-4.6-4.6V220c0-2.6,2.1-4.6,4.6-4.6h68.2c2.6,0,4.6,2.1,4.6,4.6v60.3
		C251.4,282.9,249.4,284.9,246.8,284.9z"/>
	<path class="st8" d="M343,284.9h-68.2c-2.6,0-4.6-2.1-4.6-4.6V220c0-2.6,2.1-4.6,4.6-4.6H343c2.6,0,4.6,2.1,4.6,4.6v60.3
		C347.6,282.9,345.5,284.9,343,284.9z"/>
	<path class="st8" d="M1389.7,284.9h-68.2c-2.6,0-4.6-2.1-4.6-4.6V220c0-2.6,2.1-4.6,4.6-4.6h68.2c2.6,0,4.6,2.1,4.6,4.6v60.3
		C1394.3,282.9,1392.2,284.9,1389.7,284.9z"/>
	<path class="st8" d="M1485.4,284.9h-68.2c-2.6,0-4.6-2.1-4.6-4.6V220c0-2.6,2.1-4.6,4.6-4.6h68.2c2.6,0,4.6,2.1,4.6,4.6v60.3
		C1490,282.9,1487.9,284.9,1485.4,284.9z"/>
	<path class="st8" d="M1581.5,284.9h-68.2c-2.6,0-4.6-2.1-4.6-4.6V220c0-2.6,2.1-4.6,4.6-4.6h68.2c2.6,0,4.6,2.1,4.6,4.6v60.3
		C1586.2,282.9,1584.1,284.9,1581.5,284.9z"/>
	<path class="st8" d="M697.2,322.5H603c-2.6,0-4.6-2.1-4.6-4.6V220c0-2.6,2.1-4.6,4.6-4.6h94.2c2.6,0,4.6,2.1,4.6,4.6v97.9
		C701.9,320.4,699.8,322.5,697.2,322.5z"/>
	<path class="st8" d="M940.4,322.5h-94.2c-2.6,0-4.6-2.1-4.6-4.6V220c0-2.6,2.1-4.6,4.6-4.6h94.2c2.6,0,4.6,2.1,4.6,4.6v97.9
		C945,320.4,942.9,322.5,940.4,322.5z"/>
	<path class="st8" d="M818.8,322.5h-94.2c-2.6,0-4.6-2.1-4.6-4.6V220c0-2.6,2.1-4.6,4.6-4.6h94.2c2.6,0,4.6,2.1,4.6,4.6v97.9
		C823.4,320.4,821.4,322.5,818.8,322.5z"/>
	<path class="st8" d="M1169.4,320.1H1150c-3.4,0-6.1-2.8-6.1-6.1v-91.6c0-3.4,2.8-6.1,6.1-6.1h19.4c3.4,0,6.1,2.8,6.1,6.1V314
		C1175.6,317.4,1172.8,320.1,1169.4,320.1z"/>
	<path class="st8" d="M1227.5,320.1h-19.4c-3.4,0-6.1-2.8-6.1-6.1v-91.6c0-3.4,2.8-6.1,6.1-6.1h19.4c3.4,0,6.1,2.8,6.1,6.1V314
		C1233.6,317.4,1230.9,320.1,1227.5,320.1z"/>
	<path class="st8" d="M1235.5,394.8h-93.2c-6.1,0-11-4.9-11-11V192.3c0-6.1,4.9-11,11-11h93.2c6.1,0,11,4.9,11,11v191.4
		C1246.4,389.8,1241.5,394.8,1235.5,394.8z"/>
	<line class="st8" x1="1188.8" y1="181.3" x2="1188.8" y2="394.8"/>
	<path class="st8" d="M456.3,320.1h-19.4c-3.4,0-6.1-2.8-6.1-6.1v-91.6c0-3.4,2.8-6.1,6.1-6.1h19.4c3.4,0,6.1,2.8,6.1,6.1V314
		C462.4,317.4,459.6,320.1,456.3,320.1z"/>
	<path class="st8" d="M514.3,320.1h-19.4c-3.4,0-6.1-2.8-6.1-6.1v-91.6c0-3.4,2.8-6.1,6.1-6.1h19.4c3.4,0,6.1,2.8,6.1,6.1V314
		C520.4,317.4,517.7,320.1,514.3,320.1z"/>
	<path class="st8" d="M522.3,394.8H429c-6.1,0-11-4.9-11-11V192.3c0-6.1,4.9-11,11-11h93.2c6.1,0,11,4.9,11,11v191.4
		C533.3,389.8,528.3,394.8,522.3,394.8z"/>
	<line class="st8" x1="475.7" y1="181.3" x2="475.7" y2="394.8"/>
	<rect x="606.1" y="91.9" class="st8" width="244.1" height="47.9"/>
	<rect x="850.2" y="91.9" class="st8" width="123.2" height="47.9"/>
	<rect x="614.4" y="96" class="st8" width="104.4" height="17.2"/>
	<g>
		<line class="st8" x1="620.7" y1="96" x2="620.7" y2="113.1"/>
		<line class="st8" x1="627.3" y1="96" x2="627.3" y2="113.1"/>
		<line class="st8" x1="633.9" y1="96" x2="633.9" y2="113.1"/>
		<line class="st8" x1="640.5" y1="96" x2="640.5" y2="113.1"/>
		<line class="st8" x1="647.1" y1="96" x2="647.1" y2="113.1"/>
		<line class="st8" x1="653.7" y1="96" x2="653.7" y2="113.1"/>
		<line class="st8" x1="660.3" y1="96" x2="660.3" y2="113.1"/>
		<line class="st8" x1="666.9" y1="96" x2="666.9" y2="113.1"/>
	</g>
	<g>
		<line class="st8" x1="673.5" y1="96" x2="673.5" y2="113.1"/>
		<line class="st8" x1="680" y1="96" x2="680" y2="113.1"/>
		<line class="st8" x1="686.6" y1="96" x2="686.6" y2="113.1"/>
		<line class="st8" x1="693.2" y1="96" x2="693.2" y2="113.1"/>
		<line class="st8" x1="699.8" y1="96" x2="699.8" y2="113.1"/>
		<line class="st8" x1="706.4" y1="96" x2="706.4" y2="113.1"/>
		<line class="st8" x1="713" y1="96" x2="713" y2="113.1"/>
	</g>
	<path class="st8" d="M119.1,139.8v-11.2c0-1.1-0.3-2.3-1-3.2c-4.3-6.2-23.4-23.1-33.7-31.6c-3.3-2.7-9-1.7-9-1.7v47.7"/>
	<rect x="39" y="91.9" class="st8" width="33.8" height="47.9"/>
	<path class="st8" d="M1546.1,139.8v-11.2c0-1.1,0.3-2.3,1-3.2c4.3-6.2,23.4-23.1,33.7-31.6c3.3-2.7,9-1.7,9-1.7v47.7"/>
	<rect x="1592.4" y="91.9" class="st8" width="33.8" height="47.9"/>
	<line class="st8" x1="26.1" y1="151.1" x2="26.1" y2="350.5"/>
	<polyline class="st8" points="-0.5,410.2 69.3,410.2 82.2,410.2 	"/>
	<line class="st8" x1="83.1" y1="417.8" x2="-0.5" y2="417.8"/>
	
		<ellipse transform="matrix(3.327798e-02 -0.9994 0.9994 3.327798e-02 -282.3289 517.4141)" class="st8" cx="126.3" cy="404.6" rx="11.9" ry="11.9"/>
	<path class="st8" d="M156.2,422.5h6h0.5c-6.6,13.4-20.4,22.7-36.4,22.7c-16.3,0-30.3-9.6-36.7-23.5 M91.5,384
		c1.7-2.8,3.7-5.4,6-7.8c3-3.1,6.5-5.7,10.4-7.6h36.8c3.9,2,7.4,4.6,10.4,7.6c2.2,2.3,4.2,4.8,5.9,7.6h-0.3h-6.5"/>
	<path class="st8" d="M98.4,384c6.3-8.5,16.5-14,27.9-14s21.6,5.5,27.9,14"/>
	<path class="st8" d="M96,421.8c6,10.6,17.3,17.8,30.3,17.8c12.7,0,23.9-6.9,29.9-17.1"/>
	<circle class="st8" cx="183.9" cy="393.5" r="9.6"/>
	<polyline class="st8" points="78.4,381.8 78.4,397.6 80.3,397.6 81.1,397.6 83,397.6 83,388.5 83,388.2 83,378 	"/>
	<path class="st8" d="M83,388.2c3.4-2.7,6.4-3.7,8.1-4.1c0.1,0,0.2-0.1,0.3-0.1c0.9-0.2,1.4-0.1,1.4-0.1H98h0.3h18.9h0.2h15.1h1.3
		h20.1h0.3h6.5h0.3h22.6"/>
	<rect x="236.7" y="368.6" class="st8" width="89.9" height="25.4"/>
	<path class="st8" d="M196,415.2c0,0,95.6-21.2,95.9-21.2s4.3,0,4.3,0v5.2l-99.8,20.3"/>
	<line class="st8" x1="193.2" y1="396" x2="186.8" y2="415.6"/>
	<polyline class="st8" points="174.3,394.5 174.4,395.1 174.8,396.6 	"/>
	<path class="st8" d="M186,403l-7.9,7l-14,12.4h-1.5h-0.5h-6h-4.3l-18-38.5h-16.6l-17.4,37.9l-3.9-0.1l-6.4-0.1h-2l-5.4-4.7V405
		L70,410l-0.2,0.1l-0.6,0.2c-0.5,0.2-1,0.2-1.5,0.2c-2.8,0-5.1-2.3-5.1-5.1c0-2.4,1.7-4.5,4-5c0.1,0,0.2-0.1,0.3-0.1h0.2l12.2-2.5
		c0.2-0.1,0.6-0.1,0.9-0.1c0.1,0,0.3,0,0.4,0s0.3,0,0.4,0c1.9,0.2,3.5,1.9,3.5,3.9c0,1.6-1,3-2.4,3.6"/>
	<polyline class="st8" points="86.4,368.6 86.4,375.2 83,378 78.4,381.8 76.4,383.5 61.6,383.5 61.6,380 	"/>
	<circle class="st8" cx="191.5" cy="418" r="5.3"/>
	<polyline class="st8" points="186.2,419.5 181.1,419.5 178.1,410 	"/>
	<path class="st8" d="M1582.6,410.2h13.1l0,0h3h27.4"/>
	<line class="st8" x1="1626.2" y1="417.8" x2="1581.5" y2="417.8"/>
	<circle class="st8" cx="1538.7" cy="404.6" r="11.9"/>
	<path class="st8" d="M1575.4,421.6c-6.4,13.9-20.4,23.5-36.7,23.5c-16,0-29.8-9.2-36.4-22.7h0.5h6 M1510.8,384h-6.5h-0.3
		c1.7-2.8,3.6-5.3,5.9-7.6c3-3.1,6.5-5.7,10.4-7.6h36.8c3.9,2,7.4,4.6,10.4,7.6c2.3,2.3,4.3,4.9,6,7.8"/>
	<path class="st8" d="M1510.8,384c6.3-8.5,16.5-14,27.9-14s21.6,5.5,27.9,14"/>
	<path class="st8" d="M1508.7,422.5c6,10.2,17.2,17.1,29.9,17.1c13,0,24.4-7.2,30.3-17.8"/>
	<circle class="st8" cx="1481" cy="393.5" r="9.6"/>
	<polyline class="st8" points="1581.9,378 1581.9,388.1 1581.9,388.5 1581.9,397.5 1583.8,397.5 1584.7,397.5 1586.6,397.5 
		1586.6,381.8 	"/>
	<path class="st8" d="M1585.6,397.8L1585.6,397.8c-0.4-0.1-0.6-0.2-0.9-0.2c-0.1,0-0.3,0-0.4,0s-0.3,0-0.4,0
		c-1.9,0.2-3.5,1.9-3.5,3.9c0,1.6,1,3,2.4,3.6"/>
	<path class="st8" d="M1480.8,384h23.1h0.3h6.5h0.3h20.1h1.3h15.1h0.2h18.9h0.3h5.2c0,0,0.5,0,1.4,0.1c0.1,0,0.2,0.1,0.3,0.1
		c1.8,0.3,4.7,1.3,8.1,4.1"/>
	<rect x="1338.4" y="368.6" class="st8" width="89.9" height="25.4"/>
	<path class="st8" d="M1468.9,415.2c0,0-95.6-21.2-95.9-21.2s-4.3,0-4.3,0v5.2l99.8,20.3"/>
	<line class="st8" x1="1471.7" y1="396" x2="1478.2" y2="415.6"/>
	<polyline class="st8" points="1490.1,396.6 1490.5,395.1 1490.6,394.5 	"/>
	<path class="st8" d="M1585.5,397.8l13.1,2.8c2.1,0.6,3.7,2.6,3.7,4.9c0,2.8-2.3,5.1-5.1,5.1c-0.5,0-1-0.1-1.5-0.2l-12.9-5.4
		l-0.2,5.2l-0.2,6.7l-0.9,0.8l-4.1,3.9h-2l-6.4,0.1l-3.9,0.1l-17.4-37.9h-16.6l-18,38.5h-4.3h-6h-0.5h-1.5l-14-12.4l-7.9-7"/>
	<polyline class="st8" points="1578.6,368.6 1578.6,375.2 1581.9,378 1586.6,381.8 1588.6,383.5 1603.3,383.5 1603.3,379.6 	"/>
	<circle class="st8" cx="1473.4" cy="417.8" r="5.3"/>
	<polyline class="st8" points="1486.8,410 1483.9,419.5 1478.5,419.5 	"/>
</g>
</svg>
