<?xml version="1.0" encoding="utf-8"?>
<!-- Generator: Adobe Illustrator 22.0.1, SVG Export Plug-In . SVG Version: 6.00 Build 0)  -->
<svg version="1.1" id="Type_93" xmlns="http://www.w3.org/2000/svg" xmlns:xlink="http://www.w3.org/1999/xlink" x="0px" y="0px"
	 viewBox="0 0 1447 324" style="enable-background:new 0 0 1447 324;" xml:space="preserve">
<style type="text/css">
	.st0{fill:#444445;}
	.st1{fill:#212322;}
	.st2{fill:#B1B3B3;}
	.st3{fill:#B1190B;}
	.st4{fill:#026D89;}
	.st5{fill:#514F4F;}
	.st6{fill:#878787;}
	.st7{opacity:0.7;enable-background:new    ;}
</style>
<g id="Mål_12_">
</g>
<g>
	<g id="Farger_12_">
		<g id="Grunnfarge_8_">
			<g>
				<path class="st0" d="M47.1,44.1v15.3h1121.7c0,0,31.9-1.1,51.1,3.8s27.4,7.5,43.9,16.2c16.6,8.6,41.3,21.6,59.7,37.3
					c18.3,15.7,43.9,44.4,50.7,57.2c6.7,12.8,18.4,19.6,24.3,20.6c0,0-25.2-43.7-47-64.1c-21.8-20.4-29.5-28.9-40-35.5
					c-10.5-6.6-24.1-18.8-43-27.7c-18.9-9-31-14.9-40.4-17.1c-9.4-2.2-18-5.9-59.7-5.9c-41.7,0-318.4,0-318.4,0s0.6-4.9,0-6.8
					c-0.6-1.9-34.3-28.6-41-29.4c-6.7-0.8-463.5,0-463.5,0s-32,18.1-40.9,29.6v6.7H47.1V44.1z"/>
			</g>
			<g>
				<path class="st1" d="M0,300c30.7,0,76.5,0,76.5,0s5.7,0,9.2-4.1s5.9-9.1,9.7-11.6l-0.3,2.9c0,0-2.2,14.3,7.1,24.7
					c9.3,10.4,20.6,12.5,29.6,11.4c9-1.1,19.5-8.3,22.8-14.3c3.3-6,5.8-14.2,4.9-20.5c-0.9-6.3-2.9-10.1-2.9-10.1l5,7.8l1,2.8v18.8
					h10.1v-19.5l-3-18.2h-18c0,0-7.1-8.5-18.2-10.8c-11.1-2.3-21.5,2.9-24.5,5.2c-3,2.3-6.3,5.6-6.3,5.6h-5.6c0,0-6.6,0.1-10.7,4.7
					l-1.1,1.1v-5.3h1.5c0,0-1-2.8-2.1-3.5c-1.1-0.7-4.4-1-5.7-0.9l-0.8-10.9h16.5v-3.1H47.1V53.9c0,0-1.2,3.4-4.7,3.4
					s-4.8-3.8-4.8-3.8s0.1,3.8-4.6,3.8s-4.6-3.8-4.6-3.8s-1.5,3.8-4.8,3.8S19,53.5,19,53.5s-2,3.8-4.3,3.8s-4.2-1.8-5.2-3.8
					c0,0-1.2,3.8-4.6,3.8s-5.3-3.1-5.3-3.1L0,252.4"/>
			</g>
			<g>
				<path class="st0" d="M1409.6,269l-44-14l-52.4,0.4c0,0-9.3,4-6.1,15.9c3.3,11.9,20.3,20.6,36.2,25.5l4.5,1.2l66.4,8.9
					c0,0-11.7-4.3-14.5-10.4c-2.9-6.2-5.2-11.3-3.2-15.5C1398.7,276.7,1402.9,270.5,1409.6,269z"/>
			</g>
			<g>
				<path class="st1" d="M1402.4,253.3l4.1,2.7h18.9v2.4h10.1l7.2,7.7l2.3-2.4l-8-8.6h-6.9v-2.6l4.1-4.1h2.9v-7.9h-3.2l-3.9-3.8
					v-4.6h-19v5.9h-3.2c0,0,0.4,3.7,0.1,5C1407.4,244.4,1402.4,253.3,1402.4,253.3z"/>
			</g>
			<g>
				<path class="st2" d="M1404.1,218.3c0,0,3,0.1,3.7-1.5c0.7-1.6-3.7-10.3-3.7-10.3l-6-12.1c0,0-11.1-4.3-14.4-7.7
					c-3.2-3.4-12.1-16.4-14.7-20c-2.6-3.6-17.8-23.7-28.3-33.7c-10.5-10-24.9-23-39.9-32.4c-15.1-9.4-33.7-19.7-49.5-27.2
					c-15.8-7.6-25.1-9.6-42.7-12.1c-17.5-2.4-40.1-1.9-40.1-1.9H46.8v54.5V204v48.4h117.1v15.9h617.4v-26h252.4v26h10.7l4.7-13.3
					h351.8c0,0,4.4-6.5,5.2-8.7c0.8-2.2,1.8-2.7,0.8-7.6c-1-4.9-4.5-18.7-4.5-18.7S1401,218.1,1404.1,218.3z"/>
			</g>
			<g>
				<path class="st1" d="M1254.3,271.2h-7.4l-3.1-1c-5.6-7-14.4-11.2-26.1-11.2s-21.1,9.3-21.1,9.3h-15.7V255l-66.8,0.1l-6.6-0.2
					v13.5h-6.3c-7.7-7.9-18.5-10.6-29.3-8.6c-10.8,1.9-17.5,10.1-17.5,10.1l-3.3,0.7v0.7h-7.3l0.1-2.8l-9.8-0.1v-26H781.6v26H163.8
					h37.7v30.2h229.9v-30.2h33.9v29.5H589v-29.5h26.9v28.9h95v-28.9h11.5v29.7h309.8v16.4h3.8c0.1-6.8,4.6-7.5,4.6-7.5v-8.9h3.2
					v-20.8h5.6c-2.5,3.9-3,10.2-3.3,14.1c-0.2,4,1.1,13,6.8,19.9c5.7,6.9,17.1,15.1,31.9,11.9c14.7-3.2,21.3-13.5,24.2-21
					c3-7.5,1.4-16,1.4-16l3.2-0.5l2.8,1v14.8h63.7v-14.8l7.6-2.2c0,0-2.3,6.5,0.7,16.5c3,10,15,24.8,33.9,22.8
					c18.9-2,27.1-16.6,29-27.4c1.9-10.8-2.9-19.1-2.9-19.1l6.6,0.3l0.2,29.4c5.8,1.4,4.7,7.5,4.7,7.5h3.8v-37.9L1254.3,271.2z"/>
			</g>
		</g>
		<g id="Profilering_12_">
			<g>
				<polygon class="st1" points="47.1,119.2 47.1,204 605,204 605,118.2 49.1,118.2 47.1,118.2 				"/>
			</g>
			<g>
				<path class="st3" d="M1401.3,255c0,0,7-9.5,6.5-13c-0.5-3.6-3.4-16.7-3.4-16.7s-83.6-17.7-236-17.7s-1121.3,0-1121.3,0v44.8
					h117.1h617.3v-10.1h252.4v26h10.7l4.7-13.3h119L1401.3,255L1401.3,255z"/>
			</g>
			<g>
				<path class="st4" d="M1402.3,219.7c0,0-104.4-16.1-233.9-16.1s-1121.3,0-1121.3,0v5.5h1121.3c0,0,142-1.2,236,17L1402.3,219.7z"
					/>
			</g>
			<g>
				<path class="st1" d="M722.4,90.5v84.7l444.9-0.3c0,0,26.9-0.1,55.4,0.4c20.8,0.3,42,1.4,56.4,2.2c13.5,0.8,31.5,2.8,48.4,4.9
					c26,3.3,49.3,6.9,49.3,6.9s-5-4.6-10.7-11c-5.8-6.5-12.4-14.8-17.8-20.3c-13.5-13.5-21.5-20.8-54-40.5
					c-56.6-34.4-126.9-28.1-126.9-28.1H724.5h-2L722.4,90.5L722.4,90.5z"/>
			</g>
		</g>
		<g id="Dører_og_vinduer_11_">
			<g>
				<rect x="605.3" y="89.1" class="st2" width="117.4" height="164.9"/>
				<path class="st2" d="M723.2,254.5H604.8V88.6h118.4V254.5z M605.8,253.5h116.4V89.6H605.8V253.5z"/>
			</g>
			<g>
				<rect x="623" y="114.3" class="st5" width="28.4" height="92.5"/>
			</g>
			<g>
				<rect x="676" y="114.3" class="st5" width="28.4" height="92.5"/>
			</g>
			<g>
				<rect x="69.7" y="118.2" class="st6" width="107.6" height="85.8"/>
			</g>
			<g>
				<rect x="198.1" y="118.2" class="st6" width="107.6" height="85.8"/>
			</g>
			<g>
				<rect x="327.9" y="118.2" class="st6" width="107.6" height="85.8"/>
			</g>
			<g>
				<rect x="457.3" y="118.2" class="st6" width="107.6" height="85.8"/>
			</g>
			<g class="st7">
				<path d="M75.7,139.2v-12.6c0-1.7,1.4-3.1,3.1-3.1h89.6c1.7,0,3.1,1.4,3.1,3.1v13.3"/>
			</g>
			<g>
				<rect x="763.3" y="88.8" class="st6" width="107.6" height="85.8"/>
			</g>
			<g>
				<rect x="891.8" y="88.8" class="st6" width="107.6" height="85.8"/>
			</g>
			<g>
				<rect x="1021.4" y="88.8" class="st6" width="107.6" height="85.8"/>
			</g>
			<g class="st7">
				<path d="M769.3,109.9V97.3c0-1.7,1.4-3.1,3.1-3.1H862c1.7,0,3.1,1.4,3.1,3.1v13.3"/>
			</g>
			<g>
				<path class="st6" d="M1247.3,149.6l43.9,5.7V115c0,0-18.1-11.2-43.9-17.9V149.6z"/>
			</g>
		</g>
	</g>
	<g id="Omriss_12_">
		<g>
			<path d="M103.2,270.9l-1.5-1.3c6.3-7.3,15.5-11.5,25.3-11.5c9.8,0,19,4.2,25.3,11.5l-1.5,1.3c-5.9-6.9-14.5-10.8-23.7-10.8
				C117.8,260.1,109.1,264,103.2,270.9z"/>
		</g>
		<g>
			<path d="M127.1,324.9c-18.4,0-33.4-15-33.4-33.4c0-2.9,0.3-5.4,0.8-7.6l1.9,0.5c-0.5,2.1-0.8,4.4-0.8,7.2
				c0,17.3,14.1,31.4,31.4,31.4s31.4-14.1,31.4-31.4c0-4.2-0.8-8.2-2.3-11.8c-0.1-0.3-0.3-0.7-0.4-1c-0.2-0.3-0.3-0.7-0.5-1l1.8-0.8
				c0.1,0.3,0.3,0.7,0.4,1c0.2,0.3,0.3,0.7,0.5,1c1.6,3.9,2.5,8.1,2.5,12.6C160.4,309.9,145.5,324.9,127.1,324.9z"/>
		</g>
		<g>
			<path d="M146.1,271c-5.3-4.9-12.1-7.5-19.1-7.5c-7.2,0-14,2.7-19.1,7.5l-1.4-1.5c5.5-5.2,12.8-8.1,20.5-8.1
				c7.6,0,14.8,2.9,20.5,8.1L146.1,271z"/>
		</g>
		<g>
			<path d="M127,321.4c-16.5,0-30-13.5-30-30c0-3.3,0.5-6.5,1.6-9.5l1.9,0.7c-1,2.8-1.4,5.8-1.4,8.9c0,15.4,12.6,28,28,28
				s28-12.6,28-28c0-4.4-1.1-8.9-3.3-13l1.8-0.9c2.3,4.4,3.5,9.2,3.5,14C156.9,307.9,143.5,321.4,127,321.4z"/>
		</g>
		<g>
			<path d="M77.4,301H0v-2h77.4c0,0,4.8-0.1,7.4-3.9c2.8-4.4,7.2-9.1,7.4-9.3c0.1-0.2,4-4.7,9.6-4.7h8.9c0.1,0,3,0.2,5.5-1.3
				c3.1-1.8,6.3-2.8,8.7-2.8h30.4v-5.6l-57.1,0c-0.3,0-6.9-0.9-12.6,6c-6.1,7.5-10.9,7.5-14.4,7.5l-0.4,0H39.9v-2l31.3,0
				c3.3,0,7.3,0,12.8-6.7c6.1-7.5,13.4-6.9,14.3-6.8h58.9v9.6h-32.4c-2,0-4.9,1-7.7,2.6c-3,1.7-6.4,1.5-6.6,1.5l-8.8,0
				c-4.7,0-8.1,4-8.1,4c-0.1,0.1-4.5,4.8-7.2,9.1C83.2,300.9,77.6,301,77.4,301z"/>
		</g>
		<g>
			<rect x="0.3" y="282.7" width="7" height="2"/>
		</g>
		<g>
			<rect x="16" y="282.7" width="15.3" height="2"/>
		</g>
		<g>
			<path d="M126.5,300.4c-5,0-9-4-9-9c0-5,4-9,9-9c5,0,9,4,9,9C135.5,296.3,131.4,300.4,126.5,300.4z M126.5,284.4c-3.9,0-7,3.1-7,7
				s3.1,7,7,7c3.9,0,7-3.1,7-7S130.3,284.4,126.5,284.4z"/>
		</g>
		<g>
			<path d="M173.4,309h-12.1v-20c-0.1-0.5-1.2-4-6.3-10.4l1.6-1.2c5.9,7.4,6.7,11.2,6.7,11.3l0,0.2V307h8.1v-18.4l-2.8-17.3h-16.3
				v-2h18l3.2,19.2V309z"/>
		</g>
		<g>
			<polygon points="61,271.6 0.3,268.8 0.4,266.8 59.1,269.5 59.6,262.9 0.3,259.6 0.4,257.6 61.7,261 			"/>
		</g>
		<g>
			<path d="M178.1,205H68.6v-87.8h109.6V205z M70.6,203h105.6v-83.8H70.6V203z"/>
		</g>
		<g>
			<path d="M306.6,205H197v-87.8h109.6V205z M199,203h105.6v-83.8H199V203z"/>
		</g>
		<g>
			<path d="M436.3,205H326.7v-87.8h109.6V205z M328.7,203h105.6v-83.8H328.7V203z"/>
		</g>
		<g>
			<path d="M565.7,205H456.2v-87.8h109.6V205z M458.2,203h105.6v-83.8H458.2V203z"/>
		</g>
		<g>
			<rect x="69.6" y="138.9" width="107.3" height="2"/>
		</g>
		<g>
			<path d="M172.3,139.9h-2v-13.3c0-1.1-1-2.1-2.1-2.1H78.7c-1.1,0-2.1,1-2.1,2.1v12.6h-2v-12.6c0-2.3,1.8-4.1,4.1-4.1h89.6
				c2.3,0,4.1,1.8,4.1,4.1V139.9z"/>
		</g>
		<g>
			<path d="M871.7,175.6H762.1V87.8h109.6V175.6z M764.1,173.6h105.6V89.8H764.1V173.6z"/>
		</g>
		<g>
			<path d="M1000.2,175.6H890.7V87.8h109.6V175.6z M892.7,173.6h105.6V89.8H892.7V173.6z"/>
		</g>
		<g>
			<path d="M1129.9,175.6h-109.6V87.8h109.6V175.6z M1022.3,173.6h105.6V89.8h-105.6V173.6z"/>
		</g>
		<g>
			<rect x="763.1" y="109.5" width="107.4" height="2"/>
		</g>
		<g>
			<path d="M866,110.6h-2V97.3c0-1.1-1-2.1-2.1-2.1h-89.6c-1.1,0-2.1,1-2.1,2.1v12.6h-2V97.3c0-2.3,1.8-4.1,4.1-4.1h89.6
				c2.3,0,4.1,1.8,4.1,4.1V110.6z"/>
		</g>
		<g>
			<path d="M1242.8,270.9c-5.9-7-14.6-10.9-23.7-10.9c-8.4,0-16.2,3.2-22,9l-1.4-1.4c6.2-6.2,14.5-9.6,23.4-9.6
				c9.7,0,18.9,4.2,25.3,11.6L1242.8,270.9z"/>
		</g>
		<g>
			<path d="M1219.1,324.8c-18.4,0-33.4-15-33.4-33.4c0-2.3,0.3-4.7,0.8-7.2l2,0.4c-0.5,2.4-0.8,4.6-0.8,6.8
				c0,17.3,14.1,31.4,31.4,31.4c17.3,0,31.4-14.1,31.4-31.4c0-4.8-1.1-9.5-3.2-13.6c-0.6-1.3-1.2-2.3-1.8-3.3l1.7-1.1
				c0.7,1,1.3,2.1,1.9,3.5c2.2,4.5,3.4,9.5,3.4,14.5C1252.5,309.8,1237.5,324.8,1219.1,324.8z"/>
		</g>
		<g>
			<path d="M1237.8,270.5c-5.2-4.6-11.9-7.1-18.7-7.1c-6.1,0-12,2-16.9,5.7l-1.2-1.6c5.3-4,11.5-6.1,18.1-6.1
				c7.4,0,14.5,2.7,20.1,7.6L1237.8,270.5z"/>
		</g>
		<g>
			<path d="M1219.1,321.4c-16.5,0-30-13.5-30-30c0-2.7,0.4-5.4,1.1-8.1l1.9,0.5c-0.7,2.5-1.1,5-1.1,7.5c0,15.4,12.6,28,28,28
				s28-12.6,28-28c0-4.2-0.9-8.3-2.7-12.1l1.8-0.9c1.9,4.1,2.9,8.4,2.9,12.9C1249.1,307.9,1235.6,321.4,1219.1,321.4z"/>
		</g>
		<g>
			<path d="M1078.3,324.8c-18.4,0-33.4-15-33.4-33.4c0-6.4,1.8-12.6,5.2-17.8l1.7,1.1c-3.2,4.9-4.8,10.7-4.8,16.8
				c0,17.3,14.1,31.4,31.4,31.4c17.3,0,31.4-14.1,31.4-31.4c0-2-0.1-3.7-0.4-5.1l2-0.3c0.3,1.6,0.4,3.4,0.4,5.5
				C1111.7,309.8,1096.7,324.8,1078.3,324.8z"/>
		</g>
		<g>
			<path d="M1054.6,270.9l-1.5-1.3c6.3-7.3,15.5-11.5,25.3-11.5c8.8,0,17.1,3.4,23.4,9.6l-1.4,1.4c-5.9-5.8-13.7-9-22-9
				C1069.1,260.1,1060.5,264,1054.6,270.9z"/>
		</g>
		<g>
			<path d="M1078.4,321.4c-16.5,0-30-13.5-30-30c0-4.5,1-8.9,2.9-12.9l1.8,0.9c-1.8,3.8-2.7,7.8-2.7,12.1c0,15.4,12.6,28,28,28
				s28-12.6,28-28c0-2.5-0.4-5-1.1-7.5l1.9-0.5c0.8,2.7,1.1,5.4,1.1,8.1C1108.4,307.9,1094.9,321.4,1078.4,321.4z"/>
		</g>
		<g>
			<path d="M1059.7,270.5l-1.3-1.5c5.5-4.9,12.6-7.7,20-7.7c6.6,0,13,2.2,18.1,6.1l-1.2,1.6c-4.8-3.7-10.8-5.7-16.9-5.7
				C1071.4,263.4,1064.8,265.9,1059.7,270.5z"/>
		</g>
		<g>
			<path d="M1181.7,277.6h-10.6V254h10.6V277.6z M1173.1,275.6h6.6V256h-6.6V275.6z"/>
		</g>
		<g>
			<path d="M1114.5,287.1h-8.1V254h8.1V287.1z M1108.4,285.1h4.1V256h-4.1V285.1z"/>
		</g>
		<g>
			<rect x="1113.4" y="267.3" width="58.7" height="2"/>
		</g>
		<g>
			<path d="M1176.4,288.4l-55.5,0c-0.2,0-5-0.9-7.8-1.8l0.6-1.9c2.5,0.8,6.8,1.6,7.5,1.8h55c2-0.4,7.2-1.5,8.7-2.2
				c0.5-0.2,1-0.4,1.6-0.6c0.2-0.1,0.5-0.2,0.8-0.2c1.3-0.3,2.7-0.6,3.8-0.8c1-0.2,1.7-0.3,1.7-0.3l0.1,0h12.7
				c0.9,0,2.6-0.8,3.1-1.1c0.6-0.3,2.3-1.2,2.9-2c1.2-1.4,4-1.3,4.5-1.3l29,0v-6.5l-1.8-0.1l-5.2-0.5l-16.4-1.5l-41.2,0v-2h41.3
				l25.3,2.3v10.3h-31.1c-1.2-0.1-2.6,0.1-2.9,0.5c-1,1.2-3.3,2.3-3.5,2.5c-0.2,0.1-2.4,1.3-4,1.3h-12.6c-0.2,0-0.8,0.1-1.6,0.3
				c-1.1,0.2-2.5,0.5-3.7,0.8c-0.2,0.1-0.5,0.2-0.7,0.2c-0.6,0.2-1,0.3-1.4,0.5C1183.6,286.9,1176.8,288.3,1176.4,288.4
				L1176.4,288.4z"/>
		</g>
		<g>
			<path d="M1107.1,284.7c-0.2,0-0.3-0.1-0.5-0.1c-0.2,0-0.4-0.1-0.6-0.1c-0.8-0.2-1.5-0.2-1.7-0.3h-12.6c-1.6,0-3.8-1.2-4.1-1.3
				c-0.2-0.1-2.5-1.2-3.6-2.4c-0.4-0.5-2-0.6-2.9-0.6l-31.3,0v-10.4l3.7-0.4l5.2-0.5l16.3-1.5l32.2,0v2h-32.1l-23.3,2.2v6.6h29.2
				c0.5,0,3.3-0.2,4.5,1.3c0.7,0.7,2.4,1.6,3,1.9c0.8,0.4,2.3,1.1,3.2,1.1l12.8,0c0,0,0.8,0.1,2,0.3c0.2,0.1,0.4,0.1,0.5,0.1
				c0.2,0,0.4,0.1,0.7,0.1L1107.1,284.7z"/>
		</g>
		<g>
			<path d="M1264.4,315.5h-6.1l0.4-1.3c0.1-0.4,1.1-4.5-4-6.3l-0.7-0.2v-29.4h-5.9v-2h7.9v30c4.4,1.9,4.9,5.3,4.8,7.2h1.6v-36.3
				l-8.6-4.9h-7.1v-2h7.7l10,5.7V315.5z"/>
		</g>
		<g>
			<rect x="1044" y="276.3" width="6.5" height="2"/>
		</g>
		<g>
			<path d="M1037.3,315.5h-6.1v-16.8h2v14.8h1.6c-0.2-2.3,0.7-5.5,4.8-7.2v-7.7h2v9.1l-0.7,0.2c-5.2,1.8-4,6.1-4,6.3L1037.3,315.5z"
				/>
		</g>
		<g>
			<rect x="1044" y="270.3" width="8" height="2"/>
		</g>
		<g>
			<path d="M1219.1,301.1c-5.3,0-9.7-4.4-9.7-9.7c0-5.3,4.4-9.7,9.7-9.7c5.3,0,9.7,4.4,9.7,9.7
				C1228.8,296.7,1224.4,301.1,1219.1,301.1z M1219.1,283.7c-4.2,0-7.7,3.5-7.7,7.7c0,4.2,3.5,7.7,7.7,7.7s7.7-3.5,7.7-7.7
				C1226.8,287.1,1223.3,283.7,1219.1,283.7z"/>
		</g>
		<g>
			<path d="M1078.9,301.1c-5.3,0-9.7-4.4-9.7-9.7c0-5.3,4.4-9.7,9.7-9.7c5.3,0,9.7,4.4,9.7,9.7
				C1088.6,296.7,1084.3,301.1,1078.9,301.1z M1078.9,283.7c-4.2,0-7.7,3.5-7.7,7.7c0,4.2,3.5,7.7,7.7,7.7s7.7-3.5,7.7-7.7
				C1086.6,287.1,1083.2,283.7,1078.9,283.7z"/>
		</g>
		<g>
			<polygon points="1180.9,302.4 1115.2,302.4 1115.2,286.7 1117.2,286.7 1117.2,300.4 1178.9,300.4 1178.9,286.7 1180.9,286.7 			
				"/>
		</g>
		<g>
			<path d="M589.9,298.8H464.3v-31.5h125.7V298.8z M466.3,296.8h121.7v-27.5H466.3V296.8z"/>
		</g>
		<g>
			<path d="M1045.3,269.3h-12.1v-26.4H782.5v26.4H163v-15.9H46V43.1h1122.2c46.3,0,62.2,6.6,62.9,6.9l0.6,0.3v0.7
				c0,14.3,8,16.5,8.3,16.6l0.1,0c0.4,0.1,37.3,14.1,75,41.8c33.6,24.7,55.4,57.2,63.6,69.5c1.1,1.7,2,3,2.7,3.9
				c2.7,3.6,7.7,6.9,14.6,9.8c1.5,0.7,2.5,1,2.5,1l0.4,0.1l0.2,0.4c0.1,0.1,5.3,10.7,8.6,17.4c1.4,3,1.6,5.2,0.7,6.6
				c-0.8,1.1-2.2,1.3-2.9,1.3c-0.7,0-1.5,0-2.1,0.1c1.9,4.8,5.2,20.7,5.2,22.6c0,3.8-6,12.6-6.7,13.6l-0.3,0.4h-352.1L1045.3,269.3z
				 M1035.2,267.3h8.7l4.2-13.3h352.5c1.9-2.8,6-9.4,6-12c0-3.3-4.2-20.6-5.2-22.4c-0.4-0.4-0.5-0.8-0.4-1.2
				c0.2-0.6,0.3-1.1,4.6-1.1c0.1,0,0.8,0,1.1-0.4c0.2-0.3,0.6-1.4-0.9-4.5c-2.9-6-7.4-15.1-8.4-17c-0.5-0.2-1.3-0.4-2.3-0.9
				c-7.2-3-12.5-6.6-15.4-10.4c-0.7-0.9-1.6-2.3-2.7-4c-8.2-12.2-29.9-44.5-63.2-69c-37-27.2-73-41-74.5-41.5
				c-0.9-0.3-9.5-3.1-9.8-17.9c-3.3-1.2-20.6-6.5-61.5-6.5H48v206.2H165v15.9h615.4v-26.4h254.7V267.3z M1402.7,218.1
				C1402.7,218.1,1402.7,218.1,1402.7,218.1S1402.7,218.1,1402.7,218.1z M1402.7,218.1C1402.7,218.1,1402.7,218.1,1402.7,218.1
				C1402.7,218.1,1402.7,218.1,1402.7,218.1z M1402.7,218.1C1402.7,218.1,1402.7,218.1,1402.7,218.1
				C1402.7,218.1,1402.7,218.1,1402.7,218.1z"/>
		</g>
		<g>
			<path d="M1397.4,195c-0.2-0.4-21-38.6-49.2-66.2c-26.7-26.2-64.1-58.6-117.6-76.5l0.6-1.9c53.8,18.1,91.5,50.7,118.4,77
				c28.5,27.9,49.4,66.3,49.6,66.7L1397.4,195z"/>
		</g>
		<g>
			<path d="M1401.5,203.1c-2.1,0-7.2-0.5-14-4.7c-10-6.1-25.4-23.9-33.7-34c-12-14.6-52.2-47.8-94.8-62.5
				c-43.6-14.9-89.1-11.5-89.6-11.4l-447,0v-2h446.9c0.4,0,46.3-3.5,90.3,11.6c45.6,15.6,84.8,49.9,95.7,63.1
				c8.2,10,23.5,27.7,33.2,33.6c8.2,5,13.7,4.4,13.7,4.4l0.3,2C1402.5,203.1,1402.1,203.1,1401.5,203.1z"/>
		</g>
		<g>
			<path d="M1240.8,70c-27.3-11.1-71.1-9.4-71.6-9.4l-0.1-2c0.1,0,11.3-0.4,25.7,0.5c13.3,0.9,32.2,3.2,46.7,9.1L1240.8,70z"/>
		</g>
		<g>
			<path d="M1377.6,190.3c-0.7-0.1-69.9-11.8-131.2-13.7c-61.5-2-519.4,0-524,0l0-2c4.6,0,462.6-2,524.1,0
				c61.4,1.9,130.8,13.6,131.5,13.7L1377.6,190.3z"/>
		</g>
		<g>
			<rect x="722.3" y="228.1" width="446" height="2"/>
		</g>
		<g>
			<rect x="47" y="203" width="558" height="2"/>
		</g>
		<g>
			<rect x="47" y="117.2" width="558" height="2"/>
		</g>
		<g>
			<path d="M723.2,255H603.8V88.5h119.4V255z M605.8,253h115.4V90.5H605.8V253z"/>
		</g>
		<g>
			<rect x="662.5" y="89.1" width="2" height="164.9"/>
		</g>
		<g>
			<path d="M705.3,207.6H675v-93.7h30.3V207.6z M677,205.6h26.3v-89.7H677V205.6z"/>
		</g>
		<g>
			<path d="M652.3,207.6H622v-93.7h30.3V207.6z M624,205.6h26.3v-89.7H624V205.6z"/>
		</g>
		<g>
			<path d="M1416.2,308l-68.9-9.2c-1.5-0.4-35.4-8.4-41.2-26.2c-2.8-8.4-0.5-14.7,6.9-18.7l0.9,1.8c-6.5,3.5-8.4,8.8-5.9,16.3
				c5.5,16.7,39.3,24.8,39.7,24.8l59.9,8c-8-4.2-12.7-11.3-13-19.9c-0.2-5,2.2-9.6,7-13.1c1.7-1.3,3.4-2.2,4.7-2.8
				c-3.4-1.2-11.2-3.8-27.6-9c-5.9-1.8-10.9-3.1-15.4-4l0.4-2c4.5,0.9,9.6,2.2,15.6,4c25.2,8.1,30,9.8,30.1,9.9l2.7,1l-2.7,0.9
				c-0.1,0-13.2,4.4-12.8,15c0.4,10.4,7.8,18.3,19.9,21.2L1416.2,308z"/>
		</g>
		<g>
			<rect x="1342.2" y="152.3" width="2" height="32.4"/>
		</g>
		<g>
			<rect x="1246.2" y="97.1" width="2" height="78.5"/>
		</g>
		<g>
			<polygon points="1292.1,156.4 1247,150.6 1247.3,148.6 1290.1,154.2 1290.1,115 1292.1,115 			"/>
		</g>
		<g>
			<rect x="1286.6" y="87.4" transform="matrix(0.5529 -0.8333 0.8333 0.5529 504.207 1116.5107)" width="11.8" height="2"/>
		</g>
		<g>
			<path d="M711.8,298.2h-97v-27.1h97V298.2z M616.8,296.2h93v-23.1h-93V296.2z"/>
		</g>
		<g>
			<rect x="709.8" y="268.3" width="2" height="3.8"/>
		</g>
		<g>
			<rect x="614.8" y="268.3" width="2" height="3.8"/>
		</g>
		<g>
			<rect x="631.5" y="268.3" width="2" height="3.8"/>
		</g>
		<g>
			<rect x="693.4" y="268.3" width="2" height="3.8"/>
		</g>
		<g>
			<path d="M433,299.7H201v-32.3H433V299.7z M203,297.7H431v-28.3H203V297.7z"/>
		</g>
		<g>
			<path d="M849.9,45.1v-2c-0.4,0-0.6,0.3-0.7,0.4c0.2-0.6,0-3.3-0.3-5.7c-2.5-2.3-22.8-20.4-39.8-28.9H345.5
				c-17,8.4-37.2,26.6-39.8,28.9c-0.3,2.4-0.5,5.1-0.3,5.7c-0.1-0.1-0.3-0.4-0.7-0.4v2c-0.3,0-0.7-0.1-0.9-0.4
				c-0.3-0.3-0.9-1.1-0.1-7.5l0-0.4l0.3-0.2c0.2-0.2,22.3-20.5,40.7-29.6l0.2-0.1h464.5l0.2,0.1c18.4,9.1,40.5,29.4,40.7,29.6
				l0.3,0.2l0,0.4c0.9,6.4,0.2,7.2-0.1,7.5C850.5,45,850.2,45.1,849.9,45.1z"/>
		</g>
		<g>
			<rect x="1167.3" y="44.1" width="2" height="210.8"/>
		</g>
		<g>
			<polygon points="1044.7,299.1 721.3,299.1 721.3,229.1 723.3,229.1 723.3,297.1 1042.7,297.1 1042.7,268.3 1044.7,268.3 			"/>
		</g>
		<g>
			<path d="M996.1,283.5H815.4v-35.8h180.8V283.5z M817.4,281.5h176.8v-31.8H817.4V281.5z"/>
		</g>
		<g>
			<rect x="821.9" y="248.7" width="2" height="33.8"/>
		</g>
		<g>
			<rect x="828.9" y="248.7" width="2" height="33.8"/>
		</g>
		<g>
			<rect x="835.8" y="248.7" width="2" height="33.8"/>
		</g>
		<g>
			<rect x="842.8" y="248.7" width="2" height="33.8"/>
		</g>
		<g>
			<rect x="849.7" y="248.7" width="2" height="33.8"/>
		</g>
		<g>
			<rect x="856.7" y="248.7" width="2" height="33.8"/>
		</g>
		<g>
			<rect x="863.6" y="248.7" width="2" height="33.8"/>
		</g>
		<g>
			<rect x="870.5" y="248.7" width="2" height="33.8"/>
		</g>
		<g>
			<rect x="877.5" y="248.7" width="2" height="33.8"/>
		</g>
		<g>
			<rect x="884.4" y="248.7" width="2" height="33.8"/>
		</g>
		<g>
			<rect x="891.4" y="248.7" width="2" height="33.8"/>
		</g>
		<g>
			<rect x="898.3" y="248.7" width="2" height="33.8"/>
		</g>
		<g>
			<rect x="905.3" y="248.7" width="2" height="33.8"/>
		</g>
		<g>
			<rect x="912.2" y="248.7" width="2" height="33.8"/>
		</g>
		<g>
			<rect x="919.1" y="248.7" width="2" height="33.8"/>
		</g>
		<g>
			<rect x="926" y="248.7" width="2" height="33.8"/>
		</g>
		<g>
			<rect x="933" y="248.7" width="2" height="33.8"/>
		</g>
		<g>
			<rect x="939.9" y="248.7" width="2" height="33.8"/>
		</g>
		<g>
			<rect x="946.9" y="248.7" width="2" height="33.8"/>
		</g>
		<g>
			<rect x="953.8" y="248.7" width="2" height="33.8"/>
		</g>
		<g>
			<rect x="960.8" y="248.7" width="2" height="33.8"/>
		</g>
		<g>
			<rect x="967.7" y="248.7" width="2" height="33.8"/>
		</g>
		<g>
			<rect x="974.7" y="248.7" width="2" height="33.8"/>
		</g>
		<g>
			<rect x="981.6" y="248.7" width="2" height="33.8"/>
		</g>
		<g>
			<rect x="988.6" y="248.7" width="2" height="33.8"/>
		</g>
		<g>
			<polygon points="17,290.1 6.3,290.1 6.3,268.1 8.3,268.1 8.3,288.1 15,288.1 15,268.5 17,268.5 			"/>
		</g>
		<g>
			<polygon points="17,259.5 15,259.5 15,236 8.3,236 8.3,259 6.3,259 6.3,234 17,234 			"/>
		</g>
		<g>
			<polygon points="40.9,290.1 30.3,290.1 30.3,269.2 32.3,269.2 32.3,288.1 38.9,288.1 38.9,269.7 40.9,269.7 			"/>
		</g>
		<g>
			<polygon points="40.9,260.8 38.9,260.8 38.9,236 32.3,236 32.3,260.3 30.3,260.3 30.3,234 40.9,234 			"/>
		</g>
		<g>
			<rect x="0.4" y="254.5" width="6.9" height="2"/>
		</g>
		<g>
			<polygon points="95.6,256.5 39.9,256.5 39.9,254.5 93.6,254.5 93.6,252.4 95.6,252.4 			"/>
		</g>
		<g>
			<path d="M3.8,271.8H0.4v-1.3c-0.1-0.3-0.2-0.5-0.4-0.8l1.1-1.3c1,1,1.6,1.9,1.6,2L3.8,271.8z"/>
		</g>
		<g>
			<rect x="60.3" y="265.3" width="11.8" height="2"/>
		</g>
		<g>
			<path d="M86.1,276h-2v-6.3h1.1c-0.5-1.1-1.5-2.4-3-2.4h-3.6v-2h3.6c4.1,0,5.4,4.9,5.5,5.2l0.3,1.2h-1.8V276z"/>
		</g>
		<g>
			<rect x="60.6" y="269.7" width="24.5" height="2"/>
		</g>
		<g>
			<path d="M79.5,270.7H71v-16.3h8.5V270.7z M73,268.7h4.5v-12.3H73V268.7z"/>
		</g>
		<g>
			<path d="M42.6,58.2c-1.9,0-3.7-1-4.7-2.5c-1,1.5-2.8,2.5-4.7,2.5c-1.9,0-3.7-1-4.7-2.5c-1,1.5-2.8,2.5-4.7,2.5
				c-1.9,0-3.7-1-4.7-2.5c-1,1.5-2.8,2.5-4.7,2.5c-1.9,0-3.7-1-4.7-2.5c-1,1.5-2.8,2.5-4.7,2.5c-3.1,0-5.7-2.6-5.7-5.7h2
				c0,2,1.7,3.7,3.7,3.7c2,0,3.7-1.7,3.7-3.7h2c0,2,1.7,3.7,3.7,3.7c2,0,3.7-1.7,3.7-3.7h2c0,2,1.7,3.7,3.7,3.7c2,0,3.7-1.7,3.7-3.7
				h2c0,2,1.7,3.7,3.7,3.7s3.7-1.7,3.7-3.7h2c0,2,1.7,3.7,3.7,3.7c2,0,3.7-1.7,3.7-3.7h2C48.3,55.7,45.7,58.2,42.6,58.2z"/>
		</g>
		<g>
			<rect x="8.6" y="52.5" width="2" height="182.5"/>
		</g>
		<g>
			<rect x="36.6" y="52.5" width="2" height="182.5"/>
		</g>
		<g>
			<rect x="17.8" y="52.5" width="2" height="193"/>
		</g>
		<g>
			<rect x="27.3" y="52.5" width="2" height="193"/>
		</g>
		<g>
			<rect x="16" y="244.6" width="15.3" height="2"/>
		</g>
		<g>
			<path d="M667.7,32.3h-84.3V14.4h84.3V32.3z M585.4,30.3h80.3V16.4h-80.3V30.3z"/>
		</g>
		<g>
			<rect x="584.9" y="16.9" width="81.8" height="2"/>
		</g>
		<g>
			<rect x="584.9" y="20.4" width="81.8" height="2"/>
		</g>
		<g>
			<rect x="584.7" y="23.9" width="81.7" height="2"/>
		</g>
		<g>
			<rect x="584.9" y="27.4" width="81.8" height="2"/>
		</g>
		<g>
			<rect x="669.4" y="7.9" width="2" height="36.2"/>
		</g>
		<g>
			<rect x="577.7" y="7.9" width="2" height="36.2"/>
		</g>
		<g>
			<rect x="445.1" y="7.9" width="2" height="36.2"/>
		</g>
		<g>
			<rect x="349.5" y="7.9" width="2" height="36.2"/>
		</g>
		<g>
			<polygon points="1442.6,267.5 1435,259.4 1424.3,259.4 1424.3,257 1406.1,257 1401.9,254.1 1403,252.4 1406.7,255 1426.3,255 
				1426.3,257.4 1435.8,257.4 1442.6,264.6 1443.5,263.7 1436.5,256.2 1429,256.2 1429,252.2 1433.6,247.5 1435.9,247.5 
				1435.9,241.6 1433.3,241.6 1428.7,237.2 1428.7,233.2 1411.7,233.2 1411.7,239.1 1407.5,239.1 1407.5,237.1 1409.7,237.1 
				1409.7,231.2 1430.7,231.2 1430.7,236.4 1434.1,239.6 1437.9,239.6 1437.9,249.5 1434.4,249.5 1431,253 1431,254.2 1437.3,254.2 
				1446.3,263.7 			"/>
		</g>
	</g>
</g>
</svg>
