<?xml version="1.0" encoding="utf-8"?>
<!-- Generator: Adobe Illustrator 22.0.1, SVG Export Plug-In . SVG Version: 6.00 Build 0)  -->
<svg version="1.1" id="Type_75_1_" xmlns="http://www.w3.org/2000/svg" xmlns:xlink="http://www.w3.org/1999/xlink" x="0px" y="0px"
	 viewBox="0 0 1650.2 428" style="enable-background:new 0 0 1650.2 428;" xml:space="preserve">
<metadata><?xpacket begin="﻿" id="W5M0MpCehiHzreSzNTczkc9d"?>
<x:xmpmeta xmlns:x="adobe:ns:meta/" x:xmptk="Adobe XMP Core 5.6-c143 79.161210, 2017/08/11-10:28:36        ">
   <rdf:RDF xmlns:rdf="http://www.w3.org/1999/02/22-rdf-syntax-ns#">
      <rdf:Description rdf:about=""/>
   </rdf:RDF>
</x:xmpmeta>
                                                                                                    
                                                                                                    
                                                                                                    
                                                                                                    
                                                                                                    
                                                                                                    
                                                                                                    
                                                                                                    
                                                                                                    
                                                                                                    
                                                                                                    
                                                                                                    
                                                                                                    
                                                                                                    
                                                                                                    
                                                                                                    
                                                                                                    
                                                                                                    
                                                                                                    
                                                                                                    
                           
<?xpacket end="w"?></metadata>
<style type="text/css">
	.st0{fill:#333F48;}
	.st1{fill:#212322;}
	.st2{fill:#C7C9C7;}
	.st3{fill:none;}
	.st4{fill:#444445;}
	.st5{fill:#DA291C;}
	.st6{fill:#B1B3B3;}
	.st7{fill:#090E15;}
	.st8{fill:#878787;}
	.st9{opacity:0.7;enable-background:new    ;}
	.st10{fill:none;stroke:#000000;stroke-width:2;stroke-miterlimit:10;}
</style>
<g id="Mål_10_">
</g>
<g>
	<g id="Farger_10_">
		<g id="Grunnfarge_6_">
			<path class="st0" d="M1589,310.6L2.5,310.1v68.5c0,0,93.8,0,98.5,0s6.5,2.5,6.5,2.5l2.1,1.9h1118.8c0,0,12.3-5.9,18.3-9.9
				s16-9.2,22.5-11.4c19.7-6.8,35.6-6.1,35.6-6.1c0-5.9,4-5.3,4-5.3c13.4,0,42.7,0,48.6,0c3.9,0,26,0,26,0s49.5,0,55.2,0
				c5.4,0,3.6,6.2,3.6,6.2s18.2,0.4,25.3,1.3c7.6,1,33.3,13.9,33.3,13.9s14.7,9.2,19.6,12.3c1,0.6,7.8,0.1,13,0
				c19-0.3,55.6,0,55.6,0V310.6z"/>
			<path class="st1" d="M1.2,405.6c0,0,22.1,0,31.7,0l11.6,3l10.6-1.2c6,12.6,19.1,21.2,34.1,20.6c19.6-0.8,34.6-17.8,34.6-37.3l0,0
				c0-1-0.1-2-0.4-3l-1.2-4.4h-13.8l-1.4-1.6c-1.4-2.2-5.4-2.5-5.4-2.5H64.7l0,0H1.2"/>
			<polygon class="st0" points="350,384 350,394.2 230.1,394.2 230.1,383.7 			"/>
			<path class="st1" d="M1531,399.3c0,0-5.4-1.7-6.3-2s-1.7-1.5-1.7-1.5l-2.6-12.4l-0.4-0.2c-3.9-2.5-34.3-21.9-46.8-24.4
				c-10.5-2.1-25.2-2.6-31.1-2.7h-0.1v-3.9c0,0,0.1-2.3-2.1-2.3s-131.8,0-131.8,0s-3.2,0.3-3.2,2.3s0,3,0,3
				c-27.8-0.3-45.3,10.6-45.3,10.6l-25.6,15l-7,2.9l-0.3,0.5l-2.6,11.5c0,0-0.8,1.2-1.7,1.5c-0.9,0.2-6.3,2-6.3,2l-4.3,0.1v11.5
				h18.3c0,0,3.1,0.5,4.4-4.9c0.9-3.8,3.4-17.3,5.6-28.4l4.7-1.8c-2.2,7.3-2.9,11.4-2.9,15.5c0,20,16.2,36.3,36.3,36.3
				c12.3,0,23.2-6.1,29.7-15.5h28.4l5.6-3.9c4.3,4.3,7.5,3.7,7.5,3.7s39.6,0,46,0s9.1-3.2,9.1-3.2l4.2-4.1l0,0
				c4,4.1,9.6,6.7,15.8,6.7c4.4,0,8.6-1.3,12-3.6l0,0c6,11.9,18.2,20,32.4,20c20.1,0,36.3-16.3,36.3-36.3c0-5-1-9.7-3.3-15.4
				l5.2,1.8c1.5,7.8,4.5,24.2,5.5,28.4c1.3,5.3,4.4,4.8,4.4,4.8h18.3v-11.5L1531,399.3z"/>
			<polygon class="st0" points="983.4,384.7 983.4,394.5 1103.2,394.5 1103.2,384.6 			"/>
			<polygon class="st2" points="2.6,311.8 2.6,125 2.5,109.7 1588.7,109.7 1588.7,310.1 			"/>
			<line class="st3" x1="2.2" y1="144.3" x2="2" y2="151.8"/>
			<rect x="1588.9" y="158.7" class="st4" width="61.6" height="218.5"/>
		</g>
		<g id="Profilering_10_">
			<polygon class="st5" points="2.2,157.1 1589.2,157.1 1588.8,197 2.6,197.3 			"/>
			<g>
				<rect x="2.4" y="170.5" class="st6" width="1586.3" height="3.4"/>
			</g>
			<polygon class="st7" points="1136.6,197 1103.4,197 391,197 350.1,197 2.5,197 2.5,310.1 350.1,310.1 350.1,310.1 1103.4,310.1 
				1136.6,310.1 1588.7,310.1 1588.7,197 			"/>
			<polygon class="st5" points="988.6,310.1 931.3,310.1 365.5,310.1 365.5,310.1 2,310.1 2,348.3 349.7,348.3 365.5,348.3 
				931.3,348.3 988.6,348.3 1588.7,348.3 1588.7,310.1 			"/>
			<g>
				<rect x="3.1" y="319.6" class="st6" width="1585.6" height="6.7"/>
			</g>
		</g>
		<g id="Dører_og_vinduer_9_">
			<path class="st8" d="M645.5,232.4H542.2c-4.5,0-8.1,3.7-8.1,8.1v57.1c0,4.5,3.7,8.1,8.1,8.1h103.2c4.5,0,8.1-3.7,8.1-8.1v-57.1
				C653.6,236.1,649.9,232.4,645.5,232.4z"/>
			<path class="st8" d="M791.9,232.6H688.7c-4.5,0-8.1,3.7-8.1,8.1v57.1c0,4.5,3.7,8.1,8.1,8.1h103.2c4.5,0,8.1-3.7,8.1-8.1v-57
				C800.1,236.3,796.4,232.6,791.9,232.6z"/>
			<path class="st8" d="M499.7,206.1H396.5c-4.5,0-8.1,3.7-8.1,8.1v84.2c0,4.5,3.7,8.1,8.1,8.1h103.2c4.5,0,8.1-3.7,8.1-8.1v-84.2
				C507.8,209.7,504.2,206.1,499.7,206.1z"/>
			<path class="st9" d="M388.3,234h119.5v-19.8c0-4.5-3.6-8.2-8.1-8.2H396.5c-4.5,0-8.2,3.7-8.2,8.2V234z"/>
			<path class="st8" d="M171.6,205.6H68.4c-4.5,0-8.1,3.7-8.1,8.1v57.1c0,4.5,3.7,8.1,8.1,8.1h103.2c4.5,0,8.1-3.7,8.1-8.1v-57
				C179.8,209.3,176.1,205.6,171.6,205.6z"/>
			<path class="st6" d="M342,186.4H238.8c-4.5,0-8.1,3.7-8.1,8.1v170.8c0,4.5,3.7,8.1,8.1,8.1H342c4.5,0,8.1-3.7,8.1-8.1V194.5
				C350.1,190.1,346.5,186.4,342,186.4z"/>
			<path class="st6" d="M1094.9,186.7H991.7c-4.5,0-8.1,3.7-8.1,8.1v170.8c0,4.5,3.7,8.1,8.1,8.1h103.2c4.5,0,8.1-3.7,8.1-8.1V194.8
				C1103.1,190.3,1099.4,186.7,1094.9,186.7z"/>
			<path class="st8" d="M1019.9,203.2h-12.4c-4.5,0-8.1,3.7-8.1,8.1v87.6c0,4.5,3.7,8.1,8.1,8.1h12.4c4.5,0,8.1-3.7,8.1-8.1v-87.6
				C1028.1,206.9,1024.4,203.2,1019.9,203.2z"/>
			<path class="st8" d="M1079.3,203.2h-12.4c-4.5,0-8.1,3.7-8.1,8.1v87.6c0,4.5,3.7,8.1,8.1,8.1h12.4c4.5,0,8.1-3.7,8.1-8.1v-87.6
				C1087.4,206.9,1083.8,203.2,1079.3,203.2z"/>
			<path class="st8" d="M1266.1,205.1h-103.2c-4.5,0-8.1,3.7-8.1,8.1v57.1c0,4.5,3.7,8.1,8.1,8.1h103.2c4.5,0,8.1-3.7,8.1-8.1v-57.1
				C1274.2,208.7,1270.5,205.1,1266.1,205.1z"/>
			<path class="st8" d="M939,206.2H835.8c-4.5,0-8.1,3.7-8.1,8.1v84.2c0,4.5,3.7,8.1,8.1,8.1H939c4.5,0,8.1-3.7,8.1-8.1v-84.2
				C947.1,209.8,943.5,206.2,939,206.2z"/>
			<path class="st8" d="M267,203h-12.4c-4.5,0-8.1,3.7-8.1,8.1v87.6c0,4.5,3.7,8.1,8.1,8.1H267c4.5,0,8.1-3.7,8.1-8.1v-87.6
				C275.1,206.6,271.4,203,267,203z"/>
			<path class="st8" d="M326.3,203H314c-4.5,0-8.1,3.7-8.1,8.1v87.6c0,4.5,3.7,8.1,8.1,8.1h12.4c4.5,0,8.1-3.7,8.1-8.1v-87.6
				C334.5,206.6,330.8,203,326.3,203z"/>
			<path class="st9" d="M827.6,234.1h119.5v-19.8c0-4.5-3.6-8.2-8.1-8.2H835.8c-4.5,0-8.2,3.7-8.2,8.2V234.1z"/>
		</g>
	</g>
	<g id="Omriss_10_">
		<path class="st10" d="M1298.8,370.9c-7.3,0-35,0-35,0s-3.4-0.1-6.6,0.4l-1,0.1c-0.8,0.2-1.6,0.4-2.3,0.6c-0.8,0.3-2.6,0.9-4.9,1.6
			l-0.5,0.1l-0.6,0.2l-2.4,0.7l-6,2.5l-5.7,3.2l-4.9,2.7h-9.4H1151H161.2h-35.8h-2.9h-5.1h-1.7h-7.2l-1.4-2
			c-1.4-2.2-5.4-2.5-5.4-2.5H64.6c0,0-0.6,0.3-0.6,12.6h-4.5c0-0.1,0-1.3-1-2c-0.3-0.2-0.7-0.3-1.3-0.3c-2.3,0-2.2,2.3-2.2,2.3v5.7
			h-2.7l0,0c-0.2,0-1.2,0-2.8,1.6c-1.8,1.8-5.6,4.7-5.6,4.7s-1.5,1.9-8,1.9c-0.7,0-1.7,0-2.9,0c-9.6,0-31.6,0-31.6,0"/>
		<circle class="st10" cx="87.7" cy="391.3" r="8.8"/>
		<polyline class="st10" points="55.1,406.9 44.5,408.1 32.8,405.1 		"/>
		<path class="st10" d="M171.7,205.4H68.5c-4.5,0-8.1,3.7-8.1,8.1v57.1c0,4.5,3.7,8.1,8.1,8.1h103.2c4.5,0,8.1-3.7,8.1-8.1v-57.1
			C179.9,209.1,176.2,205.4,171.7,205.4z"/>
		<path class="st10" d="M645.3,232.6H542c-4.5,0-8.1,3.7-8.1,8.1v57.1c0,4.5,3.7,8.1,8.1,8.1h103.2c4.5,0,8.1-3.7,8.1-8.1v-57
			C653.4,236.3,649.7,232.6,645.3,232.6z"/>
		<path class="st10" d="M791.9,232.6H688.7c-4.5,0-8.1,3.7-8.1,8.1v57.1c0,4.5,3.7,8.1,8.1,8.1h103.2c4.5,0,8.1-3.7,8.1-8.1v-57
			C800.1,236.3,796.4,232.6,791.9,232.6z"/>
		<path class="st10" d="M499.5,206.1H396.2c-4.5,0-8.1,3.7-8.1,8.1v84.2c0,4.5,3.7,8.1,8.1,8.1h103.2c4.5,0,8.1-3.7,8.1-8.1v-84.2
			C507.6,209.7,503.9,206.1,499.5,206.1z"/>
		<line class="st10" x1="392.5" y1="234" x2="503.1" y2="234"/>
		<path class="st10" d="M939,206.1H835.8c-4.5,0-8.1,3.7-8.1,8.1v84.2c0,4.5,3.7,8.1,8.1,8.1H939c4.5,0,8.1-3.7,8.1-8.1v-84.2
			C947.1,209.7,943.5,206.1,939,206.1z"/>
		<line class="st10" x1="832" y1="234" x2="942.6" y2="234"/>
		<path class="st10" d="M266.6,202.7h-12.4c-4.5,0-8.1,3.7-8.1,8.1v87.6c0,4.5,3.7,8.1,8.1,8.1h12.4c4.5,0,8.1-3.7,8.1-8.1v-87.6
			C274.7,206.3,271.1,202.7,266.6,202.7z"/>
		<path class="st10" d="M326,202.7h-12.4c-4.5,0-8.1,3.7-8.1,8.1v87.6c0,4.5,3.7,8.1,8.1,8.1H326c4.5,0,8.1-3.7,8.1-8.1v-87.6
			C334.1,206.3,330.4,202.7,326,202.7z"/>
		<polyline class="st10" points="236.5,373.2 236.5,367.2 343.5,367.2 343.5,373.2 		"/>
		<polygon class="st10" points="349.6,383.7 349.6,393.9 229.7,393.9 229.7,383.4 		"/>
		<polyline class="st10" points="1520.4,384 1589,384 1589,110.6 2.1,110.6 2.1,310 2.1,378.6 54.1,378.6 61.3,378.6 64.6,378.6 		
			"/>
		<circle class="st10" cx="283.7" cy="293.2" r="2.4"/>
		<path class="st10" d="M1095.3,186.1H992c-4.5,0-8.1,3.7-8.1,8.1V365c0,4.5,3.7,8.1,8.1,8.1h103.2c4.5,0,8.1-3.7,8.1-8.1V194.2
			C1103.4,189.8,1099.7,186.1,1095.3,186.1z"/>
		<path class="st10" d="M1020.3,202.7h-12.4c-4.5,0-8.1,3.7-8.1,8.1v87.6c0,4.5,3.7,8.1,8.1,8.1h12.4c4.5,0,8.1-3.7,8.1-8.1v-87.6
			C1028.4,206.3,1024.7,202.7,1020.3,202.7z"/>
		<path class="st10" d="M1079.6,202.7h-12.4c-4.5,0-8.1,3.7-8.1,8.1v87.6c0,4.5,3.7,8.1,8.1,8.1h12.4c4.5,0,8.1-3.7,8.1-8.1v-87.6
			C1087.8,206.3,1084.1,202.7,1079.6,202.7z"/>
		<line class="st10" x1="1045.3" y1="185" x2="1045.3" y2="367.2"/>
		<polyline class="st10" points="990.2,373.2 990.2,367.2 1097.2,367.2 1097.2,373.2 		"/>
		<polygon class="st10" points="983.4,384.1 983.4,393.9 1103.2,393.9 1103.2,384 		"/>
		<circle class="st10" cx="1051.9" cy="293.2" r="2.4"/>
		<path class="st10" d="M341.6,186.1H238.4c-4.5,0-8.1,3.7-8.1,8.1V365c0,4.5,3.7,8.1,8.1,8.1h103.2c4.5,0,8.1-3.7,8.1-8.1V194.2
			C349.7,189.8,346.1,186.1,341.6,186.1z"/>
		<circle class="st10" cx="1468.9" cy="391.7" r="8.8"/>
		<path class="st10" d="M1436.5,408c-3.4,2.3-7.6,3.6-12,3.6c-6.2,0-11.8-2.6-15.8-6.7l0,0"/>
		<line class="st10" x1="291.6" y1="185" x2="291.6" y2="367.2"/>
		<circle class="st10" cx="1278.2" cy="391.7" r="8.8"/>
		<path class="st10" d="M1442,356.6v-3.9c0,0,0.1-2.3-2.1-2.3s-131.8,0-131.8,0s-3.2,0.3-3.2,2.3s0,3,0,3l0,0
			c6.7,0,11.5,4.3,11.5,4.3l18.8,19l6.6,6.4c6,6.2,13.1,5.8,13.1,5.8h8.5h19.4c19,0.3,21.8-4.3,21.8-4.3s20.4-21.7,25.8-26.3
			c5.4-4.6,9.2-3.9,9.2-3.9s20.3,0,33.7,2.7s47.3,24.7,47.3,24.7"/>
		<path class="st10" d="M1520.4,384l2.6,12.4c0,0,0.8,1.2,1.7,1.5s6.3,2,6.3,2l4.3,0.1v11.5H1517c0,0-3.1,0.5-4.4-4.8
			S1507,377,1507,377"/>
		<path class="st10" d="M1240.2,377.1c-1.1,6.3-4.7,25-5.7,29.3c-1.2,5.4-4.4,4.9-4.4,4.9h-18.3v-11.5l4.3-0.1c0,0,5.4-1.8,6.3-2
			c0.9-0.3,1.7-1.5,1.7-1.5l3.2-13"/>
		<path class="st10" d="M1511.5,378.4l-10.2-3.2l0,0l-10.6-3.3c0,0-0.1,0-0.4-0.1c-1.1-0.2-4.6-0.6-9-0.6c-4.6,0-27.4,0-33.2,0
			c-0.8,0-1.3,0-1.3,0s-3.5-0.1-6.9,2.7c-0.3,0.2-0.5,0.5-0.8,0.7c-0.6,0.6-2,2-3.9,3.9c-8.2,8.1-25.2,25.2-26.4,26.4l-4.2,4.1
			c0,0-2.6,3.2-9.1,3.2c-6.4,0-46,0-46,0s-3.2,0.6-7.5-3.7c-3.2-3.2-21.1-21.1-29.8-29.7"/>
		<path class="st10" d="M1435.1,378.5c-1.6,4.1-2.5,8.6-2.5,13.2c0,5.9,1.4,11.4,3.9,16.3c6,11.9,18.2,20,32.4,20
			c20.1,0,36.3-16.3,36.3-36.3c0-6-1.4-11.6-4-16.5l0,0"/>
		<polyline class="st10" points="1457.1,357.3 1457.2,357.3 1457.2,357.3 		"/>
		<path class="st10" d="M1448.1,371.1c-2,2-3.6,4.3-5,6.8c-2.2,4.1-3.4,8.8-3.4,13.8c0,4,0.8,7.8,2.3,11.3c4.4,10.5,14.9,18,27,18
			c16.2,0,29.3-13.1,29.3-29.2c0-7.7-3-14.7-7.9-19.9"/>
		<path class="st10" d="M1246,374.6c-2.4,4.8-4.1,11.3-4.1,17.1c0,20,16.2,36.3,36.3,36.3c20,0,36.3-16.3,36.3-36.3
			c0-4.5-0.8-8.9-2.3-12.8l0,0"/>
		<path class="st10" d="M1257.2,371.3c-5.2,5.3-8.3,12.5-8.3,20.4c0,16.2,13.1,29.2,29.3,29.2c16.1,0,29.2-13.1,29.2-29.2
			c0-8.1-3.3-15.5-8.7-20.8"/>
		<polyline class="st10" points="2.1,157.1 1277.1,157.1 1589,157.1 		"/>
		<path class="st10" d="M1242.8,376.3c0,0,24.6-21,62.2-20.6"/>
		<path class="st10" d="M1298.8,370.9c0.6,0,1,0,1.3,0c3.9,0,7.2,3.1,7.2,3.1s1.9,1.9,4.8,4.8"/>
		<rect x="1251.3" y="112.8" class="st10" width="91.2" height="39.7"/>
		<g>
			<g>
				<line class="st10" x1="1335.4" y1="112.8" x2="1335.4" y2="152.5"/>
				<line class="st10" x1="1328.4" y1="112.8" x2="1328.4" y2="152.5"/>
				<line class="st10" x1="1321.5" y1="112.8" x2="1321.5" y2="152.5"/>
			</g>
			<g>
				<line class="st10" x1="1314.4" y1="112.8" x2="1314.4" y2="152.5"/>
				<line class="st10" x1="1307.4" y1="112.8" x2="1307.4" y2="152.5"/>
				<line class="st10" x1="1300.5" y1="112.8" x2="1300.5" y2="152.5"/>
			</g>
			<g>
				<line class="st10" x1="1293.4" y1="112.8" x2="1293.4" y2="152.5"/>
				<line class="st10" x1="1286.5" y1="112.8" x2="1286.5" y2="152.5"/>
				<line class="st10" x1="1279.5" y1="112.8" x2="1279.5" y2="152.5"/>
			</g>
			<g>
				<line class="st10" x1="1272.4" y1="112.8" x2="1272.4" y2="152.5"/>
				<line class="st10" x1="1265.5" y1="112.8" x2="1265.5" y2="152.5"/>
				<line class="st10" x1="1258.5" y1="112.8" x2="1258.5" y2="152.5"/>
			</g>
		</g>
		<rect x="848.8" y="112.3" class="st10" width="52.9" height="39.7"/>
		<g>
			<g>
				<line class="st10" x1="896.2" y1="112.4" x2="896.2" y2="152"/>
				<line class="st10" x1="889.3" y1="112.4" x2="889.3" y2="152"/>
				<line class="st10" x1="882.3" y1="112.4" x2="882.3" y2="152"/>
			</g>
			<g>
				<line class="st10" x1="875.2" y1="112.4" x2="875.2" y2="152"/>
				<line class="st10" x1="868.3" y1="112.4" x2="868.3" y2="152"/>
				<line class="st10" x1="861.3" y1="112.4" x2="861.3" y2="152"/>
			</g>
			<g>
				<line class="st10" x1="854.2" y1="112.4" x2="854.2" y2="152"/>
			</g>
		</g>
		<rect x="725.9" y="112.3" class="st10" width="52.9" height="39.7"/>
		<g>
			<g>
				<line class="st10" x1="773.3" y1="112.4" x2="773.3" y2="152"/>
				<line class="st10" x1="766.4" y1="112.4" x2="766.4" y2="152"/>
				<line class="st10" x1="759.5" y1="112.4" x2="759.5" y2="152"/>
			</g>
			<g>
				<line class="st10" x1="752.3" y1="112.4" x2="752.3" y2="152"/>
				<line class="st10" x1="745.4" y1="112.4" x2="745.4" y2="152"/>
				<line class="st10" x1="738.5" y1="112.4" x2="738.5" y2="152"/>
			</g>
			<g>
				<line class="st10" x1="731.4" y1="112.4" x2="731.4" y2="152"/>
			</g>
		</g>
		<rect x="367.6" y="112.3" class="st10" width="91.2" height="39.7"/>
		<g>
			<g>
				<line class="st10" x1="451.7" y1="112.4" x2="451.7" y2="152"/>
				<line class="st10" x1="444.7" y1="112.4" x2="444.7" y2="152"/>
				<line class="st10" x1="437.8" y1="112.4" x2="437.8" y2="152"/>
			</g>
			<g>
				<line class="st10" x1="430.7" y1="112.4" x2="430.7" y2="152"/>
				<line class="st10" x1="423.7" y1="112.4" x2="423.7" y2="152"/>
				<line class="st10" x1="416.8" y1="112.4" x2="416.8" y2="152"/>
			</g>
			<g>
				<line class="st10" x1="409.7" y1="112.4" x2="409.7" y2="152"/>
				<line class="st10" x1="402.8" y1="112.4" x2="402.8" y2="152"/>
				<line class="st10" x1="395.8" y1="112.4" x2="395.8" y2="152"/>
			</g>
			<g>
				<line class="st10" x1="388.7" y1="112.4" x2="388.7" y2="152"/>
				<line class="st10" x1="381.8" y1="112.4" x2="381.8" y2="152"/>
				<line class="st10" x1="374.8" y1="112.4" x2="374.8" y2="152"/>
			</g>
		</g>
		<polyline class="st10" points="1341.9,408.6 1336.4,412.5 1307.8,412.5 		"/>
		<path class="st10" d="M1266.1,205.5h-103.2c-4.5,0-8.1,3.7-8.1,8.1v57.1c0,4.5,3.7,8.1,8.1,8.1h103.2c4.5,0,8.1-3.7,8.1-8.1v-57.1
			C1274.2,209.1,1270.5,205.5,1266.1,205.5z"/>
		<path class="st10" d="M115.7,383.1c0.8,2.6,1.2,5.3,1.2,8.2c0,16.2-13.1,29.3-29.3,29.3s-29.3-13.1-29.3-29.3c0-0.7,0-1.4,0.1-2.1
			"/>
		<path class="st10" d="M122.5,383.1c0.6,2.6,0.9,5.4,0.9,8.2c0,19.8-16,35.9-35.9,35.9c-17.9,0-32.7-13.1-35.4-30.3"/>
		<line class="st10" x1="1619.4" y1="162.2" x2="1619.4" y2="377.8"/>
		<line class="st10" x1="1613.4" y1="162.2" x2="1613.4" y2="377.8"/>
		<line class="st10" x1="1607.5" y1="162.2" x2="1607.5" y2="377.8"/>
		<line class="st10" x1="1601.5" y1="162.2" x2="1601.5" y2="377.8"/>
		<line class="st10" x1="1595.6" y1="162.2" x2="1595.6" y2="377.8"/>
		<line class="st10" x1="1625.3" y1="162.2" x2="1625.3" y2="377.8"/>
		<line class="st10" x1="1631.3" y1="162.2" x2="1631.3" y2="377.8"/>
		<line class="st10" x1="1637.3" y1="162.2" x2="1637.3" y2="377.8"/>
		<line class="st10" x1="1643.2" y1="162.2" x2="1643.2" y2="377.8"/>
		<path class="st10" d="M1608,126.5L1608,126.5c0.2-0.5,0-1.1-0.5-1.4c-0.5-0.2-1.1,0-1.4,0.5l0,0l-4.1,9.1l0,0
			c-0.2,0.5,0,1.1,0.5,1.4c0.5,0.2,1.1,0,1.4-0.5l0,0L1608,126.5z"/>
		<path class="st10" d="M1606.1,126.5C1606.1,126.5,1606,126.5,1606.1,126.5c-0.2-0.5,0-1.1,0.5-1.4c0.5-0.2,1.1,0,1.4,0.5l0,0
			l4.1,9.1l0,0c0.2,0.5,0,1.1-0.5,1.4c-0.5,0.2-1.1,0-1.4-0.5l0,0L1606.1,126.5z"/>
		<path class="st10" d="M1616.3,126.5L1616.3,126.5c0.2-0.5,0-1.1-0.5-1.4c-0.5-0.2-1.1,0-1.4,0.5l0,0l-4.1,9.1l0,0
			c-0.2,0.5,0,1.1,0.5,1.4c0.5,0.2,1.1,0,1.4-0.5l0,0L1616.3,126.5z"/>
		<path class="st10" d="M1614.4,126.5L1614.4,126.5c-0.2-0.5,0-1.1,0.5-1.4c0.5-0.2,1.1,0,1.4,0.5l0,0l4.1,9.1l0,0
			c0.2,0.5,0,1.1-0.5,1.4c-0.5,0.2-1.1,0-1.4-0.5l0,0L1614.4,126.5z"/>
		<path class="st10" d="M1624.6,126.5L1624.6,126.5c0.2-0.5,0-1.1-0.5-1.4c-0.5-0.2-1.1,0-1.4,0.5l0,0l-4.1,9.1l0,0
			c-0.2,0.5,0,1.1,0.5,1.4c0.5,0.2,1.1,0,1.4-0.5l0,0L1624.6,126.5z"/>
		<path class="st10" d="M1622.7,126.5L1622.7,126.5c-0.2-0.5,0-1.1,0.5-1.4c0.5-0.2,1.1,0,1.4,0.5l0,0l4.1,9.1l0,0
			c0.2,0.5,0,1.1-0.5,1.4c-0.5,0.2-1.1,0-1.4-0.5l0,0L1622.7,126.5z"/>
		<path class="st10" d="M1632.9,126.5L1632.9,126.5c0.2-0.5,0-1.1-0.5-1.4c-0.5-0.2-1.1,0-1.4,0.5l0,0l-4.1,9.1l0,0
			c-0.2,0.5,0,1.1,0.5,1.4c0.5,0.2,1.1,0,1.4-0.5l0,0L1632.9,126.5z"/>
		<path class="st10" d="M1631,126.5L1631,126.5c-0.2-0.5,0-1.1,0.5-1.4c0.5-0.2,1.1,0,1.4,0.5l0,0l4.1,9.1l0,0
			c0.2,0.5,0,1.1-0.5,1.4c-0.5,0.2-1.1,0-1.4-0.5l0,0L1631,126.5z"/>
		<path class="st10" d="M1641.2,126.5L1641.2,126.5c0.2-0.5,0-1.1-0.5-1.4c-0.5-0.2-1.1,0-1.4,0.5l0,0l-4.1,9.1l0,0
			c-0.2,0.5,0,1.1,0.5,1.4c0.5,0.2,1.1,0,1.4-0.5l0,0L1641.2,126.5z"/>
		<path class="st10" d="M1597.9,126.5L1597.9,126.5c-0.2-0.5,0-1.1,0.5-1.4c0.5-0.2,1.1,0,1.4,0.5l0,0l4.1,9.1l0,0
			c0.2,0.5,0,1.1-0.5,1.4c-0.5,0.2-1.1,0-1.4-0.5l0,0L1597.9,126.5z"/>
		<path class="st10" d="M1649.8,127.4c0-2.6-2.1-4.8-4.8-4.8c-1.9,0-3.5,1.1-4.3,2.7l-0.6,1.3"/>
		<path class="st10" d="M1589.4,127.4c0-2.6,2.1-4.8,4.8-4.8c1.9,0,3.5,1.1,4.3,2.7l0.6,1.3"/>
		<line class="st10" x1="1589.2" y1="378.5" x2="1650.6" y2="378.5"/>
	</g>
</g>
</svg>
