<?xml version="1.0" encoding="utf-8"?>
<!-- Generator: Adobe Illustrator 22.0.1, SVG Export Plug-In . SVG Version: 6.00 Build 0)  -->
<svg version="1.1" id="Type_74" xmlns="http://www.w3.org/2000/svg" xmlns:xlink="http://www.w3.org/1999/xlink" x="0px" y="0px"
	 viewBox="0 0 1649.4 424" style="enable-background:new 0 0 1649.4 424;" xml:space="preserve">
<metadata><?xpacket begin="﻿" id="W5M0MpCehiHzreSzNTczkc9d"?>
<x:xmpmeta xmlns:x="adobe:ns:meta/" x:xmptk="Adobe XMP Core 5.6-c143 79.161210, 2017/08/11-10:28:36        ">
   <rdf:RDF xmlns:rdf="http://www.w3.org/1999/02/22-rdf-syntax-ns#">
      <rdf:Description rdf:about=""/>
   </rdf:RDF>
</x:xmpmeta>
                                                                                                    
                                                                                                    
                                                                                                    
                                                                                                    
                                                                                                    
                                                                                                    
                                                                                                    
                                                                                                    
                                                                                                    
                                                                                                    
                                                                                                    
                                                                                                    
                                                                                                    
                                                                                                    
                                                                                                    
                                                                                                    
                                                                                                    
                                                                                                    
                                                                                                    
                                                                                                    
                           
<?xpacket end="w"?></metadata>
<style type="text/css">
	.st0{fill:#C7C9C7;}
	.st1{fill:#333F48;}
	.st2{fill:#212322;}
	.st3{fill:none;}
	.st4{fill:#444445;}
	.st5{fill:#DA291C;}
	.st6{fill:#101820;}
	.st7{fill:#B1B3B3;}
	.st8{fill:#FA4616;}
	.st9{fill:#878787;}
	.st10{opacity:0.7;enable-background:new    ;}
	.st11{fill:none;stroke:#000000;stroke-width:2;stroke-miterlimit:10;}
</style>
<g id="Mål_9_">
</g>
<g id="Farger_9_">
	<g id="Grunnfarge_5_">
		<polygon class="st0" points="2.2,301.1 2.2,116.8 2.2,101.5 1588.6,101.5 1588.6,301.3 		"/>
		<path class="st1" d="M1588.9,301.1H2.2v68.2c0,0,93.4,0,98.1,0s6.5,2.5,6.5,2.5v6.2l2.1,2.1h1114c0,0,16.3-9.3,22.3-13.3
			c5.9-4,15-10.6,16-11.1c18.4-9.6,44.9-9.2,44.9-9.2c0-5.8,4-5.3,4-5.3c13.4,0,35.4,0,41.3,0c3.8,0,25.8,0,25.8,0s56.4,0,62,0
			c5.3,0,3.6,6.2,3.6,6.2s22.3,1.3,29.3,2.2c7.6,1,30,13.5,30,13.5s11.7,6.9,16.6,9.9c1,0.6,2.6,1.7,7.8,1.6c18.9-0.3,62.6,0,62.6,0
			v-73.5H1588.9z"/>
		<path class="st2" d="M1531.3,390c0,0-5.4-1.7-6.3-2c-0.9-0.2-1.7-1.5-1.7-1.5l-2.6-12.4l-0.4-0.2c-3.9-2.5-34.1-21.8-46.6-24.3
			c-10.5-2.1-25-2.6-30.9-2.7h-0.1v-3.9c0,0,0.1-2.3-2.1-2.3s-131.2,0-131.2,0s-3.2,0.3-3.2,2.3s0,3,0,3
			c-27.6-0.3-45.7,9.6-45.7,9.6l-32.8,21.3l0,0l0,0l-1.9,9.4c0,0-0.8,1.2-1.7,1.5c-0.9,0.2-6.3,2-6.3,2l-4.3,0.1v11.4h18.2
			c0,0,3.1,0.5,4.4-4.8c0.9-3.8,3.4-17.3,4.7-24.7l4.6-1.8c-1.3,3.7-2,7.7-2,11.9c0,20,16.2,36.2,36.2,36.2
			c12.3,0,23.1-6.1,29.6-15.5h28.3l5.6-3.9c4.3,4.3,7.5,3.7,7.5,3.7s39.4,0,45.8,0s9-3.2,9-3.2l4.2-4.1l0,0c4,4.1,9.6,6.7,15.7,6.7
			c4.4,0,8.6-1.3,12-3.6l0,0c5.9,11.8,18.1,19.9,32.3,19.9c20,0,36.2-16.2,36.2-36.2c0-5-1-9.7-2.9-14l5.2,1.8
			c1.2,6.4,4.1,22.7,5.1,26.9c1.2,5.3,4.4,4.8,4.4,4.8h18.2V390L1531.3,390z"/>
		<path class="st2" d="M0.8,395.6c0,0,22.1,0,31.7,0l11.6,3l10.6-1.2c5.8,12.1,18.1,20.5,32.4,20.5c19.9,0,36-16.1,36-36
			c0-0.6,0-1.2,0-1.9v0.3V380h-14.4l-2.1-2.1v-6.2c-1.4-2.2-5.3-2.5-5.3-2.5h-37l0,0H0.8"/>
		<polygon class="st1" points="349.1,374.5 349.1,384.5 229.8,384.5 229.8,374 		"/>
		<polygon class="st1" points="983.8,374.8 983.8,384.5 1103.1,384.5 1103.1,374.8 		"/>
		<line class="st3" x1="1648.6" y1="102.5" x2="1648.4" y2="301.3"/>
		<line class="st3" x1="1648.6" y1="374.5" x2="1648.6" y2="301.3"/>
		<rect x="1589.2" y="150.5" class="st4" width="59.3" height="218.5"/>
	</g>
	<g id="Profilering_9_">
		<polygon class="st5" points="1.8,148.8 1588.9,148.8 1588.6,188.4 2.2,188.8 		"/>
		<polygon class="st5" points="1136.4,301.1 1102.9,301.1 371.3,301.1 349.5,301.1 1.6,301.1 1.6,339.1 349.5,339.1 371.3,339.1 
			1102.9,339.1 1136.4,339.1 1589.2,339.1 1589.2,301.1 		"/>
		<rect x="2.2" y="188.4" class="st6" width="1586.9" height="112.6"/>
		<g>
			<rect x="1.8" y="310.5" class="st7" width="1587" height="6.7"/>
		</g>
		<g>
			<rect x="2" y="162" class="st7" width="1586.6" height="3.4"/>
		</g>
		<line class="st3" x1="1648.5" y1="148.9" x2="1648.6" y2="188.6"/>
	</g>
	<g id="Dører_og_vinduer_8_">
		<path class="st8" d="M341.2,177.6H238.4c-4.5,0-8.1,3.6-8.1,8.1v170.1c0,4.5,3.6,8.1,8.1,8.1h102.8c4.5,0,8.1-3.6,8.1-8.1V185.8
			C349.3,181.2,345.6,177.6,341.2,177.6z"/>
		<path class="st9" d="M266.5,194.1h-12.3c-4.5,0-8.1,3.6-8.1,8.1v87.2c0,4.5,3.6,8.1,8.1,8.1h12.3c4.5,0,8.1-3.6,8.1-8.1v-87.2
			C274.6,197.8,270.9,194.1,266.5,194.1z"/>
		<path class="st9" d="M325.6,194.1h-12.3c-4.5,0-8.1,3.6-8.1,8.1v87.2c0,4.5,3.6,8.1,8.1,8.1h12.3c4.5,0,8.1-3.6,8.1-8.1v-87.2
			C333.7,197.8,330.1,194.1,325.6,194.1z"/>
		<path class="st8" d="M1094.8,177.6H992.1c-4.5,0-8.1,3.6-8.1,8.1v170.1c0,4.5,3.6,8.1,8.1,8.1h102.8c4.5,0,8.1-3.6,8.1-8.1V185.8
			C1102.9,181.2,1099.3,177.6,1094.8,177.6z"/>
		<path class="st9" d="M1020.1,194.1h-12.3c-4.5,0-8.1,3.6-8.1,8.1v87.2c0,4.5,3.6,8.1,8.1,8.1h12.3c4.5,0,8.1-3.6,8.1-8.1v-87.2
			C1028.2,197.8,1024.6,194.1,1020.1,194.1z"/>
		<path class="st9" d="M1079.3,194.1H1067c-4.5,0-8.1,3.6-8.1,8.1v87.2c0,4.5,3.6,8.1,8.1,8.1h12.3c4.5,0,8.1-3.6,8.1-8.1v-87.2
			C1087.4,197.8,1083.7,194.1,1079.3,194.1z"/>
		<path class="st9" d="M170.7,196.8H67.9c-4.5,0-8.1,3.6-8.1,8.1v56.9c0,4.5,3.6,8.1,8.1,8.1h102.8c4.5,0,8.1-3.6,8.1-8.1v-56.9
			C178.8,200.5,175.2,196.8,170.7,196.8z"/>
		<path class="st9" d="M645,223.9H542.2c-4.5,0-8.1,3.6-8.1,8.1v56.9c0,4.5,3.6,8.1,8.1,8.1H645c4.5,0,8.1-3.6,8.1-8.1V232
			C653.1,227.5,649.4,223.9,645,223.9z"/>
		<path class="st9" d="M791.8,223.9H689c-4.5,0-8.1,3.6-8.1,8.1v56.9c0,4.5,3.6,8.1,8.1,8.1h102.8c4.5,0,8.1-3.6,8.1-8.1V232
			C799.9,227.5,796.3,223.9,791.8,223.9z"/>
		<path class="st9" d="M1266.1,196.8h-102.8c-4.5,0-8.1,3.6-8.1,8.1v56.9c0,4.5,3.6,8.1,8.1,8.1h102.8c4.5,0,8.1-3.6,8.1-8.1v-56.9
			C1274.2,200.5,1270.5,196.8,1266.1,196.8z"/>
		<path class="st9" d="M498.2,197.5H395.4c-4.5,0-8.1,3.6-8.1,8.1v83.8c0,4.5,3.6,8.1,8.1,8.1h102.8c4.5,0,8.1-3.6,8.1-8.1v-83.8
			C506.3,201.1,502.6,197.5,498.2,197.5z"/>
		<path class="st9" d="M938.6,197.5H835.8c-4.5,0-8.1,3.6-8.1,8.1v83.8c0,4.5,3.6,8.1,8.1,8.1h102.8c4.5,0,8.1-3.6,8.1-8.1v-83.8
			C946.7,201.1,943.1,197.5,938.6,197.5z"/>
		<path class="st10" d="M387.3,225.4h119v-19.7c0-4.5-3.6-8.1-8.1-8.1H395.4c-4.5,0-8.1,3.7-8.1,8.1V225.4z"/>
		<path class="st10" d="M827.7,225.4h119v-19.7c0-4.5-3.6-8.1-8.1-8.1H835.9c-4.5,0-8.1,3.7-8.1,8.1v19.7H827.7z"/>
	</g>
</g>
<g id="Omriss_9_">
	<circle class="st11" cx="86.9" cy="382" r="8.8"/>
	<path class="st11" d="M51.4,387.6C54,404.8,68.9,418,86.8,418c19.9,0,36-16.1,36-36c0-0.6,0-1.3,0-1.9"/>
	<path class="st11" d="M115.9,380.1c0,0.6,0.1,1.3,0.1,1.9c0,16.1-13,29.1-29.1,29.1s-29.1-13-29.1-29.1c0-0.7,0-1.4,0.1-2.1"/>
	<polyline class="st11" points="54.5,397.5 43.9,398.8 32.3,395.8 	"/>
	<path class="st11" d="M170.6,196.9H67.8c-4.5,0-8.1,3.6-8.1,8.1v56.9c0,4.5,3.6,8.1,8.1,8.1h102.8c4.5,0,8.1-3.6,8.1-8.1V205
		C178.7,200.6,175,196.9,170.6,196.9z"/>
	<path class="st11" d="M644.8,224H542.1c-4.5,0-8.1,3.6-8.1,8.1V289c0,4.5,3.6,8.1,8.1,8.1h102.8c4.5,0,8.1-3.6,8.1-8.1v-56.9
		C652.9,227.6,649.3,224,644.8,224z"/>
	<path class="st11" d="M791.7,224H688.9c-4.5,0-8.1,3.6-8.1,8.1V289c0,4.5,3.6,8.1,8.1,8.1h102.8c4.5,0,8.1-3.6,8.1-8.1v-56.9
		C799.8,227.6,796.1,224,791.7,224z"/>
	<path class="st11" d="M1265.9,196.9h-102.8c-4.5,0-8.1,3.6-8.1,8.1v56.9c0,4.5,3.6,8.1,8.1,8.1h102.8c4.5,0,8.1-3.6,8.1-8.1V205
		C1274,200.6,1270.4,196.9,1265.9,196.9z"/>
	<path class="st11" d="M498,197.6H395.3c-4.5,0-8.1,3.6-8.1,8.1v83.8c0,4.5,3.6,8.1,8.1,8.1H498c4.5,0,8.1-3.6,8.1-8.1v-83.8
		C506.1,201.2,502.5,197.6,498,197.6z"/>
	<line class="st11" x1="391.5" y1="225.4" x2="501.6" y2="225.4"/>
	<path class="st11" d="M938.5,197.6H835.7c-4.5,0-8.1,3.6-8.1,8.1v83.8c0,4.5,3.6,8.1,8.1,8.1h102.8c4.5,0,8.1-3.6,8.1-8.1v-83.8
		C946.6,201.2,942.9,197.6,938.5,197.6z"/>
	<line class="st11" x1="831.9" y1="225.4" x2="942.1" y2="225.4"/>
	<path class="st11" d="M341,177.8H238.3c-4.5,0-8.1,3.6-8.1,8.1V356c0,4.5,3.6,8.1,8.1,8.1H341c4.5,0,8.1-3.6,8.1-8.1V185.8
		C349.1,181.3,345.5,177.8,341,177.8z"/>
	<path class="st11" d="M266.3,194.2H254c-4.5,0-8.1,3.6-8.1,8.1v87.2c0,4.5,3.6,8.1,8.1,8.1h12.3c4.5,0,8.1-3.6,8.1-8.1v-87.2
		C274.4,197.8,270.8,194.2,266.3,194.2z"/>
	<path class="st11" d="M325.5,194.2h-12.3c-4.5,0-8.1,3.6-8.1,8.1v87.2c0,4.5,3.6,8.1,8.1,8.1h12.3c4.5,0,8.1-3.6,8.1-8.1v-87.2
		C333.6,197.8,329.9,194.2,325.5,194.2z"/>
	<line class="st11" x1="291.3" y1="176.6" x2="291.3" y2="358"/>
	<polyline class="st11" points="236.4,364 236.4,358 342.9,358 342.9,364 	"/>
	<polygon class="st11" points="349,374.5 349,384.6 229.7,384.6 229.7,374.1 	"/>
	<circle class="st11" cx="283.4" cy="284.3" r="2.4"/>
	<path class="st11" d="M1095,177.8H992.2c-4.5,0-8.1,3.6-8.1,8.1V356c0,4.5,3.6,8.1,8.1,8.1H1095c4.5,0,8.1-3.6,8.1-8.1V185.8
		C1103.1,181.3,1099.5,177.8,1095,177.8z"/>
	<path class="st11" d="M1020.3,194.2H1008c-4.5,0-8.1,3.6-8.1,8.1v87.2c0,4.5,3.6,8.1,8.1,8.1h12.3c4.5,0,8.1-3.6,8.1-8.1v-87.2
		C1028.4,197.8,1024.8,194.2,1020.3,194.2z"/>
	<path class="st11" d="M1079.5,194.2h-12.3c-4.5,0-8.1,3.6-8.1,8.1v87.2c0,4.5,3.6,8.1,8.1,8.1h12.3c4.5,0,8.1-3.6,8.1-8.1v-87.2
		C1087.6,197.8,1083.9,194.2,1079.5,194.2z"/>
	<line class="st11" x1="1045.3" y1="176.6" x2="1045.3" y2="358"/>
	<polyline class="st11" points="990.4,364 990.4,358 1096.9,358 1096.9,364 	"/>
	<polygon class="st11" points="983.7,374.8 983.7,384.6 1103,384.6 1103,374.8 	"/>
	<circle class="st11" cx="1037.4" cy="284.3" r="2.4"/>
	<polyline class="st11" points="1.7,148.8 1278.3,148.8 1588.8,148.8 	"/>
	<circle class="st11" cx="1469.2" cy="382.5" r="8.8"/>
	<path class="st11" d="M1436.9,398.6c-3.4,2.3-7.5,3.6-12,3.6c-6.2,0-11.7-2.5-15.7-6.6"/>
	<circle class="st11" cx="1279.3" cy="382.5" r="8.8"/>
	<path class="st11" d="M1442.5,347.4v-3.9c0,0,0.1-2.3-2.1-2.3s-131.2,0-131.2,0s-3.2,0.3-3.2,2.3s0,3,0,3l0,0
		c6.7,0,11.5,4.2,11.5,4.2l18.7,19l6.6,6.4c6,6.1,13,5.7,13,5.7h8.4h19.3c18.9,0.3,21.7-4.3,21.7-4.3s20.3-21.6,25.6-26.2
		c5.3-4.6,9.2-3.9,9.2-3.9s20.2,0,33.6,2.7c13.4,2.7,47,24.6,47,24.6h68.3V102.5H1.7v198.6v68.3h62.2"/>
	<path class="st11" d="M1520.5,374.8l2.6,12.3c0,0,0.8,1.2,1.7,1.5c0.9,0.2,6.3,2,6.3,2l4.3,0.1V402h-18.2c0,0-3.1,0.5-4.4-4.8
		c-1.2-5.3-5.6-29.6-5.6-29.6"/>
	<path class="st11" d="M1241,369.8c-1.1,6.3-4.1,22.9-5.1,27.2c-1.2,5.3-4.4,4.8-4.4,4.8h-18.2v-11.4l4.3-0.1c0,0,5.4-1.7,6.3-2
		s1.7-1.5,1.7-1.5l1.9-9.4"/>
	<path class="st11" d="M1435.6,369.2c-1.6,4.1-2.5,8.5-2.5,13.1c0,5.8,1.4,11.4,3.9,16.3c5.9,11.8,18.1,19.9,32.3,19.9
		c20,0,36.2-16.2,36.2-36.2c0-5.9-1.4-11.5-4-16.4"/>
	<path class="st11" d="M1448.5,362c-2,2-3.6,4.3-5,6.7c-2.2,4.1-3.4,8.8-3.4,13.7c0,4,0.8,7.8,2.2,11.2
		c4.4,10.5,14.8,17.9,26.9,17.9c16.1,0,29.1-13,29.1-29.1c0-7.6-3-14.7-7.8-19.9"/>
	<path class="st11" d="M1246.9,366.5c-2.4,4.8-3.7,10.2-3.7,15.9c0,20,16.2,36.2,36.2,36.2s36.1-16.2,36.1-36.2
		c0-4.5-0.8-8.8-2.3-12.8l0,0"/>
	<path class="st11" d="M1258.5,362.1c-5.2,5.2-8.3,12.4-8.3,20.3c0,16.1,13,29.1,29.1,29.1s29.1-13,29.1-29.1
		c0-8.1-3.3-15.4-8.6-20.7"/>
	<path class="st11" d="M1260.3,356.1c0,0,17.9-9.9,45.5-9.6"/>
	<path class="st11" d="M1511.4,369l-9.9-3.1l0,0l-10.5-3.3c0,0-0.1,0-0.4-0.1c-1.1-0.2-4.6-0.6-9-0.6c-4.6,0-27.2,0-33,0
		c-0.8,0-1.3,0-1.3,0s-3.5-0.1-6.9,2.7c-0.3,0.2-0.5,0.5-0.8,0.7c-0.6,0.6-2,2-3.9,3.9c-8.1,8.1-25.1,25.1-26.3,26.3l-4.3,4.1
		c0,0-2.6,3.2-9,3.2s-45.8,0-45.8,0s-3.2,0.6-7.5-3.7c-3.2-3.2-21-21-29.7-29.6l0,0c-2.9-2.9-4.7-4.8-4.7-4.8s-3.3-3.2-7.2-3.1
		c-0.3,0-0.7,0-1.3,0c-7.2,0-34.8,0-34.8,0s-3.4-0.1-6.5,0.4c-1.2,0.2-2.3,0.4-3.3,0.8c-0.8,0.3-2.5,0.9-4.9,1.6l0.2-0.1l-0.2,0.1
		l-3.5,2l-5.9,3.4l-13.5,7.7l-5.2,3h-5.4h-14.8l-1043.6-0.3h-35.7h-14.5l-2.1-2.1V372c-1.4-2.2-5.3-2.5-5.3-2.5h-37
		c0,0-0.6,0.3-0.6,12.5h-4.5c0-0.1,0-2.3-2.3-2.3s-2.2,2.3-2.2,2.3v5.7h-2.7c0,0-1-0.2-2.9,1.6c-1.8,1.8-5.6,4.7-5.6,4.7
		s-1.5,1.9-7.9,1.9s-34.6,0-34.6,0"/>
	<rect x="1252.6" y="104.8" class="st11" width="90.8" height="39.5"/>
	<g>
		<g>
			<line class="st11" x1="1336.3" y1="104.8" x2="1336.3" y2="144.2"/>
			<line class="st11" x1="1329.4" y1="104.8" x2="1329.4" y2="144.2"/>
			<line class="st11" x1="1322.5" y1="104.8" x2="1322.5" y2="144.2"/>
		</g>
		<g>
			<line class="st11" x1="1315.4" y1="104.8" x2="1315.4" y2="144.2"/>
			<line class="st11" x1="1308.5" y1="104.8" x2="1308.5" y2="144.2"/>
			<line class="st11" x1="1301.6" y1="104.8" x2="1301.6" y2="144.2"/>
		</g>
		<g>
			<line class="st11" x1="1294.5" y1="104.8" x2="1294.5" y2="144.2"/>
			<line class="st11" x1="1287.6" y1="104.8" x2="1287.6" y2="144.2"/>
			<line class="st11" x1="1280.7" y1="104.8" x2="1280.7" y2="144.2"/>
		</g>
		<g>
			<line class="st11" x1="1273.6" y1="104.8" x2="1273.6" y2="144.2"/>
			<line class="st11" x1="1266.7" y1="104.8" x2="1266.7" y2="144.2"/>
			<line class="st11" x1="1259.8" y1="104.8" x2="1259.8" y2="144.2"/>
		</g>
	</g>
	<rect x="848.7" y="104.3" class="st11" width="52.7" height="39.5"/>
	<g>
		<g>
			<line class="st11" x1="896" y1="104.3" x2="896" y2="143.8"/>
			<line class="st11" x1="889.1" y1="104.3" x2="889.1" y2="143.8"/>
			<line class="st11" x1="882.2" y1="104.3" x2="882.2" y2="143.8"/>
		</g>
		<g>
			<line class="st11" x1="875.1" y1="104.3" x2="875.1" y2="143.8"/>
			<line class="st11" x1="868.2" y1="104.3" x2="868.2" y2="143.8"/>
			<line class="st11" x1="861.3" y1="104.3" x2="861.3" y2="143.8"/>
		</g>
		<g>
			<line class="st11" x1="854.2" y1="104.3" x2="854.2" y2="143.8"/>
		</g>
	</g>
	<rect x="724.6" y="104.3" class="st11" width="52.7" height="39.5"/>
	<g>
		<g>
			<line class="st11" x1="771.9" y1="104.3" x2="771.9" y2="143.8"/>
			<line class="st11" x1="765" y1="104.3" x2="765" y2="143.8"/>
			<line class="st11" x1="758.1" y1="104.3" x2="758.1" y2="143.8"/>
		</g>
		<g>
			<line class="st11" x1="751" y1="104.3" x2="751" y2="143.8"/>
			<line class="st11" x1="744.1" y1="104.3" x2="744.1" y2="143.8"/>
			<line class="st11" x1="737.2" y1="104.3" x2="737.2" y2="143.8"/>
		</g>
		<g>
			<line class="st11" x1="730.1" y1="104.3" x2="730.1" y2="143.8"/>
		</g>
	</g>
	<rect x="367.6" y="104.3" class="st11" width="90.8" height="39.5"/>
	<g>
		<g>
			<line class="st11" x1="451.3" y1="104.3" x2="451.3" y2="143.8"/>
			<line class="st11" x1="444.4" y1="104.3" x2="444.4" y2="143.8"/>
			<line class="st11" x1="437.5" y1="104.3" x2="437.5" y2="143.8"/>
		</g>
		<g>
			<line class="st11" x1="430.4" y1="104.3" x2="430.4" y2="143.8"/>
			<line class="st11" x1="423.5" y1="104.3" x2="423.5" y2="143.8"/>
			<line class="st11" x1="416.6" y1="104.3" x2="416.6" y2="143.8"/>
		</g>
		<g>
			<line class="st11" x1="409.5" y1="104.3" x2="409.5" y2="143.8"/>
			<line class="st11" x1="402.6" y1="104.3" x2="402.6" y2="143.8"/>
			<line class="st11" x1="395.7" y1="104.3" x2="395.7" y2="143.8"/>
		</g>
		<g>
			<line class="st11" x1="388.6" y1="104.3" x2="388.6" y2="143.8"/>
			<line class="st11" x1="381.7" y1="104.3" x2="381.7" y2="143.8"/>
			<line class="st11" x1="374.8" y1="104.3" x2="374.8" y2="143.8"/>
		</g>
	</g>
	<polyline class="st11" points="1342.8,399.2 1337.3,403.1 1308.8,403.1 	"/>
	<polyline class="st11" points="1648.4,374.6 1648.4,300.6 1648.4,101.9 	"/>
	<line class="st11" x1="1619.1" y1="153.8" x2="1619.1" y2="368.6"/>
	<line class="st11" x1="1613.2" y1="153.8" x2="1613.2" y2="368.6"/>
	<line class="st11" x1="1607.2" y1="153.8" x2="1607.2" y2="368.6"/>
	<line class="st11" x1="1601.3" y1="153.8" x2="1601.3" y2="368.6"/>
	<line class="st11" x1="1595.4" y1="153.8" x2="1595.4" y2="368.6"/>
	<line class="st11" x1="1625" y1="153.8" x2="1625" y2="368.6"/>
	<line class="st11" x1="1631" y1="153.8" x2="1631" y2="368.6"/>
	<line class="st11" x1="1636.9" y1="153.8" x2="1636.9" y2="368.6"/>
	<line class="st11" x1="1642.8" y1="153.8" x2="1642.8" y2="368.6"/>
	<path class="st11" d="M1607.7,118.3L1607.7,118.3c0.2-0.5,0-1.1-0.5-1.4c-0.5-0.2-1.1,0-1.4,0.5l0,0l-4.1,9.1l0,0
		c-0.2,0.5,0,1.1,0.5,1.4c0.5,0.2,1.1,0,1.4-0.5l0,0L1607.7,118.3z"/>
	<path class="st11" d="M1605.8,118.3L1605.8,118.3c-0.2-0.5,0-1.1,0.5-1.4c0.5-0.2,1.1,0,1.4,0.5l0,0l4.1,9.1l0,0
		c0.2,0.5,0,1.1-0.5,1.4c-0.5,0.2-1.1,0-1.4-0.5l0,0L1605.8,118.3z"/>
	<path class="st11" d="M1616,118.3L1616,118.3c0.2-0.5,0-1.1-0.5-1.4c-0.5-0.2-1.1,0-1.4,0.5l0,0l-4.1,9.1l0,0
		c-0.2,0.5,0,1.1,0.5,1.4c0.5,0.2,1.1,0,1.4-0.5l0,0L1616,118.3z"/>
	<path class="st11" d="M1614.1,118.3L1614.1,118.3c-0.2-0.5,0-1.1,0.5-1.4c0.5-0.2,1.1,0,1.4,0.5l0,0l4.1,9.1l0,0
		c0.2,0.5,0,1.1-0.5,1.4c-0.5,0.2-1.1,0-1.4-0.5l0,0L1614.1,118.3z"/>
	<path class="st11" d="M1624.3,118.3L1624.3,118.3c0.2-0.5,0-1.1-0.5-1.4c-0.5-0.2-1.1,0-1.4,0.5l0,0l-4.1,9.1l0,0
		c-0.2,0.5,0,1.1,0.5,1.4c0.5,0.2,1.1,0,1.4-0.5l0,0L1624.3,118.3z"/>
	<path class="st11" d="M1622.4,118.3L1622.4,118.3c-0.2-0.5,0-1.1,0.5-1.4c0.5-0.2,1.1,0,1.4,0.5l0,0l4.1,9.1l0,0
		c0.2,0.5,0,1.1-0.5,1.4c-0.5,0.2-1.1,0-1.4-0.5l0,0L1622.4,118.3z"/>
	<path class="st11" d="M1632.5,118.3C1632.6,118.3,1632.6,118.3,1632.5,118.3c0.2-0.5,0-1.1-0.5-1.4c-0.5-0.2-1.1,0-1.4,0.5l0,0
		l-4.1,9.1l0,0c-0.2,0.5,0,1.1,0.5,1.4c0.5,0.2,1.1,0,1.4-0.5l0,0L1632.5,118.3z"/>
	<path class="st11" d="M1630.7,118.3L1630.7,118.3c-0.2-0.5,0-1.1,0.5-1.4c0.5-0.2,1.1,0,1.4,0.5l0,0l4.1,9.1l0,0
		c0.2,0.5,0,1.1-0.5,1.4c-0.5,0.2-1.1,0-1.4-0.5l0,0L1630.7,118.3z"/>
	<path class="st11" d="M1640.8,118.3L1640.8,118.3c0.2-0.5,0-1.1-0.5-1.4c-0.5-0.2-1.1,0-1.4,0.5l0,0l-4.1,9.1l0,0
		c-0.2,0.5,0,1.1,0.5,1.4c0.5,0.2,1.1,0,1.4-0.5l0,0L1640.8,118.3z"/>
	<path class="st11" d="M1597.7,118.3L1597.7,118.3c-0.2-0.5,0-1.1,0.5-1.4c0.5-0.2,1.1,0,1.4,0.5l0,0l4.1,9.1l0,0
		c0.2,0.5,0,1.1-0.5,1.4c-0.5,0.2-1.1,0-1.4-0.5l0,0L1597.7,118.3z"/>
	<path class="st11" d="M1649.4,119.3c0-2.6-2.1-4.8-4.8-4.8c-1.9,0-3.5,1.1-4.3,2.7l-0.6,1.3"/>
	<path class="st11" d="M1589.3,119.3c0-2.6,2.1-4.8,4.8-4.8c1.9,0,3.5,1.1,4.3,2.7l0.6,1.3"/>
	<line class="st11" x1="1589" y1="369.2" x2="1650.1" y2="369.2"/>
</g>
</svg>
