<?xml version="1.0" encoding="utf-8"?>
<!-- Generator: Adobe Illustrator 22.0.1, SVG Export Plug-In . SVG Version: 6.00 Build 0)  -->
<svg version="1.1" id="Type_73_A" xmlns="http://www.w3.org/2000/svg" xmlns:xlink="http://www.w3.org/1999/xlink" x="0px" y="0px"
	 viewBox="0 0 2096 424" style="enable-background:new 0 0 2096 424;" xml:space="preserve">
<metadata><?xpacket begin="﻿" id="W5M0MpCehiHzreSzNTczkc9d"?>
<x:xmpmeta xmlns:x="adobe:ns:meta/" x:xmptk="Adobe XMP Core 5.6-c143 79.161210, 2017/08/11-10:28:36        ">
   <rdf:RDF xmlns:rdf="http://www.w3.org/1999/02/22-rdf-syntax-ns#">
      <rdf:Description rdf:about=""/>
   </rdf:RDF>
</x:xmpmeta>
                                                                                                    
                                                                                                    
                                                                                                    
                                                                                                    
                                                                                                    
                                                                                                    
                                                                                                    
                                                                                                    
                                                                                                    
                                                                                                    
                                                                                                    
                                                                                                    
                                                                                                    
                                                                                                    
                                                                                                    
                                                                                                    
                                                                                                    
                                                                                                    
                                                                                                    
                                                                                                    
                           
<?xpacket end="w"?></metadata>
<style type="text/css">
	.st0{fill:#C7C9C7;}
	.st1{fill:#212322;}
	.st2{fill:#444445;}
	.st3{fill:#333F48;}
	.st4{fill:#DA291C;}
	.st5{fill:#101820;}
	.st6{fill:#B1B3B3;}
	.st7{fill:#58595B;}
	.st8{fill:#878787;}
	.st9{fill:#FA4616;}
	.st10{fill:none;stroke:#000000;stroke-width:2;stroke-miterlimit:10;}
	.st11{fill:none;stroke:#000000;stroke-width:2;stroke-linecap:round;stroke-linejoin:round;stroke-miterlimit:10;}
</style>
<g id="Mål_7_">
</g>
<g>
	<g id="Farger_7_">
		<g id="Grunnfarge_3_">
			<path class="st0" d="M2072.2,350.5h-87.9h-416.4l-29.1,55.3H438.1l-33-61.3h-223l-29.7,57.9H50.8v-256h1838.3
				c0,0,11.2-0.8,20.5,5s140.6,101.1,140.6,101.1s9.3,6.8,13.4,23.4c4.1,16.6,12.5,51.3,12.5,51.3S2078.8,340.7,2072.2,350.5z"/>
			<path class="st1" d="M1608.5,350.2c-10.7,0-23.3,10.6-23.3,10.6l-16.1-0.5c0,0-3.2,1.1-3.2,4.4s1.5,4.7,4.7,4.7s3.3-1.2,3.3-1.2
				l3.2,0.5c0,0-8,11.2-5.5,24.5s13.7,29.6,32.8,29.6s32.5-13.8,34.6-26.5s-0.6-18.6-0.6-18.6s5.3,1,8,4.1c2.6,3,12.9,15,12.9,15
				s2.4,2.1,7.2,2.1c4.8,0,80.3,0,80.3,0s2.9-0.1,6.6-4.4c3.7-4.3,12.1-13.8,12.1-13.8s2.7-1.8,4.8-2.4c2.1-0.5,3.2-0.8,3.2-0.8
				s-6.3,16.2,4,30.2s27.4,18.3,37.2,14.1s23.9-8.8,25.6-33.2c0,0-0.2-7.6-5.3-18.3c0,0,6.9,0.3,8.5-1.4c1.6-1.7,3.8-6.2,0.7-7.4
				c-3.2-1.2-18-0.6-18-0.6s-17.5-10.5-27.5-10.5C1788.8,350.2,1619.2,350.2,1608.5,350.2z"/>
			<path class="st1" d="M405.2,344.1c0,0,7.9,14.3,10.2,17.4c2.3,3.1,15.1,29.6,15.1,29.6s-1.4,22.2-20.3,29.7
				c-19,7.5-33.1,0.5-42.9-12.1c-9.9-12.6-3.6-30.1-3.6-30.1s-5.8,1.1-7.6,3.2c-1.8,2.1-13.3,15.4-13.3,15.4s-2.3,2.8-3.7,2.8
				c-0.6,0-1.1,4.7,0.9,7c1.5,1.7,5.6,0.9,5.5,2.7c-0.2,3-3.1,3.1-6.9,3.1c-4.9,0-35.6,0.2-41.1,0.2c-6.7,0-35.2,0-41.5,0
				c-3.4,0-7.6-1.9-6.5-3.8c0.7-1.2,6.3-2.2,6.5-3.5c0.8-5.9-1.4-5.7-1.4-5.7s-2,0.9-7.4-5.3s-10.4-11.9-10.4-11.9s-2.7-2.6-5.9-3.4
				c-3.1-0.8-3.1-0.8-3.1-0.8s6.1,15-3.1,28.8c-9.2,13.8-23.5,20.2-41.6,14.3c-18-5.8-22.1-22.9-22-32.1c0.1-8.4,21-45.4,21-45.4
				L405.2,344.1z"/>
			<path class="st2" d="M1857.8,350.4l214.4,0.1c0,0-9.5,14.2-16.3,16.7s-7.4,13.2,0.8,21.4s15.6,15.1,15.6,15.1h-159.2
				L1857.8,350.4"/>
			<polygon class="st3" points="408,349.9 405.1,344.5 182.1,344.5 179.1,350.3 50.8,350.5 50.8,402.4 152.4,402.4 182.1,344.5 
				405.1,344.5 438.1,405.8 1538.8,405.8 1567.9,350.5 			"/>
			<polygon class="st1" points="2076.2,340.8 2090.5,336.5 2089.8,355.8 2072.6,349.7 			"/>
			<polygon class="st2" points="1.6,177.8 8.3,170.1 14.7,177.9 20.4,170.7 26.3,177.8 32.5,170.7 38.4,177.8 44.4,170.2 
				50.9,177.9 50.8,369.8 44.7,377.1 38.7,370.2 32.6,377.8 26.4,370.2 20.5,377.8 14.3,370.2 8.3,377.7 1.6,370.2 			"/>
		</g>
		<g id="Profilering_7_">
			<polygon class="st4" points="1984.3,350.5 1838.6,197.3 1225,197.3 50.8,197.3 50.8,344.9 50.8,350.3 179.1,350.3 182.1,344.5 
				405.2,344.5 408,350.3 1969,350.5 			"/>
			<polygon class="st5" points="84.3,216.9 50.9,216.9 50.9,291.9 1928.6,291.9 1857.3,216.9 			"/>
			<g>
				<polygon class="st6" points="1963.9,329 50.9,329 50.9,322.3 1957.5,322.3 				"/>
			</g>
			<g>
				<polygon class="st6" points="1970.5,336 1924.5,336 1924,335.4 1804.6,210.3 50.8,210.3 50.8,206.9 1806,206.9 1926,332.6 
					1967.3,332.6 				"/>
			</g>
		</g>
		<g id="Dører_og_vinduer_6_">
			<rect x="1152.5" y="220.8" class="st7" width="103.9" height="65.5"/>
			<path class="st4" d="M1475.8,365.8h-97.3h-2.2c-2.4,0-4.3-1.9-4.3-4.3V203.6c0-2.4,1.9-4.3,4.3-4.3h102.4c2.4,0,4.3,1.9,4.3,4.3
				v157.9c0,2.4-1.9,4.3-4.3,4.3H1475.8z"/>
			<path class="st8" d="M1161.7,279.9h85.4c2.4,0,4.3-1.9,4.3-4.3v-45.4c0-2.4-1.9-4.3-4.3-4.3h-85.4c-2.4,0-4.3,1.9-4.3,4.3v45.4
				C1157.4,278,1159.4,279.9,1161.7,279.9z"/>
			<rect x="1564.1" y="220" class="st7" width="56.6" height="66.5"/>
			<rect x="1018.9" y="220.8" class="st7" width="103.9" height="65.5"/>
			<path class="st8" d="M1028.2,279.6h85.4c2.4,0,4.3-1.9,4.3-4.3v-45.4c0-2.4-1.9-4.3-4.3-4.3h-85.4c-2.4,0-4.3,1.9-4.3,4.3v45.4
				C1023.9,277.7,1025.8,279.6,1028.2,279.6z"/>
			<rect x="878.4" y="220.8" class="st7" width="103.9" height="65.5"/>
			<path class="st8" d="M888.3,279.6h85.4c2.4,0,4.3-1.9,4.3-4.3v-45.4c0-2.4-1.9-4.3-4.3-4.3h-85.4c-2.4,0-4.3,1.9-4.3,4.3v45.4
				C884,277.7,885.9,279.6,888.3,279.6z"/>
			<rect x="744.1" y="220.8" class="st7" width="103.9" height="65.5"/>
			<path class="st8" d="M753.4,279.6h85.4c2.4,0,4.3-1.9,4.3-4.3v-45.4c0-2.4-1.9-4.3-4.3-4.3h-85.4c-2.4,0-4.3,1.9-4.3,4.3v45.4
				C749.2,277.7,751.1,279.6,753.4,279.6z"/>
			<rect x="113.6" y="219.3" class="st7" width="56.3" height="65.5"/>
			<path class="st8" d="M122.5,278.7H161c2.4,0,4.3-1.9,4.3-4.3V229c0-2.4-1.9-4.3-4.3-4.3h-38.5c-2.4,0-4.3,1.9-4.3,4.3v45.4
				C118.2,276.8,120.1,278.7,122.5,278.7z"/>
			<rect x="198.4" y="220.8" class="st7" width="103.9" height="65.5"/>
			<path class="st8" d="M207.6,279.6H293c2.4,0,4.3-1.9,4.3-4.3v-45.4c0-2.4-1.9-4.3-4.3-4.3h-85.4c-2.4,0-4.3,1.9-4.3,4.3v45.4
				C203.4,277.7,205.3,279.6,207.6,279.6z"/>
			<rect x="596.2" y="221.6" class="st8" width="23.5" height="64.7"/>
			<path class="st8" d="M606.3,282.5h2.5c3.7,0,6.8-3,6.8-6.8v-43.6c0-3.7-3-6.8-6.8-6.8h-2.5c-3.7,0-6.8,3-6.8,6.8v43.6
				C599.6,279.4,602.6,282.5,606.3,282.5z"/>
			<path class="st9" d="M523.1,365.5v25.3h97.3v-25.3h2.2c2.4,0,4.3-1.9,4.3-4.3V203.3c0-2.4-1.9-4.3-4.3-4.3H520.2
				c-2.4,0-4.3,1.9-4.3,4.3v157.9c0,2.4,1.9,4.3,4.3,4.3L523.1,365.5L523.1,365.5z"/>
			<rect x="532.9" y="221" class="st8" width="86.9" height="64.6"/>
			<path class="st4" d="M1672.7,339h67.6c0,0,10.3-2.5,10.3-11.7V208.6c0-11.2-10.9-11.9-12.8-11.9h-65c-3.7,0-11.7,2.6-11.7,11.7
				v120.5C1661.1,336.3,1672.7,339,1672.7,339z"/>
			<rect x="1677.7" y="220.4" class="st8" width="65.1" height="64.2"/>
			<rect x="1379.8" y="220.2" class="st8" width="93.3" height="64.2"/>
			<path class="st8" d="M1806.7,285.6h34.6c2.5,0,4.6-2,4.6-4.6v-56.5c0-2.5-2-4.6-4.6-4.6h-34.6c-2.5,0-4.6,2-4.6,4.6V281
				C1802.1,283.6,1804.1,285.6,1806.7,285.6z"/>
			<path class="st8" d="M1573.1,279.6h38.1c2.4,0,4.6-1.9,4.6-4.3v-45.4c0-2.4-1.9-4.3-4.3-4.3h-38.4c-2.4,0-4.3,1.9-4.3,4.3v45.4
				C1568.9,277.7,1570.8,279.6,1573.1,279.6z"/>
			<path class="st7" d="M1379.8,220.9V212c0-3.6,2.9-6.6,6.6-6.6h80.2c3.6,0,6.6,2.9,6.6,6.6v8.9H1379.8z"/>
			<path class="st7" d="M1379.8,284.8v8.9c0,3.6,2.9,6.6,6.6,6.6h80.2c3.6,0,6.6-2.9,6.6-6.6v-8.9H1379.8z"/>
			<path class="st8" d="M1973.2,196.7l-9.7,13.3c0,0-4.3,4-10.9,1.5s-46.1-18.4-46.1-18.4s-7.9-4.9-3.2-11.2
				c4.6-6.4,17.1-23.5,17.1-23.5L1973.2,196.7z"/>
		</g>
	</g>
	<g id="Omriss_7_">
		<path class="st10" d="M1858.4,145.6h33.6c0,0,8.8-2.2,29.6,12.9c20.8,15.1,128.6,93.5,128.6,93.5s10.5,9.2,12.5,19
			c1.9,9.8,12.7,50.3,12.7,50.3s4,19-3.1,28.7h-505.1l-28.3,55.3H438.2l-33.1-61.2h-223L152.4,402H50.9V145.9L1858.4,145.6z"/>
		<path class="st10" d="M2072,308.4c0,0-7.2-28-44.9-49.1c-37.8-21-99.9-58.5-143.7-67.3c-43.8-8.8-97.2-24.6-105.1-34
			s-6.6-12.4-6.6-12.4"/>
		<path class="st10" d="M1834.3,180.2c0,0-78.7-12.1-121.2-12.1S51,168.1,51,168.1"/>
		<path class="st10" d="M1974.5,197.9l-9.7,12.4c0,0-3.2,4.8-13.7,0.5c-10.6-4.3-43.3-17.5-43.3-17.5s-8-4.7-3.2-11.2
			c4.7-6.5,17.1-23.5,17.1-23.5"/>
		<path class="st10" d="M1806.7,285.5h34.6c2.5,0,4.6-2,4.6-4.6v-56.4c0-2.5-2-4.6-4.6-4.6h-34.6c-2.5,0-4.6,2-4.6,4.6V281
			C1802.1,283.5,1804.1,285.5,1806.7,285.5z"/>
		<path class="st10" d="M1838.7,360.7h-0.6h-12h-13.2h-14.5h-13.2H1770c-1.8,0-3.5,0.6-4.9,1.8l-10.8,8.9c-1.4,1.2-3.1,1.8-4.9,1.8
			h-87.6c-1.8,0-3.5-0.6-4.8-1.7l-8.2-6.6l-3.2-2.5c-1.4-1.1-3.1-1.7-4.8-1.7h-15.4h-13.6h-13.2H1585h-12.5h-0.1"/>
		<path class="st10" d="M1838.9,368.5h-0.7l-4.3,0.3l-7.1,0.4l-32.5,2c-0.5,0-0.9,0.1-1.3,0.3l-12.8,3.7l-7.2,2.1l-4.4,1.2
			c-1.1,0.3-2.1,1-2.9,1.8l-13.7,16.2c-1.2,1.3-2.9,2.1-4.6,2.1h-82.9c-1.8,0-3.5-0.7-4.6-2.1l-14.1-16.1c-0.8-0.9-1.9-1.6-3.1-1.9
			l-5-1.3l-7.1-1.8l-12.8-3.3c-0.4-0.1-0.8-0.2-1.1-0.2l-33.4-1.9l-6.9-0.4l-5.9-0.3"/>
		<circle class="st10" cx="1805.7" cy="388.2" r="7.6"/>
		<path class="st10" d="M1812.9,360.7c-2.3-0.6-4.7-0.9-7.2-0.9s-4.9,0.3-7.2,0.9"/>
		<path class="st10" d="M1780.3,375.2c-2,3.9-3.2,8.3-3.2,13c0,15.7,12.8,28.5,28.5,28.5c15.8,0,28.5-12.8,28.5-28.5
			c0-7.3-2.8-14-7.2-19"/>
		<path class="st10" d="M1812.9,360.7h13.2c-5.7-4.3-12.8-6.8-20.4-6.8s-14.7,2.5-20.4,6.8"/>
		<path class="st10" d="M1773.2,377.3c-1.2,3.4-1.8,7.1-1.8,10.9c0,19,15.4,34.3,34.3,34.3c19,0,34.3-15.4,34.3-34.3
			c0-7.2-2.2-13.9-6-19.4l-7.1,0.4"/>
		<circle class="st10" cx="1605.1" cy="388.2" r="7.6"/>
		<path class="st10" d="M1583.3,369.9c-4.1,4.9-6.6,11.3-6.6,18.3c0,15.7,12.7,28.5,28.5,28.5c15.7,0,28.5-12.8,28.5-28.5
			c0-4.6-1.1-9-3.1-12.9"/>
		<path class="st10" d="M1611.8,360.5c-2.1-0.5-4.3-0.8-6.6-0.8c-2.3,0-4.5,0.3-6.6,0.8"/>
		<path class="st10" d="M1625.4,360.5c-5.7-4.2-12.6-6.6-20.2-6.6s-14.6,2.5-20.2,6.6"/>
		<path class="st10" d="M1576.3,369.5c-3.5,5.4-5.5,11.8-5.5,18.7c0,19,15.4,34.3,34.3,34.3c19,0,34.3-15.4,34.3-34.3
			c0-3.9-0.6-7.6-1.8-11"/>
		<circle class="st10" cx="1570" cy="364.5" r="4.7"/>
		<path class="st10" d="M1836,364.5c0,1.7,0.9,3.2,2.3,4c0.7,0.4,1.5,0.7,2.4,0.7c2.6,0,4.7-2.1,4.7-4.7s-2.1-4.7-4.7-4.7
			c-1,0-1.9,0.3-2.6,0.8C1836.8,361.5,1836,362.9,1836,364.5z"/>
		<path class="st10" d="M2072.3,350c0,0-1.5,5.3-8.7,10.9s-9.2,7.1-9.2,7.1l-141.2,36.1l-55.3-54.1"/>
		<path class="st10" d="M2054.4,368c0,0-7.8,7.9-1.8,15.4c6.1,7.5,19.8,19.8,19.8,19.8l-159.2,0.9"/>
		<polyline class="st10" points="1754.1,350 1754.2,357.3 1749.4,373.1 		"/>
		<path class="st10" d="M1653.5,350c0,0-4.8,3.4-4.8,8s0,7,0,7"/>
		<path class="st10" d="M416,362.1h-1.2h-12h-14.5h-13.2h-7.5c-1.8,0-3.5,0.6-4.9,1.8l-18.5,8.9c-1.4,1.2-3.1,1.8-4.9,1.8h-87.6
			c-1.8,0-3.5-0.6-4.8-1.7l-19.8-9.1c-1.4-1.1-3.1-1.7-4.8-1.7h-6.9h-13.6h-13.2H175h-2"/>
		<path class="st10" d="M419.4,370.5l-2.5,0.1l-32.5,2c-0.5,0-0.9,0.1-1.3,0.3l-12.8,3.7l-7.2,2.1l-4.4,1.2c-1.1,0.3-2.1,1-2.9,1.8
			l-13.9,16.1c-1.2,1.3-2.9,2.1-4.6,2.1h-82.9c-1.8,0-3.5-0.7-4.6-2.1l-14.1-16.1c-0.8-0.9-1.9-1.6-3.1-1.9l-5-1.3l-7.1-1.8
			l-12.8-3.3c-0.4-0.1-0.8-0.2-1.1-0.2l-33.4-1.9l-4.9-0.3"/>
		<circle class="st10" cx="395.6" cy="389.6" r="7.6"/>
		<path class="st10" d="M402.8,362.1c-2.3-0.6-4.7-0.9-7.2-0.9s-4.9,0.3-7.2,0.9"/>
		<path class="st10" d="M370.3,376.7c-2,3.9-3.2,8.3-3.2,13c0,15.7,12.8,28.5,28.5,28.5c15.8,0,28.5-12.8,28.5-28.5
			c0-7.3-2.8-14-7.2-19"/>
		<path class="st10" d="M402.8,362.1H416c-5.7-4.3-12.8-6.8-20.4-6.8s-14.7,2.5-20.4,6.8"/>
		<line class="st10" x1="416.9" y1="370.7" x2="419.4" y2="370.5"/>
		<path class="st10" d="M363.1,378.8c-1.2,3.4-1.8,7.1-1.8,10.9c0,19,15.4,34.3,34.3,34.3c18.8,0,34.1-15.2,34.3-33.9"/>
		<circle class="st10" cx="195.1" cy="389.6" r="7.6"/>
		<path class="st10" d="M173.2,371.4c-4.1,4.9-6.6,11.3-6.6,18.3c0,15.7,12.7,28.5,28.5,28.5c15.7,0,28.5-12.8,28.5-28.5
			c0-4.6-1.1-9-3.1-12.9"/>
		<path class="st10" d="M201.7,361.9c-2.1-0.5-4.3-0.8-6.6-0.8s-4.5,0.3-6.6,0.8"/>
		<path class="st10" d="M215.3,361.9c-5.7-4.2-12.6-6.6-20.2-6.6c-7.6,0-14.6,2.5-20.2,6.6"/>
		<path class="st10" d="M161,385.2c-0.2,1.5-0.3,3-0.3,4.5c0,19,15.4,34.3,34.3,34.3c19,0,34.3-15.4,34.3-34.3c0-3.9-0.6-7.6-1.8-11
			"/>
		<polyline class="st10" points="345,344.5 345,356.5 327,356.5 316.9,350.3 273.7,350.3 262.9,356.2 		"/>
		<polyline class="st10" points="349.9,369.4 349.9,353.6 345,344.5 		"/>
		<polyline class="st10" points="250,373.2 250,369.3 265.4,369.3 262.9,356.2 246.3,356.2 246.3,344.1 		"/>
		<line class="st10" x1="332.8" y1="356.5" x2="342.7" y2="373.7"/>
		<polyline class="st10" points="1745.9,350 1746.3,361.1 1730,354.5 1681,354.5 1663.7,359.3 1663.7,350 		"/>
		<rect x="1152.6" y="220.4" class="st10" width="103.9" height="65.5"/>
		<path class="st10" d="M1161.8,279.9h85.4c2.4,0,4.3-1.9,4.3-4.3v-45.4c0-2.4-1.9-4.3-4.3-4.3h-85.4c-2.4,0-4.3,1.9-4.3,4.3v45.4
			C1157.5,278,1159.4,279.9,1161.8,279.9z"/>
		<rect x="1564.1" y="220.4" class="st10" width="56.5" height="65.5"/>
		<path class="st10" d="M1573.3,279.9h38c2.4,0,4.3-1.9,4.3-4.3v-45.4c0-2.4-1.9-4.3-4.3-4.3h-38c-2.4,0-4.3,1.9-4.3,4.3v45.4
			C1569.1,278,1571,279.9,1573.3,279.9z"/>
		<rect x="1018.9" y="220.4" class="st10" width="103.9" height="65.5"/>
		<path class="st10" d="M1028.2,279.9h85.4c2.4,0,4.3-1.9,4.3-4.3v-45.4c0-2.4-1.9-4.3-4.3-4.3h-85.4c-2.4,0-4.3,1.9-4.3,4.3v45.4
			C1023.9,278,1025.8,279.9,1028.2,279.9z"/>
		<rect x="878.4" y="220.4" class="st10" width="103.9" height="65.5"/>
		<path class="st10" d="M887.7,279.9h85.4c2.4,0,4.3-1.9,4.3-4.3v-45.4c0-2.4-1.9-4.3-4.3-4.3h-85.4c-2.4,0-4.3,1.9-4.3,4.3v45.4
			C883.4,278,885.3,279.9,887.7,279.9z"/>
		<rect x="744.2" y="220.4" class="st10" width="103.9" height="65.5"/>
		<path class="st10" d="M753.4,279.9h85.4c2.4,0,4.3-1.9,4.3-4.3v-45.4c0-2.4-1.9-4.3-4.3-4.3h-85.4c-2.4,0-4.3,1.9-4.3,4.3v45.4
			C749.2,278,751.1,279.9,753.4,279.9z"/>
		<rect x="198.4" y="220.4" class="st10" width="103.9" height="65.5"/>
		<path class="st10" d="M207.7,279.9h85.4c2.4,0,4.3-1.9,4.3-4.3v-45.4c0-2.4-1.9-4.3-4.3-4.3h-85.4c-2.4,0-4.3,1.9-4.3,4.3v45.4
			C203.4,278,205.3,279.9,207.7,279.9z"/>
		<rect x="596.3" y="221.1" class="st10" width="23.5" height="64.7"/>
		<path class="st10" d="M606.4,282h2.5c3.7,0,6.8-3,6.8-6.8v-43.6c0-3.7-3-6.8-6.8-6.8h-2.5c-3.7,0-6.8,3-6.8,6.8v43.6
			C599.6,279,602.7,282,606.4,282z"/>
		<path class="st10" d="M523.2,365.1v25.3h97.3v-25.3h2.2c2.4,0,4.3-1.9,4.3-4.3V202.9c0-2.4-1.9-4.3-4.3-4.3H520.2
			c-2.4,0-4.3,1.9-4.3,4.3v157.9c0,2.4,1.9,4.3,4.3,4.3L523.2,365.1L523.2,365.1z"/>
		<rect x="532.9" y="221.3" class="st10" width="63.5" height="64.6"/>
		<path class="st10" d="M1378.8,365.2v25.3h97.3v-25.3h2.2c2.4,0,4.3-1.9,4.3-4.3V203c0-2.4-1.9-4.3-4.3-4.3h-102.4
			c-2.4,0-4.3,1.9-4.3,4.3v157.9c0,2.4,1.9,4.3,4.3,4.3L1378.8,365.2L1378.8,365.2z"/>
		<rect x="1379.8" y="220.5" class="st10" width="93.4" height="64.2"/>
		<path class="st10" d="M1379.9,220.5v-8.9c0-3.6,2.9-6.6,6.6-6.6h80.2c3.6,0,6.6,2.9,6.6,6.6v8.9"/>
		<path class="st10" d="M1379.9,284.4v8.9c0,3.6,2.9,6.6,6.6,6.6h80.2c3.6,0,6.6-2.9,6.6-6.6v-8.9"/>
		<line class="st10" x1="1378.8" y1="365.2" x2="1476.1" y2="365.2"/>
		<line class="st10" x1="523.2" y1="365.1" x2="621.1" y2="365.1"/>
		<rect x="113.4" y="219.2" class="st10" width="56.5" height="65.5"/>
		<path class="st10" d="M122.7,278.7h38c2.4,0,4.3-1.9,4.3-4.3V229c0-2.4-1.9-4.3-4.3-4.3h-38c-2.4,0-4.3,1.9-4.3,4.3v45.4
			C118.4,276.8,120.4,278.7,122.7,278.7z"/>
		<path class="st10" d="M1739,338.4h-66.2c-6.5,0-11.7-5.2-11.7-11.7v-119c0-6.5,5.2-11.7,11.7-11.7h66.2c6.5,0,11.7,5.2,11.7,11.7
			v119C1750.7,333.2,1745.4,338.4,1739,338.4z"/>
		<rect x="1677.7" y="219.4" class="st10" width="65.1" height="65.1"/>
		<polyline class="st10" points="2076.1,340.9 2089,336.5 2089,335.1 2090.5,335.1 2090.5,357.3 2089,357.3 2089,355.8 
			2072.4,350.3 2071.4,349.9 2071.4,349.8 		"/>
		<line class="st10" x1="14.2" y1="177.6" x2="14.2" y2="369.4"/>
		<line class="st10" x1="26.4" y1="177.6" x2="26.4" y2="369.4"/>
		<polyline class="st10" points="50.9,177.9 44.4,170.2 38.4,177.8 32.3,170.2 26.3,177.8 20.2,170.2 14.3,177.7 8.3,170.1 
			1.6,177.8 		"/>
		<polyline class="st10" points="50.8,369.6 44.7,377.1 38.7,369.6 32.6,377.1 26.6,369.6 20.4,377.1 14.3,369.5 8.3,377.1 
			1.2,369.1 		"/>
		<line class="st10" x1="38.4" y1="177.8" x2="38.4" y2="369.6"/>
		<path class="st11" d="M338.8,400.8v4.9c0,0,0,1,1.3,1.5s5.2,2,5.2,2s0.2,1.9-0.8,2.3c-1,0.3-3,1.5-10.2,1.5c-7.1,0-32.3,0-32.3,0
			h-4.6c0,0-30.1,0-37.2,0s-9.2-1.2-10.2-1.5s-0.8-2.3-0.8-2.3s3.9-1.5,5.2-2s1.3-1.5,1.3-1.5v-4.9"/>
	</g>
</g>
</svg>
