<?xml version="1.0" encoding="utf-8"?>
<!-- Generator: Adobe Illustrator 22.0.1, SVG Export Plug-In . SVG Version: 6.00 Build 0)  -->
<svg version="1.1" id="Type_73_B" xmlns="http://www.w3.org/2000/svg" xmlns:xlink="http://www.w3.org/1999/xlink" x="0px" y="0px"
	 viewBox="0 0 2087 428" style="enable-background:new 0 0 2087 428;" xml:space="preserve">
<style type="text/css">
	.st0{fill:#C7C9C7;}
	.st1{fill:#212322;}
	.st2{fill:#444445;}
	.st3{fill:none;}
	.st4{fill:#333F48;}
	.st5{fill:#DA291C;}
	.st6{fill:#101820;}
	.st7{fill:#B1B3B3;}
	.st8{fill:#58595B;}
	.st9{fill:#878787;}
	.st10{fill:#FA4616;}
</style>
<g id="Mål_8_">
</g>
<g>
	<g id="Farger_8_">
		<g id="Grunnfarge_4_">
			<g>
				<path class="st0" d="M2068,353h-88.5h-419.3l-29.3,55.7H439.2L405.9,347h-225L151,405.3H49.4V147.4h1834.2
					c0,0,11.3-0.8,20.7,5.1c9.4,5.8,141.5,101.8,141.5,101.8s9.4,6.8,13.5,23.6c4.1,16.7,12.6,51.7,12.6,51.7S2074.6,343.1,2068,353
					z"/>
			</g>
			<g>
				<path class="st1" d="M1600.5,352.7c-10.8,0-23.5,10.7-23.5,10.7l-16.2-0.5c0,0-3.2,1.1-3.2,4.5s1.5,4.7,4.7,4.7
					c3.2,0,3.4-1.2,3.4-1.2l3.2,0.5c0,0-8.1,11.3-5.6,24.7c2.5,13.4,13.8,29.8,33,29.8s32.7-13.9,34.9-26.7
					c2.1-12.8-0.6-18.7-0.6-18.7s5.4,1,8,4.1c2.7,3.1,13,15.1,13,15.1s2.4,2.1,7.3,2.1c4.9,0,80.9,0,80.9,0s2.9-0.1,6.6-4.4
					c3.8-4.3,12.2-13.9,12.2-13.9s2.8-1.8,4.8-2.4c2.1-0.5,3.3-0.8,3.3-0.8s-6.3,16.3,4,30.4c10.4,14.1,27.6,18.4,37.4,14.2
					c9.8-4.3,24.1-8.9,25.8-33.5c0,0-0.2-7.6-5.3-18.4c0,0,7,0.3,8.6-1.4c1.6-1.7,3.9-6.2,0.7-7.5c-3.2-1.3-18.2-0.6-18.2-0.6
					S1802,353,1792,353C1782.2,352.7,1611.3,352.7,1600.5,352.7z"/>
			</g>
			<g>
				<polygon class="st1" points="2071.4,343.9 2085.8,339.6 2085.1,359 2067.8,352.9 				"/>
			</g>
			<g>
				<polygon class="st2" points="0,181.3 6.1,173.3 12.5,181.1 18.1,173.2 24.5,181 30.4,173.4 36.6,180.9 42.5,173.3 49.6,182 
					49.4,374.6 43.1,382.4 36.9,374.5 30.8,382.1 24.6,374.3 18.6,382.1 12.4,374.3 6.2,382.1 0,375.3 				"/>
			</g>
			<g>
				<polyline class="st1" points="2071.9,344 2084.9,339.6 2084.9,338.1 2086.4,338.1 2086.4,360.5 2084.9,360.5 2084.9,359 
					2068.2,353.4 2067.2,353.1 2067.2,353 				"/>
			</g>
			<g>
				<path class="st1" d="M416.8,364.7c-2.3-3.2-10.2-17.6-10.2-17.6l-224.7,0.2c0,0-21.1,37.3-21.2,45.7c-0.1,9.2,4,26.5,22.1,32.3
					c18.2,5.9,32.6-0.6,41.9-14.4c9.3-13.9,3.1-29,3.1-29s0,0,3.1,0.8s5.9,3.5,5.9,3.5s5,5.7,10.5,11.9c5.5,6.2,7.5,5.3,7.5,5.3h0.1
					v5.4c0,0,0,1-1.3,1.5c-1.3,0.5-5.3,2-5.3,2s-0.2,1.9,0.8,2.3c1,0.3,3.1,1.6,10.2,1.6s37.4,0,37.4,0h4.6c0,0,25.3,0,32.5,0
					s9.2-1.2,10.2-1.6c1-0.3,0.8-2.3,0.8-2.3s-3.9-1.5-5.3-2c-1.3-0.5-1.3-1.5-1.3-1.5v-5.7c3.4-0.7,5.2-2.5,5.2-2.5
					s11.5-13.3,13.4-15.5c1.8-2.1,7.7-3.2,7.7-3.2s-6.3,17.7,3.7,30.3c9.9,12.7,24.1,19.7,43.2,12.1c19.1-7.5,20.5-29.9,20.5-29.9
					S419.1,367.9,416.8,364.7z"/>
			</g>
			<g>
				<line class="st3" x1="1852.2" y1="353" x2="1560.8" y2="353"/>
			</g>
			<g>
				<path class="st2" d="M2068.2,353.9c0,0-8,11.8-14.9,14.4c-6.9,2.6-9.8,14.9-1.5,23.2c8.3,8.3,15.7,15.2,15.7,15.2h-159.8
					l-55.7-53.6"/>
			</g>
			<g>
				<polyline class="st4" points="1560.8,353 1531.5,408.6 439.7,408.6 406.4,347 181.8,347 151.9,405.3 49.7,405.3 49.7,353 
					178.9,352.8 181.8,347 406.4,347 409.3,352.4 1558.4,353.4 				"/>
			</g>
		</g>
		<g id="Profilering_8_">
			<g>
				<polygon class="st5" points="1996.4,353 1849.8,198.7 1231.9,198.7 49.7,198.7 49.7,347.4 49.7,352.7 178.9,352.8 181.8,347 
					406.6,347 409.3,352.8 1981,353 				"/>
			</g>
			<g>
				<polygon class="st6" points="83.4,218.4 49.8,218.4 49.8,294 1940.3,294 1868.5,218.4 				"/>
			</g>
			<g>
				<g>
					<polygon class="st7" points="1975.8,331.3 49.7,331.3 49.7,324.6 1969.4,324.6 					"/>
				</g>
			</g>
			<g>
				<g>
					<polygon class="st7" points="1982.6,338.3 1936.2,338.3 1935.7,337.8 1815.5,211.8 49.7,211.8 49.7,208.4 1817,208.4 
						1817.5,208.9 1937.6,334.9 1979.3,334.9 					"/>
				</g>
			</g>
		</g>
		<g id="Dører_og_vinduer_7_">
			<g>
				<rect x="1149.4" y="223.1" class="st8" width="104.6" height="65.9"/>
			</g>
			<g>
				<path class="st5" d="M1469.8,368.4h-98h-2.2c-2.4,0-4.3-1.9-4.3-4.3v-159c0-2.4,1.9-4.3,4.3-4.3h103.1c2.4,0,4.3,1.9,4.3,4.3
					v159c0,2.4-1.9,4.3-4.3,4.3H1469.8z"/>
			</g>
			<g>
				<path class="st9" d="M1158.6,283.1h86c2.4,0,4.3-1.9,4.3-4.3v-45.7c0-2.4-1.9-4.3-4.3-4.3h-86c-2.4,0-4.3,1.9-4.3,4.3v45.7
					C1154.3,281.2,1156.3,283.1,1158.6,283.1z"/>
			</g>
			<g>
				<rect x="1555.8" y="221.6" class="st8" width="57" height="67"/>
			</g>
			<g>
				<rect x="1014.9" y="223.3" class="st8" width="104.6" height="65.9"/>
			</g>
			<g>
				<path class="st9" d="M1024.1,282.4h86c2.4,0,4.3-1.9,4.3-4.3v-45.7c0-2.4-1.9-4.3-4.3-4.3h-86c-2.4,0-4.3,1.9-4.3,4.3v45.7
					C1019.8,280.4,1021.7,282.4,1024.1,282.4z"/>
			</g>
			<g>
				<rect x="873.9" y="222.5" class="st8" width="104.6" height="65.9"/>
			</g>
			<g>
				<path class="st9" d="M882.1,282.4h86c2.4,0,4.3-1.9,4.3-4.3v-45.7c0-2.4-1.9-4.3-4.3-4.3h-86c-2.4,0-4.3,1.9-4.3,4.3v45.7
					C877.8,280.4,879.7,282.4,882.1,282.4z"/>
			</g>
			<g>
				<rect x="738.7" y="222.5" class="st8" width="104.6" height="65.9"/>
			</g>
			<g>
				<path class="st9" d="M748,282.4h86c2.4,0,4.3-1.9,4.3-4.3v-45.7c0-2.4-1.9-4.3-4.3-4.3h-86c-2.4,0-4.3,1.9-4.3,4.3v45.7
					C743.7,280.4,745.6,282.4,748,282.4z"/>
			</g>
			<g>
				<rect x="112.9" y="220.8" class="st8" width="56.7" height="65.9"/>
			</g>
			<g>
				<path class="st9" d="M121.5,280.9h38.7c2.4,0,4.3-1.9,4.3-4.3v-45.7c0-2.4-1.9-4.3-4.3-4.3h-38.7c-2.4,0-4.3,1.9-4.3,4.3v45.7
					C117.2,279,119.1,280.9,121.5,280.9z"/>
			</g>
			<g>
				<rect x="198.3" y="222.5" class="st8" width="104.6" height="65.9"/>
			</g>
			<g>
				<path class="st9" d="M207.6,282.4h86c2.4,0,4.3-1.9,4.3-4.3v-45.7c0-2.4-1.9-4.3-4.3-4.3h-86c-2.4,0-4.3,1.9-4.3,4.3v45.7
					C203.3,280.4,205.2,282.4,207.6,282.4z"/>
			</g>
			<g>
				<rect x="581.4" y="223.1" class="st9" width="23.6" height="65.2"/>
			</g>
			<g>
				<path class="st9" d="M591.5,284.5h2.5c3.8,0,6.8-3,6.8-6.8v-43.9c0-3.8-3-6.8-6.8-6.8h-2.5c-3.8,0-6.8,3-6.8,6.8v43.9
					C584.7,281.4,587.8,284.5,591.5,284.5z"/>
			</g>
			<g>
				<path class="st10" d="M525.1,368.1v25.4h98v-25.4h2.2c2.4,0,4.3-1.9,4.3-4.3v-159c0-2.4-1.9-4.3-4.3-4.3H522.2
					c-2.4,0-4.3,1.9-4.3,4.3v159c0,2.4,1.9,4.3,4.3,4.3H525.1z"/>
			</g>
			<g>
				<rect x="516.6" y="223.3" class="st9" width="104.3" height="65.1"/>
			</g>
			<g>
				<path class="st5" d="M1670.1,341.4h68.1c0,0,10.4-2.5,10.4-11.8V210.1c0-11.3-11-12-12.9-12h-65.5c-3.8,0-11.8,2.7-11.8,11.8
					v121.2C1658.4,338.7,1670.1,341.4,1670.1,341.4z"/>
			</g>
			<g>
				<rect x="1675.1" y="222.5" class="st9" width="65.5" height="64.6"/>
			</g>
			<g>
				<rect x="1374.7" y="222.5" class="st9" width="94" height="64.6"/>
			</g>
			<g>
				<path class="st9" d="M1800,288h34.9c2.5,0,4.6-2.1,4.6-4.6v-56.8c0-2.5-2.1-4.6-4.6-4.6H1800c-2.5,0-4.6,2.1-4.6,4.6v56.8
					C1795.4,286,1797.5,288,1800,288z"/>
			</g>
			<g>
				<path class="st9" d="M1565.1,282.4h38.4c2.4,0,4.6-1.9,4.6-4.3v-45.7c0-2.4-1.9-4.3-4.3-4.3h-38.7c-2.4,0-4.3,1.9-4.3,4.3v45.7
					C1560.8,280.4,1562.7,282.4,1565.1,282.4z"/>
			</g>
			<g>
				<path class="st8" d="M1374.2,222.5v-8.9c0-3.7,3-6.6,6.6-6.6h80.8c3.7,0,6.6,3,6.6,6.6v8.9H1374.2z"/>
			</g>
			<g>
				<path class="st8" d="M1374.2,286.8v8.9c0,3.7,3,6.6,6.6,6.6h80.8c3.7,0,6.6-3,6.6-6.6v-8.9H1374.2z"/>
			</g>
			<g>
				<path class="st9" d="M1968.9,198.8l-9.7,13.4c0,0-4.4,4-11,1.5c-6.7-2.5-46.4-18.6-46.4-18.6s-7.9-4.9-3.2-11.3
					s17.2-23.7,17.2-23.7L1968.9,198.8z"/>
			</g>
		</g>
	</g>
	<g id="Omriss_8_">
		<g>
			<path d="M1531.1,410.3H438.5l-33.3-61.7H181.8l-29.9,58.3H48.1V147h1l1803.1-0.3h33.8c1.3-0.2,10.6-1.3,30.5,13.2
				c20.8,15,128.4,93.3,129.5,94.1c0.5,0.4,11,9.7,12.9,19.8c1.9,9.8,12.7,50.2,12.8,50.6c0.2,0.9,4,19.7-3.4,29.7l-0.3,0.4h-508.4
				L1531.1,410.3z M439.7,408.3h1090.2l28.5-55.7H2067c6.5-9.4,2.8-27.5,2.7-27.7c-0.1-0.4-10.9-40.9-12.8-50.7
				c-1.8-9.5-12.1-18.5-12.2-18.6c-1-0.7-108.7-79-129.4-94c-20.1-14.6-28.9-12.9-29-12.8l-0.2,0h-33.9L50.1,149v255.9h100.6
				l29.9-58.3h225.8L439.7,408.3z"/>
		</g>
		<g>
			<path d="M2066.5,311.8c-0.1-0.3-7.6-28.1-44.8-48.8c-4.7-2.6-9.7-5.5-15.1-8.5c-38.3-21.7-90.8-51.4-129.3-59.2
				c-44.8-9-98.2-24.9-106.4-34.6c-7.9-9.5-7.1-12.9-6.9-13.5l1.9,0.7v0c0,0-0.5,3,6.5,11.5c7.6,9.1,60.5,24.9,105.2,34
				c38.8,7.8,91.5,37.6,129.9,59.4c5.3,3,10.4,5.9,15.1,8.5c38,21.2,45.7,49.7,45.8,50L2066.5,311.8z"/>
		</g>
		<g>
			<path d="M1827.8,183.5c-0.8-0.1-79.1-12.1-121.4-12.1c-0.2,0-0.3,0-0.5,0H49.1v-2h1656.8c42.4-0.1,121.4,12,122.2,12.1
				L1827.8,183.5z"/>
		</g>
		<g>
			<path d="M1953.6,216.1c-2.1,0-4.8-0.5-8.2-1.9c-10.6-4.3-43.6-17.6-43.6-17.6l-0.1-0.1c-0.2-0.1-4.3-2.6-5.1-6.6
				c-0.4-2.1,0.1-4.1,1.6-6.1c4.7-6.4,17.1-23.5,17.2-23.7l1.6,1.2c-0.1,0.2-12.5,17.3-17.2,23.7c-1.1,1.5-1.5,3-1.2,4.5
				c0.6,2.9,3.6,5,4.1,5.3c1.8,0.7,33.2,13.4,43.5,17.6c9.6,3.9,12.6-0.1,12.6-0.1l9.7-12.6l1.6,1.2l-9.7,12.5
				C1960.3,213.5,1958.5,216.1,1953.6,216.1z"/>
		</g>
		<g>
			<path d="M1835.2,289.6h-34.9c-3.1,0-5.6-2.5-5.6-5.7v-56.8c0-3,2.6-5.6,5.6-5.6h34.9c3,0,5.6,2.6,5.6,5.6V284
				C1840.8,287,1838.2,289.6,1835.2,289.6z M1800.3,223.5c-2,0-3.6,1.6-3.6,3.6v56.8c0,2.1,1.6,3.7,3.6,3.7h34.9
				c2,0,3.6-1.6,3.6-3.6v-56.9c0-2-1.6-3.6-3.6-3.6H1800.3z"/>
		</g>
		<g>
			<path d="M1742.5,377.7h-88.2c-2,0-3.9-0.7-5.5-1.9l-11.4-9.2c-1.2-1-2.7-1.5-4.3-1.5h-68.9v-2h68.9c2,0,3.9,0.7,5.5,1.9l11.4,9.2
				c1.2,1,2.7,1.5,4.3,1.5h88.2c1.7,0,3.1-0.5,4.3-1.6l10.8-8.9c1.5-1.3,3.5-2,5.6-2h69.2v2h-69.2c-1.6,0-3.2,0.6-4.3,1.6l-10.8,8.9
				C1746.5,377,1744.6,377.7,1742.5,377.7z"/>
		</g>
		<g>
			<path d="M1740.6,403.3h-83.5c-2.2,0-4.1-0.9-5.4-2.5l-14.2-16.2c-0.7-0.8-1.6-1.3-2.6-1.6l-25-6.4c-0.3-0.1-0.7-0.2-0.9-0.2
				l-40.7-2.4l-6-0.3l0.1-2l6,0.3l7,0.4l33.6,2c0,0,0,0,0,0c0.4,0,0.8,0.1,1.3,0.2l25,6.4c1.4,0.3,2.6,1.1,3.6,2.2l14.2,16.2
				c0.9,1.1,2.3,1.8,3.8,1.8h83.5c1.5,0,2.9-0.6,4-1.8l14-16.2c0.8-0.8,1.9-1.7,3.4-2.1l11.6-3.4l12.8-3.7c0.5-0.2,1.1-0.4,1.7-0.4
				l32.6-2l7.1-0.4l4.3-0.3l0.8,0v2h-0.7l-4.2,0.3l-7.1,0.4l-32.7,2c-0.4,0-0.6,0.1-0.9,0.2l-0.2,0.1l-24.5,7.1
				c-1.1,0.3-1.9,1-2.5,1.5l-13.9,16.1C1744.6,402.4,1742.6,403.3,1740.6,403.3z"/>
		</g>
		<g>
			<path d="M1799.3,400.6c-4.7,0-8.6-3.9-8.6-8.6s3.9-8.6,8.6-8.6s8.6,3.9,8.6,8.6S1804,400.6,1799.3,400.6z M1799.3,385.4
				c-3.6,0-6.6,3-6.6,6.6c0,3.6,3,6.6,6.6,6.6c3.6,0,6.6-3,6.6-6.6C1805.9,388.4,1802.9,385.4,1799.3,385.4z"/>
		</g>
		<g>
			<path d="M1806.2,365.2c-4.4-1.1-9.7-1.1-14.1,0l-0.5-1.9c4.7-1.2,10.4-1.2,15.1,0L1806.2,365.2z"/>
		</g>
		<g>
			<path d="M1799.2,421.7c-16.4,0-29.7-13.3-29.7-29.7c0-4.6,1.1-9.3,3.3-13.6l1.8,0.9c-2,3.9-3.1,8.3-3.1,12.6
				c0,15.3,12.4,27.7,27.7,27.7s27.7-12.4,27.7-27.7c0-6.8-2.5-13.4-7-18.4l1.5-1.3c4.9,5.4,7.6,12.4,7.6,19.8
				C1828.9,408.4,1815.5,421.7,1799.2,421.7z"/>
		</g>
		<g>
			<path d="M1822.7,365.2h-16.3v-2h10c-5.1-3.1-11.2-4.8-17.3-4.8c-7.3,0-14.2,2.3-20,6.6l-1.2-1.6c6.2-4.6,13.5-7,21.2-7
				c7.7,0,15.2,2.5,21.2,7L1822.7,365.2z"/>
		</g>
		<g>
			<path d="M1799.2,427.6c-19.6,0-35.5-16-35.5-35.6c0-4,0.6-7.8,1.9-11.3l1.9,0.7c-1.2,3.3-1.7,6.9-1.7,10.7
				c0,18.5,15,33.6,33.5,33.6c18.5,0,33.6-15.1,33.6-33.6c0-6.6-1.9-13-5.6-18.6l-6.5,0.4l-0.1-2l7.7-0.4l0.3,0.5
				c4.1,6,6.3,13,6.3,20.2C1834.8,411.6,1818.8,427.6,1799.2,427.6z"/>
		</g>
		<g>
			<path d="M1597.3,400.6c-4.7,0-8.6-3.9-8.6-8.6s3.9-8.6,8.6-8.6c4.7,0,8.6,3.9,8.6,8.6S1602,400.6,1597.3,400.6z M1597.3,385.4
				c-3.6,0-6.6,3-6.6,6.6c0,3.6,3,6.6,6.6,6.6c3.6,0,6.6-3,6.6-6.6C1603.9,388.4,1600.9,385.4,1597.3,385.4z"/>
		</g>
		<g>
			<path d="M1597.3,421.7c-16.4,0-29.7-13.3-29.7-29.7c0-6.8,2.5-13.6,6.9-19l1.5,1.3c-4.2,5.1-6.5,11.4-6.5,17.8
				c0,15.3,12.4,27.7,27.7,27.7c15.3,0,27.7-12.4,27.7-27.7c0-4.4-1-8.7-3-12.4l1.8-0.9c2.1,4,3.2,8.6,3.2,13.4
				C1627,408.4,1613.6,421.7,1597.3,421.7z"/>
		</g>
		<g>
			<path d="M1590.8,365.1l-0.4-2c2.4-0.6,4.7-0.8,6.9-0.8c2.3,0,4.7,0.3,6.9,0.8l-0.5,1.9c-2.1-0.5-4.4-0.8-6.5-0.8
				C1595.2,364.3,1593.1,364.5,1590.8,365.1z"/>
		</g>
		<g>
			<path d="M1617.1,364.9c-5.8-4.3-12.6-6.5-19.7-6.5c-7.2,0-14,2.2-19.8,6.5l-1.2-1.6c6.1-4.5,13.4-6.9,21-6.9
				c7.5,0,14.8,2.4,20.9,6.9L1617.1,364.9z"/>
		</g>
		<g>
			<path d="M1597.4,427.6c-19.6,0-35.6-16-35.6-35.6c0-6.9,2-13.6,5.7-19.3l1.7,1.1c-3.5,5.4-5.3,11.7-5.3,18.3
				c0,18.5,15.1,33.6,33.6,33.6c18.5,0,33.5-15.1,33.5-33.6c0-3.8-0.6-7.4-1.7-10.8l1.9-0.6c1.2,3.6,1.9,7.4,1.9,11.4
				C1632.9,411.6,1616.9,427.6,1597.4,427.6z"/>
		</g>
		<g>
			<path d="M1562,373.8c-3.1,0-5.7-2.6-5.7-5.7s2.6-5.7,5.7-5.7c3.1,0,5.7,2.6,5.7,5.7S1565.1,373.8,1562,373.8z M1562,364.4
				c-2,0-3.7,1.7-3.7,3.7s1.7,3.7,3.7,3.7c2,0,3.7-1.7,3.7-3.7S1564,364.4,1562,364.4z"/>
		</g>
		<g>
			<path d="M1834.5,373.8c-0.9,0-2-0.3-2.9-0.8c-1.7-1-2.8-2.9-2.8-4.9c0-1.9,0.9-3.6,2.5-4.7c0.9-0.6,2-1,3.2-1
				c3.1,0,5.7,2.6,5.7,5.7S1837.6,373.8,1834.5,373.8z M1834.5,364.4c-0.8,0-1.5,0.2-2,0.6c-1.1,0.7-1.7,1.9-1.7,3.1
				c0,1.3,0.7,2.5,1.8,3.1c0.6,0.4,1.3,0.6,1.9,0.6c2,0,3.7-1.7,3.7-3.7S1836.5,364.4,1834.5,364.4z"/>
		</g>
		<g>
			<path d="M1907.1,409.1l-56.1-54.9l1.4-1.4l55.3,54.1l141.4-36.2c0.6-0.5,3-2.3,9-7c6.9-5.3,8.4-10.4,8.4-10.5l1.9,0.5
				c-0.1,0.2-1.7,5.8-9.2,11.5c-7.2,5.5-9.2,7.1-9.2,7.1l-0.2,0.1l-0.2,0.1L1907.1,409.1z"/>
		</g>
		<g>
			<path d="M1907.5,409.1l0-2l157.7-0.9c-4-3.7-13.3-12.4-18.1-18.4c-6.6-8.2,1.8-16.8,1.9-16.9l1.4,1.4c-0.3,0.3-7.2,7.5-1.7,14.3
				c6,7.4,19.6,19.8,19.8,19.9l1.9,1.7L1907.5,409.1z"/>
		</g>
		<g>
			<polygon points="1743.5,377 1741.6,376.4 1746.4,360.8 1746.3,353.5 1748.3,353.5 1748.4,361 			"/>
		</g>
		<g>
			<path d="M1642.2,368.6h-2v-7c0-5.2,5.1-8.8,5.3-8.9l1.1,1.6c0,0-4.5,3.2-4.5,7.3V368.6z"/>
		</g>
		<g>
			<path d="M339.5,379.2h-88.2c-2,0-3.8-0.6-5.4-1.8l-20-9.3c-1.2-1-2.7-1.5-4.3-1.5H172v-2h49.6c2,0,3.8,0.6,5.4,1.8l20,9.3
				c1.2,1,2.7,1.5,4.3,1.5h88.2c1.7,0,3.1-0.5,4.3-1.6l0.2-0.1l18.5-8.8c1.5-1.3,3.5-2,5.5-2h48.7v2h-48.7c-1.6,0-3.2,0.6-4.3,1.6
				l-0.2,0.1l-18.5,8.8C343.5,378.5,341.6,379.2,339.5,379.2z"/>
		</g>
		<g>
			<path d="M337.5,404.8H254c-2.2,0-4.1-0.9-5.4-2.5l-14.2-16.2c-0.7-0.8-1.6-1.3-2.6-1.6l-25-6.4c-0.3-0.1-0.7-0.2-0.9-0.2
				l-38.7-2.3l0.1-2l38.6,2.3c0,0,0,0,0,0c0.4,0,0.8,0.1,1.3,0.2l25,6.4c1.4,0.3,2.6,1.1,3.6,2.2l14.2,16.2c0.9,1.1,2.3,1.8,3.8,1.8
				h83.5c1.5,0,2.9-0.6,4-1.8l14-16.2c0.8-0.8,1.9-1.7,3.4-2.1l11.6-3.4l12.8-3.7c0.5-0.2,1.1-0.4,1.7-0.4l32.6-2l2.6-0.1l0.1,2
				l-2.6,0.1l-32.7,2c-0.4,0-0.6,0.1-0.9,0.2l-0.2,0.1l-24.5,7.1c-1.1,0.3-1.9,1-2.5,1.5l-13.9,16.1
				C341.5,403.9,339.5,404.8,337.5,404.8z"/>
		</g>
		<g>
			<path d="M396.2,402c-4.7,0-8.6-3.9-8.6-8.6s3.9-8.6,8.6-8.6c4.7,0,8.6,3.9,8.6,8.6S400.9,402,396.2,402z M396.2,386.8
				c-3.6,0-6.6,3-6.6,6.6c0,3.6,3,6.6,6.6,6.6c3.6,0,6.6-3,6.6-6.6C402.8,389.8,399.8,386.8,396.2,386.8z"/>
		</g>
		<g>
			<path d="M389.1,366.6l-0.5-1.9c4.7-1.2,10.4-1.2,15.1,0l-0.5,1.9C398.9,365.4,393.5,365.4,389.1,366.6z"/>
		</g>
		<g>
			<path d="M396.2,423.1c-16.4,0-29.7-13.3-29.7-29.7c0-4.6,1.1-9.3,3.3-13.6l1.8,0.9c-2,3.9-3.1,8.3-3.1,12.6
				c0,15.3,12.4,27.7,27.7,27.7c15.3,0,27.7-12.4,27.7-27.7c0-6.8-2.5-13.4-7-18.4l1.5-1.3c4.9,5.4,7.6,12.4,7.6,19.8
				C425.9,409.8,412.6,423.1,396.2,423.1z"/>
		</g>
		<g>
			<path d="M419.8,366.6h-16.3v-2h10c-5.1-3.1-11.2-4.8-17.3-4.8c-7.3,0-14.2,2.3-20,6.6l-1.2-1.6c6.2-4.6,13.5-7,21.2-7
				c7.7,0,15.2,2.5,21.2,7L419.8,366.6z"/>
		</g>
		<g>
			
				<rect x="417.6" y="373.2" transform="matrix(0.9993 -3.858317e-02 3.858317e-02 0.9993 -14.1276 16.4402)" width="2.6" height="2"/>
		</g>
		<g>
			<path d="M396.2,429c-19.6,0-35.5-16-35.5-35.6c0-4,0.6-7.8,1.9-11.3l1.9,0.7c-1.2,3.3-1.7,6.9-1.7,10.7c0,18.5,15,33.6,33.5,33.6
				c18.3,0,33.4-14.9,33.6-33.2l2,0C431.6,413.2,415.6,429,396.2,429z"/>
		</g>
		<g>
			<path d="M194.3,402c-4.7,0-8.6-3.9-8.6-8.6s3.9-8.6,8.6-8.6c4.7,0,8.6,3.9,8.6,8.6S199,402,194.3,402z M194.3,386.8
				c-3.6,0-6.6,3-6.6,6.6c0,3.6,3,6.6,6.6,6.6s6.6-3,6.6-6.6C200.9,389.8,197.9,386.8,194.3,386.8z"/>
		</g>
		<g>
			<path d="M194.3,423.1c-16.4,0-29.7-13.3-29.7-29.7c0-6.8,2.5-13.6,6.9-19l1.5,1.3c-4.2,5.1-6.5,11.4-6.5,17.8
				c0,15.3,12.4,27.7,27.7,27.7c15.3,0,27.7-12.4,27.7-27.7c0-4.4-1-8.7-3-12.4l1.8-0.9c2.1,4,3.2,8.6,3.2,13.4
				C224,409.8,210.7,423.1,194.3,423.1z"/>
		</g>
		<g>
			<path d="M187.8,366.5l-0.4-2c2.4-0.6,4.7-0.8,6.9-0.8c2.3,0,4.7,0.3,6.9,0.8l-0.5,1.9c-2.1-0.5-4.4-0.8-6.5-0.8
				C192.2,365.7,190.1,365.9,187.8,366.5z"/>
		</g>
		<g>
			<path d="M214,366.3c-5.8-4.3-12.6-6.5-19.7-6.5c-7.2,0-14,2.2-19.8,6.5l-1.2-1.6c6.1-4.5,13.4-6.9,21-6.9
				c7.5,0,14.8,2.4,20.9,6.9L214,366.3z"/>
		</g>
		<g>
			<path d="M194.3,429c-19.6,0-35.6-16-35.6-35.6c0-1.5,0.1-3.1,0.3-4.6l2,0.3c-0.2,1.4-0.3,2.9-0.3,4.4c0,18.5,15.1,33.6,33.6,33.6
				c18.5,0,33.5-15.1,33.5-33.6c0-3.8-0.6-7.4-1.7-10.8l1.9-0.6c1.2,3.6,1.9,7.4,1.9,11.4C229.8,413,213.9,429,194.3,429z"/>
		</g>
		<g>
			<polygon points="346.3,361 326.8,361 316.7,354.7 273.6,354.7 263,360.6 262,358.8 273.1,352.7 317.3,352.7 327.4,359 344.3,359 
				344.3,347.9 346.3,347.9 			"/>
		</g>
		<g>
			<polygon points="351.1,373 349.1,373 349.1,357.3 344.4,348.4 346.2,347.4 351.1,356.8 			"/>
		</g>
		<g>
			<polygon points="250.6,376.8 248.6,376.8 248.6,372 263.9,372 261.7,360.7 244.9,360.7 244.9,347.5 246.9,347.5 246.9,358.7 
				263.3,358.7 266.3,374 250.6,374 			"/>
		</g>
		<g>
			<rect x="336.9" y="358.7" transform="matrix(0.867 -0.4983 0.4983 0.867 -138.7822 217.3998)" width="2" height="20.1"/>
		</g>
		<g>
			<polygon points="1740.5,366.2 1722.8,359 1673.8,359 1655.3,364.1 1655.3,353.5 1657.3,353.5 1657.3,361.5 1673.7,357 
				1723.2,357 1738.4,363.2 1738.1,353.5 1740.1,353.5 			"/>
		</g>
		<g>
			<path d="M1255,290h-106.6v-67.9H1255V290z M1150.4,288H1253v-63.9h-102.6V288z"/>
		</g>
		<g>
			<path d="M1244.6,283.9h-86c-2.9,0-5.3-2.4-5.3-5.3v-45.7c0-3,2.3-5.3,5.3-5.3h86c3,0,5.3,2.3,5.3,5.3v45.7
				C1249.9,281.6,1247.6,283.9,1244.6,283.9z M1158.6,229.6c-1.9,0-3.3,1.4-3.3,3.3v45.7c0,1.8,1.5,3.3,3.3,3.3h86
				c1.9,0,3.3-1.4,3.3-3.3v-45.7c0-1.9-1.4-3.3-3.3-3.3H1158.6z"/>
		</g>
		<g>
			<path d="M1613.8,290h-58.9v-67.9h58.9V290z M1556.9,288h54.9v-63.9h-54.9V288z"/>
		</g>
		<g>
			<path d="M1603.6,283.9h-38.3c-3,0-5.3-2.3-5.3-5.3v-45.7c0-3,2.3-5.3,5.3-5.3h38.3c3,0,5.3,2.3,5.3,5.3v45.7
				C1608.9,281.6,1606.5,283.9,1603.6,283.9z M1565.3,229.6c-1.9,0-3.3,1.4-3.3,3.3v45.7c0,1.9,1.5,3.3,3.3,3.3h38.3
				c1.9,0,3.3-1.4,3.3-3.3v-45.7c0-1.9-1.4-3.3-3.3-3.3H1565.3z"/>
		</g>
		<g>
			<path d="M1120.5,290h-106.6v-67.9h106.6V290z M1015.9,288h102.6v-63.9h-102.6V288z"/>
		</g>
		<g>
			<path d="M1110.1,283.9h-86c-3,0-5.3-2.3-5.3-5.3v-45.7c0-3,2.3-5.3,5.3-5.3h86c3,0,5.3,2.3,5.3,5.3v45.7
				C1115.4,281.6,1113.1,283.9,1110.1,283.9z M1024.1,229.6c-1.9,0-3.3,1.4-3.3,3.3v45.7c0,1.9,1.4,3.3,3.3,3.3h86
				c1.9,0,3.3-1.4,3.3-3.3v-45.7c0-1.9-1.4-3.3-3.3-3.3H1024.1z"/>
		</g>
		<g>
			<path d="M979,290H872.4v-67.9H979V290z M874.4,288H977v-63.9H874.4V288z"/>
		</g>
		<g>
			<path d="M968.6,283.9h-86c-2.9,0-5.3-2.4-5.3-5.3v-45.7c0-3,2.3-5.3,5.3-5.3h86c3,0,5.3,2.3,5.3,5.3v45.7
				C973.9,281.6,971.6,283.9,968.6,283.9z M882.6,229.6c-1.9,0-3.3,1.4-3.3,3.3v45.7c0,1.8,1.5,3.3,3.3,3.3h86
				c1.9,0,3.3-1.4,3.3-3.3v-45.7c0-1.9-1.4-3.3-3.3-3.3H882.6z"/>
		</g>
		<g>
			<path d="M843.8,290H737.2v-67.9h106.6V290z M739.2,288h102.6v-63.9H739.2V288z"/>
		</g>
		<g>
			<path d="M833.4,283.9h-86c-2.9,0-5.3-2.4-5.3-5.3v-45.7c0-3,2.3-5.3,5.3-5.3h86c3,0,5.3,2.3,5.3,5.3v45.7
				C838.7,281.6,836.4,283.9,833.4,283.9z M747.4,229.6c-1.9,0-3.3,1.4-3.3,3.3v45.7c0,1.8,1.5,3.3,3.3,3.3h86
				c1.9,0,3.3-1.4,3.3-3.3v-45.7c0-1.9-1.4-3.3-3.3-3.3H747.4z"/>
		</g>
		<g>
			<path d="M303.3,290H196.7v-67.9h106.6V290z M198.7,288h102.6v-63.9H198.7V288z"/>
		</g>
		<g>
			<path d="M293,283.9h-86c-3,0-5.3-2.3-5.3-5.3v-45.7c0-3,2.3-5.3,5.3-5.3h86c3,0,5.3,2.3,5.3,5.3v45.7
				C298.3,281.6,296,283.9,293,283.9z M207,229.6c-1.9,0-3.3,1.4-3.3,3.3v45.7c0,1.9,1.4,3.3,3.3,3.3h86c1.9,0,3.3-1.4,3.3-3.3
				v-45.7c0-1.9-1.4-3.3-3.3-3.3H207z"/>
		</g>
		<g>
			<path d="M622.2,290h-25.6v-67.2h25.6V290z M598.6,288h21.6v-63.2h-21.6V288z"/>
		</g>
		<g>
			<path d="M610.2,286h-2.5c-2.2,0-4.2-0.8-5.7-2.4c-1.4-1.5-2.2-3.4-2.1-5.5l0-43.9c0-4.4,3.4-7.8,7.8-7.8h2.5
				c4.4,0,7.8,3.4,7.8,7.8v43.9C618,282.6,614.5,286,610.2,286z M607.7,228.5c-3.3,0-5.8,2.5-5.8,5.8v43.9c0,1.5,0.5,3,1.6,4
				c1.1,1.1,2.6,1.8,4.2,1.8h2.5c3.3,0,5.8-2.5,5.8-5.8v-43.9c0-3.3-2.5-5.8-5.8-5.8H607.7z"/>
		</g>
		<g>
			<path d="M622.9,395.1h-100v-25.4h-2c-3,0-5.3-2.3-5.3-5.3v-159c0-3,2.3-5.3,5.3-5.3h103.2c3,0,5.3,2.3,5.3,5.3v159
				c0,3-2.3,5.3-5.3,5.3h-1.2V395.1z M524.9,393.1h96v-25.4h3.2c1.9,0,3.3-1.4,3.3-3.3v-159c0-1.9-1.4-3.3-3.3-3.3H520.9
				c-1.9,0-3.3,1.4-3.3,3.3v159c0,1.9,1.4,3.3,3.3,3.3h4V393.1z"/>
		</g>
		<g>
			<path d="M582.6,290h-65.9v-67.1h65.9V290z M518.7,288h61.9v-63.1h-61.9V288z"/>
		</g>
		<g>
			<path d="M1471.5,395.1h-100v-25.4h-1.9c-3,0-5.3-2.3-5.3-5.3v-159c0-3,2.3-5.3,5.3-5.3h103.1c3,0,5.3,2.3,5.3,5.3v159
				c0,3-2.3,5.3-5.3,5.3h-1.2V395.1z M1373.5,393.1h96v-25.4h3.2c1.9,0,3.3-1.4,3.3-3.3v-159c0-1.9-1.4-3.3-3.3-3.3h-103.1
				c-1.9,0-3.3,1.4-3.3,3.3v159c0,1.9,1.4,3.3,3.3,3.3h3.9V393.1z"/>
		</g>
		<g>
			<path d="M1468.7,288.6h-96.1V222h96.1V288.6z M1374.6,286.6h92.1V224h-92.1V286.6z"/>
		</g>
		<g>
			<path d="M1468.6,223h-2v-8.9c0-3.1-2.5-5.6-5.6-5.6h-80.8c-3.1,0-5.6,2.5-5.6,5.6v8.9h-2v-8.9c0-4.2,3.4-7.6,7.6-7.6h80.8
				c4.2,0,7.6,3.4,7.6,7.6V223z"/>
		</g>
		<g>
			<path d="M1461,303.9h-80.8c-4.2,0-7.6-3.4-7.6-7.6v-8.9h2v8.9c0,3.1,2.5,5.6,5.6,5.6h80.8c3.1,0,5.6-2.5,5.6-5.6v-8.9h2v8.9
				C1468.6,300.5,1465.2,303.9,1461,303.9z"/>
		</g>
		<g>
			<rect x="1372.5" y="367.7" width="98" height="2"/>
		</g>
		<g>
			<rect x="523.9" y="367.7" width="98.6" height="2"/>
		</g>
		<g>
			<path d="M170,288.7h-58.9v-67.9H170V288.7z M113.1,286.7H168v-63.9h-54.9V286.7z"/>
		</g>
		<g>
			<path d="M159.7,282.7h-38.3c-3,0-5.3-2.3-5.3-5.3v-45.7c0-3,2.3-5.3,5.3-5.3h38.3c3,0,5.3,2.3,5.3,5.3v45.7
				C165,280.4,162.7,282.7,159.7,282.7z M121.4,228.4c-1.9,0-3.3,1.4-3.3,3.3v45.7c0,1.9,1.4,3.3,3.3,3.3h38.3
				c1.9,0,3.3-1.4,3.3-3.3v-45.7c0-1.9-1.4-3.3-3.3-3.3H121.4z"/>
		</g>
		<g>
			<path d="M1736.3,342.8h-66.6c-7.1,0-12.8-5.7-12.8-12.8V210.2c0-7.1,5.7-12.8,12.8-12.8h66.6c7.1,0,12.8,5.7,12.8,12.8v119.9
				C1748.9,337.2,1743.3,342.8,1736.3,342.8z M1669.7,199.4c-6,0-10.8,4.8-10.8,10.8V330c0,6,4.8,10.8,10.8,10.8h66.6
				c6,0,10.7-4.7,10.8-10.7V210.2c0-6-4.8-10.8-10.8-10.8H1669.7z"/>
		</g>
		<g>
			<path d="M1741.1,288.5h-67.5V221h67.5V288.5z M1675.6,286.5h63.5V223h-63.5V286.5z"/>
		</g>
		<g>
			<rect x="11.3" y="181.2" width="2" height="193.1"/>
		</g>
		<g>
			<rect x="23.5" y="181.2" width="2" height="193.1"/>
		</g>
		<g>
			<polygon points="12.4,182.9 6.3,175.2 1,181.9 -0.6,180.7 6.3,172 12.4,179.7 18.3,172.1 24.4,179.7 30.5,172.1 36.6,179.7 
				42.7,172.1 49.6,180.7 48,181.9 42.7,175.3 36.6,182.9 30.5,175.3 24.4,182.9 18.3,175.3 			"/>
		</g>
		<g>
			<polygon points="30.8,383.7 24.7,376.1 18.5,383.6 12.4,376 6.3,383.6 -0.6,375 1,373.8 6.3,380.4 12.4,372.8 18.5,380.4 
				24.7,372.9 30.8,380.5 36.9,372.9 43,380.5 48.3,373.9 49.9,375.1 43,383.7 36.9,376.1 			"/>
		</g>
		<g>
			<rect x="35.6" y="181.3" width="2" height="193.2"/>
		</g>
		<g>
			<path d="M333.4,417.3h-74.5c-6.7,0-9.1-1-10.3-1.5l-0.3-0.1c-1.6-0.5-1.5-2.9-1.4-3.3c0-0.4,0.3-0.7,0.6-0.8
				c0.2-0.1,3.9-1.5,5.3-2c0.6-0.2,0.6-0.5,0.6-0.6l0-5c0-0.6,0.4-1,1-1s1,0.4,1,1v5c0,0.6-0.4,1.8-1.9,2.4
				c-1.1,0.4-3.5,1.3-4.7,1.8c0,0.3,0.1,0.6,0.2,0.7c0.1,0,0.2,0.1,0.4,0.1c1,0.4,3.2,1.4,9.5,1.4h74.5c5.8,0,8.2-0.9,9.3-1.3
				c0.2-0.1,0.4-0.1,0.5-0.2c0.1-0.1,0.2-0.4,0.2-0.7c-1.2-0.4-3.7-1.4-4.7-1.8c-1.5-0.6-1.9-1.8-1.9-2.4v-5c0-0.6,0.4-1,1-1
				c0.6,0,1,0.4,1,1v5c0,0,0.1,0.3,0.7,0.6c1.3,0.5,5.3,2,5.3,2c0.4,0.1,0.6,0.5,0.6,0.8c0,0.3,0.2,2.7-1.4,3.3
				c-0.2,0.1-0.4,0.1-0.5,0.2C342.2,416.3,339.6,417.3,333.4,417.3z"/>
		</g>
	</g>
</g>
</svg>
