<?xml version="1.0" encoding="utf-8"?>
<!-- Generator: Adobe Illustrator 22.0.1, SVG Export Plug-In . SVG Version: 6.00 Build 0)  -->
<svg version="1.1" id="Type_73_A" xmlns="http://www.w3.org/2000/svg" xmlns:xlink="http://www.w3.org/1999/xlink" x="0px" y="0px"
	 viewBox="0 0 1951.7 424" style="enable-background:new 0 0 1951.7 424;" xml:space="preserve">
<metadata><?xpacket begin="﻿" id="W5M0MpCehiHzreSzNTczkc9d"?>
<x:xmpmeta xmlns:x="adobe:ns:meta/" x:xmptk="Adobe XMP Core 5.6-c143 79.161210, 2017/08/11-10:28:36        ">
   <rdf:RDF xmlns:rdf="http://www.w3.org/1999/02/22-rdf-syntax-ns#">
      <rdf:Description rdf:about=""/>
   </rdf:RDF>
</x:xmpmeta>
                                                                                                    
                                                                                                    
                                                                                                    
                                                                                                    
                                                                                                    
                                                                                                    
                                                                                                    
                                                                                                    
                                                                                                    
                                                                                                    
                                                                                                    
                                                                                                    
                                                                                                    
                                                                                                    
                                                                                                    
                                                                                                    
                                                                                                    
                                                                                                    
                                                                                                    
                                                                                                    
                           
<?xpacket end="w"?></metadata>
<style type="text/css">
	.st0{fill:#212322;}
	.st1{fill:#C7C9C7;}
	.st2{fill:#333F48;}
	.st3{fill:#444445;}
	.st4{fill:#DA291C;}
	.st5{fill:#090E15;}
	.st6{fill:#B1B3B3;}
	.st7{fill:#58595B;}
	.st8{fill:#878787;}
	.st9{fill:#FA4616;}
	.st10{fill:none;stroke:#000000;stroke-width:2;stroke-miterlimit:10;}
	.st11{fill:none;stroke:#000000;stroke-width:2;stroke-linecap:round;stroke-linejoin:round;stroke-miterlimit:10;}
</style>
<g id="Mål_7_">
</g>
<g>
	<g id="Farger_7_">
		<g id="Grunnfarge_3_">
			<path class="st0" d="M186.2,344.1c0,0-7.9,14.3-10.2,17.4s-15.1,29.6-15.1,29.6s1.4,22.2,20.3,29.7c19,7.5,33.1,0.5,42.9-12.1
				c9.9-12.6,3.6-30.1,3.6-30.1s6.5,0.9,8.4,3.1c1.8,2.1,13.3,15.5,13.3,15.5s2.6,2.8,5.2,2.7c0.8,0,1.3,6.4-2.7,7.4
				c-5.2,1.2-3.3,5.1,2.6,4.8c4.4-0.2,30.2,0.3,35.1,0.3c6.1,0,44.6-0.5,50.6-0.5c6.4,0,4.7-3.3,0.1-5.3c-3.6-1.5-1.9-6.5-1.9-6.5
				s0.4,0.9,5.8-5.3s10.4-11.9,10.4-11.9s2.7-2.6,5.9-3.4s3.1-0.8,3.1-0.8s-6.1,15,3.1,28.8s23.5,20.2,41.6,14.3
				c18-5.8,21.8-23.7,22.1-32.1c0.3-8.4-21.4-45.6-21.4-45.6H186.2z"/>
			<polygon class="st1" points="50.7,146.5 50.7,402.6 154.3,402.6 186.2,344.1 409.1,344.1 440.2,405.9 1562.9,405.9 1596.6,344.1 
				1819.6,344.1 1848.7,402.6 1950.7,402.6 1950.7,146.5 			"/>
			<polygon class="st2" points="50.7,402.6 154.3,402.6 181.8,350.9 50.5,350.5 			"/>
			<polygon class="st3" points="1.9,177.9 8,170.3 14,177.8 20.1,170.3 26.1,177.8 32.1,170.4 38,177.8 44.2,170.4 50.2,178 
				50.2,370.4 44.5,377.9 38.4,370.4 32.4,378 26.1,370.4 20.2,378 14,370.4 8,377.9 1.9,370 			"/>
			<polygon class="st2" points="1848.7,402.6 1950.7,402.6 1950.7,350.9 1822.1,350.9 			"/>
			<polygon class="st2" points="1592.9,350.4 1562.9,405.9 440.2,405.9 411.8,350.4 			"/>
			<path class="st0" d="M1596.6,344.1c0,0-7.9,14.3-10.2,17.4c-2.3,3.1-15.1,29.6-15.1,29.6s1.4,22.2,20.3,29.7
				c19,7.5,33.1,0.5,42.9-12.1s3.6-30.1,3.6-30.1s5.8,1.1,7.6,3.2c1.8,2.1,13.3,15.4,13.3,15.4s2.7,2.8,7.8,2.8s80.4,0,80.4,0
				s2,0.9,7.4-5.3s10.4-11.9,10.4-11.9s2.7-2.6,5.9-3.4c3.1-0.8,3.1-0.8,3.1-0.8s-6.1,15,3.1,28.8s23.5,20.2,41.6,14.3
				c18-5.8,21.8-23.7,22.1-32.1c0.3-8.4-21.4-45.6-21.4-45.6L1596.6,344.1L1596.6,344.1z"/>
		</g>
		<g id="Profilering_7_">
			<polygon class="st4" points="75.4,350.5 181.8,350.9 185.7,343.8 409,344.1 412.1,350.5 1592.9,350.5 1596.1,344.7 1818.8,344.7 
				1822.1,350.9 1950.7,350.9 1950.7,196 50.5,196 50.5,350.5 			"/>
			<polygon class="st5" points="83.9,217.1 50.5,217.1 50.5,292.1 1950.7,292.1 1950.7,217.1 			"/>
			<g>
				<rect x="50.5" y="322.8" class="st6" width="1900.2" height="6.7"/>
			</g>
			<g>
				<rect x="50.8" y="207.4" class="st6" width="1899.9" height="3.4"/>
			</g>
		</g>
		<g id="Dører_og_vinduer_6_">
			<rect x="199.7" y="220.3" class="st7" width="103.9" height="65.5"/>
			<path class="st8" d="M294.3,279.5h-85.4c-2.4,0-4.3-1.9-4.3-4.3v-45.4c0-2.4,1.9-4.3,4.3-4.3h85.4c2.4,0,4.3,1.9,4.3,4.3v45.4
				C298.6,277.6,296.7,279.5,294.3,279.5z"/>
			<rect x="333.6" y="219.8" class="st7" width="103.9" height="65.5"/>
			<path class="st8" d="M428.3,279.5h-85.4c-2.4,0-4.3-1.9-4.3-4.3v-45.4c0-2.4,1.9-4.3,4.3-4.3h85.4c2.4,0,4.3,1.9,4.3,4.3v45.4
				C432.6,277.6,430.6,279.5,428.3,279.5z"/>
			<rect x="745" y="219.6" class="st7" width="103.9" height="65.5"/>
			<path class="st8" d="M839.7,279.5h-85.4c-2.4,0-4.3-1.9-4.3-4.3v-45.4c0-2.4,1.9-4.3,4.3-4.3h85.4c2.4,0,4.3,1.9,4.3,4.3v45.4
				C844,277.6,842,279.5,839.7,279.5z"/>
			<rect x="1151.8" y="219.6" class="st7" width="103.9" height="65.5"/>
			<rect x="1010.7" y="219.8" class="st8" width="103.9" height="65.5"/>
			<rect x="877.9" y="219.6" class="st8" width="103.9" height="65.5"/>
			<path class="st8" d="M1246.4,279.3H1161c-2.4,0-4.3-1.9-4.3-4.3v-45.3c0-2.4,1.9-4.3,4.3-4.3h85.4c2.4,0,4.3,1.9,4.3,4.3v45.4
				C1250.7,277.4,1248.8,279.3,1246.4,279.3z"/>
			<rect x="1564.4" y="219.8" class="st7" width="103.9" height="65.5"/>
			<path class="st8" d="M1659,279.5h-85.4c-2.4,0-4.3-1.9-4.3-4.3v-45.4c0-2.4,1.9-4.3,4.3-4.3h85.4c2.4,0,4.3,1.9,4.3,4.3v45.4
				C1663.3,277.6,1661.4,279.5,1659,279.5z"/>
			<rect x="1699.1" y="219.8" class="st7" width="103.9" height="65.5"/>
			<path class="st8" d="M1793.8,279.5h-85.4c-2.4,0-4.3-1.9-4.3-4.3v-45.4c0-2.4,1.9-4.3,4.3-4.3h85.4c2.4,0,4.3,1.9,4.3,4.3v45.4
				C1798,277.6,1796.1,279.5,1793.8,279.5z"/>
			<path class="st4" d="M1477.1,365.6h-97.3h-2.2c-2.4,0-4.3-1.9-4.3-4.3V203.4c0-2.4,1.9-4.3,4.3-4.3H1480c2.4,0,4.3,1.9,4.3,4.3
				v157.9c0,2.4-1.9,4.3-4.3,4.3H1477.1z"/>
			<rect x="1381.2" y="220.9" class="st8" width="93.4" height="64.2"/>
			<path class="st7" d="M1380.8,222v-8.9c0-3.6,2.9-6.6,6.6-6.6h80.2c3.6,0,6.6,2.9,6.6,6.6v8.9H1380.8z"/>
			<path class="st7" d="M1380.8,285.9v8.9c0,3.6,2.9,6.6,6.6,6.6h80.2c3.6,0,6.6-2.9,6.6-6.6v-8.9H1380.8z"/>
			<path class="st9" d="M525.5,366.2v25.3h97.3v-25.3h2.2c2.4,0,4.3-1.9,4.3-4.3V204c0-2.4-1.9-4.3-4.3-4.3H522.6
				c-2.4,0-4.3,1.9-4.3,4.3v157.9c0,2.4,1.9,4.3,4.3,4.3L525.5,366.2L525.5,366.2z"/>
			<rect x="535.5" y="221.6" class="st8" width="86.9" height="64.6"/>
			<rect x="113.3" y="219.7" class="st7" width="56.3" height="65.5"/>
			<path class="st8" d="M122.2,279.5h38.5c2.4,0,4.3-1.9,4.3-4.3v-45.4c0-2.4-1.9-4.3-4.3-4.3h-38.5c-2.4,0-4.3,1.9-4.3,4.3v45.4
				C117.9,277.6,119.8,279.5,122.2,279.5z"/>
		</g>
	</g>
	<g id="Omriss_7_">
		<rect x="199.7" y="219.8" class="st10" width="103.9" height="65.5"/>
		<path class="st10" d="M294.3,279.3h-85.4c-2.4,0-4.3-1.9-4.3-4.3v-45.3c0-2.4,1.9-4.3,4.3-4.3h85.4c2.4,0,4.3,1.9,4.3,4.3v45.4
			C298.6,277.4,296.7,279.3,294.3,279.3z"/>
		<rect x="113.1" y="219.8" class="st10" width="56.6" height="65.5"/>
		<path class="st10" d="M160.4,279.3h-38.1c-2.4,0-4.3-1.9-4.3-4.3v-45.3c0-2.4,1.9-4.3,4.3-4.3h38.1c2.4,0,4.3,1.9,4.3,4.3v45.4
			C164.7,277.4,162.8,279.3,160.4,279.3z"/>
		<rect x="333.6" y="219.8" class="st10" width="103.9" height="65.5"/>
		<path class="st10" d="M428.3,279.3h-85.4c-2.4,0-4.3-1.9-4.3-4.3v-45.3c0-2.4,1.9-4.3,4.3-4.3h85.4c2.4,0,4.3,1.9,4.3,4.3v45.4
			C432.6,277.4,430.6,279.3,428.3,279.3z"/>
		<rect x="745" y="219.8" class="st10" width="103.9" height="65.5"/>
		<rect x="877.9" y="219.8" class="st10" width="103.9" height="65.5"/>
		<rect x="1010.7" y="219.8" class="st10" width="103.9" height="65.5"/>
		<path class="st10" d="M839.7,279.3h-85.4c-2.4,0-4.3-1.9-4.3-4.3v-45.3c0-2.4,1.9-4.3,4.3-4.3h85.4c2.4,0,4.3,1.9,4.3,4.3v45.4
			C844,277.4,842,279.3,839.7,279.3z"/>
		<rect x="1151.8" y="219.8" class="st10" width="103.9" height="65.5"/>
		<path class="st10" d="M1246.4,279.3H1161c-2.4,0-4.3-1.9-4.3-4.3v-45.3c0-2.4,1.9-4.3,4.3-4.3h85.4c2.4,0,4.3,1.9,4.3,4.3v45.4
			C1250.7,277.4,1248.8,279.3,1246.4,279.3z"/>
		<rect x="1564.4" y="219.8" class="st10" width="103.9" height="65.5"/>
		<path class="st10" d="M1659,279.3h-85.4c-2.4,0-4.3-1.9-4.3-4.3v-45.3c0-2.4,1.9-4.3,4.3-4.3h85.4c2.4,0,4.3,1.9,4.3,4.3v45.4
			C1663.3,277.4,1661.4,279.3,1659,279.3z"/>
		<rect x="1699.1" y="219.8" class="st10" width="103.9" height="65.5"/>
		<path class="st10" d="M1793.8,279.3h-85.4c-2.4,0-4.3-1.9-4.3-4.3v-45.3c0-2.4,1.9-4.3,4.3-4.3h85.4c2.4,0,4.3,1.9,4.3,4.3v45.4
			C1798,277.4,1796.1,279.3,1793.8,279.3z"/>
		<path class="st10" d="M183.9,361.3h18.3h13.9h6.9c1.8,0,3.5,0.6,4.8,1.7l19.8,9.1c1.4,1.1,3.1,1.7,4.8,1.7H340
			c1.8,0,3.5-0.6,4.9-1.8l18.5-8.9c1.4-1.1,3.1-1.8,4.9-1.8h7.5H389h14.5h3.9v9.2l-22.4,1.4c-0.5,0-0.9,0.1-1.3,0.3l-12.8,3.7
			l-7.2,2.1l-4.4,1.2c-1.1,0.3-2.1,1-2.9,1.8l-13.9,16.1c-1.2,1.3-2.9,2.1-4.6,2.1H255c-1.8,0-3.5-0.7-4.6-2.1L236.3,381
			c-0.8-0.9-1.9-1.6-3.1-1.9l-5-1.3l-7.1-1.8l-12.8-3.3c-0.4-0.1-0.8-0.2-1.1-0.2l-23.4-1.4L183.9,361.3z"/>
		<circle class="st10" cx="396.4" cy="389" r="7.6"/>
		<path class="st10" d="M189.3,361.3c2.1-0.5,4.3-0.8,6.6-0.8s4.5,0.3,6.6,0.8"/>
		<polyline class="st10" points="345.9,343.8 345.9,355.9 327.9,355.9 317.8,349.6 274.5,349.6 263.7,355.6 		"/>
		<polyline class="st10" points="350.7,368.7 350.7,352.9 345.9,343.8 		"/>
		<polyline class="st10" points="250.9,372.5 250.9,368.7 266.3,368.7 263.7,355.6 247.2,355.6 247.2,343.5 		"/>
		<line class="st10" x1="333.6" y1="355.9" x2="343.5" y2="373.1"/>
		<path class="st10" d="M430.8,386.9c0,0.7,0.1,1.4,0.1,2.1c0,19-15.4,34.4-34.4,34.4S362.1,408,362.1,389c0-3.8,0.6-7.5,1.8-10.9"
			/>
		<path class="st10" d="M375.9,361.4c5.8-4.3,12.9-6.8,20.6-6.8c8.2,0,15.8,2.9,21.7,7.7"/>
		<path class="st10" d="M389.7,361.4c2.2-0.5,4.4-0.8,6.8-0.8c2.3,0,4.6,0.3,6.7,0.8"/>
		<path class="st10" d="M407.6,362.9c10.1,4.3,17.3,14.4,17.3,26.1c0,15.6-12.7,28.4-28.4,28.4c-15.7,0-28.4-12.7-28.4-28.4
			c0-4.7,1.1-9.1,3.2-13"/>
		<circle class="st10" cx="195.4" cy="389.1" r="7.6"/>
		<path class="st10" d="M216,361.6c-0.1-0.1-0.2-0.2-0.4-0.3c-5.7-4.2-12.7-6.6-20.2-6.6c-6.7,0-13,1.9-18.3,5.3"/>
		<path class="st10" d="M228.1,378.3c1.1,3.4,1.8,7.1,1.8,10.9c0,19-15.4,34.4-34.4,34.4c-18.8,0-34.1-15.1-34.4-33.9"/>
		<path class="st10" d="M220.7,376.1c2,3.9,3.2,8.3,3.2,13c0,15.6-12.7,28.4-28.4,28.4c-15.6,0-28.4-12.7-28.4-28.4
			c0-11.6,6.9-21.5,16.8-25.9"/>
		<path class="st10" d="M1819,371.3l-23.4,1.4c-0.4,0-0.8,0.1-1.1,0.2l-12.8,3.3l-7.1,1.8l-5,1.3c-1.2,0.3-2.3,1-3.1,1.9l-14.1,16.1
			c-1.1,1.3-2.8,2.1-4.6,2.1h-82.9c-1.8,0-3.5-0.8-4.6-2.1l-13.9-16.1c-0.8-0.9-1.8-1.5-2.9-1.8l-4.4-1.2l-7.2-2.1l-12.8-3.7
			c-0.4-0.1-0.8-0.2-1.3-0.3l-22.4-1.4v-9.2h3.9h14.5h13.2h7.5c1.8,0,3.5,0.6,4.9,1.8l18.5,8.9c1.4,1.2,3.1,1.8,4.9,1.8h87.6
			c1.8,0,3.5-0.6,4.8-1.7l19.8-9.1c1.4-1.1,3.1-1.7,4.8-1.7h6.9h13.9h18.3L1819,371.3z"/>
		<circle class="st10" cx="1606.5" cy="389" r="7.6"/>
		<path class="st10" d="M1800.4,361.3c2.1-0.5,4.3-0.8,6.6-0.8s4.5,0.3,6.6,0.8"/>
		<polyline class="st10" points="1657.1,343.8 1657.1,355.9 1675.1,355.9 1685.2,349.6 1728.5,349.6 1739.3,355.6 		"/>
		<polyline class="st10" points="1652.3,368.7 1652.3,352.9 1657.1,343.8 		"/>
		<polyline class="st10" points="1752.1,372.5 1752.1,368.7 1736.7,368.7 1739.3,355.6 1755.8,355.6 1755.8,343.5 		"/>
		<line class="st10" x1="1669.4" y1="355.9" x2="1659.5" y2="373.1"/>
		<path class="st10" d="M1587,360.7c5.5-3.8,12.3-6.1,19.5-6.1c7.7,0,14.8,2.5,20.6,6.8"/>
		<path class="st10" d="M1639.2,378.2c1.1,3.4,1.8,7.1,1.8,10.9c0,19-15.4,34.4-34.4,34.4s-34.4-15.4-34.4-34.4c0-0.3,0-0.6,0-0.8"
			/>
		<path class="st10" d="M1613.3,361.4c-2.2-0.5-4.4-0.8-6.8-0.8c-2.3,0-4.6,0.3-6.7,0.8c-12.4,3-21.6,14.2-21.6,27.6
			c0,15.6,12.7,28.4,28.4,28.4c15.7,0,28.4-12.7,28.4-28.4c0-4.7-1.1-9.1-3.2-13"/>
		<circle class="st10" cx="1807.5" cy="389.1" r="7.6"/>
		<path class="st10" d="M1841.9,388.8c0,0.1,0,0.2,0,0.3c0,19-15.4,34.4-34.4,34.4s-34.4-15.4-34.4-34.4c0-3.8,0.6-7.5,1.8-10.9"/>
		<path class="st10" d="M1827.8,361.4c-5.7-4.2-12.7-6.6-20.3-6.6s-14.5,2.4-20.2,6.6c-0.1,0.1-0.3,0.2-0.4,0.3"/>
		<path class="st10" d="M1782.3,376.1c-2,3.9-3.2,8.3-3.2,13c0,15.6,12.7,28.4,28.4,28.4c15.6,0,28.4-12.7,28.4-28.4
			c0-13.4-9.2-24.6-21.6-27.6c-2.2-0.5-4.4-0.8-6.7-0.8c-2.4,0-4.6,0.3-6.8,0.8"/>
		<polygon class="st10" points="50.7,145.9 50.7,402 154.3,402 185.8,344.1 408.8,344.1 440.2,405.3 1562.9,405.3 1596,344.1 
			1819,344.1 1848.7,402 1950.7,402 1950.7,145.9 		"/>
		<rect x="598.9" y="221.7" class="st10" width="23.5" height="64.7"/>
		<path class="st10" d="M609,282.5h2.5c3.7,0,6.8-3,6.8-6.8v-43.6c0-3.7-3-6.8-6.8-6.8H609c-3.7,0-6.8,3-6.8,6.8v43.6
			C602.3,279.5,605.3,282.5,609,282.5z"/>
		<path class="st10" d="M525.8,365.6v25.3h97.3v-25.3h2.2c2.4,0,4.3-1.9,4.3-4.3V203.4c0-2.4-1.9-4.3-4.3-4.3H522.9
			c-2.4,0-4.3,1.9-4.3,4.3v157.9c0,2.4,1.9,4.3,4.3,4.3H525.8z"/>
		<rect x="535.5" y="221.7" class="st10" width="63.5" height="64.6"/>
		<path class="st10" d="M1380.1,365.6v25.3h97.3v-25.3h2.2c2.4,0,4.3-1.9,4.3-4.3V203.4c0-2.4-1.9-4.3-4.3-4.3h-102.4
			c-2.4,0-4.3,1.9-4.3,4.3v157.9c0,2.4,1.9,4.3,4.3,4.3H1380.1z"/>
		<rect x="1381.2" y="220.9" class="st10" width="93.4" height="64.2"/>
		<path class="st10" d="M1381.2,220.9V212c0-3.6,2.9-6.6,6.6-6.6h80.2c3.6,0,6.6,2.9,6.6,6.6v8.9"/>
		<path class="st10" d="M1381.2,284.8v8.9c0,3.6,2.9,6.6,6.6,6.6h80.2c3.6,0,6.6-2.9,6.6-6.6v-8.9"/>
		<line class="st10" x1="1380.1" y1="365.6" x2="1477.4" y2="365.6"/>
		<line class="st10" x1="525.8" y1="365.6" x2="623.8" y2="365.6"/>
		<line class="st10" x1="14" y1="177.8" x2="14" y2="369.6"/>
		<line class="st10" x1="26.1" y1="177.8" x2="26.1" y2="369.6"/>
		<polyline class="st10" points="50.2,178 44.2,170.4 38.1,178 32.1,170.4 26.2,177.9 20.1,170.3 14,177.9 8,170.3 1.9,177.9 		"/>
		<polyline class="st10" points="50.5,369.8 44.5,377.3 38.4,369.8 32.2,377.3 26.2,369.7 20.1,377.3 14,369.7 8,377.3 1.9,369.7 		
			"/>
		<line class="st10" x1="38.1" y1="178" x2="38.1" y2="369.8"/>
		<path class="st11" d="M338.2,399.4v4.9c0,0,0,1,1.3,1.5s5.2,2,5.2,2s0.2,1.9-0.8,2.3c-1,0.3-3,1.5-10.2,1.5c-7.1,0-32.3,0-32.3,0
			h-4.6c0,0-30.1,0-37.2,0s-9.2-1.2-10.2-1.5s-0.8-2.3-0.8-2.3s3.9-1.5,5.2-2s1.3-1.5,1.3-1.5v-4.9"/>
	</g>
</g>
</svg>
