<?xml version="1.0" encoding="utf-8"?>
<!-- Generator: Adobe Illustrator 22.0.1, SVG Export Plug-In . SVG Version: 6.00 Build 0)  -->
<svg version="1.1" id="Type_69_H" xmlns="http://www.w3.org/2000/svg" xmlns:xlink="http://www.w3.org/1999/xlink" x="0px" y="0px"
	 viewBox="0 0 1780 420" style="enable-background:new 0 0 1780 420;" xml:space="preserve">
<metadata><?xpacket begin="﻿" id="W5M0MpCehiHzreSzNTczkc9d"?>
<x:xmpmeta xmlns:x="adobe:ns:meta/" x:xmptk="Adobe XMP Core 5.6-c143 79.161210, 2017/08/11-10:28:36        ">
   <rdf:RDF xmlns:rdf="http://www.w3.org/1999/02/22-rdf-syntax-ns#">
      <rdf:Description rdf:about=""/>
   </rdf:RDF>
</x:xmpmeta>
                                                                                                    
                                                                                                    
                                                                                                    
                                                                                                    
                                                                                                    
                                                                                                    
                                                                                                    
                                                                                                    
                                                                                                    
                                                                                                    
                                                                                                    
                                                                                                    
                                                                                                    
                                                                                                    
                                                                                                    
                                                                                                    
                                                                                                    
                                                                                                    
                                                                                                    
                                                                                                    
                           
<?xpacket end="w"?></metadata>
<style type="text/css">
	.st0{fill:#B1B3B3;}
	.st1{fill:#212322;}
	.st2{fill:#FFBF3F;}
	.st3{fill:#444445;}
	.st4{fill:none;}
	.st5{fill:#DA291C;}
	.st6{fill:#30302F;}
	.st7{fill:#FA4616;}
	.st8{fill:#878787;}
</style>
<g id="Mål_4_">
</g>
<g>
	<g id="Farger_4_">
		<g id="grunnfarger">
			<g>
				<polygon class="st0" points="169.9,134.3 183.4,111.3 396.9,111.3 396.9,114.5 1474.1,114.5 1486.1,134.3 1779.3,134.3 
					1779.3,359.5 1410.9,359.5 1373.7,381.4 1229.8,381.4 1193.3,359.4 670.7,359.4 632.5,381.4 487.9,381.4 450.5,359.6 
					64.5,359.6 64.5,303 59,300.6 59,275.3 63.5,273.3 63.5,269.5 59.7,266.7 87.1,148.4 91.4,148.4 91.4,130 155,130 155,134.2 
									"/>
			</g>
			<g>
				<path class="st1" d="M360.1,406.4c5.4,7.6,14.3,12.6,24.3,12.6c13,0,24.1-8.4,28.1-20.1l-0.1,0.3c4.2,3.7,9.5,6.6,9.5,6.6
					l0.2,0.1c0,0,2-6.8,5.6-5.6c0,0,0.9-14.7,0.3-15.5c-0.6-0.7-15.2-9.5-15.2-9.5c-0.4-0.2-1.6-1.1-2.5-1.8
					c-0.8-0.5-1.4-1.2-1.9-1.9c-5.4-7.3-14.1-12.1-23.9-12.1l-37.4,0.1l-15.5,6.3h-6.4v-6.4c0,0-40.1-0.3-40.4,0l-0.1,6.4h-7
					L263,360l-38.4-0.3c-9.8,0-17.4,3.9-23.2,11.4c0,0.1-2.6,2.6-3.5,3.2c-4.4,2.7-16.1,10.1-16.6,10.7c-0.6,0.7,0.3,15.5,0.3,15.5
					c3.6-1.3,5.6,5.6,5.6,5.6s5.2-3.6,9.3-6.9c4.1,11.6,15.1,19.9,28,19.9c9.5,0,18-4.5,23.5-11.5v0.3l5.1-0.5v1.5h41.7v-7.3v0.1
					h18.8v-0.1v7.3h41.7l4.5-2.3L360.1,406.4"/>
			</g>
			<g>
				<path class="st2" d="M173.4,359.7v9.7l-18.7,29.1H71.8c0,0,15.9-4.2,15.8-16.1c0-0.4-9.4,0.3-9.5-0.2c0,0,0-8.9,0-12.2h4.3
					c-2.2-3.1-5.3-6.5-9.4-10.2"/>
			</g>
			<g>
				<polygon class="st1" points="26.6,319 57.5,319 43.7,309.9 31.5,309.9 				"/>
			</g>
			<g>
				<polygon class="st1" points="64.1,356.1 28.5,356.1 28.5,331.8 64.3,331.8 				"/>
			</g>
			<g>
				<path class="st1" d="M1636.1,406.2c5.4,7.6,14.3,12.6,24.3,12.6c13,0,24.1-8.4,28.1-20.1l-0.1,0.3c4.2,3.7,9.5,6.6,9.5,6.6
					l0.2,0.1c0,0,2-6.8,5.6-5.6c0,0,0.9-14.7,0.3-15.5c-0.6-0.7-15.2-9.5-15.2-9.5c-0.4-0.2-1.6-1.1-2.5-1.8
					c-0.8-0.5-1.4-1.2-1.9-1.9c-5.4-7.3-14.1-12.1-23.9-12.1l-37.2-0.1l-15.5,6.3h-6.4v-6.4c0,0-40.1-0.3-40.4,0l-0.1,6.4h-7
					l-14.6-5.9l-38.4-0.3c-9.8,0-17.4,3.9-23.2,11.4c0,0.1-2.6,2.6-3.5,3.2c-4.4,2.7-16.1,10.1-16.6,10.7
					c-0.6,0.7,0.3,15.5,0.3,15.5c3.6-1.3,5.6,5.6,5.6,5.6s5.2-3.6,9.3-6.9c4.1,11.6,15.1,19.9,28,19.9c9.5,0,18-4.5,23.5-11.5v0.3
					l5.1-0.5v1.5h41.7v-7.3v0.1h18.8v-0.1v7.3h41.7L1636.1,406.2L1636.1,406.2"/>
			</g>
			<g>
				<path class="st3" d="M1688.1,129.9h3.4c0,0,0.6,0.1,0.6-0.8c0-0.8-0.7-1.4-1.3-1.7c-0.4-0.2-1.8-0.6-2.8-0.8v-2.5h3.4
					c0,0,0.6,0.1,0.6-0.8c0-0.8-0.7-1.4-1.3-1.7c-0.4-0.2-2.6-0.7-3.6-0.9v-5.5h-6.4v5.6c-1,0.2-3.1,0.6-3.5,0.8
					c-0.5,0.3-1.3,0.8-1.3,1.7c0,0.8,0.6,0.8,0.6,0.8h3.4v2.5c-1,0.2-2.4,0.6-2.8,0.8c-0.5,0.3-1.3,0.8-1.3,1.7
					c0,0.8,0.6,0.8,0.6,0.8h3.4H1688.1L1688.1,129.9z"/>
			</g>
			<g>
				<line class="st4" x1="1688.1" y1="120.9" x2="1680.1" y2="120.9"/>
			</g>
			<g>
				<line class="st4" x1="1688.1" y1="126.7" x2="1680.1" y2="126.7"/>
			</g>
			<g>
				<path class="st3" d="M1737.7,129.9h3.4c0,0,0.6,0.1,0.6-0.8c0-0.8-0.7-1.4-1.3-1.7c-0.4-0.2-1.8-0.6-2.8-0.8v-2.5h3.4
					c0,0,0.6,0.1,0.6-0.8c0-0.8-0.7-1.4-1.3-1.7c-0.4-0.2-2.6-0.7-3.6-0.9v-5.5h-6.4v5.6c-1,0.2-3.1,0.6-3.5,0.8
					c-0.5,0.3-1.3,0.8-1.3,1.7c0,0.8,0.6,0.8,0.6,0.8h3.4v2.5c-1,0.2-2.4,0.6-2.8,0.8c-0.5,0.3-1.3,0.8-1.3,1.7
					c0,0.8,0.6,0.8,0.6,0.8h3.4H1737.7L1737.7,129.9z"/>
			</g>
			<g>
				<line class="st4" x1="1737.7" y1="120.9" x2="1729.7" y2="120.9"/>
			</g>
			<g>
				<line class="st4" x1="1737.7" y1="126.7" x2="1729.7" y2="126.7"/>
			</g>
			<g>
				<rect x="1729.6" y="108.9" class="st3" width="7.7" height="4.7"/>
			</g>
			<g>
				<rect x="1680.2" y="108.9" class="st3" width="7.7" height="4.7"/>
			</g>
			<g>
				<rect x="1700.1" y="106" class="st3" width="17.3" height="5.9"/>
			</g>
			<g>
				<rect x="396.9" y="114.4" class="st1" width="1055.3" height="19.8"/>
			</g>
			<g>
				<path class="st1" d="M1141.4,359.7h-98.9v0.1h-52h-6.7h-49.1h-6.2H879h-4.5h-97l0,0h-88.4c-0.9,0-1.7,0.8-1.7,1.7v28.4
					c0,0.9,0.8,1.7,1.7,1.7h91.1c0.9,0,1.7-0.8,1.7-1.7v-4.5h97V379h49.6h6.2h49.1h6.7h56.1v-9.4h94.9L1141.4,359.7L1141.4,359.7z"
					/>
			</g>
			<g>
				<path class="st3" d="M1769.7,359.2l6.2-0.4l2.9-3.2c0,0,0.3,15.6,0,15.9c-0.2,0.2-9.1,0-9.1,0V359.2"/>
			</g>
			<g>
				<line class="st4" x1="1626.6" y1="123.3" x2="1618.7" y2="123.3"/>
			</g>
			<g>
				<path class="st3" d="M1496.3,64.5l1,1.4l2.1-0.2l7.6-14.6l10.4,4.7l74.4,40.3l-17.1,0.1v5.4l-33.5,0.4l0.1,10h-0.6l-0.2,6.2
					l-2.9,0.8l-0.1,1.5l3.7,0.3l-0.2,1.5l-3.6,1l0.1,1.4h2.7l-0.1,1.5l-2.7,1l0.1,1.4l4.7,0.1l0.2,5h4.8l-0.2-5.2h4.9l-0.1-1
					l-3.4-1.8l0.1-1l3.1-0.1l-0.2-1.2l-3-1.4v-1.5l3.1-0.1l0.2-1.1l-3.5-1.5l0.2-6.4l-0.8-0.2l0.2-3.5l73.3,0.1v3.9l-0.9,0.2
					l0.3,6.2l-3.1,1.7l2.8,1v1.2c0,0-2.6,1.8-3.1,1.9s3.1,1.1,3.1,1.1l-3.4,2.6l0.7,0.9l4.5,0.1l0.1,5l4.8,0.1v-5.1h4.7
					c0,0,0.2-1.8,0-1.8s-3.7-1.5-3.7-1.5v-0.8h4v-1.4l-4.4-1.4v-1.3h4.4V119l-3.7-1.1v-6.2h-0.6v-3.8h0.5v-6.1h-24l1.4-2.8l-1.9-2.8
					l-81.2-42.7l89.3-35.8v-6.2l17.7-0.6V9.5h-37.5l0.6,2.3h10.4L1559.2,28l-0.6-0.9l-53,21.2l-0.3,2L1496.3,64.5z M1514.6,49.2
					l45.1-18.4l-0.7-1.2l43.6-17.5h8v3.1L1520.4,52L1514.6,49.2z"/>
			</g>
		</g>
		<g id="Profilering_5_">
			<g id="rødt_nederst_1_">
				<path class="st5" d="M1779.7,272v81c0,3.8-0.9,7.1-0.9,7.1l-367.2-0.1l-38.1,22.1l-144.3,0.2l-35.9-22H670.7l-38.1,22L488,382.7
					l-38.3-22.6l-385-0.1c-0.1-0.3-0.2-2.9-0.2-6.7l0.2-51.2c12.8,0,61.5-0.4,61.5-0.4l28.8-29.4L1779.7,272z"/>
			</g>
			<g id="sort_bak_vinduer_1_">
				<polyline class="st6" points="155.2,272 223.2,198 1779.7,198 1779.7,272 158.4,272 				"/>
			</g>
			<g>
				<path class="st5" d="M1613.8,165.7L82.9,165.8l-1.6,8.2c-0.8,0.9-2.2,10.1-2.7,11.2l-2.3,12.9h147.8h1419.7"/>
			</g>
			<g>
				<g>
					<rect x="61.9" y="296.3" class="st0" width="1718.2" height="6.7"/>
				</g>
			</g>
			<g>
				<g>
					<polygon class="st0" points="1779.7,313.2 1565.7,313.2 1443,174.2 248.7,174.2 118.5,313.2 64.5,313.2 64.5,309.8 117,309.8 
						247.2,170.8 1444.5,170.8 1567.2,309.8 1779.7,309.8 					"/>
				</g>
			</g>
		</g>
		<g id="Dører_og_vinduer_4_">
			<g>
				<rect x="1249.1" y="135.6" class="st7" width="105.3" height="225.3"/>
			</g>
			<g>
				<path class="st8" d="M1338.5,268.8h-21.7c-3.4,0-6.1-2.7-6.1-6.1v-43.5c0-3.4,2.7-6.1,6.1-6.1h21.7c3.4,0,6.1,2.7,6.1,6.1v43.5
					C1344.5,266.1,1341.9,268.8,1338.5,268.8z"/>
			</g>
			<g>
				<path class="st8" d="M1286.9,268.8h-21.7c-3.4,0-6.1-2.7-6.1-6.1v-43.5c0-3.4,2.7-6.1,6.1-6.1h21.7c3.4,0,6.1,2.7,6.1,6.1v43.5
					C1293,266.1,1290.1,268.8,1286.9,268.8z"/>
			</g>
			<g>
				<rect x="507.9" y="135.6" class="st7" width="105.3" height="225.3"/>
			</g>
			<g>
				<path class="st8" d="M597.7,268.8H576c-3.4,0-6.1-2.7-6.1-6.1v-43.5c0-3.4,2.7-6.1,6.1-6.1h21.7c3.4,0,6.1,2.7,6.1,6.1v43.5
					C603.8,266.1,601,268.8,597.7,268.8z"/>
			</g>
			<g>
				<path class="st8" d="M546.1,268.7h-21.7c-3.4,0-6.1-2.7-6.1-6.1v-43.5c0-3.4,2.7-6.1,6.1-6.1h21.7c3.4,0,6.1,2.7,6.1,6.1v43.5
					C552.2,266,549.5,268.7,546.1,268.7z"/>
			</g>
			<g>
				<path class="st8" d="M158.9,251.5h-11.4c-4.8,0-8.6-3.9-8.6-8.6v-31.4c0-4.8,3.9-8.6,8.6-8.6h11.4c4.8,0,8.6,3.9,8.6,8.6v31.4
					C167.6,247.7,163.7,251.5,158.9,251.5z"/>
			</g>
			<g>
				<path class="st0" d="M111.4,252.6H93.6c-5.8,0-10.5-4.5-10.8-10.2c0-0.4,0-0.8,0.1-1.2l6-28.4c1.2-6.4,4.9-10.9,10.9-10.9h11.6
					c6,0,10.9,4.9,10.9,10.9v29C122.1,247.8,117.4,252.6,111.4,252.6z"/>
			</g>
			<g>
				<path class="st8" d="M447.5,270h-67.8c-4.5,0-8.1-3.6-8.1-8.1v-54.2c0-4.5,3.6-8.1,8.1-8.1h67.8c4.5,0,8.1,3.6,8.1,8.1v54.2
					C455.7,266.4,452,270,447.5,270z"/>
			</g>
			<g>
				<path class="st8" d="M297,270h-67.8c-4.5,0-8.1-3.6-8.1-8.1v-54.2c0-4.5,3.6-8.1,8.1-8.1H297c4.5,0,8.1,3.6,8.1,8.1v54.2
					C305.2,266.4,301.6,270,297,270z"/>
			</g>
			<g>
				<path class="st8" d="M1135.8,270H1068c-4.5,0-8.1-3.6-8.1-8.1v-54.2c0-4.5,3.6-8.1,8.1-8.1h67.8c4.5,0,8.1,3.6,8.1,8.1v54.2
					C1144,266.4,1140.3,270,1135.8,270z"/>
			</g>
			<g>
				<path class="st8" d="M1004.4,270h-67.8c-4.5,0-8.1-3.6-8.1-8.1v-54.2c0-4.5,3.6-8.1,8.1-8.1h67.8c4.5,0,8.1,3.6,8.1,8.1v54.2
					C1012.7,266.4,1009,270,1004.4,270z"/>
			</g>
			<g>
				<path class="st8" d="M871.9,270h-67.8c-4.5,0-8.1-3.6-8.1-8.1v-54.2c0-4.5,3.6-8.1,8.1-8.1h67.8c4.5,0,8.1,3.6,8.1,8.1v54.2
					C879.9,266.4,876.3,270,871.9,270z"/>
			</g>
			<g>
				<path class="st8" d="M740.8,270H673c-4.5,0-8.1-3.6-8.1-8.1v-54.2c0-4.5,3.6-8.1,8.1-8.1h67.8c4.5,0,8.1,3.6,8.1,8.1v54.2
					C749,266.4,745.3,270,740.8,270z"/>
			</g>
			<g>
				<path class="st8" d="M1651.2,270h-67.8c-4.5,0-8.1-3.6-8.1-8.1v-54.2c0-4.5,3.6-8.1,8.1-8.1h67.8c4.5,0,8.1,3.6,8.1,8.1v54.2
					C1659.3,266.4,1655.7,270,1651.2,270z"/>
			</g>
			<g>
				<path class="st8" d="M1492.8,270H1425c-4.5,0-8.1-3.6-8.1-8.1v-54.2c0-4.5,3.6-8.1,8.1-8.1h67.8c4.5,0,8.1,3.6,8.1,8.1v54.2
					C1501,266.4,1497.3,270,1492.8,270z"/>
			</g>
		</g>
	</g>
	<g id="Omriss_4_">
		<g>
			<path d="M1374.2,382.4h-144.6l-36.4-22H671l-38.2,22H487.7l-0.2-0.1l-37-21.7h-387v-56.9l-5.3-2.4v-26.6l4.3-2V270l-3.9-2.9
				l27.7-119.8h4V129H156v4.2l13.3,0.1l13.5-23h215.1v3.2h1076.7l12,19.8h293.7v227.2h-369L1374.2,382.4z M1230.1,380.4h143.5
				l37.1-21.9h367.5V135.3h-292.8l-12-19.8H395.9v-3.2H184l-13.5,23l-16.5-0.1V131H92.4v18.4H88L60.9,266.3l3.7,2.7v4.9l-4.3,2v24
				l5.3,2.4v56.2H451l37.2,21.8h144l38.2-22h523.3L1230.1,380.4z"/>
		</g>
		<g>
			<rect x="1749.7" y="103.3" transform="matrix(0.6221 -0.783 0.783 0.6221 566.1613 1416.8475)" width="2" height="37.3"/>
		</g>
		<g>
			<rect x="1645.7" y="121.3" transform="matrix(0.7829 -0.6222 0.6222 0.7829 285.3397 1062.1544)" width="37.5" height="2"/>
		</g>
		<g>
			<path d="M1737.4,114.4h-9.7v-6.7h9.7V114.4z M1729.7,112.4h5.7v-2.7h-5.7V112.4z"/>
		</g>
		<g>
			<path d="M1687.9,114.4h-9.7v-6.7h9.7V114.4z M1680.2,112.4h5.7v-2.7h-5.7V112.4z"/>
		</g>
		<g>
			<path d="M1717.4,112.6h-19.3v-7.9h19.3V112.6z M1700.1,110.6h15.3v-3.9h-15.3V110.6z"/>
		</g>
		<g>
			<rect x="1716.3" y="107.7" width="12.4" height="2"/>
		</g>
		<g>
			<rect x="1686.8" y="107.7" width="12.2" height="2"/>
		</g>
		<g>
			<path d="M1690.6,130.7C1690.6,130.7,1690.5,130.7,1690.6,130.7h-15.2c-0.6,0-1.6-0.5-1.6-1.8c0-1.5,1.3-2.2,1.8-2.6
				c0.4-0.2,1.4-0.5,2.3-0.7v-0.7h-2.4c-0.6,0-1.6-0.5-1.6-1.8c0-1.5,1.3-2.2,1.8-2.6c0.4-0.2,1.3-0.4,3-0.8V114h8.4v5.7
				c1,0.2,2.6,0.6,3,0.8c1.2,0.6,1.9,1.6,1.9,2.6c0,0.8-0.3,1.2-0.6,1.5c-0.3,0.3-0.8,0.4-1.1,0.3h-2.4v0.7c0.9,0.2,1.9,0.5,2.2,0.7
				c1.2,0.6,1.9,1.6,1.9,2.6c0,0.8-0.3,1.2-0.6,1.5C1691.3,130.6,1690.9,130.7,1690.6,130.7z M1675.9,128.7h14.2
				c-0.1-0.2-0.4-0.5-0.7-0.6c-0.3-0.1-1.5-0.5-2.6-0.7l-0.8-0.2v-4.3h3.9c-0.1-0.2-0.4-0.5-0.7-0.6c-0.3-0.1-2.2-0.6-3.4-0.8
				l-0.8-0.2V116h-4.4v5.4l-1.2,0.2c-0.8,0.1-2.5,0.5-2.9,0.6c-0.3,0.2-0.6,0.4-0.7,0.6h4v4.3l-0.8,0.2c-1,0.2-2.3,0.6-2.6,0.7
				C1676.3,128.3,1676,128.5,1675.9,128.7z"/>
		</g>
		<g>
			<rect x="1679.1" y="119.7" width="8" height="2"/>
		</g>
		<g>
			<rect x="1679.1" y="125.4" width="8" height="2"/>
		</g>
		<g>
			<path d="M1740.1,130.7L1740.1,130.7h-15.2c-0.6,0-1.6-0.5-1.6-1.8c0-1.5,1.3-2.2,1.8-2.6c0.4-0.2,1.4-0.5,2.3-0.7v-0.7h-2.4
				c-0.6,0-1.6-0.5-1.6-1.8c0-1.5,1.3-2.2,1.8-2.6c0.4-0.2,1.3-0.4,3-0.8V114h8.4v5.7c1,0.2,2.6,0.6,3,0.8c1.2,0.6,1.9,1.6,1.9,2.6
				c0,0.8-0.3,1.2-0.6,1.5c-0.3,0.3-0.8,0.4-1.1,0.3h-2.4v0.7c0.9,0.2,1.9,0.5,2.2,0.7c1.2,0.6,1.9,1.6,1.9,2.6
				c0,0.8-0.3,1.2-0.6,1.5C1740.8,130.6,1740.4,130.7,1740.1,130.7z M1725.4,128.7h14.2c-0.1-0.2-0.4-0.5-0.7-0.6
				c-0.3-0.1-1.5-0.5-2.6-0.7l-0.8-0.2v-4.3h3.9c-0.1-0.2-0.4-0.5-0.7-0.6c-0.3-0.1-2.2-0.6-3.4-0.8l-0.8-0.2V116h-4.4v5.4l-1.2,0.2
				c-0.8,0.1-2.5,0.5-2.9,0.6c-0.3,0.2-0.6,0.4-0.7,0.6h4v4.3l-0.8,0.2c-1,0.2-2.3,0.6-2.6,0.7
				C1725.8,128.3,1725.5,128.5,1725.4,128.7z"/>
		</g>
		<g>
			<rect x="1728.7" y="119.7" width="8" height="2"/>
		</g>
		<g>
			<rect x="1728.7" y="125.4" width="8" height="2"/>
		</g>
		<g>
			<rect x="1542" y="130.4" width="2" height="10.9"/>
		</g>
		<g>
			<rect x="1546" y="130.5" width="2" height="10.9"/>
		</g>
		<g>
			<rect x="1621.6" y="130.4" width="2" height="10.9"/>
		</g>
		<g>
			<rect x="1625.8" y="130.5" width="2" height="10.9"/>
		</g>
		<g>
			<rect x="1680.1" y="130.4" width="2" height="10.9"/>
		</g>
		<g>
			<rect x="1684.1" y="130.5" width="2" height="10.9"/>
		</g>
		<g>
			<rect x="1729.7" y="130.4" width="2" height="10.9"/>
		</g>
		<g>
			<rect x="1733.7" y="130.5" width="2" height="10.9"/>
		</g>
		<g>
			<rect x="1487.2" y="139.5" width="280.4" height="2"/>
		</g>
		<g>
			<rect x="1486.2" y="140.5" width="2" height="8.3"/>
		</g>
		<g>
			<rect x="1533" y="140.5" width="2" height="8.3"/>
		</g>
		<g>
			<rect x="1579.6" y="140.5" width="2" height="8.3"/>
		</g>
		<g>
			<rect x="1626.3" y="140.5" width="2" height="8.3"/>
		</g>
		<g>
			<rect x="1673.1" y="140.5" width="2" height="8.3"/>
		</g>
		<g>
			<rect x="1719.8" y="140.5" width="2" height="8.3"/>
		</g>
		<g>
			<rect x="1766.6" y="140.5" width="2" height="8.3"/>
		</g>
		<g>
			<rect x="169.9" y="133.3" width="1316.2" height="2"/>
		</g>
		<g>
			<rect x="469.9" y="114.4" width="2" height="19.9"/>
		</g>
		<g>
			<rect x="545.4" y="114.4" width="2" height="19.9"/>
		</g>
		<g>
			<rect x="621" y="114.4" width="2" height="19.9"/>
		</g>
		<g>
			<rect x="696.3" y="114.4" width="2" height="19.9"/>
		</g>
		<g>
			<rect x="771.8" y="114.4" width="2" height="19.9"/>
		</g>
		<g>
			<rect x="847.3" y="114.4" width="2" height="19.9"/>
		</g>
		<g>
			<rect x="922.9" y="114.4" width="2" height="19.9"/>
		</g>
		<g>
			<rect x="998.3" y="114.4" width="2" height="19.9"/>
		</g>
		<g>
			<rect x="1073.9" y="114.4" width="2" height="19.9"/>
		</g>
		<g>
			<rect x="1149.3" y="114.4" width="2" height="19.9"/>
		</g>
		<g>
			<rect x="1224.8" y="114.4" width="2" height="19.9"/>
		</g>
		<g>
			<rect x="1300.2" y="114.4" width="2" height="19.9"/>
		</g>
		<g>
			<rect x="1375.7" y="114.4" width="2" height="19.9"/>
		</g>
		<g>
			<rect x="1451.1" y="114.4" width="2" height="19.9"/>
		</g>
		<g>
			<rect x="395.9" y="114.5" width="2" height="20"/>
		</g>
		<g>
			<polygon points="1572.2,409.4 1528.6,409.4 1528.6,408 1524.6,408.4 1524.4,406.4 1530.6,405.8 1530.6,407.4 1570.2,407.4 
				1570.2,401.1 1572.2,401.1 			"/>
		</g>
		<g>
			<polygon points="1554.3,402.1 1540.2,402.1 1540.2,393.5 1542.2,393.5 1542.2,400.1 1554.3,400.1 			"/>
		</g>
		<g>
			<polygon points="1632,409.4 1589.1,409.4 1589.1,401.1 1591.1,401.1 1591.1,407.4 1631.5,407.4 1635.8,405.1 1636.7,406.9 			"/>
		</g>
		<g>
			<polygon points="1608.2,402.2 1608.2,400.2 1617.4,400.1 1614.9,397.4 1616.4,396 1621.9,402.1 			"/>
		</g>
		<g>
			<rect x="1600.8" y="360.3" width="2" height="6.2"/>
		</g>
		<g>
			<rect x="1560.3" y="360.3" width="2" height="6.2"/>
		</g>
		<g>
			<path d="M1501.5,394.4c-3,0-5.4-2.4-5.4-5.4s2.4-5.4,5.4-5.4s5.4,2.4,5.4,5.4S1504.4,394.4,1501.5,394.4z M1501.5,385.6
				c-1.9,0-3.4,1.5-3.4,3.4s1.5,3.4,3.4,3.4s3.4-1.5,3.4-3.4S1503.3,385.6,1501.5,385.6z"/>
		</g>
		<g>
			<path d="M1660.8,394.5c-3,0-5.4-2.4-5.4-5.4s2.4-5.4,5.4-5.4s5.4,2.4,5.4,5.4C1666.2,392.1,1663.8,394.5,1660.8,394.5z
				 M1660.8,385.7c-1.9,0-3.4,1.5-3.4,3.4s1.5,3.4,3.4,3.4s3.4-1.5,3.4-3.4C1664.2,387.2,1662.7,385.7,1660.8,385.7z"/>
		</g>
		<g>
			<path d="M1660.6,419.7c-16.9,0-30.7-13.8-30.7-30.7v-1.5h2v1.5c0,15.8,12.9,28.7,28.7,28.7c12.3,0,23.2-7.8,27.2-19.4l1.9,0.6
				C1685.4,411.3,1673.8,419.7,1660.6,419.7z"/>
		</g>
		<g>
			<path d="M1661,415c-14.9,0-27.1-12.3-27.1-27.3c0-0.9,0.1-2.2,0.1-2.3l2,0.2c0,0-0.1,1.3-0.1,2.1c0,14,11.3,25.3,25.1,25.3
				c10.7,0,20.3-6.9,23.8-17.2l1.9,0.6C1682.9,407.5,1672.6,415,1661,415z"/>
		</g>
		<g>
			<path d="M1501,419.6c-13.1,0-24.7-8.3-29-20.6l1.9-0.7c4,11.5,14.8,19.2,27.1,19.2c15.8,0,28.7-12.9,28.7-28.7l-0.2-1.7l2-0.2
				l0.2,1.9C1531.7,405.8,1517.9,419.6,1501,419.6z"/>
		</g>
		<g>
			<path d="M1500.6,414.6c-11.4,0-21.5-7.3-25.3-18.3l1.9-0.6c3.5,10.1,12.9,16.9,23.4,16.9c13.7,0,24.8-11.3,24.8-25.3l-0.2-1.5
				l2-0.2l0.2,1.7C1527.4,402.3,1515.4,414.6,1500.6,414.6z"/>
		</g>
		<g>
			<path d="M1462.8,407.3l-0.4-1.4c-0.3-1.1-1.4-4-3-4.8c-0.4-0.2-0.9-0.3-1.3-0.1l-1.2,0.4l-0.1-1.3c-0.9-15.2-0.4-15.9-0.1-16.2
				c0.4-0.4,3.8-2.6,14.4-9.4l2.4-1.5c0.8-0.5,2.9-2.4,3.3-2.9l0.1-0.1c6.1-7.9,14-11.8,24.1-11.8l38.7,0.3l14.6,5.9h53.6l15.5-6.2
				h37.4c9.7,0,18.9,4.7,24.7,12.5c0.4,0.6,1.1,1.2,1.7,1.7c0.3,0.2,0.7,0.5,1.1,0.8s1.1,0.7,1.2,0.8c5.6,3.4,14.9,9,15.5,9.7
				c0.3,0.4,0.9,1-0.1,16.2l-0.1,1.3l-1.2-0.4c-0.4-0.1-0.9-0.1-1.3,0.1c-1.6,0.8-2.7,3.8-3,4.8l-0.3,1.1l-1.3-0.6
				c-1.6-0.9-15.2-8.5-15.2-15.3c0-5.5-3.5-6.3-3.9-6.4c-0.8-0.2-4.9-0.2-7.6-0.1h-0.3l-4.6-2.6c-1.6-0.9-3.4-1.4-5.2-1.4
				c-1.8,0-3.6,0.5-5.1,1.4l-5.9,3.2h-13c-0.4,0-0.6,0.2-0.6,0.2l-0.2,0.1l-27.9,16.6h-54.3l-29.2-16.9c-0.1-0.1-0.3-0.1-0.4-0.1
				h-11.9l-5.8-3.2c-1.6-0.9-3.3-1.4-5.1-1.4c-1.9,0-3.7,0.5-5.2,1.4l-4.6,2.6h-0.3c-3.7,0-8,0-8.7,0.2c-1,0.4-3.4,1.6-3.5,4.7
				c0,0.3,0,0.7,0,1.1c0.1,1.6,0.2,3.3-1.3,4.9s-12.9,10.1-14.1,11L1462.8,407.3z M1675.3,382.4c1.7,0,3.3,0,3.9,0.2
				c0.5,0.1,5.5,1.3,5.5,8.4c0,4.5,8.9,10.5,13.3,13.1c0.6-1.5,1.8-3.9,3.6-4.9c0.5-0.3,1-0.4,1.6-0.4c0.4-6.1,0.6-12.5,0.4-13.8
				c-1.2-0.9-9.6-6.1-14.9-9.2c-0.2-0.1-0.7-0.4-1.4-1c-0.4-0.3-0.8-0.5-1.1-0.8c-0.8-0.6-1.6-1.4-2.2-2.2
				c-5.4-7.3-14-11.7-23.1-11.7h-37l-15.5,6.2H1554l-14.6-5.9l-38.3-0.3c-9.4,0-16.8,3.6-22.5,11l0,0c-0.9,1.3-3.8,3.5-3.8,3.5
				l-2.4,1.5c-4.4,2.8-12.4,7.9-13.9,8.9c-0.2,1.4,0,7.7,0.4,13.8c0.6,0,1.1,0.1,1.7,0.4c1.8,0.9,2.9,3.2,3.5,4.7
				c4-3,11.7-8.8,12.8-10c0.9-1,0.8-2,0.8-3.4c0-0.4,0-0.8,0-1.2c0.1-4.4,3.7-6.1,4.9-6.5c1.2-0.4,7-0.4,9.1-0.4l4.2-2.4
				c1.8-1.1,4-1.6,6.2-1.6s4.3,0.6,6.1,1.6l5.4,3h11.4c0.4,0,1,0.2,1.2,0.3l0.1,0.1l28.8,16.7h53.2l27.4-16.3
				c0.3-0.2,0.9-0.7,1.9-0.7h12.4l5.4-3c1.8-1.1,3.9-1.6,6.1-1.6s4.2,0.5,6.2,1.6l4.2,2.4C1672.2,382.4,1673.7,382.4,1675.3,382.4z
				 M1458.3,384.9L1458.3,384.9z M1703.5,384.8L1703.5,384.8L1703.5,384.8z"/>
		</g>
		<g>
			<rect x="1354.2" y="177.9" width="424.5" height="2"/>
		</g>
		<g>
			<rect x="613" y="177.9" width="635.9" height="2"/>
		</g>
		<g>
			<rect x="85.9" y="177.9" width="421.8" height="2"/>
		</g>
		<g>
			<rect x="1392.5" y="283.2" width="345.8" height="2"/>
		</g>
		<g>
			<rect x="1392.5" y="313.6" width="345.8" height="2"/>
		</g>
		<g>
			<path d="M1355.1,361.7h-107.2V198.6c0-5.1,4.1-9.2,9.2-9.2h88.9c5.1,0,9.2,4.1,9.2,9.2L1355.1,361.7z M1249.9,359.7h103.2
				l0.1-161.1c0-4-3.2-7.2-7.2-7.2h-88.9c-4,0-7.2,3.2-7.2,7.2V359.7z"/>
		</g>
		<g>
			<rect x="1300.5" y="190" width="2" height="170.7"/>
		</g>
		<g>
			<rect x="650.5" y="283.2" width="563" height="2"/>
		</g>
		<g>
			<rect x="650.5" y="313.6" width="563" height="2"/>
		</g>
		<g>
			<polygon points="295.7,409.7 251.9,409.7 251.9,408.4 248,408.8 247.8,406.8 253.9,406.2 253.9,407.7 293.7,407.7 293.7,401.4 
				295.7,401.4 			"/>
		</g>
		<g>
			<polygon points="277.8,402.5 263.7,402.5 263.7,393.9 265.7,393.9 265.7,400.5 277.8,400.5 			"/>
		</g>
		<g>
			<polygon points="355.5,409.7 312.4,409.7 312.4,401.4 314.4,401.4 314.4,407.7 355,407.7 359.3,405.5 360.2,407.3 			"/>
		</g>
		<g>
			<polygon points="345.2,402.5 331.8,402.5 331.8,400.5 340.8,400.5 338.3,397.6 339.8,396.3 			"/>
		</g>
		<g>
			<rect x="324" y="359.4" width="2" height="6.3"/>
		</g>
		<g>
			<rect x="283.6" y="359.4" width="2" height="6.3"/>
		</g>
		<g>
			<path d="M224.9,394.7c-3,0-5.4-2.4-5.4-5.4s2.4-5.4,5.4-5.4s5.4,2.4,5.4,5.4C230.3,392.3,227.9,394.7,224.9,394.7z M224.9,385.9
				c-1.9,0-3.4,1.5-3.4,3.4s1.5,3.4,3.4,3.4s3.4-1.5,3.4-3.4C228.3,387.4,226.8,385.9,224.9,385.9z"/>
		</g>
		<g>
			<path d="M384.4,394.9c-3,0-5.4-2.4-5.4-5.4s2.4-5.4,5.4-5.4s5.4,2.4,5.4,5.4S387.4,394.9,384.4,394.9z M384.4,386.1
				c-1.9,0-3.4,1.5-3.4,3.4s1.5,3.4,3.4,3.4s3.4-1.5,3.4-3.4S386.3,386.1,384.4,386.1z"/>
		</g>
		<g>
			<path d="M384.2,420c-16.9,0-30.7-13.8-30.7-30.7v-1.5h2v1.5c0,15.8,12.9,28.7,28.7,28.7c12.3,0,23.2-7.8,27.2-19.4l1.9,0.6
				C409,411.6,397.3,420,384.2,420z"/>
		</g>
		<g>
			<path d="M384.7,415.4c-14.9,0-27.1-12.3-27.1-27.3c0-0.9,0.1-2.2,0.1-2.3l2,0.2c0,0-0.1,1.3-0.1,2.1c0,14,11.3,25.3,25.1,25.3
				c10.7,0,20.3-6.9,23.8-17.2l1.9,0.6C406.6,407.9,396.2,415.4,384.7,415.4z"/>
		</g>
		<g>
			<path d="M224.3,419.9c-13.1,0-24.7-8.3-29-20.6l1.9-0.7c4,11.5,14.8,19.2,27.1,19.2c15.8,0,28.7-12.9,28.7-28.7l-0.2-1.7l2-0.2
				l0.2,1.9C255,406.1,241.2,419.9,224.3,419.9z"/>
		</g>
		<g>
			<path d="M224,414.9c-11.4,0-21.5-7.3-25.3-18.3l1.9-0.6c3.5,10.1,12.9,16.9,23.4,16.9c13.7,0,24.8-11.3,24.8-25.2l-0.2-1.5l2-0.2
				l0.2,1.7C250.8,402.6,238.8,414.9,224,414.9z"/>
		</g>
		<g>
			<path d="M186.3,407.6l-0.4-1.4c-0.3-1.1-1.4-4-3-4.8c-0.4-0.2-0.9-0.3-1.3-0.1l-1.3,0.4l-0.1-1.3c-0.9-15.2-0.4-15.9-0.1-16.2
				c0.4-0.4,3.8-2.6,14.5-9.4l2.3-1.5c0.8-0.5,2.9-2.4,3.3-2.9l0.1-0.1c6-7.7,14.1-11.7,24.1-11.8l38.7,0.3l14.6,5.9h53.6l15.5-6.2
				h37.4c9.7,0,18.9,4.7,24.7,12.5c0.4,0.6,1.1,1.2,1.7,1.7c0.3,0.2,0.7,0.5,1.1,0.8s1.1,0.7,1.2,0.8c5.6,3.4,14.9,9,15.5,9.7
				c0.3,0.4,0.9,1-0.1,16.2l-0.1,1.3l-1.2-0.4c-0.4-0.1-0.9-0.1-1.3,0.1c-1.6,0.8-2.7,3.8-3,4.8l-0.3,1.1l-1.3-0.6
				c-1.6-0.9-15.2-8.5-15.2-15.3c0-5.5-3.5-6.3-3.9-6.4c-0.8-0.2-4.9-0.2-7.6-0.1h-0.3l-4.6-2.6c-1.6-0.9-3.4-1.4-5.2-1.4
				c-1.8,0-3.6,0.5-5.1,1.4l-5.9,3.2h-13c-0.4,0-0.6,0.2-0.6,0.2l-0.2,0.1l-27.9,16.6h-54.3l-29.2-16.9c-0.1-0.1-0.3-0.1-0.4-0.1
				h-11.9L230,382c-1.6-0.9-3.3-1.4-5.1-1.4c-1.9,0-3.7,0.5-5.2,1.4l-4.7,2.6h-0.3c-3.7,0-8,0-8.7,0.2c-1,0.4-3.4,1.6-3.5,4.7
				c0,0.3,0,0.7,0,1.1c0.1,1.6,0.2,3.3-1.3,4.9s-12.9,10.1-14.1,11L186.3,407.6z M398.8,382.7c1.7,0,3.3,0,3.9,0.2
				c0.5,0.1,5.5,1.3,5.5,8.4c0,4.5,8.9,10.5,13.3,13.1c0.6-1.5,1.8-3.9,3.6-4.9c0.5-0.3,1-0.4,1.6-0.4c0.4-6.1,0.6-12.5,0.4-13.8
				c-1.2-0.9-9.6-6.1-14.9-9.2c-0.2-0.1-0.7-0.4-1.4-1c-0.4-0.3-0.8-0.5-1.1-0.8c-0.8-0.6-1.6-1.4-2.2-2.2
				c-5.4-7.3-14-11.7-23.1-11.7h-37l-15.5,6.2h-54.4l-14.6-5.9l-38.3-0.3c-9.5,0.1-16.9,3.7-22.5,11l0,0c-0.9,1.3-3.8,3.5-3.8,3.5
				l-2.3,1.5c-4.1,2.6-12.5,7.9-13.9,9c-0.2,1.4,0,7.7,0.4,13.8c0.6,0,1.1,0.1,1.7,0.4c1.8,0.9,2.9,3.2,3.5,4.7
				c4-3,11.7-8.8,12.8-10c0.9-1,0.8-2,0.8-3.4c0-0.4,0-0.8,0-1.2c0.1-4.4,3.7-6.1,4.9-6.5s7-0.4,9.1-0.4l4.2-2.4
				c1.8-1.1,4-1.6,6.2-1.6s4.3,0.6,6.1,1.6l5.4,3h11.4c0.4,0,1,0.2,1.2,0.3l0.1,0.1l28.8,16.7h53.2l27.4-16.3
				c0.3-0.2,0.9-0.7,1.9-0.7h12.4l5.4-3c1.8-1.1,3.9-1.6,6.1-1.6s4.2,0.5,6.2,1.6l4.2,2.4C395.7,382.7,397.3,382.7,398.8,382.7z
				 M181.9,385.2L181.9,385.2L181.9,385.2z M427,385.1L427,385.1L427,385.1z"/>
		</g>
		<g>
			<rect x="196.7" y="283.2" width="275.6" height="2"/>
		</g>
		<g>
			<rect x="196.7" y="313.6" width="275.6" height="2"/>
		</g>
		<g>
			<polygon points="186,316.6 175.2,316.6 175.2,314.6 184,314.6 184,276.8 174.9,276.8 174.9,274.8 186,274.8 			"/>
		</g>
		<g>
			<path d="M123.4,317h-7.3v-42.9h7.3V317z M118.1,315h3.3v-38.9h-3.3V315z"/>
		</g>
		<g>
			<path d="M176.2,323.4h-47.8V194.1h47.8V323.4z M130.4,321.4h43.8V196.1h-43.8V321.4z"/>
		</g>
		<g>
			<polygon points="136.4,288.2 129.2,288.2 129.2,286.2 134.4,286.2 134.4,266.4 129.4,266.4 129.4,264.4 136.4,264.4 			"/>
		</g>
		<g>
			<path d="M155.2,399.4H63.4l8.2-2c0.1,0,12.4-3.1,14.7-11.8c1.7-6.8-2.9-15.3-13.9-25.3l1.3-1.5c11.6,10.5,16.5,19.7,14.5,27.3
				c-1.5,5.8-6.6,9.3-10.7,11.3h76.6l18.3-28.4v-9.4h2v10L155.2,399.4z"/>
		</g>
		<g>
			<path d="M124.5,399.3l-0.6-1.9c0.3-0.1,0.7-0.2,1.2-0.3c4.9-1.2,19.9-4.7,24.2-18.2c1.4-4.5,1.2-8.1-0.6-10.9
				c-3.4-5.2-11.7-6.7-17.7-7.4l0.2-2c6.4,0.7,15.3,2.4,19.1,8.3c2.1,3.3,2.4,7.6,0.8,12.6c-4.6,14.6-20.4,18.3-25.6,19.5
				C125.1,399.2,124.8,399.3,124.5,399.3z"/>
		</g>
		<g>
			<polygon points="87.5,383.3 76.9,383.3 76.9,369.1 82.5,369.1 137.8,359.7 138.1,361.7 82.5,371.1 78.9,371.1 78.9,381.3 
				87.5,381.3 			"/>
		</g>
		<g>
			<rect x="68" y="359.6" width="2" height="10.6"/>
		</g>
		<g>
			<rect x="63.6" y="369.2" width="10.5" height="2"/>
		</g>
		<g>
			<polygon points="64.5,357 27.9,357 27.9,330.6 64.6,330.6 64.6,332.6 29.9,332.6 29.9,355 64.5,355 			"/>
		</g>
		<g>
			<path d="M1.7,367l-1.4-1.4c0.3-0.3,10-9.8,10.4-10.2l0.3-0.3h17.9v2H11.8C10.2,358.7,2,366.7,1.7,367z"/>
		</g>
		<g>
			<path d="M60.9,320h-36l6-11H44L60.9,320z M28.3,318h25.9l-10.7-7H32.1L28.3,318z"/>
		</g>
		<g>
			<polygon points="22.6,356.9 11.5,348 11.5,338.5 22.1,318 26.6,318 26.6,320 23.3,320 13.5,339 13.5,347.1 23.8,355.4 			"/>
		</g>
		<g>
			<rect x="43.5" y="319" width="2" height="12.6"/>
		</g>
		<g>
			<path d="M111.1,253.5H93.5c-6.3,0-11.5-4.9-11.8-11.2c0-0.5,0-1,0.1-1.5l6-28.4c1.4-7.3,5.8-11.7,11.9-11.7h11.6
				c6.6,0,11.9,5.3,11.9,11.9v29C122.9,248.2,117.5,253.5,111.1,253.5z M99.7,202.8c-5.1,0-8.7,3.7-9.9,10.1l-6,28.4
				c-0.1,0.3-0.1,0.6-0.1,1c0.3,5.1,4.6,9.2,9.8,9.2h17.6c5.4,0,9.9-4.4,10.1-9.8v-29c0-5.5-4.4-9.9-9.9-9.9H99.7z"/>
		</g>
		<g>
			<path d="M296.8,270.9H229c-5,0-9.1-4.1-9.1-9.1v-54.3c0-5,4.1-9.1,9.1-9.1h67.8c5,0,9.1,4.1,9.1,9.1v54.2
				C305.9,266.8,301.9,270.9,296.8,270.9z M229,200.4c-3.9,0-7.1,3.2-7.1,7.1v54.3c0,3.9,3.2,7.1,7.1,7.1h67.8
				c3.9,0,7.1-3.2,7.1-7.2v-54.2c0-3.9-3.2-7.1-7.1-7.1L229,200.4L229,200.4z"/>
		</g>
		<g>
			<rect x="221.2" y="224.6" width="83.8" height="2"/>
		</g>
		<g>
			<path d="M447.4,270.9h-67.8c-5,0-9.1-4.1-9.1-9.1v-54.3c0-5,4.1-9.1,9.1-9.1h67.8c5,0,9.1,4.1,9.1,9.1v54.2
				C456.4,266.9,452.4,270.9,447.4,270.9z M379.6,200.4c-3.9,0-7.1,3.2-7.1,7.1v54.3c0,3.9,3.2,7.1,7.1,7.1h67.8
				c3.9,0,7-3.2,7.1-7.2v-54.2c0-3.9-3.2-7.1-7.1-7.1L379.6,200.4L379.6,200.4z"/>
		</g>
		<g>
			<rect x="371.7" y="224.6" width="84" height="2"/>
		</g>
		<g>
			<path d="M740.7,270.9h-67.8c-5,0-9.1-4.1-9.1-9.1v-54.3c0-5,4.1-9.1,9.1-9.1h67.8c5,0,9.1,4.1,9.1,9.1v54.2
				C749.8,266.8,745.8,270.9,740.7,270.9z M672.9,200.4c-3.9,0-7.1,3.2-7.1,7.1v54.3c0,3.9,3.2,7.1,7.1,7.1h67.8
				c3.9,0,7.1-3.2,7.1-7.2v-54.2c0-3.9-3.2-7.1-7.1-7.1L672.9,200.4L672.9,200.4z"/>
		</g>
		<g>
			<rect x="665" y="224.6" width="84" height="2"/>
		</g>
		<g>
			<path d="M871.6,270.9h-67.8c-5,0-9.1-4.1-9.1-9.1v-54.3c0-5,4.1-9.1,9.1-9.1h67.8c5,0,9.1,4.1,9.1,9.1v54.2
				c0.1,2.4-0.9,4.7-2.6,6.4C876.4,269.9,874.1,270.9,871.6,270.9z M803.8,200.4c-3.9,0-7.1,3.2-7.1,7.1v54.3c0,3.9,3.2,7.1,7.1,7.1
				h67.8c1.9,0,3.7-0.8,5.1-2.2c1.3-1.4,2-3.1,2-5v-54.2c0-3.9-3.2-7.1-7.1-7.1L803.8,200.4L803.8,200.4z"/>
		</g>
		<g>
			<rect x="795.9" y="224.6" width="84" height="2"/>
		</g>
		<g>
			<path d="M1004.4,270.9h-67.8c-5,0-9.1-4.1-9.1-9.1v-54.3c0-5,4.1-9.1,9.1-9.1h67.8c5,0,9.1,4.1,9.1,9.1v54.2
				C1013.3,266.9,1009.3,270.9,1004.4,270.9z M936.5,200.4c-3.9,0-7.1,3.2-7.1,7.1v54.3c0,3.9,3.2,7.1,7.1,7.1h67.8
				c3.9,0,7-3.2,7.1-7.2v-54.2c0-3.9-3.2-7.1-7.1-7.1L936.5,200.4L936.5,200.4z"/>
		</g>
		<g>
			<rect x="928.6" y="224.6" width="84" height="2"/>
		</g>
		<g>
			<path d="M1135.5,270.9h-67.8c-5,0-9.1-4.1-9.1-9.1v-54.3c0-5,4.1-9.1,9.1-9.1h67.8c5,0,9.1,4.1,9.1,9.1v54.2
				c0.1,2.3-0.8,4.6-2.4,6.4C1140.4,269.9,1138,270.9,1135.5,270.9z M1067.7,200.4c-3.9,0-7.1,3.2-7.1,7.1v54.3
				c0,3.9,3.2,7.1,7.1,7.1h67.8c2,0,3.9-0.8,5.2-2.2c1.3-1.4,2-3.1,1.9-4.9v-54.3c0-3.9-3.2-7.1-7.1-7.1L1067.7,200.4L1067.7,200.4z
				"/>
		</g>
		<g>
			<rect x="1059.9" y="224.6" width="84" height="2"/>
		</g>
		<g>
			<path d="M1492.6,270.9h-67.8c-5,0-9.1-4.1-9.1-9.1v-54.3c0-5,4.1-9.1,9.1-9.1h67.8c5,0,9.1,4.1,9.1,9.1v54.2
				C1501.7,266.9,1497.7,270.9,1492.6,270.9z M1424.7,200.4c-3.9,0-7.1,3.2-7.1,7.1v54.3c0,3.9,3.2,7.1,7.1,7.1h67.8
				c4,0,7.1-3.2,7.1-7.2v-54.2c0-3.9-3.2-7.1-7.1-7.1L1424.7,200.4L1424.7,200.4z"/>
		</g>
		<g>
			<rect x="1416.9" y="224.6" width="84" height="2"/>
		</g>
		<g>
			<path d="M1651.1,270.9h-67.8c-5,0-9.1-4.1-9.1-9.1v-54.3c0-5,4.1-9.1,9.1-9.1h67.8c5,0,9.1,4.1,9.1,9.1v54.2
				C1660.2,266.7,1656.1,270.9,1651.1,270.9z M1583.3,200.4c-3.9,0-7.1,3.2-7.1,7.1v54.3c0,3.9,3.2,7.1,7.1,7.1h67.8
				c3.9,0,7.1-3.3,7.1-7.2v-54.2c0-3.9-3.2-7.1-7.1-7.1L1583.3,200.4L1583.3,200.4z"/>
		</g>
		<g>
			<rect x="1575.3" y="224.6" width="83.9" height="2"/>
		</g>
		<g>
			<path d="M158.4,252.5H147c-5.3,0-9.6-4.3-9.6-9.6v-31.4c0-5.3,4.3-9.6,9.6-9.6h11.4c5.3,0,9.6,4.3,9.6,9.6v31.4
				C168,248.3,163.8,252.5,158.4,252.5z M147,203.9c-4.2,0-7.6,3.4-7.6,7.6v31.4c0,4.2,3.4,7.6,7.6,7.6h11.4c4.3,0,7.6-3.3,7.6-7.6
				v-31.4c0-4.2-3.4-7.6-7.6-7.6H147z"/>
		</g>
		<g>
			<path d="M1338.2,269.7h-21.7c-4,0-7.1-3.1-7.1-7.1v-43.5c0-4,3.1-7.1,7.1-7.1h21.7c4,0,7.1,3.1,7.1,7.1v43.5
				c0.1,1.8-0.6,3.6-1.9,4.9C1342,268.9,1340.1,269.7,1338.2,269.7z M1316.5,214c-2.9,0-5.1,2.2-5.1,5.1v43.5c0,2.9,2.2,5.1,5.1,5.1
				h21.7c1.4,0,2.8-0.6,3.7-1.6c0.9-0.9,1.4-2.2,1.4-3.5v-43.5c0-2.9-2.2-5.1-5.1-5.1H1316.5z"/>
		</g>
		<g>
			<path d="M1286.5,269.7h-21.7c-4,0-7.1-3.1-7.1-7.1v-43.5c0-4,3.1-7.1,7.1-7.1h21.7c4,0,7.1,3.1,7.1,7.1v43.5
				c0.1,1.9-0.6,3.6-1.9,5C1290.3,269,1288.5,269.7,1286.5,269.7z M1264.8,214c-2.9,0-5.1,2.2-5.1,5.1v43.5c0,2.9,2.2,5.1,5.1,5.1
				h21.7c1.5,0,2.8-0.5,3.7-1.5c0.9-0.9,1.4-2.2,1.4-3.5v-43.5c0-2.9-2.2-5.1-5.1-5.1h-21.7V214z"/>
		</g>
		<g>
			<path d="M614.3,361.7H506.9V198.6c0-5.1,4.1-9.2,9.2-9.2H605c5.1,0,9.2,4.1,9.2,9.2L614.3,361.7L614.3,361.7z M508.9,359.7h103.3
				V198.6c0-4-3.2-7.2-7.2-7.2h-88.9c-4,0-7.2,3.2-7.2,7.2L508.9,359.7L508.9,359.7z"/>
		</g>
		<g>
			<path d="M597.5,269.7h-21.7c-4,0-7.1-3.1-7.1-7.1v-43.5c0-4,3.1-7.1,7.1-7.1h21.7c4,0,7.1,3.1,7.1,7.1v43.5
				C604.5,266.6,601.3,269.7,597.5,269.7z M575.8,214c-2.9,0-5.1,2.2-5.1,5.1v43.5c0,2.9,2.2,5.1,5.1,5.1h21.7c2.8,0,5-2.3,5.1-5.1
				v-43.5c0-2.9-2.2-5.1-5.1-5.1H575.8z"/>
		</g>
		<g>
			<path d="M545.7,269.7h-21.8c-4,0-7.1-3.1-7.1-7.1v-43.5c0-4,3.1-7.1,7.1-7.1h21.7c4,0,7.1,3.1,7.1,7.1v43.5
				C552.8,266.6,549.7,269.7,545.7,269.7z M523.9,214c-2.9,0-5.1,2.2-5.1,5.1v43.5c0,2.9,2.2,5.1,5.1,5.1h21.8c2.8,0,5-2.2,5-5.1
				v-43.5c0-2.9-2.2-5.1-5.1-5.1H523.9z"/>
		</g>
		<g>
			<rect x="559.7" y="190" width="2" height="170.7"/>
		</g>
		<g>
			<path d="M779.9,392.3h-91.1c-1.5,0-2.7-1.2-2.7-2.7v-28.4c0-1.5,1.2-2.7,2.7-2.7h91.1c1.5,0,2.7,1.2,2.7,2.7v28.4
				C782.6,391.1,781.4,392.3,779.9,392.3z M688.7,360.5c-0.3,0-0.7,0.4-0.7,0.7v28.4c0,0.3,0.4,0.7,0.7,0.7h91.1
				c0.4,0,0.7-0.3,0.7-0.7v-28.4c0-0.3-0.4-0.7-0.7-0.7H688.7z"/>
		</g>
		<g>
			<path d="M878.8,386.1h-96.5v-27.6h96.5V386.1z M784.3,384.1h92.5v-23.6h-92.5V384.1z"/>
		</g>
		<g>
			<path d="M934.5,379.7h-56.1v-21.2h56.1V379.7z M880.4,377.7h52.1v-17.2h-52.1V377.7z"/>
		</g>
		<g>
			<path d="M990.4,379.7h-56.1v-21.2h56.1V379.7z M936.3,377.7h52.1v-17.2h-52.1V377.7z"/>
		</g>
		<g>
			<path d="M1046.5,379.7h-56.1v-21.2h56.1V379.7z M992.3,377.7h52.1v-17.2h-52.1L992.3,377.7L992.3,377.7z"/>
		</g>
		<g>
			<path d="M1141.5,370.4H1046v-11.9h95.5V370.4z M1048,368.4h91.5v-7.9H1048V368.4z"/>
		</g>
		<g>
			<path d="M1776.6,372.3c-1.4,0-3.5,0-6.5-0.1h-1V359h2v11.2c2.9,0.1,5.8,0.1,7.2,0.1c0.1-2.4,0-9.7-0.1-14.5h2
				c0.2,15.6,0.1,15.7-0.3,16.1C1779.7,372.1,1779.5,372.3,1776.6,372.3z"/>
		</g>
		<g>
			<polygon points="1559.1,31 1557.8,27.5 1599.1,10.8 1599.9,12.6 1604.1,10.9 1604.9,12.7 			"/>
		</g>
		<g>
			<path d="M1629.4,13.3c-1,0-1.5-0.7-1.5-1.4l-0.4-9.2V0.5h3.8v2.2l-0.4,9.2C1630.9,12.6,1630.4,13.3,1629.4,13.3z M1628.9,11.9
				L1628.9,11.9L1628.9,11.9z M1629.9,11.8L1629.9,11.8C1629.9,11.9,1629.9,11.8,1629.9,11.8z"/>
		</g>
		<g>
			<path d="M1592.5,13.3c-1,0-1.5-0.7-1.5-1.4l-0.4-9.2V0.5h3.8v2.2L1594,12C1594,12.6,1593.5,13.3,1592.5,13.3z M1592,11.9
				L1592,11.9L1592,11.9z M1593,11.8L1593,11.8C1593,11.9,1593,11.8,1593,11.8z"/>
		</g>
		<g>
			<rect x="1611.6" y="8.4" width="17" height="2"/>
		</g>
		<g>
			<rect x="1611.6" y="10.8" width="17.1" height="2"/>
		</g>
		<g>
			<rect x="1593.2" y="8.4" width="17" height="2"/>
		</g>
		<g>
			<rect x="1593.2" y="10.8" width="17" height="2"/>
		</g>
		<g>
			<path d="M1610.8,22.7c-1,0-1.8-0.8-1.8-1.8V7.2c0-1,0.8-1.8,1.8-1.8s1.8,0.8,1.8,1.8v13.7C1612.6,21.9,1611.8,22.7,1610.8,22.7z"
				/>
		</g>
		<g>
			<path d="M1627.4,135h-6.4v-5.2h-4.1c-0.8,0-1.6-0.6-1.6-1.6c0-0.9,0.6-1.7,1.8-2.1h0.1h0.1h-0.1c-0.8,0-1.6-0.6-1.6-1.6
				c0-0.9,0.6-1.7,1.8-2.1h0.1c0.3-0.1,1.1-0.3,1.8-0.4h-2.3c-0.8,0-1.6-0.6-1.6-1.6c0-0.9,0.6-1.7,1.8-2.1h0.1
				c0.3-0.1,1.1-0.3,1.8-0.4v-6.4h9.6v6.4c0.6,0.1,1.1,0.3,1.5,0.4l0.5,0.1c1.2,0.5,1.8,1.2,1.8,2.1c0,1-0.8,1.6-1.6,1.6h-2.1
				c0.5,0.1,1,0.2,1.3,0.3l0.5,0.1c1.2,0.5,1.8,1.2,1.8,2.1c0,1-0.8,1.6-1.6,1.6h-0.9h0.1l0.5,0.1c1.2,0.5,1.8,1.2,1.8,2.1
				c0,1-0.8,1.6-1.6,1.6h-3.6v5H1627.4z M1623,133h2.4v-5.1h4.1c-0.5-0.1-1.3-0.3-1.8-0.4l-0.9-0.1V124h2.8
				c-0.5-0.1-1.3-0.3-1.8-0.4l-0.9-0.1v-3.7h2.8c-0.5-0.1-1.3-0.3-1.8-0.4l-0.9-0.1v-6.1h-5.6v6l-0.8,0.2c-0.6,0.1-1.3,0.3-1.9,0.4
				h2.7v3.6l-0.8,0.2c-0.5,0.1-1.1,0.2-1.6,0.4l2-0.1v3.3l-0.8,0.2c-0.6,0.1-1.3,0.3-1.9,0.4h4.5v5.2H1623z"/>
		</g>
		<g>
			<path d="M1547.7,135h-6.4v-5.2h-4.1c-0.8,0-1.6-0.6-1.6-1.6c0-0.9,0.6-1.7,1.8-2.1h0.1h0.1h-0.1c-0.8,0-1.6-0.6-1.6-1.6
				c0-0.9,0.6-1.7,1.8-2.1h0.1c0.3-0.1,1.1-0.3,1.8-0.4h-2.3c-0.8,0-1.6-0.6-1.6-1.6c0-0.9,0.6-1.7,1.8-2.1h0.1
				c0.3-0.1,1.1-0.3,1.8-0.4v-6.4h9.6v6.4c0.6,0.1,1.1,0.3,1.5,0.4l0.5,0.1c1.2,0.5,1.8,1.2,1.8,2.1c0,1-0.8,1.6-1.6,1.6h-2.1
				c0.5,0.1,1,0.2,1.3,0.3l0.5,0.1c1.2,0.5,1.8,1.2,1.8,2.1c0,1-0.8,1.6-1.6,1.6h-0.9h0.1l0.5,0.1c1.2,0.5,1.8,1.2,1.8,2.1
				c0,1-0.8,1.6-1.6,1.6h-3.6v5H1547.7z M1543.3,133h2.4v-5.1h4.1c-0.5-0.1-1.3-0.3-1.8-0.4l-0.9-0.1V124h2.8
				c-0.5-0.1-1.3-0.3-1.8-0.4l-0.9-0.1v-3.7h2.8c-0.5-0.1-1.3-0.3-1.8-0.4l-0.9-0.1v-6.1h-5.6v6l-0.8,0.2c-0.6,0.1-1.3,0.3-1.9,0.4
				h2.7v3.6l-0.8,0.2c-0.5,0.1-1.1,0.2-1.6,0.4l2-0.1v3.3l-0.8,0.2c-0.6,0.1-1.3,0.3-1.9,0.4h4.5v5.2H1543.3z"/>
		</g>
		<g>
			<path d="M1629.2,109.3h-89v-8.1h89V109.3z M1542.2,107.3h85v-4.1h-85V107.3z"/>
		</g>
		<g>
			<path d="M1628.6,113.2h-8.4v-5.9h8.4V113.2z M1622.2,111.2h4.4v-1.9h-4.4V111.2z"/>
		</g>
		<g>
			<path d="M1548.9,113.2h-8.4v-5.9h8.4V113.2z M1542.5,111.2h4.4v-1.9h-4.4V111.2z"/>
		</g>
		<g>
			<path d="M1553.4,103.2h-3.8l-0.3-0.2l-51.4-36.2l1.2-1.6l24.7,17.4c-6.6-4.6-14.6-10.3-24.5-17.3l-0.8-0.6l2-2.8l-0.5-0.8
				l-1.9,3.4l-1.8-1l3.5-6.4l3.1,4.8l-1.6,2.2c18.3,12.9,51.8,36.5,52.6,37.1l-0.5,0.8L1553.4,103.2L1553.4,103.2z M1550.2,101.2
				L1550.2,101.2c-0.8-0.6-1.8-1.3-3.1-2.2L1550.2,101.2z"/>
		</g>
		<g>
			<polygon points="1502.5,62.4 1500.7,61.5 1505.8,51.6 1505.6,51.6 1500.5,59.5 1498.8,58.4 1504.8,49.1 1508.6,50.6 			"/>
		</g>
		<g>
			<path d="M1507.2,52.1c-1.5,0-2.7-1.2-2.7-2.7s1.2-2.7,2.7-2.7s2.7,1.2,2.7,2.7S1508.7,52.1,1507.2,52.1z M1507.2,48.7
				c-0.4,0-0.7,0.3-0.7,0.7s0.3,0.7,0.7,0.7c0.4,0,0.7-0.3,0.7-0.7C1507.9,49,1507.6,48.7,1507.2,48.7z"/>
		</g>
		<g>
			<path d="M1514.6,55.3c-1.8,0-3.2-1.4-3.2-3.2s1.4-3.2,3.2-3.2s3.2,1.4,3.2,3.2C1517.8,53.9,1516.3,55.3,1514.6,55.3z
				 M1514.6,50.9c-0.7,0-1.2,0.5-1.2,1.2s0.5,1.2,1.2,1.2s1.2-0.5,1.2-1.2S1515.2,50.9,1514.6,50.9z"/>
		</g>
		<g>
			<rect x="1511.2" y="45.1" transform="matrix(0.3399 -0.9405 0.9405 0.3399 951.7314 1454.866)" width="2" height="8.8"/>
		</g>
		<g>
			<rect x="1508.2" y="47.9" transform="matrix(0.4073 -0.9133 0.9133 0.4073 847.0995 1409.1045)" width="2" height="8.1"/>
		</g>
		<g>
			<polygon points="1513.9,50.7 1513.1,48.8 1558.4,30 1557.7,28.3 1507.5,48.6 1506.8,46.7 1558.8,25.7 1561,31.1 			"/>
		</g>
		<g>
			<rect x="1552.8" y="31" transform="matrix(0.474 -0.8805 0.8805 0.474 750.8257 1407.9048)" width="2" height="89.1"/>
		</g>
		<g>
			<path d="M1599.2,103.2h-25.5v-7.8h25.5V103.2z M1575.7,101.2h21.5v-3.8h-21.5V101.2z"/>
		</g>
		<g>
			<rect x="1620.6" y="117.5" width="7.6" height="2"/>
		</g>
		<g>
			<rect x="1620.6" y="119.8" width="7.6" height="2"/>
		</g>
		<g>
			<rect x="1620.6" y="121.7" width="7.6" height="2"/>
		</g>
		<g>
			<rect x="1620.6" y="124" width="7.6" height="2"/>
		</g>
		<g>
			<rect x="1540.8" y="117.5" width="7.7" height="2"/>
		</g>
		<g>
			<rect x="1540.8" y="119.8" width="7.7" height="2"/>
		</g>
		<g>
			<rect x="1540.8" y="121.7" width="7.7" height="2"/>
		</g>
		<g>
			<rect x="1540.8" y="124" width="7.7" height="2"/>
		</g>
		<g>
			<rect x="1559.4" y="24" transform="matrix(0.4683 -0.8836 0.8836 0.4683 764.3246 1418.0364)" width="2" height="100"/>
		</g>
		<g>
			<path d="M1522.3,54.5l-5.4-2.3l94.1-38v1.4c0,0,0.1,3,0.1,3.1c0,0.7,0,0.7-4.4,2.4c-2.4,1-5.8,2.3-10,3.9
				c-8.2,3.2-19.2,7.6-30.2,11.9c-22,8.6-43.9,17.3-43.9,17.3L1522.3,54.5z M1522.1,52.3l0.2,0.1c28.4-11.2,80.6-31.7,86.8-34.2
				c0-0.3,0-0.6,0-1L1522.1,52.3z"/>
		</g>
		<g>
			<path d="M1602.5,103.4c-2.2,0-3.9-1.8-3.9-3.9c0-2.2,1.7-3.9,3.9-3.9c2.2,0,3.9,1.8,3.9,3.9S1604.7,103.4,1602.5,103.4z
				 M1602.5,97.6c-1,0-1.9,0.9-1.9,1.9s0.9,1.9,1.9,1.9s1.9-0.9,1.9-1.9C1604.4,98.4,1603.6,97.6,1602.5,97.6z"/>
		</g>
	</g>
</g>
</svg>
