<?xml version="1.0" encoding="utf-8"?>
<!-- Generator: Adobe Illustrator 22.0.1, SVG Export Plug-In . SVG Version: 6.00 Build 0)  -->
<svg version="1.1" id="Type_73_B" xmlns="http://www.w3.org/2000/svg" xmlns:xlink="http://www.w3.org/1999/xlink" x="0px" y="0px"
	 viewBox="0 0 2036 428" style="enable-background:new 0 0 2036 428;" xml:space="preserve">
<style type="text/css">
	.st0{fill:#C7C9C7;}
	.st1{fill:#333F48;}
	.st2{fill:#444445;}
	.st3{fill:#212322;}
	.st4{fill:#DA291C;}
	.st5{fill:#101820;}
	.st6{fill:#B1B3B3;}
	.st7{fill:#58595B;}
	.st8{fill:#878787;}
	.st9{fill:#FA4616;}
</style>
<g id="Mål_8_">
</g>
<g>
	<g id="Farger_8_">
		<g id="Grunnfarge_4_">
			<g>
				<path class="st0" d="M20.2,354.3h88.5h419.2l29.3,55.7h1087.4l33.3-61.7h226.5l29.9,58.3h101.3V148.8l-1830.9-1.4
					c0,0-12.5-0.2-21.9,5.6c-9.4,5.8-139.7,100.4-139.7,100.4s-10.4,5.1-14.5,21.9S15,328.9,15,328.9S13.6,344.5,20.2,354.3z"/>
			</g>
			<g>
				<polygon class="st1" points="526.8,353.6 1674.4,353.1 1677.3,347.7 1903.6,347.7 1906.9,354.1 2034.6,353.7 2034.6,406 
					1932.9,406 1903,347.7 1677.4,347.7 1644.1,409.4 556.2,409.4 526.8,353.7 				"/>
			</g>
			<g>
				<path class="st2" d="M235,353.7l-55.7,53.6H19c0,0,7.4-6.9,15.7-15.2s7.7-19,0.8-21.6c-6.9-2.6-16.4-16.9-16.4-16.9h216V353.7z"
					/>
			</g>
			<g>
				<path class="st3" d="M290.9,352.9c-10.8,0-23.5,10.7-23.5,10.7l-16.2-0.5c0,0-3.2,1.1-3.2,4.5c0,3.4,1.5,4.7,4.7,4.7
					s3.4-1.2,3.4-1.2l3.2,0.5c0,0-8.1,11.3-5.6,24.7c2.5,13.4,13.8,29.8,33,29.8c19.2,0,32.7-13.9,34.9-26.7
					c2.1-12.8-0.6-18.7-0.6-18.7s5.4,1,8,4.1c2.7,3.1,13,15.1,13,15.1s2.4,2.1,7.3,2.1c4.9,0,80.9,0,80.9,0s2.9-0.1,6.6-4.4
					c3.8-4.3,12.2-13.9,12.2-13.9s2.8-1.8,4.8-2.4c2.1-0.5,3.3-0.8,3.3-0.8s-6.3,16.3,4,30.4c10.4,14.1,27.6,18.4,37.4,14.2
					c9.8-4.3,24.1-8.9,25.8-33.5c0,0-0.2-7.6-5.3-18.4c0,0,7,0.3,8.6-1.4c1.6-1.7,3.9-6.2,0.7-7.5c-3.2-1.3-18.2-0.6-18.2-0.6
					s-17.7-10.5-27.7-10.5S301.7,352.9,290.9,352.9z"/>
			</g>
			<g>
				<path class="st3" d="M1679,347.6c0,0-7.9,14.4-10.2,17.6c-2.3,3.2-15.2,29.8-15.2,29.8s1.4,22.3,20.5,29.9s33.3,0.5,43.2-12.1
					c9.9-12.7,3.7-30.3,3.7-30.3s5.3,2,7.2,4.1c1.8,2.1,11.6,14.4,11.6,14.4s6.4,2.7,6.6,5.1c0.3,5.4-6.6,4.1-6.6,7
					c0,0.8,5.8,2.6,12,2.7c2.5,0,5.3,0.2,6.2,0.2c1,0,4.6,0,5.7,0c7.2,0,72.8,2,72.7-2.8c0-3.9-9.8,0.2-5.5-9.1c0,0,2,0.9,7.5-5.3
					c5.5-6.2,10.5-11.9,10.5-11.9s2.8-2.7,5.9-3.5s1.7-1,1.7-1s-5.8,15.7,3.5,29.6c9.3,13.9,26.2,20.2,43.8,12.9
					c16.9-7,19.6-24.3,19.9-32.8c0.3-8.5-20-44.2-20-44.2H1679L1679,347.6L1679,347.6z"/>
			</g>
			<g>
				<polygon class="st3" points="15.3,345.3 1,341.1 1.7,360.5 19,354.3 				"/>
			</g>
		</g>
		<g id="Profilering_8_">
			<g>
				<polygon class="st4" points="108.7,354.3 255.3,200.1 873.2,200.1 2035.6,200.1 2035.6,348.7 2035.6,354.3 1906.9,354.3 
					1903,347.7 1678.4,347.3 1674.6,354.3 124.1,354.3 				"/>
			</g>
			<g>
				<polygon class="st5" points="237,219.5 165.2,295 2035.5,295 2035.6,219.5 				"/>
			</g>
			<g>
				<g>
					<polygon class="st6" points="2035.6,332.7 129.5,332.7 135.6,326 2035.6,326 					"/>
				</g>
			</g>
			<g>
				<g>
					<polygon class="st6" points="168.9,339.7 122.6,339.7 125.8,336.3 167.5,336.3 288.1,209.7 2035.6,209.7 2035.6,213.1 
						289.6,213.1 					"/>
				</g>
			</g>
		</g>
		<g id="Dører_og_vinduer_7_">
			<g>
				<rect x="831.8" y="223.9" class="st7" width="104.6" height="65.9"/>
			</g>
			<g>
				<path class="st8" d="M927,283.8h-86c-2.4,0-4.3-1.9-4.3-4.3v-45.7c0-2.4,1.9-4.3,4.3-4.3h86c2.4,0,4.3,1.9,4.3,4.3v45.7
					C931.3,281.8,929.4,283.8,927,283.8z"/>
			</g>
			<g>
				<rect x="427.2" y="223.9" class="st7" width="104.6" height="65.9"/>
			</g>
			<g>
				<rect x="966.2" y="223.9" class="st7" width="104.6" height="65.9"/>
			</g>
			<g>
				<path class="st8" d="M1061.6,283.8h-86c-2.4,0-4.3-1.9-4.3-4.3v-45.7c0-2.4,1.9-4.3,4.3-4.3h86c2.4,0,4.3,1.9,4.3,4.3v45.7
					C1065.9,281.8,1063.9,283.8,1061.6,283.8z"/>
			</g>
			<g>
				<rect x="1107.7" y="223.9" class="st7" width="104.6" height="65.9"/>
			</g>
			<g>
				<path class="st8" d="M1203,283.8h-86c-2.4,0-4.3-1.9-4.3-4.3v-45.7c0-2.4,1.9-4.3,4.3-4.3h86c2.4,0,4.3,1.9,4.3,4.3v45.7
					C1207.3,281.8,1205.4,283.8,1203,283.8z"/>
			</g>
			<g>
				<rect x="1242.9" y="223.9" class="st7" width="104.6" height="65.9"/>
			</g>
			<g>
				<path class="st8" d="M1338.2,283.8h-86c-2.4,0-4.3-1.9-4.3-4.3v-45.7c0-2.4,1.9-4.3,4.3-4.3h86c2.4,0,4.3,1.9,4.3,4.3v45.7
					C1342.5,281.8,1340.6,283.8,1338.2,283.8z"/>
			</g>
			<g>
				<rect x="1647.1" y="223.9" class="st7" width="104.6" height="65.9"/>
			</g>
			<g>
				<path class="st8" d="M1742.4,283.8h-86c-2.4,0-4.3-1.9-4.3-4.3v-45.7c0-2.4,1.9-4.3,4.3-4.3h86c2.4,0,4.3,1.9,4.3,4.3v45.7
					C1746.7,281.8,1744.8,283.8,1742.4,283.8z"/>
			</g>
			<g>
				<rect x="1782" y="223.9" class="st7" width="104.6" height="65.9"/>
			</g>
			<g>
				<path class="st8" d="M1877.3,283.8h-86c-2.4,0-4.3-1.9-4.3-4.3v-45.7c0-2.4,1.9-4.3,4.3-4.3h86c2.4,0,4.3,1.9,4.3,4.3v45.7
					C1881.6,281.8,1879.7,283.8,1877.3,283.8z"/>
			</g>
			<g>
				<rect x="1466.5" y="224.6" class="st8" width="23.6" height="65.2"/>
			</g>
			<g>
				<path class="st8" d="M1480,285.9h-2.5c-3.8,0-6.8-3-6.8-6.8v-43.9c0-3.8,3-6.8,6.8-6.8h2.5c3.8,0,6.8,3,6.8,6.8v43.9
					C1486.8,282.8,1483.8,285.9,1480,285.9z"/>
			</g>
			<g>
				<path class="st9" d="M1563.7,369.5v25.4h-98v-25.4h-2.2c-2.4,0-4.3-1.9-4.3-4.3v-159c0-2.4,1.9-4.3,4.3-4.3h103.1
					c2.4,0,4.3,1.9,4.3,4.3v159c0,2.4-1.9,4.3-4.3,4.3H1563.7z"/>
			</g>
			<g>
				<rect x="1466.4" y="224.7" class="st8" width="87.6" height="65.1"/>
			</g>
			<g>
				<path class="st4" d="M713.5,369.6h-98h-2.2c-2.4,0-4.3-1.9-4.3-4.3v-159c0-2.4,1.9-4.3,4.3-4.3h103.1c2.4,0,4.3,1.9,4.3,4.3v159
					c0,2.4-1.9,4.3-4.3,4.3H713.5z"/>
			</g>
			<g>
				<rect x="618.7" y="223.9" class="st8" width="94.1" height="64.6"/>
			</g>
			<g>
				<path class="st8" d="M287.6,289.4h-34.9c-2.5,0-4.6-2.1-4.6-4.6V228c0-2.5,2.1-4.6,4.6-4.6h34.9c2.5,0,4.6,2.1,4.6,4.6v56.8
					C292.1,287.3,290.1,289.4,287.6,289.4z"/>
			</g>
			<g>
				<path class="st8" d="M522.5,283.8h-86c-2.4,0-4.3-1.9-4.3-4.3v-45.7c0-2.4,1.9-4.3,4.3-4.3h86c2.4,0,4.3,1.9,4.3,4.3v45.7
					C526.8,281.8,524.9,283.8,522.5,283.8z"/>
			</g>
			<g>
				<path class="st7" d="M712.8,223.9V215c0-3.7-3-6.6-6.6-6.6h-80.8c-3.7,0-6.6,3-6.6,6.6v8.9H712.8z"/>
			</g>
			<g>
				<path class="st7" d="M711.9,288.2v8.9c0,3.7-3,6.6-6.6,6.6h-80.8c-3.7,0-6.6-3-6.6-6.6v-8.9H711.9z"/>
			</g>
			<g>
				<path class="st8" d="M118.7,200.2l9.7,13.4c0,0,4.4,4,11,1.5c6.7-2.5,46.4-18.6,46.4-18.6s7.9-4.9,3.2-11.3
					c-4.7-6.4-17.2-23.7-17.2-23.7L118.7,200.2z"/>
			</g>
		</g>
	</g>
	<g id="Omriss_8_">
		<g>
			<path d="M1645.7,410h-1090l-28.5-55.7H18.8l-0.3-0.4c-7.4-10-3.5-28.9-3.4-29.7c0.1-0.5,10.9-40.8,12.9-50.6
				c1.9-10.1,12.4-19.4,12.8-19.8c1.2-0.8,108.8-79.1,129.6-94.1c19.9-14.5,29.2-13.4,30.5-13.2h33.8l1801.3,0.3v259.8h-103.8
				l-0.3-0.5l-29.6-57.7H1679L1645.7,410z M556.9,408h1087.6l33.3-61.7h225.7l0.3,0.5l29.6,57.7H2034V148.8l-1799.3-0.3l-34.1,0
				c-0.1,0-8.9-1.8-29,12.8c-20.8,15-128.4,93.3-129.5,94.1c0,0-10.3,9.1-12.1,18.6c-2,9.8-12.8,50.3-12.9,50.7
				c0,0.1-3.7,18.2,2.8,27.6h508.6L556.9,408z"/>
		</g>
		<g>
			<path d="M20.4,311.6l-1.9-0.5c0.1-0.3,7.7-28.9,45.8-50c4.7-2.6,9.7-5.5,15.1-8.5c38.4-21.8,91.1-51.6,129.9-59.4
				c44.7-9,97.6-24.8,105.2-34c7.2-8.6,6.5-11.5,6.5-11.5l1.9-0.7c0.3,0.6,1.1,4-6.9,13.5c-8.1,9.8-61.5,25.6-106.4,34.6
				c-38.5,7.8-91,37.5-129.3,59.2c-5.3,3-10.4,5.9-15.1,8.5C28,283.6,20.5,311.4,20.4,311.6z"/>
		</g>
		<g>
			<path d="M259.1,183.3l-0.3-2c0.8-0.1,79.2-12.1,121.7-12.1c0.2,0,0.3,0,0.5,0c14.2,0,202.9,0,448.1,0c486.4,0,1195.3,0,1206,0v2
				c-10.7,0-719.6,0-1206,0c-245.3,0-433.9,0-448.1,0c-0.2,0-0.3,0-0.5,0C338.2,171.2,259.9,183.2,259.1,183.3z"/>
		</g>
		<g>
			<path d="M133.4,215.9c-4.9,0-6.7-2.6-6.8-2.7l-9.7-12.4l1.6-1.2l9.7,12.5c0.2,0.2,3,4.1,12.6,0.2c10.3-4.2,41.7-16.8,43.5-17.6
				c0.5-0.3,3.5-2.4,4.1-5.3c0.3-1.5-0.1-3-1.2-4.5c-4.8-6.6-17.2-23.7-17.2-23.7l1.6-1.2c0,0,12.4,17.1,17.2,23.7
				c1.5,2,2,4.1,1.6,6.1c-0.8,4-4.9,6.5-5.1,6.6l-0.1,0.1c0,0-33,13.3-43.6,17.6C138.2,215.4,135.5,215.9,133.4,215.9z"/>
		</g>
		<g>
			<path d="M286.7,289.3h-34.9c-3,0-5.6-2.6-5.6-5.6v-56.8c0-3,2.6-5.6,5.6-5.6h34.9c3,0,5.6,2.6,5.6,5.6v56.8
				C292.3,286.8,289.8,289.3,286.7,289.3z M251.8,223.3c-2,0-3.6,1.6-3.6,3.6v56.8c0,2,1.6,3.6,3.6,3.6h34.9c2,0,3.6-1.6,3.6-3.6
				v-56.8c0-2-1.6-3.6-3.6-3.6H251.8z"/>
		</g>
		<g>
			<path d="M432.6,377.5h-88.2c-2.2,0-4.1-0.7-5.7-2l-10.8-8.9c-1.2-1-2.7-1.6-4.4-1.6h-69.2v-2h69.2c2.1,0,4.1,0.7,5.7,2l10.8,8.9
				c1.2,1,2.7,1.6,4.4,1.6h88.2c1.6,0,3-0.5,4.3-1.5l11.4-9.2c1.6-1.3,3.5-1.9,5.5-1.9h68.8v2h-68.8c-1.6,0-3,0.5-4.3,1.5l-11.4,9.2
				C436.5,376.8,434.6,377.5,432.6,377.5z"/>
		</g>
		<g>
			<path d="M429.9,403.1h-83.5c-2,0-4-0.9-5.4-2.4l-14-16.2c-0.5-0.5-1.4-1.2-2.4-1.5l-11.6-3.4l-13.1-3.8c-0.3-0.1-0.5-0.2-0.9-0.2
				l-32.8-2l-7.1-0.4l-4.3-0.3l-0.6,0v-2h0.7l4.4,0.3l7.1,0.4l32.7,2c0.5,0,1.1,0.1,1.6,0.4l24.4,7.1c1.4,0.4,2.6,1.3,3.3,2.1
				l14,16.3c1,1.1,2.5,1.8,3.9,1.8h83.5c1.6,0,3-0.6,3.8-1.7l14.2-16.2c1-1.1,2.2-1.9,3.6-2.2l12.1-3.1l12.9-3.3
				c0.5-0.1,0.9-0.2,1.3-0.2l40.5-2.4l6-0.3l0.1,2l-13,0.7l-33.6,2c-0.2,0-0.6,0.1-0.9,0.2l-25,6.4c-1,0.2-1.9,0.8-2.6,1.6
				l-14.2,16.2C434.1,402.2,432.1,403.1,429.9,403.1z"/>
		</g>
		<g>
			<path d="M287.7,400.3c-4.7,0-8.6-3.9-8.6-8.6s3.9-8.6,8.6-8.6c4.7,0,8.6,3.9,8.6,8.6S292.5,400.3,287.7,400.3z M287.7,385.1
				c-3.6,0-6.6,3-6.6,6.6c0,3.6,3,6.6,6.6,6.6c3.6,0,6.6-3,6.6-6.6C294.3,388,291.4,385.1,287.7,385.1z"/>
		</g>
		<g>
			<path d="M294.8,365c-4.3-1.1-9.7-1.1-14.1,0l-0.5-1.9c4.7-1.2,10.4-1.2,15.1,0L294.8,365z"/>
		</g>
		<g>
			<path d="M287.7,421.5c-16.4,0-29.7-13.3-29.7-29.7c0-7.3,2.7-14.4,7.6-19.8l1.5,1.3c-4.5,5-7,11.6-7,18.4
				c0,15.3,12.4,27.7,27.7,27.7c15.3,0,27.7-12.4,27.7-27.7c0-4.3-1.1-8.7-3.1-12.6l1.8-0.9c2.2,4.2,3.3,8.9,3.3,13.6
				C317.4,408.2,304.1,421.5,287.7,421.5z"/>
		</g>
		<g>
			<path d="M280.4,365h-16.3l2.4-1.8c6-4.5,13.5-7,21.2-7c7.7,0,15,2.4,21.2,7l-1.2,1.6c-5.8-4.3-12.7-6.6-20-6.6
				c-6.2,0-12.2,1.7-17.3,4.8h10V365z"/>
		</g>
		<g>
			<path d="M287.7,427.4c-19.6,0-35.6-16-35.6-35.6c0-7.1,2.2-14.1,6.3-20.2l0.3-0.5l7.7,0.4l-0.1,2l-6.5-0.4
				c-3.7,5.6-5.6,12-5.6,18.6c0,18.5,15.1,33.6,33.6,33.6c18.5,0,33.5-15.1,33.5-33.6c0-3.8-0.6-7.4-1.7-10.7l1.9-0.7
				c1.2,3.5,1.9,7.3,1.9,11.3C323.2,411.4,307.3,427.4,287.7,427.4z"/>
		</g>
		<g>
			<path d="M489.6,400.3c-4.7,0-8.6-3.9-8.6-8.6s3.9-8.6,8.6-8.6c4.7,0,8.6,3.9,8.6,8.6S494.3,400.3,489.6,400.3z M489.6,385.1
				c-3.6,0-6.6,3-6.6,6.6c0,3.6,3,6.6,6.6,6.6c3.6,0,6.6-3,6.6-6.6C496.2,388,493.2,385.1,489.6,385.1z"/>
		</g>
		<g>
			<path d="M489.6,421.4c-16.4,0-29.7-13.3-29.7-29.7c0-4.7,1.1-9.4,3.2-13.4l1.8,0.9c-2,3.7-3,8-3,12.4c0,15.3,12.4,27.7,27.7,27.7
				c15.3,0,27.7-12.4,27.7-27.7c0-6.4-2.3-12.7-6.5-17.8l1.5-1.3c4.5,5.4,6.9,12.2,6.9,19C519.3,408.1,506,421.4,489.6,421.4z"/>
		</g>
		<g>
			<path d="M496.1,364.8c-2.3-0.5-4.4-0.8-6.5-0.8c-2.1,0-4.3,0.3-6.5,0.8l-0.5-1.9c2.3-0.5,4.7-0.8,6.9-0.8c2.2,0,4.5,0.3,6.9,0.8
				L496.1,364.8z"/>
		</g>
		<g>
			<path d="M509.3,364.6c-5.8-4.3-12.6-6.5-19.8-6.5c-7.1,0-13.9,2.2-19.7,6.5l-1.2-1.6c6.1-4.5,13.3-6.9,20.9-6.9
				c7.6,0,14.9,2.4,21,6.9L509.3,364.6z"/>
		</g>
		<g>
			<path d="M489.5,427.3c-19.6,0-35.5-16-35.5-35.6c0-4,0.6-7.8,1.9-11.4l1.9,0.6c-1.2,3.4-1.7,7-1.7,10.8c0,18.5,15,33.6,33.5,33.6
				c18.5,0,33.6-15.1,33.6-33.6c0-6.6-1.8-12.9-5.3-18.3l1.7-1.1c3.7,5.7,5.7,12.4,5.7,19.3C525.1,411.3,509.1,427.3,489.5,427.3z"
				/>
		</g>
		<g>
			<path d="M524.9,373.6c-3.1,0-5.7-2.6-5.7-5.7s2.6-5.7,5.7-5.7c3.1,0,5.7,2.6,5.7,5.7S528,373.6,524.9,373.6z M524.9,364.2
				c-2,0-3.7,1.7-3.7,3.7s1.7,3.7,3.7,3.7s3.7-1.7,3.7-3.7S526.9,364.2,524.9,364.2z"/>
		</g>
		<g>
			<path d="M252.4,373.6c-3.1,0-5.7-2.6-5.7-5.7s2.6-5.7,5.7-5.7c1.2,0,2.3,0.3,3.2,1c1.5,0.9,2.5,2.8,2.5,4.7c0,2-1.1,3.9-2.8,4.9
				C254.4,373.3,253.4,373.6,252.4,373.6z M252.4,364.2c-2,0-3.7,1.7-3.7,3.7s1.7,3.7,3.7,3.7c0.6,0,1.3-0.2,1.9-0.6
				c1.1-0.6,1.8-1.8,1.8-3.1c0-1.3-0.6-2.4-1.6-3C253.9,364.4,253.2,364.2,252.4,364.2z"/>
		</g>
		<g>
			<path d="M179.8,408.9L36.8,372.3l-0.2-0.1c0,0-2-1.6-9.2-7.1c-7.5-5.7-9.1-11.3-9.2-11.5l1.9-0.5l-1,0.3l1-0.3
				c0,0.1,1.5,5.2,8.4,10.5c6.1,4.7,8.4,6.5,9,7l141.4,36.2l55.3-54.1l1.4,1.4L179.8,408.9z"/>
		</g>
		<g>
			<path d="M179.4,408.9L16.6,408l1.9-1.7c0.1-0.1,13.8-12.4,19.8-19.9c5.5-6.8-1.4-14-1.7-14.3l1.4-1.4c0.1,0.1,8.4,8.7,1.9,16.9
				c-4.8,6-14.1,14.7-18.1,18.4l157.7,0.9L179.4,408.9z"/>
		</g>
		<g>
			<polygon points="343.4,376.8 338.5,360.7 338.6,353.3 340.6,353.3 340.5,360.4 345.3,376.2 			"/>
		</g>
		<g>
			<path d="M446.7,368.4h-2v-7c0-4.1-4.4-7.2-4.5-7.3l1.1-1.6c0.2,0.2,5.3,3.8,5.3,8.9V368.4z"/>
		</g>
		<g>
			<path d="M1832.9,378.9h-88.2c-2.1,0-4-0.7-5.5-2l-18.7-9c-1.2-1-2.7-1.6-4.3-1.6h-48.7v-2h48.7c2.1,0,4,0.7,5.5,2l18.7,9
				c1.2,1,2.7,1.6,4.3,1.6h88.2c1.6,0,3-0.5,4.3-1.5l0.2-0.1l19.8-9.2c1.6-1.2,3.4-1.8,5.4-1.8h49.6v2h-49.6c-1.6,0-3,0.5-4.3,1.5
				l-0.2,0.1l-19.8,9.2C1836.8,378.3,1834.9,378.9,1832.9,378.9z"/>
		</g>
		<g>
			<path d="M1830.2,404.5h-83.5c-2,0-4-0.9-5.4-2.4l-14-16.2c-0.5-0.5-1.4-1.2-2.4-1.5l-11.6-3.4l-13.1-3.8
				c-0.3-0.1-0.5-0.2-0.9-0.2l-32.8-2l-2.6-0.1l0.1-2l2.6,0.1l32.7,2c0,0,0,0,0,0c0.5,0,1.1,0.1,1.6,0.4l24.4,7.1
				c1.4,0.4,2.6,1.3,3.3,2.1l14,16.3c1,1.1,2.5,1.8,3.9,1.8h83.5c1.6,0,3-0.6,3.8-1.7l14.2-16.2c1-1.1,2.2-1.9,3.6-2.2l12.1-3.1
				l12.9-3.3c0.5-0.1,0.9-0.2,1.3-0.2l38.5-2.3l0.1,2l-38.6,2.3c-0.2,0-0.6,0.1-0.9,0.2l-25,6.4c-1,0.2-1.9,0.8-2.6,1.6l-14.2,16.2
				C1834.4,403.6,1832.4,404.5,1830.2,404.5z"/>
		</g>
		<g>
			<path d="M1688,401.8c-4.7,0-8.6-3.9-8.6-8.6s3.9-8.6,8.6-8.6s8.6,3.9,8.6,8.6S1692.8,401.8,1688,401.8z M1688,386.6
				c-3.6,0-6.6,3-6.6,6.6c0,3.6,3,6.6,6.6,6.6c3.6,0,6.6-3,6.6-6.6C1694.6,389.5,1691.7,386.6,1688,386.6z"/>
		</g>
		<g>
			<path d="M1695.1,366.4c-4.4-1.1-9.7-1.1-14.1,0l-0.5-1.9c4.7-1.2,10.4-1.2,15.1,0L1695.1,366.4z"/>
		</g>
		<g>
			<path d="M1688,422.9c-16.4,0-29.7-13.3-29.7-29.7c0-7.3,2.7-14.4,7.6-19.8l1.5,1.3c-4.5,5-7,11.6-7,18.4
				c0,15.3,12.4,27.7,27.7,27.7s27.7-12.4,27.7-27.7c0-4.3-1.1-8.7-3.1-12.6l1.8-0.9c2.2,4.2,3.3,8.9,3.3,13.6
				C1717.7,409.6,1704.4,422.9,1688,422.9z"/>
		</g>
		<g>
			<path d="M1680.7,366.4h-16.3l2.4-1.8c6-4.5,13.5-7,21.2-7c7.7,0,15,2.4,21.2,7l-1.2,1.6c-5.8-4.3-12.7-6.6-20-6.6
				c-6.2,0-12.2,1.7-17.3,4.8h10V366.4z"/>
		</g>
		<g>
			
				<rect x="1664.3" y="372.7" transform="matrix(7.675376e-02 -0.9971 0.9971 7.675376e-02 1164.6301 2005.7043)" width="2" height="2.6"/>
		</g>
		<g>
			<path d="M1688,428.8c-19.4,0-35.4-15.8-35.6-35.2l2,0c0.2,18.3,15.3,33.2,33.6,33.2c18.5,0,33.5-15.1,33.5-33.6
				c0-3.8-0.6-7.4-1.7-10.7l1.9-0.7c1.2,3.5,1.9,7.3,1.9,11.3C1723.5,412.8,1707.6,428.8,1688,428.8z"/>
		</g>
		<g>
			<path d="M1889.9,401.8c-4.7,0-8.6-3.9-8.6-8.6s3.9-8.6,8.6-8.6c4.7,0,8.6,3.9,8.6,8.6S1894.6,401.8,1889.9,401.8z M1889.9,386.6
				c-3.6,0-6.6,3-6.6,6.6c0,3.6,3,6.6,6.6,6.6c3.6,0,6.6-3,6.6-6.6C1896.5,389.5,1893.5,386.6,1889.9,386.6z"/>
		</g>
		<g>
			<path d="M1890,422.9c-16.4,0-29.7-13.3-29.7-29.7c0-4.7,1.1-9.4,3.2-13.4l1.8,0.9c-2,3.7-3,8-3,12.4c0,15.3,12.4,27.7,27.7,27.7
				c15.3,0,27.7-12.4,27.7-27.7c0-6.4-2.3-12.7-6.5-17.8l1.5-1.3c4.5,5.4,6.9,12.2,6.9,19C1919.7,409.6,1906.4,422.9,1890,422.9z"/>
		</g>
		<g>
			<path d="M1896.5,366.3c-2.3-0.5-4.4-0.8-6.5-0.8c-2.1,0-4.3,0.3-6.5,0.8l-0.5-1.9c2.3-0.5,4.7-0.8,6.9-0.8c2.2,0,4.5,0.3,6.9,0.8
				L1896.5,366.3z"/>
		</g>
		<g>
			<path d="M1909.7,366.1c-5.8-4.3-12.6-6.5-19.8-6.5c-7.1,0-13.9,2.2-19.7,6.5l-1.2-1.6c6.1-4.5,13.3-6.9,20.9-6.9
				c7.6,0,14.9,2.4,21,6.9L1909.7,366.1z"/>
		</g>
		<g>
			<path d="M1889.9,428.8c-19.6,0-35.5-16-35.5-35.6c0-4,0.6-7.8,1.9-11.4l1.9,0.6c-1.2,3.4-1.7,7-1.7,10.8
				c0,18.5,15,33.6,33.5,33.6c18.5,0,33.6-15.1,33.6-33.6c0-1.5-0.1-2.9-0.3-4.4l2-0.3c0.2,1.5,0.3,3.1,0.3,4.6
				C1925.5,412.8,1909.5,428.8,1889.9,428.8z"/>
		</g>
		<g>
			<polygon points="1757.4,360.8 1737.9,360.8 1737.9,347.7 1739.9,347.7 1739.9,358.8 1756.8,358.8 1766.9,352.5 1811.1,352.5 
				1822.2,358.6 1821.2,360.4 1810.6,354.5 1767.5,354.5 			"/>
		</g>
		<g>
			<polygon points="1735.1,372.8 1733.1,372.8 1733.1,356.5 1738,347.2 1739.8,348.2 1735.1,357 			"/>
		</g>
		<g>
			<polygon points="1835.6,376.6 1833.6,376.6 1833.6,373.7 1817.9,373.7 1820.9,358.5 1837.3,358.5 1837.3,347.3 1839.3,347.3 
				1839.3,360.5 1822.5,360.5 1820.3,371.7 1835.6,371.7 			"/>
		</g>
		<g>
			<rect x="1736.3" y="367.4" transform="matrix(0.4999 -0.8661 0.8661 0.4999 554.2076 1696.6892)" width="20" height="2"/>
		</g>
		<g>
			<polygon points="346.4,365.9 346.8,353.3 348.8,353.3 348.5,362.9 363.7,356.8 413.5,356.8 429.6,361.3 429.6,353.3 431.6,353.3 
				431.6,363.9 413.1,358.8 364.1,358.8 			"/>
		</g>
		<g>
			<path d="M936.8,289.7H830.3v-67.9h106.6V289.7z M832.3,287.7h102.6v-63.9H832.3V287.7z"/>
		</g>
		<g>
			<path d="M926.5,283.7h-86c-3,0-5.3-2.3-5.3-5.3v-45.7c0-3,2.3-5.3,5.3-5.3h86c3,0,5.3,2.3,5.3,5.3v45.7
				C931.8,281.4,929.5,283.7,926.5,283.7z M840.6,229.4c-1.9,0-3.3,1.4-3.3,3.3v45.7c0,1.9,1.4,3.3,3.3,3.3h86
				c1.9,0,3.3-1.4,3.3-3.3v-45.7c0-1.9-1.4-3.3-3.3-3.3H840.6z"/>
		</g>
		<g>
			<path d="M531.9,289.7H425.3v-67.9h106.6V289.7z M427.3,287.7h102.6v-63.9H427.3V287.7z"/>
		</g>
		<g>
			<path d="M521.6,283.7h-86c-3,0-5.3-2.3-5.3-5.3v-45.7c0-3,2.3-5.3,5.3-5.3h86c3,0,5.3,2.3,5.3,5.3v45.7
				C526.9,281.4,524.6,283.7,521.6,283.7z M435.6,229.4c-1.9,0-3.3,1.4-3.3,3.3v45.7c0,1.9,1.4,3.3,3.3,3.3h86
				c1.9,0,3.3-1.4,3.3-3.3v-45.7c0-1.9-1.4-3.3-3.3-3.3H435.6z"/>
		</g>
		<g>
			<path d="M1071.3,289.7H964.7v-67.9h106.6V289.7z M966.7,287.7h102.6v-63.9H966.7V287.7z"/>
		</g>
		<g>
			<path d="M1061,283.7h-86c-3,0-5.3-2.3-5.3-5.3v-45.7c0-3,2.3-5.3,5.3-5.3h86c3,0,5.3,2.3,5.3,5.3v45.7
				C1066.3,281.4,1064,283.7,1061,283.7z M975,229.4c-1.9,0-3.3,1.4-3.3,3.3v45.7c0,1.9,1.4,3.3,3.3,3.3h86c1.9,0,3.3-1.4,3.3-3.3
				v-45.7c0-1.9-1.4-3.3-3.3-3.3H975z"/>
		</g>
		<g>
			<path d="M1212.8,289.7h-106.6v-67.9h106.6V289.7z M1108.2,287.7h102.6v-63.9h-102.6V287.7z"/>
		</g>
		<g>
			<path d="M1202.5,283.7h-86c-3,0-5.3-2.3-5.3-5.3v-45.7c0-3,2.3-5.3,5.3-5.3h86c3,0,5.3,2.3,5.3,5.3v45.7
				C1207.8,281.4,1205.5,283.7,1202.5,283.7z M1116.5,229.4c-1.9,0-3.3,1.4-3.3,3.3v45.7c0,1.9,1.4,3.3,3.3,3.3h86
				c1.9,0,3.3-1.4,3.3-3.3v-45.7c0-1.9-1.4-3.3-3.3-3.3H1116.5z"/>
		</g>
		<g>
			<path d="M1345.9,289.7h-106.6v-67.9h106.6V289.7z M1241.3,287.7h102.6v-63.9h-102.6V287.7z"/>
		</g>
		<g>
			<path d="M1335.6,283.7h-86c-3,0-5.3-2.3-5.3-5.3v-45.7c0-3,2.3-5.3,5.3-5.3h86c3,0,5.3,2.3,5.3,5.3v45.7
				C1340.9,281.4,1338.6,283.7,1335.6,283.7z M1249.6,229.4c-1.9,0-3.3,1.4-3.3,3.3v45.7c0,1.9,1.4,3.3,3.3,3.3h86
				c1.9,0,3.3-1.4,3.3-3.3v-45.7c0-1.9-1.4-3.3-3.3-3.3H1249.6z"/>
		</g>
		<g>
			<path d="M1752.6,289.7H1646v-67.9h106.6V289.7z M1648,287.7h102.6v-63.9H1648V287.7z"/>
		</g>
		<g>
			<path d="M1742.3,283.7h-86c-3,0-5.3-2.3-5.3-5.3v-45.7c0-3,2.3-5.3,5.3-5.3h86c3,0,5.3,2.3,5.3,5.3v45.7
				C1747.6,281.4,1745.3,283.7,1742.3,283.7z M1656.3,229.4c-1.9,0-3.3,1.4-3.3,3.3v45.7c0,1.9,1.4,3.3,3.3,3.3h86
				c1.9,0,3.3-1.4,3.3-3.3v-45.7c0-1.9-1.5-3.3-3.3-3.3H1656.3z"/>
		</g>
		<g>
			<path d="M1887.5,289.7h-106.6v-67.9h106.6V289.7z M1782.9,287.7h102.6v-63.9h-102.6V287.7z"/>
		</g>
		<g>
			<path d="M1877.2,283.7h-86c-3,0-5.3-2.3-5.3-5.3v-45.7c0-3,2.3-5.3,5.3-5.3h86c3,0,5.3,2.3,5.3,5.3v45.7
				C1882.5,281.4,1880.2,283.7,1877.2,283.7z M1791.2,229.4c-1.9,0-3.3,1.4-3.3,3.3v45.7c0,1.9,1.4,3.3,3.3,3.3h86
				c1.9,0,3.3-1.4,3.3-3.3v-45.7c0-1.9-1.4-3.3-3.3-3.3H1791.2z"/>
		</g>
		<g>
			<path d="M1490.5,289.7h-25.6v-67.2h25.6V289.7z M1466.9,287.7h21.6v-63.2h-21.6V287.7z"/>
		</g>
		<g>
			<path d="M1479.4,285.8h-2.5c-4.4,0-7.8-3.4-7.8-7.8v-43.9c0-4.4,3.4-7.8,7.8-7.8h2.5c4.4,0,7.8,3.4,7.8,7.8V278
				c0.1,2-0.7,4-2.1,5.4C1483.5,285,1481.5,285.8,1479.4,285.8z M1476.9,228.3c-3.3,0-5.8,2.5-5.8,5.8V278c0,3.3,2.5,5.8,5.8,5.8
				h2.5c1.6,0,3.1-0.6,4.2-1.8c1.1-1.1,1.6-2.5,1.6-4v-43.9c0-3.3-2.5-5.8-5.8-5.8H1476.9z"/>
		</g>
		<g>
			<path d="M1564.1,394.9h-100v-25.4h-1.2c-3,0-5.3-2.3-5.3-5.3v-159c0-3,2.3-5.3,5.3-5.3H1566c3,0,5.3,2.3,5.3,5.3v159
				c0,3-2.3,5.3-5.3,5.3h-1.9V394.9z M1466.2,392.9h96v-25.4h3.9c1.9,0,3.3-1.4,3.3-3.3v-159c0-1.9-1.4-3.3-3.3-3.3H1463
				c-1.9,0-3.3,1.4-3.3,3.3v159c0,1.9,1.4,3.3,3.3,3.3h3.2V392.9z"/>
		</g>
		<g>
			<path d="M1554.5,289.7h-65.9v-67.1h65.9V289.7z M1490.6,287.7h61.9v-63.1h-61.9V287.7z"/>
		</g>
		<g>
			<path d="M714.3,394.9h-100v-25.4h-1.2c-3,0-5.3-2.3-5.3-5.3v-159c0-3,2.3-5.3,5.3-5.3h103.1c3,0,5.3,2.3,5.3,5.3v159
				c0,3-2.3,5.3-5.3,5.3h-1.9V394.9z M616.3,392.9h96v-25.4h3.9c1.9,0,3.3-1.4,3.3-3.3v-159c0-1.9-1.4-3.3-3.3-3.3H613.1
				c-1.9,0-3.3,1.4-3.3,3.3v159c0,1.9,1.4,3.3,3.3,3.3h3.2V392.9z"/>
		</g>
		<g>
			<path d="M713.2,288.4h-96.1v-66.6h96.1V288.4z M619.1,286.4h92.1v-62.6h-92.1V286.4z"/>
		</g>
		<g>
			<path d="M713.2,222.8h-2v-8.9c0-3.1-2.5-5.6-5.6-5.6h-80.8c-3.1,0-5.6,2.5-5.6,5.6v8.9h-2v-8.9c0-4.2,3.4-7.6,7.6-7.6h80.8
				c4.2,0,7.6,3.4,7.6,7.6V222.8z"/>
		</g>
		<g>
			<path d="M705.6,303.6h-80.8c-4.2,0-7.6-3.4-7.6-7.6v-8.9h2v8.9c0,3.1,2.5,5.6,5.6,5.6h80.8c3.1,0,5.6-2.5,5.6-5.6v-8.9h2v8.9
				C713.2,300.2,709.8,303.6,705.6,303.6z"/>
		</g>
		<g>
			<rect x="615.3" y="367.5" width="98" height="2"/>
		</g>
		<g>
			<rect x="1464.6" y="367.5" width="98.6" height="2"/>
		</g>
		<g>
			<polygon points="3.5,362.9 0,362.9 0,338.5 3.5,338.5 3.5,340.3 15.7,344.3 15.1,346.2 2,341.9 2,359.5 19.8,353.5 20.2,354.3 
				21.2,354.3 21.2,355.1 19.4,355.7 3.5,361.1 			"/>
		</g>
		<g>
			<path d="M1826.3,416.7h-74.5c-6.7,0-9.1-1.1-10.3-1.6l-0.3-0.1c-1.6-0.5-1.5-2.9-1.4-3.3c0-0.4,0.3-0.7,0.6-0.8
				c0.2-0.1,3.9-1.5,5.3-2c0.6-0.2,0.6-0.5,0.6-0.6l0-5c0-0.6,0.4-1,1-1c0.6,0,1,0.4,1,1v5c0,0.6-0.4,1.8-1.9,2.4
				c-1.1,0.4-3.5,1.3-4.7,1.8c0,0.3,0.1,0.6,0.2,0.7l0.3,0.1c1.1,0.5,3.2,1.4,9.5,1.4h74.5c5.8,0,8.2-0.9,9.3-1.3
				c0.2-0.1,0.4-0.1,0.5-0.2c0.1-0.1,0.2-0.4,0.2-0.7c-1.2-0.4-3.7-1.4-4.7-1.8c-1.5-0.6-1.9-1.8-1.9-2.4v-5c0-0.6,0.4-1,1-1
				s1,0.4,1,1v5c0,0,0.1,0.3,0.7,0.6c1.3,0.5,5.3,2,5.3,2c0.4,0.1,0.6,0.5,0.6,0.8c0,0.3,0.2,2.7-1.4,3.3c-0.2,0.1-0.4,0.1-0.6,0.2
				C1835.1,415.7,1832.5,416.7,1826.3,416.7z"/>
		</g>
	</g>
</g>
</svg>
