<?xml version="1.0" encoding="utf-8"?>
<!-- Generator: Adobe Illustrator 22.0.1, SVG Export Plug-In . SVG Version: 6.00 Build 0)  -->
<svg version="1.1" id="Type_73_A" xmlns="http://www.w3.org/2000/svg" xmlns:xlink="http://www.w3.org/1999/xlink" x="0px" y="0px"
	 viewBox="0 0 2044.1 424" style="enable-background:new 0 0 2044.1 424;" xml:space="preserve">
<metadata><?xpacket begin="﻿" id="W5M0MpCehiHzreSzNTczkc9d"?>
<x:xmpmeta xmlns:x="adobe:ns:meta/" x:xmptk="Adobe XMP Core 5.6-c143 79.161210, 2017/08/11-10:28:36        ">
   <rdf:RDF xmlns:rdf="http://www.w3.org/1999/02/22-rdf-syntax-ns#">
      <rdf:Description rdf:about=""/>
   </rdf:RDF>
</x:xmpmeta>
                                                                                                    
                                                                                                    
                                                                                                    
                                                                                                    
                                                                                                    
                                                                                                    
                                                                                                    
                                                                                                    
                                                                                                    
                                                                                                    
                                                                                                    
                                                                                                    
                                                                                                    
                                                                                                    
                                                                                                    
                                                                                                    
                                                                                                    
                                                                                                    
                                                                                                    
                                                                                                    
                           
<?xpacket end="w"?></metadata>
<style type="text/css">
	.st0{fill:#C7C9C7;}
	.st1{fill:#444445;}
	.st2{fill:#333F48;}
	.st3{fill:#212322;}
	.st4{fill:#DA291C;}
	.st5{fill:#101820;}
	.st6{fill:#B1B3B3;}
	.st7{fill:#58595B;}
	.st8{fill:#878787;}
	.st9{fill:#FA4616;}
	.st10{fill:#ED2724;}
	.st11{fill:none;stroke:#000000;stroke-width:2;stroke-miterlimit:10;}
	.st12{fill:none;stroke:#000000;stroke-width:2;stroke-linecap:round;stroke-linejoin:round;stroke-miterlimit:10;}
</style>
<g id="Mål_7_">
</g>
<g>
	<g id="Farger_7_">
		<g id="Grunnfarge_3_">
			<path class="st0" d="M21.2,349.1h87.9h416.4l29.1,55.3h1100.7l33.1-61.2h223l29.7,57.9h101.5V145H204.3c0,0-11.2-0.8-20.5,5
				S43.2,251.1,43.2,251.1s-9.3,6.8-13.4,23.4s-12.5,51.3-12.5,51.3S14.7,339.3,21.2,349.1z"/>
			<path class="st1" d="M235.3,350l-214.5,0.1c0,0,3.7,7.1,13.4,13.9c12.1,8.5,10.8,14.9,1,24.3c-8.4,8-15.4,15.1-15.4,15.1H180
				L235.3,350L235.3,350z"/>
			<polyline class="st2" points="525.6,350.1 525.1,350.1 554.3,404.8 1654.9,404.8 1688,344.2 1911,344.2 1940.7,402.1 
				2042.2,402.1 2042.2,350.1 1914.3,350.6 1911,344.2 1688,344.2 1685.1,349.6 525.6,350.1 			"/>
			<path class="st3" d="M291,350.1c-10.7,0-23.3,10.6-23.3,10.6l-16.1-0.5c0,0-3.2,1.1-3.2,4.4s1.5,4.7,4.7,4.7
				c3.2,0,3.3-1.2,3.3-1.2l3.2,0.5c0,0-8,11.2-5.5,24.5s13.7,29.6,32.8,29.6s32.5-13.8,34.6-26.5s-0.6-18.6-0.6-18.6s5.3,1,8,4.1
				s12.9,15,12.9,15s2.4,2.1,7.2,2.1c4.8,0,80.3,0,80.3,0s2.9-0.1,6.6-4.4s12.1-13.8,12.1-13.8s2.7-1.8,4.8-2.4s3.2-0.8,3.2-0.8
				s-6.3,16.2,4,30.2s27.4,18.3,37.2,14.1c9.7-4.2,23.9-8.8,25.6-33.2c0,0-0.2-7.6-5.3-18.3c0,0,6.9,0.3,8.5-1.4
				c1.6-1.7,2.4-7.4-0.8-8.6s-16.6,0.6-16.6,0.6s-17.5-10.5-27.5-10.5S301.7,350.1,291,350.1z"/>
			<polygon class="st3" points="17.2,340.5 2.9,336.3 3.6,355.5 20.8,349.4 			"/>
			<path class="st3" d="M1688,344.2c0,0-7.9,14.3-10.2,17.4c-2.3,3.1-15.1,29.6-15.1,29.6s1.4,22.2,20.3,29.7
				c19,7.5,33.1,0.5,42.9-12.1c9.9-12.6,3.6-30.1,3.6-30.1s5.8,1.1,7.6,3.2c1.8,2.1,13.3,15.4,13.3,15.4s2.7,2.8,5.7,2.8
				c0,0,1,6.7-3,7c-2.8,0.2-4.6,2.8-2.8,4.1c1.4,1.1,5.6,1.1,9.9,1.1c7.1,0,62.2,0,68.5,0c2.1,0,17.2-0.2,17.1-3.1
				c-0.1-1.9-6.6-2.4-6.7-3.5c-0.4-4-0.3-5.5-0.3-5.5s1.7,0.8,7.1-5.4s10.4-11.9,10.4-11.9s2.7-2.6,5.9-3.4c3.1-0.8,3.1-0.8,3.1-0.8
				s-6.1,15,3.1,28.8s23.5,20.2,41.6,14.3c18-5.8,21.8-23.7,22.1-32.1c0.3-8.4-21.4-45.6-21.4-45.6H1688V344.2z"/>
		</g>
		<g id="Profilering_7_">
			<polygon class="st4" points="108.7,350.1 254.4,197 868.1,197 2042.2,197 2042.2,344.6 2042.2,350.1 1914.3,350.6 1911,343.6 
				1688,344.2 1684.1,350.1 124.1,350.1 			"/>
			<polygon class="st5" points="236.3,216.2 164.9,291.2 2041.7,291.2 2041.8,216.2 			"/>
			<g>
				<polygon class="st6" points="2042.2,328.6 129.2,328.6 135.5,321.9 2042.2,321.9 				"/>
			</g>
			<g>
				<polygon class="st6" points="168.5,335.6 122.5,335.6 125.6,332.2 167.1,332.2 287,206.5 2042.2,206.5 2042.2,209.9 
					288.5,209.9 				"/>
			</g>
		</g>
		<g id="Dører_og_vinduer_6_">
			<rect x="836.7" y="219.9" class="st7" width="103.9" height="65.5"/>
			<path class="st8" d="M931.3,279.6h-85.4c-2.4,0-4.3-1.9-4.3-4.3v-45.4c0-2.4,1.9-4.3,4.3-4.3h85.4c2.4,0,4.3,1.9,4.3,4.3v45.4
				C935.6,277.7,933.7,279.6,931.3,279.6z"/>
			<rect x="425.1" y="219.7" class="st7" width="103.9" height="65.5"/>
			<rect x="970.3" y="219.9" class="st7" width="103.9" height="65.5"/>
			<path class="st8" d="M1064.9,279.4h-85.4c-2.4,0-4.3-1.9-4.3-4.3v-45.3c0-2.4,1.9-4.3,4.3-4.3h85.4c2.4,0,4.3,1.9,4.3,4.3v45.4
				C1069.2,277.5,1067.3,279.4,1064.9,279.4z"/>
			<rect x="1110.8" y="219.7" class="st7" width="103.9" height="65.5"/>
			<path class="st8" d="M1205.4,279.4H1120c-2.4,0-4.3-1.9-4.3-4.3v-45.3c0-2.4,1.9-4.3,4.3-4.3h85.4c2.4,0,4.3,1.9,4.3,4.3v45.4
				C1209.7,277.5,1207.8,279.4,1205.4,279.4z"/>
			<rect x="1245" y="219.7" class="st7" width="103.9" height="65.5"/>
			<path class="st8" d="M1339.7,279.4h-85.4c-2.4,0-4.3-1.9-4.3-4.3v-45.3c0-2.4,1.9-4.3,4.3-4.3h85.4c2.4,0,4.3,1.9,4.3,4.3v45.4
				C1344,277.5,1342,279.4,1339.7,279.4z"/>
			<rect x="1656.8" y="219.7" class="st7" width="103.9" height="65.5"/>
			<path class="st8" d="M1751.5,279.6H1666c-2.4,0-4.3-1.9-4.3-4.3v-45.4c0-2.4,1.9-4.3,4.3-4.3h85.4c2.4,0,4.3,1.9,4.3,4.3v45.4
				C1755.7,277.7,1753.8,279.6,1751.5,279.6z"/>
			<rect x="1791.2" y="219.9" class="st7" width="103.9" height="65.5"/>
			<path class="st8" d="M1885.4,279.6H1800c-2.4,0-4.3-1.9-4.3-4.3v-45.4c0-2.4,1.9-4.3,4.3-4.3h85.4c2.4,0,4.3,1.9,4.3,4.3v45.4
				C1889.7,277.7,1887.8,279.6,1885.4,279.6z"/>
			<rect x="1473.3" y="221.2" class="st8" width="23.5" height="64.7"/>
			<path class="st8" d="M1486.7,282.1h-2.5c-3.7,0-6.8-3-6.8-6.8v-43.5c0-3.7,3-6.8,6.8-6.8h2.5c3.7,0,6.8,3,6.8,6.8v43.6
				C1493.5,279.1,1490.5,282.1,1486.7,282.1z"/>
			<path class="st9" d="M1569.9,365.2v25.3h-97.3v-25.3h-2.2c-2.4,0-4.3-1.9-4.3-4.3V203c0-2.4,1.9-4.3,4.3-4.3h102.4
				c2.4,0,4.3,1.9,4.3,4.3v157.9c0,2.4-1.9,4.3-4.3,4.3H1569.9z"/>
			<rect x="1473.4" y="220.8" class="st8" width="86.9" height="64.6"/>
			<path class="st10" d="M713.9,365.2h-97.3h-2.2c-2.4,0-4.3-1.9-4.3-4.3V203c0-2.4,1.9-4.3,4.3-4.3h102.4c2.4,0,4.3,1.9,4.3,4.3
				v157.9c0,2.4-1.9,4.3-4.3,4.3H713.9z"/>
			<rect x="619.8" y="220.1" class="st8" width="93.4" height="64.2"/>
			<path class="st8" d="M286.5,285h-34.6c-2.5,0-4.6-2-4.6-4.6v-56.5c0-2.5,2-4.6,4.6-4.6h34.6c2.5,0,4.6,2,4.6,4.6v56.5
				C291,283,289,285,286.5,285z"/>
			<path class="st8" d="M519.8,279.6h-85.4c-2.4,0-4.3-1.9-4.3-4.3v-45.4c0-2.4,1.9-4.3,4.3-4.3h85.4c2.4,0,4.3,1.9,4.3,4.3v45.4
				C524.1,277.7,522.2,279.6,519.8,279.6z"/>
			<path class="st7" d="M713.3,220.5v-8.9c0-3.6-2.9-6.6-6.6-6.6h-80.2c-3.6,0-6.6,2.9-6.6,6.6v8.9H713.3z"/>
			<path class="st7" d="M713.3,284.4v8.9c0,3.6-2.9,6.6-6.6,6.6h-80.2c-3.6,0-6.6-2.9-6.6-6.6v-8.9H713.3z"/>
			<path class="st8" d="M118.1,196.5l9.7,13.3c0,0,4.3,4,10.9,1.5s46.1-18.4,46.1-18.4s7.9-4.9,3.2-11.2
				c-4.6-6.4-17.1-23.5-17.1-23.5L118.1,196.5z"/>
		</g>
	</g>
	<g id="Omriss_7_">
		<path class="st11" d="M234.7,145.1h-33.6c0,0-8.8-2.2-29.6,12.9S42.8,251.5,42.8,251.5s-10.5,9.2-12.5,19
			c-1.9,9.8-12.7,50.3-12.7,50.3s-4,19,3.1,28.7h505.1l28.3,55.3h1100.7l33.1-61.2h223l29.7,57.9h101.5V145.4L234.7,145.1z"/>
		<path class="st11" d="M21.1,307.9c0,0,7.2-28,44.9-49.1c37.8-21,99.9-58.5,143.7-67.3s97.2-24.6,105.1-34s6.6-12.4,6.6-12.4"/>
		<path class="st11" d="M258.9,179.7c0,0,78.7-12.1,121.2-12.1s1662.1,0,1662.1,0"/>
		<path class="st11" d="M118.6,197.4l9.7,12.4c0,0,3.2,4.8,13.7,0.5s43.3-17.5,43.3-17.5s8-4.7,3.2-11.2
			c-4.7-6.5-17.1-23.5-17.1-23.5"/>
		<path class="st11" d="M286.5,285h-34.6c-2.5,0-4.6-2-4.6-4.6v-56.5c0-2.5,2-4.6,4.6-4.6h34.6c2.5,0,4.6,2,4.6,4.6v56.5
			C291,283,289,285,286.5,285z"/>
		<path class="st11" d="M254.4,360.1h0.6h12h13.2h14.5h13.2h15.2c1.8,0,3.5,0.6,4.9,1.8l10.8,8.9c1.4,1.2,3.1,1.8,4.9,1.8h87.6
			c1.8,0,3.5-0.6,4.8-1.7l8.2-6.6l3.2-2.5c1.4-1.1,3.1-1.7,4.8-1.7h15.4h13.6h13.2h13.6h12.5h0.1"/>
		<path class="st11" d="M254.2,368h0.7l4.3,0.3l7.1,0.4l32.5,2c0.5,0,0.9,0.1,1.3,0.3l12.8,3.7l7.2,2.1l4.4,1.2
			c1.1,0.3,2.1,1,2.9,1.8l13.9,16.1c1.2,1.3,2.9,2.1,4.6,2.1h82.9c1.8,0,3.5-0.7,4.6-2.1l14.1-16.1c0.8-0.9,1.9-1.6,3.1-1.9l5-1.3
			l7.1-1.8l12.8-3.3c0.4-0.1,0.8-0.2,1.1-0.2l33.4-1.9l6.9-0.4l5.9-0.3"/>
		<circle class="st11" cx="287.4" cy="387.7" r="7.6"/>
		<path class="st11" d="M280.2,360.1c2.3-0.6,4.7-0.9,7.2-0.9s4.9,0.3,7.2,0.9"/>
		<path class="st11" d="M312.8,374.7c2,3.9,3.2,8.3,3.2,13c0,15.7-12.8,28.5-28.5,28.5c-15.8,0-28.5-12.8-28.5-28.5
			c0-7.3,2.8-14,7.2-19"/>
		<path class="st11" d="M280.2,360.1H267c5.7-4.3,12.8-6.8,20.4-6.8s14.7,2.5,20.4,6.8"/>
		<path class="st11" d="M320,376.8c1.2,3.4,1.8,7.1,1.8,10.9c0,19-15.4,34.3-34.3,34.3c-19,0-34.3-15.4-34.3-34.3
			c0-7.2,2.2-13.9,6-19.4l7.1,0.4"/>
		<circle class="st11" cx="488" cy="387.7" r="7.6"/>
		<path class="st11" d="M509.9,369.4c4.1,4.9,6.6,11.3,6.6,18.3c0,15.7-12.7,28.5-28.5,28.5c-15.7,0-28.5-12.8-28.5-28.5
			c0-4.6,1.1-9,3.1-12.9"/>
		<path class="st11" d="M481.4,360c2.1-0.5,4.3-0.8,6.6-0.8s4.5,0.3,6.6,0.8"/>
		<path class="st11" d="M467.8,360c5.7-4.2,12.6-6.6,20.2-6.6s14.6,2.5,20.2,6.6"/>
		<path class="st11" d="M516.8,369c3.5,5.4,5.5,11.8,5.5,18.7c0,19-15.4,34.3-34.3,34.3c-19,0-34.3-15.4-34.3-34.3
			c0-3.9,0.6-7.6,1.8-11"/>
		<circle class="st11" cx="523.1" cy="364" r="4.7"/>
		<path class="st11" d="M257.1,364c0,1.7-0.9,3.2-2.3,4c-0.7,0.4-1.5,0.7-2.4,0.7c-2.6,0-4.7-2.1-4.7-4.7s2.1-4.7,4.7-4.7
			c1,0,1.9,0.3,2.6,0.8C256.3,361,257.1,362.4,257.1,364z"/>
		<path class="st11" d="M20.8,349.5c0,0,1.5,5.3,8.7,10.9s9.2,7.1,9.2,7.1l141.2,36.1l55.3-54.1"/>
		<path class="st11" d="M38.7,367.5c0,0,7.8,7.9,1.8,15.4s-19.8,19.9-19.8,19.9l159.2,0.9"/>
		<polyline class="st11" points="339,349.5 338.9,356.8 343.7,372.5 		"/>
		<path class="st11" d="M439.6,349.5c0,0,4.8,3.4,4.8,8s0,7,0,7"/>
		<path class="st11" d="M1678.3,361.5h12h14.5h13.2h7.5c1.8,0,3.5,0.6,4.9,1.8l18.5,8.9c1.4,1.2,3.1,1.8,4.9,1.8h87.6
			c1.8,0,3.5-0.6,4.8-1.7l19.8-9.1c1.4-1.1,3.1-1.7,4.8-1.7h6.9h13.6h13.2h13.6h1.9"/>
		<path class="st11" d="M1673.7,370l2.5,0.1l32.5,2c0.5,0,0.9,0.1,1.3,0.3l12.8,3.7l7.2,2.1l4.4,1.2c1.1,0.3,2.1,1,2.9,1.8
			l13.9,16.1c1.2,1.3,2.9,2.1,4.6,2.1h82.9c1.8,0,3.5-0.7,4.6-2.1l14.1-16.1c0.8-0.9,1.9-1.6,3.1-1.9l5-1.3l7.1-1.8l12.8-3.3
			c0.4-0.1,0.8-0.2,1.1-0.2l33.4-1.9l4.9-0.3"/>
		<circle class="st11" cx="1697.5" cy="389.1" r="7.6"/>
		<path class="st11" d="M1690.3,361.5c2.3-0.6,4.7-0.9,7.2-0.9s4.9,0.3,7.2,0.9"/>
		<path class="st11" d="M1722.9,376.1c2,3.9,3.2,8.3,3.2,13c0,15.7-12.8,28.5-28.5,28.5c-15.8,0-28.5-12.8-28.5-28.5
			c0-7.3,2.8-14,7.2-19"/>
		<path class="st11" d="M1690.3,361.5h-12c0,0,0.6-1.3,1.2-1.7c5.4-3.5,11.2-5.1,18-5.1c7.6,0,14.7,2.5,20.4,6.8"/>
		<line class="st11" x1="1676.2" y1="370.1" x2="1673.7" y2="370"/>
		<path class="st11" d="M1730,378.2c1.2,3.4,1.8,7.1,1.8,10.9c0,19-15.4,34.3-34.3,34.3c-18.8,0-34.1-15.2-34.3-33.9"/>
		<circle class="st11" cx="1898" cy="389.1" r="7.6"/>
		<path class="st11" d="M1919.9,370.8c4.1,4.9,6.6,11.3,6.6,18.3c0,15.7-12.7,28.5-28.5,28.5c-15.7,0-28.5-12.8-28.5-28.5
			c0-4.6,1.1-9,3.1-12.9"/>
		<path class="st11" d="M1891.4,361.4c2.1-0.5,4.3-0.8,6.6-0.8s4.5,0.3,6.6,0.8"/>
		<path class="st11" d="M1877.8,361.4c5.7-4.2,12.6-6.6,20.2-6.6s14.6,2.5,20.2,6.6"/>
		<path class="st11" d="M1932.1,384.6c0.2,1.5,0.3,3,0.3,4.5c0,19-15.4,34.3-34.3,34.3c-19,0-34.3-15.4-34.3-34.3
			c0-3.9,0.6-7.6,1.8-11"/>
		<polyline class="st11" points="1748.1,343.9 1748.1,356 1766.1,356 1776.2,349.7 1819.4,349.7 1830.2,355.7 		"/>
		<polyline class="st11" points="1743.3,368.8 1743.3,353 1748.1,343.9 		"/>
		<polyline class="st11" points="1843.1,372.6 1843.1,368.8 1827.7,368.8 1830.2,355.7 1846.8,355.7 1846.8,343.6 		"/>
		<line class="st11" x1="1760.4" y1="356" x2="1750.5" y2="373.2"/>
		<polyline class="st11" points="347.2,349.5 346.8,360.6 363.1,353.9 412.1,353.9 429.4,358.7 429.4,349.5 		"/>
		<rect x="836.7" y="219.9" class="st11" width="103.9" height="65.5"/>
		<path class="st11" d="M931.3,279.4h-85.4c-2.4,0-4.3-1.9-4.3-4.3v-45.3c0-2.4,1.9-4.3,4.3-4.3h85.4c2.4,0,4.3,1.9,4.3,4.3v45.4
			C935.6,277.5,933.7,279.4,931.3,279.4z"/>
		<rect x="425.1" y="219.9" class="st11" width="103.9" height="65.5"/>
		<path class="st11" d="M519.8,279.4h-85.4c-2.4,0-4.3-1.9-4.3-4.3v-45.3c0-2.4,1.9-4.3,4.3-4.3h85.4c2.4,0,4.3,1.9,4.3,4.3v45.4
			C524.1,277.5,522.2,279.4,519.8,279.4z"/>
		<rect x="970.3" y="219.9" class="st11" width="103.9" height="65.5"/>
		<path class="st11" d="M1064.9,279.4h-85.4c-2.4,0-4.3-1.9-4.3-4.3v-45.3c0-2.4,1.9-4.3,4.3-4.3h85.4c2.4,0,4.3,1.9,4.3,4.3v45.4
			C1069.2,277.5,1067.3,279.4,1064.9,279.4z"/>
		<rect x="1110.8" y="219.9" class="st11" width="103.9" height="65.5"/>
		<path class="st11" d="M1205.4,279.4H1120c-2.4,0-4.3-1.9-4.3-4.3v-45.3c0-2.4,1.9-4.3,4.3-4.3h85.4c2.4,0,4.3,1.9,4.3,4.3v45.4
			C1209.7,277.5,1207.8,279.4,1205.4,279.4z"/>
		<rect x="1245" y="219.9" class="st11" width="103.9" height="65.5"/>
		<path class="st11" d="M1339.7,279.4h-85.4c-2.4,0-4.3-1.9-4.3-4.3v-45.3c0-2.4,1.9-4.3,4.3-4.3h85.4c2.4,0,4.3,1.9,4.3,4.3v45.4
			C1344,277.5,1342,279.4,1339.7,279.4z"/>
		<rect x="1656.8" y="219.9" class="st11" width="103.9" height="65.5"/>
		<path class="st11" d="M1751.5,279.4H1666c-2.4,0-4.3-1.9-4.3-4.3v-45.3c0-2.4,1.9-4.3,4.3-4.3h85.4c2.4,0,4.3,1.9,4.3,4.3v45.4
			C1755.7,277.5,1753.8,279.4,1751.5,279.4z"/>
		<rect x="1790.8" y="219.9" class="st11" width="103.9" height="65.5"/>
		<path class="st11" d="M1885.4,279.4H1800c-2.4,0-4.3-1.9-4.3-4.3v-45.3c0-2.4,1.9-4.3,4.3-4.3h85.4c2.4,0,4.3,1.9,4.3,4.3v45.4
			C1889.7,277.5,1887.8,279.4,1885.4,279.4z"/>
		<rect x="1473.3" y="220.6" class="st11" width="23.5" height="64.7"/>
		<path class="st11" d="M1486.7,281.5h-2.5c-3.7,0-6.8-3-6.8-6.8v-43.6c0-3.7,3-6.8,6.8-6.8h2.5c3.7,0,6.8,3,6.8,6.8v43.6
			C1493.5,278.5,1490.5,281.5,1486.7,281.5z"/>
		<path class="st11" d="M1569.9,364.6v25.2h-97.3v-25.3h-2.2c-2.4,0-4.3-1.9-4.3-4.3V202.4c0-2.4,1.9-4.3,4.3-4.3h102.4
			c2.4,0,4.3,1.9,4.3,4.3v157.9c0,2.4-1.9,4.3-4.3,4.3H1569.9z"/>
		<rect x="1496.8" y="220.8" class="st11" width="63.5" height="64.6"/>
		<path class="st11" d="M714.3,364.6v25.3H617v-25.3h-2.2c-2.4,0-4.3-1.9-4.3-4.3V202.4c0-2.4,1.9-4.3,4.3-4.3h102.4
			c2.4,0,4.3,1.9,4.3,4.3v157.9c0,2.4-1.9,4.3-4.3,4.3H714.3z"/>
		<rect x="619.8" y="219.9" class="st11" width="93.4" height="64.2"/>
		<path class="st11" d="M713.3,219.9V211c0-3.6-2.9-6.6-6.6-6.6h-80.2c-3.6,0-6.6,2.9-6.6,6.6v8.9H713.3z"/>
		<path class="st11" d="M713.3,283.8v8.9c0,3.6-2.9,6.6-6.6,6.6h-80.2c-3.6,0-6.6-2.9-6.6-6.6v-8.9H713.3z"/>
		<line class="st11" x1="714.3" y1="364.6" x2="617" y2="364.6"/>
		<line class="st11" x1="1569.9" y1="364.6" x2="1472" y2="364.6"/>
		<polyline class="st11" points="22,349.5 22,349.6 20.9,350 4.4,355.5 4.4,357 2.9,357 2.9,334.8 4.4,334.8 4.4,336.2 17.3,340.6 
					"/>
		<path class="st12" d="M1839,399.5v4.9c0,0,0,1,1.3,1.5s5.2,2,5.2,2s0.2,1.9-0.8,2.3c-1,0.3-3,1.5-10.2,1.5c-7.1,0-32.3,0-32.3,0
			h-4.6c0,0-30.1,0-37.2,0s-9.2-1.2-10.2-1.5s-0.8-2.3-0.8-2.3s3.9-1.5,5.2-2c1.3-0.5,1.3-1.5,1.3-1.5v-4.9"/>
	</g>
</g>
</svg>
