<?xml version="1.0" encoding="utf-8"?>
<!-- Generator: Adobe Illustrator 22.0.1, SVG Export Plug-In . SVG Version: 6.00 Build 0)  -->
<svg version="1.1" id="Type_92" xmlns="http://www.w3.org/2000/svg" xmlns:xlink="http://www.w3.org/1999/xlink" x="0px" y="0px"
	 viewBox="0 0 1849 320" style="enable-background:new 0 0 1849 320;" xml:space="preserve">
<style type="text/css">
	.st0{fill:#444445;}
	.st1{fill:#212322;}
	.st2{fill:#FFBF3F;}
	.st3{fill:#B1B3B3;}
	.st4{fill:#B1190B;}
	.st5{fill:#878787;}
	.st6{opacity:0.6;enable-background:new    ;}
	.st7{fill:#4D4C4D;}
	.st8{opacity:0.7;enable-background:new    ;}
</style>
<g id="Mål_11_">
</g>
<g>
	<g id="Farger_11_">
		<g id="Grunnfarge_7_">
			<g>
				<polygon class="st0" points="21.8,85.5 33.8,77.2 33.8,236.7 21.8,228.4 				"/>
			</g>
			<g>
				<polygon class="st1" points="1805.9,232.3 1828.4,232.3 1828.4,235 1842.2,235 1842.2,228.4 1847.8,228.4 1847.8,253.3 
					1842.3,253.3 1842.3,245.8 1828.2,245.8 1828.2,248.1 1806.1,248.1 				"/>
			</g>
			<g>
				<path class="st2" d="M1806.1,257.5l26.4,15.4c0,0-7.1,3.9-9.2,9s-1.2,9.8,1.9,13.8c3.1,4,6.2,5.5,6.2,5.5h-15.2l-36.5-22.1
					l14.9-21.6L1806.1,257.5z"/>
			</g>
			<g>
				<polygon class="st0" points="12.6,85.3 0,78.1 0,236 12.6,228.3 				"/>
			</g>
			<g>
				<rect x="12.4" y="85.5" class="st0" width="9.4" height="142.9"/>
			</g>
			<g>
				<polygon class="st1" points="1645.4,278.9 1614.4,247.8 183.7,247.3 152.6,282.3 1403.3,282.3 				"/>
			</g>
			<g>
				<rect x="1086.2" y="247.1" class="st1" width="163.4" height="26.5"/>
			</g>
			<g>
				<rect x="808.6" y="247.1" class="st1" width="270.5" height="26.5"/>
			</g>
			<g>
				<rect x="460.6" y="247.1" class="st1" width="270.5" height="26.5"/>
			</g>
			<g>
				<path class="st1" d="M1264.6,247.1v13.4c0,8.4,6.8,15.2,15.2,15.2h71.4c8.4,0,15.2-6.8,15.2-15.2v-13.4H1264.6z"/>
			</g>
			<g>
				<path class="st1" d="M157.5,276.7h11.9c0,0-3.8,17.6,6.5,29.1c10.4,11.5,19,13.8,29.5,13.8s25.8-6.9,31.9-22.6l9,3.1v-18.7
					l23.7,13.8h58.2l17.9-10.3v14.7l9.5-3.1c0,0,5.4,15.7,21.2,20.5c15.8,4.8,25.2,0.5,31.4-2.8c6.2-3.3,15-14.6,16.3-23
					c1.4-8.4,0.1-14.5-0.3-14.5h7.8v-16.2l-15.8-0.6c0,0-8.2-9-25.4-12.6H204.1c0,0-12.3,0.2-22.8,9.2l-4.1,3.9H172L157.5,276.7z"/>
			</g>
			<g>
				<path class="st1" d="M1650.9,278.9c0,0,3.1,15.8-7.2,27.3c-10.4,11.5-19,13.8-29.5,13.8s-25.8-6.9-31.9-22.6l-9,3.1v-18.6
					l-23.7,13.8h-58.1l-17.9-10.3v14.7l-9.5-3.1c0,0-5.4,15.7-21.2,20.5c-15.8,4.8-25.2,0.5-31.4-2.8c-6.2-3.3-15-14.6-16.3-23
					c-1.4-8.4-0.1-14.5,0.3-14.5h-7.8v-16.3l15.8-0.6c0,0,8.2-9,25.4-12.6h185.6c0,0,21.6,21.7,30.9,31.2H1650.9z"/>
			</g>
			<g>
				<polygon class="st3" points="33.8,31.7 81.9,31.7 107.7,6 1012.3,6 1037.3,31.7 1762.6,31.7 1766.3,35.7 1768.6,35.7 1787,44.2 
					1818.4,199.5 1805.9,228.4 1778.8,98.5 1805.9,228.4 1806.1,257.5 1794.6,257.5 1780.1,278.9 1645.4,278.9 1614.4,247.8 
					183.7,247.3 152.6,282.3 33.8,282.3 				"/>
			</g>
			<g>
				<polygon class="st3" points="1666.5,278.9 1666.5,285.6 1716.8,285.6 1716.8,278.6 				"/>
			</g>
		</g>
		<g id="Profilering_11_">
			<g>
				<polygon class="st4" points="1806.3,257.4 1794.7,257.4 1780.2,278.9 1645.5,278.9 1614.1,247.3 183.9,247.3 152.7,282.2 
					33.9,282.2 33.9,192.7 1795.1,192.7 1806,228.3 				"/>
			</g>
			<g>
				<polygon class="st1" points="33.8,98.5 1778.8,98.5 1793.4,175.9 33.8,175.9 				"/>
			</g>
		</g>
		<g id="Dører_og_vinduer_10_">
			<g>
				<path class="st5" d="M302.9,172.6h-84.2c-7,0-12.7-5.7-12.7-12.7v-44.7c0-7,5.7-12.7,12.7-12.7h84.2c7,0,12.7,5.7,12.7,12.7
					v44.7C315.6,166.9,309.9,172.6,302.9,172.6z"/>
			</g>
			<g>
				<path class="st5" d="M436.2,172.6H352c-7,0-12.7-5.7-12.7-12.7v-44.7c0-7,5.7-12.7,12.7-12.7h84.2c7,0,12.7,5.7,12.7,12.7v44.7
					C448.9,166.9,443.2,172.6,436.2,172.6z"/>
			</g>
			<g>
				<path class="st5" d="M569.6,172.6h-84.3c-7,0-12.7-5.7-12.7-12.7v-44.7c0-7,5.7-12.7,12.7-12.7h84.2c7,0,12.7,5.7,12.7,12.7
					v44.7C582.2,166.9,576.6,172.6,569.6,172.6z"/>
			</g>
			<g>
				<path class="st5" d="M1061.8,172.6h-84.2c-7,0-12.7-5.7-12.7-12.7v-44.7c0-7,5.7-12.7,12.7-12.7h84.2c7,0,12.7,5.7,12.7,12.7
					v44.7C1074.5,166.9,1068.8,172.6,1061.8,172.6z"/>
			</g>
			<g>
				<path class="st5" d="M930.9,172.6h-84.2c-7,0-12.7-5.7-12.7-12.7v-44.7c0-7,5.7-12.7,12.7-12.7h84.2c7,0,12.7,5.7,12.7,12.7
					v44.7C943.5,166.9,937.9,172.6,930.9,172.6z"/>
			</g>
			<g>
				<path class="st5" d="M1195.2,172.6H1111c-7,0-12.7-5.7-12.7-12.7v-44.7c0-7,5.7-12.7,12.7-12.7h84.2c7,0,12.7,5.7,12.7,12.7
					v44.7C1207.8,166.9,1202.2,172.6,1195.2,172.6z"/>
			</g>
			<g>
				<path class="st5" d="M1326.5,172.6h-84.2c-7,0-12.7-5.7-12.7-12.7v-44.7c0-7,5.7-12.7,12.7-12.7h84.2c7,0,12.7,5.7,12.7,12.7
					v44.7C1339.1,166.9,1333.5,172.6,1326.5,172.6z"/>
			</g>
			<g>
				<path class="st5" d="M1400.8,172.6h-19c-7,0-12.7-5.7-12.7-12.7v-44.7c0-7,5.7-12.7,12.7-12.7h19c7,0,12.7,5.7,12.7,12.7v44.7
					C1413.4,166.9,1407.8,172.6,1400.8,172.6z"/>
			</g>
			<g>
				<path class="st5" d="M1524.5,172.6h-19c-7,0-12.7-5.7-12.7-12.7v-44.7c0-7,5.7-12.7,12.7-12.7h19c7,0,12.7,5.7,12.7,12.7v44.7
					C1537.2,166.9,1531.5,172.6,1524.5,172.6z"/>
			</g>
			<g>
				<path class="st5" d="M703.1,172.6h-84.2c-7,0-12.7-5.7-12.7-12.7v-44.7c0-7,5.7-12.7,12.7-12.7h84.2c7,0,12.7,5.7,12.7,12.7
					v44.7C715.8,166.9,710.1,172.6,703.1,172.6z"/>
			</g>
			<g>
				<path class="st5" d="M1771.1,106.4l9.2,41.1h-24.7c0,0-5.6,0.3-5.6-6.3s0-29,0-29s-0.7-5.9,6.3-5.9
					C1763.2,106.4,1771.1,106.4,1771.1,106.4z"/>
			</g>
			<g>
				<rect x="1659.2" y="90.2" class="st3" width="66.8" height="189.2"/>
			</g>
			<g class="st6">
				<path class="st7" d="M1683.6,172.5h20.4c6.4,0,11.5-5.2,11.5-11.5v-48.4c0-6.4-5.2-11.5-11.5-11.5h-20.4
					c-6.4,0-11.5,5.2-11.5,11.5V161C1672.1,167.4,1677.2,172.5,1683.6,172.5z"/>
			</g>
			<g class="st8">
				<path d="M206.2,129.7h109.4v-15.9c0,0-0.7-4.4-4-7.7s-9.5-3.5-9.5-3.5h-83.5c0,0-5-0.2-9,3.8s-3.5,9.8-3.5,9.8v13.5L206.2,129.7
					L206.2,129.7z"/>
			</g>
			<g class="st8">
				<path d="M339.4,129.7h109.4v-15.9c0,0-0.7-4.4-4-7.7c-3.3-3.3-9.5-3.5-9.5-3.5h-83.5c0,0-5-0.2-9,3.8c-4,4-3.5,9.8-3.5,9.8v13.5
					L339.4,129.7L339.4,129.7z"/>
			</g>
			<g class="st8">
				<path d="M834.3,129.5h109.4v-15.9c0,0-0.7-4.4-4-7.7c-3.3-3.3-9.5-3.5-9.5-3.5h-83.5c0,0-5-0.2-9,3.8c-4,4-3.5,9.8-3.5,9.8
					L834.3,129.5L834.3,129.5z"/>
			</g>
			<g class="st8">
				<path d="M965,129.5h109.4v-15.9c0,0-0.7-4.4-4-7.7c-3.3-3.3-9.5-3.5-9.5-3.5h-83.5c0,0-5-0.2-9,3.8c-4,4-3.5,9.8-3.5,9.8v13.5
					H965z"/>
			</g>
		</g>
	</g>
	<g id="Omriss_11_">
		<g>
			<path d="M303.1,173.6h-84.2c-7.6,0-13.7-6.1-13.7-13.7v-44.7c0-7.6,6.1-13.7,13.7-13.7h84.2c7.6,0,13.7,6.1,13.7,13.7v44.7
				C316.8,167.5,310.7,173.6,303.1,173.6z M218.9,103.5c-6.5,0-11.7,5.2-11.7,11.7v44.7c0,6.5,5.2,11.7,11.7,11.7h84.2
				c6.5,0,11.7-5.2,11.7-11.7v-44.7c0-6.5-5.2-11.7-11.7-11.7H218.9z"/>
		</g>
		<g>
			<rect x="206.2" y="128.8" width="109.6" height="2"/>
		</g>
		<g>
			<path d="M436.3,173.6h-84.2c-7.6,0-13.7-6.1-13.7-13.7v-44.7c0-7.6,6.1-13.7,13.7-13.7h84.2c7.6,0,13.7,6.1,13.7,13.7v44.7
				C450,167.5,443.9,173.6,436.3,173.6z M352.1,103.5c-6.5,0-11.7,5.2-11.7,11.7v44.7c0,6.5,5.2,11.7,11.7,11.7h84.2
				c6.5,0,11.7-5.2,11.7-11.7v-44.7c0-6.5-5.2-11.7-11.7-11.7H352.1z"/>
		</g>
		<g>
			<rect x="339.4" y="128.8" width="109.6" height="2"/>
		</g>
		<g>
			<path d="M569.7,173.6h-84.2c-7.6,0-13.7-6.1-13.7-13.7v-44.7c0-7.6,6.1-13.7,13.7-13.7h84.2c7.6,0,13.7,6.1,13.7,13.7v44.7
				C583.4,167.5,577.2,173.6,569.7,173.6z M485.4,103.5c-6.5,0-11.7,5.2-11.7,11.7v44.7c0,6.5,5.2,11.7,11.7,11.7h84.2
				c6.5,0,11.7-5.2,11.7-11.7v-44.7c0-6.5-5.2-11.7-11.7-11.7H485.4z"/>
		</g>
		<g>
			<path d="M1062,173.6h-84.2c-7.6,0-13.7-6.1-13.7-13.7v-44.7c0-7.6,6.1-13.7,13.7-13.7h84.2c7.6,0,13.7,6.1,13.7,13.7v44.7
				C1075.6,167.5,1069.5,173.6,1062,173.6z M977.8,103.5c-6.5,0-11.7,5.2-11.7,11.7v44.7c0,6.5,5.2,11.7,11.7,11.7h84.2
				c6.4,0,11.6-5.3,11.7-11.7v-44.7c0-6.5-5.2-11.7-11.7-11.7H977.8z"/>
		</g>
		<g>
			<rect x="965.1" y="128.8" width="109.5" height="2"/>
		</g>
		<g>
			<path d="M931,173.6h-84.2c-7.6,0-13.7-6.1-13.7-13.7v-44.7c0-7.6,6.1-13.7,13.7-13.7H931c7.6,0,13.7,6.1,13.7,13.7v44.7
				C944.7,167.5,938.6,173.6,931,173.6z M846.8,103.5c-6.5,0-11.7,5.2-11.7,11.7v44.7c0,6.5,5.2,11.7,11.7,11.7H931
				c6.5,0,11.7-5.2,11.7-11.7v-44.7c0-6.5-5.2-11.7-11.7-11.7H846.8z"/>
		</g>
		<g>
			<rect x="834.1" y="128.8" width="109.6" height="2"/>
		</g>
		<g>
			<path d="M1195.3,173.6h-84.2c-7.6,0-13.7-6.1-13.7-13.7v-44.7c0-7.6,6.1-13.7,13.7-13.7h84.2c7.6,0,13.7,6.1,13.7,13.7v44.7
				C1209,167.5,1202.8,173.6,1195.3,173.6z M1111.1,103.5c-6.5,0-11.7,5.2-11.7,11.7v44.7c0,6.5,5.2,11.7,11.7,11.7h84.2
				c6.5,0,11.7-5.2,11.7-11.7v-44.7c0-6.5-5.2-11.7-11.7-11.7H1111.1z"/>
		</g>
		<g>
			<path d="M1326.6,173.6h-84.2c-7.6,0-13.7-6.1-13.7-13.7v-44.7c0-7.6,6.1-13.7,13.7-13.7h84.2c7.6,0,13.7,6.1,13.7,13.7v44.7
				C1340.3,167.5,1334.1,173.6,1326.6,173.6z M1242.4,103.5c-6.5,0-11.7,5.2-11.7,11.7v44.7c0,6.5,5.2,11.7,11.7,11.7h84.2
				c6.5,0,11.7-5.2,11.7-11.7v-44.7c0-6.5-5.2-11.7-11.7-11.7H1242.4z"/>
		</g>
		<g>
			<path d="M1400.9,173.6h-19c-7.6,0-13.7-6.1-13.7-13.7v-44.7c0-7.6,6.1-13.7,13.7-13.7h19c7.6,0,13.7,6.1,13.7,13.7v44.7
				C1414.6,167.5,1408.5,173.6,1400.9,173.6z M1381.9,103.5c-6.5,0-11.7,5.2-11.7,11.7v44.7c0,6.5,5.2,11.7,11.7,11.7h19
				c6.5,0,11.7-5.2,11.7-11.7v-44.7c0-6.5-5.2-11.7-11.7-11.7H1381.9z"/>
		</g>
		<g>
			<path d="M1524.6,173.6h-19c-7.6,0-13.7-6.1-13.7-13.7v-44.7c0-7.6,6.1-13.7,13.7-13.7h19c7.6,0,13.7,6.1,13.7,13.7v44.7
				C1538.3,167.5,1532.2,173.6,1524.6,173.6z M1505.6,103.5c-6.5,0-11.7,5.2-11.7,11.7v44.7c0,6.5,5.2,11.7,11.7,11.7h19
				c6.5,0,11.7-5.2,11.7-11.7v-44.7c0-6.5-5.2-11.7-11.7-11.7H1505.6z"/>
		</g>
		<g>
			<path d="M703.3,173.6h-84.2c-7.6,0-13.7-6.1-13.7-13.7v-44.7c0-7.6,6.1-13.7,13.7-13.7h84.2c7.6,0,13.7,6.1,13.7,13.7v44.7
				C716.9,167.5,710.7,173.6,703.3,173.6z M619.1,103.5c-6.5,0-11.7,5.2-11.7,11.7v44.7c0,6.5,5.2,11.7,11.7,11.7h84.2
				c6.4,0,11.6-5.3,11.7-11.7v-44.7c0-6.5-5.2-11.7-11.7-11.7H619.1z"/>
		</g>
		<g>
			<polygon points="1.1,237.6 0,236 11.6,228 11.6,86 0,78.1 1.1,76.5 13.6,85 13.6,229 			"/>
		</g>
		<g>
			<rect x="7.5" y="82.7" width="2" height="149.4"/>
		</g>
		<g>
			<polygon points="153,283.3 32.9,283.3 32.9,30.7 82,30.7 82,32.7 34.9,32.7 34.9,281.3 152.1,281.3 183.2,246.4 1614.8,246.4 
				1645.7,278.1 1779.3,278.1 1794,256.5 1805,256.5 1805,228.3 1817.5,199.8 1786.5,44.7 1769,36.7 1766.1,36.7 1762.3,32.7 
				1037.4,32.7 1037.4,30.7 1763.2,30.7 1767,34.7 1769.4,34.7 1788.3,43.3 1788.4,43.8 1819.6,200 1819.5,200.3 1807,228.7 
				1807,258.5 1795.1,258.5 1780.4,280.1 1644.8,280.1 1613.9,248.4 184.1,248.4 			"/>
		</g>
		<g>
			<path d="M1805.6,231.8l-31.1-149.5H32.9V71.8h1739.9l-7.1-37.4l6.2,1.4l0.1,0.6l38.5,184.2L1805.6,231.8z M34.9,80.3h1741.3
				l0.2,0.8l30,144.2l2.1-4.8l-38.2-183l-2-0.4l6.9,36.8H34.9V80.3z"/>
		</g>
		<g>
			<path d="M1755.6,148.5c-0.6,0-2.7-0.1-4.4-1.7c-1.4-1.3-2-3.2-2-5.6v-29c0-0.5-0.2-2.9,1.5-4.8c1.3-1.4,3.2-2.2,5.8-2.2
				c6.9,0,14.7,0.1,14.8,0.1l0.8,0l9.6,43.1h-26C1755.8,148.5,1755.7,148.5,1755.6,148.5z M1756.5,107.3c-2,0-3.4,0.5-4.3,1.5
				c-1.2,1.4-1,3.3-1,3.3l0,0.1v29c0,1.8,0.5,3.2,1.4,4.1c1.3,1.2,3.1,1.2,3.1,1.2l23.5,0l-8.8-39.1
				C1768.3,107.4,1762.1,107.3,1756.5,107.3z"/>
		</g>
		<g>
			<path d="M1727.2,280.1h-68.8V84h68.8V280.1z M1660.4,278.1h64.8V86h-64.8V278.1z"/>
		</g>
		<g>
			<path d="M1718,286.8h-52.3v-8.6h52.3V286.8z M1667.7,284.8h48.3v-4.6h-48.3V284.8z"/>
		</g>
		<g>
			<path d="M1704.1,173.6h-20.4c-6.9,0-12.5-5.6-12.5-12.5v-48.4c0-6.9,5.6-12.5,12.5-12.5h20.4c6.9,0,12.5,5.6,12.5,12.5v48.4
				C1716.6,168,1711,173.6,1704.1,173.6z M1683.7,102.2c-5.8,0-10.5,4.7-10.5,10.5v48.4c0,5.8,4.7,10.5,10.5,10.5h20.4
				c5.8,0,10.5-4.7,10.5-10.5v-48.4c0-5.8-4.7-10.5-10.5-10.5H1683.7z"/>
		</g>
		<g>
			<polygon points="1549.9,296.3 1491.1,296.3 1490.8,296.2 1459.4,278 1460.4,276.3 1491.6,294.3 1549.4,294.3 1580.5,276.3 
				1581.5,278 			"/>
		</g>
		<g>
			<path d="M1645.3,277.8h-258.6v-18.3h240.9L1645.3,277.8z M1388.7,275.8h251.9l-13.9-14.3h-238V275.8z"/>
		</g>
		<g>
			<path d="M1615.6,290.8c-3.7,0-6.8-3.1-6.8-6.8c0-3.8,3.1-6.8,6.8-6.8c3.7,0,6.8,3.1,6.8,6.8
				C1622.4,287.8,1619.4,290.8,1615.6,290.8z M1615.6,279.2c-2.6,0-4.8,2.2-4.8,4.8c0,2.6,2.2,4.8,4.8,4.8s4.8-2.2,4.8-4.8
				C1620.4,281.4,1618.3,279.2,1615.6,279.2z"/>
		</g>
		<g>
			<path d="M1615.6,320.7c-20.2,0-36.7-16.5-36.7-36.7c0-2.3,0.2-4.6,0.6-6.7c0-0.2,0-0.3,0.1-0.4l2-0.1c0,0.2,0,0.4-0.1,0.5l0,0.2
				c-0.4,2-0.6,4.2-0.6,6.4c0,19.1,15.6,34.7,34.7,34.7s34.7-15.6,34.7-34.7c0-1.6-0.1-3.2-0.3-4.8l2-0.2c0.2,1.7,0.3,3.3,0.3,5
				C1652.4,304.3,1635.9,320.7,1615.6,320.7z"/>
		</g>
		<g>
			<path d="M1589.5,261.2l-1.5-1.3c6.8-7.9,16.7-12.4,27.2-12.5l0,2C1605.3,249.4,1595.9,253.7,1589.5,261.2z"/>
		</g>
		<g>
			<path d="M1615.6,315.3c-17.3,0-31.3-14-31.3-31.3c0-2.6,0.3-5.1,0.9-7.5l1.9,0.5c-0.6,2.2-0.9,4.5-0.9,6.9
				c0,16.2,13.1,29.3,29.3,29.3s29.3-13.1,29.3-29.3c0-1.8-0.1-3.3-0.4-4.7l2-0.4c0.3,1.5,0.4,3.1,0.4,5.1
				C1646.9,301.3,1632.9,315.3,1615.6,315.3z"/>
		</g>
		<g>
			<path d="M1597.1,261.3l-1.3-1.5c5.6-4.6,12.6-7.1,19.8-7.1c1.7,0,3.4,0.2,5.4,0.5l-0.3,2c-1.9-0.3-3.5-0.5-5-0.5
				C1608.9,254.6,1602.3,257,1597.1,261.3z"/>
		</g>
		<g>
			<path d="M1430.4,290.8c-3.7,0-6.8-3.1-6.8-6.8c0-3.8,3.1-6.8,6.8-6.8c3.7,0,6.8,3.1,6.8,6.8
				C1437.2,287.8,1434.2,290.8,1430.4,290.8z M1430.4,279.2c-2.6,0-4.8,2.2-4.8,4.8c0,2.6,2.2,4.8,4.8,4.8c2.6,0,4.8-2.2,4.8-4.8
				C1435.2,281.4,1433.1,279.2,1430.4,279.2z"/>
		</g>
		<g>
			<path d="M1404.3,261.2l-1.5-1.3c7.1-8,17.2-12.6,27.7-12.6c10.7,0,20.8,4.6,27.7,12.7l-1.5,1.3c-6.5-7.6-16-12-26.1-12
				C1420.5,249.2,1410.9,253.6,1404.3,261.2z"/>
		</g>
		<g>
			<path d="M1430.3,320.7c-20.2,0-36.7-16.5-36.7-36.7c0-2.2,0.2-4.6,0.7-7.4l2,0.3c-0.5,2.7-0.7,4.9-0.7,7
				c0,19.1,15.6,34.7,34.7,34.7c19.1,0,34.7-15.6,34.7-34.7c0-1,0-2-0.1-2.9l0-0.5h2v0.4c0.1,1,0.1,2,0.1,3
				C1467,304.3,1450.6,320.7,1430.3,320.7z"/>
		</g>
		<g>
			<path d="M1449,261.3c-5.2-4.3-11.8-6.7-18.6-6.7c-6.8,0-13.4,2.4-18.6,6.7l-1.3-1.5c5.6-4.6,12.6-7.1,19.8-7.1
				c7.2,0,14.3,2.5,19.8,7.1L1449,261.3z"/>
		</g>
		<g>
			<path d="M1430.4,315.3c-17.3,0-31.3-14-31.3-31.3c0-2.6,0.3-5.1,0.9-7.5l1.9,0.5c-0.6,2.2-0.9,4.5-0.9,6.9
				c0,16.2,13.1,29.3,29.3,29.3c16.2,0,29.3-13.1,29.3-29.3c0-1.8-0.2-3.7-0.7-6l0-0.2c0-0.2-0.1-0.4-0.1-0.7l1.9-0.6
				c0.1,0.3,0.2,0.7,0.2,1.2c0.5,2.4,0.7,4.4,0.7,6.3C1461.7,301.3,1447.7,315.3,1430.4,315.3z"/>
		</g>
		<g>
			<polygon points="1572.4,301.6 1572.4,281.9 1574.4,281.9 1574.4,298.8 1582.1,296.1 1582.8,298 			"/>
		</g>
		<g>
			<polygon points="1474.6,301.6 1464.3,298 1465,296.1 1472.6,298.8 1472.6,285 1474.6,285 			"/>
		</g>
		<g>
			<polygon points="328.8,296.3 269.9,296.3 238.3,278 239.3,276.3 270.5,294.3 328.2,294.3 359.4,276.3 360.4,278 			"/>
		</g>
		<g>
			<polygon points="433.2,277.8 233.6,277.8 233.6,275.8 431.2,275.8 431.2,261.5 223.4,261.5 223.4,259.5 433.2,259.5 			"/>
		</g>
		<g>
			<polygon points="169.2,277.8 155.2,277.8 171.7,259.5 177.3,259.5 177.3,261.5 172.6,261.5 159.7,275.8 169.2,275.8 			"/>
		</g>
		<g>
			<path d="M204.2,290.8c-3.8,0-6.8-3.1-6.8-6.8c0-3.8,3.1-6.8,6.8-6.8s6.8,3.1,6.8,6.8C211,287.8,207.9,290.8,204.2,290.8z
				 M204.2,279.2c-2.6,0-4.8,2.2-4.8,4.8c0,2.6,2.2,4.8,4.8,4.8s4.8-2.2,4.8-4.8C209,281.4,206.8,279.2,204.2,279.2z"/>
		</g>
		<g>
			<path d="M389.4,290.8c-3.8,0-6.8-3.1-6.8-6.8c0-3.8,3.1-6.8,6.8-6.8s6.8,3.1,6.8,6.8C396.2,287.8,393.2,290.8,389.4,290.8z
				 M389.4,279.2c-2.6,0-4.8,2.2-4.8,4.8c0,2.6,2.2,4.8,4.8,4.8c2.6,0,4.8-2.2,4.8-4.8C394.2,281.4,392.1,279.2,389.4,279.2z"/>
		</g>
		<g>
			<path d="M363.3,261.2l-1.5-1.3c7.1-8,17.2-12.6,27.7-12.6c10.7,0,20.8,4.6,27.7,12.7l-1.5,1.3c-6.5-7.6-16-12-26.1-12
				C379.5,249.2,370,253.6,363.3,261.2z"/>
		</g>
		<g>
			<path d="M389.4,320.7c-20.2,0-36.7-16.5-36.7-36.7c0-1,0-2.1,0.1-3.1l0-0.3h2v0.4c-0.1,1-0.1,2-0.1,3c0,19.1,15.6,34.7,34.7,34.7
				c19.1,0,34.7-15.6,34.7-34.7c0-2.6-0.2-4.9-0.7-7l2-0.4c0.5,2.2,0.7,4.7,0.7,7.4C426.1,304.3,409.7,320.7,389.4,320.7z"/>
		</g>
		<g>
			<path d="M370.9,261.3l-1.3-1.5c5.6-4.6,12.6-7.1,19.8-7.1c7.2,0,14.3,2.5,19.8,7.1l-1.3,1.5c-5.2-4.3-11.8-6.7-18.6-6.7
				C382.7,254.6,376.1,257,370.9,261.3z"/>
		</g>
		<g>
			<path d="M389.5,315.3c-17.3,0-31.3-14-31.3-31.3c0-2.3,0.2-4.5,0.7-6.4c0.1-0.2,0.1-0.3,0.1-0.4c0-0.2,0.1-0.5,0.1-0.7l1.9,0.6
				c0,0.1,0,0.2-0.1,0.3c0,0.2-0.1,0.5-0.1,0.7c-0.4,1.7-0.6,3.7-0.6,5.9c0,16.2,13.1,29.3,29.3,29.3c16.2,0,29.3-13.1,29.3-29.3
				c0-2.4-0.3-4.7-0.9-6.9l1.9-0.5c0.6,2.4,0.9,4.9,0.9,7.5C420.8,301.3,406.8,315.3,389.5,315.3z"/>
		</g>
		<g>
			<polygon points="247.4,301.6 237.2,298 237.8,296.1 245.4,298.8 245.4,281.9 247.4,281.9 			"/>
		</g>
		<g>
			<polygon points="345.3,301.6 345.3,285 347.3,285 347.3,298.8 354.9,296.1 355.6,298 			"/>
		</g>
		<g>
			<path d="M204.2,315.3c-17.3,0-31.3-14-31.3-31.3c0-2.6,0.3-5.1,0.9-7.5l1.9,0.5c-0.6,2.2-0.9,4.5-0.9,6.9
				c0,16.2,13.1,29.3,29.3,29.3s29.3-13.1,29.3-29.3c0-2.4-0.3-4.7-0.9-6.9l1.9-0.5c0.6,2.4,0.9,4.9,0.9,7.5
				C235.5,301.3,221.5,315.3,204.2,315.3z"/>
		</g>
		<g>
			<path d="M222.8,261.3c-5.3-4.2-11.9-6.6-18.6-6.6c-6.8,0-13.4,2.3-18.6,6.6l-1.3-1.5c5.5-4.5,12.5-7,19.8-7
				c7.2,0,14.2,2.5,19.8,7L222.8,261.3z"/>
		</g>
		<g>
			<path d="M204.1,320.7c-20.2,0-36.7-16.5-36.7-36.7c0-2.2,0.2-4.6,0.7-7.4l0.1-0.8h65.3v2h-63.6c-0.4,2.3-0.5,4.3-0.5,6.2
				c0,19.1,15.6,34.7,34.7,34.7c14.4,0,27.1-8.7,32.4-22.1c1.6-4,2.4-8.3,2.4-12.6c0-2.2-0.2-4.4-0.6-6.4l0-0.2
				c-0.1-0.2-0.1-0.4-0.1-0.6h2l0,0c0,0.2,0.1,0.3,0.1,0.5c0.4,2.1,0.6,4.4,0.6,6.7c0,4.6-0.9,9.1-2.6,13.4
				C232.8,311.6,219.3,320.7,204.1,320.7z"/>
		</g>
		<g>
			<path d="M223.4,261.5H175l1.5-1.7c7.1-8,17.2-12.6,27.7-12.6c10.7,0,20.8,4.6,27.7,12.7l-1.5,1.3c-6.5-7.6-16-12-26.1-12
				c-9.2,0-18,3.7-24.6,10.3h43.9V261.5z"/>
		</g>
		<g>
			<path d="M1829.7,249.2h-24.6v-17.8h24.6V249.2z M1807.1,247.2h20.6v-13.8h-20.6V247.2z"/>
		</g>
		<g>
			<path d="M1843.6,246.9h-15.9v-13h15.9V246.9z M1829.7,244.9h11.9v-9h-11.9V244.9z"/>
		</g>
		<g>
			<path d="M1849,254.3h-7.4v-26.9h7.4V254.3z M1843.6,252.3h3.4v-22.9h-3.4V252.3z"/>
		</g>
		<g>
			<path d="M1835.2,302.3h-19.7l-37-22.9l15.6-22.9h12.3l28.5,16.6l-1.7,0.8c-0.1,0-10,4.9-10,12.9c-0.1,8,8.9,13.6,9,13.6
				L1835.2,302.3z M1816.1,300.3h12.4c-3-2.5-7.5-7.2-7.4-13.5c0-7.2,6.5-11.9,9.6-13.8l-24.9-14.5h-10.7l-13.8,20.3L1816.1,300.3z"
				/>
		</g>
		<g>
			<polygon points="33.3,237.5 21,229 21,85 33.3,76.4 34.4,78 23,86 23,228 34.4,235.9 			"/>
		</g>
		<g>
			<rect x="25.1" y="82.7" width="2" height="149.4"/>
		</g>
		<g>
			<path d="M538.1,39.5H81v-8.2L106.7,5h431.4V39.5z M83,37.5h453.1V7H107.5L83,32.1V37.5z"/>
		</g>
		<g>
			<polygon points="1038.4,39.5 756.8,39.5 756.8,37.5 1036.4,37.5 1036.4,32.1 1012,7 745,7 745,5 1012.9,5 1038.4,31.3 			"/>
		</g>
		<g>
			<path d="M166.9,69.8H81V38.7h85.9V69.8z M83,67.8h81.9V40.7H83V67.8z"/>
		</g>
		<g>
			<rect x="90.8" y="39.7" width="2" height="29.1"/>
		</g>
		<g>
			<rect x="100.2" y="39.7" width="2" height="29.1"/>
		</g>
		<g>
			<rect x="109.7" y="39.7" width="2" height="29.1"/>
		</g>
		<g>
			<rect x="119.1" y="39.7" width="2" height="29.1"/>
		</g>
		<g>
			<rect x="128.6" y="39.7" width="2" height="29.1"/>
		</g>
		<g>
			<rect x="138" y="39.7" width="2" height="29.1"/>
		</g>
		<g>
			<rect x="147.4" y="39.7" width="2" height="29.1"/>
		</g>
		<g>
			<rect x="156.9" y="39.7" width="2" height="29.1"/>
		</g>
		<g>
			<path d="M1589.7,69.8h-85.9V38.7h85.9V69.8z M1505.8,67.8h81.9V40.7h-81.9V67.8z"/>
		</g>
		<g>
			<rect x="1513.6" y="39.7" width="2" height="29.1"/>
		</g>
		<g>
			<rect x="1523.1" y="39.7" width="2" height="29.1"/>
		</g>
		<g>
			<rect x="1532.5" y="39.7" width="2" height="29.1"/>
		</g>
		<g>
			<rect x="1541.9" y="39.7" width="2" height="29.1"/>
		</g>
		<g>
			<rect x="1551.4" y="39.7" width="2" height="29.1"/>
		</g>
		<g>
			<rect x="1560.8" y="39.7" width="2" height="29.1"/>
		</g>
		<g>
			<rect x="1570.3" y="39.7" width="2" height="29.1"/>
		</g>
		<g>
			<rect x="1579.7" y="39.7" width="2" height="29.1"/>
		</g>
		<g>
			<path d="M646.7,36.4H542V8h104.7V36.4z M544,34.4h100.7V10H544V34.4z"/>
		</g>
		<g>
			<path d="M650.2,39.5H539.1V5h111.1V39.5z M541.1,37.5h107.1V7H541.1V37.5z"/>
		</g>
		<g>
			<rect x="550.8" y="9" width="2" height="26.3"/>
		</g>
		<g>
			<rect x="559.2" y="9" width="2" height="26.3"/>
		</g>
		<g>
			<rect x="567.6" y="9" width="2" height="26.3"/>
		</g>
		<g>
			<rect x="576" y="9" width="2" height="26.3"/>
		</g>
		<g>
			<rect x="584.4" y="9" width="2" height="26.3"/>
		</g>
		<g>
			<rect x="592.9" y="9" width="2" height="26.3"/>
		</g>
		<g>
			<rect x="601.3" y="9" width="2" height="26.3"/>
		</g>
		<g>
			<rect x="609.7" y="9" width="2" height="26.3"/>
		</g>
		<g>
			<rect x="618.1" y="9" width="2" height="26.3"/>
		</g>
		<g>
			<rect x="626.5" y="9" width="2" height="26.3"/>
		</g>
		<g>
			<rect x="634.9" y="9" width="2" height="26.3"/>
		</g>
		<g>
			<path d="M754.4,36.4H651.1V8h103.3V36.4z M653.1,34.4h99.3V10h-99.3V34.4z"/>
		</g>
		<g>
			<path d="M757.8,39.5H648.2V5h109.6V39.5z M650.2,37.5h105.6V7H650.2V37.5z"/>
		</g>
		<g>
			<rect x="659.9" y="9" width="2" height="26.3"/>
		</g>
		<g>
			<rect x="668.3" y="9" width="2" height="26.3"/>
		</g>
		<g>
			<rect x="676.7" y="9" width="2" height="26.3"/>
		</g>
		<g>
			<rect x="685.1" y="9" width="2" height="26.3"/>
		</g>
		<g>
			<rect x="693.5" y="9" width="2" height="26.3"/>
		</g>
		<g>
			<rect x="701.9" y="9" width="2" height="26.3"/>
		</g>
		<g>
			<rect x="710.3" y="9" width="2" height="26.3"/>
		</g>
		<g>
			<rect x="718.8" y="9" width="2" height="26.3"/>
		</g>
		<g>
			<rect x="727.2" y="9" width="2" height="26.3"/>
		</g>
		<g>
			<rect x="735.6" y="9" width="2" height="26.3"/>
		</g>
		<g>
			<rect x="744" y="9" width="2" height="26.3"/>
		</g>
		<g>
			<path d="M896.8,36.4H792.1V8h104.7V36.4z M794.1,34.4h100.7V10H794.1V34.4z"/>
		</g>
		<g>
			<path d="M900.3,39.5H789.2V5h111.1V39.5z M791.2,37.5h107.1V7H791.2V37.5z"/>
		</g>
		<g>
			<rect x="800.8" y="9" width="2" height="26.3"/>
		</g>
		<g>
			<rect x="809.3" y="9" width="2" height="26.3"/>
		</g>
		<g>
			<rect x="817.7" y="9" width="2" height="26.3"/>
		</g>
		<g>
			<rect x="826.1" y="9" width="2" height="26.3"/>
		</g>
		<g>
			<rect x="834.5" y="9" width="2" height="26.3"/>
		</g>
		<g>
			<rect x="842.9" y="9" width="2" height="26.3"/>
		</g>
		<g>
			<rect x="851.3" y="9" width="2" height="26.3"/>
		</g>
		<g>
			<rect x="859.7" y="9" width="2" height="26.3"/>
		</g>
		<g>
			<rect x="868.1" y="9" width="2" height="26.3"/>
		</g>
		<g>
			<rect x="876.6" y="9" width="2" height="26.3"/>
		</g>
		<g>
			<rect x="885" y="9" width="2" height="26.3"/>
		</g>
		<g>
			<path d="M1004.5,36.4H901.2V8h103.3V36.4z M903.2,34.4h99.3V10h-99.3V34.4z"/>
		</g>
		<g>
			<path d="M1007.9,39.5H898.3V5h109.6V39.5z M900.3,37.5h105.6V7H900.3V37.5z"/>
		</g>
		<g>
			<rect x="909.9" y="9" width="2" height="26.3"/>
		</g>
		<g>
			<rect x="918.3" y="9" width="2" height="26.3"/>
		</g>
		<g>
			<rect x="926.8" y="9" width="2" height="26.3"/>
		</g>
		<g>
			<rect x="935.2" y="9" width="2" height="26.3"/>
		</g>
		<g>
			<rect x="943.6" y="9" width="2" height="26.3"/>
		</g>
		<g>
			<rect x="952" y="9" width="2" height="26.3"/>
		</g>
		<g>
			<rect x="960.4" y="9" width="2" height="26.3"/>
		</g>
		<g>
			<rect x="968.8" y="9" width="2" height="26.3"/>
		</g>
		<g>
			<rect x="977.2" y="9" width="2" height="26.3"/>
		</g>
		<g>
			<rect x="985.6" y="9" width="2" height="26.3"/>
		</g>
		<g>
			<rect x="994.1" y="9" width="2" height="26.3"/>
		</g>
		<g>
			<polygon points="1250.9,274.6 1085.4,274.6 1085.4,247.1 1087.4,247.1 1087.4,272.6 1248.9,272.6 1248.9,247.1 1250.9,247.1 			
				"/>
		</g>
		<g>
			<polygon points="1080.2,274.6 807.8,274.6 807.8,247.1 809.8,247.1 809.8,272.6 1078.2,272.6 1078.2,247.1 1080.2,247.1 			"/>
		</g>
		<g>
			<polygon points="732.3,274.6 459.8,274.6 459.8,247.1 461.8,247.1 461.8,272.6 730.3,272.6 730.3,247.1 732.3,247.1 			"/>
		</g>
		<g>
			<path d="M1351.4,276.8H1280c-8.9,0-16.2-7.3-16.2-16.2v-13.4h2v13.4c0,7.8,6.4,14.2,14.2,14.2h71.4c7.8,0,14.2-6.4,14.2-14.2
				v-13.4h2v13.4C1367.6,269.6,1360.3,276.8,1351.4,276.8z"/>
		</g>
		<g>
			<rect x="425.1" y="280" width="969.8" height="2"/>
		</g>
		<g>
			<rect x="12.6" y="84.3" width="9.2" height="2"/>
		</g>
		<g>
			<rect x="12.6" y="227.6" width="9.2" height="2"/>
		</g>
	</g>
</g>
</svg>
