<?xml version="1.0" encoding="utf-8"?>
<!-- Generator: Adobe Illustrator 22.0.1, SVG Export Plug-In . SVG Version: 6.00 Build 0)  -->
<svg version="1.1" id="Type_93" xmlns="http://www.w3.org/2000/svg" xmlns:xlink="http://www.w3.org/1999/xlink" x="0px" y="0px"
	 viewBox="0 0 1400 324" style="enable-background:new 0 0 1400 324;" xml:space="preserve">
<style type="text/css">
	.st0{fill:#444445;}
	.st1{fill:#212322;}
	.st2{fill:#B1B3B3;}
	.st3{fill:#B1190B;}
	.st4{fill:#026D89;}
	.st5{fill:#514F4F;}
	.st6{fill:#878787;}
	.st7{fill:none;}
	.st8{opacity:0.7;enable-background:new    ;}
</style>
<g id="Mål_12_">
</g>
<g>
	<g id="Farger_12_">
		<g id="Grunnfarge_8_">
			<g>
				<path class="st0" d="M1398.6,44.4v15.3H277.1c0,0-31.9-1.1-51.1,3.8s-27.4,7.5-43.9,16.2c-16.6,8.6-41.3,21.6-59.7,37.3
					c-18.3,15.7-43.9,44.4-50.7,57.2c-6.7,12.8-18.4,19.6-24.3,20.6c0,0,25.2-43.7,47-64.1s29.5-28.9,40-35.5
					c10.5-6.6,24.1-18.8,43-27.7s31-14.9,40.4-17.1c9.4-2.2,18-5.9,59.7-5.9s318.3,0,318.3,0s-0.6-4.9,0-6.8
					c0.6-1.9,34.3-28.6,41-29.4s463.4,0,463.4,0s32,18.1,40.9,29.6v6.7h257.5V44.4z"/>
			</g>
			<g>
				<path class="st1" d="M1400.1,252.2h-48.5v3.1h16.5v10.9h-4.5c0,0-3.6,2-3.6,4.4h1.4v6.5c0,0-4.6-5.1-8.9-6
					c-4.3-0.9-8.1-0.9-8.1-0.9s-8-7.8-14.1-9.3c-6.1-1.5-13.1-3.2-19.5-0.8c-6.3,2.5-13.2,6.4-15.9,10.1h-18.5l-3,18.2v19.5h10.1
					v-19c0,0,2-6.5,5.5-9.9c0,0-4.8,11.2,0.1,23.7c0,0,4.8,14.9,21.7,19.7c16.9,4.8,28.6-5.6,32.3-8.9c3.7-3.3,10.2-15.5,8.4-27.3
					l-0.8-2.5c0,0,3.8,2.8,9.8,11.3c0,0,2.1,4.8,12.3,4.8c3.1,0,13.8,0,27.2,0"/>
			</g>
			<g>
				<path class="st0" d="M37.4,268.7l44-14l52.4,0.4c0,0,9.3,4,6.1,15.9c-3.3,11.9-20.3,20.6-36.2,25.5l-4.5,1.2l-66.4,8.9
					c0,0,11.7-4.3,14.5-10.4c2.9-6.2,5.2-11.3,3.2-15.5C48.3,276.4,44.1,270.2,37.4,268.7z"/>
			</g>
			<g>
				<path class="st1" d="M44,253.1l-4.1,2.7H21v2.4H10.9l-7.2,7.7l-2.3-2.4l8-8.6h6.9v-2.6l-4.1-4.1H9.3v-7.9h3.2l3.9-3.8v-4.6h19
					v5.9H39c0,0-1,2.8-0.5,5.1C39,245.2,44,253.1,44,253.1z"/>
			</g>
			<g>
				<path class="st2" d="M42.1,218.2c0,0-3,0.1-3.7-1.5c-0.7-1.6,3.7-10.3,3.7-10.3l6-12.1c0,0,11.1-4.3,14.4-7.7
					c3.2-3.4,12.1-16.4,14.7-20c2.6-3.6,17.8-23.7,28.3-33.7s24.9-23,39.9-32.4c15.1-9.4,33.7-19.7,49.5-27.2
					c15.8-7.6,25.1-9.6,42.7-12.1s40.1-1.9,40.1-1.9h1121.5v54.5v90v48.4h-117.6l0.6,15.9H664.8v-26H412.4v26h-10.7l-4.7-13.3H45.2
					c0,0-4.4-6.5-5.2-8.7s-1.8-2.7-0.8-7.6c1-4.9,4.5-18.7,4.5-18.7S45.3,218,42.1,218.2z"/>
			</g>
			<g>
				<path class="st1" d="M1266.9,268.8l-602.8-0.7v-25.7H411.8v26l-9.8,0.1l0.1,2.8h-7.3v-0.7l-3.3-0.7c0,0-6.7-8.2-17.5-10.1
					c-10.8-1.9-21.6,0.7-29.3,8.6h-6.3V255l-6.6,0.2l-66.8-0.1v13.3h-15.7c0,0-9.4-9.3-21.1-9.3c-11.7,0-20.5,4.3-26.1,11.2l-3.1,1
					h-7.4l-9.3,5.3v37.9h3.8c0,0-1.1-6.1,4.7-7.5l0.2-29.4l6.6-0.3c0,0-4.8,8.3-2.9,19.1c1.9,10.8,10.1,25.4,29,27.4
					c18.9,2,30.9-12.8,33.9-22.8c3-10,0.7-16.5,0.7-16.5l7.6,2.2v14.8h2.1v1.4c0,0.7-0.4,1.4-1,1.8l-4.7,3.1c-0.3,0.2-0.3,0.7,0,0.9
					l5.2,2.6c0.3,0.1,0.6,0.2,1,0.2h58.2c0.3,0,0.7-0.1,1-0.2l5.2-2.6c0.4-0.2,0.4-0.7,0-0.9l-4.7-3.1c-0.6-0.4-1-1.1-1-1.8v-1.4
					h2.3v-14.8l2.8-1l3.2,0.5c0,0-1.6,8.5,1.4,16c3,7.5,9.5,17.8,24.2,21c14.7,3.2,26.2-5.1,31.9-11.9c5.7-6.8,7-15.9,6.8-19.9
					c-0.2-4-0.7-10.3-3.3-14.1h5.6V298h3.2v8.9c0,0,4.5,0.7,4.6,7.5h3.8V298h309.7v-30.1h13.8l-2.4,0.4v28.9h94.9V268h30.4v29.1
					h123.6V268h29.8v30.6h229.9V268h38.5L1266.9,268.8z"/>
			</g>
		</g>
		<g id="Profilering_12_">
			<g>
				<polygon class="st1" points="1398.6,119.4 1398.6,204.1 840.8,204.1 840.8,118.3 1396.6,118.3 1398.6,118.3 				"/>
			</g>
			<g>
				<path class="st3" d="M44.6,255.1c0,0-7-9.5-6.5-13c0.5-3.6,3.4-16.7,3.4-16.7s83.6-17.7,236-17.7s1121.1,0,1121.1,0v44.8h-117
					l-617.3,1.2v-11.3H411.8v26l-10.2-0.9l-3.4-12.4H277.5L44.6,255.1L44.6,255.1z"/>
			</g>
			<g>
				<path class="st4" d="M43.7,219.9c0,0,104.3-16.1,233.9-16.1s1121.1,0,1121.1,0v5.5H277.5c0,0-141.9-1.2-236,17L43.7,219.9z"/>
			</g>
			<g>
				<path class="st1" d="M723.4,90.6v84.7L278.7,175c0,0-26.9-0.1-55.4,0.4c-20.8,0.3-42,1.4-56.4,2.2c-13.5,0.8-31.5,2.8-48.4,4.9
					c-26,3.3-49.3,6.9-49.3,6.9s5-4.6,10.7-11c5.8-6.5,12.4-14.8,17.8-20.3c13.5-13.5,21.5-20.8,54-40.5
					c56.6-34.4,126.8-28.1,126.8-28.1h442.8h2L723.4,90.6L723.4,90.6z"/>
			</g>
		</g>
		<g id="Dører_og_vinduer_11_">
			<g>
				<rect x="723.7" y="89.3" class="st2" width="117.3" height="164.8"/>
				<path class="st2" d="M841.6,254.7H723.2V88.8h118.3V254.7z M724.2,253.7h116.3V89.8H724.2V253.7z"/>
			</g>
			<g>
				<rect x="794.5" y="114.4" class="st5" width="28.4" height="92.4"/>
			</g>
			<g>
				<rect x="741.4" y="114.4" class="st5" width="28.4" height="92.4"/>
			</g>
			<g>
				<rect x="1269.3" y="118.4" class="st6" width="107.5" height="85.8"/>
			</g>
			<g>
				<rect x="1139.9" y="118.4" class="st6" width="107.5" height="85.8"/>
			</g>
			<g>
				<rect x="1010.3" y="118.4" class="st6" width="107.5" height="85.8"/>
			</g>
			<g>
				<rect x="881.9" y="118.4" class="st6" width="107.5" height="85.8"/>
			</g>
			<g>
				<line class="st7" x1="1376" y1="140.1" x2="1268.7" y2="140.1"/>
			</g>
			<g>
				<rect x="576.3" y="89" class="st6" width="107.5" height="85.8"/>
			</g>
			<g>
				<rect x="446.6" y="89" class="st6" width="107.5" height="85.8"/>
			</g>
			<g>
				<rect x="318.3" y="89" class="st6" width="107.5" height="85.8"/>
			</g>
			<g>
				<line class="st7" x1="682.6" y1="110.7" x2="575.3" y2="110.7"/>
			</g>
			<g class="st8">
				<path d="M324.3,110.7V97.4c0-1.7,1.4-3.1,3.1-3.1h89.6c1.7,0,3.1,1.4,3.1,3.1V110L324.3,110.7z"/>
			</g>
			<g class="st8">
				<path d="M887.9,139.7V127c0,0-0.3-3.7,2.9-3.7c3.2,0,89.6,0,89.6,0s3.3,0.1,3.3,3.5c0,3.4,0,12.9,0,12.9H887.9L887.9,139.7z"/>
			</g>
			<g>
				<path class="st6" d="M199.3,149.4l-43.9,5.7v-40.3c0,0,18.1-11.2,43.9-17.9V149.4z"/>
			</g>
		</g>
	</g>
	<g id="Omriss_12_">
		<g>
			<path d="M1283,269H663.7v-26.4H413V269h-12.1l-4.2-13.3H44.6l-0.3-0.4c-0.7-1-6.7-9.8-6.7-13.6c0-3.1,3.8-18.8,5.2-22.6
				c-0.5-0.1-1.4-0.2-2.1-0.2c-0.8-0.1-2.1-0.5-2.8-1.8c-0.9-1.6-0.7-3.9,0.7-6.9c3.3-6.8,8.6-16.4,8.6-16.5l0.2-0.4l0.4-0.1
				c0,0,1-0.3,2.5-1c6.9-2.8,11.9-6.2,14.6-9.8c0.6-0.9,1.5-2.2,2.7-3.9c8.2-12.3,30-44.8,63.6-69.5c37.8-27.7,74.6-41.7,75-41.8
				l0.1,0c0.3-0.1,8.3-2.4,8.3-16.6v-0.7l0.6-0.3c0.7-0.3,16.6-6.9,62.9-6.9h1122v210.2h-117V269z M665.7,267H1281v-15.9h117V45
				h-1120c-40.9,0-58.2,5.3-61.5,6.5c-0.3,14.8-8.9,17.6-9.8,17.8c-1.4,0.5-37.5,14.4-74.5,41.5c-33.3,24.5-55,56.8-63.1,69
				c-1.1,1.7-2.1,3.1-2.7,4c-2.9,3.9-8.2,7.5-15.4,10.4c-1,0.5-1.8,0.7-2.3,0.9c-1,1.8-5.5,10-8.4,16c-1.1,2.3-1.3,4.1-0.8,5.1
				c0.4,0.7,1.2,0.8,1.2,0.8c0,0,0,0,0,0c3.5,0,4,0.9,4.1,1.2c0.2,0.4,0.2,1-0.1,1.4c-0.7,1.4-5.2,19-5.2,22.2c0,2.6,4.1,9.2,6,12
				h352.5l4.2,13.3h8.7v-26.4h254.7V267z"/>
		</g>
		<g>
			<path d="M48.9,194.8l-1.8-0.9c0.2-0.4,21.1-38.8,49.6-66.7c27-26.4,64.8-59,118.3-77l0.6,1.9c-53.2,17.9-90.7,50.3-117.6,76.5
				C69.8,156.2,49.1,194.4,48.9,194.8z"/>
		</g>
		<g>
			<path d="M44.9,202.9c-0.6,0-1,0-1-0.1l0.3-2c0.1,0,5.5,0.6,13.7-4.4c9.7-5.9,25-23.6,33.2-33.6c10.9-13.2,50.1-47.4,95.7-63.1
				c44-15.1,89.9-11.6,90.4-11.5l446.7,0v2H277.1c-0.5,0-46.1-3.5-89.6,11.4c-42.7,14.6-82.8,47.9-94.8,62.5
				c-8.3,10.1-23.8,27.9-33.7,34C52.1,202.4,47,202.9,44.9,202.9z"/>
		</g>
		<g>
			<path d="M205.5,69.8l-0.8-1.9c14.5-5.9,33.4-8.2,46.7-9.1c14.4-1,25.6-0.5,25.7-0.5l-0.1,2C276.6,60.3,232.8,58.7,205.5,69.8z"/>
		</g>
		<g>
			<path d="M68.8,190.1l-0.3-2c0.7-0.1,70-11.8,131.5-13.7c61.4-1.9,519.3,0,523.9,0l0,2c-4.6,0-462.5-1.9-523.9,0
				C138.7,178.3,69.5,190,68.8,190.1z"/>
		</g>
		<g>
			<rect x="277" y="44" width="2" height="210.8"/>
		</g>
		<g>
			<path d="M202.8,270.7l-1.5-1.3c6.3-7.4,15.5-11.6,25.2-11.6c8.8,0,17.1,3.4,23.4,9.6l-1.4,1.4c-5.9-5.8-13.7-9-22-9
				C217.4,259.7,208.7,263.7,202.8,270.7z"/>
		</g>
		<g>
			<path d="M226.5,324.5c-18.4,0-33.4-15-33.4-33.4c0-5,1.2-10,3.4-14.5c0.7-1.4,1.3-2.5,2-3.5l1.7,1.1c-0.6,1-1.2,2-1.8,3.3
				c-2.1,4.3-3.2,9-3.2,13.6c0,17.3,14.1,31.4,31.4,31.4c17.3,0,31.4-14.1,31.4-31.4c0-2.2-0.3-4.5-0.8-6.8l1.9-0.4
				c0.5,2.4,0.8,4.9,0.8,7.2C259.9,309.5,244.9,324.5,226.5,324.5z"/>
		</g>
		<g>
			<path d="M207.9,270.3l-1.3-1.5c5.5-4.9,12.6-7.7,20.1-7.7c6.6,0,13,2.2,18.1,6.1l-1.2,1.6c-4.8-3.7-10.8-5.7-16.9-5.7
				C219.6,263.1,213,265.7,207.9,270.3z"/>
		</g>
		<g>
			<path d="M226.5,321.1c-16.5,0-30-13.5-30-30c0-4.5,1-8.9,2.9-12.9l1.8,0.9c-1.8,3.8-2.7,7.8-2.7,12.1c0,15.4,12.6,28,28,28
				s28-12.6,28-28c0-2.5-0.4-5-1.1-7.5l1.9-0.5c0.8,2.7,1.1,5.4,1.1,8.1C256.5,307.7,243,321.1,226.5,321.1z"/>
		</g>
		<g>
			<path d="M367.1,324.5c-18.4,0-33.4-15-33.4-33.4c0-2.1,0.1-3.9,0.4-5.5l2,0.3c-0.3,1.5-0.4,3.1-0.4,5.1
				c0,17.3,14.1,31.4,31.4,31.4c17.3,0,31.4-14.1,31.4-31.4c0-6-1.7-11.8-4.8-16.8l1.7-1.1c3.4,5.3,5.2,11.4,5.2,17.8
				C400.5,309.5,385.5,324.5,367.1,324.5z"/>
		</g>
		<g>
			<path d="M391,270.6c-6-6.9-14.6-10.8-23.7-10.8c-8.4,0-16.2,3.2-22,9l-1.4-1.4c6.2-6.2,14.5-9.6,23.4-9.6
				c9.7,0,18.9,4.2,25.2,11.5L391,270.6z"/>
		</g>
		<g>
			<path d="M367.2,321.1c-16.5,0-30-13.5-30-30c0-2.7,0.4-5.4,1.1-8.1l1.9,0.5c-0.7,2.5-1.1,5-1.1,7.5c0,15.4,12.6,28,28,28
				c15.4,0,28-12.6,28-28c0-4.2-0.9-8.3-2.7-12.1l1.8-0.9c1.9,4.1,2.9,8.4,2.9,12.9C397.2,307.7,383.8,321.1,367.2,321.1z"/>
		</g>
		<g>
			<path d="M385.9,270.3c-5.1-4.6-11.7-7.1-18.6-7.1c-6.1,0-12,2-16.9,5.7l-1.2-1.6c5.3-4,11.5-6.1,18.1-6.1c7.4,0,14.5,2.7,20,7.7
				L385.9,270.3z"/>
		</g>
		<g>
			<path d="M1342.7,270.7c-5.9-6.9-14.5-10.8-23.6-10.8c-9.2,0-17.8,4-23.7,10.8l-1.5-1.3c6.3-7.3,15.5-11.5,25.2-11.5
				c9.7,0,18.9,4.2,25.1,11.5L1342.7,270.7z"/>
		</g>
		<g>
			<path d="M1319,324.5c-18.4,0-33.3-15-33.3-33.4c0-7.4,2.4-14.4,6.8-20.2l1.6,1.2c-4.2,5.5-6.4,12-6.4,19
				c0,17.3,14,31.4,31.3,31.4c17.3,0,31.4-14.1,31.4-31.4c0-2.3-0.3-4.6-0.8-7.1l2-0.4c0.6,2.6,0.8,5.1,0.8,7.5
				C1352.4,309.5,1337.4,324.5,1319,324.5z"/>
		</g>
		<g>
			<path d="M1338.2,270.8c-5.3-4.9-12-7.5-19.1-7.5c-7.2,0-14,2.7-19.1,7.5l-1.4-1.5c5.5-5.2,12.8-8.1,20.5-8.1
				c7.6,0,14.8,2.9,20.5,8.1L1338.2,270.8z"/>
		</g>
		<g>
			<path d="M1319,321.1c-16.5,0-30-13.5-30-30c0-5,1.2-9.8,3.5-14l1.8,1c-2.1,3.9-3.3,8.4-3.3,13c0,15.4,12.6,28,28,28
				s28-12.6,28-28c0-3.1-0.5-6.2-1.4-9l1.9-0.7c1,2.9,1.6,6.3,1.6,9.6C1349,307.7,1335.5,321.1,1319,321.1z"/>
		</g>
		<g>
			<path d="M274.5,277.3h-10.6v-23.6h10.6V277.3z M265.9,275.3h6.6v-19.6h-6.6V275.3z"/>
		</g>
		<g>
			<path d="M339.3,286.8h-8.1v-33.1h8.1V286.8z M333.2,284.8h4.1v-29.1h-4.1V284.8z"/>
		</g>
		<g>
			<path d="M1400,300.8h-31.1c-5.7,0-9.4-5-9.5-5.2c-0.1-0.1-3.8-5.8-7.5-9.5c-3.5-3.5-7.6-3.8-7.7-3.8l-8.1,0c-3.5,0-6.7,0-9.8-2.3
				c-2.5-1.8-6.8-1.4-6.9-1.4l-0.1,0h-26.9V269l1,0c0,0,50.4-0.1,55.5-0.1c5.5,0,11.6,5.7,11.9,6l3.9,3.9c3,3.1,9.9,3.6,10,3.6
				l24.4,0v2h-24.5c-0.4,0-7.8-0.6-11.3-4.2l-3.9-3.9c0,0-5.8-5.4-10.5-5.4c-4.7,0-47.4,0.1-54.5,0.1v5.6h24.8
				c0.6-0.1,5.3-0.4,8.2,1.8c2.5,1.9,5.3,1.9,8.6,1.9h8.2c0.3,0,5,0.4,9,4.4c3.8,3.8,7.6,9.5,7.7,9.8c0,0,3.2,4.3,7.9,4.3h31.1
				V300.8z"/>
		</g>
		<g>
			<path d="M1319.1,300.1c-5,0-9-4-9-9c0-5,4-9,9-9c5,0,9,4,9,9C1328.1,296.1,1324.1,300.1,1319.1,300.1z M1319.1,284.1
				c-3.9,0-7,3.1-7,7c0,3.9,3.1,7,7,7c3.9,0,7-3.1,7-7C1326.1,287.3,1323,284.1,1319.1,284.1z"/>
		</g>
		<g>
			<path d="M1284.2,308.7h-12.1l0-20.7l3.1-19h18v2H1277l-2.8,17.3v18.4h8.1l0-18.3c0-0.2,0.8-3.9,6.7-11.3l1.6,1.2
				c-5.1,6.4-6.1,9.8-6.3,10.4V308.7z"/>
		</g>
		<g>
			<polygon points="1399,268.4 1384,267.8 1384.7,256.5 1399.2,257.4 1399.1,259.3 1386.6,258.6 1386.1,265.9 1399.1,266.4 			"/>
		</g>
		<g>
			<rect x="278" y="227.9" width="445.9" height="2"/>
		</g>
		<g>
			<rect x="841.3" y="202.8" width="557.8" height="2"/>
		</g>
		<g>
			<rect x="841.3" y="117" width="557.8" height="2"/>
		</g>
		<g>
			<path d="M990.3,204.8H880.7V117h109.5V204.8z M882.7,202.8h105.5V119H882.7V202.8z"/>
		</g>
		<g>
			<path d="M1118.7,204.8h-109.5V117h109.5V204.8z M1011.2,202.8h105.5V119h-105.5V202.8z"/>
		</g>
		<g>
			<path d="M1248.4,204.8h-109.5V117h109.5V204.8z M1140.9,202.8h105.5V119h-105.5V202.8z"/>
		</g>
		<g>
			<path d="M1377.8,204.8h-109.5V117h109.5V204.8z M1270.2,202.8h105.5V119h-105.5V202.8z"/>
		</g>
		<g>
			<rect x="881.7" y="138.7" width="107.2" height="2"/>
		</g>
		<g>
			<path d="M984.5,139.7h-2v-13.3c0-1.1-1-2.1-2.1-2.1h-89.5c-1.1,0-2.1,1-2.1,2.1V139h-2v-12.6c0-2.3,1.8-4.1,4.1-4.1h89.5
				c2.3,0,4.1,1.8,4.1,4.1V139.7z"/>
		</g>
		<g>
			<path d="M426.7,175.4H317.2V87.6h109.5V175.4z M319.2,173.4h105.5V89.6H319.2V173.4z"/>
		</g>
		<g>
			<path d="M555.1,175.4H445.6V87.6h109.5V175.4z M447.6,173.4h105.5V89.6H447.6V173.4z"/>
		</g>
		<g>
			<path d="M684.8,175.4H575.2V87.6h109.5V175.4z M577.2,173.4h105.5V89.6H577.2V173.4z"/>
		</g>
		<g>
			<rect x="318.2" y="109.3" width="107.2" height="2"/>
		</g>
		<g>
			<path d="M420.9,110.4h-2V97.1c0-1.1-1-2.1-2.1-2.1h-89.6c-1.1,0-2.1,1-2.1,2.1v12.6h-2V97.1c0-2.3,1.8-4.1,4.1-4.1h89.6
				c2.3,0,4.1,1.8,4.1,4.1V110.4z"/>
		</g>
		<g>
			<path d="M842.2,254.8H722.8V88.3h119.3V254.8z M724.8,252.8h115.3V90.3H724.8V252.8z"/>
		</g>
		<g>
			<rect x="781.6" y="88.9" width="2" height="164.8"/>
		</g>
		<g>
			<path d="M771.2,207.5h-30.3v-93.6h30.3V207.5z M742.9,205.5h26.3v-89.7h-26.3V205.5z"/>
		</g>
		<g>
			<path d="M824.1,207.5h-30.3v-93.6h30.3V207.5z M795.8,205.5h26.3v-89.7h-26.3V205.5z"/>
		</g>
		<g>
			<polygon points="724.8,299.3 400.5,299.3 400.5,268 402.5,268 402.5,297.3 722.8,297.3 722.8,228.9 724.8,228.9 			"/>
		</g>
		<g>
			<rect x="273.5" y="267" width="58.7" height="2"/>
		</g>
		<g>
			<path d="M324.6,288.1l-55.5,0c-0.3-0.1-7.1-1.4-9.2-2.4l-0.1-0.1c-0.4-0.2-1.2-0.5-2-0.7c-1.3-0.3-2.6-0.6-3.7-0.8
				c-0.8-0.2-1.4-0.3-1.6-0.3h-12.6c-1.6,0-3.8-1.2-4.1-1.3c-0.2-0.1-2.5-1.2-3.5-2.4c-0.3-0.4-1.8-0.6-2.9-0.5l-31.2,0v-10.3
				l3.6-0.3l5.2-0.5l16.4-1.5l41.4,0v2h-41.3l-23.3,2.1v6.5h29.1c0.5,0,3.3-0.2,4.5,1.3c0.6,0.8,2.3,1.7,2.9,1.9
				c0.8,0.4,2.3,1.1,3.2,1.1l12.8,0c0,0,0.7,0.1,1.8,0.3c1.1,0.2,2.4,0.5,3.7,0.8c0.5,0.1,1.7,0.4,2.5,0.9c1.6,0.7,6.7,1.8,8.6,2.2
				h55c0.7-0.1,5-1,7.5-1.8l0.5,1.9C329.6,287.1,324.9,288.1,324.6,288.1L324.6,288.1z"/>
		</g>
		<g>
			<path d="M338.4,284.5l-0.5-1.9c0.2-0.1,0.4-0.1,0.7-0.1c0.1,0,0.3,0,0.4-0.1l0.1,0c1.1-0.2,2-0.3,2-0.3l0.1,0h12.7
				c0.8,0,2.4-0.7,3.1-1.1c0.9-0.4,2.5-1.3,3-2c1.2-1.4,4-1.3,4.5-1.3l29.1,0v-6.5l-1.9-0.2l-5.2-0.5l-16.3-1.5l-32,0v-2h32.1
				l25.3,2.4v10.3h-31.2c-1.2-0.1-2.6,0.1-2.9,0.5c-1,1.2-3.4,2.4-3.7,2.5c-0.2,0.1-2.4,1.3-4,1.3h-12.6c-0.2,0-0.9,0.1-1.7,0.3
				c-0.2,0.1-0.4,0.1-0.7,0.1C338.7,284.4,338.5,284.5,338.4,284.5z"/>
		</g>
		<g>
			<path d="M187.4,315.2h-6.1v-39.5l10-5.7h7.7v2h-7.1l-8.6,4.9v36.3h1.6c-0.1-1.9,0.3-5.3,4.8-7.2v-30h7.9v2h-5.9v29.4l-0.7,0.2
				c-5.2,1.9-4,6.1-4,6.3L187.4,315.2z"/>
		</g>
		<g>
			<rect x="395" y="276" width="6.5" height="2"/>
		</g>
		<g>
			<path d="M414.4,315.1h-6.1l0.4-1.3c0.1-0.4,1.1-4.5-4-6.3l-0.7-0.2v-9.1h2v7.7c4.4,1.9,4.9,5.3,4.8,7.2h1.6v-14.8h2V315.1z"/>
		</g>
		<g>
			<rect x="393.6" y="270" width="7.9" height="2"/>
		</g>
		<g>
			<path d="M226.5,300.8c-5.3,0-9.7-4.3-9.7-9.7c0-5.3,4.3-9.7,9.7-9.7s9.7,4.3,9.7,9.7C236.2,296.5,231.9,300.8,226.5,300.8z
				 M226.5,283.4c-4.2,0-7.7,3.5-7.7,7.7c0,4.2,3.5,7.7,7.7,7.7c4.2,0,7.7-3.5,7.7-7.7C234.2,286.9,230.8,283.4,226.5,283.4z"/>
		</g>
		<g>
			<path d="M366.6,300.8c-5.3,0-9.7-4.3-9.7-9.7c0-5.3,4.3-9.7,9.7-9.7c5.3,0,9.7,4.3,9.7,9.7C376.3,296.5,372,300.8,366.6,300.8z
				 M366.6,283.4c-4.2,0-7.7,3.5-7.7,7.7c0,4.2,3.5,7.7,7.7,7.7c4.2,0,7.7-3.5,7.7-7.7C374.3,286.9,370.9,283.4,366.6,283.4z"/>
		</g>
		<g>
			<polygon points="330.4,302.1 264.8,302.1 264.8,286.4 266.8,286.4 266.8,300.1 328.4,300.1 328.4,286.4 330.4,286.4 			"/>
		</g>
		<g>
			<path d="M30.2,307.9l-0.4-2c12.1-3,19.6-10.9,19.9-21.2c0.4-10.6-12.7-15-12.8-15l-2.7-0.9l2.7-1c0.2-0.1,4.9-1.8,30.1-9.9
				c4.7-1.5,10-2.9,15.6-4l0.4,2c-5.5,1.1-10.7,2.4-15.4,4c-16.4,5.3-24.1,7.9-27.6,9c1.3,0.6,3,1.5,4.7,2.8c4.8,3.6,7.2,8.1,7,13.1
				c-0.3,8.6-5.1,15.6-13.1,19.9l60.2-8c0.2-0.1,34.1-8.1,39.6-24.8c2.4-7.5,0.4-13-5.9-16.3l0.9-1.8c5,2.6,10.3,8,6.9,18.7
				c-2.5,7.5-10.1,14.2-22.9,19.9c-9.4,4.2-18.1,6.2-18.2,6.2L30.2,307.9z"/>
		</g>
		<g>
			<rect x="102.2" y="152.1" width="2" height="32.4"/>
		</g>
		<g>
			<rect x="198.2" y="96.9" width="2" height="78.5"/>
		</g>
		<g>
			<polygon points="154.3,156.2 154.3,114.8 156.3,114.8 156.3,154 199.1,148.4 199.4,150.4 			"/>
		</g>
		<g>
			<rect x="152.9" y="82.4" transform="matrix(0.8373 -0.5468 0.5468 0.8373 -23.2138 98.4857)" width="2" height="11.7"/>
		</g>
		<g>
			<path d="M831.3,297.9h-96.9v-27.1h96.9V297.9z M736.3,295.9h92.9v-23.1h-92.9V295.9z"/>
		</g>
		<g>
			<rect x="734.3" y="268" width="2" height="3.8"/>
		</g>
		<g>
			<rect x="829.4" y="268" width="2" height="3.8"/>
		</g>
		<g>
			<rect x="812.6" y="268" width="2" height="3.8"/>
		</g>
		<g>
			<rect x="750.7" y="268" width="2" height="3.8"/>
		</g>
		<g>
			<path d="M1244.9,299.3h-231.9V267h231.9V299.3z M1015.1,297.3h227.9V269h-227.9V297.3z"/>
		</g>
		<g>
			<path d="M984.5,298.2H858.9V267h125.6V298.2z M860.9,296.2h121.6V269H860.9V296.2z"/>
		</g>
		<g>
			<path d="M1141.2,45v-2c-0.4,0-0.6,0.3-0.7,0.4c0.2-0.6,0-3.3-0.3-5.7c-2.5-2.3-22.8-20.4-39.8-28.9H637
				c-17,8.4-37.2,26.6-39.8,28.9c-0.3,2.4-0.5,5.1-0.3,5.7c-0.1-0.1-0.3-0.4-0.7-0.4v2c-0.3,0-0.7-0.1-0.9-0.4
				c-0.3-0.3-0.9-1.1-0.1-7.5l0-0.4l0.3-0.2c0.2-0.2,22.3-20.5,40.7-29.5l0.2-0.1H1101l0.2,0.1c18.4,9.1,40.5,29.3,40.7,29.5
				l0.3,0.2l0,0.4c0.9,6.4,0.2,7.2-0.1,7.5C1141.9,44.8,1141.5,45,1141.2,45z"/>
		</g>
		<g>
			<polygon points="1399.2,256.2 1350.4,256.2 1350.4,252.2 1352.4,252.2 1352.4,254.3 1399.2,254.3 			"/>
		</g>
		<g>
			<rect x="1374.4" y="265" width="10.7" height="2"/>
		</g>
		<g>
			<path d="M1362.3,276.9h-2v-5.5h-1.8l0.3-1.2c0.1-0.2,1.3-5.2,5.5-5.2h3.6v2h-3.6c-1.6,0-2.5,1.3-3,2.4h1.1V276.9z"/>
		</g>
		<g>
			<path d="M1398.4,269.3c-0.4-0.4-0.9-0.9-1.3-1.1l1-1.7c0.6,0.4,1.2,0.9,1.7,1.4L1398.4,269.3z"/>
		</g>
		<g>
			<rect x="1361.3" y="269.5" width="37.9" height="2"/>
		</g>
		<g>
			<path d="M1375.4,270.5h-8.5v-16.3h8.5V270.5z M1368.9,268.5h4.5v-12.3h-4.5V268.5z"/>
		</g>
		<g>
			<path d="M862.7,32.2h-84.3V14.3h84.3V32.2z M780.4,30.2h80.3V16.3h-80.3V30.2z"/>
		</g>
		<g>
			<rect x="779.4" y="16.8" width="81.7" height="2"/>
		</g>
		<g>
			<rect x="779.4" y="20.3" width="81.7" height="2"/>
		</g>
		<g>
			<rect x="779.6" y="23.8" width="81.8" height="2"/>
		</g>
		<g>
			<rect x="779.4" y="27.3" width="81.7" height="2"/>
		</g>
		<g>
			<rect x="774.7" y="7.8" width="2" height="36.2"/>
		</g>
		<g>
			<rect x="866.4" y="7.8" width="2" height="36.2"/>
		</g>
		<g>
			<rect x="999" y="7.8" width="2" height="36.2"/>
		</g>
		<g>
			<rect x="1094.5" y="7.8" width="2" height="36.2"/>
		</g>
		<g>
			<path d="M326.7,312.5h-58.2c-0.5,0-1-0.2-1.3-0.3l-0.1-0.1l-5.2-2.6c-0.5-0.3-0.9-0.8-0.9-1.3c0-0.5,0.3-1,0.8-1.3l4.7-3.1
				c0.3-0.2,0.6-0.6,0.6-1V301h2v1.9c0,1-0.6,2-1.4,2.6l-4,2.7l4.4,2.2c0.3,0.1,0.5,0.1,0.6,0.1h58.2c0.2,0,0.4,0,0.6-0.1l4.4-2.2
				l-4-2.7c-0.9-0.6-1.4-1.6-1.4-2.6V301h2v1.9c0,0.4,0.2,0.7,0.6,1l4.7,3.1c0.4,0.3,0.7,0.8,0.7,1.3c0,0.5-0.3,1-0.7,1.3l-0.1,0.1
				l-5.3,2.7C327.6,312.4,327.2,312.5,326.7,312.5z"/>
		</g>
		<g>
			<polygon points="3.7,267.3 0.1,263.5 9,254 15.4,254 15.4,252.8 11.9,249.3 8.4,249.3 8.4,239.4 12.3,239.4 15.6,236.1 15.6,231 
				36.6,231 36.6,236.9 38.8,236.9 38.8,238.9 34.6,238.9 34.6,233 17.6,233 17.6,237 13.1,241.4 10.4,241.4 10.4,247.3 12.7,247.3 
				17.4,251.9 17.4,256 9.9,256 2.8,263.4 3.7,264.4 10.5,257.1 20,257.1 20,254.8 39.6,254.8 43.5,252.2 44.6,253.9 40.2,256.7 
				22,256.7 22,259.1 11.4,259.1 			"/>
		</g>
	</g>
</g>
</svg>
