<?xml version="1.0" encoding="utf-8"?>
<!-- Generator: Adobe Illustrator 22.0.1, SVG Export Plug-In . SVG Version: 6.00 Build 0)  -->
<svg version="1.1" id="Type_69_D" xmlns="http://www.w3.org/2000/svg" xmlns:xlink="http://www.w3.org/1999/xlink" x="0px" y="0px"
	 viewBox="0 0 1785 426" style="enable-background:new 0 0 1785 426;" xml:space="preserve">
<style type="text/css">
	.st0{fill:#B1B3B3;}
	.st1{fill:#212322;}
	.st2{fill:#FFBF3F;}
	.st3{fill:#444445;}
	.st4{fill:none;}
	.st5{fill:#DA291C;}
	.st6{fill:#30302F;}
	.st7{fill:#FA4616;}
	.st8{fill:#878787;}
	.st9{fill:none;stroke:#000000;stroke-width:2;stroke-miterlimit:10;}
</style>
<g id="Farger_2_">
	<g id="Grunnfarger">
		<polygon class="st0" points="174.7,136.3 188.2,113.4 400.9,113.4 400.9,116.6 1474,116.6 1486,136.3 1778.2,136.3 1778.2,360.6 
			1411.2,360.6 1374.2,382.5 1230.7,382.5 1194.4,360.6 673.7,360.6 635.7,382.5 491.7,382.5 454.4,360.8 69.9,360.8 69.9,304.5 
			64.4,302.1 64.4,276.8 68.7,274.9 68.7,271.1 64.9,268.3 92.4,150.4 96.4,150.4 96.4,132 159.9,132 159.9,136.3 		"/>
		<path class="st1" d="M364.4,407.5c5.4,7.6,14.2,12.6,24.2,12.6c13,0,24-8.4,28-20l-0.1,0.3c4.2,3.7,9.4,6.6,9.4,6.6l0.2,0.1
			c0,0,2-6.8,5.6-5.5c0,0,0.9-14.7,0.3-15.4c-0.6-0.7-15.2-9.5-15.2-9.5c-0.4-0.2-1.6-1.1-2.5-1.8c-0.7-0.5-1.4-1.2-1.9-1.9
			c-5.4-7.3-14.1-12.1-23.8-12.1l-37.1-0.1l-15.4,6.2h-6.4v-6.4c0,0-40-0.3-40.3,0l-0.1,6.4h-7l-14.6-5.9l-38.3-0.3
			c-9.8,0-17.4,3.9-23.1,11.3c0,0.1-2.6,2.6-3.5,3.2c-4.4,2.7-16.1,10.1-16.5,10.7c-0.6,0.7,0.3,15.4,0.3,15.4
			c3.6-1.3,5.6,5.5,5.6,5.5s5.1-3.6,9.3-6.8c4,11.5,15,19.8,27.9,19.8c9.5,0,18-4.5,23.4-11.5v0.3l5.1-0.5v1.5h41.5v-7.3v0.1h18.8
			v-0.1v7.3h41.5l4.5-2.3L364.4,407.5"/>
		<path class="st2" d="M179.3,360.5v9.6l-18.6,29H78.1c0,0,15.8-4.2,15.7-16.1c0-0.4-9.4,0.3-9.5-0.2c0,0,0-8.8,0-12.2h4.3
			c-2.2-3.1-5.3-6.5-9.4-10.2"/>
		<polygon class="st1" points="31.9,320.4 62.8,320.4 49,311.4 36.8,311.4 		"/>
		<polygon class="st1" points="69.3,357.1 33.9,357.1 33.9,332.9 69.4,332.9 		"/>
		<path class="st1" d="M1636.2,407c5.4,7.6,14.2,12.6,24.2,12.6c13,0,24-8.4,28-20l-0.1,0.3c4.2,3.7,9.4,6.6,9.4,6.6l0.2,0.1
			c0,0,2-6.8,5.6-5.5c0,0,0.9-14.7,0.3-15.4s-15.2-9.5-15.2-9.5c-0.4-0.2-1.6-1.1-2.5-1.8c-0.7-0.5-1.4-1.2-1.9-1.9
			c-5.4-7.3-14.1-12.1-23.8-12.1l-37.1-0.1l-15.4,6.2h-6.4v-6.4c0,0-40-0.3-40.3,0l-0.1,6.4h-7l-14.6-5.9l-38.3-0.3
			c-9.8,0-17.4,3.9-23.1,11.3c0,0.1-2.6,2.6-3.5,3.2c-4.4,2.7-16.1,10.1-16.5,10.7c-0.6,0.7,0.3,15.4,0.3,15.4
			c3.6-1.3,5.6,5.5,5.6,5.5s5.1-3.6,9.3-6.8c4,11.5,15,19.8,27.9,19.8c9.5,0,18-4.5,23.4-11.5v0.3l5.1-0.5v1.5h41.5v-7.3v0.1h18.8
			v-0.1v7.3h41.5l4.5-2.3L1636.2,407"/>
		<path class="st3" d="M1686.7,131.6h3.4c0,0,0.6,0.1,0.6-0.8c0-0.8-0.7-1.4-1.2-1.7c-0.4-0.2-1.8-0.6-2.7-0.8v-2.5h3.4
			c0,0,0.6,0.1,0.6-0.8c0-0.8-0.7-1.4-1.2-1.7c-0.4-0.2-2.6-0.7-3.6-0.9V117h-6.4v5.6c-0.9,0.2-3.1,0.6-3.5,0.8
			c-0.5,0.3-1.2,0.8-1.2,1.7c0,0.8,0.6,0.8,0.6,0.8h3.4v2.5c-0.9,0.2-2.3,0.6-2.7,0.8c-0.5,0.3-1.2,0.8-1.2,1.7
			c0,0.8,0.6,0.8,0.6,0.8h3.4L1686.7,131.6L1686.7,131.6z"/>
		<path class="st3" d="M1735.7,132.1h3.4c0,0,0.6,0.1,0.6-0.8c0-0.8-0.7-1.4-1.3-1.7c-0.4-0.2-1.8-0.6-2.7-0.8v-2.5h3.4
			c0,0,0.6,0.1,0.6-0.8c0-0.8-0.7-1.4-1.3-1.7c-0.4-0.2-2.6-0.7-3.6-0.9v-5.5h-6.4v5.6c-0.9,0.2-3.1,0.6-3.5,0.8
			c-0.5,0.3-1.3,0.8-1.3,1.7c0,0.8,0.6,0.8,0.6,0.8h3.4v2.5c-0.9,0.2-2.3,0.6-2.7,0.8c-0.5,0.3-1.3,0.8-1.3,1.7
			c0,0.8,0.6,0.8,0.6,0.8h3.4H1735.7L1735.7,132.1z"/>
		<rect x="1727.8" y="111.4" class="st3" width="7.7" height="4.7"/>
		<rect x="1678.8" y="111.1" class="st3" width="7.7" height="4.7"/>
		<rect x="1698.2" y="107.8" class="st3" width="17.2" height="5.9"/>
		<rect x="402.1" y="115.8" class="st1" width="1051.5" height="19.7"/>
		<path class="st3" d="M1769,360.5l6.2-0.4l2.9-3.2c0,0,0.3,15.6,0,15.9c-0.2,0.2-9.1,0-9.1,0V360.5"/>
		<polygon class="st1" points="689.9,360.6 689.9,391.2 691.2,392.5 782.4,392.5 784.1,390.8 784.1,386.2 879.1,386.2 880.1,385.1 
			880.1,379.8 955.8,379.8 1046,379.8 1047.1,378.8 1047.1,370.5 1140.2,370.5 1141.7,369.5 1141.7,360.8 691.7,360.5 		"/>
		<path class="st3" d="M1496.2,66.8l1,1.4l2.1-0.2l7.6-14.6l10.4,4.7l74.4,40.3l-17.1,0.1v5.4l-33.5,0.4l0.1,10h-0.6l-0.2,6.2
			l-2.9,0.8l-0.1,1.5l3.7,0.3l-0.2,1.5l-3.6,1l0.1,1.4h2.7l-0.1,1.5l-2.7,1l0.1,1.4l4.7,0.1l0.2,5h4.8l-0.2-5.2h4.9l-0.1-1l-3.4-1.8
			l0.1-1l3.1-0.1l-0.2-1.2l-3-1.4V123l3.1-0.1l0.2-1.1l-3.5-1.5l0.2-6.4l-0.8-0.2l0.2-3.5l73.3,0.1v3.9l-0.9,0.2l0.3,6.2l-3.1,1.7
			l2.8,1v1.2c0,0-2.6,1.8-3.1,1.9s3.1,1.1,3.1,1.1l-3.4,2.6l0.7,0.9l4.5,0.1l0.1,5l4.8,0.1v-5.1h4.7c0,0,0.2-1.8,0-1.8
			s-3.7-1.5-3.7-1.5V127h4v-1.4l-4.4-1.4V123h4.4v-1.5l-3.7-1.1v-6.2h-0.6v-3.8h0.5v-6.1h-24l1.4-2.8l-1.9-2.8L1522.3,56l89.3-35.8
			V14l17.7-0.6v-1.8h-37.5l0.6,2.3h10.4L1559,30.1l-0.6-0.9l-53,21.2l-0.3,2L1496.2,66.8z M1514.4,51.5l45.1-18.4l-0.7-1.2
			l43.6-17.5h8v3.1l-90.2,36.8L1514.4,51.5z"/>
	</g>
	<g id="Profilering_3_">
		<path id="rødt_nederst_1_" class="st5" d="M1777.9,272.8l-0.3,87.6l-365.9-0.1l-37.9,22l-143.7,0.2l-35.8-22H673.6l-38,21.9
			l-144,0.4l-38.2-22.5H70c-0.1-0.2-0.2-2.9-0.2-6.7l0.2-51.1c12.8,0,61.3-0.4,61.3-0.4l26.6-29.3H1777.9z"/>
		<polyline id="sort_bak_vinduer_1_" class="st6" points="159.8,273.5 227.6,199.8 1778.2,199.8 1778.2,273.5 163.1,273.5 		"/>
		<path class="st5" d="M1613.1,167.5L87.8,167.8l-1.6,8.2c-0.8,0.9-2.2,10.1-2.7,11.1L81.2,200h147.3h1414.5"/>
		<g>
			<rect x="67" y="297.8" class="st0" width="1710.6" height="6.7"/>
		</g>
		<g>
			<polygon class="st0" points="1778.4,314.6 1565.1,314.6 1442.9,176 252.9,176 123.1,314.5 69.5,314.6 69.5,311.2 121.7,311.1 
				251.5,172.6 1444.4,172.6 1444.9,173.2 1566.7,311.2 1778.4,311.2 			"/>
		</g>
	</g>
	<g id="Dører_og_vinduer_3_">
		<rect x="1249.6" y="137.5" class="st7" width="105" height="224.4"/>
		<path class="st8" d="M1338.8,270.3h-21.6c-3.4,0-6.1-2.7-6.1-6.1v-43.3c0-3.4,2.7-6.1,6.1-6.1h21.6c3.4,0,6.1,2.7,6.1,6.1v43.3
			C1344.8,267.6,1342.1,270.3,1338.8,270.3z"/>
		<path class="st8" d="M1287.3,270.3h-21.6c-3.4,0-6.1-2.7-6.1-6.1v-43.3c0-3.4,2.7-6.1,6.1-6.1h21.6c3.4,0,6.1,2.7,6.1,6.1v43.3
			C1293.4,267.6,1290.6,270.3,1287.3,270.3z"/>
		<rect x="511.3" y="137.5" class="st7" width="105" height="224.4"/>
		<path class="st8" d="M600.6,270.3H579c-3.4,0-6.1-2.7-6.1-6.1v-43.3c0-3.4,2.7-6.1,6.1-6.1h21.6c3.4,0,6.1,2.7,6.1,6.1v43.3
			C606.7,267.6,604,270.3,600.6,270.3z"/>
		<path class="st8" d="M549.4,270.2h-21.6c-3.4,0-6.1-2.7-6.1-6.1v-43.3c0-3.4,2.7-6.1,6.1-6.1h21.6c3.4,0,6.1,2.7,6.1,6.1v43.3
			C555.4,267.4,552.7,270.2,549.4,270.2z"/>
		<path class="st8" d="M163.6,253h-11.3c-4.7,0-8.6-3.8-8.6-8.6v-31.3c0-4.7,3.8-8.6,8.6-8.6h11.3c4.7,0,8.6,3.8,8.6,8.6v31.3
			C172.2,249.2,168.4,253,163.6,253z"/>
		<path class="st0" d="M116.1,254.1H98.5c-5.8,0-10.5-4.5-10.8-10.2c0-0.4,0-0.8,0.1-1.2l6-28.3c1.2-6.4,4.8-10.8,10.8-10.8h11.5
			c6,0,10.8,4.8,10.8,10.8v28.9C126.9,249.3,122.1,254.1,116.1,254.1z"/>
		<path class="st8" d="M451.2,271.4h-67.6c-4.5,0-8.1-3.6-8.1-8.1v-54c0-4.5,3.6-8.1,8.1-8.1h67.6c4.5,0,8.1,3.6,8.1,8.1v54
			C459.3,267.8,455.6,271.4,451.2,271.4z"/>
		<path class="st8" d="M301.2,271.4h-67.6c-4.5,0-8.1-3.6-8.1-8.1v-54c0-4.5,3.6-8.1,8.1-8.1h67.6c4.5,0,8.1,3.6,8.1,8.1v54
			C309.3,267.8,305.7,271.4,301.2,271.4z"/>
		<path class="st8" d="M1136.9,271.4h-67.6c-4.5,0-8.1-3.6-8.1-8.1v-54c0-4.5,3.6-8.1,8.1-8.1h67.6c4.5,0,8.1,3.6,8.1,8.1v54
			C1145,267.8,1141.3,271.4,1136.9,271.4z"/>
		<path class="st8" d="M1006.1,271.4h-67.6c-4.5,0-8.1-3.6-8.1-8.1v-54c0-4.5,3.6-8.1,8.1-8.1h67.6c4.5,0,8.1,3.6,8.1,8.1v54
			C1014.2,267.8,1010.5,271.4,1006.1,271.4z"/>
		<path class="st8" d="M873.8,271.4h-67.6c-4.5,0-8.1-3.6-8.1-8.1v-54c0-4.5,3.6-8.1,8.1-8.1h67.6c4.5,0,8.1,3.6,8.1,8.1v54
			C882,267.8,878.3,271.4,873.8,271.4z"/>
		<path class="st8" d="M743.4,271.4h-67.6c-4.5,0-8.1-3.6-8.1-8.1v-54c0-4.5,3.6-8.1,8.1-8.1h67.6c4.5,0,8.1,3.6,8.1,8.1v54
			C751.5,267.8,747.9,271.4,743.4,271.4z"/>
		<path class="st8" d="M1650.4,271.4h-67.6c-4.5,0-8.1-3.6-8.1-8.1v-54c0-4.5,3.6-8.1,8.1-8.1h67.6c4.5,0,8.1,3.6,8.1,8.1v54
			C1658.5,267.8,1654.9,271.4,1650.4,271.4z"/>
		<path class="st8" d="M1492.5,271.4H1425c-4.5,0-8.1-3.6-8.1-8.1v-54c0-4.5,3.6-8.1,8.1-8.1h67.6c4.5,0,8.1,3.6,8.1,8.1v54
			C1500.7,267.8,1497,271.4,1492.5,271.4z"/>
	</g>
</g>
<g id="Omriss_2_">
	<polygon class="st9" points="174.7,136.3 188.2,113.4 400.9,113.4 400.9,116.6 1474,116.6 1486,136.3 1778.2,136.3 1778.2,360.6 
		1411.2,360.6 1374.2,382.5 1230.7,382.5 1194.4,360.6 673.7,360.6 635.7,382.5 491.7,382.5 454.4,360.8 69.9,360.8 69.9,304.5 
		64.4,302.1 64.4,276.8 68.7,274.9 68.7,271.1 64.9,268.3 92.4,150.4 96.4,150.4 96.4,132 159.9,132 159.9,136.3 	"/>
	<line class="st9" x1="1735.1" y1="112.6" x2="1764.2" y2="135.8"/>
	<line class="st9" x1="1678.2" y1="112.8" x2="1649.2" y2="136"/>
	<rect x="1727.7" y="110.8" class="st9" width="7.7" height="4.7"/>
	<rect x="1678.5" y="110.8" class="st9" width="7.7" height="4.7"/>
	<rect x="1698.2" y="107.8" class="st9" width="17.2" height="5.9"/>
	<line class="st9" x1="1727.7" y1="110.8" x2="1715.3" y2="110.8"/>
	<line class="st9" x1="1698.2" y1="110.8" x2="1686.1" y2="110.8"/>
	<path class="st9" d="M1686.4,131.8h3.4c0,0,0.6,0.1,0.6-0.8c0-0.8-0.7-1.4-1.3-1.7c-0.4-0.2-1.8-0.6-2.7-0.8V126h3.4
		c0,0,0.6,0.1,0.6-0.8c0-0.8-0.7-1.4-1.3-1.7c-0.4-0.2-2.6-0.7-3.6-0.9v-5.5h-6.4v5.6c-0.9,0.2-3.1,0.6-3.5,0.8
		c-0.5,0.3-1.3,0.8-1.3,1.7c0,0.8,0.6,0.8,0.6,0.8h3.4v2.5c-0.9,0.2-2.3,0.6-2.7,0.8c-0.5,0.3-1.3,0.8-1.3,1.7
		c0,0.8,0.6,0.8,0.6,0.8h3.4H1686.4L1686.4,131.8z"/>
	<line class="st9" x1="1686.4" y1="122.8" x2="1678.4" y2="122.8"/>
	<line class="st9" x1="1686.4" y1="128.5" x2="1678.4" y2="128.5"/>
	<path class="st9" d="M1735.7,131.8h3.4c0,0,0.6,0.1,0.6-0.8c0-0.8-0.7-1.4-1.3-1.7c-0.4-0.2-1.8-0.6-2.7-0.8V126h3.4
		c0,0,0.6,0.1,0.6-0.8c0-0.8-0.7-1.4-1.3-1.7c-0.4-0.2-2.6-0.7-3.6-0.9v-5.5h-6.4v5.6c-0.9,0.2-3.1,0.6-3.5,0.8
		c-0.5,0.3-1.3,0.8-1.3,1.7c0,0.8,0.6,0.8,0.6,0.8h3.4v2.5c-0.9,0.2-2.3,0.6-2.7,0.8c-0.5,0.3-1.3,0.8-1.3,1.7
		c0,0.8,0.6,0.8,0.6,0.8h3.4H1735.7L1735.7,131.8z"/>
	<line class="st9" x1="1735.7" y1="122.8" x2="1727.7" y2="122.8"/>
	<line class="st9" x1="1735.7" y1="128.5" x2="1727.7" y2="128.5"/>
	<line class="st9" x1="1542.7" y1="132.4" x2="1542.7" y2="143.3"/>
	<line class="st9" x1="1546.7" y1="132.5" x2="1546.7" y2="143.4"/>
	<line class="st9" x1="1622.5" y1="136.2" x2="1622.5" y2="143.3"/>
	<line class="st9" x1="1626.6" y1="136.1" x2="1626.8" y2="142.5"/>
	<line class="st9" x1="1680.3" y1="132.4" x2="1680.3" y2="143.3"/>
	<line class="st9" x1="1684.3" y1="132.5" x2="1684.3" y2="143.4"/>
	<line class="st9" x1="1729.7" y1="132.4" x2="1729.7" y2="143.3"/>
	<line class="st9" x1="1733.7" y1="132.5" x2="1733.7" y2="143.4"/>
	<line class="st9" x1="1487.1" y1="150.8" x2="1487.1" y2="142.5"/>
	<line class="st9" x1="1533.7" y1="150.8" x2="1533.7" y2="142.5"/>
	<line class="st9" x1="1580.2" y1="142.5" x2="1580.2" y2="150.8"/>
	<line class="st9" x1="1626.8" y1="150.8" x2="1626.8" y2="142.5"/>
	<line class="st9" x1="1673.3" y1="150.8" x2="1673.3" y2="142.5"/>
	<line class="st9" x1="1719.9" y1="150.8" x2="1719.9" y2="142.5"/>
	<polyline class="st9" points="1766.4,150.8 1766.4,142.5 1487.1,142.5 	"/>
	<line class="st9" x1="1486" y1="136.3" x2="174.7" y2="136.3"/>
	<line class="st9" x1="474.6" y1="116.4" x2="474.6" y2="136.3"/>
	<line class="st9" x1="549.8" y1="116.4" x2="549.8" y2="136.3"/>
	<line class="st9" x1="625" y1="116.4" x2="625" y2="136.3"/>
	<line class="st9" x1="700.3" y1="116.4" x2="700.3" y2="136.3"/>
	<line class="st9" x1="775.5" y1="116.4" x2="775.5" y2="136.3"/>
	<line class="st9" x1="850.7" y1="116.4" x2="850.7" y2="136.3"/>
	<line class="st9" x1="925.9" y1="116.4" x2="925.9" y2="136.3"/>
	<line class="st9" x1="1001.1" y1="116.4" x2="1001.1" y2="136.3"/>
	<line class="st9" x1="1076.3" y1="116.4" x2="1076.3" y2="136.3"/>
	<line class="st9" x1="1151.5" y1="116.4" x2="1151.5" y2="136.3"/>
	<line class="st9" x1="1226.7" y1="116.4" x2="1226.7" y2="136.3"/>
	<line class="st9" x1="1301.9" y1="116.4" x2="1301.9" y2="136.3"/>
	<line class="st9" x1="1377.1" y1="116.4" x2="1377.1" y2="136.3"/>
	<line class="st9" x1="1452.3" y1="116.4" x2="1452.3" y2="136.3"/>
	<line class="st9" x1="400.9" y1="116.6" x2="400.9" y2="136.5"/>
	<polyline class="st9" points="1524.2,408.5 1529.3,408 1529.3,409.5 1570.9,409.5 1570.9,402.1 	"/>
	<polyline class="st9" points="1540.9,394.6 1540.9,402.1 1554,402.1 	"/>
	<polyline class="st9" points="1635.7,407.1 1631.2,409.5 1589.6,409.5 1589.6,402.1 	"/>
	<polyline class="st9" points="1615.1,397.8 1619,402.2 1607.7,402.2 	"/>
	<line class="st9" x1="1601.4" y1="361.5" x2="1601.4" y2="367.8"/>
	<line class="st9" x1="1561" y1="367.8" x2="1561" y2="361.5"/>
	<circle class="st9" cx="1501.3" cy="390.1" r="4.3"/>
	<circle class="st9" cx="1660.2" cy="390.2" r="4.3"/>
	<path class="st9" d="M1688,399.6c-4,11.6-15,20-28,20c-16.3,0-29.6-13.3-29.6-29.6c0-1,0-1.5,0-1.5"/>
	<path class="st9" d="M1685.1,397.2c-3.5,10.3-13.3,17.9-24.7,17.9c-14.4,0-26-11.7-26-26.2c0-0.9,0.1-2.1,0.1-2.1"/>
	<path class="st9" d="M1530.2,388.2l0.2,1.8c0,16.3-13.3,29.6-29.6,29.6c-12.9,0-23.9-8.3-27.9-19.8"/>
	<path class="st9" d="M1525.9,386.8l0.2,1.6c0,14.5-11.5,26.2-25.7,26.2c-11.2,0-20.7-7.3-24.2-17.6"/>
	<path class="st9" d="M1477.7,371.8c0,0.1-2.6,2.6-3.5,3.2c-4.4,2.7-16.1,10.1-16.5,10.7c-0.6,0.7,0.3,15.4,0.3,15.4
		c3.6-1.3,5.6,5.5,5.6,5.5s12.4-9.2,13.9-10.8c1.5-1.6,1-3.4,1-5.2c0.1-3.4,2.6-5,4.2-5.6c1.2-0.4,9-0.3,9-0.3l4.4-2.5
		c1.7-1,3.7-1.5,5.7-1.5l0,0c2,0,3.9,0.5,5.6,1.5l5.6,3.1h11.6c0.3,0,0.8,0.2,0.8,0.2l28.9,16.8h53.6l27.6-16.4c0,0,0.5-0.5,1.3-0.5
		c0.7,0,1,0,1,0h11.6l5.6-3.1c1.7-1,3.6-1.5,5.6-1.5l0,0c2,0,3.9,0.5,5.7,1.5l4.4,2.5c0,0,6.6-0.2,7.8,0.1c1,0.2,4.7,1.5,4.7,7.4
		c0,6.3,14.5,14.3,14.5,14.3l0.2,0.1c0,0,2-6.8,5.6-5.5c0,0,0.9-14.7,0.3-15.4s-15.2-9.5-15.2-9.5c-0.4-0.2-1.6-1.1-2.5-1.7
		c-0.7-0.5-1.4-1.2-1.9-1.9c-5.4-7.3-14.1-12.1-23.9-12.1h-37.1l-15.4,6.2H1554l-14.6-5.9l-38.3-0.3l0,0
		C1491,360.5,1483.4,364.3,1477.7,371.8"/>
	<line class="st9" x1="1354.7" y1="180.8" x2="1777.5" y2="180.8"/>
	<line class="st9" x1="616.2" y1="180.8" x2="1249.7" y2="180.8"/>
	<line class="st9" x1="91.1" y1="180.8" x2="511.3" y2="180.8"/>
	<line class="st9" x1="1392.9" y1="285.8" x2="1737.3" y2="285.8"/>
	<line class="st9" x1="1392.9" y1="316.1" x2="1737.4" y2="316.1"/>
	<path class="st9" d="M1354.5,362h-104.9V200.4c0-4.5,3.6-8.1,8.1-8.1h88.6c4.5,0,8.1,3.6,8.1,8.1V362H1354.5z"/>
	<line class="st9" x1="1302.1" y1="191.9" x2="1302.1" y2="362"/>
	<line class="st9" x1="653.6" y1="285.8" x2="1214.5" y2="285.8"/>
	<line class="st9" x1="653.6" y1="316.1" x2="1214.5" y2="316.1"/>
	<polyline class="st9" points="252.4,408.8 257.5,408.3 257.5,409.8 299.1,409.8 299.1,402.5 	"/>
	<polyline class="st9" points="269.1,395 269.1,402.5 282.2,402.5 	"/>
	<polyline class="st9" points="363.9,407.5 359.4,409.8 317.8,409.8 317.8,402.5 	"/>
	<polyline class="st9" points="343.3,398.1 347.2,402.5 335.9,402.6 	"/>
	<line class="st9" x1="329.3" y1="360.6" x2="329.3" y2="366.8"/>
	<line class="st9" x1="289" y1="366.8" x2="289" y2="360.6"/>
	<circle class="st9" cx="229.5" cy="390.5" r="4.3"/>
	<circle class="st9" cx="388.4" cy="390.6" r="4.3"/>
	<path class="st9" d="M416.2,400c-4,11.6-15,20-28,20c-16.3,0-29.6-13.3-29.6-29.6c0-1,0-1.5,0-1.5"/>
	<path class="st9" d="M413.3,397.5c-3.5,10.3-13.3,17.9-24.7,17.9c-14.4,0-26-11.7-26-26.2c0-0.9,0.1-2.1,0.1-2.1"/>
	<path class="st9" d="M258.4,388.5l0.2,1.8c0,16.3-13.3,29.6-29.6,29.6c-12.9,0-23.9-8.3-27.9-19.8"/>
	<path class="st9" d="M254.1,387.1l0.2,1.6c0,14.5-11.5,26.2-25.7,26.2c-11.2,0-20.7-7.3-24.2-17.6"/>
	<path class="st9" d="M205.9,372.1c0,0.1-2.6,2.6-3.5,3.2c-4.4,2.7-16.1,10.1-16.5,10.7c-0.6,0.7,0.3,15.4,0.3,15.4
		c3.6-1.3,5.6,5.5,5.6,5.5s12.4-9.2,13.9-10.8c1.5-1.6,1-3.4,1-5.2c0.1-3.4,2.6-5,4.2-5.6c1.2-0.4,9-0.3,9-0.3l4.4-2.5
		c1.7-1,3.7-1.5,5.7-1.5l0,0c2,0,3.9,0.5,5.6,1.5l5.6,3.1h11.6c0.3,0,0.8,0.2,0.8,0.2l28.9,16.8h53.6l27.6-16.4c0,0,0.5-0.5,1.3-0.5
		c0.8,0,1,0,1,0h11.6l5.6-3.1c1.7-1,3.6-1.5,5.6-1.5l0,0c2,0,3.9,0.5,5.7,1.5l4.4,2.5c0,0,6.6-0.2,7.8,0.1c1,0.2,4.7,1.5,4.7,7.4
		c0,6.3,14.5,14.3,14.5,14.3l0.2,0.1c0,0,2-6.8,5.6-5.5c0,0,0.9-14.7,0.3-15.4c-0.6-0.7-15.2-9.5-15.2-9.5c-0.4-0.2-1.6-1.1-2.5-1.7
		c-0.7-0.5-1.4-1.2-1.9-1.9c-5.4-7.3-14.1-12.1-23.9-12.1h-37.1l-15.4,6.2h-53.8l-14.6-5.9l-38.3-0.3l0,0
		C219.2,360.8,211.6,364.8,205.9,372.1"/>
	<line class="st9" x1="201.5" y1="285.8" x2="476" y2="285.8"/>
	<line class="st9" x1="201.4" y1="316.1" x2="475.9" y2="316.1"/>
	<polyline class="st9" points="179.7,277.4 189.8,277.4 189.8,317.1 179.9,317.1 	"/>
	<rect x="122.2" y="276.8" class="st9" width="5.3" height="40.7"/>
	<rect x="134.4" y="196.9" class="st9" width="45.7" height="126.9"/>
	<polyline class="st9" points="134.3,266.9 140.4,266.9 140.4,288.8 134.2,288.8 	"/>
	<path class="st9" d="M178.1,360.8v9.6l-18.6,29H77c0,0,34.5-8.3,1.2-38.7"/>
	<path class="st9" d="M136.1,361c9.6,1.1,24,4.2,19.1,19.5c-4.9,15.4-23.1,18.3-25.9,19"/>
	<polyline class="st9" points="143,362 87.7,371.2 83.2,371.2 83.2,383.5 92.7,383.5 	"/>
	<line class="st9" x1="74.2" y1="360.8" x2="74.2" y2="371.3"/>
	<line class="st9" x1="68.9" y1="371.3" x2="79.4" y2="371.3"/>
	<polyline class="st9" points="69.8,357.1 34.3,357.1 34.3,332.9 69.9,332.9 	"/>
	<path class="st9" d="M6.5,367.3c0.3-0.3,10.3-10.1,10.3-10.1h17.5"/>
	<polygon class="st9" points="31.9,320.4 62.8,320.4 49,311.4 36.8,311.4 	"/>
	<polyline class="st9" points="28.5,357.5 17.9,349 17.9,340.1 28.2,320.4 31.9,320.4 	"/>
	<line class="st9" x1="49.9" y1="320.5" x2="49.9" y2="333"/>
	<path class="st9" d="M116.1,254.1H98.5c-5.8,0-10.5-4.5-10.8-10.2c0-0.4,0-0.8,0.1-1.2l6-28.3c1.2-6.4,4.8-10.8,10.8-10.8h11.5
		c6,0,10.8,4.8,10.8,10.8v28.9C126.9,249.3,122.1,254.1,116.1,254.1z"/>
	<path class="st9" d="M301.2,271.4h-67.6c-4.5,0-8.1-3.6-8.1-8.1v-54c0-4.5,3.6-8.1,8.1-8.1h67.6c4.5,0,8.1,3.6,8.1,8.1v54
		C309.3,267.8,305.7,271.4,301.2,271.4z"/>
	<line class="st9" x1="225.8" y1="227.3" x2="309.5" y2="227.3"/>
	<path class="st9" d="M451.2,271.4h-67.6c-4.5,0-8.1-3.6-8.1-8.1v-54c0-4.5,3.6-8.1,8.1-8.1h67.6c4.5,0,8.1,3.6,8.1,8.1v54
		C459.3,267.8,455.6,271.4,451.2,271.4z"/>
	<line class="st9" x1="375.7" y1="227.3" x2="459.4" y2="227.3"/>
	<path class="st9" d="M743.4,271.4h-67.6c-4.5,0-8.1-3.6-8.1-8.1v-54c0-4.5,3.6-8.1,8.1-8.1h67.6c4.5,0,8.1,3.6,8.1,8.1v54
		C751.5,267.8,747.9,271.4,743.4,271.4z"/>
	<line class="st9" x1="667.9" y1="227.3" x2="751.6" y2="227.3"/>
	<path class="st9" d="M873.8,271.4h-67.6c-4.5,0-8.1-3.6-8.1-8.1v-54c0-4.5,3.6-8.1,8.1-8.1h67.6c4.5,0,8.1,3.6,8.1,8.1v54
		C882,267.8,878.3,271.4,873.8,271.4z"/>
	<line class="st9" x1="798.4" y1="227.3" x2="882.1" y2="227.3"/>
	<path class="st9" d="M1006.1,271.4h-67.6c-4.5,0-8.1-3.6-8.1-8.1v-54c0-4.5,3.6-8.1,8.1-8.1h67.6c4.5,0,8.1,3.6,8.1,8.1v54
		C1014.2,267.8,1010.5,271.4,1006.1,271.4z"/>
	<line class="st9" x1="930.6" y1="227.3" x2="1014.3" y2="227.3"/>
	<path class="st9" d="M1136.9,271.4h-67.6c-4.5,0-8.1-3.6-8.1-8.1v-54c0-4.5,3.6-8.1,8.1-8.1h67.6c4.5,0,8.1,3.6,8.1,8.1v54
		C1145,267.8,1141.3,271.4,1136.9,271.4z"/>
	<line class="st9" x1="1061.4" y1="227.3" x2="1145.1" y2="227.3"/>
	<path class="st9" d="M1492.5,271.4H1425c-4.5,0-8.1-3.6-8.1-8.1v-54c0-4.5,3.6-8.1,8.1-8.1h67.6c4.5,0,8.1,3.6,8.1,8.1v54
		C1500.7,267.8,1497,271.4,1492.5,271.4z"/>
	<line class="st9" x1="1417.1" y1="227.3" x2="1500.8" y2="227.3"/>
	<path class="st9" d="M1650.4,271.4h-67.6c-4.5,0-8.1-3.6-8.1-8.1v-54c0-4.5,3.6-8.1,8.1-8.1h67.6c4.5,0,8.1,3.6,8.1,8.1v54
		C1658.5,267.8,1654.9,271.4,1650.4,271.4z"/>
	<line class="st9" x1="1574.9" y1="227.3" x2="1658.6" y2="227.3"/>
	<path class="st9" d="M163.3,253.2H152c-4.7,0-8.6-3.8-8.6-8.6v-31.3c0-4.7,3.8-8.6,8.6-8.6h11.3c4.7,0,8.6,3.8,8.6,8.6v31.3
		C171.9,249.3,168,253.2,163.3,253.2z"/>
	<path class="st9" d="M1338.8,270.3h-21.6c-3.4,0-6.1-2.7-6.1-6.1v-43.3c0-3.4,2.7-6.1,6.1-6.1h21.6c3.4,0,6.1,2.7,6.1,6.1v43.3
		C1344.8,267.5,1342.1,270.3,1338.8,270.3z"/>
	<path class="st9" d="M1287.3,270.3h-21.6c-3.4,0-6.1-2.7-6.1-6.1v-43.3c0-3.4,2.7-6.1,6.1-6.1h21.6c3.4,0,6.1,2.7,6.1,6.1v43.3
		C1293.4,267.5,1290.6,270.3,1287.3,270.3z"/>
	<path class="st9" d="M616.4,362H511.6V200.4c0-4.5,3.6-8.1,8.1-8.1h88.6c4.5,0,8.1,3.6,8.1,8.1L616.4,362L616.4,362z"/>
	<path class="st9" d="M600.6,270.3H579c-3.4,0-6.1-2.7-6.1-6.1v-43.3c0-3.4,2.7-6.1,6.1-6.1h21.6c3.4,0,6.1,2.7,6.1,6.1v43.3
		C606.7,267.5,604,270.3,600.6,270.3z"/>
	<path class="st9" d="M549.2,270.3h-21.6c-3.4,0-6.1-2.7-6.1-6.1v-43.3c0-3.4,2.7-6.1,6.1-6.1h21.6c3.4,0,6.1,2.7,6.1,6.1v43.3
		C555.2,267.5,552.5,270.3,549.2,270.3z"/>
	<line class="st9" x1="564" y1="191.9" x2="564" y2="362"/>
	<path class="st9" d="M1769.1,360.4v12.2c0,0,8.9,0.2,9.1,0c0.2-0.2,0-15.4,0-15.4"/>
	<path class="st9" d="M782.4,392.5h-90.8c-0.9,0-1.7-0.8-1.7-1.7v-28.3c0-0.9,0.8-1.7,1.7-1.7h90.8c0.9,0,1.7,0.8,1.7,1.7v28.3
		C784.1,391.8,783.3,392.5,782.4,392.5z"/>
	<rect x="785.9" y="360.8" class="st9" width="94.2" height="25.5"/>
	<rect x="881.7" y="360.8" class="st9" width="53.9" height="19.1"/>
	<rect x="937.3" y="360.8" class="st9" width="53.9" height="19.1"/>
	<rect x="993.2" y="360.8" class="st9" width="53.9" height="19.1"/>
	<rect x="1048.5" y="360.6" class="st9" width="93.2" height="9.8"/>
	<polyline class="st9" points="1604.3,14.1 1559.6,31.9 1558.8,30.2 1599.2,13.9 	"/>
	<path class="st9" d="M1628.2,3.7v1.2l0.4,9.2c0,0,0,0.4,0.5,0.4l0,0c0.5,0,0.5-0.4,0.5-0.4l0.4-9.2V3.7H1628.2z"/>
	<path class="st9" d="M1591.3,3.7v1.2l0.4,9.2c0,0,0,0.4,0.5,0.4l0,0c0.5,0,0.5-0.4,0.5-0.4l0.4-9.2V3.7H1591.3z"/>
	<line class="st9" x1="1628.5" y1="11.6" x2="1611.5" y2="11.6"/>
	<line class="st9" x1="1628.6" y1="14" x2="1611.5" y2="14"/>
	<line class="st9" x1="1610" y1="11.6" x2="1593" y2="11.6"/>
	<line class="st9" x1="1610.1" y1="14" x2="1593" y2="14"/>
	<path class="st9" d="M1609.8,9.4v13.7c0,0.4,0.4,0.8,0.8,0.8s0.8-0.4,0.8-0.8V9.4c0-0.4-0.4-0.8-0.8-0.8S1609.8,9,1609.8,9.4z"/>
	<path class="st9" d="M1617.1,127.1c0,0-0.6,0-0.6-0.6c0-0.6,0.7-1,1.2-1.2c0.4-0.1,1.7-0.4,2.6-0.6v-1.8h-3.3c0,0-0.6,0-0.6-0.6
		c0-0.6,0.7-1,1.2-1.2c0.4-0.1,1.7-0.4,2.6-0.6v-6.2h7.6v6.2c0.9,0.1,2.2,0.5,2.6,0.6c0.5,0.2,1.2,0.6,1.2,1.2
		c0,0.6-0.6,0.6-0.6,0.6h-3.3v1.8c0.9,0.1,2.2,0.5,2.6,0.6c0.5,0.2,1.2,0.6,1.2,1.2c0,0.6-0.6,0.6-0.6,0.6h-3.3v1.5
		c0.9,0.1,2.2,0.5,2.6,0.6c0.5,0.2,1.2,0.6,1.2,1.2c0,0.6-0.6,0.6-0.6,0.6h-4.6v5.1h-4.4V131h-2.7h-2.4c0,0-0.6,0-0.6-0.6
		c0-0.6,0.7-1,1.2-1.2c0.4-0.1,1.7-0.4,2.6-0.6v-1.5L1617.1,127.1L1617.1,127.1z"/>
	<path class="st9" d="M1537.4,127.1c0,0-0.6,0-0.6-0.6c0-0.6,0.7-1,1.2-1.2c0.4-0.1,1.7-0.4,2.6-0.6v-1.8h-3.3c0,0-0.6,0-0.6-0.6
		c0-0.6,0.7-1,1.2-1.2c0.4-0.1,1.7-0.4,2.6-0.6v-6.2h7.6v6.2c0.9,0.1,2.2,0.5,2.6,0.6c0.5,0.2,1.2,0.6,1.2,1.2
		c0,0.6-0.6,0.6-0.6,0.6h-3.3v1.8c0.9,0.1,2.2,0.5,2.6,0.6c0.5,0.2,1.2,0.6,1.2,1.2c0,0.6-0.6,0.6-0.6,0.6h-3.3v1.5
		c0.9,0.1,2.2,0.5,2.6,0.6c0.5,0.2,1.2,0.6,1.2,1.2c0,0.6-0.6,0.6-0.6,0.6h-4.6v5.1h-4.4V131h-2.7h-2.4c0,0-0.6,0-0.6-0.6
		c0-0.6,0.7-1,1.2-1.2c0.4-0.1,1.7-0.4,2.6-0.6v-1.5L1537.4,127.1L1537.4,127.1z"/>
	<polyline class="st9" points="1602.3,104.3 1541.1,104.3 1541.1,110.4 1628,110.4 1628,104.3 1602.3,104.3 	"/>
	<rect x="1621" y="110.5" class="st9" width="6.4" height="3.9"/>
	<rect x="1541.3" y="110.5" class="st9" width="6.4" height="3.9"/>
	<path class="st9" d="M1496.6,67c0-0.4,0.2-0.7,0.4-1c0.2-0.2,0.6-0.4,1-0.4c0.8,0,1.4,0.6,1.4,1.4c0,0.8-0.6,1.4-1.4,1.4
		S1496.6,67.8,1496.6,67z"/>
	<path class="st9" d="M1498.2,68.1l51.4,36.2c0,0,3.6,0,3.5,0s-53.5-37.7-53.5-37.7l1.8-2.5l-1.8-2.8l-2.7,4.9"/>
	<polyline class="st9" points="1499.6,61.2 1504.9,52.5 1507,53.3 1501.5,64.1 	"/>
	<circle class="st9" cx="1507" cy="51.6" r="1.7"/>
	<circle class="st9" cx="1514.4" cy="54.3" r="2.2"/>
	<line class="st9" x1="1516.3" y1="53.2" x2="1508.1" y2="50.3"/>
	<line class="st9" x1="1512.8" y1="55.8" x2="1505.5" y2="52.5"/>
	<polyline class="st9" points="1513.2,52 1559.6,32.7 1558.2,29.3 1507,49.8 	"/>
	<line class="st9" x1="1592.8" y1="98.8" x2="1514.4" y2="56.5"/>
	<rect x="1574.5" y="98.6" class="st9" width="23.5" height="5.8"/>
	<line class="st9" x1="1628" y1="120.6" x2="1620.4" y2="120.6"/>
	<line class="st9" x1="1628" y1="123" x2="1620.4" y2="123"/>
	<line class="st9" x1="1628" y1="124.8" x2="1620.4" y2="124.8"/>
	<line class="st9" x1="1628" y1="127.2" x2="1620.4" y2="127.2"/>
	<line class="st9" x1="1628" y1="128.8" x2="1620.4" y2="128.8"/>
	<line class="st9" x1="1548.3" y1="120.6" x2="1540.6" y2="120.6"/>
	<line class="st9" x1="1548.3" y1="123" x2="1540.6" y2="123"/>
	<line class="st9" x1="1548.3" y1="124.8" x2="1540.6" y2="124.8"/>
	<line class="st9" x1="1548.3" y1="127.2" x2="1540.6" y2="127.2"/>
	<line class="st9" x1="1548.3" y1="128.8" x2="1540.6" y2="128.8"/>
	<line class="st9" x1="1516" y1="52.7" x2="1604.3" y2="99.5"/>
	<path class="st9" d="M1609.8,17.9l-90.5,36.5l2.8,1.2c0,0,87.8-34.5,87.8-34.6C1609.8,20.8,1609.8,17.9,1609.8,17.9z"/>
	<circle class="st9" cx="1602.3" cy="101.6" r="2.9"/>
</g>
</svg>
