<?xml version="1.0" encoding="utf-8"?>
<!-- Generator: Adobe Illustrator 22.0.1, SVG Export Plug-In . SVG Version: 6.00 Build 0)  -->
<svg version="1.1" id="Layer_1" xmlns="http://www.w3.org/2000/svg" xmlns:xlink="http://www.w3.org/1999/xlink" x="0px" y="0px"
	 viewBox="0 0 1818.1 440" style="enable-background:new 0 0 1818.1 440;" xml:space="preserve">
<metadata><?xpacket begin="﻿" id="W5M0MpCehiHzreSzNTczkc9d"?>
<x:xmpmeta xmlns:x="adobe:ns:meta/" x:xmptk="Adobe XMP Core 5.6-c143 79.161210, 2017/08/11-10:28:36        ">
   <rdf:RDF xmlns:rdf="http://www.w3.org/1999/02/22-rdf-syntax-ns#">
      <rdf:Description rdf:about=""/>
   </rdf:RDF>
</x:xmpmeta>
                                                                                                    
                                                                                                    
                                                                                                    
                                                                                                    
                                                                                                    
                                                                                                    
                                                                                                    
                                                                                                    
                                                                                                    
                                                                                                    
                                                                                                    
                                                                                                    
                                                                                                    
                                                                                                    
                                                                                                    
                                                                                                    
                                                                                                    
                                                                                                    
                                                                                                    
                                                                                                    
                           
<?xpacket end="w"?></metadata>
<style type="text/css">
	.st0{fill:#B1B3B3;}
	.st1{fill:#212322;}
	.st2{fill:#FFBF3F;}
	.st3{fill:#444445;}
	.st4{fill:none;}
	.st5{fill:#DA291C;}
	.st6{fill:#30302F;}
	.st7{fill:#FA4616;}
	.st8{fill:#878787;}
	.st9{fill:none;stroke:#000000;stroke-width:2;stroke-miterlimit:10;}
	.st10{display:none;fill:none;stroke:#000000;stroke-width:2;stroke-miterlimit:10;}
	.st11{fill:none;stroke:#000000;stroke-width:2;stroke-linecap:round;stroke-linejoin:round;stroke-miterlimit:10;}
	.st12{display:none;}
</style>
<g id="WLAB2__x28_Sovevogn_x29_">
	<g id="Mål_17_">
	</g>
	<g id="Farger_17_">
		<g id="Grunnfarge_13_">
		</g>
		<g id="Profilering_17_">
		</g>
		<g id="Dører_og_vinduer_15_">
		</g>
	</g>
	<g id="Omriss_17_">
	</g>
</g>
<g id="Type_5">
	<g id="Mål_16_">
	</g>
	<g id="Farger_16_">
		<g id="Grunnfarge_12_">
		</g>
		<g id="Profilering_16_">
		</g>
		<g id="Dører_og_vinduer_14_">
		</g>
	</g>
	<g id="Omriss_16_">
	</g>
</g>
<g id="Type_7">
	<g id="Mål_15_">
	</g>
	<g id="Farger_15_">
		<g id="Grunnfarge_11_">
		</g>
		<g id="Profilering_15_">
		</g>
		<g id="Dører_og_vinduer_13_">
		</g>
	</g>
	<g id="Omriss_15_">
	</g>
</g>
<g id="El_18">
	<g id="Mål_14_">
	</g>
	<g id="Farger_14_">
		<g id="Grunnfarge_10_">
		</g>
		<g id="Profilering_14_">
		</g>
		<g id="Dører_og_vinduer_12_">
		</g>
	</g>
	<g id="Omriss_14_">
	</g>
</g>
<g id="Di4">
	<g id="Mål_13_">
	</g>
	<g id="Farger_13_">
		<g id="Grunnfarge_9_">
		</g>
		<g id="Profilering_13_">
		</g>
		<g id="Dører_og_vinduer_og_stiger">
		</g>
	</g>
	<g id="Omriss_13_">
	</g>
</g>
<g id="Type_93">
	<g id="Mål_12_">
	</g>
	<g id="Farger_12_">
		<g id="Grunnfarge_8_">
		</g>
		<g id="Profilering_12_">
		</g>
		<g id="Dører_og_vinduer_11_">
		</g>
	</g>
	<g id="Omriss_12_">
	</g>
</g>
<g id="Type_92">
	<g id="Mål_11_">
	</g>
	<g id="Farger_11_">
		<g id="Grunnfarge_7_">
		</g>
		<g id="Profilering_11_">
		</g>
		<g id="Dører_og_vinduer_10_">
		</g>
	</g>
	<g id="Omriss_11_">
	</g>
</g>
<g id="Type_75_1_">
	<g id="Mål_10_">
	</g>
	<g id="Farger_10_">
		<g id="Grunnfarge_6_">
		</g>
		<g id="Profilering_10_">
		</g>
		<g id="Dører_og_vinduer_9_">
		</g>
	</g>
	<g id="Omriss_10_">
	</g>
</g>
<g id="Type_74">
	<g id="Mål_9_">
	</g>
	<g id="Farger_9_">
		<g id="Grunnfarge_5_">
		</g>
		<g id="Profilering_9_">
		</g>
		<g id="Dører_og_vinduer_8_">
		</g>
	</g>
	<g id="Omriss_9_">
	</g>
</g>
<g id="Type_73_B">
	<g id="Mål_8_">
	</g>
	<g id="Farger_8_">
		<g id="Grunnfarge_4_">
		</g>
		<g id="Profilering_8_">
		</g>
		<g id="Dører_og_vinduer_7_">
		</g>
	</g>
	<g id="Omriss_8_">
	</g>
</g>
<g id="Type_73_A">
	<g id="Mål_7_">
	</g>
	<g id="Farger_7_">
		<g id="Grunnfarge_3_">
		</g>
		<g id="Profilering_7_">
		</g>
		<g id="Dører_og_vinduer_6_">
		</g>
	</g>
	<g id="Omriss_7_">
	</g>
</g>
<g id="Type_72">
	<g id="Mål_6_">
	</g>
	<g id="Farger_6_">
		<g id="Grunnfarge">
		</g>
		<g id="Profilering">
		</g>
		<g id="Dører_og_vinduer">
		</g>
	</g>
	<g id="Omriss_6_">
	</g>
</g>
<g id="Type_70">
	<g id="Mål_5_">
	</g>
	<g id="Farger_5_">
		<g id="Grunnfarge_2_">
		</g>
		<g id="Profilering_6_">
		</g>
		<g id="Dører_og_vinduer_5_">
		</g>
	</g>
	<g id="Omriss_5_">
	</g>
</g>
<g id="Type_69_H">
	<g id="Mål_4_">
	</g>
	<g id="Farger_4_">
		<g id="grunnfarger">
		</g>
		<g id="Profilering_5_">
		</g>
		<g id="Dører_og_vinduer_4_">
		</g>
	</g>
	<g id="Omriss_4_">
	</g>
</g>
<g id="Type_69_G">
	<g id="Mål_3_">
	</g>
	<g id="Farger_3_">
		<g id="Grunnfarger_1_">
		</g>
		<g id="Profilering_4_">
		</g>
		<g id="dører_og_vinduer">
		</g>
	</g>
	<g id="Omriss_3_">
	</g>
</g>
<g id="Type_69_D">
	<g id="Mål_2_">
	</g>
	<g id="Farger_2_">
		<g id="Grunnfarger">
		</g>
		<g id="Profilering_3_">
		</g>
		<g id="Dører_og_vinduer_3_">
		</g>
	</g>
	<g id="Omriss_2_">
	</g>
</g>
<g id="Type_69_CII">
	<g id="Mål_1_">
	</g>
	<g id="Farger_1_">
		<g id="Gunnfarge">
			<path class="st0" d="M1810.4,136.1H902.7V94.8H793.3v41.3H178.2v-0.6c0-6.7-4.7-12.1-12.1-12.1h-9.3l0,0V119h-30.7v11.4H88.9
				c-1.9,0-3.5,1.6-3.5,3.5v31.8c0,1.9,1.6,3.5,3.5,3.5h2.9c-2.7,4.2-5.2,8.8-7.4,14.1c-0.2,0.4-0.3,0.8-0.4,1.2l-18.2,78
				c-0.2,0.9-0.3,1.9-0.3,2.8v84.8c0,4,3.2,7.2,7.2,7.2h390.6l36.7,20h153.2l36.7-20h532.7l36.6,20h153.2l36.4-20h361.6
				c4,0,7.2-3.2,7.2-7.2V143.4C1817.6,139.4,1814.4,136.1,1810.4,136.1z M156.8,136.4v-2.5v-1.6v-1.9h8.2c3,0,4.5,1.2,4.9,3.2v2.6
				C166.7,136.2,162.1,136.1,156.8,136.4z"/>
			<g>
				<path class="st1" d="M425.7,361.4L380,357l0,0h-55.2H294h-90.3l0,0l-27.7,2.7L164.9,384l4.6,6.2v0.3v6.4h4.5
					c6.2,9.9,17.2,16.6,29.7,16.6s23.6-6.6,29.7-16.6h4.3v-6.4l15.6-21.5h4.4v10h-8.6v7.6h84.3V379h-8.6v-10l0,0h4.3l15.6,21.6l0,0
					v6.3h4.5c6.2,9.9,17.2,16.6,29.7,16.6c12.6,0,23.6-6.6,29.7-16.6h4.3v-6.4l12.8-17.8V361.4z"/>
				<rect x="314.9" y="407" class="st1" width="0.1" height="0.1"/>
			</g>
			<path class="st2" d="M75.9,356.9c4.1,3.7,7.1,7.1,9.4,10.2H81c0,3.4,0,12.2,0,12.2c0,0.5,9.5-0.2,9.5,0.2
				c0.1,11.9-15.7,16.1-15.7,16.1h82.6l18.6-29V357L75.9,356.9L75.9,356.9z"/>
			<rect x="695.9" y="356.2" class="st1" width="46.7" height="31.6"/>
			<rect x="797.1" y="356.2" class="st1" width="81" height="33.6"/>
			<rect x="1133.9" y="356.2" class="st1" width="72.1" height="27.2"/>
			<rect x="928.1" y="356.2" class="st1" width="205.4" height="33.6"/>
			<polyline class="st1" points="743.2,356.3 762.9,356.3 762.9,372.8 743.2,372.8 			"/>
			<polygon class="st1" points="1236.5,363.6 1236.5,386.8 1266.8,386.8 1266.8,376.1 1257.9,376.1 			"/>
			<g>
				<path class="st1" d="M1754.6,361.4l-45.7-4.4l0,0h-55.2h-30.8h-90.3l0,0l-47,4.6v11.2l12.9,17.2v0.3v6.4h4.5
					c6.2,9.9,17.2,16.6,29.7,16.6s23.6-6.6,29.7-16.6h4.3v-6.4l15.6-21.5h4.4v10h-8.6v7.6h84.3v-7.6h-8.6v-10l0,0h4.3l15.6,21.6l0,0
					v6.3h4.5c6.2,9.9,17.2,16.6,29.7,16.6c12.6,0,23.6-6.6,29.7-16.6h4.3v-6.4l12.8-17.8v-11.1H1754.6z"/>
				<rect x="1643" y="407" class="st1" width="0.1" height="0.1"/>
			</g>
			<path class="st3" d="M1709.7,131.2v-6.5c1.1,0,2.7,0,2.7-0.2c0-0.4-0.5-0.5-0.8-0.6c-0.2-0.1-1.5-0.2-1.5-0.2
				c-0.5-0.2-0.5-0.6-0.5-0.6v-1.7l0,0c1.2,0,2.8,0,2.8-0.2c0-0.4-0.5-0.5-0.8-0.6c-0.2-0.1-1.5-0.2-1.5-0.2
				c-0.5-0.2-0.5-0.6-0.5-0.6V118c1.2,0,2.8,0,2.8-0.2c0-0.4-0.5-0.5-0.8-0.6c-0.2-0.1-1.5-0.2-1.5-0.2c-0.5-0.2-0.5-0.6-0.5-0.6
				v-1.7l0,0c1.2,0,2.8,0,2.8-0.2c0-0.4-0.5-0.5-0.8-0.6c-0.2-0.1-1.5-0.2-1.5-0.2c-0.5-0.2-0.5-0.6-0.5-0.6v-1.7l0,0
				c1.2,0,2.8,0,2.8-0.2c0-0.4-0.5-0.5-0.8-0.6c-0.2-0.1-1.5-0.2-1.5-0.2c-0.5-0.2-0.5-0.6-0.5-0.6v-1.7l0,0c1.2,0,2.8,0,2.8-0.2
				c0-0.4-0.5-0.5-0.8-0.6c-0.2-0.1-1.5-0.2-1.5-0.2c-0.5-0.2-0.5-0.6-0.5-0.6v-1.7c1.1,0,2.8,0,2.8-0.2c0-0.4-0.5-0.5-0.8-0.6
				c-0.2-0.1-3.2-0.2-3.2-0.2c-0.5-0.2-0.5-0.6-0.5-0.6v-2.7c0,0,0-1-1.4-1s-6.2,0-7.6,0s-1.4,1-1.4,1v2.7c0,0,0.1,0.4-0.5,0.6
				c0,0-3,0.2-3.2,0.2c-0.3,0.1-0.8,0.2-0.8,0.6c0,0.2,1.7,0.2,2.8,0.2v1.7c0,0,0.1,0.5-0.5,0.6c0,0-1.3,0.2-1.5,0.2
				c-0.3,0.1-0.8,0.2-0.8,0.6c0,0.2,2.8,0.2,2.8,0.2v1.7c0,0,0.1,0.5-0.5,0.6c0,0-1.3,0.2-1.5,0.2c-0.3,0.1-0.8,0.2-0.8,0.6
				c0,0.2,1.6,0.2,2.8,0.2v1.7c0,0,0.1,0.5-0.5,0.6c0,0-1.3,0.2-1.5,0.2c-0.3,0.1-0.8,0.2-0.8,0.6c0,0.2,1.6,0.2,2.8,0.2v1.7
				c0,0,0.1,0.5-0.5,0.6c0,0-1.3,0.2-1.5,0.2c-0.3,0.1-0.8,0.2-0.8,0.6c0,0.2,1.6,0.2,2.8,0.2v1.7c0,0,0.1,0.5-0.5,0.6
				c0,0-1.3,0.2-1.5,0.2c-0.3,0.1-0.8,0.2-0.8,0.6c0,0.2,1.6,0.2,2.8,0.2l0,0v1.7c0,0,0.1,0.5-0.5,0.6c0,0-1.3,0.2-1.5,0.2
				c-0.3,0.1-0.8,0.2-0.8,0.6c0,0.2,1.6,0.2,2.7,0.2v6.5h-4.6v3.8l22.9,0.2v-3.9L1709.7,131.2L1709.7,131.2z"/>
			<rect x="1747.2" y="110.4" class="st3" width="7" height="24.3"/>
			<circle class="st3" cx="1741.8" cy="106.6" r="3.6"/>
			<polyline class="st3" points="1742.3,103.1 1761.3,103.1 1761.3,110.2 1742,110.2 			"/>
			<polygon class="st1" points="772.4,135.6 772.4,110 412.5,110 401.7,135.6 			"/>
			<polygon class="st1" points="1471.7,135.8 1428,110.2 911.8,110.2 911.8,135.8 			"/>
			<rect x="188.8" y="110.2" class="st1" width="190.1" height="25.6"/>
			<rect x="811.1" y="94.9" class="st1" width="73" height="22.2"/>
			<path class="st1" d="M505.8,104.2V89.7h-2.6c0,0-0.6,1.9-1.7,2.6c-1,0.8-7.4,2.5-12.3-3.6v13.6c0,0,1.8-4.9,9.9-5v6.7h-2.9v5.5
				h10.9V104h-1.3V104.2z"/>
			<line class="st4" x1="1649.7" y1="125.1" x2="1641.7" y2="125.1"/>
			<polygon class="st1" points="27.2,310.3 58.1,310.3 44.3,301.3 32.1,301.3 			"/>
			<polygon class="st1" points="64.6,347.1 29.2,347.1 29.2,322.8 64.7,322.8 			"/>
			<path class="st3" d="M1519.3,66.4l1,1.4l2.1-0.2L1530,53l10.4,4.7l74.4,40.3l-17.1,0.1v5.4l-33.5,0.4l0.1,10h-0.6l-0.2,6.2
				l-2.9,0.8l-0.1,1.5l3.7,0.3l-0.2,1.5l-3.6,1l0.1,1.4h2.7l-0.1,1.5l-2.7,1l0.1,1.4l4.7,0.1l0.2,5h4.8l-0.2-5.2h4.9l-0.1-1
				l-3.4-1.8l0.1-1l3.1-0.1l-0.2-1.2l-3-1.4v-1.5l3.1-0.1l0.2-1.1l-3.5-1.5l0.2-6.4l-0.8-0.2l0.2-3.5l73.3,0.1v3.9l-0.9,0.2l0.3,6.2
				l-3.1,1.7l2.8,1v1.2c0,0-2.6,1.8-3.1,1.9s3.1,1.1,3.1,1.1l-3.4,2.6l0.7,0.9l4.5,0.1l0.1,5l4.8,0.1v-5.1h4.7c0,0,0.2-1.8,0-1.8
				s-3.7-1.5-3.7-1.5v-0.8h4V125l-4.4-1.4v-1.3h4.4v-1.5l-3.7-1.1v-6.2h-0.6V110h0.5v-6.1h-24l1.4-2.8l-1.9-2.8l-81.2-42.7
				l89.3-35.8v-6.2l17.7-0.6v-1.8h-37.5l0.6,2.3h10.4l-43.8,16.2l-0.6-0.9l-53,21.2l-0.3,2L1519.3,66.4z M1537.6,51.1l45.1-18.4
				l-0.7-1.2l43.6-17.5h8v3.1L1543.4,54L1537.6,51.1z"/>
		</g>
		<g id="Profilering_2_">
			<path id="rødt_nederst_1_" class="st5" d="M1817.4,266.8v82.9c0,3.8-3.2,6.9-7.2,6.9h-361.6l-36.4,19.1H1259l-36.6-19.2l0,0
				H689.6L653,375.8H499.7L463,356.8H72.4c-4,0-7.2-3.1-7.2-6.9v-55.1c12.8,0,63.9-0.2,65.8-0.3c1.7-0.1,9.1-10.6,25.5-27.6
				L1817.4,266.8L1817.4,266.8z"/>
			<polyline id="sort_bak_vinduer_1_" class="st6" points="156.8,268.3 230.5,186.5 1817.7,186.5 1817.7,268.3 156.8,268.3 			"/>
			<path class="st5" d="M1817.2,169.2H1674l-15.3-15.2l-1554.4,0.2l-9.2,9.6c-0.8,0.9-6,8.6-6.5,9.6l-5.5,13h147.4h1587.2"/>
			<g>
				<polygon class="st0" points="1817.7,309.5 1562,309.5 1561.5,308.9 1439.7,170.8 249.1,170.8 119.2,309.4 65.6,309.5 
					65.6,306.1 117.7,306 247.6,167.4 1441.2,167.4 1563.5,306.1 1817.7,306.1 				"/>
			</g>
			<g>
				<rect x="64.7" y="292.5" class="st0" width="1751.9" height="6.7"/>
			</g>
		</g>
		<g id="Dører_og_vinduer_2_">
			<path class="st7" d="M1377.4,357h-84.8c-4.6,0-8.4-3.7-8.4-8.4V144.9h101.5v203.8C1385.8,353.3,1382,357,1377.4,357z"/>
			<path class="st7" d="M619.3,357H532c-3.9,0-7.1-3.2-7.1-7.1v-205h101.5v204.9C626.4,353.8,623.2,357,619.3,357z"/>
			<path class="st8" d="M1162.9,264.5h-71.2c-4.4,0-8-3.6-8-8v-49.7c0-4.4,3.6-8,8-8h71.2c4.4,0,8,3.6,8,8v49.7
				C1170.9,260.9,1167.3,264.5,1162.9,264.5z"/>
			<path class="st8" d="M1029.3,264.5h-71.2c-4.4,0-8-3.6-8-8v-49.7c0-4.4,3.6-8,8-8h71.2c4.4,0,8,3.6,8,8v49.7
				C1037.3,260.9,1033.7,264.5,1029.3,264.5z"/>
			<path class="st8" d="M896,264.5h-71.2c-4.4,0-8-3.6-8-8v-49.7c0-4.4,3.6-8,8-8H896c4.4,0,8,3.6,8,8v49.7
				C904,260.9,900.4,264.5,896,264.5z"/>
			<path class="st8" d="M761.9,264.5h-71.2c-4.4,0-8-3.6-8-8v-49.7c0-4.4,3.6-8,8-8h71.2c4.4,0,8,3.6,8,8v49.7
				C769.9,260.9,766.4,264.5,761.9,264.5z"/>
			<path class="st8" d="M460.6,264.5h-71.2c-4.4,0-8-3.6-8-8v-49.7c0-4.4,3.6-8,8-8h71.2c4.4,0,8,3.6,8,8v49.7
				C468.6,260.9,465,264.5,460.6,264.5z"/>
			<path class="st8" d="M303.6,264.5h-71.2c-4.4,0-8-3.6-8-8v-49.7c0-4.4,3.6-8,8-8h71.2c4.4,0,8,3.6,8,8v49.7
				C311.6,260.9,308.1,264.5,303.6,264.5z"/>
			<path class="st8" d="M169.5,252.1h-17.6c-5.8,0-10.5-4.5-10.8-10.2c0-0.4,0-0.8,0.1-1.2l6-28.3c1.2-6.4,4.8-10.8,10.8-10.8h11.5
				c6,0,10.8,4.8,10.8,10.8v28.9C180.3,247.2,175.5,252.1,169.5,252.1z"/>
			<path class="st0" d="M120.7,249.2h-12.9c-3.8,0-8.2-4.1-7-9.1l6.9-30c1-5.8,4-9.1,11.2-9.1h12.9c3.6,0,8.2,4.1,7,9.1l-6.9,30
				C130.6,246.3,127.1,249.2,120.7,249.2z"/>
			<path class="st8" d="M1366.6,273.6h-16c-2.9,0-5.2-2.3-5.2-5.2v-49c0-2.9,2.3-5.2,5.2-5.2h16c2.9,0,5.2,2.3,5.2,5.2v49
				C1371.8,271.3,1369.5,273.6,1366.6,273.6z"/>
			<path class="st8" d="M1319.4,273.6h-16c-2.9,0-5.2-2.3-5.2-5.2v-49c0-2.9,2.3-5.2,5.2-5.2h16c2.9,0,5.2,2.3,5.2,5.2v49
				C1324.6,271.3,1322.3,273.6,1319.4,273.6z"/>
			<path class="st8" d="M607.3,273.6h-16c-2.9,0-5.2-2.3-5.2-5.2v-49c0-2.9,2.3-5.2,5.2-5.2h16c2.9,0,5.2,2.3,5.2,5.2v49
				C612.5,271.3,610.2,273.6,607.3,273.6z"/>
			<path class="st8" d="M560.2,273.6h-16c-2.9,0-5.2-2.3-5.2-5.2v-49c0-2.9,2.3-5.2,5.2-5.2h16c2.9,0,5.2,2.3,5.2,5.2v49
				C565.3,271.3,563,273.6,560.2,273.6z"/>
			<path class="st8" d="M1691.7,264.5h-71.2c-4.4,0-8-3.6-8-8v-49.7c0-4.4,3.6-8,8-8h71.2c4.4,0,8,3.6,8,8v49.7
				C1699.7,260.9,1696.1,264.5,1691.7,264.5z"/>
			<path class="st8" d="M1534.9,264.5h-71.2c-4.4,0-8-3.6-8-8v-49.7c0-4.4,3.6-8,8-8h71.2c4.4,0,8,3.6,8,8v49.7
				C1542.9,260.9,1539.3,264.5,1534.9,264.5z"/>
		</g>
	</g>
	<g id="Omriss_1_">
		<path class="st9" d="M1677.6,397c6.2,9.9,17.2,16.6,29.7,16.6s23.6-6.6,29.7-16.6"/>
		<polyline class="st9" points="1733.5,390.5 1741.3,390.5 1741.3,397 1684.4,397 1673.1,397 1673.1,390.5 1681.2,390.5 		"/>
		<path class="st9" d="M1730.8,380c-0.2,3.8-1.2,7.4-3,10.6"/>
		<path class="st9" d="M1686.9,390.5c-1.8-3.1-2.9-6.7-3-10.6"/>
		<path class="st9" d="M1692.2,397c4.1,3.5,9.4,5.6,15.2,5.6c5.8,0,11.1-2.1,15.2-5.6"/>
		<circle class="st9" cx="1707.4" cy="379" r="7.7"/>
		<path class="st9" d="M1729.6,367.5h-44.5c-2.2,0-3.9,1.8-3.9,3.9v19.1h52.4v-19.1C1733.5,369.2,1731.8,367.5,1729.6,367.5z"/>
		<polyline class="st9" points="1733.5,380 1730.8,380 1726.8,380 1720.2,383.1 1720.1,383.2 		"/>
		<polyline class="st9" points="1681.2,380 1683.9,380 1687.7,380 1694.5,383.2 		"/>
		<path class="st10" d="M1555.1,397c-5.3,6.9-13.6,11.3-22.9,11.3s-17.6-4.4-22.9-11.3"/>
		<path class="st9" d="M1502.4,397c6.2,9.9,17.2,16.6,29.7,16.6s23.6-6.6,29.7-16.6"/>
		<polyline class="st9" points="1558.3,390.5 1566.1,390.5 1566.1,397 1509.2,397 1497.9,397 1497.9,390.5 1506,390.5 		"/>
		<path class="st9" d="M1555.6,380c-0.2,3.8-1.2,7.4-3,10.6"/>
		<path class="st9" d="M1511.7,390.5c-1.8-3.1-2.9-6.7-3-10.6"/>
		<path class="st9" d="M1516.9,397c4.1,3.5,9.4,5.6,15.2,5.6c5.8,0,11.1-2.1,15.2-5.6"/>
		<circle class="st9" cx="1532.2" cy="379" r="7.7"/>
		<path class="st9" d="M1554.4,367.5h-44.5c-2.2,0-3.9,1.8-3.9,3.9v19.1h52.4v-19.1C1558.3,369.2,1556.6,367.5,1554.4,367.5z"/>
		<polyline class="st9" points="1558.3,380 1555.6,380 1551.6,380 1551.6,380 1545,383.1 1544.9,383.2 		"/>
		<polyline class="st9" points="1506,380 1508.7,380 1512.5,380 1519.3,383.2 		"/>
		<path class="st9" d="M348.9,397c6.2,9.9,17.2,16.6,29.7,16.6c12.6,0,23.6-6.6,29.7-16.6"/>
		<polygon class="st9" points="355.7,397 344.4,397 344.4,390.5 412.6,390.5 412.6,397 		"/>
		<path class="st9" d="M402.1,380c-0.2,3.8-1.2,7.4-3,10.6"/>
		<path class="st9" d="M358.2,390.5c-1.8-3.1-2.9-6.7-3-10.6"/>
		<path class="st9" d="M363.4,397c4.1,3.5,9.4,5.6,15.2,5.6c5.8,0,11.1-2.1,15.2-5.6"/>
		<circle class="st9" cx="378.7" cy="379" r="7.7"/>
		<path class="st9" d="M404.8,390.5v-19.1c0-2.2-1.8-3.9-3.9-3.9h-44.5c-2.2,0-3.9,1.8-3.9,3.9v19.1"/>
		<polyline class="st9" points="404.8,380 402.1,380 398.1,380 391.5,383.1 391.4,383.2 		"/>
		<polyline class="st9" points="352.5,380 355.2,380 359,380 365.8,383.2 		"/>
		<path class="st10" d="M226.4,397c-5.3,6.9-13.6,11.3-22.9,11.3s-17.6-4.4-22.9-11.3"/>
		<path class="st9" d="M173.7,397c6.2,9.9,17.2,16.6,29.7,16.6S227,407,233.1,397"/>
		<polyline class="st9" points="229.6,390.5 237.4,390.5 237.4,397 180.5,397 169.2,397 169.2,390.5 177.3,390.5 		"/>
		<path class="st9" d="M226.9,380c-0.2,3.8-1.2,7.4-3,10.6"/>
		<path class="st9" d="M183,390.5c-1.8-3.1-2.9-6.7-3-10.6"/>
		<path class="st9" d="M188.2,397c4.1,3.5,9.4,5.6,15.2,5.6s11.1-2.1,15.2-5.6"/>
		<circle class="st9" cx="203.4" cy="379" r="7.7"/>
		<path class="st9" d="M225.7,367.5h-44.5c-2.2,0-3.9,1.8-3.9,3.9v19.1h52.4v-19.1C229.6,369.2,227.9,367.5,225.7,367.5z"/>
		<polyline class="st9" points="229.6,380 226.9,380 222.9,380 222.9,380 216.3,383.1 216.2,383.2 		"/>
		<polyline class="st9" points="177.3,380 180,380 183.8,380 190.6,383.2 		"/>
		<polyline class="st9" points="1741.3,390.5 1754.2,372.8 1754.2,361.6 1708.4,357.2 		"/>
		<polyline class="st9" points="1497.9,390.5 1485.3,373 1485.3,361.8 1532.1,357.2 		"/>
		<polyline class="st9" points="1566.1,390.5 1581.8,369 1586.2,369 		"/>
		<polyline class="st9" points="1673.1,390.5 1657.5,369 1653.3,369 		"/>
		<rect x="1577.6" y="379" class="st9" width="84.3" height="7.6"/>
		<line class="st9" x1="1586.2" y1="357.2" x2="1586.2" y2="379.1"/>
		<line class="st9" x1="1617" y1="357.2" x2="1617" y2="379.1"/>
		<line class="st9" x1="1622.4" y1="357.2" x2="1622.4" y2="379.1"/>
		<line class="st9" x1="1653.3" y1="357.2" x2="1653.3" y2="379"/>
		<polyline class="st9" points="412.6,390.5 425.5,372.8 425.5,361.6 379.7,357.2 		"/>
		<line class="st9" x1="203.4" y1="357.2" x2="175.7" y2="359.8"/>
		<line class="st9" x1="169.2" y1="390.5" x2="164.6" y2="384"/>
		<polyline class="st9" points="237.4,390.5 253.1,369 257.5,369 		"/>
		<polyline class="st9" points="344.4,390.5 328.8,369 324.6,369 		"/>
		<rect x="248.9" y="379" class="st9" width="84.3" height="7.6"/>
		<line class="st9" x1="257.5" y1="357.2" x2="257.5" y2="379.1"/>
		<line class="st9" x1="288.3" y1="357.2" x2="288.3" y2="379.1"/>
		<line class="st9" x1="293.7" y1="357.2" x2="293.7" y2="379.1"/>
		<line class="st9" x1="324.6" y1="357.2" x2="324.6" y2="379"/>
		<path class="st9" d="M1221.8,357.1H689.1l-36.7,20H499.2l-36.7-20H71.9c-4,0-7.2-3.2-7.2-7.2V265c0-0.9,0.1-1.9,0.3-2.8l18.2-78
			c0.1-0.4,0.2-0.8,0.4-1.2c20.4-49.7,69.2-47,85.9-47.2h1640.2c4,0,7.2,3.2,7.2,7.2v206.8c0,4-3.2,7.2-7.2,7.2H1448l-36.4,20
			h-153.2L1221.8,357.1L1221.8,357.1z"/>
		<path class="st9" d="M103.5,186.9c0,0-18.3,77.5-18.3,77.8c0,0.2,0.2,2.5,2.7,2.6"/>
		<path class="st9" d="M1691.7,264.6h-71.2c-4.4,0-8-3.6-8-8v-49.7c0-4.4,3.6-8,8-8h71.2c4.4,0,8,3.6,8,8v49.7
			C1699.7,261.1,1696.1,264.6,1691.7,264.6z"/>
		<path class="st9" d="M1534.9,264.6h-71.2c-4.4,0-8-3.6-8-8v-49.7c0-4.4,3.6-8,8-8h71.2c4.4,0,8,3.6,8,8v49.7
			C1542.9,261.1,1539.3,264.6,1534.9,264.6z"/>
		<path class="st9" d="M1162.9,264.6h-71.2c-4.4,0-8-3.6-8-8v-49.7c0-4.4,3.6-8,8-8h71.2c4.4,0,8,3.6,8,8v49.7
			C1170.9,261.1,1167.3,264.6,1162.9,264.6z"/>
		<path class="st9" d="M1029.3,264.6h-71.2c-4.4,0-8-3.6-8-8v-49.7c0-4.4,3.6-8,8-8h71.2c4.4,0,8,3.6,8,8v49.7
			C1037.3,261.1,1033.7,264.6,1029.3,264.6z"/>
		<path class="st9" d="M896,264.6h-71.2c-4.4,0-8-3.6-8-8v-49.7c0-4.4,3.6-8,8-8H896c4.4,0,8,3.6,8,8v49.7
			C904,261.1,900.4,264.6,896,264.6z"/>
		<path class="st9" d="M761.9,264.6h-71.2c-4.4,0-8-3.6-8-8v-49.7c0-4.4,3.6-8,8-8h71.2c4.4,0,8,3.6,8,8v49.7
			C769.9,261.1,766.4,264.6,761.9,264.6z"/>
		<path class="st9" d="M460.6,264.6h-71.2c-4.4,0-8-3.6-8-8v-49.7c0-4.4,3.6-8,8-8h71.2c4.4,0,8,3.6,8,8v49.7
			C468.6,261.1,465,264.6,460.6,264.6z"/>
		<path class="st9" d="M303.6,264.6h-71.2c-4.4,0-8-3.6-8-8v-49.7c0-4.4,3.6-8,8-8h71.2c4.4,0,8,3.6,8,8v49.7
			C311.6,261.1,308.1,264.6,303.6,264.6z"/>
		<path class="st9" d="M169.5,252.2h-17.6c-5.8,0-10.5-4.5-10.8-10.2c0-0.4,0-0.8,0.1-1.2l6-28.3c1.2-6.4,4.8-10.8,10.8-10.8h11.5
			c6,0,10.8,4.8,10.8,10.8v28.9C180.3,247.4,175.5,252.2,169.5,252.2z"/>
		<path class="st9" d="M120.7,249.3h-12.9c-3.8,0-8.2-4.1-7-9.1l6.9-30c1-5.8,4-9.1,11.2-9.1h12.9c3.6,0,8.2,4.1,7,9.1l-6.9,30
			C130.6,246.5,127.1,249.3,120.7,249.3z"/>
		<path class="st9" d="M1378.5,357.2h-86.9c-4,0-7.3-3.3-7.3-7.3V202c0-4,3.3-7.3,7.3-7.3h86.9c4,0,7.3,3.3,7.3,7.3v148
			C1385.8,353.9,1382.5,357.2,1378.5,357.2z"/>
		<line class="st9" x1="1335" y1="194.5" x2="1335" y2="357.1"/>
		<path class="st9" d="M619.2,357.2h-86.9c-4,0-7.3-3.3-7.3-7.3V202c0-4,3.3-7.3,7.3-7.3h86.9c4,0,7.3,3.3,7.3,7.3v148
			C626.5,353.9,623.2,357.2,619.2,357.2z"/>
		<line class="st9" x1="575.7" y1="194.5" x2="575.7" y2="357.1"/>
		<path class="st9" d="M1365.9,273.8h-14.5c-3.3,0-5.9-2.7-5.9-5.9v-47.4c0-3.3,2.7-5.9,5.9-5.9h14.5c3.3,0,5.9,2.7,5.9,5.9v47.4
			C1371.8,271.1,1369.1,273.8,1365.9,273.8z"/>
		<path class="st9" d="M1318.7,273.8h-14.5c-3.3,0-5.9-2.7-5.9-5.9v-47.4c0-3.3,2.7-5.9,5.9-5.9h14.5c3.3,0,5.9,2.7,5.9,5.9v47.4
			C1324.6,271.1,1322,273.8,1318.7,273.8z"/>
		<path class="st9" d="M606.6,273.8h-14.5c-3.3,0-5.9-2.7-5.9-5.9v-47.4c0-3.3,2.7-5.9,5.9-5.9h14.5c3.3,0,5.9,2.7,5.9,5.9v47.4
			C612.5,271.1,609.9,273.8,606.6,273.8z"/>
		<path class="st9" d="M559.4,273.8h-14.5c-3.3,0-5.9-2.7-5.9-5.9v-47.4c0-3.3,2.7-5.9,5.9-5.9h14.5c3.3,0,5.9,2.7,5.9,5.9v47.4
			C565.3,271.1,562.7,273.8,559.4,273.8z"/>
		<polygon class="st9" points="1471.4,135.9 1427.7,110.3 911.6,110.3 911.6,135.9 		"/>
		<line class="st9" x1="1017.2" y1="110.3" x2="1017.2" y2="135.9"/>
		<line class="st9" x1="1118.9" y1="110.3" x2="1118.9" y2="135.9"/>
		<line class="st9" x1="1220.2" y1="110.3" x2="1220.2" y2="135.9"/>
		<line class="st9" x1="1321.8" y1="110.3" x2="1321.8" y2="135.9"/>
		<line class="st9" x1="1423.2" y1="110.3" x2="1423.2" y2="135.9"/>
		<line class="st9" x1="510" y1="110.3" x2="510" y2="135.9"/>
		<line class="st9" x1="412.9" y1="110.3" x2="412.9" y2="135.9"/>
		<line class="st9" x1="611.5" y1="110.3" x2="611.5" y2="135.9"/>
		<line class="st9" x1="712.7" y1="110.3" x2="712.7" y2="135.9"/>
		<polyline class="st9" points="772.9,135.9 772.9,110.3 412.9,110.3 402.2,135.9 		"/>
		<polyline class="st9" points="378.6,135.9 378.6,110.3 188.5,110.3 188.5,135.9 		"/>
		<rect x="792.6" y="95.1" class="st9" width="109.4" height="40.7"/>
		<rect x="810.9" y="95" class="st9" width="73" height="22.2"/>
		<line class="st9" x1="1524.8" y1="146.1" x2="1816.9" y2="146.1"/>
		<line class="st9" x1="1773.5" y1="145" x2="1773.5" y2="136.8"/>
		<line class="st9" x1="1732.7" y1="145" x2="1732.7" y2="136.8"/>
		<line class="st9" x1="1691.5" y1="145" x2="1691.5" y2="136.8"/>
		<line class="st9" x1="1609.1" y1="145" x2="1609.1" y2="136.8"/>
		<line class="st9" x1="1524.8" y1="145" x2="1524.8" y2="136.8"/>
		<line class="st9" x1="787.4" y1="146.1" x2="908.2" y2="146.1"/>
		<line class="st9" x1="800.1" y1="145" x2="800.1" y2="135.9"/>
		<line class="st9" x1="847.4" y1="145" x2="847.4" y2="135.9"/>
		<line class="st9" x1="895" y1="145" x2="895" y2="135.9"/>
		<path class="st9" d="M156.1,123.8h9.1c7.4,0,12.1,5.4,12.1,12.1"/>
		<path class="st9" d="M169.4,135.9c0.2-3.3-1.2-5.2-5.1-5.2h-3.9h-4.3"/>
		<rect x="125.4" y="119.3" class="st9" width="30.7" height="14.7"/>
		<path class="st9" d="M90.6,169.5h-2.5c-1.9,0-3.5-1.6-3.5-3.5v-31.8c0-1.9,1.6-3.5,3.5-3.5h37.3"/>
		<path class="st9" d="M175.7,357.1v9.6l-18.6,29H74.5c0,0,34.6-8.3,1.2-38.7"/>
		<path class="st9" d="M133.6,357.2c9.6,1.1,24,4.2,19.1,19.6c-4.9,15.4-23.1,18.3-25.9,19"/>
		<polyline class="st9" points="140.5,358.2 85.2,367.5 80.7,367.5 80.7,379.8 90.2,379.8 		"/>
		<path class="st9" d="M505.6,104.3V89.8H503c0,0-0.6,1.9-1.7,2.6c-1,0.8-7.4,2.5-12.3-3.6v13.6c0,0,1.8-4.9,9.9-5v6.7"/>
		<rect x="496.1" y="104.5" class="st9" width="10.9" height="5.5"/>
		<line class="st9" x1="1565.8" y1="129.8" x2="1565.8" y2="145.8"/>
		<line class="st9" x1="1569.8" y1="129.8" x2="1569.8" y2="145.9"/>
		<line class="st9" x1="1645.4" y1="135.8" x2="1645.4" y2="146.2"/>
		<line class="st9" x1="1649.9" y1="135.5" x2="1649.9" y2="146.2"/>
		<polyline class="st9" points="1691.1,135.8 1691.1,131.9 1713.9,131.9 1713.9,135.9 		"/>
		<path class="st9" d="M1709.4,105.2v1.7c0,0-0.1,0.5,0.5,0.6c0,0,1.3,0.2,1.5,0.2c0.3,0.1,0.8,0.2,0.8,0.6c0,0.3-3.9,0.2-3.9,0.2
			h-11.4c0,0-3.9,0.1-3.9-0.2c0-0.4,0.5-0.5,0.8-0.6c0.2-0.1,1.5-0.2,1.5-0.2c0.5-0.2,0.5-0.6,0.5-0.6v-1.7"/>
		<path class="st9" d="M1696.8,105.2c0,0-3.8,0.1-3.8-0.2c0-0.4,0.5-0.5,0.8-0.6c0.2-0.1,3.2-0.2,3.2-0.2c0.5-0.2,0.5-0.6,0.5-0.6
			v-2.7c0,0,0-1,1.4-1s6.2,0,7.6,0s1.4,1,1.4,1v2.7c0,0-0.1,0.4,0.5,0.6c0,0,3,0.2,3.2,0.2c0.3,0.1,0.8,0.2,0.8,0.6
			c0,0.3-3.8,0.2-3.8,0.2H1696.8z"/>
		<path class="st9" d="M1709.4,108.6v1.7c0,0-0.1,0.5,0.5,0.6c0,0,1.3,0.2,1.5,0.2c0.3,0.1,0.8,0.2,0.8,0.6c0,0.3-3.9,0.2-3.9,0.2
			h-11.4c0,0-3.9,0.1-3.9-0.2c0-0.4,0.5-0.5,0.8-0.6c0.2-0.1,1.5-0.2,1.5-0.2c0.5-0.2,0.5-0.6,0.5-0.6v-1.7"/>
		<path class="st9" d="M1709.4,111.9v1.7c0,0-0.1,0.5,0.5,0.6c0,0,1.3,0.2,1.5,0.2c0.3,0.1,0.8,0.2,0.8,0.6c0,0.3-3.9,0.2-3.9,0.2
			h-11.4c0,0-3.9,0.1-3.9-0.2c0-0.4,0.5-0.5,0.8-0.6c0.2-0.1,1.5-0.2,1.5-0.2c0.5-0.2,0.5-0.6,0.5-0.6v-1.7"/>
		<path class="st9" d="M1709.4,115.3v1.7c0,0-0.1,0.5,0.5,0.6c0,0,1.3,0.2,1.5,0.2c0.3,0.1,0.8,0.2,0.8,0.6c0,0.3-3.9,0.2-3.9,0.2
			h-11.4c0,0-3.9,0.1-3.9-0.2c0-0.4,0.5-0.5,0.8-0.6c0.2-0.1,1.5-0.2,1.5-0.2c0.5-0.2,0.5-0.6,0.5-0.6v-1.7"/>
		<path class="st9" d="M1709.4,118.8v1.7c0,0-0.1,0.5,0.5,0.6c0,0,1.3,0.2,1.5,0.2c0.3,0.1,0.8,0.2,0.8,0.6c0,0.3-3.9,0.2-3.9,0.2
			h-11.4c0,0-3.9,0.1-3.9-0.2c0-0.4,0.5-0.5,0.8-0.6c0.2-0.1,1.5-0.2,1.5-0.2c0.5-0.2,0.5-0.6,0.5-0.6v-1.7"/>
		<path class="st9" d="M1709.4,122v1.7c0,0-0.1,0.5,0.5,0.6c0,0,1.3,0.2,1.5,0.2c0.3,0.1,0.8,0.2,0.8,0.6c0,0.3-3.9,0.2-3.9,0.2
			h-11.4c0,0-3.9,0.1-3.9-0.2c0-0.4,0.5-0.5,0.8-0.6c0.2-0.1,1.5-0.2,1.5-0.2c0.5-0.2,0.5-0.6,0.5-0.6V122"/>
		<line class="st9" x1="1695.7" y1="125.4" x2="1695.7" y2="131.9"/>
		<line class="st9" x1="1709.5" y1="125.4" x2="1709.5" y2="131.9"/>
		<rect x="1747" y="111.1" class="st9" width="7" height="24.3"/>
		<circle class="st9" cx="1741.6" cy="107.3" r="3.6"/>
		<polyline class="st9" points="1742.1,103.8 1761,103.8 1761,110.9 1741.8,110.9 		"/>
		<line class="st9" x1="1746.8" y1="116.3" x2="1754.2" y2="116.3"/>
		<line class="st9" x1="1746.8" y1="121.2" x2="1754.2" y2="121.2"/>
		<line class="st9" x1="1746.8" y1="126.1" x2="1754.2" y2="126.1"/>
		<line class="st9" x1="1746.8" y1="131.1" x2="1754.2" y2="131.1"/>
		<rect x="695.7" y="356.9" class="st9" width="46.7" height="31.6"/>
		<rect x="796.9" y="356.9" class="st9" width="81" height="33.6"/>
		<rect x="1133.7" y="356.9" class="st9" width="72.1" height="27.2"/>
		<rect x="927.9" y="356.9" class="st9" width="205.4" height="33.6"/>
		<polyline class="st9" points="743,357 762.6,357 762.6,373.5 743,373.5 		"/>
		<polyline class="st9" points="1236.2,364.5 1236.2,387.8 1266.5,387.8 1266.5,377 		"/>
		<polyline class="st9" points="64.6,347.1 29.2,347.1 29.2,322.8 64.7,322.8 		"/>
		<path class="st9" d="M1.4,357.2c0.3-0.3,10.3-10.1,10.3-10.1h17.5"/>
		<polygon class="st9" points="26.8,310.3 57.7,310.3 43.9,301.3 31.7,301.3 		"/>
		<polyline class="st9" points="23.4,347.3 12.7,338.8 12.7,330 23,310.4 26.8,310.3 		"/>
		<line class="st11" x1="44.8" y1="310.4" x2="44.8" y2="322.9"/>
		<polyline class="st9" points="1627.5,13.7 1582.7,31.5 1582,29.8 1622.4,13.5 		"/>
		<path class="st9" d="M1651.4,3.3v1.2l0.4,9.2c0,0,0,0.4,0.5,0.4l0,0c0.5,0,0.5-0.4,0.5-0.4l0.4-9.2V3.3H1651.4z"/>
		<path class="st9" d="M1614.5,3.3v1.2l0.4,9.2c0,0,0,0.4,0.5,0.4l0,0c0.5,0,0.5-0.4,0.5-0.4l0.4-9.2V3.3H1614.5z"/>
		<line class="st9" x1="1651.7" y1="11.2" x2="1634.6" y2="11.2"/>
		<line class="st9" x1="1651.8" y1="13.6" x2="1634.6" y2="13.6"/>
		<line class="st9" x1="1633.2" y1="11.2" x2="1616.1" y2="11.2"/>
		<line class="st9" x1="1633.3" y1="13.6" x2="1616.1" y2="13.6"/>
		<path class="st9" d="M1633,9v13.7c0,0.4,0.4,0.8,0.8,0.8s0.8-0.4,0.8-0.8V9c0-0.4-0.4-0.8-0.8-0.8S1633,8.6,1633,9z"/>
		<path class="st9" d="M1640.3,126.8c0,0-0.6,0-0.6-0.6s0.7-1,1.2-1.2c0.4-0.1,1.7-0.4,2.6-0.6v-1.8h-3.3c0,0-0.6,0-0.6-0.6
			s0.7-1,1.2-1.2c0.4-0.1,1.7-0.4,2.6-0.6V114h7.6v6.2c0.9,0.1,2.2,0.5,2.6,0.6c0.5,0.2,1.2,0.6,1.2,1.2s-0.6,0.6-0.6,0.6h-3.3v1.8
			c0.9,0.1,2.2,0.5,2.6,0.6c0.5,0.2,1.2,0.6,1.2,1.2s-0.6,0.6-0.6,0.6h-3.3v1.5c0.9,0.1,2.2,0.5,2.6,0.6c0.5,0.2,1.2,0.6,1.2,1.2
			s-0.6,0.6-0.6,0.6h-4.6v5.1h-4.4v-5.2h-2.7h-2.4c0,0-0.6,0-0.6-0.6s0.7-1,1.2-1.2c0.4-0.1,1.7-0.4,2.6-0.6v-1.5h-2.8V126.8z"/>
		<path class="st9" d="M1560.6,126.8c0,0-0.6,0-0.6-0.6s0.7-1,1.2-1.2c0.4-0.1,1.7-0.4,2.6-0.6v-1.8h-3.3c0,0-0.6,0-0.6-0.6
			s0.7-1,1.2-1.2c0.4-0.1,1.7-0.4,2.6-0.6V114h7.6v6.2c0.9,0.1,2.2,0.5,2.6,0.6c0.5,0.2,1.2,0.6,1.2,1.2s-0.6,0.6-0.6,0.6h-3.3v1.8
			c0.9,0.1,2.2,0.5,2.6,0.6c0.5,0.2,1.2,0.6,1.2,1.2s-0.6,0.6-0.6,0.6h-3.3v1.5c0.9,0.1,2.2,0.5,2.6,0.6c0.5,0.2,1.2,0.6,1.2,1.2
			s-0.6,0.6-0.6,0.6h-4.6v5.1h-4.4v-5.2h-2.7h-2.4c0,0-0.6,0-0.6-0.6s0.7-1,1.2-1.2c0.4-0.1,1.7-0.4,2.6-0.6v-1.5h-2.8V126.8z"/>
		<polyline class="st9" points="1625.5,103.9 1564.3,103.9 1564.3,110 1651.1,110 1651.1,103.9 1625.5,103.9 		"/>
		<rect x="1644.2" y="110.1" class="st9" width="6.4" height="3.9"/>
		<rect x="1564.5" y="110.1" class="st9" width="6.4" height="3.9"/>
		<path class="st9" d="M1519.7,66.6c0-0.4,0.2-0.7,0.4-1c0.2-0.2,0.6-0.4,1-0.4c0.8,0,1.4,0.6,1.4,1.4c0,0.8-0.6,1.4-1.4,1.4
			C1520.4,68,1519.7,67.4,1519.7,66.6z"/>
		<path class="st9" d="M1521.4,67.7l51.4,36.2c0,0,3.6,0,3.5,0s-53.5-37.7-53.5-37.7l1.8-2.5l-1.8-2.8l-2.7,4.9"/>
		<polyline class="st9" points="1522.7,60.8 1528.1,52.1 1530.2,52.9 1524.6,63.7 		"/>
		<circle class="st9" cx="1530.2" cy="51.2" r="1.7"/>
		<circle class="st9" cx="1537.6" cy="53.9" r="2.2"/>
		<line class="st9" x1="1539.4" y1="52.8" x2="1531.3" y2="49.9"/>
		<line class="st9" x1="1536" y1="55.4" x2="1528.7" y2="52.1"/>
		<polyline class="st9" points="1536.4,51.6 1582.7,32.3 1581.4,28.9 1530.2,49.4 		"/>
		<line class="st9" x1="1615.9" y1="98.3" x2="1537.6" y2="56.1"/>
		<rect x="1597.7" y="98.1" class="st9" width="23.5" height="5.8"/>
		<line class="st9" x1="1651.2" y1="120.2" x2="1643.6" y2="120.2"/>
		<line class="st9" x1="1651.2" y1="122.6" x2="1643.6" y2="122.6"/>
		<line class="st9" x1="1651.2" y1="124.4" x2="1643.6" y2="124.4"/>
		<line class="st9" x1="1651.2" y1="126.8" x2="1643.6" y2="126.8"/>
		<line class="st9" x1="1651.2" y1="128.3" x2="1643.6" y2="128.3"/>
		<line class="st9" x1="1650.7" y1="130.8" x2="1643.2" y2="130.8"/>
		<line class="st9" x1="1571.4" y1="120.2" x2="1563.8" y2="120.2"/>
		<line class="st9" x1="1571.4" y1="122.6" x2="1563.8" y2="122.6"/>
		<line class="st9" x1="1571.4" y1="124.4" x2="1563.8" y2="124.4"/>
		<line class="st9" x1="1571.4" y1="126.8" x2="1563.8" y2="126.8"/>
		<line class="st9" x1="1571.4" y1="128.3" x2="1563.8" y2="128.3"/>
		<line class="st9" x1="1571.8" y1="130.8" x2="1564.3" y2="130.8"/>
		<line class="st9" x1="1539.2" y1="52.3" x2="1627.5" y2="99.1"/>
		<path class="st9" d="M1632.9,17.5L1542.4,54l2.8,1.2c0,0,87.8-34.5,87.8-34.6C1633,20.4,1632.9,17.5,1632.9,17.5z"/>
		<circle class="st9" cx="1625.5" cy="101.2" r="2.9"/>
	</g>
</g>
<g id="Type_69_B">
	<g id="Mål">
	</g>
	<g id="Farger">
		<g id="Grunnfarge_1_">
		</g>
		<g id="Profilering_1_">
		</g>
		<g id="Dører_og_vinduer_1_">
		</g>
	</g>
	<g id="Omriss">
	</g>
</g>
<g id="Info">
</g>
<g id="Tognavn" class="st12">
</g>
</svg>
