<?xml version="1.0" encoding="utf-8"?>
<!-- Generator: Adobe Illustrator 22.0.1, SVG Export Plug-In . SVG Version: 6.00 Build 0)  -->
<svg version="1.1" id="Type_72" xmlns="http://www.w3.org/2000/svg" xmlns:xlink="http://www.w3.org/1999/xlink" x="0px" y="0px"
	 viewBox="0 0 1849.6 450" style="enable-background:new 0 0 1849.6 450;" xml:space="preserve">
<metadata><?xpacket begin="﻿" id="W5M0MpCehiHzreSzNTczkc9d"?>
<x:xmpmeta xmlns:x="adobe:ns:meta/" x:xmptk="Adobe XMP Core 5.6-c143 79.161210, 2017/08/11-10:28:36        ">
   <rdf:RDF xmlns:rdf="http://www.w3.org/1999/02/22-rdf-syntax-ns#">
      <rdf:Description rdf:about=""/>
   </rdf:RDF>
</x:xmpmeta>
                                                                                                    
                                                                                                    
                                                                                                    
                                                                                                    
                                                                                                    
                                                                                                    
                                                                                                    
                                                                                                    
                                                                                                    
                                                                                                    
                                                                                                    
                                                                                                    
                                                                                                    
                                                                                                    
                                                                                                    
                                                                                                    
                                                                                                    
                                                                                                    
                                                                                                    
                                                                                                    
                           
<?xpacket end="w"?></metadata>
<style type="text/css">
	.st0{fill:#212322;}
	.st1{fill:#B1B3B3;}
	.st2{fill:#444445;}
	.st3{fill:#010101;}
	.st4{fill:#DAE294;}
	.st5{fill:#004F59;}
	.st6{fill:#FA4616;}
	.st7{fill:#878787;}
	.st8{fill:none;stroke:#231F20;stroke-width:2;stroke-miterlimit:10;}
	.st9{fill:#101820;stroke:#231F20;stroke-width:2;stroke-miterlimit:10;}
	.st10{fill:none;stroke:#000000;stroke-width:2;stroke-miterlimit:10;}
</style>
<g id="Mål_6_">
</g>
<g id="Farger_6_">
	<g id="Grunnfarge">
		<polygon class="st0" points="80.2,351.4 53.8,345.9 53.9,345.2 40.7,342.4 40.7,338.6 60.8,338.6 60.8,335.2 42.3,327.4 
			32.7,327.4 24.1,338.6 24.1,352 24.1,352.3 40.7,352.3 40.7,348 53,350.8 53.1,349.8 80,355.3 		"/>
		<path class="st1" d="M313,97.9c-52.3,0-99.2,0-101.4,0c-5.1,0-7.2,2.5-7.2,2.5c-16.8,12.8-24.4,37.5-24.5,37.7l0,0l0,0l0,0
			c-17.1,2.3-25.7,20.7-25.7,20.7s-25.1,45.4-47.5,91.1l1.8,1l0,0c-13.3,28.9-24.5,74.8-27.4,87.4c-0.5,2.2-0.8,4.4-0.9,6.7
			l-0.9,29.7h131.3v4.6v0.5h7.6c0,0,8-5.7,15.6-8.2s17.3-2.5,17.3-2.5h408.5h292.8h382.4h292.8h64.3H1818l9.1,10.8h22.8v-27.8V155.5
			V95c0,0-55.5,0-66,0s-11.8,2.8-11.8,2.8l-30.8,29.6V143h-534.1v-8.1c0-1.1-0.3-2.3-1-3.2c-4.3-6.2-21.5-23.1-31.7-31.6
			c-3.3-2.7-9-2.3-9-2.3s0,0.8,0,3.9h-7c0-3.3,0-3.8,0-3.8h-247c0,0,0,36.2,0,3.9h-7c0,32.2,0-3.8,0-3.8H707c0,0,0,33.5,0,3.9h-7
			c0,29.6,0-3.8,0-3.8H457.8c0,0-2,0-5.6,0c0,0,0,30.9,0,3.9h-7c0,27,0-3.8,0-3.8c-23.5,0-75.9,0-125.1,0v3.9h-7L313,97.9z"/>
		<path class="st0" d="M24.1,354.1l-5.9,6.3h-3.1c0,0-1.3,0.7-1.3,1.8c0,1.1,0,6.4,0,6.4s0.5,1.5,1.8,1.5s2.4,0,2.4,0l6,6.6
			L24.1,354.1z"/>
		<path class="st0" d="M5.1,388.5l8-9.8c0,0,0.6-0.6,1.8-0.6s9.2,0,9.2,0v3.7h-7.8c0,0-1.7-0.1-2.4,0.6c-0.7,0.7-6.8,7.7-6.8,7.7
			S5.6,392,4.6,391S5.1,388.5,5.1,388.5z"/>
		<polygon class="st0" points="79.3,359.4 52,359.4 52,358.1 32.7,358.1 32.7,352.3 27.2,352.3 27.2,376.8 32.7,376.8 32.7,372.8 
			51.9,372.8 51.9,371.2 79.3,371.2 		"/>
		<path class="st2" d="M103.8,385.5l-23.9,5.3c0,0,14.4,7.2,14.4,20.1c0,12.9-14.4,20.1-14.4,20.1h78.9l35.3-13.3
			c0,0,15.2-16.7,17.1-38.7v-4.6H79.9L103.8,385.5z"/>
		<path class="st0" d="M612.5,373.6c0,0-27.6-0.5-55.9-1.1l0,0c-4.6-0.1-9.2-0.2-13.8-0.3l0,0c-4.2-0.1-8.4-0.2-12.4-0.2l0,0
			c-5-0.1-9.6-0.2-13.9-0.3c-10.2-0.2-18.6-2.7-20.9-2.8c-9.8-0.2-9.2-0.3-9.2-0.3s-4.7-0.4-9.9,0c-4.6,0.4-13.5,0.3-13.5,0.3
			s-32.8,0-38.9,0s-11.1-0.3-11.1-0.3s-6,0.3-16.8,0.3c-9.9,0-15.9,0-15.9,0l-26.8,2.5l-14,0.4l-12.1,0.4l-13.9,0.5l0,0l-43.6,1.4
			v16.3l28.6,0.2c-1.9,4.6-3,9.7-3,15.1c0,21.6,17.5,39.1,39.1,39.1s39.1-17.5,39.1-39.1c0-4.6-0.8-9-2.3-13.1
			c2.2,1,4.7,2.7,7.3,5.3c8.8,8.8,14.5,14.5,14.5,14.5s4.7,5.1,12.7,5.1s64.2,0,64.2,0s6.1,1,12-4.9s15.5-15.5,15.5-15.5
			s0.2-0.2,0.5-0.6c-0.7,2.9-1.1,6-1.1,9.1c0,21.6,17.5,39.1,39.1,39.1s39.1-17.5,39.1-39.1c0-5.6-1.2-10.8-3.3-15.6
			c21.6,0.1,40.8,0.2,40.8,0.2v-16.6H612.5z M499.7,394.8l-1.8,1.6C498.3,396.1,498.9,395.5,499.7,394.8z"/>
		<path class="st0" d="M1849.9,417.6h-45.7l-3.3,3.4l-2.6-0.4c0,0-0.8,6.2-9.3,13.6c-9.3,8.2-23.9,10.3-23.9,10.3
			s-18.1,0.5-26.6-7.3s-10.2-10.3-12.6-15l-1.3,0.1l-14.6-12.9l-2.2,9.5h-5.2c0,0-2.8,3.6-5.6,3.6s-4.6-3.2-4.6-3.2l-82.7-16.4
			l18-34.4l190-0.1l9.3,10.9l21.2,0.2h1.5"/>
		<polyline class="st0" points="677.7,403.2 934.2,403.2 952.3,368.9 659.5,368.9 677.7,403.2 		"/>
		<polyline class="st0" points="1353.8,403.2 1610.3,403.2 1628.4,368.9 1335.7,368.9 1353.8,403.2 		"/>
	</g>
	<g id="Profilering">
		<rect x="953.4" y="209.5" class="st3" width="422.8" height="88.4"/>
		<rect x="1577.6" y="209.5" class="st3" width="237.2" height="88.4"/>
		<rect x="469.7" y="209.5" class="st3" width="237.2" height="88.4"/>
		<polygon class="st4" points="1554.6,310.2 1539.7,310.2 748.5,310.2 742.8,310.2 88.1,310.2 86.4,316.8 742.9,316.8 748.5,316.8 
			1539.7,316.8 1554.6,316.8 1849.9,316.8 1849.9,310.2 		"/>
		<path class="st5" d="M89.4,305.6c0,0,53.2-113.3,87-134c0,0,11.7-11.3,53.8-11.3s1619.7,0,1619.7,0v-13.5h-1641
			c0,0-23.1-0.1-37.1,14.3c-16.7,17.1-63,83.5-72.6,113.1C89.6,303.8,89.4,305.6,89.4,305.6z"/>
		<path class="st4" d="M176,171.8h1673.9v-11.3H222.3C222.3,160.4,188.2,161.2,176,171.8"/>
		<path class="st5" d="M1585,316.8h-45.3H748.5h-12.9H86.4c0,0,0,0-3.3,12.9S79.3,352,79.3,352h656.2h13h791.2h45.3h264.9v-35.3
			H1585V316.8z"/>
	</g>
	<g id="Dører_og_vinduer">
		<path class="st6" d="M852.7,391.5h-93.2c-6.1,0-11-4.9-11-11V189c0-6.1,4.9-11,11-11h93.2c6.1,0,11,4.9,11,11v191.4
			C863.7,386.5,858.7,391.5,852.7,391.5z"/>
		<path class="st7" d="M786.7,316.8h-19.4c-3.4,0-6.1-2.8-6.1-6.1v-91.6c0-3.4,2.8-6.1,6.1-6.1h19.4c3.4,0,6.1,2.8,6.1,6.1v91.6
			C792.8,314,790,316.8,786.7,316.8z"/>
		<path class="st7" d="M844.7,316.8h-19.4c-3.4,0-6.1-2.8-6.1-6.1v-91.6c0-3.4,2.8-6.1,6.1-6.1h19.4c3.4,0,6.1,2.8,6.1,6.1v91.6
			C850.8,314,848.1,316.8,844.7,316.8z"/>
		<path class="st7" d="M1080.9,289.4H970.7c-2.6,0-4.6-2.1-4.6-4.6v-60.3c0-2.6,2.1-4.6,4.6-4.6h110.2c2.6,0,4.6,2.1,4.6,4.6v60.3
			C1085.6,287.3,1083.5,289.4,1080.9,289.4z"/>
		<path class="st7" d="M1218,289.4h-110.2c-2.6,0-4.6-2.1-4.6-4.6v-60.3c0-2.6,2.1-4.6,4.6-4.6H1218c2.6,0,4.6,2.1,4.6,4.6v60.3
			C1222.6,287.3,1220.6,289.4,1218,289.4z"/>
		<path class="st7" d="M1354.7,289.4h-110.2c-2.6,0-4.6-2.1-4.6-4.6v-60.3c0-2.6,2.1-4.6,4.6-4.6h110.2c2.6,0,4.6,2.1,4.6,4.6v60.3
			C1359.3,287.3,1357.3,289.4,1354.7,289.4z"/>
		<path class="st7" d="M575.5,289.4h-82.7c-2.6,0-4.6-2.1-4.6-4.6v-60.3c0-2.6,2.1-4.6,4.6-4.6h82.7c2.6,0,4.6,2.1,4.6,4.6v60.3
			C580.1,287.3,578.1,289.4,575.5,289.4z"/>
		<path class="st7" d="M684.3,289.4h-82.7c-2.6,0-4.6-2.1-4.6-4.6v-60.3c0-2.6,2.1-4.6,4.6-4.6h82.7c2.6,0,4.6,2.1,4.6,4.6v60.3
			C689,287.3,686.9,289.4,684.3,289.4z"/>
		<path class="st1" d="M269.5,193.9h-37c-6.6,0-12,5.4-12,12v117.5c0,6.6,5.4,12,12,12h37c6.6,0,12-5.4,12-12V205.9
			C281.6,199.3,276.2,193.9,269.5,193.9z"/>
		<path class="st7" d="M260.7,205.2h-18.5c-6.6,0-12,5.4-12,12v33.1c0,6.6,5.4,12,12,12h18.5c6.6,0,12-5.4,12-12v-33.1
			C272.7,210.6,267.3,205.2,260.7,205.2z"/>
		<path class="st6" d="M1528.7,391.5h-93.2c-6.1,0-11-4.9-11-11V189c0-6.1,4.9-11,11-11h93.2c6.1,0,11,4.9,11,11v191.4
			C1539.7,386.5,1534.7,391.5,1528.7,391.5z"/>
		<path class="st7" d="M1462.7,316.8h-19.4c-3.4,0-6.1-2.8-6.1-6.1v-91.6c0-3.4,2.8-6.1,6.1-6.1h19.4c3.4,0,6.1,2.8,6.1,6.1v91.6
			C1468.8,314,1466,316.8,1462.7,316.8z"/>
		<path class="st7" d="M1520.7,316.8h-19.4c-3.4,0-6.1-2.8-6.1-6.1v-91.6c0-3.4,2.8-6.1,6.1-6.1h19.4c3.4,0,6.1,2.8,6.1,6.1v91.6
			C1526.8,314,1524.1,316.8,1520.7,316.8z"/>
		<path class="st7" d="M1793.6,288.5h-82.7c-2.6,0-4.6-2.1-4.6-4.6v-60.3c0-2.6,2.1-4.6,4.6-4.6h82.7c2.6,0,4.6,2.1,4.6,4.6v60.3
			C1798.3,286.4,1796.2,288.5,1793.6,288.5z"/>
		<path class="st7" d="M1684.8,289.4h-82.7c-2.6,0-4.6-2.1-4.6-4.6v-60.3c0-2.6,2.1-4.6,4.6-4.6h82.7c2.6,0,4.6,2.1,4.6,4.6v60.3
			C1689.4,287.3,1687.4,289.4,1684.8,289.4z"/>
		<path class="st7" d="M106.8,249.8l3.8,2.1c0,0,25.5-58,46-91.6l-2.3-1.7C154.2,158.6,129.1,203.9,106.8,249.8z"/>
	</g>
</g>
<g id="Omriss_6_">
	<circle class="st8" cx="334.5" cy="406.1" r="11.9"/>
	<path class="st8" d="M371.3,393c1.5,4.1,2.3,8.5,2.3,13.1c0,21.6-17.5,39.1-39.1,39.1s-39.1-17.5-39.1-39.1c0-5.3,1.1-10.4,3-15.1"
		/>
	<path class="st8" d="M368.6,406.1c0,18.8-15.3,34.1-34.1,34.1c-18.8,0-34.1-15.3-34.1-34.1c0-5.4,1.3-10.5,3.5-15l58.1,0.4
		c0,0,1.2-0.3,3.3-0.1C367.4,395.8,368.6,400.8,368.6,406.1z"/>
	<circle class="st8" cx="535.9" cy="406.1" r="11.9"/>
	<path class="st8" d="M571.7,390.5c2.1,4.8,3.3,10.1,3.3,15.6c0,21.6-17.5,39.1-39.1,39.1s-39.1-17.5-39.1-39.1
		c0-3.1,0.4-6.2,1.1-9.1l0,0l0,0"/>
	<path class="st8" d="M566.2,390.5c2.4,4.7,3.8,10,3.8,15.7c0,18.8-15.3,34.1-34.1,34.1s-34.1-15.3-34.1-34.1c0-5,1.1-9.7,3-14"/>
	<path class="st8" d="M365.2,391.3c1.6,0.1,3.7,0.6,6.1,1.7c2.2,1,4.7,2.7,7.3,5.3c8.8,8.8,14.5,14.5,14.5,14.5s4.7,5.1,12.7,5.1
		s64.2,0,64.2,0s6.1,1,12-4.9s15.5-15.5,15.5-15.5s0.2-0.2,0.5-0.6l0,0c1-1,3.3-3.2,6.9-4.8c2.3-1.1,5.2-1.8,8.5-1.8
		c5,0,29.5,0.1,52.9,0.2c1.9,0,3.7,0,5.5,0c21.6,0.1,40.8,0.2,40.8,0.2V374c0,0-27.6-0.5-55.9-1.1l0,0c-4.6-0.1-9.2-0.2-13.8-0.3
		l0,0c-4.2-0.1-8.4-0.2-12.4-0.2l0,0c-5-0.1-9.6-0.2-13.9-0.3c-10.2-0.2-17.7-0.3-20-0.4c-9.8-0.2-12.9,3.6-12.9,3.6
		s-11,9.3-14.9,11.9c-3.9,2.5-6.6,2.2-6.6,2.2s-43.2,0-49.3,0c-6.1,0-9.3-3.6-9.3-3.6s-4.1-3.4-11.9-9.5s-14.1-5.3-14.1-5.3
		l-24.1,0.8l-14,0.4l-12.1,0.4l-13.9,0.5l0,0l-43.6,1.4v16.3l28.6,0.2h5.4"/>
	<path class="st8" d="M103.2,385.6l-23.9,5.3c0,0,14.4,7.2,14.4,20.1c0,12.9-14.4,20.1-14.4,20.1h78.9l35.3-13.3
		c0,0,15.2-16.7,17.1-38.7v-4.6H79.3L103.2,385.6z"/>
	<polyline class="st8" points="144.9,431.1 191.2,413.3 198.4,391 186.7,377.3 167.7,374.6 	"/>
	<path class="st8" d="M108.5,250.9c-13.3,28.9-24.5,74.8-27.4,87.4c-0.5,2.2-0.8,4.4-0.9,6.7l-0.9,29.7"/>
	<path class="st8" d="M106.8,249.9l3.8,2.1c0,0,25.5-58,46-91.6l-2.3-1.7C154.2,158.8,129.1,204.1,106.8,249.9z"/>
	<path class="st8" d="M210.6,379.6h7.6c0,0,8-5.7,15.6-8.2s17.3-2.5,17.3-2.5h408.5l18.1,34.4h256.5l18.1-34.4h382.4l18.1,34.4
		h256.5l0.3-0.5l2.8-5.2l1.9-3.5l13.2-25.1h24.2h40.1"/>
	<line class="st8" x1="748.5" y1="351.8" x2="80" y2="351.8"/>
	<line class="st8" x1="1424.5" y1="351.8" x2="863.7" y2="351.8"/>
	<line class="st8" x1="1849.9" y1="351.8" x2="1539.7" y2="351.8"/>
	<polyline class="st8" points="162.4,183.6 200.8,183.6 207.6,171.8 1849.9,171.8 	"/>
	<path class="st8" d="M260.7,205.4h-18.5c-6.6,0-12,5.4-12,12v33.1c0,6.6,5.4,12,12,12h18.5c6.6,0,12-5.4,12-12v-33.1
		C272.7,210.8,267.3,205.4,260.7,205.4z"/>
	<path class="st8" d="M269.5,194.1h-37c-6.6,0-12,5.4-12,12v117.5c0,6.6,5.4,12,12,12h37c6.6,0,12-5.4,12-12V206.1
		C281.6,199.5,276.2,194.1,269.5,194.1z"/>
	<polyline class="st8" points="1207.1,142.9 314.3,142.9 314.3,138.1 180,138.1 	"/>
	<path class="st8" d="M786.7,317h-19.4c-3.4,0-6.1-2.8-6.1-6.1v-91.6c0-3.4,2.8-6.1,6.1-6.1h19.4c3.4,0,6.1,2.8,6.1,6.1v91.6
		C792.8,314.2,790,317,786.7,317z"/>
	<path class="st8" d="M844.7,317h-19.4c-3.4,0-6.1-2.8-6.1-6.1v-91.6c0-3.4,2.8-6.1,6.1-6.1h19.4c3.4,0,6.1,2.8,6.1,6.1v91.6
		C850.8,314.2,848.1,317,844.7,317z"/>
	<path class="st8" d="M852.7,391.5h-93.2c-6.1,0-11-4.9-11-11V189.1c0-6.1,4.9-11,11-11h93.2c6.1,0,11,4.9,11,11v191.4
		C863.7,386.6,858.7,391.5,852.7,391.5z"/>
	<path class="st8" d="M575.5,289.5h-82.7c-2.6,0-4.6-2.1-4.6-4.6v-60.3c0-2.6,2.1-4.6,4.6-4.6h82.7c2.6,0,4.6,2.1,4.6,4.6v60.3
		C580.1,287.5,578.1,289.5,575.5,289.5z"/>
	<path class="st8" d="M684.3,289.5h-82.7c-2.6,0-4.6-2.1-4.6-4.6v-60.3c0-2.6,2.1-4.6,4.6-4.6h82.7c2.6,0,4.6,2.1,4.6,4.6v60.3
		C689,287.5,686.9,289.5,684.3,289.5z"/>
	<path class="st8" d="M1684.8,289.5h-82.7c-2.6,0-4.6-2.1-4.6-4.6v-60.3c0-2.6,2.1-4.6,4.6-4.6h82.7c2.6,0,4.6,2.1,4.6,4.6v60.3
		C1689.4,287.5,1687.4,289.5,1684.8,289.5z"/>
	<path class="st8" d="M1793.6,289.5h-82.7c-2.6,0-4.6-2.1-4.6-4.6v-60.3c0-2.6,2.1-4.6,4.6-4.6h82.7c2.6,0,4.6,2.1,4.6,4.6v60.3
		C1798.3,287.5,1796.2,289.5,1793.6,289.5z"/>
	<path class="st8" d="M1080.9,289.5H970.7c-2.6,0-4.6-2.1-4.6-4.6v-60.3c0-2.6,2.1-4.6,4.6-4.6h110.2c2.6,0,4.6,2.1,4.6,4.6v60.3
		C1085.6,287.5,1083.5,289.5,1080.9,289.5z"/>
	<path class="st8" d="M1218,289.5h-110.2c-2.6,0-4.6-2.1-4.6-4.6v-60.3c0-2.6,2.1-4.6,4.6-4.6H1218c2.6,0,4.6,2.1,4.6,4.6v60.3
		C1222.6,287.5,1220.6,289.5,1218,289.5z"/>
	<path class="st8" d="M1354.7,289.5h-110.2c-2.6,0-4.6-2.1-4.6-4.6v-60.3c0-2.6,2.1-4.6,4.6-4.6h110.2c2.6,0,4.6,2.1,4.6,4.6v60.3
		C1359.3,287.5,1357.3,289.5,1354.7,289.5z"/>
	<line class="st8" x1="806.1" y1="178.2" x2="806.1" y2="391.2"/>
	<path class="st8" d="M1462.7,317h-19.4c-3.4,0-6.1-2.8-6.1-6.1v-91.6c0-3.4,2.8-6.1,6.1-6.1h19.4c3.4,0,6.1,2.8,6.1,6.1v91.6
		C1468.8,314.2,1466,317,1462.7,317z"/>
	<path class="st8" d="M1520.7,317h-19.4c-3.4,0-6.1-2.8-6.1-6.1v-91.6c0-3.4,2.8-6.1,6.1-6.1h19.4c3.4,0,6.1,2.8,6.1,6.1v91.6
		C1526.8,314.2,1524.1,317,1520.7,317z"/>
	<path class="st8" d="M1528.7,391.5h-93.2c-6.1,0-11-4.9-11-11V189.1c0-6.1,4.9-11,11-11h93.2c6.1,0,11,4.9,11,11v191.4
		C1539.7,386.6,1534.7,391.5,1528.7,391.5z"/>
	<line class="st8" x1="1482.1" y1="178.2" x2="1482.1" y2="391.5"/>
	<rect x="51.9" y="359.6" class="st8" width="27.4" height="11.8"/>
	<rect x="32.7" y="358.3" class="st8" width="19.3" height="14.6"/>
	<polygon class="st8" points="24.1,352.1 24.1,338.8 32.7,327.6 42.3,327.6 60.8,335.4 60.8,338.8 40.7,338.8 40.7,352.5 
		24.1,352.5 	"/>
	<polyline class="st8" points="40.7,342.6 53.9,345.4 53,350.9 40.7,348.2 	"/>
	<polygon class="st8" points="53.9,346.2 80,351.5 79.8,355.5 53.1,349.9 	"/>
	<line class="st8" x1="24.1" y1="384.5" x2="24.1" y2="352.5"/>
	<polyline class="st8" points="27.2,352.5 27.2,377 32.7,377 32.7,373 	"/>
	<path class="st8" d="M24.5,354.3l-6.3,6.3h-3.1c0,0-1.3,0.7-1.3,1.8c0,1.1,0,6.4,0,6.4s0.5,1.5,1.8,1.5s2.4,0,2.4,0l6,6.6"/>
	<path class="st9" d="M5.1,388.8l8-9.8c0,0,0.6-0.6,1.8-0.6s9.2,0,9.2,0v3.7h-7.8c0,0-1.7-0.1-2.4,0.6c-0.7,0.7-6.8,7.7-6.8,7.7
		s-1.5,1.8-2.5,0.8S5.1,388.8,5.1,388.8z"/>
	<line class="st8" x1="32.7" y1="352.5" x2="32.7" y2="358.3"/>
	<rect x="247.6" y="112.9" class="st8" width="58.8" height="13"/>
	<g>
		<line class="st8" x1="253.9" y1="112.9" x2="253.9" y2="125.8"/>
		<line class="st8" x1="260.5" y1="112.9" x2="260.5" y2="125.8"/>
		<line class="st8" x1="267.1" y1="112.9" x2="267.1" y2="125.8"/>
		<line class="st8" x1="273.7" y1="112.9" x2="273.7" y2="125.8"/>
		<line class="st8" x1="280.3" y1="112.9" x2="280.3" y2="125.8"/>
		<line class="st8" x1="286.9" y1="112.9" x2="286.9" y2="125.8"/>
		<line class="st8" x1="293.5" y1="112.9" x2="293.5" y2="125.8"/>
		<line class="st8" x1="300.1" y1="112.9" x2="300.1" y2="125.8"/>
	</g>
	<rect x="325.7" y="112.9" class="st8" width="58.8" height="30.1"/>
	<g>
		<line class="st8" x1="332" y1="112.9" x2="332" y2="142.9"/>
		<line class="st8" x1="338.6" y1="112.9" x2="338.6" y2="142.9"/>
		<line class="st8" x1="345.2" y1="112.9" x2="345.2" y2="142.9"/>
		<line class="st8" x1="351.8" y1="112.9" x2="351.8" y2="142.9"/>
		<line class="st8" x1="358.4" y1="112.9" x2="358.4" y2="142.9"/>
		<line class="st8" x1="365" y1="112.9" x2="365" y2="142.9"/>
		<line class="st8" x1="371.6" y1="112.9" x2="371.6" y2="142.9"/>
		<line class="st8" x1="378.2" y1="112.9" x2="378.2" y2="142.9"/>
	</g>
	<rect x="490.1" y="112.9" class="st8" width="58.8" height="30.1"/>
	<g>
		<line class="st8" x1="496.4" y1="112.9" x2="496.4" y2="142.9"/>
		<line class="st8" x1="503" y1="112.9" x2="503" y2="142.9"/>
		<line class="st8" x1="509.6" y1="112.9" x2="509.6" y2="142.9"/>
		<line class="st8" x1="516.2" y1="112.9" x2="516.2" y2="142.9"/>
		<line class="st8" x1="522.8" y1="112.9" x2="522.8" y2="142.9"/>
		<line class="st8" x1="529.4" y1="112.9" x2="529.4" y2="142.9"/>
		<line class="st8" x1="536" y1="112.9" x2="536" y2="142.9"/>
		<line class="st8" x1="542.6" y1="112.9" x2="542.6" y2="142.9"/>
	</g>
	<rect x="604.5" y="112.9" class="st8" width="58.8" height="30.1"/>
	<g>
		<line class="st8" x1="610.8" y1="112.9" x2="610.8" y2="142.9"/>
		<line class="st8" x1="617.4" y1="112.9" x2="617.4" y2="142.9"/>
		<line class="st8" x1="624" y1="112.9" x2="624" y2="142.9"/>
		<line class="st8" x1="630.6" y1="112.9" x2="630.6" y2="142.9"/>
		<line class="st8" x1="637.2" y1="112.9" x2="637.2" y2="142.9"/>
		<line class="st8" x1="643.8" y1="112.9" x2="643.8" y2="142.9"/>
		<line class="st8" x1="650.4" y1="112.9" x2="650.4" y2="142.9"/>
		<line class="st8" x1="657" y1="112.9" x2="657" y2="142.9"/>
	</g>
	<rect x="719.1" y="112.9" class="st8" width="58.8" height="30.1"/>
	<g>
		<line class="st8" x1="725.4" y1="112.9" x2="725.4" y2="142.9"/>
		<line class="st8" x1="732" y1="112.9" x2="732" y2="142.9"/>
		<line class="st8" x1="738.6" y1="112.9" x2="738.6" y2="142.9"/>
		<line class="st8" x1="745.2" y1="112.9" x2="745.2" y2="142.9"/>
		<line class="st8" x1="751.8" y1="112.9" x2="751.8" y2="142.9"/>
		<line class="st8" x1="758.4" y1="112.9" x2="758.4" y2="142.9"/>
		<line class="st8" x1="765" y1="112.9" x2="765" y2="142.9"/>
		<line class="st8" x1="771.6" y1="112.9" x2="771.6" y2="142.9"/>
	</g>
	<rect x="834.3" y="112.9" class="st8" width="58.8" height="30.1"/>
	<g>
		<line class="st8" x1="840.6" y1="112.9" x2="840.6" y2="142.9"/>
		<line class="st8" x1="847.2" y1="112.9" x2="847.2" y2="142.9"/>
		<line class="st8" x1="853.8" y1="112.9" x2="853.8" y2="142.9"/>
		<line class="st8" x1="860.4" y1="112.9" x2="860.4" y2="142.9"/>
		<line class="st8" x1="867" y1="112.9" x2="867" y2="142.9"/>
		<line class="st8" x1="873.5" y1="112.9" x2="873.5" y2="142.9"/>
		<line class="st8" x1="880.1" y1="112.9" x2="880.1" y2="142.9"/>
		<line class="st8" x1="886.7" y1="112.9" x2="886.7" y2="142.9"/>
	</g>
	<rect x="916.9" y="112.1" class="st8" width="58.8" height="13"/>
	<g>
		<line class="st8" x1="923.2" y1="112.1" x2="923.2" y2="125.1"/>
		<line class="st8" x1="929.8" y1="112.1" x2="929.8" y2="125.1"/>
		<line class="st8" x1="936.4" y1="112.1" x2="936.4" y2="125.1"/>
		<line class="st8" x1="943" y1="112.1" x2="943" y2="125.1"/>
		<line class="st8" x1="949.6" y1="112.1" x2="949.6" y2="125.1"/>
		<line class="st8" x1="956.2" y1="112.1" x2="956.2" y2="125.1"/>
		<line class="st8" x1="962.8" y1="112.1" x2="962.8" y2="125.1"/>
		<line class="st8" x1="969.4" y1="112.1" x2="969.4" y2="125.1"/>
	</g>
	<rect x="978.8" y="112.1" class="st8" width="58.8" height="13"/>
	<g>
		<line class="st8" x1="985.1" y1="112.1" x2="985.1" y2="125.1"/>
		<line class="st8" x1="991.7" y1="112.1" x2="991.7" y2="125.1"/>
		<line class="st8" x1="998.3" y1="112.1" x2="998.3" y2="125.1"/>
		<line class="st8" x1="1004.9" y1="112.1" x2="1004.9" y2="125.1"/>
		<line class="st8" x1="1011.5" y1="112.1" x2="1011.5" y2="125.1"/>
		<line class="st8" x1="1018.1" y1="112.1" x2="1018.1" y2="125.1"/>
		<line class="st8" x1="1024.7" y1="112.1" x2="1024.7" y2="125.1"/>
		<line class="st8" x1="1031.3" y1="112.1" x2="1031.3" y2="125.1"/>
	</g>
	<path class="st8" d="M452.1,142.9V97.8c3.6,0,5.6,0,5.6,0h242.2v45.1"/>
	<polyline class="st8" points="707,142.9 707,97.8 904.4,97.8 904.4,142.9 	"/>
	<polyline class="st8" points="911.5,142.9 911.5,97.8 1158.4,97.8 1158.4,142.9 	"/>
	<path class="st8" d="M1849.9,358.6v-6.8V155.4V94.9c0,0-55.5,0-66,0s-11.8,2.8-11.8,2.8l-30.8,29.6V143h-534.1v-8.1
		c0-1.1-0.3-2.3-1-3.2c-4.3-6.2-21.5-23.1-31.7-31.6c-3.3-2.7-9-2.3-9-2.3v45.1"/>
	<polyline class="st8" points="1789,368.9 1818,368.9 1827.1,379.6 1849.9,379.6 1849.9,358.6 	"/>
	<line class="st8" x1="1691.8" y1="368.9" x2="1789" y2="368.9"/>
	<path class="st8" d="M320,142.9V97.8c49.2,0,101.6,0,125.1,0v45.1"/>
	<path class="st8" d="M154.2,158.8c0,0,8.6-18.4,25.7-20.7c0,0,7.6-24.9,24.5-37.8c0,0,2.1-2.5,7.2-2.5c2.2,0,49.1,0,101.4,0V138"/>
	<line class="st8" x1="313" y1="101.9" x2="320" y2="101.9"/>
	<line class="st8" x1="445.1" y1="101.9" x2="452.1" y2="101.9"/>
	<line class="st8" x1="699.9" y1="101.9" x2="707" y2="101.9"/>
	<line class="st8" x1="904.4" y1="101.9" x2="911.5" y2="101.9"/>
	<line class="st8" x1="1158.4" y1="101.9" x2="1165.4" y2="101.9"/>
	<path class="st8" d="M1806,410.2h13.1l0,0h3h27.7"/>
	<line class="st8" x1="1849.9" y1="417.8" x2="1804.9" y2="417.8"/>
	<circle class="st8" cx="1762.1" cy="404.6" r="11.9"/>
	<path class="st8" d="M1796.9,384c-1.7-2.8-3.7-5.4-6-7.8c-2.9-3-6.3-5.5-10-7.4c-0.1-0.1-0.3-0.2-0.4-0.2h-36.8
		c-0.1,0.1-0.3,0.1-0.4,0.2c-3.7,1.9-7.1,4.5-10,7.4c-2.2,2.3-4.2,4.8-5.9,7.6h0.3h6.5 M1732.2,422.5h-6h-0.5
		c6.6,13.4,20.4,22.7,36.4,22.7c16.3,0,30.3-9.6,36.7-23.5"/>
	<path class="st8" d="M1734.2,384c6.3-8.5,16.5-14,27.9-14s21.6,5.5,27.9,14"/>
	<path class="st8" d="M1732.2,422.5c6,10.2,17.2,17.1,29.9,17.1c13,0,24.4-7.2,30.3-17.8"/>
	<circle class="st8" cx="1704.5" cy="393.5" r="9.6"/>
	<polyline class="st8" points="1805.4,378 1805.4,388.2 1805.4,388.5 1805.4,397.6 1807.3,397.6 1808.1,397.6 1810.1,397.6 
		1810.1,381.8 	"/>
	<path class="st8" d="M1809.1,397.8L1809.1,397.8c-0.4-0.1-0.6-0.2-0.9-0.2c-0.1,0-0.3,0-0.4,0s-0.3,0-0.4,0
		c-1.9,0.2-3.5,1.9-3.5,3.9c0,1.6,1,3,2.4,3.6"/>
	<path class="st8" d="M1704.3,384h23.1h0.3h6.5h0.3h20.1h1.3h15.1h0.2h18.9h0.3h5.2c0,0,0.5,0,1.4,0.1c0.1,0,0.2,0.1,0.3,0.1
		c1.8,0.3,4.7,1.3,8.1,4.1"/>
	<polyline class="st8" points="1651.7,368.9 1651.7,394 1614.3,394 	"/>
	<polyline class="st8" points="1691.9,419.5 1691.9,419.5 1609.7,402.8 	"/>
	<path class="st8" d="M1612.4,397.5c26.9,5.9,78.4,17.4,79.9,17.7l0,0"/>
	<line class="st8" x1="1695.2" y1="396" x2="1701.7" y2="415.6"/>
	<polyline class="st8" points="1713.6,396.6 1714,395.1 1714.1,394.5 	"/>
	<path class="st8" d="M1809,397.8l13.1,2.8c2.1,0.6,3.7,2.6,3.7,4.9c0,2.8-2.3,5.1-5.1,5.1c-0.5,0-1-0.1-1.5-0.2l-12.9-5.4l-0.2,5.2
		l-0.2,6.7l-0.9,0.8l-4.1,3.9h-2l-6.4,0.1l-3.9,0.1l-17.4-37.9h-16.6l-18,38.5h-4.3h-6h-0.5h-1.5l-14-12.4l-7.9-7"/>
	<polyline class="st8" points="1802,368.6 1802,375.2 1805.4,378 1810.1,381.8 1812,383.5 1826.8,383.5 1826.8,379.6 	"/>
	<circle class="st8" cx="1696.9" cy="418" r="5.3"/>
	<polyline class="st8" points="1710.3,410 1707.3,419.5 1701.9,419.5 	"/>
	<path class="st10" d="M188.8,259.1h-17.7c-5.8,0-10.5-4.5-10.8-10.2c0-0.4,0-0.8,0.1-1.2l6-28.4c1.2-6.4,4.9-10.9,10.9-10.9h11.6
		c6,0,10.9,4.9,10.9,10.9v29C199.6,254.3,194.8,259.1,188.8,259.1z"/>
</g>
</svg>
