<?xml version="1.0" encoding="utf-8"?>
<!-- Generator: Adobe Illustrator 22.0.1, SVG Export Plug-In . SVG Version: 6.00 Build 0)  -->
<svg version="1.1" id="Type_74" xmlns="http://www.w3.org/2000/svg" xmlns:xlink="http://www.w3.org/1999/xlink" x="0px" y="0px"
	 viewBox="0 0 1659.4 424" style="enable-background:new 0 0 1659.4 424;" xml:space="preserve">
<metadata><?xpacket begin="﻿" id="W5M0MpCehiHzreSzNTczkc9d"?>
<x:xmpmeta xmlns:x="adobe:ns:meta/" x:xmptk="Adobe XMP Core 5.6-c143 79.161210, 2017/08/11-10:28:36        ">
   <rdf:RDF xmlns:rdf="http://www.w3.org/1999/02/22-rdf-syntax-ns#">
      <rdf:Description rdf:about=""/>
   </rdf:RDF>
</x:xmpmeta>
                                                                                                    
                                                                                                    
                                                                                                    
                                                                                                    
                                                                                                    
                                                                                                    
                                                                                                    
                                                                                                    
                                                                                                    
                                                                                                    
                                                                                                    
                                                                                                    
                                                                                                    
                                                                                                    
                                                                                                    
                                                                                                    
                                                                                                    
                                                                                                    
                                                                                                    
                                                                                                    
                           
<?xpacket end="w"?></metadata>
<style type="text/css">
	.st0{fill:#C7C9C7;stroke:#B1B3B3;stroke-miterlimit:10;}
	.st1{fill:#333F48;}
	.st2{fill:#212322;}
	.st3{fill:#444445;}
	.st4{fill:none;}
	.st5{fill:#DA291C;}
	.st6{fill:#B1B3B3;}
	.st7{fill:#101820;}
	.st8{fill:#FA4616;}
	.st9{fill:#878787;}
	.st10{fill:#151515;}
	.st11{opacity:0.7;enable-background:new    ;}
	.st12{fill:none;stroke:#000000;stroke-width:2;stroke-miterlimit:10;}
</style>
<g id="Mål_9_">
</g>
<g id="Farger_9_">
	<g id="Grunnfarge_5_">
		<path class="st0" d="M1414,90.1l-4.7-0.1v-5.5h-299.5v5.6H951v-5.6H782.1v5.6h-88.4l-132,12.3H1L0.8,298.3l1327.5,1.8l161.9-0.9
			c0,0,87.6,1.6,128.5,6.1c0,0-35.5-190.8-204.7-221.2L1414,90.1z"/>
		<path class="st1" d="M1313.9,300.3H0.8v69.2c0,0,93.4,0,98.1,0s6.5,2.5,6.5,2.5v6.2l2.1,2.1h1000.7c0,0,2-1.8,5-4.3
			c7-6,19.3-16.3,23.1-18.6c18.9-11,35.7-10.6,35.6-11.2c-0.9-5.8,3.8-5.1,3.8-5.1s52.5-0.1,58.1-0.1s41,0,41,0s40.2-0.2,48.5-0.2
			c5.9,0,4.3,6.6,4.3,6.6s29.5,0.6,33.3,3.1c3.9,2.7,27.5,13.6,31.4,16.4c2.7,1.9,24.3,14.4,27.3,16.1c3,1.7,4.6,1.6,4.6,1.6
			s56.2,0.1,59.7,0s4.6-1.9,4.6-1.9s9.5-18.6,10.4-20.4c0.9-1.8,2.4-1.5,2.4-1.5c7.9-1.5,109.6,2.4,111,2.1c1.4-0.3,3.4-7.6,3.4-7.6
			s-7.2,0-10.7,0s-2.9-2.7-2.9-2.7c2.5-6.4,6.6-25.5,7.3-29.6s4.7-3.5,4.7-3.5h6.9v-7c-4.4-2.7-8.2-8.4-8.2-8.4
			c-111.7-7-200.6-6-200.6-6L1313.9,300.3z"/>
		<path class="st2" d="M1417.3,390.5c0,0-5.4-1.7-6.3-2c-0.9-0.2-1.7-1.5-1.7-1.5l-2.6-12.4l-0.4-0.2c-3.9-2.5-34.1-21.8-46.6-24.3
			c-10.5-2.1-23.9-2.9-29.8-3l-0.5-1.4l-0.2-2.1c0,0-0.6-2.9-2.8-2.9c-2.2,0-150.7,0-150.7,0s-3,0.9-3,2.9s0,2.7,0,2.7
			c-12.4,0-29.3,8-29.3,8s-6.2,2.1-17,10.9c-10.5,8.6-11.7,10.5-12.5,11.9c-1.5,2.8-1.6,4.3-1.6,4.3l-0.6,5.5c0,0-0.8,1.2-1.7,1.5
			c-0.9,0.2-6.3,2-6.3,2l-4.3,0.1v11.4h18.2c0,0,3.1,0.5,4.4-4.8c0.9-3.8,3.4-17.3,4.7-24.7l4.6-1.8c-1.3,3.7-2,7.7-2,11.9
			c0,20,16.2,36.2,36.2,36.2c12.3,0,23.1-6.1,29.6-15.5h28.3l5.6-3.9c4.3,4.3,7.5,3.7,7.5,3.7s39.4,0,45.8,0s9-3.2,9-3.2l4.2-4.1
			l0,0c4,4.1,9.6,6.7,15.7,6.7c4.4,0,8.6-1.3,12-3.6l0,0c5.9,11.8,18.1,19.9,32.3,19.9c20,0,36.2-16.2,36.2-36.2c0-5-1-9.7-2.9-14
			l5.2,1.8c1.2,6.4,4.1,22.7,5.1,26.9c1.2,5.3,4.4,4.8,4.4,4.8h18.2v-11.4L1417.3,390.5z"/>
		<path class="st2" d="M0.1,369.5h63l0,0h37c0,0,3.9,0.3,5.3,2.5v6.2l2.1,2.1H122v0.3v-0.3c0,0.6,0,1.2,0,1.9c0,19.9-16.1,36-36,36
			c-14.3,0-26.6-8.4-32.4-20.5L43,399l-11.6-3c-9.6,0-31.4,0-31.4,0"/>
		<path class="st3" d="M1530.9,361.3l55.5,7.3c0,0-3.2,9.3,6.7,19.2c9.9,9.9,19.1,15.5,9.9,14.7c-5.3-0.5-21-0.2-33.6,0.1
			c-9.4,0.2-17.1,0.5-17.1,0.5l-60.2-25.5l7.8-15.2c0,0,0.5-1.4,3.3-1.6C1506,360.6,1530.9,361.3,1530.9,361.3z"/>
		<path class="st2" d="M1621.9,319.8l20.7,2.2v31.2l-25.9,2.3H1605c0,0-2.7-0.2-1.8-3.3c0.9-3.1,4.2-13.2,5.2-19.3
			c1-6.1,2.1-10.6,2.4-11s0.8-2.1,4.3-2.1C1618.5,319.8,1621.9,319.8,1621.9,319.8z"/>
		<path class="st3" d="M1620.5,355.3c0,0-1.4,2.4-0.9,3.5s0.2,2.1,0.2,2.1l-2.7,7.9h-0.4c-0.5-4.8-4.1-5.4-4.1-5.4s1.7-0.3,2.4-2.7
			c0.7-2.4,1.6-5.3,1.6-5.3L1620.5,355.3z"/>
		<polygon class="st1" points="962.6,375 962.6,384.8 843.3,384.8 843.3,374.8 958.1,374.8 		"/>
		<polygon class="st1" points="333.6,375 333.6,384.8 214.3,384.8 214.3,374.8 329.2,374.8 		"/>
		<line class="st4" x1="0.8" y1="145.4" x2="0.8" y2="139.4"/>
	</g>
	<g id="Profilering_9_">
		<polygon class="st5" points="1182.4,149.6 0.8,148.9 0.9,189.6 1221.4,188.6 		"/>
		<polygon class="st5" points="1363.8,339.2 1326.5,300.3 981.6,300.3 961.6,300.3 0.8,300.3 0.8,339.2 981.6,339.2 981.6,339.2 		
			"/>
		<g>
			<polygon class="st6" points="1343,317.4 1,317.4 1,310.8 1336.5,310.8 			"/>
		</g>
		<polygon class="st7" points="1221.4,188.6 976.5,188.6 961.2,188.6 1.3,188.6 1.3,300.3 961.2,300.3 976.4,300.3 1326.5,300.3 		
			"/>
		<g>
			<polygon class="st6" points="1351.9,326.9 1282.9,326.9 1282.4,326.3 1129.1,165.6 0.9,165.6 0.9,162.2 1130.5,162.2 1131,162.8 
				1284.4,323.5 1348.7,323.5 			"/>
		</g>
	</g>
	<g id="Dører_og_vinduer_8_">
		<path class="st7" d="M1521.6,262.8c-1.2-11.7-4.5-30.2-13.9-46.1c-8.9-15-25.3-23.9-42.8-24.1c-4.6,0-7.9-0.1-31.2,0
			c-5.9,0-10.8,4.8-10.8,10.7c0,15.7,0,44.8,0,60.4c0,5.9,4.8,10.7,10.7,10.7h77.2C1517.3,274.5,1522.3,269.1,1521.6,262.8z"/>
		<path class="st8" d="M851.6,177.8h102.8c4.5,0,8.1,3.6,8.1,8.1V356c0,4.5-3.6,8.1-8.1,8.1H851.6c-4.5,0-8.1-3.6-8.1-8.1V185.9
			C843.5,181.4,847.1,177.8,851.6,177.8z"/>
		<path class="st9" d="M926.3,194.3h12.3c4.5,0,8.1,3.6,8.1,8.1v87.2c0,4.5-3.6,8.1-8.1,8.1h-12.3c-4.5,0-8.1-3.6-8.1-8.1v-87.2
			C918.2,197.9,921.8,194.3,926.3,194.3z"/>
		<path class="st9" d="M867.2,194.3h12.3c4.5,0,8.1,3.6,8.1,8.1v87.2c0,4.5-3.6,8.1-8.1,8.1h-12.3c-4.5,0-8.1-3.6-8.1-8.1v-87.2
			C859,197.9,862.7,194.3,867.2,194.3z"/>
		<path class="st9" d="M68,197h102.8c4.5,0,8.1,3.6,8.1,8.1V262c0,4.5-3.6,8.1-8.1,8.1H68c-4.5,0-8.1-3.6-8.1-8.1v-56.9
			C59.9,200.8,63.5,197,68,197z"/>
		<path class="st9" d="M1007.8,197h102.8c4.5,0,8.1,3.6,8.1,8.1V262c0,4.5-3.6,8.1-8.1,8.1h-102.8c-4.5,0-8.1-3.6-8.1-8.1v-56.9
			C999.7,200.8,1003.3,197,1007.8,197z"/>
		<path class="st9" d="M537.9,224.8h102.8c4.5,0,8.1,3.6,8.1,8.1v56.9c0,4.5-3.6,8.1-8.1,8.1H537.9c-4.5,0-8.1-3.6-8.1-8.1v-56.9
			C529.8,228.5,533.4,224.8,537.9,224.8z"/>
		<path class="st9" d="M379.8,197.8h102.8c4.5,0,8.1,3.6,8.1,8.1v83.8c0,4.5-3.6,8.1-8.1,8.1H379.8c-4.5,0-8.1-3.6-8.1-8.1v-83.8
			C371.7,201.3,375.4,197.8,379.8,197.8z"/>
		<path class="st9" d="M695.2,197.8H798c4.5,0,8.1,3.6,8.1,8.1v83.8c0,4.5-3.6,8.1-8.1,8.1H695.2c-4.5,0-8.1-3.6-8.1-8.1v-83.8
			C687.1,201.3,690.8,197.8,695.2,197.8z"/>
		<path class="st9" d="M1437.3,197h25.5c4.5,0,8.1,3.6,8.1,8.1V262c0,4.5-3.6,8.1-8.1,8.1h-25.5c-4.5,0-8.1-3.6-8.1-8.1v-56.9
			C1429.2,200.8,1432.8,197,1437.3,197z"/>
		<path class="st10" d="M1614.8,305.1l5.7,0.5c0,0,3-3,3.7-3.4c0,0,0.3-32.1-13.8-57.1l-10.4-4c0,0-17.9-38-30.2-51.6
			s-24.4-28.1-29.9-33.8c-5.5-5.7-29.1-26.5-35.6-29.1c0,0-19.3-15-21.6-16.5s-33.7-20.9-57.2-24c0,0-7.7-1.6-8.8-1.5
			c-1.1,0.1-3.5-0.4-3.5,3.7s0,12.8,0,12.8s35.2-4.2,79.4,19.1c44.2,23.2,75.1,70.3,75.1,70.3s26.6,43.5,34.5,66.1
			C1610.1,279.1,1613.8,287.4,1614.8,305.1z"/>
		<path class="st8" d="M222.7,177.8h102.8c4.5,0,8.1,3.6,8.1,8.1V356c0,4.5-3.6,8.1-8.1,8.1H222.7c-4.5,0-8.1-3.6-8.1-8.1V185.9
			C214.6,181.4,218.2,177.8,222.7,177.8z"/>
		<path class="st9" d="M297.4,194.3h12.3c4.5,0,8.1,3.6,8.1,8.1v87.2c0,4.5-3.6,8.1-8.1,8.1h-12.3c-4.5,0-8.1-3.6-8.1-8.1v-87.2
			C289.3,197.9,292.9,194.3,297.4,194.3z"/>
		<path class="st9" d="M238.2,194.3h12.3c4.5,0,8.1,3.6,8.1,8.1v87.2c0,4.5-3.6,8.1-8.1,8.1h-12.3c-4.5,0-8.1-3.6-8.1-8.1v-87.2
			C230.1,197.9,233.8,194.3,238.2,194.3z"/>
		<path class="st11" d="M806.2,225.6h-119v-19.7c0-4.5,3.6-8.1,8.1-8.1h102.8c4.5,0,8.1,3.7,8.1,8.1L806.2,225.6L806.2,225.6z"/>
		<path class="st11" d="M491.1,225.6h-119v-19.7c0-4.5,3.6-8.1,8.1-8.1H483c4.5,0,8.1,3.7,8.1,8.1V225.6z"/>
	</g>
</g>
<g id="Omriss_9_">
	<circle class="st12" cx="87.2" cy="382.5" r="8.8"/>
	<path class="st12" d="M51.7,388c2.7,17.2,17.5,30.4,35.5,30.4c19.9,0,36-16.1,36-36c0-0.6,0-1.3,0-1.9"/>
	<path class="st12" d="M116.2,380.5c0,0.6,0.1,1.3,0.1,1.9c0,16.1-13,29.1-29.1,29.1S58,398.5,58,382.5c0-0.7,0-1.4,0.1-2.1"/>
	<polyline class="st12" points="54.8,397.8 44.2,399.1 32.6,396.1 	"/>
	<circle class="st12" cx="1355.6" cy="382.5" r="8.8"/>
	<path class="st12" d="M1323.3,398.6c-3.4,2.3-7.5,3.6-12,3.6c-6.2,0-11.7-2.5-15.7-6.7"/>
	<circle class="st12" cx="1165.7" cy="382.5" r="8.8"/>
	<polyline class="st12" points="63.3,369.8 1,369.8 1,102.5 385.3,102.5 561.7,102.5 690.8,90.6 781.9,90.6 1412.4,90.6 	"/>
	<path class="st12" d="M1328.8,347.4v-3.9c0,0,0.1-2.3-2.1-2.3s-150.5,0-150.5,0s-3.2,0.3-3.2,2.3s0,3,0,3s13.2,0,19.9,0
		c6.7,0,10.8,4.2,10.8,4.2l18.7,19l6.6,6.4c6,6.1,13,5.7,13,5.7h8.4h19.3c18.9,0.3,21.7-4.3,21.7-4.3s20.3-21.6,25.6-26.2
		c5.3-4.6,9.2-3.9,9.2-3.9s20.2,0,33.6,2.7c13.4,2.7,55,29.6,55,29.6"/>
	<path class="st12" d="M1406.9,374.8l2.6,12.4c0,0,0.8,1.2,1.7,1.5c0.9,0.2,6.3,2,6.3,2l4.3,0.1V402h-18.2c0,0-3.1,0.5-4.4-4.8
		c-1.2-5.3-5.6-29.6-5.6-29.6"/>
	<path class="st12" d="M1127.4,369.8c-1.1,6.3-4.1,22.9-5.1,27.2c-1.2,5.3-4.4,4.8-4.4,4.8h-18.2v-11.4l4.3-0.1c0,0,5.4-1.7,6.3-2
		s1.7-1.5,1.7-1.5l1.9-9.4"/>
	<path class="st12" d="M1321.9,369.2c-1.6,4.1-2.5,8.5-2.5,13.1c0,5.8,1.4,11.4,3.9,16.3c5.9,11.8,18.1,19.9,32.3,19.9
		c20,0,36.2-16.2,36.2-36.2c0-5.9-1.4-11.5-4-16.4l0,0"/>
	<polyline class="st12" points="1343.9,348.1 1343.9,348.1 1343.9,348.1 	"/>
	<path class="st12" d="M1334.8,362c-2,2-3.6,4.3-5,6.7c-2.2,4.1-3.4,8.8-3.4,13.7c0,4,0.8,7.8,2.2,11.2
		c4.4,10.5,14.8,17.9,26.9,17.9c16.1,0,29.1-13,29.1-29.1c0-7.6-3-14.7-7.8-19.9"/>
	<path class="st12" d="M1133.2,366.5c-2.4,4.8-3.7,10.2-3.7,15.9c0,20,16.2,36.2,36.2,36.2s36.1-16.2,36.1-36.2
		c0-4.5-0.8-8.8-2.3-12.8l0,0"/>
	<path class="st12" d="M1144.8,362.1c-5.2,5.2-8.3,12.4-8.3,20.3c0,16.1,13,29.1,29.1,29.1s29.1-13,29.1-29.1
		c0-8.1-3.3-15.4-8.6-20.7"/>
	<path class="st12" d="M1130.9,361.5c0,0,16.5-12.8,42.2-15"/>
	<polyline class="st12" points="1410,90.6 1410,84.7 1110.5,84.7 1110.5,90.6 	"/>
	<polyline class="st12" points="951.7,90.6 951.7,84.7 782.8,84.7 782.8,90.6 	"/>
	<rect x="1370.7" y="104.1" class="st12" width="26.4" height="39.5"/>
	<rect x="1314.4" y="113.3" class="st12" width="37.3" height="19.4"/>
	<rect x="1177.2" y="104.6" class="st12" width="90.8" height="39.5"/>
	<rect x="1078.3" y="104.6" class="st12" width="90.8" height="39.5"/>
	<rect x="849.1" y="104.6" class="st12" width="52.7" height="39.5"/>
	<rect x="725" y="104.6" class="st12" width="52.7" height="39.5"/>
	<line class="st12" x1="1412.1" y1="148.8" x2="1" y2="148.8"/>
	<path class="st12" d="M1007.6,197.3h102.8c4.5,0,8.1,3.6,8.1,8.1v56.9c0,4.5-3.6,8.1-8.1,8.1h-102.8c-4.5,0-8.1-3.6-8.1-8.1v-56.9
		C999.5,200.9,1003.2,197.3,1007.6,197.3z"/>
	<path class="st12" d="M537.7,224.8h102.8c4.5,0,8.1,3.6,8.1,8.1v56.9c0,4.5-3.6,8.1-8.1,8.1H537.7c-4.5,0-8.1-3.6-8.1-8.1v-56.9
		C529.6,228.5,533.2,224.8,537.7,224.8z"/>
	<path class="st12" d="M68.2,197H171c4.5,0,8.1,3.6,8.1,8.1V262c0,4.5-3.6,8.1-8.1,8.1H68.2c-4.5,0-8.1-3.6-8.1-8.1v-56.9
		C60,200.8,63.7,197,68.2,197z"/>
	<path class="st12" d="M380.4,197.9h102.8c4.5,0,8.1,3.6,8.1,8.1v83.8c0,4.5-3.6,8.1-8.1,8.1H380.4c-4.5,0-8.1-3.6-8.1-8.1V206
		C372.3,201.5,375.9,197.9,380.4,197.9z"/>
	<line class="st12" x1="486.9" y1="225.8" x2="376.8" y2="225.8"/>
	<path class="st12" d="M695.1,197.9h102.8c4.5,0,8.1,3.6,8.1,8.1v83.8c0,4.5-3.6,8.1-8.1,8.1H695.1c-4.5,0-8.1-3.6-8.1-8.1V206
		C687,201.5,690.7,197.9,695.1,197.9z"/>
	<line class="st12" x1="801.7" y1="225.8" x2="691.6" y2="225.8"/>
	<path class="st12" d="M953.7,178H850.9c-4.5,0-8.1,3.6-8.1,8.1v170.1c0,4.5,3.6,8.1,8.1,8.1h102.8c4.5,0,8.1-3.6,8.1-8.1V186.1
		C961.8,181.6,958.2,178,953.7,178z"/>
	<path class="st12" d="M879,194.5h-12.3c-4.5,0-8.1,3.6-8.1,8.1v87.2c0,4.5,3.6,8.1,8.1,8.1H879c4.5,0,8.1-3.6,8.1-8.1v-87.2
		C887.1,198.1,883.5,194.5,879,194.5z"/>
	<path class="st12" d="M938.1,194.5h-12.3c-4.5,0-8.1,3.6-8.1,8.1v87.2c0,4.5,3.6,8.1,8.1,8.1h12.3c4.5,0,8.1-3.6,8.1-8.1v-87.2
		C946.2,198.1,942.6,194.5,938.1,194.5z"/>
	<line class="st12" x1="903.9" y1="176.9" x2="903.9" y2="358.3"/>
	<polyline class="st12" points="849.1,364.3 849.1,358.3 955.6,358.3 955.6,364.3 	"/>
	<polygon class="st12" points="842.3,375.1 842.3,385 961.6,385 961.6,375 846.7,375 	"/>
	<circle class="st12" cx="894.2" cy="284.6" r="2.4"/>
	<path class="st12" d="M326.2,178H223.5c-4.5,0-8.1,3.6-8.1,8.1v170.1c0,4.5,3.6,8.1,8.1,8.1h102.8c4.5,0,8.1-3.6,8.1-8.1V186.1
		C334.3,181.6,330.7,178,326.2,178z"/>
	<path class="st12" d="M251.5,194.5h-12.3c-4.5,0-8.1,3.6-8.1,8.1v87.2c0,4.5,3.6,8.1,8.1,8.1h12.3c4.5,0,8.1-3.6,8.1-8.1v-87.2
		C259.7,198.1,256,194.5,251.5,194.5z"/>
	<path class="st12" d="M310.7,194.5h-12.3c-4.5,0-8.1,3.6-8.1,8.1v87.2c0,4.5,3.6,8.1,8.1,8.1h12.3c4.5,0,8.1-3.6,8.1-8.1v-87.2
		C318.8,198.1,315.1,194.5,310.7,194.5z"/>
	<line class="st12" x1="276.5" y1="176.9" x2="276.5" y2="358.3"/>
	<polyline class="st12" points="220.9,364.3 220.9,358.3 327.5,358.3 327.5,364.3 	"/>
	<polygon class="st12" points="214.2,375.1 214.2,385 333.5,385 333.5,375 218.6,375 	"/>
	<circle class="st12" cx="266.7" cy="284.6" r="2.4"/>
	<path class="st12" d="M0.2,396.1c0,0,27.9,0,34.3,0s7.9-1.9,7.9-1.9s3.8-2.9,5.6-4.7s2.9-1.6,2.9-1.6h2.7v-5.7c0,0-0.1-2.3,2.2-2.3
		s2.3,2.1,2.3,2.3h4.5c0-12.3,0.6-12.5,0.6-12.5h37c0,0,4,0.3,5.4,2.5v6.2l2.1,2.1h14.5h980.1h5.4l5.2-3l13.5-7.7l5.9-3.4
		c0,0,2.2-1.3,3.3-1.9s4.3-1.4,5-1.7c0.9-0.4,2-0.6,3.3-0.8c3.1-0.5,6.5-0.4,6.5-0.4s27.6,0,34.8,0c0.6,0,1,0,1.3,0
		c3.9,0,7.2,3.1,7.2,3.1s1.9,1.9,4.7,4.8l0,0c8.7,8.7,26.4,26.4,29.7,29.6c4.3,4.3,7.5,3.7,7.5,3.7s39.4,0,45.8,0s9-3.2,9-3.2
		l1.8-1.8c1.3-1.3,20.5-20.6,28.6-28.6c1.9-1.9,3.3-3.3,3.9-3.9c0.3-0.3,0.5-0.5,0.8-0.7c3.4-2.8,6.9-2.7,6.9-2.7s0.5,0,1.3,0
		c5.8,0,28.4,0,33,0c4.4,0,7.9,0.4,9,0.6c0.2,0,0.4,0.1,0.4,0.1l10.5,3.3l0,0l9.8,3.1"/>
	<g>
		<line class="st12" x1="1390.8" y1="104.2" x2="1390.8" y2="143.6"/>
		<line class="st12" x1="1383.9" y1="104.2" x2="1383.9" y2="143.6"/>
		<line class="st12" x1="1377" y1="104.2" x2="1377" y2="143.6"/>
	</g>
	<g>
		<line class="st12" x1="1260.9" y1="104.2" x2="1260.9" y2="143.6"/>
		<line class="st12" x1="1254" y1="104.2" x2="1254" y2="143.6"/>
		<line class="st12" x1="1247.1" y1="104.2" x2="1247.1" y2="143.6"/>
	</g>
	<g>
		<line class="st12" x1="1240" y1="104.2" x2="1240" y2="143.6"/>
		<line class="st12" x1="1233.1" y1="104.2" x2="1233.1" y2="143.6"/>
		<line class="st12" x1="1226.2" y1="104.2" x2="1226.2" y2="143.6"/>
	</g>
	<g>
		<line class="st12" x1="1219.1" y1="104.2" x2="1219.1" y2="143.6"/>
		<line class="st12" x1="1212.2" y1="104.2" x2="1212.2" y2="143.6"/>
		<line class="st12" x1="1205.3" y1="104.2" x2="1205.3" y2="143.6"/>
	</g>
	<g>
		<line class="st12" x1="1198.2" y1="104.2" x2="1198.2" y2="143.6"/>
		<line class="st12" x1="1191.3" y1="104.2" x2="1191.3" y2="143.6"/>
		<line class="st12" x1="1184.4" y1="104.2" x2="1184.4" y2="143.6"/>
	</g>
	<g>
		<g>
			<line class="st12" x1="1162" y1="104.6" x2="1162" y2="144.1"/>
			<line class="st12" x1="1155" y1="104.6" x2="1155" y2="144.1"/>
			<line class="st12" x1="1148.1" y1="104.6" x2="1148.1" y2="144.1"/>
		</g>
		<g>
			<line class="st12" x1="1141.1" y1="104.6" x2="1141.1" y2="144.1"/>
			<line class="st12" x1="1134.2" y1="104.6" x2="1134.2" y2="144.1"/>
			<line class="st12" x1="1127.2" y1="104.6" x2="1127.2" y2="144.1"/>
		</g>
		<g>
			<line class="st12" x1="1120.2" y1="104.6" x2="1120.2" y2="144.1"/>
			<line class="st12" x1="1113.3" y1="104.6" x2="1113.3" y2="144.1"/>
			<line class="st12" x1="1106.4" y1="104.6" x2="1106.4" y2="144.1"/>
		</g>
		<g>
			<line class="st12" x1="1099.3" y1="104.6" x2="1099.3" y2="144.1"/>
			<line class="st12" x1="1092.4" y1="104.6" x2="1092.4" y2="144.1"/>
			<line class="st12" x1="1085.5" y1="104.6" x2="1085.5" y2="144.1"/>
		</g>
	</g>
	<rect x="368.7" y="104.6" class="st12" width="90.8" height="39.5"/>
	<g>
		<g>
			<line class="st12" x1="452.4" y1="104.6" x2="452.4" y2="144.1"/>
			<line class="st12" x1="445.5" y1="104.6" x2="445.5" y2="144.1"/>
			<line class="st12" x1="438.6" y1="104.6" x2="438.6" y2="144.1"/>
		</g>
		<g>
			<line class="st12" x1="431.5" y1="104.6" x2="431.5" y2="144.1"/>
			<line class="st12" x1="424.6" y1="104.6" x2="424.6" y2="144.1"/>
			<line class="st12" x1="417.7" y1="104.6" x2="417.7" y2="144.1"/>
		</g>
		<g>
			<line class="st12" x1="410.6" y1="104.6" x2="410.6" y2="144.1"/>
			<line class="st12" x1="403.7" y1="104.6" x2="403.7" y2="144.1"/>
			<line class="st12" x1="396.8" y1="104.6" x2="396.8" y2="144.1"/>
		</g>
		<g>
			<line class="st12" x1="389.7" y1="104.6" x2="389.7" y2="144.1"/>
			<line class="st12" x1="382.8" y1="104.6" x2="382.8" y2="144.1"/>
			<line class="st12" x1="375.9" y1="104.6" x2="375.9" y2="144.1"/>
		</g>
	</g>
	<g>
		<g>
			<line class="st12" x1="896.4" y1="104.6" x2="896.4" y2="144.1"/>
			<line class="st12" x1="889.5" y1="104.6" x2="889.5" y2="144.1"/>
			<line class="st12" x1="882.6" y1="104.6" x2="882.6" y2="144.1"/>
		</g>
		<g>
			<line class="st12" x1="875.5" y1="104.6" x2="875.5" y2="144.1"/>
			<line class="st12" x1="868.6" y1="104.6" x2="868.6" y2="144.1"/>
			<line class="st12" x1="861.7" y1="104.6" x2="861.7" y2="144.1"/>
		</g>
		<g>
			<line class="st12" x1="854.6" y1="104.6" x2="854.6" y2="144.1"/>
		</g>
	</g>
	<g>
		<g>
			<line class="st12" x1="772.3" y1="104.6" x2="772.3" y2="144.1"/>
			<line class="st12" x1="765.4" y1="104.6" x2="765.4" y2="144.1"/>
			<line class="st12" x1="758.4" y1="104.6" x2="758.4" y2="144.1"/>
		</g>
		<g>
			<line class="st12" x1="751.4" y1="104.6" x2="751.4" y2="144.1"/>
			<line class="st12" x1="744.5" y1="104.6" x2="744.5" y2="144.1"/>
			<line class="st12" x1="737.6" y1="104.6" x2="737.6" y2="144.1"/>
		</g>
		<g>
			<line class="st12" x1="730.5" y1="104.6" x2="730.5" y2="144.1"/>
		</g>
	</g>
	<path class="st12" d="M1413,298.6c0,0,172.2,0.6,207.7,7.3c0,0,1.1-1.5,3-3.1c0,0,3.2-20.9-13.1-57.2l-10.8-4.2
		c0,0-58.4-141-186.8-140.4"/>
	<path class="st12" d="M1530.9,361.5l55.5,7.3c0,0-3.2,9.3,6.7,19.2c9.9,9.9,19.1,15.5,9.9,14.7c-5.3-0.5-21-0.2-33.6,0.1
		c-9.4,0.2-17.1,0.5-17.1,0.5l-60.2-25.5"/>
	<path class="st12" d="M1436.6,197.3h26.1c4.5,0,8.1,3.6,8.1,8.1v56.9c0,4.5-3.6,8.1-8.1,8.1h-26.1c-4.5,0-8.1-3.6-8.1-8.1v-56.9
		C1428.5,200.9,1432.2,197.3,1436.6,197.3z"/>
	<path class="st12" d="M1492.5,120.6c0,0,46.4,20.9,84.3,85.5s37.4,94.9,37.6,98.3c0.2,3.5,7.4,8.6,7.4,8.6c0.2,0.5,0,7,0,7h-7.9
		c0,0-3.2-0.4-3.8,4.2c-0.6,4.6-3.4,17.8-5.8,24.3c-2.4,6.5-1.5,7.2,1.6,7.2s10.7,0,10.7,0l-0.5,1.5c0,0-0.9,2.6-1.6,4.6
		c-0.4,1.2-1.5,1.9-2.7,1.8c-14.4-1.3-96.8-2.3-109.6-2.4c-1,0-1.9,0.6-2.4,1.5l-10.7,20.9c-0.5,0.9-1.4,1.5-2.4,1.5h-62.6
		c-0.5,0-0.9-0.1-1.3-0.4l-8.6-5c-0.8-0.5-1.3-1.4-1.3-2.3v-290c0-1.6,1.4-2.8,3-2.6c10.8,1.4,49.6,8.4,87.5,42.1"/>
	<path class="st12" d="M1611.6,277.3c0,0,7.9,5.7,9.3,8.6c0,0,1.7,9,1.3,11.9c0,0-3.6-2.5-7-3.3
		C1615.1,294.4,1614.1,284.3,1611.6,277.3z"/>
	<polyline class="st12" points="1621.8,319.9 1642.5,322.1 1642.5,353.5 1616.6,355.6 	"/>
	<path class="st12" d="M1572.3,402.5c-3.5-1.9-35.1-18-42.7-25.3c-5-4.9-6.8-9.5-6.3-15.7"/>
	<path class="st12" d="M1612.4,363.5c0,0,3.6,0.6,4.1,5.4h0.4l2.7-7.9c0,0,0.3-1-0.2-2.1s0.9-3.5,0.9-3.5"/>
</g>
</svg>
