<?xml version="1.0" encoding="utf-8"?>
<!-- Generator: Adobe Illustrator 22.0.1, SVG Export Plug-In . SVG Version: 6.00 Build 0)  -->
<svg version="1.1" id="Type_75_1_" xmlns="http://www.w3.org/2000/svg" xmlns:xlink="http://www.w3.org/1999/xlink" x="0px" y="0px"
	 viewBox="0 0 1663.5 428" style="enable-background:new 0 0 1663.5 428;" xml:space="preserve">
<metadata><?xpacket begin="﻿" id="W5M0MpCehiHzreSzNTczkc9d"?>
<x:xmpmeta xmlns:x="adobe:ns:meta/" x:xmptk="Adobe XMP Core 5.6-c143 79.161210, 2017/08/11-10:28:36        ">
   <rdf:RDF xmlns:rdf="http://www.w3.org/1999/02/22-rdf-syntax-ns#">
      <rdf:Description rdf:about=""/>
   </rdf:RDF>
</x:xmpmeta>
                                                                                                    
                                                                                                    
                                                                                                    
                                                                                                    
                                                                                                    
                                                                                                    
                                                                                                    
                                                                                                    
                                                                                                    
                                                                                                    
                                                                                                    
                                                                                                    
                                                                                                    
                                                                                                    
                                                                                                    
                                                                                                    
                                                                                                    
                                                                                                    
                                                                                                    
                                                                                                    
                           
<?xpacket end="w"?></metadata>
<style type="text/css">
	.st0{fill:#333F48;}
	.st1{fill:#212322;}
	.st2{fill:#444445;}
	.st3{fill:#C7C9C7;}
	.st4{fill:#DA291C;}
	.st5{fill:#101820;}
	.st6{fill:#B1B3B3;}
	.st7{fill:#878787;}
	.st8{fill:#FA4616;}
	.st9{fill:none;stroke:#000000;stroke-width:2;stroke-miterlimit:10;}
</style>
<g id="Mål_10_">
</g>
<g>
	<g id="Farger_10_">
		<g id="Grunnfarge_6_">
			<path class="st0" d="M0,309.2v69.5c0,0,82.2,0,86.9,0c3,0,6.2-0.2,8.1-0.3c1.1-0.1,2.2,0,3.3,0.2l1.9,0.4c1.7,0.3,3.2,1,4.6,2
				l1.1,8.1h999.6c0,0,24.1-19.5,29.7-22.7c19-11.1,35.8-10.6,35.7-11.3c-0.9-5.8,3.8-5.2,3.8-5.2s52.7-0.1,58.3-0.1
				c5.6,0,41.2,0,41.2,0s40.4-0.2,48.7-0.2c5.9,0,4.4,6.7,4.4,6.7s29.6,0.6,33.4,3.2c3.9,2.7,27.6,13.7,31.6,16.5
				c2.7,1.9,24.4,14.4,27.4,16.2s4.6,1.6,4.6,1.6s56.4,0.1,59.9,0s4.6-1.9,4.6-1.9s9.5-18.7,10.4-20.5s2.4-1.5,2.4-1.5
				c8-1.5,110,2.5,111.5,2.2c1.4-0.3,3.4-7.6,3.4-7.6s-7.2,0-10.7,0s-2.9-2.7-2.9-2.7c2.5-6.4,6.6-25.6,7.3-29.7
				c0.7-4.1,4.7-3.5,4.7-3.5h6.9v-7c-4.4-2.7-8.2-8.4-8.2-8.4c-112.1-7.1-201.5-6-201.5-6l-86,1.9H0V309.2z"/>
			<path class="st1" d="M0,378.7h63l0,0h37.2c0,0,5.3-0.5,5.7,10.3l6.8,0.7l9.5-0.2v0.3v-0.3c0,0.6,0,1.2,0,1.9
				c0,19.9-16.2,36.1-36.1,36.1c-14.4,0-26.7-8.4-32.5-20.6L43,408.1l-11.6-3c-9.6,0-31.1,0-31.1,0"/>
			<polygon class="st0" points="332.1,384.3 332.1,394.1 212.2,394.1 212.2,384.2 327.6,384.2 			"/>
			<polygon class="st0" points="958.1,384.4 958.1,394.2 838.3,394.2 838.3,384.3 953.7,384.3 			"/>
			<path class="st1" d="M1416.4,399.7c0,0-5.4-1.7-6.3-2s-1.7-1.5-1.7-1.5l-2.6-12.4l-0.4-0.2c-3.9-2.5-34.3-21.9-46.8-24.4
				c-10.5-2.1-25.2-2.6-31.1-2.7h-0.1v-3.9c0,0,0.1-2.3-2.1-2.3s-151.3,0-151.3,0s-3.2,0.3-3.2,2.3s0,3,0,3
				c-12.5,0-29.5,7.8-29.5,7.8s-5.6,1.6-17.3,9.3c-11.1,7.3-10.8,6-11.6,7.3c-1.5,2.8-2.2,10.5-2.2,10.5l-0.6,5.5
				c0,0-0.8,1.2-1.7,1.5c-0.9,0.2-6.3,2-6.3,2l-4.3,0.1v11.5h18.3c0,0,3.1,0.5,4.4-4.9c0.9-3.8,3.4-17.3,6.5-30.1l4.7-1.8
				c-3.1,9.1-3.8,13.1-3.8,17.3c0,20,16.2,36.3,36.3,36.3c12.3,0,23.2-6.1,29.7-15.5h28.4l5.6-3.9c4.3,4.3,7.5,3.7,7.5,3.7
				s39.6,0,46,0s9.1-3.2,9.1-3.2l4.2-4.1l0,0c4,4.1,9.6,6.7,15.8,6.7c4.4,0,8.6-1.3,12-3.6l0,0c6,11.9,18.2,20,32.4,20
				c20.1,0,36.3-16.3,36.3-36.3c0-5-1-9.7-3-16.7l5.2,1.8c1.3,9.1,4.3,25.5,5.3,29.7c1.3,5.3,4.4,4.8,4.4,4.8h18.3v-11.5
				L1416.4,399.7z"/>
			<path class="st2" d="M1530.5,370.6l55.7,7.4c0,0-3.2,9.3,6.7,19.3c10,9.9,19.2,15.6,9.9,14.7c-5.3-0.5-21.1-0.2-33.7,0.1
				c-9.5,0.2-17.2,0.5-17.2,0.5l-60.4-25.6l7.9-15.3c0,0,0.5-1.4,3.3-1.6C1505.5,369.8,1530.5,370.6,1530.5,370.6z"/>
			<path class="st1" d="M1621.9,328.8l20.8,2.2v31.4l-26,2.3h-11.8c0,0-2.7-0.2-1.8-3.3c0.9-3.1,4.2-13.3,5.2-19.4s2.1-10.6,2.4-11
				s0.8-2.1,4.3-2.1C1618.5,328.8,1621.9,328.8,1621.9,328.8z"/>
			<path class="st1" d="M1620.4,364.5c0,0-1.4,2.5-0.9,3.6s0.2,2.1,0.2,2.1l-2.7,8h-0.4c-0.5-4.8-4.1-5.4-4.1-5.4s1.7-0.3,2.4-2.7
				c0.7-2.4,1.6-5.3,1.6-5.3L1620.4,364.5z"/>
			<path class="st3" d="M1412.9,98.2h-4.4v-5.4h-300.8v5.4H948.1v-5.4H778.5v5.4h-89.1l-131,11.5H0v199.6l1326.9-0.2l162.6-0.9
				c0,0,88,1.6,129.1,6.1c0,0-34.5-185-204.4-215.5L1412.9,98.2z"/>
		</g>
		<g id="Profilering_10_">
			<polygon class="st4" points="1182.6,158.4 0.4,157.7 0.4,198.5 1221.9,197.6 			"/>
			<polygon class="st4" points="1360.7,347.9 1323.3,308.7 786.7,308.7 786.7,309.2 0,309.2 0,348.4 838.9,348.4 838.9,347.9 			"/>
			<polygon class="st5" points="1220.7,197.1 979.5,197.1 959.3,197.1 0,197.1 0,309.2 959.3,309.2 979.5,309.2 1326.2,309.2 			"/>
			<g>
				<polygon class="st6" points="1351.2,335.9 1282.4,335.9 1281.9,335.4 1127.9,173.9 -0.4,173.9 -0.4,170.6 1129.3,170.6 
					1129.8,171.1 1283.9,332.6 1348,332.6 				"/>
			</g>
			<g>
				<polygon class="st6" points="1342.2,326.5 0,326.5 0,319.7 1335.7,319.7 				"/>
			</g>
		</g>
		<g id="Dører_og_vinduer_9_">
			<path class="st7" d="M66.6,204.8h103.2c4.5,0,8.1,3.7,8.1,8.1V270c0,4.5-3.7,8.1-8.1,8.1H66.6c-4.5,0-8.1-3.7-8.1-8.1v-57.1
				C58.5,208.5,62.1,204.8,66.6,204.8z"/>
			<path class="st7" d="M377.8,205.9H481c4.5,0,8.1,3.7,8.1,8.1v84.2c0,4.5-3.7,8.1-8.1,8.1H377.8c-4.5,0-8.1-3.7-8.1-8.1V214
				C369.7,209.5,373.3,205.9,377.8,205.9z"/>
			<path d="M489.2,233.8H369.7V214c0-4.5,3.6-8.2,8.1-8.2H481c4.5,0,8.2,3.7,8.2,8.2V233.8z"/>
			<path class="st7" d="M535.9,233.2h103.2c4.5,0,8.1,3.7,8.1,8.1v57.1c0,4.5-3.7,8.1-8.1,8.1H535.9c-4.5,0-8.1-3.7-8.1-8.1v-57.1
				C527.8,236.8,531.4,233.2,535.9,233.2z"/>
			<path class="st7" d="M693.5,205.9h103.2c4.5,0,8.1,3.7,8.1,8.1v84.2c0,4.5-3.7,8.1-8.1,8.1H693.5c-4.5,0-8.1-3.7-8.1-8.1V214
				C685.4,209.5,689.1,205.9,693.5,205.9z"/>
			<path d="M805.8,233.8H686.3V214c0-4.5,3.6-8.2,8.1-8.2h103.2c4.5,0,8.2,3.7,8.2,8.2V233.8z"/>
			<path class="st7" d="M1005.1,206.1h103.2c4.5,0,8.1,3.7,8.1,8.1v57.1c0,4.5-3.7,8.1-8.1,8.1h-103.2c-4.5,0-8.1-3.7-8.1-8.1v-57.1
				C997,209.8,1000.6,206.1,1005.1,206.1z"/>
			<path class="st8" d="M846.8,186.8H950c4.5,0,8.1,3.7,8.1,8.1v170.9c0,4.5-3.7,8.1-8.1,8.1H846.8c-4.5,0-8.1-3.7-8.1-8.1V194.9
				C838.7,190.4,842.3,186.8,846.8,186.8z"/>
			<path class="st7" d="M921.8,203.3h12.4c4.5,0,8.1,3.7,8.1,8.1V299c0,4.5-3.7,8.1-8.1,8.1h-12.4c-4.5,0-8.1-3.7-8.1-8.1v-87.6
				C913.7,207,917.3,203.3,921.8,203.3z"/>
			<path class="st7" d="M862.4,203.3h12.4c4.5,0,8.1,3.7,8.1,8.1V299c0,4.5-3.7,8.1-8.1,8.1h-12.4c-4.5,0-8.1-3.7-8.1-8.1v-87.6
				C854.3,207,858,203.3,862.4,203.3z"/>
			<path class="st8" d="M221.9,186.8h103.2c4.5,0,8.1,3.7,8.1,8.1v170.9c0,4.5-3.7,8.1-8.1,8.1H221.9c-4.5,0-8.1-3.7-8.1-8.1V194.9
				C213.8,190.4,217.4,186.8,221.9,186.8z"/>
			<path class="st7" d="M296.9,203.3h12.4c4.5,0,8.1,3.7,8.1,8.1V299c0,4.5-3.7,8.1-8.1,8.1h-12.4c-4.5,0-8.1-3.7-8.1-8.1v-87.6
				C288.8,207,292.4,203.3,296.9,203.3z"/>
			<path class="st7" d="M237.5,203.3h12.4c4.5,0,8.1,3.7,8.1,8.1V299c0,4.5-3.7,8.1-8.1,8.1h-12.4c-4.5,0-8.1-3.7-8.1-8.1v-87.6
				C229.4,207,233.1,203.3,237.5,203.3z"/>
			<path class="st5" d="M1521.2,271.6c-1.2-11.8-4.5-30.4-13.9-46.3c-9-15.1-25.5-24.1-43-24.2c-4.6,0-8-0.1-31.3,0
				c-6,0-10.8,4.8-10.8,10.8c0,15.8,0,44.9,0,60.7c0,6,4.8,10.8,10.8,10.8h77.5C1516.8,283.4,1521.8,277.9,1521.2,271.6z"/>
			<path class="st5" d="M1614.8,314.1l5.7,0.5c0,0,3.1-3,3.7-3.4c0,0,0.3-32.3-13.8-57.3l-10.5-4c0,0-20.7-36.4-30.9-51.3
				c-10.4-15.2-24-28.8-29.5-34.5s-29.2-26.6-35.8-29.2c0,0-19.4-15-21.7-16.6c-2.2-1.6-33.8-21-57.5-24.1c0,0-7.7-1.6-8.8-1.5
				c-1.1,0.1-3.5-0.4-3.5,3.7c0,4.1,0,12.9,0,12.9s35.3-4.2,79.8,19.1s74.5,71.1,74.5,71.1s27.7,43.1,35.6,65.8
				S1613.7,296.4,1614.8,314.1z"/>
			<path class="st7" d="M1436.5,205.5h25.6c4.5,0,8.1,3.7,8.1,8.1v57.2c0,4.5-3.7,8.1-8.1,8.1h-25.6c-4.5,0-8.1-3.7-8.1-8.1v-57.1
				C1428.3,209.2,1432,205.5,1436.5,205.5z"/>
		</g>
	</g>
	<g id="Omriss_10_">
		<circle class="st9" cx="85.6" cy="391.7" r="8.8"/>
		<path class="st9" d="M49.9,397.3c2.7,17.3,17.6,30.5,35.6,30.5c19.9,0,36.1-16.2,36.1-36.1c0-0.6,0-1.3,0-1.9"/>
		<path class="st9" d="M114.8,389.8c0,0.6,0.1,1.3,0.1,1.9c0,16.2-13.1,29.3-29.3,29.3s-29.3-13.1-29.3-29.3c0-0.7,0-1.4,0.1-2.1"/>
		<polyline class="st9" points="53,407.2 42.4,408.5 30.7,405.5 		"/>
		<circle class="st9" cx="1353.7" cy="391.7" r="8.8"/>
		<path class="st9" d="M1321.3,408c-3.4,2.3-7.6,3.6-12,3.6c-6.2,0-11.8-2.6-15.8-6.7"/>
		<circle class="st9" cx="1163" cy="391.7" r="8.8"/>
		<polyline class="st9" points="62.5,378.9 0,378.9 0,110.6 380.2,110.6 557.4,110.6 687,98.7 778.5,98.7 1411.8,98.7 		"/>
		<path class="st9" d="M1326.9,356.6v-3.9c0,0,0.1-2.3-2.1-2.3s-151.1,0-151.1,0s-3.2,0.3-3.2,2.3s0,3,0,3s13.3,0,19.9,0
			c6.7,0,10.9,4.3,10.9,4.3l18.8,19l6.6,6.4c6,6.2,13.1,5.8,13.1,5.8h8.5h19.4c19,0.3,21.8-4.3,21.8-4.3s20.4-21.7,25.8-26.3
			c5.4-4.6,9.2-3.9,9.2-3.9s20.3,0,33.7,2.7c13.4,2.7,55.3,29.7,55.3,29.7"/>
		<path class="st9" d="M1405.3,384l2.6,12.4c0,0,0.8,1.2,1.7,1.5s6.3,2,6.3,2l4.3,0.1v11.5h-18.3c0,0-3.1,0.5-4.4-4.8
			s-5.6-29.7-5.6-29.7"/>
		<path class="st9" d="M1124.5,379c-1.1,6.3-4.1,23-5.2,27.3c-1.2,5.4-4.4,4.9-4.4,4.9h-18.3v-11.4l4.3-0.1c0,0,5.4-1.8,6.3-2
			c0.9-0.3,1.7-1.5,1.7-1.5l2-9.4"/>
		<path class="st9" d="M1319.9,378.5c-1.6,4.1-2.5,8.6-2.5,13.2c0,5.9,1.4,11.4,3.9,16.3c6,11.9,18.2,20,32.4,20
			c20.1,0,36.3-16.3,36.3-36.3c0-6-1.4-11.6-4-16.5l0,0"/>
		<polyline class="st9" points="1342,357.3 1342,357.3 1342.1,357.3 		"/>
		<path class="st9" d="M1332.9,371.1c-2,2-3.6,4.3-5,6.8c-2.2,4.1-3.4,8.8-3.4,13.8c0,4,0.8,7.8,2.3,11.3c4.4,10.5,14.9,18,27,18
			c16.2,0,29.3-13.1,29.3-29.2c0-7.7-3-14.7-7.9-19.9"/>
		<path class="st9" d="M1130.4,375.7c-2.4,4.8-3.7,10.3-3.7,16c0,20,16.2,36.3,36.3,36.3c20,0,36.3-16.3,36.3-36.3
			c0-4.5-0.8-8.9-2.3-12.8"/>
		<path class="st9" d="M1142.1,371.3c-5.2,5.3-8.3,12.5-8.3,20.4c0,16.2,13.1,29.2,29.3,29.2c16.1,0,29.2-13.1,29.2-29.2
			c0-8.1-3.3-15.5-8.7-20.8"/>
		<path class="st9" d="M1128.1,370.8c0,0,16.6-12.8,42.3-15.1"/>
		<polyline class="st9" points="1408.5,98.7 1408.5,92.8 1107.6,92.8 1107.6,98.7 		"/>
		<polyline class="st9" points="948.1,98.7 948.1,92.7 778.5,92.7 778.5,98.7 		"/>
		<rect x="1368.9" y="112.2" class="st9" width="26.5" height="39.7"/>
		<rect x="1312.4" y="121.5" class="st9" width="37.5" height="19.4"/>
		<rect x="1174.6" y="112.6" class="st9" width="91.2" height="39.7"/>
		<rect x="1075.3" y="112.6" class="st9" width="91.2" height="39.7"/>
		<rect x="845.1" y="112.6" class="st9" width="52.9" height="39.7"/>
		<rect x="720.5" y="112.6" class="st9" width="52.9" height="39.7"/>
		<line class="st9" x1="1411.5" y1="157" x2="0" y2="157"/>
		<path class="st9" d="M1004.3,205.8h103.2c4.5,0,8.1,3.7,8.1,8.1V271c0,4.5-3.7,8.1-8.1,8.1h-103.2c-4.5,0-8.1-3.7-8.1-8.1v-57.1
			C996.2,209.4,999.8,205.8,1004.3,205.8z"/>
		<path class="st9" d="M535,233.4h103.2c4.5,0,8.1,3.7,8.1,8.1v57.1c0,4.5-3.7,8.1-8.1,8.1H535c-4.5,0-8.1-3.7-8.1-8.1v-57.1
			C526.9,237.1,530.6,233.4,535,233.4z"/>
		<path class="st9" d="M66.4,205.5h103.2c4.5,0,8.1,3.7,8.1,8.1v57.2c0,4.5-3.7,8.1-8.1,8.1H66.4c-4.5,0-8.1-3.7-8.1-8.1v-57.1
			C58.3,209.2,62,205.5,66.4,205.5z"/>
		<path class="st9" d="M377.1,206.4h103.2c4.5,0,8.1,3.7,8.1,8.1v84.2c0,4.5-3.7,8.1-8.1,8.1H377.1c-4.5,0-8.1-3.7-8.1-8.1v-84.2
			C368.9,210,372.6,206.4,377.1,206.4z"/>
		<line class="st9" x1="484.1" y1="234.3" x2="373.5" y2="234.3"/>
		<path class="st9" d="M693.2,206.4h103.2c4.5,0,8.1,3.7,8.1,8.1v84.2c0,4.5-3.7,8.1-8.1,8.1H693.2c-4.5,0-8.1-3.7-8.1-8.1v-84.2
			C685,210,688.7,206.4,693.2,206.4z"/>
		<line class="st9" x1="800.2" y1="234.3" x2="689.6" y2="234.3"/>
		<path class="st9" d="M950.1,186.4H846.9c-4.5,0-8.1,3.7-8.1,8.1v170.8c0,4.5,3.7,8.1,8.1,8.1h103.2c4.5,0,8.1-3.7,8.1-8.1V194.5
			C958.3,190.1,954.6,186.4,950.1,186.4z"/>
		<path class="st9" d="M875.1,203h-12.4c-4.5,0-8.1,3.7-8.1,8.1v87.6c0,4.5,3.7,8.1,8.1,8.1h12.4c4.5,0,8.1-3.7,8.1-8.1v-87.6
			C883.3,206.6,879.6,203,875.1,203z"/>
		<path class="st9" d="M934.5,203h-12.4c-4.5,0-8.1,3.7-8.1,8.1v87.6c0,4.5,3.7,8.1,8.1,8.1h12.4c4.5,0,8.1-3.7,8.1-8.1v-87.6
			C942.6,206.6,939,203,934.5,203z"/>
		<line class="st9" x1="900.2" y1="185.3" x2="900.2" y2="367.5"/>
		<polyline class="st9" points="845,373.5 845,367.5 952,367.5 952,373.5 		"/>
		<polygon class="st9" points="838.3,384.4 838.3,394.2 958.1,394.2 958.1,384.3 842.7,384.3 		"/>
		<circle class="st9" cx="890.3" cy="293.5" r="2.4"/>
		<path class="st9" d="M324.7,186.4H221.5c-4.5,0-8.1,3.7-8.1,8.1v170.8c0,4.5,3.7,8.1,8.1,8.1h103.2c4.5,0,8.1-3.7,8.1-8.1V194.5
			C332.8,190.1,329.2,186.4,324.7,186.4z"/>
		<path class="st9" d="M249.7,203h-12.4c-4.5,0-8.1,3.7-8.1,8.1v87.6c0,4.5,3.7,8.1,8.1,8.1h12.4c4.5,0,8.1-3.7,8.1-8.1v-87.6
			C257.8,206.6,254.2,203,249.7,203z"/>
		<path class="st9" d="M309.1,203h-12.4c-4.5,0-8.1,3.7-8.1,8.1v87.6c0,4.5,3.7,8.1,8.1,8.1h12.4c4.5,0,8.1-3.7,8.1-8.1v-87.6
			C317.2,206.6,313.5,203,309.1,203z"/>
		<line class="st9" x1="274.7" y1="185.3" x2="274.7" y2="367.5"/>
		<polyline class="st9" points="218.9,373.5 218.9,367.5 325.9,367.5 325.9,373.5 		"/>
		<polygon class="st9" points="212.2,384.4 212.2,394.2 332,394.2 332,384.3 216.6,384.3 		"/>
		<circle class="st9" cx="264.9" cy="293.5" r="2.4"/>
		<path class="st9" d="M0.1,405.5c0,0,27.1,0,33.5,0s8-1.9,8-1.9s3.8-2.9,5.6-4.7s2.9-1.6,2.9-1.6h2.7v-5.7c0,0-0.1-2.3,2.2-2.3
			s2.3,2.2,2.3,2.3h4.5c0-12.3,0.6-12.6,0.6-12.6h37.1c0,0,4,0.3,5.4,2.5v6.2l2.1,2.1h14.5h978.7h5.5l5.3-3l13.5-7.7l5.9-3.4l3.5-2
			l0.2-0.1l-0.2,0.1c2.3-0.7,4.1-1.3,4.9-1.6c0.9-0.4,2.1-0.6,3.3-0.8c3.1-0.5,6.6-0.4,6.6-0.4s27.7,0,35,0c0.6,0,1,0,1.3,0
			c3.9,0,7.2,3.1,7.2,3.1s1.9,1.9,4.8,4.8l0,0c8.7,8.7,26.5,26.5,29.8,29.7c4.3,4.3,7.5,3.7,7.5,3.7s39.6,0,46,0s9.1-3.2,9.1-3.2
			l5.3-5.3l0.3-0.3c1.3-1.3,16.9-16.9,25-25c1.9-1.9,3.3-3.3,3.9-3.9c0.3-0.3,0.5-0.5,0.8-0.7c3.4-2.8,6.9-2.7,6.9-2.7s0.5,0,1.3,0
			c5.8,0,28.5,0,33.2,0c4.4,0,7.9,0.4,9,0.6c0.2,0,0.4,0.1,0.4,0.1l10.6,3.3l0,0l9.8,3.1"/>
		<g>
			<line class="st9" x1="1389.1" y1="112.3" x2="1389.1" y2="151.9"/>
			<line class="st9" x1="1382.2" y1="112.3" x2="1382.2" y2="151.9"/>
			<line class="st9" x1="1375.3" y1="112.3" x2="1375.3" y2="151.9"/>
		</g>
		<g>
			<line class="st9" x1="1258.7" y1="112.3" x2="1258.7" y2="151.9"/>
			<line class="st9" x1="1251.7" y1="112.3" x2="1251.7" y2="151.9"/>
			<line class="st9" x1="1244.8" y1="112.3" x2="1244.8" y2="151.9"/>
		</g>
		<g>
			<line class="st9" x1="1237.7" y1="112.3" x2="1237.7" y2="151.9"/>
			<line class="st9" x1="1230.7" y1="112.3" x2="1230.7" y2="151.9"/>
			<line class="st9" x1="1223.8" y1="112.3" x2="1223.8" y2="151.9"/>
		</g>
		<g>
			<line class="st9" x1="1216.7" y1="112.3" x2="1216.7" y2="151.9"/>
			<line class="st9" x1="1209.8" y1="112.3" x2="1209.8" y2="151.9"/>
			<line class="st9" x1="1202.8" y1="112.3" x2="1202.8" y2="151.9"/>
		</g>
		<g>
			<line class="st9" x1="1195.7" y1="112.3" x2="1195.7" y2="151.9"/>
			<line class="st9" x1="1188.8" y1="112.3" x2="1188.8" y2="151.9"/>
			<line class="st9" x1="1181.8" y1="112.3" x2="1181.8" y2="151.9"/>
		</g>
		<g>
			<g>
				<line class="st9" x1="1159.3" y1="112.7" x2="1159.3" y2="152.3"/>
				<line class="st9" x1="1152.4" y1="112.7" x2="1152.4" y2="152.3"/>
				<line class="st9" x1="1145.4" y1="112.7" x2="1145.4" y2="152.3"/>
			</g>
			<g>
				<line class="st9" x1="1138.3" y1="112.7" x2="1138.3" y2="152.3"/>
				<line class="st9" x1="1131.4" y1="112.7" x2="1131.4" y2="152.3"/>
				<line class="st9" x1="1124.4" y1="112.7" x2="1124.4" y2="152.3"/>
			</g>
			<g>
				<line class="st9" x1="1117.3" y1="112.7" x2="1117.3" y2="152.3"/>
				<line class="st9" x1="1110.4" y1="112.7" x2="1110.4" y2="152.3"/>
				<line class="st9" x1="1103.5" y1="112.7" x2="1103.5" y2="152.3"/>
			</g>
			<g>
				<line class="st9" x1="1096.3" y1="112.7" x2="1096.3" y2="152.3"/>
				<line class="st9" x1="1089.4" y1="112.7" x2="1089.4" y2="152.3"/>
				<line class="st9" x1="1082.5" y1="112.7" x2="1082.5" y2="152.3"/>
			</g>
		</g>
		<rect x="362.6" y="112.6" class="st9" width="91.2" height="39.7"/>
		<g>
			<g>
				<line class="st9" x1="446.6" y1="112.7" x2="446.6" y2="152.3"/>
				<line class="st9" x1="439.7" y1="112.7" x2="439.7" y2="152.3"/>
				<line class="st9" x1="432.8" y1="112.7" x2="432.8" y2="152.3"/>
			</g>
			<g>
				<line class="st9" x1="425.6" y1="112.7" x2="425.6" y2="152.3"/>
				<line class="st9" x1="418.7" y1="112.7" x2="418.7" y2="152.3"/>
				<line class="st9" x1="411.8" y1="112.7" x2="411.8" y2="152.3"/>
			</g>
			<g>
				<line class="st9" x1="404.7" y1="112.7" x2="404.7" y2="152.3"/>
				<line class="st9" x1="397.7" y1="112.7" x2="397.7" y2="152.3"/>
				<line class="st9" x1="390.8" y1="112.7" x2="390.8" y2="152.3"/>
			</g>
			<g>
				<line class="st9" x1="383.7" y1="112.7" x2="383.7" y2="152.3"/>
				<line class="st9" x1="376.7" y1="112.7" x2="376.7" y2="152.3"/>
				<line class="st9" x1="369.8" y1="112.7" x2="369.8" y2="152.3"/>
			</g>
		</g>
		<g>
			<g>
				<line class="st9" x1="892.6" y1="112.7" x2="892.6" y2="152.3"/>
				<line class="st9" x1="885.7" y1="112.7" x2="885.7" y2="152.3"/>
				<line class="st9" x1="878.7" y1="112.7" x2="878.7" y2="152.3"/>
			</g>
			<g>
				<line class="st9" x1="871.6" y1="112.7" x2="871.6" y2="152.3"/>
				<line class="st9" x1="864.7" y1="112.7" x2="864.7" y2="152.3"/>
				<line class="st9" x1="857.7" y1="112.7" x2="857.7" y2="152.3"/>
			</g>
			<g>
				<line class="st9" x1="850.6" y1="112.7" x2="850.6" y2="152.3"/>
			</g>
		</g>
		<g>
			<g>
				<line class="st9" x1="767.9" y1="112.7" x2="767.9" y2="152.3"/>
				<line class="st9" x1="761" y1="112.7" x2="761" y2="152.3"/>
				<line class="st9" x1="754" y1="112.7" x2="754" y2="152.3"/>
			</g>
			<g>
				<line class="st9" x1="746.9" y1="112.7" x2="746.9" y2="152.3"/>
				<line class="st9" x1="740" y1="112.7" x2="740" y2="152.3"/>
				<line class="st9" x1="733" y1="112.7" x2="733" y2="152.3"/>
			</g>
			<g>
				<line class="st9" x1="725.9" y1="112.7" x2="725.9" y2="152.3"/>
			</g>
		</g>
		<path class="st9" d="M1411.5,307.5c0,0,173,0.6,208.6,7.3c0,0,1.1-1.5,3-3.1c0,0,3.2-20.9-13.2-57.5L1599,250
			c0,0-58.6-141.6-187.6-141"/>
		<path class="st9" d="M1529.9,370.7l55.7,7.4c0,0-3.2,9.3,6.7,19.3s19.2,15.6,9.9,14.7c-5.3-0.5-21.1-0.2-33.7,0.1
			c-9.5,0.2-17.2,0.5-17.2,0.5l-60.4-25.6"/>
		<path class="st9" d="M1435.2,205.8h26.2c4.5,0,8.1,3.7,8.1,8.1V271c0,4.5-3.7,8.1-8.1,8.1h-26.2c-4.5,0-8.1-3.7-8.1-8.1v-57.1
			C1427,209.4,1430.7,205.8,1435.2,205.8z"/>
		<path class="st9" d="M1491.3,128.7c0,0,46.6,21,84.7,85.9c38,64.8,37.5,95.3,37.8,98.8c0.2,3.5,7.4,8.6,7.4,8.6c0.2,0.5,0,7,0,7
			h-7.9c0,0-3.2-0.4-3.8,4.2c-0.6,4.6-3.4,17.9-5.8,24.4s-1.5,7.2,1.6,7.2s10.7,0,10.7,0l-0.5,1.5c0,0-0.9,2.6-1.6,4.6
			c-0.4,1.2-1.5,1.9-2.7,1.8c-14.5-1.3-97.3-2.3-110-2.5c-1,0-1.9,0.6-2.4,1.5l-10.7,21c-0.5,0.9-1.4,1.5-2.4,1.5h-62.8
			c-0.5,0-0.9-0.1-1.3-0.4l-8.6-5c-0.8-0.5-1.3-1.4-1.3-2.3V95.4c0-1.6,1.4-2.9,3-2.7c10.9,1.4,49.8,8.4,87.9,42.2"/>
		<polyline class="st9" points="1621.2,329 1641.9,331.2 1641.9,362.6 1615.9,364.8 		"/>
		<path class="st9" d="M1571.4,411.8c-3.5-2-35.3-18-42.9-25.4c-5-4.9-6.8-9.5-6.4-15.8"/>
		<path class="st9" d="M1611.7,372.7c0,0,3.6,0.6,4.1,5.4h0.4l2.7-8c0,0,0.3-1-0.2-2.1s0.9-3.6,0.9-3.6"/>
	</g>
</g>
</svg>
