<?xml version="1.0" encoding="utf-8"?>
<!-- Generator: Adobe Illustrator 22.0.1, SVG Export Plug-In . SVG Version: 6.00 Build 0)  -->
<svg version="1.1" id="Type_74" xmlns="http://www.w3.org/2000/svg" xmlns:xlink="http://www.w3.org/1999/xlink" x="0px" y="0px"
	 viewBox="0 0 1689.7 424" style="enable-background:new 0 0 1689.7 424;" xml:space="preserve">
<metadata><?xpacket begin="﻿" id="W5M0MpCehiHzreSzNTczkc9d"?>
<x:xmpmeta xmlns:x="adobe:ns:meta/" x:xmptk="Adobe XMP Core 5.6-c143 79.161210, 2017/08/11-10:28:36        ">
   <rdf:RDF xmlns:rdf="http://www.w3.org/1999/02/22-rdf-syntax-ns#">
      <rdf:Description rdf:about=""/>
   </rdf:RDF>
</x:xmpmeta>
                                                                                                    
                                                                                                    
                                                                                                    
                                                                                                    
                                                                                                    
                                                                                                    
                                                                                                    
                                                                                                    
                                                                                                    
                                                                                                    
                                                                                                    
                                                                                                    
                                                                                                    
                                                                                                    
                                                                                                    
                                                                                                    
                                                                                                    
                                                                                                    
                                                                                                    
                                                                                                    
                           
<?xpacket end="w"?></metadata>
<style type="text/css">
	.st0{fill:#C7C9C7;}
	.st1{fill:#333F48;}
	.st2{fill:#212322;}
	.st3{fill:#444445;}
	.st4{fill:#DA291C;}
	.st5{fill:#090E15;}
	.st6{fill:#B1B3B3;}
	.st7{fill:#FA4616;}
	.st8{fill:#878787;}
	.st9{fill:#151515;}
	.st10{opacity:0.7;enable-background:new    ;}
	.st11{fill:none;stroke:#000000;stroke-width:2;stroke-miterlimit:10;}
</style>
<g id="Mål_9_">
</g>
<g id="Farger_9_">
	<g id="Grunnfarge_5_">
		<path class="st0" d="M238.9,90.1h3.2v-5.7h299.5v5.7h158.8v-5.7h168.9v5.9l89.9-0.2l130.4,11.4h559.7v198.1l-1324.8,0.5
			l-161.9-0.9c0,0-87.6,1.6-128.5,6.1c0,0,35.5-190.8,204.7-221.2L238.9,90.1z"/>
		<path class="st1" d="M1650.4,299.6v69.7c0,0-93.4,0-98.1,0s-6.5,2.5-6.5,2.5v6.2l-2.1,2.1H543c0,0-22.6-19.7-28.2-22.9
			c-18.9-11-35.7-10.6-35.6-11.2c0.9-5.8-3.8-5.1-3.8-5.1s-52.5-0.1-58.1-0.1s-41,0-41,0s-40.2-0.2-48.5-0.2c-5.9,0-4.3,6.6-4.3,6.6
			s-29.5,0.6-33.3,3.1c-3.9,2.7-27.5,13.6-31.4,16.4c-2.7,1.9-24.3,14.4-27.3,16.1c-3,1.7-4.6,1.6-4.6,1.6s-56.2,0.1-59.7,0
			s-4.6-1.9-4.6-1.9s-9.5-18.6-10.4-20.4c-0.9-1.8-2.4-1.5-2.4-1.5c-7.9-1.5-109.6,2.4-111,2.1c-1.4-0.3-3.4-7.6-3.4-7.6
			s7.2,0,10.7,0s2.9-2.7,2.9-2.7c-2.5-6.4-6.6-25.5-7.3-29.6s-4.7-3.5-4.7-3.5h-6.9v-7c4.4-2.7,8.2-8.4,8.2-8.4
			c111.7-7,200.6-6,200.6-6l85.7,1.9L1650.4,299.6z"/>
		<path class="st2" d="M234.7,389.6c0,0,5.4-1.7,6.3-2s1.7-1.5,1.7-1.5l2.6-12.4l0.4-0.2c3.9-2.5,34.1-21.8,46.6-24.3
			c10.5-2.1,25-2.6,30.9-2.7h0.1v-3.9c0,0-0.1-2.3,2.1-2.3s150.7,0,150.7,0s3.2,0.3,3.2,2.3s0,3,0,3c12.4,0,29.3,7.7,29.3,7.7
			s6.2,2.1,17,10.9c10.5,8.6,11.7,10.5,12.5,11.9c1.5,2.8,1.6,4.3,1.6,4.3l0.6,5.5c0,0,0.8,1.2,1.7,1.5c0.9,0.2,6.3,2,6.3,2l4.3,0.1
			v11.4h-18.2c0,0-3.1,0.5-4.4-4.8c-0.9-3.8-3.4-17.3-4.7-24.7l-4.6-1.8c1.3,3.7,2,7.7,2,11.9c0,20-16.2,36.2-36.2,36.2
			c-12.3,0-23.1-6.1-29.6-15.5h-28.3l-5.6-3.9c-4.3,4.3-7.5,3.7-7.5,3.7s-39.4,0-45.8,0s-9-3.2-9-3.2l-4.2-4.1l0,0
			c-4,4.1-9.6,6.7-15.7,6.7c-4.4,0-8.6-1.3-12-3.6l0,0c-5.9,11.8-18.1,19.9-32.3,19.9c-20,0-36.2-16.2-36.2-36.2c0-5,1-9.7,2.9-14
			l-5.2,1.8c-1.2,6.4-4.1,22.7-5.1,26.9c-1.2,5.3-4.4,4.8-4.4,4.8h-18.2v-11.4L234.7,389.6z"/>
		<path class="st2" d="M1690,368h-39.8v1.3H1588l0,0h-37c0,0-3.9,0.3-5.3,2.5v6.2l-2.1,2.1h-14.4v0.3v-0.3c0,0.6,0,1.2,0,1.9
			c0,19.9,16.1,36,36,36c14.3,0,26.6-8.4,32.4-20.5l10.6,1.2l11.6-3c9.6,0,32.7,0,32.7,0h38.1"/>
		<path class="st3" d="M121.2,361.2l-55.5,7.3c0,0,3.2,9.3-6.7,19.2s-19.1,15.5-9.9,14.7c5.3-0.5,21-0.2,33.6,0.1
			c9.4,0.2,17.1,0.5,17.1,0.5l60.2-25.5l-7.8-15.2c0,0-0.5-1.4-3.3-1.6C146.1,360.5,121.2,361.2,121.2,361.2z"/>
		<path class="st2" d="M30.2,319.5l-20.7,2.2V353l25.9,2.3h11.7c0,0,2.7-0.2,1.8-3.3s-4.2-13.2-5.2-19.3c-1-6.1-2.1-10.6-2.4-11
			c-0.3-0.4-0.8-2.1-4.3-2.1C33.6,319.5,30.2,319.5,30.2,319.5z"/>
		<path class="st2" d="M31.7,355.1c0,0,1.4,2.4,0.9,3.5s-0.2,2.1-0.2,2.1l2.7,7.9h0.4c0.5-4.8,4.1-5.4,4.1-5.4s-1.7-0.3-2.4-2.7
			s-1.6-5.3-1.6-5.3L31.7,355.1z"/>
		<polygon class="st1" points="689.5,374.8 689.5,384.5 808.9,384.5 808.9,374.8 694,374.8 		"/>
		<rect x="1650.1" y="150.4" class="st3" width="39.2" height="218.5"/>
		<polygon class="st3" points="1688.9,143.4 1650.3,144.5 1650.3,138.4 1689.1,136 		"/>
	</g>
	<g id="Profilering_9_">
		<polygon class="st4" points="468.7,149.5 1650.3,148.8 1650.3,189.4 429.7,188.4 		"/>
		<polygon class="st4" points="689.5,300.1 661.7,300.1 324.6,300.1 287.4,339.1 661.7,339.1 661.7,339.1 1650.3,339.1 
			1650.3,300.1 		"/>
		<polygon class="st5" points="828.8,188.4 808.1,188.4 429.7,188.4 324.6,300.1 808.2,300.1 828.8,300.1 1649.8,300.1 
			1649.8,188.4 		"/>
		<g>
			<polygon class="st6" points="1650.2,317.2 308.2,317.2 314.6,310.5 1650.2,310.5 			"/>
		</g>
		<g>
			<polygon class="st6" points="368.2,326.8 299.2,326.8 302.4,323.3 366.8,323.3 520.6,162 1650.3,162 1650.3,165.4 522.1,165.4 
							"/>
		</g>
	</g>
	<g id="Dører_og_vinduer_8_">
		<path class="st5" d="M130.5,262.6c1.2-11.7,4.5-30.2,13.9-46.1c8.9-15,25.3-23.9,42.8-24.1c4.6,0,7.9-0.1,31.2,0
			c5.9,0,10.8,4.8,10.8,10.7c0,15.7,0,44.8,0,60.4c0,5.9-4.8,10.7-10.7,10.7h-77.2C134.8,274.3,129.9,268.9,130.5,262.6z"/>
		<path class="st7" d="M800.5,177.6H697.7c-4.5,0-8.1,3.6-8.1,8.1v170.1c0,4.5,3.6,8.1,8.1,8.1h102.8c4.5,0,8.1-3.6,8.1-8.1V185.8
			C808.6,181.2,805,177.6,800.5,177.6z"/>
		<path class="st8" d="M725.8,194.1h-12.3c-4.5,0-8.1,3.6-8.1,8.1v87.2c0,4.5,3.6,8.1,8.1,8.1h12.3c4.5,0,8.1-3.6,8.1-8.1v-87.2
			C733.9,197.8,730.3,194.1,725.8,194.1z"/>
		<path class="st8" d="M785,194.1h-12.3c-4.5,0-8.1,3.6-8.1,8.1v87.2c0,4.5,3.6,8.1,8.1,8.1H785c4.5,0,8.1-3.6,8.1-8.1v-87.2
			C793.1,197.8,789.4,194.1,785,194.1z"/>
		<path class="st8" d="M1584.1,196.8h-102.8c-4.5,0-8.1,3.6-8.1,8.1v56.9c0,4.5,3.6,8.1,8.1,8.1h102.8c4.5,0,8.1-3.6,8.1-8.1v-56.9
			C1592.2,200.5,1588.6,196.8,1584.1,196.8z"/>
		<path class="st8" d="M644.3,196.8H541.6c-4.5,0-8.1,3.6-8.1,8.1v56.9c0,4.5,3.6,8.1,8.1,8.1h102.8c4.5,0,8.1-3.6,8.1-8.1v-56.9
			C652.4,200.5,648.8,196.8,644.3,196.8z"/>
		<path class="st8" d="M1429.7,224.6h-102.8c-4.5,0-8.1,3.6-8.1,8.1v56.9c0,4.5,3.6,8.1,8.1,8.1h102.8c4.5,0,8.1-3.6,8.1-8.1v-56.9
			C1437.8,228.3,1434.1,224.6,1429.7,224.6z"/>
		<path class="st8" d="M956.6,224.6H853.9c-4.5,0-8.1,3.6-8.1,8.1v56.9c0,4.5,3.6,8.1,8.1,8.1h102.8c4.5,0,8.1-3.6,8.1-8.1v-56.9
			C964.7,228.3,961.1,224.6,956.6,224.6z"/>
		<path class="st8" d="M1272.3,197.5h-102.8c-4.5,0-8.1,3.6-8.1,8.1v83.8c0,4.5,3.6,8.1,8.1,8.1h102.8c4.5,0,8.1-3.6,8.1-8.1v-83.8
			C1280.4,201.1,1276.8,197.5,1272.3,197.5z"/>
		<path class="st8" d="M1114.4,197.5h-102.8c-4.5,0-8.1,3.6-8.1,8.1v83.8c0,4.5,3.6,8.1,8.1,8.1h102.8c4.5,0,8.1-3.6,8.1-8.1v-83.8
			C1122.5,201.1,1118.9,197.5,1114.4,197.5z"/>
		<path class="st8" d="M214.8,196.8h-25.5c-4.5,0-8.1,3.6-8.1,8.1v56.9c0,4.5,3.6,8.1,8.1,8.1h25.5c4.5,0,8.1-3.6,8.1-8.1v-56.9
			C222.9,200.5,219.3,196.8,214.8,196.8z"/>
		<path class="st9" d="M37.3,304.9l-5.7,0.5c0,0-3-3-3.7-3.4c0,0-0.3-32.1,13.8-57.1l10.4-4c0,0,17.9-38,30.2-51.6
			c12.4-13.6,24.4-28.1,29.9-33.8c5.5-5.7,29.1-26.5,35.6-29.1c0,0,19.3-15,21.6-16.5c2.2-1.6,33.7-20.9,57.2-24
			c0,0,7.7-1.6,8.8-1.5s3.5-0.4,3.5,3.7s0,12.8,0,12.8s-35.2-4.2-79.4,19.1c-44.2,23.2-75.1,70.3-75.1,70.3s-26.6,43.5-34.5,66.1
			C42,278.9,38.3,287.3,37.3,304.9z"/>
		<path class="st10" d="M1003.5,225.4h119v-19.7c0-4.5-3.6-8.1-8.1-8.1h-102.8c-4.5,0-8.1,3.7-8.1,8.1L1003.5,225.4L1003.5,225.4z"
			/>
		<path class="st10" d="M1161,225.4h119v-19.7c0-4.5-3.6-8.1-8.1-8.1h-102.8c-4.5,0-8.1,3.7-8.1,8.1V225.4z"/>
	</g>
</g>
<g id="Omriss_9_">
	<circle class="st11" cx="1565" cy="382.1" r="8.8"/>
	<path class="st11" d="M1529.1,380.2c0,0.6,0,1.3,0,1.9c0,19.9,16.1,36,36,36c17.9,0,32.8-13.2,35.5-30.4"/>
	<path class="st11" d="M1594.1,380c0,0.7,0.1,1.4,0.1,2.1c0,16.1-13,29.1-29.1,29.1s-29.1-13-29.1-29.1c0-0.6,0-1.3,0.1-1.9"/>
	<polyline class="st11" points="1597.4,397.5 1608,398.8 1619.6,395.8 	"/>
	<circle class="st11" cx="296.6" cy="382.1" r="8.8"/>
	<path class="st11" d="M356.6,395.2L356.6,395.2c-4,4.2-9.6,6.7-15.7,6.7c-4.4,0-8.6-1.3-12-3.6"/>
	<circle class="st11" cx="486.5" cy="382.1" r="8.8"/>
	<polyline class="st11" points="1587.9,369.5 1650.2,369.5 1650.2,102.2 1265.9,102.2 1089.5,102.2 960.4,90.4 869.3,90.4 
		238.8,90.4 	"/>
	<line class="st11" x1="1689" y1="369.5" x2="1689" y2="116.8"/>
	<line class="st11" x1="1650.1" y1="368.1" x2="1689" y2="368.1"/>
	<path class="st11" d="M238.8,298.3c0,0-172.2,0.6-207.7,7.3c0,0-1.1-1.5-3-3.1c0,0-3.2-20.9,13.1-57.2l10.8-4.2
		c0,0,58.4-141,186.8-140.4"/>
	<path class="st11" d="M120.9,361.2l-55.5,7.3c0,0,3.2,9.3-6.7,19.2s-19.1,15.5-9.9,14.7c5.3-0.5,21-0.2,33.6,0.1
		c9.4,0.2,17.1,0.5,17.1,0.5l60.2-25.5"/>
	<path class="st11" d="M323.3,347.1v-3.9c0,0-0.1-2.3,2.1-2.3s150.5,0,150.5,0s3.2,0.3,3.2,2.3s0,3,0,3s-13.2,0-19.9,0
		s-10.8,4.2-10.8,4.2l-18.7,19l-6.6,6.4c-6,6.1-13,5.7-13,5.7h-8.4h-19.3c-18.9,0.3-21.7-4.3-21.7-4.3s-20.3-21.6-25.6-26.2
		c-5.3-4.6-9.2-3.9-9.2-3.9s-20.2,0-33.6,2.7c-13.4,2.7-55,29.6-55,29.6"/>
	<path class="st11" d="M245.3,374.5l-2.6,12.4c0,0-0.8,1.2-1.7,1.5c-0.9,0.2-6.3,2-6.3,2l-4.3,0.1v11.4h18.2c0,0,3.1,0.5,4.4-4.8
		c1.2-5.3,5.6-29.6,5.6-29.6"/>
	<path class="st11" d="M538.3,377.2l1.9,9.4c0,0,0.8,1.2,1.7,1.5c0.9,0.2,6.3,2,6.3,2l4.3,0.1v11.4h-18.2c0,0-3.1,0.5-4.4-4.8
		c-1-4.3-4-20.9-5.1-27.2"/>
	<path class="st11" d="M452.6,369.3c-8.7,8.7-26.4,26.4-29.7,29.6c-4.3,4.3-7.5,3.7-7.5,3.7s-39.4,0-45.8,0s-9-3.2-9-3.2l-4.2-4.1
		c-1.3-1.3-18.2-18.2-26.3-26.3c-1.9-1.9-3.3-3.3-3.9-3.9c-0.3-0.3-0.5-0.5-0.8-0.7c-3.4-2.8-6.9-2.7-6.9-2.7s-0.5,0-1.3,0
		c-5.8,0-28.4,0-33,0c-4.4,0-7.9,0.4-9,0.6c-0.2,0-0.4,0.1-0.4,0.1l-10.5,3.3l0,0l-9.8,3.1"/>
	<path class="st11" d="M264.4,365.6L264.4,365.6c-2.5,5-4,10.5-4,16.5c0,20,16.2,36.2,36.2,36.2c14.1,0,26.3-8.1,32.3-19.9
		c2.4-4.9,3.9-10.4,3.9-16.3c0-4.6-0.9-9.1-2.5-13.1"/>
	<polyline class="st11" points="308.2,347.8 308.2,347.8 308.3,347.8 	"/>
	<path class="st11" d="M275.3,362.2c-4.9,5.2-7.8,12.2-7.8,19.9c0,16.1,13,29.1,29.1,29.1c12.1,0,22.5-7.4,26.9-17.9
		c1.4-3.5,2.2-7.2,2.2-11.2c0-5-1.2-9.6-3.4-13.7c-1.3-2.5-3-4.7-5-6.7"/>
	<path class="st11" d="M452.7,369.3L452.7,369.3c-1.5,4-2.3,8.3-2.3,12.8c0,20,16.2,36.2,36.1,36.2c20,0,36.2-16.2,36.2-36.2
		c0-5.7-1.3-11.1-3.7-15.9"/>
	<path class="st11" d="M507.3,361.8c5.2,5.2,8.3,12.4,8.3,20.3c0,16.1-13,29.1-29.1,29.1s-29.1-13-29.1-29.1
		c0-8.1,3.3-15.4,8.6-20.7"/>
	<path class="st11" d="M521.2,361.3c0,0-16.5-12.8-42.2-15"/>
	<polyline class="st11" points="242.1,90.4 242.1,84.4 541.6,84.4 541.6,90.4 	"/>
	<polyline class="st11" points="700.4,90.4 700.4,84.4 869.3,84.4 869.3,90.4 	"/>
	<rect x="300.4" y="113" class="st11" width="37.3" height="19.4"/>
	<line class="st11" x1="239.1" y1="148.4" x2="1650.2" y2="148.4"/>
	<path class="st11" d="M644.5,197H541.7c-4.5,0-8.1,3.6-8.1,8.1V262c0,4.5,3.6,8.1,8.1,8.1h102.8c4.5,0,8.1-3.6,8.1-8.1v-56.9
		C652.6,200.6,649,197,644.5,197z"/>
	<path class="st11" d="M215.2,197h-26.1c-4.5,0-8.1,3.6-8.1,8.1V262c0,4.5,3.6,8.1,8.1,8.1h26.1c4.5,0,8.1-3.6,8.1-8.1v-56.9
		C223.3,200.6,219.6,197,215.2,197z"/>
	<path class="st11" d="M956.8,224.5H854.1c-4.5,0-8.1,3.6-8.1,8.1v56.9c0,4.5,3.6,8.1,8.1,8.1h102.8c4.5,0,8.1-3.6,8.1-8.1v-56.9
		C964.9,228.2,961.3,224.5,956.8,224.5z"/>
	<path class="st11" d="M1429.2,224.5h-102.8c-4.5,0-8.1,3.6-8.1,8.1v56.9c0,4.5,3.6,8.1,8.1,8.1h102.8c4.5,0,8.1-3.6,8.1-8.1v-56.9
		C1437.3,228.2,1433.7,224.5,1429.2,224.5z"/>
	<path class="st11" d="M1584,196.8h-102.8c-4.5,0-8.1,3.6-8.1,8.1v56.9c0,4.5,3.6,8.1,8.1,8.1H1584c4.5,0,8.1-3.6,8.1-8.1v-56.9
		C1592.1,200.4,1588.5,196.8,1584,196.8z"/>
	<path class="st11" d="M1114.3,197.6h-102.8c-4.5,0-8.1,3.6-8.1,8.1v83.8c0,4.5,3.6,8.1,8.1,8.1h102.8c4.5,0,8.1-3.6,8.1-8.1v-83.8
		C1122.4,201.2,1118.7,197.6,1114.3,197.6z"/>
	<line class="st11" x1="1007.8" y1="225.4" x2="1117.9" y2="225.4"/>
	<path class="st11" d="M1271.8,197.6H1169c-4.5,0-8.1,3.6-8.1,8.1v83.8c0,4.5,3.6,8.1,8.1,8.1h102.8c4.5,0,8.1-3.6,8.1-8.1v-83.8
		C1279.9,201.2,1276.2,197.6,1271.8,197.6z"/>
	<line class="st11" x1="1165.2" y1="225.4" x2="1275.3" y2="225.4"/>
	<path class="st11" d="M800.8,177.8H698c-4.5,0-8.1,3.6-8.1,8.1V356c0,4.5,3.6,8.1,8.1,8.1h102.8c4.5,0,8.1-3.6,8.1-8.1V185.8
		C808.9,181.3,805.2,177.8,800.8,177.8z"/>
	<path class="st11" d="M726.1,194.2h-12.3c-4.5,0-8.1,3.6-8.1,8.1v87.2c0,4.5,3.6,8.1,8.1,8.1h12.3c4.5,0,8.1-3.6,8.1-8.1v-87.2
		C734.2,197.8,730.5,194.2,726.1,194.2z"/>
	<path class="st11" d="M785.2,194.2h-12.3c-4.5,0-8.1,3.6-8.1,8.1v87.2c0,4.5,3.6,8.1,8.1,8.1h12.3c4.5,0,8.1-3.6,8.1-8.1v-87.2
		C793.3,197.8,789.7,194.2,785.2,194.2z"/>
	<line class="st11" x1="751" y1="176.6" x2="751" y2="358"/>
	<polyline class="st11" points="696.1,364 696.1,358 802.7,358 802.7,364 	"/>
	<polygon class="st11" points="689.4,374.8 689.4,384.6 808.7,384.6 808.7,374.8 693.8,374.8 	"/>
	<circle class="st11" cx="743.2" cy="284.3" r="2.4"/>
	<path class="st11" d="M1690.3,395.8h-38.1c0,0-29.1,0-35.6,0s-7.9-1.9-7.9-1.9s-3.8-2.9-5.6-4.7c-1.8-1.8-2.9-1.6-2.9-1.6h-2.7
		v-5.7c0,0,0.1-2.3-2.2-2.3c-2.3,0-2.3,2.1-2.3,2.3h-4.5c0-12.3-0.6-12.5-0.6-12.5h-37c0,0-4,0.3-5.4,2.5v6.2l-2.1,2.1H1529H548.9
		h-5.4l-5.2-3l-13.5-7.7l-5.9-3.4l-3.5-2l-0.2-0.1l0.2,0.1c-2.3-0.7-4.1-1.3-4.9-1.6c-0.9-0.4-2-0.6-3.3-0.8
		c-3.1-0.5-6.5-0.4-6.5-0.4s-27.6,0-34.8,0c-0.6,0-1,0-1.3,0c-3.9,0-7.2,3.1-7.2,3.1s-1.9,1.9-4.7,4.8l0,0"/>
	<rect x="874.4" y="104.3" class="st11" width="52.7" height="39.5"/>
	<rect x="1193.3" y="104.3" class="st11" width="90.8" height="39.5"/>
	<g>
		<g>
			<line class="st11" x1="1277" y1="104.3" x2="1277" y2="143.8"/>
			<line class="st11" x1="1270.1" y1="104.3" x2="1270.1" y2="143.8"/>
			<line class="st11" x1="1263.2" y1="104.3" x2="1263.2" y2="143.8"/>
		</g>
		<g>
			<line class="st11" x1="1256.1" y1="104.3" x2="1256.1" y2="143.8"/>
			<line class="st11" x1="1249.2" y1="104.3" x2="1249.2" y2="143.8"/>
			<line class="st11" x1="1242.3" y1="104.3" x2="1242.3" y2="143.8"/>
		</g>
		<g>
			<line class="st11" x1="1235.2" y1="104.3" x2="1235.2" y2="143.8"/>
			<line class="st11" x1="1228.3" y1="104.3" x2="1228.3" y2="143.8"/>
			<line class="st11" x1="1221.4" y1="104.3" x2="1221.4" y2="143.8"/>
		</g>
		<g>
			<line class="st11" x1="1214.3" y1="104.3" x2="1214.3" y2="143.8"/>
			<line class="st11" x1="1207.4" y1="104.3" x2="1207.4" y2="143.8"/>
			<line class="st11" x1="1200.5" y1="104.3" x2="1200.5" y2="143.8"/>
		</g>
	</g>
	<g>
		<g>
			<line class="st11" x1="921.7" y1="104.3" x2="921.7" y2="143.8"/>
			<line class="st11" x1="914.8" y1="104.3" x2="914.8" y2="143.8"/>
			<line class="st11" x1="907.9" y1="104.3" x2="907.9" y2="143.8"/>
		</g>
		<g>
			<line class="st11" x1="900.8" y1="104.3" x2="900.8" y2="143.8"/>
			<line class="st11" x1="893.9" y1="104.3" x2="893.9" y2="143.8"/>
			<line class="st11" x1="887" y1="104.3" x2="887" y2="143.8"/>
		</g>
		<g>
			<line class="st11" x1="879.9" y1="104.3" x2="879.9" y2="143.8"/>
		</g>
	</g>
	<rect x="750.4" y="104.3" class="st11" width="52.7" height="39.5"/>
	<g>
		<g>
			<line class="st11" x1="797.6" y1="104.3" x2="797.6" y2="143.8"/>
			<line class="st11" x1="790.7" y1="104.3" x2="790.7" y2="143.8"/>
			<line class="st11" x1="783.8" y1="104.3" x2="783.8" y2="143.8"/>
		</g>
		<g>
			<line class="st11" x1="776.7" y1="104.3" x2="776.7" y2="143.8"/>
			<line class="st11" x1="769.8" y1="104.3" x2="769.8" y2="143.8"/>
			<line class="st11" x1="762.9" y1="104.3" x2="762.9" y2="143.8"/>
		</g>
		<g>
			<line class="st11" x1="755.8" y1="104.3" x2="755.8" y2="143.8"/>
		</g>
	</g>
	<rect x="483" y="104.4" class="st11" width="90.8" height="39.5"/>
	<g>
		<g>
			<line class="st11" x1="566.7" y1="104.3" x2="566.7" y2="143.8"/>
			<line class="st11" x1="559.8" y1="104.3" x2="559.8" y2="143.8"/>
			<line class="st11" x1="552.9" y1="104.3" x2="552.9" y2="143.8"/>
		</g>
		<g>
			<line class="st11" x1="545.8" y1="104.3" x2="545.8" y2="143.8"/>
			<line class="st11" x1="538.9" y1="104.3" x2="538.9" y2="143.8"/>
			<line class="st11" x1="532" y1="104.3" x2="532" y2="143.8"/>
		</g>
		<g>
			<line class="st11" x1="524.9" y1="104.3" x2="524.9" y2="143.8"/>
			<line class="st11" x1="518" y1="104.3" x2="518" y2="143.8"/>
			<line class="st11" x1="511.1" y1="104.3" x2="511.1" y2="143.8"/>
		</g>
		<g>
			<line class="st11" x1="504" y1="104.3" x2="504" y2="143.8"/>
			<line class="st11" x1="497.1" y1="104.3" x2="497.1" y2="143.8"/>
			<line class="st11" x1="490.2" y1="104.3" x2="490.2" y2="143.8"/>
		</g>
	</g>
	<rect x="384.1" y="104.4" class="st11" width="90.8" height="39.5"/>
	<g>
		<g>
			<line class="st11" x1="467.8" y1="104.3" x2="467.8" y2="143.8"/>
			<line class="st11" x1="460.9" y1="104.3" x2="460.9" y2="143.8"/>
			<line class="st11" x1="454" y1="104.3" x2="454" y2="143.8"/>
		</g>
		<g>
			<line class="st11" x1="446.9" y1="104.3" x2="446.9" y2="143.8"/>
			<line class="st11" x1="440" y1="104.3" x2="440" y2="143.8"/>
			<line class="st11" x1="433.1" y1="104.3" x2="433.1" y2="143.8"/>
		</g>
		<g>
			<line class="st11" x1="426" y1="104.3" x2="426" y2="143.8"/>
			<line class="st11" x1="419.1" y1="104.3" x2="419.1" y2="143.8"/>
			<line class="st11" x1="412.2" y1="104.3" x2="412.2" y2="143.8"/>
		</g>
		<g>
			<line class="st11" x1="405.1" y1="104.3" x2="405.1" y2="143.8"/>
			<line class="st11" x1="398.2" y1="104.3" x2="398.2" y2="143.8"/>
			<line class="st11" x1="391.3" y1="104.3" x2="391.3" y2="143.8"/>
		</g>
	</g>
	<rect x="254.4" y="104.3" class="st11" width="26.4" height="39.5"/>
	<g>
		<line class="st11" x1="274.5" y1="104.3" x2="274.5" y2="143.8"/>
		<line class="st11" x1="267.6" y1="104.3" x2="267.6" y2="143.8"/>
		<line class="st11" x1="260.7" y1="104.3" x2="260.7" y2="143.8"/>
	</g>
	<path class="st11" d="M1650.1,115.8c0-10.8,8.8-19.6,19.6-19.6c10.8,0,19.2,8.8,19.2,19.6"/>
	<line class="st11" x1="1657.6" y1="153" x2="1657.6" y2="367.8"/>
	<line class="st11" x1="1663.5" y1="153" x2="1663.5" y2="367.8"/>
	<line class="st11" x1="1669.5" y1="153" x2="1669.5" y2="367.8"/>
	<line class="st11" x1="1675.4" y1="153" x2="1675.4" y2="367.8"/>
	<line class="st11" x1="1681.3" y1="153" x2="1681.3" y2="367.8"/>
	<polyline class="st11" points="1689.1,136 1661.9,137.1 1662.1,144.8 1689.1,143.8 	"/>
	<line class="st11" x1="1661.8" y1="137.6" x2="1650.3" y2="138"/>
	<path class="st11" d="M1662.1,144.1l-11.8,0.4"/>
	<line class="st11" x1="327.5" y1="84.4" x2="327.5" y2="90.4"/>
	<line class="st11" x1="391.3" y1="84.4" x2="391.3" y2="90.4"/>
	<line class="st11" x1="455.3" y1="84.4" x2="455.3" y2="90.4"/>
	<line class="st11" x1="787.2" y1="84.3" x2="787.2" y2="90.2"/>
	<path class="st11" d="M159.3,120.3c0,0-46.4,20.9-84.3,85.5s-37.4,94.9-37.6,98.3c-0.2,3.5-7.4,8.6-7.4,8.6c-0.2,0.5,0,7,0,7h7.9
		c0,0,3.2-0.4,3.8,4.2s3.4,17.8,5.8,24.3c2.4,6.5,1.5,7.2-1.6,7.2s-10.7,0-10.7,0l0.5,1.5c0,0,0.9,2.6,1.6,4.6
		c0.4,1.2,1.5,1.9,2.7,1.8c14.4-1.3,96.8-2.3,109.6-2.4c1,0,1.9,0.6,2.4,1.5l10.7,20.9c0.5,0.9,1.4,1.5,2.4,1.5h62.6
		c0.5,0,0.9-0.1,1.3-0.4l8.6-5c0.8-0.5,1.3-1.4,1.3-2.3v-290c0-1.6-1.4-2.8-3-2.6c-10.8,1.4-49.6,8.4-87.5,42.1"/>
	<polyline class="st11" points="30,319.6 9.4,321.9 9.4,353.1 35.3,355.3 	"/>
	<path class="st11" d="M79.5,402.1c3.5-1.9,35.1-18,42.7-25.3c5-4.9,6.8-9.5,6.3-15.7"/>
	<path class="st11" d="M39.4,363.2c0,0-3.6,0.6-4.1,5.4h-0.4l-2.7-7.9c0,0-0.3-1,0.2-2.1s-0.9-3.5-0.9-3.5"/>
	<polyline class="st11" points="423,399 429.2,403.5 456.6,403.5 	"/>
</g>
</svg>
