<?xml version="1.0" encoding="utf-8"?>
<!-- Generator: Adobe Illustrator 22.0.1, SVG Export Plug-In . SVG Version: 6.00 Build 0)  -->
<svg version="1.1" id="Type_72" xmlns="http://www.w3.org/2000/svg" xmlns:xlink="http://www.w3.org/1999/xlink" x="0px" y="0px"
	 viewBox="0 0 1888.3 450" style="enable-background:new 0 0 1888.3 450;" xml:space="preserve">
<metadata><?xpacket begin="﻿" id="W5M0MpCehiHzreSzNTczkc9d"?>
<x:xmpmeta xmlns:x="adobe:ns:meta/" x:xmptk="Adobe XMP Core 5.6-c143 79.161210, 2017/08/11-10:28:36        ">
   <rdf:RDF xmlns:rdf="http://www.w3.org/1999/02/22-rdf-syntax-ns#">
      <rdf:Description rdf:about=""/>
   </rdf:RDF>
</x:xmpmeta>
                                                                                                    
                                                                                                    
                                                                                                    
                                                                                                    
                                                                                                    
                                                                                                    
                                                                                                    
                                                                                                    
                                                                                                    
                                                                                                    
                                                                                                    
                                                                                                    
                                                                                                    
                                                                                                    
                                                                                                    
                                                                                                    
                                                                                                    
                                                                                                    
                                                                                                    
                                                                                                    
                           
<?xpacket end="w"?></metadata>
<style type="text/css">
	.st0{fill:#444445;}
	.st1{fill:#B1B3B3;}
	.st2{fill:#212322;}
	.st3{fill:#DAE294;}
	.st4{fill:#004F59;}
	.st5{fill:#010101;}
	.st6{fill:#878787;}
	.st7{fill:#FA4616;}
	.st8{fill:none;stroke:#231F20;stroke-width:2;stroke-miterlimit:10;}
	.st9{fill:#101820;stroke:#231F20;stroke-width:2;stroke-miterlimit:10;}
	.st10{fill:none;stroke:#000000;stroke-width:2;stroke-miterlimit:10;}
</style>
<g id="Mål_6_">
</g>
<g id="Farger_6_">
	<g id="Grunnfarge">
		<polygon class="st0" points="0.9,349.8 7.2,357.6 13.5,349.8 19.8,357.6 26.1,349.8 32.4,357.6 32.4,142.6 32.4,142.3 26.1,150.2 
			19.8,142.3 13.5,150.2 7.2,142.3 0.9,150.2 		"/>
		<path class="st1" d="M1575,96.8c52.3,0,99.2,0,101.4,0c5.1,0,7.2,2.5,7.2,2.5c16.8,12.8,24.4,37.5,24.5,37.7l0,0l0,0l0,0
			c17.1,2.3,25.7,20.7,25.7,20.7s25.1,45.4,47.5,91.1l-1.8,1l0,0c13.3,28.9,24.5,74.8,27.4,87.4c0.5,2.2,0.8,4.4,0.9,6.7l0.9,29.7
			h-131.3v4.6v0.5h-7.6c0,0-8-5.7-15.6-8.2s-17.3-2.5-17.3-2.5h-408.5l-18.1,34.4H953.8l-18.1-34.4H553.3l-18.1,34.4H278.6
			l-18.1-34.4h-64.3H70l-9.1,10.8H38.1v-27.8V154.4V93.9c0,0,55.5,0,66,0s11.8,2.8,11.8,2.8l30.8,29.6V142h534.1v-8.1
			c0-1.1,0.3-2.3,1-3.2c4.3-6.2,21.5-23.1,31.7-31.6c3.3-2.7,9-2.3,9-2.3s0,0.8,0,3.9h7c0-3.3,0-3.8,0-3.8h246.9c0,0,0,36.2,0,3.9h7
			c0,32.2,0-3.8,0-3.8H1181c0,0,0,33.5,0,3.9h7c0,29.6,0-3.8,0-3.8h242.2c0,0,2,0,5.6,0c0,0,0,30.9,0,3.9h7c0,27,0-3.8,0-3.8
			c23.5,0,75.9,0,125.1,0v3.9h7L1575,96.8z"/>
		<polygon class="st2" points="1807.8,350.9 1834.2,345.5 1834.1,344.8 1847.3,342 1847.3,338.1 1827.2,338.1 1827.2,334.8 
			1845.7,326.9 1855.3,326.9 1863.9,338.1 1863.9,351.5 1863.9,351.9 1847.3,351.9 1847.3,347.6 1835,350.3 1834.9,349.2 
			1808,354.9 		"/>
		<path class="st2" d="M1863.9,353.8l5.9,6.3h3.1c0,0,1.3,0.7,1.3,1.8c0,1.1,0,6.4,0,6.4s-0.5,1.5-1.8,1.5s-2.4,0-2.4,0l-6,6.6
			L1863.9,353.8z"/>
		<path class="st2" d="M1882.9,388.1l-8-9.8c0,0-0.6-0.6-1.8-0.6c-1.2,0-9.2,0-9.2,0v3.7h7.8c0,0,1.7-0.1,2.4,0.6
			c0.7,0.7,6.8,7.7,6.8,7.7s1.5,1.8,2.5,0.8C1884.5,389.5,1882.9,388.1,1882.9,388.1z"/>
		<polygon class="st2" points="1808.7,358.9 1836,358.9 1836,357.6 1855.3,357.6 1855.3,351.9 1860.8,351.9 1860.8,376.3 
			1855.3,376.3 1855.3,372.3 1836.1,372.3 1836.1,370.8 1808.7,370.8 		"/>
		<path class="st0" d="M1784.8,385l23.9,5.3c0,0-14.4,7.2-14.4,20.1c0,12.9,14.4,20.1,14.4,20.1h-78.9l-35.3-13.3
			c0,0-15.2-16.7-17.1-38.7V374h131.3L1784.8,385z"/>
		<polygon class="st0" points="38.1,349.8 31.8,357.8 25.5,349.8 19.2,357.8 12.9,349.8 6.6,357.8 6.6,142.8 6.6,142.4 12.9,150.3 
			19.2,142.4 25.5,150.3 31.8,142.4 38.1,150.3 		"/>
		<path class="st2" d="M1632.2,373.5c0,0-25.6-0.5-53.9-1l0,0c-4.6-0.1-6.9-4.2-11.5-4.3l-225.9,0.4l-7.7,4.1l-43.6,1.4v16.3
			l28.6,0.2c-1.9,4.6-3,9.7-3,15.1c0,21.6,17.5,39.1,39.1,39.1s39.1-17.5,39.1-39.1c0-4.6-0.8-9-2.3-13.1c2.2,1,4.7,2.7,7.3,5.3
			c8.8,8.8,14.5,14.5,14.5,14.5s4.7,5.1,12.7,5.1s64.2,0,64.2,0s6.1,1,12-4.9s15.5-15.5,15.5-15.5s0.2-0.2,0.5-0.6
			c-0.7,2.9-1.1,6-1.1,9.1c0,21.6,17.5,39.1,39.1,39.1s39.1-17.5,39.1-39.1c0-5.6-1.2-10.8-3.3-15.6c21.6,0.1,40.8,0.2,40.8,0.2
			v-16.7H1632.2z M1519.4,394.8l-1.8,1.6C1518,396,1518.6,395.3,1519.4,394.8z"/>
		<path class="st2" d="M0.9,417.3h81l5.4,3.7l2-0.1c0,0,0,3.4,11,14.3c11,10.9,23.1,9.8,23.1,9.8s17.6-0.2,26.2-8
			c8.5-7.8,10.2-10.3,12.6-15l1.3,0.1l14-12.4l3.4,9.2h4.9c0,0,3.2,3.9,6.1,3.9c2.8,0,4.7-4.1,4.7-4.1l81.7-16.5l-2.5-4.7l-8-15.8
			l-7.1-12.9l-190.3-0.6l-9.3,10.9L0.5,379"/>
		<polyline class="st2" points="278.7,403.2 535.2,403.2 553.3,368.9 260.6,368.9 278.7,403.2 		"/>
		<polyline class="st2" points="954.1,403 1210.6,403 1228.7,368.8 935.9,368.8 954.1,403 		"/>
	</g>
	<g id="Profilering">
		<path class="st3" d="M1712,171.2H38.1V160h1627.6C1665.7,159.9,1699.8,160.8,1712,171.2"/>
		<path class="st4" d="M1798.6,305.2c0,0-53.2-113.3-87-134c0,0-11.7-11.3-53.8-11.3S38.1,160,38.1,160v-13.5h1641
			c0,0,23.1-0.1,37.1,14.3c16.7,17.1,63,83.5,72.6,113.1C1798.4,303.3,1798.6,305.2,1798.6,305.2z"/>
		<path class="st4" d="M303,316.3h45.3h791.2h12.9h649.2c0,0,0,0,3.3,12.9s3.8,22.3,3.8,22.3h-656.2h-13H348.3H303H38.1v-35.3H303
			V316.3z"/>
		<polygon class="st3" points="1799.9,309.8 1145.2,309.8 1139.5,309.8 348.3,309.8 333.4,309.8 38.1,309.8 38.1,316.3 333.4,316.3 
			348.3,316.3 1139.5,316.3 1145.1,316.3 1801.6,316.3 		"/>
		<rect x="1181.1" y="209.1" class="st5" width="237.2" height="88.4"/>
		<rect x="73.2" y="209.1" class="st5" width="237.2" height="88.4"/>
		<rect x="511.8" y="209.1" class="st5" width="422.8" height="88.4"/>
	</g>
	<g id="Dører_og_vinduer">
		<path class="st6" d="M203.2,288.9h82.7c2.6,0,4.6-2.1,4.6-4.6V224c0-2.6-2.1-4.6-4.6-4.6h-82.7c-2.6,0-4.6,2.1-4.6,4.6v60.3
			C198.6,286.8,200.6,288.9,203.2,288.9z"/>
		<path class="st6" d="M94.4,288.9h82.7c2.6,0,4.6-2.1,4.6-4.6V224c0-2.6-2.1-4.6-4.6-4.6H94.4c-2.6,0-4.6,2.1-4.6,4.6v60.3
			C89.7,286.8,91.8,288.9,94.4,288.9z"/>
		<path class="st7" d="M359.3,391h93.2c6.1,0,11-4.9,11-11V188.5c0-6.1-4.9-11-11-11h-93.2c-6.1,0-11,4.9-11,11V380
			C348.3,386,353.3,391,359.3,391z"/>
		<path class="st6" d="M807.1,288.9h110.2c2.6,0,4.6-2.1,4.6-4.6V224c0-2.6-2.1-4.6-4.6-4.6H807.1c-2.6,0-4.6,2.1-4.6,4.6v60.3
			C802.4,286.8,804.5,288.9,807.1,288.9z"/>
		<path class="st6" d="M670,288.9h110.2c2.6,0,4.6-2.1,4.6-4.6V224c0-2.6-2.1-4.6-4.6-4.6H670c-2.6,0-4.6,2.1-4.6,4.6v60.3
			C665.4,286.8,667.4,288.9,670,288.9z"/>
		<path class="st6" d="M533.3,288.9h110.2c2.6,0,4.6-2.1,4.6-4.6V224c0-2.6-2.1-4.6-4.6-4.6H533.3c-2.6,0-4.6,2.1-4.6,4.6v60.3
			C528.7,286.8,530.7,288.9,533.3,288.9z"/>
		<path class="st6" d="M425.3,316.3h19.4c3.4,0,6.1-2.8,6.1-6.1v-91.6c0-3.4-2.8-6.1-6.1-6.1h-19.4c-3.4,0-6.1,2.8-6.1,6.1v91.6
			C419.2,313.6,422,316.3,425.3,316.3z"/>
		<path class="st6" d="M367.3,316.3h19.4c3.4,0,6.1-2.8,6.1-6.1v-91.6c0-3.4-2.8-6.1-6.1-6.1h-19.4c-3.4,0-6.1,2.8-6.1,6.1v91.6
			C361.2,313.6,363.9,316.3,367.3,316.3z"/>
		<path class="st7" d="M1035.3,391h93.2c6.1,0,11-4.9,11-11V188.5c0-6.1-4.9-11-11-11h-93.2c-6.1,0-11,4.9-11,11V380
			C1024.3,386,1029.3,391,1035.3,391z"/>
		<path class="st6" d="M1312.5,288.9h82.7c2.6,0,4.6-2.1,4.6-4.6V224c0-2.6-2.1-4.6-4.6-4.6h-82.7c-2.6,0-4.6,2.1-4.6,4.6v60.3
			C1307.9,286.8,1309.9,288.9,1312.5,288.9z"/>
		<path class="st6" d="M1203.7,288.9h82.7c2.6,0,4.6-2.1,4.6-4.6V224c0-2.6-2.1-4.6-4.6-4.6h-82.7c-2.6,0-4.6,2.1-4.6,4.6v60.3
			C1199,286.8,1201.1,288.9,1203.7,288.9z"/>
		<path class="st6" d="M1101.3,316.3h19.4c3.4,0,6.1-2.8,6.1-6.1v-91.6c0-3.4-2.8-6.1-6.1-6.1h-19.4c-3.4,0-6.1,2.8-6.1,6.1v91.6
			C1095.2,313.6,1098,316.3,1101.3,316.3z"/>
		<path class="st6" d="M1043.3,316.3h19.4c3.4,0,6.1-2.8,6.1-6.1v-91.6c0-3.4-2.8-6.1-6.1-6.1h-19.4c-3.4,0-6.1,2.8-6.1,6.1v91.6
			C1037.2,313.6,1039.9,316.3,1043.3,316.3z"/>
		<path class="st6" d="M1627.3,204.8h18.5c6.6,0,12,5.4,12,12v33.1c0,6.6-5.4,12-12,12h-18.5c-6.6,0-12-5.4-12-12v-33.1
			C1615.3,210.1,1620.7,204.8,1627.3,204.8z"/>
		<path class="st6" d="M1781.3,249.5l-3.8,2.1c0,0-25.5-58-46-91.6l2.3-1.7C1733.8,158.4,1758.9,203.8,1781.3,249.5z"/>
	</g>
</g>
<g id="Omriss_6_">
	<circle class="st8" cx="1354.2" cy="406.1" r="11.9"/>
	<path class="st8" d="M1391,393c1.5,4.1,2.3,8.5,2.3,13.1c0,21.6-17.5,39.1-39.1,39.1s-39.1-17.5-39.1-39.1c0-5.3,1.1-10.4,3-15.1"
		/>
	<path class="st8" d="M1343,368.8c-3.5,1-6.8,2.6-9.9,4.5"/>
	<path class="st8" d="M1373.1,372c-2.4-1.4-5-2.4-7.7-3.2"/>
	<path class="st8" d="M1359.2,372.3l-12.1,0.4c2.3-0.5,4.7-0.7,7.1-0.7C1355.9,372,1357.6,372.1,1359.2,372.3z"/>
	<path class="st8" d="M1388.3,406.1c0,18.8-15.3,34.1-34.1,34.1c-18.8,0-34.1-15.3-34.1-34.1c0-5.4,1.3-10.5,3.5-15l58.1,0.4
		c0,0,1.2-0.3,3.3-0.1C1387.1,395.8,1388.3,400.8,1388.3,406.1z"/>
	<circle class="st8" cx="1555.6" cy="406.1" r="11.9"/>
	<path class="st8" d="M1576.3,373L1576.3,373c-2.9-1.8-6.1-3.3-9.5-4.3"/>
	<path class="st8" d="M1544.4,368.8c-2.9,0.8-5.6,2-8.2,3.5"/>
	<path class="st8" d="M1591.4,390.5c2.1,4.8,3.3,10.1,3.3,15.6c0,21.6-17.5,39.1-39.1,39.1s-39.1-17.5-39.1-39.1
		c0-3.1,0.4-6.2,1.1-9.1l0,0l0,0"/>
	<path class="st8" d="M1585.9,390.5c2.4,4.7,3.8,10,3.8,15.7c0,18.8-15.3,34.1-34.1,34.1c-18.8,0-34.1-15.3-34.1-34.1
		c0-5,1.1-9.7,3-14"/>
	<path class="st8" d="M1562.5,372.8L1562.5,372.8c-2.2-0.4-4.5-0.7-6.9-0.7c-1.9,0-3.7,0.2-5.5,0.4l0,0"/>
	<polyline class="st8" points="1347.1,372.8 1333.2,373.2 1333.2,373.2 1289.5,374.6 1289.5,390.8 1318.2,391 1323.6,391.1 	"/>
	<path class="st8" d="M1385,391.3c1.6,0.1,3.7,0.6,6.1,1.7c2.2,1,4.7,2.7,7.3,5.3c8.8,8.8,14.5,14.5,14.5,14.5s4.7,5.1,12.7,5.1
		s64.2,0,64.2,0s6.1,1,12-4.9s15.5-15.5,15.5-15.5s0.2-0.2,0.5-0.6l0,0c1-1,3.3-3.2,6.9-4.8c2.3-1.1,5.2-1.8,8.5-1.8
		c5,0,29.5,0.1,52.9,0.2c1.9,0,3.7,0,5.5,0c21.6,0.1,40.8,0.2,40.8,0.2V374c0,0-27.6-0.5-55.9-1.1l0,0c-4.6-0.1-9.2-0.2-13.8-0.3
		l0,0c-4.2-0.1-8.4-0.2-12.4-0.2l0,0c-5-0.1-9.7-0.2-13.9-0.3c-10.2-0.2-17.7-0.3-20-0.4c-9.8-0.2-12.9,3.6-12.9,3.6
		s-11,9.3-14.9,11.9c-3.9,2.5-6.6,2.2-6.6,2.2s-43.2,0-49.3,0c-6.1,0-9.3-3.6-9.3-3.6s-4.1-3.4-11.9-9.5s-14.1-5.3-14.1-5.3
		l-24.1,0.8l-14,0.4"/>
	<polyline class="st8" points="0.5,151.1 6.8,143.2 13.1,151.1 19.4,143.2 25.7,151.1 32,143.2 32,143.2 	"/>
	<polyline class="st8" points="0.5,350.5 6.8,358.4 13.1,350.5 19.4,358.4 25.7,350.5 32,358.4 32,358.4 	"/>
	<line class="st8" x1="13" y1="151" x2="13" y2="350.5"/>
	<line class="st8" x1="25.6" y1="151" x2="25.6" y2="350.5"/>
	<path class="st8" d="M1784.8,385.5l23.9,5.3c0,0-14.4,7.2-14.4,20.1c0,12.9,14.4,20.1,14.4,20.1h-78.9l-35.3-13.3
		c0,0-15.2-16.7-17.1-38.7v-4.6h131.3L1784.8,385.5z"/>
	<polyline class="st8" points="1743.1,431 1696.8,413.1 1689.6,390.8 1701.3,377.1 1720.3,374.5 	"/>
	<path class="st8" d="M1779.5,250.8c13.3,28.9,24.5,74.8,27.4,87.4c0.5,2.2,0.8,4.4,0.9,6.7l0.9,29.7"/>
	<path class="st8" d="M1781.3,249.8l-3.8,2.1c0,0-25.5-58-46-91.6l2.3-1.7C1733.8,158.5,1758.9,203.9,1781.3,249.8z"/>
	<path class="st8" d="M196.2,368.8h40.2h24.1l13.3,25.3l1.8,3.5l0,0l2.8,5.2l0.2,0.4h256.5l18.1-34.4h382.4l18.1,34.4h256.5
		l18.1-34.4H1637c0,0,9.7,0,17.3,2.5c7.6,2.5,15.6,8.2,15.6,8.2h7.6"/>
	<polyline class="st8" points="38.1,150.8 31.8,142.9 25.5,150.8 19.2,142.9 12.9,150.8 6.6,142.9 	"/>
	<polyline class="st8" points="38.1,350.2 31.8,358.1 25.5,350.2 19.2,358.1 12.9,350.2 6.6,358.1 	"/>
	<line class="st8" x1="1139.5" y1="351.6" x2="1808" y2="351.6"/>
	<line class="st8" x1="463.5" y1="351.6" x2="1024.4" y2="351.6"/>
	<line class="st8" x1="38.1" y1="351.6" x2="348.4" y2="351.6"/>
	<polyline class="st8" points="1725.6,183.4 1687.2,183.4 1680.4,171.6 38.1,171.6 	"/>
	<path class="st8" d="M1627.3,205.2h18.5c6.6,0,12,5.4,12,12v33.1c0,6.6-5.4,12-12,12h-18.5c-6.6,0-12-5.4-12-12v-33.1
		C1615.3,210.6,1620.7,205.2,1627.3,205.2z"/>
	<polyline class="st8" points="680.9,142.8 1573.7,142.8 1573.7,137.9 1708.1,137.9 	"/>
	<path class="st8" d="M1101.4,316.8h19.4c3.4,0,6.1-2.8,6.1-6.1v-91.6c0-3.4-2.8-6.1-6.1-6.1h-19.4c-3.4,0-6.1,2.8-6.1,6.1v91.6
		C1095.2,314,1098,316.8,1101.4,316.8z"/>
	<path class="st8" d="M1043.3,316.8h19.4c3.4,0,6.1-2.8,6.1-6.1v-91.6c0-3.4-2.8-6.1-6.1-6.1h-19.4c-3.4,0-6.1,2.8-6.1,6.1v91.6
		C1037.2,314,1039.9,316.8,1043.3,316.8z"/>
	<path class="st8" d="M1035.3,391.3h93.2c6.1,0,11-4.9,11-11V188.9c0-6.1-4.9-11-11-11h-93.2c-6.1,0-11,4.9-11,11v191.4
		C1024.4,386.5,1029.3,391.3,1035.3,391.3z"/>
	<path class="st8" d="M1312.5,289.3h82.7c2.6,0,4.6-2.1,4.6-4.6v-60.3c0-2.6-2.1-4.6-4.6-4.6h-82.7c-2.6,0-4.6,2.1-4.6,4.6v60.3
		C1307.9,287.3,1310,289.3,1312.5,289.3z"/>
	<path class="st8" d="M1203.7,289.3h82.7c2.6,0,4.6-2.1,4.6-4.6v-60.3c0-2.6-2.1-4.6-4.6-4.6h-82.7c-2.6,0-4.6,2.1-4.6,4.6v60.3
		C1199,287.3,1201.1,289.3,1203.7,289.3z"/>
	<path class="st8" d="M203.2,289.3h82.7c2.6,0,4.6-2.1,4.6-4.6v-60.3c0-2.6-2.1-4.6-4.6-4.6h-82.7c-2.6,0-4.6,2.1-4.6,4.6v60.3
		C198.6,287.3,200.7,289.3,203.2,289.3z"/>
	<path class="st8" d="M94.4,289.3h82.7c2.6,0,4.6-2.1,4.6-4.6v-60.3c0-2.6-2.1-4.6-4.6-4.6H94.4c-2.6,0-4.6,2.1-4.6,4.6v60.3
		C89.7,287.3,91.8,289.3,94.4,289.3z"/>
	<path class="st8" d="M807.1,289.3h110.2c2.6,0,4.6-2.1,4.6-4.6v-60.3c0-2.6-2.1-4.6-4.6-4.6H807.1c-2.6,0-4.6,2.1-4.6,4.6v60.3
		C802.4,287.3,804.5,289.3,807.1,289.3z"/>
	<path class="st8" d="M670,289.3h110.2c2.6,0,4.6-2.1,4.6-4.6v-60.3c0-2.6-2.1-4.6-4.6-4.6H670c-2.6,0-4.6,2.1-4.6,4.6v60.3
		C665.4,287.3,667.4,289.3,670,289.3z"/>
	<path class="st8" d="M533.3,289.3h110.2c2.6,0,4.6-2.1,4.6-4.6v-60.3c0-2.6-2.1-4.6-4.6-4.6H533.3c-2.6,0-4.6,2.1-4.6,4.6v60.3
		C528.7,287.3,530.7,289.3,533.3,289.3z"/>
	<line class="st8" x1="1081.9" y1="178" x2="1081.9" y2="391"/>
	<path class="st8" d="M425.4,316.8h19.4c3.4,0,6.1-2.8,6.1-6.1v-91.6c0-3.4-2.8-6.1-6.1-6.1h-19.4c-3.4,0-6.1,2.8-6.1,6.1v91.6
		C419.2,314,422,316.8,425.4,316.8z"/>
	<path class="st8" d="M367.3,316.8h19.4c3.4,0,6.1-2.8,6.1-6.1v-91.6c0-3.4-2.8-6.1-6.1-6.1h-19.4c-3.4,0-6.1,2.8-6.1,6.1v91.6
		C361.2,314,363.9,316.8,367.3,316.8z"/>
	<path class="st8" d="M359.3,391.3h93.2c6.1,0,11-4.9,11-11V188.9c0-6.1-4.9-11-11-11h-93.2c-6.1,0-11,4.9-11,11v191.4
		C348.4,386.5,353.3,391.3,359.3,391.3z"/>
	<line class="st8" x1="405.9" y1="178" x2="405.9" y2="391.3"/>
	<rect x="1808.7" y="359.4" class="st8" width="27.4" height="11.8"/>
	<rect x="1836" y="358.1" class="st8" width="19.3" height="14.6"/>
	<polygon class="st8" points="1863.9,351.9 1863.9,338.5 1855.4,327.4 1845.7,327.4 1827.2,335.2 1827.2,338.5 1847.3,338.5 
		1847.3,352.3 1863.9,352.3 	"/>
	<polyline class="st8" points="1847.3,342.4 1834.1,345.2 1835,350.8 1847.3,348 	"/>
	<polygon class="st8" points="1834.1,346 1808,351.3 1808.2,355.3 1834.9,349.8 	"/>
	<line class="st8" x1="1863.9" y1="384.2" x2="1863.9" y2="352.3"/>
	<polyline class="st8" points="1860.8,352.3 1860.8,376.8 1855.4,376.8 1855.4,372.8 	"/>
	<path class="st8" d="M1863.5,354.1l6.3,6.3h3.1c0,0,1.3,0.7,1.3,1.8s0,6.4,0,6.4s-0.5,1.5-1.8,1.5s-2.4,0-2.4,0l-6,6.6"/>
	<path class="st9" d="M1882.9,388.5l-8-9.8c0,0-0.6-0.6-1.8-0.6s-9.2,0-9.2,0v3.7h7.8c0,0,1.7-0.1,2.4,0.6c0.7,0.7,6.8,7.7,6.8,7.7
		s1.5,1.8,2.5,0.8C1884.5,390,1882.9,388.5,1882.9,388.5z"/>
	<line class="st8" x1="1855.4" y1="352.3" x2="1855.4" y2="358.1"/>
	<rect x="1581.7" y="112.6" class="st8" width="58.8" height="13"/>
	<g>
		<line class="st8" x1="1634.1" y1="112.7" x2="1634.1" y2="125.6"/>
		<line class="st8" x1="1627.5" y1="112.7" x2="1627.5" y2="125.6"/>
		<line class="st8" x1="1620.9" y1="112.7" x2="1620.9" y2="125.6"/>
		<line class="st8" x1="1614.3" y1="112.7" x2="1614.3" y2="125.6"/>
		<line class="st8" x1="1607.7" y1="112.7" x2="1607.7" y2="125.6"/>
		<line class="st8" x1="1601.1" y1="112.7" x2="1601.1" y2="125.6"/>
		<line class="st8" x1="1594.5" y1="112.7" x2="1594.5" y2="125.6"/>
		<line class="st8" x1="1587.9" y1="112.7" x2="1587.9" y2="125.6"/>
	</g>
	<rect x="1503.5" y="112.6" class="st8" width="58.8" height="30.1"/>
	<g>
		<line class="st8" x1="1556" y1="112.7" x2="1556" y2="142.8"/>
		<line class="st8" x1="1549.4" y1="112.7" x2="1549.4" y2="142.8"/>
		<line class="st8" x1="1542.8" y1="112.7" x2="1542.8" y2="142.8"/>
		<line class="st8" x1="1536.2" y1="112.7" x2="1536.2" y2="142.8"/>
		<line class="st8" x1="1529.6" y1="112.7" x2="1529.6" y2="142.8"/>
		<line class="st8" x1="1523" y1="112.7" x2="1523" y2="142.8"/>
		<line class="st8" x1="1516.5" y1="112.7" x2="1516.5" y2="142.8"/>
		<line class="st8" x1="1509.9" y1="112.7" x2="1509.9" y2="142.8"/>
	</g>
	<rect x="1339.1" y="112.6" class="st8" width="58.8" height="30.1"/>
	<g>
		<line class="st8" x1="1391.6" y1="112.7" x2="1391.6" y2="142.8"/>
		<line class="st8" x1="1385" y1="112.7" x2="1385" y2="142.8"/>
		<line class="st8" x1="1378.4" y1="112.7" x2="1378.4" y2="142.8"/>
		<line class="st8" x1="1371.8" y1="112.7" x2="1371.8" y2="142.8"/>
		<line class="st8" x1="1365.2" y1="112.7" x2="1365.2" y2="142.8"/>
		<line class="st8" x1="1358.6" y1="112.7" x2="1358.6" y2="142.8"/>
		<line class="st8" x1="1352" y1="112.7" x2="1352" y2="142.8"/>
		<line class="st8" x1="1345.4" y1="112.7" x2="1345.4" y2="142.8"/>
	</g>
	<rect x="1224.6" y="112.6" class="st8" width="58.8" height="30.1"/>
	<g>
		<line class="st8" x1="1277.2" y1="112.7" x2="1277.2" y2="142.8"/>
		<line class="st8" x1="1270.6" y1="112.7" x2="1270.6" y2="142.8"/>
		<line class="st8" x1="1264" y1="112.7" x2="1264" y2="142.8"/>
		<line class="st8" x1="1257.4" y1="112.7" x2="1257.4" y2="142.8"/>
		<line class="st8" x1="1250.8" y1="112.7" x2="1250.8" y2="142.8"/>
		<line class="st8" x1="1244.2" y1="112.7" x2="1244.2" y2="142.8"/>
		<line class="st8" x1="1237.6" y1="112.7" x2="1237.6" y2="142.8"/>
		<line class="st8" x1="1231" y1="112.7" x2="1231" y2="142.8"/>
	</g>
	<rect x="1110.2" y="112.6" class="st8" width="58.8" height="30.1"/>
	<g>
		<line class="st8" x1="1162.6" y1="112.7" x2="1162.6" y2="142.8"/>
		<line class="st8" x1="1156" y1="112.7" x2="1156" y2="142.8"/>
		<line class="st8" x1="1149.4" y1="112.7" x2="1149.4" y2="142.8"/>
		<line class="st8" x1="1142.8" y1="112.7" x2="1142.8" y2="142.8"/>
		<line class="st8" x1="1136.2" y1="112.7" x2="1136.2" y2="142.8"/>
		<line class="st8" x1="1129.6" y1="112.7" x2="1129.6" y2="142.8"/>
		<line class="st8" x1="1123" y1="112.7" x2="1123" y2="142.8"/>
		<line class="st8" x1="1116.4" y1="112.7" x2="1116.4" y2="142.8"/>
	</g>
	<rect x="994.9" y="112.6" class="st8" width="58.8" height="30.1"/>
	<g>
		<line class="st8" x1="1047.4" y1="112.7" x2="1047.4" y2="142.8"/>
		<line class="st8" x1="1040.8" y1="112.7" x2="1040.8" y2="142.8"/>
		<line class="st8" x1="1034.3" y1="112.7" x2="1034.3" y2="142.8"/>
		<line class="st8" x1="1027.7" y1="112.7" x2="1027.7" y2="142.8"/>
		<line class="st8" x1="1021.1" y1="112.7" x2="1021.1" y2="142.8"/>
		<line class="st8" x1="1014.5" y1="112.7" x2="1014.5" y2="142.8"/>
		<line class="st8" x1="1007.9" y1="112.7" x2="1007.9" y2="142.8"/>
		<line class="st8" x1="1001.3" y1="112.7" x2="1001.3" y2="142.8"/>
	</g>
	<rect x="912.3" y="112" class="st8" width="58.8" height="13"/>
	<g>
		<line class="st8" x1="964.8" y1="111.9" x2="964.8" y2="124.9"/>
		<line class="st8" x1="958.2" y1="111.9" x2="958.2" y2="124.9"/>
		<line class="st8" x1="951.6" y1="111.9" x2="951.6" y2="124.9"/>
		<line class="st8" x1="945" y1="111.9" x2="945" y2="124.9"/>
		<line class="st8" x1="938.4" y1="111.9" x2="938.4" y2="124.9"/>
		<line class="st8" x1="931.8" y1="111.9" x2="931.8" y2="124.9"/>
		<line class="st8" x1="925.2" y1="111.9" x2="925.2" y2="124.9"/>
		<line class="st8" x1="918.6" y1="111.9" x2="918.6" y2="124.9"/>
	</g>
	<rect x="850.5" y="112" class="st8" width="58.8" height="13"/>
	<g>
		<line class="st8" x1="902.9" y1="111.9" x2="902.9" y2="124.9"/>
		<line class="st8" x1="896.3" y1="111.9" x2="896.3" y2="124.9"/>
		<line class="st8" x1="889.7" y1="111.9" x2="889.7" y2="124.9"/>
		<line class="st8" x1="883.1" y1="111.9" x2="883.1" y2="124.9"/>
		<line class="st8" x1="876.5" y1="111.9" x2="876.5" y2="124.9"/>
		<line class="st8" x1="869.9" y1="111.9" x2="869.9" y2="124.9"/>
		<line class="st8" x1="863.3" y1="111.9" x2="863.3" y2="124.9"/>
		<line class="st8" x1="856.7" y1="111.9" x2="856.7" y2="124.9"/>
	</g>
	<path class="st8" d="M1435.9,142.8V97.6c-3.6,0-5.6,0-5.6,0h-242.2v45.1"/>
	<polyline class="st8" points="1181,142.8 1181,97.6 983.6,97.6 983.6,142.8 	"/>
	<polyline class="st8" points="976.6,142.8 976.6,97.6 729.6,97.6 729.6,142.8 	"/>
	<path class="st8" d="M722.6,142.8V97.6c0,0-5.7-0.4-9,2.3c-10.2,8.5-27.4,25.3-31.7,31.6c-0.7,0.9-1,2.1-1,3.2v8.1H146.8V127
		L116,97.4c0,0-1.3-2.8-11.8-2.8s-66,0-66,0v60.5v196.4v27.8H61l9.1-10.8h37.2H144h52.2"/>
	<path class="st8" d="M1568,142.8V97.6c-49.2,0-101.6,0-125.1,0v45.1"/>
	<path class="st8" d="M1733.8,158.5c0,0-8.6-18.4-25.7-20.7c0,0-7.6-24.9-24.5-37.8c0,0-2.1-2.5-7.2-2.5c-2.2,0-49.1,0-101.4,0v40.3
		"/>
	<line class="st8" x1="1575" y1="101.7" x2="1568" y2="101.7"/>
	<line class="st8" x1="1442.9" y1="101.7" x2="1435.9" y2="101.7"/>
	<line class="st8" x1="1188.1" y1="101.7" x2="1181" y2="101.7"/>
	<line class="st8" x1="983.6" y1="101.7" x2="976.6" y2="101.7"/>
	<line class="st8" x1="729.6" y1="101.7" x2="722.6" y2="101.7"/>
	<line class="st8" x1="25.6" y1="150.8" x2="25.6" y2="350.3"/>
	<line class="st8" x1="13" y1="150.8" x2="13" y2="350.3"/>
	<polyline class="st8" points="0.5,410.2 69,410.2 81.9,410.2 	"/>
	
		<ellipse transform="matrix(3.327798e-02 -0.9994 0.9994 3.327798e-02 -282.6189 517.1143)" class="st8" cx="126" cy="404.6" rx="11.9" ry="11.9"/>
	<path class="st8" d="M155.9,422.5h6h0.5C155.8,435.8,142,445,126,445c-16.3,0-30.3-9.6-36.7-23.5 M91.2,384c1.7-2.8,3.7-5.4,6-7.8
		c3-3.1,6.5-5.7,10.4-7.6h36.8c3.9,2,7.4,4.6,10.4,7.6c2.2,2.3,4.2,4.8,5.9,7.6h-0.3h-6.5"/>
	<path class="st8" d="M98.1,384c6.3-8.5,16.5-14,27.9-14s21.6,5.5,27.9,14"/>
	<path class="st8" d="M95.7,421.8c6,10.6,17.3,17.8,30.3,17.8c12.7,0,23.9-6.9,29.9-17.1"/>
	<circle class="st8" cx="183.6" cy="393.5" r="9.6"/>
	<polyline class="st8" points="78.1,381.8 78.1,397.5 80,397.5 80.8,397.5 82.7,397.5 82.7,388.5 82.7,388.1 82.7,378 	"/>
	<path class="st8" d="M82.7,388.1c3.4-2.7,6.4-3.7,8.1-4.1c0.1,0,0.2-0.1,0.3-0.1c0.9-0.2,1.4-0.1,1.4-0.1h5.2H98h19h0.2h15.1h1.3
		h20.1h0.3h6.5h0.3h22.6"/>
	<polyline class="st8" points="273.8,394 236.4,394 236.4,368.8 	"/>
	<line class="st8" x1="278.4" y1="402.8" x2="196.2" y2="419.5"/>
	<path class="st8" d="M275.7,397.5L275.7,397.5c-27.3,6-80,17.7-80,17.7"/>
	<line class="st8" x1="192.9" y1="396" x2="186.5" y2="415.6"/>
	<polyline class="st8" points="174,394.5 174.2,395.1 174.5,396.6 	"/>
	<path class="st8" d="M185.7,403l-7.9,7l-14,12.4h-1.5h-0.5h-6h-4.3l-18-38.5H117l-17.4,37.9l-3.9-0.1l-6.4-0.1h-2l-5.4-4.7V405
		l-12.2,4.9l-0.2,0.1l-0.6,0.2c-0.5,0.2-1,0.2-1.5,0.2c-2.8,0-5.1-2.3-5.1-5.1c0-2.4,1.7-4.5,4-5c0.1,0,0.2-0.1,0.3-0.1h0.2
		l12.2-2.5c0.2-0.1,0.6-0.1,0.9-0.1c0.1,0,0.3,0,0.4,0s0.3,0,0.4,0c1.9,0.2,3.5,1.9,3.5,3.9c0,1.6-1,3-2.4,3.6"/>
	<polyline class="st8" points="86.1,368.6 86.1,375.2 82.7,378 78.1,381.8 76.1,383.5 61.4,383.5 61.4,379 	"/>
	<circle class="st8" cx="191.2" cy="417.8" r="5.3"/>
	<polyline class="st8" points="186,419.5 180.8,419.5 177.8,410 	"/>
	<path class="st10" d="M1697.3,260.1h17.7c5.8,0,10.5-4.5,10.8-10.2c0-0.4,0-0.8-0.1-1.2l-6-28.4c-1.2-6.4-4.9-10.9-10.9-10.9h-11.6
		c-6,0-10.9,4.9-10.9,10.9v29C1686.4,255.3,1691.3,260.1,1697.3,260.1z"/>
</g>
</svg>
