<?xml version="1.0" encoding="utf-8"?>
<!-- Generator: Adobe Illustrator 22.0.1, SVG Export Plug-In . SVG Version: 6.00 Build 0)  -->
<svg version="1.1" id="Type_75_1_" xmlns="http://www.w3.org/2000/svg" xmlns:xlink="http://www.w3.org/1999/xlink" x="0px" y="0px"
	 viewBox="0 0 1702.5 428" style="enable-background:new 0 0 1702.5 428;" xml:space="preserve">
<metadata><?xpacket begin="﻿" id="W5M0MpCehiHzreSzNTczkc9d"?>
<x:xmpmeta xmlns:x="adobe:ns:meta/" x:xmptk="Adobe XMP Core 5.6-c143 79.161210, 2017/08/11-10:28:36        ">
   <rdf:RDF xmlns:rdf="http://www.w3.org/1999/02/22-rdf-syntax-ns#">
      <rdf:Description rdf:about=""/>
   </rdf:RDF>
</x:xmpmeta>
                                                                                                    
                                                                                                    
                                                                                                    
                                                                                                    
                                                                                                    
                                                                                                    
                                                                                                    
                                                                                                    
                                                                                                    
                                                                                                    
                                                                                                    
                                                                                                    
                                                                                                    
                                                                                                    
                                                                                                    
                                                                                                    
                                                                                                    
                                                                                                    
                                                                                                    
                                                                                                    
                           
<?xpacket end="w"?></metadata>
<style type="text/css">
	.st0{fill:#333F48;}
	.st1{fill:#212322;}
	.st2{fill:#C7C9C7;}
	.st3{fill:#444445;}
	.st4{fill:#DA291C;}
	.st5{fill:#101820;}
	.st6{fill:#B1B3B3;}
	.st7{fill:#878787;}
	.st8{opacity:0.7;enable-background:new    ;}
	.st9{fill:#151515;}
	.st10{fill:#FA4616;}
	.st11{fill:none;stroke:#000000;stroke-width:2;stroke-miterlimit:10;}
</style>
<g id="Mål_10_">
</g>
<g>
	<g id="Farger_10_">
		<g id="Grunnfarge_6_">
			<path class="st0" d="M1662.2,309.2v69.5c0,0-88.4,0-93.1,0c-3,0-6.2-0.2-8.1-0.3c-1.1-0.1-2.2,0-3.3,0.2l-1.9,0.4
				c-1.7,0.3-3.2,1-4.6,2l-2.8,2.1h-993c0,0-22.7-13.4-28.3-16.7c-19-11.1-35.8-10.6-35.7-11.3c0.9-5.8-3.8-5.2-3.8-5.2
				s-52.7-0.1-58.3-0.1s-41.2,0-41.2,0s-40.4-0.2-48.7-0.2c-5.9,0-4.4,6.7-4.4,6.7s-29.6,0.6-33.4,3.2c-3.9,2.7-27.6,13.7-31.6,16.5
				c-2.7,1.9-24.4,14.4-27.4,16.2c-3,1.7-4.6,1.6-4.6,1.6s-56.4,0.1-59.9,0s-4.6-1.9-4.6-1.9s-9.5-18.7-10.4-20.5s-2.4-1.5-2.4-1.5
				c-8-1.5-110,2.5-111.5,2.2c-1.4-0.3-3.4-7.6-3.4-7.6s7.2,0,10.7,0s2.9-2.7,2.9-2.7c-2.5-6.4-6.6-25.6-7.3-29.7s-4.7-3.5-4.7-3.5
				h-6.9v-7c4.4-2.7,8.2-8.4,8.2-8.4c112.1-7.1,201.5-6,201.5-6L1662.2,309.2L1662.2,309.2z"/>
			<path class="st1" d="M245.9,399.7c0,0,5.4-1.7,6.3-2s1.7-1.5,1.7-1.5l2.6-12.4l0.4-0.2c3.9-2.5,34.3-21.9,46.8-24.4
				c10.5-2.1,25.2-2.6,31.1-2.7h0.1v-3.9c0,0-0.1-2.3,2.1-2.3s151.3,0,151.3,0s3.2,0.3,3.2,2.3s0,3,0,3c12.5,0,29.5,7.8,29.5,7.8
				s5.6,1.6,17.3,9.3c11.1,7.3,10.8,6,11.6,7.3c1.5,2.8,2.2,10.5,2.2,10.5l0.6,5.5c0,0,0.8,1.2,1.7,1.5c0.9,0.2,6.3,2,6.3,2l4.3,0.1
				v11.5h-18.3c0,0-3.1,0.5-4.4-4.9c-0.9-3.8-3.4-17.3-6.5-30.1l-4.7-1.8c3.1,9.1,3.8,13.1,3.8,17.3c0,20-16.2,36.3-36.3,36.3
				c-12.3,0-23.2-6.1-29.7-15.5h-28.4l-5.6-3.9c-4.3,4.3-7.5,3.7-7.5,3.7s-39.6,0-46,0s-9.1-3.2-9.1-3.2l-4.2-4.1l0,0
				c-4,4.1-9.6,6.7-15.8,6.7c-4.4,0-8.6-1.3-12-3.6l0,0c-6,11.9-18.2,20-32.4,20c-20.1,0-36.3-16.3-36.3-36.3c0-5,1-9.7,3-16.7
				l-5.2,1.8c-1.3,9.1-4.3,25.5-5.3,29.7c-1.3,5.3-4.4,4.8-4.4,4.8h-18.3v-11.5L245.9,399.7z"/>
			<path class="st1" d="M1702.5,378.7v-1.3h-40.8v1.3h-62.5l0,0H1562c0,0-4.6-0.5-10,1.8l-3.7,2.7h-8.1l-0.2,6.3v0.3v-0.3
				c0,0.6,0,1.2,0,1.9c0,19.9,16.2,36.1,36.1,36.1c14.4,0,26.7-8.4,32.5-20.6l10.6,1.2l11.6-3c9.6,0,32.8,0,32.8,0h38.8"/>
			<polygon class="st0" points="1327.5,383.7 1327.5,393.6 1447.3,393.6 1447.3,383.7 1331.9,383.7 			"/>
			<polygon class="st0" points="700.4,382.7 700.4,392.6 820.2,392.6 820.2,382.7 704.8,382.7 			"/>
			<path class="st1" d="M40.3,328.8L19.5,331v31.4l26,2.3h11.8c0,0,2.7-0.2,1.8-3.3c-0.9-3.1-4.2-13.3-5.2-19.4s-2.1-10.6-2.4-11
				c-0.3-0.4-0.8-2.1-4.3-2.1C43.8,328.8,40.3,328.8,40.3,328.8z"/>
			<path class="st2" d="M249.4,98.2h3.5v-6.1h300.8v6.1h159.5v-6.1h254.7v6.1h4.9l131,11.5h558.8v200.7l-1327.2-1.3l-162.6-0.9
				c0,0-88,1.6-129.1,6.1c0,0,35.7-191.6,205.6-222.2L249.4,98.2z"/>
			<path class="st3" d="M131.7,370.6L76,377.9c0,0,3.2,9.3-6.7,19.3c-10,9.9-19.2,15.6-9.9,14.7c5.3-0.5,21.1-0.2,33.7,0.1
				c9.5,0.2,17.2,0.5,17.2,0.5l60.4-25.6l-7.9-15.3c0,0-0.5-1.4-3.3-1.6C156.7,369.8,131.7,370.6,131.7,370.6z"/>
			<path class="st3" d="M41.8,364.5c0,0,1.4,2.5,0.9,3.6s-0.2,2.1-0.2,2.1l2.7,8h0.4c0.5-4.8,4.1-5.4,4.1-5.4s-1.7-0.3-2.4-2.7
				c-0.7-2.4-1.6-5.3-1.6-5.3L41.8,364.5z"/>
			<rect x="1662.8" y="158.2" class="st3" width="39.2" height="218.5"/>
			<polygon class="st3" points="1701.6,151.3 1663,152.3 1663,146.3 1701.8,143.8 			"/>
		</g>
		<g id="Profilering_10_">
			<polygon class="st4" points="482.2,156.3 1662.8,156.6 1662.7,198 441.3,197.1 			"/>
			<polygon class="st4" points="702.6,309.2 665.3,309.2 336,309.2 298.6,348.4 665.3,348.4 665.3,348.4 1662.3,348.4 1662.3,309.2 
							"/>
			<polygon class="st5" points="840.5,197.1 816.8,197.1 441.6,197.1 336,309.2 816.9,309.2 840.5,309.2 1662.2,309.2 1662.2,197.1 
							"/>
			<g>
				<polygon class="st6" points="1662.3,326.5 319.6,326.5 326,319.7 1662.3,319.7 				"/>
			</g>
			<g>
				<polygon class="st6" points="379.8,335.9 310.6,335.9 313.8,332.6 378.4,332.6 532.9,170.6 1662.7,170.6 1662.7,173.9 
					534.4,173.9 				"/>
			</g>
		</g>
		<g id="Dører_og_vinduer_9_">
			<path class="st5" d="M141.1,271.6c1.2-11.8,4.5-30.4,13.9-46.3c9-15.1,25.5-24.1,43-24.2c4.6,0,8-0.1,31.3,0
				c6,0,10.8,4.8,10.8,10.8c0,15.8,0,44.9,0,60.7c0,6-4.8,10.8-10.8,10.8h-77.5C145.4,283.4,140.4,277.9,141.1,271.6z"/>
			<path class="st7" d="M227.8,205.5h-25.6c-4.5,0-8.1,3.7-8.1,8.1v57.1c0,4.5,3.7,8.1,8.1,8.1h25.6c4.5,0,8.1-3.7,8.1-8.1v-57.1
				C235.9,209.2,232.2,205.5,227.8,205.5z"/>
			<path class="st7" d="M657.1,206.1H553.9c-4.5,0-8.1,3.7-8.1,8.1v57.2c0,4.5,3.7,8.1,8.1,8.1h103.2c4.5,0,8.1-3.7,8.1-8.1v-57.1
				C665.3,209.8,661.6,206.1,657.1,206.1z"/>
			<path class="st7" d="M1126.3,233.2h-103.2c-4.5,0-8.1,3.7-8.1,8.1v57.1c0,4.5,3.7,8.1,8.1,8.1h103.2c4.5,0,8.1-3.7,8.1-8.1v-57.1
				C1134.5,236.8,1130.8,233.2,1126.3,233.2z"/>
			<path class="st7" d="M967.9,205.9H864.6c-4.5,0-8.1,3.7-8.1,8.1v84.2c0,4.5,3.7,8.1,8.1,8.1h103.2c4.5,0,8.1-3.7,8.1-8.1V214
				C976,209.5,972.3,205.9,967.9,205.9z"/>
			<path class="st8" d="M856.5,233.8H976V214c0-4.5-3.6-8.2-8.1-8.2H864.6c-4.5,0-8.2,3.7-8.2,8.2v19.8H856.5z"/>
			<path class="st7" d="M1284.4,205.9h-103.2c-4.5,0-8.1,3.7-8.1,8.1v84.2c0,4.5,3.7,8.1,8.1,8.1h103.2c4.5,0,8.1-3.7,8.1-8.1V214
				C1292.6,209.5,1288.9,205.9,1284.4,205.9z"/>
			<path class="st8" d="M1173.1,233.8h119.5V214c0-4.5-3.6-8.2-8.1-8.2h-103.2c-4.5,0-8.2,3.7-8.2,8.2L1173.1,233.8L1173.1,233.8z"
				/>
			<path class="st7" d="M1595.7,204.8h-103.2c-4.5,0-8.1,3.7-8.1,8.1V270c0,4.5,3.7,8.1,8.1,8.1h103.2c4.5,0,8.1-3.7,8.1-8.1v-57.1
				C1603.8,208.5,1600.1,204.8,1595.7,204.8z"/>
			<path class="st9" d="M47.5,314.1l-5.7,0.5c0,0-3.1-3-3.7-3.4c0,0-0.3-32.3,13.8-57.3l10.5-4c0,0,17.9-38.1,30.3-51.8
				s24.5-28.2,30.1-33.9c5.5-5.7,29.2-26.6,35.8-29.2c0,0,19.4-15,21.7-16.6c2.2-1.6,33.8-21,57.5-24.1c0,0,7.7-1.6,8.8-1.5
				s3.5-0.4,3.5,3.7c0,4.1,0,12.9,0,12.9s-35.3-4.2-79.8,19.1s-75.4,70.6-75.4,70.6s-26.7,43.7-34.6,66.4S48.5,296.4,47.5,314.1z"/>
			<path class="st10" d="M812.6,186.8H709.3c-4.5,0-8.1,3.7-8.1,8.1v170.8c0,4.5,3.7,8.1,8.1,8.1h103.2c4.5,0,8.1-3.7,8.1-8.1V194.9
				C820.7,190.4,817,186.8,812.6,186.8z"/>
			<path class="st7" d="M736.7,203.3h-12.4c-4.5,0-8.1,3.7-8.1,8.1V299c0,4.5,3.7,8.1,8.1,8.1h12.4c4.5,0,8.1-3.7,8.1-8.1v-87.6
				C744.9,207,741.2,203.3,736.7,203.3z"/>
			<path class="st7" d="M796.1,203.3h-12.4c-4.5,0-8.1,3.7-8.1,8.1V299c0,4.5,3.7,8.1,8.1,8.1h12.4c4.5,0,8.1-3.7,8.1-8.1v-87.6
				C804.2,207,800.6,203.3,796.1,203.3z"/>
			<path class="st10" d="M1439.5,185.7h-103.2c-4.5,0-8.1,3.7-8.1,8.1v170.8c0,4.5,3.7,8.1,8.1,8.1h103.2c4.5,0,8.1-3.7,8.1-8.1
				V193.8C1447.6,189.4,1444,185.7,1439.5,185.7z"/>
			<path class="st7" d="M1364.4,203.3H1352c-4.5,0-8.1,3.7-8.1,8.1V299c0,4.5,3.7,8.1,8.1,8.1h12.4c4.5,0,8.1-3.7,8.1-8.1v-87.6
				C1372.5,207,1368.9,203.3,1364.4,203.3z"/>
			<path class="st7" d="M1423.8,203.3h-12.4c-4.5,0-8.1,3.7-8.1,8.1V299c0,4.5,3.7,8.1,8.1,8.1h12.4c4.5,0,8.1-3.7,8.1-8.1v-87.6
				C1431.9,207,1428.3,203.3,1423.8,203.3z"/>
		</g>
	</g>
	<g id="Omriss_10_">
		<polyline class="st11" points="249.5,98 882.8,98 974.3,98 1104,109.9 1281.1,109.9 1662.7,109.9 1662.7,378.3 1610.7,378.3 
			1603.2,378.3 1598.9,378.3 		"/>
		<polyline class="st11" points="252.9,98 252.9,92.1 553.7,92.1 553.7,98 		"/>
		<polyline class="st11" points="713.2,98 713.2,92 967.9,92 967.9,98 		"/>
		<rect x="311.4" y="120.8" class="st11" width="37.5" height="19.4"/>
		<line class="st11" x1="249.9" y1="156.3" x2="1662.7" y2="156.3"/>
		<path class="st11" d="M657,205.1H553.8c-4.5,0-8.1,3.7-8.1,8.1v57.2c0,4.5,3.7,8.1,8.1,8.1H657c4.5,0,8.1-3.7,8.1-8.1v-57.1
			C665.2,208.8,661.5,205.1,657,205.1z"/>
		<path class="st11" d="M1126,232.8h-103.2c-4.5,0-8.1,3.7-8.1,8.1V298c0,4.5,3.7,8.1,8.1,8.1H1126c4.5,0,8.1-3.7,8.1-8.1v-57.1
			C1134.1,236.4,1130.4,232.8,1126,232.8z"/>
		<path class="st11" d="M967.9,205.7H864.6c-4.5,0-8.1,3.7-8.1,8.1V298c0,4.5,3.7,8.1,8.1,8.1h103.2c4.5,0,8.1-3.7,8.1-8.1v-84.2
			C976,209.3,972.3,205.7,967.9,205.7z"/>
		<line class="st11" x1="860.9" y1="233.6" x2="971.4" y2="233.6"/>
		<path class="st11" d="M1284.4,205.7h-103.2c-4.5,0-8.1,3.7-8.1,8.1V298c0,4.5,3.7,8.1,8.1,8.1h103.2c4.5,0,8.1-3.7,8.1-8.1v-84.2
			C1292.6,209.3,1288.9,205.7,1284.4,205.7z"/>
		<line class="st11" x1="1177.4" y1="233.6" x2="1288" y2="233.6"/>
		<path class="st11" d="M812.2,185.7H708.9c-4.5,0-8.1,3.7-8.1,8.1v170.8c0,4.5,3.7,8.1,8.1,8.1h103.2c4.5,0,8.1-3.7,8.1-8.1V193.8
			C820.3,189.4,816.6,185.7,812.2,185.7z"/>
		<path class="st11" d="M737.1,202.3h-12.4c-4.5,0-8.1,3.7-8.1,8.1V298c0,4.5,3.7,8.1,8.1,8.1h12.4c4.5,0,8.1-3.7,8.1-8.1v-87.6
			C745.3,205.9,741.6,202.3,737.1,202.3z"/>
		<path class="st11" d="M796.5,202.3h-12.4c-4.5,0-8.1,3.7-8.1,8.1V298c0,4.5,3.7,8.1,8.1,8.1h12.4c4.5,0,8.1-3.7,8.1-8.1v-87.6
			C804.7,205.9,801,202.3,796.5,202.3z"/>
		<line class="st11" x1="762.2" y1="184.6" x2="762.2" y2="366.8"/>
		<circle class="st11" cx="754.3" cy="292.8" r="2.4"/>
		<path class="st11" d="M1439.5,185.7h-103.2c-4.5,0-8.1,3.7-8.1,8.1v170.8c0,4.5,3.7,8.1,8.1,8.1h103.2c4.5,0,8.1-3.7,8.1-8.1
			V193.8C1447.6,189.4,1444,185.7,1439.5,185.7z"/>
		<circle class="st11" cx="1381.6" cy="292.8" r="2.4"/>
		<rect x="888" y="111.9" class="st11" width="52.9" height="39.7"/>
		<rect x="1208.2" y="111.9" class="st11" width="91.2" height="39.7"/>
		<g>
			<g>
				<line class="st11" x1="1292.3" y1="112" x2="1292.3" y2="151.6"/>
				<line class="st11" x1="1285.3" y1="112" x2="1285.3" y2="151.6"/>
				<line class="st11" x1="1278.4" y1="112" x2="1278.4" y2="151.6"/>
			</g>
			<g>
				<line class="st11" x1="1271.3" y1="112" x2="1271.3" y2="151.6"/>
				<line class="st11" x1="1264.3" y1="112" x2="1264.3" y2="151.6"/>
				<line class="st11" x1="1257.4" y1="112" x2="1257.4" y2="151.6"/>
			</g>
			<g>
				<line class="st11" x1="1250.3" y1="112" x2="1250.3" y2="151.6"/>
				<line class="st11" x1="1243.4" y1="112" x2="1243.4" y2="151.6"/>
				<line class="st11" x1="1236.4" y1="112" x2="1236.4" y2="151.6"/>
			</g>
			<g>
				<line class="st11" x1="1229.3" y1="112" x2="1229.3" y2="151.6"/>
				<line class="st11" x1="1222.4" y1="112" x2="1222.4" y2="151.6"/>
				<line class="st11" x1="1215.4" y1="112" x2="1215.4" y2="151.6"/>
			</g>
		</g>
		<g>
			<g>
				<line class="st11" x1="935.4" y1="112" x2="935.4" y2="151.6"/>
				<line class="st11" x1="928.5" y1="112" x2="928.5" y2="151.6"/>
				<line class="st11" x1="921.6" y1="112" x2="921.6" y2="151.6"/>
			</g>
			<g>
				<line class="st11" x1="914.4" y1="112" x2="914.4" y2="151.6"/>
				<line class="st11" x1="907.5" y1="112" x2="907.5" y2="151.6"/>
				<line class="st11" x1="900.6" y1="112" x2="900.6" y2="151.6"/>
			</g>
			<g>
				<line class="st11" x1="893.5" y1="112" x2="893.5" y2="151.6"/>
			</g>
		</g>
		<rect x="763.4" y="111.9" class="st11" width="52.9" height="39.7"/>
		<g>
			<g>
				<line class="st11" x1="810.8" y1="112" x2="810.8" y2="151.6"/>
				<line class="st11" x1="803.8" y1="112" x2="803.8" y2="151.6"/>
				<line class="st11" x1="796.9" y1="112" x2="796.9" y2="151.6"/>
			</g>
			<g>
				<line class="st11" x1="789.8" y1="112" x2="789.8" y2="151.6"/>
				<line class="st11" x1="782.9" y1="112" x2="782.9" y2="151.6"/>
				<line class="st11" x1="775.9" y1="112" x2="775.9" y2="151.6"/>
			</g>
			<g>
				<line class="st11" x1="768.8" y1="112" x2="768.8" y2="151.6"/>
			</g>
		</g>
		<rect x="494.8" y="112" class="st11" width="91.2" height="39.7"/>
		<g>
			<g>
				<line class="st11" x1="578.9" y1="112" x2="578.9" y2="151.7"/>
				<line class="st11" x1="571.9" y1="112" x2="571.9" y2="151.7"/>
				<line class="st11" x1="565" y1="112" x2="565" y2="151.7"/>
			</g>
			<g>
				<line class="st11" x1="557.9" y1="112" x2="557.9" y2="151.7"/>
				<line class="st11" x1="551" y1="112" x2="551" y2="151.7"/>
				<line class="st11" x1="544" y1="112" x2="544" y2="151.7"/>
			</g>
			<g>
				<line class="st11" x1="536.9" y1="112" x2="536.9" y2="151.7"/>
				<line class="st11" x1="530" y1="112" x2="530" y2="151.7"/>
				<line class="st11" x1="523" y1="112" x2="523" y2="151.7"/>
			</g>
			<g>
				<line class="st11" x1="515.9" y1="112" x2="515.9" y2="151.7"/>
				<line class="st11" x1="509" y1="112" x2="509" y2="151.7"/>
				<line class="st11" x1="502" y1="112" x2="502" y2="151.7"/>
			</g>
		</g>
		<rect x="395.5" y="112" class="st11" width="91.2" height="39.7"/>
		<g>
			<g>
				<line class="st11" x1="479.6" y1="112" x2="479.6" y2="151.7"/>
				<line class="st11" x1="472.6" y1="112" x2="472.6" y2="151.7"/>
				<line class="st11" x1="465.7" y1="112" x2="465.7" y2="151.7"/>
			</g>
			<g>
				<line class="st11" x1="458.6" y1="112" x2="458.6" y2="151.7"/>
				<line class="st11" x1="451.6" y1="112" x2="451.6" y2="151.7"/>
				<line class="st11" x1="444.7" y1="112" x2="444.7" y2="151.7"/>
			</g>
			<g>
				<line class="st11" x1="437.6" y1="112" x2="437.6" y2="151.7"/>
				<line class="st11" x1="430.6" y1="112" x2="430.6" y2="151.7"/>
				<line class="st11" x1="423.7" y1="112" x2="423.7" y2="151.7"/>
			</g>
			<g>
				<line class="st11" x1="416.6" y1="112" x2="416.6" y2="151.7"/>
				<line class="st11" x1="409.7" y1="112" x2="409.7" y2="151.7"/>
				<line class="st11" x1="402.7" y1="112" x2="402.7" y2="151.7"/>
			</g>
		</g>
		<path class="st11" d="M1364.5,202.3h-12.4c-4.5,0-8.1,3.7-8.1,8.1V298c0,4.5,3.7,8.1,8.1,8.1h12.4c4.5,0,8.1-3.7,8.1-8.1v-87.6
			C1372.6,205.9,1368.9,202.3,1364.5,202.3z"/>
		<path class="st11" d="M1423.8,202.3h-12.4c-4.5,0-8.1,3.7-8.1,8.1V298c0,4.5,3.7,8.1,8.1,8.1h12.4c4.5,0,8.1-3.7,8.1-8.1v-87.6
			C1432,205.9,1428.3,202.3,1423.8,202.3z"/>
		<line class="st11" x1="338.6" y1="92" x2="338.6" y2="98"/>
		<line class="st11" x1="402.7" y1="92" x2="402.7" y2="98"/>
		<line class="st11" x1="467" y1="92" x2="467" y2="98"/>
		<line class="st11" x1="800.3" y1="91.9" x2="800.3" y2="97.8"/>
		<line class="st11" x1="882.6" y1="91.9" x2="882.6" y2="97.8"/>
		<circle class="st11" cx="307.6" cy="391" r="8.8"/>
		<path class="st11" d="M367.8,404.2c-4,4.1-9.6,6.7-15.8,6.7c-4.4,0-8.6-1.3-12-3.6"/>
		<circle class="st11" cx="498.3" cy="391" r="8.8"/>
		<path class="st11" d="M334.4,355.9V352c0,0-0.1-2.3,2.1-2.3s151.1,0,151.1,0s3.2,0.3,3.2,2.3s0,3,0,3s-13.3,0-19.9,0
			c-6.7,0-10.9,4.3-10.9,4.3l-18.8,19l-6.6,6.4c-6,6.2-13.1,5.8-13.1,5.8H413h-19.4c-19,0.3-21.8-4.3-21.8-4.3s-20.4-21.7-25.8-26.3
			s-9.2-3.9-9.2-3.9s-20.3,0-33.7,2.7c-13.4,2.7-55.3,29.7-55.3,29.7"/>
		<path class="st11" d="M549.8,379.8l2.4,15.7c0,0,0.8,1.2,1.7,1.5c0.9,0.2,6.3,2,6.3,2l4.3,0.1v11.5h-18.3c0,0-3.1,0.5-4.4-4.9
			c-1-4.3-4.4-23.1-5.5-29.4"/>
		<path class="st11" d="M275.3,374.5c-2.6,5-4,10.5-4,16.5c0,20,16.2,36.3,36.3,36.3c14.2,0,26.4-8.1,32.4-20
			c2.5-4.9,3.9-10.5,3.9-16.3c0-4.6-0.9-9.1-2.5-13.2"/>
		<polyline class="st11" points="319.3,356.6 319.3,356.6 319.3,356.6 		"/>
		<path class="st11" d="M286.2,371c-4.9,5.2-7.9,12.3-7.9,19.9c0,16.2,13.1,29.2,29.3,29.2c12.1,0,22.6-7.4,27-18
			c1.4-3.5,2.3-7.3,2.3-11.3c0-5-1.2-9.7-3.4-13.8c-1.3-2.5-3-4.8-5-6.8"/>
		<path class="st11" d="M464.3,378.2c-1.5,4-2.3,8.3-2.3,12.8c0,20,16.2,36.3,36.3,36.3s36.3-16.3,36.3-36.3
			c0-5.7-1.7-11.9-4.1-16.8"/>
		<path class="st11" d="M519.2,370.6c5.2,5.3,8.3,12.5,8.3,20.4c0,16.2-13.1,29.2-29.3,29.2c-16.1,0-29.2-13.1-29.2-29.2
			c0-8.1,3.3-15.5,8.7-20.8"/>
		<path class="st11" d="M490.9,355c25.8,2.3,42.3,14,42.3,14l21.9,13.8"/>
		<path class="st11" d="M1702.3,404.8h-38.8c0,0-23.4,0-32.9,0c-1.1,0-2.1,0-2.8,0c-6.4,0-8-1.9-8-1.9s-3.8-2.9-5.6-4.7
			c-0.8-0.8-1.5-1.2-2-1.4c-0.6-0.3-0.9-0.2-0.9-0.2h-2.7v-5.7c0,0,0.1-2.3-2.2-2.3c-0.2,0-0.4,0-0.6,0.1c-1.7,0.3-1.7,2.1-1.7,2.2
			h-4.5c0-12.3-0.6-12.6-0.6-12.6h-37.1c0,0-2.9,0-5.2,0.3c-0.7,0.1-1.3,0.2-2,0.5c-2.1,0.8-4,2.1-5.6,3.7h-1.4h-7.2h-1.5H560.6
			h-5.5l-3.6-2.1c-0.8-0.5-1.8-0.9-2.7-1.1l-9.5-2.7l-6.5-1.8c-0.5-0.1-0.9-0.3-1.4-0.5l-4.2-1.7c0,0-3.9-1.2-4.6-1.5
			c-0.9-0.4-2.1-0.6-3.3-0.8c-3.1-0.5-6.6-0.4-6.6-0.4s-27.7,0-35,0c-0.6,0-1,0-1.3,0c-3.9,0-7.2,3.1-7.2,3.1s-1.9,1.9-4.8,4.8l0,0
			c-8.7,8.7-26.5,26.5-29.8,29.7c-4.3,4.3-7.5,3.7-7.5,3.7s-39.6,0-46,0s-9.1-3.2-9.1-3.2l-5.3-5.3c-1.3-1.3-17.2-17.2-25.3-25.3
			c-1.9-1.9-3.3-3.3-3.9-3.9c-0.3-0.3-0.5-0.5-0.8-0.7c-3.4-2.8-6.9-2.7-6.9-2.7s-0.5,0-1.3,0c-5.8,0-28.5,0-33.2,0
			c-4.4,0-7.9,0.4-9,0.6c-0.2,0-0.4,0.1-0.4,0.1l-10.6,3.4l-9.8,3.1"/>
		<circle class="st11" cx="1575.9" cy="391" r="8.8"/>
		<polyline class="st11" points="1630.7,404.7 1630.6,404.8 1619.1,407.7 1609.1,406.6 		"/>
		<line class="st11" x1="1701.3" y1="378.3" x2="1701.3" y2="123.4"/>
		<line class="st11" x1="1662.3" y1="376.9" x2="1701.4" y2="376.9"/>
		<path class="st11" d="M1595.7,204.8h-103.2c-4.5,0-8.1,3.7-8.1,8.1V270c0,4.5,3.7,8.1,8.1,8.1h103.2c4.5,0,8.1-3.7,8.1-8.1v-57.1
			C1603.8,208.5,1600.1,204.8,1595.7,204.8z"/>
		<line class="st11" x1="1389.5" y1="184.6" x2="1389.5" y2="366.8"/>
		<polyline class="st11" points="1334.4,372.8 1334.4,366.8 1441.4,366.8 1441.4,372.8 		"/>
		<polygon class="st11" points="1327.6,383.7 1327.6,393.5 1447.4,393.5 1447.4,383.6 1332.1,383.6 		"/>
		<path class="st11" d="M1662.8,123.4c0-10.9,8.4-19.7,19.2-19.7s19.3,8.8,19.3,19.7"/>
		<line class="st11" x1="1669.9" y1="160.9" x2="1669.9" y2="376.6"/>
		<line class="st11" x1="1675.8" y1="160.9" x2="1675.8" y2="376.6"/>
		<line class="st11" x1="1681.8" y1="160.9" x2="1681.8" y2="376.6"/>
		<line class="st11" x1="1687.7" y1="160.9" x2="1687.7" y2="376.6"/>
		<line class="st11" x1="1693.7" y1="160.9" x2="1693.7" y2="376.6"/>
		<polyline class="st11" points="1701.2,143.8 1673.9,144.9 1674.1,152.5 1701.2,151.6 		"/>
		<line class="st11" x1="1673.8" y1="145.5" x2="1662.2" y2="145.9"/>
		<path class="st11" d="M1674.1,152l-11.9,0.4"/>
		<path class="st11" d="M1605.8,388.7c0,0.6,0.1,1.2,0.1,1.8c0,16.4-13.3,29.7-29.6,29.7s-29.6-13.3-29.6-29.7c0-2.7,0.3-5.3,1-7.7"
			/>
		<path class="st11" d="M1540.4,382.7c-0.5,2.5-0.8,5.1-0.8,7.7c0,20.2,16.4,36.6,36.6,36.6c14.4,0,26.9-8.3,32.9-20.5
			c1.5-3,2.6-6.3,3.2-9.8"/>
		<path class="st11" d="M249.5,306.8c0,0-173,0.6-208.6,7.3c0,0-1.1-1.5-3-3.1c0,0-3.2-20.9,13.2-57.5l10.9-4.1
			c0,0,58.6-141.6,187.6-141"/>
		<path class="st11" d="M131.1,370l-55.7,7.4c0,0,3.2,9.3-6.7,19.3c-10,9.9-19.2,15.6-9.9,14.7c5.3-0.5,21.1-0.2,33.7,0.1
			c9.5,0.2,17.2,0.5,17.2,0.5l60.4-25.6"/>
		<path class="st11" d="M256.1,383.3l-2.6,12.4c0,0-0.8,1.2-1.7,1.5c-0.9,0.2-6.3,2-6.3,2l-4.3,0.1v11.5h18.3c0,0,3.1,0.5,4.4-4.8
			s5.6-29.7,5.6-29.7"/>
		<path class="st11" d="M227.7,205.1h-26.2c-4.5,0-8.1,3.7-8.1,8.1v57.2c0,4.5,3.7,8.1,8.1,8.1h26.2c4.5,0,8.1-3.7,8.1-8.1v-57.1
			C235.9,208.8,232.2,205.1,227.7,205.1z"/>
		<polyline class="st11" points="707.1,372.8 707.1,366.8 814,366.8 814,372.8 		"/>
		<polygon class="st11" points="700.3,383.7 700.3,393.5 820.1,393.5 820.1,383.6 704.7,383.6 		"/>
		<rect x="265.3" y="111.9" class="st11" width="26.5" height="39.7"/>
		<g>
			<line class="st11" x1="285.4" y1="112" x2="285.4" y2="151.6"/>
			<line class="st11" x1="278.5" y1="112" x2="278.5" y2="151.6"/>
			<line class="st11" x1="271.5" y1="112" x2="271.5" y2="151.6"/>
		</g>
		<path class="st11" d="M169.7,128c0,0-46.6,21-84.7,85.9s-37.5,95.3-37.8,98.8c-0.2,3.5-7.4,8.6-7.4,8.6c-0.2,0.5,0,7,0,7h7.9
			c0,0,3.2-0.4,3.8,4.2s3.4,17.9,5.8,24.4c2.4,6.5,1.5,7.2-1.6,7.2s-10.7,0-10.7,0l0.5,1.5c0,0,0.9,2.6,1.6,4.6
			c0.4,1.2,1.5,1.9,2.7,1.8c14.5-1.3,97.3-2.3,110-2.5c1,0,1.9,0.6,2.4,1.5l10.7,21c0.5,0.9,1.4,1.5,2.4,1.5h62.8
			c0.5,0,0.9-0.1,1.3-0.4l8.6-5c0.8-0.5,1.3-1.4,1.3-2.3V94.7c0-1.6-1.4-2.9-3-2.7c-10.9,1.4-49.8,8.4-87.9,42.2"/>
		<polyline class="st11" points="39.9,328.3 19.1,330.5 19.1,361.9 45.1,364.1 		"/>
		<path class="st11" d="M89.6,411.1c3.5-2,35.3-18,42.9-25.4c5-4.9,6.8-9.5,6.4-15.8"/>
		<path class="st11" d="M49.3,372c0,0-3.6,0.6-4.1,5.4h-0.4l-2.7-8c0,0-0.3-1,0.2-2.1s-0.9-3.6-0.9-3.6"/>
		<polyline class="st11" points="434.5,407.9 440.8,412.5 468.3,412.5 		"/>
	</g>
</g>
</svg>
