<?xml version="1.0" encoding="utf-8"?>
<!-- Generator: Adobe Illustrator 22.0.1, SVG Export Plug-In . SVG Version: 6.00 Build 0)  -->
<svg version="1.1" id="Type_73_A" xmlns="http://www.w3.org/2000/svg" xmlns:xlink="http://www.w3.org/1999/xlink" x="0px" y="0px"
	 viewBox="0 0 1932.3 424" style="enable-background:new 0 0 1932.3 424;" xml:space="preserve">
<metadata><?xpacket begin="﻿" id="W5M0MpCehiHzreSzNTczkc9d"?>
<x:xmpmeta xmlns:x="adobe:ns:meta/" x:xmptk="Adobe XMP Core 5.6-c143 79.161210, 2017/08/11-10:28:36        ">
   <rdf:RDF xmlns:rdf="http://www.w3.org/1999/02/22-rdf-syntax-ns#">
      <rdf:Description rdf:about=""/>
   </rdf:RDF>
</x:xmpmeta>
                                                                                                    
                                                                                                    
                                                                                                    
                                                                                                    
                                                                                                    
                                                                                                    
                                                                                                    
                                                                                                    
                                                                                                    
                                                                                                    
                                                                                                    
                                                                                                    
                                                                                                    
                                                                                                    
                                                                                                    
                                                                                                    
                                                                                                    
                                                                                                    
                                                                                                    
                                                                                                    
                           
<?xpacket end="w"?></metadata>
<style type="text/css">
	.st0{fill:#C7C9C7;}
	.st1{fill:#212322;}
	.st2{fill:#333F48;}
	.st3{fill:#444445;}
	.st4{fill:#DA291C;}
	.st5{fill:#101820;}
	.st6{fill:#B1B3B3;}
	.st7{fill:#58595B;}
	.st8{fill:#878787;}
	.st9{fill:#FA4616;}
	.st10{fill:none;stroke:#000000;stroke-width:2;stroke-miterlimit:10;}
	.st11{fill:none;stroke:#000000;stroke-width:2;stroke-linecap:round;stroke-linejoin:round;stroke-miterlimit:10;}
</style>
<g id="Mål_7_">
</g>
<g>
	<g id="Farger_7_">
		<g id="Grunnfarge_3_">
			<path class="st0" d="M1931.2,344.2l-107.5,0.2l-269.8,0.5l-30.1,58.6H437.1L404,342.2l-229.5,2L146,401.8l-96.1-1.7V144h1341.8
				l6.6-9.8h487.6h45.4C1931.2,134.2,1931.2,330.5,1931.2,344.2z"/>
			<path class="st1" d="M1600.9,344.2c-10.7,0-31.2,17.3-31.2,17.3l-16.1-0.5c0,0-3.2,1.1-3.2,4.4c0,3.3,1.5,4.7,4.7,4.7
				s3.3-1.2,3.3-1.2l3.2,0.5c0,0-8,11.2-5.5,24.5s13.7,29.6,32.8,29.6c19.1,0,32.5-13.8,34.6-26.5s-0.6-18.6-0.6-18.6s5.3,1,8,4.1
				s12.9,15,12.9,15s2.4,2.1,7.2,2.1c4.8,0,80.3,0,80.3,0s2.9-0.1,6.6-4.4c3.7-4.3,12.1-13.8,12.1-13.8s2.7-1.8,4.8-2.4
				c2.1-0.5,3.2-0.8,3.2-0.8s-6.3,16.2,4,30.2s27.4,18.3,37.2,14.1c9.7-4.2,23.9-8.8,25.6-33.2c0,0-0.2-7.6-5.3-18.3
				c0,0,6.9,0.3,8.5-1.4s3.8-6.2,0.7-7.4s-18-0.6-18-0.6s-24.2-17.6-34.1-17.6C1766.8,343.6,1611.6,344.2,1600.9,344.2z"/>
			<path class="st1" d="M402.1,344c0,0,7.9,14.3,10.2,17.4s15.1,29.6,15.1,29.6s-1.4,22.2-20.3,29.7c-19,7.5-33.1,0.5-42.9-12.1
				s-3.6-30.1-3.6-30.1s-5.8,1.1-7.6,3.2c-1.8,2.1-13.3,15.4-13.3,15.4s-1.7,2.8-2.7,2.8c-0.6,0-1.9,4.2,0.1,6.2
				c2.1,2.1,7.6,2.1,5.6,4.1c-1.4,1.3-12.7,2.1-15.7,2.1c-19.2-0.3-59.6,0-71.5,0c-1.5,0-8.2-0.9-8.5-2.6c-0.3-1.7,4.1-1.6,5.7-3.5
				c1.9-2.2,1-6.1,1-6.1s-4.2,0.9-9.6-5.3c-5.4-6.2-10.4-11.9-10.4-11.9s-2.7-2.6-5.9-3.4c-3.1-0.8-3.1-0.8-3.1-0.8s6.1,15-3.1,28.8
				s-23.5,20.2-41.6,14.3s-23.5-23.6-22-44.9c0.6-8.4,16.7-32.7,16.7-32.7L402.1,344z"/>
			<polygon class="st2" points="1931.2,349.7 1930.7,401.5 1853.7,401.5 1823.7,344.4 1553.9,344.8 1523.8,404.8 434.1,404.8 
				402.1,344 174.5,344.2 144.6,402.6 49.9,402.6 49.9,350.2 172.2,350.6 174.5,344.2 402.1,344 404.9,349.1 1552.1,349.6 
				1555.3,344.8 1823.7,344.4 1827.1,349.6 			"/>
			<polygon class="st3" points="1.1,177.4 7.3,169.7 13.3,177.4 19.4,169.7 25.4,177.3 31.5,169.7 37.4,177.4 43.4,169.8 
				49.5,177.3 49.5,369.2 44.6,377.7 37.7,369.2 31.6,376.8 25.4,369.2 19.5,376.8 13.3,369.2 7.3,376.7 1.1,370.3 			"/>
			<path class="st1" d="M402.1,344c0,0,7.9,14.3,10.2,17.4s15.1,29.6,15.1,29.6s-1.4,22.2-20.3,29.7c-19,7.5-33.1,0.5-42.9-12.1
				s-3.6-30.1-3.6-30.1s-5.8,1.1-7.6,3.2c-1.8,2.1-13.3,15.4-13.3,15.4s-2.7,2.8-7.8,2.8s-80.4,0-80.4,0s-2,0.9-7.4-5.3
				s-10.4-11.9-10.4-11.9s-2.7-2.6-5.9-3.4c-3.1-0.8-3.1-0.8-3.1-0.8s6.1,15-3.1,28.8s-23.5,20.2-41.6,14.3s-23.5-23.6-22-44.9
				c0.6-8.4,16.7-32.7,16.7-32.7H402.1z"/>
			<path class="st1" d="M1600.9,344.2c-10.7,0-31.2,17.3-31.2,17.3l-16.1-0.5c0,0-3.2,1.1-3.2,4.4c0,3.3,1.5,4.7,4.7,4.7
				s3.3-1.2,3.3-1.2l3.2,0.5c0,0-8,11.2-5.5,24.5s13.7,29.6,32.8,29.6c19.1,0,32.5-13.8,34.6-26.5s-0.6-18.6-0.6-18.6s5.3,1,8,4.1
				s12.9,15,12.9,15s2.4,2.1,7.2,2.1c4.8,0,80.3,0,80.3,0s2.9-0.1,6.6-4.4c3.7-4.3,12.1-13.8,12.1-13.8s2.7-1.8,4.8-2.4
				c2.1-0.5,3.2-0.8,3.2-0.8s-6.3,16.2,4,30.2s27.4,18.3,37.2,14.1c9.7-4.2,23.9-8.8,25.6-33.2c0,0-0.2-7.6-5.3-18.3
				c0,0,6.9,0.3,8.5-1.4s3.8-6.2,0.7-7.4s-18-0.6-18-0.6s-24.2-17.6-34.1-17.6C1766.8,343.6,1611.6,344.2,1600.9,344.2z"/>
			<path class="st3" d="M1491.5,105c0,0.8,0.6,1.4,1.4,1.4c0.3,0,0.6-0.1,0.8-0.3l63,2.4v3.1h-0.6v6.2c-0.9,0.1-2.2,0.5-2.6,0.6
				c-0.5,0.2-1.2,0.6-1.2,1.2s0.6,0.6,0.6,0.6h3.2v1.8c-0.9,0.1-2.2,0.5-2.6,0.6c-0.5,0.2-1.2,0.6-1.2,1.2s0.6,0.6,0.6,0.6h3.2v1.5
				c-0.9,0.1-2.2,0.5-2.6,0.6c-0.5,0.2-1.2,0.6-1.2,1.2c0,0.6,0.6,0.6,0.6,0.6h2.4h2.7v5.2h4.4v-5.1h4.6c0,0,0.6,0,0.6-0.6
				c0-0.6-0.7-1-1.2-1.2c-0.4-0.1-1.7-0.4-2.6-0.6v-1.5h3.2c0,0,0.6,0,0.6-0.6s-0.7-1-1.2-1.2c-0.4-0.1-1.7-0.4-2.6-0.6v-1.8h3.2
				c0,0,0.6,0,0.6-0.6s-0.7-1-1.2-1.2c-0.4-0.1-1.7-0.4-2.6-0.6v-6.4h-0.6v-3.9h73.3v3.9h-0.6v6.2c-0.9,0.1-2.2,0.5-2.6,0.6
				c-0.5,0.2-1.2,0.6-1.2,1.2s0.6,0.6,0.6,0.6h3.2v1.8c-0.9,0.1-2.2,0.5-2.6,0.6c-0.5,0.2-1.2,0.6-1.2,1.2s0.6,0.6,0.6,0.6h3.2v1.5
				c-0.9,0.1-2.2,0.5-2.6,0.6c-0.5,0.2-1.2,0.6-1.2,1.2c0,0.6,0.6,0.6,0.6,0.6h2.4h2.7v5.2h4.4v-5.1h4.6c0,0,0.6,0,0.6-0.6
				c0-0.6-0.7-1-1.2-1.2c-0.4-0.1-1.7-0.4-2.6-0.6v-1.5h3.2c0,0,0.6,0,0.6-0.6s-0.7-1-1.2-1.2c-0.4-0.1-1.7-0.4-2.6-0.6v-1.8h3.2
				c0,0,0.6,0,0.6-0.6s-0.7-1-1.2-1.2c-0.4-0.1-1.7-0.4-2.6-0.6v-6.3h-0.6v-3.9h0.5v-6.1H1617l0,0v-4.8h17.2c0,0,0,0.4,0.5,0.4l0,0
				c0.5,0,0.5-0.4,0.5-0.4l0.4-9.2v-1.2h-1.8v1.2l0.3,6.8h-17v-2.2c0-0.4-0.4-0.8-0.8-0.8s-0.8,0.4-0.8,0.8v9.4h-1.7v-2.7
				c0-2-1.6-3.7-3.7-3.7s-3.7,1.6-3.7,3.7v2.7h-5.1v-5.8h-2.9l0.3-8.1v-1.2h-1.8v1.2l0.2,5.1H1568v-1h-61.7l0,0l0,0
				c-1,0-1.7,0.8-1.7,1.7v0.1l-0.4-0.6l-9.5,6.7l-3,4.5C1491.8,104.1,1491.5,104.6,1491.5,105z M1494.5,104.6l1.8-2.5l9.8-6
				l-0.5-0.8l4.2,4.7l0,0c0.4,0.4,1,0.7,1.6,0.7c1.2,0,2.2-1,2.2-2.2c0-0.4-0.1-0.8-0.3-1.2l0,0l0,0c-0.2-0.3-0.5-0.6-0.9-0.8
				l-0.9-0.8h56.5v-0.8h29.2v0.8h-19.4v5.8h-21.2v4.5C1553.8,106,1494.5,104.6,1494.5,104.6z"/>
			<path class="st3" d="M1793.5,50l-0.3-2l-53-21.2l-0.6,0.9l-43.8-16.2h10.4l0.6-2.3h-37.5V11l17.7,0.6v6.2l89.3,35.8l-81.2,42.7
				l-1.9,2.8l1.4,2.8h-24v6.1h0.5v3.8h-0.6v6.2l-3.7,1.1v1.5h4.4v1.3l-4.4,1.4v1.4h4v0.8c0,0-3.5,1.5-3.7,1.5s0,1.8,0,1.8h4.7v5.1
				l4.8-0.1l0.1-5l4.5-0.1l0.7-0.9l-3.4-2.6c0,0,3.5-1,3.1-1.1s-3.1-1.9-3.1-1.9V121l2.8-1l-3.1-1.7l0.3-6.2l-0.9-0.2V108l73.3-0.1
				l0.2,3.5l-0.8,0.2l0.2,6.4l-3.5,1.5l0.2,1.1l3.1,0.1v1.5l-3,1.4l-0.2,1.2l3.1,0.1l0.1,1l-3.4,1.8l-0.1,1h4.9l-0.2,5.2h4.8l0.2-5
				l4.7-0.1l0.1-1.4l-2.7-1l-0.1-1.5h2.7l0.1-1.4l-3.6-1l-0.2-1.5l3.7-0.3l-0.1-1.5l-2.9-0.8l-0.2-6.2h-0.6l0.1-10l-33.5-0.4v-5.4
				l-17.1-0.1l74.4-40.3l10.4-4.7l7.6,14.6l2.1,0.2l1-1.4L1793.5,50z M1778.2,51.8L1688,15v-3.1h8l43.6,17.5l-0.7,1.2L1784,49
				L1778.2,51.8z"/>
		</g>
		<g id="Profilering_7_">
			<polygon class="st4" points="1930.6,349.7 1930.7,190.9 1224,194.9 49.8,194.9 49.8,334.8 49.8,350.2 170.5,350.4 174.5,344.2 
				402.1,344 404.9,349.1 1552.1,349.6 1553.9,344.8 1823.7,344.4 1823.7,344.3 1827.1,349.6 			"/>
			<polygon class="st5" points="83.3,215.9 49.9,215.9 49.9,290.9 1931.2,290.9 1931.2,215.9 			"/>
			<g>
				<rect x="49.9" y="321.6" class="st6" width="1880.8" height="6.7"/>
			</g>
			<g>
				<rect x="49.8" y="206.2" class="st6" width="1880.9" height="3.4"/>
			</g>
		</g>
		<g id="Dører_og_vinduer_6_">
			<rect x="1140.7" y="221.6" class="st7" width="103.9" height="65.5"/>
			<path class="st4" d="M1460,365.7h-97.3h-2.2c-2.4,0-4.3-1.9-4.3-4.3v-158c0-2.4,1.9-4.3,4.3-4.3H1463c2.4,0,4.3,1.9,4.3,4.3
				v157.9c0,2.4-1.9,4.3-4.3,4.3h-3V365.7z"/>
			<path class="st8" d="M1149.9,280.7h85.4c2.4,0,4.3-1.9,4.3-4.3V231c0-2.4-1.9-4.3-4.3-4.3h-85.4c-2.4,0-4.3,1.9-4.3,4.3v45.5
				C1145.7,278.8,1147.6,280.7,1149.9,280.7z"/>
			<rect x="1812.9" y="220.1" class="st7" width="56.6" height="66.5"/>
			<rect x="1008.7" y="221.6" class="st7" width="103.9" height="65.5"/>
			<path class="st8" d="M1017.9,280.3h85.4c2.4,0,4.3-1.9,4.3-4.3v-45.4c0-2.4-1.9-4.3-4.3-4.3h-85.4c-2.4,0-4.3,1.9-4.3,4.3V276
				C1013.7,278.4,1015.6,280.3,1017.9,280.3z"/>
			<rect x="868.7" y="221" class="st7" width="103.9" height="65.5"/>
			<path class="st8" d="M878,280.7h85.4c2.4,0,4.3-1.9,4.3-4.3V231c0-2.4-1.9-4.3-4.3-4.3H878c-2.4,0-4.3,1.9-4.3,4.3v45.5
				C873.7,278.8,875.6,280.7,878,280.7z"/>
			<rect x="736.8" y="221.6" class="st7" width="103.9" height="65.5"/>
			<path class="st8" d="M746,280.7h85.4c2.4,0,4.3-1.9,4.3-4.3V231c0-2.4-1.9-4.3-4.3-4.3H746c-2.4,0-4.3,1.9-4.3,4.3v45.5
				C741.7,278.8,743.6,280.7,746,280.7z"/>
			<rect x="111.7" y="221.6" class="st7" width="56.3" height="65.5"/>
			<path class="st8" d="M120.6,280.7h38.5c2.4,0,4.3-1.9,4.3-4.3V231c0-2.4-1.9-4.3-4.3-4.3h-38.5c-2.4,0-4.3,1.9-4.3,4.3v45.5
				C116.4,278.8,118.3,280.7,120.6,280.7z"/>
			<rect x="196.4" y="222" class="st7" width="103.9" height="65.5"/>
			<path class="st8" d="M205.7,280.7h85.4c2.4,0,4.3-1.9,4.3-4.3V231c0-2.4-1.9-4.3-4.3-4.3h-85.4c-2.4,0-4.3,1.9-4.3,4.3v45.5
				C201.4,278.8,203.3,280.7,205.7,280.7z"/>
			<rect x="328.7" y="222" class="st7" width="103.9" height="65.5"/>
			<path class="st8" d="M337.9,280.7h85.4c2.4,0,4.3-1.9,4.3-4.3V231c0-2.4-1.9-4.3-4.3-4.3h-85.4c-2.4,0-4.3,1.9-4.3,4.3v45.5
				C333.7,278.8,335.6,280.7,337.9,280.7z"/>
			<rect x="595.2" y="219.2" class="st8" width="23.5" height="64.7"/>
			<path class="st8" d="M605.3,280.1h2.5c3.7,0,6.8-3,6.8-6.8v-43.6c0-3.7-3-6.8-6.8-6.8h-2.5c-3.7,0-6.8,3-6.8,6.8v43.6
				C598.6,277.1,601.6,280.1,605.3,280.1z"/>
			<path class="st9" d="M519.8,365.2v25.3h97.3v-25.3h2.2c2.4,0,4.3-1.9,4.3-4.3V203c0-2.4-1.9-4.3-4.3-4.3H516.8
				c-2.4,0-4.3,1.9-4.3,4.3v157.9c0,2.4,1.9,4.3,4.3,4.3L519.8,365.2L519.8,365.2z"/>
			<rect x="529.4" y="220.7" class="st8" width="86.9" height="64.6"/>
			<rect x="1365.2" y="221.3" class="st8" width="93.4" height="64.2"/>
			<path class="st8" d="M1822.1,281.1h38.1c2.4,0,4.6-1.9,4.6-4.3v-45.4c0-2.4-1.9-4.3-4.3-4.3h-38.4c-2.4,0-4.3,1.9-4.3,4.3v45.4
				C1817.8,279.2,1819.8,281.1,1822.1,281.1z"/>
			<rect x="1682.8" y="221.1" class="st7" width="103.4" height="66.5"/>
			<path class="st8" d="M1691,280.8h84.8c2.4,0,4.6-1.9,4.6-4.3v-45.4c0-2.4-1.9-4.3-4.3-4.3H1691c-2.4,0-4.3,1.9-4.3,4.3v45.4
				C1686.7,278.9,1688.7,280.8,1691,280.8z"/>
			<rect x="1549.2" y="220.9" class="st7" width="103.4" height="66.5"/>
			<path class="st8" d="M1558.3,280.3h84.8c2.4,0,4.6-1.9,4.6-4.3v-45.4c0-2.4-1.9-4.3-4.3-4.3h-85.1c-2.4,0-4.3,1.9-4.3,4.3V276
				C1554.1,278.4,1556,280.3,1558.3,280.3z"/>
			<path class="st7" d="M1364,220.8v-8.9c0-3.6,2.9-6.6,6.6-6.6h80.2c3.6,0,6.6,2.9,6.6,6.6v8.9H1364z"/>
			<path class="st7" d="M1364,284.7v8.9c0,3.6,2.9,6.6,6.6,6.6h80.2c3.6,0,6.6-2.9,6.6-6.6v-8.9H1364z"/>
		</g>
	</g>
	<g id="Omriss_7_">
		<path class="st10" d="M180.7,361.2H199h13.9h6.9c1.8,0,3.5,0.6,4.8,1.7l19.8,9.1c1.4,1.1,3.1,1.7,4.8,1.7h87.6
			c1.8,0,3.5-0.6,4.9-1.8l18.5-8.9c1.4-1.1,3.1-1.8,4.9-1.8h7.5h13.2h14.5h3.9v9.2l-22.4,1.4c-0.5,0-0.9,0.1-1.3,0.3l-12.8,3.7
			l-7.2,2.1l-4.4,1.2c-1.1,0.3-2.1,1-2.9,1.8L339.3,397c-1.2,1.3-2.9,2.1-4.6,2.1h-82.9c-1.8,0-3.5-0.7-4.6-2.1l-14.1-16.1
			c-0.8-0.9-1.9-1.6-3.1-1.9l-5-1.3l-7.1-1.8l-12.8-3.3c-0.4-0.1-0.8-0.2-1.1-0.2l-23.4-1.4L180.7,361.2z"/>
		<circle class="st10" cx="393.2" cy="388.9" r="7.6"/>
		<path class="st10" d="M186.1,361.2c2.1-0.5,4.3-0.8,6.6-0.8s4.5,0.3,6.6,0.8"/>
		<polyline class="st10" points="342.6,343.8 342.6,355.8 324.6,355.8 314.5,349.5 271.3,349.5 260.4,355.5 		"/>
		<polyline class="st10" points="347.4,368.7 347.4,352.9 342.6,343.8 		"/>
		<polyline class="st10" points="247.6,372.5 247.6,368.6 263,368.6 260.4,355.5 243.9,355.5 243.9,343.4 		"/>
		<line class="st10" x1="330.3" y1="355.8" x2="340.2" y2="373"/>
		<polyline class="st10" points="1640,343 1640,355 1658,355 1668.1,348.8 1711.3,348.8 1722.1,354.7 		"/>
		<polyline class="st10" points="1635.1,367.9 1635.1,352.1 1640,343 		"/>
		<polyline class="st10" points="1735,373.4 1735,367.9 1719.6,367.9 1722.1,354.7 1738.7,354.7 1738.7,342.6 		"/>
		<line class="st10" x1="1652.3" y1="355" x2="1642.4" y2="372.3"/>
		<path class="st10" d="M372.6,361.4c5.8-4.3,12.9-6.8,20.6-6.8c6.6,0,12.9,1.9,18.1,5.2"/>
		<path class="st10" d="M360.6,378.1L360.6,378.1c-1.1,3.5-1.8,7.1-1.8,10.9c0,19,15.4,34.4,34.4,34.4c18.2,0,33.1-14.1,34.3-32.1"
			/>
		<path class="st10" d="M368,375.9c-2,3.9-3.2,8.3-3.2,13c0,15.6,12.7,28.4,28.4,28.4c15.6,0,28.4-12.7,28.4-28.4
			c0-13.4-9.2-24.6-21.6-27.6c-2.2-0.5-4.4-0.8-6.7-0.8c-2.4,0-4.6,0.3-6.8,0.8"/>
		<circle class="st10" cx="192.2" cy="389" r="7.6"/>
		<path class="st10" d="M198.9,361.5c-2.2-0.5-4.4-0.8-6.8-0.8c-2.3,0-4.6,0.3-6.7,0.8c-12.4,3-21.6,14.2-21.6,27.6
			c0,15.6,12.7,28.4,28.4,28.4s28.4-12.7,28.4-28.4c0-4.7-1.1-9.1-3.2-13"/>
		<path class="st10" d="M1557.2,360.8h0.6h12h13.2h14.5h13.2h9.2c1.8,0,3.3,0.9,4.9,1.8l16.8,8.9c1.6,0.9,3.6,1.8,4.9,1.8h87.6
			c1.8,0,3.5-0.6,4.8-1.7l15-9.1c1.4-1.1,3.1-1.7,4.8-1.7h11.7h13.6h13.2h13.6h12.5h0.1"/>
		<path class="st10" d="M1557,368.7h0.7l4.3,0.3l7.1,0.4l32.5,2c0.5,0,0.9,0.1,1.3,0.3l12.8,3.7l7.2,2.1l4.4,1.2
			c1.1,0.3,2.1,1,2.9,1.8l13.9,16.1c1.2,1.3,2.9,2.1,4.6,2.1h82.9c1.8,0,3.5-0.7,4.6-2.1l14.1-16.1c0.8-0.9,1.9-1.6,3.1-1.9l5-1.3
			l7.1-1.8l12.8-3.3c0.4-0.1,0.8-0.2,1.1-0.2l33.4-1.9l6.9-0.4l5.9-0.3"/>
		<circle class="st10" cx="1590.3" cy="388.4" r="7.6"/>
		<path class="st10" d="M1583.1,360.8c2.3-0.6,4.7-0.9,7.2-0.9s4.9,0.3,7.2,0.9"/>
		<path class="st10" d="M1615.6,375.4c2,3.9,3.2,8.3,3.2,13c0,15.7-12.8,28.5-28.5,28.5c-15.8,0-28.5-12.8-28.5-28.5
			c0-7.3,2.8-14,7.2-19"/>
		<path class="st10" d="M1583.1,360.8h-13.2c5.7-4.3,12.8-6.8,20.4-6.8s14.7,2.5,20.4,6.8"/>
		<path class="st10" d="M1622.8,377.5c1.2,3.4,1.8,7.1,1.8,10.9c0,19-15.4,34.3-34.3,34.3c-19,0-34.3-15.4-34.3-34.3
			c0-7.2,2.2-13.9,6-19.4l7.1,0.4"/>
		<circle class="st10" cx="1790.8" cy="388.4" r="7.6"/>
		<path class="st10" d="M1812.7,370.1c4.1,4.9,6.6,11.3,6.6,18.3c0,15.7-12.7,28.5-28.5,28.5c-15.7,0-28.5-12.8-28.5-28.5
			c0-4.6,1.1-9,3.1-12.9"/>
		<path class="st10" d="M1784.2,360.7c2.1-0.5,4.3-0.8,6.6-0.8c2.3,0,4.5,0.3,6.6,0.8"/>
		<path class="st10" d="M1770.6,360.7c5.7-4.2,12.6-6.6,20.2-6.6s14.6,2.5,20.2,6.6"/>
		<path class="st10" d="M1819.6,369.7c3.5,5.4,5.5,11.8,5.5,18.7c0,19-15.4,34.3-34.3,34.3c-19,0-34.3-15.4-34.3-34.3
			c0-3.9,0.6-7.6,1.8-11"/>
		<circle class="st10" cx="1825.9" cy="364.7" r="4.7"/>
		<path class="st10" d="M1560,364.7c0,1.7-0.9,3.2-2.3,4c-0.7,0.4-1.5,0.7-2.4,0.7c-2.6,0-4.7-2.1-4.7-4.7s2.1-4.7,4.7-4.7
			c1,0,1.9,0.3,2.6,0.8C1559.1,361.7,1560,363.1,1560,364.7z"/>
		<polygon class="st10" points="50.2,143.6 50.2,400.9 145.2,400.9 174.5,343.5 403.1,343.5 434.1,404.2 1523.8,404.2 1554.9,343.5 
			1824.3,343.5 1853.7,400.9 1930.7,400.9 1931.2,168.1 1375,168.1 1392.6,142 		"/>
		<polyline class="st10" points="1392.6,142 1398.3,133.6 1931.2,133.6 1931.2,168.1 		"/>
		<polyline class="st10" points="1597.5,95.1 1567.8,95.1 1567.8,92.9 1597.5,92.9 		"/>
		<circle class="st10" cx="1609.8" cy="98.8" r="1.7"/>
		<path class="st10" d="M1613.5,101.8V99c0-2-1.6-3.7-3.7-3.7s-3.7,1.6-3.7,3.7v2.8"/>
		<path class="st10" d="M1633.5,86.6v1.2l0.4,9.2c0,0,0,0.4,0.5,0.4l0,0c0.5,0,0.5-0.4,0.5-0.4l0.4-9.2v-1.2H1633.5z"/>
		<path class="st10" d="M1596.6,86.6v1.2l0.4,9.2c0,0,0,0.4,0.5,0.4l0,0c0.5,0,0.5-0.4,0.5-0.4l0.4-9.2v-1.2H1596.6z"/>
		<line class="st10" x1="1633.8" y1="94.6" x2="1616.7" y2="94.6"/>
		<line class="st10" x1="1615.3" y1="92.8" x2="1598.3" y2="92.8"/>
		<line class="st10" x1="1633.9" y1="97" x2="1616.7" y2="97"/>
		<path class="st10" d="M1615.1,92.4v13.7c0,0.4,0.4,0.8,0.8,0.8s0.8-0.4,0.8-0.8V92.4c0-0.4-0.4-0.8-0.8-0.8
			S1615.1,91.9,1615.1,92.4z"/>
		<path class="st10" d="M1632.3,124.6c0,0-0.6,0-0.6-0.6s0.7-1,1.2-1.2c0.4-0.1,1.7-0.4,2.6-0.6v-1.8h-3.3c0,0-0.6,0-0.6-0.6
			s0.7-1,1.2-1.2c0.4-0.1,1.7-0.4,2.6-0.6v-6.2h7.6v6.2c0.9,0.1,2.2,0.5,2.6,0.6c0.5,0.2,1.2,0.6,1.2,1.2s-0.6,0.6-0.6,0.6h-3.3v1.8
			c0.9,0.1,2.2,0.5,2.6,0.6c0.5,0.2,1.2,0.6,1.2,1.2s-0.6,0.6-0.6,0.6h-3.3v1.5c0.9,0.1,2.2,0.5,2.6,0.6c0.5,0.2,1.2,0.6,1.2,1.2
			c0,0.6-0.6,0.6-0.6,0.6h-4.6v5.1h-4.4v-5.1h-2.7h-2.4c0,0-0.6,0-0.6-0.6c0-0.6,0.7-1,1.2-1.2c0.4-0.1,1.7-0.4,2.6-0.6v-1.5
			L1632.3,124.6L1632.3,124.6z"/>
		<path class="st10" d="M1552.5,124.6c0,0-0.6,0-0.6-0.6s0.7-1,1.2-1.2c0.4-0.1,1.7-0.4,2.6-0.6v-1.8h-3.3c0,0-0.6,0-0.6-0.6
			s0.7-1,1.2-1.2c0.4-0.1,1.7-0.4,2.6-0.6v-6.2h7.6v6.2c0.9,0.1,2.2,0.5,2.6,0.6c0.5,0.2,1.2,0.6,1.2,1.2s-0.6,0.6-0.6,0.6h-3.3v1.8
			c0.9,0.1,2.2,0.5,2.6,0.6c0.5,0.2,1.2,0.6,1.2,1.2s-0.6,0.6-0.6,0.6h-3.3v1.5c0.9,0.1,2.2,0.5,2.6,0.6c0.5,0.2,1.2,0.6,1.2,1.2
			c0,0.6-0.6,0.6-0.6,0.6h-4.6v5.1h-4.4v-5.1h-2.7h-2.4c0,0-0.6,0-0.6-0.6c0-0.6,0.7-1,1.2-1.2c0.4-0.1,1.7-0.4,2.6-0.6v-1.5
			L1552.5,124.6L1552.5,124.6z"/>
		<polyline class="st10" points="1615.1,101.8 1556.3,101.8 1556.3,107.9 1643.1,107.9 1643.1,101.8 1616.7,101.8 		"/>
		<rect x="1636.2" y="107.9" class="st10" width="6.4" height="3.9"/>
		<rect x="1556.4" y="107.9" class="st10" width="6.4" height="3.9"/>
		<path class="st10" d="M1491.1,105.3c0-0.4,0.2-0.7,0.4-1c0.2-0.2,0.6-0.4,1-0.4c0.8,0,1.4,0.6,1.4,1.4s-0.6,1.4-1.4,1.4
			C1491.7,106.6,1491.1,106,1491.1,105.3z"/>
		<path class="st10" d="M1492.8,106.3l63.6,2.4c0,0,0.1-2.4,0-2.4s-62.2-1.5-62.2-1.5l1.8-2.5l-1.8-2.8l-2.7,4.9"/>
		<polyline class="st10" points="1494.1,99.4 1503.9,93.2 1505.8,96.2 1496,102.3 		"/>
		<circle class="st10" cx="1506" cy="93.7" r="1.7"/>
		<circle class="st10" cx="1511.2" cy="98.7" r="2.2"/>
		<line class="st10" x1="1513" y1="97.5" x2="1507.1" y2="92.3"/>
		<line class="st10" x1="1509.5" y1="100.1" x2="1504.5" y2="94.6"/>
		<polyline class="st10" points="1510.9,95.9 1567.8,95.9 1567.8,91.9 1506,91.9 		"/>
		<line class="st10" x1="1556.3" y1="101.8" x2="1511.2" y2="100.9"/>
		<rect x="1577.5" y="96" class="st10" width="23.5" height="5.8"/>
		<path class="st10" d="M1566.2,95.9c-1.6-0.1-3,1.1-3.1,2.8s1.1,3,2.8,3.1"/>
		<line class="st10" x1="1643.2" y1="118" x2="1635.5" y2="118"/>
		<line class="st10" x1="1643.2" y1="120.4" x2="1635.5" y2="120.4"/>
		<line class="st10" x1="1643.2" y1="122.2" x2="1635.5" y2="122.2"/>
		<line class="st10" x1="1643.2" y1="124.6" x2="1635.5" y2="124.6"/>
		<line class="st10" x1="1643.2" y1="126.2" x2="1635.5" y2="126.2"/>
		<line class="st10" x1="1642.9" y1="128.7" x2="1635.5" y2="128.7"/>
		<line class="st10" x1="1563.4" y1="118" x2="1555.8" y2="118"/>
		<line class="st10" x1="1563.4" y1="120.4" x2="1555.8" y2="120.4"/>
		<line class="st10" x1="1563.4" y1="122.2" x2="1555.8" y2="122.2"/>
		<line class="st10" x1="1563.4" y1="124.6" x2="1555.8" y2="124.6"/>
		<line class="st10" x1="1563.4" y1="126.2" x2="1555.8" y2="126.2"/>
		<line class="st10" x1="1563.3" y1="128.7" x2="1555.8" y2="128.7"/>
		<polyline class="st10" points="1694.1,11.5 1738.9,29.4 1739.6,27.7 1699.2,11.4 		"/>
		<path class="st10" d="M1670.2,1.1v1.2l-0.4,9.2c0,0,0,0.4-0.5,0.4l0,0c-0.5,0-0.5-0.4-0.5-0.4l-0.4-9.2V1.1H1670.2z"/>
		<path class="st10" d="M1707.1,1.1v1.2l-0.4,9.2c0,0,0,0.4-0.5,0.4l0,0c-0.5,0-0.5-0.4-0.5-0.4l-0.4-9.2V1.1H1707.1z"/>
		<line class="st10" x1="1669.9" y1="9.1" x2="1687" y2="9.1"/>
		<line class="st10" x1="1669.8" y1="11.5" x2="1687" y2="11.5"/>
		<line class="st10" x1="1688.4" y1="9.1" x2="1705.5" y2="9.1"/>
		<line class="st10" x1="1688.3" y1="11.5" x2="1705.5" y2="11.5"/>
		<path class="st10" d="M1688.6,6.9v13.7c0,0.4-0.4,0.8-0.8,0.8c-0.5,0-0.8-0.4-0.8-0.8V6.9c0-0.4,0.4-0.8,0.8-0.8
			C1688.2,6.1,1688.6,6.5,1688.6,6.9z"/>
		<path class="st10" d="M1681.3,124.6c0,0,0.6,0,0.6-0.6s-0.7-1-1.2-1.2c-0.4-0.1-1.7-0.4-2.6-0.6v-1.8h3.3c0,0,0.6,0,0.6-0.6
			s-0.7-1-1.2-1.2c-0.4-0.1-1.7-0.4-2.6-0.6v-6.2h-7.6v6.2c-0.9,0.1-2.2,0.5-2.6,0.6c-0.5,0.2-1.2,0.6-1.2,1.2s0.6,0.6,0.6,0.6h3.3
			v1.8c-0.9,0.1-2.2,0.5-2.6,0.6c-0.5,0.2-1.2,0.6-1.2,1.2s0.6,0.6,0.6,0.6h3.3v1.5c-0.9,0.1-2.2,0.5-2.6,0.6
			c-0.5,0.2-1.2,0.6-1.2,1.2c0,0.6,0.6,0.6,0.6,0.6h4.6v5.1h4.4v-5.1h2.7h2.4c0,0,0.6,0,0.6-0.6c0-0.6-0.7-1-1.2-1.2
			c-0.4-0.1-1.7-0.4-2.6-0.6v-1.5L1681.3,124.6L1681.3,124.6z"/>
		<path class="st10" d="M1761,124.6c0,0,0.6,0,0.6-0.6s-0.7-1-1.2-1.2c-0.4-0.1-1.7-0.4-2.6-0.6v-1.8h3.3c0,0,0.6,0,0.6-0.6
			s-0.7-1-1.2-1.2c-0.4-0.1-1.7-0.4-2.6-0.6v-6.2h-7.6v6.2c-0.9,0.1-2.2,0.5-2.6,0.6c-0.5,0.2-1.2,0.6-1.2,1.2s0.6,0.6,0.6,0.6h3.3
			v1.8c-0.9,0.1-2.2,0.5-2.6,0.6c-0.5,0.2-1.2,0.6-1.2,1.2s0.6,0.6,0.6,0.6h3.3v1.5c-0.9,0.1-2.2,0.5-2.6,0.6
			c-0.5,0.2-1.2,0.6-1.2,1.2c0,0.6,0.6,0.6,0.6,0.6h4.6v5.1h4.4v-5.1h2.7h2.4c0,0,0.6,0,0.6-0.6c0-0.6-0.7-1-1.2-1.2
			c-0.4-0.1-1.7-0.4-2.6-0.6v-1.5L1761,124.6L1761,124.6z"/>
		<polyline class="st10" points="1696.1,101.8 1757.3,101.8 1757.3,107.9 1670.5,107.9 1670.5,101.8 1696.1,101.8 		"/>
		<rect x="1671" y="107.9" class="st10" width="6.4" height="3.9"/>
		<rect x="1750.8" y="107.9" class="st10" width="6.4" height="3.9"/>
		<path class="st10" d="M1801.9,64.5c0-0.4-0.2-0.7-0.4-1c-0.2-0.2-0.6-0.4-1-0.4c-0.8,0-1.4,0.6-1.4,1.4c0,0.8,0.6,1.4,1.4,1.4
			S1801.9,65.3,1801.9,64.5z"/>
		<path class="st10" d="M1800.2,65.6l-51.4,36.2c0,0-3.6,0-3.5,0s53.5-37.7,53.5-37.7l-1.8-2.5l1.8-2.8l2.7,4.9"/>
		<polyline class="st10" points="1798.9,58.6 1793.5,50 1791.4,50.8 1797,61.5 		"/>
		<circle class="st10" cx="1791.4" cy="49.1" r="1.7"/>
		<circle class="st10" cx="1784" cy="51.8" r="2.2"/>
		<line class="st10" x1="1782.2" y1="50.6" x2="1790.3" y2="47.7"/>
		<line class="st10" x1="1785.6" y1="53.2" x2="1792.9" y2="50"/>
		<polyline class="st10" points="1785.2,49.4 1738.9,30.2 1740.2,26.7 1791.4,47.3 		"/>
		<line class="st10" x1="1705.7" y1="96.1" x2="1784" y2="54"/>
		<rect x="1700.4" y="95.9" class="st10" width="23.5" height="5.8"/>
		<line class="st10" x1="1670.4" y1="118" x2="1678" y2="118"/>
		<line class="st10" x1="1670.4" y1="120.4" x2="1678" y2="120.4"/>
		<line class="st10" x1="1670.4" y1="122.2" x2="1678" y2="122.2"/>
		<line class="st10" x1="1670.4" y1="124.6" x2="1678" y2="124.6"/>
		<line class="st10" x1="1670.4" y1="126.2" x2="1678" y2="126.2"/>
		<line class="st10" x1="1670.9" y1="128.7" x2="1678.4" y2="128.7"/>
		<line class="st10" x1="1750.2" y1="118" x2="1757.8" y2="118"/>
		<line class="st10" x1="1750.2" y1="120.4" x2="1757.8" y2="120.4"/>
		<line class="st10" x1="1750.2" y1="122.2" x2="1757.8" y2="122.2"/>
		<line class="st10" x1="1750.2" y1="124.6" x2="1757.8" y2="124.6"/>
		<line class="st10" x1="1750.2" y1="126.2" x2="1757.8" y2="126.2"/>
		<line class="st10" x1="1749.8" y1="128.7" x2="1757.3" y2="128.7"/>
		<rect x="196.4" y="221.1" class="st10" width="103.9" height="65.5"/>
		<path class="st10" d="M291.1,280.6h-85.4c-2.4,0-4.3-1.9-4.3-4.3v-45.4c0-2.4,1.9-4.3,4.3-4.3h85.4c2.4,0,4.3,1.9,4.3,4.3v45.4
			C295.4,278.6,293.5,280.6,291.1,280.6z"/>
		<rect x="111.6" y="221.1" class="st10" width="56.6" height="65.5"/>
		<path class="st10" d="M158.9,280.6h-38.1c-2.4,0-4.3-1.9-4.3-4.3v-45.4c0-2.4,1.9-4.3,4.3-4.3h38.1c2.4,0,4.3,1.9,4.3,4.3v45.4
			C163.2,278.6,161.3,280.6,158.9,280.6z"/>
		<rect x="328.7" y="221.1" class="st10" width="103.9" height="65.5"/>
		<path class="st10" d="M423.4,280.6H338c-2.4,0-4.3-1.9-4.3-4.3v-45.4c0-2.4,1.9-4.3,4.3-4.3h85.4c2.4,0,4.3,1.9,4.3,4.3v45.4
			C427.6,278.6,425.7,280.6,423.4,280.6z"/>
		<rect x="736.7" y="221.1" class="st10" width="103.9" height="65.5"/>
		<path class="st10" d="M831.4,280.6H746c-2.4,0-4.3-1.9-4.3-4.3v-45.4c0-2.4,1.9-4.3,4.3-4.3h85.4c2.4,0,4.3,1.9,4.3,4.3v45.4
			C835.7,278.6,833.8,280.6,831.4,280.6z"/>
		<rect x="868.8" y="221.1" class="st10" width="103.9" height="65.5"/>
		<path class="st10" d="M963.4,280.6H878c-2.4,0-4.3-1.9-4.3-4.3v-45.4c0-2.4,1.9-4.3,4.3-4.3h85.4c2.4,0,4.3,1.9,4.3,4.3v45.4
			C967.7,278.6,965.8,280.6,963.4,280.6z"/>
		<rect x="1008.7" y="221.1" class="st10" width="103.9" height="65.5"/>
		<path class="st10" d="M1103.4,280.6H1018c-2.4,0-4.3-1.9-4.3-4.3v-45.4c0-2.4,1.9-4.3,4.3-4.3h85.4c2.4,0,4.3,1.9,4.3,4.3v45.4
			C1107.6,278.6,1105.7,280.6,1103.4,280.6z"/>
		<rect x="1140.7" y="221.1" class="st10" width="103.9" height="65.5"/>
		<path class="st10" d="M1235.4,280.6H1150c-2.4,0-4.3-1.9-4.3-4.3v-45.4c0-2.4,1.9-4.3,4.3-4.3h85.4c2.4,0,4.3,1.9,4.3,4.3v45.4
			C1239.6,278.6,1237.7,280.6,1235.4,280.6z"/>
		<rect x="1549" y="221.1" class="st10" width="103.9" height="65.5"/>
		<path class="st10" d="M1643.6,280.6h-85.4c-2.4,0-4.3-1.9-4.3-4.3v-45.4c0-2.4,1.9-4.3,4.3-4.3h85.4c2.4,0,4.3,1.9,4.3,4.3v45.4
			C1647.9,278.6,1646,280.6,1643.6,280.6z"/>
		<rect x="1681.6" y="221.1" class="st10" width="103.9" height="65.5"/>
		<path class="st10" d="M1776.3,280.6h-85.4c-2.4,0-4.3-1.9-4.3-4.3v-45.4c0-2.4,1.9-4.3,4.3-4.3h85.4c2.4,0,4.3,1.9,4.3,4.3v45.4
			C1780.6,278.6,1778.6,280.6,1776.3,280.6z"/>
		<rect x="1812.9" y="221.1" class="st10" width="56.6" height="65.5"/>
		<path class="st10" d="M1860.3,280.6h-38.1c-2.4,0-4.3-1.9-4.3-4.3v-45.4c0-2.4,1.9-4.3,4.3-4.3h38.1c2.4,0,4.3,1.9,4.3,4.3v45.4
			C1864.5,278.6,1862.6,280.6,1860.3,280.6z"/>
		<rect x="592.9" y="220.7" class="st10" width="23.5" height="64.7"/>
		<path class="st10" d="M603,281.5h2.5c3.7,0,6.8-3,6.8-6.8v-43.6c0-3.7-3-6.8-6.8-6.8H603c-3.7,0-6.8,3-6.8,6.8v43.6
			C596.2,278.5,599.2,281.5,603,281.5z"/>
		<path class="st10" d="M519.8,364.6v25.3h97.3v-25.3h2.2c2.4,0,4.3-1.9,4.3-4.3V202.4c0-2.4-1.9-4.3-4.3-4.3H516.8
			c-2.4,0-4.3,1.9-4.3,4.3v157.9c0,2.4,1.9,4.3,4.3,4.3L519.8,364.6L519.8,364.6z"/>
		<rect x="529.4" y="220.8" class="st10" width="63.5" height="64.6"/>
		<path class="st10" d="M1364,365.6v25.3h97.3v-25.3h2.2c2.4,0,4.3-1.9,4.3-4.3V203.4c0-2.4-1.9-4.3-4.3-4.3H1361
			c-2.4,0-4.3,1.9-4.3,4.3v157.9c0,2.4,1.9,4.3,4.3,4.3L1364,365.6L1364,365.6z"/>
		<rect x="1365" y="220.9" class="st10" width="93.4" height="64.2"/>
		<path class="st10" d="M1365.1,220.9V212c0-3.6,2.9-6.6,6.6-6.6h80.2c3.6,0,6.6,2.9,6.6,6.6v8.9"/>
		<path class="st10" d="M1365.2,284.7v8.9c0,3.6,2.9,6.6,6.6,6.6h80.2c3.6,0,6.6-2.9,6.6-6.6v-8.9"/>
		<line class="st10" x1="1782.4" y1="50.2" x2="1694.1" y2="97"/>
		<path class="st10" d="M1688.7,15.4l90.5,36.5l-2.8,1.2c0,0-87.8-34.5-87.8-34.6C1688.6,18.3,1688.7,15.4,1688.7,15.4z"/>
		<circle class="st10" cx="1696.1" cy="99.1" r="2.9"/>
		<line class="st10" x1="1364" y1="365.6" x2="1461.3" y2="365.6"/>
		<path class="st10" d="M224.7,377.8c1.2,3.5,1.9,7.3,1.9,11.2c0,19-15.4,34.4-34.4,34.4S157.8,408,157.8,389s15.4-34.4,34.4-34.4
			c7.6,0,14.6,2.5,20.3,6.6"/>
		<line class="st10" x1="519.8" y1="364.6" x2="617.2" y2="364.6"/>
		<line class="st10" x1="13.2" y1="176.6" x2="13.2" y2="368.4"/>
		<line class="st10" x1="25.4" y1="176.6" x2="25.4" y2="368.4"/>
		<polyline class="st10" points="49.5,176.8 43.4,169.2 37.4,176.8 31.3,169.2 25.3,176.8 19.4,169.1 13.3,176.7 7.3,169.1 
			1.2,176.7 		"/>
		<polyline class="st10" points="49.8,368.6 43.7,376.1 37.7,368.6 31.6,376.1 25.6,368.6 19.4,376.1 13.3,368.5 7.3,376.1 
			1.2,368.5 		"/>
		<line class="st10" x1="37.4" y1="176.8" x2="37.4" y2="368.6"/>
		<path class="st11" d="M336.1,399.3v4.9c0,0,0,1,1.3,1.5s5.2,2,5.2,2s0.2,1.9-0.8,2.3c-1,0.3-3,1.5-10.2,1.5c-7.1,0-32.3,0-32.3,0
			h-4.6c0,0-30.1,0-37.2,0s-9.2-1.2-10.2-1.5s-0.8-2.3-0.8-2.3s3.9-1.5,5.2-2s1.3-1.5,1.3-1.5v-4.9"/>
	</g>
</g>
</svg>
