<?xml version="1.0" encoding="utf-8"?>
<!-- Generator: Adobe Illustrator 22.0.1, SVG Export Plug-In . SVG Version: 6.00 Build 0)  -->
<svg version="1.1" id="Type_73_B" xmlns="http://www.w3.org/2000/svg" xmlns:xlink="http://www.w3.org/1999/xlink" x="0px" y="0px"
	 viewBox="0 0 1945 428" style="enable-background:new 0 0 1945 428;" xml:space="preserve">
<style type="text/css">
	.st0{fill:#C7C9C7;}
	.st1{fill:#212322;}
	.st2{fill:#444445;}
	.st3{fill:#333F48;}
	.st4{fill:#DA291C;}
	.st5{fill:#101820;}
	.st6{fill:#B1B3B3;}
	.st7{fill:#58595B;}
	.st8{fill:#878787;}
	.st9{fill:#FA4616;}
</style>
<g id="Mål_8_">
</g>
<g>
	<g id="Farger_8_">
		<g id="Grunnfarge_4_">
			<g>
				<path class="st0" d="M1944.2,347.5l-107.9,0.2l-271.7,0.5l-30.3,59H440.1l-33.3-61.7l-231.1,2l-28.8,58l-96.8-1.7V145.9h1351
					l6.6-9.8h491h45.3C1944.2,136.1,1944.2,333.7,1944.2,347.5z"/>
			</g>
			<g>
				<path class="st1" d="M1611.9,347.5c-10.8,0-31.4,17.4-31.4,17.4l-16.2-0.5c0,0-3.2,1.1-3.2,4.5s1.5,4.7,4.7,4.7
					c3.2,0,3.4-1.2,3.4-1.2l3.2,0.5c0,0-8.1,11.3-5.6,24.7c2.5,13.4,13.8,29.8,33,29.8s32.7-13.9,34.9-26.7
					c2.1-12.8-0.6-18.7-0.6-18.7s5.4,1,8,4.1c2.7,3.1,13,15.1,13,15.1s2.4,2.1,7.3,2.1s80.9,0,80.9,0s2.9-0.1,6.6-4.4
					c3.8-4.3,12.2-13.9,12.2-13.9s2.8-1.8,4.8-2.4c2.1-0.5,3.3-0.8,3.3-0.8s-6.3,16.3,4,30.4c10.4,14.1,27.6,18.4,37.4,14.2
					c9.8-4.3,24.1-8.9,25.8-33.5c0,0-0.2-7.6-5.3-18.4c0,0,7,0.3,8.6-1.4c1.6-1.7,3.9-6.2,0.7-7.5c-3.2-1.3-18.2-0.6-18.2-0.6
					s-24.3-17.8-34.4-17.8S1622.7,347.5,1611.9,347.5z"/>
			</g>
			<g>
				<path class="st1" d="M404.8,347.3c0,0,7.9,14.4,10.2,17.6c2.3,3.2,15.2,29.8,15.2,29.8s-1.4,22.3-20.5,29.9
					c-19.1,7.6-33.3,0.5-43.2-12.1c-9.9-12.7-3.7-30.3-3.7-30.3s-5.9,1.1-7.7,3.2c-1.8,2.1-13.4,15.5-13.4,15.5s-2.7,2.8-7.8,2.8
					c-5.1,0-81,0-81,0s-2,0.9-7.5-5.3s-10.5-11.9-10.5-11.9s-2.8-2.7-5.9-3.5c-3.1-0.8-3.1-0.8-3.1-0.8s6.1,15.1-3.1,29
					c-9.3,13.9-23.7,20.3-41.9,14.4c-18.2-5.9-23.6-23.8-22.1-45.2c0.6-8.4,16.9-32.9,16.9-32.9L404.8,347.3z"/>
			</g>
			<g>
				<path class="st1" d="M1611.9,347.5c-10.8,0-31.4,17.4-31.4,17.4l-16.2-0.5c0,0-3.2,1.1-3.2,4.5s1.5,4.7,4.7,4.7
					c3.2,0,3.4-1.2,3.4-1.2l3.2,0.5c0,0-8.1,11.3-5.6,24.7c2.5,13.4,13.8,29.8,33,29.8s32.7-13.9,34.9-26.7
					c2.1-12.8-0.6-18.7-0.6-18.7s5.4,1,8,4.1c2.7,3.1,13,15.1,13,15.1s2.4,2.1,7.3,2.1s80.9,0,80.9,0s2.9-0.1,6.6-4.4
					c3.8-4.3,12.2-13.9,12.2-13.9s2.8-1.8,4.8-2.4c2.1-0.5,3.3-0.8,3.3-0.8s-6.3,16.3,4,30.4c10.4,14.1,27.6,18.4,37.4,14.2
					c9.8-4.3,24.1-8.9,25.8-33.5c0,0-0.2-7.6-5.3-18.4c0,0,7,0.3,8.6-1.4c1.6-1.7,3.9-6.2,0.7-7.5c-3.2-1.3-18.2-0.6-18.2-0.6
					s-24.3-17.8-34.4-17.8S1622.7,347.5,1611.9,347.5z"/>
			</g>
			<g>
				<polygon class="st2" points="0.2,179.6 6.8,172.2 13.1,179.7 18.6,172.4 24.8,180 30.9,172.2 37.2,179.7 43,172.2 49.9,180 
					49.9,373.3 43.6,381.2 37.4,373.4 31.5,381.4 25,373.3 18.9,381.2 12.8,373.3 6.7,381.2 0.2,373.9 				"/>
			</g>
			<g>
				<path class="st1" d="M415,364.9c-2.3-3.2-10.2-17.6-10.2-17.6l-229.1,0.2c0,0-16.3,24.4-16.9,32.9c-1.5,21.4,4,39.3,22.2,45.2
					c18.2,5.9,32.6-0.6,41.9-14.4c9.3-13.9,3.1-29,3.1-29s0,0,3.1,0.8c3.1,0.8,5.9,3.5,5.9,3.5s5,5.7,10.5,11.9
					c4.3,4.9,6.4,5.4,7.1,5.3v5.4c0,0,0,1-1.3,1.5c-1.3,0.5-5.3,2-5.3,2s-0.2,1.9,0.8,2.3c1,0.3,3.1,1.6,10.2,1.6
					c7.2,0,37.4,0,37.4,0h4.6c0,0,25.3,0,32.5,0s9.2-1.2,10.2-1.6c1-0.3,0.8-2.3,0.8-2.3s-3.9-1.5-5.3-2c-1.3-0.5-1.3-1.5-1.3-1.5
					v-5.7c3.6-0.6,5.6-2.6,5.6-2.6s11.5-13.3,13.4-15.5s7.7-3.2,7.7-3.2s-6.3,17.7,3.7,30.3c9.9,12.7,24.1,19.7,43.2,12.1
					s20.5-29.9,20.5-29.9S417.3,368,415,364.9z"/>
			</g>
			<g>
				<polygon class="st3" points="1944.5,353 1944,405.2 1866.5,405.2 1836.3,347.6 1564.6,348.1 1534.3,408.5 437.1,408.5 
					404.8,347.3 175.7,347.5 145.5,406.3 50.2,406.3 50.2,353.5 173.4,354 175.7,347.5 404.8,347.3 407.7,352.5 1562.8,352.9 
					1565.9,348.1 1836.3,347.6 1839.7,353 				"/>
			</g>
			<g>
				<path class="st2" d="M1500.8,108.1c0,0.8,0.6,1.4,1.4,1.4c0.3,0,0.6-0.1,0.8-0.3l63,2.4v3.1h-0.6v6.2c-0.9,0.1-2.2,0.5-2.6,0.6
					c-0.5,0.2-1.2,0.6-1.2,1.2c0,0.6,0.6,0.6,0.6,0.6h3.2v1.8c-0.9,0.1-2.2,0.5-2.6,0.6c-0.5,0.2-1.2,0.6-1.2,1.2
					c0,0.6,0.6,0.6,0.6,0.6h3.2v1.5c-0.9,0.1-2.2,0.5-2.6,0.6c-0.5,0.2-1.2,0.6-1.2,1.2s0.6,0.6,0.6,0.6h2.4h2.7v5.2h4.4v-5.1h4.6
					c0,0,0.6,0,0.6-0.6c0-0.6-0.7-1-1.2-1.2c-0.4-0.1-1.7-0.4-2.6-0.6v-1.5h3.2c0,0,0.6,0,0.6-0.6c0-0.6-0.7-1-1.2-1.2
					c-0.4-0.1-1.7-0.4-2.6-0.6v-1.8h3.2c0,0,0.6,0,0.6-0.6s-0.7-1-1.2-1.2c-0.4-0.1-1.7-0.4-2.6-0.6v-6.2h-0.6v-3.9h73.9v3.9h-0.6
					v6.2c-0.9,0.1-2.2,0.5-2.6,0.6c-0.5,0.2-1.2,0.6-1.2,1.2s0.6,0.6,0.6,0.6h3.2v1.8c-0.9,0.1-2.2,0.5-2.6,0.6
					c-0.5,0.2-1.2,0.6-1.2,1.2c0,0.6,0.6,0.6,0.6,0.6h3.2v1.5c-0.9,0.1-2.2,0.5-2.6,0.6c-0.5,0.2-1.2,0.6-1.2,1.2
					c0,0.6,0.6,0.6,0.6,0.6h2.4h2.7v5.2h4.4v-5.1h4.6c0,0,0.6,0,0.6-0.6s-0.7-1-1.2-1.2c-0.4-0.1-1.7-0.4-2.6-0.6v-1.5h3.2
					c0,0,0.6,0,0.6-0.6c0-0.6-0.7-1-1.2-1.2c-0.4-0.1-1.7-0.4-2.6-0.6v-1.8h3.2c0,0,0.6,0,0.6-0.6c0-0.6-0.7-1-1.2-1.2
					c-0.4-0.1-1.7-0.4-2.6-0.6v-6.2h-0.6V111h0.5v-6.1h-27l0,0v-4.8h18c0,0,0,0.4,0.5,0.4l0,0c0.5,0,0.5-0.4,0.5-0.4l0.4-9.2v-1.2
					h-1.8v1.2l0.3,6.8h-17.9v-2.2c0-0.4-0.4-0.8-0.8-0.8c-0.4,0-0.8,0.4-0.8,0.8v9.4h-1.7v-3c0-2-1.6-3.7-3.7-3.7
					c-2.1,0-3.7,1.6-3.7,3.7v2.7h-5.1v-5.8h-2.9l0.3-8.1v-1.2h-1.8v1.2l0.2,5.1h-29.1v-1h-61.7l0,0l0,0c-1,0-1.7,0.8-1.7,1.7v0.1
					l-0.4-0.6l-9.5,6.7l-3,4.5C1501.1,107.2,1500.8,107.8,1500.8,108.1z M1503.8,107.7l1.8-2.5l9.8-6l-0.5-0.8l4.2,4.7l0,0
					c0.4,0.4,1,0.7,1.6,0.7c1.2,0,2.2-1,2.2-2.2c0-0.4-0.1-0.8-0.3-1.2l0,0l0,0c-0.2-0.3-0.5-0.6-0.9-0.8l-0.9-0.8h56.5v-0.9h29.2
					v0.8h-19.4v5.8h-21.2v4.5C1563.1,109.1,1503.8,107.7,1503.8,107.7z"/>
			</g>
			<g>
				<path class="st2" d="M1805,52l-0.3-2l-53.5-20.5l-0.6,0.9l-43.8-16.2h10.4l0.6-2.3h-37.5l0.1,1.4l17.7,0.6l0.4,6.2l89.3,35.8
					L1706.1,99l-1.9,2.8l1.4,2.8h-24v6.1h0.5v3.8h-0.6v6.2l-3.7,1.1v1.5h4.4v1.3l-4.4,1.4v1.4h4v0.8c0,0-3.5,1.5-3.7,1.5
					s0,1.8,0,1.8h4.7v5.1l4.8-0.1l0.1-5l4.5-0.1l0.7-0.9l-3.4-2.6c0,0,3.5-1,3.1-1.1c-0.4-0.1-3.1-1.9-3.1-1.9v-1.2l2.8-1l-3.1-1.7
					l0.3-6.2l-0.9-0.2v-3.9l73.3-0.1l0.2,3.5l-0.8,0.2l0.2,6.4l-3.5,1.5l0.2,1.1l3.1,0.1v1.5l-3,1.4l-0.2,1.2l3.1,0.1l0.1,1
					l-3.4,1.8l-0.1,1h4.9l-0.2,5.2h4.8l0.2-5l4.7-0.1l0.1-1.4l-2.7-1l-0.1-1.5h2.7l0.1-1.4l-3.6-1l-0.2-1.5l3.7-0.3l-0.1-1.5
					l-2.9-0.8l-0.2-6.2h-0.6l0.1-10l-33.5-0.4v-5.4l-17.1-0.1l74.4-40.3l11-5.3l7.7,15.2l2.1,0.2l1-1.4L1805,52z M1789.1,54.5
					l-90.2-36.8l0.1-4.2h6.5l45.5,18.6l-0.5,0.9l45.1,18.4L1789.1,54.5z"/>
			</g>
		</g>
		<g id="Profilering_8_">
			<g>
				<polygon class="st4" points="1943,353 1943.2,193.2 1232.3,197.2 50.2,197.2 50.2,338 50.2,353.5 171.7,353.7 175.7,347.5 
					404.8,347.3 407.7,352.5 1562.8,352.9 1564.6,348.1 1836.3,347.7 1836.3,347.6 1839.7,353 				"/>
			</g>
			<g>
				<polygon class="st5" points="83.8,218.3 50.2,218.3 50.2,293.8 1943.1,293.8 1943.1,218.3 				"/>
			</g>
			<g>
				<g>
					<rect x="50.2" y="324.8" class="st6" width="1893.7" height="6.7"/>
				</g>
			</g>
			<g>
				<g>
					<rect x="50.1" y="208.5" class="st6" width="1893.7" height="3.4"/>
				</g>
			</g>
		</g>
		<g id="Dører_og_vinduer_7_">
			<g>
				<rect x="1147.6" y="224.3" class="st7" width="104.6" height="65.9"/>
			</g>
			<g>
				<path class="st4" d="M1470,369.1h-98h-2.2c-2.4,0-4.3-1.9-4.3-4.3v-159c0-2.4,1.9-4.3,4.3-4.3h103.1c2.4,0,4.3,1.9,4.3,4.3v159
					c0,2.4-1.9,4.3-4.3,4.3H1470z"/>
			</g>
			<g>
				<path class="st8" d="M1156.8,284.6h86c2.4,0,4.3-1.9,4.3-4.3v-45.7c0-2.4-1.9-4.3-4.3-4.3h-86c-2.4,0-4.3,1.9-4.3,4.3v45.7
					C1152.5,282.7,1154.5,284.6,1156.8,284.6z"/>
			</g>
			<g>
				<rect x="1825.4" y="224.2" class="st7" width="57" height="67"/>
			</g>
			<g>
				<rect x="1016" y="223.7" class="st7" width="104.6" height="65.9"/>
			</g>
			<g>
				<path class="st8" d="M1025.3,283.2h86c2.4,0,4.3-1.9,4.3-4.3v-45.7c0-2.4-1.9-4.3-4.3-4.3h-86c-2.4,0-4.3,1.9-4.3,4.3v45.7
					C1021,281.3,1022.9,283.2,1025.3,283.2z"/>
			</g>
			<g>
				<rect x="873.2" y="224.2" class="st7" width="104.6" height="65.9"/>
			</g>
			<g>
				<path class="st8" d="M883.1,284.4h86c2.4,0,4.3-1.9,4.3-4.3v-45.7c0-2.4-1.9-4.3-4.3-4.3h-86c-2.4,0-4.3,1.9-4.3,4.3v45.7
					C878.8,282.5,880.7,284.4,883.1,284.4z"/>
			</g>
			<g>
				<rect x="740.9" y="223.7" class="st7" width="104.6" height="65.9"/>
			</g>
			<g>
				<path class="st8" d="M750.2,284.6h86c2.4,0,4.3-1.9,4.3-4.3v-45.7c0-2.4-1.9-4.3-4.3-4.3h-86c-2.4,0-4.3,1.9-4.3,4.3v45.7
					C745.9,282.7,747.8,284.6,750.2,284.6z"/>
			</g>
			<g>
				<rect x="112.4" y="224.2" class="st7" width="56.7" height="65.9"/>
			</g>
			<g>
				<path class="st8" d="M119.9,284.2h38.7c2.4,0,4.3-1.9,4.3-4.3v-45.7c0-2.4-1.9-4.3-4.3-4.3h-38.7c-2.4,0-4.3,1.9-4.3,4.3v45.7
					C115.6,282.3,117.5,284.2,119.9,284.2z"/>
			</g>
			<g>
				<rect x="197.8" y="224.5" class="st7" width="104.6" height="65.9"/>
			</g>
			<g>
				<path class="st8" d="M206.1,284.4h86c2.4,0,4.3-1.9,4.3-4.3v-45.7c0-2.4-1.9-4.3-4.3-4.3h-86c-2.4,0-4.3,1.9-4.3,4.3v45.7
					C201.8,282.5,203.7,284.4,206.1,284.4z"/>
			</g>
			<g>
				<rect x="331" y="224.5" class="st7" width="104.6" height="65.9"/>
			</g>
			<g>
				<path class="st8" d="M339.3,284.6h86c2.4,0,4.3-1.9,4.3-4.3v-45.7c0-2.4-1.9-4.3-4.3-4.3h-86c-2.4,0-4.3,1.9-4.3,4.3v45.7
					C335,282.7,336.9,284.6,339.3,284.6z"/>
			</g>
			<g>
				<rect x="599.4" y="221.7" class="st8" width="23.6" height="65.2"/>
			</g>
			<g>
				<path class="st8" d="M609.5,282.9h2.5c3.8,0,6.8-3,6.8-6.8v-43.9c0-3.8-3-6.8-6.8-6.8h-2.5c-3.8,0-6.8,3-6.8,6.8v43.9
					C602.7,279.9,605.7,282.9,609.5,282.9z"/>
			</g>
			<g>
				<path class="st9" d="M523.4,368.7v25.4h98v-25.4h2.2c2.4,0,4.3-1.9,4.3-4.3v-159c0-2.4-1.9-4.3-4.3-4.3H520.4
					c-2.4,0-4.3,1.9-4.3,4.3v159c0,2.4,1.9,4.3,4.3,4.3H523.4z"/>
			</g>
			<g>
				<rect x="533.1" y="224.5" class="st8" width="87.6" height="65.1"/>
			</g>
			<g>
				<rect x="1373.5" y="223.6" class="st8" width="94" height="64.6"/>
			</g>
			<g>
				<path class="st8" d="M1833.6,283.2h38.4c2.4,0,4.6-1.9,4.6-4.3v-45.7c0-2.4-1.9-4.3-4.3-4.3h-38.7c-2.4,0-4.3,1.9-4.3,4.3v45.7
					C1829.3,281.3,1831.2,283.2,1833.6,283.2z"/>
			</g>
			<g>
				<rect x="1692.7" y="223.4" class="st7" width="104.1" height="67"/>
			</g>
			<g>
				<path class="st8" d="M1702,284.2h85.4c2.4,0,4.6-1.9,4.6-4.3v-45.7c0-2.4-1.9-4.3-4.3-4.3H1702c-2.4,0-4.3,1.9-4.3,4.3v45.7
					C1697.8,282.2,1699.7,284.2,1702,284.2z"/>
			</g>
			<g>
				<rect x="1559.8" y="223.4" class="st7" width="104.1" height="67"/>
			</g>
			<g>
				<path class="st8" d="M1569.2,284.2h85.4c2.4,0,4.6-1.9,4.6-4.3v-45.7c0-2.4-1.9-4.3-4.3-4.3h-85.7c-2.4,0-4.3,1.9-4.3,4.3v45.7
					C1564.9,282.2,1566.8,284.2,1569.2,284.2z"/>
			</g>
			<g>
				<path class="st7" d="M1373.4,223.2v-8.9c0-3.7,3-6.6,6.6-6.6h80.8c3.7,0,6.6,3,6.6,6.6v8.9H1373.4z"/>
			</g>
			<g>
				<path class="st7" d="M1373.4,287.5v8.9c0,3.7,3,6.6,6.6,6.6h80.8c3.7,0,6.6-3,6.6-6.6v-8.9H1373.4z"/>
			</g>
		</g>
	</g>
	<g id="Omriss_8_">
		<g>
			<path d="M336.2,404.9h-83.5c-2.2,0-4.1-0.9-5.4-2.5l-14.2-16.2c-0.7-0.8-1.6-1.3-2.6-1.6l-12.1-3.1l-12.9-3.3
				c-0.3-0.1-0.7-0.2-0.9-0.2l-24.6-1.5l-0.2-12h40.4c2,0,3.8,0.6,5.4,1.8l20,9.3c1.2,1,2.7,1.5,4.3,1.5h88.2c1.6,0,3.2-0.6,4.3-1.6
				l0.2-0.1l18.5-8.9c1.7-1.3,3.6-1.9,5.5-1.9h40.3v11.2l-23.4,1.5c-0.4,0-0.6,0.1-0.9,0.2l-0.2,0.1l-24.5,7.1
				c-1.1,0.3-1.9,1-2.5,1.5l-13.9,16.1C340.2,404,338.2,404.9,336.2,404.9z M204.8,376.1c0.4,0,0.8,0.1,1.3,0.2l25,6.4
				c1.4,0.3,2.6,1.1,3.6,2.2l14.2,16.2c0.9,1.1,2.3,1.8,3.8,1.8h83.5c1.5,0,2.9-0.6,4-1.8l14-16.2c0.8-0.8,1.9-1.7,3.4-2.1l11.6-3.4
				l12.8-3.7c0.5-0.2,1.1-0.4,1.7-0.4l21.5-1.3v-7.4h-38.3c-1.5,0-3.1,0.5-4.4,1.6l-0.2,0.1l-18.5,8.8c-1.5,1.3-3.5,2-5.5,2H250
				c-2,0-3.8-0.6-5.4-1.8l-20-9.3c-1.2-1-2.7-1.5-4.3-1.5h-38.4l0.2,8.2L204.8,376.1C204.8,376.1,204.8,376.1,204.8,376.1z"/>
		</g>
		<g>
			<path d="M394.9,402.1c-4.7,0-8.6-3.9-8.6-8.6s3.9-8.6,8.6-8.6c4.7,0,8.6,3.9,8.6,8.6S399.6,402.1,394.9,402.1z M394.9,386.9
				c-3.6,0-6.6,3-6.6,6.6c0,3.6,3,6.6,6.6,6.6c3.6,0,6.6-3,6.6-6.6C401.5,389.9,398.5,386.9,394.9,386.9z"/>
		</g>
		<g>
			<path d="M199.6,366.6c-2.3-0.5-4.4-0.8-6.5-0.8c-2.1,0-4.3,0.3-6.5,0.8l-0.5-1.9c2.3-0.5,4.7-0.8,6.9-0.8c2.2,0,4.5,0.3,6.9,0.8
				L199.6,366.6z"/>
		</g>
		<g>
			<polygon points="345,361.1 325.6,361.1 315.4,354.9 272.5,354.9 261.8,360.8 260.8,359 272,352.9 316,352.9 326.2,359.1 
				343,359.1 343,348 345,348 			"/>
		</g>
		<g>
			<polygon points="349.9,373.1 347.9,373.1 347.9,357.5 343.1,348.5 344.9,347.5 349.9,357 			"/>
		</g>
		<g>
			<polygon points="249.3,376.9 247.3,376.9 247.3,372.1 262.6,372.1 260.5,360.9 243.6,360.9 243.6,347.7 245.6,347.7 245.6,358.9 
				262.1,358.9 265,374.1 249.3,374.1 			"/>
		</g>
		<g>
			<rect x="335.6" y="358.8" transform="matrix(0.867 -0.4983 0.4983 0.867 -139.0052 216.7806)" width="2" height="20.1"/>
		</g>
		<g>
			<polygon points="1668.7,360.4 1649.3,360.4 1649.3,347.3 1651.3,347.3 1651.3,358.4 1668.1,358.4 1678.3,352.1 1722.3,352.1 
				1733.5,358.2 1732.5,360 1721.8,354.1 1678.9,354.1 			"/>
		</g>
		<g>
			<polygon points="1646.4,372.4 1644.4,372.4 1644.4,356.3 1649.4,346.8 1651.2,347.8 1646.4,356.8 			"/>
		</g>
		<g>
			<polygon points="1746.9,377.9 1744.9,377.9 1744.9,373.3 1729.2,373.3 1732.2,358.1 1748.7,358.1 1748.7,346.9 1750.7,346.9 
				1750.7,360.1 1733.8,360.1 1731.6,371.3 1746.9,371.3 			"/>
		</g>
		<g>
			<rect x="1647.7" y="367.1" transform="matrix(0.4969 -0.8678 0.8678 0.4969 514.5943 1623.7074)" width="19.9" height="2"/>
		</g>
		<g>
			<path d="M374.8,366.6l-1.2-1.6c6.3-4.6,13.6-7.1,21.3-7.1c6.7,0,13.2,1.9,18.8,5.4l-1.1,1.7c-5.3-3.3-11.5-5-17.8-5
				C387.7,359.9,380.7,362.2,374.8,366.6z"/>
		</g>
		<g>
			<path d="M395,429.1c-19.7,0-35.7-16-35.7-35.6c0-3.6,0.6-7.2,1.8-11.2l1.9,0.6c-1.2,3.8-1.8,7.2-1.8,10.6
				c0,18.5,15.1,33.6,33.7,33.6c17.6,0,32.3-13.8,33.5-31.4l2,0.1C429.3,414.5,413.7,429.1,395,429.1z"/>
		</g>
		<g>
			<path d="M394.9,423.1c-16.3,0-29.6-13.3-29.6-29.6c0-4.6,1.1-9.3,3.3-13.6l1.8,0.9c-2,3.9-3.1,8.3-3.1,12.6
				c0,15.2,12.4,27.6,27.6,27.6c15.2,0,27.6-12.4,27.6-27.6c0-12.7-8.7-23.8-21-26.8c-4.6-1-8.5-1.1-13.1,0l-0.4-2
				c4.9-1.1,9.1-1.1,14,0c13.3,3.3,22.6,15.1,22.6,28.8C424.5,409.8,411.2,423.1,394.9,423.1z"/>
		</g>
		<g>
			<path d="M192.5,402.2c-4.7,0-8.6-3.9-8.6-8.6c0-4.7,3.9-8.6,8.6-8.6c4.7,0,8.6,3.9,8.6,8.6C201.1,398.3,197.3,402.2,192.5,402.2z
				 M192.5,387c-3.6,0-6.6,3-6.6,6.6c0,3.6,3,6.6,6.6,6.6c3.6,0,6.6-3,6.6-6.6C199.1,390,196.2,387,192.5,387z"/>
		</g>
		<g>
			<path d="M192.5,423.3c-16.3,0-29.6-13.3-29.6-29.6c0-13.8,9.3-25.6,22.6-28.8c2.4-0.5,4.8-0.8,7-0.8c2.3,0,4.5,0.3,7,0.8l-0.4,2
				c-2.3-0.5-4.4-0.8-6.6-0.8c-2.1,0-4.3,0.3-6.6,0.8c-12.4,3-21,14-21,26.8c0,15.2,12.4,27.6,27.6,27.6c15.2,0,27.6-12.4,27.6-27.6
				c0-4.5-1.1-8.9-3.1-12.6l1.8-0.9c2.2,4,3.3,8.7,3.3,13.6C222.1,410,208.8,423.3,192.5,423.3z"/>
		</g>
		<g>
			<path d="M1745.3,378.7h-88.2c-1.9,0-4.7-1.5-5.5-1.9l-17.4-9.1c-1.4-0.8-2.7-1.4-4.1-1.4H1567v-2h63.1c1.9,0,3.4,0.8,5,1.7
				l0.5,0.2l17,8.9c1.8,1,3.6,1.7,4.5,1.7h88.2c1.6,0,3-0.5,4.3-1.5l0.1-0.1l15-9.2c1.6-1.2,3.5-1.9,5.5-1.9h65.1l0.1,2h-65.2
				c-1.6,0-3,0.5-4.3,1.5l-0.1,0.1l-15,9.2C1749.2,378.1,1747.3,378.7,1745.3,378.7z"/>
		</g>
		<g>
			<path d="M1742.5,404.3H1659c-2,0-4-0.9-5.4-2.4l-14-16.2c-0.5-0.5-1.4-1.2-2.4-1.5l-11.6-3.4l-13.1-3.8c-0.3-0.1-0.5-0.2-0.9-0.2
				l-32.8-2l-7.1-0.4l-4.3-0.3l-0.6,0v-2h0.7l4.4,0.3l7.1,0.4l32.7,2c0,0,0,0,0,0c0.5,0,1.1,0.1,1.6,0.4l24.4,7.1
				c1.4,0.4,2.6,1.3,3.3,2.1l14,16.3c1,1.1,2.5,1.8,3.9,1.8h83.5c1.6,0,3-0.6,3.8-1.7l14.2-16.2c1-1.1,2.2-1.9,3.6-2.2l12.1-3.1
				l12.9-3.3c0.5-0.1,0.9-0.2,1.3-0.2l40.5-2.4l6-0.3l0.1,2l-13,0.7l-33.6,2c-0.2,0-0.6,0.1-0.9,0.2l-25,6.4c-1,0.2-1.9,0.8-2.6,1.6
				l-14.2,16.2C1746.6,403.4,1744.7,404.3,1742.5,404.3z"/>
		</g>
		<g>
			<path d="M1600.2,401.6c-4.7,0-8.6-3.9-8.6-8.6s3.9-8.6,8.6-8.6s8.6,3.9,8.6,8.6S1604.9,401.6,1600.2,401.6z M1600.2,386.4
				c-3.6,0-6.6,3-6.6,6.6c0,3.6,3,6.6,6.6,6.6c3.6,0,6.6-3,6.6-6.6C1606.8,389.4,1603.8,386.4,1600.2,386.4z"/>
		</g>
		<g>
			<path d="M1593.2,366.2l-0.5-1.9c4.7-1.2,10.4-1.2,15.1,0l-0.5,1.9C1603,365,1597.6,365,1593.2,366.2z"/>
		</g>
		<g>
			<path d="M1600.3,422.7c-16.4,0-29.7-13.3-29.7-29.7c0-7.3,2.7-14.4,7.6-19.8l1.5,1.3c-4.5,5-7,11.6-7,18.4
				c0,15.3,12.4,27.7,27.7,27.7c15.3,0,27.7-12.4,27.7-27.7c0-4.3-1.1-8.7-3.1-12.6l1.8-0.9c2.2,4.2,3.3,8.9,3.3,13.6
				C1630,409.4,1616.7,422.7,1600.3,422.7z"/>
		</g>
		<g>
			<path d="M1593,366.2h-16.3l2.4-1.8c6-4.5,13.5-7,21.2-7c7.7,0,15,2.4,21.2,7l-1.2,1.6c-5.8-4.3-12.7-6.6-20-6.6
				c-6.2,0-12.2,1.7-17.3,4.8h10V366.2z"/>
		</g>
		<g>
			<path d="M1600.3,428.6c-19.6,0-35.6-16-35.6-35.6c0-7.1,2.2-14.1,6.3-20.2l0.3-0.5l7.7,0.4l-0.1,2l-6.5-0.4
				c-3.7,5.6-5.6,12-5.6,18.6c0,18.5,15.1,33.6,33.6,33.6c18.5,0,33.5-15.1,33.5-33.6c0-3.8-0.6-7.4-1.7-10.7l1.9-0.7
				c1.2,3.5,1.9,7.3,1.9,11.3C1635.8,412.6,1619.9,428.6,1600.3,428.6z"/>
		</g>
		<g>
			<path d="M1802.2,401.6c-4.7,0-8.6-3.9-8.6-8.6s3.9-8.6,8.6-8.6s8.6,3.9,8.6,8.6S1806.9,401.6,1802.2,401.6z M1802.2,386.4
				c-3.6,0-6.6,3-6.6,6.6c0,3.6,3,6.6,6.6,6.6c3.6,0,6.6-3,6.6-6.6C1808.8,389.4,1805.8,386.4,1802.2,386.4z"/>
		</g>
		<g>
			<path d="M1802.2,422.7c-16.4,0-29.7-13.3-29.7-29.7c0-4.7,1.1-9.4,3.2-13.4l1.8,0.9c-2,3.7-3,8-3,12.4
				c0,15.3,12.4,27.7,27.7,27.7s27.7-12.4,27.7-27.7c0-6.4-2.3-12.7-6.5-17.8l1.5-1.3c4.5,5.4,6.9,12.2,6.9,19
				C1831.9,409.4,1818.5,422.7,1802.2,422.7z"/>
		</g>
		<g>
			<path d="M1808.6,366.1c-2.3-0.5-4.4-0.8-6.5-0.8c-2.1,0-4.3,0.3-6.5,0.8l-0.5-1.9c2.3-0.5,4.7-0.8,6.9-0.8c2.2,0,4.5,0.3,6.9,0.8
				L1808.6,366.1z"/>
		</g>
		<g>
			<path d="M1821.9,365.9c-5.8-4.3-12.6-6.5-19.8-6.5c-7.1,0-13.9,2.2-19.7,6.5l-1.2-1.6c6.1-4.5,13.3-6.9,20.9-6.9
				c7.6,0,14.9,2.4,21,6.9L1821.9,365.9z"/>
		</g>
		<g>
			<path d="M1802.1,428.6c-19.6,0-35.5-16-35.5-35.6c0-4,0.6-7.8,1.9-11.4l1.9,0.6c-1.2,3.4-1.7,7-1.7,10.8
				c0,18.5,15,33.6,33.5,33.6c18.5,0,33.6-15.1,33.6-33.6c0-6.6-1.8-12.9-5.3-18.3l1.7-1.1c3.7,5.7,5.7,12.4,5.7,19.3
				C1837.7,412.6,1821.7,428.6,1802.1,428.6z"/>
		</g>
		<g>
			<path d="M1837.5,374.9c-3.1,0-5.7-2.6-5.7-5.7s2.6-5.7,5.7-5.7c3.1,0,5.7,2.6,5.7,5.7S1840.6,374.9,1837.5,374.9z M1837.5,365.5
				c-2,0-3.7,1.7-3.7,3.7c0,2,1.7,3.7,3.7,3.7c2,0,3.7-1.7,3.7-3.7C1841.2,367.2,1839.5,365.5,1837.5,365.5z"/>
		</g>
		<g>
			<path d="M1565,374.9c-3.1,0-5.7-2.6-5.7-5.7s2.6-5.7,5.7-5.7c1.2,0,2.3,0.3,3.2,1c1.6,1,2.5,2.7,2.5,4.7c0,2-1.1,3.9-2.8,4.9
				C1567,374.6,1565.9,374.9,1565,374.9z M1565,365.5c-2,0-3.7,1.7-3.7,3.7c0,2,1.7,3.7,3.7,3.7c0.6,0,1.3-0.2,1.9-0.6
				c1.1-0.6,1.8-1.8,1.8-3.1c0-1.3-0.6-2.4-1.6-3C1566.4,365.7,1565.7,365.5,1565,365.5z"/>
		</g>
		<g>
			<path d="M1533.9,409.9H435.6l-31.3-61.1H175.4l-29.6,57.7H48.6v-261l1,0l1353.5-1.6l-17.8,26.2h559.6l0,1l0,235.4h-80l-0.3-0.5
				l-29.3-57.1h-270.1L1533.9,409.9z M436.8,407.9h1095.9l31.3-61.1h272.5l0.3,0.5l29.3,57.1h76.8V172.1h-561.3l17.8-26.2
				L50.6,147.5v257h94l29.6-57.7h231.3L436.8,407.9z"/>
		</g>
		<g>
			<polygon points="1944.9,171.1 1942.9,171.1 1942.9,137.4 1407.4,137.4 1402,145.5 1400.4,144.4 1406.4,135.4 1944.9,135.4 			"/>
		</g>
		<g>
			<polygon points="1607.5,98.6 1576.6,98.6 1576.6,94.5 1607.5,94.5 1607.5,96.5 1578.6,96.5 1578.6,96.6 1607.5,96.6 			"/>
		</g>
		<g>
			<path d="M1619.9,104.1c-1.5,0-2.7-1.2-2.7-2.7s1.2-2.7,2.7-2.7s2.7,1.2,2.7,2.7S1621.4,104.1,1619.9,104.1z M1619.9,100.7
				c-0.4,0-0.7,0.3-0.7,0.7s0.3,0.7,0.7,0.7s0.7-0.3,0.7-0.7S1620.3,100.7,1619.9,100.7z"/>
		</g>
		<g>
			<path d="M1624.6,104.4h-2v-2.8c0-1.4-1.3-2.7-2.7-2.7s-2.7,1.3-2.7,2.7v2.8h-2v-2.8c0-2.5,2.2-4.7,4.7-4.7s4.7,2.2,4.7,4.7V104.4
				z"/>
		</g>
		<g>
			<path d="M1644.7,100.9c-1,0-1.5-0.7-1.5-1.4l-0.4-9.2l0-2.2h3.8v2.2l-0.4,9.2C1646.2,100.2,1645.7,100.9,1644.7,100.9z
				 M1644.2,99.5C1644.2,99.5,1644.2,99.5,1644.2,99.5L1644.2,99.5z M1645.2,99.4L1645.2,99.4C1645.2,99.5,1645.2,99.4,1645.2,99.4z
				"/>
		</g>
		<g>
			<path d="M1607.5,100.9c-1,0-1.5-0.7-1.5-1.4l-0.4-9.2l0-2.2h3.8v2.2l-0.4,9.2C1609,100.2,1608.5,100.9,1607.5,100.9z M1607,99.5
				C1607,99.5,1607,99.5,1607,99.5L1607,99.5z M1608,99.4L1608,99.4C1608,99.5,1608,99.4,1608,99.4z"/>
		</g>
		<g>
			<rect x="1626.9" y="96.1" width="17.2" height="2"/>
		</g>
		<g>
			<rect x="1608.3" y="94.3" width="17.2" height="2"/>
		</g>
		<g>
			<rect x="1626.9" y="98.5" width="17.3" height="2"/>
		</g>
		<g>
			<path d="M1626,110.5c-1,0-1.8-0.8-1.8-1.8V94.9c0-1,0.8-1.8,1.8-1.8c1,0,1.8,0.8,1.8,1.8v13.8
				C1627.8,109.7,1626.9,110.5,1626,110.5z"/>
		</g>
		<g>
			<path d="M1652.7,137.5h-6.5v-5.2h-4.1c-0.8,0-1.6-0.6-1.6-1.6c0-0.9,0.6-1.7,1.8-2.1l0.5-0.1c0,0,0.1,0,0.1,0h-0.4
				c-0.8,0-1.6-0.6-1.6-1.6c0-0.9,0.6-1.7,1.8-2.1l0.5-0.1c0.3-0.1,0.8-0.2,1.3-0.3h-2.1c-0.8,0-1.6-0.6-1.6-1.6
				c0-0.9,0.6-1.7,1.8-2.1l0.5-0.1c0.4-0.1,0.9-0.3,1.5-0.4v-6.5h9.7v6.5c0.8,0.2,1.7,0.4,1.9,0.5c1.2,0.5,1.9,1.2,1.9,2.1
				c0,1-0.8,1.6-1.6,1.6h-2.1c0.8,0.2,1.5,0.4,1.7,0.5c1.2,0.5,1.9,1.2,1.9,2.1c0,1-0.8,1.6-1.6,1.6h-0.9c0.2,0.1,0.4,0.1,0.5,0.2
				c1.2,0.5,1.9,1.2,1.9,2.1c0,1-0.8,1.6-1.6,1.6h-3.6V137.5z M1648.2,135.5h2.5v-5.2h4.2c-0.5-0.1-1.3-0.3-1.9-0.4l-0.9-0.1v-3.4
				h2.9c-0.5-0.1-1.3-0.3-1.9-0.4l-0.9-0.1v-3.7h2.9c-0.5-0.1-1.3-0.3-1.9-0.4l-0.9-0.1v-6.2h-5.7v6.2l-0.9,0.1
				c-0.5,0.1-1.3,0.3-1.8,0.4l2.8,0v3.7l-0.9,0.1c-0.5,0.1-1.3,0.3-1.8,0.4h2.3v3.4l-0.9,0.1c-0.5,0.1-1.3,0.3-1.8,0.4l4.6,0V135.5z
				"/>
		</g>
		<g>
			<path d="M1572.4,137.5h-6.5v-5.2h-4.1c-0.8,0-1.6-0.6-1.6-1.6c0-0.9,0.6-1.7,1.8-2.1l0.5-0.1c0,0,0.1,0,0.1,0h-0.4
				c-0.8,0-1.6-0.6-1.6-1.6c0-0.9,0.6-1.7,1.8-2.1l0.5-0.1c0.3-0.1,0.8-0.2,1.3-0.3h-2.1c-0.8,0-1.6-0.6-1.6-1.6
				c0-0.9,0.6-1.7,1.8-2.1l0.5-0.1c0.4-0.1,0.9-0.3,1.5-0.4v-6.5h9.7v6.5c0.8,0.2,1.7,0.4,1.9,0.5c1.2,0.5,1.9,1.2,1.9,2.1
				c0,1-0.8,1.6-1.6,1.6h-2.1c0.8,0.2,1.5,0.4,1.7,0.5c1.2,0.5,1.9,1.2,1.9,2.1c0,1-0.8,1.6-1.6,1.6h-0.9c0.3,0.1,0.4,0.1,0.5,0.2
				c1.2,0.5,1.9,1.2,1.9,2.1c0,1-0.8,1.6-1.6,1.6h-3.6V137.5z M1567.9,135.5h2.5v-5.2h4.2c-0.5-0.1-1.3-0.3-1.9-0.4l-0.9-0.1v-3.4
				h2.9c-0.5-0.1-1.3-0.3-1.9-0.4l-0.9-0.1v-3.7h2.9c-0.5-0.1-1.3-0.3-1.9-0.4l-0.9-0.1v-6.2h-5.7v6.2l-0.9,0.1
				c-0.5,0.1-1.3,0.3-1.8,0.4l2.8,0v3.7l-0.9,0.1c-0.5,0.1-1.3,0.3-1.8,0.4h2.3v3.4l-0.9,0.1c-0.5,0.1-1.3,0.3-1.8,0.4l4.6,0V135.5z
				"/>
		</g>
		<g>
			<polygon points="1654.4,111.5 1565,111.5 1565,103.4 1625.2,103.4 1625.2,105.4 1567,105.4 1567,109.5 1652.4,109.5 
				1652.4,105.4 1626.9,105.4 1626.9,103.4 1654.4,103.4 			"/>
		</g>
		<g>
			<path d="M1653.9,115.5h-8.5v-5.9h8.5V115.5z M1647.4,113.5h4.5v-1.9h-4.5V113.5z"/>
		</g>
		<g>
			<path d="M1573.6,115.5h-8.5v-5.9h8.5V115.5z M1567.1,113.5h4.5v-1.9h-4.5V113.5z"/>
		</g>
		<g>
			<path d="M1501.8,110.3c-1.3,0-2.4-1.1-2.4-2.4c0-0.7,0.3-1.2,0.6-1.6l0.1-0.2c0.5-0.5,1-0.7,1.7-0.7c1.3,0,2.4,1.1,2.4,2.4
				S1503.1,110.3,1501.8,110.3z M1501.6,107.6c-0.1,0.2-0.2,0.3-0.2,0.3c0,0.2,0.2,0.4,0.4,0.4c0.2,0,0.4-0.2,0.4-0.4
				s-0.2-0.4-0.4-0.4C1501.7,107.5,1501.6,107.5,1501.6,107.6z"/>
		</g>
		<g>
			<path d="M1567.1,112.4l-65-2.4l0.1-1.5l-0.7,0l2.6-3.5l-0.6-0.9l-2,3.5l-1.7-1l3.6-6.3l3.2,4.7l-1.2,1.5
				c10.6,0.3,60.3,1.4,60.7,1.5l0.4,0l0.3,0.3c0.3,0.3,0.4,0.4,0.3,3.1L1567.1,112.4z M1536.8,109.2l28.3,1.1c0-0.1,0-0.3,0-0.4
				C1561.7,109.8,1549.8,109.5,1536.8,109.2z"/>
		</g>
		<g>
			<polygon points="1505.8,105.8 1504.8,104.1 1513.8,98.5 1513,97.1 1503.9,102.9 1502.9,101.2 1513.6,94.3 1516.6,99.2 			"/>
		</g>
		<g>
			<path d="M1515.4,99c-1.5,0-2.8-1.3-2.8-2.8s1.3-2.8,2.8-2.8s2.8,1.3,2.8,2.8S1516.9,99,1515.4,99z M1515.4,95.4
				c-0.4,0-0.8,0.4-0.8,0.8c0,0.4,0.4,0.8,0.8,0.8s0.8-0.4,0.8-0.8C1516.2,95.8,1515.8,95.4,1515.4,95.4z"/>
		</g>
		<g>
			<path d="M1520.6,104.5c-1.8,0-3.2-1.4-3.2-3.2c0-1.8,1.4-3.2,3.2-3.2s3.2,1.4,3.2,3.2C1523.8,103.1,1522.4,104.5,1520.6,104.5z
				 M1520.6,100.1c-0.7,0-1.2,0.5-1.2,1.2c0,0.7,0.5,1.2,1.2,1.2s1.2-0.5,1.2-1.2C1521.8,100.7,1521.3,100.1,1520.6,100.1z"/>
		</g>
		<g>
			<rect x="1518.4" y="93.6" transform="matrix(0.6612 -0.7502 0.7502 0.6612 441.6362 1172.96)" width="2" height="7.9"/>
		</g>
		<g>
			<rect x="1515.4" y="96.2" transform="matrix(0.7459 -0.666 0.666 0.7459 318.7386 1035.3738)" width="2" height="7.5"/>
		</g>
		<g>
			<polygon points="1578.6,99.5 1520.3,99.5 1520.3,97.5 1576.6,97.5 1576.6,95.4 1515.4,95.4 1515.4,93.4 1578.6,93.4 			"/>
		</g>
		<g>
			
				<rect x="1542.3" y="81.3" transform="matrix(1.981800e-02 -0.9998 0.9998 1.981800e-02 1408.7529 1644.908)" width="2" height="45.4"/>
		</g>
		<g>
			<path d="M1612,105.3h-25.6v-7.9h25.6V105.3z M1588.4,103.3h21.6v-3.9h-21.6V103.3z"/>
		</g>
		<g>
			<path d="M1575.6,105.4c-2.2-0.1-3.9-2-3.7-4.2c0.1-1,0.5-2,1.3-2.7c0.8-0.7,1.8-1.1,2.8-1l-0.1,2c-0.5,0-1,0.1-1.4,0.5
				c-0.4,0.4-0.6,0.9-0.7,1.4c-0.1,1,0.8,2,1.9,2L1575.6,105.4z"/>
		</g>
		<g>
			<rect x="1645.8" y="119.8" width="7.7" height="2"/>
		</g>
		<g>
			<rect x="1645.8" y="122.2" width="7.7" height="2"/>
		</g>
		<g>
			<rect x="1645.8" y="124" width="7.7" height="2"/>
		</g>
		<g>
			<rect x="1645.8" y="126.4" width="7.7" height="2"/>
		</g>
		<g>
			<rect x="1645.8" y="127.9" width="7.7" height="2"/>
		</g>
		<g>
			<rect x="1645.1" y="131.1" width="7.5" height="2"/>
		</g>
		<g>
			<rect x="1565.5" y="119.8" width="7.7" height="2"/>
		</g>
		<g>
			<rect x="1565.5" y="122.2" width="7.7" height="2"/>
		</g>
		<g>
			<rect x="1565.5" y="124" width="7.7" height="2"/>
		</g>
		<g>
			<rect x="1565.5" y="126.4" width="7.7" height="2"/>
		</g>
		<g>
			<rect x="1565.5" y="127.9" width="7.7" height="2"/>
		</g>
		<g>
			<rect x="1566.6" y="131.1" width="7.5" height="2"/>
		</g>
		<g>
			<polygon points="1750.4,32.8 1704.4,14.5 1705.2,12.6 1709.5,14.3 1710.3,12.5 1751.9,29.2 			"/>
		</g>
		<g>
			<path d="M1679.8,14.8c-1,0-1.5-0.7-1.5-1.4l-0.4-9.2l0-2.2h3.8v2.2l-0.4,9.2C1681.3,14.1,1680.8,14.8,1679.8,14.8z M1679.3,13.4
				C1679.3,13.4,1679.3,13.4,1679.3,13.4L1679.3,13.4z M1680.3,13.3L1680.3,13.3C1680.3,13.4,1680.3,13.4,1680.3,13.3z"/>
		</g>
		<g>
			<path d="M1717,14.8c-1,0-1.5-0.7-1.5-1.4l-0.4-9.2l0-2.2h3.8v2.2l-0.4,9.2C1718.5,14.1,1718,14.8,1717,14.8z M1716.5,13.4
				C1716.5,13.4,1716.5,13.4,1716.5,13.4L1716.5,13.4z M1717.5,13.3L1717.5,13.3C1717.5,13.4,1717.5,13.4,1717.5,13.3z"/>
		</g>
		<g>
			<rect x="1680.4" y="10.1" width="17.2" height="2"/>
		</g>
		<g>
			<rect x="1680.3" y="12.5" width="17.3" height="2"/>
		</g>
		<g>
			<rect x="1699.1" y="10.1" width="17.1" height="2"/>
		</g>
		<g>
			<rect x="1698.9" y="12.5" width="17.3" height="2"/>
		</g>
		<g>
			<path d="M1698.4,24.4c-1,0-1.8-0.8-1.8-1.8V8.8c0-1,0.8-1.8,1.8-1.8s1.8,0.8,1.8,1.8v13.8C1700.2,23.6,1699.4,24.4,1698.4,24.4z"
				/>
		</g>
		<g>
			<path d="M1688.2,137.5h-6.5v-5.2h-3.6c-0.8,0-1.6-0.6-1.6-1.6c0-0.9,0.6-1.7,1.8-2.1c0.1,0,0.3-0.1,0.6-0.2h-0.9
				c-0.8,0-1.6-0.6-1.6-1.6c0-0.9,0.6-1.7,1.8-2.1c0.3-0.1,1-0.3,1.8-0.5h-2.1c-0.8,0-1.6-0.6-1.6-1.6c0-0.9,0.6-1.7,1.8-2.1
				c0.3-0.1,1.1-0.3,2-0.5v-6.5h9.7v6.5c0.6,0.1,1.1,0.3,1.5,0.4l0.5,0.1c1.2,0.5,1.8,1.2,1.8,2.1c0,1-0.8,1.6-1.6,1.6h-2.1
				c0.5,0.1,1,0.2,1.3,0.3l0.5,0.1c1.2,0.5,1.8,1.2,1.8,2.1c0,1-0.8,1.6-1.6,1.6h-0.4c0,0,0.1,0,0.1,0l0.5,0.1
				c1.2,0.5,1.8,1.2,1.8,2.1c0,1-0.8,1.6-1.6,1.6h-4.1V137.5z M1683.7,135.5h2.5v-5.2h4.6c-0.5-0.1-1.3-0.3-1.8-0.4l-0.9-0.1v-3.4
				h2.3c-0.5-0.1-1.3-0.3-1.8-0.4l-0.9-0.1v-3.7h2.8c-0.5-0.1-1.3-0.3-1.8-0.4l-0.9-0.1v-6.2h-5.7v6.2l-0.9,0.1
				c-0.5,0.1-1.3,0.3-1.9,0.4l2.9,0v3.7l-0.9,0.1c-0.5,0.1-1.3,0.3-1.9,0.4h2.9v3.4l-0.9,0.1c-0.5,0.1-1.3,0.3-1.9,0.4l4.2,0V135.5z
				"/>
		</g>
		<g>
			<path d="M1768.5,137.5h-6.5v-5.2h-3.6c-0.8,0-1.6-0.6-1.6-1.6c0-0.9,0.6-1.7,1.8-2.1c0.1,0,0.3-0.1,0.6-0.2h-0.9
				c-0.8,0-1.6-0.6-1.6-1.6c0-0.9,0.6-1.7,1.8-2.1c0.2-0.1,1-0.3,1.8-0.5h-2.1c-0.8,0-1.6-0.6-1.6-1.6c0-0.9,0.6-1.7,1.8-2.1
				c0.3-0.1,1.1-0.3,2-0.5v-6.5h9.7v6.5c0.6,0.1,1.1,0.3,1.5,0.4l0.5,0.1c1.2,0.5,1.8,1.2,1.8,2.1c0,1-0.8,1.6-1.6,1.6h-2.1
				c0.5,0.1,1,0.2,1.3,0.3l0.5,0.1c1.2,0.5,1.8,1.2,1.8,2.1c0,1-0.8,1.6-1.6,1.6h-0.4c0,0,0.1,0,0.1,0l0.5,0.1
				c1.2,0.5,1.8,1.2,1.8,2.1c0,1-0.8,1.6-1.6,1.6h-4.1V137.5z M1764,135.5h2.5v-5.2h4.6c-0.5-0.1-1.3-0.3-1.8-0.4l-0.9-0.1v-3.4h2.3
				c-0.5-0.1-1.3-0.3-1.8-0.4l-0.9-0.1v-3.7h2.8c-0.5-0.1-1.3-0.3-1.8-0.4l-0.9-0.1v-6.2h-5.7v6.2l-0.9,0.1
				c-0.5,0.1-1.3,0.3-1.9,0.4l2.9,0v3.7l-0.9,0.1c-0.6,0.1-1.4,0.3-1.9,0.4l2.9,0v3.4l-0.9,0.1c-0.5,0.1-1.3,0.3-1.9,0.4l4.2,0
				V135.5z"/>
		</g>
		<g>
			<path d="M1769.4,111.5H1680v-8.1h89.4V111.5z M1682,109.5h85.4v-4.1H1682V109.5z"/>
		</g>
		<g>
			<path d="M1689,115.4h-8.5v-5.9h8.5V115.4z M1682.5,113.4h4.5v-1.9h-4.5V113.4z"/>
		</g>
		<g>
			<path d="M1769.3,115.4h-8.5v-5.9h8.5V115.4z M1762.8,113.4h4.5v-1.9h-4.5V113.4z"/>
		</g>
		<g>
			<path d="M1811.9,69.2c-1.3,0-2.4-1.1-2.4-2.4s1.1-2.4,2.4-2.4c0.7,0,1.2,0.2,1.7,0.7l0.1,0.2c0.2,0.4,0.6,0.9,0.6,1.6
				C1814.3,68.2,1813.2,69.2,1811.9,69.2z M1811.9,66.4c-0.2,0-0.4,0.2-0.4,0.4s0.2,0.4,0.4,0.4c0.2,0,0.4-0.2,0.4-0.4
				c0-0.1-0.1-0.2-0.2-0.3C1812.1,66.4,1812,66.4,1811.9,66.4z"/>
		</g>
		<g>
			<path d="M1760.2,105.3h-3.9v-1l-0.5-0.8c0.9-0.6,34.6-24.3,53-37.4l-1.7-2.2l3.2-4.7l3.6,6.3l-1.7,1l-2-3.5l-0.6,0.9l2.1,2.8
				l-0.8,0.6c-33.8,23.9-46.5,32.8-51.3,36.2h0.1l51.4-36.2l1.2,1.6L1760.2,105.3z"/>
		</g>
		<g>
			<polygon points="1807.5,64.4 1801.4,52.6 1805.3,51 1811.1,60.4 1809.4,61.5 1804.5,53.5 1804.2,53.6 1809.3,63.5 			"/>
		</g>
		<g>
			<path d="M1802.8,54.1c-1.5,0-2.8-1.3-2.8-2.8c0-1.5,1.3-2.8,2.8-2.8s2.8,1.3,2.8,2.8C1805.6,52.9,1804.3,54.1,1802.8,54.1z
				 M1802.8,50.5c-0.4,0-0.8,0.4-0.8,0.8c0,0.4,0.4,0.8,0.8,0.8c0.4,0,0.8-0.4,0.8-0.8C1803.6,50.9,1803.2,50.5,1802.8,50.5z"/>
		</g>
		<g>
			<path d="M1795.3,57.3c-1.8,0-3.2-1.4-3.2-3.2c0-1.8,1.4-3.2,3.2-3.2c1.8,0,3.2,1.4,3.2,3.2C1798.5,55.9,1797,57.3,1795.3,57.3z
				 M1795.3,52.9c-0.7,0-1.2,0.5-1.2,1.2c0,0.7,0.5,1.2,1.2,1.2c0.7,0,1.2-0.5,1.2-1.2C1796.5,53.5,1795.9,52.9,1795.3,52.9z"/>
		</g>
		<g>
			<rect x="1793.2" y="50.5" transform="matrix(0.9429 -0.333 0.333 0.9429 85.4637 601.5734)" width="8.7" height="2"/>
		</g>
		<g>
			<rect x="1796.5" y="52.9" transform="matrix(0.9133 -0.4073 0.4073 0.9133 134.1856 738.0737)" width="8.1" height="2"/>
		</g>
		<g>
			<polygon points="1796.1,52.7 1748.6,32.9 1750.6,27.5 1803.1,48.6 1802.4,50.5 1751.8,30.1 1751.1,31.8 1796.9,50.8 			"/>
		</g>
		<g>
			<rect x="1711" y="76.5" transform="matrix(0.8802 -0.4745 0.4745 0.8802 173.518 842.4819)" width="89.6" height="2"/>
		</g>
		<g>
			<path d="M1735.7,105.4h-25.6v-7.9h25.6V105.4z M1712.1,103.4h21.6v-3.9h-21.6V103.4z"/>
		</g>
		<g>
			<rect x="1680.9" y="119.8" width="7.7" height="2"/>
		</g>
		<g>
			<rect x="1680.9" y="122.2" width="7.7" height="2"/>
		</g>
		<g>
			<rect x="1680.9" y="124" width="7.7" height="2"/>
		</g>
		<g>
			<rect x="1680.9" y="126.4" width="7.7" height="2"/>
		</g>
		<g>
			<rect x="1680.9" y="127.9" width="7.7" height="2"/>
		</g>
		<g>
			<rect x="1681.8" y="131.1" width="7.5" height="2"/>
		</g>
		<g>
			<rect x="1761.2" y="119.8" width="7.7" height="2"/>
		</g>
		<g>
			<rect x="1761.2" y="122.2" width="7.7" height="2"/>
		</g>
		<g>
			<rect x="1761.2" y="124" width="7.7" height="2"/>
		</g>
		<g>
			<rect x="1761.2" y="126.4" width="7.7" height="2"/>
		</g>
		<g>
			<rect x="1761.2" y="127.9" width="7.7" height="2"/>
		</g>
		<g>
			<rect x="1760.3" y="131.1" width="7.5" height="2"/>
		</g>
		<g>
			<path d="M302.4,291.4H195.8v-67.9h106.6V291.4z M197.8,289.4h102.6v-63.9H197.8V289.4z"/>
		</g>
		<g>
			<path d="M292.1,285.4h-86c-3,0-5.3-2.3-5.3-5.3v-45.7c0-3,2.3-5.3,5.3-5.3h86c3,0,5.3,2.3,5.3,5.3v45.7
				C297.4,283.1,295.1,285.4,292.1,285.4z M206.1,231.1c-1.9,0-3.3,1.4-3.3,3.3v45.7c0,1.9,1.4,3.3,3.3,3.3h86
				c1.9,0,3.3-1.4,3.3-3.3v-45.7c0-1.9-1.4-3.3-3.3-3.3H206.1z"/>
		</g>
		<g>
			<path d="M169.4,291.4h-59v-67.9h59V291.4z M112.4,289.4h55v-63.9h-55V289.4z"/>
		</g>
		<g>
			<path d="M159,285.4h-38.4c-3,0-5.3-2.3-5.3-5.3v-45.7c0-3,2.3-5.3,5.3-5.3H159c3,0,5.3,2.3,5.3,5.3v45.7
				C164.3,283.1,162,285.4,159,285.4z M120.6,231.1c-1.9,0-3.3,1.4-3.3,3.3v45.7c0,1.9,1.4,3.3,3.3,3.3H159c1.9,0,3.3-1.4,3.3-3.3
				v-45.7c0-1.9-1.4-3.3-3.3-3.3H120.6z"/>
		</g>
		<g>
			<path d="M435.6,291.4H329v-67.9h106.6V291.4z M331,289.4h102.6v-63.9H331V289.4z"/>
		</g>
		<g>
			<path d="M425.3,285.4h-86c-3,0-5.3-2.3-5.3-5.3v-45.7c0-3,2.3-5.3,5.3-5.3h86c3,0,5.3,2.3,5.3,5.3v45.7
				C430.6,283.1,428.3,285.4,425.3,285.4z M339.3,231.1c-1.9,0-3.3,1.4-3.3,3.3v45.7c0,1.9,1.4,3.3,3.3,3.3h86
				c1.9,0,3.3-1.4,3.3-3.3v-45.7c0-1.9-1.4-3.3-3.3-3.3H339.3z"/>
		</g>
		<g>
			<path d="M846.5,291.4H739.9v-67.9h106.6V291.4z M741.9,289.4h102.6v-63.9H741.9V289.4z"/>
		</g>
		<g>
			<path d="M836.2,285.4h-86c-3,0-5.3-2.3-5.3-5.3v-45.7c0-3,2.3-5.3,5.3-5.3h86c3,0,5.3,2.3,5.3,5.3v45.7
				C841.5,283.1,839.1,285.4,836.2,285.4z M750.2,231.1c-1.9,0-3.3,1.4-3.3,3.3v45.7c0,1.9,1.4,3.3,3.3,3.3h86
				c1.9,0,3.3-1.4,3.3-3.3v-45.7c0-1.9-1.4-3.3-3.3-3.3H750.2z"/>
		</g>
		<g>
			<path d="M979.3,291.4H872.8v-67.9h106.6V291.4z M874.8,289.4h102.6v-63.9H874.8V289.4z"/>
		</g>
		<g>
			<path d="M969.1,285.4h-86c-3,0-5.3-2.3-5.3-5.3v-45.7c0-3,2.3-5.3,5.3-5.3h86c3,0,5.3,2.3,5.3,5.3v45.7
				C974.4,283.1,972,285.4,969.1,285.4z M883.1,231.1c-1.9,0-3.3,1.4-3.3,3.3v45.7c0,1.9,1.4,3.3,3.3,3.3h86c1.9,0,3.3-1.4,3.3-3.3
				v-45.7c0-1.9-1.4-3.3-3.3-3.3H883.1z"/>
		</g>
		<g>
			<path d="M1120.2,291.4h-106.6v-67.9h106.6V291.4z M1015.6,289.4h102.6v-63.9h-102.6V289.4z"/>
		</g>
		<g>
			<path d="M1109.9,285.4h-86c-3,0-5.3-2.3-5.3-5.3v-45.7c0-3,2.3-5.3,5.3-5.3h86c3,0,5.3,2.3,5.3,5.3v45.7
				C1115.2,283.1,1112.9,285.4,1109.9,285.4z M1023.9,231.1c-1.9,0-3.3,1.4-3.3,3.3v45.7c0,1.9,1.4,3.3,3.3,3.3h86
				c1.9,0,3.3-1.4,3.3-3.3v-45.7c0-1.9-1.4-3.3-3.3-3.3H1023.9z"/>
		</g>
		<g>
			<path d="M1253.1,291.4h-106.6v-67.9h106.6V291.4z M1148.5,289.4h102.6v-63.9h-102.6V289.4z"/>
		</g>
		<g>
			<path d="M1242.9,285.4h-86c-3,0-5.3-2.3-5.3-5.3v-45.7c0-3,2.3-5.3,5.3-5.3h86c3,0,5.3,2.3,5.3,5.3v45.7
				C1248.2,283,1245.8,285.4,1242.9,285.4z M1156.9,231.1c-1.9,0-3.3,1.4-3.3,3.3v45.7c0,1.9,1.4,3.3,3.3,3.3h86
				c1.8,0,3.3-1.5,3.3-3.3v-45.7c0-1.9-1.4-3.3-3.3-3.3H1156.9z"/>
		</g>
		<g>
			<path d="M1664.2,291.4h-106.6v-67.9h106.6V291.4z M1559.6,289.4h102.6v-63.9h-102.6V289.4z"/>
		</g>
		<g>
			<path d="M1654,285.4h-86c-3,0-5.3-2.3-5.3-5.3v-45.7c0-3,2.3-5.3,5.3-5.3h86c3,0,5.3,2.3,5.3,5.3v45.7
				C1659.3,283,1656.9,285.4,1654,285.4z M1568,231.1c-1.9,0-3.3,1.4-3.3,3.3v45.7c0,1.9,1.4,3.3,3.3,3.3h86c1.8,0,3.3-1.5,3.3-3.3
				v-45.7c0-1.9-1.4-3.3-3.3-3.3H1568z"/>
		</g>
		<g>
			<path d="M1797.8,291.4h-106.6v-67.9h106.6V291.4z M1693.2,289.4h102.6v-63.9h-102.6V289.4z"/>
		</g>
		<g>
			<path d="M1787.5,285.4h-86c-3,0-5.3-2.3-5.3-5.3v-45.7c0-3,2.3-5.3,5.3-5.3h86c3,0,5.3,2.3,5.3,5.3v45.7
				C1792.8,283.1,1790.4,285.4,1787.5,285.4z M1701.5,231.1c-1.9,0-3.3,1.4-3.3,3.3v45.7c0,1.9,1.4,3.3,3.3,3.3h86
				c1.9,0,3.3-1.4,3.3-3.3v-45.7c0-1.9-1.5-3.3-3.3-3.3H1701.5z"/>
		</g>
		<g>
			<path d="M1882.4,291.4h-59v-67.9h59V291.4z M1825.4,289.4h55v-63.9h-55V289.4z"/>
		</g>
		<g>
			<path d="M1872.1,285.4h-38.4c-3,0-5.3-2.3-5.3-5.3v-45.7c0-3,2.3-5.3,5.3-5.3h38.4c3,0,5.3,2.3,5.3,5.3v45.7
				C1877.4,283.1,1875,285.4,1872.1,285.4z M1833.7,231.1c-1.9,0-3.3,1.4-3.3,3.3v45.7c0,1.9,1.4,3.3,3.3,3.3h38.4
				c1.9,0,3.3-1.4,3.3-3.3v-45.7c0-1.9-1.4-3.3-3.3-3.3H1833.7z"/>
		</g>
		<g>
			<path d="M620.6,290.2H595V223h25.6V290.2z M597,288.2h21.6V225H597V288.2z"/>
		</g>
		<g>
			<path d="M608.7,286.4h-2.5c-4.3,0-7.8-3.5-7.8-7.8v-43.9c0-4.4,3.4-7.8,7.8-7.8h2.5c4.4,0,7.8,3.4,7.8,7.8v43.9
				C616.5,283,613.1,286.4,608.7,286.4z M606.2,228.9c-3.3,0-5.8,2.5-5.8,5.8v43.9c0,3.2,2.6,5.8,5.8,5.8h2.5c3.3,0,5.8-2.5,5.8-5.8
				v-43.9c0-3.3-2.5-5.8-5.8-5.8H606.2z"/>
		</g>
		<g>
			<path d="M621.4,395.4h-100V370h-2c-3,0-5.3-2.3-5.3-5.3v-159c0-3,2.3-5.3,5.3-5.3h103.2c3,0,5.3,2.3,5.3,5.3v159
				c0,3-2.3,5.3-5.3,5.3h-1.2V395.4z M523.4,393.4h96V368h3.2c1.9,0,3.3-1.4,3.3-3.3v-159c0-1.9-1.4-3.3-3.3-3.3H519.4
				c-1.9,0-3.3,1.4-3.3,3.3v159c0,1.9,1.4,3.3,3.3,3.3h4V393.4z"/>
		</g>
		<g>
			<path d="M597,290.3h-65.9v-67.1H597V290.3z M533.1,288.3H595v-63.1h-61.9V288.3z"/>
		</g>
		<g>
			<path d="M1471.4,396.5h-100v-25.4h-2c-3,0-5.3-2.3-5.3-5.3v-159c0-3,2.3-5.3,5.3-5.3h103.2c3,0,5.3,2.3,5.3,5.3v159
				c0,3-2.3,5.3-5.3,5.3h-1.2V396.5z M1373.4,394.5h96v-25.4h3.2c1.9,0,3.3-1.4,3.3-3.3v-159c0-1.9-1.4-3.3-3.3-3.3h-103.2
				c-1.9,0-3.3,1.4-3.3,3.3v159c0,1.9,1.4,3.3,3.3,3.3h4V394.5z"/>
		</g>
		<g>
			<path d="M1468.5,290h-96.1v-66.6h96.1V290z M1374.4,288h92.1v-62.6h-92.1V288z"/>
		</g>
		<g>
			<path d="M1468.4,224.4h-2v-8.9c0-3.1-2.5-5.6-5.6-5.6H1380c-3.1,0-5.6,2.5-5.6,5.6v8.9h-2v-8.9c0-4.2,3.4-7.6,7.6-7.6h80.8
				c4.2,0,7.6,3.4,7.6,7.6V224.4z"/>
		</g>
		<g>
			<path d="M1460.9,305.1h-80.8c-4.2,0-7.6-3.4-7.6-7.6v-8.9h2v8.9c0,3.1,2.5,5.6,5.6,5.6h80.8c3.1,0,5.6-2.5,5.6-5.6v-8.9h2v8.9
				C1468.5,301.7,1465.1,305.1,1460.9,305.1z"/>
		</g>
		<g>
			<rect x="1698.9" y="75" transform="matrix(0.8838 -0.4678 0.4678 0.8838 167.6548 827.11)" width="100.6" height="2"/>
		</g>
		<g>
			<path d="M1787.6,56.5l-0.4-0.1c0,0-22.1-8.7-44.2-17.3c-11-4.3-22.1-8.7-30.4-12c-4.1-1.6-7.6-3-10-4c-4.3-1.7-4.3-1.7-4.4-2.3
				l-0.1-0.5l0.1-0.1c0-0.5,0-1.7,0-2.7V16l94.7,38.3L1787.6,56.5z M1700.2,20c6.4,2.6,58.8,23.2,87.3,34.3l0.2-0.1l-87.5-35.3
				C1700.3,19.4,1700.3,19.7,1700.2,20z"/>
		</g>
		<g>
			<path d="M1706.8,105.6c-2.2,0-3.9-1.7-3.9-3.9c0-2.2,1.7-3.9,3.9-3.9s3.9,1.7,3.9,3.9C1710.7,103.9,1708.9,105.6,1706.8,105.6z
				 M1706.8,99.8c-1,0-1.9,0.9-1.9,1.9s0.9,1.9,1.9,1.9c1,0,1.9-0.9,1.9-1.9S1707.8,99.8,1706.8,99.8z"/>
		</g>
		<g>
			<rect x="1372.4" y="369.1" width="98" height="2"/>
		</g>
		<g>
			<path d="M192.5,429.3c-19.6,0-35.6-16-35.6-35.6c0-19.7,16-35.7,35.6-35.7c7.6,0,14.9,2.4,21,6.9l-1.2,1.6
				c-5.8-4.3-12.6-6.5-19.8-6.5c-18.5,0-33.6,15.1-33.6,33.7c0,18.5,15.1,33.6,33.6,33.6c18.6,0,33.7-15.1,33.7-33.6
				c0-3.7-0.6-7.4-1.8-11l1.9-0.6c1.3,3.8,2,7.7,2,11.6C228.2,413.3,212.2,429.3,192.5,429.3z"/>
		</g>
		<g>
			<rect x="522.4" y="368" width="98.1" height="2"/>
		</g>
		<g>
			<rect x="11.8" y="180" width="2" height="193.1"/>
		</g>
		<g>
			<rect x="24" y="180" width="2" height="193.1"/>
		</g>
		<g>
			<polygon points="12.8,181.7 6.7,174 1.4,180.7 -0.1,179.5 6.7,170.8 12.8,178.5 18.8,170.9 24.9,178.5 31,170.9 37.1,178.5 
				43.2,170.9 50.1,179.5 48.6,180.7 43.2,174.1 37.1,181.7 31,174.1 24.9,181.7 18.8,174.1 			"/>
		</g>
		<g>
			<polygon points="31.3,382.5 25.2,374.9 19.1,382.5 12.9,374.8 6.7,382.4 -0.1,373.8 1.4,372.6 6.7,379.2 12.8,371.6 19.1,379.3 
				25.2,371.7 31.3,379.3 37.4,371.7 43.5,379.3 48.9,372.7 50.4,373.9 43.5,382.5 37.4,374.9 			"/>
		</g>
		<g>
			<rect x="36" y="180.1" width="2" height="193.2"/>
		</g>
		<g>
			<path d="M331.2,417.4h-74.5c-6.7,0-9.1-1-10.3-1.5l-0.3-0.1c-1.6-0.5-1.5-2.9-1.4-3.3c0-0.4,0.3-0.7,0.6-0.8
				c0.2-0.1,3.9-1.5,5.3-2c0.6-0.2,0.6-0.5,0.6-0.6l0-5c0-0.6,0.4-1,1-1c0.6,0,1,0.4,1,1v5c0,0.6-0.4,1.8-1.9,2.4
				c-1.1,0.4-3.5,1.3-4.7,1.8c0,0.3,0.1,0.6,0.2,0.7c0.1,0,0.2,0.1,0.4,0.1c1,0.4,3.2,1.4,9.5,1.4h74.5c6.3,0,8.5-0.9,9.5-1.4
				l0.3-0.1c0.1-0.1,0.1-0.4,0.2-0.7c-1.2-0.4-3.7-1.4-4.7-1.8c-1.5-0.6-1.9-1.8-1.9-2.4v-5c0-0.6,0.4-1,1-1s1,0.4,1,1v5
				c0,0,0.1,0.3,0.7,0.6c1.3,0.5,5.3,2,5.3,2c0.4,0.1,0.6,0.5,0.6,0.8c0,0.3,0.2,2.7-1.4,3.3l-0.3,0.1
				C340.3,416.3,337.9,417.4,331.2,417.4z"/>
		</g>
	</g>
</g>
</svg>
