<?xml version="1.0" encoding="utf-8"?>
<!-- Generator: Adobe Illustrator 22.0.1, SVG Export Plug-In . SVG Version: 6.00 Build 0)  -->
<svg version="1.1" id="Type_72" xmlns="http://www.w3.org/2000/svg" xmlns:xlink="http://www.w3.org/1999/xlink" x="0px" y="0px"
	 viewBox="0 0 1625 450" style="enable-background:new 0 0 1625 450;" xml:space="preserve">
<metadata><?xpacket begin="﻿" id="W5M0MpCehiHzreSzNTczkc9d"?>
<x:xmpmeta xmlns:x="adobe:ns:meta/" x:xmptk="Adobe XMP Core 5.6-c143 79.161210, 2017/08/11-10:28:36        ">
   <rdf:RDF xmlns:rdf="http://www.w3.org/1999/02/22-rdf-syntax-ns#">
      <rdf:Description rdf:about=""/>
   </rdf:RDF>
</x:xmpmeta>
                                                                                                    
                                                                                                    
                                                                                                    
                                                                                                    
                                                                                                    
                                                                                                    
                                                                                                    
                                                                                                    
                                                                                                    
                                                                                                    
                                                                                                    
                                                                                                    
                                                                                                    
                                                                                                    
                                                                                                    
                                                                                                    
                                                                                                    
                                                                                                    
                                                                                                    
                                                                                                    
                           
<?xpacket end="w"?></metadata>
<style type="text/css">
	.st0{fill:#444445;}
	.st1{fill:#B1B3B3;}
	.st2{fill:#212322;}
	.st3{fill:#004F59;}
	.st4{fill:#DAE294;}
	.st5{fill:#010101;}
	.st6{fill:#878787;}
	.st7{fill:#FA4616;}
	.st8{fill:none;stroke:#231F20;stroke-width:2;stroke-miterlimit:10;}
	.st9{fill:none;stroke:#000000;stroke-width:2;stroke-miterlimit:10;}
</style>
<g id="Mål_6_">
</g>
<g>
	<polygon class="st0" points="-1,350.3 5.3,358.2 11.6,350.3 17.9,358.2 24.2,350.3 30.5,358.2 30.5,143.2 30.5,143 24.2,150.9 
		17.9,143 11.6,150.9 5.3,143 -1,150.9 	"/>
	<polygon class="st0" points="36.4,350.6 30.1,358.5 23.8,350.6 17.5,358.5 11.2,350.6 4.9,358.5 4.9,143.5 4.9,143.2 11.2,151.1 
		17.5,143.2 23.8,151.1 30.1,143.2 36.4,151.1 	"/>
	<path class="st0" d="M1314.5,120.8c0,0,0.7,0.1,0.7-0.7c0-0.8-0.9-1.4-1.6-1.6c-0.5-0.2-2.3-0.6-3.5-0.8v-2.5h4.3
		c0,0,0.7,0.1,0.7-0.7c0-0.8-0.9-1.4-1.6-1.6c-0.5-0.2-2.3-0.6-3.5-0.8v-8.3H1300v8.3c-1.2,0.2-3,0.6-3.5,0.8
		c-0.7,0.2-1.6,0.8-1.6,1.6c0,0.8,0.7,0.7,0.7,0.7h4.3v2.5c-1.2,0.2-3,0.6-3.5,0.8c-0.7,0.2-1.6,0.8-1.6,1.6c0,0.8,0.7,0.7,0.7,0.7
		h4.3v2.4c-1.2,0.2-3,0.6-3.5,0.8c-0.7,0.2-1.6,0.8-1.6,1.6c0,0.8,0.7,0.7,0.7,0.7h4.3v2c-1.2,0.2-3,0.6-3.5,0.8
		c-0.7,0.2-1.6,0.8-1.6,1.6s0.7,0.7,0.7,0.7h3.2l3.6,0v6.9h5.9v-6.8h6.1c0,0,0.7,0.1,0.7-0.7s-0.9-1.4-1.6-1.6
		c-0.5-0.2-2.3-0.6-3.5-0.8v-2h4.3c0,0,0.7,0.1,0.7-0.7c0-0.8-0.9-1.4-1.6-1.6c-0.5-0.2-2.3-0.6-3.5-0.8v-2.4H1314.5z"/>
	<path class="st0" d="M1341.4,120.8c0,0,0.7,0.1,0.7-0.7c0-0.8-0.9-1.4-1.6-1.6c-0.5-0.2-2.3-0.6-3.5-0.8v-2.5h4.3
		c0,0,0.7,0.1,0.7-0.7c0-0.8-0.9-1.4-1.6-1.6c-0.5-0.2-2.3-0.6-3.5-0.8v-8.3h-10.2v8.3c-1.2,0.2-3,0.6-3.5,0.8
		c-0.7,0.2-1.6,0.8-1.6,1.6c0,0.8,0.7,0.7,0.7,0.7h4.3v2.5c-1.2,0.2-3,0.6-3.5,0.8c-0.7,0.2-1.6,0.8-1.6,1.6c0,0.8,0.7,0.7,0.7,0.7
		h4.3v2.4c-1.2,0.2-3,0.6-3.5,0.8c-0.7,0.2-1.6,0.8-1.6,1.6c0,0.8,0.7,0.7,0.7,0.7h4.3v2c-1.2,0.2-3,0.6-3.5,0.8
		c-0.7,0.2-1.6,0.8-1.6,1.6s0.7,0.7,0.7,0.7h3.2l3.6,0v6.9h5.9v-6.8h6.1c0,0,0.7,0.1,0.7-0.7s-0.9-1.4-1.6-1.6
		c-0.5-0.2-2.3-0.6-3.5-0.8v-2h4.3c0,0,0.7,0.1,0.7-0.7c0-0.8-0.9-1.4-1.6-1.6c-0.5-0.2-2.3-0.6-3.5-0.8v-2.4H1341.4z"/>
	<path class="st0" d="M1227.9,135.1v-7.7c1.6,0,3.7,0,3.7-0.3c0-0.5-0.7-0.6-1.1-0.7c-0.3-0.1-2.1-0.3-2.1-0.3
		c-0.7-0.2-0.6-0.7-0.6-0.7v-2l0,0c1.6,0,3.8,0,3.8-0.3c0-0.5-0.7-0.6-1.1-0.7c-0.3-0.1-2.1-0.3-2.1-0.3c-0.7-0.2-0.6-0.7-0.6-0.7
		v-2c1.6,0,3.8,0,3.8-0.3c0-0.5-0.7-0.6-1.1-0.7c-0.3-0.1-2.1-0.3-2.1-0.3c-0.7-0.2-0.6-0.7-0.6-0.7v-2l0,0c1.6,0,3.8,0,3.8-0.3
		c0-0.5-0.7-0.6-1.1-0.7c-0.3-0.1-2.1-0.3-2.1-0.3c-0.7-0.2-0.6-0.7-0.6-0.7v-2l0,0c1.6,0,3.8,0,3.8-0.3c0-0.5-0.7-0.6-1.1-0.7
		c-0.3-0.1-2.1-0.3-2.1-0.3c-0.7-0.2-0.6-0.7-0.6-0.7v-2l0,0c1.6,0,3.8,0,3.8-0.3c0-0.5-0.7-0.6-1.1-0.7c-0.3-0.1-2.1-0.3-2.1-0.3
		c-0.7-0.2-0.6-0.7-0.6-0.7v-2.1c1.6,0,3.8,0,3.8-0.2c0-0.5-0.7-0.6-1.1-0.7c-0.3-0.1-4.4-0.3-4.4-0.3c-0.7-0.2-0.6-0.7-0.6-0.7
		v-3.2c0,0,0-1.2-1.9-1.2s-8.4,0-10.3,0s-1.9,1.2-1.9,1.2v3.2c0,0,0.1,0.5-0.6,0.7c0,0-4,0.2-4.4,0.3c-0.3,0.1-1.1,0.2-1.1,0.7
		c0,0.2,2.3,0.2,3.8,0.2v2.1c0,0,0.1,0.5-0.6,0.7c0,0-1.8,0.2-2.1,0.3c-0.3,0.1-1.1,0.2-1.1,0.7c0,0.2,3.8,0.3,3.8,0.3v2
		c0,0,0.1,0.5-0.6,0.7c0,0-1.8,0.2-2.1,0.3c-0.3,0.1-1.1,0.2-1.1,0.7c0,0.2,2.2,0.2,3.8,0.3l0,2c0,0,0.1,0.5-0.6,0.7
		c0,0-1.8,0.2-2.1,0.3c-0.3,0.1-1.1,0.2-1.1,0.7c0,0.2,2.2,0.2,3.8,0.3l0,2c0,0,0.1,0.5-0.6,0.7c0,0-1.8,0.2-2.1,0.3
		c-0.3,0.1-1.1,0.2-1.1,0.7c0,0.2,2.2,0.3,3.8,0.3v2c0,0,0.1,0.5-0.6,0.7c0,0-1.8,0.2-2.1,0.3c-0.3,0.1-1.1,0.2-1.1,0.7
		c0,0.2,2.2,0.2,3.8,0.3l0,0v2c0,0,0.1,0.5-0.6,0.7c0,0-1.8,0.2-2.1,0.3c-0.3,0.1-1.1,0.2-1.1,0.7c0,0.2,2.2,0.2,3.7,0.3v7.7h-6.3
		v4.5l31.3,0.2v-4.7H1227.9z"/>
	<path class="st1" d="M894.2,139.6v-11.2c0-1.1-0.3-2.3-1-3.2c-4.3-6.2-23.4-23.1-33.7-31.6c-3.3-2.7-9-1.7-9-1.7l0,47.7h-2.7V91.7
		H603.7v47.9h-3.2l0-47.7c0,0-5.7-1-9,1.7c-10.2,8.5-29.4,25.3-33.7,31.6c-0.6,0.9-1,2.1-1,3.2v11.2H36.7v219.2l0.1,5.4v15.5h22.8
		l9.1-11.2h47.8h239.7l18.1,36.4H1306l18.1-36.5H1592l9.1,11.6h22.8V139.6H894.2z"/>
	<path class="st2" d="M1383.3,402.2L1366,399v-5.7h-30.1l0.4-25l255-0.6l9.3,10.9l24.2,0.2v32.9l-45.3,5.3l-4.5,4.1l-2.4,0
		c0,0,1.8,1.7-9.2,12.5s-25.2,11-25.2,11s-17.6-0.2-26.2-8s-10.2-10.3-12.6-15l-1.3,0.1l-13.8-13.3l-2.7,10.8h-5.2
		c0,0-2.5,3.7-5.3,3.7s-5.3-4.1-5.3-4.1L1383.3,402.2z"/>
	<polyline class="st2" points="374.4,405.1 1306,405.1 1324.9,368.7 355.9,368.7 374.1,403.3 	"/>
	<path class="st0" d="M1451.9,69.8l1,1.4l2.1-0.2l7.6-14.6l10.4,4.7l74.4,40.3l-17.1,0.1v5.4l-33.5,0.4l0.1,10h-0.6l-0.2,6.2
		l-2.9,0.8l-0.1,1.5l3.7,0.3l-0.2,1.5l-3.6,1l0.1,1.4l2.7,0l-0.1,1.5l-2.7,1l0.1,1.4l4.7,0.1l0.2,5l4.8,0l-0.2-5.2h4.9l-0.1-1
		l-3.4-1.8l0.1-1l3.1-0.1l-0.2-1.2l-3-1.4V126l3.1-0.1l0.2-1.1l-3.5-1.5l0.2-6.4l-0.8-0.2l0.2-3.5l73.3,0.1v3.9l-0.9,0.2l0.3,6.2
		l-3.1,1.7l2.8,1v1.2c0,0-2.6,1.8-3.1,1.9s3.1,1.1,3.1,1.1l-3.4,2.6l0.7,0.9l4.5,0.1l0.1,5l4.8,0.1v-5.1h4.7c0,0,0.2-1.8,0-1.8
		c-0.2,0-3.7-1.5-3.7-1.5v-0.8h4v-1.4l-4.4-1.4v-1.3h4.4v-1.5l-3.7-1.1v-6.2h-0.6v-3.8h0.5v-6.1h-24l1.4-2.8l-1.9-2.8L1477.9,59
		l89.3-35.8v-6.2l17.7-0.6v-1.8h-37.5l0.6,2.3h10.4l-43.8,16.2l-0.6-0.9l-53,21.2l-0.3,2L1451.9,69.8z M1470.2,54.5l45.1-18.4
		l-0.7-1.2l43.6-17.5h8v3.1L1476,57.4L1470.2,54.5z"/>
	<path class="st0" d="M229.3,109.8l-3-4.5l-9.5-6.7l-0.4,0.6c0,0,0-0.1,0-0.1c0-1-0.8-1.7-1.7-1.7c0,0,0,0,0,0l0,0h-61.7v1H124
		l0.2-5.1V92h-1.8v1.2l0.3,8.1h-2.9v5.8h-5.1v-2.7c0-2-1.6-3.7-3.7-3.7c-2,0-3.7,1.6-3.7,3.7v2.7h-1.7v-9.4c0-0.4-0.4-0.8-0.8-0.8
		s-0.8,0.4-0.8,0.8v2.2h-17l0.3-6.8V92h-1.8v1.2l0.4,9.2c0,0,0,0.4,0.5,0.4h0c0.5,0,0.5-0.4,0.5-0.4h17.2v4.8h0H77.8v6.1h0.5v3.9
		h-0.6v6.2c-0.9,0.1-2.2,0.5-2.6,0.6c-0.5,0.2-1.2,0.6-1.2,1.2c0,0.6,0.6,0.6,0.6,0.6h3.2v1.8c-0.9,0.1-2.2,0.5-2.6,0.6
		c-0.5,0.2-1.2,0.6-1.2,1.2c0,0.6,0.6,0.6,0.6,0.6h3.2v1.5c-0.9,0.1-2.2,0.5-2.6,0.6c-0.5,0.2-1.2,0.6-1.2,1.2
		c0,0.6,0.6,0.6,0.6,0.6H79v5.1h4.4v-5.2l2.7,0h2.4c0,0,0.6,0,0.6-0.6c0-0.6-0.7-1-1.2-1.2c-0.4-0.1-1.7-0.4-2.6-0.6V130h3.2
		c0,0,0.6,0,0.6-0.6c0-0.6-0.7-1-1.2-1.2c-0.4-0.1-1.7-0.4-2.6-0.6v-1.8h3.2c0,0,0.6,0,0.6-0.6c0-0.6-0.7-1-1.2-1.2
		c-0.4-0.1-1.7-0.4-2.6-0.6v-6.2h-0.6v-3.9H158v3.9h-0.6v6.2c-0.9,0.1-2.2,0.5-2.6,0.6c-0.5,0.2-1.2,0.6-1.2,1.2
		c0,0.6,0.6,0.6,0.6,0.6h3.2v1.8c-0.9,0.1-2.2,0.5-2.6,0.6c-0.5,0.2-1.2,0.6-1.2,1.2c0,0.6,0.6,0.6,0.6,0.6h3.2v1.5
		c-0.9,0.1-2.2,0.5-2.6,0.6c-0.5,0.2-1.2,0.6-1.2,1.2c0,0.6,0.6,0.6,0.6,0.6h4.6v5.1h4.4v-5.2l2.7,0h2.4c0,0,0.6,0,0.6-0.6
		c0-0.6-0.7-1-1.2-1.2c-0.4-0.1-1.7-0.4-2.6-0.6V130h3.2c0,0,0.6,0,0.6-0.6c0-0.6-0.7-1-1.2-1.2c-0.4-0.1-1.7-0.4-2.6-0.6v-1.8h3.2
		c0,0,0.6,0,0.6-0.6c0-0.6-0.7-1-1.2-1.2c-0.4-0.1-1.7-0.4-2.6-0.6v-6.2h-0.6v-3.1l63-2.4c0.2,0.2,0.5,0.3,0.8,0.3
		c0.8,0,1.4-0.6,1.4-1.4C229.7,110.3,229.3,109.8,229.3,109.8z M164.6,111.7v-4.5h-21.2v-5.8h-19.4l0-0.8h29.2v0.8h56.5l-0.9,0.8
		c-0.4,0.2-0.7,0.4-0.9,0.8l0,0l0,0c-0.2,0.3-0.3,0.7-0.3,1.2c0,1.2,1,2.2,2.2,2.2c0.6,0,1.2-0.3,1.6-0.7l0,0l4.2-4.7l-0.5,0.8
		l9.8,6l1.8,2.5C226.6,110.2,167.3,111.6,164.6,111.7z"/>
	<polygon class="st3" points="1359,318.5 1313.7,318.5 522.5,318.5 509.6,318.5 36.7,318.5 36.7,353.8 509.5,353.8 522.5,353.8 
		1313.7,353.8 1359,353.8 1623.9,353.8 1623.9,318.5 	"/>
	<polygon class="st4" points="36.7,312 36.7,318.7 1623.8,318.7 1623.8,312 	"/>
	<rect x="36.7" y="162.2" class="st4" width="1586.9" height="11.3"/>
	<path class="st3" d="M36.7,162.2c48,0,1587.3,0,1587.3,0l-0.1-13.5H36.7V162.2z"/>
	<rect x="1303.6" y="205.8" class="st5" width="290.8" height="88.4"/>
	<rect x="585.1" y="205.8" class="st5" width="488" height="126.1"/>
	<rect x="66.4" y="205.8" class="st5" width="290.8" height="88.4"/>
	<line class="st3" x1="-1" y1="160.5" x2="-1" y2="146.9"/>
	<line class="st4" x1="-1" y1="171.7" x2="-1" y2="160.5"/>
	<path class="st6" d="M148.8,284.8H80.6c-2.6,0-4.6-2.1-4.6-4.6v-60.3c0-2.6,2.1-4.6,4.6-4.6h68.2c2.6,0,4.6,2.1,4.6,4.6v60.3
		C153.4,282.7,151.3,284.8,148.8,284.8z"/>
	<path class="st6" d="M244.5,284.8h-68.2c-2.6,0-4.6-2.1-4.6-4.6v-60.3c0-2.6,2.1-4.6,4.6-4.6h68.2c2.6,0,4.6,2.1,4.6,4.6v60.3
		C249.1,282.7,247,284.8,244.5,284.8z"/>
	<path class="st6" d="M340.7,284.8h-68.2c-2.6,0-4.6-2.1-4.6-4.6v-60.3c0-2.6,2.1-4.6,4.6-4.6h68.2c2.6,0,4.6,2.1,4.6,4.6v60.3
		C345.3,282.7,343.2,284.8,340.7,284.8z"/>
	<path class="st6" d="M1387.4,284.8h-68.2c-2.6,0-4.6-2.1-4.6-4.6v-60.3c0-2.6,2.1-4.6,4.6-4.6h68.2c2.6,0,4.6,2.1,4.6,4.6v60.3
		C1392,282.7,1389.9,284.8,1387.4,284.8z"/>
	<path class="st6" d="M1483.1,284.8h-68.2c-2.6,0-4.6-2.1-4.6-4.6v-60.3c0-2.6,2.1-4.6,4.6-4.6h68.2c2.6,0,4.6,2.1,4.6,4.6v60.3
		C1487.7,282.7,1485.6,284.8,1483.1,284.8z"/>
	<path class="st6" d="M1579.2,284.8H1511c-2.6,0-4.6-2.1-4.6-4.6v-60.3c0-2.6,2.1-4.6,4.6-4.6h68.2c2.6,0,4.6,2.1,4.6,4.6v60.3
		C1583.9,282.7,1581.8,284.8,1579.2,284.8z"/>
	<path class="st6" d="M694.9,322.3h-94.2c-2.6,0-4.6-2.1-4.6-4.6v-97.9c0-2.6,2.1-4.6,4.6-4.6h94.2c2.6,0,4.6,2.1,4.6,4.6v97.9
		C699.5,320.2,697.5,322.3,694.9,322.3z"/>
	<path class="st6" d="M938,322.3h-94.2c-2.6,0-4.6-2.1-4.6-4.6v-97.9c0-2.6,2.1-4.6,4.6-4.6H938c2.6,0,4.6,2.1,4.6,4.6v97.9
		C942.7,320.2,940.6,322.3,938,322.3z"/>
	<path class="st6" d="M1059.6,322.3h-94.2c-2.6,0-4.6-2.1-4.6-4.6v-97.9c0-2.6,2.1-4.6,4.6-4.6h94.2c2.6,0,4.6,2.1,4.6,4.6v97.9
		C1064.2,320.2,1062.1,322.3,1059.6,322.3z"/>
	<path class="st6" d="M816.5,322.3h-94.2c-2.6,0-4.6-2.1-4.6-4.6v-97.9c0-2.6,2.1-4.6,4.6-4.6h94.2c2.6,0,4.6,2.1,4.6,4.6v97.9
		C821.1,320.2,819,322.3,816.5,322.3z"/>
	<path class="st7" d="M1233.1,394.5h-93.2c-6.1,0-11-4.9-11-11V192c0-6.1,4.9-11,11-11h93.2c6.1,0,11,4.9,11,11v191.4
		C1244.1,389.5,1239.2,394.5,1233.1,394.5z"/>
	<path class="st7" d="M520,394.5h-93.2c-6.1,0-11-4.9-11-11V192c0-6.1,4.9-11,11-11H520c6.1,0,11,4.9,11,11v191.4
		C530.9,389.5,526,394.5,520,394.5z"/>
	<path class="st6" d="M453.9,319.9h-19.4c-3.4,0-6.1-2.8-6.1-6.1v-91.6c0-3.4,2.8-6.1,6.1-6.1h19.4c3.4,0,6.1,2.8,6.1,6.1v91.6
		C460.1,317.1,457.3,319.9,453.9,319.9z"/>
	<path class="st6" d="M512,319.9h-19.4c-3.4,0-6.1-2.8-6.1-6.1v-91.6c0-3.4,2.8-6.1,6.1-6.1H512c3.4,0,6.1,2.8,6.1,6.1v91.6
		C518.1,317.1,515.4,319.9,512,319.9z"/>
	<path class="st6" d="M1167.1,319.9h-19.4c-3.4,0-6.1-2.8-6.1-6.1v-91.6c0-3.4,2.8-6.1,6.1-6.1h19.4c3.4,0,6.1,2.8,6.1,6.1v91.6
		C1173.2,317.1,1170.5,319.9,1167.1,319.9z"/>
	<path class="st6" d="M1225.2,319.9h-19.4c-3.4,0-6.1-2.8-6.1-6.1v-91.6c0-3.4,2.8-6.1,6.1-6.1h19.4c3.4,0,6.1,2.8,6.1,6.1v91.6
		C1231.3,317.1,1228.6,319.9,1225.2,319.9z"/>
	<polyline class="st8" points="-1,151 5.3,143.2 11.6,151 17.9,143.2 24.2,151 30.5,143.2 	"/>
	<polyline class="st8" points="-1,350.5 5.3,358.4 11.6,350.5 17.9,358.4 24.2,350.5 30.5,358.4 	"/>
	<polyline class="st8" points="36.8,151.1 30.5,143.2 24.2,151.1 17.9,143.2 11.6,151.1 5.3,143.2 	"/>
	<polyline class="st8" points="36.8,350.5 30.5,358.4 24.2,350.5 17.9,358.4 11.6,350.5 5.3,358.4 	"/>
	<path class="st8" d="M-1,351.8"/>
	<path class="st8" d="M-1,171.9"/>
	<path class="st8" d="M894.2,139.8v-11.2c0-1.1-0.3-2.3-1-3.2c-4.3-6.2-23.4-23.1-33.7-31.6c-3.3-2.7-9-1.7-9-1.7l0,47.7"/>
	<path class="st8" d="M556.9,139.8v-11.2c0-1.1,0.3-2.3,1-3.2c4.3-6.2,23.4-23.1,33.7-31.6c3.3-2.7,9-1.7,9-1.7l0,47.7"/>
	<polygon class="st8" points="36.7,139.8 1623.8,139.8 1623.8,380 1601,380 1592.4,368.7 1324.5,368.7 1306,405.1 374.3,405.1 
		355.8,368.7 68.6,368.7 59.5,380 36.8,380 	"/>
	<line class="st8" x1="1310.1" y1="117.8" x2="1300" y2="117.8"/>
	<line class="st8" x1="1310.1" y1="115.4" x2="1300" y2="115.4"/>
	<line class="st8" x1="1310.1" y1="112.2" x2="1300" y2="112.2"/>
	<line class="st8" x1="1310.1" y1="121" x2="1300" y2="121"/>
	<line class="st8" x1="1310.1" y1="123.4" x2="1300" y2="123.4"/>
	<line class="st8" x1="1310.1" y1="126.6" x2="1300" y2="126.6"/>
	<line class="st8" x1="1310.1" y1="128.6" x2="1300" y2="128.6"/>
	<line class="st8" x1="1310.1" y1="131.8" x2="1300" y2="131.8"/>
	<path class="st8" d="M1314.5,121c0,0,0.7,0.1,0.7-0.7c0-0.8-0.9-1.4-1.6-1.6c-0.5-0.2-2.3-0.6-3.5-0.8v-2.5h4.3
		c0,0,0.7,0.1,0.7-0.7c0-0.8-0.9-1.4-1.6-1.6c-0.5-0.2-2.3-0.6-3.5-0.8v-8.3H1300v8.3c-1.2,0.2-3,0.6-3.5,0.8
		c-0.7,0.2-1.6,0.8-1.6,1.6c0,0.8,0.7,0.7,0.7,0.7h4.3v2.5c-1.2,0.2-3,0.6-3.5,0.8c-0.7,0.2-1.6,0.8-1.6,1.6c0,0.8,0.7,0.7,0.7,0.7
		h4.3v2.4c-1.2,0.2-3,0.6-3.5,0.8c-0.7,0.2-1.6,0.8-1.6,1.6c0,0.8,0.7,0.7,0.7,0.7h4.3v2c-1.2,0.2-3,0.6-3.5,0.8
		c-0.7,0.2-1.6,0.8-1.6,1.6s0.7,0.7,0.7,0.7h3.2l3.6,0v6.9h5.9v-6.8h6.1c0,0,0.7,0.1,0.7-0.7s-0.9-1.4-1.6-1.6
		c-0.5-0.2-2.3-0.6-3.5-0.8v-2h4.3c0,0,0.7,0.1,0.7-0.7c0-0.8-0.9-1.4-1.6-1.6c-0.5-0.2-2.3-0.6-3.5-0.8V121H1314.5z"/>
	<line class="st8" x1="1337" y1="117.8" x2="1326.9" y2="117.8"/>
	<line class="st8" x1="1337" y1="115.4" x2="1326.9" y2="115.4"/>
	<line class="st8" x1="1337" y1="112.2" x2="1326.9" y2="112.2"/>
	<line class="st8" x1="1337" y1="121" x2="1326.9" y2="121"/>
	<line class="st8" x1="1337" y1="123.4" x2="1326.9" y2="123.4"/>
	<line class="st8" x1="1337" y1="126.6" x2="1326.9" y2="126.6"/>
	<line class="st8" x1="1337" y1="128.6" x2="1326.9" y2="128.6"/>
	<line class="st8" x1="1337" y1="131.8" x2="1326.9" y2="131.8"/>
	<path class="st8" d="M1341.4,121c0,0,0.7,0.1,0.7-0.7c0-0.8-0.9-1.4-1.6-1.6c-0.5-0.2-2.3-0.6-3.5-0.8v-2.5h4.3
		c0,0,0.7,0.1,0.7-0.7c0-0.8-0.9-1.4-1.6-1.6c-0.5-0.2-2.3-0.6-3.5-0.8v-8.3h-10.2v8.3c-1.2,0.2-3,0.6-3.5,0.8
		c-0.7,0.2-1.6,0.8-1.6,1.6c0,0.8,0.7,0.7,0.7,0.7h4.3v2.5c-1.2,0.2-3,0.6-3.5,0.8c-0.7,0.2-1.6,0.8-1.6,1.6c0,0.8,0.7,0.7,0.7,0.7
		h4.3v2.4c-1.2,0.2-3,0.6-3.5,0.8c-0.7,0.2-1.6,0.8-1.6,1.6c0,0.8,0.7,0.7,0.7,0.7h4.3v2c-1.2,0.2-3,0.6-3.5,0.8
		c-0.7,0.2-1.6,0.8-1.6,1.6s0.7,0.7,0.7,0.7h3.2l3.6,0v6.9h5.9v-6.8h6.1c0,0,0.7,0.1,0.7-0.7s-0.9-1.4-1.6-1.6
		c-0.5-0.2-2.3-0.6-3.5-0.8v-2h4.3c0,0,0.7,0.1,0.7-0.7c0-0.8-0.9-1.4-1.6-1.6c-0.5-0.2-2.3-0.6-3.5-0.8V121H1341.4z"/>
	<path class="st8" d="M148.8,284.9H80.6c-2.6,0-4.6-2.1-4.6-4.6v-60.3c0-2.6,2.1-4.6,4.6-4.6h68.2c2.6,0,4.6,2.1,4.6,4.6v60.3
		C153.4,282.8,151.3,284.9,148.8,284.9z"/>
	<path class="st8" d="M244.5,284.9h-68.2c-2.6,0-4.6-2.1-4.6-4.6v-60.3c0-2.6,2.1-4.6,4.6-4.6h68.2c2.6,0,4.6,2.1,4.6,4.6v60.3
		C249.1,282.8,247,284.9,244.5,284.9z"/>
	<path class="st8" d="M340.7,284.9h-68.2c-2.6,0-4.6-2.1-4.6-4.6v-60.3c0-2.6,2.1-4.6,4.6-4.6h68.2c2.6,0,4.6,2.1,4.6,4.6v60.3
		C345.3,282.8,343.2,284.9,340.7,284.9z"/>
	<path class="st8" d="M1387.4,284.9h-68.2c-2.6,0-4.6-2.1-4.6-4.6v-60.3c0-2.6,2.1-4.6,4.6-4.6h68.2c2.6,0,4.6,2.1,4.6,4.6v60.3
		C1392,282.8,1389.9,284.9,1387.4,284.9z"/>
	<path class="st8" d="M1483.1,284.9h-68.2c-2.6,0-4.6-2.1-4.6-4.6v-60.3c0-2.6,2.1-4.6,4.6-4.6h68.2c2.6,0,4.6,2.1,4.6,4.6v60.3
		C1487.7,282.8,1485.6,284.9,1483.1,284.9z"/>
	<path class="st8" d="M1579.2,284.9H1511c-2.6,0-4.6-2.1-4.6-4.6v-60.3c0-2.6,2.1-4.6,4.6-4.6h68.2c2.6,0,4.6,2.1,4.6,4.6v60.3
		C1583.9,282.8,1581.8,284.9,1579.2,284.9z"/>
	<path class="st8" d="M694.9,322.5h-94.2c-2.6,0-4.6-2.1-4.6-4.6v-97.9c0-2.6,2.1-4.6,4.6-4.6h94.2c2.6,0,4.6,2.1,4.6,4.6v97.9
		C699.5,320.4,697.5,322.5,694.9,322.5z"/>
	<path class="st8" d="M938,322.5h-94.2c-2.6,0-4.6-2.1-4.6-4.6v-97.9c0-2.6,2.1-4.6,4.6-4.6H938c2.6,0,4.6,2.1,4.6,4.6v97.9
		C942.7,320.4,940.6,322.5,938,322.5z"/>
	<path class="st8" d="M1059.6,322.5h-94.2c-2.6,0-4.6-2.1-4.6-4.6v-97.9c0-2.6,2.1-4.6,4.6-4.6h94.2c2.6,0,4.6,2.1,4.6,4.6v97.9
		C1064.2,320.4,1062.1,322.5,1059.6,322.5z"/>
	<path class="st8" d="M816.5,322.5h-94.2c-2.6,0-4.6-2.1-4.6-4.6v-97.9c0-2.6,2.1-4.6,4.6-4.6h94.2c2.6,0,4.6,2.1,4.6,4.6v97.9
		C821.1,320.4,819,322.5,816.5,322.5z"/>
	<path class="st8" d="M1167.1,320.1h-19.4c-3.4,0-6.1-2.8-6.1-6.1v-91.6c0-3.4,2.8-6.1,6.1-6.1h19.4c3.4,0,6.1,2.8,6.1,6.1V314
		C1173.2,317.4,1170.5,320.1,1167.1,320.1z"/>
	<path class="st8" d="M1225.2,320.1h-19.4c-3.4,0-6.1-2.8-6.1-6.1v-91.6c0-3.4,2.8-6.1,6.1-6.1h19.4c3.4,0,6.1,2.8,6.1,6.1V314
		C1231.3,317.4,1228.6,320.1,1225.2,320.1z"/>
	<path class="st8" d="M1233.1,394.7h-93.2c-6.1,0-11-4.9-11-11V192.3c0-6.1,4.9-11,11-11h93.2c6.1,0,11,4.9,11,11v191.4
		C1244.1,389.8,1239.2,394.7,1233.1,394.7z"/>
	<path class="st8" d="M1080.3,394.7"/>
	<path class="st8" d="M1080.3,181.3"/>
	<path class="st8" d="M453.9,320.1h-19.4c-3.4,0-6.1-2.8-6.1-6.1v-91.6c0-3.4,2.8-6.1,6.1-6.1h19.4c3.4,0,6.1,2.8,6.1,6.1V314
		C460.1,317.4,457.3,320.1,453.9,320.1z"/>
	<path class="st8" d="M512,320.1h-19.4c-3.4,0-6.1-2.8-6.1-6.1v-91.6c0-3.4,2.8-6.1,6.1-6.1H512c3.4,0,6.1,2.8,6.1,6.1V314
		C518.1,317.4,515.4,320.1,512,320.1z"/>
	<path class="st8" d="M520,394.7h-93.2c-6.1,0-11-4.9-11-11V192.3c0-6.1,4.9-11,11-11H520c6.1,0,11,4.9,11,11v191.4
		C530.9,389.8,526,394.7,520,394.7z"/>
	<line class="st8" x1="473.3" y1="181.3" x2="473.3" y2="394.7"/>
	<line class="st8" x1="1186.5" y1="181.6" x2="1186.5" y2="395"/>
	<rect x="603.7" y="91.9" class="st8" width="244.1" height="47.9"/>
	<rect x="612.1" y="95.9" class="st8" width="104.4" height="17.2"/>
	<g>
		<line class="st8" x1="618.4" y1="95.9" x2="618.4" y2="113.1"/>
		<line class="st8" x1="625" y1="95.9" x2="625" y2="113.1"/>
		<line class="st8" x1="631.5" y1="95.9" x2="631.5" y2="113.1"/>
		<line class="st8" x1="638.1" y1="95.9" x2="638.1" y2="113.1"/>
		<line class="st8" x1="644.7" y1="95.9" x2="644.7" y2="113.1"/>
		<line class="st8" x1="651.3" y1="95.9" x2="651.3" y2="113.1"/>
		<line class="st8" x1="657.9" y1="95.9" x2="657.9" y2="113.1"/>
		<line class="st8" x1="664.5" y1="95.9" x2="664.5" y2="113.1"/>
	</g>
	<g>
		<line class="st8" x1="671.1" y1="95.9" x2="671.1" y2="113.1"/>
		<line class="st8" x1="677.7" y1="95.9" x2="677.7" y2="113.1"/>
		<line class="st8" x1="684.3" y1="95.9" x2="684.3" y2="113.1"/>
		<line class="st8" x1="690.9" y1="95.9" x2="690.9" y2="113.1"/>
		<line class="st8" x1="697.5" y1="95.9" x2="697.5" y2="113.1"/>
		<line class="st8" x1="704.1" y1="95.9" x2="704.1" y2="113.1"/>
		<line class="st8" x1="710.7" y1="95.9" x2="710.7" y2="113.1"/>
	</g>
	<polyline class="st8" points="1202.8,139.8 1202.8,135.3 1234,135.3 1234,140 	"/>
	<path class="st8" d="M1227.8,103.6v2c0,0-0.1,0.5,0.6,0.7c0,0,1.8,0.2,2.1,0.3c0.3,0.1,1.1,0.2,1.1,0.7c0,0.3-5.3,0.2-5.3,0.2
		h-15.6c0,0-5.3,0.1-5.3-0.2c0-0.5,0.7-0.6,1.1-0.7c0.3-0.1,2.1-0.3,2.1-0.3c0.7-0.2,0.6-0.7,0.6-0.7v-2"/>
	<path class="st8" d="M1210.6,103.6c0,0-5.2,0.1-5.2-0.2c0-0.5,0.7-0.6,1.1-0.7c0.3-0.1,4.4-0.3,4.4-0.3c0.7-0.2,0.6-0.7,0.6-0.7
		v-3.2c0,0,0-1.2,1.9-1.2s8.4,0,10.3,0s1.9,1.2,1.9,1.2v3.2c0,0-0.1,0.5,0.6,0.7c0,0,4,0.2,4.4,0.3c0.3,0.1,1.1,0.2,1.1,0.7
		c0,0.3-5.2,0.2-5.2,0.2H1210.6z"/>
	<path class="st8" d="M1227.8,107.6v2c0,0-0.1,0.5,0.6,0.7c0,0,1.8,0.2,2.1,0.3c0.3,0.1,1.1,0.2,1.1,0.7c0,0.3-5.3,0.2-5.3,0.2
		h-15.6c0,0-5.3,0.1-5.3-0.2c0-0.5,0.7-0.6,1.1-0.7c0.3-0.1,2.1-0.3,2.1-0.3c0.7-0.2,0.6-0.7,0.6-0.7v-2"/>
	<path class="st8" d="M1227.8,111.6v2c0,0-0.1,0.5,0.6,0.7c0,0,1.8,0.2,2.1,0.3c0.3,0.1,1.1,0.2,1.1,0.7c0,0.3-5.3,0.2-5.3,0.2
		h-15.6c0,0-5.3,0.1-5.3-0.2c0-0.5,0.7-0.6,1.1-0.7c0.3-0.1,2.1-0.3,2.1-0.3c0.7-0.2,0.6-0.7,0.6-0.7v-2"/>
	<path class="st8" d="M1227.8,115.6v2c0,0-0.1,0.5,0.6,0.7c0,0,1.8,0.2,2.1,0.3c0.3,0.1,1.1,0.2,1.1,0.7c0,0.3-5.3,0.2-5.3,0.2
		h-15.6c0,0-5.3,0.1-5.3-0.2c0-0.5,0.7-0.6,1.1-0.7c0.3-0.1,2.1-0.3,2.1-0.3c0.7-0.2,0.6-0.7,0.6-0.7v-2"/>
	<path class="st8" d="M1227.8,119.6v2c0,0-0.1,0.5,0.6,0.7c0,0,1.8,0.2,2.1,0.3c0.3,0.1,1.1,0.2,1.1,0.7c0,0.3-5.3,0.2-5.3,0.2
		h-15.6c0,0-5.3,0.1-5.3-0.2c0-0.5,0.7-0.6,1.1-0.7c0.3-0.1,2.1-0.3,2.1-0.3c0.7-0.2,0.6-0.7,0.6-0.7v-2"/>
	<path class="st8" d="M1227.8,123.6v2c0,0-0.1,0.5,0.6,0.7c0,0,1.8,0.2,2.1,0.3c0.3,0.1,1.1,0.2,1.1,0.7c0,0.3-5.3,0.2-5.3,0.2
		h-15.6c0,0-5.3,0.1-5.3-0.2c0-0.5,0.7-0.6,1.1-0.7c0.3-0.1,2.1-0.3,2.1-0.3c0.7-0.2,0.6-0.7,0.6-0.7v-2"/>
	<line class="st8" x1="1209.1" y1="127.6" x2="1209.1" y2="135.3"/>
	<line class="st8" x1="1227.9" y1="127.6" x2="1227.9" y2="135.3"/>
	<line class="st8" x1="11.6" y1="151.1" x2="11.6" y2="350.5"/>
	<line class="st8" x1="24.2" y1="151.1" x2="24.2" y2="350.5"/>
	<line class="st8" x1="11.5" y1="151.1" x2="11.5" y2="350.5"/>
	<line class="st8" x1="24.1" y1="151.1" x2="24.1" y2="350.5"/>
	<path class="st8" d="M1580.1,410.3h13.1c0,0,0,0,0,0h3"/>
	<path class="st8" d="M1579,417.8"/>
	<circle class="st8" cx="1536.2" cy="404.7" r="11.9"/>
	<path class="st8" d="M1572.9,421.7c-6.4,13.9-20.4,23.5-36.7,23.5c-16,0-29.8-9.2-36.4-22.7h0.5h6 M1508.3,384h-6.5h-0.3
		c1.7-2.8,3.6-5.3,5.9-7.6c3-3.1,6.5-5.7,10.4-7.6h36.8c3.9,2,7.4,4.6,10.4,7.6c2.3,2.3,4.3,4.9,6,7.8"/>
	<path class="st8" d="M1508.3,384c6.3-8.5,16.5-14,27.9-14c11.4,0,21.6,5.5,27.9,14"/>
	<path class="st8" d="M1506.3,422.5c6,10.2,17.2,17.1,29.9,17.1c13,0,24.4-7.2,30.3-17.8"/>
	<circle class="st8" cx="1478.6" cy="393.6" r="9.6"/>
	<polyline class="st8" points="1579.5,378.1 1579.5,388.2 1579.5,388.5 1579.5,397.7 1581.4,397.7 1582.2,397.7 1584.1,397.7 
		1584.1,381.9 	"/>
	<path class="st8" d="M1583.1,397.9L1583.1,397.9c-0.4-0.1-0.6-0.2-0.9-0.2c-0.1,0-0.3,0-0.4,0s-0.3,0-0.4,0
		c-1.9,0.2-3.5,1.9-3.5,3.9c0,1.6,1,3,2.4,3.6"/>
	<path class="st8" d="M1478.4,384h23.1h0.3h6.5h0.3h20.1h1.3h15.1h0.2h18.9h0.3h5.2c0,0,0.5,0,1.4,0.1c0.1,0,0.2,0.1,0.3,0.1
		c1.8,0.3,4.7,1.3,8.1,4.1"/>
	<rect x="1335.9" y="368.7" class="st8" width="89.9" height="25.4"/>
	<path class="st8" d="M1466.4,415.3c0,0-95.6-21.2-95.9-21.2s-4.3,0-4.3,0v5.2l99.8,20.3"/>
	<line class="st8" x1="1469.2" y1="396" x2="1475.7" y2="415.7"/>
	<polyline class="st8" points="1487.7,396.7 1488,395.2 1488.2,394.6 	"/>
	<path class="st8" d="M1583.1,397.9l13.1,2.8c2.1,0.6,3.7,2.6,3.7,4.9c0,2.8-2.3,5.1-5.1,5.1c-0.5,0-1-0.1-1.5-0.2l-12.9-5.4
		l-0.2,5.2l-0.2,6.7l-0.9,0.8l-4.1,3.9l-2,0l-6.4,0.1l-3.9,0.1l-17.4-37.9h-16.6l-18,38.5h-4.3h-6h-0.5h-1.5l-14-12.4l-7.9-7"/>
	<polyline class="st8" points="1576.1,368.7 1576.1,375.3 1579.5,378.1 1584.1,381.9 1586.1,383.6 1600.8,383.6 1600.8,379.7 	"/>
	<circle class="st8" cx="1471" cy="417.9" r="5.3"/>
	<polyline class="st8" points="1484.4,410 1481.4,419.5 1476,419.5 	"/>
	<polyline class="st8" points="-1.1,410.3 67.2,410.3 80.1,410.3 	"/>
	<line class="st8" x1="81.1" y1="417.8" x2="-1.1" y2="417.8"/>
	<circle class="st8" cx="124.2" cy="404.7" r="11.9"/>
	<path class="st8" d="M152.1,384h6.5h0.3h0c-1.7-2.8-3.6-5.3-5.9-7.6c-3-3.1-6.5-5.7-10.4-7.6h-36.8c-3.9,2-7.4,4.6-10.4,7.6
		c-2.3,2.3-4.3,4.9-6,7.8 M87.5,421.7c6.4,13.9,20.4,23.5,36.7,23.5c16,0,29.8-9.2,36.4-22.7h-0.5h-6"/>
	<path class="st8" d="M96.3,384c6.3-8.5,16.5-14,27.9-14c11.4,0,21.6,5.5,27.9,14"/>
	<path class="st8" d="M93.9,421.8c6,10.6,17.3,17.8,30.3,17.8c12.7,0,23.9-6.9,29.9-17.1"/>
	<circle class="st8" cx="181.9" cy="393.6" r="9.6"/>
	<polyline class="st8" points="76.3,381.9 76.3,397.7 78.2,397.7 79,397.7 81,397.7 81,388.5 81,388.2 81,378.1 	"/>
	<path class="st8" d="M81,388.2c3.4-2.7,6.4-3.7,8.1-4.1c0.1,0,0.2-0.1,0.3-0.1c0.9-0.2,1.4-0.1,1.4-0.1H96h0.3h18.9h0.2h15.1h1.3
		h20.1h0.3h6.5h0.3h22.6"/>
	<rect x="234.6" y="368.7" class="st8" width="89.9" height="25.4"/>
	<path class="st8" d="M194,415.3c0,0,95.6-21.2,95.9-21.2c0.3,0,4.3,0,4.3,0v5.2l-99.8,20.3"/>
	<line class="st8" x1="191.2" y1="396" x2="184.7" y2="415.7"/>
	<polyline class="st8" points="172.2,394.6 172.4,395.2 172.7,396.7 	"/>
	<path class="st8" d="M183.9,403l-7.9,7l-14,12.4h-1.5h-0.5h-6h-4.3l-18-38.5h-16.6l-17.4,37.9l-3.9-0.1l-6.4-0.1l-2,0l-5.4-4.7
		l0-11.9L68,410l-0.2,0.1l-0.6,0.2c-0.5,0.2-1,0.2-1.5,0.2c-2.8,0-5.1-2.3-5.1-5.1c0-2.4,1.7-4.5,4-5c0.1,0,0.2-0.1,0.3-0.1l0.2,0
		l12.2-2.5c0.2-0.1,0.6-0.1,0.9-0.1c0.1,0,0.3,0,0.4,0s0.3,0,0.4,0c1.9,0.2,3.5,1.9,3.5,3.9c0,1.6-1,3-2.4,3.6"/>
	<polyline class="st8" points="84.3,368.7 84.3,375.3 81,378.1 76.3,381.9 74.3,383.6 59.6,383.6 59.6,380 	"/>
	<circle class="st8" cx="189.5" cy="417.9" r="5.3"/>
	<polyline class="st8" points="184.2,419.5 179,419.5 176.1,410 	"/>
	<path class="st9" d="M1452.3,70.1c0-0.4,0.2-0.7,0.4-1c0.2-0.2,0.6-0.4,1-0.4c0.8,0,1.4,0.6,1.4,1.4c0,0.8-0.6,1.4-1.4,1.4
		C1453,71.5,1452.3,70.9,1452.3,70.1z"/>
	<polyline class="st9" points="1560.1,17.1 1515.3,35 1514.6,33.2 1555,17 	"/>
	<path class="st9" d="M1584,6.7v1.2l0.4,9.2c0,0,0,0.4,0.5,0.4h0c0.5,0,0.5-0.4,0.5-0.4l0.4-9.2V6.7H1584z"/>
	<path class="st9" d="M1547.1,6.7v1.2l0.4,9.2c0,0,0,0.4,0.5,0.4h0c0.5,0,0.5-0.4,0.5-0.4l0.4-9.2V6.7H1547.1z"/>
	<line class="st9" x1="1584.3" y1="14.7" x2="1567.2" y2="14.7"/>
	<line class="st9" x1="1584.4" y1="17.1" x2="1567.2" y2="17.1"/>
	<line class="st9" x1="1565.8" y1="14.7" x2="1548.7" y2="14.7"/>
	<line class="st9" x1="1565.9" y1="17.1" x2="1548.7" y2="17.1"/>
	<path class="st9" d="M1565.6,12.5v13.7c0,0.4,0.4,0.8,0.8,0.8s0.8-0.4,0.8-0.8V12.5c0-0.4-0.4-0.8-0.8-0.8S1565.6,12,1565.6,12.5z"
		/>
	<path class="st9" d="M1572.9,130.2c0,0-0.6,0-0.6-0.6c0-0.6,0.7-1,1.2-1.2c0.4-0.1,1.7-0.4,2.6-0.6V126h-3.3c0,0-0.6,0-0.6-0.6
		c0-0.6,0.7-1,1.2-1.2c0.4-0.1,1.7-0.4,2.6-0.6v-6.2h7.6v6.2c0.9,0.1,2.2,0.5,2.6,0.6c0.5,0.2,1.2,0.6,1.2,1.2
		c0,0.6-0.6,0.6-0.6,0.6h-3.3v1.8c0.9,0.1,2.2,0.5,2.6,0.6c0.5,0.2,1.2,0.6,1.2,1.2c0,0.6-0.6,0.6-0.6,0.6h-3.3v1.5
		c0.9,0.1,2.2,0.5,2.6,0.6c0.5,0.2,1.2,0.6,1.2,1.2s-0.6,0.6-0.6,0.6h-4.6v5.1h-4.4v-5.2l-2.7,0h-2.4c0,0-0.6,0-0.6-0.6
		s0.7-1,1.2-1.2c0.4-0.1,1.7-0.4,2.6-0.6v-1.5H1572.9z"/>
	<path class="st9" d="M1493.2,130.2c0,0-0.6,0-0.6-0.6c0-0.6,0.7-1,1.2-1.2c0.4-0.1,1.7-0.4,2.6-0.6V126h-3.3c0,0-0.6,0-0.6-0.6
		c0-0.6,0.7-1,1.2-1.2c0.4-0.1,1.7-0.4,2.6-0.6v-6.2h7.6v6.2c0.9,0.1,2.2,0.5,2.6,0.6c0.5,0.2,1.2,0.6,1.2,1.2
		c0,0.6-0.6,0.6-0.6,0.6h-3.3v1.8c0.9,0.1,2.2,0.5,2.6,0.6c0.5,0.2,1.2,0.6,1.2,1.2c0,0.6-0.6,0.6-0.6,0.6h-3.3v1.5
		c0.9,0.1,2.2,0.5,2.6,0.6c0.5,0.2,1.2,0.6,1.2,1.2s-0.6,0.6-0.6,0.6h-4.6v5.1h-4.4v-5.2l-2.7,0h-2.4c0,0-0.6,0-0.6-0.6
		s0.7-1,1.2-1.2c0.4-0.1,1.7-0.4,2.6-0.6v-1.5H1493.2z"/>
	<polyline class="st9" points="1558.1,107.4 1496.9,107.4 1496.9,113.5 1583.7,113.5 1583.7,107.4 1558.1,107.4 	"/>
	
		<rect x="1576.7" y="113.5" transform="matrix(-1 -4.488688e-11 4.488688e-11 -1 3159.928 230.8855)" class="st9" width="6.4" height="3.9"/>
	
		<rect x="1497" y="113.5" transform="matrix(-1 -4.488688e-11 4.488688e-11 -1 3000.4373 230.8855)" class="st9" width="6.4" height="3.9"/>
	<path class="st9" d="M1454,71.1l51.4,36.2c0,0,3.6,0,3.5,0s-53.5-37.7-53.5-37.7l1.8-2.5l-1.8-2.8l-2.7,4.9"/>
	<polyline class="st9" points="1455.3,64.2 1460.7,55.5 1462.8,56.4 1457.2,67.1 	"/>
	<circle class="st9" cx="1462.8" cy="54.7" r="1.7"/>
	<circle class="st9" cx="1470.2" cy="57.4" r="2.2"/>
	<line class="st9" x1="1472" y1="56.2" x2="1463.9" y2="53.3"/>
	<line class="st9" x1="1468.6" y1="58.8" x2="1461.3" y2="55.6"/>
	<polyline class="st9" points="1469,55 1515.3,35.8 1514,32.3 1462.8,52.9 	"/>
	<path class="st9" d="M1470.2,59.6"/>
	<line class="st9" x1="1548.5" y1="101.7" x2="1470.2" y2="59.6"/>
	
		<rect x="1530.3" y="101.5" transform="matrix(-1 -4.338853e-11 4.338853e-11 -1 3084.1577 208.8753)" class="st9" width="23.5" height="5.8"/>
	<line class="st9" x1="1583.8" y1="123.6" x2="1576.2" y2="123.6"/>
	<line class="st9" x1="1583.8" y1="126" x2="1576.2" y2="126"/>
	<line class="st9" x1="1583.8" y1="127.8" x2="1576.2" y2="127.8"/>
	<line class="st9" x1="1583.8" y1="130.2" x2="1576.2" y2="130.2"/>
	<line class="st9" x1="1583.8" y1="131.7" x2="1576.2" y2="131.7"/>
	<line class="st9" x1="1583.3" y1="134.3" x2="1575.8" y2="134.3"/>
	<line class="st9" x1="1504" y1="123.6" x2="1496.4" y2="123.6"/>
	<line class="st9" x1="1504" y1="126" x2="1496.4" y2="126"/>
	<line class="st9" x1="1504" y1="127.8" x2="1496.4" y2="127.8"/>
	<line class="st9" x1="1504" y1="130.2" x2="1496.4" y2="130.2"/>
	<line class="st9" x1="1504" y1="131.7" x2="1496.4" y2="131.7"/>
	<line class="st9" x1="1504.4" y1="134.3" x2="1496.9" y2="134.3"/>
	<line class="st9" x1="1471.8" y1="55.8" x2="1560.1" y2="102.5"/>
	<path class="st9" d="M1565.5,21L1475,57.5l2.8,1.2c0,0,87.8-34.5,87.8-34.6C1565.6,23.9,1565.5,21,1565.5,21z"/>
	<circle class="st9" cx="1558.1" cy="104.7" r="2.9"/>
	<path class="st0" d="M209.6,106.2"/>
	<polyline class="st9" points="123.6,100.7 153.4,100.7 153.4,98.6 123.6,98.6 	"/>
	<circle class="st9" cx="111.3" cy="104.5" r="1.7"/>
	<path class="st9" d="M107.7,107.4v-2.8c0-2,1.6-3.7,3.7-3.7c2,0,3.7,1.6,3.7,3.7v2.8"/>
	<path class="st9" d="M87.6,92.3v1.2l-0.4,9.2c0,0,0,0.4-0.5,0.4h0c-0.5,0-0.5-0.4-0.5-0.4l-0.4-9.2v-1.2H87.6z"/>
	<path class="st9" d="M124.5,92.3v1.2l-0.4,9.2c0,0,0,0.4-0.5,0.4h0c-0.5,0-0.5-0.4-0.5-0.4l-0.4-9.2v-1.2H124.5z"/>
	<line class="st9" x1="87.3" y1="100.2" x2="104.4" y2="100.2"/>
	<line class="st9" x1="105.8" y1="98.4" x2="122.8" y2="98.4"/>
	<line class="st9" x1="87.2" y1="102.6" x2="104.4" y2="102.6"/>
	<path class="st9" d="M106,98v13.7c0,0.4-0.4,0.8-0.8,0.8c-0.4,0-0.8-0.4-0.8-0.8V98c0-0.4,0.4-0.8,0.8-0.8
		C105.6,97.2,106,97.6,106,98z"/>
	<path class="st9" d="M88.8,130.3c0,0,0.6,0,0.6-0.6c0-0.6-0.7-1-1.2-1.2c-0.4-0.1-1.7-0.4-2.6-0.6v-1.8h3.3c0,0,0.6,0,0.6-0.6
		c0-0.6-0.7-1-1.2-1.2c-0.4-0.1-1.7-0.4-2.6-0.6v-6.2h-7.6v6.2c-0.9,0.1-2.2,0.5-2.6,0.6c-0.5,0.2-1.2,0.6-1.2,1.2
		c0,0.6,0.6,0.6,0.6,0.6h3.3v1.8c-0.9,0.1-2.2,0.5-2.6,0.6c-0.5,0.2-1.2,0.6-1.2,1.2c0,0.6,0.6,0.6,0.6,0.6h3.3v1.5
		c-0.9,0.1-2.2,0.5-2.6,0.6c-0.5,0.2-1.2,0.6-1.2,1.2c0,0.6,0.6,0.6,0.6,0.6h4.6v5.1h4.4v-5.2l2.7,0h2.4c0,0,0.6,0,0.6-0.6
		c0-0.6-0.7-1-1.2-1.2c-0.4-0.1-1.7-0.4-2.6-0.6v-1.5H88.8z"/>
	<path class="st9" d="M168.6,130.3c0,0,0.6,0,0.6-0.6c0-0.6-0.7-1-1.2-1.2c-0.4-0.1-1.7-0.4-2.6-0.6v-1.8h3.3c0,0,0.6,0,0.6-0.6
		c0-0.6-0.7-1-1.2-1.2c-0.4-0.1-1.7-0.4-2.6-0.6v-6.2h-7.6v6.2c-0.9,0.1-2.2,0.5-2.6,0.6c-0.5,0.2-1.2,0.6-1.2,1.2
		c0,0.6,0.6,0.6,0.6,0.6h3.3v1.8c-0.9,0.1-2.2,0.5-2.6,0.6c-0.5,0.2-1.2,0.6-1.2,1.2c0,0.6,0.6,0.6,0.6,0.6h3.3v1.5
		c-0.9,0.1-2.2,0.5-2.6,0.6c-0.5,0.2-1.2,0.6-1.2,1.2c0,0.6,0.6,0.6,0.6,0.6h4.6v5.1h4.4v-5.2l2.7,0h2.4c0,0,0.6,0,0.6-0.6
		c0-0.6-0.7-1-1.2-1.2c-0.4-0.1-1.7-0.4-2.6-0.6v-1.5H168.6z"/>
	<polyline class="st9" points="106,107.4 164.8,107.4 164.8,113.6 78,113.6 78,107.4 104.4,107.4 	"/>
	<rect x="78.5" y="113.6" class="st9" width="6.4" height="3.9"/>
	<rect x="158.3" y="113.6" class="st9" width="6.4" height="3.9"/>
	<path class="st9" d="M230,110.9c0-0.4-0.2-0.7-0.4-1c-0.2-0.2-0.6-0.4-1-0.4c-0.8,0-1.4,0.6-1.4,1.4s0.6,1.4,1.4,1.4
		S230,111.7,230,110.9z"/>
	<path class="st9" d="M228.3,112l-63.6,2.4c0,0-0.1-2.4,0-2.4s62.2-1.5,62.2-1.5l-1.8-2.5l1.8-2.8l2.7,4.9"/>
	<polyline class="st9" points="227,105 217.2,98.8 215.3,101.9 225.1,108 	"/>
	<circle class="st9" cx="215.1" cy="99.3" r="1.7"/>
	<circle class="st9" cx="209.9" cy="104.3" r="2.2"/>
	<line class="st9" x1="208.1" y1="103.2" x2="214" y2="98"/>
	<line class="st9" x1="211.6" y1="105.8" x2="216.6" y2="100.2"/>
	<polyline class="st9" points="210.2,101.6 153.4,101.6 153.4,97.6 215.1,97.6 	"/>
	<path class="st9" d="M209.9,106.5"/>
	<line class="st9" x1="164.8" y1="107.4" x2="209.9" y2="106.5"/>
	<rect x="120.1" y="101.6" class="st9" width="23.5" height="5.8"/>
	<path class="st9" d="M154.9,101.6c1.6-0.1,3,1.1,3.1,2.8s-1.1,3-2.8,3.1"/>
	<line class="st9" x1="77.9" y1="123.7" x2="85.6" y2="123.7"/>
	<line class="st9" x1="77.9" y1="126.1" x2="85.6" y2="126.1"/>
	<line class="st9" x1="77.9" y1="127.9" x2="85.6" y2="127.9"/>
	<line class="st9" x1="77.9" y1="130.3" x2="85.6" y2="130.3"/>
	<line class="st9" x1="77.9" y1="131.8" x2="85.6" y2="131.8"/>
	<line class="st9" x1="78.2" y1="134.3" x2="85.6" y2="134.3"/>
	<line class="st9" x1="157.7" y1="123.7" x2="165.3" y2="123.7"/>
	<line class="st9" x1="157.7" y1="126.1" x2="165.3" y2="126.1"/>
	<line class="st9" x1="157.7" y1="127.9" x2="165.3" y2="127.9"/>
	<line class="st9" x1="157.7" y1="130.3" x2="165.3" y2="130.3"/>
	<line class="st9" x1="157.7" y1="131.8" x2="165.3" y2="131.8"/>
	<line class="st9" x1="157.8" y1="134.3" x2="165.3" y2="134.3"/>
	<path class="st2" d="M324.4,367.5l-255.8,1l-9.1,11.2l-60.6-0.2v38.1h81.2l1.2-0.3l4,3.5l2.3,0.5c2.8,3.6,5.7,8.7,5.7,8.7
		s13.1,16.1,34.5,14.5c21.9-1.6,32.6-22.7,32.6-22.7l1.7,0l14.1-12.5l3.3,9.6l5.1-0.2c0,0,1.2,4.1,4.9,3.9c3.7-0.2,5.3-3.8,5.3-3.8
		l99.5-20.2v-4.8l30.4-1L324.4,367.5z"/>
</g>
</svg>
