<?xml version="1.0" encoding="utf-8"?>
<!-- Generator: Adobe Illustrator 22.0.1, SVG Export Plug-In . SVG Version: 6.00 Build 0)  -->
<svg version="1.1" id="Type_75_1_" xmlns="http://www.w3.org/2000/svg" xmlns:xlink="http://www.w3.org/1999/xlink" x="0px" y="0px"
	 viewBox="0 0 1626.1 420" style="enable-background:new 0 0 1626.1 420;" xml:space="preserve">
<metadata><?xpacket begin="﻿" id="W5M0MpCehiHzreSzNTczkc9d"?>
<x:xmpmeta xmlns:x="adobe:ns:meta/" x:xmptk="Adobe XMP Core 5.6-c143 79.161210, 2017/08/11-10:28:36        ">
   <rdf:RDF xmlns:rdf="http://www.w3.org/1999/02/22-rdf-syntax-ns#">
      <rdf:Description rdf:about=""/>
   </rdf:RDF>
</x:xmpmeta>
                                                                                                    
                                                                                                    
                                                                                                    
                                                                                                    
                                                                                                    
                                                                                                    
                                                                                                    
                                                                                                    
                                                                                                    
                                                                                                    
                                                                                                    
                                                                                                    
                                                                                                    
                                                                                                    
                                                                                                    
                                                                                                    
                                                                                                    
                                                                                                    
                                                                                                    
                                                                                                    
                           
<?xpacket end="w"?></metadata>
<style type="text/css">
	.st0{fill:#333F48;}
	.st1{fill:#212322;}
	.st2{fill:none;}
	.st3{fill:#C7C9C7;}
	.st4{fill:#444445;}
	.st5{fill:#DA291C;}
	.st6{fill:#B1B3B3;}
	.st7{fill:#101820;}
	.st8{fill:#878787;}
	.st9{fill:#FA4616;}
	.st10{fill:none;stroke:#000000;stroke-width:2;stroke-miterlimit:10;}
</style>
<g id="Mål_10_">
</g>
<g>
	<g id="Farger_10_">
		<g id="Grunnfarge_6_">
			<path class="st0" d="M1585.6,302.3l0.8,68.6l-97.9,0.1c0,0-4.8-0.9-8.6,4.8h-1120c-1.8-1-17.5-9.5-18-9.8
				c-9.2-6.2-15.2-9.3-15.2-9.3s-21.6-9.4-44.4-9c0,0,0-1,0-3s-3.2-2.3-3.2-2.3s-129.6,0-131.8,0s-2.1,2.3-2.1,2.3v3.9h-0.1
				c-5.9,0.1-20.6,0.6-31.1,2.7c-12.6,2.5-28.1,13-32,15.5c0,0-13.1,8-15.6,9.2l-66,0.1v-73.6L1585.6,302.3z"/>
			<path class="st1" d="M84.8,367.9l-3.1-1.2c3.9-2.5,19.4-13,32-15.5c10.5-2.1,25.2-2.6,31.1-2.7h0.1v-3.9c0,0-0.1-2.3,2.1-2.3
				c2.2,0,131.8,0,131.8,0s3.2,0.3,3.2,2.3s0,3,0,3c22.9-0.4,44.4,9,44.4,9s6,3.1,15.2,9.3c0.4,0.3,1.4,5.8,1.4,5.8
				c1.3,3.7,2,7.8,2,11.9c0,20-16.2,36.3-36.3,36.3c-12.3,0-20.4-5-29.7-15.5c-9.4-10.5-5.1-33.4-5.1-33.4L245,400.6
				c-4.3,4.3-7.5,3.7-7.5,3.7s-39.6,0-46,0s-9.1-3.2-9.1-3.2l-4.2-4.1l-24.4-25c-0.5,5,0.4,13-0.7,20.1c-0.7,4.4-1.1,3.8-2.6,7.9
				l0,0c-6,11.9-18.2,20-32.4,20c-20.1,0-36.3-16.3-36.3-36.3c0-5,1-9.7,2.9-14l0.3-1.3L84.8,367.9z"/>
			<polyline class="st0" points="1355,375 1355,385.5 1235.2,385.5 1235.2,375.6 			"/>
			<polyline class="st0" points="605.7,375.2 605.7,385.7 485.9,385.7 485.9,375.8 			"/>
			<line class="st2" x1="1624.8" y1="301.4" x2="1624.8" y2="370.9"/>
			<path class="st1" d="M1625.6,397.5h-64.1h-6l-11.6,3l-10.6-1.2h-0.1h0.1c-5.8,12.2-18.2,20.6-32.6,20.6
				c-19.9,0-36.1-16.2-36.1-36.1c0-2.7,0.3-5.4,0.9-8h13.7c0,0-0.1,0.4,2.4-2.3s5.2-2.5,5.2-2.5h37.1l0,0h62.5v-1.3h39.4"/>
			<path class="st3" d="M1586.7,340.6V117.3h-55.2c0,0-6.1-0.1-11.2-5.3s-3.6-9.9-3.6-9.9H0.8L1,339.2L1586.7,340.6z"/>
			<line class="st2" x1="1624.8" y1="101.8" x2="1624.8" y2="301.4"/>
			<path class="st4" d="M1558.3,112.9l-4.2-8.2l-1.5-2.1v-1.1l3.2,0.1h9.1v7.9h3.2V92.4h-3.3v8.2h-12c0,0,0.1-3.9,0-4s-3.3,0-3.3,0
				v3.8h-1.5l-0.3,0.3h-16v-8.3h-3.1v17.1h3v-8.2h15.6l-1.2,1.4l-5.4,10.1h-19.8c2.1,3.3,7.8,4.2,7.8,4.2h47.9v-4.2h-18.2V112.9z"/>
			<rect x="1585.8" y="151" class="st4" width="39.2" height="218.5"/>
			<polygon class="st4" points="1585.9,144.8 1624.5,145.9 1624.5,139.8 1585.7,137.4 			"/>
		</g>
		<g id="Profilering_10_">
			<polygon class="st5" points="1586.7,149.4 0.9,149.4 0.8,189.4 1586.7,189.6 			"/>
			<g>
				<rect x="0.2" y="162.8" class="st6" width="1586.5" height="3.4"/>
			</g>
			<polygon class="st7" points="1585.9,189.1 1355.9,189.1 1355.9,189.4 604.7,189.4 604.7,189.6 0.5,189.6 0.5,302.8 614.6,302.8 
				614.6,302.5 1382,302.5 1382,302.2 1585.9,302.2 			"/>
			<polygon class="st5" points="1354.9,302.3 1354.9,302.5 460.1,302.5 460.1,302.9 0.5,302.5 0.5,340.6 487,341 487,340.6 
				1396.3,340.6 1396.3,340.5 1585.6,340.5 1585.6,302.3 			"/>
			<g>
				<rect x="0.8" y="312" class="st6" width="1583.1" height="6.7"/>
			</g>
		</g>
		<g id="Dører_og_vinduer_9_">
			<path class="st8" d="M337.2,198.4h103.2c4.5,0,8.1,3.7,8.1,8.1v57.1c0,4.5-3.7,8.1-8.1,8.1H337.2c-4.5,0-8.1-3.7-8.1-8.1v-57.1
				C329.1,202,332.8,198.4,337.2,198.4z"/>
			<path class="st8" d="M193,198.4h103.2c4.5,0,8.1,3.7,8.1,8.1v57.1c0,4.5-3.7,8.1-8.1,8.1H193c-4.5,0-8.1-3.7-8.1-8.1v-57.1
				C184.9,202,188.5,198.4,193,198.4z"/>
			<path class="st8" d="M47.9,198.4h103.2c4.5,0,8.1,3.7,8.1,8.1v57.1c0,4.5-3.7,8.1-8.1,8.1H47.9c-4.5,0-8.1-3.7-8.1-8.1v-57.1
				C39.8,202,43.4,198.4,47.9,198.4z"/>
			<path class="st9" d="M495.2,179h103.2c4.5,0,8.1,3.7,8.1,8.1V358c0,4.5-3.7,8.1-8.1,8.1H495.2c-4.5,0-8.1-3.7-8.1-8.1V187.2
				C487.1,182.7,490.7,179,495.2,179z"/>
			<path class="st9" d="M1243.5,179h103.2c4.5,0,8.1,3.7,8.1,8.1V358c0,4.5-3.7,8.1-8.1,8.1h-103.2c-4.5,0-8.1-3.7-8.1-8.1V187.2
				C1235.4,182.7,1239,179,1243.5,179z"/>
			<path class="st8" d="M570.5,195.6h12.4c4.5,0,8.1,3.7,8.1,8.1v87.6c0,4.5-3.7,8.1-8.1,8.1h-12.4c-4.5,0-8.1-3.7-8.1-8.1v-87.6
				C562.4,199.3,566,195.6,570.5,195.6z"/>
			<path class="st8" d="M511.1,195.6h12.4c4.5,0,8.1,3.7,8.1,8.1v87.6c0,4.5-3.7,8.1-8.1,8.1h-12.4c-4.5,0-8.1-3.7-8.1-8.1v-87.6
				C503,199.3,506.6,195.6,511.1,195.6z"/>
			<path class="st8" d="M1318.5,195.6h12.4c4.5,0,8.1,3.7,8.1,8.1v87.6c0,4.5-3.7,8.1-8.1,8.1h-12.4c-4.5,0-8.1-3.7-8.1-8.1v-87.6
				C1310.4,199.3,1314,195.6,1318.5,195.6z"/>
			<path class="st8" d="M1259.1,195.6h12.4c4.5,0,8.1,3.7,8.1,8.1v87.6c0,4.5-3.7,8.1-8.1,8.1h-12.4c-4.5,0-8.1-3.7-8.1-8.1v-87.6
				C1251,199.3,1254.7,195.6,1259.1,195.6z"/>
			<path class="st8" d="M942.9,225h103.2c4.5,0,8.1,3.7,8.1,8.1v57.1c0,4.5-3.7,8.1-8.1,8.1H942.9c-4.5,0-8.1-3.7-8.1-8.1v-57.1
				C934.8,228.6,938.4,225,942.9,225z"/>
			<path class="st8" d="M651.7,225h103.2c4.5,0,8.1,3.7,8.1,8.1v57.1c0,4.5-3.7,8.1-8.1,8.1H651.7c-4.5,0-8.1-3.7-8.1-8.1v-57.1
				C643.6,228.6,647.2,225,651.7,225z"/>
			<path class="st8" d="M795.4,197.9h103.2c4.5,0,8.1,3.7,8.1,8.1v84.2c0,4.5-3.7,8.1-8.1,8.1H795.4c-4.5,0-8.1-3.7-8.1-8.1V206
				C787.2,201.6,790.9,197.9,795.4,197.9z"/>
			<path class="st8" d="M1089.5,197.9h103.2c4.5,0,8.1,3.7,8.1,8.1v84.2c0,4.5-3.7,8.1-8.1,8.1h-103.2c-4.5,0-8.1-3.7-8.1-8.1V206
				C1081.3,201.6,1085,197.9,1089.5,197.9z"/>
			<path d="M1200.4,225.9h-119.5v-19.8c0-4.5,3.6-8.2,8.1-8.2h103.2c4.5,0,8.2,3.7,8.2,8.2L1200.4,225.9L1200.4,225.9z"/>
			<path d="M906.8,225.9H787.3v-19.8c0-4.5,3.6-8.2,8.1-8.2h103.2c4.5,0,8.2,3.7,8.2,8.2V225.9z"/>
		</g>
	</g>
	<g id="Omriss_10_">
		<circle class="st10" cx="1500.2" cy="383.9" r="8.8"/>
		<polyline class="st10" points="1532.7,399.4 1543.4,400.7 1555,397.7 		"/>
		<path class="st10" d="M1535.9,389.5c-2.7,17.3-17.7,30.5-35.7,30.5c-19.9,0-36.1-16.2-36.1-36.1c0-2.7,0.3-5.4,0.9-8"/>
		<path class="st10" d="M1529.4,381.8c0,0.7,0.1,1.4,0.1,2.1c0,16.2-13.1,29.3-29.3,29.3s-29.3-13.1-29.3-29.3c0-2.8,0.4-5.5,1.1-8"
			/>
		<line class="st10" x1="1624.8" y1="371.1" x2="1624.8" y2="102.8"/>
		<line class="st10" x1="1624.9" y1="369.8" x2="1585.8" y2="369.8"/>
		<line class="st10" x1="1586.7" y1="149.6" x2="0.9" y2="149.6"/>
		<path class="st10" d="M1347.1,178.6h-103.2c-4.5,0-8.1,3.7-8.1,8.1v170.8c0,4.5,3.7,8.1,8.1,8.1h103.2c4.5,0,8.1-3.7,8.1-8.1
			V186.7C1355.2,182.3,1351.5,178.6,1347.1,178.6z"/>
		<path class="st10" d="M1272.1,195.2h-12.4c-4.5,0-8.1,3.7-8.1,8.1v87.6c0,4.5,3.7,8.1,8.1,8.1h12.4c4.5,0,8.1-3.7,8.1-8.1v-87.6
			C1280.2,198.8,1276.5,195.2,1272.1,195.2z"/>
		<path class="st10" d="M1331.4,195.2H1319c-4.5,0-8.1,3.7-8.1,8.1v87.6c0,4.5,3.7,8.1,8.1,8.1h12.4c4.5,0,8.1-3.7,8.1-8.1v-87.6
			C1339.6,198.8,1335.9,195.2,1331.4,195.2z"/>
		<path class="st10" d="M651.7,225.6h103.2c4.5,0,8.1,3.7,8.1,8.1v57.1c0,4.5-3.7,8.1-8.1,8.1H651.7c-4.5,0-8.1-3.7-8.1-8.1v-57.1
			C643.6,229.3,647.2,225.6,651.7,225.6z"/>
		<path class="st10" d="M942.2,225.6h103.2c4.5,0,8.1,3.7,8.1,8.1v57.1c0,4.5-3.7,8.1-8.1,8.1H942.2c-4.5,0-8.1-3.7-8.1-8.1v-57.1
			C934.1,229.3,937.8,225.6,942.2,225.6z"/>
		<path class="st10" d="M337.2,197.9h103.2c4.5,0,8.1,3.7,8.1,8.1v57.1c0,4.5-3.7,8.1-8.1,8.1H337.2c-4.5,0-8.1-3.7-8.1-8.1V206
			C329.1,201.6,332.8,197.9,337.2,197.9z"/>
		<path class="st10" d="M193,197.9h103.2c4.5,0,8.1,3.7,8.1,8.1v57.1c0,4.5-3.7,8.1-8.1,8.1H193c-4.5,0-8.1-3.7-8.1-8.1V206
			C184.9,201.6,188.5,197.9,193,197.9z"/>
		<path class="st10" d="M47.9,197.9h103.2c4.5,0,8.1,3.7,8.1,8.1v57.1c0,4.5-3.7,8.1-8.1,8.1H47.9c-4.5,0-8.1-3.7-8.1-8.1V206
			C39.8,201.6,43.4,197.9,47.9,197.9z"/>
		<path class="st10" d="M795.4,198.6h103.2c4.5,0,8.1,3.7,8.1,8.1v84.2c0,4.5-3.7,8.1-8.1,8.1H795.4c-4.5,0-8.1-3.7-8.1-8.1v-84.2
			C787.3,202.2,790.9,198.6,795.4,198.6z"/>
		<line class="st10" x1="902.4" y1="226.5" x2="791.8" y2="226.5"/>
		<path class="st10" d="M1088.9,198.6h103.2c4.5,0,8.1,3.7,8.1,8.1v84.2c0,4.5-3.7,8.1-8.1,8.1h-103.2c-4.5,0-8.1-3.7-8.1-8.1v-84.2
			C1080.8,202.2,1084.5,198.6,1088.9,198.6z"/>
		<line class="st10" x1="1195.9" y1="226.5" x2="1085.3" y2="226.5"/>
		<line class="st10" x1="1297.1" y1="177.5" x2="1297.1" y2="359.7"/>
		<polyline class="st10" points="1242,365.7 1242,359.7 1349,359.7 1349,365.7 		"/>
		<polyline class="st10" points="1235.2,375.9 1235.2,386.4 1355,386.4 1355,376.5 		"/>
		<circle class="st10" cx="1287.3" cy="285.7" r="2.4"/>
		<path class="st10" d="M598.4,178.6H495.1c-4.5,0-8.1,3.7-8.1,8.1v170.8c0,4.5,3.7,8.1,8.1,8.1h103.2c4.5,0,8.1-3.7,8.1-8.1V186.7
			C606.5,182.3,602.8,178.6,598.4,178.6z"/>
		<path class="st10" d="M523.4,195.2H511c-4.5,0-8.1,3.7-8.1,8.1v87.6c0,4.5,3.7,8.1,8.1,8.1h12.4c4.5,0,8.1-3.7,8.1-8.1v-87.6
			C531.5,198.8,527.8,195.2,523.4,195.2z"/>
		<path class="st10" d="M582.7,195.2h-12.4c-4.5,0-8.1,3.7-8.1,8.1v87.6c0,4.5,3.7,8.1,8.1,8.1h12.4c4.5,0,8.1-3.7,8.1-8.1v-87.6
			C590.9,198.8,587.2,195.2,582.7,195.2z"/>
		<line class="st10" x1="548.4" y1="177.5" x2="548.4" y2="359.7"/>
		<polyline class="st10" points="493.3,365.7 493.3,359.7 600.3,359.7 600.3,365.7 		"/>
		<polyline class="st10" points="486.5,375.9 486.5,386.4 606.3,386.4 606.3,375.9 		"/>
		<circle class="st10" cx="538.6" cy="285.7" r="2.4"/>
		<circle class="st10" cx="118" cy="383.6" r="8.8"/>
		<circle class="st10" cx="308.7" cy="383.6" r="8.8"/>
		<path class="st10" d="M144.9,348.5v-3.9c0,0-0.1-2.3,2.1-2.3c2.2,0,131.8,0,131.8,0s3.2,0.3,3.2,2.3s0,3,0,3l0,0
			c-6.7,0-11.5,4.3-11.5,4.3l-18.8,19l-6.6,6.4c-6,6.2-13.1,5.8-13.1,5.8h-8.5h-19.4c-19,0.3-21.8-4.3-21.8-4.3S162,357,156.6,352.4
			s-9.2-3.9-9.2-3.9s-20.3,0-33.7,2.7s-46.6,24.9-46.6,24.9h-67v-74.3l0.7-199.6h1515.7c0,0-0.4,6.7,3.7,10.8s9.4,4.4,9.4,4.4h56.1
			v253.7h-62.5"/>
		<path class="st10" d="M341.7,367.3c-2.3-0.7-8-3-8.8-3.3c-0.9-0.4-2.1-0.6-3.3-0.8c-3.1-0.5-6.6-0.4-6.6-0.4s-27.7,0-35,0
			c-0.6,0-1,0-1.3,0c-3.9,0-7.2,3.1-7.2,3.1s-1.9,1.9-4.8,4.8l0,0c-8.7,8.7-26.5,26.5-29.8,29.7c-4.3,4.3-7.5,3.7-7.5,3.7
			s-39.6,0-46,0c-6.4,0-9.1-3.2-9.1-3.2l-4.2-4.1c-1.3-1.3-18.3-18.3-26.4-26.4c-1.9-1.9-3.3-3.3-3.9-3.9c-0.3-0.3-0.5-0.5-0.8-0.7
			c-3.4-2.8-6.9-2.7-6.9-2.7s-0.5,0-1.3,0c-5.8,0-28.5,0-33.2,0c-4.4,0-7.9,0.4-9,0.6c-0.2,0-0.4,0.1-0.4,0.1l-10.6,3.3l0,0
			l-9.8,3.1"/>
		<path class="st10" d="M85.7,367.1L85.7,367.1c-2.6,5-4,10.6-4,16.5c0,20,16.2,36.3,36.3,36.3c14.2,0,26.4-8.1,32.4-20
			c2.5-4.9,3.9-10.5,3.9-16.3c0-4.6-0.9-9.1-2.5-13.2"/>
		<polyline class="st10" points="129.7,349.2 129.7,349.2 129.8,349.2 		"/>
		<path class="st10" d="M96.6,363.7c-4.9,5.2-7.9,12.3-7.9,19.9c0,16.2,13.1,29.2,29.3,29.2c12.1,0,22.6-7.4,27-18
			c1.4-3.5,2.3-7.3,2.3-11.3c0-5-1.2-9.7-3.4-13.8c-1.3-2.5-3-4.8-5-6.8"/>
		<path class="st10" d="M274.8,370.7L274.8,370.7c-1.5,4-2.4,8.4-2.4,12.9c0,20,16.2,36.3,36.3,36.3c20.1,0,36.3-16.3,36.3-36.3
			c0-5.7-0.9-12.8-5-19.6"/>
		<path class="st10" d="M329.7,363.2c5.2,5.3,8.3,12.5,8.3,20.4c0,16.2-13.1,29.2-29.3,29.2c-16.1,0-29.2-13.1-29.2-29.2
			c0-8.1,3.3-15.5,8.7-20.8"/>
		<path class="st10" d="M327.8,357.2c0,0-18-9.9-45.7-9.6"/>
		<path class="st10" d="M327.8,357.2l32.1,18.7h61.4h10.4h53h880.4h79.7h33.9c0.1,0,0.4-0.2,2.4-2.3c2.5-2.7,5.2-2.4,5.2-2.4h37.1
			c0.5,0.9,0.6,3.3,0.6,3.3v9.3h4.6c0,0-0.2-2.3,2.3-2.3s2.5,2.3,2.5,2.3v5.7c0,0,0.2,0,1.9,0c1.7,0,2.3,0.6,2.3,0.6l6,5
			c2.7,2.7,5.4,2.7,5.4,2.7h12.2h61.7c-2.3,0-2.3,0,3.5,0"/>
		<path class="st10" d="M1585.9,116.9c0-10.9,8.8-19.7,19.7-19.7s19.3,8.8,19.3,19.7"/>
		<line class="st10" x1="1593.2" y1="154.4" x2="1593.2" y2="370"/>
		<line class="st10" x1="1599.1" y1="154.4" x2="1599.1" y2="370"/>
		<line class="st10" x1="1605.1" y1="154.4" x2="1605.1" y2="370"/>
		<line class="st10" x1="1611.1" y1="154.4" x2="1611.1" y2="370"/>
		<line class="st10" x1="1617" y1="154.4" x2="1617" y2="370"/>
		<polyline class="st10" points="1585.8,137.3 1613.1,138.4 1612.9,146 1585.8,145 		"/>
		<line class="st10" x1="1613.2" y1="138.9" x2="1624.8" y2="139.3"/>
		<path class="st10" d="M1612.9,145.4l11.9,0.4"/>
		<rect x="892.3" y="104.8" class="st10" width="91.2" height="39.7"/>
		<g>
			<g>
				<line class="st10" x1="976.4" y1="104.9" x2="976.4" y2="144.5"/>
				<line class="st10" x1="969.4" y1="104.9" x2="969.4" y2="144.5"/>
				<line class="st10" x1="962.5" y1="104.9" x2="962.5" y2="144.5"/>
			</g>
			<g>
				<line class="st10" x1="955.4" y1="104.9" x2="955.4" y2="144.5"/>
				<line class="st10" x1="948.4" y1="104.9" x2="948.4" y2="144.5"/>
				<line class="st10" x1="941.5" y1="104.9" x2="941.5" y2="144.5"/>
			</g>
			<g>
				<line class="st10" x1="934.4" y1="104.9" x2="934.4" y2="144.5"/>
				<line class="st10" x1="927.5" y1="104.9" x2="927.5" y2="144.5"/>
				<line class="st10" x1="920.5" y1="104.9" x2="920.5" y2="144.5"/>
			</g>
			<g>
				<line class="st10" x1="913.4" y1="104.9" x2="913.4" y2="144.5"/>
				<line class="st10" x1="906.5" y1="104.9" x2="906.5" y2="144.5"/>
				<line class="st10" x1="899.5" y1="104.9" x2="899.5" y2="144.5"/>
			</g>
		</g>
		<rect x="621.6" y="104.5" class="st10" width="52.9" height="39.7"/>
		<rect x="446.8" y="104.4" class="st10" width="91.2" height="39.7"/>
		<g>
			<g>
				<line class="st10" x1="530.9" y1="104.4" x2="530.9" y2="144.1"/>
				<line class="st10" x1="524" y1="104.4" x2="524" y2="144.1"/>
				<line class="st10" x1="517" y1="104.4" x2="517" y2="144.1"/>
			</g>
			<g>
				<line class="st10" x1="509.9" y1="104.4" x2="509.9" y2="144.1"/>
				<line class="st10" x1="503" y1="104.4" x2="503" y2="144.1"/>
				<line class="st10" x1="496" y1="104.4" x2="496" y2="144.1"/>
			</g>
			<g>
				<line class="st10" x1="488.9" y1="104.4" x2="488.9" y2="144.1"/>
				<line class="st10" x1="482" y1="104.4" x2="482" y2="144.1"/>
				<line class="st10" x1="475" y1="104.4" x2="475" y2="144.1"/>
			</g>
			<g>
				<line class="st10" x1="467.9" y1="104.4" x2="467.9" y2="144.1"/>
				<line class="st10" x1="461" y1="104.4" x2="461" y2="144.1"/>
				<line class="st10" x1="454.1" y1="104.4" x2="454.1" y2="144.1"/>
			</g>
		</g>
		<rect x="347.3" y="104.4" class="st10" width="91.2" height="39.7"/>
		<g>
			<g>
				<line class="st10" x1="431.4" y1="104.4" x2="431.4" y2="144.1"/>
				<line class="st10" x1="424.4" y1="104.4" x2="424.4" y2="144.1"/>
				<line class="st10" x1="417.5" y1="104.4" x2="417.5" y2="144.1"/>
			</g>
			<g>
				<line class="st10" x1="410.4" y1="104.4" x2="410.4" y2="144.1"/>
				<line class="st10" x1="403.5" y1="104.4" x2="403.5" y2="144.1"/>
				<line class="st10" x1="396.5" y1="104.4" x2="396.5" y2="144.1"/>
			</g>
			<g>
				<line class="st10" x1="389.4" y1="104.4" x2="389.4" y2="144.1"/>
				<line class="st10" x1="382.5" y1="104.4" x2="382.5" y2="144.1"/>
				<line class="st10" x1="375.5" y1="104.4" x2="375.5" y2="144.1"/>
			</g>
			<g>
				<line class="st10" x1="368.4" y1="104.4" x2="368.4" y2="144.1"/>
				<line class="st10" x1="361.5" y1="104.4" x2="361.5" y2="144.1"/>
				<line class="st10" x1="354.5" y1="104.4" x2="354.5" y2="144.1"/>
			</g>
		</g>
		<rect x="248" y="104.4" class="st10" width="91.2" height="39.7"/>
		<g>
			<g>
				<line class="st10" x1="332.1" y1="104.4" x2="332.1" y2="144.1"/>
				<line class="st10" x1="325.1" y1="104.4" x2="325.1" y2="144.1"/>
				<line class="st10" x1="318.2" y1="104.4" x2="318.2" y2="144.1"/>
			</g>
			<g>
				<line class="st10" x1="311.1" y1="104.4" x2="311.1" y2="144.1"/>
				<line class="st10" x1="304.1" y1="104.4" x2="304.1" y2="144.1"/>
				<line class="st10" x1="297.2" y1="104.4" x2="297.2" y2="144.1"/>
			</g>
			<g>
				<line class="st10" x1="290.1" y1="104.4" x2="290.1" y2="144.1"/>
				<line class="st10" x1="283.2" y1="104.4" x2="283.2" y2="144.1"/>
				<line class="st10" x1="276.2" y1="104.4" x2="276.2" y2="144.1"/>
			</g>
			<g>
				<line class="st10" x1="269.1" y1="104.4" x2="269.1" y2="144.1"/>
				<line class="st10" x1="262.2" y1="104.4" x2="262.2" y2="144.1"/>
				<line class="st10" x1="255.2" y1="104.4" x2="255.2" y2="144.1"/>
			</g>
		</g>
		<g>
			<g>
				<line class="st10" x1="669.1" y1="104.6" x2="669.1" y2="144.2"/>
				<line class="st10" x1="662.2" y1="104.6" x2="662.2" y2="144.2"/>
				<line class="st10" x1="655.2" y1="104.6" x2="655.2" y2="144.2"/>
			</g>
			<g>
				<line class="st10" x1="648.1" y1="104.6" x2="648.1" y2="144.2"/>
				<line class="st10" x1="641.2" y1="104.6" x2="641.2" y2="144.2"/>
				<line class="st10" x1="634.3" y1="104.6" x2="634.3" y2="144.2"/>
			</g>
			<g>
				<line class="st10" x1="627.1" y1="104.6" x2="627.1" y2="144.2"/>
			</g>
		</g>
		<line class="st10" x1="1531.6" y1="101" x2="1564.9" y2="101"/>
		<rect x="1528.5" y="92.4" class="st10" width="3.1" height="17.1"/>
		<rect x="1564.9" y="92.4" class="st10" width="3.1" height="17.1"/>
		<rect x="1549.4" y="96.6" class="st10" width="3.2" height="18.1"/>
		<polyline class="st10" points="1520.2,112.9 1576.3,112.9 1576.3,117.3 		"/>
		<line class="st10" x1="1558.8" y1="112.9" x2="1553.3" y2="103.2"/>
		<line class="st10" x1="1540.2" y1="112.9" x2="1545.6" y2="103.6"/>
		<circle class="st10" cx="1549.5" cy="104.4" r="4"/>
	</g>
</g>
</svg>
