<?xml version="1.0" encoding="utf-8"?>
<!-- Generator: Adobe Illustrator 22.0.1, SVG Export Plug-In . SVG Version: 6.00 Build 0)  -->
<svg version="1.1" id="Type_74" xmlns="http://www.w3.org/2000/svg" xmlns:xlink="http://www.w3.org/1999/xlink" x="0px" y="0px"
	 viewBox="0 0 1627 424" style="enable-background:new 0 0 1627 424;" xml:space="preserve">
<metadata><?xpacket begin="﻿" id="W5M0MpCehiHzreSzNTczkc9d"?>
<x:xmpmeta xmlns:x="adobe:ns:meta/" x:xmptk="Adobe XMP Core 5.6-c143 79.161210, 2017/08/11-10:28:36        ">
   <rdf:RDF xmlns:rdf="http://www.w3.org/1999/02/22-rdf-syntax-ns#">
      <rdf:Description rdf:about=""/>
   </rdf:RDF>
</x:xmpmeta>
                                                                                                    
                                                                                                    
                                                                                                    
                                                                                                    
                                                                                                    
                                                                                                    
                                                                                                    
                                                                                                    
                                                                                                    
                                                                                                    
                                                                                                    
                                                                                                    
                                                                                                    
                                                                                                    
                                                                                                    
                                                                                                    
                                                                                                    
                                                                                                    
                                                                                                    
                                                                                                    
                           
<?xpacket end="w"?></metadata>
<style type="text/css">
	.st0{fill:none;stroke:#B1B3B3;stroke-miterlimit:10;}
	.st1{fill:#C7C9C7;}
	.st2{fill:none;}
	.st3{fill:#333F48;}
	.st4{fill:#212322;}
	.st5{fill:#444445;}
	.st6{fill:#DA291C;}
	.st7{fill:#101820;}
	.st8{fill:#B1B3B3;}
	.st9{fill:#FA4616;}
	.st10{fill:#878787;}
	.st11{opacity:0.7;enable-background:new    ;}
	.st12{fill:none;stroke:#000000;stroke-width:2;stroke-miterlimit:10;}
</style>
<g id="Mål_9_">
</g>
<g id="Farger_9_">
	<g id="Grunnfarge_5_">
		<line class="st0" x1="1625.7" y1="102.5" x2="1625.5" y2="298.3"/>
		<path class="st1" d="M1587.1,302.2V116.9h-55c0,0-6-0.1-11.2-5.3c-5.1-5.2-9.9-9.9-9.9-9.9L0.6,102.5L0.4,301.3L1587.1,302.2z"/>
		<line class="st2" x1="1625.5" y1="300.3" x2="1625.5" y2="369.5"/>
		<path class="st3" d="M1587,301.3v68.2h-98.4c0,0-4.7-0.9-8.6,4.7h-107.7h-1012c0,0-0.7,0-1.6-0.9s-19.8-11.1-32.6-18.6
			c-0.9-0.5-19.3-6.2-24.3-7.2c-2.7-0.5-19.9-1.8-19.9-1.8c-0.1-3.1-0.4-5.4-1.5-5.3c-15.3,0.2-114.8,0.4-131.6-0.1
			c-5.6-0.2,0,4.7-5.7,6.8c-1.8,0.7-5-0.3-9.2,0.1c-21.4,2-28.9,3.7-55.4,20.7c-2.9,1.9-9.4,6.5-12.7,6.5c-28.1,0.2-65.1,0-65.1,0
			v-73.2L1587,301.3z"/>
		<path class="st4" d="M1626.7,396h-64.6h-6l-11.6,3l-10.6-1.2h-0.1h0.1c-5.8,12.1-18.1,20.5-32.4,20.5c-19.9,0-36-16.1-36-36
			c0-2.7,0.3-5.4,0.9-7.9h13.6c0,0-0.1,0.4,2.4-2.3c2.5-2.6,5.2-2.4,5.2-2.4h36.9l0,0h62.2v-1.3h40v1.3"/>
		<polygon class="st3" points="1237.8,373.6 1237.8,384.6 1357.1,384.6 1357.1,374.1 		"/>
		<polygon class="st3" points="604.7,374.5 604.7,385 485.4,385 485.4,374.5 		"/>
		<path class="st4" d="M85.7,366.5l-3-1.2c3.9-2.5,19.4-12.9,31.9-15.5c10.5-2.1,25-2.6,30.9-2.7h0.1v-3.9c0,0-0.1-2.3,2.1-2.3
			c2.2,0,131.2,0,131.2,0s3.2,0.3,3.2,2.3s0,3,0,3c22.8-0.4,44.2,8.9,44.2,8.9s6,3.1,15.1,9.3c0.4,0.3,1.4,5.8,1.4,5.8
			c1.3,3.7,2,7.7,2,11.9c0,20-16.2,36.2-36.2,36.2c-12.3,0-20.3-5-29.6-15.5c-9.3-10.5-5-33.3-5-33.3l-28.8,29.4
			c-4.3,4.3-7.5,3.7-7.5,3.7s-39.4,0-45.8,0s-9-3.2-9-3.2l-4.2-4.1l-24.4-24.8c-0.5,5,0.4,12.9-0.7,20c-0.7,4.4-1.1,3.8-2.6,7.9l0,0
			c-5.9,11.8-18.1,19.9-32.3,19.9c-20,0-36.2-16.2-36.2-36.2c0-5,1-9.7,2.9-14l0.3-1.3L85.7,366.5z"/>
		<path class="st5" d="M1559.7,112.8l-4.2-8.2l-1.5-2.1v-1.1l3.2,0.1h9.1v7.9h3.2V92.2h-3.3v8.2h-12c0,0,0.1-3.9,0-4s-3.3,0-3.3,0
			v3.8h-1.5l-0.3,0.3h-16v-8.3h-3.1v17.1h3v-8.2h15.6l-1.2,1.4l-5.4,10.1h-19.8c2.1,3.3,7.8,4.2,7.8,4.2h47.9v-4.2h-18.2V112.8z"/>
		<rect x="1586.8" y="150.5" class="st5" width="39.2" height="218.5"/>
		<polygon class="st5" points="1586.9,144.4 1625.5,145.4 1625.5,139.4 1586.7,136.9 		"/>
	</g>
	<g id="Profilering_9_">
		<line class="st2" x1="1625.5" y1="148.9" x2="1625.6" y2="189.6"/>
		<polygon class="st6" points="1586.7,148.9 0.6,148.9 0.6,188.6 1586.7,188.9 		"/>
		<polygon class="st6" points="1367.2,301.3 1358,301.3 485.7,301.3 462.3,301.3 0.6,301.3 0.6,339.2 462.3,339.2 485.7,339.2 
			1358,339.2 1367.2,339.2 1587,339.2 1587,301.3 		"/>
		<rect x="0.6" y="188.6" class="st7" width="1586.4" height="112.6"/>
		<g>
			<rect x="0.6" y="310.8" class="st8" width="1586.1" height="6.7"/>
		</g>
		<g>
			<rect x="1.4" y="162.2" class="st8" width="1585.3" height="3.4"/>
		</g>
	</g>
	<g id="Dører_og_vinduer_8_">
		<path class="st9" d="M493.6,177.8h102.8c4.5,0,8.1,3.6,8.1,8.1V356c0,4.5-3.6,8.1-8.1,8.1H493.6c-4.5,0-8.1-3.6-8.1-8.1V185.9
			C485.5,181.4,489.1,177.8,493.6,177.8z"/>
		<path class="st10" d="M568.3,194.3h12.3c4.5,0,8.1,3.6,8.1,8.1v87.2c0,4.5-3.6,8.1-8.1,8.1h-12.3c-4.5,0-8.1-3.6-8.1-8.1v-87.2
			C560.2,197.9,563.8,194.3,568.3,194.3z"/>
		<path class="st10" d="M509.2,194.3h12.3c4.5,0,8.1,3.6,8.1,8.1v87.2c0,4.5-3.6,8.1-8.1,8.1h-12.3c-4.5,0-8.1-3.6-8.1-8.1v-87.2
			C501,197.9,504.7,194.3,509.2,194.3z"/>
		<path class="st9" d="M1247,177.8h102.8c4.5,0,8.1,3.6,8.1,8.1V356c0,4.5-3.6,8.1-8.1,8.1H1247c-4.5,0-8.1-3.6-8.1-8.1V185.9
			C1238.9,181.4,1242.5,177.8,1247,177.8z"/>
		<path class="st10" d="M1321.7,194.3h12.3c4.5,0,8.1,3.6,8.1,8.1v87.2c0,4.5-3.6,8.1-8.1,8.1h-12.3c-4.5,0-8.1-3.6-8.1-8.1v-87.2
			C1313.6,197.9,1317.2,194.3,1321.7,194.3z"/>
		<path class="st10" d="M1262.6,194.3h12.3c4.5,0,8.1,3.6,8.1,8.1v87.2c0,4.5-3.6,8.1-8.1,8.1h-12.3c-4.5,0-8.1-3.6-8.1-8.1v-87.2
			C1254.5,197.9,1258.1,194.3,1262.6,194.3z"/>
		<path class="st10" d="M337.5,197h102.8c4.5,0,8.1,3.6,8.1,8.1V262c0,4.5-3.6,8.1-8.1,8.1H337.5c-4.5,0-8.1-3.6-8.1-8.1v-56.9
			C329.4,200.8,333,197,337.5,197z"/>
		<path class="st10" d="M192.9,197h102.8c4.5,0,8.1,3.6,8.1,8.1V262c0,4.5-3.6,8.1-8.1,8.1H192.9c-4.5,0-8.1-3.6-8.1-8.1v-56.9
			C184.8,200.8,188.4,197,192.9,197z"/>
		<path class="st10" d="M48.9,197h102.8c4.5,0,8.1,3.6,8.1,8.1V262c0,4.5-3.6,8.1-8.1,8.1H48.9c-4.5,0-8.1-3.6-8.1-8.1v-56.9
			C40.8,200.8,44.4,197,48.9,197z"/>
		<path class="st10" d="M943.1,224.8h102.8c4.5,0,8.1,3.6,8.1,8.1v56.9c0,4.5-3.6,8.1-8.1,8.1H943.1c-4.5,0-8.1-3.6-8.1-8.1v-56.9
			C934.9,228.5,938.6,224.8,943.1,224.8z"/>
		<path class="st10" d="M649.4,224.8h102.8c4.5,0,8.1,3.6,8.1,8.1v56.9c0,4.5-3.6,8.1-8.1,8.1H649.4c-4.5,0-8.1-3.6-8.1-8.1v-56.9
			C641.3,228.5,645,224.8,649.4,224.8z"/>
		<path class="st10" d="M797.2,197.8H900c4.5,0,8.1,3.6,8.1,8.1v83.8c0,4.5-3.6,8.1-8.1,8.1H797.2c-4.5,0-8.1-3.6-8.1-8.1v-83.8
			C789.1,201.3,792.7,197.8,797.2,197.8z"/>
		<path class="st10" d="M1091.4,197.8h102.8c4.5,0,8.1,3.6,8.1,8.1v83.8c0,4.5-3.6,8.1-8.1,8.1h-102.8c-4.5,0-8.1-3.6-8.1-8.1v-83.8
			C1083.3,201.3,1087,197.8,1091.4,197.8z"/>
		<path class="st11" d="M1202.3,225.6h-119v-19.7c0-4.5,3.6-8.1,8.1-8.1h102.8c4.5,0,8.1,3.7,8.1,8.1V225.6z"/>
		<path class="st11" d="M908.2,225.6h-119v-19.7c0-4.5,3.6-8.1,8.1-8.1H900c4.5,0,8.1,3.7,8.1,8.1v19.7H908.2z"/>
	</g>
</g>
<g id="Omriss_9_">
	<line class="st12" x1="1533" y1="100.8" x2="1566.3" y2="100.8"/>
	<rect x="1529.9" y="92.2" class="st12" width="3.1" height="17.1"/>
	<rect x="1566.3" y="92.2" class="st12" width="3.1" height="17.1"/>
	<rect x="1550.8" y="96.4" class="st12" width="3.2" height="18.1"/>
	<circle class="st12" cx="1501.7" cy="382.5" r="8.8"/>
	<polyline class="st12" points="1534,397.8 1544.7,399.1 1556.2,396.1 	"/>
	<path class="st12" d="M1537.2,388c-2.7,17.2-17.6,30.4-35.5,30.4c-19.9,0-36-16.1-36-36c0-2.7,0.3-5.4,0.9-7.9"/>
	<path class="st12" d="M1530.7,380.3c0,0.7,0.1,1.4,0.1,2c0,16.1-13,29.1-29.1,29.1s-29.1-13-29.1-29.1c0-2.8,0.4-5.4,1.1-7.9"/>
	<line class="st12" x1="1625.7" y1="369.8" x2="1625.7" y2="102.5"/>
	<line class="st12" x1="1625.8" y1="368.5" x2="1586.8" y2="368.5"/>
	<line class="st12" x1="1586.9" y1="149.1" x2="0.5" y2="149.1"/>
	<path class="st12" d="M1349.2,178h-102.8c-4.5,0-8.1,3.6-8.1,8.1v170.1c0,4.5,3.6,8.1,8.1,8.1h102.8c4.5,0,8.1-3.6,8.1-8.1V186.1
		C1357.3,181.6,1353.6,178,1349.2,178z"/>
	<path class="st12" d="M1274.5,194.5h-12.3c-4.5,0-8.1,3.6-8.1,8.1v87.2c0,4.5,3.6,8.1,8.1,8.1h12.3c4.5,0,8.1-3.6,8.1-8.1v-87.2
		C1282.6,198.1,1278.9,194.5,1274.5,194.5z"/>
	<path class="st12" d="M1333.6,194.5h-12.3c-4.5,0-8.1,3.6-8.1,8.1v87.2c0,4.5,3.6,8.1,8.1,8.1h12.3c4.5,0,8.1-3.6,8.1-8.1v-87.2
		C1341.7,198.1,1338.1,194.5,1333.6,194.5z"/>
	<path class="st12" d="M649.9,224.8h102.8c4.5,0,8.1,3.6,8.1,8.1v56.9c0,4.5-3.6,8.1-8.1,8.1H649.9c-4.5,0-8.1-3.6-8.1-8.1v-56.9
		C641.8,228.5,645.5,224.8,649.9,224.8z"/>
	<path class="st12" d="M942.9,224.8h102.8c4.5,0,8.1,3.6,8.1,8.1v56.9c0,4.5-3.6,8.1-8.1,8.1H942.9c-4.5,0-8.1-3.6-8.1-8.1v-56.9
		C934.8,228.5,938.5,224.8,942.9,224.8z"/>
	<path class="st12" d="M336.8,197.2h102.8c4.5,0,8.1,3.6,8.1,8.1v56.9c0,4.5-3.6,8.1-8.1,8.1H336.8c-4.5,0-8.1-3.6-8.1-8.1v-56.9
		C328.7,200.9,332.4,197.2,336.8,197.2z"/>
	<path class="st12" d="M193.2,197.2H296c4.5,0,8.1,3.6,8.1,8.1v56.9c0,4.5-3.6,8.1-8.1,8.1H193.2c-4.5,0-8.1-3.6-8.1-8.1v-56.9
		C185.1,200.9,188.8,197.2,193.2,197.2z"/>
	<path class="st12" d="M48.7,197.2h102.8c4.5,0,8.1,3.6,8.1,8.1v56.9c0,4.5-3.6,8.1-8.1,8.1H48.7c-4.5,0-8.1-3.6-8.1-8.1v-56.9
		C40.6,200.9,44.3,197.2,48.7,197.2z"/>
	<path class="st12" d="M796.7,197.9h102.8c4.5,0,8.1,3.6,8.1,8.1v83.8c0,4.5-3.6,8.1-8.1,8.1H796.7c-4.5,0-8.1-3.6-8.1-8.1V206
		C788.6,201.5,792.3,197.9,796.7,197.9z"/>
	<line class="st12" x1="903.3" y1="225.8" x2="793.2" y2="225.8"/>
	<path class="st12" d="M1091.5,197.9h102.8c4.5,0,8.1,3.6,8.1,8.1v83.8c0,4.5-3.6,8.1-8.1,8.1h-102.8c-4.5,0-8.1-3.6-8.1-8.1V206
		C1083.4,201.5,1087,197.9,1091.5,197.9z"/>
	<line class="st12" x1="1198" y1="225.8" x2="1087.9" y2="225.8"/>
	<line class="st12" x1="1299.4" y1="176.9" x2="1299.4" y2="358.3"/>
	<polyline class="st12" points="1244.5,364.3 1244.5,358.3 1351.1,358.3 1351.1,364.3 	"/>
	<polyline class="st12" points="1237.8,374.5 1237.8,385 1357.1,385 1357.1,375 	"/>
	<circle class="st12" cx="1289.6" cy="284.6" r="2.4"/>
	<path class="st12" d="M596.8,178H494c-4.5,0-8.1,3.6-8.1,8.1v170.1c0,4.5,3.6,8.1,8.1,8.1h102.8c4.5,0,8.1-3.6,8.1-8.1V186.1
		C604.9,181.6,601.3,178,596.8,178z"/>
	<path class="st12" d="M522.1,194.5h-12.3c-4.5,0-8.1,3.6-8.1,8.1v87.2c0,4.5,3.6,8.1,8.1,8.1h12.3c4.5,0,8.1-3.6,8.1-8.1v-87.2
		C530.2,198.1,526.6,194.5,522.1,194.5z"/>
	<path class="st12" d="M581.2,194.5h-12.3c-4.5,0-8.1,3.6-8.1,8.1v87.2c0,4.5,3.6,8.1,8.1,8.1h12.3c4.5,0,8.1-3.6,8.1-8.1v-87.2
		C589.3,198.1,585.7,194.5,581.2,194.5z"/>
	<line class="st12" x1="547.1" y1="176.9" x2="547.1" y2="358.3"/>
	<polyline class="st12" points="492.2,364.3 492.2,358.3 598.7,358.3 598.7,364.3 	"/>
	<polyline class="st12" points="485.4,374.5 485.4,385 604.7,385 604.7,375 	"/>
	<circle class="st12" cx="537.3" cy="284.6" r="2.4"/>
	<polyline class="st12" points="1521.6,112.8 1577.7,112.8 1577.7,117.1 	"/>
	<line class="st12" x1="1560.2" y1="112.8" x2="1554.7" y2="103"/>
	<line class="st12" x1="1541.6" y1="112.8" x2="1547" y2="103.4"/>
	<circle class="st12" cx="1550.9" cy="104.2" r="4"/>
	<circle class="st12" cx="118.5" cy="382.1" r="8.8"/>
	<circle class="st12" cx="308.4" cy="382.1" r="8.8"/>
	<path class="st12" d="M145.3,347.1v-3.9c0,0-0.1-2.3,2.1-2.3s131.2,0,131.2,0s3.2,0.3,3.2,2.3s0,3,0,3l0,0
		c-6.7,0-11.5,4.2-11.5,4.2l-18.7,19l-6.6,6.4c-6,6.1-13,5.7-13,5.7h-8.4h-19.3c-18.9,0.3-21.7-4.3-21.7-4.3s-20.3-21.6-25.6-26.2
		c-5.3-4.6-9.2-3.9-9.2-3.9s-20.2,0-33.6,2.7c-13.4,2.7-46.4,24.7-46.4,24.7H0.4v-74V101.9h1510.4c0,0,6.7,6.7,10.7,10.8
		c4.1,4.1,9.4,4.4,9.4,4.4h55.9v252.6h-62.2"/>
	<path class="st12" d="M341.3,365.8c-2.3-0.7-8-3-8.7-3.3c-0.9-0.4-2-0.6-3.3-0.8c-3.1-0.5-6.5-0.4-6.5-0.4s-27.6,0-34.8,0
		c-0.6,0-1,0-1.3,0c-3.9,0-7.2,3.1-7.2,3.1s-1.1,1.1-3.9,3.9c0,0,0,0-0.5,0.5c-8.7,8.7-26.8,26.7-30,29.9c-4.3,4.3-7.5,3.7-7.5,3.7
		s-39.4,0-45.8,0c-6.4,0-9-3.2-9-3.2l-4.2-4.1c-1.3-1.3-18.2-18.2-26.3-26.3c-1.9-1.9-3.3-3.3-3.9-3.9c-0.3-0.3-0.5-0.5-0.8-0.7
		c-3.4-2.8-6.9-2.7-6.9-2.7s-0.5,0-1.3,0c-5.8,0-28.4,0-33,0c-4.4,0-7.9,0.4-9,0.6c-0.2,0-0.4,0.1-0.4,0.1l-10.5,3.3l0,0l-9.8,3.1"
		/>
	<path class="st12" d="M86.3,365.6L86.3,365.6c-2.5,5-4,10.5-4,16.5c0,20,16.2,36.2,36.2,36.2c14.1,0,26.3-8.1,32.3-19.9
		c2.4-4.9,3.9-10.4,3.9-16.3c0-4.6-0.9-9.1-2.5-13.1"/>
	<polyline class="st12" points="130.2,347.8 130.2,347.8 130.2,347.8 	"/>
	<path class="st12" d="M97.3,362.2c-4.9,5.2-7.8,12.2-7.8,19.9c0,16.1,13,29.1,29.1,29.1c12.1,0,22.5-7.4,26.9-17.9
		c1.4-3.5,2.2-7.2,2.2-11.2c0-5-1.2-9.6-3.4-13.7c-1.3-2.5-3-4.7-5-6.7"/>
	<path class="st12" d="M274.6,369.3c-1.5,4-2.3,8.3-2.3,12.8c0,20,16.2,36.2,36.1,36.2c20,0,36.2-16.2,36.2-36.2
		c0-5.7-0.9-12.8-5-19.5"/>
	<path class="st12" d="M329.3,361.8c5.2,5.2,8.3,12.4,8.3,20.3c0,16.1-13,29.1-29.1,29.1s-29.1-13-29.1-29.1
		c0-8.1,3.3-15.4,8.6-20.7"/>
	<path class="st12" d="M327.4,355.8c0,0-17.9-9.9-45.5-9.6"/>
	<path class="st12" d="M327.4,355.8l32,18.6h61.2h10.3h43.9h883.4h88.3h33.7c0.1,0,0.4-0.2,2.4-2.3c2.5-2.6,5.2-2.4,5.2-2.4h36.9
		c0.5,0.9,0.6,3.3,0.6,3.3v9.3h4.6c0,0-0.2-2.3,2.3-2.3s2.5,2.3,2.5,2.3v5.7c0,0,0.2,0,1.8,0c1.6,0,2.2,0.6,2.2,0.6l6,5
		c2.7,2.7,5.4,2.6,5.4,2.6h12.1h64.6"/>
	<path class="st12" d="M1586.9,116.6c0-10.8,8.8-19.6,19.6-19.6c10.8,0,19.2,8.8,19.2,19.6"/>
	<line class="st12" x1="1594.2" y1="153.8" x2="1594.2" y2="368.6"/>
	<line class="st12" x1="1600.1" y1="153.8" x2="1600.1" y2="368.6"/>
	<line class="st12" x1="1606.1" y1="153.8" x2="1606.1" y2="368.6"/>
	<line class="st12" x1="1612" y1="153.8" x2="1612" y2="368.6"/>
	<line class="st12" x1="1617.9" y1="153.8" x2="1617.9" y2="368.6"/>
	<polyline class="st12" points="1586.9,136.8 1614,137.9 1613.9,145.5 1586.9,144.6 	"/>
	<line class="st12" x1="1614.1" y1="138.5" x2="1625.7" y2="138.9"/>
	<path class="st12" d="M1613.9,145l11.8,0.4"/>
	<rect x="893.2" y="104.6" class="st12" width="90.8" height="39.5"/>
	<g>
		<g>
			<line class="st12" x1="976.9" y1="104.6" x2="976.9" y2="144.1"/>
			<line class="st12" x1="970" y1="104.6" x2="970" y2="144.1"/>
			<line class="st12" x1="963.1" y1="104.6" x2="963.1" y2="144.1"/>
		</g>
		<g>
			<line class="st12" x1="956" y1="104.6" x2="956" y2="144.1"/>
			<line class="st12" x1="949.1" y1="104.6" x2="949.1" y2="144.1"/>
			<line class="st12" x1="942.2" y1="104.6" x2="942.2" y2="144.1"/>
		</g>
		<g>
			<line class="st12" x1="935.1" y1="104.6" x2="935.1" y2="144.1"/>
			<line class="st12" x1="928.2" y1="104.6" x2="928.2" y2="144.1"/>
			<line class="st12" x1="921.3" y1="104.6" x2="921.3" y2="144.1"/>
		</g>
		<g>
			<line class="st12" x1="914.2" y1="104.6" x2="914.2" y2="144.1"/>
			<line class="st12" x1="907.3" y1="104.6" x2="907.3" y2="144.1"/>
			<line class="st12" x1="900.4" y1="104.6" x2="900.4" y2="144.1"/>
		</g>
	</g>
	<rect x="620" y="104.2" class="st12" width="52.7" height="39.5"/>
	<rect x="445.9" y="104.2" class="st12" width="90.8" height="39.5"/>
	<g>
		<g>
			<line class="st12" x1="529.6" y1="104.1" x2="529.6" y2="143.6"/>
			<line class="st12" x1="522.7" y1="104.1" x2="522.7" y2="143.6"/>
			<line class="st12" x1="515.8" y1="104.1" x2="515.8" y2="143.6"/>
		</g>
		<g>
			<line class="st12" x1="508.7" y1="104.1" x2="508.7" y2="143.6"/>
			<line class="st12" x1="501.8" y1="104.1" x2="501.8" y2="143.6"/>
			<line class="st12" x1="494.9" y1="104.1" x2="494.9" y2="143.6"/>
		</g>
		<g>
			<line class="st12" x1="487.8" y1="104.1" x2="487.8" y2="143.6"/>
			<line class="st12" x1="480.9" y1="104.1" x2="480.9" y2="143.6"/>
			<line class="st12" x1="474" y1="104.1" x2="474" y2="143.6"/>
		</g>
		<g>
			<line class="st12" x1="466.9" y1="104.1" x2="466.9" y2="143.6"/>
			<line class="st12" x1="460" y1="104.1" x2="460" y2="143.6"/>
			<line class="st12" x1="453.1" y1="104.1" x2="453.1" y2="143.6"/>
		</g>
	</g>
	<rect x="346.9" y="104.2" class="st12" width="90.8" height="39.5"/>
	<g>
		<g>
			<line class="st12" x1="430.5" y1="104.1" x2="430.5" y2="143.6"/>
			<line class="st12" x1="423.6" y1="104.1" x2="423.6" y2="143.6"/>
			<line class="st12" x1="416.7" y1="104.1" x2="416.7" y2="143.6"/>
		</g>
		<g>
			<line class="st12" x1="409.6" y1="104.1" x2="409.6" y2="143.6"/>
			<line class="st12" x1="402.7" y1="104.1" x2="402.7" y2="143.6"/>
			<line class="st12" x1="395.8" y1="104.1" x2="395.8" y2="143.6"/>
		</g>
		<g>
			<line class="st12" x1="388.7" y1="104.1" x2="388.7" y2="143.6"/>
			<line class="st12" x1="381.8" y1="104.1" x2="381.8" y2="143.6"/>
			<line class="st12" x1="374.9" y1="104.1" x2="374.9" y2="143.6"/>
		</g>
		<g>
			<line class="st12" x1="367.9" y1="104.1" x2="367.9" y2="143.6"/>
			<line class="st12" x1="360.9" y1="104.1" x2="360.9" y2="143.6"/>
			<line class="st12" x1="354" y1="104.1" x2="354" y2="143.6"/>
		</g>
	</g>
	<rect x="248" y="104.2" class="st12" width="90.8" height="39.5"/>
	<g>
		<g>
			<line class="st12" x1="331.6" y1="104.1" x2="331.6" y2="143.6"/>
			<line class="st12" x1="324.7" y1="104.1" x2="324.7" y2="143.6"/>
			<line class="st12" x1="317.8" y1="104.1" x2="317.8" y2="143.6"/>
		</g>
		<g>
			<line class="st12" x1="310.8" y1="104.1" x2="310.8" y2="143.6"/>
			<line class="st12" x1="303.8" y1="104.1" x2="303.8" y2="143.6"/>
			<line class="st12" x1="296.9" y1="104.1" x2="296.9" y2="143.6"/>
		</g>
		<g>
			<line class="st12" x1="289.9" y1="104.1" x2="289.9" y2="143.6"/>
			<line class="st12" x1="283" y1="104.1" x2="283" y2="143.6"/>
			<line class="st12" x1="276.1" y1="104.1" x2="276.1" y2="143.6"/>
		</g>
		<g>
			<line class="st12" x1="269" y1="104.1" x2="269" y2="143.6"/>
			<line class="st12" x1="262.1" y1="104.1" x2="262.1" y2="143.6"/>
			<line class="st12" x1="255.2" y1="104.1" x2="255.2" y2="143.6"/>
		</g>
	</g>
	<g>
		<g>
			<line class="st12" x1="667.2" y1="104.3" x2="667.2" y2="143.8"/>
			<line class="st12" x1="660.3" y1="104.3" x2="660.3" y2="143.8"/>
			<line class="st12" x1="653.4" y1="104.3" x2="653.4" y2="143.8"/>
		</g>
		<g>
			<line class="st12" x1="646.3" y1="104.3" x2="646.3" y2="143.8"/>
			<line class="st12" x1="639.4" y1="104.3" x2="639.4" y2="143.8"/>
			<line class="st12" x1="632.5" y1="104.3" x2="632.5" y2="143.8"/>
		</g>
		<g>
			<line class="st12" x1="625.4" y1="104.3" x2="625.4" y2="143.8"/>
		</g>
	</g>
</g>
</svg>
