<?xml version="1.0" encoding="utf-8"?>
<!-- Generator: Adobe Illustrator 22.0.1, SVG Export Plug-In . SVG Version: 6.00 Build 0)  -->
<svg version="1.1" id="Type_74" xmlns="http://www.w3.org/2000/svg" xmlns:xlink="http://www.w3.org/1999/xlink" x="0px" y="0px"
	 viewBox="0 0 1371.1 424" style="enable-background:new 0 0 1371.1 424;" xml:space="preserve">
<metadata><?xpacket begin="﻿" id="W5M0MpCehiHzreSzNTczkc9d"?>
<x:xmpmeta xmlns:x="adobe:ns:meta/" x:xmptk="Adobe XMP Core 5.6-c143 79.161210, 2017/08/11-10:28:36        ">
   <rdf:RDF xmlns:rdf="http://www.w3.org/1999/02/22-rdf-syntax-ns#">
      <rdf:Description rdf:about=""/>
   </rdf:RDF>
</x:xmpmeta>
                                                                                                    
                                                                                                    
                                                                                                    
                                                                                                    
                                                                                                    
                                                                                                    
                                                                                                    
                                                                                                    
                                                                                                    
                                                                                                    
                                                                                                    
                                                                                                    
                                                                                                    
                                                                                                    
                                                                                                    
                                                                                                    
                                                                                                    
                                                                                                    
                                                                                                    
                                                                                                    
                           
<?xpacket end="w"?></metadata>
<style type="text/css">
	.st0{fill:#C7C9C7;}
	.st1{fill:#333F48;}
	.st2{fill:none;}
	.st3{fill:#212322;}
	.st4{fill:#444445;}
	.st5{fill:#DA291C;}
	.st6{fill:#101820;}
	.st7{fill:#B1B3B3;}
	.st8{fill:#FA4616;}
	.st9{fill:#878787;}
	.st10{opacity:0.7;enable-background:new    ;}
	.st11{fill:none;stroke:#000000;stroke-width:2;stroke-miterlimit:10;}
</style>
<g id="Mål_9_">
</g>
<g id="Farger_9_">
	<g id="Grunnfarge_5_">
		<path class="st0" d="M1,301.1V116.8h55c0,0,6-0.1,11.2-5.3s9.9-9.9,9.9-9.9h1254.4v199.6L1,301.1L1,301.1z"/>
		<polyline class="st0" points="1370.4,301.1 1370.4,116.8 1370.4,101.5 		"/>
		<path class="st1" d="M0.5,301.4v68.2h98.4c0,0,3.7-0.6,8.6,4.7h107.7h1008.7c0,0,0.7,0,1.6-0.9s2.6-3.9,8.7-3.9s97,0,97,0v-68.1
			L0.5,301.4L0.5,301.4z"/>
		<line class="st2" x1="1370.4" y1="301.1" x2="1370.4" y2="369.3"/>
		<path class="st3" d="M1370.8,368h-39.5v1.3h-62.2l0,0h-36.9c0,0-2.6-0.2-5.2,2.4c-2.5,2.6-2.4,2.3-2.4,2.3H1211
			c-0.6,2.5-0.9,5.2-0.9,7.9c0,19.9,16.1,36,36,36c14.3,0,26.7-8.4,32.4-20.5h-0.1h0.1l10.6,1.2l11.6-3h6h64.4"/>
		<path class="st3" d="M0,395.8h25.4h6l11.6,3l10.6-1.2h0.1h-0.1C59.4,409.6,71.7,418,86,418c19.9,0,36-16.1,36-36
			c0-2.7-0.3-5.4-0.9-7.9l-12.8-0.2c0,0-1.1-0.1-2.9-2.1c-2.5-2.7-4.6-2.5-4.6-2.5H63l0,0H0"/>
		<polygon class="st1" points="229.5,374 229.5,384.5 348.8,384.5 348.8,374.1 		"/>
		<polygon class="st1" points="1101.2,374.8 1101.2,384.5 981.9,384.5 981.9,374 		"/>
		<path class="st4" d="M57.6,116.8l5.6-1.9l3.7-3.5H49.6l-5.3-8.5l78.1-42.2l11-5.3l7.7,15.2l2.1,0.2l1-1.4l-8.9-14.8l-0.3-2
			L81.5,32.1l-0.6,0.9L37.1,16.8h10.4l0.6-2.3H10.7l0.1,1.4l17.7,0.6l0.4,6.2l89.3,35.8l-81.7,43.1l-1.9,2.8l-3.4,7.2h-19v5.5h45.4
			V116.8z M119.6,56.9L29.4,20.1l0.1-4.2H36l45.5,18.6L81,35.4l45.1,18.4L119.6,56.9z"/>
		<rect x="1330.7" y="150.5" class="st4" width="39.2" height="218.5"/>
		<polygon class="st4" points="1369.7,143.5 1331.1,144.6 1331.1,138.5 1369.9,136.1 		"/>
	</g>
	<g id="Profilering_9_">
		<line class="st2" x1="1370.4" y1="188.8" x2="1370.1" y2="148.8"/>
		<polygon class="st5" points="0.9,148.8 1331.3,148.8 1331.3,188.4 0.9,188.8 		"/>
		<polygon class="st5" points="981.6,301.1 960.5,301.1 229.5,301.1 204.7,301.1 0.5,301.1 0.5,339.1 204.7,339.1 229.5,339.1 
			960.5,339.1 981.6,339.1 1330.8,339.1 1330.8,301.1 		"/>
		<rect x="0.6" y="188.4" class="st6" width="1330" height="112.6"/>
		<g>
			<rect x="0.8" y="310.5" class="st7" width="1330" height="6.7"/>
		</g>
		<g>
			<rect x="0.9" y="162" class="st7" width="1330.4" height="3.4"/>
		</g>
	</g>
	<g id="Dører_og_vinduer_8_">
		<path class="st8" d="M1094,177.6H991.2c-4.5,0-8.1,3.6-8.1,8.1v170.1c0,4.5,3.6,8.1,8.1,8.1H1094c4.5,0,8.1-3.6,8.1-8.1V185.8
			C1102.1,181.2,1098.4,177.6,1094,177.6z"/>
		<path class="st9" d="M1019.3,194.1H1007c-4.5,0-8.1,3.6-8.1,8.1v87.2c0,4.5,3.6,8.1,8.1,8.1h12.3c4.5,0,8.1-3.6,8.1-8.1v-87.2
			C1027.4,197.8,1023.7,194.1,1019.3,194.1z"/>
		<path class="st9" d="M1078.4,194.1h-12.3c-4.5,0-8.1,3.6-8.1,8.1v87.2c0,4.5,3.6,8.1,8.1,8.1h12.3c4.5,0,8.1-3.6,8.1-8.1v-87.2
			C1086.5,197.8,1082.9,194.1,1078.4,194.1z"/>
		<path class="st8" d="M340.6,177.6H237.8c-4.5,0-8.1,3.6-8.1,8.1v170.1c0,4.5,3.6,8.1,8.1,8.1h102.8c4.5,0,8.1-3.6,8.1-8.1V185.8
			C348.7,181.2,345,177.6,340.6,177.6z"/>
		<path class="st9" d="M265.9,194.1h-12.3c-4.5,0-8.1,3.6-8.1,8.1v87.2c0,4.5,3.6,8.1,8.1,8.1h12.3c4.5,0,8.1-3.6,8.1-8.1v-87.2
			C274,197.8,270.3,194.1,265.9,194.1z"/>
		<path class="st9" d="M325,194.1h-12.3c-4.5,0-8.1,3.6-8.1,8.1v87.2c0,4.5,3.6,8.1,8.1,8.1H325c4.5,0,8.1-3.6,8.1-8.1v-87.2
			C333.1,197.8,329.5,194.1,325,194.1z"/>
		<path class="st9" d="M1265.9,196.8h-102.8c-4.5,0-8.1,3.6-8.1,8.1v56.9c0,4.5,3.6,8.1,8.1,8.1h102.8c4.5,0,8.1-3.6,8.1-8.1v-56.9
			C1274,200.5,1270.4,196.8,1265.9,196.8z"/>
		<path class="st9" d="M169.7,196.8H67c-4.5,0-8.1,3.6-8.1,8.1v56.9c0,4.5,3.6,8.1,8.1,8.1h102.8c4.5,0,8.1-3.6,8.1-8.1v-56.9
			C177.8,200.5,174.2,196.8,169.7,196.8z"/>
		<path class="st9" d="M790.8,224.6H688.1c-4.5,0-8.1,3.6-8.1,8.1v56.9c0,4.5,3.6,8.1,8.1,8.1h102.8c4.5,0,8.1-3.6,8.1-8.1v-56.9
			C798.9,228.3,795.3,224.6,790.8,224.6z"/>
		<path class="st9" d="M937.3,197.5H834.5c-4.5,0-8.1,3.6-8.1,8.1v83.8c0,4.5,3.6,8.1,8.1,8.1h102.8c4.5,0,8.1-3.6,8.1-8.1v-83.8
			C945.4,201.1,941.7,197.5,937.3,197.5z"/>
		<path class="st9" d="M643.7,197.5H540.9c-4.5,0-8.1,3.6-8.1,8.1v83.8c0,4.5,3.6,8.1,8.1,8.1h102.8c4.5,0,8.1-3.6,8.1-8.1v-83.8
			C651.8,201.1,648.1,197.5,643.7,197.5z"/>
		<path class="st10" d="M532.8,225.4h119v-19.7c0-4.5-3.6-8.1-8.1-8.1H540.9c-4.5,0-8.1,3.7-8.1,8.1L532.8,225.4L532.8,225.4z"/>
		<path class="st10" d="M826.3,225.4h119v-19.7c0-4.5-3.6-8.1-8.1-8.1H834.4c-4.5,0-8.1,3.7-8.1,8.1L826.3,225.4L826.3,225.4z"/>
	</g>
</g>
<g id="Omriss_9_">
	<circle class="st11" cx="86" cy="382.1" r="8.8"/>
	<polyline class="st11" points="53.6,397.5 43,398.8 31.4,395.8 	"/>
	<path class="st11" d="M121,374.1c0.6,2.5,0.9,5.2,0.9,7.9c0,19.9-16.1,36-36,36c-17.9,0-32.8-13.2-35.5-30.4"/>
	<path class="st11" d="M114,374.1c0.7,2.5,1.1,5.2,1.1,7.9c0,16.1-13,29.1-29.1,29.1s-29.1-13-29.1-29.1c0-0.7,0-1.4,0.1-2"/>
	<path class="st11" d="M62.9,369.5H0.7V116.8h55.9c0,0,5.3-0.3,9.4-4.4s10.7-10.8,10.7-10.8h1254.4v198.7v69h-62.2"/>
	<circle class="st11" cx="1245.9" cy="382" r="8.8"/>
	<polyline class="st11" points="1278.3,397.5 1288.9,398.8 1300.5,395.8 	"/>
	<path class="st11" d="M1281.4,387.6c-2.7,17.2-17.6,30.4-35.5,30.4c-19.9,0-36-16.1-36-36c0-2.7,0.3-5.4,0.9-7.9"/>
	<path class="st11" d="M1275,380c0,0.7,0.1,1.4,0.1,2c0,16.1-13,29.1-29.1,29.1s-29.1-13-29.1-29.1c0-2.8,0.4-5.4,1.1-7.9"/>
	<line class="st11" x1="1370.1" y1="368" x2="1331.1" y2="368"/>
	<line class="st11" x1="0.7" y1="148.8" x2="1331.1" y2="148.8"/>
	<path class="st11" d="M169.9,196.8H67.1c-4.5,0-8.1,3.6-8.1,8.1v56.9c0,4.5,3.6,8.1,8.1,8.1h102.8c4.5,0,8.1-3.6,8.1-8.1v-56.9
		C178,200.4,174.3,196.8,169.9,196.8z"/>
	<path class="st11" d="M340.8,177.8H238c-4.5,0-8.1,3.6-8.1,8.1V356c0,4.5,3.6,8.1,8.1,8.1h102.8c4.5,0,8.1-3.6,8.1-8.1V185.8
		C348.9,181.3,345.2,177.8,340.8,177.8z"/>
	<path class="st11" d="M266.1,194.2h-12.3c-4.5,0-8.1,3.6-8.1,8.1v87.2c0,4.5,3.6,8.1,8.1,8.1h12.3c4.5,0,8.1-3.6,8.1-8.1v-87.2
		C274.2,197.8,270.5,194.2,266.1,194.2z"/>
	<path class="st11" d="M325.2,194.2h-12.3c-4.5,0-8.1,3.6-8.1,8.1v87.2c0,4.5,3.6,8.1,8.1,8.1h12.3c4.5,0,8.1-3.6,8.1-8.1v-87.2
		C333.3,197.8,329.6,194.2,325.2,194.2z"/>
	<path class="st11" d="M790.7,224.5H687.9c-4.5,0-8.1,3.6-8.1,8.1v56.9c0,4.5,3.6,8.1,8.1,8.1h102.8c4.5,0,8.1-3.6,8.1-8.1v-56.9
		C798.8,228.2,795.2,224.5,790.7,224.5z"/>
	<path class="st11" d="M1264.8,196.9H1162c-4.5,0-8.1,3.6-8.1,8.1v56.9c0,4.5,3.6,8.1,8.1,8.1h102.8c4.5,0,8.1-3.6,8.1-8.1V205
		C1272.9,200.6,1269.2,196.9,1264.8,196.9z"/>
	<path class="st11" d="M643.9,197.6H541.1c-4.5,0-8.1,3.6-8.1,8.1v83.8c0,4.5,3.6,8.1,8.1,8.1h102.8c4.5,0,8.1-3.6,8.1-8.1v-83.8
		C652,201.2,648.4,197.6,643.9,197.6z"/>
	<line class="st11" x1="537.4" y1="225.4" x2="647.5" y2="225.4"/>
	<path class="st11" d="M937.1,197.6H834.4c-4.5,0-8.1,3.6-8.1,8.1v83.8c0,4.5,3.6,8.1,8.1,8.1h102.8c4.5,0,8.1-3.6,8.1-8.1v-83.8
		C945.2,201.2,941.6,197.6,937.1,197.6z"/>
	<line class="st11" x1="830.6" y1="225.4" x2="940.7" y2="225.4"/>
	<line class="st11" x1="291" y1="176.6" x2="291" y2="358"/>
	<polyline class="st11" points="236.1,364 236.1,358 342.6,358 342.6,364 	"/>
	<polyline class="st11" points="229.4,374.1 229.4,384.6 348.7,384.6 348.7,374.8 229.4,374.1 	"/>
	<circle class="st11" cx="283.1" cy="284.3" r="2.4"/>
	<path class="st11" d="M1093.1,177.8H990.4c-4.5,0-8.1,3.6-8.1,8.1V356c0,4.5,3.6,8.1,8.1,8.1h102.8c4.5,0,8.1-3.6,8.1-8.1V185.8
		C1101.2,181.3,1097.6,177.8,1093.1,177.8z"/>
	<path class="st11" d="M1018.4,194.2h-12.3c-4.5,0-8.1,3.6-8.1,8.1v87.2c0,4.5,3.6,8.1,8.1,8.1h12.3c4.5,0,8.1-3.6,8.1-8.1v-87.2
		C1026.5,197.8,1022.9,194.2,1018.4,194.2z"/>
	<path class="st11" d="M1077.6,194.2h-12.3c-4.5,0-8.1,3.6-8.1,8.1v87.2c0,4.5,3.6,8.1,8.1,8.1h12.3c4.5,0,8.1-3.6,8.1-8.1v-87.2
		C1085.7,197.8,1082,194.2,1077.6,194.2z"/>
	<line class="st11" x1="1043.4" y1="176.6" x2="1043.4" y2="358"/>
	<polyline class="st11" points="988.5,364 988.5,358 1095,358 1095,364 	"/>
	<polyline class="st11" points="981.8,374.1 981.8,384.6 1101.1,384.6 1101.1,374.8 	"/>
	<circle class="st11" cx="1035.5" cy="284.3" r="2.4"/>
	<polyline class="st11" points="66.9,111.3 12.2,111.3 12.2,116.8 	"/>
	<line class="st11" x1="31" y1="111.3" x2="36.5" y2="101.6"/>
	<line class="st11" x1="44.2" y1="102" x2="49.6" y2="111.3"/>
	<circle class="st11" cx="40.4" cy="102.8" r="4"/>
	<polyline class="st11" points="1369.9,102.5 1369.9,301.1 1369.9,369.3 	"/>
	<path class="st11" d="M1370.9,395.8h-64.4h-12.1c0,0-2.7,0.1-5.4-2.6l-6-4.9c0,0-0.6-0.6-2.2-0.6s-1.8,0-1.8,0V382
		c0,0,0-2.3-2.5-2.3s-2.3,2.3-2.3,2.3h-4.6v-9.2c0,0-0.1-2.4-0.6-3.3h-37c0,0-2.6-0.2-5.2,2.4c-2.5,2.6-2.4,2.3-2.4,2.3h-33.7h-9.4
		l-68.5,0.1H229.4h-88.3h-33.7c-0.1,0-0.4-0.2-2.4-2.3c-2.5-2.6-5.2-2.4-5.2-2.4H62.9c-0.5,0.9-0.6,3.3-0.6,3.3v9.3h-4.6
		c0,0,0.2-2.3-2.3-2.3c-2.4,0-2.5,2.3-2.5,2.3v5.7c0,0-0.2,0-1.8,0s-2.2,0.6-2.2,0.6l-6,5c-2.7,2.7-5.4,2.6-5.4,2.6H25.4H0"/>
	<rect x="643.3" y="104.3" class="st11" width="52.7" height="39.5"/>
	<rect x="924.1" y="104.1" class="st11" width="90.8" height="39.5"/>
	<g>
		<g>
			<line class="st11" x1="1007.8" y1="104" x2="1007.8" y2="143.5"/>
			<line class="st11" x1="1000.9" y1="104" x2="1000.9" y2="143.5"/>
			<line class="st11" x1="994" y1="104" x2="994" y2="143.5"/>
		</g>
		<g>
			<line class="st11" x1="986.9" y1="104" x2="986.9" y2="143.5"/>
			<line class="st11" x1="980" y1="104" x2="980" y2="143.5"/>
			<line class="st11" x1="973.1" y1="104" x2="973.1" y2="143.5"/>
		</g>
		<g>
			<line class="st11" x1="966" y1="104" x2="966" y2="143.5"/>
			<line class="st11" x1="959.1" y1="104" x2="959.1" y2="143.5"/>
			<line class="st11" x1="952.2" y1="104" x2="952.2" y2="143.5"/>
		</g>
		<g>
			<line class="st11" x1="945.1" y1="104" x2="945.1" y2="143.5"/>
			<line class="st11" x1="938.2" y1="104" x2="938.2" y2="143.5"/>
			<line class="st11" x1="931.3" y1="104" x2="931.3" y2="143.5"/>
		</g>
	</g>
	<g>
		<g>
			<line class="st11" x1="690.6" y1="104.3" x2="690.6" y2="143.8"/>
			<line class="st11" x1="683.7" y1="104.3" x2="683.7" y2="143.8"/>
			<line class="st11" x1="676.8" y1="104.3" x2="676.8" y2="143.8"/>
		</g>
		<g>
			<line class="st11" x1="669.7" y1="104.3" x2="669.7" y2="143.8"/>
			<line class="st11" x1="662.8" y1="104.3" x2="662.8" y2="143.8"/>
			<line class="st11" x1="655.9" y1="104.3" x2="655.9" y2="143.8"/>
		</g>
		<g>
			<line class="st11" x1="648.8" y1="104.3" x2="648.8" y2="143.8"/>
		</g>
	</g>
	<path class="st11" d="M1331.1,115.8c0-10.8,8.8-19.6,19.6-19.6c10.8,0,19.2,8.8,19.2,19.6"/>
	<line class="st11" x1="1338.4" y1="153.1" x2="1338.4" y2="367.8"/>
	<line class="st11" x1="1344.3" y1="153.1" x2="1344.3" y2="367.8"/>
	<line class="st11" x1="1350.3" y1="153.1" x2="1350.3" y2="367.8"/>
	<line class="st11" x1="1356.2" y1="153.1" x2="1356.2" y2="367.8"/>
	<line class="st11" x1="1362.1" y1="153.1" x2="1362.1" y2="367.8"/>
	<polyline class="st11" points="1369.9,136.1 1342.7,137.1 1342.9,144.8 1369.9,143.8 	"/>
	<line class="st11" x1="1342.6" y1="137.8" x2="1331.1" y2="138.1"/>
	<path class="st11" d="M1342.9,144.2l-11.8,0.4"/>
	<polyline class="st11" points="35.2,15.9 80.3,33.9 81.1,32.1 40.4,15.8 	"/>
	<path class="st11" d="M11.2,5.4v1.2l-0.4,9.2c0,0,0,0.4-0.5,0.4l0,0c-0.5,0-0.5-0.4-0.5-0.4L9.4,6.6V5.4H11.2z"/>
	<path class="st11" d="M48.3,5.4v1.2l-0.4,9.2c0,0,0,0.4-0.5,0.4l0,0c-0.5,0-0.5-0.4-0.5-0.4l-0.4-9.2V5.4H48.3z"/>
	<line class="st11" x1="10.9" y1="13.5" x2="28.1" y2="13.5"/>
	<line class="st11" x1="10.8" y1="15.9" x2="28.1" y2="15.9"/>
	<line class="st11" x1="29.5" y1="13.5" x2="46.7" y2="13.5"/>
	<line class="st11" x1="29.4" y1="15.9" x2="46.7" y2="15.9"/>
	<path class="st11" d="M29.7,11.2V25c0,0.5-0.4,0.8-0.8,0.8c-0.5,0-0.8-0.4-0.8-0.8V11.2c0-0.5,0.4-0.8,0.8-0.8
		C29.3,10.4,29.7,10.8,29.7,11.2z"/>
	<path class="st11" d="M143.7,69.2c0-0.4-0.2-0.7-0.4-1c-0.3-0.3-0.6-0.4-1-0.4c-0.8,0-1.4,0.6-1.4,1.4s0.6,1.4,1.4,1.4
		S143.7,70,143.7,69.2z"/>
	<path class="st11" d="M142.1,70.3l-44.6,31.2c-0.1,0-3.6,0-3.6,0l46.8-32.8l-1.9-2.5l1.9-2.8l2.8,4.9"/>
	<polyline class="st11" points="140.5,63.2 135.3,54.6 133.4,55.8 138.6,66 	"/>
	<circle class="st11" cx="133.2" cy="53.7" r="1.8"/>
	<circle class="st11" cx="125.7" cy="56.4" r="2.2"/>
	<line class="st11" x1="124.3" y1="54.3" x2="132.5" y2="51.4"/>
	<line class="st11" x1="126.1" y1="58.6" x2="133.2" y2="55.5"/>
	<polyline class="st11" points="127,54.1 80.3,34.7 81.7,31.2 133.2,51.9 	"/>
	<line class="st11" x1="44.6" y1="102.3" x2="125.6" y2="58.7"/>
	<line class="st11" x1="124.2" y1="54.8" x2="38.2" y2="99.4"/>
	<path class="st11" d="M29.8,19.8l91.1,36.8l-2.8,1.2c0,0-88.5-34.7-88.4-34.8C29.7,22.7,29.8,19.8,29.8,19.8z"/>
</g>
</svg>
