<?xml version="1.0" encoding="utf-8"?>
<!-- Generator: Adobe Illustrator 22.0.1, SVG Export Plug-In . SVG Version: 6.00 Build 0)  -->
<svg version="1.1" id="Type_75_1_" xmlns="http://www.w3.org/2000/svg" xmlns:xlink="http://www.w3.org/1999/xlink" x="0px" y="0px"
	 viewBox="0 0 1370.4 420" style="enable-background:new 0 0 1370.4 420;" xml:space="preserve">
<metadata><?xpacket begin="﻿" id="W5M0MpCehiHzreSzNTczkc9d"?>
<x:xmpmeta xmlns:x="adobe:ns:meta/" x:xmptk="Adobe XMP Core 5.6-c143 79.161210, 2017/08/11-10:28:36        ">
   <rdf:RDF xmlns:rdf="http://www.w3.org/1999/02/22-rdf-syntax-ns#">
      <rdf:Description rdf:about=""/>
   </rdf:RDF>
</x:xmpmeta>
                                                                                                    
                                                                                                    
                                                                                                    
                                                                                                    
                                                                                                    
                                                                                                    
                                                                                                    
                                                                                                    
                                                                                                    
                                                                                                    
                                                                                                    
                                                                                                    
                                                                                                    
                                                                                                    
                                                                                                    
                                                                                                    
                                                                                                    
                                                                                                    
                                                                                                    
                                                                                                    
                           
<?xpacket end="w"?></metadata>
<style type="text/css">
	.st0{fill:#212322;stroke:url(#SVGID_1_);stroke-miterlimit:10;}
	.st1{fill:#333F48;}
	.st2{fill:none;}
	.st3{fill:#212322;}
	.st4{fill:#C7C9C7;}
	.st5{fill:#B1B3B3;}
	.st6{fill:#444445;}
	.st7{fill:#DA291C;}
	.st8{fill:#090E15;}
	.st9{fill:#878787;}
	.st10{opacity:0.7;enable-background:new    ;}
	.st11{fill:#FA4616;}
	.st12{fill:none;stroke:#000000;stroke-width:2;stroke-miterlimit:10;}
</style>
<g id="Mål_10_">
</g>
<g>
	<g id="Farger_10_">
		<g id="Grunnfarge_6_">
			
				<linearGradient id="SVGID_1_" gradientUnits="userSpaceOnUse" x1="-0.3" y1="158.4516" x2="122.6444" y2="158.4516" gradientTransform="matrix(1 0 0 -1 0 554)">
				<stop  offset="0" style="stop-color:#FFFFFF"/>
				<stop  offset="1" style="stop-color:#000000"/>
			</linearGradient>
			<path class="st0" d="M0.1,397.6h25h6l11.6,3l10.6-1.2h0.1h-0.1c5.8,12.2,18.2,20.6,32.6,20.6c19.9,0,36.1-16.2,36.1-36.1
				c0-2.7-0.3-5.4-0.9-8h-13.7c0,0,0.1,0.4-2.4-2.3s-5.2-2.5-5.2-2.5H62.9l0,0H-0.3"/>
			<path class="st1" d="M-0.2,302.8v68.5h98.8c0,0,4.8-0.9,8.6,4.8h108.2h1013.1c0,0,0.8,0,1.7-0.9c0.9-0.9,2.6-3.9,8.7-3.9
				s91.1,0,91.1,0v-68.4H-0.2V302.8z"/>
			<polyline class="st1" points="227,375.1 227,385.6 346.8,385.6 346.8,375.7 			"/>
			<polyline class="st1" points="981,375.3 981,385.8 1100.8,385.8 1100.8,375.9 			"/>
			<line class="st2" x1="1369.5" y1="302" x2="1369.5" y2="370.6"/>
			<path class="st3" d="M1369.7,369.6H1330v1.3h-62.5l0,0h-37.1c0,0-2.7-0.2-5.2,2.5c-2.5,2.7-2.4,2.3-2.4,2.3h-13.7
				c-0.6,2.6-0.9,5.3-0.9,8c0,19.9,16.2,36.1,36.1,36.1c14.4,0,26.8-8.4,32.6-20.6h-0.1h0.1l10.6,1.2l11.6-3h6h65"/>
			<path class="st4" d="M0.1,303.7V117.4h55.2c0,0,6.1-0.1,11.2-5.3s9.9-9.9,9.9-9.9h1253.3v200.4L0.1,303.7z"/>
			<polyline class="st5" points="1369.5,303.7 1369.5,116.9 1369.5,101.6 			"/>
			<path class="st6" d="M57.9,116.2l5.6-1.9l3.7-3.5H50l-5.3-8.5l78.1-42.2l11-5.3l7.7,15.2l2.1,0.2l1-1.4L135.7,54l-0.3-2
				L81.9,31.5l-0.6,0.9L37.5,16.2h10.4l0.6-2.3H11l0.1,1.4l17.7,0.6l0.4,6.2l89.3,35.8l-81.7,42.8l-1.9,2.8l-3.4,7.2H12.6v5.5H57.9z
				 M119.9,56.4L29.7,19.6l0.1-4.2h6.5L81.8,34l-0.5,0.9l45.1,18.4L119.9,56.4z"/>
			<rect x="1329.9" y="150.6" class="st6" width="39.2" height="218.5"/>
			<polygon class="st6" points="1368.9,143.7 1330.3,144.7 1330.3,138.6 1369.1,136.2 			"/>
		</g>
		<g id="Profilering_10_">
			<polygon class="st7" points="0.1,149.5 1330.2,149.5 1330.2,189.5 0.1,189.7 			"/>
			<g>
				<rect x="0.1" y="162.9" class="st5" width="1330.1" height="3.4"/>
			</g>
			<polygon class="st8" points="982.1,189.5 955.7,189.5 366.3,189.5 346.4,189.5 -0.2,189.5 -0.2,302.6 366.3,302.6 366.3,302.6 
				955.7,302.6 982.1,302.6 1330,302.6 1330,189.5 			"/>
			<polygon class="st7" points="982.7,302.6 936.9,302.6 178.1,302.6 178.1,302.6 -0.2,302.6 -0.2,340.7 178.1,340.7 229.8,340.7 
				936.9,340.7 982.7,340.7 1330.2,340.7 1330.2,302.6 			"/>
			<g>
				<rect x="-0.2" y="312.1" class="st5" width="1330.4" height="6.7"/>
			</g>
			<line class="st2" x1="1369.5" y1="189.2" x2="1369.1" y2="149"/>
		</g>
		<g id="Dører_og_vinduer_9_">
			<path class="st9" d="M1266.3,198.5h-103.2c-4.5,0-8.1,3.7-8.1,8.1v57.1c0,4.5,3.7,8.1,8.1,8.1h103.2c4.5,0,8.1-3.7,8.1-8.1v-57.1
				C1274.4,202.1,1270.8,198.5,1266.3,198.5z"/>
			<path class="st9" d="M170,197.2H66.8c-4.5,0-8.1,3.7-8.1,8.1v57.1c0,4.5,3.7,8.1,8.1,8.1H170c4.5,0,8.1-3.7,8.1-8.1v-57.1
				C178.1,200.9,174.5,197.2,170,197.2z"/>
			<path class="st9" d="M643.9,225.1H540.6c-4.5,0-8.1,3.7-8.1,8.1v57.1c0,4.5,3.7,8.1,8.1,8.1h103.2c4.5,0,8.1-3.7,8.1-8.1v-57.1
				C652,228.7,648.3,225.1,643.9,225.1z"/>
			<path class="st9" d="M497.3,198H394.1c-4.5,0-8.1,3.7-8.1,8.1v84.2c0,4.5,3.7,8.1,8.1,8.1h103.2c4.5,0,8.1-3.7,8.1-8.1v-84.2
				C505.4,201.7,501.8,198,497.3,198z"/>
			<path class="st10" d="M386.3,226h119.5v-19.8c0-4.5-3.6-8.2-8.1-8.2H394.5c-4.5,0-8.2,3.7-8.2,8.2V226z"/>
			<path class="st11" d="M1093.6,179.1H990.4c-4.5,0-8.1,3.7-8.1,8.1V358c0,4.5,3.7,8.1,8.1,8.1h103.2c4.5,0,8.1-3.7,8.1-8.1V187.3
				C1101.7,182.8,1098.1,179.1,1093.6,179.1z"/>
			<path class="st9" d="M1018.6,195.7h-12.4c-4.5,0-8.1,3.7-8.1,8.1v87.6c0,4.5,3.7,8.1,8.1,8.1h12.4c4.5,0,8.1-3.7,8.1-8.1v-87.6
				C1026.7,199.4,1023,195.7,1018.6,195.7z"/>
			<path class="st9" d="M1078,195.7h-12.4c-4.5,0-8.1,3.7-8.1,8.1v87.6c0,4.5,3.7,8.1,8.1,8.1h12.4c4.5,0,8.1-3.7,8.1-8.1v-87.6
				C1086.1,199.4,1082.4,195.7,1078,195.7z"/>
			<path class="st11" d="M338.5,178H235.3c-4.5,0-8.1,3.7-8.1,8.1v170.8c0,4.5,3.7,8.1,8.1,8.1h103.2c4.5,0,8.1-3.7,8.1-8.1V186.1
				C346.6,181.7,343,178,338.5,178z"/>
			<path class="st9" d="M263.5,195.7h-12.4c-4.5,0-8.1,3.7-8.1,8.1v87.6c0,4.5,3.7,8.1,8.1,8.1h12.4c4.5,0,8.1-3.7,8.1-8.1v-87.6
				C271.6,199.4,268,195.7,263.5,195.7z"/>
			<path class="st9" d="M322.9,195.7h-12.4c-4.5,0-8.1,3.7-8.1,8.1v87.6c0,4.5,3.7,8.1,8.1,8.1h12.4c4.5,0,8.1-3.7,8.1-8.1v-87.6
				C331,199.4,327.3,195.7,322.9,195.7z"/>
			<path class="st9" d="M790.5,225.1H687.3c-4.5,0-8.1,3.7-8.1,8.1v57.1c0,4.5,3.7,8.1,8.1,8.1h103.2c4.5,0,8.1-3.7,8.1-8.1v-57.1
				C798.6,228.7,795,225.1,790.5,225.1z"/>
			<path class="st9" d="M937.1,198H833.8c-4.5,0-8.1,3.7-8.1,8.1v84.2c0,4.5,3.7,8.1,8.1,8.1H937c4.5,0,8.1-3.7,8.1-8.1v-84.2
				C945.2,201.7,941.5,198,937.1,198z"/>
			<path class="st10" d="M825.6,226h119.5v-19.8c0-4.5-3.6-8.2-8.1-8.2H833.8c-4.5,0-8.2,3.7-8.2,8.2V226z"/>
		</g>
	</g>
	<g id="Omriss_10_">
		<path class="st12" d="M1370.9,397h-65.6h-12.2c0,0-2.7,0.1-5.4-2.7l-6-5c0,0-0.6-0.6-2.3-0.6c-1.6,0-1.9,0-1.9,0V383
			c0,0,0-2.3-2.5-2.3s-2.3,2.3-2.3,2.3h-4.6v-9.3c0,0-0.1-2.4-0.6-3.3h-37.1c0,0-2.7-0.2-5.2,2.5s-2.4,2.3-2.4,2.3H1189h-9.5
			l-56.8,0.1H235.4h-88.6h-39.5c-0.1,0-0.4-0.2-2.4-2.3c-2.5-2.7-5.2-2.4-5.2-2.4H62.6c-0.5,0.9-0.6,3.3-0.6,3.3v9.3h-4.6
			c0,0,0.2-2.3-2.3-2.3s-2.5,2.3-2.5,2.3v5.7c0,0-0.2,0-1.9,0s-2.3,0.6-2.3,0.6l-6,5c-2.7,2.7-5.4,2.7-5.4,2.7H24.9H0"/>
		<circle class="st12" cx="85.7" cy="383.3" r="8.8"/>
		<polyline class="st12" points="53.2,398.8 42.6,400.1 30.9,397.1 		"/>
		<path class="st12" d="M120.9,375.3c0.6,2.6,0.9,5.3,0.9,8c0,19.9-16.2,36.1-36.1,36.1c-18,0-33-13.2-35.7-30.5"/>
		<path class="st12" d="M113.9,375.3c0.7,2.5,1.1,5.2,1.1,8c0,16.2-13.1,29.3-29.3,29.3s-29.3-13.1-29.3-29.3c0-0.7,0-1.4,0.1-2.1"
			/>
		<path class="st12" d="M62.6,370.6H-0.2V116.9h56.1c0,0,5.3-0.3,9.4-4.4c4.1-4.1,10.8-10.8,10.8-10.8H1330v199.6v69.3h-62.5"/>
		<line class="st12" x1="-0.2" y1="369.2" x2="1.1" y2="369.2"/>
		<line class="st12" x1="-0.2" y1="149" x2="1330.1" y2="149"/>
		<path class="st12" d="M170,197.1H66.8c-4.5,0-8.1,3.7-8.1,8.1v57.1c0,4.5,3.7,8.1,8.1,8.1H170c4.5,0,8.1-3.7,8.1-8.1v-57.1
			C178.2,200.8,174.5,197.1,170,197.1z"/>
		<path class="st12" d="M338.5,178H235.3c-4.5,0-8.1,3.7-8.1,8.1v170.8c0,4.5,3.7,8.1,8.1,8.1h103.2c4.5,0,8.1-3.7,8.1-8.1V186.1
			C346.6,181.7,343,178,338.5,178z"/>
		<path class="st12" d="M263.5,194.6h-12.4c-4.5,0-8.1,3.7-8.1,8.1v87.6c0,4.5,3.7,8.1,8.1,8.1h12.4c4.5,0,8.1-3.7,8.1-8.1v-87.6
			C271.6,198.2,267.9,194.6,263.5,194.6z"/>
		<path class="st12" d="M322.9,194.6h-12.4c-4.5,0-8.1,3.7-8.1,8.1v87.6c0,4.5,3.7,8.1,8.1,8.1h12.4c4.5,0,8.1-3.7,8.1-8.1v-87.6
			C331,198.2,327.3,194.6,322.9,194.6z"/>
		<path class="st12" d="M790,225.1H686.8c-4.5,0-8.1,3.7-8.1,8.1v57.1c0,4.5,3.7,8.1,8.1,8.1H790c4.5,0,8.1-3.7,8.1-8.1v-57.1
			C798.2,228.7,794.5,225.1,790,225.1z"/>
		<path class="st12" d="M643.4,225.1H540.1c-4.5,0-8.1,3.7-8.1,8.1v57.1c0,4.5,3.7,8.1,8.1,8.1h103.2c4.5,0,8.1-3.7,8.1-8.1v-57.1
			C651.5,228.7,647.8,225.1,643.4,225.1z"/>
		<path class="st12" d="M497.5,198H394.3c-4.5,0-8.1,3.7-8.1,8.1v84.2c0,4.5,3.7,8.1,8.1,8.1h103.2c4.5,0,8.1-3.7,8.1-8.1v-84.2
			C505.6,201.6,502,198,497.5,198z"/>
		<line class="st12" x1="390.5" y1="225.9" x2="501.1" y2="225.9"/>
		<path class="st12" d="M937.1,198H833.9c-4.5,0-8.1,3.7-8.1,8.1v84.2c0,4.5,3.7,8.1,8.1,8.1h103.2c4.5,0,8.1-3.7,8.1-8.1v-84.2
			C945.3,201.6,941.6,198,937.1,198z"/>
		<line class="st12" x1="830.1" y1="225.9" x2="940.7" y2="225.9"/>
		<line class="st12" x1="288.5" y1="176.9" x2="288.5" y2="359.1"/>
		<polyline class="st12" points="233.4,365.1 233.4,359.1 340.4,359.1 340.4,365.1 		"/>
		<polyline class="st12" points="226.6,375.3 226.6,385.8 346.5,385.8 346.5,375.9 		"/>
		<circle class="st12" cx="280.6" cy="285.1" r="2.4"/>
		<path class="st12" d="M1093,178H989.8c-4.5,0-8.1,3.7-8.1,8.1v170.8c0,4.5,3.7,8.1,8.1,8.1H1093c4.5,0,8.1-3.7,8.1-8.1V186.1
			C1101.1,181.7,1097.5,178,1093,178z"/>
		<path class="st12" d="M1018,194.6h-12.4c-4.5,0-8.1,3.7-8.1,8.1v87.6c0,4.5,3.7,8.1,8.1,8.1h12.4c4.5,0,8.1-3.7,8.1-8.1v-87.6
			C1026.1,198.2,1022.4,194.6,1018,194.6z"/>
		<path class="st12" d="M1077.3,194.6H1065c-4.5,0-8.1,3.7-8.1,8.1v87.6c0,4.5,3.7,8.1,8.1,8.1h12.4c4.5,0,8.1-3.7,8.1-8.1v-87.6
			C1085.5,198.2,1081.8,194.6,1077.3,194.6z"/>
		<line class="st12" x1="1043" y1="176.9" x2="1043" y2="359.1"/>
		<polyline class="st12" points="987.9,365.1 987.9,359.1 1094.9,359.1 1094.9,365.1 		"/>
		<polyline class="st12" points="981.1,375.3 981.1,385.8 1100.9,385.8 1100.9,375.9 		"/>
		<circle class="st12" cx="1035.1" cy="285.1" r="2.4"/>
		<rect x="642.5" y="104.2" class="st12" width="52.9" height="39.7"/>
		<rect x="922.8" y="104" class="st12" width="91.2" height="39.7"/>
		<g>
			<g>
				<line class="st12" x1="1006.8" y1="104" x2="1006.8" y2="143.7"/>
				<line class="st12" x1="999.9" y1="104" x2="999.9" y2="143.7"/>
				<line class="st12" x1="992.9" y1="104" x2="992.9" y2="143.7"/>
			</g>
			<g>
				<line class="st12" x1="985.8" y1="104" x2="985.8" y2="143.7"/>
				<line class="st12" x1="978.9" y1="104" x2="978.9" y2="143.7"/>
				<line class="st12" x1="971.9" y1="104" x2="971.9" y2="143.7"/>
			</g>
			<g>
				<line class="st12" x1="964.8" y1="104" x2="964.8" y2="143.7"/>
				<line class="st12" x1="957.9" y1="104" x2="957.9" y2="143.7"/>
				<line class="st12" x1="951" y1="104" x2="951" y2="143.7"/>
			</g>
			<g>
				<line class="st12" x1="943.8" y1="104" x2="943.8" y2="143.7"/>
				<line class="st12" x1="936.9" y1="104" x2="936.9" y2="143.7"/>
				<line class="st12" x1="930" y1="104" x2="930" y2="143.7"/>
			</g>
		</g>
		<g>
			<g>
				<line class="st12" x1="689.9" y1="104.3" x2="689.9" y2="143.9"/>
				<line class="st12" x1="683" y1="104.3" x2="683" y2="143.9"/>
				<line class="st12" x1="676.1" y1="104.3" x2="676.1" y2="143.9"/>
			</g>
			<g>
				<line class="st12" x1="669" y1="104.3" x2="669" y2="143.9"/>
				<line class="st12" x1="662" y1="104.3" x2="662" y2="143.9"/>
				<line class="st12" x1="655.1" y1="104.3" x2="655.1" y2="143.9"/>
			</g>
			<g>
				<line class="st12" x1="648" y1="104.3" x2="648" y2="143.9"/>
			</g>
		</g>
		<path class="st12" d="M1265.1,197.3h-103.2c-4.5,0-8.1,3.7-8.1,8.1v57.1c0,4.5,3.7,8.1,8.1,8.1h103.2c4.5,0,8.1-3.7,8.1-8.1v-57.1
			C1273.2,201,1269.5,197.3,1265.1,197.3z"/>
		<path class="st12" d="M1330,115.8c0-10.9,8.8-19.7,19.7-19.7s19.3,8.8,19.3,19.7"/>
		<line class="st12" x1="1337.3" y1="153.3" x2="1337.3" y2="369"/>
		<line class="st12" x1="1343.3" y1="153.3" x2="1343.3" y2="369"/>
		<line class="st12" x1="1349.3" y1="153.3" x2="1349.3" y2="369"/>
		<line class="st12" x1="1355.2" y1="153.3" x2="1355.2" y2="369"/>
		<line class="st12" x1="1361.2" y1="153.3" x2="1361.2" y2="369"/>
		<polyline class="st12" points="1369,136.2 1341.7,137.3 1341.8,144.9 1369,144 		"/>
		<line class="st12" x1="1341.6" y1="137.9" x2="1330" y2="138.3"/>
		<path class="st12" d="M1341.8,144.4l-11.9,0.4"/>
		<circle class="st12" cx="1244.4" cy="383.2" r="8.8"/>
		<polyline class="st12" points="1277,398.8 1287.6,400 1299.2,397 		"/>
		<path class="st12" d="M1280.1,388.8c-2.7,17.3-17.7,30.5-35.7,30.5c-19.9,0-36.1-16.2-36.1-36.1c0-2.7,0.3-5.4,0.9-8"/>
		<path class="st12" d="M1273.6,381.2c0,0.7,0.1,1.4,0.1,2.1c0,16.2-13.1,29.3-29.3,29.3c-16.2,0-29.3-13.1-29.3-29.3
			c0-2.8,0.4-5.5,1.1-8"/>
		<line class="st12" x1="1369.1" y1="369.2" x2="1330" y2="369.2"/>
		<polyline class="st12" points="1369,127.1 1369,301.9 1369,370.5 		"/>
		<polyline class="st12" points="67.2,110.8 12.6,110.8 12.6,116.2 		"/>
		<line class="st12" x1="31.4" y1="110.8" x2="36.9" y2="101.1"/>
		<line class="st12" x1="44.6" y1="101.5" x2="50" y2="110.8"/>
		<circle class="st12" cx="40.7" cy="102.2" r="4"/>
		<polyline class="st12" points="35.6,15.4 80.7,33.4 81.4,31.6 40.7,15.3 		"/>
		<path class="st12" d="M11.5,5v1.2l-0.4,9.2c0,0,0,0.4-0.5,0.4l0,0c-0.5,0-0.5-0.4-0.5-0.4L9.7,6.2V5H11.5z"/>
		<path class="st12" d="M48.7,5v1.2l-0.4,9.2c0,0,0,0.4-0.5,0.4l0,0c-0.5,0-0.5-0.4-0.5-0.4l-0.4-9.2V5H48.7z"/>
		<line class="st12" x1="11.2" y1="13" x2="28.4" y2="13"/>
		<line class="st12" x1="11.1" y1="15.4" x2="28.4" y2="15.4"/>
		<line class="st12" x1="29.8" y1="13" x2="47" y2="13"/>
		<line class="st12" x1="29.7" y1="15.4" x2="47" y2="15.4"/>
		<path class="st12" d="M30,10.8v13.8c0,0.5-0.4,0.8-0.8,0.8c-0.5,0-0.8-0.4-0.8-0.8V10.8c0-0.5,0.4-0.8,0.8-0.8
			C29.7,9.9,30,10.3,30,10.8z"/>
		<path class="st12" d="M144.1,68.8c0-0.4-0.2-0.7-0.4-1c-0.3-0.3-0.6-0.4-1-0.4c-0.8,0-1.4,0.6-1.4,1.4s0.6,1.4,1.4,1.4
			C143.5,70.1,144.1,69.5,144.1,68.8z"/>
		<path class="st12" d="M142.4,69.8L97.8,101c-0.1,0-3.6,0-3.6,0L141,68.2l-1.9-2.5l1.9-2.8l2.8,4.9"/>
		<polyline class="st12" points="140.9,62.7 135.7,54.1 133.8,55.3 138.9,65.5 		"/>
		<circle class="st12" cx="133.6" cy="53.2" r="1.8"/>
		<circle class="st12" cx="126.1" cy="56" r="2.2"/>
		<line class="st12" x1="124.6" y1="53.8" x2="132.8" y2="50.9"/>
		<line class="st12" x1="126.4" y1="58.1" x2="133.6" y2="55"/>
		<polyline class="st12" points="127.3,53.6 80.7,34.2 82,30.7 133.6,51.4 		"/>
		<line class="st12" x1="44.9" y1="101.8" x2="126" y2="58.2"/>
		<line class="st12" x1="124.5" y1="54.3" x2="38.5" y2="98.9"/>
		<path class="st12" d="M30.1,19.3l91.1,36.8l-2.8,1.2c0,0-88.5-34.7-88.4-34.8C30,22.2,30.1,19.3,30.1,19.3z"/>
	</g>
</g>
</svg>
