<?xml version="1.0" encoding="utf-8"?>
<!-- Generator: Adobe Illustrator 22.0.1, SVG Export Plug-In . SVG Version: 6.00 Build 0)  -->
<svg version="1.1" id="Type_69_H" xmlns="http://www.w3.org/2000/svg" xmlns:xlink="http://www.w3.org/1999/xlink" x="0px" y="0px"
	 viewBox="0 0 1855 420" style="enable-background:new 0 0 1855 420;" xml:space="preserve">
<metadata><?xpacket begin="﻿" id="W5M0MpCehiHzreSzNTczkc9d"?>
<x:xmpmeta xmlns:x="adobe:ns:meta/" x:xmptk="Adobe XMP Core 5.6-c143 79.161210, 2017/08/11-10:28:36        ">
   <rdf:RDF xmlns:rdf="http://www.w3.org/1999/02/22-rdf-syntax-ns#">
      <rdf:Description rdf:about=""/>
   </rdf:RDF>
</x:xmpmeta>
                                                                                                    
                                                                                                    
                                                                                                    
                                                                                                    
                                                                                                    
                                                                                                    
                                                                                                    
                                                                                                    
                                                                                                    
                                                                                                    
                                                                                                    
                                                                                                    
                                                                                                    
                                                                                                    
                                                                                                    
                                                                                                    
                                                                                                    
                                                                                                    
                                                                                                    
                                                                                                    
                           
<?xpacket end="w"?></metadata>
<style type="text/css">
	.st0{fill:#FFBF3F;}
	.st1{fill:#212322;}
	.st2{fill:#B1B3B3;}
	.st3{fill:#444445;}
	.st4{fill:#DA291C;}
	.st5{fill:#30302F;}
	.st6{fill:#878787;}
	.st7{fill:#FA4616;}
</style>
<g id="Mål_4_">
</g>
<g>
	<g id="Farger_4_">
		<g id="grunnfarger">
			<g>
				<path class="st0" d="M1767.5,381.6h9.4v-12.5h-4.2c2.2-3,5.2-6.4,9.2-10h-100.3v9.7l18.7,29.1h82.8
					C1783.3,397.9,1766.6,393.9,1767.5,381.6z M1767.9,378.9c0.1-0.3,0.1-0.5,0.2-0.8C1768,378.4,1768,378.7,1767.9,378.9z"/>
			</g>
			<g>
				<path class="st1" d="M1624.5,405.9c5.4,7.6,14.3,12.6,24.3,12.6c13,0,24.1-8.4,28.1-20.1l-0.1,0.3c4.2,3.7,9.5,6.6,9.5,6.6
					l0.2,0.1c0,0,2-6.8,5.6-5.6c0,0,0.9-14.7,0.3-15.5c-0.6-0.7-15.2-9.5-15.2-9.5c-0.4-0.2-1.6-1.1-2.5-1.8
					c-0.8-0.5-1.4-1.2-1.9-1.9c-5.4-7.3-14.1-12.1-23.9-12.1l-37.2-0.1l-15.5,6.3h-6.4v-6.4c0,0-40.1-0.3-40.4,0l-0.1,6.4h-7
					l-14.8-5.8l-38.4-0.3c-9.8,0-17.4,3.9-23.2,11.4c0,0.1-2.6,2.6-3.5,3.2c-4.4,2.7-16.1,10.1-16.6,10.7
					c-0.6,0.7,0.3,15.5,0.3,15.5c3.6-1.3,5.6,5.6,5.6,5.6s5.2-3.6,9.3-6.9c4.1,11.6,15.1,19.9,28,19.9c9.5,0,18-4.5,23.5-11.5v0.3
					l5.1-0.5v1.5h41.7V401v0.1h18.8V401v7.3h41.7l4.5-2.3L1624.5,405.9"/>
			</g>
			<g>
				<polygon class="st1" points="1826.9,318.9 1795.9,318.9 1809.7,309.9 1821.9,309.9 				"/>
			</g>
			<g>
				<path class="st1" d="M327.2,406.5c5.4,7.6,14.3,12.6,24.3,12.6c13,0,24.1-8.4,28.1-20.1l-0.1,0.3c4.2,3.7,9.5,6.6,9.5,6.6
					l0.2,0.1c0,0,2-6.8,5.6-5.6c0,0,0.9-14.7,0.3-15.5c-0.6-0.7-15.2-9.5-15.2-9.5c-0.4-0.2-1.6-1.1-2.5-1.8
					c-0.8-0.5-1.4-1.2-1.9-1.9c-5.4-7.3-14.1-12.1-23.9-12.1l-37.2-0.1l-15.5,6.3h-6.4v-6.4c0,0-40.1-0.3-40.4,0l-0.1,6.4h-7
					l-14.6-5.9l-38.4-0.3c-9.8,0-17.4,3.9-23.2,11.4c0,0.1-2.6,2.6-3.5,3.2c-4.4,2.7-16.1,10.1-16.6,10.7
					c-0.6,0.7,0.3,15.5,0.3,15.5c3.6-1.3,5.6,5.6,5.6,5.6s5.2-3.6,9.3-6.9c4.1,11.6,15.1,19.9,28,19.9c9.5,0,18-4.5,23.5-11.5v0.3
					l5.1-0.5v1.5h41.7v-7.3v0.1H281v-0.1v7.3h41.6L327.2,406.5L327.2,406.5"/>
			</g>
			<g>
				<polygon class="st2" points="1790.2,274.4 1790.2,270.6 1794,267.7 1766.5,149.5 1762.4,149.5 1762.4,131.1 1698.4,131.1 
					1698.4,134.5 1407.2,134.5 1364.4,112 1343.8,112 1343.8,108.5 1242.4,108.8 1242.6,112.5 1219.1,112.5 1182.6,134.5 
					665.4,134.5 623.4,111.8 602.8,111.8 602.8,108.6 501.9,108.6 501.9,112.3 477.7,112 440,134.5 75.4,134.5 75.4,359.6 
					75.4,359.6 443.4,359.6 480.8,381.4 625.2,381.4 663.3,359.4 1188.4,359.4 1224.7,381.4 1363.4,381.4 1400.6,359.5 
					1789.1,359.5 1789.1,304.1 1794.5,301.6 1794.5,276.3 				"/>
			</g>
			<g>
				<polygon class="st1" points="511.1,134 511,116.6 591.8,116.6 591.8,133.9 				"/>
			</g>
			<g>
				<polygon class="st1" points="1333.7,134.1 1333.7,116.8 1252.9,116.8 1253,134.2 				"/>
			</g>
			<g>
				<polygon class="st3" points="1176.7,359.3 1069.3,359.3 1064.6,359.3 1030.6,359.3 1024.3,359.3 977.6,359.3 977.6,359.3 
					976.1,359.3 976.1,359.3 950.4,359.3 950.4,359.3 922.3,359.3 922.3,379.6 976.6,379.6 976.6,396.6 1024.3,396.6 1030.6,396.6 
					1069.3,396.6 1069.3,374.4 1176.7,374.4 				"/>
			</g>
			<g>
				<polyline class="st1" points="1788.8,331.5 1788.9,355.8 1824.4,355.8 1824.4,331.5 1788.8,331.5 				"/>
			</g>
			<g>
				<polygon class="st3" points="61.8,152.7 52.9,152.7 52.9,157.9 36.4,157.9 36.4,332.2 52.9,332.2 52.9,336.9 57.2,336.9 
					74.6,359.1 74.8,145.1 				"/>
			</g>
			<g>
				<polygon class="st3" points="68.7,350.6 37.5,350.6 37.5,339.9 61.4,339.9 				"/>
			</g>
			<g>
				<polygon class="st3" points="6,350.6 38,350.6 38,339.9 12.3,339.9 				"/>
			</g>
			<g>
				<path class="st3" d="M81.4,359.1l-6.1-0.1l-3-3.1c0,0-0.2,14.9,0,15.1c0.2,0.2,9.1,0,9.1,0v-12.2"/>
			</g>
		</g>
		<g id="Profilering_5_">
			<g id="rødt_nederst_13_">
				<path class="st4" d="M75,271.7v80.9c0,3.8-0.1,7.1-0.1,7.1l367.9-0.2l38.1,22.1l143.6-0.4l36.5-21.5l526.4-0.7l37.3,22.4
					l137.5,0.1l37.8-22.1l388.9,0.1c0.1-0.3,0.2-2.9,0.2-6.7l-0.7-48.6l5.6-3h-71l-26.1-29.4L75,271.7L75,271.7z"/>
			</g>
			<g id="sort_bak_vinduer_11_">
				<polygon class="st5" points="1695.9,270.9 1633.9,198 75.4,198 75.4,271.9 1696.9,271.9 				"/>
			</g>
			<g>
				<polygon class="st4" points="1777.3,198.7 1769.9,165.2 237.4,164.9 204.9,198.2 				"/>
			</g>
			<g>
				<g>
					<rect x="74.8" y="295.6" class="st2" width="1719.1" height="6.7"/>
				</g>
			</g>
			<g>
				<g>
					<polygon class="st2" points="1789.1,313.1 1730.8,313.1 1730.3,312.6 1611.1,174.2 455.6,174.2 322.2,313.1 321.5,313.1 
						75,313.1 75,309.7 320.8,309.7 454.1,170.8 1612.7,170.8 1732.3,309.7 1789.1,309.7 					"/>
				</g>
			</g>
		</g>
		<g id="Dører_og_vinduer_4_">
			<g>
				<path class="st6" d="M428,269.9h-67.8c-4.5,0-8.1-3.6-8.1-8.1v-54.2c0-4.5,3.6-8.1,8.1-8.1H428c4.5,0,8.1,3.6,8.1,8.1v54.2
					C436.2,266.3,432.5,269.9,428,269.9z"/>
			</g>
			<g>
				<path class="st6" d="M270.7,269.9h-67.8c-4.5,0-8.1-3.6-8.1-8.1v-54.2c0-4.5,3.6-8.1,8.1-8.1h67.8c4.5,0,8.1,3.6,8.1,8.1v54.2
					C278.9,266.3,275.2,269.9,270.7,269.9z"/>
			</g>
			<g>
				<path class="st6" d="M1181.3,269.9h-67.8c-4.5,0-8.1-3.6-8.1-8.1v-54.2c0-4.5,3.6-8.1,8.1-8.1h67.8c4.5,0,8.1,3.6,8.1,8.1v54.2
					C1189.5,266.3,1185.8,269.9,1181.3,269.9z"/>
			</g>
			<g>
				<path class="st6" d="M1049.3,269.9h-67.8c-4.5,0-8.1-3.6-8.1-8.1v-54.2c0-4.5,3.6-8.1,8.1-8.1h67.8c4.5,0,8.1,3.6,8.1,8.1v54.2
					C1057.4,266.3,1053.8,269.9,1049.3,269.9z"/>
			</g>
			<g>
				<path class="st6" d="M917.4,269.9h-67.8c-4.5,0-8.1-3.6-8.1-8.1v-54.2c0-4.5,3.6-8.1,8.1-8.1h67.8c4.5,0,8.1,3.6,8.1,8.1v54.2
					C925.5,266.3,921.9,269.9,917.4,269.9z"/>
			</g>
			<g>
				<path class="st6" d="M786.6,269.9h-67.8c-4.5,0-8.1-3.6-8.1-8.1v-54.2c0-4.5,3.6-8.1,8.1-8.1h67.8c4.5,0,8.1,3.6,8.1,8.1v54.2
					C794.6,266.3,791.1,269.9,786.6,269.9z"/>
			</g>
			<g>
				<rect x="500" y="135.7" class="st7" width="105.3" height="225.1"/>
			</g>
			<g>
				<rect x="1241.1" y="135.2" class="st7" width="105.3" height="225.1"/>
			</g>
			<g>
				<path class="st6" d="M589,268.7h-21.7c-3.4,0-6.1-2.7-6.1-6.1v-43.5c0-3.4,2.7-6.1,6.1-6.1H589c3.4,0,6.1,2.7,6.1,6.1v43.5
					C595.1,266,592.3,268.7,589,268.7z"/>
			</g>
			<g>
				<path class="st6" d="M537.3,268.7h-21.7c-3.4,0-6.1-2.7-6.1-6.1v-43.5c0-3.4,2.7-6.1,6.1-6.1h21.7c3.4,0,6.1,2.7,6.1,6.1v43.5
					C543.4,266,540.7,268.7,537.3,268.7z"/>
			</g>
			<g>
				<path class="st6" d="M1330.2,268.7h-21.7c-3.4,0-6.1-2.7-6.1-6.1v-43.5c0-3.4,2.7-6.1,6.1-6.1h21.7c3.4,0,6.1,2.7,6.1,6.1v43.5
					C1336.4,266,1333.6,268.7,1330.2,268.7z"/>
			</g>
			<g>
				<path class="st6" d="M1278.6,268.7h-21.7c-3.4,0-6.1-2.7-6.1-6.1v-43.5c0-3.4,2.7-6.1,6.1-6.1h21.7c3.4,0,6.1,2.7,6.1,6.1v43.5
					C1284.7,266,1282,268.7,1278.6,268.7z"/>
			</g>
			<g>
				<path class="st6" d="M1626.4,269.9h-67.8c-4.5,0-8.1-3.6-8.1-8.1v-54.2c0-4.5,3.6-8.1,8.1-8.1h67.8c4.5,0,8.1,3.6,8.1,8.1v54.2
					C1634.6,266.3,1630.9,269.9,1626.4,269.9z"/>
			</g>
			<g>
				<path class="st6" d="M1475.7,269.9h-67.8c-4.5,0-8.1-3.6-8.1-8.1v-54.2c0-4.5,3.6-8.1,8.1-8.1h67.8c4.5,0,8.1,3.6,8.1,8.1v54.2
					C1483.9,266.3,1480.2,269.9,1475.7,269.9z"/>
			</g>
			<g>
				<path class="st6" d="M1697.2,251.6h11.4c4.8,0,8.6-3.9,8.6-8.6v-31.4c0-4.8-3.9-8.6-8.6-8.6h-11.4c-4.8,0-8.6,3.9-8.6,8.6V243
					C1688.6,247.8,1692.4,251.6,1697.2,251.6z"/>
			</g>
			<g>
				<path class="st2" d="M1745.7,252.2h17.7c5.8,0,10.5-4.5,10.8-10.2c0-0.4,0-0.8-0.1-1.2l-6-28.4c-1.2-6.4-4.9-10.9-10.9-10.9
					h-11.6c-6,0-10.9,4.9-10.9,10.9v29C1734.9,247.4,1739.7,252.2,1745.7,252.2z"/>
			</g>
		</g>
	</g>
	<g id="Omriss_4_">
		<g>
			<path d="M1783.3,398.7h-83.4l-19.2-29.8v-10h2v9.4l18.2,28.4h76.6c-4.1-1.9-9.2-5.4-10.7-11.2c-2-7.6,2.9-16.8,14.5-27.3l1.3,1.5
				c-11,10-15.7,18.5-13.9,25.3c2.2,8.7,14.5,11.8,14.7,11.8l8.2,2L1783.3,398.7L1783.3,398.7z"/>
		</g>
		<g>
			<path d="M1730.5,398.7c-0.2-0.1-0.6-0.2-1.1-0.3c-5.2-1.2-21-4.9-25.6-19.5c-1.6-5.1-1.3-9.3,0.8-12.6c3.8-5.9,12.7-7.6,19.1-8.3
				l0.2,2c-6,0.7-14.3,2.2-17.7,7.4c-1.8,2.8-2,6.5-0.6,10.9c4.3,13.5,19.2,17,24.2,18.2c0.5,0.1,0.9,0.2,1.2,0.3L1730.5,398.7z"/>
		</g>
		<g>
			<polygon points="1778,382.6 1767.5,382.6 1767.5,380.6 1776,380.6 1776,370.4 1772.3,370.4 1716.8,361 1717.2,359 1772.6,368.4 
				1778,368.4 			"/>
		</g>
		<g>
			<path d="M1363.3,382.2h-139.2l-36.5-22H663.1l-38.1,22H480l-37.4-21.8H74V133.3h1623v-3.4h66v18.4h3.8l27.9,119.7l-4,2.9v2.6
				l4.4,1.9v26.8l-5.5,2.4v55.9h-389.3L1363.3,382.2z M1224.6,380.2h138.2l37-21.9h387.8v-55.2l5.5-2.4v-24.1l-4.4-1.9v-5l3.8-2.7
				l-27.3-116.9h-4.2v-18.4h-62v3.4H76v223.1h367.2l37.4,21.8h143.9l38.1-22h525.6L1224.6,380.2z"/>
		</g>
		<g>
			<path d="M1851.6,366.6c-0.3-0.3-8.4-8.3-10.1-9.9h-17.1v-2h17.9l0.3,0.3c0.4,0.4,10.1,9.9,10.4,10.2L1851.6,366.6z"/>
		</g>
		<g>
			<rect x="1784.8" y="359.1" width="2" height="10.6"/>
		</g>
		<g>
			<rect x="1780.4" y="368.7" width="10.5" height="2"/>
		</g>
		<g>
			<rect x="1342.8" y="111.7" width="2" height="22.7"/>
		</g>
		<g>
			<rect x="1241.9" y="112.2" width="2" height="22"/>
		</g>
		<g>
			<rect x="600.8" y="111.6" width="2" height="22.7"/>
		</g>
		<g>
			<rect x="500" y="112.1" width="2" height="22.2"/>
		</g>
		<g>
			<polygon points="663.9,135.1 622.1,112.6 600.8,112.6 600.8,109.3 502,109.3 502,113.1 477.7,113.1 441.1,135 440,133.3 
				477.2,111.1 500,111.1 500,107.3 602.8,107.3 602.8,110.6 622.6,110.6 622.8,110.7 664.8,133.3 			"/>
		</g>
		<g>
			<polygon points="1405.9,135.3 1364.2,112.7 1342.8,112.7 1342.8,109.5 1243.9,109.5 1243.9,113.2 1219.8,113.2 1183.2,135.2 
				1182.2,133.5 1219.3,111.2 1241.9,111.2 1241.9,107.5 1344.8,107.5 1344.8,110.7 1364.7,110.7 1406.8,133.5 			"/>
		</g>
		<g>
			<polygon points="1560.4,408.9 1516.7,408.9 1516.7,407.5 1512.7,407.9 1512.5,405.9 1518.7,405.3 1518.7,406.9 1558.4,406.9 
				1558.4,400.6 1560.4,400.6 			"/>
		</g>
		<g>
			<polygon points="1542.5,401.6 1528.4,401.6 1528.4,393 1530.4,393 1530.4,399.6 1542.5,399.6 			"/>
		</g>
		<g>
			<polygon points="1620.1,408.9 1577.2,408.9 1577.2,400.6 1579.2,400.6 1579.2,406.9 1619.6,406.9 1623.9,404.7 1624.8,406.5 			
				"/>
		</g>
		<g>
			<polygon points="1609.9,401.7 1596.4,401.7 1596.4,399.7 1605.5,399.7 1603,396.9 1604.5,395.6 			"/>
		</g>
		<g>
			<rect x="1587.9" y="360.3" width="2" height="4.1"/>
		</g>
		<g>
			<rect x="1547.5" y="360.3" width="2" height="4.1"/>
		</g>
		<g>
			<path d="M1489.6,393.9c-3,0-5.4-2.4-5.4-5.4s2.4-5.4,5.4-5.4s5.4,2.4,5.4,5.4S1492.5,393.9,1489.6,393.9z M1489.6,385.1
				c-1.9,0-3.4,1.5-3.4,3.4c0,1.9,1.5,3.4,3.4,3.4s3.4-1.5,3.4-3.4C1493,386.6,1491.4,385.1,1489.6,385.1z"/>
		</g>
		<g>
			<path d="M1648.9,394.1c-3,0-5.4-2.4-5.4-5.4s2.4-5.4,5.4-5.4s5.4,2.4,5.4,5.4S1651.9,394.1,1648.9,394.1z M1648.9,385.3
				c-1.9,0-3.4,1.5-3.4,3.4c0,1.9,1.5,3.4,3.4,3.4s3.4-1.5,3.4-3.4C1652.3,386.8,1650.8,385.3,1648.9,385.3z"/>
		</g>
		<g>
			<path d="M1648.7,419.2c-16.9,0-30.7-13.8-30.7-30.7V387h2v1.5c0,15.8,12.9,28.7,28.7,28.7c12.3,0,23.2-7.8,27.2-19.4l1.9,0.6
				C1673.5,410.9,1661.8,419.2,1648.7,419.2z"/>
		</g>
		<g>
			<path d="M1649.2,414.6c-14.9,0-27.1-12.2-27.1-27.3c0-0.9,0.1-2.2,0.1-2.3l2,0.2c0,0-0.1,1.3-0.1,2.1c0,14,11.3,25.3,25.1,25.3
				c10.7,0,20.3-6.9,23.8-17.2l1.9,0.6C1671.1,407.2,1660.7,414.6,1649.2,414.6z"/>
		</g>
		<g>
			<path d="M1489.1,419.1c-13.1,0-24.7-8.3-28.9-20.6l1.9-0.7c4,11.5,14.8,19.2,27.1,19.2c15.8,0,28.7-12.8,28.7-28.6l-0.2-1.7
				l2-0.2l0.2,1.9C1519.8,405.3,1506,419.1,1489.1,419.1z"/>
		</g>
		<g>
			<path d="M1488.7,414.1c-11.4,0-21.5-7.3-25.2-18.3l1.9-0.6c3.5,10.1,12.9,16.9,23.4,16.9c13.7,0,24.8-11.3,24.8-25.2l-0.2-1.5
				l2-0.2l0.2,1.7C1515.5,401.9,1503.4,414.1,1488.7,414.1z"/>
		</g>
		<g>
			<path d="M1451,406.8l-0.4-1.4c-0.3-1.1-1.4-4-3-4.8c-0.4-0.2-0.9-0.3-1.3-0.1l-1.2,0.4l-0.1-1.3c-0.9-15.2-0.4-15.9-0.1-16.2
				c0.4-0.4,3.8-2.6,14.4-9.4l2.4-1.5c0.8-0.5,2.8-2.4,3.3-2.9l0.1-0.1c6.1-7.8,14-11.7,24.1-11.8l38.7,0.3l14.6,5.9h53.6l15.5-6.2
				h37.4c9.7,0,18.9,4.7,24.7,12.5c0.4,0.6,1.1,1.2,1.7,1.7c0.3,0.2,0.8,0.5,1.1,0.8c0.4,0.3,1.1,0.7,1.2,0.8
				c5.6,3.4,14.9,9,15.5,9.7c0.3,0.4,0.9,1-0.1,16.2l-0.1,1.3l-1.2-0.4c-0.4-0.1-0.9-0.1-1.3,0.1c-1.6,0.8-2.7,3.8-3,4.8l-0.3,1.1
				l-1.3-0.6c-1.6-0.9-15.2-8.5-15.2-15.3c0-5.5-3.5-6.3-3.9-6.4c-0.8-0.2-4.9-0.2-7.6-0.1h-0.3l-4.6-2.6c-1.6-0.9-3.4-1.4-5.2-1.4
				c-1.8,0-3.6,0.5-5.1,1.4l-5.8,3.2h-13c-0.4,0-0.6,0.2-0.6,0.2l-0.2,0.1l-27.9,16.6h-54.2l-29.2-16.9c-0.1-0.1-0.3-0.1-0.4-0.1
				h-11.9l-5.8-3.2c-1.6-0.9-3.3-1.4-5.1-1.4c-1.9,0-3.7,0.5-5.2,1.4l-4.6,2.6h-0.3c-3.7,0-8,0-8.7,0.2c-1,0.4-3.4,1.6-3.5,4.7
				c0,0.3,0,0.7,0,1.1c0.1,1.6,0.2,3.3-1.3,4.9c-1.5,1.6-12.8,10.1-14.1,11L1451,406.8z M1663.3,381.9c1.7,0,3.3,0,3.9,0.2
				c0.5,0.1,5.5,1.3,5.5,8.4c0,4.5,8.9,10.5,13.2,13.1c0.6-1.5,1.8-3.9,3.6-4.9c0.5-0.3,1-0.4,1.6-0.4c0.4-6.1,0.6-12.5,0.4-13.8
				c-1.2-0.9-9.6-6.1-14.8-9.2c-0.2-0.1-0.7-0.4-1.4-0.9c-0.4-0.3-0.8-0.5-1.1-0.8c-0.8-0.6-1.6-1.4-2.2-2.2
				c-5.4-7.3-14-11.7-23.1-11.7h-37l-15.5,6.2h-54.4l-14.6-5.9l-38.3-0.3c-9.4,0.1-16.8,3.7-22.5,11l0,0c-0.9,1.3-3.8,3.5-3.8,3.5
				l-2.4,1.5c-4.4,2.8-12.4,7.9-13.9,8.9c-0.2,1.4,0,7.7,0.4,13.7c0.6,0,1.1,0.1,1.7,0.4c1.8,0.9,2.9,3.2,3.5,4.7
				c4-3,11.7-8.8,12.8-10c0.9-1,0.8-2,0.8-3.4c0-0.4,0-0.8,0-1.2c0.1-4.4,3.7-6.1,4.8-6.5c1.2-0.4,7-0.4,9.1-0.4l4.2-2.4
				c1.8-1.1,4-1.6,6.2-1.6s4.3,0.6,6.1,1.6l5.4,3h11.4c0.4,0,1,0.2,1.2,0.3l0.1,0.1l28.8,16.7h53.2l27.4-16.3
				c0.3-0.2,0.9-0.7,1.9-0.7h12.4l5.4-3c1.8-1.1,3.9-1.6,6.1-1.6s4.2,0.5,6.2,1.6l4.2,2.4C1660.2,382,1661.8,381.9,1663.3,381.9z
				 M1446.6,384.4L1446.6,384.4z"/>
		</g>
		<g>
			<polygon points="1825.4,356.5 1788.9,356.5 1788.9,354.5 1823.4,354.5 1823.4,332.2 1788.8,332.2 1788.8,330.2 1825.4,330.2 			
				"/>
		</g>
		<g>
			<path d="M1828.6,319.7h-36l16.8-11.1h13.1L1828.6,319.7z M1799.2,317.7h26l-3.9-7.1H1810L1799.2,317.7z"/>
		</g>
		<g>
			<polygon points="1830.9,356.5 1829.7,354.9 1839.9,346.7 1839.9,338.7 1830,319.7 1826.9,319.7 1826.9,317.7 1831.2,317.7 
				1841.9,338.2 1841.9,347.7 			"/>
		</g>
		<g>
			<rect x="1807.8" y="318.7" width="2" height="12.6"/>
		</g>
		<g>
			<polygon points="263.1,409.7 219.4,409.7 219.4,408.3 215.4,408.7 215.2,406.7 221.4,406.1 221.4,407.7 261.1,407.7 261.1,401.4 
				263.1,401.4 			"/>
		</g>
		<g>
			<polygon points="245.2,402.4 231.1,402.4 231.1,393.8 233.1,393.8 233.1,400.4 245.2,400.4 			"/>
		</g>
		<g>
			<polygon points="322.9,409.7 279.9,409.7 279.9,401.4 281.9,401.4 281.9,407.7 322.4,407.7 326.7,405.5 327.6,407.3 			"/>
		</g>
		<g>
			<polygon points="312.6,402.5 299.1,402.5 299.1,400.5 308.2,400.5 305.8,397.7 307.3,396.4 			"/>
		</g>
		<g>
			<rect x="291.4" y="359.4" width="2" height="6.2"/>
		</g>
		<g>
			<rect x="251" y="359.4" width="2" height="6.2"/>
		</g>
		<g>
			<path d="M192.3,394.7c-3,0-5.4-2.4-5.4-5.4s2.4-5.4,5.4-5.4c3,0,5.4,2.4,5.4,5.4C197.7,392.3,195.3,394.7,192.3,394.7z
				 M192.3,385.9c-1.9,0-3.4,1.5-3.4,3.4s1.5,3.4,3.4,3.4c1.9,0,3.4-1.5,3.4-3.4C195.7,387.4,194.2,385.9,192.3,385.9z"/>
		</g>
		<g>
			<path d="M351.7,394.9c-3,0-5.4-2.4-5.4-5.4c0-3,2.4-5.4,5.4-5.4c3,0,5.4,2.4,5.4,5.4C357.1,392.5,354.7,394.9,351.7,394.9z
				 M351.7,386.1c-1.9,0-3.4,1.5-3.4,3.4c0,1.9,1.5,3.4,3.4,3.4c1.9,0,3.4-1.5,3.4-3.4C355.1,387.6,353.6,386.1,351.7,386.1z"/>
		</g>
		<g>
			<path d="M351.5,420c-16.9,0-30.7-13.8-30.7-30.7v-1.5h2v1.5c0,15.8,12.9,28.7,28.7,28.7c12.3,0,23.2-7.8,27.2-19.4l1.9,0.6
				C376.2,411.7,364.7,420,351.5,420z"/>
		</g>
		<g>
			<path d="M352,415.3c-14.9,0-27.1-12.2-27.1-27.3c0-0.9,0.1-2.2,0.1-2.3l2,0.2c0,0-0.1,1.3-0.1,2.1c0,14,11.3,25.3,25.1,25.3
				c10.7,0,20.3-6.9,23.8-17.2l1.9,0.6C373.8,407.8,363.6,415.3,352,415.3z"/>
		</g>
		<g>
			<path d="M191.8,419.9c-13.1,0-24.7-8.3-28.9-20.6l1.9-0.7c4,11.5,14.8,19.2,27.1,19.2c15.8,0,28.7-12.8,28.7-28.6l-0.2-1.7l2-0.2
				l0.2,1.9C222.5,406.1,208.7,419.9,191.8,419.9z"/>
		</g>
		<g>
			<path d="M191.4,414.9c-11.4,0-21.5-7.3-25.2-18.3l1.9-0.6c3.5,10.1,12.9,16.9,23.4,16.9c13.7,0,24.8-11.3,24.8-25.2l-0.2-1.5
				l2-0.2l0.2,1.7C218.2,402.7,206.2,414.9,191.4,414.9z"/>
		</g>
		<g>
			<path d="M153.7,407.6l-0.4-1.4c-0.3-1.1-1.4-4-3-4.8c-0.4-0.2-0.9-0.3-1.3-0.1l-1.2,0.4l-0.1-1.3c-0.9-15.2-0.4-15.9-0.1-16.2
				c0.4-0.4,3.8-2.6,14.5-9.4l2.4-1.5c0.8-0.5,2.8-2.4,3.3-2.9l0.1-0.1c6.1-7.8,14.2-11.8,24.1-11.8l38.7,0.3l14.6,5.9h53.6
				l15.5-6.2h37.4c9.7,0,18.9,4.7,24.7,12.5c0.4,0.6,1.1,1.2,1.7,1.7c0.3,0.2,0.7,0.5,1.1,0.8c0.4,0.3,1.1,0.8,1.2,0.8
				c5.6,3.4,14.9,9,15.5,9.7c0.3,0.4,0.9,1-0.1,16.2l-0.1,1.3l-1.2-0.4c-0.4-0.1-0.9-0.1-1.3,0.1c-1.6,0.8-2.7,3.8-3,4.8l-0.3,1.1
				l-1.3-0.6c-1.6-0.9-15.2-8.5-15.2-15.3c0-5.5-3.5-6.3-3.9-6.4c-0.8-0.2-4.9-0.2-7.6-0.1h-0.3l-4.6-2.6c-1.6-0.9-3.4-1.4-5.2-1.4
				c-1.8,0-3.6,0.5-5.1,1.4l-5.8,3.2h-13c-0.4,0-0.6,0.2-0.6,0.2l-0.2,0.1l-27.9,16.6H245l-29.2-16.9c-0.1-0.1-0.3-0.1-0.4-0.1
				h-11.9l-5.8-3.2c-1.6-0.9-3.3-1.4-5.1-1.4c-1.9,0-3.7,0.5-5.2,1.4l-4.6,2.6h-0.3c-3.7,0-8,0-8.7,0.2c-1,0.4-3.4,1.6-3.5,4.7
				c0,0.3,0,0.7,0,1.1c0.1,1.6,0.2,3.3-1.3,4.9c-1.5,1.6-12.8,10.1-14.1,11L153.7,407.6z M366.2,382.7c1.7,0,3.3,0,3.9,0.2
				c0.5,0.1,5.5,1.3,5.5,8.4c0,4.5,8.9,10.5,13.2,13.1c0.6-1.5,1.8-3.9,3.6-4.9c0.5-0.3,1-0.4,1.6-0.4c0.4-6.1,0.6-12.5,0.4-13.8
				c-1.2-0.9-9.6-6.1-14.8-9.2c-0.2-0.1-0.7-0.4-1.4-1c-0.4-0.3-0.8-0.5-1.1-0.8c-0.8-0.6-1.6-1.4-2.2-2.1
				c-5.4-7.3-14-11.7-23.1-11.7h-37l-15.5,6.2h-54.4l-14.6-5.9l-38.3-0.3c-9.3,0-16.7,3.6-22.5,11l0,0c-0.9,1.3-3.8,3.5-3.8,3.5
				l-2.3,1.5c-4.1,2.6-12.4,7.9-13.9,9c-0.2,1.4,0,7.7,0.4,13.7c0.6,0,1.1,0.1,1.7,0.4c1.8,0.9,2.9,3.2,3.5,4.7
				c4-3,11.7-8.8,12.8-10c0.9-1,0.8-2,0.8-3.4c0-0.4,0-0.8,0-1.2c0.1-4.4,3.7-6.1,4.8-6.5c1.2-0.4,7-0.4,9.1-0.4l4.2-2.4
				c1.8-1.1,4-1.6,6.2-1.6s4.3,0.6,6.1,1.6l5.4,3h11.4c0.4,0,1,0.2,1.2,0.3l0.1,0.1l28.8,16.7h53.2l27.4-16.3
				c0.3-0.2,0.9-0.7,1.9-0.7h12.4l5.4-3c1.8-1.1,3.9-1.6,6.1-1.6s4.2,0.5,6.2,1.6l4.2,2.4C363,382.8,364.6,382.7,366.2,382.7z
				 M149.3,385.2L149.3,385.2L149.3,385.2z M394.2,385.1L394.2,385.1L394.2,385.1z"/>
		</g>
		<g>
			<rect x="103.1" y="283.1" width="358.8" height="2"/>
		</g>
		<g>
			<rect x="103" y="313.5" width="358.9" height="2"/>
		</g>
		<g>
			<rect x="642.4" y="283.1" width="562.3" height="2"/>
		</g>
		<g>
			<rect x="642.3" y="313.5" width="562.4" height="2"/>
		</g>
		<g>
			<rect x="1383.3" y="283.1" width="275.6" height="2"/>
		</g>
		<g>
			<rect x="1383.3" y="313.5" width="275.7" height="2"/>
		</g>
		<g>
			<path d="M1763.2,253.1h-17.7c-6.4,0-11.8-5.3-12-11.8v-29c0-6.6,5.3-11.9,11.9-11.9h11.6c6.1,0,10.5,4.4,11.9,11.7l6,28.4
				c0.1,0.5,0.1,1,0.1,1.4C1774.7,248.2,1769.5,253.1,1763.2,253.1z M1745.4,202.5c-5.5,0-9.9,4.4-9.9,9.9v29
				c0.2,5.4,4.7,9.8,10,9.8h17.7c5.2,0,9.5-4.1,9.8-9.3c0-0.3,0-0.6-0.1-0.9l-6-28.4c-1.2-6.4-4.8-10.1-9.9-10.1H1745.4z"/>
		</g>
		<g>
			<path d="M270.5,270.8h-67.8c-5,0-9.1-4.1-9.1-9.1v-54.3c0-5,4.1-9.1,9.1-9.1h67.8c5,0,9.1,4.1,9.1,9.1v54.2
				c0.1,2.4-0.9,4.7-2.6,6.4C275.3,269.8,273,270.8,270.5,270.8z M202.7,200.4c-3.9,0-7.1,3.2-7.1,7.1v54.3c0,3.9,3.2,7.1,7.1,7.1
				h67.8c1.9,0,3.7-0.8,5.1-2.2c1.3-1.4,2-3.1,2-5v-54.2c0-3.9-3.2-7.1-7.1-7.1H202.7z"/>
		</g>
		<g>
			<rect x="194.8" y="224.5" width="84" height="2"/>
		</g>
		<g>
			<path d="M427.8,270.8h-67.8c-5,0-9.1-4.1-9.1-9.1v-54.3c0-5,4.1-9.1,9.1-9.1h67.8c5,0,9.1,4.1,9.1,9.1v54.2
				c0.1,2.4-0.9,4.7-2.6,6.4C432.6,269.8,430.3,270.8,427.8,270.8z M360.1,200.4c-3.9,0-7.1,3.2-7.1,7.1v54.3c0,3.9,3.2,7.1,7.1,7.1
				h67.8c1.9,0,3.7-0.8,5.1-2.2c1.3-1.4,2-3.1,2-5v-54.2c0-3.9-3.2-7.1-7.1-7.1H360.1z"/>
		</g>
		<g>
			<rect x="352.2" y="224.5" width="84" height="2"/>
		</g>
		<g>
			<path d="M786.4,270.8h-67.8c-5,0-9.1-4.1-9.1-9.1v-54.3c0-5,4.1-9.1,9.1-9.1h67.8c5,0,9.1,4.1,9.1,9.1v54.2
				C795.4,266.7,791.4,270.8,786.4,270.8z M718.6,200.4c-3.9,0-7.1,3.2-7.1,7.1v54.3c0,3.9,3.2,7.1,7.1,7.1h67.8
				c3.9,0,7.1-3.2,7.1-7.2v-54.2c0-3.9-3.2-7.1-7.1-7.1H718.6z"/>
		</g>
		<g>
			<rect x="710.7" y="224.5" width="83.9" height="2"/>
		</g>
		<g>
			<path d="M917.2,270.8h-67.8c-5,0-9.1-4.1-9.1-9.1v-54.3c0-5,4.1-9.1,9.1-9.1h67.8c5,0,9.1,4.1,9.1,9.1v54.2
				C926.3,266.7,922.2,270.8,917.2,270.8z M849.4,200.4c-3.9,0-7.1,3.2-7.1,7.1v54.3c0,3.9,3.2,7.1,7.1,7.1h67.8
				c3.9,0,7.1-3.2,7.1-7.2v-54.2c0-3.9-3.2-7.1-7.1-7.1H849.4z"/>
		</g>
		<g>
			<rect x="841.5" y="224.5" width="84" height="2"/>
		</g>
		<g>
			<path d="M1049.1,270.8h-67.8c-5,0-9.1-4.1-9.1-9.1v-54.3c0-5,4.1-9.1,9.1-9.1h67.8c5,0,9.1,4.1,9.1,9.1v54.2
				C1058.2,266.7,1054.1,270.8,1049.1,270.8z M981.3,200.4c-3.9,0-7.1,3.2-7.1,7.1v54.3c0,3.9,3.2,7.1,7.1,7.1h67.8
				c3.9,0,7.1-3.2,7.1-7.2v-54.2c0-3.9-3.2-7.1-7.1-7.1H981.3z"/>
		</g>
		<g>
			<rect x="973.4" y="224.5" width="84" height="2"/>
		</g>
		<g>
			<path d="M1181.1,270.8h-67.8c-5,0-9.1-4.1-9.1-9.1v-54.3c0-5,4.1-9.1,9.1-9.1h67.8c5,0,9.1,4.1,9.1,9.1v54.2
				c0.1,2.4-0.9,4.7-2.6,6.4C1185.9,269.8,1183.6,270.8,1181.1,270.8z M1113.3,200.4c-3.9,0-7.1,3.2-7.1,7.1v54.3
				c0,3.9,3.2,7.1,7.1,7.1h67.8c1.9,0,3.7-0.8,5.1-2.2c1.3-1.4,2-3.1,2-5v-54.2c0-3.9-3.2-7.1-7.1-7.1H1113.3z"/>
		</g>
		<g>
			<rect x="1105.4" y="224.5" width="84" height="2"/>
		</g>
		<g>
			<path d="M1475.5,270.8h-67.8c-5,0-9.1-4.1-9.1-9.1v-54.3c0-5,4.1-9.1,9.1-9.1h67.8c5,0,9.1,4.1,9.1,9.1v54.2
				c0.1,2.4-0.9,4.7-2.6,6.4C1480.3,269.8,1477.9,270.8,1475.5,270.8z M1407.7,200.4c-3.9,0-7.1,3.2-7.1,7.1v54.3
				c0,3.9,3.2,7.1,7.1,7.1h67.8c1.9,0,3.7-0.8,5.1-2.2c1.3-1.4,2-3.1,2-5v-54.2c0-3.9-3.2-7.1-7.1-7.1H1407.7z"/>
		</g>
		<g>
			<rect x="1399.8" y="224.5" width="84" height="2"/>
		</g>
		<g>
			<path d="M1626.2,270.8h-67.8c-5,0-9.1-4.1-9.1-9.1v-54.3c0-5,4.1-9.1,9.1-9.1h67.8c5,0,9.1,4.1,9.1,9.1v54.2
				C1635.3,266.7,1631.2,270.8,1626.2,270.8z M1558.4,200.4c-3.9,0-7.1,3.2-7.1,7.1v54.3c0,3.9,3.2,7.1,7.1,7.1h67.8
				c3.9,0,7.1-3.2,7.1-7.2v-54.2c0-3.9-3.2-7.1-7.1-7.1H1558.4z"/>
		</g>
		<g>
			<rect x="1550.5" y="224.5" width="84" height="2"/>
		</g>
		<g>
			<path d="M1708.4,252.4H1697c-5.4,0-9.6-4.2-9.6-9.6v-31.4c0-5.3,4.3-9.6,9.6-9.6h11.4c5.3,0,9.6,4.3,9.6,9.6v31.4
				C1718,248.1,1713.7,252.4,1708.4,252.4z M1697,203.9c-4.2,0-7.6,3.4-7.6,7.6v31.4c0,4.3,3.3,7.6,7.6,7.6h11.4
				c4.2,0,7.6-3.4,7.6-7.6v-31.4c0-4.2-3.4-7.6-7.6-7.6H1697z"/>
		</g>
		<g>
			<path d="M1346.9,361.5h-107.2v-163c0-5.1,4.1-9.2,9.2-9.2h88.9c5.1,0,9.2,4.1,9.2,9.2L1346.9,361.5z M1241.7,359.5h103.2l0.1-161
				c0-4-3.2-7.2-7.2-7.2h-88.9c-4,0-7.2,3.2-7.2,7.2V359.5z"/>
		</g>
		<g>
			<path d="M1330,269.6h-21.6c-4,0-7.1-3.1-7.1-7.1V219c0-4,3.1-7.1,7.1-7.1h21.7c4,0,7.1,3.1,7.1,7.1v43.5
				C1337.1,266.5,1334,269.6,1330,269.6z M1308.4,213.9c-2.9,0-5.1,2.2-5.1,5.1v43.5c0,2.9,2.2,5.1,5.1,5.1h21.6
				c2.8,0,5.1-2.3,5.2-5.1V219c0-2.9-2.2-5.1-5.1-5.1L1308.4,213.9L1308.4,213.9z"/>
		</g>
		<g>
			<path d="M1278.4,269.6h-21.7c-4,0-7.1-3.1-7.1-7.1V219c0-4,3.1-7.1,7.1-7.1h21.7c4,0,7.1,3.1,7.1,7.1v43.5
				C1285.5,266.5,1282.4,269.6,1278.4,269.6z M1256.7,213.9c-2.9,0-5.1,2.2-5.1,5.1v43.5c0,2.9,2.2,5.1,5.1,5.1h21.7
				c2.9,0,5.1-2.2,5.1-5.1V219c0-2.9-2.2-5.1-5.1-5.1L1256.7,213.9L1256.7,213.9z"/>
		</g>
		<g>
			<rect x="1292.3" y="190" width="2" height="170.6"/>
		</g>
		<g>
			<path d="M605.7,361.5H498.4v-163c0-5.1,4.1-9.2,9.2-9.2h88.9c5.1,0,9.2,4.1,9.2,9.2V361.5z M500.4,359.5h103.3v-161
				c0-4-3.2-7.2-7.2-7.2h-88.9c-4,0-7.2,3.2-7.2,7.2V359.5z"/>
		</g>
		<g>
			<path d="M588.8,269.6h-21.7c-4,0-7.1-3.1-7.1-7.1V219c0-4,3.1-7.1,7.1-7.1h21.7c4,0,7.1,3.1,7.1,7.1v43.5
				C595.9,266.4,592.7,269.6,588.8,269.6z M567.1,213.9c-2.9,0-5.1,2.2-5.1,5.1v43.5c0,2.9,2.2,5.1,5.1,5.1h21.7
				c2.8,0,5.1-2.3,5.1-5.1V219c0-2.9-2.2-5.1-5.1-5.1L567.1,213.9L567.1,213.9z"/>
		</g>
		<g>
			<path d="M537.1,269.6h-21.7c-4,0-7.1-3.1-7.1-7.1V219c0-4,3.1-7.1,7.1-7.1h21.7c4,0,7.1,3.1,7.1,7.1v43.5
				C544.2,266.5,541,269.6,537.1,269.6z M515.4,213.9c-2.9,0-5.1,2.2-5.1,5.1v43.5c0,2.9,2.2,5.1,5.1,5.1h21.7
				c2.9,0,5.1-2.2,5.1-5.1V219c0-2.9-2.2-5.1-5.1-5.1L515.4,213.9L515.4,213.9z"/>
		</g>
		<g>
			<rect x="551" y="190" width="2" height="170.6"/>
		</g>
		<g>
			<path d="M1724.5,257.7h-43.8v-61.4h43.8V257.7z M1682.7,255.7h39.8v-57.4h-39.8V255.7z"/>
		</g>
		<g>
			<path d="M949,380.4h-27.7v-22.3H949V380.4z M923.3,378.4H947v-18.3h-23.7V378.4z"/>
		</g>
		<g>
			<path d="M976.1,380.4h-27.7v-22.3h27.7V380.4z M950.4,378.4h23.7v-18.3h-23.7V378.4z"/>
		</g>
		<g>
			<path d="M1022.6,397.4h-47v-39.3h47V397.4z M977.6,395.4h43v-35.3h-43V395.4z"/>
		</g>
		<g>
			<path d="M1069.3,397.4h-47v-39.3h47V397.4z M1024.3,395.4h43v-35.3h-43V395.4z"/>
		</g>
		<g>
			<path d="M1177.3,375.2H1069v-17.1h108.3V375.2z M1071,373.2h104.3v-13.1H1071V373.2z"/>
		</g>
		<g>
			<polygon points="510.1,133.9 509.9,115.6 592.8,115.6 592.8,133.9 590.8,133.9 590.8,117.6 512,117.6 512.1,133.9 			"/>
		</g>
		<g>
			<rect x="522.3" y="116.6" width="2" height="17.2"/>
		</g>
		<g>
			<rect x="536.1" y="116.6" width="2" height="17.2"/>
		</g>
		<g>
			<rect x="550" y="116.6" width="2" height="17.2"/>
		</g>
		<g>
			<rect x="563.8" y="116.6" width="2" height="17.2"/>
		</g>
		<g>
			<rect x="577.7" y="116.6" width="2" height="17.2"/>
		</g>
		<g>
			<polygon points="1251.7,134.2 1251.6,115.8 1334.4,115.8 1334.4,134.1 1332.4,134.1 1332.4,117.8 1253.6,117.8 1253.7,134.2 			
				"/>
		</g>
		<g>
			<rect x="1263.9" y="116.9" width="2" height="17.1"/>
		</g>
		<g>
			<rect x="1277.7" y="116.9" width="2" height="17.1"/>
		</g>
		<g>
			<rect x="1291.6" y="116.9" width="2" height="17.1"/>
		</g>
		<g>
			<rect x="1305.4" y="116.9" width="2" height="17.1"/>
		</g>
		<g>
			<rect x="1319.3" y="116.9" width="2" height="17.1"/>
		</g>
		<g>
			<rect x="605.1" y="178.1" width="635.8" height="2"/>
		</g>
		<g>
			<rect x="1346.2" y="178.1" width="426" height="2"/>
		</g>
		<g>
			<rect x="75.7" y="178.1" width="423.9" height="2"/>
		</g>
		<g>
			<polygon points="73.8,359.7 56.7,337.9 51.9,337.9 51.9,151.7 61.5,151.7 74.3,144.2 75.3,146 62.1,153.7 53.9,153.7 53.9,335.9 
				57.7,335.9 75.4,358.5 			"/>
		</g>
		<g>
			<polygon points="68.5,351.6 36.5,351.6 36.5,338.9 59.6,338.9 59.6,340.9 38.5,340.9 38.5,349.6 68.5,349.6 			"/>
		</g>
		<g>
			<polygon points="53.1,333.2 35.9,333.2 35.9,156.9 53.1,156.9 53.1,158.9 37.9,158.9 37.9,331.2 53.1,331.2 			"/>
		</g>
		<g>
			<path d="M74.6,372.1c-2.9,0-3.1-0.1-3.3-0.4c-0.4-0.4-0.5-0.5-0.3-16.1h2c-0.1,4.7-0.1,12.1-0.1,14.5c1.3,0,4.3,0,7.2-0.1v-11.2
				h2V372h-1C78.1,372.1,76,372.1,74.6,372.1z M72.3,370.1L72.3,370.1L72.3,370.1z"/>
		</g>
		<g>
			<polygon points="38.3,351.6 5.3,351.6 5.3,349.6 36.3,349.6 36.3,340.9 14,340.9 14,338.9 38.3,338.9 			"/>
		</g>
	</g>
	<polygon class="st3" points="21.2,157.9 21.2,152.7 12.3,152.7 0,145.4 0,358.6 17,336.6 21.2,336.6 21.2,332.2 36.9,332.2 
		36.9,157.9 	"/>
	<polygon points="12.2,151.5 0,144.4 0,146.8 11.6,153.5 19.8,153.5 19.8,335.6 16.1,335.6 0,356.5 0,359.7 0,359.7 17.1,337.6 
		21.8,337.6 21.8,151.5 	"/>
	<g>
		<polygon points="37.9,333.2 20.7,333.2 20.7,331.2 35.9,331.2 35.9,158.9 20.7,158.9 20.7,156.9 37.9,156.9 		"/>
	</g>
</g>
</svg>
