<?xml version="1.0" encoding="utf-8"?>
<!-- Generator: Adobe Illustrator 22.0.1, SVG Export Plug-In . SVG Version: 6.00 Build 0)  -->
<svg version="1.1" id="Type_69_D" xmlns="http://www.w3.org/2000/svg" xmlns:xlink="http://www.w3.org/1999/xlink" x="0px" y="0px"
	 viewBox="0 0 1855 426" style="enable-background:new 0 0 1855 426;" xml:space="preserve">
<metadata><?xpacket begin="﻿" id="W5M0MpCehiHzreSzNTczkc9d"?>
<x:xmpmeta xmlns:x="adobe:ns:meta/" x:xmptk="Adobe XMP Core 5.6-c143 79.161210, 2017/08/11-10:28:36        ">
   <rdf:RDF xmlns:rdf="http://www.w3.org/1999/02/22-rdf-syntax-ns#">
      <rdf:Description rdf:about=""/>
   </rdf:RDF>
</x:xmpmeta>
                                                                                                    
                                                                                                    
                                                                                                    
                                                                                                    
                                                                                                    
                                                                                                    
                                                                                                    
                                                                                                    
                                                                                                    
                                                                                                    
                                                                                                    
                                                                                                    
                                                                                                    
                                                                                                    
                                                                                                    
                                                                                                    
                                                                                                    
                                                                                                    
                                                                                                    
                                                                                                    
                           
<?xpacket end="w"?></metadata>
<style type="text/css">
	.st0{fill:#FFBF3F;}
	.st1{fill:#212322;}
	.st2{fill:#B1B3B3;}
	.st3{fill:#444445;}
	.st4{fill:#DA291C;}
	.st5{fill:#30302F;}
	.st6{fill:#878787;}
	.st7{fill:#FA4616;}
	.st8{fill:none;stroke:#000000;stroke-width:2;stroke-miterlimit:10;}
</style>
<g id="Mål_2_">
</g>
<g id="Farger_2_">
	<g id="Grunnfarger">
		<path class="st0" d="M1762.5,383.5h9.9l0.3-12.7h-4.7c2-2.8,5.2-6.4,9.6-10.4l-100.4,0.1v9.6l18.6,29h82.5
			C1787.3,401.2,1762.4,394.5,1762.5,383.5z"/>
		<path class="st1" d="M1620.3,406.8c5.4,7.6,14.2,12.6,24.2,12.6c13,0,24-8.4,28-20l-0.1,0.3c4.2,3.7,9.4,6.6,9.4,6.6l0.2,0.1
			c0,0,2-6.8,5.6-5.5c0,0,0.9-14.7,0.3-15.4s-15.2-9.5-15.2-9.5c-0.4-0.2-1.6-1.1-2.5-1.8c-0.7-0.5-1.4-1.2-1.9-1.9
			c-5.4-7.3-14.1-12.1-23.8-12.1l-37.1-0.1l-15.4,6.2h-6.4v-6.4c0,0-40-0.3-41,0l-0.1,6.4h-6.3l-14.6-5.9l-38.3-0.3
			c-9.8,0-17.4,3.9-23.1,11.3c0,0.1-2.6,2.6-3.5,3.2c-4.4,2.7-16.1,10.1-16.5,10.7c-0.6,0.7,0.3,15.4,0.3,15.4
			c3.6-1.3,5.6,5.5,5.6,5.5s5.1-3.6,9.3-6.8c4,11.5,15,19.8,27.9,19.8c9.5,0,18-4.5,23.4-11.5v0.3l5.1-0.5v1.5h41.5v-7.3v0.1h18.8
			v-0.1v7.3h41.5l4.5-2.3L1620.3,406.8"/>
		<polyline class="st2" points="1693.6,136.3 75.7,136.3 75.7,360.8 75.7,360.8 442.6,360.8 479.8,382.5 623.7,382.5 661.7,360.6 
			1185.1,360.6 1221.4,382.5 1359.7,382.5 1396.6,360.6 1783.9,360.6 1783.9,305.4 1789.4,302.9 1789.4,277.8 1785.1,275.8 
			1785.1,272 1788.9,269.2 1761.4,151.3 1757.4,151.3 1757.4,132.9 1693.6,132.9 1693.6,136.3 		"/>
		<polygon class="st1" points="1784.2,357 1819.6,357 1819.6,332.8 1784.1,332.8 		"/>
		<polygon class="st1" points="1822.1,320.2 1791.2,320.2 1805,311.2 1817.2,311.2 		"/>
		<path class="st1" d="M327.5,407.5c5.4,7.6,14.2,12.6,24.2,12.6c13,0,24-8.4,28-20l-0.1,0.3c4.2,3.7,9.4,6.6,9.4,6.6l0.2,0.1
			c0,0,2-6.8,5.6-5.5c0,0,0.9-14.7,0.3-15.4s-15.2-9.5-15.2-9.5c-0.4-0.2-1.6-1.1-2.5-1.8c-0.7-0.5-1.4-1.2-1.9-1.9
			c-5.4-7.3-14.1-12.1-23.8-12.1l-37.1-0.1l-15.4,6.2h-6.4v-6.4c0,0-40-0.3-40.3,0l-0.1,6.4h-7l-14.6-5.9l-38.3-0.3
			c-9.8,0-17.4,3.9-23.1,11.3c0,0.1-2.6,2.6-3.5,3.2c-4.4,2.7-16.1,10.1-16.5,10.7c-0.6,0.7,0.3,15.4,0.3,15.4
			c3.6-1.3,5.6,5.5,5.6,5.5s5.1-3.6,9.3-6.8c4,11.5,15,19.8,27.9,19.8c9.5,0,18-4.5,23.4-11.5v0.3l5.1-0.5v1.5h41.5v-7.3v0.1h18.8
			v-0.1v7.3h41.5l4.5-2.3L327.5,407.5"/>
		<polyline class="st2" points="1181.1,135.5 1217.9,113.5 1241.2,113.5 1241.2,109.8 1341.7,109.8 1341.7,113 1362.2,113 
			1404.1,135.5 		"/>
		<polyline class="st2" points="441.3,135.4 478.1,113.3 501.4,113.3 501.4,109.6 602,109.6 602,112.8 622.5,112.8 664.3,135.4 		
			"/>
		<polyline class="st1" points="511.6,134.9 511.5,117.6 592.1,117.6 592.1,134.8 		"/>
		<polyline class="st1" points="1250.9,135.6 1250.9,118.3 1331.4,118.3 1331.4,135.5 		"/>
		<polygon class="st1" points="1173.6,360.8 1065.7,360.8 1065.7,359.6 1027.5,359.6 1027.5,359.6 974.2,359.6 974.2,360.5 
			949.5,360.5 946,360.5 920.3,360.5 920.3,380.8 946,380.8 949.5,380.8 974.2,380.8 974.2,396.8 1020.8,396.8 1027.5,396.8 
			1065.7,396.8 1065.7,375.8 1173.6,375.8 		"/>
		<polygon class="st3" points="62.7,153.9 53.8,153.9 53.8,159 37.3,159 37.3,333.4 53.8,333.4 53.8,338.1 58.1,338.1 75.5,360.5 
			75.7,146.2 		"/>
		<polygon class="st3" points="69.6,351.8 38.4,351.8 38.4,341.2 62.3,341.2 		"/>
		<polygon class="st3" points="6.9,351.8 38.9,351.8 38.9,341.2 13.2,341.2 		"/>
		<polygon class="st3" points="37.8,159 22.1,159 22.1,153.9 13.2,153.9 0.3,146.2 0.5,360.5 17.9,337.8 22.1,337.8 22.1,333.4 
			37.8,333.4 		"/>
		<path class="st3" d="M82.3,360.5l-6.1-0.1l-3-3.1c0,0-0.2,14.9,0,15.1c0.2,0.2,9.1,0,9.1,0v-12.2"/>
	</g>
	<g id="Profilering_3_">
		<path id="rødt_nederst_8_" class="st4" d="M76.4,273.8v80.6c0,3.8-0.1,7.1-0.1,7.1l366.8-0.2l37.7,20.9l143.1-0.4l37.9-21.1
			l524.6-0.7l35.9,23l137,0.1l37.7-22.1l386.5,0.1c0.1-0.2,0.1-2.6,0.1-6.4l0.6-48.7l5.6-3h-73.3l-26-29.3H76.4V273.8z"/>
		<polygon id="sort_bak_vinduer_8_" class="st5" points="1690.7,273.8 1627.4,200.2 76.1,200.2 76.1,274 		"/>
		<polygon class="st4" points="1772.8,200.2 1765.4,166.8 237.3,166.8 204.9,200.1 		"/>
		<g>
			<rect x="75.6" y="297.1" class="st2" width="1712.9" height="6.7"/>
		</g>
		<g>
			<polygon class="st2" points="75.8,314.6 75.8,311.2 320.7,311.1 453.4,172.6 1607.6,172.6 1727,311.2 1786.5,311.2 1786.5,314.6 
				1725.4,314.6 1606,176 454.9,176 322.2,314.5 			"/>
		</g>
	</g>
	<g id="Dører_og_vinduer_3_">
		<path class="st6" d="M427.5,271.4h-67.6c-4.5,0-8.1-3.6-8.1-8.1v-54c0-4.5,3.6-8.1,8.1-8.1h67.6c4.5,0,8.1,3.6,8.1,8.1v54
			C435.6,267.8,432,271.4,427.5,271.4z"/>
		<path class="st6" d="M270.6,271.4H203c-4.5,0-8.1-3.6-8.1-8.1v-54c0-4.5,3.6-8.1,8.1-8.1h67.6c4.5,0,8.1,3.6,8.1,8.1v54
			C278.7,267.8,275.1,271.4,270.6,271.4z"/>
		<path class="st6" d="M1178.3,271.4h-67.6c-4.5,0-8.1-3.6-8.1-8.1v-54c0-4.5,3.6-8.1,8.1-8.1h67.6c4.5,0,8.1,3.6,8.1,8.1v54
			C1186.4,267.8,1182.8,271.4,1178.3,271.4z"/>
		<path class="st6" d="M1046.7,271.4h-67.6c-4.5,0-8.1-3.6-8.1-8.1v-54c0-4.5,3.6-8.1,8.1-8.1h67.6c4.5,0,8.1,3.6,8.1,8.1v54
			C1054.8,267.8,1051.2,271.4,1046.7,271.4z"/>
		<path class="st6" d="M915.3,271.4h-67.6c-4.5,0-8.1-3.6-8.1-8.1v-54c0-4.5,3.6-8.1,8.1-8.1h67.6c4.5,0,8.1,3.6,8.1,8.1v54
			C923.4,267.8,919.7,271.4,915.3,271.4z"/>
		<path class="st6" d="M784.8,271.4h-67.6c-4.5,0-8.1-3.6-8.1-8.1v-54c0-4.5,3.6-8.1,8.1-8.1h67.6c4.5,0,8.1,3.6,8.1,8.1v54
			C792.9,267.8,789.2,271.4,784.8,271.4z"/>
		<rect x="499.1" y="137.6" class="st7" width="105" height="224.4"/>
		<rect x="1238" y="137.1" class="st7" width="105" height="224.4"/>
		<path class="st6" d="M587.8,270.3h-21.6c-3.4,0-6.1-2.7-6.1-6.1v-43.3c0-3.4,2.7-6.1,6.1-6.1h21.6c3.4,0,6.1,2.7,6.1,6.1v43.3
			C593.9,267.6,591.2,270.3,587.8,270.3z"/>
		<path class="st6" d="M536.3,270.3h-21.6c-3.4,0-6.1-2.7-6.1-6.1v-43.3c0-3.4,2.7-6.1,6.1-6.1h21.6c3.4,0,6.1,2.7,6.1,6.1v43.3
			C542.4,267.6,539.7,270.3,536.3,270.3z"/>
		<path class="st6" d="M1326.9,270.3h-21.6c-3.4,0-6.1-2.7-6.1-6.1v-43.3c0-3.4,2.7-6.1,6.1-6.1h21.6c3.4,0,6.1,2.7,6.1,6.1v43.3
			C1332.9,267.6,1330.2,270.3,1326.9,270.3z"/>
		<path class="st6" d="M1275.4,270.3h-21.6c-3.4,0-6.1-2.7-6.1-6.1v-43.3c0-3.4,2.7-6.1,6.1-6.1h21.6c3.4,0,6.1,2.7,6.1,6.1v43.3
			C1281.5,267.6,1278.7,270.3,1275.4,270.3z"/>
		<path class="st6" d="M1622,271.4h-67.6c-4.5,0-8.1-3.6-8.1-8.1v-54c0-4.5,3.6-8.1,8.1-8.1h67.6c4.5,0,8.1,3.6,8.1,8.1v54
			C1630.1,267.8,1626.4,271.4,1622,271.4z"/>
		<path class="st6" d="M1471.8,271.4h-67.6c-4.5,0-8.1-3.6-8.1-8.1v-54c0-4.5,3.6-8.1,8.1-8.1h67.6c4.5,0,8.1,3.6,8.1,8.1v54
			C1479.9,267.8,1476.2,271.4,1471.8,271.4z"/>
		<path class="st6" d="M1692.6,253.2h11.3c4.7,0,8.6-3.8,8.6-8.6v-31.3c0-4.7-3.8-8.6-8.6-8.6h-11.3c-4.7,0-8.6,3.8-8.6,8.6v31.3
			C1684,249.3,1687.9,253.2,1692.6,253.2z"/>
		<path class="st2" d="M1741,253.8h17.6c5.8,0,10.5-4.5,10.8-10.2c0-0.4,0-0.8-0.1-1.2l-6-28.3c-1.2-6.4-4.8-10.8-10.8-10.8H1741
			c-6,0-10.8,4.8-10.8,10.8V243C1730.2,249,1735,253.8,1741,253.8z"/>
	</g>
</g>
<g id="Omriss_2_">
	<path class="st8" d="M1677.4,360.3v9.6l18.6,29h82.5c0,0-34.8-7.8-1.4-38.2"/>
	<path class="st8" d="M1719.5,360.8c-9.6,1.1-24,3.8-19.1,19.2s23.1,18.3,25.9,19"/>
	<polyline class="st8" points="1712.6,361.5 1767.9,370.8 1772.4,370.8 1772.4,383 1762.9,383 	"/>
	<polygon class="st8" points="1693.6,136.3 75.7,136.3 75.7,360.8 75.7,360.8 442.6,360.8 479.8,382.5 623.7,382.5 661.7,360.6 
		1185.1,360.6 1221.4,382.5 1359.7,382.5 1396.6,360.6 1783.9,360.6 1783.9,305.4 1789.4,302.9 1789.4,277.8 1785.1,275.8 
		1785.1,272 1788.9,269.2 1761.4,151.3 1757.4,151.3 1757.4,132.9 1693.6,132.9 	"/>
	<path class="st8" d="M1847.5,367.1c-0.3-0.3-10.3-10.1-10.3-10.1h-17.5"/>
	<line class="st8" x1="1781.1" y1="360.5" x2="1781.1" y2="371.1"/>
	<line class="st8" x1="1775.7" y1="371.1" x2="1786.2" y2="371.1"/>
	<line class="st8" x1="1340.6" y1="113.8" x2="1340.6" y2="136.4"/>
	<line class="st8" x1="1240.1" y1="114.3" x2="1240.1" y2="136.3"/>
	<line class="st8" x1="600.8" y1="113.8" x2="600.8" y2="136.3"/>
	<line class="st8" x1="500.3" y1="114.2" x2="500.3" y2="136.3"/>
	<polyline class="st8" points="440.1,136.2 476.9,114.2 500.3,114.2 500.3,110.4 600.8,110.4 600.8,113.8 621.3,113.8 663.1,136.2 	
		"/>
	<polyline class="st8" points="1179.9,136.4 1216.7,114.3 1240.1,114.3 1240.1,110.6 1340.6,110.6 1340.6,113.8 1361.1,113.8 
		1402.9,136.4 	"/>
	<polyline class="st8" points="1508.7,408.2 1513.8,407.8 1513.8,409.1 1555.4,409.1 1555.4,401.8 	"/>
	<polyline class="st8" points="1525.4,394.3 1525.4,402 1538.5,402 	"/>
	<polyline class="st8" points="1620.2,406.8 1615.7,409.1 1574.1,409.1 1574.1,401.8 	"/>
	<polyline class="st8" points="1599.6,397.5 1603.5,402 1592.2,402 	"/>
	<line class="st8" x1="1584.8" y1="360.5" x2="1584.8" y2="366.8"/>
	<line class="st8" x1="1544.5" y1="366.8" x2="1544.5" y2="360.5"/>
	<circle class="st8" cx="1485.8" cy="389.8" r="4.3"/>
	<circle class="st8" cx="1644.7" cy="390" r="4.3"/>
	<path class="st8" d="M1672.5,399.3c-4,11.6-15,20-28,20c-16.3,0-29.6-13.3-29.6-29.6c0-1,0-1.5,0-1.5"/>
	<path class="st8" d="M1669.6,397c-3.5,10.3-13.3,17.9-24.7,17.9c-14.4,0-26-11.7-26-26.2c0-0.9,0.1-2.1,0.1-2.1"/>
	<path class="st8" d="M1514.7,388l0.2,1.8c0,16.3-13.3,29.6-29.6,29.6c-12.9,0-23.9-8.3-27.9-19.8"/>
	<path class="st8" d="M1510.4,386.5l0.2,1.6c0,14.5-11.5,26.2-25.7,26.2c-11.2,0-20.7-7.3-24.2-17.6"/>
	<path class="st8" d="M1462.2,371.5c0,0.1-2.6,2.6-3.5,3.2c-4.4,2.7-16.1,10.1-16.5,10.7c-0.6,0.7,0.3,15.4,0.3,15.4
		c3.6-1.3,5.6,5.5,5.6,5.5s12.4-9.2,13.9-10.8s1-3.4,1-5.2c0.1-3.4,2.6-5,4.2-5.6c1.2-0.4,9-0.3,9-0.3l4.4-2.5
		c1.7-1,3.7-1.5,5.7-1.5l0,0c2,0,3.9,0.5,5.6,1.5l5.6,3.1h11.6c0.3,0,0.8,0.2,0.8,0.2l28.9,16.8h53.6l27.6-16.4c0,0,0.5-0.5,1.3-0.5
		s1,0,1,0h11.6l5.6-3.1c1.7-1,3.6-1.5,5.6-1.5l0,0c2,0,3.9,0.5,5.7,1.5l4.4,2.5c0,0,6.6-0.2,7.8,0.1c1,0.2,4.7,1.5,4.7,7.4
		c0,6.3,14.5,14.3,14.5,14.3l0.2,0.1c0,0,2-6.8,5.6-5.5c0,0,0.9-14.7,0.3-15.4s-15.2-9.5-15.2-9.5c-0.4-0.2-1.6-1.1-2.5-1.7
		c-0.7-0.5-1.4-1.2-1.9-1.9c-5.4-7.3-14.1-12.1-23.9-12.1h-37.1l-15.4,6.2h-53.8l-14.6-5.9l-38.3-0.3l0,0
		C1475.5,360.1,1467.9,364,1462.2,371.5"/>
	<polyline class="st8" points="1784.2,357 1819.6,357 1819.6,332.8 1784.1,332.8 	"/>
	<polygon class="st8" points="1822.1,320.2 1791.2,320.2 1805,311.2 1817.2,311.2 	"/>
	<polyline class="st8" points="1825.4,357.1 1836.1,348.6 1836.1,339.8 1825.8,320.2 1822.1,320.2 	"/>
	<line class="st8" x1="1804.1" y1="320.2" x2="1804.1" y2="332.8"/>
	<polyline class="st8" points="215.6,409 220.7,408.5 220.7,410 262.2,410 262.2,402.6 	"/>
	<polyline class="st8" points="232.3,395.1 232.3,402.8 245.4,402.8 	"/>
	<polyline class="st8" points="327,407.6 322.5,410 281,410 281,402.6 	"/>
	<polyline class="st8" points="306.5,398.3 310.4,402.8 299.1,402.8 	"/>
	<line class="st8" x1="292.4" y1="360.8" x2="292.4" y2="367"/>
	<line class="st8" x1="252.1" y1="367" x2="252.1" y2="360.8"/>
	<circle class="st8" cx="192.7" cy="390.6" r="4.3"/>
	<circle class="st8" cx="351.5" cy="390.8" r="4.3"/>
	<path class="st8" d="M379.3,400.1c-4,11.6-15,20-28,20c-16.3,0-29.6-13.3-29.6-29.6c0-1,0-1.5,0-1.5"/>
	<path class="st8" d="M376.4,397.8c-3.5,10.3-13.3,17.9-24.7,17.9c-14.4,0-26-11.7-26-26.2c0-0.9,0.1-2.1,0.1-2.1"/>
	<path class="st8" d="M221.5,388.8l0.2,1.8c0,16.3-13.3,29.6-29.6,29.6c-12.9,0-23.9-8.3-27.9-19.8"/>
	<path class="st8" d="M217.3,387.3l0.2,1.6c0,14.5-11.5,26.2-25.7,26.2c-11.2,0-20.7-7.3-24.2-17.6"/>
	<path class="st8" d="M169,372.3c0,0.1-2.6,2.6-3.5,3.2c-4.4,2.7-16.1,10.1-16.5,10.7c-0.6,0.7,0.3,15.4,0.3,15.4
		c3.6-1.3,5.6,5.5,5.6,5.5s12.4-9.2,13.9-10.8s1-3.4,1-5.2c0.1-3.4,2.6-5,4.2-5.6c1.2-0.4,9-0.3,9-0.3l4.4-2.5
		c1.7-1,3.7-1.5,5.7-1.5l0,0c2,0,3.9,0.5,5.6,1.5l5.6,3.1h11.6c0.3,0,0.8,0.2,0.8,0.2l28.9,16.8h53.6l27.6-16.4c0,0,0.5-0.5,1.3-0.5
		s1,0,1,0h11.6l5.6-3.1c1.7-1,3.6-1.5,5.6-1.5l0,0c2,0,3.9,0.5,5.7,1.5l4.4,2.5c0,0,6.6-0.2,7.8,0.1c1,0.2,4.7,1.5,4.7,7.4
		c0,6.3,14.5,14.3,14.5,14.3l0.2,0.1c0,0,2-6.8,5.6-5.5c0,0,0.9-14.7,0.3-15.4s-15.2-9.5-15.2-9.5c-0.4-0.2-1.6-1.1-2.5-1.7
		c-0.7-0.5-1.4-1.2-1.9-1.9c-5.4-7.3-14.1-12.1-23.9-12.1h-37.1l-15.4,6.2H245l-14.6-5.9l-38.3-0.3l0,0
		C182.3,361,174.8,364.8,169,372.3"/>
	<line class="st8" x1="117" y1="285.8" x2="461.5" y2="285.8"/>
	<line class="st8" x1="117" y1="316.1" x2="461.5" y2="316.1"/>
	<line class="st8" x1="641.2" y1="285.8" x2="1201.7" y2="285.8"/>
	<line class="st8" x1="641.2" y1="316.1" x2="1201.7" y2="316.1"/>
	<line class="st8" x1="1379.8" y1="285.8" x2="1654.7" y2="285.8"/>
	<line class="st8" x1="1379.8" y1="316.1" x2="1654.7" y2="316.1"/>
	<path class="st8" d="M1741,253.8h17.6c5.8,0,10.5-4.5,10.8-10.2c0-0.4,0-0.8-0.1-1.2l-6-28.3c-1.2-6.4-4.8-10.8-10.8-10.8H1741
		c-6,0-10.8,4.8-10.8,10.8V243C1730.2,248.9,1735,253.8,1741,253.8z"/>
	<path class="st8" d="M270.6,271.4H203c-4.5,0-8.1-3.6-8.1-8.1v-54c0-4.5,3.6-8.1,8.1-8.1h67.6c4.5,0,8.1,3.6,8.1,8.1v54
		C278.7,267.8,275.1,271.4,270.6,271.4z"/>
	<line class="st8" x1="195.2" y1="227.3" x2="278.9" y2="227.3"/>
	<path class="st8" d="M427.5,271.4h-67.6c-4.5,0-8.1-3.6-8.1-8.1v-54c0-4.5,3.6-8.1,8.1-8.1h67.6c4.5,0,8.1,3.6,8.1,8.1v54
		C435.6,267.8,432,271.4,427.5,271.4z"/>
	<line class="st8" x1="352" y1="227.3" x2="435.7" y2="227.3"/>
	<path class="st8" d="M784.8,271.4h-67.6c-4.5,0-8.1-3.6-8.1-8.1v-54c0-4.5,3.6-8.1,8.1-8.1h67.6c4.5,0,8.1,3.6,8.1,8.1v54
		C792.9,267.8,789.2,271.4,784.8,271.4z"/>
	<line class="st8" x1="709.3" y1="227.3" x2="793" y2="227.3"/>
	<path class="st8" d="M915.3,271.4h-67.6c-4.5,0-8.1-3.6-8.1-8.1v-54c0-4.5,3.6-8.1,8.1-8.1h67.6c4.5,0,8.1,3.6,8.1,8.1v54
		C923.4,267.8,919.7,271.4,915.3,271.4z"/>
	<line class="st8" x1="839.8" y1="227.3" x2="923.5" y2="227.3"/>
	<path class="st8" d="M1046.7,271.4h-67.6c-4.5,0-8.1-3.6-8.1-8.1v-54c0-4.5,3.6-8.1,8.1-8.1h67.6c4.5,0,8.1,3.6,8.1,8.1v54
		C1054.8,267.8,1051.2,271.4,1046.7,271.4z"/>
	<line class="st8" x1="971.3" y1="227.3" x2="1055" y2="227.3"/>
	<path class="st8" d="M1178.3,271.4h-67.6c-4.5,0-8.1-3.6-8.1-8.1v-54c0-4.5,3.6-8.1,8.1-8.1h67.6c4.5,0,8.1,3.6,8.1,8.1v54
		C1186.4,267.8,1182.8,271.4,1178.3,271.4z"/>
	<line class="st8" x1="1102.9" y1="227.3" x2="1186.6" y2="227.3"/>
	<path class="st8" d="M1471.8,271.4h-67.6c-4.5,0-8.1-3.6-8.1-8.1v-54c0-4.5,3.6-8.1,8.1-8.1h67.6c4.5,0,8.1,3.6,8.1,8.1v54
		C1479.9,267.8,1476.2,271.4,1471.8,271.4z"/>
	<line class="st8" x1="1396.3" y1="227.3" x2="1480" y2="227.3"/>
	<path class="st8" d="M1622,271.4h-67.6c-4.5,0-8.1-3.6-8.1-8.1v-54c0-4.5,3.6-8.1,8.1-8.1h67.6c4.5,0,8.1,3.6,8.1,8.1v54
		C1630.1,267.8,1626.4,271.4,1622,271.4z"/>
	<line class="st8" x1="1546.5" y1="227.3" x2="1630.2" y2="227.3"/>
	<path class="st8" d="M1692.6,253.2h11.3c4.7,0,8.6-3.8,8.6-8.6v-31.3c0-4.7-3.8-8.6-8.6-8.6h-11.3c-4.7,0-8.6,3.8-8.6,8.6v31.3
		C1684,249.3,1687.9,253.2,1692.6,253.2z"/>
	<path class="st8" d="M1342.7,362h-104.9V200.4c0-4.5,3.6-8.1,8.1-8.1h88.6c4.5,0,8.1,3.6,8.1,8.1V362H1342.7z"/>
	<path class="st8" d="M1326.9,270.3h-21.6c-3.4,0-6.1-2.7-6.1-6.1v-43.3c0-3.4,2.7-6.1,6.1-6.1h21.6c3.4,0,6.1,2.7,6.1,6.1v43.3
		C1332.9,267.5,1330.2,270.3,1326.9,270.3z"/>
	<path class="st8" d="M1275.4,270.3h-21.6c-3.4,0-6.1-2.7-6.1-6.1v-43.3c0-3.4,2.7-6.1,6.1-6.1h21.6c3.4,0,6.1,2.7,6.1,6.1v43.3
		C1281.5,267.5,1278.7,270.3,1275.4,270.3z"/>
	<line class="st8" x1="1290.2" y1="191.9" x2="1290.2" y2="362"/>
	<path class="st8" d="M603.6,362H498.7V200.4c0-4.5,3.6-8.1,8.1-8.1h88.6c4.5,0,8.1,3.6,8.1,8.1L603.6,362L603.6,362z"/>
	<path class="st8" d="M587.8,270.3h-21.6c-3.4,0-6.1-2.7-6.1-6.1v-43.3c0-3.4,2.7-6.1,6.1-6.1h21.6c3.4,0,6.1,2.7,6.1,6.1v43.3
		C593.9,267.5,591.2,270.3,587.8,270.3z"/>
	<path class="st8" d="M536.3,270.3h-21.6c-3.4,0-6.1-2.7-6.1-6.1v-43.3c0-3.4,2.7-6.1,6.1-6.1h21.6c3.4,0,6.1,2.7,6.1,6.1v43.3
		C542.4,267.5,539.7,270.3,536.3,270.3z"/>
	<line class="st8" x1="551.2" y1="191.9" x2="551.2" y2="362"/>
	<rect x="1677.4" y="199.2" class="st8" width="41.7" height="59.2"/>
	<rect x="920.3" y="360.5" class="st8" width="25.7" height="20.2"/>
	<rect x="947.4" y="360.5" class="st8" width="25.7" height="20.2"/>
	<rect x="974.5" y="360.5" class="st8" width="44.9" height="37.2"/>
	<rect x="1021.1" y="360.5" class="st8" width="44.9" height="37.2"/>
	<rect x="1067.6" y="360.5" class="st8" width="105.9" height="15"/>
	<polyline class="st8" points="510.4,136 510.3,118.6 590.8,118.6 590.8,135.9 	"/>
	<line class="st8" x1="522.6" y1="135.8" x2="522.6" y2="118.8"/>
	<line class="st8" x1="536.4" y1="135.8" x2="536.4" y2="118.8"/>
	<line class="st8" x1="550.2" y1="135.8" x2="550.2" y2="118.8"/>
	<line class="st8" x1="564" y1="135.8" x2="564" y2="118.8"/>
	<line class="st8" x1="577.7" y1="135.8" x2="577.7" y2="118.8"/>
	<polyline class="st8" points="1249.7,136.2 1249.7,118.9 1330.2,118.9 1330.2,136.1 	"/>
	<line class="st8" x1="1261.9" y1="136.1" x2="1261.9" y2="118.9"/>
	<line class="st8" x1="1275.7" y1="136.1" x2="1275.7" y2="118.9"/>
	<line class="st8" x1="1289.5" y1="136.1" x2="1289.5" y2="118.9"/>
	<line class="st8" x1="1303.3" y1="136.1" x2="1303.3" y2="118.9"/>
	<line class="st8" x1="1317.1" y1="136.1" x2="1317.1" y2="118.9"/>
	<line class="st8" x1="604.1" y1="180.9" x2="1237.8" y2="180.9"/>
	<line class="st8" x1="1343" y1="180.9" x2="1767.6" y2="180.9"/>
	<line class="st8" x1="76.5" y1="180.9" x2="499" y2="180.9"/>
	<polyline class="st8" points="75.7,146.2 62.7,153.9 53.8,153.9 53.8,338.1 58.1,338.1 75.5,360.5 	"/>
	<polyline class="st8" points="60.5,341.2 38.4,341.2 38.4,351.8 69.4,351.8 	"/>
	<polyline class="st8" points="54,159 37.8,159 37.8,333.4 54,333.4 	"/>
	<path class="st8" d="M82,360.1v12.2c0,0-8.9,0.2-9.1,0s0-15.4,0-15.4"/>
	<polyline class="st8" points="-0.1,146.2 12.8,153.8 21.7,153.8 21.7,337.8 17.5,337.8 0.1,360.5 	"/>
	<polyline class="st8" points="14.9,341.2 38.2,341.2 38.2,351.8 6.2,351.8 	"/>
	<polyline class="st8" points="21.6,159 37.8,159 37.8,333.4 21.6,333.4 	"/>
</g>
</svg>
