<?xml version="1.0" encoding="utf-8"?>
<!-- Generator: Adobe Illustrator 22.0.1, SVG Export Plug-In . SVG Version: 6.00 Build 0)  -->
<svg version="1.1" id="Layer_1" xmlns="http://www.w3.org/2000/svg" xmlns:xlink="http://www.w3.org/1999/xlink" x="0px" y="0px"
	 viewBox="0 0 1858.2 440" style="enable-background:new 0 0 1858.2 440;" xml:space="preserve">
<metadata><?xpacket begin="﻿" id="W5M0MpCehiHzreSzNTczkc9d"?>
<x:xmpmeta xmlns:x="adobe:ns:meta/" x:xmptk="Adobe XMP Core 5.6-c143 79.161210, 2017/08/11-10:28:36        ">
   <rdf:RDF xmlns:rdf="http://www.w3.org/1999/02/22-rdf-syntax-ns#">
      <rdf:Description rdf:about=""/>
   </rdf:RDF>
</x:xmpmeta>
                                                                                                    
                                                                                                    
                                                                                                    
                                                                                                    
                                                                                                    
                                                                                                    
                                                                                                    
                                                                                                    
                                                                                                    
                                                                                                    
                                                                                                    
                                                                                                    
                                                                                                    
                                                                                                    
                                                                                                    
                                                                                                    
                                                                                                    
                                                                                                    
                                                                                                    
                                                                                                    
                           
<?xpacket end="w"?></metadata>
<style type="text/css">
	.st0{fill:#B1B3B3;}
	.st1{fill:#212322;}
	.st2{fill:#FFBF3F;}
	.st3{fill:#444445;}
	.st4{fill:#DA291C;}
	.st5{fill:#2D2C2F;}
	.st6{fill:#878787;}
	.st7{fill:#F47E3A;}
	.st8{fill:none;stroke:#000000;stroke-width:2;stroke-miterlimit:10;}
	.st9{display:none;fill:none;stroke:#000000;stroke-width:2;stroke-miterlimit:10;}
	.st10{fill:none;stroke:#000000;stroke-width:1.8778;stroke-miterlimit:10;}
	.st11{fill:none;stroke:#000000;stroke-width:2;stroke-linecap:round;stroke-linejoin:round;stroke-miterlimit:10;}
	.st12{display:none;}
</style>
<g id="WLAB2__x28_Sovevogn_x29_">
	<g id="Mål_17_">
	</g>
	<g id="Farger_17_">
		<g id="Grunnfarge_13_">
		</g>
		<g id="Profilering_17_">
		</g>
		<g id="Dører_og_vinduer_15_">
		</g>
	</g>
	<g id="Omriss_17_">
	</g>
</g>
<g id="Type_5">
	<g id="Mål_16_">
	</g>
	<g id="Farger_16_">
		<g id="Grunnfarge_12_">
		</g>
		<g id="Profilering_16_">
		</g>
		<g id="Dører_og_vinduer_14_">
		</g>
	</g>
	<g id="Omriss_16_">
	</g>
</g>
<g id="Type_7">
	<g id="Mål_15_">
	</g>
	<g id="Farger_15_">
		<g id="Grunnfarge_11_">
		</g>
		<g id="Profilering_15_">
		</g>
		<g id="Dører_og_vinduer_13_">
		</g>
	</g>
	<g id="Omriss_15_">
	</g>
</g>
<g id="El_18">
	<g id="Mål_14_">
	</g>
	<g id="Farger_14_">
		<g id="Grunnfarge_10_">
		</g>
		<g id="Profilering_14_">
		</g>
		<g id="Dører_og_vinduer_12_">
		</g>
	</g>
	<g id="Omriss_14_">
	</g>
</g>
<g id="Di4">
	<g id="Mål_13_">
	</g>
	<g id="Farger_13_">
		<g id="Grunnfarge_9_">
		</g>
		<g id="Profilering_13_">
		</g>
		<g id="Dører_og_vinduer_og_stiger">
		</g>
	</g>
	<g id="Omriss_13_">
	</g>
</g>
<g id="Type_93">
	<g id="Mål_12_">
	</g>
	<g id="Farger_12_">
		<g id="Grunnfarge_8_">
		</g>
		<g id="Profilering_12_">
		</g>
		<g id="Dører_og_vinduer_11_">
		</g>
	</g>
	<g id="Omriss_12_">
	</g>
</g>
<g id="Type_92">
	<g id="Mål_11_">
	</g>
	<g id="Farger_11_">
		<g id="Grunnfarge_7_">
		</g>
		<g id="Profilering_11_">
		</g>
		<g id="Dører_og_vinduer_10_">
		</g>
	</g>
	<g id="Omriss_11_">
	</g>
</g>
<g id="Type_75_1_">
	<g id="Mål_10_">
	</g>
	<g id="Farger_10_">
		<g id="Grunnfarge_6_">
		</g>
		<g id="Profilering_10_">
		</g>
		<g id="Dører_og_vinduer_9_">
		</g>
	</g>
	<g id="Omriss_10_">
	</g>
</g>
<g id="Type_74">
	<g id="Mål_9_">
	</g>
	<g id="Farger_9_">
		<g id="Grunnfarge_5_">
		</g>
		<g id="Profilering_9_">
		</g>
		<g id="Dører_og_vinduer_8_">
		</g>
	</g>
	<g id="Omriss_9_">
	</g>
</g>
<g id="Type_73_B">
	<g id="Mål_8_">
	</g>
	<g id="Farger_8_">
		<g id="Grunnfarge_4_">
		</g>
		<g id="Profilering_8_">
		</g>
		<g id="Dører_og_vinduer_7_">
		</g>
	</g>
	<g id="Omriss_8_">
	</g>
</g>
<g id="Type_73_A">
	<g id="Mål_7_">
	</g>
	<g id="Farger_7_">
		<g id="Grunnfarge_3_">
		</g>
		<g id="Profilering_7_">
		</g>
		<g id="Dører_og_vinduer_6_">
		</g>
	</g>
	<g id="Omriss_7_">
	</g>
</g>
<g id="Type_72">
	<g id="Mål_6_">
	</g>
	<g id="Farger_6_">
		<g id="Grunnfarge">
		</g>
		<g id="Profilering">
		</g>
		<g id="Dører_og_vinduer">
		</g>
	</g>
	<g id="Omriss_6_">
	</g>
</g>
<g id="Type_70">
	<g id="Mål_5_">
	</g>
	<g id="Farger_5_">
		<g id="Grunnfarge_2_">
		</g>
		<g id="Profilering_6_">
		</g>
		<g id="Dører_og_vinduer_5_">
		</g>
	</g>
	<g id="Omriss_5_">
	</g>
</g>
<g id="Type_69_H">
	<g id="Mål_4_">
	</g>
	<g id="Farger_4_">
		<g id="grunnfarger">
		</g>
		<g id="Profilering_5_">
		</g>
		<g id="Dører_og_vinduer_4_">
		</g>
	</g>
	<g id="Omriss_4_">
	</g>
</g>
<g id="Type_69_G">
	<g id="Mål_3_">
	</g>
	<g id="Farger_3_">
		<g id="Grunnfarger_1_">
		</g>
		<g id="Profilering_4_">
		</g>
		<g id="dører_og_vinduer">
		</g>
	</g>
	<g id="Omriss_3_">
	</g>
</g>
<g id="Type_69_D">
	<g id="Mål_2_">
	</g>
	<g id="Farger_2_">
		<g id="Grunnfarger">
		</g>
		<g id="Profilering_3_">
		</g>
		<g id="Dører_og_vinduer_3_">
		</g>
	</g>
	<g id="Omriss_2_">
	</g>
</g>
<g id="Type_69_CII">
	<g id="Mål_1_">
	</g>
	<g id="Farger_1_">
		<g id="Gunnfarge">
			<path class="st0" d="M1794.9,262.1l-18.2-78c-0.1-0.4-0.2-0.8-0.4-1.2c-2.1-5.1-4.4-9.6-7-13.6h2.5c1.9,0,3.5-1.6,3.5-3.5V134
				c0-1.9-1.6-3.5-3.5-3.5h-75.6v5.2c-2.2,0-4.1,0-5.7,0H1624V120h-30.8v15.8h-237.8l-18.9-25.4l-104.5-0.3l-19,25.8H957V94.8H847.6
				v41.1H677.8l-19.6-26H437l-18.2,26H50.2c-4,0-7.2,3.2-7.2,7.2v206.8c0,4,3.2,7.2,7.2,7.2h361.6l36.4,20h153.2l36.5-20.1v0.1
				h532.7l36.7,20h153.2l36.7-20H1788c4,0,7.2-3.2,7.2-7.2v-84.8C1795.2,264,1795.1,263,1794.9,262.1z"/>
			<rect x="46.9" y="356.5" class="st1" width="9.4" height="14.6"/>
			<polygon class="st1" points="56.3,362.4 88.5,362.4 93.2,356.6 56.3,356.6 			"/>
			<path class="st1" d="M111.3,360.8l45.7-4.4h170l27.2,2.9l12.6,1.7c0,0-0.3,7.1-0.3,11.2L353.9,390l-0.4,6h-4.8
				c0,0-10.8,17.4-27.9,17s-28.9-10.3-31.2-16.5l-4.6-0.3v-5.9l-4-4.4h-84.3l-4.3,4v6.4h-4.5c0,0-11.5,17.1-28.6,16.6
				s-25.7-8.9-30.9-16.6c0,0-4.3,0.3-4.3,0s0-6.2,0-6.2l-12.8-18L111.3,360.8L111.3,360.8z"/>
			<rect x="436.8" y="114.4" class="st1" width="220.4" height="16.6"/>
			<rect x="865.7" y="94.5" class="st1" width="73" height="22.2"/>
			<rect x="1232" y="114.6" class="st1" width="103.7" height="16.6"/>
			<path class="st1" d="M1435.9,118.5c-1-0.7-1.7-2.6-1.7-2.6h-2.6v14.5h-1.4v5.5h10.9v-5.5h-2.9v-6.7c8,0.1,9.9,5,9.9,5v-13.6
				C1443.3,121,1436.9,119.3,1435.9,118.5z"/>
			<path class="st1" d="M1441.4,361.3l45.7-4.4h170l27.2,2.9v6.9c0,0,7.3,11.4,9,14.1l-9.8,13.2l0.1,2.5h-4.8c0,0-10.8,17.4-27.9,17
				s-28.9-10.3-31.2-16.5l-4.6-0.3v-5.9l-4-4.4h-84.3l-4.3,4v6.4h-4.5c0,0-11.5,17.1-28.6,16.6s-25.7-8.9-30.9-16.6
				c0,0-4.3,0.3-4.3,0s0-6.2,0-6.2l-12.8-18L1441.4,361.3L1441.4,361.3z"/>
			<path class="st2" d="M1684.2,356.8v9.6l18.6,29h82.6c0,0-16-3.8-15.7-15.8h9.2v-12.2h-4.4c2.3-3.2,5.4-6.8,9.7-10.7"/>
			<polygon class="st1" points="1831.7,309.4 1800.8,309.4 1814.6,300.4 1826.8,300.4 			"/>
			<rect x="1795.2" y="321.9" class="st1" width="34.5" height="24.3"/>
			<path class="st3" d="M42.1,338H25.9l-0.2,11.2H15.6V338H0.3l-0.5-185.5h8.9c0,0-0.8-6.8,6.2-6.8s6.2,6.8,6.2,6.8h4.2
				c0,0-0.7-6.6,6.2-6.6s6.2,6.6,6.2,6.6H42L42.1,338z"/>
		</g>
		<g id="Profilering_2_">
			<path id="rødt_nederst_12_" class="st4" d="M43.7,266.9v82.9c0,3.8,3.2,6.9,7.2,6.9h361.6l36.4,19.1h153.2l36.5-19.3v0.1h532.7
				l36.7,19.1h153.2l36.7-19.1h390.6c4,0,7.2-3.1,7.2-6.9v-55.1c-12.8,0-62,0.7-63.8,0.6c-1.7-0.1-11.1-11.5-27.4-28.5H43.7V266.9z"
				/>
			<polyline id="sort_bak_vinduer_12_" class="st5" points="1703.7,267.2 1626.9,185.3 42.8,185.3 42.8,267.2 1703.7,267.2 			"/>
			<path class="st4" d="M201.9,152.9l1554.4,0.2l9.2,9.6c0.8,0.9,6,8.6,6.5,9.6l5.5,13H1630H169.7"/>
			<g>
				<polygon class="st0" points="1795.8,309.5 1742.2,309.4 1741.7,308.9 1612.3,170.8 421.7,170.8 299.4,309.5 43.7,309.5 
					43.7,306.1 297.9,306.1 420.2,167.4 1613.8,167.4 1614.3,167.9 1743.7,306 1795.8,306.1 				"/>
			</g>
			<g>
				<rect x="42.8" y="293.8" class="st0" width="1752.1" height="6.7"/>
			</g>
		</g>
		<g id="Dører_og_vinduer_2_">
			<path class="st6" d="M168,264.5h71.2c4.4,0,8-3.6,8-8v-49.7c0-4.4-3.6-8-8-8H168c-4.4,0-8,3.6-8,8v49.7
				C160,260.9,163.5,264.5,168,264.5z"/>
			<path class="st6" d="M324.8,264.5H396c4.4,0,8-3.6,8-8v-49.7c0-4.4-3.6-8-8-8h-71.2c-4.4,0-8,3.6-8,8v49.7
				C316.8,260.9,320.3,264.5,324.8,264.5z"/>
			<path class="st7" d="M569.4,357.3H482c-3.9,0-7.1-3.2-7.1-7.1v-205h101.5v205C576.5,354.1,573.3,357.3,569.4,357.3z"/>
			<path class="st6" d="M696.7,264.5H768c4.4,0,8-3.6,8-8v-49.7c0-4.4-3.6-8-8-8h-71.2c-4.4,0-8,3.6-8,8v49.7
				C688.7,260.9,692.3,264.5,696.7,264.5z"/>
			<path class="st6" d="M830.3,264.5h71.2c4.4,0,8-3.6,8-8v-49.7c0-4.4-3.6-8-8-8h-71.2c-4.4,0-8,3.6-8,8v49.7
				C822.3,260.9,825.9,264.5,830.3,264.5z"/>
			<path class="st6" d="M963.5,264.3h71.2c4.4,0,8-3.6,8-8v-49.7c0-4.4-3.6-8-8-8h-71.2c-4.4,0-8,3.6-8,8v49.7
				C955.5,260.8,959.1,264.3,963.5,264.3z"/>
			<path class="st7" d="M1326.8,357.4H1242c-4.6,0-8.4-3.7-8.4-8.4V145.2h101.5V349C1335.2,353.6,1331.4,357.4,1326.8,357.4z"/>
			<path class="st6" d="M1098.3,264.8h71.2c4.4,0,8-3.6,8-8v-49.7c0-4.4-3.6-8-8-8h-71.2c-4.4,0-8,3.6-8,8v49.7
				C1090.3,261.2,1093.9,264.8,1098.3,264.8z"/>
			<path class="st6" d="M1316.3,274h-16c-2.9,0-5.2-2.3-5.2-5.2v-49c0-2.9,2.3-5.2,5.2-5.2h16c2.9,0,5.2,2.3,5.2,5.2v49
				C1321.4,271.6,1319.1,274,1316.3,274z"/>
			<path class="st6" d="M1269.1,274h-16c-2.9,0-5.2-2.3-5.2-5.2v-49c0-2.9,2.3-5.2,5.2-5.2h16c2.9,0,5.2,2.3,5.2,5.2v49
				C1274.3,271.6,1271.9,274,1269.1,274z"/>
			<path class="st6" d="M1399.7,264.8h71.2c4.4,0,8-3.6,8-8v-49.7c0-4.4-3.6-8-8-8h-71.2c-4.4,0-8,3.6-8,8v49.7
				C1391.7,261.2,1395.2,264.8,1399.7,264.8z"/>
			<path class="st6" d="M1556.6,264.8h71.2c4.4,0,8-3.6,8-8v-49.7c0-4.4-3.6-8-8-8h-71.2c-4.4,0-8,3.6-8,8v49.7
				C1548.6,261.2,1552.2,264.8,1556.6,264.8z"/>
			<path class="st6" d="M1690.9,252.4h19.1c6.3,0,11.4-4.9,11.7-11.1c0-0.4,0-0.9-0.1-1.3l-6.5-30.6c-1.3-6.9-5.3-11.7-11.7-11.7
				h-12.5c-6.5,0-11.7,5.2-11.7,11.7v31.3C1679.2,247.2,1684.4,252.4,1690.9,252.4z"/>
			<path class="st0" d="M1741.2,251h13.5c4,0,8.6-4.1,7.3-9.1l-7.3-30c-1.1-5.8-4.2-9.1-11.8-9.1h-13.5c-3.7,0-8.6,4.1-7.3,9.1
				l7.3,30C1730.8,248.1,1734.5,251,1741.2,251z"/>
			<path class="st6" d="M557,274h-16c-2.9,0-5.2-2.3-5.2-5.2v-49c0-2.9,2.3-5.2,5.2-5.2h16c2.9,0,5.2,2.3,5.2,5.2v49
				C562.2,271.6,559.8,274,557,274z"/>
			<path class="st6" d="M509.2,273.6h-16c-2.9,0-5.2-2.3-5.2-5.2v-49c0-2.9,2.3-5.2,5.2-5.2h16c2.9,0,5.2,2.3,5.2,5.2v49
				C514.4,271.3,512.1,273.6,509.2,273.6z"/>
		</g>
	</g>
	<g id="Omriss_1_">
		<line class="st8" x1="1283.9" y1="194.5" x2="1283.9" y2="357.1"/>
		<line class="st8" x1="524.6" y1="194.4" x2="524.6" y2="357"/>
		<path class="st8" d="M1458.2,397c6.2,9.9,17.2,16.6,29.7,16.6s23.6-6.6,29.7-16.6"/>
		<polyline class="st8" points="1461,390.5 1454,390.5 1454,397 1510.9,397 1522.2,397 1522.2,390.5 1461,390.5 		"/>
		<path class="st8" d="M1464.5,380c0.2,3.8,1.2,7.4,3,10.6"/>
		<path class="st8" d="M1508.4,390.5c1.8-3.1,2.9-6.7,3-10.6"/>
		<path class="st8" d="M1503.1,397c-4.1,3.5-9.4,5.6-15.2,5.6s-11.1-2.1-15.2-5.6"/>
		<circle class="st8" cx="1487.9" cy="379" r="7.7"/>
		<path class="st8" d="M1514.1,390.5v-19.1c0-2.2-1.8-3.9-3.9-3.9h-44.5c-2.2,0-3.9,1.8-3.9,3.9v19.1"/>
		<polyline class="st8" points="1461.7,380 1464.5,380 1468.5,380 1475.1,383.1 1475.2,383.2 		"/>
		<polyline class="st8" points="1514.1,380 1511.4,380 1507.6,380 1500.8,383.2 		"/>
		<path class="st9" d="M1651,396.8c5.3,6.9,13.6,11.3,22.9,11.3s17.6-4.4,22.9-11.3"/>
		<path class="st8" d="M1619,396.8c6.2,9.9,17.2,16.6,29.7,16.6c12.6,0,23.6-6.6,29.7-16.6"/>
		<polygon class="st8" points="1671.6,396.8 1683,396.8 1683,390.3 1614.7,390.3 1614.7,396.8 		"/>
		<path class="st8" d="M1625.3,379.8c0.2,3.8,1.2,7.4,3,10.6"/>
		<path class="st8" d="M1669.2,390.3c1.8-3.1,2.9-6.7,3-10.6"/>
		<path class="st8" d="M1663.9,396.8c-4.1,3.5-9.4,5.6-15.2,5.6c-5.8,0-11.1-2.1-15.2-5.6"/>
		<circle class="st8" cx="1648.7" cy="378.8" r="7.7"/>
		<path class="st8" d="M1622.5,371.2v19.1h52.4v-19.1c0-2.2-1.8-3.9-3.9-3.9h-44.5C1624.3,367.2,1622.5,369,1622.5,371.2z"/>
		<polyline class="st8" points="1622.5,379.8 1625.3,379.8 1629.3,379.8 1629.3,379.8 1635.9,383 1636,383 		"/>
		<polyline class="st8" points="1674.9,379.8 1672.2,379.8 1668.3,379.8 1661.6,383 		"/>
		<path class="st8" d="M129.4,397c6.2,9.9,17.2,16.6,29.7,16.6s23.6-6.6,29.7-16.6"/>
		<polygon class="st8" points="182.1,397 193.4,397 193.4,390.5 125.2,390.5 125.2,397 		"/>
		<path class="st8" d="M135.7,380c0.2,3.8,1.2,7.4,3,10.6"/>
		<path class="st8" d="M179.6,390.5c1.8-3.1,2.9-6.7,3-10.6"/>
		<path class="st8" d="M174.4,397c-4.1,3.5-9.4,5.6-15.2,5.6s-11.1-2.1-15.2-5.6"/>
		<circle class="st8" cx="159.2" cy="379" r="7.7"/>
		<path class="st8" d="M185.4,390.5v-19.1c0-2.2-1.8-3.9-3.9-3.9H137c-2.2,0-3.9,1.8-3.9,3.9v19.1"/>
		<polyline class="st8" points="133,380 135.7,380 139.7,380 146.3,383.1 146.5,383.2 		"/>
		<polyline class="st8" points="185.4,380 182.6,380 178.8,380 172,383.2 		"/>
		<path class="st9" d="M322.9,396.8c5.3,6.9,13.6,11.3,22.9,11.3s17.6-4.4,22.9-11.3"/>
		<path class="st8" d="M291,396.8c6.2,9.9,17.2,16.6,29.7,16.6c12.6,0,23.6-6.6,29.7-16.6"/>
		<polygon class="st8" points="343.6,396.8 354.9,396.8 354.9,390.5 286.7,390.5 286.7,396.8 		"/>
		<path class="st8" d="M297.3,380c0.2,3.8,1.2,7.4,3,10.6"/>
		<path class="st8" d="M341.1,390.5c1.8-3.1,2.9-6.7,3-10.6"/>
		<path class="st8" d="M335.9,396.8c-4.1,3.5-9.4,5.6-15.2,5.6c-5.8,0-11.1-2.1-15.2-5.6"/>
		<circle class="st8" cx="320.7" cy="379" r="7.7"/>
		<path class="st8" d="M294.5,371.3v19.1h52.4v-19.1c0-2.2-1.8-3.9-3.9-3.9h-44.5C296.3,367.5,294.5,369.1,294.5,371.3z"/>
		<polyline class="st8" points="294.5,380 297.3,380 301.2,380 307.9,383.1 308,383.1 		"/>
		<polyline class="st8" points="346.9,380 344.1,380 340.3,380 333.5,383.1 		"/>
		<polyline class="st8" points="125.2,390.5 112.4,372.8 112.4,361.6 158.1,357 		"/>
		<polyline class="st8" points="354.9,390.5 367.6,372.8 367.6,361.6 320.7,357.1 		"/>
		<rect x="197.7" y="379" class="st8" width="84.3" height="7.6"/>
		<line class="st8" x1="273.5" y1="357.2" x2="273.5" y2="379.1"/>
		<line class="st8" x1="242.6" y1="357.2" x2="242.6" y2="379.1"/>
		<line class="st8" x1="237.2" y1="357.2" x2="237.2" y2="379.1"/>
		<line class="st8" x1="206.4" y1="357.2" x2="206.4" y2="379"/>
		<line class="st8" x1="286.7" y1="390.5" x2="282.1" y2="386.6"/>
		<line class="st8" x1="193.4" y1="390.5" x2="197.8" y2="386.6"/>
		<polyline class="st8" points="1454,390.5 1441.1,372.8 1441.1,361.6 1486.8,357.2 		"/>
		<line class="st8" x1="1656.2" y1="357.2" x2="1684" y2="359.9"/>
		<line class="st8" x1="1683.2" y1="394.2" x2="1692.5" y2="381.3"/>
		<line class="st8" x1="1522.2" y1="390.5" x2="1526.5" y2="386.6"/>
		<line class="st8" x1="1615.1" y1="390.5" x2="1610.8" y2="386.6"/>
		<rect x="1526.4" y="379" class="st8" width="84.3" height="7.6"/>
		<line class="st8" x1="1602.2" y1="357.2" x2="1602.2" y2="379.1"/>
		<line class="st8" x1="1571.3" y1="357.2" x2="1571.3" y2="379.1"/>
		<line class="st8" x1="1565.9" y1="357.2" x2="1565.9" y2="379.1"/>
		<line class="st8" x1="1535.1" y1="357.2" x2="1535.1" y2="379"/>
		<line class="st8" x1="1568.6" y1="379" x2="1568.6" y2="386.5"/>
		<line class="st8" x1="239.9" y1="379" x2="239.9" y2="386.6"/>
		<path class="st8" d="M1752.9,187.3c0,0,18.3,77.5,18.3,77.8c0,0.2-0.2,2.5-2.7,2.6"/>
		<rect x="47.9" y="357.1" class="st8" width="9.4" height="14.6"/>
		<polyline class="st8" points="57.4,362.9 89.5,362.9 94.2,357.2 		"/>
		<path class="st8" d="M168,264.8h71.2c4.4,0,8-3.6,8-8V207c0-4.4-3.6-8-8-8H168c-4.4,0-8,3.6-8,8v49.7
			C160,261.1,163.5,264.8,168,264.8z"/>
		<path class="st8" d="M324.8,264.8H396c4.4,0,8-3.6,8-8V207c0-4.4-3.6-8-8-8h-71.2c-4.4,0-8,3.6-8,8v49.7
			C316.8,261.1,320.3,264.8,324.8,264.8z"/>
		<path class="st8" d="M696.7,264.8H768c4.4,0,8-3.6,8-8V207c0-4.4-3.6-8-8-8h-71.2c-4.4,0-8,3.6-8,8v49.7
			C688.7,261.1,692.3,264.8,696.7,264.8z"/>
		<path class="st8" d="M830.3,264.8h71.2c4.4,0,8-3.6,8-8V207c0-4.4-3.6-8-8-8h-71.2c-4.4,0-8,3.6-8,8v49.7
			C822.3,261.1,825.9,264.8,830.3,264.8z"/>
		<path class="st8" d="M963.6,264.8h71.2c4.4,0,8-3.6,8-8V207c0-4.4-3.6-8-8-8h-71.2c-4.4,0-8,3.6-8,8v49.7
			C955.6,261.1,959.2,264.8,963.6,264.8z"/>
		<path class="st8" d="M1097.7,264.8h71.2c4.4,0,8-3.6,8-8V207c0-4.4-3.6-8-8-8h-71.2c-4.4,0-8,3.6-8,8v49.7
			C1089.7,261.1,1093.3,264.8,1097.7,264.8z"/>
		<path class="st8" d="M1399.1,264.8h71.2c4.4,0,8-3.6,8-8V207c0-4.4-3.6-8-8-8h-71.2c-4.4,0-8,3.6-8,8v49.7
			C1391,261.1,1394.6,264.8,1399.1,264.8z"/>
		<path class="st8" d="M1556,264.8h71.2c4.4,0,8-3.6,8-8V207c0-4.4-3.6-8-8-8H1556c-4.4,0-8,3.6-8,8v49.7
			C1548,261.1,1551.6,264.8,1556,264.8z"/>
		<path class="st8" d="M1690.3,252.3h19.1c6.3,0,11.4-4.9,11.7-11.1c0-0.4,0-0.9-0.1-1.3l-6.5-30.6c-1.3-6.9-5.3-11.7-11.7-11.7
			h-12.5c-6.5,0-11.7,5.2-11.7,11.7v31.3C1678.5,247,1683.8,252.3,1690.3,252.3z"/>
		<path class="st8" d="M1740.6,250.8h13.5c4,0,8.6-4.1,7.3-9.1l-7.3-30c-1.1-5.8-4.2-9.1-11.8-9.1h-13.5c-3.7,0-8.6,4.1-7.3,9.1
			l7.3,30C1730.2,248,1733.9,250.8,1740.6,250.8z"/>
		<path class="st8" d="M493.8,273.8h14.5c3.3,0,5.9-2.7,5.9-5.9v-47.4c0-3.3-2.7-5.9-5.9-5.9h-14.5c-3.3,0-5.9,2.7-5.9,5.9v47.4
			C487.9,271.1,490.5,273.8,493.8,273.8z"/>
		<path class="st8" d="M541,273.8h14.5c3.3,0,5.9-2.7,5.9-5.9v-47.4c0-3.3-2.7-5.9-5.9-5.9H541c-3.3,0-5.9,2.7-5.9,5.9v47.4
			C535,271.1,537.7,273.8,541,273.8z"/>
		<path class="st8" d="M1253.1,273.8h14.5c3.3,0,5.9-2.7,5.9-5.9v-47.4c0-3.3-2.7-5.9-5.9-5.9h-14.5c-3.3,0-5.9,2.7-5.9,5.9v47.4
			C1247.1,271.1,1249.8,273.8,1253.1,273.8z"/>
		<path class="st8" d="M1300.2,273.8h14.5c3.3,0,5.9-2.7,5.9-5.9v-47.4c0-3.3-2.7-5.9-5.9-5.9h-14.5c-3.3,0-5.9,2.7-5.9,5.9v47.4
			C1294.3,271.1,1297,273.8,1300.2,273.8z"/>
		<path class="st8" d="M481.2,357.2h86.9c4,0,7.3-3.3,7.3-7.3V202c0-4-3.3-7.3-7.3-7.3h-86.9c-4,0-7.3,3.3-7.3,7.3v148
			C473.9,353.9,477.2,357.2,481.2,357.2z"/>
		<path class="st8" d="M1240.5,357.2h86.9c4,0,7.3-3.3,7.3-7.3V202c0-4-3.3-7.3-7.3-7.3h-86.9c-4,0-7.3,3.3-7.3,7.3v148
			C1233.1,353.9,1236.4,357.2,1240.5,357.2z"/>
		<polyline class="st8" points="1212.5,135.9 1231.3,110.3 1336.6,110.3 1355.8,135.9 		"/>
		<rect x="848.7" y="95.2" class="st8" width="109.4" height="40.7"/>
		<rect x="866.7" y="95.2" class="st8" width="73" height="22.2"/>
		<line class="st8" x1="994.8" y1="146.1" x2="813" y2="146.1"/>
		<line class="st8" x1="950.5" y1="145.1" x2="950.5" y2="135.9"/>
		<line class="st8" x1="903.2" y1="145.1" x2="903.2" y2="135.9"/>
		<line class="st8" x1="855.6" y1="145.1" x2="855.6" y2="135.9"/>
		<path class="st8" d="M1769,169.5h2.5c1.9,0,3.5-1.6,3.5-3.5v-31.8c0-1.9-1.6-3.5-3.5-3.5h-75.6v5.2c0,0,17.2-1.6,36.6,5.3
			S1765.3,163,1769,169.5z"/>
		<rect x="1232" y="114.9" class="st8" width="103.7" height="16.6"/>
		<polyline class="st8" points="418.3,135.9 437.1,110.3 659.3,110.3 678.5,135.9 		"/>
		<rect x="437.9" y="114.9" class="st8" width="220.4" height="16.6"/>
		<rect x="1593" y="120" class="st8" width="30.8" height="15.8"/>
		<path class="st8" d="M1431.3,130.3v-14.5h2.6c0,0,0.6,1.9,1.7,2.6c1,0.8,7.4,2.5,12.3-3.6v13.6c0,0-1.8-4.9-9.9-5v6.7"/>
		<path class="st8" d="M1684,357.1v9.6l18.6,29h82.6c0,0-34.6-8.3-1.2-38.7"/>
		<path class="st8" d="M1726,357.2c-9.6,1.1-24,4.2-19.1,19.6c4.9,15.4,23.1,18.3,25.9,19"/>
		<polyline class="st8" points="1719.1,358.2 1774.5,367.5 1778.9,367.5 1778.9,379.8 1769.5,379.8 		"/>
		<path class="st8" d="M1170.5,357.1l36.7,20h153.2l36.7-20h390.6c4,0,7.2-3.2,7.2-7.2v-84.8c0-0.9-0.1-1.9-0.3-2.8l-18.2-78
			c-0.1-0.4-0.2-0.8-0.4-1.2c-20.4-49.7-69.2-47-85.9-47.2H50c-4,0-7.2,3.2-7.2,7.2v206.8c0,4,3.2,7.2,7.2,7.2h361.6l36.4,20h153.2
			l36.5-20.1L1170.5,357.1z"/>
		<rect x="1429.9" y="130.3" class="st8" width="10.9" height="5.5"/>
		<g>
			<path class="st10" d="M37.8,151.8c0-3.3-2.7-6-6-6s-6,2.7-6,6v-0.1v162.5"/>
		</g>
		<line class="st10" x1="37.8" y1="151.8" x2="37.8" y2="341.1"/>
		<line class="st10" x1="33.8" y1="151.8" x2="33.8" y2="329.8"/>
		<line class="st10" x1="29.8" y1="151.8" x2="29.8" y2="329.8"/>
		<rect x="16.5" y="315" class="st10" width="9.8" height="34.4"/>
		<rect x="26.4" y="329.8" class="st10" width="11.4" height="8.2"/>
		<path class="st10" d="M21.6,349.2V151.8v-0.1c0-3.3-2.7-6-6-6s-6,2.7-6,6v0.4v177.7"/>
		<line class="st10" x1="5.5" y1="152.2" x2="5.5" y2="341.6"/>
		<line class="st10" x1="13.6" y1="152.1" x2="13.6" y2="329.8"/>
		<line class="st10" x1="17.6" y1="152.2" x2="17.6" y2="314.6"/>
		<rect x="5.5" y="329.8" class="st10" width="11.1" height="8.2"/>
		<polyline class="st8" points="1794.2,346.1 1829.7,346.1 1829.7,321.9 1794.1,321.9 		"/>
		<path class="st8" d="M1857.5,356.3c-0.3-0.3-10.3-10.1-10.3-10.1h-17.5"/>
		<polygon class="st8" points="1832.1,309.4 1801.2,309.4 1815,300.4 1827.2,300.4 		"/>
		<polyline class="st8" points="1835.5,346.3 1846.1,337.8 1846.1,329 1835.8,309.4 1832.1,309.4 		"/>
		<line class="st11" x1="1814.1" y1="309.4" x2="1814.1" y2="322"/>
	</g>
</g>
<g id="Type_69_B">
	<g id="Mål">
	</g>
	<g id="Farger">
		<g id="Grunnfarge_1_">
		</g>
		<g id="Profilering_1_">
		</g>
		<g id="Dører_og_vinduer_1_">
		</g>
	</g>
	<g id="Omriss">
	</g>
</g>
<g id="Info">
</g>
<g id="Tognavn" class="st12">
</g>
</svg>
