<?xml version="1.0" encoding="utf-8"?>
<!-- Generator: Adobe Illustrator 22.0.1, SVG Export Plug-In . SVG Version: 6.00 Build 0)  -->
<svg version="1.1" id="Di4" xmlns="http://www.w3.org/2000/svg" xmlns:xlink="http://www.w3.org/1999/xlink" x="0px" y="0px"
	 viewBox="0 0 1503.5 320" style="enable-background:new 0 0 1503.5 320;" xml:space="preserve">
<style type="text/css">
	.st0{fill:#FFBF3F;}
	.st1{fill:#444445;}
	.st2{fill:#212322;}
	.st3{fill:#B1B3B3;}
	.st4{fill:#B1190B;}
	.st5{fill:#FFFCE2;}
	.st6{fill:#878787;}
	.st7{fill:#E0E1E0;}
	.st8{fill:#FFD030;}
	.st9{fill:none;stroke:#000000;stroke-width:2;stroke-miterlimit:10;}
</style>
<title>171122_NT_illustrasjoner_Di4</title>
<metadata><?xpacket begin="﻿" id="W5M0MpCehiHzreSzNTczkc9d"?>
<x:xmpmeta xmlns:x="adobe:ns:meta/" x:xmptk="Adobe XMP Core 5.6-c143 79.161210, 2017/08/11-10:28:36        ">
   <rdf:RDF xmlns:rdf="http://www.w3.org/1999/02/22-rdf-syntax-ns#">
      <rdf:Description rdf:about=""
            xmlns:dc="http://purl.org/dc/elements/1.1/">
         <dc:title>
            <rdf:Alt>
               <rdf:li xml:lang="x-default">171122_NT_illustrasjoner_Di4</rdf:li>
            </rdf:Alt>
         </dc:title>
      </rdf:Description>
   </rdf:RDF>
</x:xmpmeta>
                                                                                                    
                                                                                                    
                                                                                                    
                                                                                                    
                                                                                                    
                                                                                                    
                                                                                                    
                                                                                                    
                                                                                                    
                                                                                                    
                                                                                                    
                                                                                                    
                                                                                                    
                                                                                                    
                                                                                                    
                                                                                                    
                                                                                                    
                                                                                                    
                                                                                                    
                                                                                                    
                           
<?xpacket end="w"?></metadata>
<g id="Farger">
	<g id="Grunnfarge">
		<path class="st0" d="M39,264.2c2.6-0.8,5.1-1.5,7.5-2.2c1.1-0.3,2.3-0.6,3.4-0.9c26.4-7.3,38.9-8.2,38.9-8.2s37.8,0,34.3,21.2
			s-46.3,29.6-46.3,29.6H18.2c-0.5,0-0.8-0.4-0.8-0.8c0-0.2,0.1-0.5,0.3-0.6c6.9-6.2,8.4-8.8,9.6-15.9c1.1-6-6.5-11.6-9.8-13.7
			c-0.4-0.3-0.5-0.8-0.2-1.2c0.1-0.2,0.3-0.3,0.4-0.3c5.5-1.9,10.8-3.6,15.6-5.1L39,264.2z"/>
		<path class="st0" d="M1465.5,265.4c-2.6-0.8-5.1-1.5-7.5-2.2l-3.4-0.9c-26.4-7.3-38.9-8.2-38.9-8.2s-37.8,0-34.3,21.2
			s46.3,29.6,46.3,29.6h58.7c0.5,0,0.8-0.4,0.8-0.8c0-0.2-0.1-0.5-0.3-0.6c-6.9-6.2-8.3-8.8-9.6-15.9c-1.1-6,6.4-11.6,9.8-13.7
			c0.4-0.3,0.5-0.8,0.2-1.2c-0.1-0.2-0.3-0.3-0.4-0.3c-5.6-1.9-10.8-3.6-15.6-5.1L1465.5,265.4z"/>
		<path class="st1" d="M1477.2,186.5l0.1-0.1C1477.3,186.4,1477.2,186.5,1477.2,186.5z"/>
		<path class="st2" d="M1501.3,226.2h-1.2v1.7h-3v-1.7h1.3v-2.6h-10.1v2.7h1.2v1.5l2.3,2.3h-12.4c0,0-2.6-7-3.5-7.9
			s-5.2-4.5-5.2-4.5c4.2-0.2,8.3-1.4,12-3.4c6-3.3,8.3-9.4,6.6-14.6c-0.7-2.2-2.1-4.2-3.8-5.7c0,0,0.5-0.4,0-1s-2.2-2.3-2.5-2.8
			s-1.2-0.2-1.2-0.2l-2.8-2.8c0,0,0.7-0.6,0.2-1.1s-0.9,0-1.2,0.2l-0.1,0.1l0.1-0.1c0.6-0.7,0.7-1.6,0.4-2.4c0,0,0.7,0.4,1.1,0
			s0.1-0.8-0.4-1.4l1.2-5.7c0,0,0.7-1.7-0.2-1.9c-0.5-0.1-1.1,0-1.6,0.2c0,0-0.4,0.5-0.7,3.8l-0.3,2.3c-0.4,0.1-0.6,0.6-0.5,1
			c0,0.1,0.1,0.1,0.1,0.2c0,0-1.8-0.5-2.6,0.2c0,0,2.9-3.4,3-4.2c0.1-0.9-0.1-1.7-0.6-2.4c-0.3-0.3-2.4-2-2.4-2l13.2-16.5l0.6-15.9
			l-33.4-59.4h-30.5c-0.5,0-1.1,0.2-1.5,0.5l-5.7,5c-0.4,0.4-0.9,0.5-1.5,0.5H91.7c-0.6,0-1.2-0.2-1.6-0.7l-4.7-4.8
			c-0.4-0.4-1-0.7-1.6-0.7H51.7c-16,27.5-33.1,57-33.1,57s-1.2,1.3-1.2,5.5v12.3l13.2,16.7l-2.2,1.8c-0.7,0.7-1.1,1.5-1.2,2.5h-0.2
			l-0.3-2.4c-0.1-0.3-0.4-0.6-0.8-0.6h-1c0,0-0.6,0.1-0.4,1s1.4,6.5,1.4,6.5l-0.5,0.6c-0.1,0.3,0,0.6,0.2,0.8
			c0.3,0.4,1.1-0.3,1.1-0.3c-0.2,0.8-0.1,1.6,0.2,2.3c-0.3-0.3-0.7-0.2-1,0c0,0,0,0,0,0c-0.2,0.3-0.2,0.7,0.1,1l-2.5,2.8
			c-0.3-0.3-0.8-0.3-1.1,0c-0.5,0.5-1.8,2-2.4,2.6c-0.3,0.3-0.4,0.8-0.2,1.2c-2.3,2.1-3.9,5-4.4,8.1c-0.7,4.9,3.2,10.5,8.4,13.1
			c3.3,1.7,7,2.6,10.7,2.8l-4.1,3.4c-1,0.7-1.7,1.8-1.9,3c-0.7,2.3-2.5,6.2-2.5,6.2L13,230.3l2.5-2.5v-1.5h1.2v-2.7H6.5v2.6h1.3v1.7
			h-3v-1.7H3.5c0,0-1.8,8.1-1.8,12.5c0.2,4.5,0.8,8.9,1.8,13.2h1.2v-2.1h1.9v-2h24.4v-1.1h8.2l2.5,4.7c-0.5,0.6-0.8,1.4-0.7,2.2H40
			l-1-2.1h-3.1l-3.2,1.8l1.3,12.5l0.6,5.9l4.3-0.1l0.8-7.3c4.5-1.3,16.9-4.8,20.8-6c10.1-3.2,20.5-5.1,31.1-5.5
			c9.8-0.4,23.8,5.6,23.8,5.6h24.2c-1.7,1.8-3.6,3.3-5.7,4.7c-3.2,2-3.4,15-3.8,24s0,19.3,0,19.3h5.9v-1.9h17.2v-2h4.3v1.8h3.4v-0.6
			h1.5c7.2,7.6,17.3,11.9,27.8,11.9c10.6,0,20.8-4.3,28.2-11.9h3.8v0.9H243c0,0,2.2,0.7,3.2-0.8c0.6-0.7,0.9-1.6,0.9-2.5
			c0.1-0.6,2.4-21.4,2.4-21.4c1.2,1.4,3.1,2.2,4.9,2c3.2-0.3,4.3-2.4,4.9-3.5h4.3c0,0,0.4,17-0.2,22.6c0,0-0.2,4.6,4.4,3.6h18.3v-2
			h4.3v1.7h3.4v-0.8h1.4c0,0,10.3,12.1,26.6,12.1s22.8-5.9,29.5-11.8h3.9v0.9h20.7c0,0,2.4,0.8,3.5-1.1s0.5-2.5,0.5-2.5l2.4-21
			c1.1,1.4,2.9,2.1,4.7,2c2.3-0.1,4.3-1.5,5.2-3.5h5.8c0,0,2.1,4.9,6.7,3.4c1.1-0.4,2.2-1,3.2-1.6l2.4,21.8c0,0,0.6,2.9,3.1,2.7
			l1.2-0.2h18.3v-2h4.3v1.8h2.3c7.3,7.2,17,11.2,27.2,11.3c17,0,25-9,28.6-12.2h1.4v0.2h5.3v0.9l19.5,0.1v1.9h5.9v-11.3h137.7v1.5
			h12.7v2.7h29.2v-20.3l10-4.1v-1.7H730v2.8l10,8.9h12.5l10-8.9v-2.8h38v26.1h29.2v-2.7h12.7v-1.5h136.7v10.4h5.9v-1.9h16.7v-2
			l4.3,0v1.7h3.4v-0.6h2c0,0,11.4,12.8,28.6,11.9c17.2-1,24.1-8.8,27.5-11.9h3.3v1h20.8c0,0,3,0.7,3.9-1.8c0.7-1.9,1.1-3.9,1.3-6
			c0.4-3.4,1.8-16.9,1.8-16.9c1.2,1.5,3.1,2.2,4.9,2c2.1-0.2,4-1.5,4.9-3.3h5.8c0,0,1.7,3.4,5.1,3.4s4.7-1.8,4.7-1.8l2.1,21.7
			c0.2,1.9,1.9,3.2,3.7,3c0.1,0,0.2,0,0.3,0c3.8-0.4,18.5-0.2,18.5-0.2l0.1-2.1l4.3,0.1v1.7h2.6c0,0,11.7,12.1,28.1,11.2
			s23.7-8.6,27.7-12.1h1.1v0.4h5.3v0.8h20.8c1.6,0.5,3.3-0.3,3.9-1.9c1.2-2.8-0.7-20.5,0.2-24.3h4.3c0.7,1.9,2.5,3.2,4.5,3.5
			c2,0.1,3.9-0.6,5.4-1.9l2.6,22.8c0.6,1.5,2.3,2.3,3.9,1.9h18.6v-2.2h4.3v1.8h2.3c0,0,11.4,12.2,27.6,11.2s23.2-7,27.9-11.9
			l0.2-0.2h1.4v0.2h5.3v0.9h19.4v2l5.9-0.2c0,0,0.1-27.1-0.8-33.9s-1.4-8.7-3.7-9.8c-1.9-1.2-3.5-2.6-5-4.2h26.4
			c0,0,13.4-4.9,22-4.2c0,0,17.4,2.7,18.8,3c2.7,0.6,15,3.3,30.8,8.4c0,0,0.2,2.8,0.6,6.8h4.5c0.3-2.9,0.6-5.4,0.6-5.4l1.4-12.8
			l-3.2-1.7h-3l-1.1,2.2h-1.2c0.1-0.8-0.1-1.6-0.7-2.2l2.6-5.5h8.2v1.9h24.4v2h1.9v2.1h1.2c1.1-4,1.7-8.1,1.8-12.2
			C1503.1,234.4,1501.3,226.2,1501.3,226.2z"/>
		<path class="st3" d="M84.8,82.9l4.7,4.8c0.4,0.4,1,0.7,1.6,0.7h1324c0.5,0,1.1-0.2,1.5-0.5l5.7-5c0.4-0.4,0.9-0.6,1.5-0.5h30.5
			l-0.8-1.4l-13.3-23.7h0.3c0.6,0,1.1-0.5,1.1-1.1c0,0,0,0,0,0v-14c0-0.6-0.5-1.1-1.1-1.1l-9.4,0l-1.3-2.4c0,0-4.2-8.5-13.2-10.5
			s-98.8-13.7-98.8-13.7s-2.7-0.6-3.5,0s0,62,0,62h-1.9l0.2-61.9c0,0,0.1-0.5-0.8-0.5h-2.1c-0.3,0.1-0.5,0.2-0.7,0.4l-1,1h-13.4V9.7
			h-3V8.1h-5.1V6.6h-5v-1h-5.1c-0.1,0,0-1,0-1h-53.6v1h-5.2v1h-5v1.5h-5.1v1.6h-3.1v5.6h-11.3V9.7h-3V8.1h-5.1V6.6h-5v-1h-5.2v-1
			h-53.6v1h-5.2v1h-5v1.5h-5.1v1.6h-3.1v5.7h-10.8V9.7h-3V8.1h-5.1V6.6h-5v-1h-5.2v-1h-53.5v1h-5.2v1h-5v1.5h-5.1v1.6h-3.1v5.7
			h-14.3l-1.4-1.4h-5.8v1.6h-1.4c-0.5-0.9-1.4-1.5-2.3-1.6H617.8c-1.4,0.1-2.5,1.3-2.5,2.7v59.5h-1.9V16.5c0-1.4-1.1-2.5-2.5-2.5
			H197c-1.5,0-2.7,1.2-2.8,2.7c0,0.1,0,0.2,0,0.3v59h-1.2V17.4c0,0,0.6-3.6-4.3-2.9s-99.1,13-99.1,13c-4.7,1.4-8.8,4.4-11.5,8.5
			c-0.5,0.7-1.6,2.5-3.2,5.2H64.9c-0.4,0-0.8,0.3-0.8,0.8c0,0,0,0,0,0v14.6c0,0.4,0.3,0.8,0.8,0.8h0.5c-4.3,7.4-9.3,16-14.5,24.9
			h32.2C83.8,82.3,84.3,82.5,84.8,82.9z"/>
	</g>
	<g id="Profilering">
		<path class="st4" d="M58.3,69.8h25.8l6,6.1h1325.8l7-6.1h24.3l40.4,71.8l-0.6,16l-36.1,45v22.8h3.8l4.6,13.4v7.3h-19.9v6.9h-77.8
			l-51.9-24.9H195.5l-52.9,24.9H62.5v-5.8H44.5v-7.4l4.5-14.8h4.1v-22l-36.4-45.8V143c0,0-0.1-1.4,1.4-4.1S58.3,69.8,58.3,69.8z"/>
		<polygon class="st5" points="1487.6,152 1326.1,152 1338.3,133.7 170.2,133.7 182.4,152 16.8,152 16.8,145.9 171.1,145.9 
			158.9,127.6 1349.6,127.6 1337.4,145.9 1487.6,145.9 		"/>
		<polygon class="st5" points="227.3,157 1277,157 1273,163 231.3,163 		"/>
		<polygon class="st5" points="227.3,184.9 1277,184.9 1273,190.9 231.3,190.9 		"/>
	</g>
	<g id="Dører_og_vinduer_og_stiger">
		<path class="st6" d="M344.8,87.1h39.9c3.3,0,6.1,2.7,6.1,6.1v13.5c0,3.3-2.7,6.1-6.1,6.1h-39.9c-3.3,0-6.1-2.7-6.1-6.1V93.2
			C338.7,89.8,341.4,87.1,344.8,87.1z"/>
		<path class="st6" d="M642.6,87.1h39.9c3.3,0,6.1,2.7,6.1,6.1v13.5c0,3.3-2.7,6.1-6.1,6.1h-39.9c-3.3,0-6.1-2.7-6.1-6.1V93.2
			C636.5,89.8,639.3,87.1,642.6,87.1z"/>
		<path class="st6" d="M896.6,87.1h39.9c3.3,0,6.1,2.7,6.1,6.1v13.5c0,3.3-2.7,6.1-6.1,6.1h-39.9c-3.3,0-6.1-2.7-6.1-6.1V93.2
			C890.6,89.8,893.3,87.1,896.6,87.1z"/>
		<path class="st6" d="M1118.8,87.1h39.9c3.3,0,6.1,2.7,6.1,6.1v13.5c0,3.3-2.7,6.1-6.1,6.1h-39.9c-3.3,0-6.1-2.7-6.1-6.1V93.2
			C1112.8,89.8,1115.5,87.1,1118.8,87.1z"/>
		<path class="st7" d="M109.5,78.5h25.1c4.9,0,8.9,4,8.9,8.9v31.2c0,4.9-4,8.9-8.9,8.9h-25.1c-4.9,0-8.9-4-8.9-8.9V87.4
			C100.6,82.5,104.5,78.5,109.5,78.5z"/>
		<path class="st6" d="M110.9,81.2h22.2c3.9,0,7.1,3.2,7.1,7.1v28.9c0,3.9-3.2,7.1-7.1,7.1h-22.2c-3.9,0-7.1-3.2-7.1-7.1V88.3
			C103.8,84.4,107,81.2,110.9,81.2z"/>
		<path class="st6" d="M94.6,85.1v35.5c0,4.1-3.3,7.4-7.4,7.5H66.5c-4.1,0-7.5-3.3-7.5-7.5c0-1.5,0.4-3,1.3-4.2L81,81
			c2.3-3.4,7-4.3,10.4-2C93.4,80.4,94.6,82.7,94.6,85.1z"/>
		<path class="st6" d="M56.7,72.5h7.9c0,0,5.2-0.1,2.9,4.5s-28.1,49.5-28.1,49.5s-0.8,3-4.9,2.6s-10-1.1-10-1.1"/>
		<path class="st7" d="M1396.2,127.3h-25.1c-4.9,0-8.9-4-8.9-8.9V87.2c0-4.9,4-8.9,8.9-8.9h25.1c4.9,0,8.9,4,8.9,8.9v31.2
			C1405.1,123.3,1401.1,127.3,1396.2,127.3z"/>
		<path class="st6" d="M1394.8,124h-22.2c-3.9,0-7.1-3.2-7.1-7.1V88.1c0-3.9,3.2-7.1,7.1-7.1h22.2c3.9,0,7.1,3.2,7.1,7.1v28.9
			C1401.9,120.9,1398.7,124,1394.8,124z"/>
		<path class="st6" d="M1411.1,84.9v35.5c0,4.1,3.3,7.5,7.5,7.5h20.7c4.1,0,7.5-3.3,7.5-7.5c0-1.5-0.4-3-1.3-4.2l-20.6-35.5
			c-2.3-3.4-6.9-4.4-10.4-2.1C1412.3,80,1411,82.4,1411.1,84.9z"/>
		<path class="st6" d="M1448.8,72.3h-7.7c0,0-5.2-0.1-2.9,4.5s28.1,49.5,28.1,49.5s0.8,3,4.9,2.6s8.7-0.9,8.7-0.9"/>
		<path class="st8" d="M230.4,78.5c-0.6,0-1.2,0.5-1.1,1.2V85H208v-5.3c0-0.6-0.5-1.2-1.2-1.2s-1.2,0.5-1.2,1.2v6.5l0,0V206
			c0.2,0.8,0.8,1.5,1.6,1.7c0.8-0.2,1.4-0.8,1.6-1.7V192h19.4v14.4c0,0.6,1.6,1.4,2.1,1.3c0.6-0.3,1.1-1,1.1-1.7V86.2l0,0v-6.5
			C231.5,79.1,231,78.5,230.4,78.5L230.4,78.5z M209,125.5v-17h19.4v17H209z M228.4,129.3v17.3h-19.6v-17.4L228.4,129.3z
			 M208.8,150.3h19.6v17h-19.6V150.3z M228.3,88.1v16.5h-19.4V88.1L228.3,88.1z M208.9,188.2v-16.7h19.4v16.7H208.9z"/>
		<path class="st8" d="M769.8,112.6V221c0,0.6-0.5,1-1.1,1h-1.8c-0.6,0-1-0.5-1-1V112.6c0-0.6,0.5-1,1-1h1.8
			C769.3,111.6,769.8,112,769.8,112.6z"/>
		<path class="st8" d="M817,112.6V221c0,0.6-0.5,1-1.1,1h-1.8c-0.6,0-1-0.5-1-1V112.6c0-0.6,0.5-1,1-1h1.8
			C816.5,111.6,817,112,817,112.6z"/>
		<path class="st8" d="M150.7,113.3v106.9c0,0.7-0.6,1.3-1.3,1.3h-1.7c-0.7,0-1.3-0.6-1.3-1.3V113.3c0-0.7,0.6-1.3,1.3-1.3h1.7
			C150.1,112,150.7,112.6,150.7,113.3z"/>
		<path class="st8" d="M197,113.2v107c0,0.7-0.5,1.2-1.2,1.2h-1.3c-0.7,0-1.2-0.5-1.2-1.2v-107c0-0.7,0.5-1.2,1.2-1.2h1.3
			C196.4,112,197,112.5,197,113.2z"/>
		<rect x="778.8" y="215.8" class="st8" width="25.3" height="3"/>
		<rect x="158.7" y="223.2" class="st8" width="25.3" height="3.1"/>
		<path class="st8" d="M801.3,228v9.1h-18.8V228H779v52.3c0,0.6,0.5,1.2,1.2,1.2h23.5c0.6,0,1.1-0.5,1.2-1.2V228H801.3z M782.5,241
			h19.2v16.1h-19.2V241z M801.7,270.7l-0.3,2.6v4.5h-18.8v-16.4h18.8L801.7,270.7z"/>
		<path class="st8" d="M185.4,232.8l-1.3,0.6v17h-26.9v-4.3l-2.9,1.4v31c0,0.6,0.4,1.2,1,1.4c0.2,0.1,0.3,0.1,0.5,0.1h29.8
			c0.8,0,1.5-0.6,1.5-1.4c0,0,0,0,0,0V232L185.4,232.8z M184.1,276.7h-26.9v-23.4h26.9L184.1,276.7z"/>
	</g>
</g>
<g id="Omriss">
	<path class="st9" d="M1439.4,246.3V246h19.9v-7.3l-2.4-7.1l-2.1-6.3h-3.8v-22.7l8.2-10.2l1.2-1.5l12.5-15.6l1-1.3l13.2-16.4l0.6-16
		l-57.9-102.9c-3-5.7-8.4-9.7-14.7-10.8c-12.7-2.1-98.4-13.6-98.4-13.6s-2.6-1.3-2.6,1.1v61L193.1,76V16.9c0,0-0.1-3-3.8-2.4
		c-6,0.9-100.1,13.2-100.1,13.2s-6.7,2.4-9.3,5.7S18.1,138.9,18.1,138.9c-0.9,1.2-1.4,2.6-1.4,4.1v14.1l36.2,45.7l0.2,22H49
		l-2.2,6.8l0,0l-2.6,8l0.2,7.7h18.1"/>
	<polygon class="st9" points="1125.4,4.5 1121.1,4.5 1121.1,5.5 1116,5.5 1116,6.6 1111,6.6 1111,8.1 1105.9,8.1 1105.9,9.7 
		1102.8,9.7 1102.8,15.4 1193,15.4 1193,9.7 1189.9,9.7 1189.9,8.1 1184.9,8.1 1184.9,6.6 1179.9,6.6 1179.9,5.5 1174.8,5.5 
		1174.8,4.5 1170.5,4.5 	"/>
	<line class="st9" x1="1111" y1="8.1" x2="1184.9" y2="8.1"/>
	<line class="st9" x1="1116" y1="6.6" x2="1180.3" y2="6.6"/>
	<line class="st9" x1="1121.1" y1="5.5" x2="1175.2" y2="5.5"/>
	<line class="st9" x1="1105.9" y1="9.7" x2="1190.5" y2="9.7"/>
	<polygon class="st9" points="1226.8,4.5 1222.6,4.5 1222.6,5.5 1217.4,5.5 1217.4,6.6 1212.4,6.6 1212.4,8.1 1207.4,8.1 
		1207.4,9.7 1204.3,9.7 1204.3,15.4 1294.4,15.4 1294.4,9.7 1291.4,9.7 1291.4,8.1 1286.3,8.1 1286.3,6.6 1281.4,6.6 1281.4,5.5 
		1276.2,5.5 1276.2,4.5 1271.9,4.5 	"/>
	<line class="st9" x1="1212.4" y1="8.1" x2="1286.3" y2="8.1"/>
	<line class="st9" x1="1217.4" y1="6.6" x2="1281.7" y2="6.6"/>
	<line class="st9" x1="1222.6" y1="5.5" x2="1276.7" y2="5.5"/>
	<line class="st9" x1="1207.4" y1="9.7" x2="1291.9" y2="9.7"/>
	<polygon class="st9" points="1024.5,4.5 1020.2,4.5 1020.2,5.5 1015,5.5 1015,6.6 1010.1,6.6 1010.1,8.1 1005,8.1 1005,9.7 
		1001.9,9.7 1001.9,15.4 1092,15.4 1092,9.7 1089,9.7 1089,8.1 1083.9,8.1 1083.9,6.6 1079,6.6 1079,5.5 1073.8,5.5 1073.8,4.5 
		1069.6,4.5 	"/>
	<line class="st9" x1="1010.1" y1="8.1" x2="1083.9" y2="8.1"/>
	<line class="st9" x1="1015" y1="6.6" x2="1079.3" y2="6.6"/>
	<line class="st9" x1="1020.2" y1="5.5" x2="1074.3" y2="5.5"/>
	<line class="st9" x1="1005" y1="9.7" x2="1089.5" y2="9.7"/>
	<rect x="1201.7" y="31.6" class="st9" width="98.2" height="37.6"/>
	<line class="st9" x1="1293.7" y1="31.6" x2="1293.7" y2="69.2"/>
	<line class="st9" x1="1287.6" y1="31.6" x2="1287.6" y2="69.2"/>
	<line class="st9" x1="1281.4" y1="31.6" x2="1281.4" y2="69.2"/>
	<line class="st9" x1="1275.3" y1="31.6" x2="1275.3" y2="69.2"/>
	<line class="st9" x1="1269.2" y1="31.6" x2="1269.2" y2="69.2"/>
	<line class="st9" x1="1263" y1="31.6" x2="1263" y2="69.2"/>
	<line class="st9" x1="1256.9" y1="31.6" x2="1256.9" y2="69.2"/>
	<line class="st9" x1="1250.7" y1="31.6" x2="1250.7" y2="69.2"/>
	<line class="st9" x1="1244.6" y1="31.6" x2="1244.6" y2="69.2"/>
	<line class="st9" x1="1238.5" y1="31.6" x2="1238.5" y2="69.2"/>
	<line class="st9" x1="1232.3" y1="31.6" x2="1232.3" y2="69.2"/>
	<line class="st9" x1="1226.2" y1="31.6" x2="1226.2" y2="69.2"/>
	<line class="st9" x1="1220" y1="31.6" x2="1220" y2="69.2"/>
	<line class="st9" x1="1213.9" y1="31.6" x2="1213.9" y2="69.2"/>
	<line class="st9" x1="1207.8" y1="31.6" x2="1207.8" y2="69.2"/>
	<rect x="1098.8" y="31.6" class="st9" width="98.2" height="37.6"/>
	<line class="st9" x1="1190.9" y1="31.6" x2="1190.9" y2="69.2"/>
	<line class="st9" x1="1184.7" y1="31.6" x2="1184.7" y2="69.2"/>
	<line class="st9" x1="1178.6" y1="31.6" x2="1178.6" y2="69.2"/>
	<line class="st9" x1="1172.5" y1="31.6" x2="1172.5" y2="69.2"/>
	<line class="st9" x1="1166.3" y1="31.6" x2="1166.3" y2="69.2"/>
	<line class="st9" x1="1160.2" y1="31.6" x2="1160.2" y2="69.2"/>
	<line class="st9" x1="1154" y1="31.6" x2="1154" y2="69.2"/>
	<line class="st9" x1="1147.9" y1="31.6" x2="1147.9" y2="69.2"/>
	<line class="st9" x1="1141.8" y1="31.6" x2="1141.8" y2="69.2"/>
	<line class="st9" x1="1135.6" y1="31.6" x2="1135.6" y2="69.2"/>
	<line class="st9" x1="1129.5" y1="31.6" x2="1129.5" y2="69.2"/>
	<line class="st9" x1="1123.3" y1="31.6" x2="1123.3" y2="69.2"/>
	<line class="st9" x1="1117.2" y1="31.6" x2="1117.2" y2="69.2"/>
	<line class="st9" x1="1111.1" y1="31.6" x2="1111.1" y2="69.2"/>
	<line class="st9" x1="1104.9" y1="31.6" x2="1104.9" y2="69.2"/>
	<rect x="998.2" y="31.6" class="st9" width="98.2" height="37.6"/>
	<line class="st9" x1="1090.2" y1="31.6" x2="1090.2" y2="69.2"/>
	<line class="st9" x1="1084.1" y1="31.6" x2="1084.1" y2="69.2"/>
	<line class="st9" x1="1078" y1="31.6" x2="1078" y2="69.2"/>
	<line class="st9" x1="1071.8" y1="31.6" x2="1071.8" y2="69.2"/>
	<line class="st9" x1="1065.7" y1="31.6" x2="1065.7" y2="69.2"/>
	<line class="st9" x1="1059.6" y1="31.6" x2="1059.6" y2="69.2"/>
	<line class="st9" x1="1053.4" y1="31.6" x2="1053.4" y2="69.2"/>
	<line class="st9" x1="1047.3" y1="31.6" x2="1047.3" y2="69.2"/>
	<line class="st9" x1="1041.1" y1="31.6" x2="1041.1" y2="69.2"/>
	<line class="st9" x1="1035" y1="31.6" x2="1035" y2="69.2"/>
	<line class="st9" x1="1028.8" y1="31.6" x2="1028.8" y2="69.2"/>
	<line class="st9" x1="1022.7" y1="31.6" x2="1022.7" y2="69.2"/>
	<line class="st9" x1="1016.6" y1="31.6" x2="1016.6" y2="69.2"/>
	<line class="st9" x1="1010.4" y1="31.6" x2="1010.4" y2="69.2"/>
	<line class="st9" x1="1004.3" y1="31.6" x2="1004.3" y2="69.2"/>
	<path class="st9" d="M822.6,114.8h122.2c0.9,0,1.6,0.7,1.6,1.6v0c0,0.9-0.7,1.6-1.6,1.6H822.6c-0.9,0-1.6-0.7-1.6-1.6v0
		C821,115.5,821.7,114.8,822.6,114.8z"/>
	<path class="st9" d="M822.6,143.6h122.2c0.9,0,1.6,0.7,1.6,1.6l0,0c0,0.9-0.7,1.6-1.6,1.6H822.6c-0.9,0-1.6-0.7-1.6-1.6l0,0
		C821,144.3,821.7,143.6,822.6,143.6z"/>
	<path class="st9" d="M822.6,172.3h122.2c0.9,0,1.6,0.7,1.6,1.6l0,0c0,0.9-0.7,1.6-1.6,1.6H822.6c-0.9,0-1.6-0.7-1.6-1.6l0,0
		C821,173,821.7,172.3,822.6,172.3z"/>
	<path class="st9" d="M603.1,114.8h160.1c0.9,0,1.6,0.7,1.6,1.6v0c0,0.9-0.7,1.6-1.6,1.6H603.1c-0.9,0-1.6-0.7-1.6-1.6v0
		C601.5,115.5,602.2,114.8,603.1,114.8z"/>
	<path class="st9" d="M817,113.6v106.5c0,1.1-0.9,1.9-1.9,1.9l0,0c-1.1,0-1.9-0.9-1.9-1.9V113.6c0-1.1,0.9-1.9,1.9-1.9l0,0
		C816.1,111.7,817,112.6,817,113.6z"/>
	<path class="st9" d="M769.8,113.6v106.5c0,1.1-0.9,1.9-1.9,1.9l0,0c-1.1,0-1.9-0.9-1.9-1.9V113.6c0-1.1,0.9-1.9,1.9-1.9l0,0
		C768.9,111.7,769.8,112.6,769.8,113.6z"/>
	<path class="st9" d="M197,113.6v106.5c0,1.1-0.9,1.9-1.9,1.9l0,0c-1.1,0-1.9-0.9-1.9-1.9V113.6c0-1.1,0.9-1.9,1.9-1.9l0,0
		C196.1,111.7,197,112.6,197,113.6z"/>
	<path class="st9" d="M149.7,113.6v106.5c0,1.1-0.9,1.9-1.9,1.9l0,0c-1.1,0-1.9-0.9-1.9-1.9V113.6c0-1.1,0.9-1.9,1.9-1.9l0,0
		C148.9,111.7,149.7,112.6,149.7,113.6z"/>
	<path class="st9" d="M603.1,143.6h160.1c0.9,0,1.6,0.7,1.6,1.6l0,0c0,0.9-0.7,1.6-1.6,1.6H603.1c-0.9,0-1.6-0.7-1.6-1.6l0,0
		C601.5,144.3,602.2,143.6,603.1,143.6z"/>
	<path class="st9" d="M603.1,172.3h160.1c0.9,0,1.6,0.7,1.6,1.6l0,0c0,0.9-0.7,1.6-1.6,1.6H603.1c-0.9,0-1.6-0.7-1.6-1.6l0,0
		C601.5,173,602.2,172.3,603.1,172.3z"/>
	<path class="st9" d="M463.5,114.8h124.9c0.9,0,1.6,0.7,1.6,1.6v0c0,0.9-0.7,1.6-1.6,1.6H463.5c-0.9,0-1.6-0.7-1.6-1.6v0
		C462,115.5,462.7,114.8,463.5,114.8z"/>
	<path class="st9" d="M463.5,143.6h124.9c0.9,0,1.6,0.7,1.6,1.6l0,0c0,0.9-0.7,1.6-1.6,1.6H463.5c-0.9,0-1.6-0.7-1.6-1.6l0,0
		C462,144.3,462.7,143.6,463.5,143.6z"/>
	<path class="st9" d="M463.5,172.3h124.9c0.9,0,1.6,0.7,1.6,1.6l0,0c0,0.9-0.7,1.6-1.6,1.6H463.5c-0.9,0-1.6-0.7-1.6-1.6l0,0
		C462,173,462.7,172.3,463.5,172.3z"/>
	<path class="st9" d="M328.3,114.8h124.9c0.9,0,1.6,0.7,1.6,1.6v0c0,0.9-0.7,1.6-1.6,1.6H328.3c-0.9,0-1.6-0.7-1.6-1.6v0
		C326.7,115.5,327.4,114.8,328.3,114.8z"/>
	<path class="st9" d="M328.3,143.6h124.9c0.9,0,1.6,0.7,1.6,1.6l0,0c0,0.9-0.7,1.6-1.6,1.6H328.3c-0.9,0-1.6-0.7-1.6-1.6l0,0
		C326.7,144.3,327.4,143.6,328.3,143.6z"/>
	<path class="st9" d="M328.3,172.3h124.9c0.9,0,1.6,0.7,1.6,1.6l0,0c0,0.9-0.7,1.6-1.6,1.6H328.3c-0.9,0-1.6-0.7-1.6-1.6l0,0
		C326.7,173,327.4,172.3,328.3,172.3z"/>
	<path class="st9" d="M205.7,118h-3.1c-0.9,0-1.6-0.7-1.6-1.6c0-0.4,0.2-0.8,0.5-1.1c0.3-0.3,0.7-0.5,1.1-0.5h3.1"/>
	<path class="st9" d="M231.5,114.8h83.6c0.9,0,1.6,0.7,1.6,1.6c0,0.4-0.2,0.8-0.5,1.1c-0.3,0.3-0.7,0.5-1.1,0.5h-83.6"/>
	<line class="st9" x1="229.2" y1="118" x2="208" y2="118"/>
	<line class="st9" x1="229.2" y1="114.8" x2="208" y2="114.8"/>
	<line class="st9" x1="229.2" y1="146.8" x2="208" y2="146.8"/>
	<line class="st9" x1="229.2" y1="143.6" x2="208" y2="143.6"/>
	<path class="st9" d="M231.5,143.6h83.6c0.9,0,1.6,0.7,1.6,1.6c0,0.4-0.2,0.8-0.5,1.1c-0.3,0.3-0.7,0.5-1.1,0.5h-83.6"/>
	<path class="st9" d="M205.7,146.8h-3.1c-0.9,0-1.6-0.7-1.6-1.6c0-0.9,0.7-1.6,1.6-1.6h3.1"/>
	<path class="st9" d="M205.7,175.5h-3.1c-0.9,0.1-1.6-0.6-1.7-1.5c-0.1-0.9,0.6-1.6,1.5-1.7c0.1,0,0.2,0,0.3,0h3.1"/>
	<line class="st9" x1="229.2" y1="172.3" x2="208" y2="172.3"/>
	<line class="st9" x1="229.2" y1="175.5" x2="208" y2="175.5"/>
	<path class="st9" d="M231.5,172.3h83.6c0.9-0.1,1.6,0.6,1.7,1.5c0.1,0.9-0.6,1.6-1.5,1.7c-0.1,0-0.2,0-0.3,0h-83.6"/>
	<path class="st9" d="M1188.1,114.8h113.3c0.9,0,1.6,0.7,1.6,1.6v0c0,0.9-0.7,1.6-1.6,1.6h-113.3c-0.9,0-1.6-0.7-1.6-1.6v0
		C1186.5,115.5,1187.2,114.8,1188.1,114.8z"/>
	<path class="st9" d="M1188.1,143.6h113.3c0.9,0,1.6,0.7,1.6,1.6l0,0c0,0.9-0.7,1.6-1.6,1.6h-113.3c-0.9,0-1.6-0.7-1.6-1.6l0,0
		C1186.5,144.3,1187.2,143.6,1188.1,143.6z"/>
	<path class="st9" d="M1188.1,172.3h113.3c0.9,0,1.6,0.7,1.6,1.6l0,0c0,0.9-0.7,1.6-1.6,1.6h-113.3c-0.9,0-1.6-0.7-1.6-1.6l0,0
		C1186.5,173,1187.2,172.3,1188.1,172.3z"/>
	<path class="st9" d="M1074.5,114.8h99.4c0.9,0,1.6,0.7,1.6,1.6v0c0,0.9-0.7,1.6-1.6,1.6h-99.4c-0.9,0-1.6-0.7-1.6-1.6v0
		C1073,115.5,1073.7,114.8,1074.5,114.8z"/>
	<path class="st9" d="M1074.5,143.6h99.4c0.9,0,1.6,0.7,1.6,1.6l0,0c0,0.9-0.7,1.6-1.6,1.6h-99.4c-0.9,0-1.6-0.7-1.6-1.6l0,0
		C1073,144.3,1073.7,143.6,1074.5,143.6z"/>
	<path class="st9" d="M1074.5,172.3h99.4c0.9,0,1.6,0.7,1.6,1.6l0,0c0,0.9-0.7,1.6-1.6,1.6h-99.4c-0.9,0-1.6-0.7-1.6-1.6l0,0
		C1073,173,1073.7,172.3,1074.5,172.3z"/>
	<path class="st9" d="M957.9,114.8h99.4c0.9,0,1.6,0.7,1.6,1.6v0c0,0.9-0.7,1.6-1.6,1.6h-99.4c-0.9,0-1.6-0.7-1.6-1.6v0
		C956.3,115.5,957,114.8,957.9,114.8z"/>
	<path class="st9" d="M957.9,143.6h99.4c0.9,0,1.6,0.7,1.6,1.6l0,0c0,0.9-0.7,1.6-1.6,1.6h-99.4c-0.9,0-1.6-0.7-1.6-1.6l0,0
		C956.3,144.3,957,143.6,957.9,143.6z"/>
	<path class="st9" d="M957.9,172.3h99.4c0.9,0,1.6,0.7,1.6,1.6l0,0c0,0.9-0.7,1.6-1.6,1.6h-99.4c-0.9,0-1.6-0.7-1.6-1.6l0,0
		C956.3,173,957,172.3,957.9,172.3z"/>
	<path class="st9" d="M160.7,78.5h21.8c5.2,0,9.5,4.2,9.5,9.5v98.2c0,5.2-4.2,9.5-9.5,9.5h-21.8c-5.2,0-9.5-4.2-9.5-9.5V88
		C151.2,82.8,155.5,78.5,160.7,78.5z"/>
	<path class="st9" d="M802.8,195.7H781c-5.3-0.1-9.5-4.4-9.5-9.7c0-0.1,0-0.1,0-0.2V98.6c0.2-5.1,4.4-9.1,9.5-9.1h21.8
		c5.2,0,9.5,4.2,9.5,9.5v87.2C812.3,191.5,808,195.7,802.8,195.7z"/>
	<path class="st9" d="M344.8,87.1h39.9c3.3,0,6.1,2.7,6.1,6.1v13.5c0,3.3-2.7,6.1-6.1,6.1h-39.9c-3.3,0-6.1-2.7-6.1-6.1V93.2
		C338.7,89.8,341.4,87.1,344.8,87.1z"/>
	<path class="st9" d="M642.6,87.1h39.9c3.3,0,6.1,2.7,6.1,6.1v13.5c0,3.3-2.7,6.1-6.1,6.1h-39.9c-3.3,0-6.1-2.7-6.1-6.1V93.2
		C636.5,89.8,639.3,87.1,642.6,87.1z"/>
	<path class="st9" d="M896.6,87.1h39.9c3.3,0,6.1,2.7,6.1,6.1v13.5c0,3.3-2.7,6.1-6.1,6.1h-39.9c-3.3,0-6.1-2.7-6.1-6.1V93.2
		C890.6,89.8,893.3,87.1,896.6,87.1z"/>
	<path class="st9" d="M1118.8,87.1h39.9c3.3,0,6.1,2.7,6.1,6.1v13.5c0,3.3-2.7,6.1-6.1,6.1h-39.9c-3.3,0-6.1-2.7-6.1-6.1V93.2
		C1112.8,89.8,1115.5,87.1,1118.8,87.1z"/>
	<path class="st9" d="M979.2,76.2V16.5c0-1.4-1.1-2.5-2.5-2.5H617.8c-1.4,0-2.5,1.1-2.5,2.5v0v59.7"/>
	<path class="st9" d="M613.3,76.2V16.5c0-1.4-1.1-2.5-2.5-2.5l0,0h-414c-1.4,0-2.5,1.1-2.5,2.5v59.7"/>
	<path class="st9" d="M781.5,207.8h19.3c3.3,0,6.1,2.7,6.1,6.1v0.8c0,3.3-2.7,6.1-6.1,6.1h-19.3c-3.3,0-6.1-2.7-6.1-6.1v-0.8
		C775.5,210.5,778.2,207.8,781.5,207.8z"/>
	<rect x="778.6" y="215.5" class="st9" width="25.3" height="3.6"/>
	<path class="st9" d="M776.1,171.3L776.1,171.3c0.7,0,1.3,0.6,1.3,1.3v11.9c0,0.7-0.6,1.3-1.3,1.3h0c-0.7,0-1.3-0.6-1.3-1.3v-11.9
		C774.8,171.9,775.4,171.3,776.1,171.3z"/>
	<path class="st9" d="M776.1,129.9L776.1,129.9c0.7,0,1.3,0.6,1.3,1.3v11.9c0,0.7-0.6,1.3-1.3,1.3h0c-0.7,0-1.3-0.6-1.3-1.3v-11.9
		C774.8,130.5,775.4,129.9,776.1,129.9z"/>
	<circle class="st9" cx="1038.9" cy="275.5" r="12.1"/>
	<path class="st9" d="M1073.7,257.6c2.3,4.5,3.7,9.4,4.2,14.5"/>
	<path class="st9" d="M1004.1,257.6c-6.7,13.2-5.5,29,3.2,40.9"/>
	<path class="st9" d="M1010.8,302.8c15.1,15.5,39.9,15.9,55.4,0.8c0.3-0.3,0.5-0.5,0.8-0.8"/>
	<path class="st9" d="M1070.5,298.6l0.2-0.3l0.3-0.5c4-5.8,6.4-12.6,6.8-19.6"/>
	<path class="st9" d="M1107.9,277.5c-1.3,3-4.8,4.4-7.8,3c-0.8-0.3-1.5-0.9-2.1-1.5l0,0"/>
	<path class="st9" d="M1098,271.2c1.1-1.3,2.7-2,4.4-2c0.4,0,0.7,0,1.1,0.1l0,0"/>
	<path class="st9" d="M1055.2,269.5c0.5-0.2,1.1-0.2,1.7-0.2c0.8,0,1.5,0.1,2.2,0.4l0,0c0.5,0.2,1.1,0.5,1.5,0.9"/>
	<path class="st9" d="M1060.6,279.7c-0.5,0.4-1,0.7-1.5,0.9l0,0c-0.7,0.3-1.5,0.4-2.2,0.4c-0.5,0-1-0.1-1.4-0.2"/>
	<path class="st9" d="M1099,279.9c-0.3-0.3-0.6-0.6-0.9-0.8l0,0c-0.8-0.6-1.8-0.9-2.8-0.8h-29.8c-1.7,0.2-3.3,0.7-4.8,1.5
		c-0.5,0.3-1,0.6-1.5,0.9"/>
	<path class="st9" d="M1059.1,269.6L1059.1,269.6c0.1,0,0.7,0.4,1.5,0.9c1.5,0.9,3.1,1.4,4.8,1.5h29.8c1,0,2-0.3,2.8-0.9
		c0.3-0.2,0.7-0.5,0.9-0.8"/>
	<path class="st9" d="M1000.8,260.2c-1.8,4.2-2.8,8.7-2.9,13.3c0,0.4-0.3,0.7-0.7,0.7c0,0,0,0,0,0l-2.8-0.2c-0.4,0-0.7-0.4-0.7-0.8
		c0.1-2.2,0.7-9.3,3.4-14.7c0.2-0.3,0.6-0.5,0.9-0.3l2.4,1C1000.8,259.4,1000.9,259.8,1000.8,260.2z"/>
	<path class="st9" d="M998,277.4c0.1,4.6,1.1,9.1,2.9,13.3c0.2,0.4,0,0.8-0.4,1c0,0,0,0,0,0l-2.6,1c-0.4,0.1-0.8,0-0.9-0.4
		c-0.8-2.1-3.3-8.8-3-14.8c0-0.4,0.3-0.7,0.7-0.7l2.6-0.2C997.6,276.7,997.9,277,998,277.4z"/>
	<path class="st9" d="M1079.3,272.1c-0.3-4.1-1.2-8.1-2.9-11.9c-0.2-0.4,0-0.8,0.3-1c0,0,0,0,0.1,0l2.4-1c0.3-0.1,0.7,0,0.9,0.3
		c2.4,4.6,3.1,10.5,3.3,13.5"/>
	<path class="st9" d="M1083.3,278.2c0.1,5.8-2.2,12.1-3,14.1c-0.1,0.4-0.6,0.5-0.9,0.4l-2.6-1c-0.4-0.1-0.6-0.5-0.4-0.9
		c0,0,0-0.1,0-0.1c1.7-4,2.7-8.2,2.8-12.5"/>
	<polygon class="st9" points="1122.2,257.6 1099.6,257.6 1105,273.2 1103.7,273.2 1103.7,277.5 1118,277.5 1118,273.2 1116.8,273.2 
			"/>
	<polygon class="st9" points="932.1,228 946.4,252.9 968.3,252.9 1003.8,228 	"/>
	<polygon class="st9" points="572.1,228 557.9,252.9 536,252.9 500.5,228 	"/>
	<rect x="867.8" y="231.2" class="st9" width="54.7" height="38.5"/>
	<rect x="810.8" y="231.2" class="st9" width="54.7" height="38.5"/>
	<polyline class="st9" points="179.5,235.5 179.5,235.5 184.1,235.5 	"/>
	<line class="st9" x1="510.9" y1="235.5" x2="187" y2="235.5"/>
	<line class="st9" x1="993.9" y1="234.9" x2="1324.7" y2="234.9"/>
	<line class="st9" x1="154.3" y1="256.9" x2="111.2" y2="256.9"/>
	<path class="st9" d="M187,256.9"/>
	<path class="st9" d="M634.7,256.9"/>
	<line class="st9" x1="184.1" y1="256.9" x2="157.2" y2="256.9"/>
	<path class="st9" d="M1017.2,302.6c12.7,10.1,30.6,10.1,43.3,0"/>
	<path class="st9" d="M1064,299.4c5.5-5.8,8.8-13.3,9.4-21.2"/>
	<path class="st9" d="M1009.2,257.6c-8,13.4-6.1,30.5,4.6,41.8"/>
	<path class="st9" d="M1068.6,257.6c2.7,4.4,4.3,9.3,4.8,14.5"/>
	<path class="st9" d="M1095.6,300.5c0,0,2.3-19.1,2.4-21.4"/>
	<path class="st9" d="M1089.2,297.8c0,0,2.6,0.5,2.3-2.8s-1.9-12.8-1.9-12.8c-0.2-1.5-0.9-2.9-2-4"/>
	<polyline class="st9" points="1392.9,257.6 1121.2,257.6 1099.6,257.6 1094.2,257.6 1088.3,257.6 1083.3,257.6 1073.7,257.6 
		1068.6,257.6 1009.2,257.6 1004.1,257.6 946.4,257.6 	"/>
	<path class="st9" d="M1083.3,257.6c1.2,4.8,2.2,9.6,2.9,14.5"/>
	<path class="st9" d="M1100.6,260.5c-0.6,3.1-0.9,6.3-0.9,9.5"/>
	<path class="st9" d="M1023.1,268.2c-4,8.7-0.2,19.1,8.6,23.1c8.7,4,19.1,0.2,23.1-8.6c1.9-4.2,2.1-9,0.5-13.3
		c-0.1-0.2-0.2-0.4-0.2-0.6"/>
	<circle class="st9" cx="1182.7" cy="275.5" r="12.1"/>
	<path class="st9" d="M1143.8,272.1c0.4-5,1.8-10,4.2-14.5"/>
	<path class="st9" d="M1214.4,298.6c8.7-12,10-27.8,3.2-41"/>
	<path class="st9" d="M1154.7,302.8c15.1,15.5,39.8,15.9,55.3,0.8c0.3-0.3,0.5-0.5,0.8-0.8"/>
	<path class="st9" d="M1143.7,278.2c0.5,7,2.8,13.8,6.8,19.6c0.1,0.2,0.2,0.3,0.3,0.5l0.2,0.3"/>
	<path class="st9" d="M1113.7,277.5c1.3,3,4.8,4.4,7.8,3c0.8-0.3,1.5-0.9,2.1-1.5l0,0"/>
	<path class="st9" d="M1118.1,269.3L1118.1,269.3c0.4-0.1,0.7-0.1,1.1-0.1c1.7,0,3.3,0.7,4.4,2"/>
	<path class="st9" d="M1166.2,280.9c-0.5,0.1-0.9,0.2-1.4,0.2c-0.8,0-1.5-0.1-2.2-0.4l0,0c-0.5-0.2-1.1-0.5-1.5-0.9"/>
	<path class="st9" d="M1161,270.5c0.5-0.4,1-0.7,1.5-0.9l0,0c0.7-0.3,1.5-0.4,2.2-0.4c0.6,0,1.1,0.1,1.7,0.2"/>
	<path class="st9" d="M1162.5,280.6c-0.5-0.3-1-0.6-1.5-0.9c-1.5-0.9-3.1-1.4-4.8-1.5h-29.8c-1,0-2,0.3-2.8,0.8l0,0
		c-0.3,0.2-0.7,0.5-0.9,0.8"/>
	<path class="st9" d="M1122.7,270.4c0.3,0.3,0.6,0.6,0.9,0.8c0.8,0.6,1.8,0.9,2.8,0.8h29.8c1.7-0.1,3.3-0.7,4.8-1.5
		c0.5-0.3,1-0.6,1.5-0.9l0,0"/>
	<path class="st9" d="M1220.8,260.2c1.8,4.2,2.8,8.7,2.9,13.3c0,0.4,0.3,0.7,0.7,0.7c0,0,0,0,0,0l2.8-0.2c0.4,0,0.7-0.4,0.7-0.8
		c-0.1-2.2-0.6-9.3-3.4-14.7c-0.2-0.3-0.6-0.5-0.9-0.3l-2.4,1C1220.9,259.4,1220.7,259.8,1220.8,260.2z"/>
	<path class="st9" d="M1223.7,277.4c-0.1,4.6-1.1,9.1-2.9,13.3c-0.2,0.3,0,0.8,0.3,1c0,0,0.1,0,0.1,0l2.6,1c0.4,0.1,0.8,0,0.9-0.4
		c0,0,0,0,0,0c0.8-2.1,3.3-8.8,3-14.8c0-0.4-0.3-0.7-0.7-0.7l-2.6-0.2C1224,276.7,1223.7,277,1223.7,277.4z"/>
	<path class="st9" d="M1138.2,272.1c0.2-3,1-8.9,3.3-13.5c0.2-0.3,0.6-0.5,0.9-0.3l2.4,1c0.4,0.1,0.6,0.5,0.4,0.9c0,0,0,0.1,0,0.1
		c-1.7,3.8-2.6,7.8-2.9,11.9"/>
	<path class="st9" d="M1142.4,278.2c0.2,4.3,1.2,8.6,2.9,12.6c0.2,0.3,0,0.8-0.3,1c0,0-0.1,0-0.1,0l-2.6,1c-0.4,0.1-0.8,0-0.9-0.4
		c0,0,0,0,0,0c-0.8-2-3.2-8.3-3-14.1"/>
	<path class="st9" d="M1161.1,302.6c12.7,10.1,30.6,10.1,43.3,0"/>
	<path class="st9" d="M1148.2,278.2c0.6,8,4,15.5,9.5,21.2"/>
	<path class="st9" d="M1207.8,299.4c10.8-11.3,12.6-28.4,4.6-41.8"/>
	<path class="st9" d="M1148.3,272.1c0.5-5.1,2.1-10.1,4.8-14.5"/>
	<path class="st9" d="M1126,300.5c0,0-2.3-19.1-2.4-21.4"/>
	<path class="st9" d="M1132.4,297.8c0,0-2.6,0.5-2.3-2.8s1.9-12.8,1.9-12.8c0.2-1.5,0.9-2.9,2-4"/>
	<path class="st9" d="M1138.3,257.6c-1.2,4.8-2.2,9.6-2.8,14.5"/>
	<path class="st9" d="M1121.1,260.5c0.6,3.1,1,6.3,1,9.5"/>
	<path class="st9" d="M1167.1,268.3c-0.1,0.2-0.2,0.4-0.3,0.6c-3.7,8.9,0.6,19.1,9.5,22.7s19.1-0.6,22.7-9.5c1.8-4.3,1.7-9.1,0-13.4
		"/>
	<polygon class="st9" points="1255.2,257.6 1232.6,257.6 1237.9,273.2 1236.6,273.2 1236.6,277.5 1251,277.5 1251,273.2 
		1249.7,273.2 	"/>
	<circle class="st9" cx="1315.7" cy="275.5" r="12.1"/>
	<path class="st9" d="M1276.7,272.1c0.4-5,1.9-10,4.2-14.5"/>
	<path class="st9" d="M1347.3,298.6c8.7-12,10-27.8,3.2-41"/>
	<path class="st9" d="M1287.6,302.8c15.1,15.5,39.8,15.9,55.3,0.8c0.3-0.3,0.5-0.5,0.8-0.8"/>
	<path class="st9" d="M1276.6,278.2c0.5,7,2.8,13.8,6.8,19.6l0.3,0.5c0.1,0.1,0.2,0.2,0.2,0.3"/>
	<path class="st9" d="M1246.7,277.5c1.3,3,4.8,4.4,7.8,3.1c0.8-0.3,1.5-0.9,2.1-1.5l0,0"/>
	<path class="st9" d="M1256.6,271.2L1256.6,271.2c-1.1-1.3-2.7-2-4.4-2c-0.4,0-0.7,0-1.1,0.1l0,0"/>
	<path class="st9" d="M1299.1,280.9c-0.5,0.1-0.9,0.2-1.4,0.2c-0.8,0-1.5-0.1-2.2-0.4l0,0c-0.5-0.2-1.1-0.5-1.5-0.9"/>
	<path class="st9" d="M1293.9,270.5c0.5-0.4,1-0.7,1.5-0.9l0,0c0.7-0.3,1.5-0.4,2.2-0.4c0.6,0,1.1,0.1,1.7,0.2"/>
	<path class="st9" d="M1295.5,280.6c-0.5-0.3-1-0.6-1.5-0.9c-1.5-0.9-3.1-1.4-4.8-1.5h-29.8c-1,0-2,0.3-2.8,0.8l0,0
		c-0.3,0.2-0.7,0.5-0.9,0.8"/>
	<path class="st9" d="M1255.6,270.4c0.3,0.3,0.6,0.6,0.9,0.8c0.8,0.6,1.8,0.9,2.8,0.8h29.8c1.7-0.1,3.3-0.7,4.8-1.5
		c0.5-0.3,1-0.6,1.5-0.9l0,0"/>
	<path class="st9" d="M1353.8,260.2c1.8,4.2,2.8,8.7,2.9,13.3c0,0.4,0.3,0.7,0.7,0.7c0,0,0,0,0,0l2.8-0.2c0.4,0,0.7-0.4,0.7-0.8
		c-0.1-2.2-0.7-9.3-3.4-14.7c-0.2-0.3-0.6-0.5-0.9-0.3l-2.4,1C1353.8,259.4,1353.6,259.8,1353.8,260.2z"/>
	<path class="st9" d="M1356.6,277.4c-0.1,4.6-1.1,9.1-2.9,13.3c-0.2,0.4,0,0.8,0.3,1c0,0,0,0,0.1,0l2.6,1c0.4,0.1,0.8,0,0.9-0.4
		c0.8-2.1,3.3-8.8,3-14.8c0-0.4-0.3-0.7-0.7-0.7l-2.6-0.2C1357,276.7,1356.7,277,1356.6,277.4z"/>
	<path class="st9" d="M1271.1,272.1c0.2-3,1-8.9,3.3-13.5c0.2-0.3,0.6-0.5,0.9-0.3l2.4,1c0.4,0.1,0.6,0.6,0.4,0.9c0,0,0,0,0,0.1
		c-1.6,3.8-2.6,7.8-2.9,11.9"/>
	<path class="st9" d="M1275.4,278.2c0.2,4.3,1.2,8.6,2.9,12.6c0.2,0.4,0,0.8-0.3,1c0,0-0.1,0-0.1,0l-2.6,1c-0.4,0.1-0.8,0-0.9-0.4
		c-0.8-2-3.1-8.3-3-14.1"/>
	<path class="st9" d="M1294,302.6c12.7,10.1,30.6,10.1,43.3,0"/>
	<path class="st9" d="M1281.1,278.2c0.6,8,3.9,15.4,9.4,21.2"/>
	<path class="st9" d="M1340.8,299.4c10.8-11.3,12.6-28.4,4.6-41.8"/>
	<path class="st9" d="M1281.2,272.1c0.5-5.1,2.1-10.1,4.8-14.5"/>
	<path class="st9" d="M1258.9,300.5c0,0-2.3-19.1-2.4-21.4"/>
	<path class="st9" d="M1265.4,297.8c0,0-2.6,0.5-2.3-2.8s1.9-12.8,1.9-12.8c0.2-1.5,0.9-2.9,2-4"/>
	<path class="st9" d="M1271.3,257.6c-1.2,4.8-2.2,9.6-2.8,14.5"/>
	<path class="st9" d="M1254,260.5c0.6,3.1,1,6.3,1,9.5"/>
	<path class="st9" d="M1300,268.3c-0.1,0.2-0.2,0.4-0.3,0.6c-3.6,8.9,0.6,19.1,9.6,22.7c8.9,3.6,19.1-0.6,22.7-9.6
		c1.7-4.3,1.7-9,0-13.3"/>
	<path class="st9" d="M984.4,297.8c0.1-4.1,0.5-8.2,1.2-12.3c1.6-8.6-4.2-5.8-0.9-15.5s4.6-12.3,4.6-12.3"/>
	<path class="st9" d="M984.4,303.7c0,1.2,0,1.9,0,1.9h-5.9v-13.7c0,0-0.4-26.9,3.6-29.4c2.2-1.3,4.2-2.9,5.9-4.8"/>
	<path class="st9" d="M1365.3,257.6c0,0,1.3,2.6,4.6,12.3s-2.5,6.9-1,15.5c0.7,4.1,1.1,8.2,1.2,12.3"/>
	<path class="st9" d="M1366.5,257.6c1.7,1.9,3.7,3.5,5.9,4.8c4,2.5,3.6,29.4,3.6,29.4v13.7h-5.9c0,0,0-0.7,0-1.9"/>
	<path class="st9" d="M1242.7,300.8c0,0-0.8-14.9-0.3-23.2"/>
	<path class="st9" d="M1237.4,277.5c-1.9,0.7-3.1,2.6-2.8,4.6c0.5,3.5,2,10.8,2,10.8s1.4,4.8-2.1,4.8"/>
	<path class="st9" d="M1357.9,291.7c0,0,3.7-0.1,4.9,0s2.1-0.9,3-3.1c0.8-1.8,1.8-3.5,3-5"/>
	<path class="st9" d="M1224.7,292.3c0,0,3.3-0.4,5.4-0.4s2.6-2.8,3.1-3.9s1.8-3.2,1.8-3.2"/>
	<path class="st9" d="M996.9,292.3c0,0-4.1,0-5.7,0s-2.5-1.9-3-2.8s-1.8-3.4-2.6-4.7"/>
	<circle class="st9" cx="466.5" cy="276.4" r="12.1"/>
	<path class="st9" d="M427.5,272.9c0.4-5,1.9-10,4.2-14.5"/>
	<path class="st9" d="M498.2,299.4c8.7-11.9,10-27.8,3.2-40.9"/>
	<path class="st9" d="M438.5,303.6c15.1,15.5,39.9,15.9,55.4,0.8c0.3-0.3,0.5-0.5,0.8-0.8"/>
	<path class="st9" d="M427.5,279c0.5,7,2.8,13.8,6.8,19.6l0.3,0.5l0.2,0.3"/>
	<path class="st9" d="M401.9,270.2L401.9,270.2c0.4-0.1,0.7-0.1,1.1-0.1c1.7,0,3.3,0.7,4.5,2"/>
	<path class="st9" d="M407.4,279.9L407.4,279.9c-2.2,2.5-5.9,2.7-8.4,0.5c-0.7-0.6-1.2-1.3-1.5-2.1"/>
	<path class="st9" d="M450,281.7c-0.5,0.1-0.9,0.2-1.4,0.2c-0.8,0-1.5-0.1-2.2-0.4l0,0c-0.5-0.2-1.1-0.5-1.5-0.9"/>
	<path class="st9" d="M444.8,271.4c0.5-0.4,1-0.7,1.5-0.9l0,0c0.7-0.3,1.5-0.4,2.2-0.4c0.6,0,1.1,0.1,1.7,0.2"/>
	<path class="st9" d="M446.3,281.5c-0.5-0.3-1-0.6-1.5-0.9c-1.5-0.9-3.1-1.4-4.8-1.5h-29.8c-1,0-2,0.3-2.8,0.8l0,0
		c-0.3,0.2-0.6,0.5-0.9,0.8"/>
	<path class="st9" d="M406.5,271.2c0.3,0.3,0.6,0.6,0.9,0.8c0.8,0.6,1.8,0.9,2.8,0.9H440c1.7-0.2,3.3-0.7,4.8-1.5
		c0.9-0.5,1.4-0.8,1.5-0.9l0,0"/>
	<rect x="387.4" y="274.1" class="st9" width="14.4" height="4.3"/>
	<path class="st9" d="M504.6,261c1.8,4.2,2.8,8.8,2.9,13.4c0,0.4,0.3,0.7,0.7,0.7c0,0,0,0,0,0l2.8-0.2c0.4,0,0.7-0.4,0.7-0.7
		c-0.1-2.2-0.7-9.3-3.4-14.7c-0.2-0.3-0.6-0.5-0.9-0.3l-2.4,1C504.7,260.2,504.5,260.6,504.6,261z"/>
	<path class="st9" d="M507.5,278.3c-0.1,4.6-1.1,9.1-2.9,13.3c-0.2,0.4,0,0.8,0.4,1c0,0,0,0,0,0l2.6,1c0.4,0.1,0.8,0,0.9-0.4
		c0.8-2.1,3.3-8.8,3-14.8c0-0.4-0.3-0.7-0.7-0.7l-2.6-0.2C507.8,277.6,507.5,277.9,507.5,278.3z"/>
	<path class="st9" d="M422,272.9c0.2-3,1-8.9,3.4-13.5c0.2-0.3,0.6-0.5,0.9-0.3l2.4,1c0.4,0.1,0.6,0.6,0.4,0.9c0,0,0,0,0,0.1
		c-1.6,3.8-2.6,7.8-2.9,11.9"/>
	<path class="st9" d="M426.2,279c0.2,4.3,1.2,8.6,2.9,12.6c0.2,0.4,0,0.8-0.3,1c0,0-0.1,0-0.1,0l-2.6,1c-0.4,0.1-0.8,0-0.9-0.4
		c-0.8-2-3.1-8.3-3-14.1"/>
	<polygon class="st9" points="405.8,258.5 400.4,274.1 388.6,274.1 383.2,258.5 	"/>
	<path class="st9" d="M444.9,303.4c12.7,10.1,30.6,10.1,43.3,0"/>
	<path class="st9" d="M432,279c0.6,8,3.9,15.5,9.5,21.2"/>
	<path class="st9" d="M491.6,300.2c10.8-11.3,12.6-28.4,4.6-41.8"/>
	<path class="st9" d="M432.1,272.9c0.5-5.1,2.1-10.1,4.8-14.5"/>
	<path class="st9" d="M409.8,301.3c0,0-2.3-19.1-2.4-21.4"/>
	<path class="st9" d="M416.2,298.6c0,0-2.6,0.5-2.3-2.8s1.9-12.8,1.9-12.8c0.2-1.5,0.9-2.9,2-4"/>
	<line class="st9" x1="154.3" y1="258.5" x2="114" y2="258.5"/>
	<polyline class="st9" points="187,258.5 384.2,258.5 405.8,258.5 411.2,258.5 417.1,258.5 422.1,258.5 431.7,258.5 436.9,258.5 
		496.2,258.5 501.4,258.5 634.7,258.5 	"/>
	<line class="st9" x1="184.1" y1="258.5" x2="157.2" y2="258.5"/>
	<path class="st9" d="M422.1,258.5c-1.2,4.8-2.2,9.6-2.9,14.5"/>
	<path class="st9" d="M404.9,261.3c0.6,3.1,1,6.3,1,9.5"/>
	<path class="st9" d="M450.4,269.7c-0.1,0.2-0.2,0.4-0.2,0.6c-3.3,9,1.3,19.1,10.3,22.4c9,3.3,19.1-1.3,22.4-10.3
		c1.6-4.3,1.4-9.1-0.5-13.3"/>
	<circle class="st9" cx="322.7" cy="276.4" r="12.1"/>
	<path class="st9" d="M357.5,258.5c2.3,4.5,3.7,9.4,4.2,14.5"/>
	<path class="st9" d="M287.9,258.5c-6.8,13.2-5.5,29,3.2,41"/>
	<path class="st9" d="M294.6,303.6c15,15.5,39.8,15.9,55.3,0.8c0.3-0.3,0.6-0.5,0.8-0.8"/>
	<path class="st9" d="M354.3,299.4l0.2-0.3c0.1-0.2,0.2-0.3,0.3-0.5c4-5.8,6.4-12.6,6.9-19.6"/>
	<path class="st9" d="M391.7,278.4c-1.3,3-4.8,4.4-7.8,3c-0.4-0.2-0.8-0.4-1.1-0.7c-0.3-0.2-0.6-0.5-0.9-0.8l0,0"/>
	<path class="st9" d="M381.8,272.1L381.8,272.1c1.1-1.3,2.7-2,4.4-2c0.4,0,0.7,0,1.1,0.1l0,0"/>
	<path class="st9" d="M339,270.3c0.5-0.2,1.1-0.2,1.7-0.2c0.8,0,1.5,0.1,2.2,0.4l0,0c0.5,0.2,1,0.5,1.5,0.9"/>
	<path class="st9" d="M344.4,280.6c-0.5,0.4-1,0.7-1.5,0.9l0,0c-0.7,0.3-1.5,0.4-2.2,0.4c-0.5,0-1-0.1-1.4-0.2"/>
	<path class="st9" d="M342.9,281.5L342.9,281.5c0.1,0,0.7-0.4,1.5-0.9c1.5-0.9,3.1-1.4,4.8-1.5H379c1,0,2,0.3,2.8,0.8l0,0
		c0.3,0.2,0.6,0.5,0.9,0.8"/>
	<path class="st9" d="M382.8,271.2c-0.3,0.3-0.6,0.6-0.9,0.8l0,0c-0.8,0.6-1.8,0.9-2.8,0.8h-29.8c-1.7-0.1-3.3-0.7-4.8-1.5
		c-0.8-0.4-1.4-0.8-1.5-0.9l0,0"/>
	<path class="st9" d="M284.6,261c-1.9,4.2-2.9,8.7-3,13.3c0,0.4-0.3,0.7-0.7,0.7c0,0,0,0,0,0l-2.8-0.2c-0.4,0-0.7-0.4-0.7-0.8
		c0.1-2.2,0.6-9.3,3.4-14.7c0.2-0.3,0.6-0.5,0.9-0.3l2.4,1C284.5,260.2,284.7,260.6,284.6,261C284.6,261,284.6,261,284.6,261z"/>
	<path class="st9" d="M281.8,278.3c0.1,4.6,1.1,9.1,2.9,13.3c0.2,0.3,0,0.8-0.3,1c0,0-0.1,0-0.1,0l-2.6,1c-0.4,0.1-0.8,0-0.9-0.4
		c-0.8-2.1-3.3-8.8-3-14.8c0-0.4,0.3-0.7,0.7-0.7l2.6-0.2C281.4,277.6,281.7,277.9,281.8,278.3z"/>
	<path class="st9" d="M363.1,272.9c-0.3-4.1-1.2-8.1-2.9-11.9c-0.2-0.3,0-0.8,0.3-1c0,0,0.1,0,0.1,0l2.4-1c0.3-0.1,0.7,0,0.9,0.3
		c2.4,4.6,3.1,10.5,3.4,13.5"/>
	<path class="st9" d="M367.1,279c0.1,5.8-2.2,12.1-3,14.1c-0.1,0.4-0.6,0.5-0.9,0.4l-2.6-1c-0.4-0.1-0.6-0.5-0.4-0.9
		c0,0,0-0.1,0-0.1c1.7-4,2.7-8.3,2.9-12.6"/>
	<path class="st9" d="M301.1,303.4c12.7,10.1,30.6,10.1,43.3,0"/>
	<path class="st9" d="M347.8,300.2c5.5-5.8,8.9-13.3,9.5-21.2"/>
	<path class="st9" d="M293,258.5c-8,13.4-6.2,30.5,4.6,41.8"/>
	<path class="st9" d="M352.4,258.5c2.7,4.4,4.3,9.3,4.8,14.4"/>
	<path class="st9" d="M379.4,301.3c0,0,2.3-19.1,2.4-21.4"/>
	<path class="st9" d="M373,298.6c0,0,2.6,0.5,2.3-2.8s-1.9-12.8-1.9-12.8c-0.2-1.5-0.9-2.9-2-4"/>
	<path class="st9" d="M367.1,258.5c1.2,4.8,2.2,9.6,2.9,14.5"/>
	<path class="st9" d="M384.4,261.3c-0.6,3.1-1,6.3-1,9.5"/>
	<path class="st9" d="M306.4,269.6c-3.7,8.9,0.4,19.1,9.3,22.8c8.9,3.7,19.1-0.4,22.8-9.3c0.3-0.6,0.5-1.3,0.7-2
		c0.5-1.8,0.7-3.6,0.7-5.4c-0.1-2.1-0.5-4.1-1.3-6l-0.3-0.6"/>
	<rect x="254.5" y="274.1" class="st9" width="14.4" height="4.3"/>
	<polygon class="st9" points="272.9,258.5 267.5,274.1 255.7,274.1 250.2,258.5 	"/>
	<path class="st9" d="M184.1,276.6h-6.4v-0.2c0-4.5,2.5-8.6,6.4-10.7V276.6z"/>
	<path class="st9" d="M201.8,276.4c0,6.7-5.5,12-12.2,12c-5.3,0-9.9-3.5-11.5-8.5h7.4c0.8,0,1.5-0.7,1.5-1.5l0,0v-13.8
		c0.9-0.2,1.8-0.3,2.8-0.3C196.4,264.3,201.8,269.7,201.8,276.4C201.8,276.4,201.8,276.4,201.8,276.4z"/>
	<path class="st9" d="M224.6,258.5c2.3,4.5,3.7,9.4,4.2,14.5"/>
	<path class="st9" d="M154.3,259.8c-6,12.9-4.5,28.1,3.8,39.6"/>
	<path class="st9" d="M161.7,303.6c15,15.5,39.8,15.9,55.3,0.8c0.3-0.3,0.6-0.5,0.8-0.8"/>
	<path class="st9" d="M221.4,299.4c0.1-0.1,0.2-0.2,0.2-0.3l0.3-0.5c4-5.8,6.4-12.6,6.8-19.6"/>
	<path class="st9" d="M254.4,270.2L254.4,270.2c-0.4-0.1-0.7-0.1-1.1-0.1c-1.7,0-3.3,0.7-4.4,2l0,0"/>
	<path class="st9" d="M248.9,279.9L248.9,279.9c0.3,0.3,0.6,0.6,0.9,0.8c2.6,2,6.3,1.4,8.3-1.2c0.3-0.4,0.5-0.8,0.7-1.2"/>
	<path class="st9" d="M206.1,270.3c1.3-0.4,2.6-0.3,3.9,0.2l0,0c0.5,0.2,1,0.5,1.5,0.9"/>
	<path class="st9" d="M211.5,280.6c-0.5,0.4-1,0.7-1.5,0.9l0,0c-0.7,0.3-1.5,0.4-2.2,0.4c-0.5,0-1-0.1-1.4-0.2"/>
	<path class="st9" d="M249.8,280.7c-0.3-0.3-0.6-0.6-0.9-0.8l0,0c-0.8-0.6-1.8-0.9-2.8-0.8h-29.8c-1.7,0.2-3.3,0.7-4.8,1.5
		c-0.5,0.3-1,0.6-1.5,0.9"/>
	<path class="st9" d="M210,270.5L210,270.5c0.5,0.3,1,0.6,1.5,0.9c1.5,0.9,3.1,1.4,4.8,1.5h29.8c1,0,2-0.3,2.8-0.9
		c0.3-0.2,0.7-0.5,0.9-0.8"/>
	<path class="st9" d="M151.7,261c-1.8,4.2-2.8,8.8-2.9,13.4c0,0.4-0.3,0.7-0.7,0.7c0,0,0,0,0,0l-2.8-0.2c-0.4,0-0.7-0.4-0.7-0.8
		c0.1-2.2,0.6-9.3,3.4-14.7c0.2-0.3,0.6-0.5,0.9-0.3l2.4,1C151.6,260.2,151.8,260.6,151.7,261z"/>
	<path class="st9" d="M148.8,278.3c0.1,4.6,1.1,9.1,2.9,13.3c0.2,0.4,0,0.8-0.3,1c0,0,0,0-0.1,0l-2.6,1c-0.4,0.1-0.8,0-0.9-0.4
		c-0.8-2.1-3.3-8.8-3-14.8c0-0.4,0.3-0.7,0.7-0.7l2.6-0.2C148.5,277.6,148.8,277.9,148.8,278.3z"/>
	<path class="st9" d="M230.1,272.9c-0.3-4.1-1.3-8.1-2.9-11.9c-0.2-0.4,0-0.8,0.3-1c0,0,0,0,0.1,0l2.4-1c0.3-0.1,0.7,0,0.9,0.3
		c2.4,4.6,3.1,10.5,3.4,13.5"/>
	<path class="st9" d="M234.1,279c0.1,5.8-2.2,12.1-3,14.1c-0.1,0.4-0.6,0.5-0.9,0.4l-2.6-1c-0.4-0.1-0.6-0.5-0.4-0.9
		c0,0,0-0.1,0-0.1c1.7-4,2.7-8.3,2.9-12.6"/>
	<path class="st9" d="M216.3,303.4v0.2h5.3v0.9h20.8c0.3,0.1,0.7,0.1,1,0.2c1.7,0,3.2-1.4,3.2-3.1c0-1.7-1.4-3.2-3.1-3.2
		c-0.4,0-0.7,0.1-1,0.2h-20.8v0.8h-5.3v0.8h-56.1v-0.8h-3.4v1.2l-4.3-0.1v-1.9h-18.6c-1.6-0.5-3.4,0.3-4,2c-0.1,0.3-0.2,0.7-0.2,1
		c0,1.7,1.4,3.1,3.1,3.1c0.3,0,0.7-0.1,1-0.2h18.6v-2.1l4.3,0.1v1.7h3.4v-0.6h5.3v-0.2H216.3z"/>
	<path class="st9" d="M168.1,303.4c12.7,10.1,30.6,10.1,43.3,0"/>
	<path class="st9" d="M214.8,300.2c5.5-5.8,8.8-13.3,9.4-21.2"/>
	<path class="st9" d="M155.3,279.8c0.7,7.7,4.1,14.9,9.4,20.5"/>
	<path class="st9" d="M160.1,258.5c-1.1,1.9-2.1,3.9-2.9,6"/>
	<path class="st9" d="M219.4,258.5c2.7,4.4,4.3,9.3,4.8,14.5"/>
	<path class="st9" d="M246.5,301.3c0,0,2.3-19.1,2.4-21.4"/>
	<path class="st9" d="M240.1,298.6c0,0,2.6,0.5,2.3-2.8s-1.9-12.8-1.9-12.8c-0.2-1.5-0.9-2.9-1.9-4"/>
	<path class="st9" d="M234.2,258.5c1.2,4.8,2.2,9.6,2.9,14.5"/>
	<path class="st9" d="M251.4,261.3c-0.6,3.1-1,6.3-1,9.5"/>
	<path class="st9" d="M172.2,276.6c0-2.4,0.4-4.8,1.3-7"/>
	<path class="st9" d="M205.4,269.1l0.3,0.6c1.5,3.6,1.7,7.7,0.6,11.4c-2.7,9.3-12.3,14.6-21.6,11.9c-6.2-1.8-11-6.9-12.3-13.3"/>
	<path class="st9" d="M516.2,258.5c0,0,1.3,2.6,4.6,12.3s-2.5,6.9-0.9,15.5c0.7,4.1,1.1,8.2,1.2,12.3"/>
	<path class="st9" d="M517.4,258.5c1.7,1.9,3.7,3.5,5.9,4.8c4,2.5,3.6,29.4,3.6,29.4v13.7H521c0,0,0-0.7,0-1.9"/>
	<path class="st9" d="M135.3,298.6c0.1-4.1,0.5-8.2,1.2-12.3c1.6-8.6-4.2-5.8-0.9-15.5s4.6-12.3,4.6-12.3"/>
	<path class="st9" d="M135.3,304.6c0,1.2,0,1.9,0,1.9h-5.9v-13.7c0,0-0.4-26.9,3.6-29.4c2.2-1.3,4.2-2.9,5.9-4.8"/>
	<path class="st9" d="M262.7,301.6c0,0,0.8-14.9,0.3-23.2"/>
	<path class="st9" d="M268,278.4c1.9,0.7,3.1,2.6,2.8,4.6c-0.5,3.5-2,10.8-2,10.8s-1.4,4.8,2.1,4.8"/>
	<path class="st9" d="M147.6,292.6c0,0-3.7-0.1-4.9,0s-2.1-0.9-3-3.1c-0.8-1.8-1.8-3.5-3-5"/>
	<path class="st9" d="M280.7,293.2c0,0-3.3-0.4-5.4-0.4s-2.6-2.8-3.1-3.9s-1.8-3.2-1.8-3.2"/>
	<path class="st9" d="M508.5,293.2c0,0,4.1,0,5.7,0s2.5-1.9,3-2.8s1.8-3.4,2.6-4.7"/>
	<path class="st9" d="M304.1,19.2h146.3c0.8,0,1.4,0.6,1.4,1.4v49.6c0,0.8-0.6,1.4-1.4,1.4H304.1c-0.8,0-1.4-0.6-1.4-1.4V20.6
		C302.7,19.8,303.3,19.2,304.1,19.2z"/>
	<polygon class="st9" points="304.4,23.4 307.1,21 307.1,21 309.8,23.4 312.5,21 312.5,21 315.2,23.4 317.9,21 317.9,21 320.6,23.4 
		323.3,21 323.3,21 326,23.4 328.7,21 328.7,21 331.4,23.4 334.1,21 334.1,21 336.8,23.4 339.5,21 339.5,21 342.1,23.4 344.9,21 
		344.9,21 347.5,23.4 350.2,21 350.2,21 352.9,23.4 355.6,21 355.6,21 358.3,23.4 361,21 361,21 363.7,23.4 366.4,21 366.4,21 
		369.1,23.4 371.8,21 371.8,21 374.5,23.4 377.2,21 377.2,21 379.9,23.4 382.6,21 382.6,21 385.3,23.4 388,21 388,21 390.7,23.4 
		393.4,21 393.4,21 396,23.4 398.7,21 398.7,21 401.4,23.4 404.1,21 404.1,21 406.8,23.4 409.5,21 409.5,21 412.2,23.4 414.9,21 
		414.9,21 417.6,23.4 420.3,21 420.3,21 423,23.4 425.7,21 425.7,21 428.4,23.4 431.1,21 431.1,21 433.8,23.4 436.5,21 436.5,21 
		439.2,23.4 441.9,21 441.9,21 444.5,23.4 447.2,21 447.2,21 449.9,23.4 449.9,67.4 304.4,67.4 	"/>
	<line class="st9" x1="309.8" y1="23.4" x2="309.8" y2="67.4"/>
	<line class="st9" x1="315.2" y1="23.4" x2="315.2" y2="67.4"/>
	<line class="st9" x1="320.6" y1="23.4" x2="320.6" y2="67.4"/>
	<line class="st9" x1="326" y1="23.4" x2="326" y2="67.4"/>
	<line class="st9" x1="331.4" y1="23.4" x2="331.4" y2="67.4"/>
	<line class="st9" x1="336.8" y1="23.4" x2="336.8" y2="67.4"/>
	<line class="st9" x1="342.1" y1="23.4" x2="342.1" y2="67.4"/>
	<line class="st9" x1="347.5" y1="23.4" x2="347.5" y2="67.4"/>
	<line class="st9" x1="352.9" y1="23.4" x2="352.9" y2="67.4"/>
	<line class="st9" x1="358.3" y1="23.4" x2="358.3" y2="67.4"/>
	<line class="st9" x1="363.7" y1="23.4" x2="363.7" y2="67.4"/>
	<line class="st9" x1="369.1" y1="23.4" x2="369.1" y2="67.4"/>
	<line class="st9" x1="374.5" y1="23.4" x2="374.5" y2="67.4"/>
	<line class="st9" x1="379.9" y1="23.4" x2="379.9" y2="67.4"/>
	<line class="st9" x1="385.3" y1="23.4" x2="385.3" y2="67.4"/>
	<line class="st9" x1="390.6" y1="23.4" x2="390.6" y2="67.4"/>
	<line class="st9" x1="396" y1="23.4" x2="396" y2="67.4"/>
	<line class="st9" x1="401.4" y1="23.4" x2="401.4" y2="67.4"/>
	<line class="st9" x1="406.8" y1="23.4" x2="406.8" y2="67.4"/>
	<line class="st9" x1="412.2" y1="23.4" x2="412.2" y2="67.4"/>
	<line class="st9" x1="417.6" y1="23.4" x2="417.6" y2="67.4"/>
	<line class="st9" x1="423" y1="23.4" x2="423" y2="67.4"/>
	<line class="st9" x1="428.4" y1="23.4" x2="428.4" y2="67.4"/>
	<line class="st9" x1="433.8" y1="23.4" x2="433.8" y2="67.4"/>
	<line class="st9" x1="439.1" y1="23.4" x2="439.1" y2="67.4"/>
	<line class="st9" x1="444.5" y1="23.4" x2="444.5" y2="67.4"/>
	<path class="st9" d="M455.4,19.2h146.3c0.8,0,1.4,0.6,1.4,1.4v49.6c0,0.8-0.6,1.4-1.4,1.4H455.4c-0.8,0-1.4-0.6-1.4-1.4V20.6
		C454,19.8,454.6,19.2,455.4,19.2z"/>
	<polygon class="st9" points="455.7,23.4 458.4,21 458.4,21 461.1,23.4 463.8,21 463.8,21 466.5,23.4 469.2,21 469.2,21 471.9,23.4 
		474.6,21 474.6,21 477.3,23.4 480,21 480,21 482.7,23.4 485.4,21 485.4,21 488,23.4 490.7,21 490.7,21 493.4,23.4 496.1,21 
		496.1,21 498.8,23.4 501.5,21 501.5,21 504.2,23.4 506.9,21 506.9,21 509.6,23.4 512.3,21 512.3,21 515,23.4 517.7,21 517.7,21 
		520.4,23.4 523.1,21 523.1,21 525.8,23.4 528.5,21 528.5,21 531.2,23.4 533.9,21 533.9,21 536.5,23.4 539.2,21 539.2,21 
		541.9,23.4 544.6,21 544.6,21 547.3,23.4 550,21 550,21 552.7,23.4 555.4,21 555.4,21 558.1,23.4 560.8,21 560.8,21 563.5,23.4 
		566.2,21 566.2,21 568.9,23.4 571.6,21 571.6,21 574.3,23.4 577,21 577,21 579.7,23.4 582.4,21 582.4,21 585,23.4 587.8,21 
		587.8,21 590.5,23.4 593.1,21 593.1,21 595.8,23.4 598.5,21 598.5,21 601.2,23.4 601.2,67.4 455.7,67.4 	"/>
	<line class="st9" x1="461.1" y1="23.4" x2="461.1" y2="67.4"/>
	<line class="st9" x1="466.5" y1="23.4" x2="466.5" y2="67.4"/>
	<line class="st9" x1="471.9" y1="23.4" x2="471.9" y2="67.4"/>
	<line class="st9" x1="477.3" y1="23.4" x2="477.3" y2="67.4"/>
	<line class="st9" x1="482.7" y1="23.4" x2="482.7" y2="67.4"/>
	<line class="st9" x1="488" y1="23.4" x2="488" y2="67.4"/>
	<line class="st9" x1="493.4" y1="23.4" x2="493.4" y2="67.4"/>
	<line class="st9" x1="498.8" y1="23.4" x2="498.8" y2="67.4"/>
	<line class="st9" x1="504.2" y1="23.4" x2="504.2" y2="67.4"/>
	<line class="st9" x1="509.6" y1="23.4" x2="509.6" y2="67.4"/>
	<line class="st9" x1="515" y1="23.4" x2="515" y2="67.4"/>
	<line class="st9" x1="520.4" y1="23.4" x2="520.4" y2="67.4"/>
	<line class="st9" x1="525.8" y1="23.4" x2="525.8" y2="67.4"/>
	<line class="st9" x1="531.2" y1="23.4" x2="531.2" y2="67.4"/>
	<line class="st9" x1="536.5" y1="23.4" x2="536.5" y2="67.4"/>
	<line class="st9" x1="541.9" y1="23.4" x2="541.9" y2="67.4"/>
	<line class="st9" x1="547.3" y1="23.4" x2="547.3" y2="67.4"/>
	<line class="st9" x1="552.7" y1="23.4" x2="552.7" y2="67.4"/>
	<line class="st9" x1="558.1" y1="23.4" x2="558.1" y2="67.4"/>
	<line class="st9" x1="563.5" y1="23.4" x2="563.5" y2="67.4"/>
	<line class="st9" x1="568.9" y1="23.4" x2="568.9" y2="67.4"/>
	<line class="st9" x1="574.3" y1="23.4" x2="574.3" y2="67.4"/>
	<line class="st9" x1="579.7" y1="23.4" x2="579.7" y2="67.4"/>
	<line class="st9" x1="585" y1="23.4" x2="585" y2="67.4"/>
	<line class="st9" x1="590.4" y1="23.4" x2="590.4" y2="67.4"/>
	<line class="st9" x1="595.8" y1="23.4" x2="595.8" y2="67.4"/>
	<path class="st9" d="M605.6,20.2l4.3,2.4c0.2,0.1,0.3,0.3,0.3,0.5v48c0,0.3-0.3,0.6-0.6,0.6c0,0,0,0,0,0h-4.3
		c-0.3,0-0.6-0.2-0.6-0.6c0,0,0,0,0,0V20.7c0-0.3,0.3-0.6,0.6-0.6C605.4,20.1,605.5,20.1,605.6,20.2z"/>
	<path class="st9" d="M604.7,69c0,0-0.1-0.8,0.6-0.5s5.3,2.7,4.2,3.1"/>
	<path class="st9" d="M813.9,19.2h147.9c0.8,0,1.4,0.6,1.4,1.4v49.6c0,0.8-0.6,1.4-1.4,1.4H813.9c-0.8,0-1.4-0.6-1.4-1.4V20.6
		C812.5,19.8,813.1,19.2,813.9,19.2z"/>
	<polygon class="st9" points="814.2,23.4 816.9,21 816.9,21 819.6,23.4 822.3,21 822.3,21 825,23.4 827.7,21 827.7,21 830.4,23.4 
		833.1,21 833.1,21 835.8,23.4 838.5,21 838.5,21 841.2,23.4 843.9,21 843.9,21 846.6,23.4 849.3,21 849.3,21 852,23.4 854.7,21 
		854.7,21 857.3,23.4 860,21 860,21 862.7,23.4 865.4,21 865.4,21 868.1,23.4 870.8,21 870.8,21 873.5,23.4 876.2,21 876.2,21 
		878.9,23.4 881.6,21 881.6,21 884.3,23.4 887,21 887,21 889.7,23.4 892.4,21 892.4,21 895.1,23.4 897.8,21 897.8,21 900.5,23.4 
		903.2,21 903.2,21 905.8,23.4 908.5,21 908.5,21 911.2,23.4 913.9,21 913.9,21 916.6,23.4 919.3,21 919.3,21 922,23.4 924.7,21 
		924.7,21 927.4,23.4 930.1,21 930.1,21 932.8,23.4 935.5,21 935.5,21 938.2,23.4 940.9,21 940.9,21 943.6,23.4 946.3,21 946.3,21 
		949,23.4 951.7,21 951.7,21 954.3,23.4 957,21 957,21 959.7,23.4 959.7,67.4 814.2,67.4 	"/>
	<line class="st9" x1="819.6" y1="23.4" x2="819.6" y2="67.4"/>
	<line class="st9" x1="825" y1="23.4" x2="825" y2="67.4"/>
	<line class="st9" x1="830.4" y1="23.4" x2="830.4" y2="67.4"/>
	<line class="st9" x1="835.8" y1="23.4" x2="835.8" y2="67.4"/>
	<line class="st9" x1="841.2" y1="23.4" x2="841.2" y2="67.4"/>
	<line class="st9" x1="846.6" y1="23.4" x2="846.6" y2="67.4"/>
	<line class="st9" x1="852" y1="23.4" x2="852" y2="67.4"/>
	<line class="st9" x1="857.3" y1="23.4" x2="857.3" y2="67.4"/>
	<line class="st9" x1="862.7" y1="23.4" x2="862.7" y2="67.4"/>
	<line class="st9" x1="868.1" y1="23.4" x2="868.1" y2="67.4"/>
	<line class="st9" x1="873.5" y1="23.4" x2="873.5" y2="67.4"/>
	<line class="st9" x1="878.9" y1="23.4" x2="878.9" y2="67.4"/>
	<line class="st9" x1="884.3" y1="23.4" x2="884.3" y2="67.4"/>
	<line class="st9" x1="889.7" y1="23.4" x2="889.7" y2="67.4"/>
	<line class="st9" x1="895.1" y1="23.4" x2="895.1" y2="67.4"/>
	<line class="st9" x1="900.5" y1="23.4" x2="900.5" y2="67.4"/>
	<line class="st9" x1="905.8" y1="23.4" x2="905.8" y2="67.4"/>
	<line class="st9" x1="911.2" y1="23.4" x2="911.2" y2="67.4"/>
	<line class="st9" x1="916.6" y1="23.4" x2="916.6" y2="67.4"/>
	<line class="st9" x1="922" y1="23.4" x2="922" y2="67.4"/>
	<line class="st9" x1="927.4" y1="23.4" x2="927.4" y2="67.4"/>
	<line class="st9" x1="932.8" y1="23.4" x2="932.8" y2="67.4"/>
	<line class="st9" x1="938.2" y1="23.4" x2="938.2" y2="67.4"/>
	<line class="st9" x1="943.6" y1="23.4" x2="943.6" y2="67.4"/>
	<line class="st9" x1="949" y1="23.4" x2="949" y2="67.4"/>
	<line class="st9" x1="954.3" y1="23.4" x2="954.3" y2="67.4"/>
	<path class="st9" d="M965.3,21.1l4.3,2.4c0.2,0.1,0.3,0.3,0.3,0.5V71c0,0.3-0.3,0.6-0.6,0.6c0,0,0,0,0,0H965
		c-0.3,0-0.6-0.2-0.6-0.6c0,0,0,0,0,0V21.6c0-0.3,0.3-0.6,0.6-0.6C965.1,21,965.2,21,965.3,21.1z"/>
	<path class="st9" d="M964.4,69c0,0-0.1-0.8,0.6-0.5s5.3,2.7,4.2,3.1"/>
	<path class="st9" d="M810.2,21.1l-4.3,2.4c-0.2,0.1-0.3,0.3-0.3,0.5V71c0,0.3,0.2,0.6,0.6,0.6c0,0,0,0,0,0h4.3
		c0.3,0,0.6-0.3,0.6-0.6c0,0,0,0,0,0V21.6c0-0.3-0.3-0.6-0.6-0.6C810.4,21,810.3,21,810.2,21.1z"/>
	<path class="st9" d="M811.1,69c0,0,0.1-0.8-0.6-0.5s-5.3,2.7-4.2,3.1"/>
	<path class="st9" d="M228.8,20l-4.3,2.4c-0.2,0.1-0.3,0.3-0.3,0.5v48c0,0.3,0.3,0.6,0.6,0.6c0,0,0,0,0,0h4.3c0.3,0,0.6-0.3,0.6-0.6
		c0,0,0,0,0,0V20.5c0-0.3-0.3-0.6-0.6-0.6C229,19.9,228.9,19.9,228.8,20z"/>
	<path class="st9" d="M229.7,68.8c0,0,0.1-0.8-0.6-0.5s-5.3,2.7-4.2,3.1"/>
	<path class="st9" d="M233.1,19.9h65.3c0.3,0,0.5,0.2,0.5,0.5v50.7c0,0.3-0.2,0.5-0.5,0.5h-65.3c-0.3,0-0.5-0.2-0.5-0.5V20.4
		C232.6,20.1,232.8,19.9,233.1,19.9z"/>
	<line class="st9" x1="232.6" y1="22.5" x2="299" y2="22.5"/>
	<line class="st9" x1="232.6" y1="26.9" x2="299" y2="26.9"/>
	<line class="st9" x1="232.6" y1="31.2" x2="299" y2="31.2"/>
	<line class="st9" x1="232.6" y1="35.5" x2="299" y2="35.5"/>
	<line class="st9" x1="232.6" y1="39.9" x2="299" y2="39.9"/>
	<line class="st9" x1="232.6" y1="44.2" x2="299" y2="44.2"/>
	<line class="st9" x1="232.6" y1="48.6" x2="299" y2="48.6"/>
	<line class="st9" x1="232.6" y1="52.9" x2="299" y2="52.9"/>
	<line class="st9" x1="232.6" y1="57.3" x2="299" y2="57.3"/>
	<line class="st9" x1="232.6" y1="61.6" x2="299" y2="61.6"/>
	<line class="st9" x1="232.6" y1="66" x2="299" y2="66"/>
	<path class="st9" d="M980.4,14h5.8c0.1,0,0.1,0.1,0.1,0.1v62c0,0.1-0.1,0.1-0.1,0.1h-5.8c-0.1,0-0.1-0.1-0.1-0.1v-62
		C980.3,14,980.3,14,980.4,14z"/>
	<rect x="987.6" y="15.4" class="st9" width="320.2" height="7.4"/>
	<line class="st9" x1="979" y1="15.6" x2="980.3" y2="15.6"/>
	<line class="st9" x1="986.3" y1="14.1" x2="987.6" y2="15.4"/>
	<line class="st9" x1="986.3" y1="22.6" x2="987.6" y2="22.2"/>
	<path class="st9" d="M1312.3,76.2h-3.1c-0.1,0-0.1-0.1-0.1-0.1v-62c0-0.1,0.1-0.1,0.1-0.1h3.1c0.1,0,0.1,0.1,0.1,0.1v62
		C1312.4,76.1,1312.4,76.2,1312.3,76.2z"/>
	<line class="st9" x1="1309.1" y1="14.1" x2="1307.8" y2="15.4"/>
	<line class="st9" x1="1309.1" y1="22.6" x2="1307.8" y2="22.2"/>
	<line class="st9" x1="1314" y1="76.5" x2="1415.9" y2="76.5"/>
	<path class="st9" d="M1320.2,46.6h26.4c0.6,0,1.1,0.5,1.1,1.1v16.9c0,0.6-0.5,1.1-1.1,1.1h-26.4c-0.6,0-1.1-0.5-1.1-1.1V47.7
		C1319.2,47.1,1319.6,46.6,1320.2,46.6z"/>
	<path class="st9" d="M1322,50.2"/>
	<polygon class="st9" points="1343.9,50.2 1342.3,48.5 1340.7,50.2 1339.1,48.5 1337.5,50.2 1335.9,48.5 1334.4,50.2 1332.8,48.5 
		1331.2,50.2 1329.6,48.5 1328,50.2 1326.4,48.5 1324.8,50.2 1323.3,48.5 1321.7,50.2 1321.7,64.4 1343.9,64.4 	"/>
	<line class="st9" x1="1324.8" y1="50.2" x2="1324.8" y2="64.4"/>
	<line class="st9" x1="1328" y1="50.2" x2="1328" y2="64.4"/>
	<line class="st9" x1="1331.2" y1="50.2" x2="1331.2" y2="64.4"/>
	<line class="st9" x1="1334.4" y1="50.2" x2="1334.4" y2="64.4"/>
	<line class="st9" x1="1337.5" y1="50.2" x2="1337.5" y2="64.4"/>
	<line class="st9" x1="1340.7" y1="50.2" x2="1340.7" y2="64.4"/>
	<path class="st9" d="M159,46.6h26.4c0.6,0,1.1,0.5,1.1,1.1v16.9c0,0.6-0.5,1.1-1.1,1.1H159c-0.6,0-1.1-0.5-1.1-1.1V47.7
		C157.9,47.1,158.4,46.6,159,46.6z"/>
	<path class="st9" d="M160.8,50.2"/>
	<polygon class="st9" points="182.6,50.2 181.1,48.5 179.5,50.2 177.9,48.5 176.3,50.2 174.7,48.5 173.1,50.2 171.6,48.5 170,50.2 
		168.4,48.5 166.8,50.2 165.2,48.5 163.6,50.2 162,48.5 160.4,50.2 160.4,64.4 182.6,64.4 	"/>
	<line class="st9" x1="163.6" y1="50.2" x2="163.6" y2="64.4"/>
	<line class="st9" x1="166.8" y1="50.2" x2="166.8" y2="64.4"/>
	<line class="st9" x1="170" y1="50.2" x2="170" y2="64.4"/>
	<line class="st9" x1="173.1" y1="50.2" x2="173.1" y2="64.4"/>
	<line class="st9" x1="176.3" y1="50.2" x2="176.3" y2="64.4"/>
	<line class="st9" x1="179.5" y1="50.2" x2="179.5" y2="64.4"/>
	<polygon class="st9" points="527,295.2 664.7,295.2 664.7,296.7 677.5,296.7 677.5,299.4 706.6,299.4 706.6,279.1 716.6,275 
		716.6,273.3 666.5,273.3 666.5,274.7 677.7,279.1 677.7,286.4 664.9,286.4 664.9,288.3 527,288.3 	"/>
	<polyline class="st9" points="804.8,273.3 840,273.3 840,274.7 828.8,279.1 828.8,286.4 841.7,286.4 841.7,288.3 978.5,288.3 
		978.5,295.2 841.8,295.2 841.8,296.7 829.1,296.7 829.1,299.4 799.9,299.4 799.9,281.4 	"/>
	<rect x="592" y="228" class="st9" width="42.7" height="14"/>
	<rect x="634.7" y="228" class="st9" width="100.4" height="45.3"/>
	<rect x="755.1" y="228" class="st9" width="23.5" height="45.3"/>
	<polygon class="st9" points="761.8,276.1 751.9,285.1 739.4,285.1 729.3,276.1 729.3,273.3 761.8,273.3 	"/>
	<polyline class="st9" points="946.4,252.9 946.4,273.3 840,273.3 	"/>
	<line class="st9" x1="801.3" y1="273.3" x2="782.5" y2="273.3"/>
	<path class="st9" d="M203.9,68.7L203.9,68.7c0-0.6,0.5-1.2,1.2-1.2h23.5c0.6,0,1.2,0.5,1.2,1.2l0,0c0,0.6-0.5,1.2-1.2,1.2H205
		C204.4,69.8,203.9,69.3,203.9,68.7z"/>
	<path class="st9" d="M203.9,48.4L203.9,48.4c0-0.6,0.5-1.2,1.2-1.2h23.5c0.6,0,1.2,0.5,1.2,1.2l0,0c0,0.6-0.5,1.2-1.2,1.2h-23.5
		C204.4,49.6,203.9,49,203.9,48.4z"/>
	<path class="st9" d="M203.9,28.1L203.9,28.1c0-0.6,0.5-1.2,1.2-1.2h23.5c0.6,0,1.2,0.5,1.2,1.2l0,0c0,0.6-0.5,1.2-1.2,1.2h-23.5
		C204.4,29.3,203.9,28.7,203.9,28.1z"/>
	<path class="st9" d="M230.4,78.5c-0.6,0-1.2,0.5-1.2,1.2l0,0V85H208v-5.3c0.1-0.6-0.4-1.2-1-1.3c-0.6-0.1-1.2,0.4-1.3,1
		c0,0.1,0,0.1,0,0.2v6.5l0,0V206c-0.1,0.8,0.5,1.6,1.3,1.7c0.1,0,0.1,0,0.2,0c0.9,0.1,1.6-0.6,1.7-1.5c0-0.1,0-0.1,0-0.2v-13.8h19.3
		V206c-0.1,0.9,0.6,1.7,1.5,1.7c0,0,0.1,0,0.1,0c0.8,0,1.6-0.6,1.6-1.5c0-0.1,0-0.2,0-0.3V86.2l0,0v-6.5
		C231.5,79.1,231,78.5,230.4,78.5z M208.9,125.5v-16.9h19.4v16.9L208.9,125.5z M228.3,129.4v17.2h-19.4v-17.2H228.3z M208.9,150.4
		h19.4v17h-19.4V150.4z M228.3,88.1v16.7h-19.4V88.1L228.3,88.1z M208.9,188.3v-17h19.3v17H208.9z"/>
	<path class="st9" d="M29.9,173.9l-2.6,2.1c-0.9,1.1-0.9,2.7,0,3.7c1.5,1.9,11.1,14,11.1,14s2.1,1.9,3.8,0.5
		c0.7-0.6,1.5-1.2,2.3-1.7"/>
	<path class="st9" d="M31,175.1l-1.5,1.2c-0.8,0.9-0.8,2.3,0,3.2c1.3,1.6,9.4,11.9,9.4,11.9s1.8,1.6,3.2,0.4s1.2-1,1.2-1"/>
	<path class="st9" d="M25,182.4"/>
	<path class="st9" d="M18.9,193.9c-0.9,0.9-4.4,4.5-4.5,8.9c0,3.8,1.6,7.4,4.5,9.9c1.5,1.4,7.5,4.8,14.7,5.1"/>
	<path class="st9" d="M21,196c-1,0.9-3.7,3.8-3.5,7.7c0.3,4.7,2.5,7.7,9.1,10.3c2.4,0.9,7.4,1.1,11.2,1"/>
	<path class="st9" d="M43.2,214.5h8.5c0.6,0,1.1,0.5,1.1,1.1v1.4c0,0.6-0.5,1.1-1.1,1.1h-8.5c-0.6,0-1.1-0.5-1.1-1.1v-1.4
		C42,215,42.6,214.5,43.2,214.5z"/>
	<path class="st9" d="M27,181.5c-0.1-0.1-0.2-0.1-0.3-0.1l-0.6-5.2c-0.1-0.9-0.7-0.9-0.7-0.9h-1.1c-0.5,0-0.5,0.7-0.5,0.7l1.5,6.8
		l0,0l-0.5,0.5c-0.2,0.3-0.2,0.6,0,0.9c0.3,0.2,0.6,0.2,0.9-0.1l1.5-1.7C27.3,182.1,27.3,181.7,27,181.5C27,181.5,27,181.5,27,181.5
		z"/>
	<path class="st9" d="M25.9,186.2l2.8,2.5c0.3,0.2,0.3,0.6,0.1,0.9l0,0c-0.2,0.3-0.6,0.3-0.9,0.1l-2.8-2.5c-0.3-0.2-0.3-0.6-0.1-0.9
		l0,0C25.3,186,25.7,186,25.9,186.2z"/>
	<line class="st9" x1="22.4" y1="190.1" x2="25.3" y2="187.2"/>
	<line class="st9" x1="24.7" y1="192.2" x2="27.6" y2="189.3"/>
	<circle class="st9" cx="28.2" cy="184.9" r="2.5"/>
	<path class="st9" d="M28.4,230.1l3-5.8c0.1-0.3,0.3-0.5,0.6-0.8l4.8-4.8c0.4-0.4,0.8-0.7,1.3-1l4.1-2.4"/>
	<path class="st9" d="M25.1,230.1l2.8-6.9c0.3-0.7,0.8-1.4,1.4-1.9l6.6-5.4c0.3-0.3,0.7-0.5,1.1-0.6l7.3-3.1c0.4-0.2,0.8,0,1,0.3
		c0.1,0.1,0.1,0.3,0.1,0.4c0,0.3-0.2,0.6-0.4,0.7l-1.5,0.9"/>
	<polyline class="st9" points="57.7,247.4 58.4,249.1 61.9,247.4 	"/>
	<path class="st9" d="M46.8,231.7H30.4v-1.4H12.3l2.5-2.5v-1.5H16v-2.7H5.8v2.6h1.3v1.7h-3v-1.7H2.9c-1.1,4.2-1.7,8.6-1.9,12.9
		c0.1,4.3,0.8,8.6,1.9,12.8h1.2v-2.1H6v-2h24.4v-1.1h8.2l2.6,4.7c-0.6,0.6-0.8,1.4-0.7,2.2h-1.2l-1.1-2.1h-3l-3.2,1.7l1.9,18.4h4.5
		l0.8-9.2l5-2.2c0.5,0.3,1,0.4,1.6,0.4l1,1.7l14.8-6.3l-1.3-3l2.2-1.3"/>
	<line class="st9" x1="38.6" y1="246.8" x2="44.5" y2="246.8"/>
	<polyline class="st9" points="1439.4,250.3 1439.4,252.9 1361.6,252.9 1309.7,228 501.4,228 195.5,228 187,232 184.1,233.4 
		179.5,235.5 179.5,235.5 157.2,246 154.3,247.4 142.6,252.9 62.5,252.9 62.5,251.9 62.5,251.8 62.5,251.1 62.5,247.1 62.5,240.5 
		48.7,225.9 	"/>
	<line class="st9" x1="30.4" y1="231.7" x2="30.4" y2="246.8"/>
	<line class="st9" x1="6" y1="247.9" x2="6" y2="228"/>
	<line class="st9" x1="52.8" y1="202.9" x2="1450.9" y2="202.9"/>
	<line class="st9" x1="1306.6" y1="76.5" x2="1306.6" y2="202.9"/>
	<line class="st9" x1="1309.7" y1="228" x2="1309.7" y2="202.9"/>
	<line class="st9" x1="41.2" y1="251.6" x2="45.8" y2="260.8"/>
	<path class="st9" d="M47.3,247.4"/>
	<path class="st9" d="M40.5,250.4"/>
	<path class="st9" d="M1473.5,173.7l2.6,2.1c0.9,1.1,0.9,2.7,0,3.7c-1.6,1.9-11.1,14-11.1,14s-2.1,1.9-3.8,0.5
		c-0.7-0.6-1.5-1.2-2.3-1.7"/>
	<path class="st9" d="M1472.5,175l1.5,1.2c0.8,0.9,0.8,2.2,0,3.2c-1.3,1.6-9.4,11.9-9.4,11.9s-1.8,1.6-3.2,0.4s-1.2-1-1.2-1"/>
	<path class="st9" d="M1484.8,193.9c1.1,1.1,4.3,4.6,4.4,8.8c0,3.8-1.6,7.4-4.5,9.9c-1.5,1.4-7.5,4.8-14.7,5.1"/>
	<path class="st9" d="M1482.6,196c1.1,1,3.6,3.8,3.3,7.5c-0.3,4.7-2.5,7.7-9.1,10.3c-2.4,0.9-7.4,1.1-11.2,1"/>
	<path class="st9" d="M1460.3,218h-8.5c-0.6,0-1.1-0.5-1.1-1.1v-1.4c0-0.6,0.5-1.1,1.1-1.1h8.5c0.6,0,1.1,0.5,1.1,1.1v1.4
		C1461.4,217.5,1460.9,218,1460.3,218z"/>
	<path class="st9" d="M1479.3,175h-1.2c0,0-0.6,0-0.7,0.9l-0.6,5.2c-0.1,0-0.2,0.1-0.3,0.1c-0.3,0.2-0.3,0.6-0.1,0.9l1.5,1.7
		c0.2,0.3,0.6,0.3,0.9,0.1c0.3-0.2,0.3-0.6,0.1-0.9l0,0l-0.4-0.5l1.4-6.8C1479.8,175.7,1479.9,175,1479.3,175z"/>
	<path class="st9" d="M1478.3,186.9l-2.8,2.5c-0.3,0.2-0.6,0.2-0.9-0.1v0c-0.2-0.3-0.2-0.6,0.1-0.9l2.8-2.5c0.3-0.2,0.6-0.2,0.9,0.1
		v0C1478.6,186.3,1478.6,186.7,1478.3,186.9z"/>
	<line class="st9" x1="1481.1" y1="190" x2="1478.2" y2="187.1"/>
	<line class="st9" x1="1478.7" y1="192.1" x2="1475.9" y2="189.2"/>
	<circle class="st9" cx="1475.3" cy="184.7" r="2.5"/>
	<path class="st9" d="M1461.4,215.1l4.1,2.4c0.5,0.3,0.9,0.6,1.3,1l4.8,4.8c0.2,0.2,0.4,0.5,0.6,0.8l3,5.8"/>
	<path class="st9" d="M1460,214.4l-1.5-0.9c-0.2-0.1-0.4-0.4-0.4-0.7c0-0.5,0.4-0.8,0.8-0.8c0.1,0,0.2,0,0.3,0.1l7.3,3.1
		c0.4,0.2,0.7,0.4,1.1,0.6l6.6,5.4c0.6,0.5,1.1,1.2,1.4,1.9l2.8,6.9"/>
	<path class="st9" d="M1456.7,231.5h16.4v-1.4h18.1l-2.5-2.5v-1.5h-1.2v-2.8h10.1v2.6h-1.3v1.7h3v-1.7h1.2c1.1,4.3,1.7,8.6,1.8,13
		c-0.1,4.3-0.8,8.6-1.8,12.8h-1.2v-2.1h-1.9v-2h-24.4v-1.9h-8.2l-2.6,5.5c0.6,0.6,0.8,1.4,0.7,2.2h1.2l1.1-2.1h3l3.2,1.7l-1.9,18.4
		h-4.5l-0.8-9.2l-5-2.3c-0.5,0.3-1,0.4-1.6,0.4l-1,1.7l-14.8-6.3l1.3-3l-3.7-2.5V246l5.7,3l1.4-3.1"/>
	<line class="st9" x1="1464.9" y1="245.9" x2="1459" y2="245.9"/>
	<polyline class="st9" points="1440.9,245.9 1440.9,240.4 1454.8,225.8 	"/>
	<line class="st9" x1="1473.1" y1="231.5" x2="1473.1" y2="246.7"/>
	<polyline class="st9" points="1450.9,225.3 1422.9,225.3 1422.9,202.9 	"/>
	<path class="st9" d="M109.5,78.5h25.1c4.9,0,8.9,4,8.9,8.9v31.2c0,4.9-4,8.9-8.9,8.9h-25.1c-4.9,0-8.9-4-8.9-8.9V87.4
		C100.6,82.5,104.5,78.5,109.5,78.5z"/>
	<path class="st9" d="M110.9,81.2h22.2c3.9,0,7.1,3.2,7.1,7.1v28.9c0,3.9-3.2,7.1-7.1,7.1h-22.2c-3.9,0-7.1-3.2-7.1-7.1V88.3
		C103.8,84.4,107,81.2,110.9,81.2z"/>
	<path class="st9" d="M94.6,85.1v35.5c0,4.1-3.3,7.4-7.4,7.5H66.5c-4.1,0-7.5-3.3-7.5-7.5c0-1.5,0.4-3,1.3-4.2L81,81
		c2.3-3.4,7-4.3,10.4-2C93.4,80.3,94.6,82.7,94.6,85.1z"/>
	<path class="st9" d="M56.7,72.5h7.9c0,0,5.2-0.1,2.9,4.5s-28.1,49.5-28.1,49.5s-0.8,3-4.9,2.6s-10-1.1-10-1.1"/>
	<path class="st9" d="M75.1,41.2h-9.9c-0.5,0-0.9,0.4-0.9,0.9c0,0,0,0,0,0.1v14.8c0,0.3,0.3,0.5,0.6,0.5h0.8"/>
	<path class="st9" d="M64.2,56.8c-1.3-0.2-2.3-1.3-2.2-2.6v-9.5c-0.1-1.3,0.9-2.5,2.2-2.6"/>
	<path class="st9" d="M161.6,215.1h19.3c3.3,0,6.1,2.7,6.1,6.1v0.8c0,3.3-2.7,6.1-6.1,6.1h-19.3c-3.3,0-6.1-2.7-6.1-6.1v-0.8
		C155.6,217.8,158.3,215.1,161.6,215.1z"/>
	<rect x="158.7" y="223.2" class="st9" width="25.3" height="3.6"/>
	<path class="st9" d="M156.2,171.7L156.2,171.7c0.7,0,1.3,0.6,1.3,1.3v11.9c0,0.7-0.6,1.3-1.3,1.3h0c-0.7,0-1.3-0.6-1.3-1.3V173
		C154.9,172.3,155.5,171.7,156.2,171.7z"/>
	<path class="st9" d="M156.2,130.4L156.2,130.4c0.7,0,1.3,0.6,1.3,1.3v11.8c0,0.7-0.6,1.3-1.3,1.3h0c-0.7,0-1.3-0.6-1.3-1.3v-11.8
		C154.9,130.9,155.5,130.4,156.2,130.4z"/>
	<polyline class="st9" points="53.1,224.9 82.6,224.9 82.6,202.9 	"/>
	<path class="st9" d="M33.3,266c-4.9,1.5-10.1,3.2-15.6,5.1c-0.4,0.1-0.7,0.6-0.5,1.1c0.1,0.2,0.2,0.3,0.3,0.4
		c3.3,2.1,10.8,7.7,9.8,13.7c-1.3,7.1-2.7,9.7-9.6,15.9c-0.3,0.3-0.4,0.8-0.1,1.2c0.2,0.2,0.4,0.3,0.6,0.3h58.7
		c0,0,42.7-8.4,46.3-29.6s-34.3-21.2-34.3-21.2s-12.4,0.9-38.9,8.2c-1.1,0.3-2.2,0.6-3.4,0.9c-2.4,0.7-4.9,1.4-7.5,2.2"/>
	<path class="st9" d="M1464.5,264.5c-2.7-0.8-5.3-1.5-7.7-2.2l-1.3-0.4c-27-7.5-39.7-8.5-39.7-8.5s-37.8,0-34.3,21.2
		s46.3,29.6,46.3,29.6h58.7c0.5,0,0.8-0.4,0.8-0.8c0-0.2-0.1-0.5-0.3-0.6c-6.9-6.2-8.3-8.8-9.6-15.9c-1.1-6,6.4-11.5,9.8-13.7
		c0.4-0.3,0.5-0.8,0.2-1.2c-0.1-0.2-0.3-0.3-0.4-0.3c-6-2-11.6-3.8-16.8-5.5"/>
	<path class="st9" d="M1396.2,127.3h-25.1c-4.9,0-8.9-4-8.9-8.9V87.2c0-4.9,4-8.9,8.9-8.9h25.1c4.9,0,8.9,4,8.9,8.9v31.2
		C1405.1,123.3,1401.2,127.3,1396.2,127.3z"/>
	<path class="st9" d="M1394.8,124h-22.2c-3.9,0-7.1-3.2-7.1-7.1V88.1c0-3.9,3.2-7.1,7.1-7.1h22.2c3.9,0,7.1,3.2,7.1,7.1v28.9
		C1401.9,120.9,1398.7,124,1394.8,124z"/>
	<path class="st9" d="M1411.1,84.9v35.5c0,4.1,3.3,7.5,7.5,7.5h20.7c4.1,0,7.5-3.3,7.5-7.5c0-1.5-0.4-3-1.3-4.2l-20.6-35.5
		c-2.3-3.4-6.9-4.4-10.4-2.1C1412.3,80.1,1411,82.4,1411.1,84.9z"/>
	<path class="st9" d="M1448.8,72.3h-7.7c0,0-5.2-0.1-2.9,4.5s28.1,49.5,28.1,49.5s0.8,3,4.9,2.6s8.7-0.9,8.7-0.9"/>
	<path class="st9" d="M1430.6,41h9.9c0.5,0,0.9,0.3,1,0.8c0,0,0,0.1,0,0.1v14.8c0,0.3-0.3,0.5-0.6,0.5h-0.8"/>
	<path class="st9" d="M1441.5,56.6c1.3-0.2,2.3-1.3,2.2-2.6v-9.5c0.1-1.3-0.9-2.5-2.2-2.6"/>
	<line class="st9" x1="90.1" y1="76" x2="193.5" y2="76"/>
	<path class="st9" d="M349.4,303.4v0.2h5.3v0.9h20.8c0.3,0.1,0.7,0.2,1,0.2c1.7,0.1,3.2-1.2,3.3-3c0.1-1.7-1.2-3.2-3-3.3
		c-0.1,0-0.2,0-0.4,0c-0.3,0-0.7,0.1-1,0.2h-20.8v0.8h-5.3v0.8h-56.1v-0.8h-3.4v1.2l-4.3-0.1v-1.9H267c-0.3-0.1-0.7-0.2-1-0.2
		c-1.7,0.1-3.1,1.6-3,3.3c0.1,1.6,1.4,2.9,3,3c0.3,0,0.7-0.1,1-0.2h18.6v-2l4.3,0.1v1.7h3.4v-0.6h5.3v-0.3H349.4z"/>
	<path class="st9" d="M496.3,303.4v0.2h5.3v0.9h20.8c0.3,0.1,0.7,0.2,1,0.2c1.7,0,3.2-1.4,3.2-3.1c0-1.7-1.4-3.2-3.1-3.2
		c-0.4,0-0.7,0.1-1,0.2h-20.8v0.8h-5.3v0.8h-56.1v-0.8h-3.4v1.2l-4.3-0.1v-1.9h-18.6c-0.3-0.1-0.7-0.2-1-0.2c-1.7-0.1-3.2,1.2-3.3,3
		c-0.1,1.7,1.2,3.2,3,3.3c0.1,0,0.2,0,0.4,0c0.3,0,0.7-0.1,1-0.2h18.6v-2l4.3,0.1v1.7h3.4v-0.6h5.3v-0.3H496.3z"/>
	<path class="st9" d="M1065,302.6v0.2h5.3v0.9h20.8c0.3,0.1,0.7,0.2,1,0.2c1.7-0.1,3.1-1.6,3-3.3c-0.1-1.6-1.4-2.9-3-3
		c-0.3,0-0.7,0.1-1,0.2h-20.8v0.8h-5.3v0.8h-56.1v-0.8h-3.4v1.2l-4.3-0.1v-1.9h-18.5c-0.3-0.1-0.7-0.2-1-0.2c-1.7,0.1-3.1,1.6-3,3.3
		c0.1,1.6,1.4,2.9,3,3c0.3,0,0.7,0,1-0.2h18.5v-2l4.3,0.1v1.7h3.4v-0.6h5.3v-0.2H1065z"/>
	<path class="st9" d="M1212.2,302.6v0.2h5.3v0.9h20.8c0.3,0.1,0.7,0.2,1,0.2c1.7-0.1,3.1-1.6,3-3.3c-0.1-1.6-1.4-2.9-3-3
		c-0.3,0-0.7,0.1-1,0.2h-20.8v0.8h-5.3v0.8h-56.1v-0.8h-3.4v1.2l-4.3-0.1v-1.9h-18.6c-1.7-0.5-3.4,0.4-3.9,2c-0.5,1.7,0.4,3.4,2,3.9
		c0.3,0.1,0.6,0.1,0.9,0.1c0.3,0,0.7,0,1-0.2h18.6v-2l4.3,0.1v1.7h3.4v-0.6h5.3v-0.2H1212.2z"/>
	<path class="st9" d="M1345.4,302.6v0.2h5.3v0.9h20.8c1.7,0.5,3.4-0.4,4-2c0.5-1.7-0.4-3.4-2-4c-0.6-0.2-1.3-0.2-1.9,0h-20.8v0.8
		h-5.3v0.8h-56.1v-0.8h-3.4v1.2l-4.3-0.1v-1.9H1263c-0.3-0.1-0.7-0.2-1-0.2c-1.7,0-3.1,1.4-3.1,3.2c0,1.7,1.4,3.1,3.2,3.1
		c0.3,0,0.7-0.1,1-0.2h18.6v-2l4.3,0.1v1.7h3.4v-0.6h5.3v-0.2H1345.4z"/>
	<path class="st9" d="M801.3,277.9h-18.8v-16.4h18.8V277.9z M782.5,241v16.1h18.8V241L782.5,241z M804.8,228v52.3
		c0,0.6-0.5,1.1-1.2,1.2h-23.5c-0.6,0-1.1-0.5-1.2-1.2V228 M801.4,228.5v8.6h-18.8v-8.6"/>
	<polygon class="st9" points="184.1,250.3 184.1,235.6 184.1,233.4 171.1,239.5 157.2,246.1 157.2,250.3 	"/>
	<polygon class="st9" points="157.2,276.7 172.1,276.7 184.1,276.7 184.1,253.3 157.2,253.3 	"/>
	<path class="st9" d="M171.1,239.5"/>
	<path class="st9" d="M183.1,234v15.8h-25v-4L183.1,234z M154.3,247.4v31c0,0.6,0.4,1.2,1,1.4c0.2,0.1,0.3,0.1,0.5,0.1h29.8
		c0.8,0,1.5-0.7,1.5-1.5V232l-1.6,0.8L154.3,247.4z M183.1,275.9h-25v-21.8h25V275.9z"/>
	<path class="st9" d="M22.7,190.1l1.9,1.8c0.4,0.4,0.4,1,0,1.4l-2.4,2.6c-0.4,0.4-1,0.4-1.4,0l-1.9-1.8c-0.4-0.4-0.4-1,0-1.4
		l2.4-2.6C21.7,189.8,22.3,189.7,22.7,190.1z"/>
	<path class="st9" d="M1484.6,194.3l-1.9,1.8c-0.4,0.4-1,0.3-1.4,0l-2.4-2.6c-0.4-0.4-0.3-1,0-1.4l1.9-1.8c0.4-0.4,1-0.3,1.4,0
		l2.4,2.6C1485,193.4,1485,194,1484.6,194.3z"/>
</g>
</svg>
