<?xml version="1.0" encoding="utf-8"?>
<!-- Generator: Adobe Illustrator 22.0.1, SVG Export Plug-In . SVG Version: 6.00 Build 0)  -->
<svg version="1.1" id="El_18" xmlns="http://www.w3.org/2000/svg" xmlns:xlink="http://www.w3.org/1999/xlink" x="0px" y="0px"
	 viewBox="0 0 1346.1 430" style="enable-background:new 0 0 1346.1 430;" xml:space="preserve">
<metadata><?xpacket begin="﻿" id="W5M0MpCehiHzreSzNTczkc9d"?>
<x:xmpmeta xmlns:x="adobe:ns:meta/" x:xmptk="Adobe XMP Core 5.6-c143 79.161210, 2017/08/11-10:28:36        ">
   <rdf:RDF xmlns:rdf="http://www.w3.org/1999/02/22-rdf-syntax-ns#">
      <rdf:Description rdf:about=""/>
   </rdf:RDF>
</x:xmpmeta>
                                                                                                    
                                                                                                    
                                                                                                    
                                                                                                    
                                                                                                    
                                                                                                    
                                                                                                    
                                                                                                    
                                                                                                    
                                                                                                    
                                                                                                    
                                                                                                    
                                                                                                    
                                                                                                    
                                                                                                    
                                                                                                    
                                                                                                    
                                                                                                    
                                                                                                    
                                                                                                    
                           
<?xpacket end="w"?></metadata>
<style type="text/css">
	.st0{fill:#212322;}
	.st1{fill:#444445;}
	.st2{fill:#B1B3B3;}
	.st3{fill:#878787;}
	.st4{fill:none;stroke:#000000;stroke-width:2;stroke-miterlimit:10;}
</style>
<g id="Mål_14_">
</g>
<g id="Farger_14_">
	<g id="Grunnfarge_10_">
		<path class="st0" d="M1229.9,397.5c-10.9,7.9-23.7,3.4-23.7,3.4l0,0c-6.4,13.2-20,22.3-35.6,22.3c-19,0-34.8-13.4-38.7-31.2l0,0
			c-5.1,4.5-11.8,7.2-19.2,7.2c-3,0-5.8-0.5-8.5-1.3l0,0c-3.2,2-6.9,3.1-10.9,3.1l0,0h-6.4l0,0v8.7H1052v-1.4l0,0l-49.3-4.5l0,0
			c-6.9,11.6-19.5,19.4-34,19.4c-7.8,0-15.2-2.3-21.3-6.2s-11.1-9.5-14.3-16.2c0,0-10.1,4-19.9-1l-3.1,5.8H438.4l-3.5-6.3
			c-9.9,5-21.1,1.5-21.1,1.5c-6.4,13.3-20,22.4-35.7,22.4c-14.5,0-27.1-7.8-34-19.4l0,0l-49.3,4.6l0,0v1.4h-34.9v-8.7l0,0h-6.3
			c-4,0-7.7-1.1-10.9-3.1c-2.7,0.8-5.6,1.3-8.5,1.3c-7.4,0-14.1-2.7-19.2-7.2c-3.8,17.8-19.7,31.2-38.7,31.2
			c-15.6,0-29.2-9.1-35.6-22.3c-2.3,0.7-13.9,3.7-23.8-3.4c0,0,7.9-8.2,5.6-16.9c-2.3-8.6-6.2-11.9-6.2-11.9h1114.4
			c0,0-7.2,7.6-6.6,15.7S1229.9,397.5,1229.9,397.5z"/>
		<path class="st0" d="M53.1,365.8c0,0-7.3,1.8-15,2c0.2,1,0.6,1.8,1.2,2.4c1.9,1.9,2.7,2.6,2.7,2.6l-3.8,1.1c0,0-2.1-1.4-3.1-6.2
			c-2.8-0.1-5.4-0.5-7.3-1.5c-7.4-3.9-8.1-11.6-8.1-11.6H9.8v3.5H7v-25.7h2.8v3.9h25.5v18.4H24c0,0,0.5,5.9,6.2,8.8
			c1.2,0.6,2.7,0.9,4.5,1c0-0.5,0-0.9,0-1.4c0-8.6,2.5-9.7,3.1-10.1c0.9-0.7,4.1-0.9,8.6-1l0.6,1.5c0,0-4.4,0-5.8,1.3
			c-1.4,1.3-3.4,2.4-3.4,5.8c0,1.2-0.1,2.7-0.1,4c6.5-0.3,13.9-2.4,13.9-2.4L53.1,365.8z"/>
		<path class="st0" d="M1294.3,362c0,0,7.4,2,13.9,2.4c0-1.4-0.1-2.8-0.1-4c0-3.4-2-4.5-3.4-5.8s-5.8-1.3-5.8-1.3l0.6-1.5
			c4.4,0.1,7.6,0.4,8.6,1c0.7,0.4,3.1,1.6,3.1,10.1c0,0.5,0,1,0,1.4c1.8-0.1,3.4-0.4,4.5-1c5.6-3,6.2-8.8,6.2-8.8h-11.2v-18.4h25.5
			v-3.9h2.8V358h-2.8v-3.5h-9.9c0,0-0.7,7.7-8.1,11.6c-1.9,1-4.5,1.4-7.3,1.5c-0.9,4.8-3.1,6.2-3.1,6.2l-3.8-1.1
			c0,0,0.8-0.7,2.7-2.6c0.6-0.6,1-1.4,1.2-2.4c-7.6-0.3-15-2-15-2L1294.3,362z"/>
		<path class="st1" d="M116.3,369c0,0,15.4,16-1.4,30.4c-16.7,14.5-61.8,14-61.8,14H13.4c0,0,11.2-3.9,11.2-16.1
			c0-12.2-11.2-16-11.2-16L54.8,369L116.3,369L116.3,369z"/>
		<path class="st1" d="M1230.4,369c0,0-15.4,16,1.4,30.4c16.7,14.5,61.8,14,61.8,14h39.8c0,0-11.2-3.9-11.2-16.1
			c0-12.2,11.2-16,11.2-16L1292,369L1230.4,369L1230.4,369z"/>
		<rect x="250.4" y="116.4" class="st1" width="55.7" height="13.6"/>
		<path class="st1" d="M288,116.4l-5.3-8.5l78.1-42.2l11-5.3l7.7,15.2l2.1,0.2l1-1.4l-8.9-14.8l-0.3-2L320,37l-0.6,0.9l-43.8-16.2
			H286l0.6-2.3h-37.5l0.1,1.4l17.7,0.6l0.4,6.2l89.3,35.8l-81.7,43.1l-1.9,2.8l-3.4,7.2H288V116.4z M358,62l-90.2-36.8l0.1-4.2h6.5
			l45.5,18.6l-0.5,0.9l45.1,18.4L358,62z"/>
		<polygon class="st1" points="1087.7,105 1087.7,114.5 1070.9,114.5 1070.9,110.2 1067.4,110.2 1067.4,114.5 1050.7,114.5 
			1050.7,105 1047.2,105 1047.2,124 1050.7,124 1050.7,120.3 1067.4,120.3 1067.4,131.3 1070.9,131.2 1070.9,120.3 1087.7,120.3 
			1087.7,124 1091.2,124 1091.2,105 		"/>
	</g>
	<g id="Profilering_14_">
		<path class="st2" d="M1289.7,369H54.8c0,0-28.5-48.5-16.9-78.3c11.7-29.8,33.7-82.2,68-116.5s104.9-67.3,104.9-67.3h39.5V130H306
			v-23.3h733v24.6h55.7v-24.6h37.6c0,0,84.2,44.6,101.7,61.5s67.2,88.9,75,127.5C1316.8,334.2,1289.7,369,1289.7,369z"/>
		<rect x="302.3" y="136.4" class="st1" width="741.3" height="33.5"/>
	</g>
	<g id="Dører_og_vinduer_12_">
		<path class="st1" d="M184.7,361.6h-17.4c-2.6,0-4.7-2.1-4.7-4.7l0,0c0-2.6,2.1-4.7,4.7-4.7h17.4c2.6,0,4.7,2.1,4.7,4.7l0,0
			C189.4,359.5,187.3,361.6,184.7,361.6z"/>
		<path class="st1" d="M184.7,338h-17.4c-2.6,0-4.7-2.1-4.7-4.7l0,0c0-2.6,2.1-4.7,4.7-4.7h17.4c2.6,0,4.7,2.1,4.7,4.7l0,0
			C189.4,335.8,187.3,338,184.7,338z"/>
		<path class="st1" d="M1161.3,361.6h17.4c2.6,0,4.7-2.1,4.7-4.7l0,0c0-2.6-2.1-4.7-4.7-4.7h-17.4c-2.6,0-4.7,2.1-4.7,4.7l0,0
			C1156.6,359.5,1158.8,361.6,1161.3,361.6z"/>
		<path class="st1" d="M1161.3,338h17.4c2.6,0,4.7-2.1,4.7-4.7l0,0c0-2.6-2.1-4.7-4.7-4.7h-17.4c-2.6,0-4.7,2.1-4.7,4.7l0,0
			C1156.6,335.8,1158.8,338,1161.3,338z"/>
		<path class="st3" d="M142.1,240.1H137c-5,0-9-4-9-9v-32.4c0-5,4-9,9-9h5.1c5,0,9,4,9,9v32.4C151.1,236.1,147,240.1,142.1,240.1z"
			/>
		<path class="st3" d="M182.7,232.5h-13.6c-2.6,0-4.8-2.1-4.8-4.8v-25.1c0-2.6,2.1-4.8,4.8-4.8h13.6c2.6,0,4.8,2.1,4.8,4.8v25.1
			C187.5,230.4,185.3,232.5,182.7,232.5z"/>
		<path class="st3" d="M1204,240.1h5.1c5,0,9-4,9-9v-32.4c0-5-4-9-9-9h-5.1c-5,0-9,4-9,9v32.4C1194.9,236.1,1199,240.1,1204,240.1z"
			/>
		<path class="st1" d="M153,312.8h-7.8c-0.9,0-1.6-0.7-1.6-1.6v-66.5c0-0.9,0.7-1.6,1.6-1.6h7.8c0.9,0,1.6,0.7,1.6,1.6v66.5
			C154.6,312,153.9,312.8,153,312.8z"/>
		<path class="st1" d="M207.3,312.8h-7.8c-0.9,0-1.6-0.7-1.6-1.6v-66.5c0-0.9,0.7-1.6,1.6-1.6h7.8c0.9,0,1.6,0.7,1.6,1.6v66.5
			C208.9,312,208.2,312.8,207.3,312.8z"/>
		<path class="st1" d="M1193,312.8h7.8c0.9,0,1.6-0.7,1.6-1.6v-66.5c0-0.9-0.7-1.6-1.6-1.6h-7.8c-0.9,0-1.6,0.7-1.6,1.6v66.5
			C1191.4,312,1192.1,312.8,1193,312.8z"/>
		<path class="st1" d="M1138.7,312.8h7.8c0.9,0,1.6-0.7,1.6-1.6v-66.5c0-0.9-0.7-1.6-1.6-1.6h-7.8c-0.9,0-1.6,0.7-1.6,1.6v66.5
			C1137.1,312,1137.8,312.8,1138.7,312.8z"/>
		<path class="st3" d="M1176.8,232.8h-13.6c-2.6,0-4.8-2.1-4.8-4.8v-25.1c0-2.6,2.1-4.8,4.8-4.8h13.6c2.6,0,4.8,2.1,4.8,4.8V228
			C1181.6,230.5,1179.5,232.8,1176.8,232.8z"/>
		<path class="st3" d="M1290.5,250.2l2.9,4.7c-2.6,0-2.8,0.2-6.1,0c0,0-12.5-26.1-21.5-39.3c-9-13.2-6.9-11.9-25.2-33.3l3.6-2.5
			c12.2,16.2,20.3,27.8,22.8,30.9l10.7,17.3C1279.7,231.3,1287.3,244.4,1290.5,250.2z"/>
		<path class="st3" d="M57.3,246.1l-3.6,7.5c2.6,0-0.1,0.2,3.2,0c0,0,13.9-27,22.9-40.2s5.5-10.2,23.8-31.5l-3.6-2.5
			c-12.2,16.2-18.9,26.1-21.3,29.2L68,225.9C65.9,229.1,60.4,240.4,57.3,246.1z"/>
	</g>
</g>
<g id="Omriss_14_">
	<path class="st4" d="M1289.7,369H54.8c0,0-28.5-48.5-16.9-78.3c11.7-29.8,33.7-82.2,68-116.5s104.9-67.3,104.9-67.3h39.5V130H306
		v-23.3h733v24.6h55.7v-24.6h37.6c0,0,84.2,44.6,101.7,61.5s67.2,88.9,75,127.5C1316.8,334.2,1289.7,369,1289.7,369z"/>
	<polyline class="st4" points="206,369 206,378 206,384.5 208.7,384.5 213.5,384.5 215.7,384.5 233.2,384.5 253.4,384.5 
		254.6,384.5 259.4,384.5 261.2,384.5 292.9,384.5 338.5,384.5 417.6,384.5 426.6,384.5 438.4,405.6 910,405.6 921.2,385.5 
		1141.4,385.5 1141.4,369 	"/>
	<path class="st4" d="M53.7,253.6h3.2c0,0,20.8-45.7,46.7-72.5l-2.7-1.8"/>
	<line class="st4" x1="1050.7" y1="114.5" x2="1087.7" y2="114.5"/>
	<rect x="1047.2" y="105" class="st4" width="3.5" height="19"/>
	<rect x="1087.7" y="105" class="st4" width="3.5" height="19"/>
	<rect x="1067.4" y="110.2" class="st4" width="3.5" height="20.1"/>
	<rect x="302.3" y="136.4" class="st4" width="741.3" height="34.6"/>
	<line class="st4" x1="395.7" y1="136.4" x2="395.7" y2="170.9"/>
	<line class="st4" x1="488.2" y1="136.4" x2="488.2" y2="170.9"/>
	<line class="st4" x1="580.4" y1="136.4" x2="580.4" y2="170.9"/>
	<line class="st4" x1="672.9" y1="136.4" x2="672.9" y2="170.9"/>
	<line class="st4" x1="766.5" y1="136.4" x2="766.5" y2="169.8"/>
	<line class="st4" x1="858.2" y1="136.4" x2="858.2" y2="170.9"/>
	<line class="st4" x1="951.4" y1="136.4" x2="951.4" y2="170.9"/>
	<path class="st4" d="M478.2,90.4h-7.6c-0.7,0-1.3,0.6-1.3,1.3v14.9h10.3V91.7C479.6,91,479,90.4,478.2,90.4z"/>
	<path class="st4" d="M875.7,90.4h-7.6c-0.7,0-1.3,0.6-1.3,1.3v14.9H877V91.7C877,91,876.4,90.4,875.7,90.4z"/>
	<line class="st4" x1="1050.7" y1="120.3" x2="1094.7" y2="120.3"/>
	<path class="st4" d="M139.5,369c-1.9,4.6-2.9,9.5-2.9,14.8c0,21.8,17.7,39.6,39.6,39.6c19,0,34.8-13.4,38.7-31.2
		c0.4-1.6,0.6-3.3,0.7-5c0.1-0.8,0.1-1.7,0.1-2.6"/>
	<path class="st4" d="M338.5,384.5c0.5,21.4,18,38.7,39.5,38.7c21.6,0,39.1-17.3,39.6-38.7"/>
	<rect x="259.8" y="401.1" class="st4" width="34.9" height="8.7"/>
	<rect x="261.2" y="384.5" class="st4" width="31.7" height="16.6"/>
	<line class="st4" x1="294.7" y1="408.5" x2="344" y2="404"/>
	<line class="st4" x1="294.7" y1="402.8" x2="341.5" y2="398.8"/>
	<path class="st4" d="M165.4,384.1c0.2,5.7,5,10.3,10.8,10.3s10.6-4.6,10.7-10.5"/>
	<path class="st4" d="M368.3,384.5c0.4,5.6,5.1,9.9,10.7,9.9s10.3-4.4,10.7-9.9"/>
	<path class="st4" d="M184.7,384.5h-17.4c-2.6,0-4.7-2.1-4.7-4.7l0,0c0-2.6,2.1-4.7,4.7-4.7h17.4c2.6,0,4.7,2.1,4.7,4.7l0,0
		C189.4,382.5,187.3,384.5,184.7,384.5z"/>
	<path class="st4" d="M184.7,361.6h-17.4c-2.6,0-4.7-2.1-4.7-4.7l0,0c0-2.6,2.1-4.7,4.7-4.7h17.4c2.6,0,4.7,2.1,4.7,4.7l0,0
		C189.4,359.5,187.3,361.6,184.7,361.6z"/>
	<path class="st4" d="M184.7,338h-17.4c-2.6,0-4.7-2.1-4.7-4.7l0,0c0-2.6,2.1-4.7,4.7-4.7h17.4c2.6,0,4.7,2.1,4.7,4.7l0,0
		C189.4,335.8,187.3,338,184.7,338z"/>
	<rect x="156.3" y="369" class="st4" width="39" height="15.1"/>
	<path class="st4" d="M186.7,313.8h-21.5c-4.2,0-7.6-3.4-7.6-7.6V196.5c0-4.2,3.4-7.6,7.6-7.6h21.5c4.2,0,7.6,3.4,7.6,7.6v109.6
		C194.3,310.3,190.9,313.8,186.7,313.8z"/>
	<path class="st4" d="M182.7,232.5H169c-2.5,0-4.5-2-4.5-4.5v-25.7c0-2.5,2-4.5,4.5-4.5h13.7c2.5,0,4.5,2,4.5,4.5V228
		C187.2,230.5,185.2,232.5,182.7,232.5z"/>
	<path class="st4" d="M142.1,240.1H137c-5,0-9-4-9-9v-32.4c0-5,4-9,9-9h5.1c5,0,9,4,9,9v32.4C151.1,236.1,147,240.1,142.1,240.1z"/>
	<path class="st4" d="M119.8,240.1h-16.4c-1.9,0-3.5-1.6-3.5-3.5v-13.1c0-0.9,0.3-1.7,0.9-2.3l8.2-9.3c0.7-0.8,1.6-1.2,2.6-1.2h8.2
		c1.9,0,3.5,1.6,3.5,3.5v22.4C123.3,238.6,121.7,240.1,119.8,240.1z"/>
	<path class="st4" d="M153,312.8h-7.8c-0.9,0-1.6-0.7-1.6-1.6v-66.5c0-0.9,0.7-1.6,1.6-1.6h7.8c0.9,0,1.6,0.7,1.6,1.6v66.5
		C154.6,312,153.9,312.8,153,312.8z"/>
	<line class="st4" x1="149.1" y1="242.9" x2="149.1" y2="312.8"/>
	<path class="st4" d="M207.3,312.8h-7.8c-0.9,0-1.6-0.7-1.6-1.6v-66.5c0-0.9,0.7-1.6,1.6-1.6h7.8c0.9,0,1.6,0.7,1.6,1.6v66.5
		C208.9,312,208.2,312.8,207.3,312.8z"/>
	<line class="st4" x1="203.4" y1="242.9" x2="203.4" y2="312.8"/>
	<path class="st4" d="M1161.3,361.6h17.4c2.6,0,4.7-2.1,4.7-4.7l0,0c0-2.6-2.1-4.7-4.7-4.7h-17.4c-2.6,0-4.7,2.1-4.7,4.7l0,0
		C1156.6,359.5,1158.8,361.6,1161.3,361.6z"/>
	<path class="st4" d="M1161.3,338h17.4c2.6,0,4.7-2.1,4.7-4.7l0,0c0-2.6-2.1-4.7-4.7-4.7h-17.4c-2.6,0-4.7,2.1-4.7,4.7l0,0
		C1156.6,335.8,1158.8,338,1161.3,338z"/>
	<path class="st4" d="M1159.3,313.8h21.5c4.2,0,7.6-3.4,7.6-7.6V196.5c0-4.2-3.4-7.6-7.6-7.6h-21.5c-4.2,0-7.6,3.4-7.6,7.6v109.6
		C1151.7,310.3,1155.1,313.8,1159.3,313.8z"/>
	<path class="st4" d="M1163.3,232.5h13.7c2.5,0,4.5-2,4.5-4.5v-25.7c0-2.5-2-4.5-4.5-4.5h-13.7c-2.5,0-4.5,2-4.5,4.5V228
		C1158.8,230.5,1160.8,232.5,1163.3,232.5z"/>
	<path class="st4" d="M1204,240.1h5.1c5,0,9-4,9-9v-32.4c0-5-4-9-9-9h-5.1c-5,0-9,4-9,9v32.4C1194.9,236.1,1199,240.1,1204,240.1z"
		/>
	<path class="st4" d="M1226.3,240.1h16.4c1.9,0,3.5-1.6,3.5-3.5v-13.1c0-0.9-0.3-1.7-0.9-2.3l-8.2-9.3c-0.7-0.8-1.6-1.2-2.6-1.2
		h-8.2c-1.9,0-3.5,1.6-3.5,3.5v22.4C1222.8,238.6,1224.3,240.1,1226.3,240.1z"/>
	<path class="st4" d="M1193,312.8h7.8c0.9,0,1.6-0.7,1.6-1.6v-66.5c0-0.9-0.7-1.6-1.6-1.6h-7.8c-0.9,0-1.6,0.7-1.6,1.6v66.5
		C1191.4,312,1192.1,312.8,1193,312.8z"/>
	<line class="st4" x1="1196.9" y1="242.9" x2="1196.9" y2="312.8"/>
	<path class="st4" d="M1138.7,312.8h7.8c0.9,0,1.6-0.7,1.6-1.6v-66.5c0-0.9-0.7-1.6-1.6-1.6h-7.8c-0.9,0-1.6,0.7-1.6,1.6v66.5
		C1137.1,312,1137.8,312.8,1138.7,312.8z"/>
	<line class="st4" x1="1142.6" y1="242.9" x2="1142.6" y2="312.8"/>
	<path class="st4" d="M214.9,392.1c5.1,4.5,11.8,7.2,19.2,7.2c3,0,5.8-0.5,8.5-1.3"/>
	<path class="st4" d="M215.6,387.1c4.6,5,11.2,8.1,18.5,8.1c1.6,0,3.1-0.1,4.5-0.4"/>
	<path class="st4" d="M253.4,384.5v16.6c-4,0-7.7-1.1-10.9-3.1c-1.5-0.9-2.8-2-4-3.2c-2.7-2.8-4.6-6.3-5.4-10.3H253.4z"/>
	<path class="st4" d="M311.4,398c2.7,0.8,5.6,1.3,8.5,1.3c7.4,0,14.1-2.7,19.2-7.2"/>
	<path class="st4" d="M315.4,394.8c1.5,0.3,3,0.4,4.5,0.4c7.3,0,13.9-3.1,18.5-8.1"/>
	<path class="st4" d="M300.6,384.5v16.6c4,0,7.7-1.1,10.9-3.1c1.5-0.9,2.8-2,4-3.2c2.7-2.8,4.6-6.3,5.4-10.3H300.6z"/>
	<line class="st4" x1="253.4" y1="401.1" x2="259.8" y2="401.1"/>
	<path class="st4" d="M116.3,369c0,0,15.4,16-1.4,30.4c-16.7,14.5-61.8,14-61.8,14H13.4c0,0,11.2-3.9,11.2-16.1
		c0-12.2-11.2-16-11.2-16L54.8,369L116.3,369L116.3,369z"/>
	<path class="st4" d="M413.7,400.8c0,0,11.3,3.5,21.1-1.5"/>
	<path class="st4" d="M141,400.8c0,0-13.2,4.7-24.1-3.3"/>
	<path class="st4" d="M1131,384.5c0,0.9,0.1,1.7,0.1,2.6c0.1,1.7,0.4,3.4,0.7,5c3.8,17.8,19.7,31.2,38.7,31.2
		c21.8,0,39.6-17.7,39.6-39.6c0-5.2-1-10.2-2.9-14.8"/>
	<path class="st4" d="M929.1,384.5c0.5,21.4,18,38.7,39.6,38.7s39.1-17.3,39.5-38.7"/>
	<rect x="1052" y="401.2" class="st4" width="34.9" height="8.7"/>
	<rect x="1053.8" y="384.5" class="st4" width="31.7" height="16.6"/>
	<line class="st4" x1="1052" y1="408.5" x2="1002.7" y2="404"/>
	<line class="st4" x1="1052" y1="402.8" x2="1005.2" y2="398.8"/>
	<path class="st4" d="M1159.8,384c0.1,5.8,4.9,10.5,10.7,10.5c5.8,0,10.5-4.6,10.8-10.3"/>
	<path class="st4" d="M956.9,384.5c0.4,5.6,5.1,9.9,10.7,9.9c5.7,0,10.3-4.4,10.7-9.9"/>
	<path class="st4" d="M1162,384.5h17.4c2.6,0,4.7-2.1,4.7-4.7l0,0c0-2.6-2.1-4.7-4.7-4.7H1162c-2.6,0-4.7,2.1-4.7,4.7l0,0
		C1157.3,382.5,1159.4,384.5,1162,384.5z"/>
	<rect x="1151.4" y="368.9" class="st4" width="39" height="15.1"/>
	<path class="st4" d="M1104.1,398c2.7,0.8,5.6,1.3,8.5,1.3c7.4,0,14.1-2.7,19.2-7.2"/>
	<path class="st4" d="M1108.1,394.8c1.5,0.3,3,0.4,4.5,0.4c7.3,0,13.9-3.1,18.5-8.1"/>
	<path class="st4" d="M1093.3,384.5v16.6c4,0,7.7-1.1,10.9-3.1c1.5-0.9,2.8-2,4-3.2c2.7-2.8,4.6-6.3,5.4-10.3H1093.3z"/>
	<path class="st4" d="M1007.6,392.1c5.1,4.5,11.8,7.2,19.2,7.2c3,0,5.8-0.5,8.5-1.3"/>
	<path class="st4" d="M1008.3,387.1c4.6,5,11.2,8.1,18.5,8.1c1.6,0,3.1-0.1,4.5-0.4"/>
	<path class="st4" d="M1046.1,384.5v16.6c-4,0-7.7-1.1-10.9-3.1c-1.5-0.9-2.8-2-4-3.2c-2.7-2.8-4.6-6.3-5.4-10.3H1046.1z"/>
	<line class="st4" x1="1093.3" y1="401.1" x2="1086.9" y2="401.1"/>
	<path class="st4" d="M1230.4,369c0,0-15.4,16,1.4,30.4c16.7,14.5,61.8,14,61.8,14h39.8c0,0-11.2-3.9-11.2-16.1
		c0-12.2,11.2-16,11.2-16L1292,369L1230.4,369L1230.4,369z"/>
	<path class="st4" d="M933,400.8c0,0-10.1,4-19.9-1"/>
	<path class="st4" d="M1205.7,400.8c0,0,13.2,4.7,24.1-3.3"/>
	<rect x="1310.8" y="336.2" class="st4" width="25.5" height="18.4"/>
	<rect x="1336.2" y="332.3" class="st4" width="2.8" height="25.7"/>
	<path class="st4" d="M1292.1,365.5c0,0,18.7,4.6,26.1,0.7s8.1-11.6,8.1-11.6"/>
	<path class="st4" d="M1294.4,362c0,0,15.8,4.4,21.5,1.4c5.6-3,6.2-8.8,6.2-8.8"/>
	<polyline class="st4" points="1310.4,309.5 1304.9,309.5 1303.1,325.5 1308.9,325.5 	"/>
	<rect x="9.7" y="336.3" class="st4" width="25.5" height="18.4"/>
	<rect x="6.9" y="332.4" class="st4" width="2.8" height="25.7"/>
	<path class="st4" d="M53.9,365.5c0,0-18.7,4.6-26.1,0.7s-8.1-11.6-8.1-11.6"/>
	<path class="st4" d="M51.6,362c0,0-15.8,4.4-21.5,1.4c-5.6-3-6.2-8.8-6.2-8.8"/>
	<polyline class="st4" points="35.6,309.5 41.1,309.5 42.9,325.5 37.1,325.5 	"/>
	<path class="st4" d="M47,353.3c0,0-4.4,0-5.8,1.3c-1.4,1.3-3.4,2.4-3.4,5.8s-0.5,7.8,1.4,9.8c1.9,1.9,2.7,2.6,2.7,2.6l-3.8,1.1
		c0,0-3.5-2.3-3.5-10.8c0-8.6,2.5-9.7,3.1-10.2c0.9-0.6,4.1-0.9,8.6-1L47,353.3z"/>
	<path class="st4" d="M1299.7,353.3c0,0,4.4,0,5.8,1.3s3.4,2.4,3.4,5.8c0,3.4,0.5,7.8-1.4,9.8c-1.9,1.9-2.7,2.6-2.7,2.6l3.8,1.1
		c0,0,3.5-2.3,3.5-10.8c0-8.6-2.5-9.7-3.1-10.2c-0.9-0.6-4.1-0.9-8.6-1L1299.7,353.3z"/>
	<path class="st4" d="M1293.4,254.9h-6.1c0,0-20.8-45.7-46.7-72.5l3.6-2.5"/>
	<path class="st4" d="M1214.1,340.2c-1.6-1.7-2.5-4-2.5-6.5c0-5.4,4.4-9.7,9.7-9.7c5.4,0,9.7,4.4,9.7,9.7c0,2.5-0.9,4.8-2.5,6.5v5.1
		h-14.4L1214.1,340.2L1214.1,340.2z"/>
	<path class="st4" d="M118,340.2c-1.6-1.7-2.5-4-2.5-6.5c0-5.4,4.4-9.7,9.7-9.7c5.3,0,9.7,4.4,9.7,9.7c0,2.5-0.9,4.8-2.5,6.5v5.1
		H118V340.2z"/>
	<circle class="st4" cx="462.3" cy="333.2" r="11.7"/>
	<circle class="st4" cx="884" cy="333.2" r="11.7"/>
	<rect x="302.3" y="196" class="st4" width="741.3" height="3.7"/>
	<rect x="302.3" y="205.8" class="st4" width="741.3" height="3.7"/>
	<rect x="302.3" y="215.6" class="st4" width="741.3" height="3.7"/>
	<rect x="302.3" y="225.5" class="st4" width="741.3" height="3.7"/>
	<rect x="302.3" y="235.3" class="st4" width="741.3" height="3.7"/>
	<rect x="302.3" y="245.1" class="st4" width="741.3" height="3.7"/>
	<rect x="302.3" y="254.9" class="st4" width="741.3" height="3.7"/>
	<rect x="302.3" y="264.8" class="st4" width="741.3" height="3.7"/>
	<rect x="302.3" y="274.5" class="st4" width="741.3" height="3.7"/>
	<rect x="302.3" y="284.3" class="st4" width="741.3" height="3.7"/>
	<rect x="302.3" y="294.1" class="st4" width="741.3" height="3.7"/>
	<rect x="302.3" y="304" class="st4" width="741.3" height="3.7"/>
	<rect x="302.3" y="313.8" class="st4" width="741.3" height="3.7"/>
	<circle class="st4" cx="278.7" cy="107.9" r="4"/>
	<polyline class="st4" points="273.6,21 318.7,39 319.4,37.3 278.7,20.9 	"/>
	<path class="st4" d="M286.7,10.6v1.2l-0.4,9.2c0,0,0,0.4-0.5,0.4l0,0c-0.5,0-0.5-0.4-0.5-0.4l-0.4-9.2v-1.2H286.7z"/>
	<path class="st4" d="M250,10.6v1.2l-0.4,9.2c0,0,0,0.4-0.5,0.4l0,0c-0.5,0-0.5-0.4-0.5-0.4l-0.4-9.2v-1.2H250z"/>
	<line class="st4" x1="249.3" y1="18.6" x2="266.4" y2="18.6"/>
	<line class="st4" x1="249.2" y1="21" x2="266.4" y2="21"/>
	<line class="st4" x1="267.9" y1="18.6" x2="285.1" y2="18.6"/>
	<line class="st4" x1="267.8" y1="21" x2="285.1" y2="21"/>
	<path class="st4" d="M268.1,16.4v13.8c0,0.5-0.4,0.8-0.8,0.8s-0.8-0.4-0.8-0.8V16.4c0-0.5,0.4-0.8,0.8-0.8S268.1,15.9,268.1,16.4z"
		/>
	<path class="st4" d="M382.1,74.4c0-0.4-0.2-0.7-0.4-1c-0.3-0.3-0.6-0.4-1-0.4c-0.8,0-1.4,0.6-1.4,1.4s0.6,1.4,1.4,1.4
		S382.1,75.2,382.1,74.4z"/>
	<path class="st4" d="M380.4,75.4l-44.6,31.2c-0.1,0-3.6,0-3.6,0L379,73.9l-1.9-2.5l1.9-2.8l2.8,4.9"/>
	<polyline class="st4" points="378.9,68.4 373.7,59.8 371.8,61 376.9,71.1 	"/>
	<circle class="st4" cx="371.6" cy="58.9" r="1.8"/>
	<circle class="st4" cx="364.1" cy="61.6" r="2.2"/>
	<line class="st4" x1="362.6" y1="59.4" x2="370.9" y2="56.5"/>
	<line class="st4" x1="364.5" y1="63.8" x2="371.6" y2="60.6"/>
	<polyline class="st4" points="365.3,59.2 318.7,39.9 320,36.4 371.6,57.1 	"/>
	<line class="st4" x1="283" y1="107.5" x2="364" y2="63.9"/>
	<line class="st4" x1="362.6" y1="60" x2="276.5" y2="104.6"/>
	<path class="st4" d="M268.1,24.9l91.1,36.8l-2.8,1.2c0,0-88.5-34.7-88.4-34.8C268.1,27.9,268.1,24.9,268.1,24.9z"/>
	<polyline class="st4" points="275.3,105.9 269.4,116.4 250.4,116.4 	"/>
	<polyline class="st4" points="282.1,105.9 288,116.4 306,116.4 	"/>
</g>
</svg>
