<?xml version="1.0" encoding="utf-8"?>
<!-- Generator: Adobe Illustrator 22.0.1, SVG Export Plug-In . SVG Version: 6.00 Build 0)  -->
<svg version="1.1" id="Type_7" xmlns="http://www.w3.org/2000/svg" xmlns:xlink="http://www.w3.org/1999/xlink" x="0px" y="0px"
	 viewBox="0 0 1907.2 300" style="enable-background:new 0 0 1907.2 300;" xml:space="preserve">
<style type="text/css">
	.st0{fill:#B1B3B3;stroke:#B1B3B3;stroke-miterlimit:10;}
	.st1{fill:#212322;}
	.st2{fill:#DA291C;stroke:#DA291C;stroke-miterlimit:10;}
	.st3{fill:#333F48;}
	.st4{fill:#B1B3B3;}
	.st5{fill:#FA4616;}
	.st6{fill:#878787;}
	.st7{fill:none;stroke:#000000;stroke-width:2;stroke-linecap:round;stroke-linejoin:round;}
	.st8{fill:none;stroke:#000000;stroke-width:2;stroke-miterlimit:10;}
</style>
<title>171122_NT_illustrasjoner</title>
<metadata><?xpacket begin="﻿" id="W5M0MpCehiHzreSzNTczkc9d"?>
<x:xmpmeta xmlns:x="adobe:ns:meta/" x:xmptk="Adobe XMP Core 5.6-c143 79.161210, 2017/08/11-10:28:36        ">
   <rdf:RDF xmlns:rdf="http://www.w3.org/1999/02/22-rdf-syntax-ns#">
      <rdf:Description rdf:about=""
            xmlns:dc="http://purl.org/dc/elements/1.1/">
         <dc:title>
            <rdf:Alt>
               <rdf:li xml:lang="x-default">171122_NT_illustrasjoner</rdf:li>
            </rdf:Alt>
         </dc:title>
      </rdf:Description>
   </rdf:RDF>
</x:xmpmeta>
                                                                                                    
                                                                                                    
                                                                                                    
                                                                                                    
                                                                                                    
                                                                                                    
                                                                                                    
                                                                                                    
                                                                                                    
                                                                                                    
                                                                                                    
                                                                                                    
                                                                                                    
                                                                                                    
                                                                                                    
                                                                                                    
                                                                                                    
                                                                                                    
                                                                                                    
                                                                                                    
                           
<?xpacket end="w"?></metadata>
<g id="Farger">
	<g id="Grunnfarge">
		<polygon class="st0" points="20.9,13.6 1885.3,13.6 1885.3,92 21.6,92 		"/>
		<rect x="1764.2" y="225.6" class="st1" width="74.4" height="16.6"/>
		<path class="st1" d="M1556.2,210.5v7.2h21.1c0,0,0.2,3.9,4.7,3.9h10.1v18.8h-39.9c0,0-4.3-7.1-15.3-11.5s-24-1.5-29.7,2.8
			s-8.8,6.7-9.6,8.7h-9.8l-3.9,7.8v11.6h2.6l5-4.5c0,0-4.4,13.5,7.4,27.6s28.6,11.8,28.6,11.8s17.9-0.5,26.7-16.8
			c0,0,5.2-5.9,4.5-20.4l26,13.4h1.9v13.9h4.1l7.1-7.3v-2.3h35.9v2.3l7.1,7.3h4.1V271h1.9l26-13c0,0-2.2,15.6,9.8,26.9
			s23.2,10.5,30.9,9.3s23.6-9,26.8-27.5c0.6-3.6,0.6-7.2,0.2-10.8l4.3,4h2.6v-11.7l-3.9-7.8h-9.7c0,0-5.3-7.8-14.3-11.1
			c-5.4-2-11.2-2.7-17-2.3c0,0-14.7,1.1-22.6,13.4h-40.5v-18.8h11.8c1.8-0.4,3-2,3-3.9h21.1v-7.2H1556.2z"/>
		<path class="st1" d="M230.7,210.5v7.2h21.1c0,0,0.2,3.9,4.7,3.9h10.1v18.8h-39.9c0,0-4.3-7.1-15.3-11.5s-24-1.5-29.7,2.8
			s-8.8,6.7-9.5,8.7h-9.8l-3.9,7.8v11.6h2.6l5-4.5c0,0-4.4,13.5,7.4,27.6s28.6,11.8,28.6,11.8s17.9-0.5,26.7-16.8
			c0,0,5.2-5.9,4.5-20.4l26,13.4h1.9v13.9h4.1l7.1-7.3v-2.3h35.9v2.3l7.1,7.3h4.1V271h1.9l26-13c0,0-2.2,15.6,9.8,26.9
			s23.2,10.5,30.9,9.3s23.6-9,26.8-27.5c0.6-3.6,0.6-7.2,0.1-10.8l4.4,4h2.6v-11.7l-3.9-7.8h-9.7c0,0-5.3-7.8-14.3-11.1
			c-5.4-2-11.2-2.7-17-2.3c0,0-14.7,1.1-22.6,13.4h-40.5v-18.8H326c1.8-0.4,3-2,3-3.9h21.1v-7.2H230.7z"/>
		<polygon class="st1" points="20.5,205.6 4.8,205.8 4.8,199.2 2.3,199.2 2.3,231.4 4.8,231.4 4.8,224.7 37.6,224.7 20.5,208.2 		
			"/>
		<path class="st1" d="M1885.4,205.8h15.9v-6.6h2.3c0,0,0.2,32,0,32h-2.3v-6.7h-33.1l17.3-17.3V205.8z"/>
	</g>
	<g id="Profilering">
		<polygon class="st2" points="20.7,146.8 1884.8,146.8 1884.8,207.9 1868.7,224.6 1745.3,224.6 1733.7,210.5 1497.5,210.5 
			1485.2,225.8 419.2,225.8 408.5,210.5 172.4,210.5 159.7,225.8 39.3,225.8 20.7,207.9 		"/>
		<polygon class="st3" points="21.1,92.2 1885.6,92.2 1885.6,149 20.6,149 		"/>
		<polygon class="st2" points="1885.3,53.9 20.6,53.9 20.7,92.2 1885.6,92.2 		"/>
		<rect x="20.8" y="178.7" class="st4" width="1864.7" height="6.7"/>
		<polygon class="st4" points="1885.8,199.2 1645.6,199.2 1518.7,68.1 392.7,68.1 265.8,199.2 20.3,199.2 20.3,195.8 264.4,195.8 
			391.3,64.7 1520.1,64.7 1647,195.8 1885.8,195.8 		"/>
	</g>
	<g id="Dører_og_vinduer">
		<rect x="1764.2" y="13.5" class="st5" width="72.6" height="212.4"/>
		<path class="st6" d="M978.3,96.1h35.2c3.8,0,6.9,3.1,6.9,6.9V138c0,3.8-3.1,6.9-6.9,6.9h-35.2c-3.8,0-6.9-3.1-6.9-6.9v-34.9
			C971.4,99.2,974.5,96.1,978.3,96.1z"/>
		<path class="st6" d="M979.7,63.2h35.2c3.8,0,6.9,3.1,6.9,6.9v7.8c0,3.8-3.1,6.9-6.9,6.9h-35.2c-3.8,0-6.9-3.1-6.9-6.9v-7.8
			C972.8,66.3,975.9,63.2,979.7,63.2z"/>
		<path class="st6" d="M98.9,63.2h35.2c3.8,0,6.9,3.1,6.9,6.9v7.8c0,3.8-3.1,6.9-6.9,6.9H98.9c-3.8,0-6.9-3.1-6.9-6.9v-7.8
			C91.9,66.3,95.1,63.2,98.9,63.2z"/>
		<path class="st6" d="M1054.4,96.1h35.2c3.8,0,6.9,3.1,6.9,6.9V138c0,3.8-3.1,6.9-6.9,6.9h-35.2c-3.8,0-6.9-3.1-6.9-6.9v-34.9
			C1047.4,99.2,1050.5,96.1,1054.4,96.1z"/>
		<path class="st6" d="M871.8,96.1H907c3.8,0,6.9,3.1,6.9,6.9V138c0,3.8-3.1,6.9-6.9,6.9h-35.2c-3.8,0-6.9-3.1-6.9-6.9v-34.9
			C864.9,99.2,868,96.1,871.8,96.1z"/>
		<path class="st6" d="M459.7,96.1h35.2c3.8,0,6.9,3.1,6.9,6.9V138c0,3.8-3.1,6.9-6.9,6.9h-35.2c-3.8,0-6.9-3.1-6.9-6.9v-34.9
			C452.7,99.2,455.8,96.1,459.7,96.1z"/>
		<path class="st6" d="M98.9,96.1h35.2c3.8,0,6.9,3.1,6.9,6.9V138c0,3.8-3.1,6.9-6.9,6.9H98.9c-3.8,0-6.9-3.1-6.9-6.9v-34.9
			C91.9,99.2,95.1,96.1,98.9,96.1z"/>
		<path class="st6" d="M98.9,152.3h35.2c3.8,0,6.9,3.1,6.9,6.9v34.9c0,3.8-3.1,6.9-6.9,6.9H98.9c-3.8,0-6.9-3.1-6.9-6.9v-34.9
			C91.9,155.4,95.1,152.3,98.9,152.3z"/>
		<path class="st6" d="M1128.8,96.1h109.8c3.8,0,6.9,3.1,6.9,6.9V138c0,3.8-3.1,6.9-6.9,6.9h-109.8c-3.8,0-6.9-3.1-6.9-6.9v-34.9
			C1121.8,99.2,1124.9,96.1,1128.8,96.1z"/>
		<path class="st6" d="M1818.6,145.4h-34.4c-2.4,0-4.4-2-4.4-4.4v-39.4c0-2.4,2-4.4,4.4-4.4h34.4c2.4,0,4.4,2,4.4,4.4v39.4
			C1823,143.4,1821.1,145.4,1818.6,145.4z"/>
		<rect x="1410.8" y="62.6" class="st3" width="146.4" height="139.1"/>
		<path class="st6" d="M1464.4,145.4h-34.4c-2.4,0-4.4-2-4.4-4.4v-39.4c0-2.4,2-4.4,4.4-4.4h34.4c2.4,0,4.4,2,4.4,4.4v39.4
			C1468.8,143.4,1466.8,145.4,1464.4,145.4z"/>
		<path class="st6" d="M1537.9,145.4h-34.4c-2.4,0-4.4-2-4.4-4.4v-39.4c0-2.4,2-4.4,4.4-4.4h34.4c2.4,0,4.4,2,4.4,4.4v39.4
			C1542.3,143.4,1540.3,145.4,1537.9,145.4z"/>
		<rect x="592" y="63.3" class="st3" width="146.4" height="139.1"/>
		<path class="st6" d="M645.7,145.4h-34.4c-2.4,0-4.4-2-4.4-4.4v-39.4c0-2.4,2-4.4,4.4-4.4h34.4c2.4,0,4.4,2,4.4,4.4v39.4
			C650.1,143.4,648.1,145.4,645.7,145.4z"/>
		<path class="st6" d="M719.2,145.4h-34.4c-2.4,0-4.4-2-4.4-4.4v-39.4c0-2.4,2-4.4,4.4-4.4h34.4c2.4,0,4.4,2,4.4,4.4v39.4
			C723.6,143.4,721.6,145.4,719.2,145.4z"/>
	</g>
</g>
<g id="Omriss">
	<polygon class="st7" points="20.5,13.8 1885.3,13.8 1885.3,207.5 1868.1,224.6 1745.6,224.6 1733.8,210.4 1497.6,210.4 
		1485.6,225.7 420.1,225.7 408.2,210.4 171.9,210.4 160.1,225.7 38.7,225.7 20.5,208.1 	"/>
	<line class="st7" x1="20.5" y1="26.2" x2="1885.3" y2="26.2"/>
	<line class="st7" x1="1885.3" y1="33.6" x2="20.7" y2="33.6"/>
	<line class="st7" x1="20.7" y1="53.8" x2="1885.3" y2="53.8"/>
	<path class="st7" d="M1558.7,257.5c0.1,1.1,0.2,2.1,0.2,3.2c0.3,18.8-14.7,34.3-33.5,34.6c-18.8,0.3-34.3-14.7-34.6-33.5
		c0-0.4,0-0.8,0-1.2c0-1.7,0.1-3.4,0.4-5.1"/>
	<path class="st7" d="M1497.5,240.3c11.3-15.1,32.7-18.1,47.7-6.8c2.6,1.9,4.9,4.2,6.8,6.8"/>
	<path class="st7" d="M1554.5,256c0.3,1.6,0.4,3.3,0.4,4.9c0,16.6-13.5,30.1-30.1,30.2c-16.6,0-30.1-13.5-30.2-30.1c0-2,0.2-4,0.6-6
		"/>
	<path class="st7" d="M1502.8,240.3c11.4-12.2,30.4-12.8,42.6-1.4c0.5,0.5,1,0.9,1.4,1.4"/>
	<circle class="st7" cx="1524.8" cy="260.7" r="6.8"/>
	<path class="st7" d="M1740.6,255.8c0.2,1.6,0.4,3.3,0.4,4.9c0.3,18.8-14.7,34.3-33.5,34.6c-18.8,0.3-34.3-14.7-34.6-33.5
		c0-0.4,0-0.8,0-1.2c0-1,0-1.9,0.1-2.9"/>
	<path class="st7" d="M1679.6,240.3c11.3-15.1,32.6-18.1,47.7-6.8c2.6,1.9,4.9,4.2,6.8,6.8"/>
	<path class="st7" d="M1736.4,255.1c3.3,16.3-7.3,32.2-23.6,35.5c-16.3,3.3-32.2-7.3-35.5-23.6c-0.4-2-0.6-4-0.6-6
		c0-1.5,0.1-3.1,0.3-4.6"/>
	<path class="st7" d="M1684.9,240.3c11.4-12.2,30.4-12.8,42.6-1.4c0.5,0.5,1,0.9,1.4,1.4"/>
	<circle class="st7" cx="1706.8" cy="260.7" r="6.8"/>
	<path class="st7" d="M1486.5,259.8h-2.6v-11.6l3.9-7.8H1592v-18.8h47.7v18.8h104l3.9,7.8v11.6h-2.6l-5.2-4.8h-9.7v-1.7h-10.2
		l-9.9-6h-6.6l-9.9,6h-10.2v1.8c0,0-4.9-0.3-17,5.9l-19.4,10h-62.2l-21.7-11.2c0,0-7-4.7-14.9-4.7v-1.7h-10.2l-9.9-6h-6.6l-9.9,6
		h-10.2v1.8h-9.7L1486.5,259.8z"/>
	<polyline class="st7" points="1500.6,255 1498.2,260.7 1498.2,265.8 1515,274.2 1534.5,274.2 1551.3,265.8 1551.3,260.7 
		1548.8,255.1 	"/>
	<polyline class="st7" points="1682.4,255 1680.1,260.7 1680.1,265.8 1696.9,274.2 1716.4,274.2 1733.2,265.8 1733.2,260.7 
		1730.7,255.1 	"/>
	<path class="st7" d="M1654.4,210.4v7.5c0,2-1.6,3.6-3.6,3.6c0,0,0,0,0,0h-70c-2,0-3.6-1.6-3.6-3.6l0,0v-7.5"/>
	<polyline class="st7" points="1556.1,210.4 1556.1,217.6 1577.2,217.6 	"/>
	<polyline class="st7" points="1675.5,210.4 1675.5,217.6 1654.4,217.6 	"/>
	<polyline class="st7" points="1586.6,270.9 1586.6,284.8 1590.7,284.8 1597.8,277.5 1597.8,275.2 1633.8,275.2 1633.8,277.5 
		1640.9,284.8 1645,284.8 1645,270.9 	"/>
	<path class="st7" d="M233.1,257.5c0.1,1.1,0.2,2.2,0.2,3.2c0.3,18.8-14.7,34.3-33.5,34.6c-18.8,0.3-34.3-14.7-34.6-33.5
		c0-0.4,0-0.8,0-1.2c0-1.7,0.1-3.4,0.4-5.1"/>
	<path class="st7" d="M172,240.3c11.3-15.1,32.6-18.1,47.7-6.8c2.6,1.9,4.9,4.2,6.8,6.8"/>
	<path class="st7" d="M229,256c0.3,1.6,0.4,3.3,0.4,4.9c0,16.6-13.5,30.1-30.1,30.1s-30.1-13.5-30.1-30.1c0,0,0,0,0,0
		c0-2,0.2-4,0.6-5.9"/>
	<path class="st7" d="M177.2,240.3c11.4-12.1,30.4-12.8,42.6-1.4c0.5,0.4,0.9,0.9,1.4,1.4"/>
	<circle class="st7" cx="199.2" cy="260.7" r="6.8"/>
	<path class="st7" d="M415,255.8c0.2,1.6,0.4,3.3,0.4,4.9c0.3,18.8-14.7,34.3-33.5,34.6c-18.8,0.3-34.3-14.7-34.6-33.5
		c0-0.4,0-0.8,0-1.2c0-1,0-1.9,0.1-2.9"/>
	<path class="st7" d="M354,240.3c11.3-15.1,32.7-18.1,47.7-6.8c2.6,1.9,4.9,4.2,6.8,6.8"/>
	<path class="st7" d="M410.8,255.1c0.4,1.9,0.6,3.9,0.6,5.9c0.3,16.6-12.9,30.4-29.6,30.7c-16.6,0.3-30.4-12.9-30.7-29.6
		c0-0.4,0-0.7,0-1.1c0-1.5,0.1-3.1,0.3-4.6"/>
	<path class="st7" d="M359.3,240.3c11.4-12.1,30.4-12.8,42.6-1.4c0.5,0.4,0.9,0.9,1.4,1.4"/>
	<circle class="st7" cx="381.3" cy="260.7" r="6.8"/>
	<path class="st7" d="M161,259.8h-2.6v-11.6l3.9-7.8h104.2v-18.8h47.7v18.8h104l3.9,7.8v11.6h-2.6l-5.2-4.7h-9.7v-1.7h-10.2l-9.9-6
		h-6.6l-9.9,6h-10.2v1.7c0,0-4.9-0.3-17,5.9l-19.4,10h-62.2l-21.7-11.2c0,0-6.9-4.7-14.9-4.7v-1.7h-10.2l-9.9-6H196l-9.9,6h-10.2
		v1.7h-9.7L161,259.8z"/>
	<polyline class="st7" points="175,255 172.7,260.7 172.7,265.8 189.5,274.2 209,274.2 225.8,265.8 225.8,260.7 223.3,255.1 	"/>
	<polyline class="st7" points="356.9,255 354.6,260.7 354.6,265.8 371.4,274.2 390.9,274.2 407.7,265.8 407.7,260.7 405.2,255.1 	
		"/>
	<path class="st7" d="M328.9,210.4v7.5c0,2-1.6,3.6-3.6,3.6h0h-70c-2,0-3.6-1.6-3.6-3.6l0,0v-7.5"/>
	<polyline class="st7" points="230.6,210.4 230.6,217.6 251.6,217.6 	"/>
	<polyline class="st7" points="350,210.4 350,217.6 328.9,217.6 	"/>
	<polyline class="st7" points="261.1,270.9 261.1,284.8 265.2,284.8 272.3,277.5 272.3,275.2 308.2,275.2 308.2,277.5 315.4,284.8 
		319.4,284.8 319.4,270.9 	"/>
	<path class="st7" d="M99,96.1H134c3.8,0,6.9,3.1,6.9,6.9v34.9c0,3.8-3.1,6.9-6.9,6.9H99c-3.8,0-6.9-3.1-6.9-6.9V103
		C92,99.2,95.1,96.1,99,96.1z"/>
	<path class="st7" d="M459.8,96.1h35.1c3.8,0,6.9,3.1,6.9,6.9v34.9c0,3.8-3.1,6.9-6.9,6.9h-35.1c-3.8,0-6.9-3.1-6.9-6.9V103
		C452.8,99.2,455.9,96.1,459.8,96.1z"/>
	<path class="st7" d="M218.1,92.2h357.6c3.9,0,7,3.2,7,7v40.6c0,3.9-3.2,7-7,7H218.1c-3.9,0-7.1-3.2-7.1-7V99.3
		C211.1,95.4,214.2,92.2,218.1,92.2z"/>
	<path class="st7" d="M752.8,92.2h642.2c4,0,7.2,3.2,7.2,7.2v42.4c0,4-3.2,7.2-7.2,7.2H752.8c-4,0-7.2-3.2-7.2-7.2V99.4
		C745.7,95.4,748.9,92.2,752.8,92.2z"/>
	<path class="st7" d="M1571.8,94h177.9c3.8,0,6.9,3.1,6.9,6.9v39c0,3.8-3.1,6.9-6.9,6.9h-177.9c-3.8,0-6.9-3.1-6.9-6.9v-39
		C1564.9,97.1,1568,94,1571.8,94z"/>
	<path class="st7" d="M99,152.3H134c3.8,0,6.9,3.1,6.9,6.9v34.9c0,3.8-3.1,6.9-6.9,6.9H99c-3.8,0-6.9-3.1-6.9-6.9v-34.9
		C92,155.4,95.1,152.3,99,152.3z"/>
	<path class="st7" d="M979.8,63.2h35c3.8,0,6.9,3.1,6.9,6.9v7.8c0,3.8-3.1,6.9-6.9,6.9h-35c-3.8,0-6.9-3.1-6.9-6.9v-7.8
		C972.8,66.3,976,63.2,979.8,63.2z"/>
	<path class="st7" d="M99,63.9H134c3.8,0,6.9,3.1,6.9,6.9v7.8c0,3.8-3.1,6.9-6.9,6.9H99c-3.8,0-6.9-3.1-6.9-6.9v-7.8
		C92,67,95.1,63.9,99,63.9z"/>
	<path class="st7" d="M871.9,96.1h35c3.8,0,6.9,3.1,6.9,6.9v34.9c0,3.8-3.1,6.9-6.9,6.9h-35c-3.8,0-6.9-3.1-6.9-6.9V103
		C865,99.2,868.1,96.1,871.9,96.1z"/>
	<path class="st7" d="M978.3,96.1h35c3.8,0,6.9,3.1,6.9,6.9v34.9c0,3.8-3.1,6.9-6.9,6.9h-35c-3.8,0-6.9-3.1-6.9-6.9V103
		C971.4,99.2,974.5,96.1,978.3,96.1z"/>
	<path class="st7" d="M1054.4,96.1h35c3.8,0,6.9,3.1,6.9,6.9v34.9c0,3.8-3.1,6.9-6.9,6.9h-35c-3.8,0-6.9-3.1-6.9-6.9V103
		C1047.5,99.2,1050.6,96.1,1054.4,96.1z"/>
	<path class="st7" d="M1128.9,96.1h109.6c3.8,0,6.9,3.1,6.9,6.9v34.9c0,3.8-3.1,6.9-6.9,6.9h-109.6c-3.8,0-6.9-3.1-6.9-6.9V103
		C1121.9,99.2,1125,96.1,1128.9,96.1z"/>
	<path class="st7" d="M610.8,96.1h35.4c2.3,0,4.2,1.9,4.2,4.1v41.1c0,2.3-1.9,4.1-4.2,4.1h-35.4c-2.3,0-4.2-1.9-4.2-4.1v-41.1
		C606.6,97.9,608.5,96.1,610.8,96.1z"/>
	<path class="st7" d="M684.2,96.1h35.4c2.3,0,4.2,1.9,4.2,4.1v41.1c0,2.3-1.9,4.1-4.2,4.1h-35.4c-2.3,0-4.2-1.9-4.2-4.1v-41.1
		C680.1,97.9,681.9,96.1,684.2,96.1z"/>
	<polyline class="st8" points="37.6,224.6 4.6,224.6 4.6,205.7 20.5,205.7 	"/>
	<rect x="2.4" y="199.1" class="st8" width="2.2" height="32"/>
	<polyline class="st8" points="1868.2,224.6 1901.1,224.6 1901.1,205.7 1885.3,205.7 	"/>
	<rect x="1901.1" y="199.1" class="st8" width="2.2" height="32"/>
	<rect x="592" y="63.3" class="st7" width="146.4" height="139.1"/>
	<line class="st7" x1="665.2" y1="63.3" x2="665.2" y2="202.4"/>
	<path class="st7" d="M1429.5,96.1h35.4c2.3,0,4.2,1.9,4.2,4.1v41.1c0,2.3-1.9,4.1-4.2,4.1h-35.4c-2.3,0-4.2-1.9-4.2-4.1v-41.1
		C1425.3,97.9,1427.2,96.1,1429.5,96.1z"/>
	<path class="st7" d="M1502.9,96.1h35.4c2.3,0,4.2,1.9,4.2,4.1v41.1c0,2.3-1.9,4.1-4.2,4.1h-35.4c-2.3,0-4.2-1.9-4.2-4.1v-41.1
		C1498.8,97.9,1500.6,96.1,1502.9,96.1z"/>
	<rect x="1410.7" y="63.3" class="st7" width="146.4" height="139.1"/>
	<line class="st7" x1="1483.9" y1="63.3" x2="1483.9" y2="202.4"/>
	<polyline class="st7" points="1837.8,225.4 1837.8,242 1763.4,242 1763.4,225.4 	"/>
	<path class="st7" d="M1817.8,145h-34.4c-2.4,0-4.4-2-4.4-4.4v-39.4c0-2.4,2-4.4,4.4-4.4h34.4c2.4,0,4.4,2,4.4,4.4v39.4
		C1822.2,143,1820.2,145,1817.8,145z"/>
	<path class="st7" d="M1837,225.4h-72.9l0,0V70.7c0-3.6,2.9-6.5,6.5-6.5l0,0h59.8c3.6,0,6.5,2.9,6.5,6.5v0L1837,225.4L1837,225.4z"
		/>
</g>
</svg>
