<?xml version="1.0" encoding="utf-8"?>
<!-- Generator: Adobe Illustrator 22.0.1, SVG Export Plug-In . SVG Version: 6.00 Build 0)  -->
<svg version="1.1" id="Type_5" xmlns="http://www.w3.org/2000/svg" xmlns:xlink="http://www.w3.org/1999/xlink" x="0px" y="0px"
	 viewBox="0 0 1829.2 340" style="enable-background:new 0 0 1829.2 340;" xml:space="preserve">
<metadata><?xpacket begin="﻿" id="W5M0MpCehiHzreSzNTczkc9d"?>
<x:xmpmeta xmlns:x="adobe:ns:meta/" x:xmptk="Adobe XMP Core 5.6-c143 79.161210, 2017/08/11-10:28:36        ">
   <rdf:RDF xmlns:rdf="http://www.w3.org/1999/02/22-rdf-syntax-ns#">
      <rdf:Description rdf:about=""/>
   </rdf:RDF>
</x:xmpmeta>
                                                                                                    
                                                                                                    
                                                                                                    
                                                                                                    
                                                                                                    
                                                                                                    
                                                                                                    
                                                                                                    
                                                                                                    
                                                                                                    
                                                                                                    
                                                                                                    
                                                                                                    
                                                                                                    
                                                                                                    
                                                                                                    
                                                                                                    
                                                                                                    
                                                                                                    
                                                                                                    
                           
<?xpacket end="w"?></metadata>
<style type="text/css">
	.st0{fill:#B1B3B3;}
	.st1{fill:#212322;}
	.st2{fill:#444445;}
	.st3{fill:#DA291C;}
	.st4{fill:#878787;}
	.st5{fill:none;stroke:#000000;stroke-width:2;stroke-linecap:round;stroke-linejoin:round;stroke-miterlimit:10;}
	.st6{fill:none;stroke:#000000;stroke-width:2;stroke-linejoin:round;stroke-miterlimit:10;}
	.st7{fill:none;stroke:#000000;stroke-width:2;stroke-miterlimit:10;}
</style>
<g id="Mål_16_">
</g>
<g id="Farger_16_">
	<g id="Grunnfarge_12_">
		<path class="st0" d="M21.9,88.8h125.3L182,54h1460.6l34.8,34.7h130.7v-45c0,0,1.5-17.7-24.6-21.9s-1.1,0-1.1,0l-112.1-5.3l-0.3,3
			h-68.8V17H228l-0.1,3.2l-68-0.6V17c0,0-59.3,2-64.4,2.2s-46.6,1.5-52.9,3.5c-6.3,2.1-20.7,7.1-20.7,22
			C21.9,59.6,21.9,88.8,21.9,88.8z"/>
		<path class="st1" d="M1484.6,263.3c0,0-7.9-11.4-24.7-11.4c-16.8,0-32.2,16.3-29.6,35.9c2.6,19.7,23.5,24.6,30.6,25.4
			c7.2,0.7,18.4-3.9,26.3-14.9h5.9v-2.8h18.5v-4.1h60.4v4.1h18.5v2.8h6.3c0,0,7.4,12.9,22.2,14.6c14.8,1.7,26.5-7.3,31.4-16.5
			c4.8-9.2,4.6-21-1.6-30.1l-16.7-0.1l-13.4-14.3l-5.8-6.2l-29.4-0.1H1513c0,0-1.9,2-2.1,6.3c-0.2,4.4,1.5,13.9,2.9,15.9
			c0,0,0-2.7-6-3.7s-7.6-0.9-7.6-0.9s2.8-4.3-0.9-5.6c0,0-2.7,0.6-3.4,1.8s-4.8-0.1-4.8-0.1L1484.6,263.3z"/>
		<path class="st1" d="M345.6,263.3c0,0,7.9-11.4,24.7-11.4s32.2,16.3,29.6,35.9c-2.6,19.7-23.5,24.6-30.6,25.4s-18.4-3.9-26.3-14.9
			h-5.9v-2.8h-18.5v-4.1h-60.4v4.1h-18.5v2.8h-6.3c0,0-7.4,12.9-22.2,14.6c-14.8,1.7-26.5-7.3-31.4-16.5s-4.6-21,1.6-30.1l16.7-0.1
			l13.4-14.3l5.8-6.2l29.4-0.1h70.5c0,0,1.9,2,2.1,6.3c0.2,4.4-1.5,13.9-2.9,15.9c0,0,0-2.7,6-3.7s7.6-0.9,7.6-0.9s-2.8-4.3,0.9-5.6
			c0,0,2.7,0.6,3.4,1.8s4.8-0.1,4.8-0.1L345.6,263.3z"/>
		<path class="st1" d="M21.8,226.4H11.5c0,0-1.7,0.2-1.7-3.4H7.3v-1.1H4c0,0-0.6,11.3,0,25.9h3.7v-0.9h2c0,0-0.4-3.2,0.6-3.2
			s16.2,0,16.2,0l-4.7-4.6V226.4z"/>
		<path class="st1" d="M1808.2,226.4h10.4c0,0,1.7,0.2,1.7-3.4h2.5v-1.1h3.3c0,0,0.6,11.3,0,25.9h-3.7v-0.9h-2c0,0,0.4-3.2-0.6-3.2
			s-16.2,0-16.2,0l4.7-4.6v-12.7H1808.2z"/>
		<rect x="416.8" y="241.2" class="st1" width="189.1" height="29.2"/>
		<rect x="621.8" y="241.2" class="st1" width="111.2" height="29.2"/>
		<rect x="767" y="241.2" class="st1" width="89.9" height="29.2"/>
		<rect x="875.9" y="241.2" class="st1" width="66.5" height="29.2"/>
		<rect x="984.7" y="241.2" class="st1" width="99.8" height="29.2"/>
		<rect x="1093.6" y="241.2" class="st1" width="298.7" height="29.2"/>
	</g>
	<g id="Profilering_16_">
		<rect x="21.9" y="88.8" class="st2" width="1786.3" height="75.6"/>
		<polygon class="st3" points="21.8,239.2 50.8,266.5 198,266.5 218,246.5 360.3,246.5 389.1,241 1441,241 1470.5,245.8 
			1612.9,245.8 1632.1,266.2 1780.1,266.2 1808.2,239.6 1808.2,164.3 21.9,164.3 		"/>
		<polygon class="st3" points="1642.6,54 182,54 147.1,88.8 1677.4,88.8 		"/>
		<g>
			<polygon class="st0" points="1809.3,213.5 1619.1,213.5 1492.3,82.4 366.3,82.4 239.4,213.5 22.6,213.5 22.6,210.1 238,210.1 
				364.8,79 1493.7,79 1620.6,210.1 1809.3,210.1 			"/>
		</g>
		<g>
			<rect x="23.1" y="192.9" class="st0" width="1785.8" height="6.7"/>
		</g>
	</g>
	<g id="Dører_og_vinduer_14_">
		<path class="st4" d="M203.7,157.2h-42.3c-5.1,0-9.3-4.2-9.3-9.3V97.6c0-5.1,4.2-9.3,9.3-9.3h42.3c5.1,0,9.3,4.2,9.3,9.3V148
			C213.1,153,208.8,157.2,203.7,157.2z"/>
		<path class="st4" d="M1123,157.2h-42.3c-5.1,0-9.3-4.2-9.3-9.3V97.6c0-5.1,4.2-9.3,9.3-9.3h42.3c5.1,0,9.3,4.2,9.3,9.3V148
			C1132.3,153,1128.1,157.2,1123,157.2z"/>
		<path class="st4" d="M1194.8,157.2h-42.3c-5.1,0-9.3-4.2-9.3-9.3V97.6c0-5.1,4.2-9.3,9.3-9.3h42.3c5.1,0,9.3,4.2,9.3,9.3V148
			C1204.2,153,1200,157.2,1194.8,157.2z"/>
		<path class="st4" d="M1266.7,157.2h-42.3c-5.1,0-9.3-4.2-9.3-9.3V97.6c0-5.1,4.2-9.3,9.3-9.3h42.3c5.1,0,9.3,4.2,9.3,9.3V148
			C1276,153,1271.8,157.2,1266.7,157.2z"/>
		<path class="st4" d="M328.8,157.2h-71.1c-5.1,0-9.3-4.2-9.3-9.3V97.6c0-5.1,4.2-9.3,9.3-9.3h71.1c5.1,0,9.3,4.2,9.3,9.3V148
			C338.2,153,334,157.2,328.8,157.2z"/>
		<path class="st4" d="M480.2,157.2h-71.1c-5.1,0-9.3-4.2-9.3-9.3V97.6c0-5.1,4.2-9.3,9.3-9.3h71.1c5.1,0,9.3,4.2,9.3,9.3V148
			C489.5,153,485.3,157.2,480.2,157.2z"/>
		<path class="st4" d="M649.3,157.2h-71.1c-5.1,0-9.3-4.2-9.3-9.3V97.6c0-5.1,4.2-9.3,9.3-9.3h71.1c5.1,0,9.3,4.2,9.3,9.3V148
			C658.7,153,654.5,157.2,649.3,157.2z"/>
		<path class="st4" d="M842.9,157.2h-35.2c-3.4,0-6.2-2.8-6.2-6.2v-32.4c0-3.4,2.8-6.2,6.2-6.2h35.2c3.4,0,6.2,2.8,6.2,6.2V151
			C849.1,154.5,846.3,157.2,842.9,157.2z"/>
		<path class="st4" d="M1478.7,157.2h-35.2c-3.4,0-6.2-2.8-6.2-6.2v-32.4c0-3.4,2.8-6.2,6.2-6.2h35.2c3.4,0,6.2,2.8,6.2,6.2V151
			C1484.9,154.5,1482.1,157.2,1478.7,157.2z"/>
		<path class="st4" d="M112.4,161.3H78.6c-4.1,0-7.5-3.4-7.5-7.5v-35c0-4.1,3.4-7.5,7.5-7.5h33.8c4.1,0,7.5,3.4,7.5,7.5v35
			C119.9,157.9,116.6,161.3,112.4,161.3z"/>
	</g>
</g>
<g id="Omriss_16_">
	<path class="st5" d="M1808.1,43.9c0,4.6,0,45,0,45v150.9l-28.1,26.6h-148l-9.9-10.6l-3.2-3.4l-6.1-6.5h-142.4l-29.5-4.7H389.1
		l-28.8,4.8l-143.1-0.1L198,266.6l-93.5,0.1H50.8l-28.9-27.3L22,70.5V43.2c0,0,0.8-19.1,28.1-21.4C77.4,19.6,160,17.2,160,17.2v2.6
		h68v-2.6h1373.3v2.5h69.1v-2.9l108.5,5c0,0,18.9-0.7,27.2,14.6C1806.1,36.3,1808.1,39.3,1808.1,43.9z"/>
	<circle class="st5" cx="1461" cy="282.8" r="12.3"/>
	<path class="st5" d="M1484.7,263.5c-5.6-6.9-14.2-11.3-23.8-11.3c-16.9,0-30.6,13.7-30.6,30.6c0,16.9,13.7,30.6,30.6,30.6
		c11.2,0,20.9-6,26.3-14.9"/>
	<circle class="st5" cx="1623" cy="282.8" r="12.3"/>
	<path class="st5" d="M1599.2,263.5c4.8-5.9,11.8-10,19.7-11"/>
	<path class="st5" d="M1648.9,266.5c3,4.7,4.8,10.4,4.8,16.4c0,16.9-13.7,30.6-30.6,30.6c-11.2,0-20.9-6-26.3-14.9"/>
	<path class="st5" d="M1476.4,268.6l-1.9-0.6v9.9c0,0,1,1.8,1,5s-1,4.5-1,4.5v11.1h8.4h4.4h5.9v-2.8h18.5v-4.1V282l-0.7-6.5
		l-7.5-7.3l-0.1-0.1h-8.9h-6.1v0.6v3.6l-2.8-0.9l0,0l-5.2-1.7"/>
	<path class="st5" d="M1607.5,268.5l1.6-0.5v9.9c0,0-1,1.8-1,5s1,4.5,1,4.5v11.1h-7.5h-4.8h-6.3v-2.8H1572v-4.1V282l0.7-6.5l7.6-7.3
		h15v4.2l3.8-1.2l4.6-1.5"/>
	<polyline class="st5" points="1571.9,291.6 1511.5,291.6 1511.5,291.6 	"/>
	<path class="st5" d="M1573,255.4c0,6-2.2,11.1-2.2,11.1s-0.8,1.1-1.8,1.1c-1.1,0-30.7,0.1-30.7,0.1h-23.4c0,0-1.4-0.1-1.8-1.1
		c-0.1-0.3-0.3-0.7-0.6-1.5c-0.7-1.8-1.6-5.1-1.6-10c0-6.8,1.6-9.2,1.6-9.2h58.8C1571.2,245.9,1573,249.3,1573,255.4z"/>
	<path class="st5" d="M1570.2,267.2l9.5-1.5l0.6,2.4l12.3-0.1l0.9-1.3c0,0,1.3,0.3,3,0.7c1.3,0.3,2.8,0.7,4.1,1
		c1.5,0.4,2.6,0.8,2.8,1c0.1,0.1,0.2,0.2,0.2,0.3c0.4,0.4,0.9,0.6,0.9,2c0,1.6,0.1,3.5,0.1,3.5h2.9v-6.7v-0.3c0,0-1.3-1.8-2.9-2.5
		c-0.3-0.1-0.8-0.3-1.5-0.7c-1-0.4-2.4-1-3.8-1.7c-3.1-1.4-6.3-3.2-6.3-4h-9.4V246h-10v13.3l10,0.2"/>
	<path class="st5" d="M1513.7,267.3l-9.5-1.5l-0.6,2.4h-0.3l-9-0.1h-3.1l-0.9-1.3c0,0-1.3,0.3-3,0.7c-2.8,0.7-6.6,1.6-6.9,2
		c-0.1,0.1-0.2,0.2-0.2,0.3l0,0c-0.4,0.4-0.9,0.6-0.9,1.9c0,1.6-0.1,3.5-0.1,3.5h-2.9v-6.7l0,0v-0.3c0,0,1.3-1.8,2.9-2.5
		c0.3-0.1,1-0.4,2-0.8c1-0.4,2.2-1,3.4-1.5c0.1,0,0.1-0.1,0.1-0.1c3-1.4,6.2-3.1,6.2-3.9h5.6c0,0,0.7-2.1,2.7-1.7
		c2,0.5,1.6,2.1,1.6,2.5c0,0.3-0.9,3.8-0.9,3.8l1.1,0.3l0.7-1l10.7,1.7"/>
	<line class="st5" x1="1485.5" y1="271.5" x2="1485.5" y2="271.5"/>
	<path class="st5" d="M1481.2,265c-4.9-5.7-12.2-9.2-20.3-9.2c-14.9,0-26.9,12.1-26.9,27s12.1,26.9,26.9,26.9c9,0,17-4.4,21.8-11.2"
		/>
	<path class="st5" d="M1644.8,266.5c3.5,4.6,5.5,10.2,5.5,16.4c0,14.9-12.1,26.9-26.9,26.9c-9,0-17-4.4-21.8-11.2"/>
	<path class="st5" d="M1622.1,255.8c-7.7,0.4-14.5,3.9-19.1,9.3c0.7,0.3,1.2,0.6,1.5,0.7c1.6,0.7,2.9,2.5,2.9,2.5v0.3v6.7h-2.9
		c0,0-0.1-1.9-0.1-3.5c0-1.4-0.5-1.5-0.9-2c-0.1-0.1-0.2-0.2-0.2-0.3c-0.2-0.2-1.3-0.6-2.8-1"/>
	<circle class="st6" cx="369.1" cy="282.8" r="12.3"/>
	<path class="st6" d="M342.9,298.5c5.3,8.9,15.1,14.9,26.3,14.9c16.9,0,30.6-13.7,30.6-30.6c0-16.9-13.7-30.6-30.6-30.6
		c-9.6,0-18.2,4.4-23.8,11.3"/>
	<circle class="st6" cx="207.1" cy="282.8" r="12.3"/>
	<path class="st6" d="M211.2,252.4c7.9,1,14.9,5.1,19.7,11"/>
	<path class="st6" d="M233.4,298.5c-5.3,8.9-15.1,14.9-26.3,14.9c-16.9,0-30.6-13.7-30.6-30.6c0-6,1.7-11.6,4.8-16.4"/>
	<path class="st6" d="M349.9,270l-5.2,1.7l0,0l-2.8,0.9V269v-0.6h-6.1h-8.9l-0.1,0.1l-7.5,7.3l-0.7,6.5v9.5v4.1H337v2.8h5.9h4.4h8.4
		v-11.1c0,0-1-1.2-1-4.5c0-3.2,1-5,1-5v-10l-1.9,0.6"/>
	<path class="st6" d="M226.5,269.8l4.6,1.5l3.8,1.2v-4.2h15l7.6,7.3l0.7,6.5v9.5v4.1h-18.5v2.8h-6.3h-4.8h-7.5v-11.1
		c0,0,1-1.2,1-4.5c0-3.2-1-5-1-5V268l1.6,0.5"/>
	<polyline class="st6" points="318.6,291.6 318.5,291.6 258.2,291.6 	"/>
	<path class="st6" d="M257.1,255.4c0,6,2.2,11.1,2.2,11.1s0.8,1.1,1.8,1.1c1.1,0,30.7,0.1,30.7,0.1h23.4c0,0,1.4-0.1,1.8-1.1
		c0.1-0.3,0.3-0.7,0.6-1.5c0.7-1.8,1.6-5.1,1.6-10c0-6.8-1.6-9.2-1.6-9.2h-58.8C258.9,245.9,257.1,249.3,257.1,255.4z"/>
	<path class="st6" d="M246.6,259.4l10-0.2V246h-10V259.4h-9.4c0,0.8-3.3,2.6-6.3,4c-1.4,0.7-2.8,1.3-3.8,1.7
		c-0.7,0.3-1.2,0.6-1.5,0.7c-1.6,0.7-2.9,2.5-2.9,2.5v0.3v6.7h2.9c0,0,0.1-1.9,0.1-3.5c0-1.4,0.5-1.5,0.9-2c0.1-0.1,0.2-0.2,0.2-0.3
		c0.2-0.2,1.3-0.6,2.8-1c1.2-0.3,2.8-0.7,4.1-1c1.7-0.4,3-0.7,3-0.7l0.9,1.3l12.3,0.1l0.6-2.4l9.5,1.5"/>
	<path class="st6" d="M317.7,265.1l10.7-1.7l0.7,1l1.1-0.3c0,0-0.8-3.5-0.9-3.8c0-0.4-0.5-2,1.6-2.5c2-0.4,2.7,1.7,2.7,1.7h5.6
		c0,0.8,3.2,2.5,6.2,3.9c0.1,0,0.1,0,0.1,0.1c1.2,0.6,2.4,1.1,3.4,1.5c0.9,0.4,1.6,0.7,2,0.8c1.6,0.7,2.9,2.5,2.9,2.5v0.3l0,0v6.7
		h-2.9c0,0-0.1-1.9-0.1-3.5c0-1.3-0.4-1.5-0.9-1.9l0,0c-0.1-0.1-0.2-0.2-0.2-0.3c-0.3-0.4-4.1-1.3-6.9-2c-1.7-0.4-3-0.7-3-0.7
		l-0.9,1.3h-3.1l-9,0.1h-0.3l-0.6-2.4l-9.5,1.5"/>
	<line class="st6" x1="344.6" y1="271.5" x2="344.6" y2="271.5"/>
	<path class="st6" d="M347.3,298.5c4.9,6.8,12.8,11.2,21.8,11.2c14.9,0,26.9-12.1,26.9-26.9c0-14.9-12.1-27-26.9-27
		c-8.1,0-15.3,3.6-20.3,9.2"/>
	<path class="st6" d="M228.6,298.5c-4.9,6.8-12.8,11.2-21.8,11.2c-14.9,0-26.9-12.1-26.9-26.9c0-6.1,2.1-11.8,5.5-16.4"/>
	<path class="st6" d="M229.6,268.5c-1.5,0.4-2.6,0.8-2.8,1c-0.1,0.1-0.2,0.2-0.2,0.3c-0.4,0.4-0.9,0.6-0.9,2c0,1.6-0.1,3.5-0.1,3.5
		h-2.9v-6.7v-0.3c0,0,1.3-1.8,2.9-2.5c0.3-0.1,0.8-0.3,1.5-0.7c-4.7-5.4-11.5-8.9-19.1-9.3"/>
	<path class="st6" d="M759.6,180.4H189.4c-1,0-1.8-0.8-1.8-1.8l0,0c0-1,0.8-1.8,1.8-1.8h570.2c1,0,1.8,0.8,1.8,1.8l0,0
		C761.4,179.6,760.6,180.4,759.6,180.4z"/>
	<path class="st6" d="M759.6,198H189.4c-1,0-1.8-0.8-1.8-1.8l0,0c0-1,0.8-1.8,1.8-1.8h570.2c1,0,1.8,0.8,1.8,1.8l0,0
		C761.4,197.1,760.6,198,759.6,198z"/>
	<path class="st6" d="M759.6,215.2H189.4c-1,0-1.8-0.8-1.8-1.8l0,0c0-1,0.8-1.8,1.8-1.8h570.2c1,0,1.8,0.8,1.8,1.8l0,0
		C761.4,214.3,760.6,215.2,759.6,215.2z"/>
	<path class="st6" d="M1393.5,180.4H897.3c-1,0-1.8-0.8-1.8-1.8l0,0c0-1,0.8-1.8,1.8-1.8h496.2c1,0,1.8,0.8,1.8,1.8l0,0
		C1395.3,179.6,1394.5,180.4,1393.5,180.4z"/>
	<path class="st6" d="M1393.5,198H897.3c-1,0-1.8-0.8-1.8-1.8l0,0c0-1,0.8-1.8,1.8-1.8h496.2c1,0,1.8,0.8,1.8,1.8l0,0
		C1395.3,197.1,1394.5,198,1393.5,198z"/>
	<path class="st6" d="M1393.5,215.2H897.3c-1,0-1.8-0.8-1.8-1.8l0,0c0-1,0.8-1.8,1.8-1.8h496.2c1,0,1.8,0.8,1.8,1.8l0,0
		C1395.3,214.3,1394.5,215.2,1393.5,215.2z"/>
	<path class="st6" d="M1640.6,180.4h-110.1c-1,0-1.8-0.8-1.8-1.8l0,0c0-1,0.8-1.8,1.8-1.8h110.1c1,0,1.8,0.8,1.8,1.8l0,0
		C1642.5,179.6,1641.6,180.4,1640.6,180.4z"/>
	<path class="st6" d="M1640.6,198h-110.1c-1,0-1.8-0.8-1.8-1.8l0,0c0-1,0.8-1.8,1.8-1.8h110.1c1,0,1.8,0.8,1.8,1.8l0,0
		C1642.5,197.1,1641.6,198,1640.6,198z"/>
	<path class="st6" d="M1640.6,215.2h-110.1c-1,0-1.8-0.8-1.8-1.8l0,0c0-1,0.8-1.8,1.8-1.8h110.1c1,0,1.8,0.8,1.8,1.8l0,0
		C1642.5,214.3,1641.6,215.2,1640.6,215.2z"/>
	<path class="st6" d="M203.7,157.2h-42.3c-5.1,0-9.3-4.2-9.3-9.3V97.6c0-5.1,4.2-9.3,9.3-9.3h42.3c5.1,0,9.3,4.2,9.3,9.3V148
		C213.1,153,208.8,157.2,203.7,157.2z"/>
	<path class="st6" d="M1123,157.2h-42.3c-5.1,0-9.3-4.2-9.3-9.3V97.6c0-5.1,4.2-9.3,9.3-9.3h42.3c5.1,0,9.3,4.2,9.3,9.3V148
		C1132.3,153,1128.1,157.2,1123,157.2z"/>
	<path class="st6" d="M842.2,157.2h-34.1c-3.6,0-6.6-3-6.6-6.6v-31.5c0-3.6,3-6.6,6.6-6.6h34.1c3.6,0,6.6,3,6.6,6.6v31.5
		C848.9,154.3,845.9,157.2,842.2,157.2z"/>
	<path class="st6" d="M1478,157.2h-34.1c-3.6,0-6.6-3-6.6-6.6v-31.5c0-3.6,3-6.6,6.6-6.6h34.1c3.6,0,6.6,3,6.6,6.6v31.5
		C1484.7,154.3,1481.7,157.2,1478,157.2z"/>
	<path class="st6" d="M1195.2,157.2h-42.3c-5.1,0-9.3-4.2-9.3-9.3V97.6c0-5.1,4.2-9.3,9.3-9.3h42.3c5.1,0,9.3,4.2,9.3,9.3V148
		C1204.5,153,1200.3,157.2,1195.2,157.2z"/>
	<path class="st6" d="M1266.7,157.2h-42.3c-5.1,0-9.3-4.2-9.3-9.3V97.6c0-5.1,4.2-9.3,9.3-9.3h42.3c5.1,0,9.3,4.2,9.3,9.3V148
		C1276,153,1271.8,157.2,1266.7,157.2z"/>
	<path class="st6" d="M328.8,157.2h-71.1c-5.1,0-9.3-4.2-9.3-9.3V97.6c0-5.1,4.2-9.3,9.3-9.3h71.1c5.1,0,9.3,4.2,9.3,9.3V148
		C338.2,153,334,157.2,328.8,157.2z"/>
	<path class="st6" d="M480.2,157.2h-71.1c-5.1,0-9.3-4.2-9.3-9.3V97.6c0-5.1,4.2-9.3,9.3-9.3h71.1c5.1,0,9.3,4.2,9.3,9.3V148
		C489.5,153,485.3,157.2,480.2,157.2z"/>
	<path class="st6" d="M649.3,157.2h-71.1c-5.1,0-9.3-4.2-9.3-9.3V97.6c0-5.1,4.2-9.3,9.3-9.3h71.1c5.1,0,9.3,4.2,9.3,9.3V148
		C658.7,153,654.5,157.2,649.3,157.2z"/>
	<line class="st6" x1="21.9" y1="70.5" x2="1808.1" y2="70.5"/>
	<line class="st6" x1="1612.8" y1="245.9" x2="1642.5" y2="241.2"/>
	<line class="st6" x1="1779.8" y1="21.8" x2="1779.8" y2="266.5"/>
	<line class="st6" x1="1779.8" y1="218.5" x2="1808.1" y2="218.5"/>
	<line class="st6" x1="50.8" y1="218.5" x2="21.8" y2="218.5"/>
	<line class="st6" x1="185.7" y1="240.9" x2="217.2" y2="245.9"/>
	<polyline class="st6" points="1441,241.2 1692.5,241.2 1692.5,266.8 	"/>
	<path class="st6" d="M112.4,161.5H78.6c-4.1,0-7.5-3.4-7.5-7.5v-35c0-4.1,3.4-7.5,7.5-7.5h33.8c4.1,0,7.5,3.4,7.5,7.5v35
		C119.9,158.1,116.5,161.5,112.4,161.5z"/>
	<path class="st6" d="M124.7,61.8H58.2c-0.3,0-0.5-0.2-0.5-0.5V42.8c0-0.3,0.2-0.5,0.5-0.5h66.6c0.3,0,0.5,0.2,0.5,0.5v18.5
		C125.2,61.5,125,61.8,124.7,61.8z"/>
	<rect x="61" y="44.9" class="st6" width="60.7" height="14.3"/>
	<polygon class="st7" points="64.5,55.6 65,48.1 117.9,48.1 117.4,55.6 	"/>
	<line class="st6" x1="68.8" y1="48.1" x2="68.3" y2="55.6"/>
	<line class="st6" x1="72.5" y1="48.1" x2="72.1" y2="55.6"/>
	<line class="st6" x1="76.3" y1="48.1" x2="75.9" y2="55.6"/>
	<line class="st6" x1="80.1" y1="48.1" x2="79.6" y2="55.6"/>
	<line class="st6" x1="83.9" y1="48.1" x2="83.4" y2="55.6"/>
	<line class="st6" x1="87.7" y1="48.1" x2="87.2" y2="55.6"/>
	<line class="st6" x1="91.4" y1="48.1" x2="91" y2="55.6"/>
	<line class="st6" x1="95.2" y1="48.1" x2="94.8" y2="55.6"/>
	<line class="st6" x1="99" y1="48.1" x2="98.5" y2="55.6"/>
	<line class="st6" x1="102.8" y1="48.1" x2="102.3" y2="55.6"/>
	<line class="st6" x1="106.6" y1="48.1" x2="106.1" y2="55.6"/>
	<line class="st6" x1="110.3" y1="48.1" x2="109.9" y2="55.6"/>
	<line class="st6" x1="114.1" y1="48.1" x2="113.7" y2="55.6"/>
	<path class="st6" d="M1771.9,61.8h-66.6c-0.3,0-0.5-0.2-0.5-0.5V42.8c0-0.3,0.2-0.5,0.5-0.5h66.6c0.3,0,0.5,0.2,0.5,0.5v18.5
		C1772.4,61.5,1772.2,61.8,1771.9,61.8z"/>
	<rect x="1708.1" y="44.9" class="st6" width="60.7" height="14.3"/>
	<polygon class="st7" points="1711.7,55.6 1712.1,48.1 1765,48.1 1764.6,55.6 	"/>
	<line class="st6" x1="1715.9" y1="48.1" x2="1715.4" y2="55.6"/>
	<line class="st6" x1="1719.7" y1="48.1" x2="1719.2" y2="55.6"/>
	<line class="st6" x1="1723.5" y1="48.1" x2="1723" y2="55.6"/>
	<line class="st6" x1="1727.2" y1="48.1" x2="1726.8" y2="55.6"/>
	<line class="st6" x1="1731" y1="48.1" x2="1730.6" y2="55.6"/>
	<line class="st6" x1="1734.8" y1="48.1" x2="1734.3" y2="55.6"/>
	<line class="st6" x1="1738.6" y1="48.1" x2="1738.1" y2="55.6"/>
	<line class="st6" x1="1742.4" y1="48.1" x2="1741.9" y2="55.6"/>
	<line class="st6" x1="1746.1" y1="48.1" x2="1745.7" y2="55.6"/>
	<line class="st6" x1="1749.9" y1="48.1" x2="1749.5" y2="55.6"/>
	<line class="st6" x1="1753.7" y1="48.1" x2="1753.2" y2="55.6"/>
	<line class="st6" x1="1757.5" y1="48.1" x2="1757" y2="55.6"/>
	<line class="st6" x1="1761.3" y1="48.1" x2="1760.8" y2="55.6"/>
	<path class="st6" d="M947.3,61.8h-66.6c-0.3,0-0.5-0.2-0.5-0.5V42.8c0-0.3,0.2-0.5,0.5-0.5h66.6c0.3,0,0.5,0.2,0.5,0.5v18.5
		C947.8,61.5,947.6,61.8,947.3,61.8z"/>
	<polygon class="st7" points="895.4,59 895.9,45.3 933.7,45.3 933.3,59 	"/>
	<path class="st7" d="M21.7,226.4H11.5c0,0-1.7,0.5-1.7-1.8v-1.4H7.3v-1.1H4c0,0-0.4,7.8-0.4,12.2S4,248.1,4,248.1h3.7v-1h2v-2.2
		c0,0,0.1-1.1,1.1-1.1s15.7,0,15.7,0"/>
	<path class="st7" d="M1808.2,226.4h10.3c0,0,1.7,0.5,1.7-1.8v-1.4h2.5v-1.1h3.3c0,0,0.4,7.8,0.4,12.2s-0.4,13.7-0.4,13.7h-3.7v-1
		h-2v-2.2c0,0-0.1-1.1-1.1-1.1s-15.7,0-15.7,0"/>
	<line class="st7" x1="50.8" y1="266.8" x2="50.8" y2="21.8"/>
	<polyline class="st7" points="50.8,29.9 161,24.9 1669,24.9 1778.6,30.6 	"/>
	<polyline class="st7" points="50.8,25 161,20 1669,20 1778.6,25.8 	"/>
	<polyline class="st7" points="50.8,36.3 161,31.3 1669,31.3 1778.6,36.9 	"/>
	<line class="st7" x1="1778.6" y1="47.8" x2="1772.4" y2="47.4"/>
	<polyline class="st7" points="125.2,43.8 125.4,42.1 1633.4,42.1 1704.8,44 	"/>
	<line class="st7" x1="57.6" y1="46.8" x2="50.8" y2="47.1"/>
	<line class="st7" x1="1778.6" y1="59.9" x2="1772.4" y2="59.5"/>
	<polyline class="st7" points="947.8,54.2 1669,54.2 1704.8,56 	"/>
	<polyline class="st7" points="125.2,55.8 161,54.2 880.2,54.2 	"/>
	<line class="st7" x1="57.6" y1="58.9" x2="50.8" y2="59.2"/>
	<line class="st7" x1="1668.8" y1="19.6" x2="1668.8" y2="70.5"/>
	<polyline class="st6" points="389.1,241.2 132.1,241.2 132.1,267.5 	"/>
	<rect x="788.9" y="70.5" class="st6" width="76.6" height="149.5"/>
	<rect x="1422.7" y="70.5" class="st6" width="76.6" height="149.5"/>
	<rect x="416.5" y="241.2" class="st6" width="189.3" height="29.2"/>
	<rect x="621.8" y="241.2" class="st6" width="111.2" height="29.2"/>
	<rect x="767" y="241.2" class="st6" width="89.2" height="29.2"/>
	<rect x="875.9" y="241.2" class="st6" width="66.7" height="29.2"/>
	<rect x="984.7" y="241.2" class="st6" width="99.8" height="29.2"/>
	<rect x="1093.3" y="241.2" class="st6" width="77.8" height="29.2"/>
	<rect x="1171.1" y="241.2" class="st6" width="221.3" height="29.2"/>
</g>
</svg>
