<?xml version="1.0" encoding="utf-8"?>
<!-- Generator: Adobe Illustrator 22.0.1, SVG Export Plug-In . SVG Version: 6.00 Build 0)  -->
<svg version="1.1" id="Type_7" xmlns="http://www.w3.org/2000/svg" xmlns:xlink="http://www.w3.org/1999/xlink" x="0px" y="0px"
	 viewBox="0 0 1906.3 300" style="enable-background:new 0 0 1906.3 300;" xml:space="preserve">
<style type="text/css">
	.st0{fill:#B1B3B3;stroke:#B1B3B3;stroke-miterlimit:10;}
	.st1{fill:#212322;}
	.st2{fill:#DA291C;stroke:#DA291C;stroke-miterlimit:10;}
	.st3{fill:#333F48;}
	.st4{fill:#878787;}
	.st5{fill:none;stroke:#000000;stroke-width:2;stroke-linecap:round;stroke-linejoin:round;}
	.st6{fill:none;stroke:#000000;stroke-width:2;stroke-miterlimit:10;}
</style>
<title>171122_NT_illustrasjoner</title>
<metadata><?xpacket begin="﻿" id="W5M0MpCehiHzreSzNTczkc9d"?>
<x:xmpmeta xmlns:x="adobe:ns:meta/" x:xmptk="Adobe XMP Core 5.6-c143 79.161210, 2017/08/11-10:28:36        ">
   <rdf:RDF xmlns:rdf="http://www.w3.org/1999/02/22-rdf-syntax-ns#">
      <rdf:Description rdf:about=""
            xmlns:dc="http://purl.org/dc/elements/1.1/">
         <dc:title>
            <rdf:Alt>
               <rdf:li xml:lang="x-default">171122_NT_illustrasjoner</rdf:li>
            </rdf:Alt>
         </dc:title>
      </rdf:Description>
   </rdf:RDF>
</x:xmpmeta>
                                                                                                    
                                                                                                    
                                                                                                    
                                                                                                    
                                                                                                    
                                                                                                    
                                                                                                    
                                                                                                    
                                                                                                    
                                                                                                    
                                                                                                    
                                                                                                    
                                                                                                    
                                                                                                    
                                                                                                    
                                                                                                    
                                                                                                    
                                                                                                    
                                                                                                    
                                                                                                    
                           
<?xpacket end="w"?></metadata>
<g id="Farger">
	<g id="Grunnfarge">
		<polygon class="st0" points="20.4,13.5 1885.1,13.5 1885.1,148.7 21.1,148.7 		"/>
		<path class="st1" d="M1556.4,210.2v7.2h21.1c0,0,0.2,3.9,4.7,3.9h10.1v18.8h-39.9c0,0-4.3-7.1-15.3-11.5s-24-1.5-29.7,2.8
			s-8.8,6.7-9.5,8.7h-9.8l-3.9,7.8v11.6h2.6l5-4.5c0,0-4.4,13.5,7.4,27.6s28.6,11.8,28.6,11.8s17.9-0.5,26.7-16.8
			c0,0,5.2-5.9,4.5-20.4l26,13.4h1.9v13.9h4.2l7.1-7.3v-2.3h35.9v2.3l7.1,7.3h4.1v-13.9h1.9l26-13c0,0-2.2,15.6,9.8,26.9
			s23.2,10.5,30.9,9.3s23.6-9,26.8-27.5c0.6-3.6,0.6-7.2,0.1-10.8l4.4,4h2.6v-11.7l-3.9-7.8h-9.7c0,0-5.3-7.8-14.3-11.1
			c-5.4-2-11.2-2.7-17-2.3c0,0-14.7,1.1-22.6,13.4h-40.5v-18.8h11.8c1.8-0.4,3-2,3-3.9h21.1v-7.2H1556.4z"/>
		<path class="st1" d="M230.8,210.2v7.2h21.1c0,0,0.2,3.9,4.7,3.9h10.1v18.8h-39.9c0,0-4.3-7.1-15.3-11.5s-24-1.5-29.7,2.8
			s-8.8,6.7-9.6,8.7h-9.8l-3.9,7.8v11.6h2.6l5-4.5c0,0-4.4,13.5,7.4,27.6s28.6,11.8,28.6,11.8s17.9-0.5,26.7-16.8
			c0,0,5.2-5.9,4.5-20.4l26,13.4h1.9v13.9h4.1l7.1-7.3v-2.3h35.9v2.3l7.1,7.3h4.1v-13.9h1.9l26-13c0,0-2.2,15.6,9.8,26.9
			s23.2,10.5,30.9,9.3s23.6-9,26.8-27.5c0.6-3.6,0.6-7.2,0.1-10.8l4.4,4h2.6v-11.7l-3.9-7.8h-9.7c0,0-5.3-7.8-14.3-11.1
			c-5.4-2-11.2-2.7-17-2.3c0,0-14.7,1.1-22.6,13.4h-40.5v-18.8h11.8c1.8-0.4,3-2,3-3.9h21.1v-7.2L230.8,210.2z"/>
		<polygon class="st1" points="20.6,205.3 4.9,205.4 4.9,198.9 2.4,198.9 2.4,231.1 4.9,231.1 4.9,224.4 37.9,224.4 20.6,207.8 		
			"/>
		<path class="st1" d="M1885.5,205.4h15.9v-6.6h2.3c0,0,0.2,32,0,32h-2.3v-6.7h-32.6l16.7-16.9V205.4z"/>
		<rect x="613.5" y="225.3" class="st1" width="61.8" height="27"/>
		<rect x="688.8" y="225.3" class="st1" width="141.6" height="27"/>
		<rect x="1015.9" y="225.3" class="st1" width="171.9" height="27"/>
		<rect x="1243.8" y="225.3" class="st1" width="56.6" height="27"/>
	</g>
	<g id="Profilering">
		<polygon class="st2" points="20.8,146.5 1884.9,146.5 1884.9,207.9 1869.1,224.3 1745.4,224.3 1733.8,210.2 1497.6,210.2 
			1485.3,225.5 420.4,225.5 408.6,210.2 172.5,210.2 159.8,225.5 39,225.5 20.8,207.8 		"/>
		<polygon class="st3" points="22.3,93 1885.8,93 1885.8,149.7 21.8,149.7 		"/>
		<polygon class="st2" points="1832.2,53.6 72,53.6 25,91.9 1879.2,91.9 		"/>
		<rect x="21.8" y="178.7" class="st0" width="1861.6" height="6.7"/>
		<polygon class="st0" points="1883.1,199.2 1646.6,199.2 1519.7,68.1 393.7,68.1 266.9,199.2 21.4,199.2 21.4,195.8 265.4,195.8 
			392.3,64.7 1521.2,64.7 1648,195.8 1883.1,195.8 		"/>
	</g>
	<g id="Dører_og_vinduer">
		<path class="st4" d="M238.3,95.8h109.8c3.8,0,6.9,3.1,6.9,6.9v34.9c0,3.8-3.1,6.9-6.9,6.9H238.3c-3.8,0-6.9-3.1-6.9-6.9v-34.9
			C231.4,98.9,234.5,95.8,238.3,95.8z"/>
		<path class="st4" d="M463.3,95.8h109.8c3.8,0,6.9,3.1,6.9,6.9v34.9c0,3.8-3.1,6.9-6.9,6.9H463.3c-3.8,0-6.9-3.1-6.9-6.9v-34.9
			C456.4,98.9,459.5,95.8,463.3,95.8z"/>
		<path class="st4" d="M690.8,95.8h35c3.8,0,6.9,3.1,6.9,6.9v34.9c0,3.8-3.1,6.9-6.9,6.9h-35c-3.8,0-6.9-3.1-6.9-6.9v-34.9
			C683.9,98.9,687,95.8,690.8,95.8z"/>
		<path class="st4" d="M1329.5,95.8h109.8c3.8,0,6.9,3.1,6.9,6.9v34.9c0,3.8-3.1,6.9-6.9,6.9h-109.8c-3.8,0-6.9-3.1-6.9-6.9v-34.9
			C1322.6,98.9,1325.7,95.8,1329.5,95.8z"/>
		<path class="st4" d="M1242,95.8h35.3c3.8,0,6.9,3.1,6.9,6.9v34.9c0,3.8-3.1,6.9-6.9,6.9H1242c-3.8,0-6.9-3.1-6.9-6.9v-34.9
			C1235.1,98.9,1238.2,95.8,1242,95.8z"/>
		<path class="st4" d="M1170.8,95.8h35.3c3.8,0,6.9,3.1,6.9,6.9v34.9c0,3.8-3.1,6.9-6.9,6.9h-35.3c-3.8,0-6.9-3.1-6.9-6.9v-34.9
			C1163.9,98.9,1167,95.8,1170.8,95.8z"/>
		<path class="st4" d="M1099.6,95.8h35.3c3.8,0,6.9,3.1,6.9,6.9v34.9c0,3.8-3.1,6.9-6.9,6.9h-35.3c-3.8,0-6.9-3.1-6.9-6.9v-34.9
			C1092.7,98.9,1095.8,95.8,1099.6,95.8z"/>
		<path class="st4" d="M1099.6,63.7h35.3c3.8,0,6.9,3.1,6.9,6.9v7.8c0,3.8-3.1,6.9-6.9,6.9h-35.3c-3.8,0-6.9-3.1-6.9-6.9v-7.8
			C1092.7,66.8,1095.8,63.7,1099.6,63.7z"/>
		<path class="st4" d="M312.6,63.7h35.3c3.8,0,6.9,3.1,6.9,6.9v7.8c0,3.8-3.1,6.9-6.9,6.9h-35.3c-3.8,0-6.9-3.1-6.9-6.9v-7.8
			C305.7,66.8,308.8,63.7,312.6,63.7z"/>
		<path class="st4" d="M237.6,63.7H273c3.8,0,6.9,3.1,6.9,6.9v7.8c0,3.8-3.1,6.9-6.9,6.9h-35.3c-3.8,0-6.9-3.1-6.9-6.9v-7.8
			C230.7,66.8,233.8,63.7,237.6,63.7z"/>
		<path class="st4" d="M1170.9,63.7h35.3c3.8,0,6.9,3.1,6.9,6.9v7.8c0,3.8-3.1,6.9-6.9,6.9h-35.3c-3.8,0-6.9-3.1-6.9-6.9v-7.8
			C1164,66.8,1167.1,63.7,1170.9,63.7z"/>
		<path class="st4" d="M1242,63.7h35.3c3.8,0,6.9,3.1,6.9,6.9v7.8c0,3.8-3.1,6.9-6.9,6.9H1242c-3.8,0-6.9-3.1-6.9-6.9v-7.8
			C1235.1,66.8,1238.2,63.7,1242,63.7z"/>
		<path class="st3" d="M823.5,63.7h59.7c3.8,0,6.9,3.1,6.9,6.9v125.2c0,3.8-3.1,6.9-6.9,6.9h-59.7c-3.8,0-6.9-3.1-6.9-6.9V70.6
			C816.6,66.8,819.7,63.7,823.5,63.7z"/>
		<path class="st3" d="M1491.6,63.7h59.7c3.8,0,6.9,3.1,6.9,6.9v125.2c0,3.8-3.1,6.9-6.9,6.9h-59.7c-3.8,0-6.9-3.1-6.9-6.9V70.6
			C1484.7,66.8,1487.8,63.7,1491.6,63.7z"/>
		<path class="st4" d="M870.6,144.7h-34.4c-2.4,0-4.4-2-4.4-4.4v-39.4c0-2.4,2-4.4,4.4-4.4h34.4c2.4,0,4.4,2,4.4,4.4v39.4
			C875,142.7,873,144.7,870.6,144.7z"/>
		<path class="st4" d="M1538.7,144.7h-34.4c-2.4,0-4.4-2-4.4-4.4v-39.4c0-2.4,2-4.4,4.4-4.4h34.4c2.4,0,4.4,2,4.4,4.4v39.4
			C1543.1,142.7,1541.1,144.7,1538.7,144.7z"/>
	</g>
</g>
<g id="Omriss">
	<polygon class="st5" points="20.7,13.6 1885.5,13.6 1885.5,207.3 1868.4,224.4 1745.9,224.4 1734.1,210.2 1497.8,210.2 
		1485.9,225.5 420.4,225.5 408.4,210.2 172.2,210.2 160.4,225.5 39,225.5 20.7,207.9 	"/>
	<line class="st5" x1="20.7" y1="26.1" x2="1885.5" y2="26.1"/>
	<line class="st5" x1="1885.5" y1="33.4" x2="21" y2="33.4"/>
	<line class="st5" x1="21" y1="53.6" x2="1885.5" y2="53.6"/>
	<path class="st5" d="M1558.9,257.3c0.1,1,0.2,2.1,0.2,3.2c0.3,18.8-14.7,34.3-33.5,34.6c-18.8,0.3-34.3-14.7-34.6-33.5
		c0-0.4,0-0.8,0-1.2c0-1.7,0.1-3.4,0.4-5.1"/>
	<path class="st5" d="M1497.8,240.1c11.3-15.1,32.7-18.1,47.7-6.8c2.6,1.9,4.9,4.2,6.8,6.8"/>
	<path class="st5" d="M1554.7,255.8c0.3,1.6,0.4,3.3,0.4,5c0,16.6-13.5,30.1-30.1,30.1s-30.1-13.5-30.1-30.1c0-2,0.2-4,0.6-5.9"/>
	<path class="st5" d="M1503,240.1c11.4-12.2,30.4-12.8,42.6-1.4c0.5,0.5,1,0.9,1.4,1.4"/>
	<circle class="st5" cx="1525" cy="260.5" r="6.8"/>
	<path class="st5" d="M1740.8,255.6c0.2,1.6,0.4,3.3,0.4,4.9c0.3,18.8-14.7,34.3-33.5,34.6c-18.8,0.3-34.3-14.7-34.6-33.5
		c0-0.4,0-0.8,0-1.2c0-1,0-1.9,0.1-2.9"/>
	<path class="st5" d="M1679.8,240.1c11.3-15.1,32.6-18.1,47.7-6.8c2.6,1.9,4.9,4.2,6.8,6.8"/>
	<path class="st5" d="M1736.6,254.8c3.3,16.3-7.3,32.2-23.6,35.5c-16.3,3.3-32.2-7.3-35.5-23.6c-0.4-2-0.6-3.9-0.6-5.9
		c0-1.5,0.1-3.1,0.3-4.6"/>
	<path class="st5" d="M1685.1,240.1c11.4-12.2,30.4-12.8,42.6-1.4c0.5,0.5,1,0.9,1.4,1.4"/>
	<circle class="st5" cx="1707.1" cy="260.5" r="6.8"/>
	<path class="st5" d="M1486.8,259.6h-2.6v-11.6l3.9-7.8h104.2v-18.8h47.7v18.8h104l3.9,7.8v11.6h-2.6l-5.2-4.8h-9.7v-1.7H1720
		l-9.9-6h-6.6l-9.9,6h-10.2v1.7c0,0-4.9-0.3-17,5.9l-19.4,10h-62.2l-21.7-11.1c0,0-7-4.7-14.9-4.7v-1.7h-10.2l-9.9-6h-6.6l-9.9,6
		h-10.2v1.7h-9.7L1486.8,259.6z"/>
	<polyline class="st5" points="1500.8,254.8 1498.5,260.5 1498.5,265.6 1515.3,274.1 1534.7,274.1 1551.6,265.6 1551.6,260.5 
		1549.1,254.9 	"/>
	<polyline class="st5" points="1682.7,254.8 1680.3,260.5 1680.3,265.6 1697.2,274.1 1716.6,274.1 1733.4,265.6 1733.4,260.5 
		1731,254.9 	"/>
	<path class="st5" d="M1654.7,210.2v7.5c0,2-1.6,3.6-3.6,3.6c0,0,0,0,0,0h-70c-2,0-3.6-1.6-3.6-3.6l0,0v-7.5"/>
	<polyline class="st5" points="1556.3,210.2 1556.3,217.4 1577.4,217.4 	"/>
	<polyline class="st5" points="1675.7,210.2 1675.7,217.4 1654.7,217.4 	"/>
	<polyline class="st5" points="1586.8,270.7 1586.8,284.6 1590.9,284.6 1598.1,277.3 1598.1,275 1634,275 1634,277.3 1641.1,284.6 
		1645.2,284.6 1645.2,270.7 	"/>
	<path class="st5" d="M233.4,257.3c0.1,1.1,0.2,2.2,0.2,3.2c0.3,18.8-14.7,34.3-33.5,34.6c-18.8,0.3-34.3-14.7-34.6-33.5
		c0-0.4,0-0.8,0-1.2c0-1.7,0.1-3.4,0.4-5.1"/>
	<path class="st5" d="M172.2,240.1c11.3-15.1,32.6-18.1,47.7-6.8c2.6,1.9,4.9,4.2,6.8,6.8"/>
	<path class="st5" d="M229.2,255.8c0.3,1.6,0.4,3.3,0.4,5c0,16.6-13.5,30.1-30.1,30.1c-16.6,0-30.1-13.5-30.1-30.1
		c0-2,0.2-4,0.6-5.9"/>
	<path class="st5" d="M177.5,240.1c11.4-12.1,30.4-12.8,42.6-1.4c0.5,0.4,0.9,0.9,1.4,1.4"/>
	<circle class="st5" cx="199.5" cy="260.5" r="6.8"/>
	<path class="st5" d="M415.3,255.6c0.2,1.6,0.4,3.3,0.4,4.9c0.3,18.8-14.7,34.3-33.5,34.6c-18.8,0.3-34.3-14.7-34.6-33.5
		c0-0.4,0-0.8,0-1.2c0-1,0-1.9,0.1-2.9"/>
	<path class="st5" d="M354.3,240.1c11.3-15.1,32.7-18.1,47.7-6.8c2.6,1.9,4.9,4.2,6.8,6.8"/>
	<path class="st5" d="M411.1,254.8c0.4,1.9,0.6,3.9,0.6,5.9c-0.3,16.6-14,29.9-30.7,29.6c-16.2-0.3-29.3-13.4-29.6-29.6
		c0-1.5,0.1-3.1,0.3-4.6"/>
	<path class="st5" d="M359.6,240.1c11.4-12.1,30.4-12.8,42.6-1.4c0.5,0.4,0.9,0.9,1.4,1.4"/>
	<circle class="st5" cx="381.6" cy="260.5" r="6.8"/>
	<path class="st5" d="M161.2,259.6h-2.6v-11.6l3.9-7.8h104.2v-18.8h47.7v18.8h104l3.9,7.8v11.6h-2.6l-5.2-4.8h-9.7v-1.7h-10.1
		l-9.9-6h-6.6l-9.9,6H358v1.7c0,0-4.9-0.3-17,5.9l-19.4,10h-62.2l-21.7-11.2c0,0-6.9-4.7-14.9-4.7v-1.7h-10.2l-9.9-6h-6.6l-9.9,6
		h-10.2v1.7h-9.7L161.2,259.6z"/>
	<polyline class="st5" points="175.3,254.8 172.9,260.5 172.9,265.6 189.8,274.1 209.2,274.1 226,265.6 226,260.5 223.5,254.9 	"/>
	<polyline class="st5" points="357.1,254.8 354.8,260.5 354.8,265.6 371.6,274.1 391.1,274.1 407.9,265.6 407.9,260.5 405.4,254.9 	
		"/>
	<path class="st5" d="M329.1,210.2v7.5c0,2-1.6,3.6-3.6,3.6h0h-70c-2,0-3.6-1.6-3.6-3.6l0,0v-7.5"/>
	<polyline class="st5" points="230.8,210.2 230.8,217.4 251.9,217.4 	"/>
	<polyline class="st5" points="350.2,210.2 350.2,217.4 329.1,217.4 	"/>
	<polyline class="st5" points="261.3,270.7 261.3,284.6 265.4,284.6 272.5,277.3 272.5,275 308.5,275 308.5,277.3 315.6,284.6 
		319.7,284.6 319.7,270.7 	"/>
	<path class="st5" d="M238.3,95.9h109.8c3.8,0,6.9,3.1,6.9,6.9v34.9c0,3.8-3.1,6.9-6.9,6.9H238.3c-3.8,0-6.9-3.1-6.9-6.9v-34.9
		C231.4,99,234.5,95.9,238.3,95.9z"/>
	<rect x="75.5" y="91.9" class="st5" width="733.8" height="56.8"/>
	<rect x="897.4" y="91.9" class="st5" width="580" height="56.8"/>
	<rect x="1565.5" y="91.9" class="st5" width="265.2" height="56"/>
	<path class="st5" d="M463.3,95.9h109.8c3.8,0,6.9,3.1,6.9,6.9v34.9c0,3.8-3.1,6.9-6.9,6.9H463.3c-3.8,0-6.9-3.1-6.9-6.9v-34.9
		C456.4,99,459.5,95.9,463.3,95.9z"/>
	<path class="st5" d="M690.8,95.9h35c3.8,0,6.9,3.1,6.9,6.9v34.9c0,3.8-3.1,6.9-6.9,6.9h-35c-3.8,0-6.9-3.1-6.9-6.9v-34.9
		C683.9,99,687,95.9,690.8,95.9z"/>
	<path class="st5" d="M1099.8,95.9h35c3.8,0,6.9,3.1,6.9,6.9v34.9c0,3.8-3.1,6.9-6.9,6.9h-35c-3.8,0-6.9-3.1-6.9-6.9v-34.9
		C1092.8,99,1095.9,95.9,1099.8,95.9z"/>
	<path class="st5" d="M1099.8,63.7h35c3.8,0,6.9,3.1,6.9,6.9v7.8c0,3.8-3.1,6.9-6.9,6.9h-35c-3.8,0-6.9-3.1-6.9-6.9v-7.8
		C1092.8,66.8,1095.9,63.7,1099.8,63.7z"/>
	<path class="st5" d="M312.8,63.7h35.1c3.8,0,6.9,3.1,6.9,6.9v7.8c0,3.8-3.1,6.9-6.9,6.9h-35.1c-3.8,0-6.9-3.1-6.9-6.9v-7.8
		C305.9,66.8,309,63.7,312.8,63.7z"/>
	<path class="st5" d="M237.8,63.7h35.1c3.8,0,6.9,3.1,6.9,6.9v7.8c0,3.8-3.1,6.9-6.9,6.9h-35.1c-3.8,0-6.9-3.1-6.9-6.9v-7.8
		C230.8,66.8,233.9,63.7,237.8,63.7z"/>
	<path class="st5" d="M1171,63.7h35c3.8,0,6.9,3.1,6.9,6.9v7.8c0,3.8-3.1,6.9-6.9,6.9h-35c-3.8,0-6.9-3.1-6.9-6.9v-7.8
		C1164,66.8,1167.1,63.7,1171,63.7z"/>
	<path class="st5" d="M1242.2,63.7h35c3.8,0,6.9,3.1,6.9,6.9v7.8c0,3.8-3.1,6.9-6.9,6.9h-35c-3.8,0-6.9-3.1-6.9-6.9v-7.8
		C1235.3,66.8,1238.4,63.7,1242.2,63.7z"/>
	<path class="st5" d="M1171,95.9h35c3.8,0,6.9,3.1,6.9,6.9v34.9c0,3.8-3.1,6.9-6.9,6.9h-35c-3.8,0-6.9-3.1-6.9-6.9v-34.9
		C1164,99,1167.1,95.9,1171,95.9z"/>
	<path class="st5" d="M1242.2,95.9h35c3.8,0,6.9,3.1,6.9,6.9v34.9c0,3.8-3.1,6.9-6.9,6.9h-35c-3.8,0-6.9-3.1-6.9-6.9v-34.9
		C1235.3,99,1238.4,95.9,1242.2,95.9z"/>
	<path class="st5" d="M823.5,63.7h59.7c3.8,0,6.9,3.1,6.9,6.9v125.2c0,3.8-3.1,6.9-6.9,6.9h-59.7c-3.8,0-6.9-3.1-6.9-6.9V70.6
		C816.6,66.8,819.7,63.7,823.5,63.7z"/>
	<path class="st5" d="M835.7,95.9H871c2.3,0,4.2,1.9,4.2,4.1v41.1c0,2.3-1.9,4.1-4.2,4.1h-35.4c-2.3,0-4.2-1.9-4.2-4.1V100
		C831.5,97.7,833.4,95.9,835.7,95.9z"/>
	<path class="st5" d="M1491.6,63.7h59.7c3.8,0,6.9,3.1,6.9,6.9v125.2c0,3.8-3.1,6.9-6.9,6.9h-59.7c-3.8,0-6.9-3.1-6.9-6.9V70.6
		C1484.7,66.8,1487.8,63.7,1491.6,63.7z"/>
	<path class="st5" d="M1503.8,95.9h35.4c2.3,0,4.2,1.9,4.2,4.1v41.1c0,2.3-1.9,4.1-4.2,4.1h-35.4c-2.3,0-4.2-1.9-4.2-4.1V100
		C1499.6,97.7,1501.5,95.9,1503.8,95.9z"/>
	<polyline class="st6" points="37.9,224.4 4.9,224.4 4.9,205.5 20.7,205.5 	"/>
	<rect x="2.7" y="198.9" class="st6" width="2.2" height="32"/>
	<polyline class="st6" points="1868.4,224.4 1901.4,224.4 1901.4,205.5 1885.5,205.5 	"/>
	<rect x="1901.4" y="198.9" class="st6" width="2.2" height="32"/>
	<rect x="613.5" y="225.9" class="st5" width="61.8" height="27"/>
	<rect x="688.8" y="225.9" class="st5" width="141.6" height="27"/>
	<rect x="1015.9" y="225.9" class="st5" width="171.9" height="27"/>
	<rect x="1243.8" y="225.9" class="st5" width="56.6" height="27"/>
</g>
</svg>
