<?xml version="1.0" encoding="utf-8"?>
<!-- Generator: Adobe Illustrator 22.0.1, SVG Export Plug-In . SVG Version: 6.00 Build 0)  -->
<svg version="1.1" id="WLAB2__x28_Sovevogn_x29_" xmlns="http://www.w3.org/2000/svg" xmlns:xlink="http://www.w3.org/1999/xlink"
	 x="0px" y="0px" viewBox="0 0 1950 324" style="enable-background:new 0 0 1950 324;" xml:space="preserve">
<metadata><?xpacket begin="﻿" id="W5M0MpCehiHzreSzNTczkc9d"?>
<x:xmpmeta xmlns:x="adobe:ns:meta/" x:xmptk="Adobe XMP Core 5.6-c143 79.161210, 2017/08/11-10:28:36        ">
   <rdf:RDF xmlns:rdf="http://www.w3.org/1999/02/22-rdf-syntax-ns#">
      <rdf:Description rdf:about=""/>
   </rdf:RDF>
</x:xmpmeta>
                                                                                                    
                                                                                                    
                                                                                                    
                                                                                                    
                                                                                                    
                                                                                                    
                                                                                                    
                                                                                                    
                                                                                                    
                                                                                                    
                                                                                                    
                                                                                                    
                                                                                                    
                                                                                                    
                                                                                                    
                                                                                                    
                                                                                                    
                                                                                                    
                                                                                                    
                                                                                                    
                           
<?xpacket end="w"?></metadata>
<style type="text/css">
	.st0{fill:#B1B3B3;}
	.st1{fill:#212322;}
	.st2{fill:#101820;}
	.st3{fill:#DA291C;}
	.st4{fill:#878787;}
	.st5{fill:#FA4616;}
	.st6{fill:none;stroke:#000000;stroke-width:2;stroke-linecap:round;stroke-linejoin:round;stroke-miterlimit:10;}
	.st7{fill:none;stroke:#000000;stroke-width:2;stroke-miterlimit:10;}
</style>
<g id="Mål_17_">
</g>
<g id="Farger_17_">
	<g id="Grunnfarge_13_">
		<polygon class="st0" points="1927.2,19 1882.2,10.3 71.5,10.3 23.1,19 23.1,106 1927.2,106 		"/>
		<path class="st1" d="M1716.2,239.5h-109.5v6.9l19.3,0.2c0,0-2.8,3.3,13.6,3.3v17.2h-36.6c0,0-6.3-12.5-25-12.5s-25,12.5-25,12.5
			h-8.8l-3.6,7.2V285h2.9l3.5-3.6c0,0-4.1,13.5,10.5,28.2c0,0,7.5,7.6,20.4,7.6s18-5.9,25.9-13.8c0,0,5.2-7.3,5.2-20l25.6,12.6v12.2
			h3.8l6.5-6.7v-2.2h32.9v2.2l6.5,6.7h3.8v-12.7l2.1-0.2l23.4-12.1c0,0-0.9,14.9,8.5,24.3s19.5,9.8,19.5,9.8s14.6,1.4,23.6-7.6
			s10.4-17,10.9-21.5s0.4-6.9,0.4-6.9l3.5,3.8h2.4v-10.9l-3.9-7h-9.3c0,0-8.3-12.5-22.6-12.5c-14.3,0-22,5.8-26.7,12.9h-36.7v-17.7
			h10.4c0,0,3.4-0.3,3.4-3.4l18.9-0.1L1716.2,239.5z"/>
		<path class="st1" d="M339.1,239.5H229.6v6.9l19.3,0.2c0,0-2.8,3.3,13.6,3.3v17.2h-36.7c0,0-6.3-12.5-25-12.5s-25,12.5-25,12.5H167
			l-3.6,7.2V285h2.9l3.5-3.6c0,0-4.1,13.5,10.5,28.2c0,0,7.5,7.6,20.4,7.6s18-5.9,25.9-13.8c0,0,5.2-7.3,5.2-20l25.6,12.5v12.2h3.8
			l6.5-6.7v-2.2h33.1v2.2l6.5,6.7h3.8v-12.7l2.1-0.2l23.4-12.1c0,0-0.9,14.9,8.5,24.3s19.5,9.8,19.5,9.8s14.6,1.4,23.6-7.6
			s10.4-17,10.9-21.5s0.4-6.9,0.4-6.9l3.5,3.8h2.4v-10.9l-3.9-7h-9.3c0,0-8.3-12.5-22.6-12.5s-22,5.8-26.7,12.9h-36.7v-17.7h10.4
			c0,0,3.4-0.3,3.4-3.4l18.9-0.1L339.1,239.5z"/>
		<path class="st1" d="M22.3,223.8H11.9c0,0-1.7,0.2-1.7-3.4H7.8v-1.1H4.5c0,0-0.6,11.3,0,25.9h3.7v-0.9h2c0,0-0.4-3.2,0.6-3.2
			s11.6-0.2,11.6-0.2L22.3,223.8z"/>
		<path class="st1" d="M1927.2,222.8h10.4c0,0,1.7,0.2,1.7-3.4h2.5v-1.1h3.3c0,0,0.6,11.3,0,25.9h-3.7v-0.9h-2c0,0,0.4-3.2-0.6-3.2
			s-11.6-0.2-11.6-0.2L1927.2,222.8z"/>
	</g>
	<g id="Profilering_17_">
		<rect x="23.1" y="106" class="st2" width="1904.1" height="62"/>
		<polygon class="st3" points="1927.2,239.8 161.6,239.8 147,251.5 63.7,251.5 52.1,240.8 23.1,240.8 23.1,168.1 1927.2,168.1 		"/>
		<polygon class="st3" points="172.4,105.9 228.7,61.5 1773.2,61.5 1829.5,105.9 		"/>
		<g>
			<polygon class="st0" points="1927.2,216.5 1653.8,216.5 1527,85.4 401,85.4 274.2,216.5 21.9,216.5 21.9,213.1 272.7,213.1 
				399.6,82 1528.5,82 1655.3,213.1 1927.2,213.1 			"/>
		</g>
		<g>
			<rect x="22.3" y="196" class="st0" width="1904.4" height="6.7"/>
		</g>
	</g>
	<g id="Dører_og_vinduer_15_">
		<path class="st4" d="M1735,159.2h61.7c4.2,0,7.6-3.4,7.6-7.6V122c0-4.2-3.4-7.6-7.6-7.6H1735c-4.2,0-7.6,3.4-7.6,7.6v29.6
			C1727.2,155.8,1730.8,159.2,1735,159.2z"/>
		<path class="st4" d="M1637.2,159.2h61.7c4.2,0,7.6-3.4,7.6-7.6V122c0-4.2-3.4-7.6-7.6-7.6h-61.7c-4.2,0-7.6,3.4-7.6,7.6v29.6
			C1629.7,155.8,1633.1,159.2,1637.2,159.2z"/>
		<path class="st4" d="M1437.1,159.2h61.7c4.2,0,7.6-3.4,7.6-7.6V122c0-4.2-3.4-7.6-7.6-7.6h-61.7c-4.2,0-7.6,3.4-7.6,7.6v29.6
			C1429.3,155.8,1432.8,159.2,1437.1,159.2z"/>
		<path class="st4" d="M1336.8,159.2h61.7c4.2,0,7.6-3.4,7.6-7.6V122c0-4.2-3.4-7.6-7.6-7.6h-61.7c-4.2,0-7.6,3.4-7.6,7.6v29.6
			C1329.2,155.8,1332.7,159.2,1336.8,159.2z"/>
		<path class="st4" d="M1238.3,159.2h61.7c4.2,0,7.6-3.4,7.6-7.6V122c0-4.2-3.4-7.6-7.6-7.6h-61.7c-4.2,0-7.6,3.4-7.6,7.6v29.6
			C1230.8,155.8,1234.2,159.2,1238.3,159.2z"/>
		<path class="st4" d="M1138,159.2h61.7c4.2,0,7.6-3.4,7.6-7.6V122c0-4.2-3.4-7.6-7.6-7.6H1138c-4.2,0-7.6,3.4-7.6,7.6v29.6
			C1130.2,155.8,1133.7,159.2,1138,159.2z"/>
		<path class="st4" d="M1039.8,159.2h61.7c4.2,0,7.6-3.4,7.6-7.6V122c0-4.2-3.4-7.6-7.6-7.6h-61.7c-4.2,0-7.6,3.4-7.6,7.6v29.6
			C1032.2,155.8,1035.7,159.2,1039.8,159.2z"/>
		<path class="st4" d="M940.4,159.2h61.7c4.2,0,7.6-3.4,7.6-7.6V122c0-4.2-3.4-7.6-7.6-7.6h-61.7c-4.2,0-7.6,3.4-7.6,7.6v29.6
			C932.8,155.8,936.2,159.2,940.4,159.2z"/>
		<path class="st4" d="M837.2,159.2h61.7c4.2,0,7.6-3.4,7.6-7.6V122c0-4.2-3.4-7.6-7.6-7.6h-61.7c-4.2,0-7.6,3.4-7.6,7.6v29.6
			C829.5,155.8,833,159.2,837.2,159.2z"/>
		<path class="st4" d="M739.1,159.2h61.7c4.2,0,7.6-3.4,7.6-7.6V122c0-4.2-3.4-7.6-7.6-7.6h-61.7c-4.2,0-7.6,3.4-7.6,7.6v29.6
			C731.5,155.8,734.9,159.2,739.1,159.2z"/>
		<path class="st4" d="M639.6,159.2h61.7c4.2,0,7.6-3.4,7.6-7.6V122c0-4.2-3.4-7.6-7.6-7.6h-61.7c-4.2,0-7.6,3.4-7.6,7.6v29.6
			C632,155.8,635.4,159.2,639.6,159.2z"/>
		<path class="st4" d="M539.2,159.2h61.7c4.2,0,7.6-3.4,7.6-7.6V122c0-4.2-3.4-7.6-7.6-7.6h-61.7c-4.2,0-7.6,3.4-7.6,7.6v29.6
			C531.6,155.8,535,159.2,539.2,159.2z"/>
		<path class="st4" d="M438.3,159.2H500c4.2,0,7.6-3.4,7.6-7.6V122c0-4.2-3.4-7.6-7.6-7.6h-61.7c-4.2,0-7.6,3.4-7.6,7.6v29.6
			C430.7,155.8,434.1,159.2,438.3,159.2z"/>
		<path class="st4" d="M52.5,155.3H31.9c-2.4,0-4.3-1.9-4.3-4.3v-29c0-2.4,1.9-4.3,4.3-4.3h20.6c2.4,0,4.3,1.9,4.3,4.3v29
			C56.8,153.4,54.9,155.3,52.5,155.3z"/>
		<path class="st4" d="M1536.3,159.2h61.7c4.2,0,7.6-3.4,7.6-7.6V122c0-4.2-3.4-7.6-7.6-7.6h-61.7c-4.2,0-7.6,3.4-7.6,7.6v29.6
			C1528.8,155.8,1532.2,159.2,1536.3,159.2z"/>
		<path class="st4" d="M339.3,159.2H401c4.2,0,7.6-3.4,7.6-7.6V122c0-4.2-3.4-7.6-7.6-7.6h-61.7c-4.2,0-7.6,3.4-7.6,7.6v29.6
			C331.7,155.8,335.1,159.2,339.3,159.2z"/>
		<rect x="66.3" y="24.5" class="st5" width="77.8" height="218.6"/>
		<path class="st4" d="M129.5,158.2H82.8c-2.7,0-4.9-2.2-4.9-4.9v-30.9c0-2.7,2.2-4.9,4.9-4.9h46.7c2.7,0,4.9,2.2,4.9,4.9v30.9
			C134.4,156,132.2,158.2,129.5,158.2z"/>
	</g>
	<rect x="556.9" y="240.1" class="st1" width="59.9" height="29.2"/>
	<rect x="640" y="240.1" class="st1" width="134.5" height="29.2"/>
	<rect x="792.2" y="240.1" class="st1" width="56.3" height="29.2"/>
	<rect x="855" y="240.1" class="st1" width="77.7" height="29.2"/>
	<rect x="976.9" y="240.1" class="st1" width="67" height="29.2"/>
	<rect x="1194.2" y="240.1" class="st1" width="78.2" height="29.2"/>
	<rect x="1427.2" y="240.1" class="st1" width="58.2" height="29.2"/>
	<rect x="1284.8" y="240.1" class="st1" width="121.3" height="29.2"/>
</g>
<g id="Omriss_17_">
	<polygon class="st6" points="1927.2,19 1883.6,10.3 71.5,10.3 23.1,19 23.1,240.8 52.1,240.8 63.7,251.5 147,251.5 161.6,239.8 
		1507.8,239.8 1927.2,239.8 	"/>
	<path class="st6" d="M336.8,283c-0.1,1-0.1,2-0.1,3c0,17.2,14,31.2,31.2,31.2s31.2-14,31.2-31.2c0-1.6-0.1-3.2-0.4-4.7"/>
	<path class="st6" d="M392.9,267.2c-5.7-7.6-14.7-12.5-25-12.5s-19.3,4.9-25,12.5"/>
	<path class="st6" d="M342.5,282c-0.2,1.4-0.4,2.8-0.4,4.2c0,14.2,11.5,25.7,25.7,25.7s25.7-11.5,25.7-25.7c0-1.7-0.2-3.4-0.5-5"/>
	<path class="st6" d="M385.3,267.2c-4.6-4.2-10.7-6.8-17.4-6.8s-12.8,2.6-17.4,6.8"/>
	<circle class="st6" cx="367.9" cy="286" r="6.2"/>
	<path class="st6" d="M170,281.5c-0.2,1.5-0.3,3-0.3,4.5c0,17.2,14,31.2,31.2,31.2s31.2-14,31.2-31.2c0-0.9,0-1.8-0.1-2.6"/>
	<path class="st6" d="M225.9,267.2c-5.7-7.6-14.7-12.5-25-12.5s-19.3,4.9-25,12.5"/>
	<path class="st6" d="M175.7,281.1c-0.3,1.6-0.5,3.3-0.5,5c0,14.2,11.5,25.7,25.7,25.7s25.7-11.5,25.7-25.7c0-1.3-0.1-2.6-0.3-3.9"
		/>
	<path class="st6" d="M218.3,267.2c-4.6-4.2-10.7-6.8-17.4-6.8s-12.8,2.6-17.4,6.8"/>
	<circle class="st6" cx="200.9" cy="286" r="6.2"/>
	<path class="st6" d="M402.9,285.1h2.4v-10.7l-3.6-7.2h-95.6V250h-43.7v17.2H167l-3.6,7.2v10.7h2.4l4.8-4.4h8.9v-1.6h9.3l9.1-5.5h6
		l9.1,5.5h9.3v1.6c0,0,4.5-0.3,15.6,5.4s17.8,9.1,17.8,9.1h57.1l19.9-10.2c0,0,6.4-4.3,13.7-4.3v-1.6h9.3l9.1-5.5h6l9.1,5.5h9.3v1.6
		h8.9L402.9,285.1z"/>
	<path class="st6" d="M390.1,280.8"/>
	<polyline class="st6" points="390.1,280.8 392.2,286 392.2,290.6 376.8,298.3 358.9,298.3 343.5,290.6 343.5,286 345.8,280.8 	"/>
	<polyline class="st6" points="223.3,280.8 225.4,286 225.4,290.6 210,298.3 192.1,298.3 176.7,290.6 176.7,286 179,280.8 	"/>
	<path class="st6" d="M249,239.8v6.8c0,1.8,1.5,3.3,3.3,3.3h64.2c1.8,0,3.3-1.5,3.3-3.3v-6.8"/>
	<polyline class="st6" points="339.1,239.8 339.1,246.5 319.8,246.5 	"/>
	<polyline class="st6" points="229.6,239.8 229.6,246.5 249,246.5 	"/>
	<polyline class="st6" points="311.2,295.3 311.2,308 307.4,308 300.9,301.5 300.9,299.2 267.9,299.2 267.9,301.5 261.4,308 
		257.6,308 257.6,295.3 	"/>
	<path class="st6" d="M1713.8,283c-0.1,1-0.1,2-0.1,3c0,17.2,14,31.2,31.2,31.2s31.2-14,31.2-31.2c0-1.6-0.1-3.2-0.4-4.7"/>
	<path class="st6" d="M1770,267.2c-5.7-7.6-14.7-12.5-25-12.5s-19.3,4.9-25,12.5"/>
	<path class="st6" d="M1719.7,282c-0.2,1.4-0.4,2.8-0.4,4.2c0,14.2,11.5,25.7,25.7,25.7s25.7-11.5,25.7-25.7c0-1.7-0.2-3.4-0.5-5"/>
	<path class="st6" d="M1762.3,267.2c-4.6-4.2-10.7-6.8-17.4-6.8c-6.7,0-12.8,2.6-17.4,6.8"/>
	<circle class="st6" cx="1745" cy="286" r="6.2"/>
	<path class="st6" d="M1547.1,281.5c-0.2,1.5-0.3,3-0.3,4.5c0,17.2,14,31.2,31.2,31.2s31.2-14,31.2-31.2c0-0.9,0-1.8-0.1-2.6"/>
	<path class="st6" d="M1603,267.2c-5.7-7.6-14.7-12.5-25-12.5s-19.3,4.9-25,12.5"/>
	<path class="st6" d="M1552.8,281.1c-0.3,1.6-0.5,3.3-0.5,5c0,14.2,11.5,25.7,25.7,25.7s25.7-11.5,25.7-25.7c0-1.3-0.1-2.6-0.3-3.9"
		/>
	<path class="st6" d="M1595.3,267.2c-4.6-4.2-10.7-6.8-17.4-6.8c-6.7,0-12.8,2.6-17.4,6.8"/>
	<circle class="st6" cx="1578" cy="286" r="6.2"/>
	<path class="st6" d="M1780.1,285.1h2.4v-10.7l-3.6-7.2h-95.6V250h-43.7v17.2h-95.4l-3.6,7.2v10.7h2.4l4.8-4.4h8.9v-1.6h9.3l9.1-5.5
		h6l9.1,5.5h9.3v1.6c0,0,4.5-0.3,15.6,5.4s17.8,9.1,17.8,9.1h57.1l19.9-10.2c0,0,6.4-4.3,13.7-4.3v-1.6h9.3l9.1-5.5h6l9.1,5.5h9.3
		v1.6h8.9L1780.1,285.1z"/>
	<path class="st6" d="M1767.2,280.8"/>
	<polyline class="st6" points="1767.2,280.8 1769.3,286 1769.3,290.6 1753.8,298.3 1736.1,298.3 1720.7,290.6 1720.7,286 
		1723,280.8 	"/>
	<polyline class="st6" points="1600.3,280.8 1602.6,286 1602.6,290.6 1587.1,298.3 1569.2,298.3 1553.8,290.6 1553.8,286 
		1556.1,280.8 	"/>
	<path class="st6" d="M1626.1,239.8v6.8c0,1.8,1.5,3.3,3.3,3.3h64.2c1.8,0,3.3-1.5,3.3-3.3v-6.8"/>
	<polyline class="st6" points="1716.2,239.8 1716.2,246.5 1697,246.5 	"/>
	<polyline class="st6" points="1606.8,239.8 1606.8,246.5 1626.1,246.5 	"/>
	<polyline class="st6" points="1688.2,295.3 1688.2,308 1684.6,308 1678,301.5 1678,299.2 1645.1,299.2 1645.1,301.5 1638.5,308 
		1634.8,308 1634.8,295.3 	"/>
	<path class="st6" d="M1735,159.2h61.7c4.2,0,7.6-3.4,7.6-7.6V122c0-4.2-3.4-7.6-7.6-7.6H1735c-4.2,0-7.6,3.4-7.6,7.6v29.6
		C1727.2,155.8,1730.8,159.2,1735,159.2z"/>
	<path class="st6" d="M1637.2,159.2h61.7c4.2,0,7.6-3.4,7.6-7.6V122c0-4.2-3.4-7.6-7.6-7.6h-61.7c-4.2,0-7.6,3.4-7.6,7.6v29.6
		C1629.7,155.8,1633.1,159.2,1637.2,159.2z"/>
	<path class="st6" d="M1536.3,159.2h61.7c4.2,0,7.6-3.4,7.6-7.6V122c0-4.2-3.4-7.6-7.6-7.6h-61.7c-4.2,0-7.6,3.4-7.6,7.6v29.6
		C1528.8,155.8,1532.2,159.2,1536.3,159.2z"/>
	<path class="st6" d="M1437.1,159.2h61.7c4.2,0,7.6-3.4,7.6-7.6V122c0-4.2-3.4-7.6-7.6-7.6h-61.7c-4.2,0-7.6,3.4-7.6,7.6v29.6
		C1429.3,155.8,1432.8,159.2,1437.1,159.2z"/>
	<path class="st6" d="M1336.8,159.2h61.7c4.2,0,7.6-3.4,7.6-7.6V122c0-4.2-3.4-7.6-7.6-7.6h-61.7c-4.2,0-7.6,3.4-7.6,7.6v29.6
		C1329.2,155.8,1332.7,159.2,1336.8,159.2z"/>
	<path class="st6" d="M1238.3,159.2h61.7c4.2,0,7.6-3.4,7.6-7.6V122c0-4.2-3.4-7.6-7.6-7.6h-61.7c-4.2,0-7.6,3.4-7.6,7.6v29.6
		C1230.8,155.8,1234.2,159.2,1238.3,159.2z"/>
	<path class="st6" d="M1138,159.2h61.7c4.2,0,7.6-3.4,7.6-7.6V122c0-4.2-3.4-7.6-7.6-7.6H1138c-4.2,0-7.6,3.4-7.6,7.6v29.6
		C1130.2,155.8,1133.7,159.2,1138,159.2z"/>
	<path class="st6" d="M1039.8,159.2h61.7c4.2,0,7.6-3.4,7.6-7.6V122c0-4.2-3.4-7.6-7.6-7.6h-61.7c-4.2,0-7.6,3.4-7.6,7.6v29.6
		C1032.2,155.8,1035.7,159.2,1039.8,159.2z"/>
	<path class="st6" d="M940.4,159.2h61.7c4.2,0,7.6-3.4,7.6-7.6V122c0-4.2-3.4-7.6-7.6-7.6h-61.7c-4.2,0-7.6,3.4-7.6,7.6v29.6
		C932.8,155.8,936.2,159.2,940.4,159.2z"/>
	<path class="st6" d="M837.2,159.2h61.7c4.2,0,7.6-3.4,7.6-7.6V122c0-4.2-3.4-7.6-7.6-7.6h-61.7c-4.2,0-7.6,3.4-7.6,7.6v29.6
		C829.5,155.8,833,159.2,837.2,159.2z"/>
	<path class="st6" d="M739.1,159.2h61.7c4.2,0,7.6-3.4,7.6-7.6V122c0-4.2-3.4-7.6-7.6-7.6h-61.7c-4.2,0-7.6,3.4-7.6,7.6v29.6
		C731.5,155.8,734.9,159.2,739.1,159.2z"/>
	<path class="st6" d="M639.6,159.2h61.7c4.2,0,7.6-3.4,7.6-7.6V122c0-4.2-3.4-7.6-7.6-7.6h-61.7c-4.2,0-7.6,3.4-7.6,7.6v29.6
		C632,155.8,635.4,159.2,639.6,159.2z"/>
	<path class="st6" d="M539.2,159.2h61.7c4.2,0,7.6-3.4,7.6-7.6V122c0-4.2-3.4-7.6-7.6-7.6h-61.7c-4.2,0-7.6,3.4-7.6,7.6v29.6
		C531.6,155.8,535,159.2,539.2,159.2z"/>
	<path class="st6" d="M438.3,159.2H500c4.2,0,7.6-3.4,7.6-7.6V122c0-4.2-3.4-7.6-7.6-7.6h-61.7c-4.2,0-7.6,3.4-7.6,7.6v29.6
		C430.7,155.8,434.1,159.2,438.3,159.2z"/>
	<path class="st6" d="M339.3,159.2H401c4.2,0,7.6-3.4,7.6-7.6V122c0-4.2-3.4-7.6-7.6-7.6h-61.7c-4.2,0-7.6,3.4-7.6,7.6v29.6
		C331.7,155.8,335.1,159.2,339.3,159.2z"/>
	<path class="st6" d="M129.5,158.2H82.8c-2.7,0-4.9-2.2-4.9-4.9v-30.9c0-2.7,2.2-4.9,4.9-4.9h46.7c2.7,0,4.9,2.2,4.9,4.9v30.9
		C134.4,156,132.2,158.2,129.5,158.2z"/>
	<path class="st6" d="M52.5,155.3H31.9c-2.4,0-4.3-1.9-4.3-4.3v-29c0-2.4,1.9-4.3,4.3-4.3h20.6c2.4,0,4.3,1.9,4.3,4.3v29
		C56.8,153.4,54.9,155.3,52.5,155.3z"/>
	<path class="st6" d="M144.1,243.1H65.8V77c0-4,3.2-7.2,7.2-7.2h64c4,0,7.2,3.2,7.2,7.2L144.1,243.1L144.1,243.1z"/>
	<line class="st6" x1="1882.2" y1="239.8" x2="1882.2" y2="10.3"/>
	<line class="st6" x1="61.9" y1="250" x2="61.9" y2="12"/>
	<line class="st6" x1="1882.2" y1="61.5" x2="61.9" y2="61.5"/>
	<line class="st6" x1="1882.2" y1="44.4" x2="61.9" y2="44.4"/>
	<line class="st6" x1="1882.2" y1="24.4" x2="61.9" y2="24.4"/>
	<line class="st6" x1="1927.2" y1="33.1" x2="1882.2" y2="24.4"/>
	<line class="st6" x1="1927.2" y1="53.1" x2="1882.2" y2="44.4"/>
	<line class="st6" x1="1927.2" y1="70.2" x2="1882.2" y2="61.5"/>
	<line class="st6" x1="61.9" y1="24.4" x2="23.1" y2="31.4"/>
	<line class="st6" x1="61.9" y1="44.4" x2="23.1" y2="51.4"/>
	<line class="st6" x1="61.9" y1="61.5" x2="23.1" y2="68.5"/>
	<line class="st6" x1="1804.2" y1="128.8" x2="1727.6" y2="128.8"/>
	<line class="st6" x1="1706.5" y1="128.8" x2="1629.8" y2="128.8"/>
	<line class="st6" x1="1605.5" y1="128.8" x2="1528.8" y2="128.8"/>
	<line class="st6" x1="1505.8" y1="128.8" x2="1429.2" y2="128.8"/>
	<line class="st6" x1="1406" y1="128.8" x2="1329.3" y2="128.8"/>
	<line class="st6" x1="1307.5" y1="128.8" x2="1230.8" y2="128.8"/>
	<line class="st6" x1="1207.1" y1="128.8" x2="1130.5" y2="128.8"/>
	<line class="st6" x1="1108.2" y1="128.8" x2="1031.7" y2="128.8"/>
	<line class="st6" x1="1009.5" y1="128.8" x2="932.9" y2="128.8"/>
	<line class="st6" x1="906.2" y1="128.8" x2="829.7" y2="128.8"/>
	<line class="st6" x1="808.2" y1="128.8" x2="731.6" y2="128.8"/>
	<line class="st6" x1="708.2" y1="128.8" x2="631.7" y2="128.8"/>
	<line class="st6" x1="608.1" y1="128.8" x2="531.5" y2="128.8"/>
	<line class="st6" x1="507.4" y1="128.8" x2="430.8" y2="128.8"/>
	<line class="st6" x1="408.4" y1="128.8" x2="331.8" y2="128.8"/>
	<path class="st7" d="M22.3,223.5H12c0,0-1.7,0.5-1.7-1.8v-1.4H7.8v-1.1H4.5c0,0-0.4,7.8-0.4,12.2s0.4,13.7,0.4,13.7h3.7v-1h2V242
		c0,0,0.1-1.1,1.1-1.1s15.7,0,15.7,0"/>
	<path class="st7" d="M1926.7,222.5h10.3c0,0,1.7,0.5,1.7-1.8v-1.4h2.5v-1.1h3.3c0,0,0.4,7.8,0.4,12.2s-0.4,13.7-0.4,13.7h-3.7v-1
		h-2V241c0,0-0.1-1.1-1.1-1.1s-15.7,0-15.7,0"/>
	<rect x="640.2" y="240.1" class="st6" width="134.3" height="29.2"/>
	<rect x="792.9" y="240.1" class="st6" width="55.6" height="29.2"/>
	<rect x="556.9" y="240.1" class="st6" width="59.9" height="29.2"/>
	<rect x="977.1" y="240.1" class="st6" width="66.7" height="29.2"/>
	<rect x="856.1" y="240.1" class="st6" width="76.7" height="29.2"/>
	<rect x="1194.5" y="240.1" class="st6" width="77.8" height="29.2"/>
	<rect x="1427.2" y="240.1" class="st6" width="58.2" height="29.2"/>
	<rect x="1284.8" y="240.1" class="st6" width="121.3" height="29.2"/>
</g>
</svg>
